<?xml version="1.0" encoding="utf-8"?>
<!-- Generator: Adobe Illustrator 24.2.0, SVG Export Plug-In . SVG Version: 6.00 Build 0)  -->
<svg version="1.1" id="Barber_ShortB_Start_Finish_Line"
	 xmlns="http://www.w3.org/2000/svg" xmlns:xlink="http://www.w3.org/1999/xlink" x="0px" y="0px" viewBox="0 0 1920 1080"
	 style="enable-background:new 0 0 1920 1080;" xml:space="preserve">
<style type="text/css">
	.st0{fill:#D82520;}
</style>
<path class="st0" d="M442.1,232.3c-2.8,0-5,2.2-5,5v61c0,2.8,2.2,5,5,5s5-2.2,5-5v-61C447.1,234.5,444.8,232.3,442.1,232.3z"/>
<path class="st0" d="M551,181.1l-84.8-43.5l11.2,33l-61.5-4.6c-2.7-0.3-5.2,1.7-5.5,4.5c-0.3,2.7,1.7,5.2,4.5,5.5c0.1,0,0.2,0,0.2,0
	l61.5,4.6l-16,30.9L551,181.1z"/>
</svg>
