<?xml version="1.0" encoding="utf-8"?>
<!-- Generator: Adobe Illustrator 24.0.1, SVG Export Plug-In . SVG Version: 6.00 Build 0)  -->
<svg version="1.1" id="Oval_-_Start_Finish_Line" xmlns="http://www.w3.org/2000/svg" xmlns:xlink="http://www.w3.org/1999/xlink"
	 x="0px" y="0px" viewBox="0 0 1920 1080" style="enable-background:new 0 0 1920 1080;" xml:space="preserve">
<style type="text/css">
	.st0{fill:#D82520;}
</style>
<title>start-finish</title>
<g id="Start_Finish_Link">
	<path class="st0" d="M1323.7,913.1c0.8,2,2.7,3.2,4.7,3.2c0.6,0,1.2-0.1,1.8-0.3c2.6-1,3.8-3.9,2.8-6.5l-22.2-56.8
		c-1-2.6-3.9-3.8-6.5-2.8c-2.6,1-3.8,3.9-2.8,6.5L1323.7,913.1z"/>
	<path class="st0" d="M1420.3,947l-95.1-5.6l23.5,25.6l-58.1,20.6c-2.5,1-3.7,3.7-2.9,6.2c0.8,2.6,3.6,4.1,6.3,3.3l58.1-20.6
		l-2.1,34.7L1420.3,947z"/>
</g>
</svg>
