<?xml version="1.0" encoding="utf-8"?>
<!-- Generator: Adobe Illustrator 24.0.1, SVG Export Plug-In . SVG Version: 6.00 Build 0)  -->
<svg version="1.1" id="Infield_RC_Short_B_-_Start_Finish_Line"
	 xmlns="http://www.w3.org/2000/svg" xmlns:xlink="http://www.w3.org/1999/xlink" x="0px" y="0px" viewBox="0 0 1920 1080"
	 style="enable-background:new 0 0 1920 1080;" xml:space="preserve">
<style type="text/css">
	.st0{fill:#D82520;}
</style>
<title>start-finish</title>
<g id="Start_Finish_Link">
	<path class="st0" d="M1203.5,313.1c-2.8-0.1-5.1,2-5.2,4.8l-2.7,61c-0.1,2.8,2,5.1,4.8,5.2c0.1,0,0.1,0,0.2,0c2.7,0,4.9-2.1,5-4.8
		l2.7-61C1208.4,315.5,1206.3,313.2,1203.5,313.1z"/>
	<path class="st0" d="M1288.4,280.3l-61.6-3.1l15.2-31.3l-89.5,32.5l85.8,41.4l-12-32.7l61.6,3.1l0,0c2.8,0.1,5.1-2,5.3-4.7
		S1291.1,280.4,1288.4,280.3z"/>
</g>
</svg>
