<?xml version="1.0" encoding="utf-8"?>
<!-- Generator: Adobe Illustrator 24.0.1, SVG Export Plug-In . SVG Version: 6.00 Build 0)  -->
<svg version="1.1" id="North_-_Start_Finish_Line" xmlns="http://www.w3.org/2000/svg" xmlns:xlink="http://www.w3.org/1999/xlink"
	 x="0px" y="0px" viewBox="0 0 1920 1080" style="enable-background:new 0 0 1920 1080;" xml:space="preserve">
<style type="text/css">
	.st0{fill:#D82520;}
</style>
<title>start-finish</title>
<g id="Start_Finish_Link">
	<path class="st0" d="M344.1,476l-43.2-43.2c-2-2-5.1-2-7.1,0c-2,2-2,5.1,0,7.1L337,483c1,1,2.3,1.5,3.5,1.5c1.3,0,2.6-0.5,3.5-1.5
		C346,481.1,346,477.9,344.1,476z"/>
	<path class="st0" d="M216.7,383.6l32.8,11.5L208,440.7h0c-1.9,2-1.7,5.2,0.3,7.1c2,1.9,5.2,1.7,7.1-0.3l41.5-45.6l14.5,31.6
		l31.8-89.8L216.7,383.6z"/>
</g>
</svg>
