<?xml version="1.0" encoding="utf-8"?>
<!-- Generator: Adobe Illustrator 24.0.1, SVG Export Plug-In . SVG Version: 6.00 Build 0)  -->
<svg version="1.1" id="Mosport_-_Start_Finish_Line"
	 xmlns="http://www.w3.org/2000/svg" xmlns:xlink="http://www.w3.org/1999/xlink" x="0px" y="0px" viewBox="0 0 1920 1080"
	 style="enable-background:new 0 0 1920 1080;" xml:space="preserve">
<style type="text/css">
	.st0{fill:#D82520;}
</style>
<title>start-finish</title>
<g id="Start_Finish_Link">
	<path class="st0" d="M310.9,284.5l-46.6-39.4c-2.1-1.8-5.3-1.5-7,0.6c-1.8,2.1-1.5,5.3,0.6,7l46.6,39.4c0.9,0.8,2.1,1.2,3.2,1.2
		c1.4,0,2.8-0.6,3.8-1.8C313.3,289.4,313,286.3,310.9,284.5z"/>
	<path class="st0" d="M182.9,187.5l31.4,15.1L168,243.3l0,0c-0.1,0.1-0.1,0.1-0.2,0.2c-2,1.9-2.2,5-0.3,7.1c1.9,2,5,2.2,7.1,0.3
		l46.3-40.8l11,33l41.4-85.8L182.9,187.5z"/>
</g>
</svg>
