<?xml version="1.0" encoding="utf-8"?>
<!-- Generator: Adobe Illustrator 24.0.1, SVG Export Plug-In . SVG Version: 6.00 Build 0)  -->
<svg version="1.1" id="Concord_Half_Start_Finish_Line"
	 xmlns="http://www.w3.org/2000/svg" xmlns:xlink="http://www.w3.org/1999/xlink" x="0px" y="0px" viewBox="0 0 1920 1080"
	 style="enable-background:new 0 0 1920 1080;" xml:space="preserve">
<style type="text/css">
	.st0{fill:#D82520;}
</style>
<title>start-finish</title>
<g id="Start_Finish_Link">
	<path class="st0" d="M1273.1,575.6l-102.9-15.1c-2.7-0.4-5.3,1.5-5.7,4.2c-0.4,2.7,1.5,5.3,4.2,5.7l102.9,15.1
		c0.2,0,0.5,0.1,0.7,0.1c2.4,0,4.6-1.8,4.9-4.3C1277.7,578.5,1275.8,576,1273.1,575.6z"/>
	<path class="st0" d="M1345.3,510.8l-49.7,81.3l33.7-8.7l-9.2,61c-0.4,2.7,1.5,5.3,4.2,5.7c2.7,0.4,5.3-1.5,5.7-4.2l9.2-61
		l29.7,18.2L1345.3,510.8z"/>
</g>
</svg>
