<?xml version="1.0" encoding="utf-8"?>
<!-- Generator: Adobe Illustrator 24.0.1, SVG Export Plug-In . SVG Version: 6.00 Build 0)  -->
<svg version="1.1" id="Oval__Start_Finish_Line" xmlns="http://www.w3.org/2000/svg" xmlns:xlink="http://www.w3.org/1999/xlink"
	 x="0px" y="0px" viewBox="0 0 1920 1080" style="enable-background:new 0 0 1920 1080;" xml:space="preserve">
<style type="text/css">
	.st0{fill:#D82520;}
</style>
<title>start-finish</title>
<g id="Start_Finish_Link">
	<path class="st0" d="M919.9,787c-2.8,0-5,2.2-5,5v52c0,2.8,2.2,5,5,5s5-2.2,5-5v-52C924.9,789.2,922.6,787,919.9,787z"/>
	<polygon class="st0" points="856.4,733.1 856.4,733.1 856.4,733.1 	"/>
	<path class="st0" d="M992.2,726.8l-88.1-36.2l13.9,31.9l-61.7,0.6c-2.8,0-5,2.3-5,5c0,2.8,2.3,5,5,4.9l61.6-0.6l-13.3,32.2
		L992.2,726.8z"/>
</g>
</svg>
