<?xml version="1.0" encoding="utf-8"?>
<!-- Generator: Adobe Illustrator 24.0.1, SVG Export Plug-In . SVG Version: 6.00 Build 0)  -->
<svg version="1.1" id="Classic_Pits_-_Start_Finish_Line"
	 xmlns="http://www.w3.org/2000/svg" xmlns:xlink="http://www.w3.org/1999/xlink" x="0px" y="0px" viewBox="0 0 1920 1080"
	 style="enable-background:new 0 0 1920 1080;" xml:space="preserve">
<style type="text/css">
	.st0{fill:#D82520;}
</style>
<title>start-finish</title>
<g id="Start_Finish_Link">
	<path class="st0" d="M528.6,120.6c-0.7-2.7-3.4-4.3-6.1-3.6c-2.7,0.7-4.3,3.4-3.6,6.1l15.4,59.1c0.6,2.3,2.6,3.7,4.8,3.7
		c0.4,0,0.8-0.1,1.3-0.2c2.7-0.7,4.3-3.4,3.6-6.1L528.6,120.6z"/>
	<path class="st0" d="M573.5,58.7l-93.9-15.9l20.6,28.1l-60,14.1c-2.3,0.8-3.7,3.1-3.4,5.5c0.4,2.7,2.9,4.6,5.7,4.2l60-14.1
		l-5.9,34.3L573.5,58.7z"/>
</g>
</svg>
