<?xml version="1.0" encoding="utf-8"?>
<!-- Generator: Adobe Illustrator 24.0.1, SVG Export Plug-In . SVG Version: 6.00 Build 0)  -->
<svg version="1.1" id="Iowa_Infield_Legends__Start_Finish_Line"
	 xmlns="http://www.w3.org/2000/svg" xmlns:xlink="http://www.w3.org/1999/xlink" x="0px" y="0px" viewBox="0 0 1920 1080"
	 style="enable-background:new 0 0 1920 1080;" xml:space="preserve">
<style type="text/css">
	.st0{fill:#D82520;}
</style>
<title>start-finish</title>
<g id="Start_Finish_Link">
	<path class="st0" d="M615,385.3c-1.1-2.5-4.1-3.7-6.6-2.5c-2.5,1.1-3.7,4.1-2.5,6.6l24.8,55.8c0.8,1.9,2.7,3,4.6,3
		c0.7,0,1.4-0.1,2-0.4c2.5-1.1,3.7-4.1,2.5-6.6L615,385.3z"/>
	<path class="st0" d="M641.6,308.2c-1.2-2.5-4.1-3.6-6.6-2.4h0l-56,25.8l-1.1-34.8l-64.2,70.4l95.2-3.2l-25.8-23.4l56-25.8
		C641.6,313.7,642.7,310.7,641.6,308.2z"/>
</g>
</svg>
