<?xml version="1.0" encoding="utf-8"?>
<!-- Generator: Adobe Illustrator 24.0.1, SVG Export Plug-In . SVG Version: 6.00 Build 0)  -->
<svg version="1.1" id="Moto_-_Start_Finish_Line" xmlns="http://www.w3.org/2000/svg" xmlns:xlink="http://www.w3.org/1999/xlink"
	 x="0px" y="0px" viewBox="0 0 1920 1080" style="enable-background:new 0 0 1920 1080;" xml:space="preserve">
<style type="text/css">
	.st0{fill:#D82520;}
</style>
<title>start-finish</title>
<g id="Start_Finish_Link">
	<path class="st0" d="M1363.1,286.4c-2.4-1.3-5.5-0.5-6.8,2l-29.5,53.5c-1.3,2.4-0.5,5.5,2,6.8c0.8,0.4,1.6,0.6,2.4,0.6
		c1.8,0,3.5-0.9,4.4-2.6l29.5-53.5C1366.4,290.8,1365.5,287.7,1363.1,286.4z"/>
	<path class="st0" d="M1463.3,277.8l-59.4-74.5l-3.3,34.6l-54.2-29.5l0,0c-0.1,0-0.1-0.1-0.2-0.1c-2.5-1.3-5.5-0.3-6.7,2.2
		c-1.3,2.5-0.3,5.5,2.2,6.7l54.2,29.5l-27.3,21.6L1463.3,277.8z"/>
</g>
</svg>
