<?xml version="1.0" encoding="utf-8"?>
<!-- Generator: Adobe Illustrator 24.0.1, SVG Export Plug-In . SVG Version: 6.00 Build 0)  -->
<svg version="1.1" id="Oval__Start_Finish_Line" xmlns="http://www.w3.org/2000/svg" xmlns:xlink="http://www.w3.org/1999/xlink"
	 x="0px" y="0px" viewBox="0 0 1920 1080" style="enable-background:new 0 0 1920 1080;" xml:space="preserve">
<style type="text/css">
	.st0{fill:#D82520;}
</style>
<title>start-finish</title>
<g id="Start_Finish_Link">
	<path class="st0" d="M806.2,966.3c0.4,0.1,0.7,0.1,1.1,0.1c2.3,0,4.4-1.6,4.9-3.9l13.2-59.6c0.6-2.7-1.1-5.4-3.8-6
		c-2.7-0.6-5.4,1.1-6,3.8l-13.2,59.6C801.8,963,803.5,965.7,806.2,966.3z"/>
	<path class="st0" d="M862.1,1033.4L785.3,977l5.8,34.3l-60-14.3c-2.7-0.6-5.4,1-6,3.7c-0.6,2.7,1,5.4,3.7,6l0,0l60,14.3l-20.6,28
		L862.1,1033.4z"/>
</g>
</svg>
