<?xml version="1.0" encoding="utf-8"?>
<!-- Generator: Adobe Illustrator 24.0.1, SVG Export Plug-In . SVG Version: 6.00 Build 0)  -->
<svg version="1.1" id="Alternate__Start_Finish_Line"
	 xmlns="http://www.w3.org/2000/svg" xmlns:xlink="http://www.w3.org/1999/xlink" x="0px" y="0px" viewBox="0 0 1920 1080"
	 style="enable-background:new 0 0 1920 1080;" xml:space="preserve">
<style type="text/css">
	.st0{fill:#D82520;}
</style>
<title>start-finish</title>
<g id="Start_Finish_Link">
	<path class="st0" d="M741.3,687.6c0.1,0,0.1,0,0.2,0c2.7,0,4.9-2.1,5-4.8l2.6-61c0.1-2.8-2-5.1-4.8-5.2c-2.8-0.1-5.1,2-5.2,4.8
		l-2.6,61C736.4,685.2,738.6,687.5,741.3,687.6z"/>
	<path class="st0" d="M791.8,741.8L791.8,741.8l-61.6-2l14.6-31.6l-88.9,34.2l86.6,39.8l-12.6-32.5l61.6,2c2.8,0.1,5.1-2.1,5.2-4.8
		C796.8,744.2,794.6,741.9,791.8,741.8z"/>
</g>
</svg>
