<?xml version="1.0" encoding="utf-8"?>
<!-- Generator: Adobe Illustrator 24.0.1, SVG Export Plug-In . SVG Version: 6.00 Build 0)  -->
<svg version="1.1" id="Moto_-_Start_Finish_Line" xmlns="http://www.w3.org/2000/svg" xmlns:xlink="http://www.w3.org/1999/xlink"
	 x="0px" y="0px" viewBox="0 0 1920 1080" style="enable-background:new 0 0 1920 1080;" xml:space="preserve">
<style type="text/css">
	.st0{fill:#D82520;}
</style>
<title>start-finish</title>
<g id="Start_Finish_Link">
	<path class="st0" d="M1383.7,814.5c0.7,0,1.5-0.2,2.2-0.5c2.5-1.2,3.5-4.2,2.3-6.7l-26.4-55c-1.2-2.5-4.2-3.5-6.7-2.3
		c-2.5,1.2-3.5,4.2-2.3,6.7l26.4,55C1380,813.5,1381.8,814.5,1383.7,814.5z"/>
	<path class="st0" d="M1385.5,843.7l26.8,22.3l-54.8,28.2h0c-2.5,1.3-3.4,4.3-2.2,6.7s4.3,3.4,6.7,2.2l54.8-28.2l2.5,34.7l61.1-73.1
		L1385.5,843.7z"/>
</g>
</svg>
