<?xml version="1.0" encoding="utf-8"?>
<!-- Generator: Adobe Illustrator 24.0.1, SVG Export Plug-In . SVG Version: 6.00 Build 0)  -->
<svg version="1.1" id="Irwindale_Figure_Eight__Start_Finish_Line"
	 xmlns="http://www.w3.org/2000/svg" xmlns:xlink="http://www.w3.org/1999/xlink" x="0px" y="0px" viewBox="0 0 1920 1080"
	 style="enable-background:new 0 0 1920 1080;" xml:space="preserve">
<style type="text/css">
	.st0{fill:#D82520;}
</style>
<title>start-finish</title>
<g id="Start_Finish_Link">
	<path class="st0" d="M1069.5,646.1l-43.2,43.2c-2,2-2,5.1,0,7.1c1,1,2.3,1.5,3.5,1.5s2.6-0.5,3.5-1.5l43.2-43.2c2-2,2-5.1,0-7.1
		C1074.6,644.2,1071.4,644.2,1069.5,646.1z"/>
	<path class="st0" d="M1172,658.3l-38-87.4l-12.2,32.6l-44.7-42.5c-2-1.9-5.2-1.8-7.1,0.2c-1.9,2-1.8,5.2,0.2,7.1v0l44.7,42.5
		l-31.9,13.8L1172,658.3z"/>
</g>
</svg>
