<?xml version="1.0" encoding="utf-8"?>
<!-- Generator: Adobe Illustrator 24.0.1, SVG Export Plug-In . SVG Version: 6.00 Build 0)  -->
<svg version="1.1" id="cota_grand_prix_-_Start_Finish_Link"
	 xmlns="http://www.w3.org/2000/svg" xmlns:xlink="http://www.w3.org/1999/xlink" x="0px" y="0px" viewBox="0 0 1920 1080"
	 style="enable-background:new 0 0 1920 1080;" xml:space="preserve">
<style type="text/css">
	.st0{fill:#D82520;}
</style>
<title>start-finish</title>
<g id="Start_Finish_Link">
	<path class="st0" d="M1689.8,486.3l-56,24.3c-2.5,1.1-3.7,4-2.6,6.6c0.8,1.9,2.7,3,4.6,3c0.7,0,1.3-0.1,2-0.4l56-24.3
		c2.5-1.1,3.7-4,2.6-6.6C1695.2,486.3,1692.3,485.2,1689.8,486.3z"/>
	<path class="st0" d="M1750.2,462.9h34.8l-68.4-66.3l0.3,95.3l24.2-25.1l24.1,56.8l0,0c0,0.1,0.1,0.2,0.1,0.2
		c1.1,2.5,4.1,3.6,6.6,2.5c2.5-1.1,3.6-4.1,2.5-6.6L1750.2,462.9z"/>
</g>
</svg>
