<?xml version="1.0" encoding="utf-8"?>
<!-- Generator: Adobe Illustrator 24.0.1, SVG Export Plug-In . SVG Version: 6.00 Build 0)  -->
<svg version="1.1" id="cota_east_-_Start_Finish_Link"
	 xmlns="http://www.w3.org/2000/svg" xmlns:xlink="http://www.w3.org/1999/xlink" x="0px" y="0px" viewBox="0 0 1920 1080"
	 style="enable-background:new 0 0 1920 1080;" xml:space="preserve">
<style type="text/css">
	.st0{fill:#D82520;}
</style>
<title>start-finish</title>
<g id="Start_Finish_Link">
	<path class="st0" d="M882.1,642.7l-60.9,4.3c-2.8,0.2-4.8,2.6-4.6,5.3c0.2,2.6,2.4,4.6,5,4.6c0.1,0,0.2,0,0.4,0l60.9-4.3
		c2.8-0.2,4.8-2.6,4.6-5.3C887.2,644.5,884.8,642.5,882.1,642.7z"/>
	<path class="st0" d="M770.5,555.1L736,643.9l31.6-14.5l1.8,61.7l0,0c0.1,2.8,2.4,4.9,5.1,4.8c2.8-0.1,4.9-2.4,4.9-5.1l-1.8-61.6
		l32.4,12.7L770.5,555.1z"/>
</g>
</svg>
