<?xml version="1.0" encoding="utf-8"?>
<!-- Generator: Adobe Illustrator 24.0.1, SVG Export Plug-In . SVG Version: 6.00 Build 0)  -->
<svg version="1.1" id="Donnington_Grand_Prix__Start_Finish_Line"
	 xmlns="http://www.w3.org/2000/svg" xmlns:xlink="http://www.w3.org/1999/xlink" x="0px" y="0px" viewBox="0 0 1920 1080"
	 style="enable-background:new 0 0 1920 1080;" xml:space="preserve">
<style type="text/css">
	.st0{fill:#D82520;}
</style>
<title>start-finish</title>
<g id="Start_Finish_Link">
	<path class="st0" d="M1356.9,546.3c0.2,0,0.4,0,0.5,0c2.5,0,4.7-1.9,5-4.5l6.6-60.7c0.3-2.7-1.7-5.2-4.4-5.5
		c-2.7-0.3-5.2,1.7-5.5,4.4l-6.6,60.7C1352.1,543.5,1354.1,546,1356.9,546.3z"/>
	<path class="st0" d="M1422.1,610.4l-84.6-43.8l11.1,33l-61.5-4.8c-2.8-0.2-5.2,1.8-5.4,4.6s1.8,5.2,4.6,5.4l0,0l61.5,4.8
		l-16.1,30.9L1422.1,610.4z"/>
</g>
</svg>
