<?xml version="1.0" encoding="utf-8"?>
<!-- Generator: Adobe Illustrator 24.0.1, SVG Export Plug-In . SVG Version: 6.00 Build 0)  -->
<svg version="1.1" id="Short___Start_Finish_Line" xmlns="http://www.w3.org/2000/svg" xmlns:xlink="http://www.w3.org/1999/xlink"
	 x="0px" y="0px" viewBox="0 0 1920 1080" style="enable-background:new 0 0 1920 1080;" xml:space="preserve">
<style type="text/css">
	.st0{fill:#D82520;}
</style>
<title>start-finish</title>
<g id="Start_Finish_Link">
	<path class="st0" d="M1014.5,988.9c0.2,0,0.3,0,0.5,0c2.5,0,4.7-1.9,5-4.5l4.8-50c0.3-2.7-1.8-5.2-4.5-5.5
		c-2.7-0.3-5.2,1.8-5.5,4.5l-4.8,50C1009.7,986.2,1011.8,988.7,1014.5,988.9z"/>
	<path class="st0" d="M1067,1035.8l-61.5-4.1l15.7-31l-90.1,31.1l85.1,42.8l-11.4-32.9l61.5,4.1v0c2.8,0.2,5.2-1.9,5.3-4.7
		C1071.9,1038.4,1069.8,1036,1067,1035.8z"/>
</g>
</svg>
