<?xml version="1.0" encoding="utf-8"?>
<!-- Generator: Adobe Illustrator 25.0.0, SVG Export Plug-In . SVG Version: 6.00 Build 0)  -->
<svg version="1.1" id="Industriefahrten_Start_Finish"
	 xmlns="http://www.w3.org/2000/svg" xmlns:xlink="http://www.w3.org/1999/xlink" x="0px" y="0px" viewBox="0 0 1920 1080"
	 style="enable-background:new 0 0 1920 1080;" xml:space="preserve">
<style type="text/css">
	.st0{fill:#D82520;}
</style>
<path class="st0" d="M907.2,977.9l-21.1-18.8l14.5-6.8l-41.4-14.1l18.8,39.5l5.1-15.1l21.1,18.8c0.9,0.8,2.4,0.8,3.2-0.2
	S908.1,978.8,907.2,977.9L907.2,977.9L907.2,977.9z"/>
<path class="st0" d="M832.4,1022.3c-1.2,0-2.4-0.4-3.3-1.3c-2.1-1.8-2.2-5-0.4-7.1l25.4-28.4c1.8-2.1,5-2.2,7.1-0.4
	c2.1,1.8,2.2,5,0.4,7.1l-25.4,28.4C835.1,1021.8,833.8,1022.3,832.4,1022.3z"/>
</svg>
