<?xml version="1.0" encoding="utf-8"?>
<!-- Generator: Adobe Illustrator 25.0.0, SVG Export Plug-In . SVG Version: 6.00 Build 0)  -->
<svg version="1.1" id="GP_Start_End" xmlns="http://www.w3.org/2000/svg" xmlns:xlink="http://www.w3.org/1999/xlink" x="0px"
	 y="0px" viewBox="0 0 1920 1080" style="enable-background:new 0 0 1920 1080;" xml:space="preserve">
<style type="text/css">
	.st0{fill:#D82520;}
</style>
<path class="st0" d="M1272.1,222.9l-18.8,21.1l-6.8-14.4l-14.2,41.4l39.5-18.8l-15.1-5.1l18.8-21.1c0.8-1,0.7-2.4-0.3-3.2
	C1274.2,222,1272.9,222.1,1272.1,222.9L1272.1,222.9z"/>
<path class="st0" d="M1228.8,239.8c-1.3,0-2.6-0.5-3.6-1.6l-53.4-56.2c-1.9-2-1.8-5.2,0.2-7.1c2-1.9,5.2-1.8,7.1,0.2l53.4,56.2
	c1.9,2,1.8,5.2-0.2,7.1C1231.2,239.3,1230,239.8,1228.8,239.8z"/>
</svg>
