<?xml version="1.0" encoding="utf-8"?>
<!-- Generator: Adobe Illustrator 25.0.0, SVG Export Plug-In . SVG Version: 6.00 Build 0)  -->
<svg version="1.1" id="Start_End" xmlns="http://www.w3.org/2000/svg" xmlns:xlink="http://www.w3.org/1999/xlink" x="0px" y="0px"
	 viewBox="0 0 1920 1080" style="enable-background:new 0 0 1920 1080;" xml:space="preserve">
<style type="text/css">
	.st0{fill:#D82520;}
</style>
<path class="st0" d="M830.2,842.8L811.4,864l-6.8-14.5l-14.1,41.4l39.5-18.8l-15.1-5.2l18.8-21.1c0.8-1,0.7-2.4-0.3-3.2
	C832.4,841.9,831,841.9,830.2,842.8L830.2,842.8z"/>
<path class="st0" d="M783.6,850.8c-1.3,0-2.6-0.5-3.6-1.6l-25.7-27.1c-1.9-2-1.8-5.2,0.2-7.1c2-1.9,5.2-1.8,7.1,0.2l25.7,27.1
	c1.9,2,1.8,5.2-0.2,7.1C786.1,850.3,784.8,850.8,783.6,850.8z"/>
</svg>
