<?xml version="1.0" encoding="utf-8"?>
<!-- Generator: Adobe Illustrator 25.0.0, SVG Export Plug-In . SVG Version: 6.00 Build 0)  -->
<svg version="1.1" id="Touristenfahrten_Start_Finish"
	 xmlns="http://www.w3.org/2000/svg" xmlns:xlink="http://www.w3.org/1999/xlink" x="0px" y="0px" viewBox="0 0 1920 1080"
	 style="enable-background:new 0 0 1920 1080;" xml:space="preserve">
<style type="text/css">
	.st0{fill:#D82520;}
</style>
<path class="st0" d="M1105.4,886.3l-24.5,14.2l-1.9-15.9l-26.4,34.9l43.4-5.4l-12.8-9.6l24.5-14.2c1.1-0.6,1.5-2,0.8-3.2
	S1106.5,885.6,1105.4,886.3L1105.4,886.3L1105.4,886.3z"/>
<path class="st0" d="M1064,883.2c-1.7,0-3.4-0.9-4.3-2.5l-30.2-52.3c-1.4-2.4-0.6-5.4,1.8-6.8c2.4-1.4,5.5-0.6,6.8,1.8l30.2,52.3
	c1.4,2.4,0.6,5.4-1.8,6.8C1065.7,883,1064.8,883.2,1064,883.2z"/>
</svg>
