<?xml version="1.0" encoding="utf-8"?>
<!-- Generator: Adobe Illustrator 25.0.0, SVG Export Plug-In . SVG Version: 6.00 Build 0)  -->
<svg version="1.1" id="Mullenbachschleife_Start_End"
	 xmlns="http://www.w3.org/2000/svg" xmlns:xlink="http://www.w3.org/1999/xlink" x="0px" y="0px" viewBox="0 0 1920 1080"
	 style="enable-background:new 0 0 1920 1080;" xml:space="preserve">
<style type="text/css">
	.st0{fill:#D82520;}
</style>
<path class="st0" d="M877.3,613.8l-4.5,28l-13.5-8.5l10.3,42.5l23.2-37.1l-15.5,3.8l4.5-28c0.1-1.3-0.8-2.4-2.1-2.5
	C878.6,611.9,877.6,612.6,877.3,613.8L877.3,613.8z"/>
<path class="st0" d="M847.2,652c-0.4,0-0.8,0-1.2-0.1l-75.2-18.7c-2.7-0.7-4.3-3.4-3.6-6.1s3.4-4.3,6.1-3.6l75.2,18.7
	c2.7,0.7,4.3,3.4,3.6,6.1C851.5,650.5,849.5,652,847.2,652z"/>
</svg>
