<?xml version="1.0" encoding="utf-8"?>
<!-- Generator: Adobe Illustrator 24.0.1, SVG Export Plug-In . SVG Version: 6.00 Build 0)  -->
<svg version="1.1" id="Imola_Moto_-_Start_Finish_Line"
	 xmlns="http://www.w3.org/2000/svg" xmlns:xlink="http://www.w3.org/1999/xlink" x="0px" y="0px" viewBox="0 0 1920 1080"
	 style="enable-background:new 0 0 1920 1080;" xml:space="preserve">
<style type="text/css">
	.st0{fill:#D82520;}
</style>
<title>start-finish</title>
<g id="Start_Finish_Link">
	<path class="st0" d="M702.3,889.5c2.8,0,5-2.2,5-5v-61.1c0-2.8-2.2-5-5-5s-5,2.2-5,5v61.1C697.3,887.3,699.6,889.5,702.3,889.5z"/>
	<path class="st0" d="M780.7,961.7l-82.4-47.8l9.5,33.5l-61.2-7.8c0,0-0.1,0-0.1,0c-2.7-0.3-5.2,1.6-5.6,4.4
		c-0.3,2.7,1.6,5.2,4.4,5.6l61.2,7.8l-17.5,30.1L780.7,961.7z"/>
</g>
</svg>
