<?xml version="1.0" encoding="utf-8"?>
<!-- Generator: Adobe Illustrator 24.0.1, SVG Export Plug-In . SVG Version: 6.00 Build 0)  -->
<svg version="1.1" id="_24_Heures_du_Mans_-_Start_Finish_Line"
	 xmlns="http://www.w3.org/2000/svg" xmlns:xlink="http://www.w3.org/1999/xlink" x="0px" y="0px" viewBox="0 0 1920 1080"
	 style="enable-background:new 0 0 1920 1080;" xml:space="preserve">
<style type="text/css">
	.st0{fill:#D82520;}
</style>
<title>start-finish</title>
<g id="Start_Finish_Link">
	<path class="st0" d="M486.1,969.4c0.2,0,0.3,0,0.5,0c2.5,0,4.7-1.9,5-4.5l4.8-50c0.3-2.7-1.8-5.2-4.5-5.5c-2.7-0.3-5.2,1.8-5.5,4.5
		l-4.8,50C481.3,966.7,483.3,969.1,486.1,969.4z"/>
	<path class="st0" d="M536.5,1016.6h-61.7l13.6-32l-87.8,37l87.8,37l-13.6-32h61.7c2.8,0,5-2.2,5-5
		C541.5,1018.8,539.3,1016.6,536.5,1016.6z"/>
</g>
</svg>
