<svg id="Myrtle_Beach_-_Start_Finish_Line" data-name="Myrtle Beach - Start/Finish Line" xmlns="http://www.w3.org/2000/svg" viewBox="0 0 1920 1080"><defs><style>.cls-1{fill:#d82520;}</style></defs><title>start-finish</title><path class="cls-1" d="M967.82,885.09a5,5,0,0,0-5.59,4.33l-7.86,62.07a5,5,0,0,0,4.33,5.59,4.68,4.68,0,0,0,.64,0,5,5,0,0,0,4.95-4.37l7.86-62.08A5,5,0,0,0,967.82,885.09Z"/><g id="Start_Finish_Link" data-name="Start/Finish Link"><path class="cls-1" d="M913.77,1028.87h61.67l-13.61-32,87.78,37-87.78,37,13.61-32H913.77a5,5,0,0,1,0-10Z"/></g></svg>