<?xml version="1.0" encoding="utf-8"?>
<!-- Generator: Adobe Illustrator 24.0.1, SVG Export Plug-In . SVG Version: 6.00 Build 0)  -->
<svg version="1.1" id="Rallycross__Start_Finish_Line"
	 xmlns="http://www.w3.org/2000/svg" xmlns:xlink="http://www.w3.org/1999/xlink" x="0px" y="0px" viewBox="0 0 1920 1080"
	 style="enable-background:new 0 0 1920 1080;" xml:space="preserve">
<style type="text/css">
	.st0{fill:#D82520;}
</style>
<title>start-finish</title>
<g id="Start_Finish_Link">
	<path class="st0" d="M813.1,499.6l-25.5-55.5c-1.2-2.5-4.1-3.6-6.6-2.5c-2.5,1.2-3.6,4.1-2.5,6.6l25.5,55.5
		c0.8,1.8,2.7,2.9,4.5,2.9c0.7,0,1.4-0.1,2.1-0.5C813.1,505.1,814.2,502.1,813.1,499.6z"/>
	<path class="st0" d="M712.8,653c0,0-8.7,0.7-26.2-1.8c-16.1-2.3-13-16.8-12.7-20.3s1.4-10,1.4-10l29.8,18L681,546.8l-49.2,81.6
		l33.6-8.9c0,0-1.7,10-2.1,14.6s-1.5,21.8,17,25.8c10.6,2.4,21.5,3.4,32.3,3c2.8,0,5-2.2,5.1-4.9C717.8,655.3,715.6,653,712.8,653z"
		/>
</g>
</svg>
