<?xml version="1.0" encoding="utf-8"?>
<!-- Generator: Adobe Illustrator 24.0.1, SVG Export Plug-In . SVG Version: 6.00 Build 0)  -->
<svg version="1.1" id="_100__Start_Finish_Line" xmlns="http://www.w3.org/2000/svg" xmlns:xlink="http://www.w3.org/1999/xlink"
	 x="0px" y="0px" viewBox="0 0 1920 1080" style="enable-background:new 0 0 1920 1080;" xml:space="preserve">
<style type="text/css">
	.st0{fill:#D82520;}
</style>
<title>start-finish</title>
<g id="Start_Finish_Link">
	<path class="st0" d="M572.6,561.7c-0.8-2.6-3.6-4.2-6.2-3.4c-2.6,0.8-4.2,3.6-3.4,6.2l17.4,58.5c0.6,2.2,2.6,3.6,4.8,3.6
		c0.5,0,1-0.1,1.4-0.2c2.6-0.8,4.2-3.6,3.4-6.2L572.6,561.7z"/>
	<path class="st0" d="M619.8,493.5l-94.7-10.1l22.3,26.8l-59,17.8c-2.6,0.9-4,3.7-3.2,6.3c0.8,2.5,3.5,4,6.1,3.3h-0.1l59-17.8
		l-3.8,34.6L619.8,493.5z"/>
</g>
</svg>
