<?xml version="1.0" encoding="utf-8"?>
<!-- Generator: Adobe Illustrator 24.0.1, SVG Export Plug-In . SVG Version: 6.00 Build 0)  -->
<svg version="1.1" id="Rallycross_-_Start_Finish_Line"
	 xmlns="http://www.w3.org/2000/svg" xmlns:xlink="http://www.w3.org/1999/xlink" x="0px" y="0px" viewBox="0 0 1920 1080"
	 style="enable-background:new 0 0 1920 1080;" xml:space="preserve">
<style type="text/css">
	.st0{fill:#D82520;}
</style>
<title>start-finish</title>
<g id="Start_Finish_Link">
	<path class="st0" d="M937.4,330.7l-14.8-59.3c-0.7-2.7-3.4-4.3-6.1-3.6c-2.7,0.7-4.3,3.4-3.6,6.1l14.8,59.3
		c0.6,2.3,2.6,3.8,4.8,3.8c0.4,0,0.8,0,1.2-0.1C936.4,336.1,938,333.4,937.4,330.7z"/>
	<path class="st0" d="M895.9,331.2c-0.7-2.7-3.4-4.3-6.1-3.6c-2.7,0.7-4.3,3.4-3.6,6.1l14.8,59.3c0.6,2.3,2.6,3.8,4.8,3.8
		c0.4,0,0.8,0,1.2-0.2c2.7-0.7,4.3-3.4,3.6-6.1L895.9,331.2z"/>
	<path class="st0" d="M937.2,219.2l-94.3-13.5l21.3,27.5l-59.6,15.7c-2.6,0.7-4.1,3.4-3.5,6c0.6,2.7,3.3,4.3,6,3.7l59.6-15.7
		l-5,34.4L937.2,219.2z"/>
</g>
</svg>
