<?xml version="1.0" encoding="utf-8"?>
<!-- Generator: Adobe Illustrator 24.0.1, SVG Export Plug-In . SVG Version: 6.00 Build 0)  -->
<svg version="1.1" id="Rallycross_-_Start_Finish_Line"
	 xmlns="http://www.w3.org/2000/svg" xmlns:xlink="http://www.w3.org/1999/xlink" x="0px" y="0px" viewBox="0 0 1920 1080"
	 style="enable-background:new 0 0 1920 1080;" xml:space="preserve">
<style type="text/css">
	.st0{fill:#D82520;}
</style>
<title>start-finish</title>
<g id="Start_Finish_Link">
	<path class="st0" d="M1662.6,268.9c-2.6-0.8-5.4,0.6-6.3,3.3l-18.4,58.2c-0.8,2.6,0.6,5.4,3.3,6.3c0.5,0.2,1,0.2,1.5,0.2
		c2.1,0,4.1-1.4,4.8-3.5l18.4-58.2C1666.7,272.6,1665.2,269.7,1662.6,268.9z"/>
	<path class="st0" d="M1391.2,645.7c-0.1,0-0.1,0-0.2,0c-2.8,0.1-4.9,2.4-4.8,5.2l2,61c0.1,2.7,2.3,4.8,5,4.8c0.1,0,0.1,0,0.2,0
		c2.8-0.1,4.9-2.4,4.8-5.2l-2-61C1396.1,647.8,1393.9,645.7,1391.2,645.7z"/>
	<path class="st0" d="M1658.7,250.8l94.5-12.2l-74.7-59.2l4.5,34.5l-59.4-16.5h0c-0.1,0-0.2-0.1-0.3-0.1c-2.7-0.7-5.4,1-6.1,3.6
		c-0.7,2.7,1,5.4,3.6,6.1l59.4,16.5L1658.7,250.8z"/>
</g>
</svg>
