<?xml version="1.0" encoding="utf-8"?>
<!-- Generator: Adobe Illustrator 24.0.1, SVG Export Plug-In . SVG Version: 6.00 Build 0)  -->
<svg version="1.1" id="_2000_Moto_-_Start_Finish_Line"
	 xmlns="http://www.w3.org/2000/svg" xmlns:xlink="http://www.w3.org/1999/xlink" x="0px" y="0px" viewBox="0 0 1920 1080"
	 style="enable-background:new 0 0 1920 1080;" xml:space="preserve">
<style type="text/css">
	.st0{fill:#D82520;}
</style>
<title>start-finish</title>
<g id="Start_Finish_Link">
	<path class="st0" d="M615.3,220.2c-1.1-2.5-4-3.7-6.6-2.6c-2.5,1.1-3.7,4-2.6,6.6l24.3,56c0.8,1.9,2.7,3,4.6,3c0.7,0,1.3-0.1,2-0.4
		c2.5-1.1,3.7-4,2.6-6.6L615.3,220.2z"/>
	<path class="st0" d="M648.9,141l-95.3-2.2l24.4,24.8l-57.3,22.6l0,0c-2.6,1-3.8,3.9-2.8,6.5c1,2.6,3.9,3.8,6.5,2.8l57.4-22.6
		l-0.9,34.8L648.9,141z"/>
</g>
</svg>
