<?xml version="1.0" encoding="utf-8"?>
<!-- Generator: Adobe Illustrator 24.0.1, SVG Export Plug-In . SVG Version: 6.00 Build 0)  -->
<svg version="1.1" id="_1000_Full_-_Start_Finish_Line"
	 xmlns="http://www.w3.org/2000/svg" xmlns:xlink="http://www.w3.org/1999/xlink" x="0px" y="0px" viewBox="0 0 1920 1080"
	 style="enable-background:new 0 0 1920 1080;" xml:space="preserve">
<style type="text/css">
	.st0{fill:#D82520;}
</style>
<title>start-finish</title>
<g id="Start_Finish_Link">
	<path class="st0" d="M1347.5,959.4c0.8,2,2.7,3.2,4.7,3.2c0.6,0,1.2-0.1,1.8-0.3c2.6-1,3.9-3.9,2.9-6.5l-22.1-56.9
		c-1-2.6-3.9-3.9-6.5-2.9c-2.6,1-3.9,3.9-2.9,6.5L1347.5,959.4z"/>
	<path class="st0" d="M1436.3,991.6c-1-2.6-3.9-3.8-6.5-2.8l-57.5,22.4l1.1-34.8l-68.4,66.4l95.2,2.7l-24.3-24.9l57.5-22.4
		C1436,997.1,1437.3,994.2,1436.3,991.6z"/>
</g>
</svg>
