<svg id="International_-_Start_Finish_Line" data-name="International - Start/Finish Line" xmlns="http://www.w3.org/2000/svg" viewBox="0 0 1920 1080"><defs><style>.cls-1{fill:#d82520;}</style></defs><title>start-finish</title><g id="Start_Finish_Link" data-name="Start/Finish Link"><path class="cls-1" d="M1403,844.56a5,5,0,0,0-6.35,3.12L1377,905.46a5,5,0,0,0,3.13,6.34,4.73,4.73,0,0,0,1.61.27,5,5,0,0,0,4.73-3.39l19.68-57.78A5,5,0,0,0,1403,844.56Z"/><path class="cls-1" d="M1396.29,952.64l-58-20.81,23.62-25.56-95.13,5.24L1336.87,976l-2-34.75,58.05,20.81a5,5,0,0,0,3.37-9.41Z"/></g></svg>