<?xml version="1.0" encoding="utf-8"?>
<!-- Generator: Adobe Illustrator 24.0.1, SVG Export Plug-In . SVG Version: 6.00 Build 0)  -->
<svg version="1.1" id="lankebanen_Rally_Cross__Start_Finish_Line"
	 xmlns="http://www.w3.org/2000/svg" xmlns:xlink="http://www.w3.org/1999/xlink" x="0px" y="0px" viewBox="0 0 1920 1080"
	 style="enable-background:new 0 0 1920 1080;" xml:space="preserve">
<style type="text/css">
	.st0{fill:#D82520;}
</style>
<title>start-finish</title>
<g id="Start_Finish_Link">
	<path class="st0" d="M1175.2,839.9c-0.9-2.6-3.7-4-6.3-3.2c-2.6,0.9-4,3.7-3.2,6.3L1185,901c0.7,2.1,2.6,3.4,4.7,3.4
		c0.5,0,1.1-0.1,1.6-0.3c2.6-0.9,4-3.7,3.2-6.3L1175.2,839.9z"/>
	<path class="st0" d="M1383.5,971.4L1383.5,971.4l-61.6-0.3l13.8-32l-88,36.6l87.6,37.5l-13.4-32.1l61.7,0.3c2.8,0,5-2.2,5-5
		S1386.3,971.4,1383.5,971.4z"/>
</g>
</svg>
