<?xml version="1.0" encoding="utf-8"?>
<!-- Generator: Adobe Illustrator 24.0.1, SVG Export Plug-In . SVG Version: 6.00 Build 0)  -->
<svg version="1.1" id="lankebanen_Club__Start_Finish_Line"
	 xmlns="http://www.w3.org/2000/svg" xmlns:xlink="http://www.w3.org/1999/xlink" x="0px" y="0px" viewBox="0 0 1920 1080"
	 style="enable-background:new 0 0 1920 1080;" xml:space="preserve">
<style type="text/css">
	.st0{fill:#D82520;}
</style>
<title>start-finish</title>
<g id="Start_Finish_Link">
	<path class="st0" d="M1185,901c0.7,2.1,2.6,3.4,4.7,3.4c0.5,0,1.1-0.1,1.6-0.3c2.6-0.9,4-3.7,3.2-6.3l-19.3-57.9
		c-0.9-2.6-3.7-4-6.3-3.2c-2.6,0.9-4,3.7-3.2,6.3L1185,901z"/>
	<path class="st0" d="M1270.3,938c-0.9-2.6-3.8-4-6.4-3l-58.1,20.6l2.1-34.7l-70.4,64.2l95.1,5.6l-23.5-25.7l58.1-20.6
		C1269.9,943.4,1271.2,940.6,1270.3,938z"/>
</g>
</svg>
