<?xml version="1.0" encoding="utf-8"?>
<!-- Generator: Adobe Illustrator 24.0.1, SVG Export Plug-In . SVG Version: 6.00 Build 0)  -->
<svg version="1.1" id="Full__Start_Finish_Line" xmlns="http://www.w3.org/2000/svg" xmlns:xlink="http://www.w3.org/1999/xlink"
	 x="0px" y="0px" viewBox="0 0 1920 1080" style="enable-background:new 0 0 1920 1080;" xml:space="preserve">
<style type="text/css">
	.st0{fill:#D82520;}
</style>
<title>start-finish</title>
<g id="Start_Finish_Link">
	<path class="st0" d="M1427.8,788.4l-56.2-23.7c-2.5-1.1-5.5,0.1-6.6,2.7c-1.1,2.5,0.1,5.5,2.7,6.6l56.2,23.7
		c0.6,0.3,1.3,0.4,1.9,0.4c2,0,3.8-1.1,4.6-3.1C1431.6,792.4,1430.4,789.5,1427.8,788.4z"/>
	<path class="st0" d="M1391.5,719.5l-6.3-95.1l-63.7,70.8l34.7-2.4l-20.2,58.3c-0.9,2.6,0.4,5.5,3,6.4s5.5-0.4,6.4-3c0,0,0,0,0-0.1
		v0l20.2-58.3L1391.5,719.5z"/>
</g>
</svg>
