<?xml version="1.0" encoding="utf-8"?>
<!-- Generator: Adobe Illustrator 25.0.0, SVG Export Plug-In . SVG Version: 6.00 Build 0)  -->
<svg version="1.1" id="RX_Start_Finish" xmlns="http://www.w3.org/2000/svg" xmlns:xlink="http://www.w3.org/1999/xlink" x="0px"
	 y="0px" viewBox="0 0 1920 1080" style="enable-background:new 0 0 1920 1080;" xml:space="preserve">
<style type="text/css">
	.st0{fill:#D82520;}
</style>
<path class="st0" d="M1054,513.2c-0.3,0-0.5,0-0.8-0.1c-2.7-0.4-4.6-3-4.1-5.7l9.9-60.2c0.5-2.7,3-4.6,5.7-4.1
	c2.7,0.4,4.6,3,4.1,5.7l-9.9,60.2C1058.5,511.5,1056.4,513.2,1054,513.2z"/>
<g id="Start_Finish_Link_copy">
	<path class="st0" d="M1137.3,413.5l-60.8-10l8.2,33.8l-80.6-50.9l92.6-22.3l-18.6,29.4l60.8,10c2.7,0.5,4.6,3,4.1,5.8
		S1139.9,413.9,1137.3,413.5L1137.3,413.5z"/>
</g>
</svg>
