<?xml version="1.0" encoding="utf-8"?>
<!-- Generator: Adobe Illustrator 25.0.0, SVG Export Plug-In . SVG Version: 6.00 Build 0)  -->
<svg version="1.1" id="RX_Start_Finish" xmlns="http://www.w3.org/2000/svg" xmlns:xlink="http://www.w3.org/1999/xlink" x="0px"
	 y="0px" viewBox="0 0 1920 1080" style="enable-background:new 0 0 1920 1080;" xml:space="preserve">
<style type="text/css">
	.st0{fill:#D82520;}
</style>
<path class="st0" d="M1817.6,551.3c-0.2,0-0.5,0-0.7-0.1l-60.5-8.7c-2.7-0.4-4.6-2.9-4.2-5.7c0.4-2.7,2.9-4.6,5.7-4.2l60.5,8.7
	c2.7,0.4,4.6,2.9,4.2,5.7C1822.1,549.5,1820,551.3,1817.6,551.3z"/>
<g id="Start_Finish_Link">
	<path class="st0" d="M1839.3,574.4l1.3-28.2l-14.9,5.5l18.8-39.3l15.1,40.9l-14.3-6.9l-1.3,28.2c0,1.3-1,2.3-2.3,2.3
		c-1.3,0-2.3-1-2.3-2.3C1839.3,574.6,1839.3,574.5,1839.3,574.4L1839.3,574.4z"/>
</g>
</svg>
