<?xml version="1.0" encoding="utf-8"?>
<!-- Generator: Adobe Illustrator 25.0.1, SVG Export Plug-In . SVG Version: 6.00 Build 0)  -->
<svg version="1.1" id="Jump_Trucks_Start_finish" xmlns="http://www.w3.org/2000/svg" xmlns:xlink="http://www.w3.org/1999/xlink"
	 x="0px" y="0px" viewBox="0 0 1920 1080" style="enable-background:new 0 0 1920 1080;" xml:space="preserve">
<style type="text/css">
	.st0{fill:#D82520;}
</style>
<path class="st0" d="M1029.9,697.8c-1.3,0-2.6-0.5-3.5-1.5c-2-2-2-5.1,0-7.1l43.2-43.2c2-2,5.1-2,7.1,0c2,2,2,5.1,0,7.1l-43.2,43.2
	C1032.4,697.3,1031.1,697.8,1029.9,697.8z"/>
<path class="st0" d="M936.4,685.9l44.7,42.5l-31.9,13.8l89.1,33.7l-38-87.4L988,721.2l-44.7-42.5c-2-1.9-5.2-1.8-7.1,0.2
	S934.5,684,936.4,685.9L936.4,685.9z"/>
</svg>
