<svg id="Hillclimb_-_Start_Finish_Line" data-name="Hillclimb - Start/Finish Line" xmlns="http://www.w3.org/2000/svg" viewBox="0 0 1920 1080"><defs><style>.cls-1{fill:#d82520;}</style></defs><path class="cls-1" d="M1697.68,369.86a2.42,2.42,0,0,1-.7-.1,2.5,2.5,0,0,1-1.71-3.09l9.27-32.21a2.5,2.5,0,1,1,4.81,1.39l-9.27,32.2A2.5,2.5,0,0,1,1697.68,369.86ZM244.88,876.75a2.51,2.51,0,0,0-2.22-2.76l-33.31-3.62a2.5,2.5,0,1,0-.54,5L242.12,879l.27,0A2.51,2.51,0,0,0,244.88,876.75ZM1749.21,316.28a2.75,2.75,0,0,0-1.91-3.38l-32.61-9,11.9-14.94-51.85,6.69,41,32.47-2.5-18.94,32.61,9.06A2.75,2.75,0,0,0,1749.21,316.28Z"/></svg>