<svg id="Descent_-_Start_Finish_Line" data-name="Descent - Start/Finish Line" xmlns="http://www.w3.org/2000/svg" viewBox="0 0 1920 1080"><defs><style>.cls-1{fill:#d82520;}</style></defs><path class="cls-1" d="M1697.68,369.86a2.42,2.42,0,0,1-.7-.1,2.5,2.5,0,0,1-1.71-3.09l9.27-32.21a2.5,2.5,0,1,1,4.81,1.39l-9.27,32.2A2.5,2.5,0,0,1,1697.68,369.86ZM244.88,876.75a2.51,2.51,0,0,0-2.22-2.76l-33.31-3.62a2.5,2.5,0,1,0-.54,5L242.12,879l.27,0A2.51,2.51,0,0,0,244.88,876.75ZM271.34,921a2.76,2.76,0,0,0,3-2.43L278,884.87l16.67,9.33-15-50.08-25.4,45.69,18.28-5.53-3.66,33.64A2.76,2.76,0,0,0,271.34,921Z"/></svg>