<svg id="gp_-_Start_Finish_Line" data-name="gp - Start/Finish Line" xmlns="http://www.w3.org/2000/svg" viewBox="0 0 1920 1080"><defs><style>.cls-1{fill:#d82520;}</style></defs><path id="Start_Finish_Line" data-name="Start/Finish Line" class="cls-1" d="M1348.31,889.83a5,5,0,0,1-4.83-3.7l-25.75-95.52a5,5,0,1,1,9.66-2.6l25.75,95.52a5,5,0,0,1-3.53,6.13A4.84,4.84,0,0,1,1348.31,889.83Zm77.92,29.44a5,5,0,0,0-6.13-3.52l-59.54,16,4.8-34.47-75.12,58.61,94.4,12.9-21.48-27.38,59.54-16.06A5,5,0,0,0,1426.23,919.27Z"/></svg>