<?xml version="1.0" encoding="UTF-8"?><svg id="gp_-_Start_Finish_Line" xmlns="http://www.w3.org/2000/svg" viewBox="0 0 1920 1080"><defs><style>.cls-1{fill:#d82520;}</style></defs><g id="start_finish_line"><path class="cls-1" d="M1266.24,186.89c-.7-2.67-3.43-4.27-6.1-3.57-2.67,.7-4.27,3.43-3.57,6.1l27.2,103.93c.59,2.25,2.61,3.73,4.83,3.73,.42,0,.84-.05,1.27-.16,2.67-.7,4.27-3.43,3.57-6.1l-27.2-103.93Z"/><path class="cls-1" d="M1320.28,119.1l-94.19-14.32,21.06,27.7-59.78,15.16c-2.68,.68-4.3,3.4-3.62,6.08,.68,2.68,3.4,4.3,6.08,3.62l59.78-15.16-5.32,34.39,75.99-57.47Z"/></g></svg>