<?xml version="1.0" encoding="UTF-8"?><svg id="Sandown_-_Start_Finish_Line" xmlns="http://www.w3.org/2000/svg" viewBox="0 0 1920 1080"><defs><style>.cls-1{fill:#d82520;}</style></defs><g id="start_finish_line"><path class="cls-1" d="M922.43,820.27c-2.67,0-4.89-2.12-4.99-4.81l-4.07-107.35c-.1-2.76,2.05-5.08,4.81-5.19,2.76-.12,5.08,2.05,5.19,4.81l4.07,107.35c.1,2.76-2.05,5.08-4.81,5.19-.06,0-.13,0-.19,0Z"/><path class="cls-1" d="M854.85,652.35l61.64-1.86-14.57-31.61,88.86,34.36-86.62,39.67,12.63-32.43-61.64,1.86c-2.76,.08-5.07-2.09-5.15-4.85-.08-2.76,2.09-5.07,4.85-5.15Z"/></g></svg>