<?xml version="1.0" encoding="utf-8"?>
<!-- Generator: Adobe Illustrator 24.0.1, SVG Export Plug-In . SVG Version: 6.00 Build 0)  -->
<svg version="1.1" id="South_-_Start_Finish_Line" xmlns="http://www.w3.org/2000/svg" xmlns:xlink="http://www.w3.org/1999/xlink"
	 x="0px" y="0px" viewBox="0 0 1920 1080" style="enable-background:new 0 0 1920 1080;" xml:space="preserve">
<style type="text/css">
	.st0{fill:#D82520;}
</style>
<title>start-finish</title>
<g id="Start_Finish_Link">
	<path class="st0" d="M496.6,322.4c1,0,2.1-0.3,3-1c2.2-1.6,2.7-4.8,1-7l-36.4-49c-1.6-2.2-4.8-2.7-7-1c-2.2,1.6-2.7,4.8-1,7
		l36.4,49C493.5,321.7,495,322.4,496.6,322.4z"/>
	<path class="st0" d="M491.3,338.1l29.9,17.9l-49.8,36.3v0c0,0-0.1,0.1-0.1,0.1c-2.2,1.7-2.7,4.8-1,7s4.8,2.7,7,1l49.8-36.3
		l7.9,33.9l49.1-81.7L491.3,338.1z"/>
</g>
</svg>
