<?xml version="1.0" encoding="UTF-8"?><svg id="gp_-_Start_Finish_Line" xmlns="http://www.w3.org/2000/svg" viewBox="0 0 1920 1080"><defs><style>.cls-1{fill:#d82520;}</style></defs><g id="start-finish"><path class="cls-1" d="M1034.6,847.22s.06,0,.09,0c2.72,0,4.95-2.18,5-4.91l2.41-133.17c.05-2.76-2.15-5.04-4.91-5.09-.03,0-.06,0-.09,0-2.72,0-4.95,2.18-5,4.91l-2.41,133.17c-.05,2.76,2.15,5.04,4.91,5.09Z"/><path class="cls-1" d="M1112.7,901.29l-86.93-38.99,12.89,32.33-61.65-1.38c-2.76-.06-5.05,2.13-5.11,4.89-.06,2.76,2.13,5.05,4.89,5.11l61.65,1.38-14.32,31.72,88.59-35.05Z"/></g></svg>