<?xml version="1.0" encoding="UTF-8"?><svg id="gp_-_Start_Finish_Line" xmlns="http://www.w3.org/2000/svg" viewBox="0 0 1920 1080"><defs><style>.cls-1{fill:#d82520;}</style></defs><g id="start-finish"><path class="cls-1" d="M929.46,592.65l-83.23,67.92c-2.14,1.75-2.46,4.9-.71,7.04,.99,1.21,2.43,1.84,3.88,1.84,1.11,0,2.23-.37,3.16-1.13l83.23-67.92c2.14-1.75,2.46-4.9,.71-7.04-1.75-2.14-4.9-2.46-7.04-.71Z"/><path class="cls-1" d="M1021.03,614.02l-38.99-47.78,33.42-9.71-84.19-44.6,26.81,91.43,16.21-30.79,38.99,47.78c1.75,2.14,4.9,2.46,7.04,.71,2.14-1.75,2.46-4.9,.71-7.04Z"/></g></svg>