<?xml version="1.0" encoding="UTF-8"?><svg id="gp_-_Start_Finish" xmlns="http://www.w3.org/2000/svg" viewBox="0 0 1920 1080"><defs><style>.cls-1{fill:#d82520;}</style></defs><g id="start_finish_line"><path class="cls-1" d="m1028.15,332.52c-1.09-2.53-4.04-3.7-6.57-2.61l-46.96,20.3c-2.53,1.1-3.7,4.04-2.61,6.57.82,1.89,2.66,3.02,4.59,3.02.66,0,1.33-.13,1.98-.41l46.96-20.3c2.53-1.1,3.7-4.04,2.61-6.57Z"/><path class="cls-1" d="m927.05,332.25l-.19,57.16,13.07-13.39,9.23,22.08c.8,1.92,2.66,3.07,4.62,3.07.64,0,1.3-.12,1.93-.39,2.55-1.06,3.75-3.99,2.69-6.54l-9.23-22.08,18.71.11-40.81-40.03Z"/></g></svg>