<?xml version="1.0" encoding="utf-8"?>
<!-- Generator: Adobe Illustrator 24.0.1, SVG Export Plug-In . SVG Version: 6.00 Build 0)  -->
<svg version="1.1" id="National__Start_Finish_Line"
	 xmlns="http://www.w3.org/2000/svg" xmlns:xlink="http://www.w3.org/1999/xlink" x="0px" y="0px" viewBox="0 0 1920 1080"
	 style="enable-background:new 0 0 1920 1080;" xml:space="preserve">
<style type="text/css">
	.st0{fill:#D82520;}
</style>
<title>start-finish</title>
<g id="Start_Finish_Link">
	<path class="st0" d="M698.8,407.3l-51.1-33.4c-2.3-1.5-5.4-0.9-6.9,1.4c-1.5,2.3-0.9,5.4,1.4,6.9l51.1,33.4
		c0.8,0.6,1.8,0.8,2.7,0.8c1.6,0,3.2-0.8,4.2-2.3C701.7,411.9,701.1,408.8,698.8,407.3z"/>
	<path class="st0" d="M588.6,337.3L554.9,389c-1.5,2.3-0.9,5.4,1.5,6.9s5.4,0.9,6.9-1.5l33.7-51.7l19.4,28.9l16.9-93.8l-79,53.3
		L588.6,337.3z"/>
</g>
</svg>
