<?xml version="1.0" encoding="utf-8"?>
<!-- Generator: Adobe Illustrator 24.0.1, SVG Export Plug-In . SVG Version: 6.00 Build 0)  -->
<svg version="1.1" id="Oostelijk__Start_Finish_Line"
	 xmlns="http://www.w3.org/2000/svg" xmlns:xlink="http://www.w3.org/1999/xlink" x="0px" y="0px" viewBox="0 0 1920 1080"
	 style="enable-background:new 0 0 1920 1080;" xml:space="preserve">
<style type="text/css">
	.st0{fill:#D82520;}
</style>
<title>start-finish</title>
<g id="Start_Finish_Link">
	<path class="st0" d="M1495.7,949.7c1.7-2.1,1.4-5.3-0.7-7l-47.4-38.4c-2.1-1.7-5.3-1.4-7,0.7c-1.7,2.1-1.4,5.3,0.7,7l47.4,38.4
		c0.9,0.8,2,1.1,3.1,1.1C1493.3,951.6,1494.7,950.9,1495.7,949.7z"/>
	<path class="st0" d="M1591,925.7c-1.9-1.9-5-1.9-6.9,0l0,0l-43.7,43.5l-13-32.3l-36.1,88.2l88.3-35.7l-32.2-13.1l43.7-43.5
		C1593,930.8,1592.9,927.7,1591,925.7z"/>
</g>
</svg>
