<?xml version="1.0" encoding="utf-8"?>
<!-- Generator: Adobe Illustrator 24.0.1, SVG Export Plug-In . SVG Version: 6.00 Build 0)  -->
<svg version="1.1" id="Endurance_Pits_-_Start_Finish_Line"
	 xmlns="http://www.w3.org/2000/svg" xmlns:xlink="http://www.w3.org/1999/xlink" x="0px" y="0px" viewBox="0 0 1920 1080"
	 style="enable-background:new 0 0 1920 1080;" xml:space="preserve">
<style type="text/css">
	.st0{fill:#D82520;}
</style>
<title>start-finish</title>
<g id="Start_Finish_Link">
	<path class="st0" d="M540.4,317.3c0.1,0,0.2,0,0.3,0c2.8-0.2,4.9-2.5,4.7-5.3l-3.5-60.9c-0.2-2.8-2.5-4.9-5.3-4.7
		c-2.8,0.2-4.9,2.5-4.7,5.3l3.5,60.9C535.6,315.3,537.8,317.3,540.4,317.3z"/>
	<path class="st0" d="M604.4,362.7l-61.6,2.3l12.4-32.6l-86.3,40.3l89.1,33.7l-14.8-31.5l61.6-2.3v0c2.8-0.1,4.9-2.4,4.8-5.2
		S607.2,362.6,604.4,362.7z"/>
</g>
</svg>
