<?xml version="1.0" encoding="utf-8"?>
<!-- Generator: Adobe Illustrator 24.0.1, SVG Export Plug-In . SVG Version: 6.00 Build 0)  -->
<svg version="1.1" id="Milwaukee__Start_Finish_Line"
	 xmlns="http://www.w3.org/2000/svg" xmlns:xlink="http://www.w3.org/1999/xlink" x="0px" y="0px" viewBox="0 0 1920 1080"
	 style="enable-background:new 0 0 1920 1080;" xml:space="preserve">
<style type="text/css">
	.st0{fill:#D82520;}
</style>
<title>start-finish</title>
<g id="Start_Finish_Link">
	<path class="st0" d="M1047.8,795.1c2.8,0,5-2.2,5-5v-52c0-2.8-2.2-5-5-5s-5,2.2-5,5v52C1042.8,792.9,1045.1,795.1,1047.8,795.1z"/>
	<path class="st0" d="M1118,855.5l-88.1-36.2l13.9,31.9l-61.7,0.6c-2.8,0-5,2.3-5,5c0,2.8,2.3,5,5,5l61.6-0.6l-13.3,32.2L1118,855.5
		z"/>
	<polygon class="st0" points="982.2,861.9 982.2,861.9 982.2,861.9 	"/>
</g>
</svg>
