<?xml version="1.0" encoding="utf-8"?>
<!-- Generator: Adobe Illustrator 24.0.1, SVG Export Plug-In . SVG Version: 6.00 Build 0)  -->
<svg version="1.1" id="Club_-_Start_Finish_Line" xmlns="http://www.w3.org/2000/svg" xmlns:xlink="http://www.w3.org/1999/xlink"
	 x="0px" y="0px" viewBox="0 0 1920 1080" style="enable-background:new 0 0 1920 1080;" xml:space="preserve">
<style type="text/css">
	.st0{fill:#D82520;}
</style>
<title>start-finish</title>
<g id="Start_Finish_Link">
	<path class="st0" d="M699.9,340.2c0.8,2,2.7,3.1,4.6,3.1c0.6,0,1.3-0.1,1.9-0.4c2.6-1,3.8-3.9,2.8-6.5l-22.8-56.6
		c-1-2.6-3.9-3.8-6.5-2.8c-2.6,1-3.8,3.9-2.8,6.5L699.9,340.2z"/>
	<path class="st0" d="M791.1,363.8l-95.1-5.6l23.5,25.7l-58.1,20.6v0c-2.6,0.9-4,3.8-3,6.4c0.9,2.6,3.8,4,6.4,3l58.1-20.6l-2.2,34.7
		L791.1,363.8z"/>
</g>
</svg>
