<svg id="Barber_ShortB_Config" data-name="Barber ShortB_Config" xmlns="http://www.w3.org/2000/svg" viewBox="0 0 1920 1080"><defs><style>.cls-1{fill:#fff;}</style></defs><title>active</title><path class="cls-1" d="M248.31,496.54c-26.24,0-41.1-7.33-51.38-14.18-20.56-13.71-33.37-31.92-43.76-47.91-11.17-17.19-25.7-18.26-39.76-19.3-7.12-.53-13.86-1-19.72-3.74-16.56-7.66-27.48-20.36-31.56-36.72-6.54-26.19,5.79-55.12,15.68-68.17,36.29-47.93,86.34-52.1,120.82-51.07,68.63,2.05,180,2.4,278.19,2.72,61.67.19,119.93.38,163.09.94,24.69.33,38.19-4.73,48.17-9.72s24-15.28,32.39-21.43L723.1,226c58.55-42.74,111.11-29.24,131-21.45l50.33,19.72c48.19,18.89,48.19,18.89,64,24.87,11.87,4.48,34,12.82,94.48,36,3.85,1.47,23.22,9.6,26.65,25.06,1.22,5.47.88,13.83-7.62,22.63-7.7,8-24.56,11.84-56.17,18.53-4.89,1-10,2.11-15.26,3.26h0c-34,7.42-73.34,14.9-111.38,22.14-17.65,3.36-34.31,6.53-50,9.61-44.87,8.8-108,20.33-174.86,32.53-96.65,17.64-196.59,35.88-260.57,49.33l-4.71,1C372.08,477,303.33,491.46,266.42,495.5A166.46,166.46,0,0,1,248.31,496.54ZM190.23,275.32c-31.2,0-68.49,6.31-96.48,43.27-7.81,10.32-16.77,33-12.22,51.25,2.64,10.58,9.37,18.24,20.56,23.42,2.56,1.18,7.53,1.55,12.8,1.94,15.32,1.13,38.48,2.85,55.05,28.35,7.19,11.07,19.23,29.6,38.09,42.17,10.22,6.81,24.9,13.32,56.22,9.89,35.92-3.92,104.05-18.26,140.64-26l4.72-1c64.24-13.51,164.31-31.77,261.09-49.44,66.78-12.19,129.86-23.7,174.6-32.48,15.75-3.09,32.45-6.26,50.12-9.63,37.92-7.21,77.13-14.67,110.86-22,5.3-1.16,10.45-2.24,15.38-3.29,17.72-3.75,42-8.88,45.92-12.85.66-.68,2.8-3,2.49-4.4-.73-3.29-8.14-8.37-14.27-10.72-60.47-23.14-82.54-31.46-94.4-35.94-16-6-16-6-64.28-25L846.8,223.2c-16.81-6.59-61.36-17.92-111.9,19l-2.6,1.9c-9.47,6.94-23.78,17.44-35.27,23.19s-28.26,12.21-57.38,11.83c-43.07-.56-101.27-.75-162.9-.94-98.35-.32-209.82-.67-278.71-2.73C195.48,275.36,192.87,275.32,190.23,275.32Zm818.18,69.53h0Z"/></svg>