<svg id="IndyCar_2008-2011_-_Config" data-name="IndyCar 2008-2011 - Config" xmlns="http://www.w3.org/2000/svg" viewBox="0 0 1920 1080"><defs><style>.cls-1{fill:#fff;}</style></defs><path class="cls-1" d="M1808,691.68a38.12,38.12,0,0,0-30.88-16.22c-59.79-.84-259.89-3.62-324.38-4.46l-27.43-.33c-64.22-.74-152.17-1.75-230.61-6.87-49.53-3.24-76.62-28.41-90.63-49-17.61-25.85-23.78-58.87-15.72-84.13,9.2-28.81,25.84-49.3,49.46-60.91,25.84-12.7,55.36-11.86,73.16-5.4,12.63,4.58,28.94,10.79,46.21,17.37,47.14,17.94,105.81,40.28,142.23,49.79,53.6,14,80.68,9.31,105.92,2.79,43.59-11.27,71.43-35.57,87.11-54,14.94-17.54,65.26-77.68,85.31-115.09,10.55-19.68,8.42-35,4.77-44.37-6-15.43-19.76-25-29.72-28.46-31.78-11.12-80.26-26.75-127.15-41.87-19.7-6.36-38.32-12.36-54.83-17.75-44.85-14.65-68,4.35-83.32,16.91-1.43,1.18-2.83,2.33-4.2,3.41-6.49,5.13-16.72,14.25-24.93,21.58-2.82,2.52-5.4,4.82-7.48,6.65-43.12,37.92-72.08,25.34-102.74,12l-5.5-2.37c-27-11.57-52.65-15.88-67.94-18.45-25-4.2-69-9.9-91.77-12.2-45-4.55-64.31-3.22-86,1-24.63,4.82-42.4,15.7-52.83,32.33-18.34,29.26-8.11,68.08-4.26,82.7,11.84,44.88,4.41,71.45-2.15,94.89l-.59,2.1c-7.43,26.65-19.42,47.45-36.65,63.61C876,559.86,823.49,599.56,799.1,617.37c-37,27-56.48,27-73.63,27-45.85-.09-201.28-.64-276.53-3.54h-.29c-9.2-.09-35.46-.86-46.34-3.31L392,635.12c-24.87-5.68-62.44-14.26-83.71-16.51-3.8-.4-37.49-3.44-49.17,13.23-3.46,4.94-6.35,13.38-.42,25.54,10.58,21.7,66.52,59.2,114.09,89.45,3.33,2.13,6,3.8,7.39,4.74,24.92,16.44,66.26,40.93,98.31,58.23,29.37,15.86,56.16,23.62,81.62,23.62q4,0,8-.25c27.19-1.76,47.49-12.5,60.4-20.43,56.28-34.57,85.48-45.31,116.9-52.19,9.53-2.09,16.57-1.78,19.82.88,4.14,3.39,4,12.39,3.91,19,0,1.68-.05,3.26,0,4.73.84,30.84,23.46,30.76,30.92,30.77h.65c14.46,0,38.56,1.07,59.82,2,10,.44,19.36.85,26.41,1.09,74.43,2.55,298.82,6.08,301.07,6.12h.55c60.65-2.34,82.08-22.65,101-40.56,3.87-3.67,7.53-7.13,11.47-10.41,28.69-23.85,61.45-33.47,97.36-28.55,6.59.89,16.1,2.44,26.18,4.08,11.8,1.91,24,3.89,32.14,4.93,55.57,7.06,73.19-4.46,91.85-16.65l1.54-1c18.78-12.24,31.34-11.61,43.49-11,1.2.06,2.37.12,3.53.16h0l15.76.52c18.44.6,41.38,1.34,54.51,2.13,8.25.49,16.84,3.49,34.19,16.9,8.18,6.31,24,16.2,34.44,22.75l4.28,2.68c6,3.81,15.31,6.49,25,6.49a46.7,46.7,0,0,0,15.92-2.67c11.77-4.27,20.16-13.19,24.25-25.79,1.23-3.8,3.79-11.52,7.6-22.93A38.14,38.14,0,0,0,1808,691.68Zm-13.84,28.18c-3.83,11.46-6.41,19.23-7.66,23.09-2.17,6.71-6.11,11-12,13.16-8.83,3.2-19.24.73-23.49-1.94l-4.32-2.71c-10.12-6.34-25.43-15.92-32.82-21.63-18.51-14.3-31.19-20.19-45.22-21-13.4-.8-36.5-1.55-55.06-2.15l-15.67-.52-3.31-.16c-13.16-.66-31.2-1.57-55.42,14.22l-1.57,1c-16.82,11-30.11,19.68-78.38,13.55-7.79-1-19.82-3-31.46-4.84-10.2-1.65-19.84-3.22-26.67-4.15-41.7-5.7-79.67,5.4-112.86,33-4.43,3.69-8.5,7.55-12.43,11.27-17.91,17-34.82,33-87.74,35.09-9.08-.15-227.37-3.61-300.43-6.1-6.94-.24-16.3-.66-26.21-1.09-21.47-.95-45.79-2-60.7-2H800c-7.47,0-10.57,0-10.88-11.31,0-1.06,0-2.43,0-3.89.15-9.44.39-25.24-11.25-34.75-8.43-6.89-20.45-8.5-36.75-4.93-33.51,7.34-64.39,18.64-123.09,54.69-26.91,16.53-66,31.06-130-3.5-31.6-17.06-72.31-41.17-96.8-57.32-1.56-1-4.12-2.67-7.67-4.92C303,678.76,281,657.47,276.66,648.62c-1.21-2.46-1.68-4.6-1.18-5.31,2.65-3.78,17.86-6.16,30.69-4.81,20.08,2.12,56.95,10.54,81.36,16.12L397.91,657c14.82,3.34,47.58,3.76,50.4,3.8,75.64,2.91,231.21,3.46,277.11,3.55h.72c23.35,0,46-2.52,84.76-30.81,24.73-18.06,78.11-58.41,103.16-81.89,20-18.73,33.8-42.55,42.24-72.83l.58-2.08c6.88-24.61,15.45-55.24,2.23-105.38-3.24-12.32-11.87-45.06,1.86-67,7.38-11.77,20.74-19.62,39.73-23.33,19.79-3.88,37.63-5.06,80.18-.76,22.42,2.27,65.87,7.89,90.46,12,15.35,2.58,38.54,6.48,63.4,17.11,1.79.76,3.58,1.54,5.39,2.33,31.75,13.79,71.26,30.95,123.92-15.35,2.11-1.86,4.73-4.19,7.59-6.75,8-7.15,18-16,24-20.8,1.47-1.16,3-2.38,4.5-3.64,14.74-12.1,30-24.61,64.42-13.37,16.55,5.4,35.18,11.41,54.9,17.77,46.77,15.08,95.14,30.68,126.68,41.72,4.46,1.56,13.9,7.09,17.69,16.83,3.09,7.94,1.83,17.25-3.75,27.67-15.19,28.34-52.79,76.21-82.91,111.57A149,149,0,0,1,1500.28,515c-23.45,6.07-46.85,10-95.86-2.77-35.38-9.24-93.48-31.36-140.18-49.13-17.34-6.61-33.72-12.84-46.49-17.48-20.19-7.33-55.56-10.09-88.81,6.25-28.28,13.9-48.92,39.06-59.69,72.77-9.87,30.91-2.71,70.74,18.25,101.48,23.33,34.25,60.92,54.72,105.85,57.66,79,5.16,167.23,6.17,231.68,6.91l27.4.33c64.49.84,264.58,3.62,324.36,4.45a18.54,18.54,0,0,1,17.32,24.41Z"/></svg>