<?xml version="1.0" encoding="utf-8"?>
<!-- Generator: Adobe Illustrator 24.0.1, SVG Export Plug-In . SVG Version: 6.00 Build 0)  -->
<svg version="1.1" id="Oval__Config" xmlns="http://www.w3.org/2000/svg" xmlns:xlink="http://www.w3.org/1999/xlink" x="0px"
	 y="0px" viewBox="0 0 1920 1080" style="enable-background:new 0 0 1920 1080;" xml:space="preserve">
<style type="text/css">
	.st0{fill:#FFFFFF;}
</style>
<title>active</title>
<path class="st0" d="M1716.6,446.8c-2.5-141.4-72-227.3-129.8-274.4c-34.2-27.9-73.4-50-116.3-65.7c-38.6-14.1-78.4-22.1-115.1-23.2
	c-177-5.3-585.4-8.9-768.9,2.7C461.7,94.1,384.6,157.8,342,209.9c-24.7,30.1-45.2,65.5-59.4,102.3c-12.9,33.4-20.5,67.3-21.9,98
	c-3.8,81.9,12.8,155.4,49.3,218.6c35.9,62.1,83.1,100.3,116.4,121.4h0c61.2,38.8,217.4,133.6,346.6,177.1
	c71.6,24.1,144.4,33.3,209.6,33.3c56.4,0,107-6.8,146.2-16.8c191.4-48.7,309.1-122.2,387-170.8c5.2-3.2,10.1-6.3,14.9-9.3
	c58.4-36.2,106.4-84.7,138.8-140.5C1701.4,568.3,1717.7,507.3,1716.6,446.8z M1520.1,746.7c-4.8,3-9.8,6.1-15,9.3
	c-76.8,48-192.9,120.4-381.3,168.4c-37.9,9.6-86.8,16.3-141.3,16.2c-63.2,0-133.8-8.9-203.2-32.3C689.8,878.3,565,814.5,437,733.3h0
	c-50-31.7-165.4-126.6-156.4-322.2c2.2-48.5,23.6-123.6,76.8-188.6c40.1-49,112.6-108.9,230.2-116.4c88.8-5.6,230.5-7.6,373.1-7.6
	c151.1,0,303.1,2.3,394,5c139.5,4.2,337.8,113.5,341.9,343.6C1698.7,565,1632.7,677,1520.1,746.7z"/>
</svg>
