<?xml version="1.0" encoding="utf-8"?>
<!-- Generator: Adobe Illustrator 24.0.1, SVG Export Plug-In . SVG Version: 6.00 Build 0)  -->
<svg version="1.1" id="Oval_-_Config" xmlns="http://www.w3.org/2000/svg" xmlns:xlink="http://www.w3.org/1999/xlink" x="0px"
	 y="0px" viewBox="0 0 1920 1080" style="enable-background:new 0 0 1920 1080;" xml:space="preserve">
<style type="text/css">
	.st0{fill:#FFFFFF;}
</style>
<title>active</title>
<path class="st0" d="M1650.6,530.3c-13.4-48.6-43.2-94.8-88.6-137.6c-40.8-38.5-84.3-64.3-106.6-76.3c-5.3-2.9-11.4-6.1-18-9.7
	c-40.2-21.7-101-54.5-134.3-71.2c-50.4-25.3-143.2-69.1-192.4-85.7c-76.7-25.8-173-32.2-264.3-17.6
	c-90.1,14.4-263.8,44.4-346.4,63.5c-33.3,7.6-81.4,20-114.7,39.2C309.8,278.2,253.9,342,223.5,419.5
	c-24.7,63.1-31.1,132.5-17.6,190.5c23.7,101.5,43.2,134.5,93.8,188.5c35.1,37.5,81.1,66.4,136.6,85.9c41.4,14.5,87.1,23,125.6,23.3
	c198.4,1.5,333.1,2.7,431.6,3.7c105,1,168.1,1.6,222.1,1.6c53.3,0,97.7-0.6,164.5-2c51.5-1.1,101.5-14.5,144.6-39
	c36-20.4,66.1-47.6,84.6-76.6C1663,711,1676.6,624.3,1650.6,530.3z M1592.4,784.5c-32.8,51.5-111.4,104.3-212.8,106.4
	c-134.2,2.8-177.6,2.3-386,0.4c-98.4-0.9-233.2-2.2-431.6-3.7c-56.6-0.4-172.4-22.5-247.7-102.8c-45.5-48.5-64.9-76.5-88.9-179.3
	c-21.2-90.6,6.6-259.5,169.9-353.2c31-17.8,77.2-29.6,109.3-37c82.2-19,255.3-48.8,345.1-63.2c30.5-4.9,62-7.3,93.1-7.3
	c57.8,0,114.5,8.2,161.6,24.1c47.9,16.1,141.9,60.4,189.8,84.6c33,16.6,93.6,49.3,133.8,71c6.6,3.6,12.7,6.8,18,9.7
	c35.7,19.2,154.7,90.6,185.3,201.6C1655.7,623.9,1642.9,705.3,1592.4,784.5z"/>
</svg>
