<?xml version="1.0" encoding="utf-8"?>
<!-- Generator: Adobe Illustrator 24.0.1, SVG Export Plug-In . SVG Version: 6.00 Build 0)  -->
<svg version="1.1" id="Road_Course_-_Config" xmlns="http://www.w3.org/2000/svg" xmlns:xlink="http://www.w3.org/1999/xlink"
	 x="0px" y="0px" viewBox="0 0 1920 1080" style="enable-background:new 0 0 1920 1080;" xml:space="preserve">
<style type="text/css">
	.st0{fill:#FFFFFF;}
</style>
<title>active</title>
<path class="st0" d="M1562.3,536.4c-11.7-14.9-23.7-25.3-37.9-32.9c-19.5-10.5-42.3-14.7-67.8-12.5c-0.4,0-0.9,0.1-1.4,0.1
	c-12,0.9-43.7,3.4-65.2,42.4c-2.3,4.3-3.9,8.6-5.5,13.3c-3,8.5-6.1,17.2-14.8,26.7c-19.1,20.8-70.7,49.3-135.1,42.3
	c-22.6-2.5-77.1-18.8-137.6-64.2c-13.7-10.3-26.8-23.8-44.9-42.5c-7.8-8.1-16.7-17.2-26.8-27.3c-1.4-1.4-2.8-3-4.3-4.6
	c-10.3-11.2-24.4-26.6-62.1-25.6c-28.1,0.7-66.9,1.1-108,1.4c-70.5,0.6-150.4,1.3-199.1,4.2c-25.4,1.5-57,3.4-88.2,65.1
	c-1.7,3.3-3.5,7-5.6,11c-12.4,24.6-31.1,61.8-42.7,82c-18.3,31.8-42.5,45.2-71.8,39.6c-19.8-3.7-54.3-20.3-63.7-89.5
	c-4.1-30.2,5.3-76.7,30.7-103.4c27.2-28.6,70.9-50,119.8-58.7c2.1-0.4,4.1-0.7,6.1-1.1c21.4-3.9,40-7.3,89,1.1
	c1.4,0.2,2.9,0.5,4.4,0.8c13.1,2.7,31.1,6.3,58.1-15c18.8-14.8,28.4-20.8,88.4-36.6c19.6-5.2,43.9-11.4,69.7-18.1
	c96.3-24.9,228.1-58.9,299.8-82.6c11-3.6,32.9-15.8,37.2-35.7c1.9-9,0.8-22.8-15.4-37.7c-12.3-11.3-52-26.6-56.5-28.3l-0.4-0.1
	c-76.7-25.8-173-32.2-264.3-17.6c-90.1,14.4-263.8,44.4-346.4,63.5c-33.3,7.6-81.4,20-114.7,39.2C309.8,278.2,253.9,342,223.5,419.5
	c-24.7,63.1-31.1,132.5-17.6,190.5c23.7,101.5,43.2,134.5,93.8,188.5c35,37.3,81,66,136.6,85.1c40.4,13.9,86.1,22.3,125.4,23.1h0
	c156.3,3.1,448.8,3.9,591.1,3.3c24.3-0.1,41.1,0.4,54.5,0.8c7.8,0.2,14.5,0.4,20.5,0.4c14.9,0,26.6-1.2,45.5-5.8
	c4.6-1.1,9.6-2.3,15-3.6c35.2-8.4,83.3-20,131.9-40c58.2-23.9,103-54.7,133.3-91.3c26.3-31.8,42.1-62.9,48.2-94.9
	C1611,627.9,1597.7,581.2,1562.3,536.4z M1538.3,757.5c-65.5,79.2-188.5,108.8-254.5,124.6c-5.4,1.3-10.4,2.5-15.1,3.7
	c-24.1,5.9-34,5.6-60.7,4.8c-12.3-0.4-27.2-0.8-48.2-0.8c-2.3,0-4.6,0-7,0c-142.3,0.6-434.5-0.2-590.7-3.3
	c-71.6-1.4-179.5-28.9-247.8-101.8c-45.5-48.5-64.9-76.5-88.9-179.3c-21.2-90.6,6.6-259.5,169.9-353.2c31.1-17.8,77.2-29.6,109.3-37
	c82.2-19,255.3-48.8,345.1-63.2c86.8-13.9,182-7.6,254.6,16.8c15.6,5.9,42.8,17.7,49.8,24.2c7.5,6.9,10.6,13.2,9.4,18.8
	c-2.1,9.9-16.7,18.5-24,20.9c-71,23.5-202.5,57.5-298.5,82.2c-25.8,6.7-50.1,12.9-69.8,18.1c-61.9,16.3-74,23.2-95.6,40.2
	c-19.7,15.5-29.9,13.5-41.7,11.1c-1.6-0.3-3.3-0.7-5-1c-52.5-9-73.6-5.2-96-1.1c-2,0.4-4,0.7-6,1.1c-53,9.4-100.7,32.9-130.8,64.6
	c-33.6,35.3-40,91-36,119.9c11.1,81.7,54.7,101.8,79.8,106.5c5.7,1.1,11.2,1.6,16.7,1.6c30.8,0,57-17.3,76.2-50.9
	c11.9-20.7,30.7-58.2,43.2-83c2-4,3.9-7.7,5.5-11c25.9-51.4,48.1-52.8,71.5-54.2c48.1-2.9,127.8-3.6,198-4.1
	c41.2-0.3,80-0.7,108.3-1.4c28.6-0.8,37.5,8.9,46.8,19.1c1.6,1.7,3.2,3.5,4.9,5.2c10,10,18.8,19.1,26.5,27.1
	c18.7,19.3,32.3,33.3,47.3,44.6c59.8,44.9,116.8,64.8,147.4,68.1c31.7,3.5,64.2-0.6,93.8-11.9c23.9-9,45.1-22.5,58.2-36.8
	c11.4-12.5,15.6-24.2,18.9-33.5c1.4-4,2.6-7.5,4.2-10.3c16.2-29.6,38.5-31.3,49.2-32.1c0.5,0,1.1-0.1,1.5-0.1
	c49-4.2,73.9,19.6,88.3,37.9C1599.8,616.2,1597,686.4,1538.3,757.5z"/>
</svg>
