<?xml version="1.0" encoding="utf-8"?>
<!-- Generator: Adobe Illustrator 24.0.1, SVG Export Plug-In . SVG Version: 6.00 Build 0)  -->
<svg version="1.1" id="Classic_Boot_-_Config" xmlns="http://www.w3.org/2000/svg" xmlns:xlink="http://www.w3.org/1999/xlink"
	 x="0px" y="0px" viewBox="0 0 1920 1080" style="enable-background:new 0 0 1920 1080;" xml:space="preserve">
<style type="text/css">
	.st0{fill:#FFFFFF;}
</style>
<title>active</title>
<path class="st0" d="M1890.6,678.1c-6.1-24.1-19.5-41.9-38.8-51.4c-18.3-9.1-37.2-8.6-46.9-7.5c-30.8,3.6-69.4,8.4-110.1,13.5
	c-67.9,8.5-144.8,18.1-210.9,25c-26.2,2.8-57.6-21.1-64.8-35c-21.7-42.7,3-79.1,21.1-93.9c52.8-43.1,107.4-96.9,143.6-132.5l7.3-7.2
	c26.2-25.8,44.4-50,55.7-74c10.2-21.9,14.5-43.1,12.9-64.9c-3.7-53.2-33.3-82.5-57.4-97.7c-30.3-19.1-65-24.5-87.3-23.1
	c-14.7,0.9-41.7,3.5-59.6,5.2l-6.5,0.6l-192.6,20.2l0,0c-47.4,5.1-112.3,11.9-181.1,19.2C951,187.5,810.2,202.3,724.8,212
	c-71.3,8-102.7,17.5-132.8,31.3c-92.6,42.2-129.2,90.5-161.5,133.1c-37.6,49.6-56.6,69.6-81.1,85.4c-45.7,29.5-79,34.3-108.4,38.5
	c-4.2,0.6-8.2,1.2-12.2,1.8c-50,8-89.7,29.4-117.7,63.5c-28.1,34.1-36,70.7-38.2,89.4c-5.4,45.7-14.8,121.8-22.3,183
	c-1.9,15.1-3.6,29.4-5.2,42.2c-3.5,28.6,0.9,50.1,13.3,64c16.3,18.4,41.5,18.4,53.6,18.4l70.5-0.2c192.9-0.5,433.1-1,581.4,0.2
	c0.6,0,1.3,0,1.9,0c42.1,0,72.9-11.3,91.7-33.5c13.4-15.8,20.2-36.7,20.5-62.2c0.1-13.6,1.2-134.7-1.6-193.2
	c-3.1-66.2,42.6-86.7,62.4-92.5c25.8-7.5,57.5-17.5,91.1-28.1c65-20.6,138.6-43.8,187.5-54.4c22.7-4.9,39.3-1.7,49.3,9.4
	c13.3,14.9,13.8,43.1,7.4,62.2c-10.8,32.4-33.7,91.2-66.2,170c-9.3,22.5-13.8,42.6-13.5,59.7c0.3,15.8,4.7,29.2,13,39.8
	c16.9,21.4,45,25.6,63.9,22.6c32.1-5.1,73.2-11.6,116.6-18.4c134.9-21.4,302.7-48,398.4-62c55.6-8.1,81.6-31.2,93.6-49.2
	C1891.3,716,1895.1,696,1890.6,678.1z M1863.4,721.7c-9.7,14.6-31.5,33.4-79.9,40.5c-95.8,14-263.7,40.6-398.6,62
	c-43.4,6.9-84.5,13.4-116.6,18.4c-11,1.7-32.8,0.4-45.1-15.2c-12.7-16.1-11.6-43.6,3.3-79.5c33.2-80.4,55.6-138,66.7-171.3
	c8.1-24.2,7.9-60.2-11.5-81.8c-10.4-11.6-30.7-23.8-68.4-15.6c-49.7,10.7-123.9,34.2-189.3,54.8c-33.5,10.6-65.1,20.6-90.6,28
	c-19,5.5-80.6,29.9-76.7,112.6c2.7,58,1.7,178.5,1.5,192.1c-0.2,20.6-5.5,37.3-15.8,49.4c-15.1,17.8-41.4,26.7-78.2,26.4
	c-65.7-0.5-149.3-0.7-238.8-0.7c-112.9,0-235.2,0.3-342.8,0.5l-70.5,0.2c-0.2,0-0.3,0-0.5,0c-14.5,0-29.1-1.5-38.1-11.6
	c-8.3-9.4-11.2-25.7-8.4-48.3c1.6-12.8,3.3-27.1,5.2-42.2c7.6-61.2,17-137.4,22.4-183.2c1.9-16.5,8.9-48.8,33.7-79
	c24.9-30.3,60.4-49.3,105.5-56.5c3.8-0.6,7.7-1.2,11.9-1.8c29.9-4.3,67-9.7,116.4-41.5c26.5-17.1,47.4-39,86.2-90.1
	c32.4-42.7,65.8-86.8,153.8-126.9c29-13.2,57.8-21.8,126.8-29.6c85.3-9.6,226.1-24.4,350.4-37.5c68.7-7.2,133.7-14.1,181.1-19.2
	l192.4-20.2l6.5-0.6c17.8-1.7,44.6-4.3,58.9-5.1c37.8-2.3,117.7,19.8,123.5,102.3c2.8,39.3-17.2,78.5-62.7,123.3l-7.3,7.2
	c-35.9,35.3-90.2,88.8-142.2,131.3c-22.7,18.6-53.8,64.5-26.2,118.5c10.5,20.7,49.7,49.5,84.7,45.9c66.2-7,143.3-16.6,211.2-25.1
	c40.7-5.1,79.2-9.9,109.9-13.4c15.5-1.8,52.6-1,64,43.9C1874.4,695.5,1871.5,709.6,1863.4,721.7z"/>
</svg>
