<?xml version="1.0" encoding="utf-8"?>
<!-- Generator: Adobe Illustrator 24.0.1, SVG Export Plug-In . SVG Version: 6.00 Build 0)  -->
<svg version="1.1" id="Oval__Config" xmlns="http://www.w3.org/2000/svg" xmlns:xlink="http://www.w3.org/1999/xlink" x="0px"
	 y="0px" viewBox="0 0 1920 1080" style="enable-background:new 0 0 1920 1080;" xml:space="preserve">
<style type="text/css">
	.st0{fill:#FFFFFF;}
</style>
<title>active</title>
<path class="st0" d="M1734.5,358.8c-19.7-46.7-47.4-88.6-82.5-124.4c-31.6-32.3-69-59.1-108.2-77.5c-37.5-17.7-76.2-27.5-111.7-28.5
	c-327.9-9.2-708.7-7.5-923.8-2c-52,1.3-101.6,13.7-147.5,36.7c-41.8,20.9-79.3,50.1-111.7,86.7c-59.5,67.3-96.3,155.7-98.4,236.5
	c-1.5,57.3,7.4,110.7,26.5,158.7c17,42.7,42,81.2,74.5,114.6c37.2,38.3,84.5,69.8,136.7,91.1c44.2,18,89.8,28,128.3,28.1h0
	c242.4,0.4,405.7,1.7,536.9,2.8c101.9,0.8,187.7,1.5,278.4,1.5c30.1,0,60.8-0.1,92.7-0.2c49.5-0.3,95.6-9.4,137-27.1
	c37.5-16.1,71.3-39.2,100.5-68.7c34.4-34.9,62.4-79.1,80.9-128c16.3-43.1,25.2-89.7,24.8-131.3
	C1767.6,467.4,1756.3,410.7,1734.5,358.8z M1640.9,765.8c-56.5,57.2-129.2,86.4-216.3,86.9c-128,0.7-235.1-0.2-370.8-1.2
	c-131.3-1-294.6-2.3-537.1-2.8h0c-65.9-0.1-170.2-34.6-243.5-110c-64.1-65.9-95.2-150.6-92.5-251.6
	c3.6-135.2,119.7-325.4,328.4-330.7c214.7-5.5,594.9-7.2,922.2,2c66.1,1.9,142.5,39.1,199.3,97.1c48.5,49.5,106.5,137,107.5,272.4
	C1738.5,591.7,1713.3,692.4,1640.9,765.8z"/>
</svg>
