<?xml version="1.0" encoding="utf-8"?>
<!-- Generator: Adobe Illustrator 24.0.1, SVG Export Plug-In . SVG Version: 6.00 Build 0)  -->
<svg version="1.1" id="Legends_Oval__Config" xmlns="http://www.w3.org/2000/svg" xmlns:xlink="http://www.w3.org/1999/xlink"
	 x="0px" y="0px" viewBox="0 0 1920 1080" style="enable-background:new 0 0 1920 1080;" xml:space="preserve">
<style type="text/css">
	.st0{fill:#FFFFFF;}
</style>
<title>active</title>
<path class="st0" d="M1124.1,838.9c-11.2-12.8-27-17.5-37.1-17.6c-52-0.6-129.7-1.2-191.8-1.2c-23,0-40.2,5.9-51.2,17.6
	c-9.5,10-13.9,24.1-13,40.7c2.4,40.5,37,47.1,51.8,49.9l0.1,0c19.3,3.7,55.6,4.8,91.9,4.8c38.4,0,76.9-1.3,95.4-2.1
	c52.4-2.5,63.7-30.2,65.8-46.6C1138.9,861.4,1131.2,847,1124.1,838.9z M1116.2,882c-2.3,17.9-18,27.7-46.9,29.1
	c-44.5,2.1-147.7,4.3-182.7-2.3h0l-0.1,0c-17.9-3.4-34.2-8.4-35.5-31.4c-0.7-11.1,1.9-19.8,7.6-25.8c7.1-7.5,19.4-11.3,36.7-11.4
	c62,0,139.6,0.6,191.6,1.2c4.5,0.1,14.9,2.4,22.2,10.7C1115.4,859.3,1117.8,869.4,1116.2,882z"/>
</svg>
