<?xml version="1.0" encoding="utf-8"?>
<!-- Generator: Adobe Illustrator 24.0.1, SVG Export Plug-In . SVG Version: 6.00 Build 0)  -->
<svg version="1.1" id="Road_Long__Config" xmlns="http://www.w3.org/2000/svg" xmlns:xlink="http://www.w3.org/1999/xlink" x="0px"
	 y="0px" viewBox="0 0 1920 1080" style="enable-background:new 0 0 1920 1080;" xml:space="preserve">
<style type="text/css">
	.st0{fill:#FFFFFF;}
</style>
<title>active</title>
<path class="st0" d="M1381,212.2c-13.2-11.1-29.3-15.5-40.4-17.2c-18.5-2.9-42.8-5.8-68.5-8.8c-24-2.8-48.9-5.8-68.4-8.8
	c-37.8-5.8-59.6,4.6-75.8,15.4c-6.7,4.4-14.8,9.9-23.8,15.8c-30.6,20.3-68.8,45.6-90.3,61.2c-27.6,20.1-45.5,11.8-61.2,4.5l-0.4-0.2
	c-23.8-11-51.5-24.8-80.8-39.5c-49-24.5-99.8-49.8-139.2-65.4c-22.4-8.9-45.9-7.1-67.8,5.1c-27.8,15.4-46.2,43.7-48.8,58.2l0,0
	c-1.3,7-2.3,12.9-3.1,18.2c-2.5,15.2-3.9,23.6-7.7,31.1c-8.3,16.4-30.3,23.5-65.3,21.2c-20.1-1.3-53.1-2.1-72-1.7
	c-41.9,0.9-56.4,23.9-61.3,43c-2.3,9-5.5,20.6-9,33c-11.1,39.4-24.8,88.5-26,118c-2.1,54.6,20.6,86,40,102.7
	c22.3,19.1,49.6,27.4,67.8,28.7c3.2,0.2,6.4,0.3,9.6,0.3c31.4,0,62-11,83.2-30.4c14.5-13.3,22.7-28.7,23-43.4l0.3-16.2
	c0.5-24.8,1.2-58.8,1.7-77.6c0.4-13.7,4.2-24.1,11.5-30.9c10.9-10.2,26.6-9.6,26.7-9.6l0.3,0l105.9-1.2c88.8,1.9,207.4,2.2,333,2.6
	c63.3,0.2,128.8,0.4,195.4,0.8c0.3,0,0.6,0,0.9,0c31.1,0,62.4-9.5,88.2-26.9c25.5-17.1,41.3-39.1,43.6-60.3
	c1.5-13.7,1.5-35.9,1.6-53.6c0-5.1,0-9.8,0.1-13.6C1404.3,243.5,1396.5,225.2,1381,212.2z M1383.9,280.3c0,16.4-0.1,38.9-1.5,51.6
	c-1.6,15.1-14.6,32.2-34.8,45.8c-22.2,14.9-50.3,23.5-77,23.5c-0.2,0-0.5,0-0.7,0c-66.6-0.4-132.1-0.6-195.4-0.8
	c-125.5-0.4-244.1-0.7-332.8-2.6l-0.2,0L635.8,399c-3.4-0.1-24.6-0.2-40.8,14.7c-11.5,10.6-17.6,25.8-18.1,45.2
	c-0.5,18.9-1.2,52.9-1.7,77.7l-0.3,16.2c-0.2,9.1-6.2,19.6-16.5,29c-19.4,17.7-48.5,27-77.9,24.9c-15-1.1-37.7-7.9-56.2-23.9
	c-23.4-20.1-34.5-49.3-33.1-86.8c1-27.2,15-77,25.2-113.4c3.5-12.5,6.8-24.2,9.1-33.5c4.6-18.3,18.5-27.4,42.3-27.9
	c3.1-0.1,6.7-0.1,10.6-0.1c18.5,0,43.7,0.7,59.7,1.7c43.8,2.8,72.2-8,84.5-32.1c5.2-10.2,6.9-20.2,9.6-36.8
	c0.9-5.2,1.8-11.1,3.1-17.9c1.6-8.8,16.4-31.8,38.9-44.3c16.8-9.3,33.8-10.7,50.7-4c38.6,15.3,88.9,40.4,137.6,64.7
	c29.4,14.7,57.2,28.6,81.3,39.7l0.4,0.2c16.6,7.7,44.3,20.5,81.4-6.5c21.2-15.4,59.1-40.5,89.6-60.7c9-6,17.2-11.4,23.9-15.9
	c13.7-9.2,30.7-17,61.7-12.3c19.9,3,44.9,6,69.1,8.8c25.5,3,49.6,5.9,67.7,8.7c21.5,3.4,46.9,15.2,46.5,51.8
	C1383.9,270.4,1383.9,275.2,1383.9,280.3z"/>
</svg>
