<?xml version="1.0" encoding="utf-8"?>
<!-- Generator: Adobe Illustrator 24.0.1, SVG Export Plug-In . SVG Version: 6.00 Build 0)  -->
<svg version="1.1" id="Road_Short__Config" xmlns="http://www.w3.org/2000/svg" xmlns:xlink="http://www.w3.org/1999/xlink" x="0px"
	 y="0px" viewBox="0 0 1920 1080" style="enable-background:new 0 0 1920 1080;" xml:space="preserve">
<style type="text/css">
	.st0{fill:#FFFFFF;}
</style>
<title>active</title>
<path class="st0" d="M1381,212.2c-13.2-11.1-29.3-15.5-40.4-17.2c-18.5-2.9-42.8-5.8-68.5-8.8c-24-2.8-48.9-5.8-68.4-8.8
	c-37.8-5.8-59.6,4.6-75.8,15.4c-6.7,4.4-14.8,9.9-23.8,15.8c-30.6,20.3-68.8,45.6-90.3,61.2c-27.6,20.1-45.5,11.8-61.2,4.5l-0.4-0.2
	c-23.8-11-51.5-24.8-80.8-39.5c-49-24.5-99.8-49.8-139.2-65.4c-21.2-8.4-42.2-8-62.4,1.2c-28.7,13.1-47.6,41-52.7,55.5
	c-12.6,35.5-1.5,76.2,11.8,100.3c10.8,19.6,26.1,37.7,37.2,50.9c1.8,2.1,3.4,4.1,4.9,5.9c18.1,21.9,52.9,34.5,70.1,34.8
	c87.9,1.9,205,2.2,329.1,2.6c64.6,0.2,131.5,0.4,199.5,0.8c0.3,0,0.6,0,0.9,0c31.1,0,62.4-9.5,88.2-26.9
	c25.4-17.1,41.3-39.1,43.6-60.3c1.5-13.7,1.5-35.9,1.6-53.6c0-5.1,0-9.8,0.1-13.6C1404.3,243.5,1396.6,225.2,1381,212.2z
	 M1383.9,280.3c0,16.4-0.1,38.9-1.5,51.6c-1.6,15.1-14.6,32.2-34.8,45.8c-22.2,14.9-50.3,23.5-77,23.5c-0.2,0-0.5,0-0.7,0
	c-68-0.4-134.9-0.6-199.6-0.8c-123.9-0.4-241-0.7-328.7-2.6c-11.5-0.2-40.5-9.9-55.1-27.6c-1.6-1.9-3.2-3.9-5-6
	c-10.6-12.6-25.1-29.8-35-47.7c-9.1-16.4-21.5-52.6-10.4-83.9c3.3-9.2,18.4-33.1,42.1-43.9c7.8-3.6,15.8-5.3,24-5.3
	c7.5,0,15.1,1.5,22.8,4.5c38.6,15.3,88.9,40.4,137.6,64.7c29.4,14.7,57.2,28.6,81.3,39.7l0.4,0.2c16.6,7.7,44.3,20.5,81.4-6.5
	c21.2-15.4,59.1-40.5,89.6-60.7c9-6,17.2-11.4,23.9-15.9c13.7-9.2,30.7-17,61.7-12.3c19.9,3,44.9,6,69.1,8.8
	c25.5,3,49.6,5.9,67.7,8.7c21.5,3.4,46.9,15.2,46.5,51.8C1383.9,270.4,1383.9,275.2,1383.9,280.3z"/>
</svg>
