<?xml version="1.0" encoding="utf-8"?>
<!-- Generator: Adobe Illustrator 24.0.1, SVG Export Plug-In . SVG Version: 6.00 Build 0)  -->
<svg version="1.1" id="Infield_Legends__Config" xmlns="http://www.w3.org/2000/svg" xmlns:xlink="http://www.w3.org/1999/xlink"
	 x="0px" y="0px" viewBox="0 0 1920 1080" style="enable-background:new 0 0 1920 1080;" xml:space="preserve">
<style type="text/css">
	.st0{fill:#FFFFFF;}
</style>
<title>active</title>
<path class="st0" d="M597.2,376.4c-0.5-27-14.5-44.5-26.2-54.4c-14.8-12.5-31.8-18.2-42.8-19.3c-17-1.8-50.1-2.4-68-1.4
	c-34.1,2-51.1,33-55.4,49.1c-1.6,6.1-3.5,13.1-5.6,20.6c-10.4,38.2-24.7,90.6-27.5,123.9v0c-7.1,83.2,54.7,124.2,95.3,130.5
	c8.7,1.4,17.3,2,25.6,2c27.8,0,52.6-7.5,71.6-22c16.8-12.8,27.6-30.4,29.7-48.2C597.7,524.3,598.8,463.5,597.2,376.4z M574.1,555
	c-1.4,12.5-9.4,25.1-21.9,34.6c-20.3,15.5-49.4,21.2-82,16.1c-13.5-2.1-35.3-10.8-52.4-28.6c-20.1-20.8-28.9-47.9-26.1-80.5v0
	c2.7-31.6,16.7-82.9,26.9-120.4c2-7.5,3.9-14.5,5.6-20.7c2.4-9.1,13.8-32.9,37.3-34.3c5.6-0.3,12.7-0.5,20.3-0.5
	c15.7,0,33.6,0.7,44.5,1.8c15.7,1.6,50.3,17.5,51,54.1C578.8,462.9,577.8,522.9,574.1,555z"/>
</svg>
