<?xml version="1.0" encoding="utf-8"?>
<!-- Generator: Adobe Illustrator 24.0.1, SVG Export Plug-In . SVG Version: 6.00 Build 0)  -->
<svg version="1.1" id="Road_Combined__Config" xmlns="http://www.w3.org/2000/svg" xmlns:xlink="http://www.w3.org/1999/xlink"
	 x="0px" y="0px" viewBox="0 0 1920 1080" style="enable-background:new 0 0 1920 1080;" xml:space="preserve">
<style type="text/css">
	.st0{fill:#FFFFFF;}
</style>
<title>active</title>
<path class="st0" d="M1716.7,446.8c-2.5-141.4-72-227.3-129.8-274.4c-34.2-27.9-73.4-50-116.3-65.7c-38.6-14.1-78.4-22.1-115.1-23.2
	c-12.2-0.4-24.1-0.7-36-1.1c-161.5-4.9-300.9-9.2-591.8,3.8c-4.4,0.2-12.5,0.6-18.9,7.4c-5.7,6.2-8.4,16-8.4,30.8
	c0,13.7,1.7,24.9,5.2,34.3c4.8,12.8,19.9,26.8,40.5,37.4c57.4,29.6,149.3,74.5,204.9,100.1c24.2,11.1,47.4,10,68.9-3.3
	c17.2-10.7,41.8-28.9,65.5-46.5c20.1-15,39.2-29.1,53-38.2c16.3-10.7,37.2-14.3,63.8-11.1c20.8,2.5,42.4,5.8,63.4,8.9
	c22.8,3.4,46.3,7,68.2,9.5c31.4,3.6,48.2,21.5,49.7,53.4c1.4,29,1.3,48.6-0.3,58.1c-6.1,36.6-47.4,73.6-114.5,73.6
	c-63.1,0-152.8-0.7-247.9-1.5c-103.7-0.8-210.8-1.7-280.8-1.5c0,0-0.1,0-0.1,0c-18.1,0-45.5-10.9-62.9-35
	c-6.9-9.5-23.1-31.9-28.9-41.8l-1.2-2c-6.9-11.8-12.4-21.1-15.9-53.3c-0.8-7-1-17.5-1.3-28.6c-0.3-13.5-0.6-27.5-2-36.9
	c-1.3-9.3-8.2-18.8-18.3-25.3c-8.6-5.5-27.2-13.6-54.7-5.3c-5.2,1.6-10.8,3.2-16.9,5c-40.2,12-95.4,28.4-125.4,41.1
	c-43.8,18.6-85.3,48-102.2,66.2c-28.7,31-48.8,95.6-50.6,128.3c-4.5,81.7,12.1,155.2,49.2,218.7c36.1,61.7,83.8,100.1,117.4,121.4
	c61.2,38.8,217.4,133.6,346.6,177.1c71.6,24.1,144.4,33.3,209.6,33.3c56.4,0,107-6.8,146.2-16.8c191.3-48.7,309-122.1,386.9-170.7
	c5.2-3.2,10.2-6.4,15-9.4c58.4-36.2,106.4-84.7,138.8-140.5C1701.4,568.3,1717.7,507.3,1716.7,446.8z M1520.2,746.7
	c-4.8,3-9.9,6.1-15.1,9.4c-76.8,47.9-192.9,120.4-381.2,168.3c-37.9,9.6-86.8,16.3-141.3,16.2c-63.2,0-133.8-8.9-203.2-32.3
	C689.8,878.3,565,814.5,437,733.3c-50.9-32.2-168-128.2-157.4-322.1l0,0c1.5-28.3,20.4-88.9,45.3-115.8
	c13.2-14.3,51.6-42.8,95.4-61.4c29-12.3,83.5-28.5,123.3-40.4c6.1-1.8,11.8-3.5,16.9-5.1c6.4-1.9,12.1-2.7,17-2.7
	c10.2,0,17.2,3.2,21.1,5.7c5.8,3.7,8.9,8.4,9.3,11.3c1.2,8.2,1.5,21.6,1.8,34.5c0.3,11.6,0.5,22.5,1.4,30.3
	c4,36.5,11,48.5,18.5,61.3l1.2,2c5.6,9.5,18.3,27.3,29.9,43.4c21.6,29.9,55.3,43.3,79.1,43.3c0.1,0,0.1,0,0.2,0
	c69.8-0.2,177,0.7,280.6,1.5c95.1,0.8,184.9,1.5,248,1.5c34.7,0,66.2-9.1,91-26.3c23.8-16.6,39.2-39.3,43.3-64
	c1.8-11.1,2-31.5,0.5-62.4c-1.2-24.9-10-43.9-26.2-56.6c-10.9-8.5-24.8-13.8-41.1-15.7c-21.5-2.5-43.8-5.8-67.5-9.4
	c-21.1-3.2-42.8-6.4-63.9-9c-31.5-3.8-56.8,0.8-77.2,14.2c-14.4,9.4-33.6,23.7-54,38.8c-23.4,17.4-47.6,35.4-64.1,45.6
	c-15.9,9.9-31.8,10.5-50,2.2c-55.4-25.5-146.9-70.2-204-99.7c-20.6-10.6-29.1-21.7-31-26.6c-2.6-7-3.9-16.2-3.9-27.3
	c0-12.8,2.4-16.4,3.1-17.2c0.6-0.6,1.8-0.9,5.1-1c290.1-12.9,429.2-8.7,590.3-3.7c11.8,0.4,23.8,0.7,36,1.1
	c139.5,4.2,337.8,113.5,341.9,343.6C1698.8,565,1632.8,677,1520.2,746.7z"/>
</svg>
