<?xml version="1.0" encoding="utf-8"?>
<!-- Generator: Adobe Illustrator 24.0.1, SVG Export Plug-In . SVG Version: 6.00 Build 0)  -->
<svg version="1.1" id="darlington_-_Config" xmlns="http://www.w3.org/2000/svg" xmlns:xlink="http://www.w3.org/1999/xlink"
	 x="0px" y="0px" viewBox="0 0 1920 1080" style="enable-background:new 0 0 1920 1080;" xml:space="preserve">
<style type="text/css">
	.st0{fill:#FFFFFF;}
</style>
<title>active</title>
<path class="st0" d="M1449,927.7H465c-98.4,0-173.2-32.2-218.6-59.2c-55.7-33.1-100.3-78-122.5-123.1
	c-23-46.8-37.3-105.8-39.2-161.8C82.2,511.3,100.3,447.2,137,398c41.7-55.9,93.3-98.3,153.4-126c50.7-23.4,96.9-31.6,127.3-35.8
	c47-6.4,595.3-74.3,858.7-107c65.1-8.1,111.7-13.8,126.9-15.7c41.6-5.2,87.5,0,132.7,15c46.7,15.5,91.4,40.5,132.8,74.4
	c85,69.4,135.2,166.7,145.1,281.2c4.9,56.2-4,118.2-25.7,179.3c-21.1,59.6-53.7,114.6-91.8,154.7c-37.5,39.6-77.2,67.6-121.3,85.8
	C1536.3,919.9,1495.1,927.7,1449,927.7z M1436.3,161.5c-9.1,0-18,0.5-26.8,1.6c-15.2,1.9-61.8,7.7-126.9,15.7
	c-263.4,32.6-811.4,100.5-858.1,106.9C385.5,291.1,267.2,307.2,177,428c-67.9,90.9-42.1,226.4-8.3,295.4
	C198.1,783,304.4,877.7,465,877.7h984c83.4,0,150.5-29.8,211.2-93.9c69.8-73.6,112.6-195.1,103.9-295.3
	c-8.7-100.8-52.6-186.1-126.9-246.8C1573.8,189.9,1502,161.5,1436.3,161.5z"/>
</svg>
