<?xml version="1.0" encoding="utf-8"?>
<!-- Generator: Adobe Illustrator 24.0.1, SVG Export Plug-In . SVG Version: 6.00 Build 0)  -->
<svg version="1.1" id="Oval_-_Config" xmlns="http://www.w3.org/2000/svg" xmlns:xlink="http://www.w3.org/1999/xlink" x="0px"
	 y="0px" viewBox="0 0 1920 1080" style="enable-background:new 0 0 1920 1080;" xml:space="preserve">
<style type="text/css">
	.st0{fill:#FFFFFF;}
</style>
<title>active</title>
<path class="st0" d="M1822,289.7c-26.9-60.3-64.6-98.4-84.6-115.8c-101-87.6-227.9-87.6-311.8-87.6c-8,0-15.6,0-22.7-0.1
	c-119.5-1.3-313.8-2.8-470-4c-58-0.5-110.8-0.9-152.9-1.2l-22.2-0.2c-80-0.7-214-1.7-283.7-1c-118.9,1.2-197.4,20.4-262.5,64
	C97.3,220.5,65,340.7,64,399.7C62.3,491.9,88.5,571,141.8,635c38,45.6,90.1,84.1,159.2,117.7c87.1,42.3,246.7,115,334.9,152.5
	c82.3,35,204,81.1,318.5,81.1c2.6,0,5.2,0,7.9-0.1c103.9-1.9,168.7-21,213.5-37.4c114.6-42,318.9-129.9,420.7-184.8
	c29.8-16.1,91.9-49.5,145.5-98.1c61.8-56.1,97.7-118.7,106.7-186C1857.4,413,1848.5,349,1822,289.7z M1828.7,477.2
	c-19.9,149.5-181.1,236.4-241.8,269.1c-101.1,54.5-304.1,141.9-418.1,183.6c-43.4,15.9-106.1,34.3-207,36.2c-2.5,0-5,0.1-7.5,0.1
	c-110.8,0-229.9-45.2-310.6-79.5c-88-37.4-247.2-109.9-334-152.1C211.1,686.8,80.4,599.9,84,400.1c1-55.1,31.3-167.6,138.9-239.6
	c61.6-41.3,136.8-59.4,251.5-60.6c16.7-0.2,37.1-0.3,59.5-0.3c71.1,0,163,0.8,223.8,1.2l22.2,0.2c42.1,0.3,94.9,0.8,152.9,1.2
	c156.1,1.2,350.4,2.7,469.9,4c7.2,0.1,14.9,0.1,22.9,0.1c81,0,203.3,0,298.7,82.7C1754.4,215,1850.6,312.7,1828.7,477.2z"/>
</svg>
