<?xml version="1.0" encoding="utf-8"?>
<!-- Generator: Adobe Illustrator 24.0.1, SVG Export Plug-In . SVG Version: 6.00 Build 0)  -->
<svg version="1.1" id="Infield_RC_Long_-_Config" xmlns="http://www.w3.org/2000/svg" xmlns:xlink="http://www.w3.org/1999/xlink"
	 x="0px" y="0px" viewBox="0 0 1920 1080" style="enable-background:new 0 0 1920 1080;" xml:space="preserve">
<style type="text/css">
	.st0{fill:#FFFFFF;}
</style>
<title>active</title>
<path class="st0" d="M1469.2,244.9c-10.6-12.5-25.6-21.6-43.4-26.5c-47.2-12.8-113.4-22-181.7-25.2h0c-39.7-1.9-75.3,4.4-95.2,16.7
	c-46.8,29-60,34.4-87.8,36c-38.8,2.2-72.1,1.5-96.3-2.3c-43.1-6.6-61.5-23.4-79.5-43.1c-22.7-24.8-45-36-77.1-38.8
	c-30.4-2.6-43.2-3-74.9-1l-2.6,0.2c-14.7,0.9-31.4,1.9-59.6,8.8c-3.8,0.9-92.7,22.6-122.2,34.2c-1.8,0.7-3.8,1.5-5.8,2.2
	c-21.3,8.3-53.4,20.7-77.4,37.3c-30.9,21.4-50.7,42.3-60.5,63.9c-8,17.8-9.3,36.3-3.9,56.5c10.3,38.7,51.4,57,75.9,57.2l56.1,0.5
	c146.3,1.2,367.4,3.1,486.7,4.9c0.4,0,0.7,0,1.1,0c21.3,0,40.8-9.7,63-31.3c20.1-19.6,44.5-40.3,80.7-38.7
	c26.2,1.2,66.8,3.9,98.7,6.7l1.2,0.1c13.4,1.2,24,2.1,54.8,10.8c29.3,8.4,78.4,22.5,119.7,0.2c20-10.8,46.7-30.2,47.9-74.3
	C1487.8,278.2,1481.7,259.7,1469.2,244.9z M1467.2,299.5c-0.9,33.2-19.4,47.6-37.4,57.3c-34.1,18.4-78.3,5.8-104.7-1.8
	c-32.6-9.3-44.6-10.3-58.6-11.5l-1.2-0.1c-27.2-2.3-68.5-5.3-99.6-6.7c-42-1.9-70.7,20.2-95.5,44.3c-23.6,23-39.1,25.8-49.8,25.6
	c-119.3-1.8-340.5-3.6-486.8-4.9l-56.1-0.5c-18.6-0.2-49.5-15.3-56.8-42.4c-6.7-25-5.2-56.2,56.4-98.8
	c22.1-15.3,52.9-27.2,73.3-35.2c2-0.8,4-1.5,5.8-2.3c28.3-11.1,118.7-33.2,119.6-33.4c26.5-6.5,41.5-7.4,56.1-8.3l2.6-0.2
	c13-0.8,22.6-1.2,31.6-1.2c12.2,0,23.3,0.7,40.4,2.2c27.2,2.3,44.6,11.1,64,32.4c19.8,21.7,41.8,41.7,91.2,49.3
	c25.6,3.9,60.3,4.8,100.5,2.5c33.3-1.9,49.7-9.6,97.1-39c16.4-10.1,48.5-15.4,83.8-13.7c66.9,3.2,131.6,12.1,177.4,24.5
	C1438.5,242.6,1468.4,257.2,1467.2,299.5z"/>
</svg>
