<?xml version="1.0" encoding="utf-8"?>
<!-- Generator: Adobe Illustrator 24.0.1, SVG Export Plug-In . SVG Version: 6.00 Build 0)  -->
<svg version="1.1" id="Infield_RC_Short_A_-_Config"
	 xmlns="http://www.w3.org/2000/svg" xmlns:xlink="http://www.w3.org/1999/xlink" x="0px" y="0px" viewBox="0 0 1920 1080"
	 style="enable-background:new 0 0 1920 1080;" xml:space="preserve">
<style type="text/css">
	.st0{fill:#FFFFFF;}
</style>
<title>active</title>
<path class="st0" d="M874,201.7c-8.8-25.4-34.8-39.8-73.4-40.5c-20.4-0.4-56.5,0.3-59.5,0.4c-23.5-0.2-47,2.6-69.9,8.2
	c-3.8,0.9-92.7,22.6-122.2,34.2c-1.8,0.7-3.8,1.5-5.8,2.2c-21.3,8.3-53.4,20.7-77.4,37.3c-30.9,21.4-50.7,42.3-60.5,63.9
	c-8,17.8-9.3,36.3-3.9,56.5c10.3,38.6,51.3,57,75.8,57.2c4,0.1,64.2,1.3,111.3,1.3c16.4,0,31.1-0.1,41.4-0.5
	c26.4-1,70.3-20.3,75.4-67.8c1.6-14.6,10.8-62,62.5-59.8c11.9,0.5,34.8,0.1,54.5-7.8c25.7-10.3,38.9-26.9,45.5-39
	C876.4,232.2,878.6,215.1,874,201.7z M815,268c-16.3,6.6-35.9,6.8-46.2,6.4h0c-27.8-1.2-50.4,9-65.4,29.3
	c-13.4,18.3-17,39.9-17.9,48.3c-4.2,39.1-43.1,49.4-56.3,49.9c-39.5,1.5-150.5-0.8-151.6-0.8l-0.1,0c-18.6-0.2-49.5-15.3-56.8-42.4
	c-6.7-25-5.2-56.2,56.4-98.8c22.1-15.3,52.9-27.2,73.3-35.2c2-0.8,4-1.5,5.8-2.3c28.3-11.1,118.7-33.2,119.6-33.4
	c20.6-5.1,41.7-7.6,62.9-7.6c0.7,0,1.5,0,2.2,0l0.1,0l0.1,0c0.4,0,38.4-0.8,58.8-0.4c20.9,0.4,47.5,5.4,54.9,27
	C860.5,223.9,849.3,254.2,815,268z"/>
</svg>
