<?xml version="1.0" encoding="utf-8"?>
<!-- Generator: Adobe Illustrator 24.0.1, SVG Export Plug-In . SVG Version: 6.00 Build 0)  -->
<svg version="1.1" id="Infield_RC_Short_B_-_Config"
	 xmlns="http://www.w3.org/2000/svg" xmlns:xlink="http://www.w3.org/1999/xlink" x="0px" y="0px" viewBox="0 0 1920 1080"
	 style="enable-background:new 0 0 1920 1080;" xml:space="preserve">
<style type="text/css">
	.st0{fill:#FFFFFF;}
</style>
<title>active</title>
<path class="st0" d="M1425.8,218.5c-47.2-12.8-113.4-22-181.7-25.2c-19.7-0.9-68.5-1.1-95.5,16.9c-39.8,26.5-50.5,30.9-88.2,35.9
	c-15.3,2.1-45.5,7.7-76.4,22.2l-1.9,0.9c-20.8,9.8-52.1,24.5-68.8,39.9c-13.5,12.5-30.4,40.6-21.7,66.8c4.6,13.8,20.2,46.1,66,48.1
	c6.9,0.3,16.6,0.4,26.5,0.4c13.5,0,27.7-0.3,36.8-0.9l0,0c24.9-1.7,40.1-8.4,62.7-27.8c2.4-2.1,4.8-4.2,7.2-6.3
	c19.7-17.3,38.3-33.7,74.1-32.8c27,0.7,65,3.8,98.6,6.7l1.2,0.1c13.4,1.2,24,2.1,54.8,10.8c29.3,8.4,78.5,22.4,119.7,0.2
	c20-10.8,46.7-30.2,47.9-74.3C1488.3,259.8,1465.4,229.2,1425.8,218.5z M1467.2,299.6c-0.9,33.2-19.4,47.6-37.4,57.3
	c-34,18.3-78.3,5.7-104.7-1.8c-32.6-9.3-44.6-10.3-58.6-11.5l-1.2-0.1c-33.9-2.9-72.2-6-99.7-6.7c-43.6-1.2-67.1,19.5-87.9,37.7
	c-2.3,2.1-4.7,4.1-7,6.1c-19.5,16.7-30.5,21.7-51.1,23.1c-15,1-45.7,1.1-61.2,0.4c-32.1-1.4-43.7-22.2-47.8-34.4
	c-5.4-16.2,6.3-36.5,16.3-45.8c14.4-13.3,44.1-27.3,63.7-36.5l1.9-0.9c28.5-13.4,56.4-18.6,70.6-20.5c40.9-5.5,54.4-11,96.7-39.1
	c13.2-8.8,39.3-13.9,69.9-13.9c4.4,0,9,0.1,13.5,0.3c66.9,3.2,131.6,12.1,177.4,24.6C1438.5,242.7,1468.4,257.2,1467.2,299.6z"/>
</svg>
