<svg id="Oval_-_Config" data-name="Oval - Config" xmlns="http://www.w3.org/2000/svg" viewBox="0 0 1920 1080"><defs><style>.cls-1{fill:#fff;}</style></defs><title>active</title><path class="cls-1" d="M1487.75,371.52c-22.1-70-62.13-129.18-119-176-45.5-37.48-101.9-67-167.63-87.83-74.54-23.59-158.63-35.54-250-35.54h-3.88c-67.18,0-129.28,5-184.58,14.75-56,9.91-106.82,25.09-151,45.1C521.62,172.89,455.43,235.33,415,317.61c-42.22,86-51.49,185.6-26.09,280.51C409.77,676,446.84,741.61,499.11,793.18c43.47,42.88,97.77,76.32,161.39,99.39C760.38,928.79,861,931.8,919.23,931.8c6.37,0,12.25,0,17.55-.07,4.15,0,7.94,0,11.33,0h.15c191.54-.74,337.41-47.88,433.56-140.11a390,390,0,0,0,88-126.81A444.39,444.39,0,0,0,1502,548C1510.24,488.07,1505.3,427.06,1487.75,371.52Zm-65,165.58C1403.23,679.83,1305,850.27,948.07,851.69c-3.53,0-7.47,0-11.78,0-98,.6-396,2.44-470.08-274.31-20.39-76.2-13.07-155.95,20.62-224.56,66.32-135,216.94-200.69,460.49-200.69H951c116.3,0,391.1,24,460.44,243.45C1425.47,440,1429.38,488.87,1422.78,537.1Z"/></svg>