<?xml version="1.0" encoding="utf-8"?>
<!-- Generator: Adobe Illustrator 24.0.1, SVG Export Plug-In . SVG Version: 6.00 Build 0)  -->
<svg version="1.1" id="Combined_Road_Course_-_Config"
	 xmlns="http://www.w3.org/2000/svg" xmlns:xlink="http://www.w3.org/1999/xlink" x="0px" y="0px" viewBox="0 0 1920 1080"
	 style="enable-background:new 0 0 1920 1080;" xml:space="preserve">
<style type="text/css">
	.st0{fill:#FFFFFF;}
</style>
<title>active</title>
<path class="st0" d="M1753,443.6c-3.2-61.5-19.2-117.7-47.5-167c-24.8-43.3-59-81-101.6-112.3c-36.9-27.1-78.8-48.5-124.6-63.7
	c-40-13.2-80.8-20.8-118-22.1c-1.5-0.1-152.2-5.8-267.3-3c-20.9,0.5-37.6,7.3-49.6,20.2c-18.8,20.2-19.1,47.8-18.7,55.8
	c0.9,20.7,10.7,37.4,28.3,48.3c17.9,11.1,36.8,12,42.1,12c23.9,0,61.6,0.8,94.9,1.4c19.8,0.4,38.5,0.8,52.6,0.9
	c58.8,0.8,133.1,12.8,177.3,23.6c14.4,3.5,47.6,16.6,46.3,61.7c-0.9,33.2-19.4,47.6-37.4,57.3c-34,18.3-78.3,5.7-104.7-1.8
	c-32.6-9.3-44.6-10.3-58.6-11.5l-1.2-0.1c-32.2-2.8-73.1-5.5-99.6-6.7c-42-1.9-70.7,20.2-95.5,44.3c-23.7,23-39,25.8-49.8,25.6
	c-119.3-1.8-340.4-3.6-486.7-4.9l-56.2-0.5c-18.6-0.2-49.5-15.3-56.8-42.4c-6.7-25-5.1-56.2,56.4-98.8l0,0
	c22.2-15.3,53.1-27.3,73.5-35.2c2-0.8,3.8-1.5,5.6-2.2c28.3-11.1,118.7-33.2,119.6-33.4c29.3-7.2,44.7-7.6,57.9-7.4
	c18.9,0.3,50.1,0.2,77.7,0.1c19.7-0.1,38.3-0.1,50.4-0.1c0.3,0,0.6,0,0.8,0c22.4,0,39.3-5.7,50.3-16.9
	c11.6-11.8,13.7-26.8,13.4-37.2c-1-35.7-36.4-50.8-59.9-52.2c-58.6-3.6-215-2.1-222.9-2c-59-0.6-172.8,7.3-272.3,66.2
	C320.9,169.6,280.4,209,251.1,257c-34,55.5-53.4,123-57.8,200.8c-0.7,13-2.5,82,34.6,162.4c18.9,40.8,44.8,78,77.1,110.4
	c38.8,39,87.1,71.4,143.6,96.4c57.1,25.2,170.2,64.7,255.1,93.3c52.2,17.6,62.1,18.1,75.8,18.8l2.4,0.1c46,2.5,114.9,3.5,183.4,3.5
	c67.4,0,134.4-0.9,179.2-2.3c42.2-1.2,61.2-3.6,81.1-10.3c68.1-22.7,189.8-64.2,239.2-86.7c61.2-27.8,113.2-59.4,154.5-93.7
	c37.5-31.1,67.4-65.5,88.9-102.2C1742.9,588.4,1757.1,523.6,1753,443.6z M1456.4,825.2c-48.6,22.1-169.5,63.3-237.3,86
	c-17.8,5.9-35.4,8.1-75.4,9.3c-90,2.7-270.3,3.7-360.9-1.2c-0.8,0-1.7-0.1-2.5-0.1c-12.1-0.6-20.8-1.1-70.4-17.8
	c-84.5-28.5-197-67.7-253.4-92.7C356.8,764.5,285.9,698.3,246,611.7c-35.1-76-33.5-140.7-32.8-152.8
	c19.1-336.8,323.2-365.5,425-365.5c1.8,0,3.6,0,5.3,0l0.1,0l0.1,0c1.6,0,163.4-1.6,221.6,2c6.3,0.4,16.9,2.7,25.7,8.1
	c10.1,6.1,15.2,14.2,15.5,24.8c0.2,6.6-1,15.8-7.7,22.7c-7.2,7.3-19.6,11-36.8,10.9c-12.2-0.1-30.9,0-50.6,0.1
	c-27.5,0.1-58.6,0.2-77.3-0.1c-17.2-0.2-34.5,1-63,8c-3.8,0.9-92.7,22.6-122.2,34.2c-1.8,0.7-3.6,1.4-5.6,2.2
	c-21.3,8.3-53.5,20.7-77.7,37.4l0,0c-30.9,21.4-50.7,42.3-60.4,64c-8,17.8-9.3,36.3-3.9,56.5c10.3,38.7,51.4,57,75.9,57.2l56.2,0.5
	c146.3,1.2,367.4,3.1,486.6,4.9c21.7,0.3,41.4-9.3,64-31.3c20.1-19.6,44.6-40.3,80.7-38.7c26.2,1.2,66.8,3.9,98.7,6.7l1.2,0.1
	c13.4,1.2,24,2.1,54.8,10.8c29.3,8.4,78.5,22.4,119.7,0.2c20-10.8,46.7-30.2,47.9-74.3c0.6-21.7-5.5-40.8-17.8-55.4
	c-10.8-12.8-25.9-21.9-43.8-26.3c-45.2-11.1-121.4-23.4-181.8-24.2c-14-0.2-32.7-0.6-52.5-0.9c-33.3-0.7-71.1-1.4-95.2-1.4
	c-13.5,0-48.9-7.4-50.4-41.2c-0.6-12.4,2.7-29.7,13.4-41.2c8.3-8.8,20.2-13.5,35.5-13.9c114.5-2.8,264.5,2.9,266.1,3
	C1497.9,103,1720.4,201,1733,444.6C1739,560.5,1713,708.5,1456.4,825.2z"/>
</svg>
