<?xml version="1.0" encoding="utf-8"?>
<!-- Generator: Adobe Illustrator 24.0.1, SVG Export Plug-In . SVG Version: 6.00 Build 0)  -->
<svg version="1.1" id="Chicagoland_Config" xmlns="http://www.w3.org/2000/svg" xmlns:xlink="http://www.w3.org/1999/xlink" x="0px"
	 y="0px" viewBox="0 0 1920 1080" style="enable-background:new 0 0 1920 1080;" xml:space="preserve">
<style type="text/css">
	.st0{fill:#FFFFFF;}
</style>
<title>active</title>
<path class="st0" d="M1785.3,424.9c-6.7-83.6-43.8-164.3-104.4-227c-36.2-37.5-80.8-69.1-132.7-93.8
	c-57.5-27.4-124.4-46.8-199.1-57.5c-229.4-37-491.6-32.7-646.5-17.7c-42.5,4.1-98.9,10.4-157.3,22.8c-67.1,14.2-126.3,34.3-176,59.7
	c-135.8,69.3-209,181.1-217.5,332.4c-2.3,41.7,2.5,83.2,14.5,123.2c13.9,46.8,37.7,92,70.6,134.4C315.8,802.7,447.9,889.5,629.4,959
	c48.4,18.5,100.3,37.8,155.9,52c58.9,15,114.9,22.4,171,22.4c1.7,0,3.4,0,5.1,0l6.1,0c62.8-0.5,112.4-0.9,185-19.9
	c77.4-20.3,174.4-60.5,314.4-130.4c49.8-24.9,142.5-71.1,213.2-146.8c36.8-39.4,64.5-83.3,82.2-130.4
	C1782.8,550.9,1790.6,490,1785.3,424.9z M1457.9,865.1c-293.9,146.7-367.9,147.3-490.5,148.2l-6.1,0c-1.7,0-3.4,0-5.1,0
	c-119.1,0-215.3-33.1-319.5-73c-178.1-68.2-307.2-152.8-383.8-251.5c-58.5-75.4-85.7-157.5-80.9-244.2
	c8.1-143.6,77.6-249.8,206.6-315.7c104.7-53.4,229.3-71,326.1-80.4c66.5-6.4,153-10.9,248.2-10.9c124.7,0,264.2,7.6,393.3,28.4
	l0.2,0c138.6,19.9,246.4,68.9,320.3,145.5c57.4,59.5,92.5,135.7,98.8,214.8C1787.5,700.5,1564.8,811.6,1457.9,865.1z"/>
</svg>
