<?xml version="1.0" encoding="utf-8"?>
<!-- Generator: Adobe Illustrator 24.0.1, SVG Export Plug-In . SVG Version: 6.00 Build 0)  -->
<svg version="1.1" id="Michigan_2009_-_Config" xmlns="http://www.w3.org/2000/svg" xmlns:xlink="http://www.w3.org/1999/xlink"
	 x="0px" y="0px" viewBox="0 0 1920 1080" style="enable-background:new 0 0 1920 1080;" xml:space="preserve">
<style type="text/css">
	.st0{fill:#FFFFFF;}
</style>
<title>active</title>
<path class="st0" d="M1740.7,469.7c-0.7-46.9-12.7-136.7-85.6-210.5c-33.1-33.4-75-59.8-124.7-78.3c-55.3-20.6-120.9-31.7-195-33
	c-152.3-2.6-412.7-2.6-622-2.6c-45.5,0-88.3,0-126.5,0c-0.2,0-0.3,0-0.5,0c-35.3,0-89.2,3.2-146.1,18.1
	c-69,18.1-124.7,48.9-165.6,91.3c-57.6,59.9-84.7,142.3-80.5,245c1.7,41.4,13.1,81.2,34.1,118.2c19.8,35,48.2,67.7,84.4,97.1
	c67.9,55.3,163.6,99.3,276.7,127.2l4.3,1.1c63,15.5,149.3,36.8,259.9,46.3c37.2,3.2,74.9,4.8,112.9,4.8c95.3,0,192.6-10,290.8-29.9
	c90.8-18.4,207.4-46.8,303.9-103.2C1682,690.7,1742.4,592.6,1740.7,469.7z M1551,744c-93.9,54.9-208.5,82.7-297.8,100.9
	c-106.9,21.7-202.3,29.8-286.6,29.8c-162.3,0-283.9-30-368.1-50.7l-4.3-1.1C484,795.7,391,753,325.3,699.6
	C254.6,642,217.3,574.5,214.2,498.9c-3.9-97,21.3-174.5,75-230.3c89.6-93.2,237.4-103.3,297.3-103.3c0.1,0,0.3,0,0.4,0
	c38.2,0,81,0,126.5,0c209.2,0,469.5,0,621.6,2.6c354,6.1,384.7,232.7,385.6,302C1722.3,585.1,1665.2,677.3,1551,744z"/>
</svg>
