<?xml version="1.0" encoding="utf-8"?>
<!-- Generator: Adobe Illustrator 24.0.1, SVG Export Plug-In . SVG Version: 6.00 Build 0)  -->
<svg version="1.1" id="Club_-_Config" xmlns="http://www.w3.org/2000/svg" xmlns:xlink="http://www.w3.org/1999/xlink" x="0px"
	 y="0px" viewBox="0 0 1920 1080" style="enable-background:new 0 0 1920 1080;" xml:space="preserve">
<style type="text/css">
	.st0{fill:#FFFFFF;}
</style>
<title>active</title>
<path class="st0" d="M1760.6,692c-0.1-16.1-0.3-40.3-0.1-53.3c2-94.3,0.6-281.9-1.9-374.4c-0.8-28.7-2.4-88.5-2.4-120.4
	c0-31-14.4-48.4-27.8-51.5c-44-10.1-88.4-20.9-131.3-31.4l-10.2-2.5c-19.5-4.5-39.5-7.8-59.4-9.7l-0.6-0.1l-0.6,0
	c-0.4,0-35.5,0.6-47.2,0.6c-11.9,0-18.5,5.1-21.9,9.5c-4.1,5.3-5.8,12.4-4.2,18.7c3.3,13.4,1.4,18.4,0.5,20
	c-0.5,0.9-1.5,1.9-4.5,2.6c-5.8,1.4-8.2-0.3-13.4-13.9c-1.3-3.4-2.5-6.7-4.2-9.3c-15.3-24.8-34.4-21.9-42.5-20.7l-0.3,0
	c-8.1,1.2-19.2,2.9-28.8,11.5c-10.1,9.1-16.1,24.1-18.2,45.7c-0.2,2.5-0.7,6.2-1.1,10.2c-0.6,4.9-1.2,9.9-1.4,13.3
	c-0.8,9.7-13.6,15.3-24.3,18.3c-51.6,14.3-141.3,40.7-213.4,61.9c-22,6.5-42,12.3-58.1,17c-63.9,18.7-143.4,41.9-243.7,131.1
	c-33.3,29.6-59.8,63.4-78.8,100.4c-24.5,47.6-35.6,99.3-33,153.4c2.3,47.5,19.4,71.4,50.5,114.8l3.3,4.6
	c9.7,13.5,34.2,36.5,89.7,38.3c25.2,0.8,38.6,4.8,49.4,8c1.5,0.4,2.9,0.9,4.2,1.2c15.6,4.5,27.3,7.5,34.9,9
	c49,9.7,75.6,10.1,98.3,1.4c7.2-2.8,11.4-2.6,12.9-1.4c2,1.5,2.6,6.2,2.5,8.4l0,0.5l0,0.6c0.3,8.9,4.7,13.9,8.3,16.5
	c9.5,6.9,22.9,4,26.7,3c3.4-0.6,27.2-5,35.6-6.6c62.8-11.9,89.5-8.1,109.9,15.4c13.9,16,25.8,23.7,37.4,24.2
	c12.4,0.5,20.5-7.3,25.8-12.4c0.4-0.4,0.8-0.8,1.2-1.2c0.8,0.3,2,1,2.9,2c23.9,23.7,44.4,14.4,55.4,9.4c1.3-0.6,2.6-1.2,3.7-1.6
	c3.9-1.6,7.7-3.3,11.3-5c19.7-8.9,40-18.2,84.4-10.1c14.1,2.6,32.5,7.3,50.2,11.9c21.3,5.5,41.3,10.6,56.2,12.8
	c11.1,1.6,26.5,3.2,44.4,3.2c27.5,0,60.8-3.7,93.7-16.6c33.4-13,56.6-37.4,68.9-72.3c9.9-28,11-57,10.8-79.1L1760.6,692z
	 M1740.6,692.1l0.1,6.1c0.4,45.5-6.1,108.8-67,132.6c-50,19.5-101.6,16-127.9,12.2c-13.8-2-34.2-7.3-54-12.4
	c-18.1-4.7-36.8-9.5-51.6-12.2c-13.2-2.4-24.6-3.4-34.7-3.4c-28.7,0-46.5,8.1-61.6,14.9c-3.7,1.7-7.1,3.2-10.6,4.6
	c-1.5,0.6-2.9,1.3-4.4,1.9c-10.2,4.6-19,8.6-33.2-5.5c-9.6-9.3-22-10.4-30.3-2.7c-0.6,0.6-1.2,1.2-1.8,1.8c-4.5,4.4-7.5,7-11,6.8
	c-3.2-0.1-10.4-2.6-23.2-17.3c-28.9-33.4-67.6-33.5-128.7-22c-9,1.7-35.7,6.6-36,6.7l-0.9,0.2c-3.8,1.1-8.6,1-9.9,0.3
	c0-0.1-0.1-0.4-0.1-0.8c0.1-3.7-0.1-17.4-10.6-25.1c-7.9-5.9-18.7-6.3-32-1.2c-18.7,7.1-42.4,6.5-87.3-2.4c-4.8-1-14.5-3.2-33.2-8.6
	c-1.3-0.4-2.7-0.8-4-1.2c-11.2-3.4-26.7-7.9-54.4-8.8h0c-46.9-1.5-66.5-19.4-74.1-29.9l-3.3-4.6c-30.7-42.9-44.8-62.5-46.8-104.1
	c-5.5-114.4,54.1-192.5,105.1-237.9c96.8-86.3,174-108.8,236-126.9c16.1-4.7,36.1-10.6,58.1-17.1c72-21.2,161.7-47.5,213.1-61.8
	c30.5-8.5,37.9-24.3,38.8-36c0.2-3,0.8-7.9,1.3-12.5c0.5-4.1,0.9-7.9,1.2-10.6c3.4-35.3,16.3-37.2,30-39.3l0.3,0
	c7-1,14.2-2.1,22.5,11.4c0.6,1,1.6,3.6,2.5,5.9c2.2,5.7,4.8,12.9,9.9,18.5c6.9,7.7,16.2,10.4,27,7.8c7.6-1.8,13.3-5.8,16.8-11.7
	c5-8.2,5.6-19.7,1.9-35.1c0-0.2,0-1,0.6-1.7c0.9-1.1,3.2-1.7,6.1-1.7c11.1,0,42.2-0.5,46.9-0.6c18.8,1.8,37.7,4.9,56.1,9.2l10.1,2.5
	c43,10.5,87.4,21.3,131.5,31.4c3.2,0.7,12.3,10,12.3,32c0,32.2,1.6,92.1,2.4,120.9c2.5,92.3,3.9,279.4,1.9,373.4
	C1740.2,651.5,1740.4,676,1740.6,692.1z"/>
</svg>
