<?xml version="1.0" encoding="utf-8"?>
<!-- Generator: Adobe Illustrator 24.0.1, SVG Export Plug-In . SVG Version: 6.00 Build 0)  -->
<svg version="1.1" id="Full_Course_-_Config" xmlns="http://www.w3.org/2000/svg" xmlns:xlink="http://www.w3.org/1999/xlink"
	 x="0px" y="0px" viewBox="0 0 1920 1080" style="enable-background:new 0 0 1920 1080;" xml:space="preserve">
<style type="text/css">
	.st0{fill:#FFFFFF;}
</style>
<title>active</title>
<path class="st0" d="M1760.6,692c-0.1-16.1-0.3-40.3-0.1-53.3c1.3-60.9,0.2-160-0.8-247.4c-0.5-48-1-93.4-1.1-126.8
	c0-18-1.6-39.4-12.7-62c-12.1-24.6-33.5-46.8-65.5-68c-29.5-19.6-86.2-54.9-119.8-72c-10.1-5.1-25.2-12.9-48.4-11.9
	c-17.5,0.8-40.6,2.5-63,4.1c-20.8,1.5-40.4,3-54.4,3.6c-13.1,0.6-47.9,2.1-53.1,55.2c-0.2,2.5-0.7,6.2-1.1,10.2
	c-0.6,4.9-1.2,9.9-1.4,13.3c-0.3,4.3-1,12.4-24,18.2c-48.9,12.2-132.9,37.5-200.5,57.8c-26.7,8-52,15.6-71.3,21.2
	c-71.5,20.9-144,46.5-243.4,128.7c-24.3,20.1-58.1,48.6-93.9,78.8c-51,43-103.7,87.4-138.2,115.5c-6.6,5.3-13.2,10.8-19.9,16.2
	C465.1,641.4,371,718.3,185.1,807.2c-10.8,5.2-25.6,11.4-41.3,17.9c-22.5,9.4-45.7,19.1-60.3,27.2c-7.7,4.3-23.8,13.2-28.4,30.8
	c-3.2,12.3,0,26.3,9.4,41.5c10.6,17.1,31.7,43.3,47.1,62.5c2.2,2.7,4.2,5.3,6.1,7.6c10.1,12.6,29.2,36.6,62.7,36.6
	c16.2,0,35.7-5.6,59.1-20.7c17.9-11.6,39.5-26.9,62.4-43.1c37.5-26.6,79.9-56.7,120.3-80.5c5.7-3.4,11.2-6.6,16.7-9.9
	c45.3-26.9,88-52.2,178.7-100.8c8-4.3,19.8-11.1,32.4-18.3c15.6-9,31.8-18.3,42.4-23.8c19.7-10.2,35.8-8.4,50.7,5.8
	c19.7,18.7,41.3,35.7,88.5,36.8c3.5,0.1,7.1,0,10.9-0.1c19.2-0.4,41-0.9,62.9,20c1.6,1.5,3.2,3.1,4.9,4.8
	c14,13.9,33.2,32.9,73.9,37.2c21.8,2.3,37.8-0.2,81.4-12.6c9.4-2.7,22.1-6.6,35.5-10.8c19.5-6,41.6-12.9,56.1-16.6
	c24.8-6.4,74.8-7.4,104.8,29.3l0.5,0.6c11.6,14.3,29.2,35.8,76.7,25.1c7.5-1.7,14.3-4.4,21.5-7.3c17.6-7.1,37.6-15.2,75.8-8.2
	c14.1,2.6,32.5,7.3,50.2,11.9c21.3,5.5,41.3,10.6,56.2,12.8c28.3,4.1,83.8,7.9,138.1-13.4c33.4-13,56.6-37.4,69-72.3
	c9.9-27.9,11-57,10.8-79.1L1760.6,692z M1740.6,692.2l0.1,6.1c0.3,45.5-6.2,108.8-67.1,132.6c-50,19.5-101.6,16-127.9,12.2
	c-13.8-2-34.2-7.3-54-12.4c-18.1-4.7-36.8-9.5-51.6-12.2c-43.9-8-67.7,1.6-86.9,9.3c-6.7,2.7-12.4,5-18.4,6.4
	c-35.4,8-46.3-5.3-56.8-18.2l-0.5-0.6c-16-19.6-38.4-32.6-64.8-37.7c-19.6-3.8-41.6-3.2-60.4,1.7c-14.9,3.8-36.3,10.5-57,16.9
	c-13.3,4.1-25.9,8-35.1,10.6c-43.6,12.4-56.1,13.9-73.8,12c-33.7-3.6-48.7-18.4-61.9-31.5c-1.8-1.8-3.4-3.4-5.1-5
	c-27.9-26.7-56.4-26-77.2-25.6c-3.6,0.1-6.9,0.2-10,0.1c-40.2-1-57.2-14.2-75.2-31.3c-14.7-13.9-39.4-26.8-73.7-9
	c-11,5.7-27.4,15.1-43.2,24.2c-12.4,7.1-24.2,13.9-31.9,18c-91.1,48.7-134,74.2-179.5,101.2c-5.5,3.3-11,6.5-16.7,9.9
	c-41,24.3-83.9,54.6-121.6,81.4c-22.7,16.1-44.1,31.3-61.7,42.6c-24.8,16.1-46.2,21.1-63.5,14.9c-14.9-5.3-25-18-31.8-26.4
	c-1.9-2.4-4-5-6.2-7.7c-15.1-18.8-35.7-44.5-45.7-60.5c-6.4-10.4-8.8-19.1-7-25.9c2.2-8.6,10.8-14,18.7-18.3
	c13.6-7.5,36.3-17,58.3-26.2c15.9-6.6,30.9-12.9,42.2-18.3C381.8,735.3,476.9,657.6,560.8,589c6.7-5.5,13.3-10.8,19.8-16.2
	c34.7-28.2,87.5-72.7,138.5-115.7c35.8-30.2,69.6-58.7,93.8-78.7c96.5-79.8,166.8-104.7,236.2-125c19.4-5.7,44.6-13.2,71.4-21.3
	c67.3-20.2,151.2-45.4,199.6-57.5c25.3-6.3,37.7-17.8,39.1-36.1c0.2-3,0.8-7.9,1.3-12.5c0.5-4.1,0.9-7.9,1.2-10.6
	c3.4-35.7,21.1-36.5,34-37c14.3-0.6,34-2.1,55-3.7c22.3-1.7,45.3-3.4,62.4-4.1c1.1,0,2.1-0.1,3.1-0.1c16.1,0,27.1,5.6,35.3,9.8
	c32.9,16.8,88.7,51.6,117.8,70.9c63.8,42.4,69.2,80.8,69.3,113.4c0,33.5,0.6,78.9,1.1,127c1,87.2,2.1,186.1,0.8,246.7
	C1740.3,651.6,1740.5,676,1740.6,692.2z"/>
</svg>
