<svg id="Road_Course_-_Config" data-name="Road Course - Config" xmlns="http://www.w3.org/2000/svg" viewBox="0 0 1920 1080"><defs><style>.cls-1{fill:#fff;}</style></defs><title>active</title><path class="cls-1" d="M1606.05,199.11c-2.32-27.86-9.23-60.42-62.16-94.23l-.33-.21c-2.22-1.29-4.5-2.64-6.85-4-38.47-22.62-96.6-56.81-148.81-52.07-37.31,3.4-65.67,22.72-90.69,39.77-11.59,7.89-22.54,15.36-32.84,20l-.15.07c-31.15,14.76-180.89,35.53-220.5,32.91h-.27c-32.88-1.27-70.6-21-93.14-32.88-7.71-4-13.81-7.24-18.25-9-.84-.33-1.78-.72-2.81-1.14C909.06,90,855.43,67.87,770.08,133.47l-1.22,1c-16.69,14-37.46,31.31-46,76.78l-.11.74c-.69,6.16-7.37,65.77-10.65,95.07l-.06.74c-2.22,58.63-48.31,72.12-97.8,77.95l-2.51.33c-90.38,11.74-152.39,22.71-179.34,31.71-37.87,12.65-85.73,31.94-98.7,52-4.27,6.59-8.16,16.17-12.27,26.31-4.51,11.11-9.62,23.7-14.6,30.06-5.78,7.38-14.59,13.14-23.11,18.72-10.87,7.11-22.1,14.46-28.43,25.82-21,37.73-13.44,75,23.92,117.21l.24.26c16.91,17.8,102,119.14,102.89,120.16l.3.34a414.51,414.51,0,0,0,59.15,51.28A242.24,242.24,0,0,0,541.51,901c25.81,4.34,65,9.51,105.18,9.51h708.24a185.88,185.88,0,0,0,71.81-14.18c29.08-12.11,55.15-28.12,65.91-37.7,72.48-63.06,72.77-111.54,72.13-120.38,1.86-25.21-14.67-54.11-29.27-79.64-6.18-10.8-12-21-14.88-28.5-3-7.85-1.79-22.9-.27-29.12l.07-.35c1.08-5.25,7.13-20.61,18.74-39.48S1559,518,1564.45,502c.64-1.89,1.23-3.65,1.78-5.25l.83-2.37c4.32-12.49,9.22-26.63,8.71-45.63.69-26.79-9.57-49.92-29.69-66.9l-.53-.41c-48.55-35.66-105.46-53.74-169.16-53.74H1177.91a659.38,659.38,0,0,0-138.36,14.7L836,386.11l-.63.13-.58.21c-6.46,2.25-25.5,6.44-35.92-1.07-5.92-4.27-8.85-12.48-8.69-24.41.42-33.22,2.11-58.23,3.46-73.37a59.36,59.36,0,0,1,17.48-37.24c17.24-16.84,43.77-27.87,76.74-31.9,80-8.39,311.35,14.72,332.5,18.5,25.44,4.54,62.47,14.62,98.28,24.36,46.37,12.61,94.33,25.66,121.46,28,9.8.84,97,7,140.9-32.66,16.28-14.69,24.73-33.71,25.12-56.51v-.5Zm-38.49,42.67c-30.56,27.6-93.47,30.32-125.81,27.57-25.32-2.14-72.39-15-117.9-27.33-36.23-9.86-73.69-20.05-100-24.75-22.19-4-254.7-27.49-338.2-18.69l-.16,0c-37.93,4.62-67.66,17.22-88.37,37.45a79.4,79.4,0,0,0-23.43,49.78c-1.38,15.48-3.11,41-3.54,74.88-.24,18.88,5.5,32.66,17.07,41,19.74,14.15,48,5.73,53.53,3.87l203-43.63a639.6,639.6,0,0,1,134.16-14.25h198.48c59.23,0,112.06,16.7,157,49.65,15.42,13.13,22.93,30.32,22.33,51.11v.6c.46,15.47-3.46,26.79-7.61,38.77l-.84,2.41c-.56,1.63-1.16,3.42-1.81,5.35-5.14,15.18-12.9,38.12-23.37,55.14-10.58,17.19-19.1,35.53-21.26,45.75-1.49,6.27-4.37,26.57,1.06,40.81,3.42,9,9.63,19.81,16.21,31.3,12.66,22.13,28.41,49.68,26.64,68.82l-.17,1,.21,1.23c.09,1,.81,11.49-6.18,28.65-6.86,16.84-22.7,43.58-59.17,75.3l-.1.09c-9.25,8.25-33.54,23-60.33,34.19a165.79,165.79,0,0,1-64.12,12.65H646.69c-38.79,0-76.8-5-101.86-9.23a222.08,222.08,0,0,1-91.42-37.64,404.1,404.1,0,0,1-55.89-48.38c-5.33-6.35-86-102.39-103.41-120.74-40.09-45.38-32.46-74.12-21.32-94.1,3.93-7,12.66-12.76,21.91-18.81,9.42-6.17,20.09-13.15,27.91-23.13,6.71-8.57,12.13-21.94,17.38-34.87,3.58-8.83,7.29-18,10.53-23,5.75-8.88,32-25.07,88.25-43.88,18-6,63-16.22,175.58-30.85l2.34-.3c22.84-2.7,49.16-7.18,71.19-19.95,27.9-16.16,42.76-42,44.17-76.73,3.24-28.91,9.7-86.51,10.57-94.36,7.22-38.14,23.41-51.67,39.07-64.76l.74-.62c76.1-58.41,120.31-40.18,139.19-32.38,1.15.47,2.19.9,3.13,1.27,3.43,1.34,9.38,4.47,16.27,8.08,24,12.6,64.16,33.66,101.52,35.15q3.57.23,8.27.22c49.6,0,187.17-18.6,221.9-35,11.84-5.38,23.46-13.29,35.76-21.68,23-15.68,49.09-33.45,81.24-36.37,45.79-4.15,100.6,28.07,136.87,49.39l6.71,3.94c44.81,28.68,50.66,53.48,52.79,78.43C1585.67,217.31,1579.61,230.9,1567.56,241.78Z"/></svg>