<?xml version="1.0" encoding="utf-8"?>
<!-- Generator: Adobe Illustrator 24.0.1, SVG Export Plug-In . SVG Version: 6.00 Build 0)  -->
<svg version="1.1" id="Indianapolis_Oval_-_Config" xmlns="http://www.w3.org/2000/svg" xmlns:xlink="http://www.w3.org/1999/xlink"
	 x="0px" y="0px" viewBox="0 0 1920 1080" style="enable-background:new 0 0 1920 1080;" xml:space="preserve">
<style type="text/css">
	.st0{fill:#FFFFFF;}
</style>
<title>active</title>
<path class="st0" d="M1803.5,392.9c-12.4-101.3-50.2-176-112.3-221.8c-44.1-32.6-99.3-50-164-51.8c-117.5-3.4-343.6-3.2-478.7-3
	c-13.7,0-26.6,0-38.3,0c-129.1,0.1-392.1-0.3-525-0.8c-145.9-0.6-219.4,21.8-291.3,88.8c-56.5,52.6-81.9,140.7-81.6,200.2
	c0.1,22.6-0.3,51.4-0.8,81.9c-1,63.2-2.1,134.8,1.3,180c5.4,71.2,37,135.8,88.9,181.8c0.5,0.4,0.9,0.8,1.2,1.1
	c55,49.5,147.1,77.3,205.9,78.5c317.3,6.1,556.6,9.7,790.9,9.7c101.4,0,201.9-0.7,307.2-2.1c61.8-0.8,115.6-14.7,159.8-41.1
	c36.4-21.8,66.5-52.1,89.5-90.3c40.5-67.4,46.8-138.5,47.8-158.7C1806.5,591.3,1811.6,458.8,1803.5,392.9z M1784,644.3
	c-0.9,19-6.8,86-44.9,149.4c-47.7,79.3-125.9,120.2-232.4,121.7c-348.7,4.7-643.1,1.2-1097.5-7.6c-55.2-1-141.6-27.1-192.9-73.3
	c-0.4-0.3-0.8-0.7-1.4-1.2c-48-42.5-77.2-102.3-82.2-168.3c-3.4-44.3-2.2-115.4-1.3-178.2c0.5-30.6,0.9-59.6,0.8-82.3
	c-0.3-57.1,25.5-139.1,75.3-185.4c66.7-62.2,135.8-83.5,272.3-83.5c1.7,0,3.5,0,5.3,0h0c132.9,0.5,395.9,0.8,525,0.8
	c11.8,0,24.6,0,38.3,0c135-0.1,360.9-0.3,478.1,3c103.3,2.9,231.7,49.7,257,256.1C1791.8,461.6,1785.9,602.6,1784,644.3z"/>
</svg>
