<?xml version="1.0" encoding="utf-8"?>
<!-- Generator: Adobe Illustrator 24.0.1, SVG Export Plug-In . SVG Version: 6.00 Build 0)  -->
<svg version="1.1" id="Indianapolis_Road_-_Config" xmlns="http://www.w3.org/2000/svg" xmlns:xlink="http://www.w3.org/1999/xlink"
	 x="0px" y="0px" viewBox="0 0 1920 1080" style="enable-background:new 0 0 1920 1080;" xml:space="preserve">
<style type="text/css">
	.st0{fill:#FFFFFF;}
</style>
<title>active</title>
<path class="st0" d="M1802.5,393.1c-3.3-35.7-11.3-56.2-17.9-70.2c-26.3-55.6-66.1-89.2-137.4-115.8c-36.1-13.5-107-22.9-145.8-25.9
	c-33.9-2.7-66.2-1-85.2,1.4c-52.4,6.7-47.8,43.8-45.9,59.6c0.1,1,0.2,2,0.4,3l0.5,4.5c3.5,31.4,7.7,70.6,5.7,97.2
	c-0.6,7.9-3.8,9.6-17.2,9.4c-1.2,0-2.3,0-3.2,0c-23.8,0.4-42.1,7.1-54.4,20c-14.6,15.3-17.1,35.6-16.7,49.9c0.3,8.6-0.2,23.1-0.6,36
	c-0.2,6.4-0.4,12.4-0.4,16.9c-0.9,56.1-36.6,62.7-51.9,62.9c-146.6,2.1-375.8,0.7-541.5-1.2c-28.3-0.3-50.7,1.3-67.9,10.5
	c-19,10.1-30.5,22.4-34.2,36.4c-3.1,11.7-0.6,24,7.4,36.5c9.1,14.3,25,43.6,29.8,58.9c6.6,21,1.6,36.8-3.7,46.3
	c-7,12.5-17.6,20.2-25.3,23.2c-38.8,15.3-58.2-6.6-66.3-21c-12.7-22.3-38.1-58.2-58.5-87c-6.6-9.3-12.8-18-17.5-24.9
	c-23.1-33.3-48.4-38.1-74.5-40.3c-12.2-1-54.5-4.1-89.3-0.8c-33.7,3.2-42.4,6.2-55.7,10.7l-0.4,0.1c-17.5,5.9-30.4,16.4-37.2,30.4
	c-9.9,20-4.5,39.6-2.6,45.2c3.1,9,8.9,22.4,14.6,35.3c4,9.1,7.8,17.7,10.1,23.7c13.9,36,32.8,49.3,46.6,59l1.5,1.1
	c19.6,13.9,48.7,21.3,89,22.7c6.1,0.2,15.5-0.5,23.9-1c4.6-0.3,8.9-0.6,11.9-0.7c19.7-0.7,33.7,3.6,41.6,12.7
	c10.6,12.3,8.9,31.9,6.9,42.6c-5.4,29.4,5,46.3,11.7,53.7c11.3,12.5,34.6,13.4,39.3,13.4c184.6,0.8,304,2,409.4,3.1
	c113,1.2,209.8,2.2,352.9,2.2c67.4,0,145.1-0.2,239.6-0.8h0c55.7-0.3,105.5-11.3,147.9-32.6c36.9-18.6,68.6-45,94.1-78.7
	c54.8-72.3,65.2-155.3,67.1-187.7C1806.6,573.1,1808.5,456.2,1802.5,393.1z M1783,632.1c-1.8,30.5-11.7,108.8-63.1,176.8
	c-51.5,68-127.6,102.8-226.2,103.4h0c-294.9,1.7-426.1,0.3-592.2-1.4c-105.4-1.1-224.9-2.4-409.4-3.1c-7.5-0.1-20.6-2.3-24.6-6.8
	c-4.2-4.7-10.8-15.8-6.9-36.7c3.2-17.3,3.8-41.6-11.5-59.3c-11.3-13.1-29-19.7-52.8-19.7c-1.5,0-3,0-4.6,0.1
	c-3.4,0.1-7.9,0.4-12.7,0.8c-7.8,0.6-16.7,1.2-21.7,1c-36.2-1.3-61.8-7.5-78.1-19.1l-1.6-1.1c-13-9.1-27.7-19.5-39.4-49.9
	c-2.5-6.4-6.3-15.2-10.4-24.6c-5.5-12.5-11.2-25.5-14-33.7c-2.6-7.6-3.5-19.4,1.6-29.9c4.5-9.2,13.2-16.1,25.7-20.3l0.4-0.1
	c12.3-4.2,19.8-6.7,51.1-9.7c26.4-2.5,61.6-1.3,85.7,0.8c23.5,2,41.5,5.4,59.7,31.7c4.8,7,11.1,15.8,17.7,25.1
	c20.2,28.4,45.2,63.8,57.4,85.3c7.1,12.6,34.7,51.9,91,29.7c14-5.5,27.3-17.5,35.4-32.1c7.2-12.9,14-34.2,5.4-62
	c-5.4-17.2-22-48.1-32-63.7c-4.9-7.7-6.5-14.5-4.9-20.7c2.2-8.4,10.4-16.4,24.3-23.8c11.7-6.2,28-8.5,58.3-8.2
	c165.8,2,395.3,3.3,542,1.2c34-0.5,70.7-22.4,71.6-82.6c0.1-4.4,0.2-10.3,0.4-16.6c0.4-13.1,0.8-28,0.6-37.2
	c-0.3-10.5,1.4-25.2,11.2-35.5c8.4-8.8,22-13.5,40.2-13.8c0.8,0,1.7,0,2.7,0c5.3,0.1,13.4,0.2,20.8-3c6.9-2.9,15.4-9.7,16.6-25
	c2.2-28.5-2.2-68.7-5.8-100.9l-0.5-4.5c-0.1-1-0.2-2.1-0.4-3.2c-2.1-17.1-4.1-33.2,28.6-37.3c18-2.3,48.7-3.8,81.1-1.3
	c36.3,2.9,106.5,12.1,140.4,24.7c66.8,24.9,102.2,54.5,126.3,105.6c6.3,13.2,13.1,31.1,16.1,63.5C1787.9,451,1787,564.9,1783,632.1z
	"/>
</svg>
