<?xml version="1.0" encoding="utf-8"?>
<!-- Generator: Adobe Illustrator 24.0.1, SVG Export Plug-In . SVG Version: 6.00 Build 0)  -->
<svg version="1.1" id="Indianapolis_Bike_-_Config" xmlns="http://www.w3.org/2000/svg" xmlns:xlink="http://www.w3.org/1999/xlink"
	 x="0px" y="0px" viewBox="0 0 1920 1080" style="enable-background:new 0 0 1920 1080;" xml:space="preserve">
<style type="text/css">
	.st0{fill:#FFFFFF;}
</style>
<title>active</title>
<path class="st0" d="M1802.5,393.1c-3.3-35.7-11.3-56.2-17.9-70.2c-26.3-55.6-66.1-89.2-137.4-115.8c-36.1-13.5-107-22.9-145.8-25.9
	c-33.9-2.7-66.2-1-85.2,1.4c-52.4,6.7-47.8,43.8-45.9,59.6c0.1,1,0.2,2,0.4,3l0.5,4.5c3.5,31.4,7.7,70.6,5.7,97.2
	c-0.6,7.9-3.8,9.6-17.2,9.4c-1.2,0-2.3,0-3.2,0c-23.8,0.4-42.1,7.1-54.4,20c-14.6,15.3-17.1,35.6-16.7,49.9c0.3,8.6-0.2,23.1-0.6,36
	c-0.2,6.4-0.4,12.4-0.4,16.9c-0.9,56.1-36.6,62.7-51.9,62.9c-146.6,2.1-375.8,0.7-541.5-1.2c-28.3-0.3-50.7,1.3-67.9,10.5
	c-19,10.1-30.5,22.4-34.2,36.4c-3.1,11.7-0.6,24,7.4,36.5c9.1,14.3,25,43.6,29.8,58.9c6.6,21,1.6,36.8-3.7,46.3
	c-7,12.5-17.6,20.2-25.3,23.2c-38.8,15.3-58.2-6.6-66.3-21c-12.7-22.3-38.1-58.2-58.5-87c-6.6-9.3-12.8-18-17.5-24.9
	c-23.1-33.3-48.4-38.1-74.5-40.3c-12.2-1-54.5-4.1-89.3-0.8c-33.7,3.2-42.4,6.2-55.7,10.7l-0.4,0.1c-17.5,5.9-30.4,16.4-37.2,30.4
	c-9.9,20-4.5,39.6-2.6,45.2c3.1,9,8.9,22.4,14.6,35.3c4,9.1,7.8,17.7,10.1,23.7c13.9,36,32.8,49.3,46.6,59l1.5,1.1
	c19.6,13.9,48.7,21.3,89,22.7c6.1,0.2,15.5-0.5,23.9-1c4.6-0.3,8.9-0.6,11.9-0.7c19.7-0.7,33.7,3.6,41.6,12.7
	c10.6,12.3,8.9,31.9,6.9,42.6c-5.4,29.4,5,46.3,11.7,53.7c11.3,12.5,34.6,13.4,39.2,13.4c300.9,4.1,429.5,4.6,592.3,5.2
	c104.4,0.4,222.6,0.9,409.5,2.3c0.1,0,0.2,0,0.3,0c5.7,0,23.2-1.5,35.7-5.2c26.7-8,50.4-20.4,70.5-36.8c18.3-14.9,33.2-32.7,44.3-53
	c20.3-37,26.2-79.7,15.8-114.3c-5.5-18.3-20.5-53.7-29-71.9c-6.4-13.7-8.1-24.9-4.9-31.7c2.2-4.5,6.3-6.4,9.5-7.2
	c7.3-1.8,16.9-4.8,27-8c15.1-4.8,32.3-10.2,43.2-11.9c2.7-0.4,7.5-0.8,9.8,1.2c3.4,3,3.2,12.1,3.1,16.4l0,0.7
	c-0.3,13.8,3.7,23.9,12,30.2c7.3,5.5,16,6.3,20.2,6.7c1.2,0.1,2.4,0.2,3.6,0.2c22.9,0,34.5-20.6,36.8-35.2c1.4-9.1,2.8-27,3.4-36.2
	c1-17.4,2.5-35.1,4-52.3C1802.7,482.7,1806.7,436.9,1802.5,393.1z M1779,525.3c-1.5,17.3-3,35.1-4,52.8c-0.6,9.4-1.9,26.3-3.2,34.2
	c0,0.2-3.5,19.7-18.8,18.3c-7.7-0.7-14.4-1.3-14-16.5l0-0.6c0.2-7.4,0.6-22.7-9.8-31.9c-6.4-5.6-15.1-7.6-26-6
	c-12.5,1.9-29.7,7.3-46.3,12.6c-9.8,3.1-19.1,6-25.7,7.7c-10.3,2.5-18.4,8.9-22.7,17.9c-6,12.5-4.4,28.9,4.8,48.7
	c8.5,18.4,23,52.6,27.9,69.2c16.6,55.3-14.8,148.3-117.2,179.1c-9.7,2.9-25.1,4.4-29.8,4.4c-0.1,0-0.1,0-0.2,0h0
	c-186.9-1.5-305.2-1.9-409.6-2.3c-162.8-0.6-291.3-1.1-592.1-5.2c-7.5-0.1-20.6-2.3-24.6-6.8c-4.2-4.7-10.8-15.8-6.9-36.7
	c3.2-17.3,3.8-41.6-11.5-59.3c-11.3-13.1-29-19.7-52.8-19.7c-1.5,0-3,0-4.6,0.1c-3.4,0.1-7.9,0.4-12.7,0.8c-7.8,0.6-16.7,1.2-21.7,1
	c-36.2-1.3-61.8-7.5-78.1-19.1l-1.6-1.1c-13-9.1-27.7-19.5-39.4-49.9c-2.5-6.4-6.3-15.2-10.4-24.6c-5.5-12.5-11.2-25.5-14-33.7
	c-2.6-7.6-3.5-19.4,1.6-29.9c4.5-9.2,13.2-16.1,25.7-20.3l0.4-0.1c12.3-4.2,19.8-6.7,51.1-9.7c26.4-2.5,61.6-1.3,85.7,0.8
	c23.5,2,41.5,5.4,59.7,31.7c4.8,7,11.1,15.8,17.7,25.1c20.2,28.4,45.2,63.8,57.4,85.3c7.1,12.6,34.7,51.9,91,29.7
	c14-5.5,27.3-17.5,35.4-32.1c7.2-12.9,14-34.2,5.4-62c-5.4-17.2-22-48.1-32-63.7c-4.9-7.7-6.5-14.5-4.9-20.7
	c2.2-8.4,10.4-16.4,24.3-23.8c11.7-6.2,28-8.5,58.3-8.2c165.8,2,395.3,3.3,542,1.2c34-0.5,70.7-22.4,71.6-82.6
	c0.1-4.4,0.2-10.3,0.4-16.6c0.4-13.1,0.8-28,0.6-37.2c-0.3-10.5,1.4-25.2,11.2-35.5c8.4-8.8,22-13.5,40.2-13.8c0.8,0,1.7,0,2.7,0
	c5.3,0.1,13.4,0.2,20.8-3c6.9-2.9,15.4-9.7,16.6-25c2.2-28.5-2.2-68.7-5.8-100.9l-0.5-4.5c-0.1-1-0.2-2.1-0.4-3.2
	c-2.1-17.1-4.1-33.2,28.6-37.3c18-2.3,48.7-3.8,81.1-1.3c36.3,2.9,106.5,12.1,140.4,24.7c66.8,24.9,102.2,54.5,126.3,105.6
	c6.3,13.2,13.1,31.1,16.1,63.5C1786.6,437,1782.9,479.9,1779,525.3z"/>
</svg>
