<?xml version="1.0" encoding="utf-8"?>
<!-- Generator: Adobe Illustrator 24.0.1, SVG Export Plug-In . SVG Version: 6.00 Build 0)  -->
<svg version="1.1" id="Oval_-_Config" xmlns="http://www.w3.org/2000/svg" xmlns:xlink="http://www.w3.org/1999/xlink" x="0px"
	 y="0px" viewBox="0 0 1920 1080" style="enable-background:new 0 0 1920 1080;" xml:space="preserve">
<style type="text/css">
	.st0{fill:#FFFFFF;}
</style>
<title>active</title>
<path class="st0" d="M1746.8,654.9c-16.3-40.7-45.9-76.9-81.1-99.2C1475,434.8,1102.3,203.8,888.8,75.5
	c-70.7-42.4-137.3-37.8-180.8-26.4c-55.9,14.6-97.6,45.9-118,70.3c-93.6,111.6-262.7,315.4-349.1,421l0,0
	c-28.1,34.3-45.7,77.3-51,124.3c-4.2,36.7-0.7,75.1,9.6,105.3c23.7,69.5,70.2,111.6,105,134.7c40.8,27,89.3,43.2,129.6,43.3
	c606.2,1.6,757.6,2.5,917.8,3.4c51.1,0.3,103.9,0.6,172.6,0.9c0.6,0,1.2,0,1.8,0c55.5,0,104-13.4,144-40c33.3-22,59-52.7,72.4-86.2
	C1766.5,766.8,1767.9,707.6,1746.8,654.9z M1724.3,818.8c-21.1,52.8-86,114.2-199.6,113.6c-68.7-0.3-121.5-0.6-172.6-0.9
	c-160.3-0.9-311.6-1.8-917.9-3.4c-66.4-0.1-177.2-51.3-215.7-164.4c-13.6-40-23.3-135.5,38-210.4h0
	c86.3-105.5,255.4-309.2,348.9-420.8c17.6-21,56.4-50.3,107.8-63.8c39.7-10.4,100.7-14.7,165.4,24.2
	c213.3,128.2,585.8,359,776.4,479.9C1704.6,604,1775.2,691.3,1724.3,818.8z"/>
</svg>
