<?xml version="1.0" encoding="utf-8"?>
<!-- Generator: Adobe Illustrator 24.0.1, SVG Export Plug-In . SVG Version: 6.00 Build 0)  -->
<svg version="1.1" id="East_-_Config" xmlns="http://www.w3.org/2000/svg" xmlns:xlink="http://www.w3.org/1999/xlink" x="0px"
	 y="0px" viewBox="0 0 1920 1080" style="enable-background:new 0 0 1920 1080;" xml:space="preserve">
<style type="text/css">
	.st0{fill:#FFFFFF;}
</style>
<title>active</title>
<path class="st0" d="M1323.4,487.8c9.1-13.5,26.1-38.8,35.5-50.4c9-11.1,8.2-25.4,4.6-35c-2.7-7.1-7.8-20.1-10.5-26.4
	c-7.1-16.6-14.8-22.6-21.5-27c-92.5-59.7-232.1-147.2-346.5-213.6c-27.1-15.8-50-11.9-68.1,11.5c-6.7,8.7-19.7,27.2-25.7,38
	c-2.2,4-4.7,8.1-7.1,12.1c-4.8,7.9-9.2,15.3-11.6,22c-10.4,28.5-28.1,81.6-36.9,112.3c-7.4,25.6,2.3,38.8,8.7,44.4
	c6.8,5.9,18.3,14.6,28.5,22.3c4.2,3.1,8.1,6.1,11,8.4c20.1,15.4,38.1,15.2,48.9,15.1c17.3-0.2,41.5-1.5,65-2.8
	c24.4-1.3,49.6-2.7,66.2-2.8c0.3,0,0.5,0,0.8,0c26.3,0,38.6,5.5,50.5,10.9c2.6,1.2,5.2,2.4,8,3.5c20.1,8.1,52.4,22.5,68.4,31
	c9.7,5.1,9.2,7.7,8,13.3c-0.2,0.9-0.4,1.7-0.5,2.5c-0.5,2.7-1.6,4.6-3.7,6c-3.6,2.4-8.9,2.8-11.4,2.3c-18.7-3.8-45.2-8.7-73.3-13.8
	c-30.3-5.5-61.7-11.3-83.7-15.8c-22.7-4.7-34,2-42.1,9.1c-7.6,6.7-19.3,18.1-29.7,28.2c-6.1,6-11.9,11.6-16.1,15.6
	c-4.1,3.8-9.8,10.3-16.9,19.1c-2.8,3.4-7.5,12.1-9,14.8c-7.7,13.7-4.4,23.6-2.8,28.4c4.8,14.4,7.8,18.6,8.8,19.9
	c11.1,15.2,27.7,15.5,36.7,15.6l0.8,0c13,0.3,28.6,0.4,45.1,0.6c40.6,0.5,86.6,1,117.1,2.9c18.5,1.1,24.4,4.7,31.9,9.2
	c12.7,7.7,37.9,22.2,52.5,30.1c5.8,3.2,12.2,4.8,18.6,4.8c7.6,0,15.2-2.3,21.8-6.9l0.2-0.1c17.5-12.7,51.3-38.4,66.6-51.5
	c14.3-12.2,18.4-30.1,16.2-41.5c-1.8-9.3-5.6-27.1-8.2-36.1c-4.2-14.7-0.7-21.5,3.1-27.2L1323.4,487.8z M1306.9,476.6l-1.9,2.8
	c-6,8.9-12,21.9-5.8,43.9c2.3,8,6,25.1,7.8,34.4c1,5.1-1.3,15.5-9.5,22.5c-14.9,12.7-48,37.9-65.3,50.4c-5.8,4-13.2,4.3-19.3,0.9
	l-0.1-0.1c-14.4-7.8-39.2-22.1-51.7-29.7c-8.3-5-17.6-10.7-41-12.1c-31-1.9-77.3-2.5-118.1-2.9c-16.5-0.2-32-0.4-45-0.6l-0.9,0
	c-8.9-0.2-16.1-0.8-20.9-7.4c-0.8-1.1-3-5.4-6-14.4c-1.1-3.4-2.1-6.4,1.3-12.4l0.1-0.2c2.5-4.6,5.9-10.4,7-11.8
	c8.2-10.1,12.7-14.9,15.1-17.1c4.3-4.1,10.2-9.8,16.4-15.8c10.2-9.9,21.8-21.2,29-27.6c2.8-2.5,6.4-5.7,14.9-5.7c2.8,0,6,0.3,10,1.2
	c22.3,4.6,53.7,10.4,84.2,15.9c28,5.1,54.4,9.9,72.9,13.7c6.7,1.4,17.7,0.8,26.7-5.3c6.5-4.5,10.7-11,12.2-19.1
	c0.1-0.6,0.2-1.3,0.4-1.9c1.5-7.4,4.8-22.9-18.3-35c-16.6-8.7-49.7-23.5-70.2-31.8c-2.4-1-4.8-2-7.3-3.2
	c-12.6-5.7-28.2-12.7-58.8-12.7c-0.3,0-0.6,0-0.9,0c-17.1,0.1-42.6,1.5-67.2,2.8c-23.2,1.3-47.2,2.6-64.1,2.8
	c-9.8,0.1-21.9,0.3-36.4-10.9c-3-2.3-7-5.3-11.2-8.5c-9.4-7.1-21.2-15.9-27.4-21.4c-4.9-4.2-5.8-12.7-2.6-23.7
	c8.5-29.4,26.3-82.9,36.5-111.1c1.7-4.8,5.7-11.4,10-18.5c2.5-4.1,5-8.4,7.4-12.7c5.2-9.5,17.7-27.3,24-35.5
	c8-10.3,18.5-20.2,42.2-6.4l0,0c114.1,66.2,253.4,153.5,345.7,213.1c4.1,2.7,8.8,5.7,14,18c2.6,6.1,7.6,18.7,10.2,25.7
	c1.3,3.4,2.5,10.5-1.5,15.4C1333.5,437.2,1316.8,461.9,1306.9,476.6z"/>
</svg>
