<?xml version="1.0" encoding="utf-8"?>
<!-- Generator: Adobe Illustrator 24.0.1, SVG Export Plug-In . SVG Version: 6.00 Build 0)  -->
<svg version="1.1" id="South_-_Config" xmlns="http://www.w3.org/2000/svg" xmlns:xlink="http://www.w3.org/1999/xlink" x="0px"
	 y="0px" viewBox="0 0 1920 1080" style="enable-background:new 0 0 1920 1080;" xml:space="preserve">
<style type="text/css">
	.st0{fill:#FFFFFF;}
</style>
<title>active</title>
<path class="st0" d="M1746.7,654.9c-16.3-40.7-45.9-76.8-81.2-99.2c-0.8-0.5-77-48-101.7-64.4c-16.3-10.8-26.6-8.4-35-5.4
	c-0.8,0.3-1.5,0.6-2.1,0.7c-3,0.9-7.3,2.5-11.5,4c-3.2,1.1-6.5,2.3-8.6,3c-11,3.5-23,9.6-35.5,29.7c-0.8,1.2-1.5,2.5-2.4,3.9
	c-5.1,8.4-11.5,18.9-22.1,27.4c-2,1.6-4.7,3.8-7.5,6.2c-6.1,5-13.6,11.2-18,14.5c-4.6,3.5-7.5,9.4-8.3,16.5
	c-1,9.2,1.8,18.5,7.6,25.4c4.7,5.6,11.7,12.8,19,20.4c7,7.2,14.2,14.6,18.6,20c1.7,2.1,3.9,4.3,6.5,6.8c4,3.9,8.5,8.4,11.3,12.7
	c2.4,3.6,2.5,5.3,2.4,5.6c-1.4,3.3-9.5,3.6-21.3,0.7l-1.5-0.4c-12.9-3.2-36.9-9-48.8-12.4c-15.4-4.4-36.5-5.4-63.2,25.8
	c-18.7,21.9-41.6,43.1-81.6,50c-10.7,1.8-35.7,6-44.1,39.9c-8,32.3,4.9,71.5,41.8,127c19.3,29.1,46.5,35.2,86.8,36
	c37.8,0.7,54.8,0.9,83.1,1.1c21.5,0.2,48.3,0.5,94.8,1.1c1.5,0,2.9,0,4.3,0c54.5,0,102.1-13.2,141.6-39.1
	c33.3-21.9,59-52.5,72.4-86.1C1766.5,766.8,1767.9,707.6,1746.7,654.9z M1724.2,818.8c-20.9,52.2-84.5,112.6-195.6,112.6
	c-1.3,0-2.6,0-3.9,0c-46.6-0.6-73.4-0.8-94.9-1.1c-28.2-0.3-45.2-0.4-82.9-1.1c-36-0.7-55.8-4.9-70.5-27.1
	c-33.1-49.8-45.5-85.1-39.1-111.2c4.8-19.6,16-23,28-25c52.7-9,80.2-41.2,93.5-56.7c21.8-25.5,34.8-21.8,42.6-19.6
	c12.3,3.5,36.5,9.4,49.5,12.6l1.5,0.4c29.6,7.2,40.5-2.9,44.5-12.6c6.3-15.6-8.4-30.2-18.2-40c-2.1-2.1-4.1-4.1-5.3-5.5
	c-5-5.9-12.4-13.6-19.6-21c-6.8-7-13.8-14.2-18.1-19.3c-4.2-4.9-3.3-11.7-2.2-13.3c4.7-3.6,11.9-9.5,18.3-14.8
	c2.8-2.3,5.4-4.5,7.4-6.1c13.3-10.8,21-23.4,26.6-32.6c0.8-1.3,1.5-2.5,2.3-3.7c9.6-15.4,17.1-18.9,24.6-21.3c2.4-0.8,5.7-2,9.2-3.2
	c4-1.4,8-2.9,10.6-3.7c1.2-0.4,2.2-0.7,3.2-1.1c4.7-1.7,7.8-2.9,17,3.3c25,16.5,101.4,64.3,102.1,64.7
	C1704.6,604.1,1775.1,691.4,1724.2,818.8z"/>
</svg>
