<?xml version="1.0" encoding="utf-8"?>
<!-- Generator: Adobe Illustrator 24.0.1, SVG Export Plug-In . SVG Version: 6.00 Build 0)  -->
<svg version="1.1" id="North_-_Config" xmlns="http://www.w3.org/2000/svg" xmlns:xlink="http://www.w3.org/1999/xlink" x="0px"
	 y="0px" viewBox="0 0 1920 1080" style="enable-background:new 0 0 1920 1080;" xml:space="preserve">
<style type="text/css">
	.st0{fill:#FFFFFF;}
</style>
<title>active</title>
<path class="st0" d="M604.1,423.1c21.1-25,41-48.6,55.3-66c15.5-18.9,22-49.9-6.2-80.3c-8.7-9.4-26.9-19-47.7-19.2
	c-26.4-0.2-73.2,7.4-95.3,12.7l-0.1,0c-12.1,2.9-32.3,7.9-47.3,16.6c-12,6.9-29.6,25.2-43.7,40.4l0,0
	c-48.5,52.3-140.1,161.1-183.6,216.3c-46,58.4-75.7,168-7.9,285c22.7,39.1,59.2,70.6,105.5,91c38.7,17.1,83.7,25.8,131.9,25.8
	c15.5,0,31.3-0.9,47.3-2.7l0.9-0.1c15.4-1.7,36.6-5.5,43.6-19.3c2.4-4.7,4-12.4-1.9-22.2c-10.9-18.4-23.2-51.1-24.8-74.1
	c-0.1-1.6-0.2-3.2-0.4-4.7c-1.4-17-2.7-33.1,12-57.5c6.7-11.1,19.1-22,33.1-29.1c11.8-6,33.5-19.3,44.4-26.3
	c27.9-17.8,39-42.8,30.3-68.5c-4.8-14.1-16.5-32.6-45.1-40.2c-10-2.7-29.5-5.9-39.8-6c-3.2,0-8.1-0.2-13.3-0.4
	c-8.3-0.3-17.6-0.7-23.4-0.6c-15.3,0.3-26.7-2.4-32.4-16.1c-3.1-7.4-4.8-16.8,6.2-30.9C525.9,515.9,567.4,466.6,604.1,423.1z
	 M477.1,585.3c12.1,29.1,41.5,28.6,51.2,28.4c5.2-0.1,14.3,0.3,22.3,0.6c5.3,0.2,10.4,0.4,13.8,0.4c8.5,0.1,26.3,3,34.9,5.3
	c16.1,4.3,26.7,13.5,31.3,27.3c7.1,21.2-8.1,36.3-22.1,45.3c-9.9,6.3-31.6,19.7-42.7,25.3c-17.6,8.9-32.6,22.2-41.3,36.7
	c-17.9,30-16.2,50.9-14.8,69.4c0.1,1.5,0.2,3.1,0.4,4.6c1.9,26.9,15.7,62.8,27.6,82.9c1.1,1.8,1.2,2.8,1.2,3c0,0.1-2.8,5.7-27.8,8.4
	l-1,0.1c-15.9,1.8-31.1,2.6-45.6,2.6c-115.2,0-188.2-52.9-219.6-106.9c-62.8-108.3-35.8-209.1,6.3-262.6
	C294.6,501.2,385.7,393,433.8,341l0,0c7-7.5,28.1-30.4,39-36.7c12.5-7.2,30.9-11.7,42-14.4l0.1,0c21.3-5.1,65.2-12.2,89.4-12.2
	c0.4,0,0.7,0,1.1,0c14.1,0.1,27.4,6.5,33.2,12.8c22.9,24.7,13.2,44.4,5.4,54c-14.2,17.3-34.1,40.9-55.1,65.8
	c-36.8,43.6-78.5,93-102.8,124.2C472.8,551.3,469.9,568,477.1,585.3z"/>
</svg>
