<?xml version="1.0" encoding="utf-8"?>
<!-- Generator: Adobe Illustrator 24.0.1, SVG Export Plug-In . SVG Version: 6.00 Build 0)  -->
<svg version="1.1" id="Oval__Config" xmlns="http://www.w3.org/2000/svg" xmlns:xlink="http://www.w3.org/1999/xlink" x="0px"
	 y="0px" viewBox="0 0 1920 1080" style="enable-background:new 0 0 1920 1080;" xml:space="preserve">
<style type="text/css">
	.st0{fill:#FFFFFF;}
</style>
<title>active</title>
<path class="st0" d="M1639.9,382.5c-20.9-45.6-50.6-86.8-88.4-122.4c-32.8-30.9-71.4-57-111.5-75.4c-37.3-17.1-74-26.9-106.3-28.3
	c-19.2-0.9-39.9-1.8-61.8-2.9c-170.5-8-428.3-20-625.8-9.9c-52.9,2.7-101.6,15.3-144.9,37.3c-39,19.9-73.5,47.5-102.7,82
	c-35.7,42.2-63.1,94.7-79.4,152c-14.3,50.5-19.4,102.8-14.2,147.4l0,0c7,60.8,24.2,116.1,51.2,164.3c23.9,42.8,55.3,80,93.4,110.6
	c33.3,26.8,70.9,47.9,111.6,62.8c35.7,13.1,72.6,20.7,106.8,22.2c97.3,4.2,239.4,6.9,375.6,6.9c88.9,0,175.3-1.2,245.2-3.9
	c78.4-3.1,146.7-20.7,203.3-52.3c47.6-26.6,87.1-63.3,117.3-109c23.7-35.8,41.4-76.7,52.8-121.4c10.6-42,12.5-75.4,12.7-91.5
	C1675.4,491.1,1663.7,434.4,1639.9,382.5z M1644.8,550.6c-0.2,17.9-4.1,111.3-60.5,196.7c-61.4,92.8-161.2,142.6-296.8,147.9
	c-176.1,7-458.1,3.9-618.3-3c-102.9-4.4-305.2-79.7-334.5-333.4l0,0c-8.8-76.3,14.6-191.4,86.8-276.6c57-67.4,133.2-104,226.2-108.7
	c196.1-10,452.9,2,622.9,9.9c22,1,42.7,2,61.9,2.9C1446,191.4,1647.4,317.5,1644.8,550.6z"/>
</svg>
