<?xml version="1.0" encoding="utf-8"?>
<!-- Generator: Adobe Illustrator 24.0.1, SVG Export Plug-In . SVG Version: 6.00 Build 0)  -->
<svg version="1.1" id="International_-_Config" xmlns="http://www.w3.org/2000/svg" xmlns:xlink="http://www.w3.org/1999/xlink"
	 x="0px" y="0px" viewBox="0 0 1920 1080" style="enable-background:new 0 0 1920 1080;" xml:space="preserve">
<style type="text/css">
	.st0{fill:#FFFFFF;}
</style>
<title>active</title>
<path class="st0" d="M1746.7,654.9c-16.3-40.7-45.9-76.9-81.1-99.2l-0.1,0c-0.8-0.5-77-48.1-101.7-64.4c-16-10.6-26.1-8.4-34.4-5.5
	c-0.9,0.3-1.7,0.6-2.4,0.8c-1.5,0.4-12,2.7-13.9,3.1c-9.6,1.1-16.7-0.2-21.1-4c-6.8-5.9-7.1-17.6-7.3-23.9c0-0.9,0-1.7-0.1-2.4
	c-0.8-17.3-15.5-28.4-17.1-29.6l-0.3-0.2l-578.5-354c-70.6-42.4-137-37.7-180.2-26.3c-55.2,14.6-97,45.8-117.6,70.1
	c-7.7,9.1-18.6,21.3-30,34.2c-26.5,29.8-56.5,63.6-72.2,85.8c-4.7,6.7-8.6,18.5-4.2,29.8c2.7,7.1,9.7,16.3,27.5,20.2
	c16.8,3.6,41.1-1.5,62.5-6.1c9.1-1.9,17.6-3.7,23.7-4.4c9.9-1.1,31.7,0.6,43.8,15c9.5,11.3,10.9,28.5,4.1,51
	c-6.3,21.2-76.6,97.7-118.7,143.5c-20.3,22.1-36.3,39.5-43.2,48.2c-8.5,10.8-17.8,33.5-9.1,52c7.5,15.8,25.3,24.1,52.9,24.6
	c4,0.1,8.5,0,13.3-0.1c29.5-0.5,74.2-1.3,86.6,30.5c4,10.2,4.7,22.7-16.7,45.1c-6.3,6.6-21.1,14.1-34.1,20.7
	c-12.1,6.2-23.5,12-31,18.1c-18.3,14.9-32.8,42.9-37.8,73c-5.8,34.9,1.3,68.7,19.9,95.2c17.3,24.5,53.2,53.1,73.6,53.2
	c408.8,2.1,557.3,2.3,676.7,2.6c73.9,0.1,137.6,0.2,245.7,0.8c0.6,0,1.2,0,1.8,0c55.6,0,104-13.4,144-40c33.3-22,59-52.7,72.4-86.2
	C1766.5,766.8,1767.9,707.6,1746.7,654.9z M1724.2,818.8c-21,52.5-85.4,113.6-197.9,113.6c-0.6,0-1.1,0-1.7,0
	c-108.1-0.5-171.9-0.6-245.8-0.8c-119.3-0.2-267.8-0.5-676.6-2.6c-10-0.1-40.3-20.6-57.4-44.8c-15.6-22.2-21.5-50.7-16.6-80.4
	c4.2-25.5,16-48.8,30.7-60.7c5.9-4.8,16.9-10.4,27.5-15.8c15.1-7.7,30.8-15.7,39.4-24.8c22.9-24.1,29.4-44.5,20.8-66.2
	c-15.4-39.4-60-43.3-92.9-43.3c-4.4,0-8.7,0.1-12.6,0.1c-4.6,0.1-9,0.2-12.6,0.1c-13.3-0.2-30.2-2.7-35.2-13.2
	c-4.5-9.6,1.3-24.2,6.7-31.1c6.4-8.1,23-26.1,42.2-47.1c63.2-68.7,116-127.6,123.1-151.3c8.8-29.3,6.1-52.7-8-69.5
	c-17.5-21-46.8-23.7-61.4-22.1c-7.1,0.8-16.1,2.7-25.6,4.7c-18.5,3.9-41.5,8.8-54.1,6.1c-5-1.1-11.3-3.3-13.1-7.9
	c-1.5-3.9,0.4-8.8,1.9-11c15.1-21.3,46-56.1,70.8-84.1c11.5-13,22.5-25.3,30.4-34.6C643.5,88.4,759,20.9,878.5,92.6l577.7,353.5
	c2.5,2,8.3,7.8,8.6,14.1c0,0.5,0,1.2,0.1,1.9c0.2,8,0.7,26.8,14.2,38.5c8.9,7.6,21.2,10.6,36.7,8.7c1.8-0.2,15.7-3.4,16.4-3.6
	c1.4-0.4,2.7-0.8,3.9-1.2c4.5-1.6,7.7-2.7,16.7,3.3c24.8,16.4,100.1,63.4,102.1,64.7C1704.6,604.1,1775.1,691.4,1724.2,818.8z"/>
</svg>
