<svg id="Oval_-_Config" data-name="Oval - Config" xmlns="http://www.w3.org/2000/svg" viewBox="0 0 1920 1080"><defs><style>.cls-1{fill:#fff;}</style></defs><path class="cls-1" d="M965.13,318.9c-126.71,0-229.8,103.08-229.8,229.79s103.09,229.8,229.8,229.8,229.8-103.09,229.8-229.8S1091.84,318.9,965.13,318.9Zm0,436.74c-114.11,0-207-92.84-207-206.95s92.84-207,207-207,206.95,92.84,206.95,207S1079.24,755.64,965.13,755.64Z"/><path class="cls-1" d="M965.13,245.58C798,245.58,662,381.55,662,548.69S798,851.81,965.13,851.81s303.12-136,303.12-303.12S1132.27,245.58,965.13,245.58Zm199.53,502.64a282.17,282.17,0,1,1,82.65-199.53A280.31,280.31,0,0,1,1164.66,748.22Z"/><path class="cls-1" d="M965.13,344.74c-112.46,0-204,91.49-204,204s91.49,203.95,204,203.95,203.95-91.49,203.95-203.95S1077.59,344.74,965.13,344.74Zm0,383c-98.7,0-179-80.3-179-179s80.29-179,179-179,179,80.29,179,179S1063.83,727.69,965.13,727.69Z"/><path class="cls-1" d="M965.13,293.51C824.42,293.51,710,408,710,548.69S824.42,803.87,965.13,803.87s255.18-114.47,255.18-255.18S1105.84,293.51,965.13,293.51ZM1129.74,713.3a232.78,232.78,0,1,1,68.19-164.61A231.28,231.28,0,0,1,1129.74,713.3Z"/><path class="cls-1" d="M965.13,269.51C811.19,269.51,686,394.75,686,548.69S811.19,827.87,965.13,827.87s279.18-125.24,279.18-279.18S1119.07,269.51,965.13,269.51Zm182.56,461.74a258.18,258.18,0,1,1,75.62-182.56A256.46,256.46,0,0,1,1147.69,731.25Z"/><path class="cls-1" d="M965.13,396.43c-84,0-152.26,68.31-152.26,152.26S881.18,701,965.13,701s152.26-68.3,152.26-152.26S1049.09,396.43,965.13,396.43Zm0,282.73c-71.94,0-130.46-58.53-130.46-130.47A130.6,130.6,0,0,1,965.13,418.23c71.94,0,130.47,58.52,130.47,130.46S1037.07,679.16,965.13,679.16Z"/><path class="cls-1" d="M965.13,448.13A100.57,100.57,0,1,0,1065.7,548.69,100.67,100.67,0,0,0,965.13,448.13Zm0,178.28a77.72,77.72,0,1,1,77.72-77.72A77.81,77.81,0,0,1,965.13,626.41Z"/><path class="cls-1" d="M965.13,474a74.72,74.72,0,1,0,74.72,74.72A74.81,74.81,0,0,0,965.13,474Zm0,129.63A54.91,54.91,0,1,1,1020,548.69,55,55,0,0,1,965.13,603.6Z"/><path class="cls-1" d="M965.13,372.7c-97,0-176,78.95-176,176s79,176,176,176,176-79,176-176S1062.18,372.7,965.13,372.7Zm0,331.25c-85.61,0-155.26-69.65-155.26-155.26s69.65-155.26,155.26-155.26,155.26,69.65,155.26,155.26S1050.74,704,965.13,704Z"/><circle class="cls-1" cx="965.13" cy="548.69" r="51.91" transform="translate(-100.25 236.42) rotate(-13.28)"/><path class="cls-1" d="M965.13,421.23A127.47,127.47,0,1,0,1092.6,548.69,127.61,127.61,0,0,0,965.13,421.23Zm0,231A103.57,103.57,0,1,1,1068.7,548.69,103.68,103.68,0,0,1,965.13,652.26Z"/><path class="cls-1" d="M965.13,219.67c-181.42,0-329,147.6-329,329s147.61,329,329,329,329-147.6,329-329S1146.56,219.67,965.13,219.67Zm216.46,545.48a306.11,306.11,0,1,1,89.66-216.46A304.11,304.11,0,0,1,1181.59,765.15Z"/><path class="cls-1" d="M965.13,116.54C726.84,116.54,533,310.4,533,548.69S726.84,980.84,965.13,980.84,1397.28,787,1397.28,548.69,1203.42,116.54,965.13,116.54Zm289.19,721.34a407.74,407.74,0,1,1,87.64-130A407.66,407.66,0,0,1,1254.32,837.88Z"/><path class="cls-1" d="M965.13,168C755.24,168,584.48,338.8,584.48,548.69S755.24,929.35,965.13,929.35s380.66-170.77,380.66-380.66S1175,168,965.13,168Zm252.64,633.29a356.24,356.24,0,1,1,76.56-113.57A356.15,356.15,0,0,1,1217.77,801.33Z"/><path class="cls-1" d="M965.13,142.72c-223.85,0-406,182.12-406,406s182.12,406,406,406,406-182.12,406-406S1189,142.72,965.13,142.72ZM1236.42,820a382.46,382.46,0,1,1,82.22-122A382.68,382.68,0,0,1,1236.42,820Z"/><path class="cls-1" d="M965.13,91.75c-252,0-456.94,205-456.94,456.94s205,456.94,456.94,456.94,456.94-205,456.94-456.94S1217.09,91.75,965.13,91.75Zm307.7,764.64a433.85,433.85,0,1,1,93.25-138.32A433.57,433.57,0,0,1,1272.83,856.39Z"/><path class="cls-1" d="M965.13,41.92c-279.88,0-506.77,226.89-506.77,506.77s226.89,506.77,506.77,506.77S1471.9,828.57,1471.9,548.69,1245,41.92,965.13,41.92Zm343.64,850.41a484.5,484.5,0,1,1,104.15-154.47A484.07,484.07,0,0,1,1308.77,892.33Z"/><path class="cls-1" d="M965.13,65.71c-266.32,0-483,216.66-483,483s216.66,483,483,483,483-216.67,483-483S1231.45,65.71,965.13,65.71Zm325.23,808.21a458.48,458.48,0,1,1,98.57-146.2A458.49,458.49,0,0,1,1290.36,873.92Z"/><path class="cls-1" d="M965.13,194.41c-195.35,0-354.28,158.93-354.28,354.28S769.78,903,965.13,903,1319.41,744,1319.41,548.69,1160.48,194.41,965.13,194.41Zm234.78,589.06a332,332,0,1,1,97.25-234.78A329.86,329.86,0,0,1,1199.91,783.47Z"/></svg>