<?xml version="1.0" encoding="utf-8"?>
<!-- Generator: Adobe Illustrator 24.0.1, SVG Export Plug-In . SVG Version: 6.00 Build 0)  -->
<svg version="1.1" id="Mosport_-_Config" xmlns="http://www.w3.org/2000/svg" xmlns:xlink="http://www.w3.org/1999/xlink" x="0px"
	 y="0px" viewBox="0 0 1920 1080" style="enable-background:new 0 0 1920 1080;" xml:space="preserve">
<style type="text/css">
	.st0{fill:#FFFFFF;}
</style>
<title>active</title>
<path class="st0" d="M1757.8,736.9c-14.8-9.9-33.1-13.6-45.2-16c-1-0.2-2-0.4-2.9-0.6c-29.1-6-72.9-18.2-95.8-28.4
	c-69.1-30.5-109.2-95.9-123.6-147c-7.7-27.4-17.6-65.1-28.1-104.9c-13.3-50.7-27.1-103.1-37.1-137c-25-84.4-53.3-126.2-97.6-144.5
	c-49.9-20.6-92.7-18.1-127.1,7.3c-27.6,20.3-43.7,50.6-54.7,74.8c-35.5,78.2-68.2,135.8-92,162.2c-43.1,47.8-88,55.9-126.3,57.6
	c-46.3,2-96-19.4-129.7-55.9c-13.7-14.8-35.3-45.1-51.1-67.2c-4.9-6.9-9.5-13.3-13.3-18.5c-17.1-23.2-31-42.4-43.3-59.2
	c-47.4-65-63.3-86.9-96.4-119.2c-32.8-32-68.7-47.6-106.6-46.4c-58.6,1.9-99.8,42.7-111,55.2c-56.6,62.8-163.9,188-216.6,252.8
	c-16.7,20.5-22.3,42.1-16.6,64.2c3.7,14.4,12.2,28.4,25.1,41.5c9.6,9.7,23.9,23.6,37.7,37.1c9.2,9,17.9,17.4,24.4,23.9
	c35.7,35.4,28.5,70.6,16.7,100.4l-1.1,2.7c-13.2,33.3-19.8,50.1-19.8,71.9c0,59.9,17,109,50.5,146.1c26.6,29.4,62.9,49.5,102.3,56.6
	c66.7,12,162.9,24.6,294.1,38.4c30.5,3.2,51,4.3,67.1,4.3c15,0,26.2-0.9,38.2-1.9c2.4-0.2,4.8-0.4,7.4-0.6
	c91.8-7.3,226-27.8,319-42.5c32.3-5.1,56.3-9.8,75.5-14.6c36.9-9.3,85.1-24.3,136.1-40.2c59.2-18.5,120.5-37.5,174.4-51.1
	c114.6-28.8,161.1-7.3,206.1,13.5c7,3.2,14.3,6.6,21.7,9.7c10.7,4.5,20.4,4.8,28.9,1c11.4-5.1,16.7-16.2,18.8-22.4
	c0.7-1.9,1.5-4.2,2.3-6.6c4.4-12.4,10.4-29.5,12.3-39.9C1784.6,769.1,1776.8,749.6,1757.8,736.9z M1760.6,789.9
	c-1.6,8.8-7.5,25.6-11.5,36.7c-0.9,2.5-1.7,4.8-2.4,6.8c-0.9,2.5-3.4,8.6-8.1,10.7c-3.2,1.4-7.6,1-13-1.2c-7.1-3-13.8-6.1-21-9.4
	c-23.6-10.9-48.1-22.2-82.2-27c-38.2-5.3-83-1.3-137.1,12.3c-54.4,13.7-116,32.8-175.5,51.4c-50.8,15.8-98.7,30.7-135.1,39.9
	c-18.6,4.7-42.1,9.2-73.8,14.3c-92.7,14.7-226.4,35.1-317.4,42.4c-2.5,0.2-5,0.4-7.4,0.6c-23.9,2-44.4,3.7-101.5-2.3
	C543.9,951,448.2,938.5,382,926.6c-65.9-11.9-136.4-66.2-136.4-183c0-18,5.8-32.6,18.4-64.5l1.1-2.7c5.6-14.1,11.9-33.1,10.9-54.5
	c-1.1-24.8-12-47.5-32.2-67.4c-6.6-6.5-15.3-15-24.5-24c-13.7-13.4-28-27.3-37.4-36.8c-26-26.4-28.4-53-7.3-79.1l0,0
	c52.5-64.6,159.5-189.4,216-252c20.4-22.6,56.5-47.3,96.8-48.6c1.2,0,2.3-0.1,3.4-0.1c31,0,60.8,13.7,88.6,40.8
	c31.9,31.1,46.4,50.9,94.2,116.6c12.3,16.9,26.3,36.1,43.4,59.3c3.7,5,8.3,11.5,13.2,18.3c17,23.8,38.2,53.4,52.7,69.1
	c36,38.9,88.5,62.4,138.5,62.4c2.3,0,4.5,0,6.7-0.1c17.6-0.8,40.9-2.8,65.7-12c27.9-10.3,52.3-27.4,74.7-52.2
	c32.2-35.7,69.6-110.7,95.3-167.3c10-21.9,24.5-49.4,48.3-67c28.5-21,64.7-22.6,107.7-4.9c38,15.7,63,53.8,86.1,131.7
	c10,33.6,23.7,85.8,37,136.4c10.5,40,20.4,77.7,28.2,105.3c15.7,55.5,59.3,126.6,134.8,159.9c25,11,70.1,23.5,99.8,29.6
	c0.9,0.2,1.9,0.4,3,0.6C1738.3,746.4,1766.8,755.2,1760.6,789.9z"/>
</svg>
