<?xml version="1.0" encoding="utf-8"?>
<!-- Generator: Adobe Illustrator 24.0.1, SVG Export Plug-In . SVG Version: 6.00 Build 0)  -->
<svg version="1.1" id="GP_-_Config" xmlns="http://www.w3.org/2000/svg" xmlns:xlink="http://www.w3.org/1999/xlink" x="0px"
	 y="0px" viewBox="0 0 1920 1080" style="enable-background:new 0 0 1920 1080;" xml:space="preserve">
<style type="text/css">
	.st0{fill:#FFFFFF;}
</style>
<title>GP-active</title>
<path class="st0" d="M419.5,372.1c6.6-47.6,16.1-68.6,28.5-85.3c37.4-50.7,88.9-65.5,153-44.1c23.4,7.8,68.6,26.3,90.4,36.4
	c30.6,14.2,84.8,44.7,128.7,69.7c20.8,11.8,33.3,25.2,37.3,39.9c3,11.2,1.2,22.8-5.6,34.6c-10,17.5-23.5,27.1-40,28.7
	c-13.1,1.3-25-2.9-33.9-6.7c-10.4-4.4-26-12-41-19.3c-12.5-6.1-24.3-11.8-32.5-15.5c-34.3-15.2-41.3-17.7-62.6-22.5
	c-13-2.9-39.7-5.5-53.4-4.2c-29.9,2.6-39.5,24.9-45,46.3c-5.7,22.3-13.2,57.9-16.7,77.1c-6.8,37.7-9,102-9.2,109.2
	c-0.8,27-0.1,62,1.8,83.3c4,46.2,10,66,14.5,74.5c11.8,22.7,27.1,35.8,45.6,38.7c21.2,3.4,43.3-7.3,55-18.6
	c15.7-15.3,37.3-42.5,58.1-68.8c17.8-22.5,34.7-43.7,47.8-57.6c47.4-50.1,64.8-66,86-84.7c37.7-33.1,113.7-91.2,167.7-132
	c16.1-12.2,36.4-28.3,57.9-45.3c62.7-49.6,140.6-111.3,191.4-138.6c38.9-20.9,75.4-26.1,108.7-15.5c22.2,7.1,42.6,21.1,62.2,42.8
	c21.6,23.9,55.2,58.8,87.8,92.5c31.2,32.4,60.7,62.9,80.6,84.8c23.3,25.6,21,54.3,17.4,69c-4.5,19.1-16.7,59.2-25.5,78.3
	c-15.2,33.1-22.2,42.7-32.7,57.2l-0.7,1c-12.6,17.3-42,43.5-59.7,59.1l-1.8,1.6c-35.7,31.8-68,53-101.5,66.7
	c-21.5,8.8-38.6,14-57.1,17.5c-23,4.3-44.8,7.8-59.7,4.3c-26.7-6.3-47.2-23.5-62.3-36c-2.4-2-4.6-3.8-6.6-5.5
	c-24.5-19.7-60.4-50-92-76.7c-15.2-12.8-29.6-24.9-40.5-34.1c-28.4-23.6-54.3-1.5-80.6,25.4c-2.8,2.9-5.4,5.6-7.9,7.9
	C941,737,875.5,799,839,833.6c-8,7.6-18,17-28.6,26.9c-36.5,34.3-86.5,81.2-113.7,109.2c-32.5,33.5-62,48.4-95.6,48.4
	c-24,0-49.9-8.8-74.8-25.6c-20.4-13.7-39.9-32.7-53.4-52c-51.3-73.6-62.8-162.9-65.3-197.9c-3-40.8-1.4-116.4-0.4-166.5
	c0.1-7.7,0.3-14.8,0.4-21.1c2-109.9,5.3-133.6,11.2-176.5L419.5,372.1z M547.8,253.2c-33.6,0-61.2,15.1-83.6,45.5
	c-8.5,11.5-18.1,27.9-24.8,76.2l-0.9,6.4c-5.9,42.2-9.1,65.4-11,174.2c-0.1,6.3-0.3,13.4-0.4,21.1c-1,49.7-2.5,124.8,0.4,164.6
	c2.4,33.3,13.3,118.4,61.8,187.9c23.2,33.3,68.1,69,111.8,69c28.2,0,52.5-12.7,81.3-42.3c27.6-28.4,77.8-75.5,114.4-109.9
	c10.6-9.9,20.6-19.3,28.6-26.9c36.5-34.6,102-96.6,132.4-125.7c2.2-2.1,4.7-4.7,7.4-7.4c11-11.3,26.1-26.7,43.8-35.2
	c22.7-10.9,44.2-8.1,63.9,8.3c11,9.2,25.4,21.3,40.6,34.2c31.6,26.6,67.3,56.8,91.7,76.4c2.2,1.8,4.5,3.7,6.9,5.7
	c13.5,11.3,31.9,26.7,54,31.9c11,2.6,31.5-0.8,51.4-4.5c17.3-3.2,32.7-7.9,53.2-16.3c19.7-8.1,51.1-23.4,95.8-63.1l1.8-1.6
	c15.9-14.1,45.5-40.4,56.8-55.9l0.7-1c10.2-14,16.4-22.5,30.8-53.8c8.2-17.8,20-56.7,24.2-74.6c2.6-11,4.4-32.1-12.8-51
	c-19.7-21.6-49.1-52.1-80.2-84.4c-32.7-33.9-66.4-68.9-88.2-93c-41.7-46.1-89.6-53.7-146.5-23.1c-49.2,26.5-126.4,87.5-188.5,136.6
	c-21.6,17.1-42,33.2-58.2,45.5C972,493,881.1,561.8,839.6,598.2c-20.8,18.2-37.9,33.9-84.7,83.4c-12.6,13.3-29.1,34.2-46.7,56.3
	c-21.3,26.8-43.2,54.5-59.8,70.7c-15.6,15.2-43.9,28.6-72.1,24.1c-17.2-2.8-41.7-13.5-60.2-49.3c-7.8-14.9-13.2-41.7-16.6-82
	c-1.9-22-2.6-58-1.8-85.6c0.2-7.4,2.4-73,9.5-112.1c3.5-19.5,11.1-55,17-78.5c3.6-14.1,14.5-57,62.6-61.3
	c15.7-1.4,44.9,1.4,59.5,4.6c22.7,5.1,30.8,8,66.3,23.7c8.6,3.8,20.5,9.6,33.1,15.8c14.8,7.2,30.1,14.6,40,18.9
	c17.1,7.3,34.9,10.6,48.8-13.5c4.1-7.2,5.3-13.4,3.7-19.4c-2.5-9.2-12.2-18.8-28-27.8c-25.6-14.6-93.5-53.3-127.3-68.9
	c-21.2-9.8-66.1-28.2-88.3-35.6C577.9,256,562.3,253.2,547.8,253.2z"/>
</svg>
