<svg id="Indy_-_Config" data-name="Indy - Config" xmlns="http://www.w3.org/2000/svg" viewBox="0 0 1920 1080"><defs><style>.cls-1{fill:#fff;}</style></defs><title>Indy-active</title><g id="Layer_18" data-name="Layer 18"><path class="cls-1" d="M601,1018.11c-24,0-49.89-8.85-74.85-25.61-20.42-13.71-39.87-32.66-53.35-52C421.48,866.9,410,777.59,407.47,742.62c-3-40.76-1.44-116.41-.43-166.48.15-7.72.29-14.83.41-21.1,2-109.93,5.25-133.59,11.2-176.55l.89-6.41c6.57-47.64,16.15-68.56,28.53-85.32,37.4-50.66,88.87-65.5,153-44.14,23.39,7.8,68.57,26.3,90.38,36.42,30.56,14.18,84.85,44.7,128.74,69.72C841,360.6,853.51,374,857.51,388.7c3,11.16,1.15,22.8-5.61,34.61-10,17.47-23.5,27.13-40,28.7-13.09,1.25-25-2.92-33.86-6.69-10.44-4.43-26-12-41-19.28-12.48-6.07-24.26-11.8-32.51-15.45-34.31-15.21-41.33-17.73-62.58-22.5-13-2.91-39.66-5.45-53.37-4.24-29.9,2.64-39.51,24.88-45,46.29-5.68,22.29-13.24,57.86-16.74,77.09-6.85,37.69-9,102-9.18,109.18-.81,27-.08,62,1.75,83.29,4,46.15,10.05,66,14.46,74.47l.14.27c.14.29,15.71,31.44,48.52,40.15,13,3.47,46.06,15.57,71.42,53.14,2.55,3.56,37.13,52.86,30.07,91.09-3.76,20.36-14.95,36.54-32.35,46.8S614.44,1018.11,601,1018.11ZM547.78,253.18c-33.59,0-61.19,15.08-83.62,45.46-8.51,11.53-18.15,27.87-24.81,76.17l-.89,6.43c-5.85,42.19-9.07,65.43-11,174.16-.11,6.28-.25,13.4-.41,21.14-1,49.7-2.51,124.8.39,164.62,2.43,33.33,13.31,118.37,61.78,187.9,23.19,33.26,68.06,69.05,111.8,69.05,16.67,0,56.2-4.18,63.35-42.93h0c4.66-25.25-17.71-63.35-26.73-75.9l-.17-.25c-22.19-32.95-51.58-42.85-60.05-45.11-41-10.88-59.8-47.54-61.33-50.65-7.72-14.94-13.15-41.72-16.59-81.86-1.88-22-2.64-58-1.81-85.6.22-7.36,2.38-73,9.49-112.15,3.54-19.49,11.07-55,17-78.46,3.59-14.11,14.54-57,62.59-61.27,15.69-1.39,44.87,1.36,59.51,4.65,22.71,5.09,30.77,8,66.31,23.72,8.57,3.8,20.51,9.61,33.14,15.75,14.79,7.19,30.08,14.63,40,18.85,17.13,7.27,34.89,10.65,48.76-13.54,4.14-7.22,5.3-13.39,3.67-19.4-2.52-9.22-12.18-18.84-28-27.83-25.58-14.58-93.54-53.31-127.26-68.95-21.21-9.84-66.12-28.19-88.28-35.58Q569.51,253.2,547.78,253.18Z"/></g></svg>