<?xml version="1.0" encoding="utf-8"?>
<!-- Generator: Adobe Illustrator 24.0.1, SVG Export Plug-In . SVG Version: 6.00 Build 0)  -->
<svg version="1.1" id="Grand_Prix__Config" xmlns="http://www.w3.org/2000/svg" xmlns:xlink="http://www.w3.org/1999/xlink" x="0px"
	 y="0px" viewBox="0 0 1920 1080" style="enable-background:new 0 0 1920 1080;" xml:space="preserve">
<style type="text/css">
	.st0{fill:#FFFFFF;}
</style>
<title>active</title>
<path class="st0" d="M1596.3,624.5c-18-18.2-41.9-31.9-73.2-41.7c-30.1-9.5-83.3-23.9-118.6-32.2c-62.2-14.6-107.1-2.1-142.9,12
	c-20.2,8-37.9,13.5-52.1,17.9c-4.6,1.4-8.9,2.8-12.9,4.1c-57.9,18.9-97.9,4.1-132.6-14.7c-75.8-41.1-94.3-45.6-129-51.8
	c-33.3-5.9-67.3-7.7-101.1-5.3c-18.8,1.4-47.4,4.7-75.2,7.8c-21.2,2.4-41.2,4.7-56.3,6.1c-28.2,2.6-35.3-17.4-37-26.1
	c-2.3-11.7-1.1-21.1,3.6-27.9c6.5-9.4,18.6-12.6,25.2-13.7c9.1-1.5,21.8-2.9,35.3-4.4c24-2.7,51.3-5.8,68.7-10.3
	c48.8-12.6,53.1-46.5,55.6-66.7c0.1-1.1,0.3-2.2,0.4-3.3c6.6-50,14-68.4,26-86.8c7.5-11.3,17.5-25.9,28.1-41.3
	c20.5-29.8,43.8-63.5,59.8-90.3c24-40.1,6.2-69.1-6.6-82.8c-11.8-12.7-27.6-19.1-44.4-17.9c-15.6,1.1-31.1,9-38.4,19.6
	c-18.7,27-39,56.3-60.4,87.4c-126.7,183-300.1,433.7-409.9,599.5v0c-52.2,78.9-12.3,165,16.1,199.5c27.6,33.6,75.7,50.3,96.2,57.4
	c25.6,8.9,70.7,19,94.4,19.2c0.6,0,1.1,0,1.7,0c27.7,0,49-7.2,63.4-21.5c19.3-19.1,21.5-45.7,21.5-64.1c0-32.3,1.7-78.2,3.5-126.8
	c1.9-52,3.9-105.8,3.6-141.7c-0.3-38.8,16.8-42.9,24.9-44.8c22.9-5.5,36.5,7.8,39.7,17.5c2.2,6.7,6.1,19.5,7.4,25.6
	c2,9.4,7,14.2,10.8,16.6c9.6,6,21.1,3,27.2,1.4l0.9-0.2c63.3-16.1,102.2-24.9,134.3-30.3c95-16,138.7-15.9,190-14.1
	c74.2,2.6,99,7.7,127.8,13.6c5.5,1.1,11.2,2.3,17.4,3.4c57.5,10.9,92.4,19.2,123.6,34.7c22.7,11.2,33.3,32.3,33.6,43.7
	c0.8,30.4-26,48.6-45.3,51.8c-37.1,6.2-70.3,6-99.5,5.8c-4.7,0-9.3-0.1-13.8-0.1c-23.9,0-47.4,2.8-66.3,7.7
	c-23.1,6.1-37.8,16.6-43.7,31.1c-6.6,16.1,0.3,30.7,3.6,36.2c41.1,68.5,120.8,122,193.8,130.1c22.5,2.5,41.4-8.4,50.8-18.6
	c18.2-19.6,40-47.9,52.2-65.7c11.4-16.7,17.2-24.7,23.7-31.2c18-18,34.7-33.5,49.5-47.1c15.6-14.4,29.1-26.9,39.9-38.5
	c23.5-25.2,38.5-54.7,40.3-79C1635.3,688.5,1623.3,651.8,1596.3,624.5z M1612,732c-1.4,19.6-14.8,45.2-35,66.8
	c-10.3,11.1-23.6,23.3-38.9,37.4c-14.9,13.8-31.8,29.4-50.1,47.7c-7.6,7.6-13.9,16.3-26.1,34c-11.8,17.2-32.8,44.5-50.3,63.4
	c-5,5.4-17.8,14-33.9,12.3c-67.2-7.5-140.8-57-178.9-120.5c-1.4-2.3-5.6-10.4-2.3-18.4c3.4-8.3,13.9-14.9,30.3-19.3
	c10-2.6,31.2-7.1,61.1-7.1c4.5,0,9.1,0,13.7,0.1c30,0.2,64.1,0.4,102.9-6.1c15.3-2.6,30.6-10.6,42-22.1c13.6-13.8,20.5-31,20-49.9
	c-0.5-19.6-16-47-44.7-61.2c-33.4-16.5-69.5-25.2-128.8-36.4c-6-1.1-11.6-2.3-17.1-3.4c-28.4-5.8-55.2-11.3-131.1-14
	c-52.5-1.9-97.2-2-194,14.4c-32.7,5.5-72,14.4-135.9,30.7l-1,0.3c-2.8,0.7-9.3,2.4-11.6,1c-1-0.6-1.6-2.8-1.7-3.7
	c-1.5-7.3-5.7-20.9-8-27.7c-5.5-16.5-27.5-39.4-63.4-30.7c-27.3,6.6-40.5,27.7-40.3,64.4c0.3,35.4-1.7,89-3.6,140.8
	c-1.8,48.8-3.5,94.9-3.5,127.6c0,14.8-1.6,36.1-15.6,49.9c-10.7,10.6-27.8,15.9-50.8,15.7c-21.2-0.2-64-9.7-88.1-18.1
	c-18.9-6.6-63.2-22-87.3-51.3c-25.2-30.5-60.7-106.6-14.9-175.7C535,607.1,708.4,356.6,835,173.6c21.5-31,41.8-60.4,60.4-87.4
	c3.3-4.8,12.6-10.2,23.4-11c7.5-0.5,18.6,1,28.3,11.5c15.9,17.1,17.2,36.9,4.1,58.9c-15.7,26.2-38.8,59.7-59.1,89.3
	c-10.7,15.5-20.8,30.1-28.4,41.7c-13.7,20.9-22,41.4-29.1,95.2c-0.1,1.1-0.3,2.3-0.4,3.4c-2.4,19-5.1,40.6-40.7,49.8
	c-16.1,4.2-42.6,7.1-65.9,9.8c-13.7,1.5-26.7,3-36.3,4.6c-9.7,1.6-27.6,6.5-38.4,22c-7.9,11.4-10.2,25.9-6.8,43.2
	c1.3,6.4,4.9,18.7,15.1,28.6c7.5,7.3,21.1,15.6,43.4,13.5c15.3-1.4,35.4-3.7,56.7-6.2c27.5-3.2,56-6.4,74.3-7.7
	c32.1-2.2,64.5-0.5,96.2,5.1c31.1,5.6,46.7,8.4,122.9,49.7c36.7,19.9,83,37.4,148.3,16.1c3.9-1.3,8.1-2.6,12.6-4
	c14.5-4.5,32.6-10.2,53.4-18.4c32.8-13,74.1-24.5,130.9-11.1c34.9,8.2,87.5,22.5,117.2,31.8C1585.8,623.4,1616.9,665.9,1612,732z"/>
</svg>
