<?xml version="1.0" encoding="utf-8"?>
<!-- Generator: Adobe Illustrator 24.0.1, SVG Export Plug-In . SVG Version: 6.00 Build 0)  -->
<svg version="1.1" id="Concord_Half_Config" xmlns="http://www.w3.org/2000/svg" xmlns:xlink="http://www.w3.org/1999/xlink"
	 x="0px" y="0px" viewBox="0 0 1920 1080" style="enable-background:new 0 0 1920 1080;" xml:space="preserve">
<style type="text/css">
	.st0{fill:#FFFFFF;}
</style>
<title>active</title>
<path class="st0" d="M971,1025.7c-60.7,0-111.8-19.4-152.1-57.6c-33.6-32-53.7-71.5-68.4-100.4c-2.7-5.3-5.3-10.4-7.7-15
	C669.7,715,642.3,642.3,607.6,550.3l-2.9-7.6c-21.7-57.3-30-110.3-24.8-157.3c5.3-48.6,25.6-90.7,58.6-121.8
	c54.8-51.5,125.7-94.6,175.5-121.6c56.4-30.6,114.4-56.1,151.4-66.7l0,0c77-22,138.2-7.5,176,8.7c44.8,19.1,82.9,52,101.8,88.1
	c53.9,102.9,44,194.6,37.4,255.2c-0.4,3.5-0.7,6.9-1.1,10.3c-10.4,100.2-39.1,291.4-67.6,383.6c-23.3,75.5-58.9,130.8-105.8,164.4
	c-36.9,26.4-80,39.5-131.7,40.1C973.2,1025.7,972.1,1025.7,971,1025.7z M987.4,152.3c-57.1,16.4-208.4,89-294.1,169.7
	c-41.1,38.7-46,107.1-13.8,192.5l2.9,7.6c33.7,89.4,60.3,159.9,131,293.2c2.8,5.2,5.5,10.6,8.4,16.2
	C849.1,885,879.9,945.7,971,945.7c0.8,0,1.6,0,2.4,0c54.4-0.6,121.9-18,162-148c26.8-87.1,54.3-271.3,64.4-368.4
	c0.4-3.4,0.7-6.9,1.1-10.6c6.2-57.1,13.9-128.1-28.8-209.5c-8.2-15.6-28.8-37.4-62.3-51.6C1084.1,146.6,1041.8,136.7,987.4,152.3
	L987.4,152.3z"/>
</svg>
