<?xml version="1.0" encoding="utf-8"?>
<!-- Generator: Adobe Illustrator 24.0.1, SVG Export Plug-In . SVG Version: 6.00 Build 0)  -->
<svg version="1.1" id="Oostelijk__Config" xmlns="http://www.w3.org/2000/svg" xmlns:xlink="http://www.w3.org/1999/xlink" x="0px"
	 y="0px" viewBox="0 0 1920 1080" style="enable-background:new 0 0 1920 1080;" xml:space="preserve">
<style type="text/css">
	.st0{fill:#FFFFFF;}
</style>
<title>active</title>
<path class="st0" d="M1596.3,624.5c-17.9-18.2-41.9-31.9-73.2-41.7c-29.2-9.2-83.7-26.3-119.3-32.3c-19.5-3.3-57.6-0.5-95.5,13.4
	c-36.9,13.6-60.4,33.8-67.7,58.5c-2.8,9.2-1.5,19.5,3.3,27.6c3.7,6.2,11.3,14.2,26.8,17.4h0c79.7,16.4,113,25.7,142.6,39.8
	c22.3,10.6,33.1,32.3,33.4,43.7c0.8,30.4-26,48.6-45.3,51.8c-37.1,6.2-70.3,6-99.5,5.8c-4.7,0-9.3-0.1-13.8-0.1
	c-23.9,0-47.4,2.8-66.3,7.7c-23.1,6.1-37.9,16.6-43.8,31.1c-6.6,16.1,0.4,30.7,3.7,36.2c41.1,68.5,120.8,122,193.8,130.1
	c2.2,0.2,4.4,0.4,6.5,0.4c19.6,0,35.9-9.8,44.3-18.9c18.2-19.6,40-47.9,52.2-65.7c11.4-16.7,17.2-24.7,23.7-31.2
	c18-18,34.7-33.4,49.5-47.1c15.6-14.4,29.1-26.9,40-38.5c23.5-25.2,38.5-54.7,40.3-79C1635.3,688.5,1623.3,651.8,1596.3,624.5z
	 M1612,732c-1.4,19.6-14.8,45.2-35,66.8c-10.3,11.1-23.6,23.3-38.9,37.5c-14.9,13.8-31.8,29.4-50,47.6c-7.6,7.6-13.9,16.3-26.1,34
	c-11.8,17.2-32.8,44.5-50.3,63.4c-5,5.4-17.8,14-33.9,12.3c-67.2-7.5-140.8-57-178.9-120.5c-1.7-2.9-5.5-10.6-2.3-18.4
	c3.4-8.3,13.9-14.9,30.4-19.3c10-2.6,31.2-7.1,61.1-7.1c4.5,0,9.1,0,13.7,0.1c30.1,0.2,64.1,0.4,102.9-6.1
	c15.3-2.6,30.6-10.6,42-22.1c13.6-13.8,20.5-31,20-49.9c-0.5-19.6-16.4-47.7-44.8-61.2c-31.3-14.9-65.6-24.5-147.2-41.3
	c-6.7-1.4-11.3-4.1-13.6-8c-2.4-4-2.2-8.7-1.3-11.6c7-23.3,34-37.6,55.5-45.5c32.9-12.1,67.8-15.4,85.3-12.5
	c34.2,5.8,87.8,22.6,116.6,31.7C1585.8,623.4,1616.9,666,1612,732z"/>
</svg>
