<svg id="Full_-_Config" data-name="Full - Config" xmlns="http://www.w3.org/2000/svg" viewBox="0 0 1920 1080"><defs><style>.cls-1{fill:#fff;}</style></defs><title>active</title><path class="cls-1" d="M1743.47,922.56c-8.27-32.43-63.39-131.06-63.94-132-5-8.89-87.44-153.6-88.3-155.1-.52-.9-13-22.32-36.85-47.71-22-23.42-58.26-54.69-106-70.75-32.49-13.88-98-23.81-100.75-24.23-15.59-2.33-154.12-17.73-159.93-18.38-1.14-.14-27.89-3.7-28.8-23.63a27.38,27.38,0,0,1,13.19-24.5c10.23-6.29,30-12.61,62.05-19.9l.23-.05c3-.79,6.14-1.64,9.3-2.5,18.77-5.14,38.19-10.45,61.92-8.23l.19,0c1.48.1,3.5.28,5.84.5,24.81,2.3,90.71,8.41,111.84-32.26l.09-.17c4.26-8.73,11.14-26.29,9.37-45.75-1.53-16.8-10.27-40.36-43.13-57.14-24.08-12.44-143.84-49.17-158.32-52.58-13.71-3.22-34.43-8.1-58-5.62-22,2.31-137,13.16-138.16,13.27l-.26,0c-.52.06-52.39,6.38-100.79-17.27l-.27-.12C898.36,182.7,843,130.37,822.13,110.67c-4-3.74-6.57-6.21-8-7.48-.67-.57-1.9-1.75-3.47-3.24-8.78-8.36-29.36-27.93-56.21-44.2-34.1-20.66-66.48-28.94-96.22-24.62-8.69,1.13-31.62,4.12-55.75,18.07C574.12,65.58,552.66,91.77,538.66,127c-13,29.53-17.8,96.31-19.6,121.48-.2,2.83-.36,5.06-.48,6.55-.19,2.28-.29,5-.39,7.93-.3,8.42-.67,18.91-3.41,26.9-2.66,7.73-10.79,13.1-20.7,13.67-7.92.47-18.31-3.38-40.42-34.28l-.44-.55c-.66-.77-1.39-1.64-2.18-2.58-11.21-13.32-37.45-44.53-90.18-39l-.41.06c-37.54,6-66.72,28.92-86.69,68-9.36,18-36.9,88.35-49.45,155.77a159.35,159.35,0,0,0-2.64,32.76c.6,25.8,5,74,28,107.1l.38.54C287,643.09,334.94,662,368.71,668.78c19.39,4.2,72.57,10.7,106.57,11.09,10,0,13.27.26,13.89.33l.36.08,805,1.61c1.14-.06,114-.48,160.36,60.94,1.73,2.38,3.73,4.88,6,7.76,14.81,18.5,39.6,49.45,51.15,122,3.79,25.26,20.49,96,21.2,99l0,.2a154.76,154.76,0,0,0,21.44,44.28c20.75,29.62,49,45.82,81.69,46.86h.3c40.9-.34,71.23-14,90.15-40.44C1752.71,986.5,1748.13,937,1743.47,922.56Zm-28.73,91.29c-16,22.33-42.17,33.83-77.93,34.16-28-.93-51.34-14.43-69.47-40.1a142.77,142.77,0,0,1-19.46-39.82c-.83-3.5-17.32-73.52-21-97.74-12.18-76.58-39.56-110.77-54.26-129.14-2.21-2.75-4.12-5.14-5.66-7.25l-.08-.11c-21.21-28.11-57.88-48.6-106-59.25a323.34,323.34,0,0,0-66.39-7.71l-803.73-1.61c-1.65-.17-5.7-.41-15.39-.41-35.37-.4-87.14-7.2-103.54-10.76l-.12,0c-31.12-6.22-75.35-23.67-109.4-71.44l-.34-.47c-21.48-30.9-24.85-79.39-25.3-98.81a144,144,0,0,1,2.39-29.66c12.26-65.86,38.95-134.19,48-151.64,17.91-35,42.62-54.66,75.54-60,44.67-4.59,65.65,20.36,76.93,33.78l2.1,2.48c21.74,30.32,36.19,41.24,53.28,40.25,16-.93,29.37-10.26,34-23.77,3.48-10.11,3.91-22.33,4.22-31.26.1-2.83.18-5.28.34-7.21.13-1.52.3-3.81.5-6.72,1.58-22.15,6.39-89.55,18.41-116.6l.12-.29C572.7,81.82,608.92,52.64,660.18,46l.12,0c41.34-6,88.43,15.79,140,64.84,1.77,1.68,3.05,2.9,4,3.69,1.23,1.07,4,3.72,7.58,7.07,21.34,20.16,78,73.67,116,90.53,51.72,25.22,105.18,19.1,109,18.62,4.32-.41,116.47-11,138.2-13.27,21-2.21,40.23,2.31,53,5.31,15.36,3.61,132.75,39.87,154.91,51.31,48.76,24.9,35.29,66.19,27.17,82.89-16.54,31.63-75.07,26.2-97.11,24.15-2.39-.22-4.45-.41-6.1-.52-26.41-2.45-48.08,3.47-67.19,8.7-3,.83-6,1.65-9,2.42-34.15,7.76-54.65,14.45-66.47,21.72a42.39,42.39,0,0,0-20.33,38c1.2,26.12,28,36.18,42.06,37.85,1.44.16,144.13,16,159.43,18.32,2.71.4,66.71,10.1,97.34,23.29l.59.22c86,28.78,134.43,111,134.88,111.81.83,1.46,83.24,146.14,88.25,155C1677.28,817,1722.37,900,1729,926.46l.17.55C1733,938.67,1737,982.66,1714.74,1013.85Z"/></svg>