<?xml version="1.0" encoding="utf-8"?>
<!-- Generator: Adobe Illustrator 24.0.1, SVG Export Plug-In . SVG Version: 6.00 Build 0)  -->
<svg version="1.1" id="Mid_Ohio_Full_-_Config" xmlns="http://www.w3.org/2000/svg" xmlns:xlink="http://www.w3.org/1999/xlink"
	 x="0px" y="0px" viewBox="0 0 1920 1080" style="enable-background:new 0 0 1920 1080;" xml:space="preserve">
<style type="text/css">
	.st0{fill:#FFFFFF;}
</style>
<title>active</title>
<path class="st0" d="M1680,888.6c-20.5-34.2-73.8-32.7-96.6-32.1c-33.1,0.9-63,1.7-90.2,2.5c-250.5,6.9-271,7.5-414.8,5.9
	c-25.7-0.3-64.4-12.3-88.7-38.1c-17.3-18.4-25.5-41.4-24.2-68.4c4.7-100,14.1-227,21.7-329.1c2-27.1,3.9-52.6,5.5-74.7
	c2.3-32.8,24.7-41.2,41.1-47.4c31.2-11.7,46.2-29.3,47.4-55.1c2.5-56.9-43.9-74.4-71.7-75.8c-52.5-2.6-82,17.9-103.6,32.8
	c-2.2,1.5-4.4,3-6.5,4.4c-45.8,30.8-59.9,33.1-73.7,32.8c-40.3-0.7-61.5-21.1-78.5-37.5c-1.2-1.2-2.5-2.4-3.7-3.5
	c-20.5-19.4-44.5-33.8-71.2-42.8c-36.8-12.7-69-18.8-98.5-18.7c-18.5,0.1-44.4-0.1-71.7-0.2c-38.6-0.2-78.5-0.5-105.6-0.1
	c-65,1-75.4,42.1-75.8,66.4c-0.1,6.7-0.4,15.7-0.7,25.1c-0.7,20-1.4,42.6-0.9,58.4c1.3,36.8,17.1,50.5,28.6,60.5l0.8,0.7
	c22.5,19.6,43.3,39.4,57,54.3c29,31.6,23.5,60.2,16,84.5c-8.8,28.5-7.4,50.9,4.2,66.4c11.3,15.2,31.5,22.8,60.1,22.6
	c18.6-0.1,53.8-1.5,71.7-2.7c29.4-1.9,51.3,3.6,61.8,15.4c7.6,8.6,9.9,21.4,6.7,38.1c-1.8,10-13,27.2-21.2,39.7c-3,4.6-5.9,9-8,12.6
	h0c-14.6,24.7-18.7,47.6-12.1,68.1c5.6,17.6,19.7,32.9,37.6,40.8c68.2,30.1,299.9,131.8,420.7,174.5c41.2,14.6,87.7,20.1,117.4,20.5
	c47.1,0.5,106.9,0.8,171.4,0.8c97.9,0,206.5-0.7,297.8-2.4c21.5-0.4,38-10,47.8-27.8C1690.8,936.1,1687.9,901.6,1680,888.6z
	 M1660,950.6c-6.3,11.5-16.4,17.2-30.7,17.4c-151.2,2.8-350.2,2.9-468.6,1.6c-28.2-0.3-72.1-5.6-111-19.3
	c-120.1-42.5-351.3-143.9-419.3-173.9c-4.8-2.1-20.8-10.4-26.6-28.6c-4.8-14.9-1.3-32.3,10.3-51.8h0c1.9-3.2,4.6-7.4,7.5-11.8
	c9.6-14.7,21.6-33.1,24.2-47c4.3-23.1,0.5-41.6-11.4-55c-15.9-17.9-42.7-22.5-65.9-22.5c-4.2,0-8.3,0.2-12.2,0.4
	c-17.6,1.1-52.3,2.5-70.5,2.6c-21.9,0.1-36.7-4.8-43.9-14.5c-7.5-10.1-7.9-26.4-1.1-48.6c6.1-19.9,18.8-61.2-20.4-103.9
	c-14.4-15.7-35.2-35.5-58.6-55.9l-0.8-0.7c-10.7-9.2-20.7-18-21.7-46.1c-0.5-15.1,0.2-37.3,0.9-57c0.3-9.5,0.6-18.6,0.7-25.5
	c0.5-30.9,18.9-46.2,56.2-46.8c26.8-0.4,66.6-0.2,105.1,0.1c27.4,0.2,53.4,0.3,72,0.2c27.1-0.1,57.2,5.6,91.9,17.6
	c24,8.1,45.5,21,63.9,38.4c1.2,1.1,2.3,2.2,3.6,3.4c18.5,17.9,43.9,42.3,92.1,43.1c20.3,0.3,39-5.2,85.2-36.3c2.2-1.5,4.4-3,6.7-4.6
	c21.3-14.8,45.5-31.5,91.2-29.3c4.7,0.2,21.3,1.8,34.8,12.1c12.7,9.6,18.7,24,17.9,42.9c-0.5,12.2-5,26.2-34.4,37.3
	c-17.7,6.7-50.7,19.1-54,64.6c-1.6,22-3.5,47.6-5.5,74.6c-7.6,102.2-17,229.3-21.7,329.6c-1.5,32.6,8.4,60.5,29.6,83
	c28.4,30.2,72.2,44,103,44.3c144.1,1.6,164.6,1,415.5-5.9c27.2-0.8,57.1-1.6,90.2-2.5c19.3-0.5,64.4-1.8,78.9,22.4
	C1667,905.6,1670.1,932.2,1660,950.6z"/>
</svg>
