<?xml version="1.0" encoding="utf-8"?>
<!-- Generator: Adobe Illustrator 24.0.1, SVG Export Plug-In . SVG Version: 6.00 Build 0)  -->
<svg version="1.1" id="Mid_Ohio_Short_-_Config" xmlns="http://www.w3.org/2000/svg" xmlns:xlink="http://www.w3.org/1999/xlink"
	 x="0px" y="0px" viewBox="0 0 1920 1080" style="enable-background:new 0 0 1920 1080;" xml:space="preserve">
<style type="text/css">
	.st0{fill:#FFFFFF;}
</style>
<title>active</title>
<path class="st0" d="M1173.4,882.5c-10.1-13.9-26.6-16.4-35.5-16.7c-5.8-0.2-13.2-0.2-21-0.2c-12.6-0.1-26.9-0.1-38-0.7
	c-32.8-1.9-117.2-24.6-113.3-106.4c4.7-100.2,14.2-227.4,21.8-329.6c2-26.9,3.9-52.3,5.4-74.2c2.3-32.8,24.7-41.2,41.1-47.4
	c31.2-11.7,46.2-29.3,47.4-55.1c2.5-56.9-43.9-74.4-71.7-75.8c-52.5-2.6-82,17.9-103.6,32.8c-2.2,1.5-4.4,3-6.5,4.4
	c-45.8,30.8-59.9,33.1-73.7,32.8c-40.2-0.6-61.4-21.1-78.5-37.5c-1.3-1.2-2.5-2.4-3.7-3.5c-20.5-19.4-44.5-33.8-71.2-42.8
	c-36.9-12.7-69.1-18.8-98.4-18.6c-18.3,0.1-43.9-0.1-71-0.2c-38.9-0.2-79.1-0.5-106.3-0.1c-65.1,1-75.5,42.1-75.8,66.4
	c-0.1,6.8-0.4,15.7-0.7,25.2c-0.7,20-1.4,42.6-0.9,58.3c1.3,36.8,17.1,50.5,28.6,60.5l0.8,0.7c22.5,19.6,43.3,39.4,57,54.3
	c29,31.6,23.5,60.2,16,84.5c-8.8,28.5-7.4,50.9,4.2,66.4c11.3,15.2,31.5,22.7,60.1,22.6c18.6-0.1,53.8-1.5,71.7-2.7
	c29.4-1.9,51.3,3.5,61.8,15.4c7.6,8.6,9.9,21.4,6.7,38.1c-1.9,10-13.1,27.2-21.3,39.7c-3,4.6-5.9,9-8,12.6
	c-14.6,24.7-18.7,47.6-12.1,68.1c5.6,17.6,19.7,32.9,37.6,40.8c14.1,6.2,30.2,13.4,47.3,21c110.1,49,276.4,123.2,373.7,153.6l0,0
	c12.9,4,44.3,13.2,63.1,13.2c0.5,0,1,0,1.5,0c37-1,60.3-17.8,69.4-49.7C1183.5,911.3,1182.1,894.4,1173.4,882.5z M1158.2,927.2
	c-4.5,15.9-14.3,34.2-50.7,35.2c-12.7,0.4-38.4-6.1-58.1-12.3l0,0C953.1,920,787.4,846.2,677.8,797.4c-17.1-7.6-33.3-14.8-47.4-21.1
	c-4.8-2.1-20.8-10.4-26.6-28.6c-4.8-14.9-1.3-32.3,10.3-51.8c1.9-3.2,4.7-7.4,7.6-11.9c9.6-14.7,21.6-33,24.2-47
	c4.3-23.1,0.5-41.6-11.4-55.1c-18.8-21.2-52.8-23.7-78-22.1c-17.6,1.1-52.3,2.5-70.5,2.6c-21.9,0.2-36.7-4.7-43.9-14.5
	c-7.5-10.1-7.9-26.4-1.1-48.6c6.1-19.9,18.7-61.2-20.4-103.9c-14.4-15.7-35.2-35.5-58.6-55.9L361,339c-10.7-9.2-20.7-18-21.7-46.1
	c-0.5-15,0.2-37.3,0.9-56.9c0.3-9.6,0.6-18.6,0.7-25.6c0.5-30.9,18.8-46.1,56.2-46.7c27-0.4,67.1-0.2,105.9,0.1
	c27.1,0.2,52.8,0.3,71.2,0.2c27-0.1,57.1,5.6,91.8,17.5c24,8.1,45.5,21,63.9,38.4c1.2,1.1,2.4,2.3,3.6,3.4
	c18.5,17.9,43.9,42.3,92,43.1c20.3,0.3,39-5.2,85.2-36.3c2.2-1.5,4.4-3,6.7-4.6c21.3-14.8,45.5-31.5,91.2-29.3
	c9.2,0.5,54.9,5.2,52.7,54.9c-0.5,12.2-5,26.2-34.4,37.3c-17.7,6.7-50.7,19.1-54,64.6c-1.6,21.9-3.5,47.3-5.4,74.1
	c-7.6,102.3-17,229.7-21.8,330.1c-1.9,40.8,14.7,74.7,48.1,98.3c27.7,19.5,61.6,27.8,84.2,29.1c11.6,0.6,26.1,0.7,39,0.8
	c7.7,0,15,0.1,20.5,0.2c4.2,0.1,14.7,1.2,20,8.5C1162.1,900.9,1162.4,912.3,1158.2,927.2z"/>
</svg>
