<?xml version="1.0" encoding="utf-8"?>
<!-- Generator: Adobe Illustrator 24.0.1, SVG Export Plug-In . SVG Version: 6.00 Build 0)  -->
<svg version="1.1" id="Mid_Ohio_Oval_-_Config" xmlns="http://www.w3.org/2000/svg" xmlns:xlink="http://www.w3.org/1999/xlink"
	 x="0px" y="0px" viewBox="0 0 1920 1080" style="enable-background:new 0 0 1920 1080;" xml:space="preserve">
<style type="text/css">
	.st0{fill:#FFFFFF;}
</style>
<title>active</title>
<path class="st0" d="M1688,921.5c-1.7-30.8-16.9-67-79.6-65.2c-70.1,2.1-163.4,4.8-271.4,7.9c-17.9,0.5-32.7,8.8-42.9,23.9
	c-8.7,12.9-11.7,27.4-11.5,36.6c0.3,18.2,8.6,35.1,23.2,47.6c11.5,9.8,26.6,16.4,38.4,16.7c36.2,0.9,69.9,1.3,101.4,1.3
	c46.3,0,88.1-0.7,126.8-1.4c12.5-0.2,24.8-0.4,36.9-0.6c28.7-0.4,50.1-8,63.5-22.5C1683.6,954.5,1689,938.7,1688,921.5z
	 M1658.4,952.2c-9.6,10.3-26.2,15.7-49.2,16.1c-12.1,0.2-24.4,0.4-36.9,0.6c-64.9,1.2-138.5,2.5-227.4,0.1
	c-12.4-0.3-41.7-15.9-42.2-44.7c-0.2-10.5,7.8-39.4,35-40.2h0c108-3.1,201.3-5.8,271.4-7.9c39-1.1,57.2,13.1,59.1,46.3
	C1668.5,930.9,1667.2,942.8,1658.4,952.2z"/>
</svg>
