<?xml version="1.0" encoding="utf-8"?>
<!-- Generator: Adobe Illustrator 24.0.1, SVG Export Plug-In . SVG Version: 6.00 Build 0)  -->
<svg version="1.1" id="Mid_Ohio_Alt_Oval_-_Config" xmlns="http://www.w3.org/2000/svg" xmlns:xlink="http://www.w3.org/1999/xlink"
	 x="0px" y="0px" viewBox="0 0 1920 1080" style="enable-background:new 0 0 1920 1080;" xml:space="preserve">
<style type="text/css">
	.st0{fill:#FFFFFF;}
</style>
<title>active</title>
<path class="st0" d="M1688,921.5c-1.2-22-8.8-38.9-22.4-50.4c-20.4-17.1-47.4-16-58.1-14.7h0c-20.8,2.5-34.5,19.6-43.6,30.9
	c-1.3,1.7-2.6,3.2-3.7,4.5c-15.1,17.7-28.4,21.1-39.5,22c-3.9,0.3-10.5,0.5-16.3,0.7c-4.3,0.1-8.3,0.3-11.3,0.4
	c-1.9,0.1-3.8,0.2-5.6,0.2c-28.4,0-43.6-12.9-57.1-24.3c-2.4-2-4.6-3.9-6.9-5.7c-24.1-19.1-53.6-26.1-87.7-20.8
	c-37.3,5.8-53.5,38.8-53.1,60.4c0.3,18.2,8.6,35.1,23.2,47.6c11.5,9.8,26.6,16.4,38.4,16.7c36.2,0.9,69.9,1.3,101.4,1.3
	c46.3,0,88.1-0.7,126.8-1.4c12.5-0.2,24.8-0.4,36.9-0.6c28.7-0.4,50.1-8,63.5-22.5C1683.6,954.5,1689,938.7,1688,921.5z
	 M1658.4,952.2c-9.6,10.3-26.2,15.7-49.2,16.1c-12.1,0.2-24.4,0.4-36.9,0.6c-64.9,1.2-138.5,2.5-227.4,0.1
	c-12.4-0.3-41.7-15.9-42.2-44.7c-0.2-11.3,8.4-36,36.2-40.3c6.2-1,12.3-1.4,18.1-1.4c20.7,0,38.9,6.1,54.1,18.1
	c2,1.6,4.1,3.4,6.4,5.3c15.5,13.1,36.8,31.2,76.8,28.9c2.7-0.2,6.6-0.3,10.8-0.4c6.4-0.2,13-0.4,17.4-0.8c14.2-1.2,33-5.6,53-29
	c1.3-1.5,2.6-3.2,4.1-5c7.5-9.3,17.7-22,30.4-23.6c6.3-0.8,28-2.3,42.8,10.2c9.3,7.8,14.4,19.9,15.3,36.2
	C1668.5,930.9,1667.2,942.8,1658.4,952.2z"/>
</svg>
