<svg id="Laguna_Seca_-_Config" data-name="Laguna Seca - Config" xmlns="http://www.w3.org/2000/svg" viewBox="0 0 1920 1080"><defs><style>.cls-1{fill:#fff;}</style></defs><title>active</title><path class="cls-1" d="M1382.29,312.61,1164.68,97.33h0c-1.46-1.44-13.26-12.3-35-9.48-20.77,2.35-67.66,10.7-69.65,11.06l-.24,0c-1.72.36-42.45,9.17-72.5,29.18-8.46,5.47-130.3,88.76-137,93.36-2.8,1.76-38.47,24.51-68.45,54-5.77,5.1-14.2,8.66-21.7,11.47-8.61,3.23-50.24,18.5-54.19,20-7.84,2.2-20.71,9.73-21,24.6v.28c.14,6.66,3.3,13.68,6.35,20.48,2.14,4.75,5.07,11.27,4.68,13.85l0,.23c-.34,2.56-4.65,13.17-8,16.71-.92,1-4.72,4.55-19.75,17.69a251.74,251.74,0,0,1-35.39,25.75c-12.2,7.37-29.5,19.22-42.78,33.93-26.21,26.3-30.12,54-30.12,68.15,0,.52,0,1.13,0,1.83-.21,10.1-.78,36.92,24.35,57C603,602.13,727.54,697,728.72,697.89c.17.14,17.26,13.77,13.71,32.71-4.24,18.24-8.22,25.11-8.65,25.82l-.24.3L634.11,957.87c-1.69,2.79-9,16.14-2.33,27.61,5.41,9.31,17.34,13.4,36.47,12.51,22.68,0,256.36.52,303.09.62h.3a133.4,133.4,0,0,0,26.88-2.74l163.93-33.8.33-.07a175.77,175.77,0,0,0,55.41-27.16c23.61-17,125.11-93.28,126.2-94.1,1.25-1,30.32-23.76,21.86-49.51-8.52-29.07-35.1-39.09-49.86-38.63-14.23.48-26.46,6.66-33.55,17-6.6,9.62-29.82,41.52-37.68,49.37-8.07,8.07-50.49,40.74-61,45.82l-.47.25c-7.51,4.31-37.15,18.31-49.54,24.13A41.8,41.8,0,0,1,1111,893l-1.27-.19A32,32,0,0,1,1086.32,875c-13.79-28.14-45.45-106.94-45.77-107.73l-29.75-67.82a66.6,66.6,0,0,1-5.65-23.44c-.66-13.21,1.58-31.64,16-44.35l.41-.39c15.13-15.55,64.67-57.71,85.27-75.11a255.13,255.13,0,0,1,27.57-20.32c12.18-7.76,30.58-18.84,49-27.51,3.65-1.72,7.56-3.32,11.94-4.9,32.12-11.56,171.73-61.66,178.64-64.14,4.25-1.22,36.64-12,41-56.28l0-.33C1415.87,365.67,1406.12,337.39,1382.29,312.61Zm17.7,69.16c-3.55,35.48-29.13,42.87-30.16,43.15l-.67.2c-1.45.53-146.13,52.44-178.91,64.24-4.83,1.74-9.16,3.52-13.24,5.44-19.15,9-38.14,20.43-50.69,28.43a270.77,270.77,0,0,0-29.19,21.51c-25.68,21.7-70.92,60.32-86.15,75.9-18.68,16.66-21.63,39.72-20.81,56.16a81.58,81.58,0,0,0,6.89,28.71l29.61,67.5c1.84,4.58,32.27,80.26,46.17,108.63a47.1,47.1,0,0,0,34.54,25.94c.58.1,1.15.18,1.73.25a56.83,56.83,0,0,0,31.43-5.12c15.46-7.26,42.42-20,50.42-24.58,13.28-6.59,56.38-40.17,64.81-48.59,9.57-9.57,34.76-44.68,39.43-51.48,4.36-6.34,12.27-10.15,21.69-10.47,8.7-.32,28.66,6.17,35,28l.09.28c5.08,15.23-15.94,32.37-16.74,33-3,2.3-102.7,77.2-125.85,93.84l-.09.06a163.57,163.57,0,0,1-50.07,24.67L995.49,981.18a120,120,0,0,1-24.11,2.43c-46.86-.1-281.69-.62-303.31-.62h-.36c-18,.88-22.13-3.64-23-5-2-3.42.66-9.87,2.25-12.44l.22-.33L746.5,764.36c1.42-2.3,6-10.76,10.58-30.52l0-.27C762.5,705.65,739,686.86,737.88,686c-1.25-1-125.69-95.76-144.32-110.35-19.28-15.43-18.85-36.11-18.66-44.95,0-.81,0-1.53,0-2.14,0-11.88,3.36-35.17,25.87-57.68l.27-.29c12.06-13.41,28.14-24.4,39.51-31.27a266.35,266.35,0,0,0,37.5-27.29c17.81-15.55,20-17.88,20.75-18.65,5.58-5.85,11.32-19.52,12-25.16,1-6.91-2.33-14.3-5.85-22.12-2.29-5.11-4.89-10.89-5-14.5.25-7.44,9.8-10.21,10.16-10.31l.67-.21c.45-.16,45.54-16.7,54.59-20.1,8.85-3.32,18.93-7.63,26.55-14.43l.27-.25c29.39-28.95,65.8-52,66.17-52.2l.24-.16c1.29-.88,128.91-88.12,136.85-93.24l.1-.06c26.92-18,64.95-26.51,67.24-27,2.86-.51,48.9-8.67,68.63-10.9l.13,0c14.57-1.9,21.83,4.59,22.45,5.18l217.5,215.16C1395.08,347.58,1400.44,372.07,1400,381.77Z"/></svg>