<?xml version="1.0" encoding="utf-8"?>
<!-- Generator: Adobe Illustrator 24.0.1, SVG Export Plug-In . SVG Version: 6.00 Build 0)  -->
<svg version="1.1" id="Full___Config" xmlns="http://www.w3.org/2000/svg" xmlns:xlink="http://www.w3.org/1999/xlink" x="0px"
	 y="0px" viewBox="0 0 1920 1080" style="enable-background:new 0 0 1920 1080;" xml:space="preserve">
<style type="text/css">
	.st0{fill:#FFFFFF;}
</style>
<title>active</title>
<path class="st0" d="M1760.8,344.2c-2.6-38.9-11.9-68.6-28.3-90.8c-16-21.7-36.7-32.9-52.9-40.2c-7.9-3.6-20.1-8.2-31.8-12.7
	c-10.4-4-20.3-7.8-26.9-10.6c-32.6-14.1-40.9-18.2-55.3-38.2c-12-16.5-23.9-42.4-36.6-69.7l-3.5-7.6c-16.3-35.2-58.4-49.1-92.8-47.3
	c-48.7,2.6-71.7,20.6-82.4,35.3c-11.2,15.2-14.9,34.4-10.3,52.7c7.3,28.3,33.6,36,47.8,40.1l0.6,0.2c27.3,8,52.4,30.5,59.3,43.1
	c8,14.5,10.1,26.4,6.1,35.3c-7,16-33.1,22.3-44.2,24.9c-5.5,1.3-12.4,3.1-19.8,4.9c-23.2,5.8-55,13.7-72.6,16.7
	c-52.2,9-93.6,35.8-123.2,79.5c-18.5,27.3-34.9,54.6-49.3,78.7c-14.5,24.2-27.1,45.1-39,61.7c-17.7,24.6-56.4,75-77.8,102.8
	C993,648.3,978,682.3,966,709.6c-6.5,14.7-12,27.3-19.4,38.5c-36.5,55.7-98.5,54.3-160.1,44.6c-39.5-6.2-102-17.8-162.5-29
	c-37.1-6.9-72.1-13.3-98.7-18c-59-10.3-93.5-3.8-129.9,3c-2.3,0.4-4.6,0.9-7,1.3c-35.1,6.5-66.8,20.5-91.5,40.3
	c-22.5,18-37.5,39.4-42.2,60.2c-4.4,19.5-2,35.7,7.2,48.2c16.6,22.3,50.1,24.7,62.8,25.6c92.3,6.4,213.2,14.1,341.2,22.3
	c296.7,18.9,633.1,40.3,836.3,59.6c7.2,0.7,14.2,1,21,1c36.1,0,66.7-9.6,90.9-28.7c21.6-17,38.2-41.2,51-74
	c5.5-14.1,12.6-37.2,18.8-57.6c3.6-11.9,7.1-23.1,9.8-31.2c11.9-35.6,22.8-76,27-100.5c4.5-26,9.1-56.7,14.3-92.3
	c5.1-35,11-74.7,17.9-117C1764.8,434.1,1763.4,381.7,1760.8,344.2z M1733.3,502.6c-7,42.5-12.8,82.3-18,117.3
	c-5.2,35.4-9.7,66-14.2,91.8c-4.1,23.6-14.7,62.8-26.3,97.5c-2.8,8.3-6.3,19.6-9.9,31.6c-6.2,20.1-13.1,42.8-18.3,56.2
	c-15.3,39.4-44.6,90-123.2,90c-6.1,0-12.5-0.3-19.2-0.9c-203.5-19.3-540-40.7-836.9-59.6c-128-8.2-248.9-15.9-341.1-22.3
	c-10.1-0.7-37-2.6-48.1-17.5c-5.6-7.5-6.9-18.2-3.8-31.8c3.7-16.2,16.5-34,35.2-49c15.5-12.4,42.4-28.7,82.7-36.3
	c2.4-0.4,4.7-0.9,7-1.3c22.5-4.2,43-8.1,68.6-8.1c15.6,0,33.1,1.4,54.1,5.1c26.5,4.6,61.5,11.1,98.5,18
	c60.6,11.2,123.2,22.8,163,29.1c28.7,4.5,62.3,8.4,94.4,2.5c36.8-6.7,65.6-25.5,85.6-55.9c8.2-12.5,14.1-25.9,20.9-41.4
	c11.6-26.3,26-59.1,59.5-102.4c21.5-27.9,60.3-78.5,78.2-103.4c12.4-17.2,25.1-38.5,39.9-63c14.3-23.9,30.5-50.9,48.7-77.8
	c26.4-39.1,63.4-63,110-71c18.3-3.2,49.2-10.8,74-17c7.3-1.8,14.2-3.5,19.6-4.8c14-3.4,46.8-11.3,57.8-36.3
	c6.6-14.9,4.2-32.8-6.9-53c-10.1-18.2-40.1-43.6-71.2-52.6l-0.6-0.2c-15.6-4.5-29.9-10-34-25.9c-1.5-5.9-3.8-21.1,7-35.9
	c11.8-16,35.1-25.4,67.4-27.1c26.8-1.4,61.3,9.1,73.6,35.7l3.5,7.6c13.1,28.3,25.4,54.9,38.5,73.1c18.2,25.1,31.5,30.9,63.6,44.8
	c7,3.1,17.1,6.9,27.8,11c11.5,4.4,23.4,8.9,30.8,12.3c30.8,13.8,64,35.2,69.4,114.1C1743.4,382,1744.7,432.8,1733.3,502.6z"/>
</svg>
