<?xml version="1.0" encoding="utf-8"?>
<!-- Generator: Adobe Illustrator 24.0.1, SVG Export Plug-In . SVG Version: 6.00 Build 0)  -->
<svg version="1.1" id="Lakeland_Oval__Config" xmlns="http://www.w3.org/2000/svg" xmlns:xlink="http://www.w3.org/1999/xlink"
	 x="0px" y="0px" viewBox="0 0 1920 1080" style="enable-background:new 0 0 1920 1080;" xml:space="preserve">
<style type="text/css">
	.st0{fill:#FFFFFF;}
</style>
<title>active</title>
<path class="st0" d="M1597.2,342.9c-61.1-55.3-133.3-77.2-180.5-79.2c-207.5-8.8-594.8-8.3-851.1-8c-42.9,0.1-83.5,0.1-118.4,0.1
	c-81.4,0-157.2,32-213.4,90.2c-26.6,27.5-47.6,59.4-62.4,94.9c-15.1,36-23,73.8-23.7,112.4c-1.5,88.1,28.3,166,86.2,225.3
	c29.3,30.1,65.7,54.9,105.2,71.9c35.4,15.2,72.8,23.7,105.3,24c221.5,1.7,378,3.2,503.9,4.4c170.2,1.6,282.6,2.7,423.3,3.1
	c0.3,0,0.7,0,1,0c49.1,0,95.1-9.6,136.9-28.4c38.1-17.2,72-41.8,100.7-73c51.1-55.6,82.8-130.4,84.6-200.1
	C1698.1,460.1,1643.6,384.8,1597.2,342.9z M1664.9,579.7C1662,689.7,1567.1,852,1372.7,852c-0.3,0-0.6,0-0.9,0
	c-140.6-0.4-253-1.4-423.1-3.1c-125.8-1.2-282.4-2.7-503.9-4.4c-48.6-0.4-127.3-23.3-189.3-86.9c-52.2-53.5-79.1-124-77.7-203.9v0
	c2.5-147.8,123.4-268,269.6-268c34.9,0,75.5-0.1,118.4-0.1c51.6-0.1,108.5-0.1,168.2-0.1c236.5,0,516.5,1.1,681.7,8.1
	c42,1.8,106.5,21.5,161.6,71.4C1618.7,402.8,1667.8,470.7,1664.9,579.7z"/>
</svg>
