<?xml version="1.0" encoding="utf-8"?>
<!-- Generator: Adobe Illustrator 24.0.1, SVG Export Plug-In . SVG Version: 6.00 Build 0)  -->
<svg version="1.1" id="Lime_Rock_Full_-_Config" xmlns="http://www.w3.org/2000/svg" xmlns:xlink="http://www.w3.org/1999/xlink"
	 x="0px" y="0px" viewBox="0 0 1920 1080" style="enable-background:new 0 0 1920 1080;" xml:space="preserve">
<style type="text/css">
	.st0{fill:#FFFFFF;}
</style>
<title>active</title>
<path class="st0" d="M1650,447.3c-9.6-20.6-24.4-39.3-45.2-57.1c-56.8-48.5-172.3-145.9-230.1-194.2
	c-56.4-47.2-90.2-71.4-124.7-89.3c-63.7-33-121.9,0.5-143.8,13.1c-8.3,4.8-19.2,11.2-30.8,18c-18.8,11.1-38.2,22.5-50.9,29.5
	C958.3,204,908.9,226.1,864.4,239c-7.9,2.3-20.9,5.1-33.3,7.9c-9.8,2.1-19,4.1-25.5,5.8c-43.4,11.3-71.7,38-92.3,57.5
	c-2.6,2.5-5.1,4.8-7.5,7c-24.2,22.3-71.8,69.5-94.3,96.5c-44.6,53.6-19.2,100.5-4,128.5c1.1,2.1,2.2,4.1,3.3,6.1
	c2.2,4.1,5,9.2,7.9,14.6c9,16.4,21.4,38.9,25.6,51.8c16.2,49.7-8,73.2-27.4,92.1l-1.2,1.1c-31.4,30.6-84.5,29-105.8,26.9
	c-20.7-2-46.8-5.5-72.1-8.8c-4.5-0.6-8.9-1.2-13.3-1.7c-13.6-1.8-24.8-3.4-33.7-4.6c-25.4-3.6-38.1-5.4-56.2-4.3
	c-36.8,2.2-64.9,17.3-83.5,44.8c-29.9,44.3-25.2,108.5-15.2,138.6c12.1,36.3,35.3,63.6,68.9,81.3c32.5,17.1,64.9,20,81.4,20.2
	c66.2,0.7,180.7,0.3,272.7-0.1c29.2-0.1,55.8-0.2,77.2-0.3c60.3-0.1,153.4,0.7,243.5,1.5c72.6,0.6,141.2,1.2,190.3,1.3l25.5,0.1
	c17.9,0,33.7,0.1,47.8,0.1c67.8,0,96.8-0.9,140.4-6.2c36.8-4.5,69.7-20.1,97.9-46.3c18.6-17.3,35.1-39.1,50.5-66.8
	c14.3-25.8,31.7-72.2,43.3-102.9c1.8-4.8,3.4-9.2,4.9-13.1c20.6-54.2,59-166.1,75.7-223.9C1665.8,509.5,1663.8,477,1650,447.3z
	 M1636.6,538.2c-16.6,57.3-54.7,168.5-75.2,222.3c-1.5,3.9-3.1,8.3-4.9,13.1c-11.3,30.2-28.4,75.7-42,100.2
	c-34.8,62.5-78.4,96.2-133.4,102.9c-51.4,6.3-82.6,6.2-185.7,6l-25.5-0.1c-49-0.1-117.5-0.7-190.1-1.3c-84-0.7-170.6-1.5-230.9-1.5
	c-4.4,0-8.7,0-12.8,0c-21.4,0-48,0.2-77.2,0.3c-92,0.4-206.4,0.8-272.4,0.1c-17.1-0.2-104-5.3-131.5-87.8
	c-9.5-28.4-11.8-84.8,12.8-121.1c14.9-22,37.8-34.1,68.1-36c16-1,27.3,0.6,52.1,4.2c9,1.3,20.2,2.9,34,4.7c4.4,0.6,8.9,1.2,13.3,1.7
	c25.5,3.3,51.8,6.8,72.8,8.9c30,3,85.7,2.7,121.7-32.5l1.2-1.1c19.7-19.1,52.6-51.1,32.5-112.7c-4.8-14.7-17.2-37.2-27.1-55.3
	c-2.9-5.3-5.7-10.3-7.8-14.3c-1.1-2-2.2-4.1-3.4-6.3c-14.4-26.6-34.2-63,1.8-106.2c20.1-24.1,64.8-69.2,92.4-94.6
	c2.5-2.3,5-4.7,7.7-7.2c20.1-19,45.2-42.7,83.6-52.7c6.2-1.6,15.2-3.6,24.8-5.7c12.8-2.8,26-5.7,34.6-8.2
	c45.9-13.3,96.6-35.9,164.3-73.3c12.9-7.1,32.4-18.6,51.3-29.7c11.5-6.8,22.3-13.1,30.6-17.9c32.9-18.9,76.8-37.5,124.6-12.7
	c33.1,17.2,65.9,40.7,121.1,86.9c57.7,48.3,173.1,145.6,229.9,194C1636.1,443.3,1651.2,487.9,1636.6,538.2z"/>
</svg>
