<?xml version="1.0" encoding="utf-8"?>
<!-- Generator: Adobe Illustrator 24.0.1, SVG Export Plug-In . SVG Version: 6.00 Build 0)  -->
<svg version="1.1" id="Oval__Config" xmlns="http://www.w3.org/2000/svg" xmlns:xlink="http://www.w3.org/1999/xlink" x="0px"
	 y="0px" viewBox="0 0 1920 1080" style="enable-background:new 0 0 1920 1080;" xml:space="preserve">
<style type="text/css">
	.st0{fill:#FFFFFF;}
</style>
<title>active</title>
<path class="st0" d="M1670.9,258.5c-60.2-39.4-139.9-60.9-236.9-64c-207.7-6.6-760.7-9-1001.5-2.5c-51.6,1.4-98.4,11.2-139.1,29
	c-36.3,15.9-68,38.3-94.4,66.6c-30.7,33-53.7,73.1-68.3,119.2c-11.7,36.9-17.2,76.2-15.7,110.7c2.5,56.6,16,106.8,40,149
	c20.9,36.8,49.9,67.9,86.2,92.4c77.3,52.2,166.4,60.5,201,61.7c152.5,5,350.8,6.8,535.3,6.8c188.1,0,361.8-1.9,457.9-4.1l2.7-0.1
	c74.9-1.6,140.4-14.7,194.8-39c47-21,84.6-50.2,111.7-86.5c33.1-44.4,50.7-99.8,52.5-164.8C1800.4,407.9,1758,315.5,1670.9,258.5z
	 M1777.1,532.5c-6.1,229.7-215.3,268.3-339.4,270.9l-2.7,0.1h0c-190.2,4.5-684.5,7.4-992.1-2.7c-49.4-1.6-296.3-22.9-307.9-284
	c-2.6-57.7,16.5-148.7,78.6-215.4c52.8-56.7,126.6-86.7,219.4-89.2c98.9-2.7,250.4-3.9,409.1-3.9c227.2,0,469,2.4,591.2,6.3
	C1593.9,219.7,1783.9,279,1777.1,532.5z"/>
</svg>
