<?xml version="1.0" encoding="utf-8"?>
<!-- Generator: Adobe Illustrator 24.0.1, SVG Export Plug-In . SVG Version: 6.00 Build 0)  -->
<svg version="1.1" id="dover_-_Config" xmlns="http://www.w3.org/2000/svg" xmlns:xlink="http://www.w3.org/1999/xlink" x="0px"
	 y="0px" viewBox="0 0 1920 1080" style="enable-background:new 0 0 1920 1080;" xml:space="preserve">
<style type="text/css">
	.st0{fill:#FFFFFF;}
</style>
<title>active</title>
<path class="st0" d="M1154.2,911.7c-60.7,0-125.2-0.3-188.8-0.5c-120.3-0.5-244.7-1-337.9,0.3c-30,0.4-105.6-12-177.1-62
	c-37.9-26.5-68.5-59.5-90.9-98.1c-26.6-45.8-41.5-99.3-44.4-159.2c-5.4-113.8,42.2-189.7,83.1-233.4c29.7-31.7,66.7-58.1,107.1-76.5
	c37.2-16.9,75.3-26.2,110-26.9l16.6-0.3c187.1-3.7,443.4-8.8,706.2,1.3c125.8,4.8,199.2,71.9,238.7,127.4
	c22.2,31.1,39.9,67.6,51.4,105.4c10,33.2,15.1,67.2,14.2,95.7c-4.1,127.5-61.7,204.5-109.2,246.7c-28.2,25-60.3,44.7-95.3,58.5
	c-31.5,12.4-63.9,19.4-93.7,20C1291.4,911.3,1225.5,911.7,1154.2,911.7z M776.9,890.6c60.6,0,125.2,0.3,188.6,0.5
	c138.2,0.6,281,1.2,378.1-1c60-1.3,125.9-28.8,176.3-73.5c44.6-39.6,98.6-112,102.5-232.4c1.5-45-13.9-121.5-61.8-188.8
	c-36.9-51.8-105.6-114.5-223.2-119c-262.2-10.1-518.1-5-705-1.3l-16.6,0.3l-0.2-10l0.2,10c-52.7,1-137.4,27.1-202.9,97
	c-38.2,40.9-82.8,112-77.7,218.8c6.2,130.8,72.3,203.7,126.8,241.8c61.5,43,131,58.4,163.9,58.4c0.5,0,1,0,1.4,0
	C671.4,890.8,722.5,890.6,776.9,890.6z"/>
</svg>
