<svg id="Full_-_Config" data-name="Full - Config" xmlns="http://www.w3.org/2000/svg" viewBox="0 0 1920 1080"><defs><style>.cls-1{fill:#fff;}</style></defs><title>active</title><path class="cls-1" d="M1855.4,830.81c-10.09-40.18-34.8-137-46.45-168.9-14.34-42.44-53.11-49.36-58.9-50.16-10.91-2.46-207.74-46.89-233.92-53.28l-.94-.18c-24.54-3.55-44.16-.63-58.33,8.69a45.46,45.46,0,0,0-19.81,28.41c-.16.49-.31,1-.45,1.48-8.07,27.67,4.08,57.09,29.55,71.54l81.31,46.15c24.73,16,21.56,33.79,19.23,46.76l-.18,1c-3.71,10.77-10.15,18.24-19.15,22.22a34.31,34.31,0,0,1-13.58,3c-16-.74-385.38-17.68-413.88-18.38-35.85-9.29-45.1-24.9-49.07-31.61l-.23-.36c-8.73-13.39-4.14-40.88-1.63-50.33l32.45-128.51c2.57-8.48,3.15-9.5,5-12.82.37-.65.77-1.36,1.22-2.18,13.83-19.78,34.39-14.52,35.18-14.31l.15,0c5.27,1.43,129.45,35.06,160.66,39.32,28.25,4,45.76-22.78,48.95-33l.07-.25c8.56-30.16-7.5-49.09-14.8-55.83-1.49-1.37-6-5.54-72.93-30.87l-.23-.08-197.44-69.33-.37-.12c-31.9-9.85-138.76-51.68-142.75-53.25C862,299.57,321.63,72.62,309.59,68.93,260.37,53.86,195,51.76,154,63.92c-29.19,7.35-52.11,24.73-68.14,51.65A149.42,149.42,0,0,0,68,163l-.13.91c-3.61,35.91,12.28,56.91,26.25,68.21,10.27,8.31,23,14.41,37.92,18.14l.7.18c1.9.5,9.11,1.77,30.91,5.6,42.16,7.39,129.9,22.78,144.46,28.24l.59.22.6.14c13.06,3.12,43.11,16.46,69.63,28.23,23.9,10.61,46.48,20.64,57.94,23.9,27.6,8.43,64.49,9.33,103.9,2.53l.12,0c2.06-.35,4.43-.89,7.17-1.5a203.45,203.45,0,0,1,56.49-5.58c16.62.54,35.48,3.44,56.07,8.63a306.37,306.37,0,0,1,64.94,24.6L796.89,402c14.22,7.29,28.32,15.25,41.9,23.66,13.17,8.14,35.88,22.19,41.05,25.42,41.93,28.1,49.42,59.36,54.38,80.05.35,1.46.68,2.86,1,4.2,8.37,51.75-27.77,94-28.12,94.45l-.19.23C896,643.27,799.72,759.93,792.38,770.51l-.28.42-.25.43c-21.39,38.57-27.58,80.15-18.39,123.57l.14.65.22.63c10,28.11,35.25,47,73,54.64a198.55,198.55,0,0,0,51.88,3.22l714.24,1.59c3.28.1,33.7,1,68.83,1,32.78,0,69.66-.76,92.45-3.64h.1c60.78-8.31,75.17-48.11,80.58-63.09.28-.77.53-1.47.77-2.1,1.72-4.58,2.81-10.4,3.33-17.81A124.17,124.17,0,0,0,1855.4,830.81ZM1839,868.57c-.47,6.71-1.41,10.34-2.11,12.2l-.85,2.33c-5.09,14.08-15.68,43.38-64.41,50.06-46.11,5.81-157.16,2.54-158.27,2.51h-.14l-715-1.59h-.49l-.48,0c-.85.08-85.43,7.43-104.43-44-8-38.68-2.73-74.21,16.2-108.58,7.58-10.46,83.9-103.23,113.18-138.71,2.9-3.35,42.67-50.67,32.64-111.16l-.16-.79c-.35-1.4-.7-2.88-1.07-4.42-5.35-22.3-14.29-59.63-62.84-92.1l-.26-.17c-4.92-3.08-28-17.33-41.26-25.55-14-8.69-28.6-16.91-43.3-24.45l-71.36-36.61a327.09,327.09,0,0,0-69.19-26.2c-22-5.53-42.26-8.63-60.25-9.22a221.92,221.92,0,0,0-61.58,6c-2.48.56-4.62,1.05-6.17,1.31l-.13,0c-36.43,6.28-70.07,5.57-94.75-2l-.21-.06c-10.05-2.84-33.09-13.06-55.37-23C358.73,282,329.51,269,314.49,265.28c-16.23-5.74-84.52-18-147.42-29-14.16-2.48-27.53-4.83-29.28-5.25l-.93-.23c-20.21-5.06-53.4-20.17-49.18-64.5,4.17-21,19.36-70,71.33-83l.44-.12c37-11.05,99-9,144.21,4.88,13.6,4.68,406.7,169.54,612.88,256.15l.22.09c4.51,1.77,110.81,43.42,144.08,53.72L1258,467.22c28.9,10.94,61.32,23.93,66.72,27.18,5.68,5.41,13.9,16.87,8.79,35.12-1,3-11.3,21.29-27.09,19.06-29.75-4.06-155-37.94-158.12-38.8-12.18-3.46-39.72-3.16-57.37,22.64l-.52.84c-.5.92-.94,1.69-1.33,2.38-2.55,4.49-3.71,6.72-6.86,17.13l-.07.22-32.51,128.76c-1.23,4.63-10.79,43,4.09,66.16,4.91,8.28,17.87,29.7,62.4,40.91l1.2.31h1.24c10.9,0,275.77,12,414.21,18.37,13.55.77,42-6.54,53-39.54l.23-.7.43-2.42c2.55-14.26,7.87-44-28.33-67.25l-.23-.15L1476,651c-17.37-9.86-25.68-29.82-20.22-48.56.15-.49.3-1,.46-1.49l.19-.59.12-.61c2.65-13.94,18.58-26.94,55.3-21.75,28.76,7,225.81,51.44,234.23,53.34l.5.12.57.06c1.3.16,31.88,4.19,42.86,36.87l.09.25c11.63,31.79,38.06,135.88,45.89,167A104.29,104.29,0,0,1,1839,868.57Z"/></svg>