<svg id="Short_-_Config" data-name="Short - Config" xmlns="http://www.w3.org/2000/svg" viewBox="0 0 1920 1080"><defs><style>.cls-1{fill:#fff;}</style></defs><title>active</title><path class="cls-1" d="M1855.4,830.81c-10.09-40.17-34.79-137-46.45-168.89-14.33-42.45-53.11-49.37-58.9-50.17-10.91-2.46-207.74-46.89-233.92-53.28l-.94-.18c-24.53-3.55-44.16-.63-58.33,8.69a45.46,45.46,0,0,0-19.81,28.41c-.16.49-.31,1-.45,1.48-8.07,27.67,4.08,57.09,29.55,71.54l81.3,46.15c24.74,16,21.57,33.79,19.24,46.76l-.18,1c-3.71,10.77-10.15,18.24-19.15,22.22a34.34,34.34,0,0,1-13.58,3c-16-.74-385.38-17.68-413.88-18.38-35.85-9.29-45.1-24.9-49.07-31.61l-.23-.36c-8.61-13.21-4.26-40.15-1.73-49.94,13.23-36.8,4.91-57.49-4.42-68.38l-.64-.68c-29.38-28.39-72.79-29.87-87-30.36l-1.71-.06h-.28c-37.16.69-64.91,38.07-68.09,42.53-12,14.59-107,129.72-114.3,140.22l-.28.42-.25.43c-21.39,38.57-27.58,80.15-18.39,123.57l.14.65.22.63c10,28.11,35.25,47,73,54.64a198.07,198.07,0,0,0,51.88,3.22l714.24,1.59c3.27.1,33.69,1,68.84,1,32.77,0,69.65-.76,92.44-3.64h.1c60.78-8.31,75.17-48.11,80.58-63.09.28-.77.53-1.47.77-2.1,1.72-4.58,2.81-10.41,3.33-17.81A124.17,124.17,0,0,0,1855.4,830.81ZM1839,868.57c-.47,6.71-1.41,10.34-2.11,12.2l-.85,2.33c-5.09,14.08-15.68,43.38-64.41,50.06-46.11,5.81-157.16,2.54-158.27,2.51h-.14l-715-1.59h-.49l-.48,0c-.85.08-85.43,7.43-104.43-44-8-38.67-2.73-74.2,16.2-108.57,7.57-10.46,84-103.4,113.26-138.81l.5-.66c.24-.33,23.77-33.59,52-34.3l1.19,0c13.6.46,49.62,1.69,73.47,24.41,8.07,9.8,8.2,27,.36,48.63l-.26.83c-1.16,4.35-10.88,43,4.07,66.23,4.91,8.28,17.87,29.7,62.4,40.91l1.2.31h1.24c10.9,0,275.77,12,414.21,18.37,13.55.77,42-6.54,53-39.54l.23-.7.43-2.42c2.55-14.26,7.87-44-28.33-67.25l-.23-.15L1476,651c-17.37-9.86-25.68-29.82-20.22-48.56.15-.49.3-1,.46-1.49l.19-.59.12-.61c2.65-13.94,18.57-26.94,55.29-21.75,28.74,7,225.82,51.44,234.24,53.34l.56.13.57.06c.31,0,31.69,3.8,42.8,36.86l.09.25c11.63,31.79,38.06,135.88,45.89,167A104.29,104.29,0,0,1,1839,868.57Z"/></svg>