<?xml version="1.0" encoding="utf-8"?>
<!-- Generator: Adobe Illustrator 24.0.1, SVG Export Plug-In . SVG Version: 6.00 Build 0)  -->
<svg version="1.1" id="Grand_Prix_-_Config" xmlns="http://www.w3.org/2000/svg" xmlns:xlink="http://www.w3.org/1999/xlink"
	 x="0px" y="0px" viewBox="0 0 1920 1080" style="enable-background:new 0 0 1920 1080;" xml:space="preserve">
<style type="text/css">
	.st0{fill:#FFFFFF;}
</style>
<title>active</title>
<path class="st0" d="M1842.8,651.5l-0.1-0.9c-1.4-16.5-3.6-44.1-31-61.2c-14.1-8.8-30.9-19.4-48.7-30.7
	c-50-31.6-106.8-67.4-145.2-90c-34-20-85.6-50.7-135.6-80.4c-39.9-23.7-77.5-46.1-104.1-61.8c-15.4-9.1-46.1-27.1-61.4-35.9
	c-28.4-16.4-75.9-43.8-141.5-28.1c-16,3.8-38,9.1-59.3,40.4l-0.2,0.4c-0.1,0.2-10.4,17.5-13.8,23c-2.6,4.1-6.2,8-16.2,2.7
	c-3.4-1.8-9.2-3.9-13.5-5.5c-0.8-0.3-1.5-0.6-2.2-0.8c-8.4-3.1-20.7-5-31.7,14.6c-2.5,4.4-5.5,9.8-8.8,15.8
	c-11.4,20.4-25.6,45.8-33.8,60.7c-2,3.7-4.4,8.1-7.1,12.9c-11.2,20.4-26.5,48.3-35.3,63.4c-13.7,23.4-31.3,46.1-73.2,80.7
	c-9.4,7.8-22.3,18.5-49.3,18.7c-48.3,0.4-295.9,2-423-3.3c-22-0.9-44.1-3.2-65.7-6.7c-20.1-3.5-61.8-12.1-80-16.8
	c-35-9-95-26.9-117.1-39.3c-19.6-10.9-41.8-30.3-45.3-51.8c-1.4-8.8,3.6-20.2,13.8-31.4c11.6-12.7,32.5-28.4,65.7-30.8
	c9.8-0.7,24.8,2.2,40.7,20c16.2,18.2,54.2,60.7,74.4,80.4c24.7,24,57,49.6,109.5,57.9l2,0.3c32.6,5.2,73.2,11.6,134-0.7
	c32.4-6.6,77.2-22.1,106.8-58.4c15.3-18.8,25.7-41.4,30.9-67.3c2.6-12.8,6.9-32.7,11-51.9c3.1-14.3,6-27.8,8-37.5
	c0.2-0.9,0.4-1.9,0.6-2.9c0.9-5,2.3-12.6,6.2-15.2c1.8-1.2,4.5-1.4,8-0.7c3.9,0.9,8.2,1.9,7.2,27.4c-0.3,7.4-1.6,19.9-2.7,31
	c-0.6,5.4-1.1,10.5-1.4,14.4c-1.3,15.4-0.8,34.1,12,55.7c15.2,25.6,60.8,102.5,60.8,102.5l12.9-7.7c0,0-45.6-76.9-60.8-102.5
	c-10.7-18-11-33.8-10-46.8c0.3-3.7,0.8-8.8,1.4-14.1c1.1-11.2,2.5-24,2.8-31.9c1-24-1.7-38.7-18.9-42.6c-7.7-1.7-14.3-0.7-19.6,2.8
	c-9.2,6.1-11.3,17.9-12.6,25c-0.2,0.9-0.3,1.8-0.5,2.6c-2,9.7-4.9,23.1-8,37.4c-4.1,19.3-8.4,39.2-11,52.1
	c-4.7,23.5-14,43.9-27.8,60.7c-26.8,32.9-68.2,47.1-98.2,53.2c-58.2,11.8-95.6,5.9-128.7,0.6l-2-0.3c-48.4-7.7-78.4-31.5-101.4-53.9
	c-19.9-19.3-57.6-61.6-73.7-79.6c-20-22.4-39.8-25.9-53-25c-40.2,2.9-64.7,23.6-75.7,35.6C88.9,445,82.7,460.5,84.9,474
	c5.4,33.8,41.8,56.4,52.8,62.5c25.1,14,89.9,32.8,120.7,40.7c18.5,4.8,60.8,13.5,81.3,17c22.3,3.6,45,6,67.6,6.9
	c127.4,5.3,375.4,3.6,423.8,3.3c29.8-0.2,45.4-11.1,58.7-22.2c43.5-36,62.1-59.9,76.5-84.7c8.9-15.3,24.3-43.3,35.5-63.8
	c2.6-4.8,5-9.2,7.1-12.9c8.1-14.8,22.9-41.3,33.7-60.6c3.3-6,6.4-11.4,8.8-15.8c5.9-10.7,9.4-9.4,13.3-7.9c0.6,0.2,1.4,0.5,2.2,0.8
	c3.4,1.3,9.2,3.4,11.7,4.7c14.7,7.8,27.8,4.9,35.9-8c3.4-5.4,12.7-21,13.9-23.1c18-26.3,35.1-30.4,50.2-34.1
	c59.8-14.4,102.4,10.2,130.5,26.5c15.2,8.8,45.9,26.8,61.3,35.8c26.5,15.7,64.2,38.1,104.1,61.8c50,29.7,101.6,60.5,135.7,80.4
	c38.3,22.5,94.9,58.2,144.8,89.8c17.8,11.3,34.7,21.9,48.8,30.7c21,13.1,22.7,34.3,24,49.7l0.1,0.9c0.6,7.6,1.3,21.5,0.9,27.9
	c-1.1,17.9-4.3,24-8.3,30.2c-6.5,10.1-16.3,13.7-23.4,15c-12.6,2.3-25.7-1.1-31.7-5.4c-21.3-15.5-59.8-46.5-85.3-66.9
	c-4.1-3.3-7.9-6.4-11.3-9c-37.1-29.7-60.8-22.7-81.9-13.1c-32.9,15-52.5,2.8-63.1-10.1c-5.5-6.7-13.1-18.2-20.5-29.4
	c-5.7-8.7-11.2-16.9-15.4-22.5c-30.8-40.8-70.1-29.1-96.1-21.3c-4.4,1.3-8.5,2.5-12,3.4c-37.6,8.7-53.8-0.1-63.6-8.7
	c-23.2-20.3-22-41.7-21.1-57.3l0-0.6c0.7-12.4,2-35.6,0.2-47.7c-4.5-31.2-20.5-52.4-47.5-63c-20.8-8.2-43.6-8.3-61.2-7.4
	c-116.6,5.5-157.3,83.4-169.4,116.6c-5.3,14.5-14.2,36.8-22.9,58.4c-7.2,18-14,35-18.5,47c-4.2,11.1-8.8,17.8-13.7,19.8
	c-10.6,4.3-24.7,10.7-39.8,17.5c-17.9,8.1-36.3,16.4-49.8,21.7c-12.7,5-19.5,2-21.7-2.5c-1.5-3.1-6-11.1-6.2-11.5
	c-2-3.6-6.6-4.9-10.2-2.9s-4.9,6.6-2.9,10.2c1.2,2.2,4.7,8.5,5.8,10.8c4.9,10,18.5,18.6,40.7,9.9c13.8-5.4,32.5-13.9,50.5-22
	c14.9-6.7,28.9-13.1,39.2-17.3c9.2-3.8,16.2-12.8,22.1-28.4c4.5-11.9,11.2-28.8,18.4-46.7c8.7-21.7,17.7-44.1,23-58.8
	c11.1-30.4,48.4-101.7,156-106.8c16.1-0.8,36.9-0.7,55,6.4c22,8.6,34.5,25.4,38.2,51.2c1.6,10.6,0.3,33.6-0.3,44.7l0,0.6
	c-0.9,16.6-2.5,44.4,26.3,69.5c18.4,16,42.8,19.9,76.8,12c4-0.9,8.4-2.2,13-3.6c24.7-7.4,55.3-16.6,79.8,15.9
	c4,5.3,9.3,13.3,14.9,21.8c7.6,11.5,15.5,23.4,21.5,30.7c9.2,11.2,35.6,34.9,80.9,14.2c14.8-6.8,33.3-15.2,66.3,11.2
	c3.3,2.7,7.1,5.7,11.3,9c25.6,20.5,64.3,51.6,85.9,67.3c6.8,5,18.5,9.1,31.8,9.1c3.7,0,7.5-0.3,11.4-1c14.3-2.6,25.8-10.1,33.2-21.6
	c5.8-9,9.5-18,10.7-37.4C1844.2,674.1,1843.5,659.2,1842.8,651.5z"/>
</svg>
