<?xml version="1.0" encoding="utf-8"?>
<!-- Generator: Adobe Illustrator 24.0.1, SVG Export Plug-In . SVG Version: 6.00 Build 0)  -->
<svg version="1.1" id="Iowa_Oval__Config" xmlns="http://www.w3.org/2000/svg" xmlns:xlink="http://www.w3.org/1999/xlink" x="0px"
	 y="0px" viewBox="0 0 1920 1080" style="enable-background:new 0 0 1920 1080;" xml:space="preserve">
<style type="text/css">
	.st0{fill:#FFFFFF;}
</style>
<title>active</title>
<path class="st0" d="M1559.2,223.9c-36.2-37.7-82.5-67-137.8-86.9c-44.6-16.1-94.7-25.5-141.1-26.4c-119.5-2.3-301.8-5.3-504.2-4
	c-77.6,0.5-146.7,11.4-205.1,32.3c-52.5,18.8-96.9,45.7-132.1,80.1c-78.8,77.1-90.6,169.1-90.6,217.1c0,114.1,61.5,195.7,113.1,244
	c65.7,61.5,143.8,97,195,109.7c116.3,28.8,232.7,43.4,346.6,43.4c15.9,0,31.8-0.3,47.6-0.9c108.3-3.9,216.9-21.3,322.9-51.6
	c71.7-20.5,138.8-63.3,188.9-120.4c51.6-58.7,80.8-128.2,82.3-195.5C1647,366.6,1618.2,285.6,1559.2,223.9z M1624.8,464.3
	c-2.9,128.3-113.3,256.1-256.8,297.2c-228.7,65.5-466.5,68.5-706.8,8.9c-95.6-23.7-292.9-136.6-292.9-334.3
	c0-148.3,107.2-307.5,408-309.4c34.4-0.2,68.3-0.3,101.3-0.3c161,0,303.2,2.4,402.3,4.3c79.9,1.6,191.4,30.5,264.8,107.1
	C1600,295.4,1626.9,371.6,1624.8,464.3z"/>
</svg>
