<?xml version="1.0" encoding="utf-8"?>
<!-- Generator: Adobe Illustrator 24.0.1, SVG Export Plug-In . SVG Version: 6.00 Build 0)  -->
<svg version="1.1" id="Lanier_Oval__Config" xmlns="http://www.w3.org/2000/svg" xmlns:xlink="http://www.w3.org/1999/xlink"
	 x="0px" y="0px" viewBox="0 0 1920 1080" style="enable-background:new 0 0 1920 1080;" xml:space="preserve">
<style type="text/css">
	.st0{fill:#FFFFFF;}
</style>
<title>active</title>
<path class="st0" d="M1522,488.1c-2-60.9-16.8-115.6-43.9-162.7c-23.4-40.5-55.8-75.3-96.5-103.3c-86.8-60-181.6-70-208.6-71.7
	c-70.3-4.3-175.7-3.1-277.7-1.9c-53,0.6-103.1,1.2-146.6,1c-53.7-0.3-104.1,9.6-149.8,29.2c-41.4,17.8-78.2,43.3-109.2,75.8
	c-29.6,30.9-53.4,68-68.9,107.2c-14.9,37.8-21.8,76.7-20.1,112.5c5.5,112.9,47.2,198.6,124,254.7c56.3,41.2,129.5,65.5,223.9,74.4
	c52.1,4.9,129.9,6.2,207.5,6.2c46.2,0,92.2-0.4,132.7-0.8c26.5-0.3,51.6-0.5,71.8-0.6c55.5-0.2,108.2-10.5,156.9-30.9
	c46.3-19.3,86.7-46.6,120-81.1C1494.4,637.1,1524.4,563.2,1522,488.1z M1387.1,647.5c-55.3,57.3-138,90.4-226.8,90.6
	c-20.4,0.1-45.6,0.3-72.3,0.6c-107,1-253.6,2.5-333-5.1C568.9,716,478.5,632.4,470.5,470.7c-2.7-55.8,23.9-120.2,69.6-167.9
	c36.5-38.1,101.8-83.4,206.4-83.4c0.6,0,1.2,0,1.7,0c44.1,0.2,94.5-0.4,147.8-1c100.7-1.2,204.9-2.3,272.6,1.8
	c46.2,2.8,115.9,19.9,173.1,59.4C1411.9,328.1,1449,399,1452,490.3C1453.8,546.4,1430.8,602.2,1387.1,647.5z"/>
</svg>
