<?xml version="1.0" encoding="utf-8"?>
<!-- Generator: Adobe Illustrator 24.0.1, SVG Export Plug-In . SVG Version: 6.00 Build 0)  -->
<svg version="1.1" id="Iowa_Road__Config" xmlns="http://www.w3.org/2000/svg" xmlns:xlink="http://www.w3.org/1999/xlink" x="0px"
	 y="0px" viewBox="0 0 1920 1080" style="enable-background:new 0 0 1920 1080;" xml:space="preserve">
<style type="text/css">
	.st0{fill:#FFFFFF;}
</style>
<title>active</title>
<path class="st0" d="M1608.9,295.7c-21.7-42.8-53-79.4-93.2-108.8c-34.4-25.2-74.6-44.7-119.5-57.9c-37.9-11.2-78-17.5-115.9-18.3
	l-17.9-0.4c-125.5-2.5-297.5-5.9-486.3-3.6c-71.7,0.8-134,52.6-167.5,80.5c-5.2,4.3-9.7,8.1-13.3,10.8c-36.4,27.9-60,47.1-81.7,78.8
	c-7.5,11-17.8,26.8-28.8,43.4c-11.4,17.4-23.2,35.5-31.5,47.6c-15.9,23.1-21.5,48.7-15.5,70.2c4.5,16.2,14.2,28.2,28,34.7
	c17.3,8.2,36,5.7,46.8,1c31-13.4,103.5-44.9,138.4-63.2c18.4-9.7,30-26.1,34.7-48.7c3.6-17.7,2.2-35.2,1.2-46.8l-0.1-1.7
	c-1.4-17.1,2.9-31.3,13-42.4c12.3-13.6,31.3-20,43.8-20.2c18-0.3,45.3-1.3,71.7-2.2c26.3-0.9,53.6-1.9,71.4-2.2
	c44.3-0.8,57.9,29.9,62.1,48.2c3.8,16.8,8.9,50.6,9.5,67.5c0.9,23.6-17.3,35.5-37,44.8C839.7,445.3,683,516.5,598.8,553.2
	c-72.7,31.6-65.7,79.3-61.9,104.8c5.3,36.1,20,66.3,43.7,89.9c20.1,19.9,46.2,34.4,75.7,41.9c115.3,29.3,231.1,44.1,345.1,44.1
	c16.4,0,32.8-0.3,49.1-0.9c107.5-4,216.2-21.6,323-52.2c70.9-20.3,138.2-64.1,189.5-123.3c51.9-59.9,80.9-128.3,81.8-192.7
	C1645.7,401.3,1633.6,344.4,1608.9,295.7z M1624.8,464.4c-1.7,123.8-116.9,257-256.8,297.1c-234.6,67.2-465.8,70.1-706.8,8.9
	c-27.4-7-92.4-32.1-104.6-115.3c-3.6-24.5-8.6-58.1,50.1-83.6c84.4-36.7,241.3-108.1,323-146.8c14.9-7.1,49.8-23.7,48.4-63.6
	c-0.7-18.2-5.9-53.2-10-71.2c-2.6-11.4-8.5-27.9-21.8-41.5c-14.6-14.8-34.1-22.3-58-22.3c-0.7,0-1.4,0-2.1,0
	c-18,0.3-45.3,1.3-71.7,2.2c-26.3,0.9-53.6,1.9-71.4,2.2c-17.2,0.3-41.9,8.7-58.3,26.8c-13.7,15.1-19.9,35-18.1,57.5l0.1,1.8
	c1.8,21,5,60.1-25.3,76.1c-34.1,18-106.2,49.2-137,62.6c-7.2,3.1-19.7,4.3-30.2-0.7c-8.5-4-14.3-11.4-17.3-22
	c-4.4-15.7,0.2-35.2,12.7-53.4c8.4-12.3,20.3-30.4,31.8-47.9c10.9-16.6,21.1-32.3,28.5-43.1c19.4-28.3,39.4-45.1,77.4-74.3
	c3.9-3,8.5-6.8,13.9-11.3c31.6-26.2,90.3-75.1,154.9-75.8c188.6-2.2,360.3,1.2,485.7,3.6l17.9,0.4
	C1409.7,133.2,1628.3,206.4,1624.8,464.4z"/>
</svg>
