<?xml version="1.0" encoding="utf-8"?>
<!-- Generator: Adobe Illustrator 24.0.1, SVG Export Plug-In . SVG Version: 6.00 Build 0)  -->
<svg version="1.1" id="Iowa_Legends_Oval__Config" xmlns="http://www.w3.org/2000/svg" xmlns:xlink="http://www.w3.org/1999/xlink"
	 x="0px" y="0px" viewBox="0 0 1920 1080" style="enable-background:new 0 0 1920 1080;" xml:space="preserve">
<style type="text/css">
	.st0{fill:#FFFFFF;}
</style>
<title>active</title>
<path class="st0" d="M1038.5,699.7c-6.4-0.1-13.2-0.3-20.4-0.5c-22.3-0.6-47.6-1.2-74.8-0.2c-21.6,0.8-54,15.4-54.5,52.1
	c-0.3,20.8,16.1,50.8,53.5,52.7h0c21.2,1.1,40.7,1.6,58.5,1.6c11.7,0,22.7-0.2,32.7-0.7c1,0,2.2-0.1,3.4-0.1
	c9.3-0.3,23.4-0.7,35.8-7.2c11-5.7,24-18.2,24-45.2C1096.8,720.4,1074.4,700.3,1038.5,699.7z M1036.3,784.5c-1.4,0-2.6,0.1-3.8,0.1
	c-24.6,1.1-54.6,0.8-89.3-0.9h0c-26.4-1.3-34.6-22.4-34.5-32.4c0.1-10.5,4.3-18.8,12.4-24.6c7.5-5.4,16.7-7.6,22.9-7.8
	c26.6-1,51.6-0.4,73.6,0.2c7.2,0.2,14,0.4,20.5,0.5c17.6,0.3,38.6,6.2,38.6,32.4C1076.8,781,1058.4,783.9,1036.3,784.5z"/>
</svg>
