<?xml version="1.0" encoding="utf-8"?>
<!-- Generator: Adobe Illustrator 24.0.1, SVG Export Plug-In . SVG Version: 6.00 Build 0)  -->
<svg version="1.1" id="Iowa_Infield_Legends__Config"
	 xmlns="http://www.w3.org/2000/svg" xmlns:xlink="http://www.w3.org/1999/xlink" x="0px" y="0px" viewBox="0 0 1920 1080"
	 style="enable-background:new 0 0 1920 1080;" xml:space="preserve">
<style type="text/css">
	.st0{fill:#FFFFFF;}
</style>
<title>active</title>
<path class="st0" d="M790.8,395.7c-14.9-21.6-33.6-32.9-55.8-33.6c-18-0.5-33.8,6.1-43.2,10.1c-43.6,18.4-112,51.9-157.2,74.1
	l-7.3,3.6h0c-13.6,6.7-24.4,20-29.6,36.5c-5.2,16.6-4,34.7,3.2,49.8c12,25.1,30.7,35.5,44.2,39.8c7.2,2.3,14.9,3.4,22.5,3.4
	c8.3,0,16.4-1.3,23.6-4c40.1-14.8,96.8-40.9,138.3-59.9c9-4.1,17.3-7.9,24.5-11.2c30.3-13.8,41.6-34.6,45.8-49.6
	C806.4,430.4,799.1,407.7,790.8,395.7z M780.4,449.3c-4.4,15.9-16.1,28.2-34.8,36.7c-7.2,3.3-15.6,7.1-24.6,11.3
	c-41.1,18.9-97.5,44.8-136.8,59.3c-12.2,4.5-47.6,8-65.3-29c-11.2-23.4,0-51.3,17.2-59.7h0l7.3-3.6c45-22.1,113.1-55.4,156.2-73.6
	c23.8-10.1,51.2-17.9,74.8,16.3C780.4,415.9,785,432.9,780.4,449.3z"/>
</svg>
