<?xml version="1.0" encoding="utf-8"?>
<!-- Generator: Adobe Illustrator 24.0.1, SVG Export Plug-In . SVG Version: 6.00 Build 0)  -->
<svg version="1.1" id="Moto_-_Config" xmlns="http://www.w3.org/2000/svg" xmlns:xlink="http://www.w3.org/1999/xlink" x="0px"
	 y="0px" viewBox="0 0 1920 1080" style="enable-background:new 0 0 1920 1080;" xml:space="preserve">
<style type="text/css">
	.st0{fill:#FFFFFF;}
</style>
<title>active</title>
<path class="st0" d="M1842.9,651.5l-0.1-0.8c-1.4-16.5-3.7-44.1-31-61.3c-13.6-8.5-29.7-18.7-46.8-29.5
	c-48.2-30.5-108.2-68.4-147.2-91.2c-33.8-19.9-85.2-50.4-134.9-80c-40.2-23.9-78.1-46.5-104.8-62.2c-4.3-2.6-42.9-25.3-61.4-35.9
	c-30.6-17.7-77-44.5-141.6-28c-16.7,4.3-36.5,12.2-56.6,38.7c-0.2,0.3-0.5,0.6-0.7,1c-0.7,0.9-2.5,3.4-3.8,4.4
	c-0.7-0.7-1.9-2.2-3.6-5.8c-2.4-5.3-6-8.6-10.6-10c-5.8-1.7-12.4-0.3-20.1,4.6c-17.3,10.7-38.5,37.8-40.8,40.9
	c-10,13-22.6,37.6-32.8,57.4c-3.9,7.5-7.5,14.7-10.4,20l-5.3,9.6c-11.1,20.2-27.8,50.7-37.1,66.6c-13.7,23.4-31.3,46.1-73.1,80.7
	c-9.5,7.8-22.5,18.5-49.3,18.7c-48.3,0.4-295.9,2-423-3.3c-22-0.9-44.1-3.2-65.7-6.7c-20.1-3.5-61.8-12.1-80-16.8
	c-35-9-95-26.9-117.1-39.3c-6.8-3.8-40.8-24-45.4-51.8c-1.4-8.8,3.6-20.2,13.8-31.4c11.7-12.7,32.5-28.4,65.8-30.8
	c9.8-0.7,24.8,2.2,40.7,20c16.2,18.2,54.2,60.7,74.4,80.4c24.7,24,57,49.6,109.5,57.9c3.2,0.5,6.5,1.1,9.9,1.6
	c31.5,5.3,70.7,11.9,126.4-2.1c14-3.5,32.7-9.2,41.8-16.2c7.1-5.4,15.7-13.6,19.8-28.2c0.1-0.4,0.3-0.9,0.4-1.4
	c0.9-3.2,1.8-6.9,4.2-8.2c2.2-1.3,6.5-1.1,11.9,0.5c11.6,3.4,21.2,0.9,28.4-7.2c12.9-14.5,26.7-43.6,30.8-64.9
	c2.7-14.1,7.7-37.2,12.2-57.6c2.6-12,5.1-23.4,6.8-31.8c0.2-0.9,0.4-1.9,0.6-2.9c0.9-5,2.3-12.6,6.1-15.2c1.8-1.2,4.5-1.4,8.1-0.7
	c3.8,0.8,8.2,1.8,7.1,27.4c-0.3,7.2-1.5,19.2-2.6,29.8c-0.6,5.9-1.2,11.4-1.5,15.6c-1.2,14.5-1,33.9,12,55.7
	c15.2,25.6,60.8,102.5,60.8,102.5l12.9-7.7c0,0-45.6-76.9-60.8-102.5c-10.7-18-11.1-33.8-10-46.8c0.3-4,0.9-9.5,1.5-15.3
	c1.1-10.8,2.4-23,2.7-30.6c1-24.2-1.7-38.9-18.9-42.7c-7.7-1.7-14.3-0.7-19.6,2.9c-9.2,6.1-11.3,17.9-12.6,25
	c-0.2,0.9-0.3,1.8-0.5,2.5c-1.8,8.4-4.2,19.7-6.8,31.7c-4.4,20.5-9.5,43.6-12.2,57.9c-3.5,18.4-16.3,45.4-27.2,57.8
	c-3.9,4.4-7.9,4.3-13.1,2.8c-9.8-2.8-17.4-2.6-23.5,0.8c-7.8,4.4-10,12.5-11.3,17.3c-0.1,0.4-0.2,0.8-0.3,1.2
	c-2.9,10.3-8.7,15.9-14.5,20.4c-5.4,4.1-19,9.2-36.4,13.6c-52.7,13.2-90.2,6.9-120.3,1.9c-3.4-0.6-6.8-1.1-10-1.7
	c-48.4-7.7-78.4-31.5-101.4-53.9c-19.9-19.3-57.6-61.6-73.7-79.6c-20-22.4-39.8-26-52.9-25c-40.2,2.9-64.8,23.5-75.8,35.6
	c-13.5,14.8-19.8,30.4-17.6,43.9c5.5,33.8,41.9,56.4,52.9,62.5c25.1,14,89.9,32.8,120.7,40.7c18.5,4.8,60.8,13.5,81.3,17
	c22.3,3.6,45,6,67.6,6.9c127.4,5.3,375.4,3.6,423.8,3.3c32.1-0.3,48.1-13.4,58.7-22.2c43.5-36,62.1-59.9,76.5-84.7
	c9.4-16.1,26.2-46.7,37.3-67l5.3-9.6c3-5.5,6.7-12.7,10.6-20.3c9.9-19.2,22.1-43.2,31.3-55.1c10.3-13.3,26.2-30.7,36.8-37.3
	c5.7-3.5,7.8-3,7.9-2.9c0.1,0,0.6,0.2,1.3,1.9c1.6,3.4,6.3,13.8,15.7,14.8c8.9,0.9,14.6-7,17.4-10.8c0.2-0.3,0.4-0.6,0.6-0.8
	c17.2-22.9,34.1-29.6,48.3-33.2c58.7-14.9,101.9,10,130.4,26.5c18.4,10.6,56.9,33.3,61.3,35.8c26.7,15.8,64.6,38.3,104.8,62.2
	c49.7,29.6,101.1,60.1,135,80c38.8,22.7,98.6,60.6,146.7,91c17.1,10.8,33.3,21,46.9,29.5c21,13.2,22.7,34.3,24,49.8l0.1,0.8
	c0.6,7.5,1.3,21.4,0.9,27.9c-1.1,17.8-4.4,24.2-8.3,30.2c-6.5,10.1-16.3,13.7-23.4,15c-12.6,2.3-25.7-1.1-31.7-5.4
	c-21.3-15.5-59.7-46.4-85.2-66.8c-4.2-3.4-8.1-6.5-11.4-9.2c-37.1-29.7-60.8-22.7-81.9-13.1c-32.9,15-52.5,2.8-63.1-10.1
	c-5.5-6.7-13.2-18.3-20.6-29.5c-5.7-8.6-11.1-16.8-15.3-22.4c-30.8-40.8-70.1-29.1-96.1-21.3c-4.4,1.3-8.5,2.5-12,3.4
	c-37.6,8.7-53.7-0.1-63.6-8.7c-23.2-20.3-22-41.7-21.1-57.3l0-0.2c0.7-12.5,2-35.9,0.2-48.1c-4.5-31.2-20.5-52.4-47.5-63
	c-20.8-8.2-43.7-8.3-61.2-7.4c-116.6,5.5-157.4,83.4-169.4,116.6c-5.4,14.7-14.4,37.3-23.1,59.1c-7.1,17.7-13.8,34.4-18.3,46.3
	c-4.2,11.1-8.8,17.8-13.7,19.8c-10.5,4.3-24.6,10.7-39.5,17.4c-18,8.1-36.5,16.5-50.1,21.9c-12.7,5-19.5,1.9-21.8-2.6
	c-1.5-3-6-11-6.1-11.4c-2-3.6-6.6-4.9-10.2-2.9c-3.6,2-4.9,6.6-2.9,10.2c0,0.1,4.5,8.1,5.8,10.8c4.9,10,18.5,18.6,40.7,9.9
	c13.9-5.5,32.7-13.9,50.8-22.1c14.8-6.7,28.8-13,39-17.2c9.2-3.8,16.2-12.8,22.1-28.4c4.4-11.7,11.1-28.4,18.1-46
	c8.8-21.9,17.9-44.6,23.3-59.5c11.1-30.4,48.4-101.7,156-106.8c16.1-0.8,36.9-0.7,55.1,6.4c22,8.6,34.4,25.4,38.2,51.2
	c1.6,10.8,0.3,34-0.3,45.1l0,0.2c-0.9,16.6-2.5,44.4,26.3,69.5c18.4,16.1,42.8,19.9,76.8,12c4-0.9,8.4-2.2,13-3.6
	c24.7-7.4,55.3-16.6,79.8,15.9c4,5.3,9.2,13.2,14.8,21.6c7.6,11.5,15.5,23.5,21.6,30.8c9.2,11.2,35.6,34.9,80.9,14.2
	c14.8-6.8,33.3-15.2,66.3,11.2c3.4,2.7,7.2,5.8,11.4,9.2c25.6,20.5,64.2,51.5,85.7,67.2c6.8,5,18.5,9.1,31.8,9.1
	c3.7,0,7.5-0.3,11.4-1c14.3-2.6,25.8-10.1,33.2-21.6c5.8-9,9.5-18,10.7-37.4C1844.2,674.1,1843.5,659.2,1842.9,651.5z"/>
</svg>
