<?xml version="1.0" encoding="utf-8"?>
<!-- Generator: Adobe Illustrator 24.0.1, SVG Export Plug-In . SVG Version: 6.00 Build 0)  -->
<svg version="1.1" id="East_-_Config" xmlns="http://www.w3.org/2000/svg" xmlns:xlink="http://www.w3.org/1999/xlink" x="0px"
	 y="0px" viewBox="0 0 1920 1080" style="enable-background:new 0 0 1920 1080;" xml:space="preserve">
<style type="text/css">
	.st0{fill:#FFFFFF;}
</style>
<title>active</title>
<path class="st0" d="M1842.8,651.5l-0.1-0.8c-1.4-16.5-3.7-44.1-31-61.3c-13.5-8.5-29.6-18.6-46.6-29.4
	c-48.3-30.5-108.4-68.5-147.4-91.4c-33.8-19.9-85.2-50.4-134.9-80c-40.2-23.9-78.1-46.5-104.8-62.2c-4.3-2.6-42.9-25.3-61.4-35.9
	c-26.6-15.4-88.9-51.4-144.2-22.4c-16.4,8.6-28.7,33.8-19.1,63.5c4.4,13.7,15.3,37.6,39.1,44.8c6.4,1.9,13.5,2.8,21.1,3.7
	c27.9,3.4,56.8,6.9,66.9,59.4v0c1.8,9.1,0.6,28.4-0.1,40c-0.1,1.8-0.2,3.5-0.3,5c-0.9,16.6-2.5,44.4,26.3,69.5
	c18.4,16.1,42.8,19.9,76.8,12c4-0.9,8.4-2.2,13-3.6c24.7-7.4,55.3-16.6,79.8,15.9c4,5.3,9.2,13.2,14.8,21.6
	c7.6,11.5,15.5,23.5,21.6,30.8c9.2,11.2,35.6,34.9,80.9,14.2c14.8-6.8,33.3-15.2,66.3,11.2c3.4,2.7,7.3,5.8,11.5,9.2
	c25.5,20.5,64.2,51.5,85.7,67.2c6.8,5,18.5,9.1,31.8,9.1c3.7,0,7.5-0.3,11.4-1c14.3-2.6,25.8-10.1,33.2-21.6c5.8-9,9.5-18,10.7-37.4
	C1844.2,674.1,1843.5,659.2,1842.8,651.5z M1828.8,680.7c-1.1,17.8-4.4,24.2-8.3,30.2c-6.5,10.1-16.3,13.7-23.4,15
	c-12.6,2.3-25.7-1.1-31.7-5.4c-21.2-15.5-59.7-46.3-85.1-66.7c-4.2-3.4-8.1-6.5-11.5-9.2c-20.1-16-36.2-21.4-50.1-21.4
	c-11.8,0-22.1,3.9-31.8,8.3c-32.9,15-52.5,2.8-63.1-10.1c-5.5-6.7-13.2-18.3-20.6-29.5c-5.7-8.6-11.1-16.8-15.3-22.4
	c-30.8-40.8-70.1-29.1-96.1-21.3c-4.4,1.3-8.5,2.5-12,3.4c-37.6,8.7-53.7-0.1-63.6-8.7c-23.2-20.3-22-41.7-21.1-57.3
	c0.1-1.5,0.2-3.1,0.3-4.9c0.8-13,2-32.8-0.1-43.7c-5.4-27.8-16.4-46.8-33.8-58c-14.9-9.6-31.5-11.7-46-13.4
	c-6.9-0.8-13.4-1.6-18.6-3.2c-17.8-5.4-26.3-26.3-29.1-35c-7.5-23.3,2.4-40.7,11.8-45.6c48-25.1,103.2,6.8,129.8,22.1
	c18.4,10.6,56.9,33.3,61.3,35.8c26.7,15.8,64.6,38.3,104.8,62.2c49.7,29.6,101.1,60.1,135,80c38.8,22.8,98.8,60.7,147,91.1
	c17,10.8,33.1,20.9,46.6,29.4c21,13.2,22.7,34.3,24,49.8l0.1,0.8C1828.5,660.3,1829.2,674.2,1828.8,680.7z"/>
</svg>
