<?xml version="1.0" encoding="utf-8"?>
<!-- Generator: Adobe Illustrator 24.0.1, SVG Export Plug-In . SVG Version: 6.00 Build 0)  -->
<svg version="1.1" id="West_Chicane_-_Config" xmlns="http://www.w3.org/2000/svg" xmlns:xlink="http://www.w3.org/1999/xlink"
	 x="0px" y="0px" viewBox="0 0 1920 1080" style="enable-background:new 0 0 1920 1080;" xml:space="preserve">
<style type="text/css">
	.st0{fill:#FFFFFF;}
</style>
<title>active</title>
<path class="st0" d="M1096.9,376.8c-3.7-4.1-9.2-9.5-15-15.3c-5-5-10.2-10.2-13.8-14.1c-3.9-4.2-11.6-9-20.3-8.5
	c-4.8,0.3-11.9,2.3-18,10.5c-10.1,13.6-22,37.7-30.7,55.3c-1.6,3.3-3.2,6.4-4.6,9.2c-9.8,19.5-30.6,57.9-41.3,76
	c-13.7,23.4-31.3,46.1-73.2,80.7c-9.4,7.8-22.3,18.5-49.3,18.7c-48.3,0.4-295.9,2-423-3.3c-22-0.9-44.1-3.2-65.7-6.7
	c-20.1-3.5-61.8-12.1-80-16.8c-35-9-95-26.9-117.1-39.3c-19.6-10.9-41.8-30.3-45.3-51.8c-1.4-8.8,3.6-20.2,13.8-31.4
	c11.6-12.7,32.5-28.4,65.7-30.8c9.8-0.7,24.8,2.2,40.7,20c16.2,18.2,54.2,60.7,74.4,80.4c24.7,24,57,49.6,109.5,57.9
	c5,0.8,10.2,1.8,15.8,2.8c30.9,5.9,69.4,13.2,121-3.5c9.9-3.2,32.9-12.9,41.1-19.3c9.4-7.4,19-23.2,22-28.7
	c2.5-4.6,4.2-7.9,15.4-5.5c16.4,3.5,29.9-3,37-17.8c0.8-1.7,1.7-3.5,2.6-5.3c5.5-11.3,12.5-25.3,18.8-48.3
	c4.7-16.9,10.2-45,14.7-67.7c1.6-8.3,3.2-16.1,4.5-22.3c0.2-0.9,0.4-1.9,0.6-2.9c0.9-5,2.3-12.6,6.2-15.2c1.8-1.2,4.5-1.4,8-0.7
	c3.9,0.9,8.2,1.9,7.2,27.4c-0.3,7.4-1.6,19.9-2.7,31c-0.6,5.4-1.1,10.5-1.4,14.4c-1.3,15.4-0.8,34.1,12,55.7
	c15.2,25.6,60.8,102.5,60.8,102.5l12.9-7.7c0,0-45.6-76.9-60.8-102.5c-10.7-18-11-33.8-10-46.8c0.3-3.7,0.8-8.8,1.4-14.1
	c1.1-11.2,2.5-24,2.8-31.9c1-24-1.7-38.7-18.9-42.6c-7.7-1.7-14.3-0.7-19.6,2.8c-9.2,6.1-11.3,17.9-12.6,25
	c-0.2,0.9-0.3,1.8-0.5,2.6c-1.3,6.2-2.8,14.1-4.5,22.4c-4.4,22.4-9.9,50.3-14.4,66.6c-5.9,21.6-12.2,34.4-17.8,45.6
	c-0.9,1.8-1.8,3.6-2.7,5.4c-1.5,3.2-6.1,12.8-20.3,9.7c-22.2-4.8-28.6,7.3-31.8,13.1c-3.7,6.8-11.9,19.2-18,24
	c-5.6,4.4-25.5,13.3-36.4,16.8c-48,15.5-84.4,8.6-113.6,3c-5.7-1.1-11-2.1-16.2-2.9c-48.4-7.7-78.4-31.5-101.4-53.9
	c-19.9-19.3-57.6-61.6-73.7-79.6c-20-22.4-39.8-25.9-53-25c-40.2,2.9-64.7,23.6-75.7,35.6C88.9,445,82.7,460.5,84.9,474
	c5.4,33.8,41.8,56.4,52.8,62.5c25.1,14,89.9,32.8,120.7,40.7c18.5,4.8,60.8,13.5,81.3,17c22.3,3.6,45,6,67.6,6.9
	c127.4,5.3,375.4,3.6,423.8,3.3c29.8-0.2,45.4-11.1,58.7-22.2c43.5-36,62.1-59.9,76.5-84.7c10.9-18.7,31.6-56.7,41.7-76.9
	c1.4-2.8,3-5.9,4.6-9.3c8.5-17.1,20.1-40.5,29.4-53.1c3.2-4.3,5.9-4.4,6.7-4.5c3.6-0.2,7.2,2.4,8.4,3.7c3.8,4.1,9.1,9.4,14.2,14.5
	c5.4,5.4,11,11,14.5,14.8c1.3,1.4,1.9,2.7,1.8,3.6c-0.2,2.8-4.9,6.4-6.4,7.6c-31.1,24.4-54.7,60.3-64.2,85
	c-4.2,11-10.4,26.4-16.9,42.8c-9.2,23.2-18.7,47.2-24.6,62.8c-4.2,11.1-8.8,17.8-13.7,19.8c-10.6,4.3-24.7,10.7-39.8,17.5
	c-17.9,8.1-36.3,16.4-49.8,21.7c-12.7,5-19.5,1.9-21.7-2.5c-1.5-3.1-6-11.1-6.2-11.5c-2-3.6-6.6-4.9-10.2-2.9
	c-3.6,2-4.9,6.6-2.9,10.2c1.2,2.2,4.7,8.5,5.8,10.8c3.5,7.1,11.4,13.5,23.5,13.5c5,0,10.7-1.1,17.1-3.6c13.8-5.4,32.5-13.9,50.5-22
	c14.9-6.7,29-13.1,39.3-17.3c9.2-3.8,16.2-12.8,22.1-28.4c5.8-15.4,15.3-39.3,24.5-62.5c6.5-16.4,12.6-31.9,16.9-42.9
	c8.5-22.1,30.8-56.1,59.5-78.6c3.4-2.7,11.3-8.9,12.1-18.2C1102.9,388.1,1102.1,382.6,1096.9,376.8z"/>
</svg>
