<svg id="LongBeach_-_Config" data-name="LongBeach - Config" xmlns="http://www.w3.org/2000/svg" viewBox="0 0 1920 1080"><defs><style>.cls-1{fill:#fff;}</style></defs><title>active</title><path class="cls-1" d="M1162.67,984.42c-15.94,0-32.33-.77-49.17-2.45-102.91-9.43-205.64-60.14-260.83-87.38C845.44,891,839.21,888,834,885.47c-37.52-17.8-275.73-138.37-347.84-174.9l-.26-.13c-8.32-4.52-16-8.69-24.31-13.16L454,693.19c-12.08-6.53-28.49-11.43-38,2.29l-1.61,2.32c-24.54,35.43-47.72,68.89-141.33,87.38-.58.12-.76.17-.82.19-6,2-13.19,10.57-18.4,16.79-3.74,4.44-6.69,8-9.81,10.27-19.55,14.47-43,7.92-54.34-6.77l-.24-.34c-4.29-6-7.33-13.58-10-20.22-1.52-3.78-3.8-9.42-5.1-11-6.15-4.35-63.82-41.35-115.8-74.54C45.07,691.18,25.68,667,38.69,629.65,51,592.38,76.31,536.89,106.91,503.08c12.94-14.31,27.67-21.78,45-22.82,30-3,85.57,28.39,101.93,38.12C332.52,565.19,505,659.29,641.12,731.82c.69.33,1.45.71,2.27,1.12,7.93,3.95,21.22,10.57,34,5.36,11.86-4.84,21.92-18.89,29.9-41.79.08-.24.16-.48.22-.73,3.31-12.21,8.81-37.85,8.48-72.57-1.57-29.27-10.68-219.5-10.91-224.15-.08-1.34-.86-14.29-.48-28.87.78-29.57,5.68-38.85,9.29-43.25,12-14.6,23.73-21.46,58.08-21.14,30,.3,217.73-5.21,317.54-9h.13c10.63-.26,175.45-2.5,206.86,1.25l.58.06c26.11,1.69,255.42,16.55,267,17.45,9,.68,17.1,1.18,25,1.67,35.86,2.21,59.55,3.67,73.85,18.53,16.57,17.21,15.88,34,15.27,48.85-.73,18-3,96.71-1.61,108.92.12,1.09.24,2.36.37,3.79,1.43,15.52,4.4,47.81,44.14,61.56l.13,0c11.61,4.19,25.92,8.55,44.07,9.13h.83c4-.17,39.44-2.33,64.6-25.09a24.92,24.92,0,0,1,2.06-1.71c10.82-7.9,25.59-5.44,33.07,1.36,6.59,6,14.93,19.11-3.31,39.59-.3.35-.63.69-1,1l-.28.29c-19.11,21.76-105.14,88.84-255.68,199.37-4.88,3.58-8.4,6.17-10.26,7.55l-.09.07c-1.28.92-128.28,92.81-154.35,111.43l-.34.23C1400.38,928.38,1298.57,984.42,1162.67,984.42ZM495.31,692.8c72.22,36.58,310,156.91,347.25,174.6,5.36,2.55,11.66,5.66,19,9.26,54,26.66,154.6,76.3,253.89,85.41,153.9,15.35,270.79-48.35,314.07-76.58,26.25-18.76,151.33-109.25,154-111.21,1.89-1.4,5.41-4,10.28-7.56,186.06-136.61,240-182.24,252.49-196.46.34-.38.69-.75,1-1.12a3.7,3.7,0,0,0,.28-.28c5.85-6.57,6-9.58,6-9.9s-.67-1.08-1.23-1.59c-1-.94-5.18-1.94-7.83,0-.13.1-.28.24-.43.38-29.74,26.9-69.49,29.91-77.16,30.24h0c-.77,0-1.55,0-2.31,0-21-.67-37.86-5.85-50.17-10.29-51.88-18-55.93-62-57.45-78.61-.12-1.25-.22-2.36-.33-3.31-1.78-15.3,1.12-102.62,1.5-112,.59-14.33.43-23.64-9.7-34.16-8.89-9.25-29.49-10.52-60.67-12.44-7.56-.47-16.14-1-25.26-1.69-11.49-.89-240.68-15.74-266.78-17.43-.56,0-1.1-.09-1.66-.16-28.6-3.42-185.7-1.56-203.93-1.11-102.32,3.92-287.57,9.35-318.43,9.05-29.4-.28-35,4.8-42.42,13.82-3.91,4.77-6,32.53-4.3,58.24V398c.09,2,9.37,195.67,10.92,224.33v.44c.38,37.23-5.59,65-9.17,78.21-.19.7-.41,1.4-.65,2.09-9.94,28.55-23.82,46.63-41.24,53.72-21.17,8.62-41-1.24-50.48-6l-2.18-1.08-.39-.19c-136.35-72.66-309.29-167-388.29-214-31.94-19-72.11-37.31-89.81-35.4l-.51,0c-12.1.69-22.12,5.86-31.55,16.29C93.21,548,69.38,600.58,57.65,636l0,.15c-11,31.36,9.2,45,11.53,46.41l.15.09c52.06,33.24,114.79,73.42,118,76.13,4.71,4,7.48,10.86,10.7,18.82,2.23,5.55,4.77,11.83,7.65,16,4.54,5.73,15.23,11.11,26.49,2.78,1.22-.91,4.09-4.32,6.39-7.06,7.11-8.47,15.95-19,27.28-22.86a24.08,24.08,0,0,1,3.39-.88c85.65-16.92,105.63-45.76,128.76-79.15l1.62-2.33c13.6-19.6,37.51-22.77,63.95-8.49l7.58,4.09C479.34,684.14,487,688.29,495.31,692.8Z"/></svg>