<svg id="Full_-_Config" data-name="Full - Config" xmlns="http://www.w3.org/2000/svg" viewBox="0 0 1920 1080"><defs><style>.cls-1{fill:#fff;}</style></defs><path class="cls-1" d="M1447.37,1032.28c-57.46,0-135.75-1.78-206.07-3.38-47.75-1.09-92.86-2.11-125.74-2.46-130.93-1.35-387.41-4.85-525.19-6.72l-3.73-.05c-26.07-.36-77-2.19-102.1-3.35-27.87-1.28-74.52-3.44-90.18-71.75-10.68-46.62-23-126.84-27.31-169.67-3.2-31.55-3.91-93.48-3.61-125.11,0-1,0-2.18,0-3.37,0-13.27,0-35.49,15.59-49.75,10.75-9.81,26.82-13.8,47.78-11.85,26.11,2.43,78,10.06,104.64,14.3,34.23,5.46,80,12.9,103.83,17.39l.29,0C640.35,617.61,752,642,769.31,648l6.9,2c21.31,6.22,47.84,14,134.4,45.16l.38.14c22,8.94,60.45,23.73,91.37,35.61,9.95,3.83,19,7.3,26.25,10.11l8.35,3.24c33.5,13,60,23.24,126,42.94l3.33,1c36.85,11,78.61,23.45,127.53,34.27,2.52.56,5.08,1.21,7.79,1.91,11.06,2.83,23.6,6,30.17,1.18,4.72-3.5,7.52-12,8.1-24.75,0-6.71-.84-141.82-4-188l0-.65c-1-14.37-1.86-27.94-34.25-27.36-33,.58-91.76,3.23-123.21,4.87-21.55,1.13-43.37-.74-73.41-35.44-48-55.4-120.56-153.06-168.15-219.85-.86-1.22-1.71-2.5-2.6-3.86-4-6-8.5-12.88-14.75-13.91-5.36-.88-12.86,2.3-21.68,9.18l-.33.25-72.93,52.2c-8,5.93-25.72,15.56-36.77,17.87a178.23,178.23,0,0,1-36.57,4c-39.55,0-65.92-15.31-82.14-30-21.63-19.62-29.88-42.06-30.82-44.77-5.86-15.51-17.4-55.42.4-94.34,12.83-28.06,37.88-49.07,74.46-62.44,22.94-8.39,66.62-15.41,95.52-20.06l8.08-1.31c24.71-4,62.82-10.65,99.67-17.06,32.39-5.63,63-10.95,84.31-14.49,39-6.46,71.87,2.43,100.6,27.18,12.73,11,32.48,27.14,51.59,42.78,20.67,16.94,42,34.44,55.77,46.35,17.79,15.42,43.55,39.76,61,59.34,25.25,28.3,51.93,50.4,79.31,65.71,9.63,5.38,18.35,10.44,26.78,15.34,32.59,18.91,60.73,35.25,119.39,57.13,20.78,7.75,56.08,18.89,87.22,28.72,14.25,4.5,27.7,8.74,37.74,12,30.45,10,44.06,36.25,36.41,70.25-4.74,21.07-17.26,49.47-29.36,76.94l-2.79,6.33c-7.52,17.1-26.73,40.56-45.67,55.77-24.41,19.61-46.61,43.73-43.73,87.1l.14,2.28c.54,8.43.56,8.76,8.91,41.7,2.49,9.86,6.29,24.06,10.31,39.11,4.47,16.73,9.09,34,11.92,45.37l.15.62c7.21,28.85,22.2,88.89-22.06,122.24-13.42,10.11-30.83,13.7-69,14.23C1466.77,1032.23,1457.38,1032.28,1447.37,1032.28ZM416.71,604.33c-10.89,0-19,2.38-24.19,7.11-9.1,8.3-9.08,23.71-9.07,35,0,1.26,0,2.46,0,3.58-.32,33.51.56,93.79,3.51,122.9,4.27,42.17,16.69,122.64,26.91,167.22,12.26,53.51,43.79,55,71.6,56.24,24.93,1.15,75.58,3,101.45,3.33l3.73.05c137.78,1.87,394.23,5.37,525.13,6.72,33,.35,78.17,1.38,126,2.46,82.39,1.88,175.78,4,233.32,3.21,37.22-.51,49.17-4.13,57.24-10.21,33.68-25.37,21.32-74.84,14.69-101.41l-.16-.62c-2.79-11.18-7.39-28.4-11.84-45.06-4-15.11-7.84-29.38-10.37-39.35-8.56-33.77-8.83-35-9.48-45.37l-.14-2.21c-4-59.73,34.67-90.76,51.16-104s33.61-34,39.89-48.23l2.8-6.35C1620,583.94,1632.71,555.21,1637,536c6.8-30.23-8.83-42.17-23.14-46.86-9.92-3.26-23.33-7.49-37.52-12-31.37-9.9-66.93-21.12-88.19-29.05-60.24-22.48-89.06-39.2-122.44-58.58-8.36-4.85-17-9.87-26.5-15.17-29.32-16.4-57.75-39.9-84.47-69.85-16.88-18.93-41.9-42.54-59.2-57.55-13.51-11.72-34.78-29.14-55.35-46-19.19-15.73-39-32-52-43.11-31.92-27.49-63.39-26.07-84.28-22.6-21.26,3.53-51.81,8.84-84.15,14.46-36.91,6.42-75.06,13-99.88,17.1l-8.13,1.31c-26.43,4.26-70.68,11.37-91.82,19.1-31.37,11.47-52.62,29-63.15,52-14.71,32.19-4.78,66,.18,79.08l.14.39a98.23,98.23,0,0,0,26,37.09c25.15,22.42,59,29.38,100.52,20.7,7.18-1.5,22.18-9.29,29-14.37l.18-.13,72.84-52.14c13.65-10.62,25.77-14.87,37.05-13,14.89,2.44,22.91,14.6,28.21,22.64.8,1.2,1.55,2.34,2.21,3.26,51.06,71.69,122.49,167,167,218.37,26.13,30.18,42.66,29.32,57.25,28.56,31.59-1.65,90.65-4.31,123.9-4.9l2.07,0c49.4,0,51.55,32.18,52.48,46l0,.64c3.24,47.77,4,183.75,4,189.52v.48c-.85,19.6-6.14,32.74-16.18,40.19-14.22,10.54-32.42,5.87-47,2.12-2.54-.65-4.94-1.27-7.14-1.75-49.62-11-93.6-24.1-128.93-34.64l-3.33-1c-66.82-19.93-93.61-30.32-127.52-43.47l-8.34-3.23c-7.24-2.8-16.27-6.27-26.21-10.09-30.91-11.88-69.35-26.65-91.54-35.67-85.83-30.94-112-38.57-133-44.7-2.43-.71-4.8-1.4-7.18-2.11l-.49-.16c-12.63-4.44-99.05-23.7-131.49-30.8-23.62-4.44-69.11-11.83-103.14-17.25C502,614.67,450.6,607.12,425,604.73,422.06,604.46,419.3,604.33,416.71,604.33Z"/></svg>