<svg id="International_-_Config" data-name="International - Config" xmlns="http://www.w3.org/2000/svg" viewBox="0 0 1920 1080"><defs><style>.cls-1{fill:#fff;}</style></defs><title>active</title><path class="cls-1" d="M1910,164.67c0-24.29-10.59-39.47-19.44-47.94-10.77-10.31-25.17-16.38-37.52-15.85h-.19c-18.76,1.17-33.14,7.62-42.72,19.17-10.62,12.78-14.57,30.78-11.76,53.5l.19,1.42c13.52,72.29,17.85,130.5,12.89,173-.07.62-.14,1.19-.2,1.7-8.59,55-28.11,88.46-43,106.84-16,19.81-30.25,26.83-30.41,26.91l-55.74,26.66-.44.22c-34.74,18.8-168,68.12-169.37,68.62l-.25.09-77.17,33.3-.18.08c-2.27,1-226.78,103.38-246,111.09l-.27.12c-29.38,12.75-72.44,22.15-110.69-5.49l-1.32-1c-40.17-31-42.5-82.8-42.52-83.3l0-.62c-.39-4-9.37-99-11.88-118.68-1.86-14.18-6.54-30.83-6.74-31.53l-.16-.56L960.32,350.36l-.15-.35c-.77-1.67-76.88-167.35-85.9-188.26-8.7-21.5-16.48-31.44-22.31-37.69-20.69-22.75-71.39-26.46-83.17-25.42-12.55,1.11-69.34,12.57-76.89,14.1l-128.56,20-91,8.92-9.1.64h-.11c-74.75,6.11-131.52,2.68-152.67.9-29.69-3.78-57.27-15.83-69.06-21-2.61-1.14-4.5-2-5.93-2.5C199,106.25,138.09,95,123,92.6c-41.19-9.25-58.55.33-67.88,5.48l-1.48.81-.12.07c-37.06,20.51-26.72,70.29-25,77.61l19,186.67.06.53c.89,5.67,21.52,138.4,22.59,144.87C80.68,578,81.49,653.41,81.54,660,79.7,680.79,85,716.13,92.72,734.89,99.55,755.51,118.08,776.54,151,801c35.15,26.06,61.91,24.26,65.29,23.91,3.89-.37,80.6-7.65,90-8.83,2.91-.36,7.14-1.31,13-2.62,15.34-3.44,41-9.2,67.15-9.61l.48,0c25.61-1.66,86.45,10.83,87.06,10.95l.19,0c1.29.24,129,24,142.7,27.19l.33.07a329.25,329.25,0,0,1,90,31.16l1.69.87c30.16,19,86.24,50.69,86.81,51l.37.21c.7.35,69.74,35.54,105.15,52.71l17.92,8.38a102.47,102.47,0,0,0,32.84,9.09c2.83.27,5.59.41,8.31.41,21.61,0,39.65-8.7,52.53-25.44,17.81-22,55.83-67.73,56.21-68.19l.7-.74.52-1.1c1.15-2.09,10.39-17,34.9-8.43,7.07,3.19,23.68,11.94,26,13.14s9,4.65,19,3.28c6.66-.9,29-13.1,66.5-36.26l284.64-169.43c.92-.55,93-55.12,157.48-93.55a57.56,57.56,0,0,1,9.69-4.05l51-4.7c30.09-2.86,35.48-17.44,36.34-21,.39-1.55,6.41-25.67,7.91-33.21,1.91-3.55,12.29-14.81,28.42-29.38l.18-.17c34.52-32.83,68.79-77.91,75.18-89.11l.1-.17c21-38.52,27.29-82.66,30.31-103.88.55-3.9,1-7.27,1.38-8.86l.14-.83c.09-.69.22-1.65.38-2.84C1909.7,237,1910.82,190.6,1910,164.67Zm-30.08,143.68c-.14,1-.25,1.87-.34,2.53-.47,2.28-.92,5.5-1.54,9.85-2.85,20-8.78,61.71-28,97-5.43,9.42-38.11,52.63-71.46,84.37-32.52,29.38-33.87,36.68-34.45,39.8-.91,4.93-5.67,24.27-7.62,32.11-1.09,1.58-6.16,5.3-19,6.52l-53,4.89-1,.3c-.93.28-9.29,2.86-15,6.29C1584,630.45,1491.94,685,1491,685.57L1206.28,855.06l-.15.09c-24,14.81-53.13,31.7-59.07,33.54a11.18,11.18,0,0,1-5.59-.63l-.79-.42c-.8-.42-19.85-10.5-27.8-14l-.71-.29c-32.89-11.69-52.68,5.41-59.19,17-5.12,6.14-39.24,47.2-55.83,67.74l-.16.2c-24.55,32-67.25,11.17-69,10.28L909.83,960c-34.32-16.64-100.44-50.32-104.52-52.4-3.58-2-57.4-32.5-86.2-50.67l-.42-.27-.44-.22-1.92-1c-11.14-5.75-45-23.22-95.2-33-14.8-3.36-136.87-26.12-143.24-27.31-3.82-.78-64-13-92.05-11.32-28.1.48-54.92,6.5-71,10.09-4.91,1.1-9.16,2-11.11,2.3-9.13,1.14-88.63,8.69-89.43,8.76h-.06l-.24,0c-1.29.11-22.17,1.39-51.14-20.09-29.2-21.73-46-40.25-51.29-56.64l-.29-.78c-6.63-15.81-11.5-48.58-9.82-66.15l0-.49v-.49c0-.8-.42-81-11.55-154.82l0-.15C89.13,500.38,68.51,367.77,67.45,361l-19-187.11-.08-.78-.19-.73c-.11-.42-10.44-41.66,15-55.84l1.63-.9c7.53-4.15,20.13-11.11,54.13-3.41l.65.12c14.06,2.22,73.77,13.18,108.89,26.17.89.34,2.75,1.15,4.9,2.09,12.61,5.51,42.14,18.41,74.77,22.52l.41,0c21.47,1.82,79.67,5.38,156.14-.87l9.17-.65,91.7-9,.28,0L695.2,132.46l.45-.08c17.52-3.55,65.12-12.95,74.9-13.82,11.4-1,53.18,4.12,66.64,19l.1.11c4.66,5,11,13.11,18.47,31.7l.09.21c8.85,20.52,81.93,179.63,86.06,188.63L996.1,489c.79,2.89,4.52,16.76,6,28.12,2.39,18.82,11.22,111.92,11.77,117.71.24,5.51,3.84,62.5,50.5,98.33l.44.32,1.15.83a112.69,112.69,0,0,0,67.44,21.82c23.34,0,45.22-6.52,62.81-14.14,20.52-8.27,236.2-106.59,246.68-111.37l76.58-33c8.35-3.09,135.62-50.27,171.48-69.58l55.46-26.52c2.7-1.27,66.52-32.45,84.63-149l0-.43c.06-.53.14-1.14.21-1.81,1.94-16.58,7.82-67-13-178.68l-.06-.52c-2.11-17,.35-29.9,7.29-38.27,5.91-7.12,15.5-11.14,28.49-12,5.75-.2,15,2.89,22.73,10.31,6,5.8,13.27,16.34,13.27,33.66v.33C1890.81,190.29,1889.72,235.53,1879.92,308.35Z"/></svg>