<svg id="Fosters_-_Config" data-name="Fosters - Config" xmlns="http://www.w3.org/2000/svg" viewBox="0 0 1920 1080"><defs><style>.cls-1{fill:#fff;}</style></defs><title>active</title><path class="cls-1" d="M1199.13,819.57c-1.34-5.55-5.15-13.46-15.67-19.91-11-8.72-102.92-79.29-106.9-82.34-40.35-31-42.69-83-42.71-83.45l0-.62c-.39-4-9.37-99-11.88-118.68-1.86-14.18-6.54-30.83-6.74-31.53l-.16-.56L960.32,350.36l-.15-.35c-.77-1.67-76.87-167.34-85.9-188.26-8.69-21.5-16.48-31.44-22.31-37.69-20.68-22.75-71.4-26.46-83.17-25.42-12.55,1.11-69.34,12.57-76.89,14.1l-128.56,20-91,8.92-9.1.64h-.11c-74.76,6.11-131.53,2.68-152.67.9-29.69-3.78-57.27-15.83-69.06-21-2.61-1.14-4.5-2-5.93-2.5C199,106.25,138.1,95,123,92.6c-41.19-9.25-58.55.33-67.88,5.48l-1.48.81-.12.07c-37.06,20.51-26.72,70.29-25,77.61l19,186.67.06.53c.89,5.67,21.53,138.45,22.59,144.88C80.68,578,81.49,653.4,81.54,660c-1.84,20.77,3.43,56.1,11.17,74.87C99.55,755.51,118.08,776.54,151,801c35.1,26,61.84,24.27,65.28,23.91,3.71-.35,80.6-7.65,90-8.83,2.91-.36,7.14-1.31,13-2.62,15.34-3.44,41-9.2,67.15-9.61l.48,0c25.61-1.66,86.45,10.83,87.06,10.95l.19,0c1.29.24,129,24,142.7,27.19l.33.07a329.25,329.25,0,0,1,90,31.16l1.69.87c30.16,19,86.24,50.69,86.81,51l.37.21c.7.35,69.75,35.54,105.15,52.71l18,8.43.19.08A119.73,119.73,0,0,0,949,995.24a126,126,0,0,0,20,1.6,132.86,132.86,0,0,0,67.25-18.51l117.36-69.07c4.54-2.63,19.71-12,23.93-22.45l18.52-45.72C1197.65,838.2,1201.56,829.66,1199.13,819.57Zm-20.59,11.88-.36.53L1159,879.29c-1.06,2.51-8.56,8.67-15.49,12.71l-117.4,69.09a111.51,111.51,0,0,1-74,14.41,100.6,100.6,0,0,1-24.55-7.17L909.85,960c-34.32-16.63-100.47-50.33-104.54-52.4-3.58-2-57.39-32.5-86.2-50.67l-.86-.49-1.92-1c-11.14-5.75-45-23.22-95.2-33-14.82-3.35-136.75-26.09-143.24-27.29-3.72-.77-63.94-13-92.05-11.33-28.1.48-54.92,6.5-71,10.09-4.91,1.1-9.16,2-11.11,2.3-9.13,1.14-88.63,8.69-89.43,8.76h-.06l-.25,0c-1.3.12-22.17,1.39-51.13-20.09-29.2-21.73-46-40.25-51.29-56.64l-.29-.78c-6.63-15.81-11.5-48.58-9.82-66.15l0-.49v-.49c0-.8-.42-81-11.55-154.82l0-.15C89.13,500.38,68.51,367.77,67.45,361l-19-187.11-.08-.78-.19-.73c-.11-.42-10.44-41.67,15-55.85.52-.27,1.06-.57,1.63-.89,7.53-4.15,20.13-11.1,54.13-3.41l.65.12c14.06,2.22,73.77,13.18,108.89,26.17.89.34,2.75,1.15,4.9,2.09,12.61,5.51,42.14,18.41,74.77,22.52l.41,0c21.47,1.82,79.66,5.38,156.14-.87l9.17-.65,91.7-9,.28,0L695.2,132.46l.45-.08c17.52-3.55,65.12-12.95,74.9-13.82,11.4-1,53.18,4.12,66.64,19l.1.11c4.66,5,11,13.11,18.47,31.7l.09.21c8.85,20.52,81.93,179.63,86.06,188.63L996.1,489a240.63,240.63,0,0,1,6,28.12c2.39,18.82,11.22,111.92,11.77,117.71.24,5.51,3.84,62.5,50.5,98.33,1,.76,99.16,76.15,107.12,82.52l.55.44.6.35c7.14,4.23,7.22,8.18,7.25,9.48A11.89,11.89,0,0,1,1178.54,831.45Z"/></svg>