<svg id="Island_-_Config" data-name="Island - Config" xmlns="http://www.w3.org/2000/svg" viewBox="0 0 1920 1080"><defs><style>.cls-1{fill:#fff;}</style></defs><title>active</title><path class="cls-1" d="M1730.05,523l-.43-.55c-18.75-22.74-39.7-15.2-46.58-12.72l-.71.25-.66.36c-34.74,18.8-168,68.12-169.37,68.62l-.25.09-77.17,33.3-.18.08c-2.27,1-226.78,103.38-246,111.1l-.27.11c-29.38,12.75-72.44,22.16-110.69-5.49l-1.32-1c-40.17-31-42.5-82.8-42.52-83.3l0-.62c-.38-4-9.36-99-11.87-118.68-1.86-14.18-6.54-30.83-6.74-31.53l-.16-.56L960.32,350.36l-.15-.35c-.77-1.67-76.88-167.35-85.9-188.26-8.69-21.49-16.48-31.44-22.31-37.69-20.68-22.75-71.39-26.46-83.17-25.42-12.55,1.11-69.34,12.57-76.89,14.1l-128.56,20-91,8.92-9.1.64h-.11c-74.75,6.11-131.52,2.68-152.67.9-29.69-3.78-57.27-15.83-69.06-21-2.61-1.14-4.5-2-5.93-2.5C199,106.25,138.1,95,123,92.6c-41.19-9.25-58.55.33-67.88,5.48l-1.48.81-.12.07c-37.06,20.51-26.72,70.29-25,77.61l19,186.67.06.53c.89,5.67,21.55,138.56,22.59,144.89C80.68,578,81.49,653.41,81.54,660c-1.84,20.77,3.43,56.1,11.17,74.87C99.55,755.51,118.08,776.54,151,801c35.14,26.05,61.89,24.27,65.29,23.91,3.84-.36,80.6-7.65,90-8.83,2.91-.36,7.14-1.31,13-2.62,15.34-3.44,41-9.2,67.15-9.61l.48,0c25.61-1.66,86.45,10.83,87.06,10.95l.19,0c1.29.24,129,24,142.7,27.19l.33.07a329.25,329.25,0,0,1,90,31.16l1.69.87c30.16,19,86.24,50.69,86.81,51l.37.21c.7.35,69.74,35.54,105.15,52.71l17.91,8.38a102.85,102.85,0,0,0,32.85,9.09c2.83.27,5.59.41,8.31.41,21.61,0,39.65-8.7,52.53-25.44,17.81-22,55.83-67.73,56.21-68.19l.7-.74.52-1.1c1.15-2.09,10.39-17,34.9-8.43,7.07,3.19,23.68,11.94,26,13.14s9,4.65,19,3.28c6.66-.9,29-13.1,66.51-36.26l284.64-169.44,81.12-48.13c85.71-50.9,132.52-78.88,139.12-83.14a30,30,0,0,0,13.19-20.17C1736.69,540.65,1733.85,528.3,1730.05,523Zm-19.43,31.72c-6.3,4.07-54.19,32.68-138.48,82.75L1491,685.57,1206.28,855.06l-.15.09c-24,14.81-53.13,31.7-59.07,33.54a11.18,11.18,0,0,1-5.59-.63l-.78-.42c-.81-.42-19.86-10.5-27.81-14l-.71-.29c-32.89-11.69-52.68,5.41-59.19,17-5.12,6.15-39.25,47.2-55.83,67.74l-.16.2c-24.55,32-67.25,11.17-69,10.28L909.84,960c-34.32-16.64-100.46-50.33-104.53-52.4-3.58-2-57.4-32.5-86.2-50.67l-.86-.49-1.92-1c-11.14-5.75-45-23.22-95.2-33-14.81-3.35-136.84-26.1-143.24-27.3-3.79-.77-63.94-13-92.05-11.32-28.1.48-54.92,6.5-71,10.09-4.91,1.1-9.16,2-11.11,2.3-9.13,1.14-88.63,8.69-89.43,8.76h-.06l-.25,0c-1.29.11-22.16,1.39-51.13-20.09-29.2-21.73-46-40.25-51.29-56.64l-.29-.78c-6.63-15.81-11.5-48.58-9.82-66.15l0-.49v-.49c0-.8-.42-81-11.55-154.82l0-.15C89.13,500.38,68.51,367.77,67.45,361l-19-187.11-.08-.78-.19-.73c-.11-.42-10.44-41.66,15-55.85.52-.27,1.06-.57,1.63-.89,7.53-4.15,20.13-11.1,54.13-3.41l.65.12c14.06,2.22,73.77,13.18,108.89,26.17.89.34,2.75,1.15,4.9,2.09,12.61,5.51,42.14,18.41,74.77,22.52l.41,0c21.47,1.82,79.66,5.38,156.12-.87l9.19-.65,91.7-9,.28,0L695.2,132.46l.45-.08c17.52-3.55,65.12-12.95,74.9-13.82,11.4-1,53.18,4.12,66.64,19l.1.11c4.66,5,11,13.11,18.47,31.7l.09.21c8.85,20.52,81.91,179.59,86.06,188.62L996.1,489a240.63,240.63,0,0,1,6,28.12c2.39,18.83,11.22,112,11.77,117.72.24,5.52,3.85,62.5,50.5,98.32l.44.32,1.15.83c45.83,33.12,96.1,22.47,130.24,7.68,20.5-8.26,236.24-106.6,246.7-111.37l76.57-33c8.31-3.07,134.51-49.85,171-69.32,7-2.46,14.65-3.72,23.22,6.29C1714.92,537.32,1717.88,550,1710.62,554.69Z"/></svg>