<svg id="Oval_-_Config" data-name="Oval - Config" xmlns="http://www.w3.org/2000/svg" viewBox="0 0 1920 1080"><defs><style>.cls-1{fill:#fff;}</style></defs><path class="cls-1" d="M1661.85,556.85c-29.13-72.29-80.6-136.7-153-191.43-42.84-35.17-255.44-142.79-323.4-160.15-23.59-8-128.2-36.48-225.85-34.54h-.14c-4.72.16-117.1,4.47-246,52.79l-.24.09C540.11,293.68,417.5,369.34,348.89,448.51c-35.58,41.06-57.87,79.85-70.14,122.08-12.5,43-15.53,92.55-9.53,155.87l0,.26c3.15,26.07,16.09,73.33,42.13,120.73a367.88,367.88,0,0,0,55.54,76.48,329.4,329.4,0,0,0,86.65,65.46l.71.36c10.55,5.28,35.27,17.66,89.93,28.5,64.68,12.82,149.77,19.32,253,19.32l12.56,0h461.08l.48,0c2.21-.1,54.88-2.78,119.37-17.13,87.45-19.45,151.18-49.84,189.43-90.31l3.35-3.5c24.92-25.89,91.11-94.69,102.39-257.68l0-.69C1685.92,652.68,1683.57,610.76,1661.85,556.85Zm-92.76,355.87q-1.9,2-3.47,3.62c-34.92,36.94-96.79,66.14-178.93,84.46a779.29,779.29,0,0,1-116.08,16.74H809.74c-115.32.57-269-6.88-346.51-45.68l-.48-.24c-56.12-29.28-101.15-74.3-133.84-133.8-24.63-44.82-36.82-89-39.79-113.37C278,607,297.61,538.21,364,461.61s186.52-150.55,356.7-219.4c124.31-46.6,236.08-51.35,239.41-51.48,95.27-1.88,197.2,26,219.29,33.59l.8.24C1244.8,240.86,1456.36,348,1496.33,381l.33.26c160.42,121.23,169.18,259.23,169.26,286.61C1655.07,823.36,1592.61,888.27,1569.09,912.72Z"/></svg>