<?xml version="1.0" encoding="utf-8"?>
<!-- Generator: Adobe Illustrator 24.0.1, SVG Export Plug-In . SVG Version: 6.00 Build 0)  -->
<svg version="1.1" id="Irwindale_Inner_Oval__Config"
	 xmlns="http://www.w3.org/2000/svg" xmlns:xlink="http://www.w3.org/1999/xlink" x="0px" y="0px" viewBox="0 0 1920 1080"
	 style="enable-background:new 0 0 1920 1080;" xml:space="preserve">
<style type="text/css">
	.st0{fill:#FFFFFF;}
</style>
<title>active</title>
<path class="st0" d="M1373.3,524.1c-2.3-79-35.3-142.9-95.3-184.9c-65.1-45.6-136-48.9-156.2-48.8c-16.4,0.1-37-0.1-58.8-0.2
	c-74.2-0.4-175.7-1-232,4.7c-73,7.4-132,38.1-170.8,88.7c-19,24.8-33,54.5-40.4,85.8c-6.5,27.4-7.9,55.8-4,80.1l0,0
	c9.9,60.3,39.9,110.5,86.9,145c35.6,26.2,81.5,43,122.6,44.9c48,2.2,105.4,3.4,163.2,3.4c68.2,0,137-1.5,191.6-4.6
	c37.2-2.1,69.9-11,97.4-26.6c24.2-13.7,44.3-32.5,59.9-55.9C1371.8,604.2,1374,546.5,1373.3,524.1z M1320.9,644.6
	c-30.1,45.3-77.8,70.1-141.8,73.6c-100.3,5.6-248.7,6.1-352.8,1.2c-56.6-2.6-169.3-42.2-190.7-173.2l0,0
	c-6.1-37.1,0.9-98.7,40.6-150.5c35.3-46.1,89.6-74.1,156.9-81c39.3-4,101.7-4.9,161.1-4.9c24,0,47.5,0.1,68.8,0.3
	c21.8,0.1,42.5,0.3,59,0.2c0.2,0,0.4,0,0.7,0c90.5,0,226.1,56.9,230.8,214.3C1353.9,545.2,1352,597.9,1320.9,644.6z"/>
</svg>
