<svg id="New_Smyrna_-_Config" data-name="New Smyrna - Config" xmlns="http://www.w3.org/2000/svg" viewBox="0 0 1920 1080"><defs><style>.cls-1{fill:#fff;}</style></defs><title>active</title><path class="cls-1" d="M1737.33,379.34A323,323,0,0,0,1566.9,208.91a316.05,316.05,0,0,0-124.3-25.27H462.53a316.05,316.05,0,0,0-124.3,25.27A323,323,0,0,0,167.8,379.34a316.05,316.05,0,0,0-25.27,124.3v24.07A316.05,316.05,0,0,0,167.8,652,323,323,0,0,0,338.23,822.44a316.05,316.05,0,0,0,124.3,25.27H1442.6a316.05,316.05,0,0,0,124.3-25.27A323,323,0,0,0,1737.33,652a316.05,316.05,0,0,0,25.27-124.3V503.64A316.05,316.05,0,0,0,1737.33,379.34ZM1722.6,527.71c0,154.39-125.61,280-280,280H462.53c-154.39,0-280-125.61-280-280V503.64c0-154.39,125.61-280,280-280H1442.6c154.39,0,280,125.61,280,280Z"/></svg>