<svg id="Daytona_Moto_-_Config" data-name="Daytona Moto - Config" xmlns="http://www.w3.org/2000/svg" viewBox="0 0 1920 1080"><defs><style>.cls-1{fill:#fff;}</style></defs><path class="cls-1" d="M974.87,950.12H971.7c-94.21-.76-205-27.64-329.24-79.89C616.93,859.48,583.94,846.12,549,832c-80.29-32.54-180.23-73-244.8-104.07-47.31-22.75-114.58-63.35-166.3-127.58-56.83-70.56-81.73-152.86-74-244.6,1.89-22.35,8.78-67.19,33.76-116.44,26.3-51.85,65.48-95.41,116.43-129.48A403.61,403.61,0,0,1,309.51,63a412.71,412.71,0,0,1,133.6-21.52c1.27,0,127.83.37,169.88,2.19l2.23.09c18.23.73,43.2,1.73,66.94,37.69,5.84,8.84,13.28,16.64,39.86,15,10.64-1,39.78-4.1,49.51-6.3,7.5-1.7,16.35-5.46,30.25-21.29C822.7,45,851.24,45.09,862,45.11c160.32.39,235.88,1.42,323.37,2.62,38.23.53,77.76,1.07,127.71,1.6,2,0,28.54.21,47,8.84,12.66,5.93,30,14,48.43,22.55,29.16,13.56,62.2,28.92,83,38.8,11.81,5.59,26,13.2,44.47,32.8,5.25,5.56,14,16.44,18,21.84,11.74,15.83,9.45,39.79-6.13,64.09-13.39,20.88-28.21,53.93-22.81,92.78.84,6.06,6.3,36.51,31.24,41.1,17.18,3.16,22.54,1.95,44.09-10,1.55-.85,3.39-2,5.33-3.12,14.58-8.77,41.72-25.09,67.33-4.86,9.25,7.29,21.53,26.64,0,74.2l-2.38,5.29c-8.35,18.65-18.75,41.87-42.26,70.42-27.42,33.29-65.34,66-89.48,83.86l-.88.65c-17.78,13.19-54.77,40.62-87.11,33.88-7.76-1.61-18.84-15.15-23.26-28.4-5.06-15.17-10.1-34.74-12.89-46.89-1.5-6.56-3.56-15.54-30.91-18.17-7.23-.7-21.76-1.12-32.37-1.44-3.7-.11-7.05-.2-9.7-.3-101.06-3.66-199.47-2.46-237.09-1.77-81.4,1.48-110.27,3.2-144.7,11.74-47.56,11.79-47.56,29.65-47.56,36.37,0,17.33,24.76,27,34.61,27.93,42.72,4,129.37,5.06,190.6,4.7,50.25-.27,63.55,6.16,80.14,19.93,27.73,23,40.11,23,54.44,23,70.66,0,116.71,18.62,136.86,55.17,10.36,18.79,11.7,42.77,3.78,67.52-10.55,32.94-35.79,63.08-64.32,76.77a1197,1197,0,0,1-190.19,72.14C1090.09,940,1026.77,950.12,974.87,950.12ZM441.39,61.52c-98.38,0-171.8,35.24-216.16,64.9-116.61,78-137.71,187.5-141.38,231C66.78,560.07,220,665.23,312.89,709.88c64,30.77,163.61,71.12,243.64,103.55,35,14.18,68,27.57,93.68,38.35C772.06,903,880.28,929.37,971.86,930.11c116.5,1,266.47-50.76,367.92-99.46,23.45-11.25,45.12-37.31,53.93-64.84,4.4-13.77,7.59-33.92-2.25-51.76-16.37-29.7-56.53-44.78-119.36-44.83-19.86,0-36.31-2-67.19-27.64-11.32-9.39-18.8-15.58-67.26-15.32-22.33.13-136.56.5-192.59-4.79-18.39-1.73-52.73-17.55-52.73-47.84,0-27.07,20.53-45.31,62.74-55.78,36.34-9,66-10.81,149.15-12.33,37.79-.69,136.64-1.9,238.18,1.78,2.62.1,5.92.2,9.56.3,11.5.34,25.81.76,33.7,1.52,28.84,2.77,43.8,13.14,48.49,33.61,2.69,11.71,7.54,30.54,12.37,45a40.1,40.1,0,0,0,10,15.44c23.44,3.53,55.62-20.33,69.54-30.65l.89-.66c23.23-17.21,59.67-48.61,85.94-80.51,21.8-26.47,31.17-47.4,39.45-65.88.82-1.82,1.62-3.62,2.42-5.37,13.53-29.83,11.62-45.71,5.87-50.24-13.66-10.79-28.29-3.53-44.64,6.3-2.1,1.26-4.08,2.45-6,3.49-24.24,13.39-34.11,16.4-57.39,12.12-29.79-5.49-44-33.57-47.43-58-6.24-44.9,10.58-82.6,25.78-106.32,12.85-20.05,12-34.53,6.91-41.39-3.8-5.12-11.88-15.21-16.42-20-16.15-17.08-27.87-23.42-38.5-28.46-20.78-9.84-53.8-25.19-82.92-38.73-18.41-8.56-35.79-16.64-48.48-22.58-12.23-5.73-32-7-38.53-7h-.12c-50-.53-89.55-1.08-127.81-1.6-87.42-1.2-162.93-2.23-323.14-2.62h0c-9,0-30.21-.07-45.13,16.93-17.71,20.18-30.59,25.27-40.86,27.6-13,3-50.59,6.57-52.18,6.72l-.31,0c-35.68,2.31-49.34-10.78-58-23.88-18.09-27.4-34.1-28-51.05-28.72l-2.3-.1c-41.64-1.8-167.8-2.17-169.07-2.17Z"/></svg>