<?xml version="1.0" encoding="utf-8"?>
<!-- Generator: Adobe Illustrator 24.0.1, SVG Export Plug-In . SVG Version: 6.00 Build 0)  -->
<svg version="1.1" id="Daytona_Short_-_Config" xmlns="http://www.w3.org/2000/svg" xmlns:xlink="http://www.w3.org/1999/xlink"
	 x="0px" y="0px" viewBox="0 0 1920 1080" style="enable-background:new 0 0 1920 1080;" xml:space="preserve">
<style type="text/css">
	.st0{fill:#FFFFFF;}
</style>
<title>active</title>
<path class="st0" d="M1725.1,360.6c-1.4-13.8-7.9-24.9-19-32.3c-42.1-28-97.6,10.1-121.2,34.2c-26.8,27.5-82.8,78.5-111.3,102.4
	c-43.6,36.6-45,37.4-76.3,43.2c-10.8,2-33.7,0.6-47.5-0.3c-2.7-0.2-5.2-0.3-7.3-0.4c-83.8-4.6-176.8-2.9-238.4-1.8
	c-83.1,1.5-112.8,3.3-149.2,12.3c-42.2,10.5-62.7,28.7-62.7,55.8c0,30.3,34.3,46.1,52.7,47.8c56.1,5.3,170.3,4.9,192.6,4.8
	c48.5-0.3,56,5.9,67.3,15.3c30,24.9,47,28.9,67.8,27.6h0c19.3-1.2,43.2,5.8,54.3,9.5v0.4l7.1,2.2c5,1.5,10.7,2,16.1,2
	c9.3,0,17.6-1.5,19-1.8l0.5-0.1l0.5-0.2c0.5-0.2,52.8-15.9,72-20.9c22.9-6,36.7-12.4,47.4-22.2c49.3-44.9,108.5-99.6,173.7-164.8
	C1706.1,430.6,1728,390.5,1725.1,360.6z M1649,459.3c-64.9,64.9-123.9,119.4-173,164.1c-6,5.4-14.8,11.3-39,17.6
	c-18.7,4.9-66.3,19.2-72.2,20.9c-6.3,1.1-17.9,2.1-24.5,0.3c-1.3-0.5-3.3-1.2-6.3-2.3c-3.7-1.2-9.5-3.1-16.3-4.9
	c-17.8-4.7-33.4-6.7-46.2-5.9c-14.2,0.9-26.3-0.3-53.8-23c-16.5-13.8-29.8-20.2-80.2-19.9c-61.2,0.4-147.8-0.7-190.6-4.7
	c-9.9-0.9-34.6-10.6-34.6-27.9c0-6.7,0-24.6,47.6-36.4c34.5-8.6,63.4-10.3,144.7-11.7c61.3-1.1,153.8-2.8,236.9,1.8
	c2.1,0.1,4.5,0.3,7.2,0.4c16.5,1,39.2,2.4,52.3,0c36.2-6.7,40.5-9.7,85.5-47.5c28.9-24.2,85.6-75.9,112.7-103.8
	c15.7-16.1,63.4-53.1,95.7-31.5c6.1,4,9.4,9.8,10.2,17.6C1706.3,373.7,1703,405.3,1649,459.3z"/>
</svg>
