<?xml version="1.0" encoding="utf-8"?>
<!-- Generator: Adobe Illustrator 26.3.1, SVG Export Plug-In . SVG Version: 6.00 Build 0)  -->
<svg version="1.1" id="Grand_Prix__Config" xmlns="http://www.w3.org/2000/svg" xmlns:xlink="http://www.w3.org/1999/xlink" x="0px"
	 y="0px" viewBox="0 0 1920 1080" style="enable-background:new 0 0 1920 1080;" xml:space="preserve">
<style type="text/css">
	.st0{fill:#FFFFFF;}
</style>
<path class="st0" d="M1208.2,980c-4.5,0-9-0.6-13.4-1.7c-21.6-5.2-46.1-11-72.8-17.3c-150.9-35.9-357.5-85-489.3-120.9
	c-22.7-6.2-43.5-28.3-39.6-58.6c0.8-6.1,3.2-15.3,5.4-23.3c0.9-3.2,1.7-6.3,2.2-8.5c2.6-10.9,15.1-45.8,65.9-38.7
	c61.7,8.7,133.7,18.1,209.9,28.1c106.6,13.9,216.8,28.4,304.3,41.6l1.3,0.2c6.3,1,15.9,2.5,20.9-1.8c4.7-4.1,5.5-13.3,5.4-20.3
	c-0.2-12.9-1.8-40.2-3.7-53.5c-2.6-17.8-7.5-50.7-63.1-50.7h-1c-123.1,0.9-338,0.9-479,0c-22.3-0.1-36.8-8.7-43.3-25.3
	c-5.8-14.8-3.5-29.2,6.7-42.6c5.7-7.5,47.8-61.4,49.6-63.7c2.4-3.1,59-75,70.1-88.4c18.1-21.7,58.4-56,124.7-42.5l31.1,6.4
	c59.6,12.2,148.6,30.6,196.7,40.8c17.4,3.7,49,4.5,58.3-31.2c0.6-2.2,1.2-4.6,1.7-7.1c5.4-23.1,13.7-58.1,62-72.3
	c11-3.2,44.3-13,74.6,18c18.1,18.6,46.4,46.3,73.7,73c23.6,23.1,48,47,64.9,64.1c8.3,8.4,15.6,10,25,5.5c2.5-1.2,10.2-4.9,11.5-22.9
	c6-84.6,12.7-241.6,14.8-350c0.1-5.5,1.5-24.4,14.5-36.7c7.5-7.1,17.6-10.6,29.1-10.1c7.1,0.3,17.5,1.7,25.8,10.6
	c8.1,8.7,12,22.4,11.9,41.8c-0.5,123.5-2.2,366.4-3.3,500.2c-0.1,17.8-0.4,40.5-0.7,64.6c-0.7,53.9-1.5,121-1.1,167v1.4
	c0.1,8.5,0.3,24.3-10.5,34.6c-6.8,6.5-16.4,9.4-28.6,8.7c-11.7-0.7-40-8-67.5-15c-12.3-3.2-24-6.2-32.9-8.2l-13-3
	c-25.7-6-52.3-12.2-60-14.3c-3.1-0.9-7.7-2.2-20.8,5.5c-4.2,2.5-9.5,5.6-15.5,9.1c-18.3,10.6-43.3,25.2-57.2,34.3
	c-6.2,4-11.1,7.2-7.3,23.1c2.7,11-0.5,28.7-11.5,39.8C1230.1,974.5,1221.4,980,1208.2,980z M653.8,730c-22.6,0-30.8,12.8-33.5,24.3
	c-0.6,2.5-1.4,5.7-2.3,9c-1.9,7.1-4.3,16-4.9,20.8c-2.6,19.9,11.2,33,25,36.8c131.5,35.8,337.9,84.9,488.7,120.7
	c26.7,6.3,51.2,12.2,72.8,17.3c9.6,2.3,16.9,1,21.7-3.7c6-6,7.3-16.7,6.2-21c-7.1-29.6,8.4-39.7,15.8-44.5c14.3-9.3,39.6-24,58-34.8
	c6-3.5,11.3-6.6,15.4-9c14.5-8.5,25-10.7,36.3-7.5c7.2,2,34.8,8.4,59.1,14.1l13,3c9.2,2.1,20.9,5.2,33.3,8.4
	c24,6.2,53.9,13.9,63.7,14.5c6.4,0.4,11-0.7,13.6-3.2c4.5-4.3,4.4-13.7,4.3-19.9v-1.5c-0.4-46.2,0.4-113.4,1.1-167.4
	c0.3-24,0.6-46.8,0.7-64.5c1-133.8,2.8-376.7,3.3-500.1c0.1-31.6-11.1-32-18.5-32.3c-6.2-0.2-11,1.3-14.6,4.7
	c-5.8,5.5-8.1,15.6-8.2,22.5c-2.1,108.7-8.8,266.2-14.8,351c-1.8,24.5-13.4,35-22.8,39.5c-17.3,8.3-33.4,5.1-47.9-9.5
	c-16.8-17-41.1-40.8-64.7-63.9c-27.4-26.8-55.8-54.6-74.1-73.4c-19.4-19.9-39.4-17.3-54.6-12.8c-37.2,10.9-43,35.8-48.2,57.7
	c-0.6,2.6-1.2,5.2-1.9,7.6c-11.5,43.9-49.2,52.4-80.8,45.7c-48-10.2-138-28.6-197.5-40.7l-31.1-6.4c-56-11.5-90,17.5-105.3,35.7
	c-11,13.1-69.2,87.2-69.7,87.9c-0.4,0.5-43.8,56-49.4,63.4c-7.6,10-6.1,17.7-4,23.2c3.4,8.7,10.8,12.5,24.8,12.6
	c140.9,0.9,355.6,0.9,478.7,0h1.2c29.4,0,51.4,8.1,65.3,24.1c11.8,13.6,15.5,29.7,17.6,43.7c2.1,14.3,3.7,42.3,4,56.1
	c0.3,16.3-3.9,28.4-12.3,35.7c-12,10.4-28.3,7.9-37.1,6.5l-1.2-0.2c-87.3-13.2-197.4-27.6-303.9-41.5
	c-76.2-10-148.3-19.4-210.1-28.1C660.5,730.2,657.1,730,653.8,730z"/>
</svg>
