<svg id="East__Config" data-name="East _Config" xmlns="http://www.w3.org/2000/svg" viewBox="0 0 1920 1080"><defs><style>.cls-1{fill:#fff;}</style></defs><path class="cls-1" d="M1524.53,898.35c-1.15,0-2.33,0-3.53-.11-11.85-.7-44.24-8.78-79.23-17.72-8.11-2.07-15.12-3.86-18.91-4.75l-6.28-1.47c-28.63-6.69-42.87-10.13-46.37-11.58-10.75-4.45-13.28-11-15-27.33-1-9.16-3.58-23.6-6.11-37.56-2.09-11.56-4.07-22.48-5.11-30.33-1.88-14.15-8.12-31.18-40-37.31-18.54-3.57-52-9.75-68.33-12.19l-.38,0c-9.68-1.45-24.3-3.62-35.7-28.83-6.91-15.29-20.95-35.53-62.93-34.42-127.23,3.26-319.35,3.5-478.07.59-11.15-.2-31-6.31-39.82-22.29-4.95-8.93-8.14-24.08,4.77-45.59,3.17-5.29,12.18-16.4,26.61-34.08,7.87-9.63,16.78-20.55,24.49-30.36l7.56-9.64c20.92-26.65,52.54-66.93,62.53-78.89,18.13-21.69,58.43-56.05,124.65-42.5l31.13,6.37c59.57,12.17,149.6,30.57,197.68,40.76,17.38,3.69,48,4.54,57.28-31.19.58-2.22,1.15-4.61,1.74-7.14,5.45-23.15,13.68-58.13,62-72.3,11-3.21,44.34-13,74.57,18,18.13,18.6,46.39,46.28,73.73,73,23.57,23.08,48,46.95,64.89,64.1,8.33,8.43,15.58,10,25,5.52,2.53-1.2,10.23-4.88,11.52-22.91,6-84.59,12.68-241.6,14.79-350,.11-5.5,1.47-24.4,14.49-36.69,7.49-7.07,17.55-10.58,29.08-10.14,7.11.27,17.53,1.66,25.84,10.61,8.1,8.72,12,22.39,11.92,41.79-.49,123.46-2.25,366.37-3.26,500.18-.13,17.76-.41,40.5-.7,64.57-.66,53.92-1.48,121-1.07,167v1.43c.12,8.49.35,24.28-10.46,34.61C1543.47,895.39,1535.05,898.35,1524.53,898.35Zm-146.74-54.14c3.77,1.37,30.49,7.61,43.34,10.62l6.3,1.47c4,.93,10.74,2.66,19.29,4.84,22.55,5.77,64.54,16.49,75.46,17.14,6.4.37,11-.7,13.59-3.2,4.51-4.31,4.37-13.67,4.29-19.86l0-1.54c-.42-46.15.41-113.38,1.07-167.4.29-24,.57-46.76.7-64.47,1-133.79,2.77-376.68,3.26-500.11.13-31.63-11.1-32-18.52-32.34-6.23-.23-11,1.31-14.59,4.7-5.85,5.52-8.08,15.6-8.22,22.54-2.12,108.68-8.78,266.16-14.84,351-1.75,24.49-13.39,35-22.85,39.53-17.34,8.28-33.45,5.08-47.87-9.51-16.82-17-41.14-40.84-64.65-63.87-27.42-26.84-55.77-54.61-74.06-73.37-19.36-19.85-39.36-17.26-54.62-12.79-37.16,10.89-43,35.75-48.17,57.69-.63,2.65-1.22,5.16-1.86,7.61-11.46,43.9-49.25,52.39-80.78,45.7-48-10.17-138-28.56-197.53-40.73l-31.14-6.36c-56-11.47-90,17.46-105.29,35.73-9.8,11.72-41.3,51.85-62.15,78.41l-7.57,9.64c-7.82,10-16.79,21-24.71,30.66-11,13.47-22.37,27.4-25,31.72-6.42,10.7-7.92,19.32-4.43,25.6,4.58,8.27,17,11.89,22.7,12,158.46,2.9,350.22,2.66,477.19-.59,39.91-1,67.35,14.51,81.67,46.17,6.9,15.27,12.57,16.11,20.42,17.28l.39.06c17.9,2.67,53.06,9.23,69.15,12.33,33.24,6.4,52.09,24.67,56,54.32,1,7.39,2.92,18.08,5,29.4,2.59,14.31,5.27,29.11,6.32,39,.73,6.84,1.43,9.53,1.8,10.55C1377.2,844,1377.55,844.12,1377.79,844.21Z"/></svg>