<?xml version="1.0" encoding="utf-8"?>
<!-- Generator: Adobe Illustrator 24.0.1, SVG Export Plug-In . SVG Version: 6.00 Build 0)  -->
<svg version="1.1" id="West__Config" xmlns="http://www.w3.org/2000/svg" xmlns:xlink="http://www.w3.org/1999/xlink" x="0px"
	 y="0px" viewBox="0 0 1920 1080" style="enable-background:new 0 0 1920 1080;" xml:space="preserve">
<style type="text/css">
	.st0{fill:#FFFFFF;}
</style>
<title>active</title>
<path class="st0" d="M1247.2,922.1c-0.1-6-0.2-12.2-0.2-16.7c0-21.9-11.4-29.2-18.2-33.6l-0.2-0.1c-12.1-7.8-38.9-26-54.1-38.8
	c-8.7-7.4-8-13.6-6.6-19.2c2.8-10.9,1.9-19.9-2.7-26.9c-4.2-6.3-11.2-10.4-20.2-11.7c-136.2-20.2-358.8-49.3-478.4-64.9
	c-49.5-6.5-62.7,28.5-65.6,39.4c-1.6,6.2-3.6,16.1-5.3,24.9c-0.7,3.4-1.3,6.5-1.8,9c-6.4,30.6,27.8,55.6,48,60.4l0,0
	c65.4,15.6,141.3,34.3,221.5,54.2c119.2,29.5,242.4,59.9,331.3,79.9c5.5,1.2,10.6,1.9,15.3,1.9c9.5,0,17.5-2.5,23.8-7.5
	c8.7-7,13.6-18.7,13.6-32.9C1247.5,934.8,1247.3,928.7,1247.2,922.1z M1221.4,956.6c-5.5,4.4-15.1,3.4-22.2,1.8
	c-88.6-19.9-211.8-50.3-330.9-79.8C788,858.7,712.2,840,646.7,824.4c-11.9-2.8-36.7-19.7-33.1-36.9c0.5-2.5,1.2-5.7,1.8-9.2
	c1.6-8,3.6-18.1,5-23.6c2.9-11,12.4-28.7,43.7-24.6c119.5,15.6,342,44.7,478.1,64.9c1.8,0.3,5.1,1,6.4,3c1.3,1.9,1.3,5.9,0,10.8
	c-1.5,5.8-6,23.3,13,39.5c15.9,13.5,43.7,32.3,56.2,40.3l0.2,0.1c5.2,3.4,9,5.8,9,16.8c0,4.7,0.1,11,0.2,17.1
	c0.1,6.1,0.2,12.5,0.2,16.7C1227.4,943.9,1226.7,952.3,1221.4,956.6z"/>
</svg>
