<?xml version="1.0" encoding="utf-8"?>
<!-- Generator: Adobe Illustrator 24.0.1, SVG Export Plug-In . SVG Version: 6.00 Build 0)  -->
<svg version="1.1" id="Oval__Config" xmlns="http://www.w3.org/2000/svg" xmlns:xlink="http://www.w3.org/1999/xlink" x="0px"
	 y="0px" viewBox="0 0 1920 1080" style="enable-background:new 0 0 1920 1080;" xml:space="preserve">
<style type="text/css">
	.st0{fill:#FFFFFF;}
</style>
<title>active</title>
<path class="st0" d="M1403.8,670.4c-20.5-32-49.6-59.6-84.2-79.7c-31.8-18.5-67-29.9-99.3-32.1c-160-10.8-410.3-27.8-589.3-40.2
	c-46.7-3.2-93,10.8-130.4,39.6c-35.3,27.2-58.9,65-64.8,103.7c-7.7,50.6,2.9,97.8,30.7,136.6c22.6,31.5,55.7,55.9,91,67
	c212.8,66.9,449.9,129.1,590.6,161.1c16.6,3.8,33.6,5.7,50.5,5.7c41.5,0,83.2-11.2,120.9-33c46.5-26.8,83.9-68.2,100-110.8
	C1457.6,787.9,1432,714.4,1403.8,670.4z M1400.8,881.2c-14.5,38.3-48.7,75.9-91.3,100.5c-48.8,28.1-104.5,37.1-157,25.2v0
	c-140.2-31.9-376.8-93.9-589-160.7c-52-16.4-123.6-78.2-107.9-181.5c10.1-66.2,82.4-132.8,174-126.4c179,12.4,429.4,29.4,589.4,40.2
	c53.1,3.6,125.6,36.7,167.9,102.7C1412.7,721.3,1436,788.6,1400.8,881.2z"/>
</svg>
