<?xml version="1.0" encoding="utf-8"?>
<!-- Generator: Adobe Illustrator 24.0.1, SVG Export Plug-In . SVG Version: 6.00 Build 0)  -->
<svg version="1.1" id="Alternate__Config" xmlns="http://www.w3.org/2000/svg" xmlns:xlink="http://www.w3.org/1999/xlink" x="0px"
	 y="0px" viewBox="0 0 1920 1080" style="enable-background:new 0 0 1920 1080;" xml:space="preserve">
<style type="text/css">
	.st0{fill:#FFFFFF;}
</style>
<title>active</title>
<path class="st0" d="M1752.7,528.5c-70.9-99.6-105.1-148.7-134.5-200.5c-9.3-16.4-16.7-32.7-20.4-44.6
	c-9.4-31.1-19.5-75.5-27.6-111.1c-2.7-12.1-5.3-23.5-7.5-32.7c-7.8-32.7-21.8-54.5-42.9-66.5c-18.6-10.6-38.6-11.3-53.1-11.8
	c-21-0.7-59.9-0.1-83.9,0.9c-18.7,0.8-42.2,8.7-48.5,41.9c-1.4,7.6-2.7,16.9-3.5,23l-0.1,1.1c-1.4,10.5-5.8,12.3-19.2,12.7
	c-27,0.7-31.9,23.4-33.7,31.9l-0.3,1.2c-5.4,24.7-19.9,80.1-29.5,107.3c-26,74.5-69.5,104-100,119.7
	c-128.4,66.2-153.6,77.4-228.4,110.5l-12.9,5.7c-18.7,8.3-22.8,20.3-25.4,28.3c-0.3,0.8-0.5,1.6-0.8,2.3c-2.8,7.7-7.4,9.1-14.4,9
	c-246.5-4.2-300.3-4.2-381.9-4.2c-48.4,0-108.6,0.1-226.5-0.8c-37.5-0.3-65.9,12.7-84.5,38.5c-11.8,16.4-19.2,37.5-22.7,64.5
	c-0.6,5.1-1.4,10.6-2.1,16.5c-6.4,49.9-16.1,125.3-18.9,170.2c-3.5,56.8,15,100.5,54.9,130c36.3,26.8,89.3,50.2,107.2,53
	c10.1,1.6,19.3,2.3,27.6,2.3c17.9,0,32-3.6,42.6-10.8c15-10.2,19.9-25.7,22.9-35c2.6-8,4.8-17.6,6.8-26c0.6-2.7,1.2-5.2,1.8-7.5
	c2.2-9,3.4-18.3,3.4-27.7l0-0.1l0-0.1c-0.6-42.7-3.5-125.2-5.8-186.9c-1.8-47.2,12.9-59.2,29.5-68.2c9.8-5.3,28.5-9.5,36.3-10.3
	c10.4-1.2,21-1.6,31.5-1.4c49.2,1.3,91.3,2.5,128.9,3.5c165.5,4.4,241,6.4,439.8,15.2c13.5,0.6,29-6.4,38.1-12.5
	c18-11.9,51.8-37.3,68.2-50.3c11.7-9.2,22.2-9.8,25.1-9.7c162.9,2.9,378.4,4.4,380.5,4.4c33,0.5,45.2-5.3,57.8-13
	c12.4-7.5,26.3-8.2,36.4-8.8l0.3,0c7.6-0.4,18.2,0,28.4,0.3c12.4,0.4,24.2,0.8,32.8,0.1c17.6-1.5,29-7.7,33.9-18.4
	C1765.7,548,1754.9,531.6,1752.7,528.5z M1740.3,555.2c-1.6,3.5-8,6-17.5,6.8c-7.4,0.6-19.1,0.2-30.4-0.2
	c-10.7-0.4-21.7-0.7-30.2-0.3l-0.3,0c-11.6,0.6-29,1.5-45.7,11.7c-10.4,6.4-19.4,10.5-47.2,10.1c-2.2,0-217.5-1.5-380.3-4.4
	c-12.4-0.2-26.2,4.9-37.8,14c-16.5,13-50,38.1-67,49.3c-7,4.7-18.5,9.6-26.1,9.2h0c-199-8.8-274.6-10.8-440.2-15.2
	c-37.6-1-79.7-2.1-128.9-3.5c-11.4-0.3-22.9,0.2-34.2,1.5c-8,0.8-30.2,5.2-43.7,12.6c-21.9,12-42,30.7-39.9,86.5
	c2.3,61.6,5.2,143.8,5.8,186.3c0,7.7-1,15.4-2.8,22.9c-0.6,2.3-1.2,4.9-1.8,7.7c-1.9,8.1-4.1,17.3-6.4,24.6
	c-5.5,17.3-12.4,38.8-71,29.7c-14-2.1-64-23.9-98.4-49.3c-34.6-25.5-49.9-62.4-46.8-112.7c2.7-44.3,12.4-119.3,18.8-168.9
	c0.8-5.9,1.5-11.4,2.1-16.5c7.3-57.5,35.5-85.5,86.1-85.5c0.3,0,0.7,0,1,0c118,0.9,178.2,0.9,226.7,0.8c81.5,0,135.3-0.1,381.6,4.2
	c16.8,0.3,28.1-7.2,33.6-22.1c0.3-0.9,0.6-1.8,1-2.8c2.2-6.5,3.9-11.7,14.6-16.4l12.9-5.7c75.2-33.3,100.5-44.5,229.4-111
	c33.5-17.3,81.4-49.7,109.7-130.9c9.9-28.3,24.4-83.8,30.1-109.6l0.3-1.4c2.3-10.8,4.5-15.9,14.6-16.1c10.4-0.3,34.6-0.9,38.6-30
	l0.1-1.1c0.8-5.9,2-14.8,3.3-21.9c2.3-12.1,7.6-24.7,29.7-25.6c23.6-1,61.8-1.6,82.4-0.9c28,0.9,62.8,2.1,77.3,63
	c2.2,9.2,4.8,20.5,7.5,32.5c8.2,36,18.4,80.7,28,112.5c4.1,13.5,11.9,30.8,22.1,48.7c29.9,52.6,64.2,102,135.5,202.2
	C1739.2,543.9,1742.2,551.2,1740.3,555.2z"/>
</svg>
