<?xml version="1.0" encoding="utf-8"?>
<!-- Generator: Adobe Illustrator 24.0.1, SVG Export Plug-In . SVG Version: 6.00 Build 0)  -->
<svg version="1.1" id="Langley_Oval__Config" xmlns="http://www.w3.org/2000/svg" xmlns:xlink="http://www.w3.org/1999/xlink"
	 x="0px" y="0px" viewBox="0 0 1920 1080" style="enable-background:new 0 0 1920 1080;" xml:space="preserve">
<style type="text/css">
	.st0{fill:#FFFFFF;}
</style>
<title>active</title>
<path class="st0" d="M1570,467.3c-0.9-64.7-14.9-123.4-41.7-174.2c-23-43.7-55.4-81.7-96.1-112.8c-71.7-54.7-156.6-78.1-212.2-81.8
	c-71.9-4.7-180.2-3.4-285-2.1c-54.8,0.7-106.5,1.3-151.5,1.1c-51.4-0.3-100.2,9.7-145,29.7c-40.4,18-76.9,43.9-108.5,76.7
	c-33.1,34.5-60.1,76.4-77.8,121c-17,42.7-25.1,86.1-23.3,125.5c2.9,62.7,15.9,119.3,38.9,168.2c20.8,44.4,49.8,83,86.3,114.5
	c32.1,27.8,70,50.2,112.4,66.4c37,14.2,76.6,23.5,117.8,27.7c66,6.7,172.8,8.1,269.7,8.1c38,0,74.4-0.2,106.3-0.4
	c17.5-0.1,33.5-0.2,47.5-0.2c95.3-0.3,185.5-38.8,254-108.4c34-34.6,61.8-76.4,80.5-120.9C1561,560.5,1570.6,512.8,1570,467.3z
	 M1426,691.2c-59,60-136.6,93.2-218.4,93.5c-14.1,0-30.2,0.1-47.7,0.2c-112,0.7-281.4,1.6-370.6-7.5l0,0
	c-89.2-9.1-298.1-59.3-310.4-329.4c-3.2-68.8,31.1-151.1,87.2-209.5c40-41.6,109.7-91.1,215.4-91.1c0.6,0,1.1,0,1.7,0
	c45.5,0.2,97.4-0.4,152.4-1.1c103.8-1.3,211.1-2.6,281.1,2c46.1,3,122.2,23.6,185.1,71.7c76.9,58.7,116.7,142.2,118.2,248
	C1521.1,546.8,1486,630.2,1426,691.2z"/>
</svg>
