<svg id="Grand_Prix_Config" data-name="Grand Prix_Config" xmlns="http://www.w3.org/2000/svg" viewBox="0 0 1920 1080"><defs><style>.cls-1{fill:#fff;}</style></defs><title>active</title><path class="cls-1" d="M1834.67,617.19c-10.05-31.72-32.68-41-54.56-49.87a235.45,235.45,0,0,0-34-10.37l-102-21.29a10,10,0,1,0-4.09,19.58l102,21.29a215.15,215.15,0,0,1,30.5,9.31c22.26,9.07,36.25,15.74,43.11,37.55l.13.41c15.06,41.59-5.91,57.6-7.64,58.83l-.42.29c-1.62,1.17-162.54,117.78-173,125.34l-.34.25c-39.37,31.07-80.27,28.26-80.64,28.23l-.41,0L663,834.38l-442.51-1.17c-19.34-.53-71.72-2.51-83.73-5.22l-.66-.13c-9.72-1.52-63.61-19.77-68.48-64-2.82-25.6,4.59-46.71,11.3-59.91A74.8,74.8,0,0,1,95.9,682L275.08,521.86l.38-.35.35-.37a228.34,228.34,0,0,1,55.63-41.77c32.34-17.2,55.14-18.86,94-16.05,16.88,1.51,36-2,56.95-10.34a194.91,194.91,0,0,0,60-38.28c45-41.69,195.72-180.42,245.47-215.47,49.26-34.7,89.36-10,106.48.55,1.48.91,2.79,1.72,4,2.4,80,58.32,156.71,143.68,164.48,161.93l.49,1.17.77,1c28.39,37,27.94,106,27.77,132,0,3.59,0,6.45,0,8.59,0,38.3,19.83,70,57.23,91.58a186.56,186.56,0,0,0,55.37,20.78c9.53,1.94,194.84,39.55,218.1,43.25l.19,0c30.24,4.22,59.53-4.6,73.61-8.84,1.82-.54,3.37-1,4.62-1.35l.23-.07c92.19-27.79,106.42-90.27,107.29-94.56,12-55.27,30.24-138.86,31.26-142.86,0,.12,0,.2-.07.26,1.13-3.78,10.64-54.15,14.13-82.55,3.81-31.08-8.12-53.05-8.63-54l-.21-.35c-4.93-8.11-48.34-79.44-53.84-86.59l-.48-.63-.59-.55c-26.77-25.22-54.92-26.7-73.82-23.5a95.25,95.25,0,0,0-34.73,13.2l-.14.1L1245.7,353c-18.31,13.51-27.65,32.83-27.74,57.43-2.13,29.73,12.57,46.7,25.3,55.7a77,77,0,0,0,27.7,12.09l290,60.49a10,10,0,1,0,4.09-19.58l-290-60.51-.3-.06a56.71,56.71,0,0,1-19.85-8.75c-12.46-8.82-18.14-21.69-16.88-38.24l0-.76c0-11.7,2-28.75,19.59-41.7l235.33-172.57c3.1-2,44.26-27.84,82.83,7.79,5.11,7.24,34.19,54.61,52,83.95.86,1.69,9.07,18.55,6.22,41.74-3.33,27.16-12.43,75.29-13.49,79.46l0-.13c-1.09,4-20.21,91.82-31.57,144.1l0,.17c0,.13-3,13.84-15.8,30.33-17,21.91-43.86,38.86-77.55,49-1.35.37-3,.87-5,1.45-12.7,3.83-39.1,11.78-65,8.2-23.36-3.74-215.34-42.71-217.28-43.1l-.27-.05a169.28,169.28,0,0,1-49.41-18.69c-31-18.1-46.78-43-46.78-74.12v-.25c0-1.84,0-4.6,0-8.09.18-27.65.66-100.76-31.19-143.33-7.32-15.41-35.11-46.7-59.15-71.31-21-21.54-63.56-62.93-111.84-98l-.46-.34-.49-.28c-1-.56-2.32-1.37-3.85-2.32-9.15-5.64-26.18-16.13-48.42-20-27.48-4.74-54.42,2-80.07,20.1C725.62,218.65,574.08,358.13,528.84,400a175.11,175.11,0,0,1-53.9,34.39c-18,7.21-34.07,10.23-47.8,9H427c-35.13-2.54-65.16-2.81-104.9,18.33-34.76,18.47-57.4,42.05-60.67,45.55L82.57,667.08a94.7,94.7,0,0,0-21.48,27.79c-8,15.62-16.71,40.66-13.35,71.16C50.36,789.82,63.92,811,87,827.16c17.6,12.36,36.81,18.93,45.71,20.41,16.64,3.59,80.15,5.44,87.38,5.64h.13L663,854.38l889.57,2.33c.77,0,2.35.13,4.62.13,13.58,0,51.87-2.91,89.47-32.49,11.8-8.53,167.69-121.49,172.75-125.16C1823.24,696.52,1854.69,672.75,1834.67,617.19Z"/></svg>