<svg id="Oval_-_Config" data-name="Oval - Config" xmlns="http://www.w3.org/2000/svg" viewBox="0 0 1920 1080"><defs><style>.cls-1{fill:#fff;}</style></defs><title>active</title><path class="cls-1" d="M1734.46,369.5c-.61-1.33-1.38-3.12-2.27-5.19-11.61-27.08-46.94-109.48-172.11-178.14l-.25-.13c-63.22-32.39-192.65-41.46-198.12-41.83C1329.44,142,500,56,484.2,54.33c-3.62-.49-43.09-5.27-99.56,9A375.14,375.14,0,0,0,286.3,104c-39.09,23-75.59,53.48-108.49,90.61l-.52.64c-1.72,2.3-4.15,5.23-7,8.63C146,233.31,88.92,302.16,88.13,439.69c-.07,2.95-.69,39,13.3,89.52A403.58,403.58,0,0,0,208,709.53l.24.22c34.16,31.32,103.11,80.66,306.61,147.3C542,866,682.22,911.08,778.5,922.7c88.87,10.73,192.44,19.14,194.14,19.28l53,4.45.46,0c.74,0,8.31.3,21.28.3,18.82,0,49-.58,86.06-3.32,12.29-.91,24.73-2.32,37-4.19l198.84-30.32,118.5-18.27.17,0c2.74-.47,68-12.23,139.53-69.66l2.56-2.1c34-28,90.92-74.76,130.45-213.79l.09-.31c.31-1.26,7.63-31.16,8.14-75.14C1769.15,489,1763.59,428.31,1734.46,369.5Zm14.23,159.32c-.41,40.33-7,68.78-7.53,71C1703.34,732.66,1649.48,777,1617.3,803.42l-2.43,2c-66.31,53.18-128,65.06-130.29,65.49l-118.37,18.25-198.83,30.32c-11.73,1.79-23.65,3.14-35.42,4-59.17,4.38-101.5,3.1-104.9,3L974.29,922h0c-1-.08-104.61-8.48-193.36-19.19-73.21-8.84-185.7-40.43-259.79-64.8C321.52,772.69,254.73,725.19,221.89,695.12a383.76,383.76,0,0,1-101-170.49c-13.64-48.9-12.79-84.13-12.78-84.46v-.26c.72-130.45,54.59-195.48,77.59-223.25,2.86-3.45,5.34-6.45,7.32-9.06C263.86,127.8,338.43,95.78,388.54,83c54.45-13.93,92.69-8.85,93-8.8l.38,0c34.51,3.59,845.62,87.75,878.39,90,45,3,142.49,15.22,190.22,39.6,119,65.33,152.3,142.92,163.23,168.42,1,2.27,1.82,4.24,2.56,5.84l.11.23C1743.8,433.35,1749.08,490.54,1748.69,528.82Z"/></svg>