<svg id="Road_Course_-_Config" data-name="Road Course - Config" xmlns="http://www.w3.org/2000/svg" viewBox="0 0 1920 1080"><defs><style>.cls-1{fill:#fff;}</style></defs><title>active</title><path class="cls-1" d="M1734.46,369.49c-.61-1.32-1.38-3.11-2.27-5.18-11.61-27.08-46.94-109.48-172.11-178.14l-.25-.13c-63.22-32.39-192.65-41.46-198.12-41.83-15.06-1-207.45-20.6-556.37-56.64L748.6,81.71a192.45,192.45,0,0,0-50.76,1.45C657,89.8,580.27,109.77,525,168.9c-17.24,18.44-36.77,39.33-38.92,75.17-2.53,42.24,7.92,76.72,31.07,102.47,20.65,23,47.53,34.19,66.44,39.55a147.13,147.13,0,0,0,17.65,3.82c10.39,1.61,23.17,3.54,43.35,5.93,14.4,1.77,51.41,1.38,55.6,1.33,22.29,1.16,44.32-1.68,66.81-5,4-.58,7.58-1.18,10.78-1.81,8.18-1.58,31.18-6.27,63-12.77,89-18.14,237.84-48.52,312.43-62,32.71-5.93,109.28-19.81,167.32,47.41l.56.69c19.43,23.87,47.75,73.67,19.58,139.23l-1,1.9c-7.51,14.53-30.37,58.77-116,57h-.2c-47.63,0-316.73-13.07-319.48-13.2L620.26,536c-9.7-.43-19.51-1.35-29.15-2.72-27.31-3.89-95.35-15.22-137-36.4l-.18-.09c-38.55-18.64-54.38-49.35-61.15-62.47-.51-1-1-1.89-1.39-2.67-4.73-8.94-54.63-96.57-58.65-103.65a93,93,0,0,0-23.32-28.94c-15-12.53-41.17-26.25-80.47-20.39a218,218,0,0,0-27,5.75c-50.82,14.39-91.67,55.91-106.61,108.37-6.45,22.65-8.17,47.26-5.42,77.46l0,.21c5.84,51.81,29,151.76,118.08,239.07l.24.22c34.16,31.32,103.11,80.66,306.61,147.3C542,866,682.22,911.08,778.5,922.7c89.16,10.76,193.11,19.19,194.12,19.27l53,4.46.46,0c.74,0,8.31.3,21.28.3,18.82,0,49-.58,86.06-3.32,12.29-.91,24.73-2.32,37-4.19l198.84-30.32,118.5-18.27.17,0c2.74-.47,68-12.23,139.53-69.66l2.56-2.1c34-28,90.92-74.76,130.45-213.79l.09-.31c.31-1.26,7.63-31.16,8.14-75.14C1769.15,489,1763.59,428.3,1734.46,369.49Zm14.23,159.33c-.41,40.33-7,68.78-7.53,71C1703.34,732.66,1649.48,777,1617.3,803.42l-2.43,2c-66.31,53.18-128,65.06-130.29,65.49l-118.37,18.25-198.83,30.32c-11.73,1.79-23.65,3.14-35.42,4-59.18,4.38-101.51,3.1-104.9,3L974.26,922c-1-.08-104.61-8.48-193.36-19.19-73.21-8.84-185.7-40.43-259.79-64.8C321.53,772.69,254.74,725.2,221.9,695.13,137.35,612.24,115.38,517.5,109.82,468.32c-2.51-27.61-1-49.87,4.75-70.05,13.06-45.84,48.62-82.09,92.82-94.6a194.55,194.55,0,0,1,24.52-5.22c60.29-9,82,36.39,82.84,38.28l.43.84c.54.95,53.86,94.6,58.56,103.45.38.72.8,1.54,1.28,2.46,7,13.61,25.63,49.72,70.12,71.28,42.72,21.69,108,33.32,143.16,38.32,10.27,1.46,20.73,2.44,31.07,2.9l283.7,12.64c11.09.54,271.94,13.2,320.31,13.22,41.35.82,75-8.21,100.12-26.82a113.56,113.56,0,0,0,34-41c.39-.76.73-1.42,1-2l.39-.79c15.79-36.5,17.87-73.06,6.17-108.66a161.55,161.55,0,0,0-28.42-51.52l-.84-1c-27.69-32.12-62.23-51.52-102.66-57.65-34.9-5.29-66.49.44-83.47,3.52-74.8,13.56-223.82,44-312.86,62.13C805,364.52,782.05,369.2,774,370.77c-2.9.56-6.21,1.12-9.86,1.65-21.56,3.14-42.61,5.87-63.18,4.76h-.67c-.39,0-39.63.49-53.27-1.18-19.89-2.36-32.46-4.26-42.68-5.84a129.55,129.55,0,0,1-15.26-3.3c-40.5-11.49-87.78-41.92-83-121.58,1.59-26.65,14.32-42.13,33.56-62.71,51.22-54.79,123.13-73.43,161.44-79.66a173.17,173.17,0,0,1,45.5-1.3l56.74,5.86c243.47,25.15,537.75,55.4,557.07,56.71,45,3,142.49,15.22,190.22,39.6,119,65.33,152.3,142.92,163.23,168.42,1,2.27,1.82,4.24,2.56,5.84l.11.23C1743.8,433.35,1749.08,490.54,1748.69,528.82Z"/></svg>