<svg id="Infield_Road_Course_-_Config" data-name="Infield Road Course - Config" xmlns="http://www.w3.org/2000/svg" viewBox="0 0 1920 1080"><defs><style>.cls-1{fill:#fff;}</style></defs><title>active</title><path class="cls-1" d="M1228.5,581.89c-1.69,0-3.4,0-5.12,0-48.4,0-309.22-12.68-320.31-13.22L619.37,556c-10.34-.46-20.8-1.44-31.07-2.9-35.14-5-100.43-16.62-143.15-38.32C400.65,493.21,382,457.09,375,443.48c-.48-.92-.9-1.74-1.28-2.46-4.7-8.85-58-102.5-58.56-103.45l-.43-.84c-.74-1.6-19-40.09-68.64-39.46a171.68,171.68,0,0,1-42.17-4.76l-2.45-.61-6-1.9c-26.81-8.36-38.73-31.82-31.1-61.22,4.78-18.39,13.39-34.54,24.91-46.7,32.2-34,67.67-61.89,105.41-82.88a372.43,372.43,0,0,1,94.53-37C442.5,49.5,479.63,53.73,484,54.31c9.59.7,80.31,7,97.14,40.56,4.34,8.65,7,22.87-5,41.56C567,150.66,541,181,539.89,182.25l-.28.31c-19.24,20.58-32,36.06-33.56,62.71-4.78,79.72,42.56,110.14,83.11,121.61a127.1,127.1,0,0,0,15.14,3.27c10.22,1.58,22.79,3.48,42.69,5.84,13.64,1.67,52.88,1.19,53.27,1.18h.67c20.57,1.11,41.62-1.62,63.18-4.76,3.65-.53,7-1.09,9.86-1.65,8.08-1.57,31-6.25,62.82-12.73,89-18.17,238.06-48.57,312.86-62.13,17-3.08,48.57-8.81,83.47-3.52,40.43,6.13,75,25.53,102.66,57.65l.84,1A161.55,161.55,0,0,1,1365,402.58c11.7,35.6,9.62,72.16-6.17,108.66l-.39.79c-.3.56-.64,1.22-1,2a113.56,113.56,0,0,1-34,41C1299.44,572.86,1267.5,581.89,1228.5,581.89ZM332.75,328c4.1,7.2,53.92,94.7,58.65,103.63.42.77.88,1.67,1.39,2.67,6.77,13.12,22.6,43.83,61.15,62.47l.18.09c41.64,21.18,109.68,32.51,137,36.4,9.64,1.37,19.45,2.29,29.15,2.72L904,548.64c2.75.13,271.85,13.2,319.48,13.2h.2c85.63,1.75,108.49-42.49,116-57l1-1.9c28.18-65.57-.15-115.36-19.58-139.23l-.56-.7c-58-67.21-134.61-53.33-167.32-47.4-74.59,13.52-223.47,43.9-312.43,62-31.83,6.5-54.83,11.19-63,12.77-3.2.63-6.83,1.23-10.78,1.81-22.49,3.27-44.52,6.12-66.81,5-4.17.05-41.2.44-55.6-1.33-20.18-2.39-33-4.32-43.36-5.93a150.52,150.52,0,0,1-17.52-3.78c-18.93-5.36-45.83-16.56-66.5-39.53-23.19-25.75-33.66-60.25-31.13-102.53,2.14-35.74,21.57-56.61,38.77-75,2-2.37,26.38-30.86,34.47-43.45,8.36-13,5.06-19.6,4-21.77-9-18-54.48-27.72-81-29.61l-.71-.07c-.34,0-36.57-4.86-88.68,7.71-48,11.59-119.78,40.77-189.08,114-9.2,9.72-16.14,22.85-20.07,38-3.46,13.32-3.2,30.58,17.73,37.11l5.68,1.8,1.42.33a151.89,151.89,0,0,0,37.27,4.22h1.49C306.63,277.26,330.07,322.42,332.75,328Z"/></svg>