<svg id="Short_Road_Course_-_Config" data-name="Short Road Course - Config" xmlns="http://www.w3.org/2000/svg" viewBox="0 0 1920 1080"><defs><style>.cls-1{fill:#fff;}</style></defs><title>active</title><path class="cls-1" d="M1334.64,363.48c-1-12.48-7.72-24.09-20.14-34.52-61.7-51.75-134-38.65-164.85-33-30.29,5.49-76.79,14.5-138.15,26.75-2,.38-47.91,9.74-55,55v.12c-2.17,15.19,10.65,31.12,19.49,37.85,2.68,2.43,4.51,6.14,4.29,8.75-.06.65-.2,2.39-3.32,4.29a17.51,17.51,0,0,1-7.8,2.33L776.56,445c-4.83.11-35.77,1.46-50.88,18.88-6.4,7.38-9.1,16.71-7.8,27,2.41,20.52,20.3,47.12,63.29,60.33l.14,0c18.88,5.5,110.69,16.17,121.1,17.37l.66.06c1.22.06,123.69,6,217.76,9.88,2.86.12,5.63.18,8.33.18,52.6,0,73.81-22.19,76.68-25.5.52-.57,1.24-1.29,2.06-2.11,7.15-7.2,22-22.17,13.89-45.91l-.29-.74a79.84,79.84,0,0,0-7.37-12.6c-6.58-9.81-10.16-15.84-6.76-25.18,1-2.14,5.47-6.91,16.67-11.76,5.77-2.5,10.4-4.66,14.56-6.81L1298.72,417a73.67,73.67,0,0,0,21.6-16.73C1330.62,388.49,1335.57,375.79,1334.64,363.48ZM1305.3,387a53.8,53.8,0,0,1-15.78,12.17c-13.4,6.94-44.33,23-60.1,31.11-3.75,1.94-8,3.92-13.33,6.23-10,4.33-22.85,11.78-27.29,22.67l-.11.29c-7.25,19.51,2,33.36,8.83,43.48A69,69,0,0,1,1203,512c3.55,10.87-1.86,17.47-9.29,24.94-1,1-1.93,1.94-2.77,2.88l-.34.38c-1.09,1.2-19.42,20.41-68.93,18.28h0c-91.58-3.76-210.13-9.51-217.28-9.85-28-3.24-102.7-12.41-117.4-16.66-33.81-10.4-47.65-29.95-49.23-43.54l0-.11c-.59-4.67.37-8.28,3-11.37,8.14-9.42,29.55-11.89,36.4-12h.28l193.19-14a37.47,37.47,0,0,0,16.75-5.2c7.61-4.64,12.18-11.64,12.85-19.71.91-10.94-5.26-20.46-11.35-25.72l-.58-.47c-5.85-4.35-12.65-14.23-12-19.19,4.9-31.11,37.62-38.05,39-38.33,61.31-12.25,107.69-21.23,137.87-26.7,30.48-5.53,93.92-17,148.42,28.69,8.14,6.83,12.53,13.8,13,20.71C1315.35,373.61,1310,381.73,1305.3,387Z"/></svg>