<svg id="North_Config" xmlns="http://www.w3.org/2000/svg" viewBox="0 0 1920 1080"><defs><style>.cls-1{fill:#fff;}</style></defs><title>active</title><path class="cls-1" d="M1834.67,617.19c-8.39-26.46-26-37.43-43.8-45.34-13-5.78-35.6-13-50.33-16.07l-96.44-20.12a10,10,0,1,0-4.09,19.58l96.44,20.12c13.36,2.79,34.56,9.55,46.29,14.77,16.54,7.35,27.22,15.15,32.92,33.26l.13.41c15.06,41.59-5.91,57.6-7.64,58.83l-.08,0L1725,742.87c-.69.51-1.38,1-2,1.54a30,30,0,0,1-16,5.86c-11.26.59-22.31-5.9-32.92-19.34-.79-1-1.65-2.15-2.55-3.34-16.77-21.88-51.65-67.41-61.92-133a45.68,45.68,0,0,1-.52-6.13c-.13-5-.22-11.91-.29-20.45a100.9,100.9,0,0,1,2.32-22.32c17.18-79,27.9-127.94,28.67-131,0,.12-.06.21-.07.26,1.12-3.73,10.64-54.14,14.13-82.55,3.81-31.08-8.12-53.05-8.63-54l-.21-.35c-.34-.56-34.2-56.23-48-77.83a68.06,68.06,0,0,0-18.17-19.17c-19.91-14-43.06-18.66-67-13.42a94.72,94.72,0,0,0-30.34,12.35l-.14.1L1245.7,353c-18.1,13.35-27.44,32.35-27.74,56.46,0,.71,0,1.43-.08,2.14l0,.7c-1.4,29,13.36,45.48,26,54.23A77.06,77.06,0,0,0,1271,478.25l290,60.49a10,10,0,1,0,4.09-19.58l-290-60.51-.26,0a56.78,56.78,0,0,1-20-8.85c-12-8.51-17.64-20.77-16.88-36.45l0-.64c.05-1,.1-1.94.11-2.92.22-17.76,6.64-31.05,19.59-40.6l235.33-172.57c2.84-1.87,38.58-24.28,74.41,1a48.22,48.22,0,0,1,12.84,13.58c13.22,20.71,45.19,73.23,47.62,77.23.79,1.53,9.07,18.44,6.21,41.72-3.32,27.12-12.41,75.15-13.49,79.44-.36,1.36-2.6,11-28.93,132a121.91,121.91,0,0,0-2.77,26.72c.07,8.65.17,15.65.29,20.79a67.87,67.87,0,0,0,.76,8.73c11.06,70.57,48,118.83,65.8,142,.91,1.19,1.77,2.3,2.56,3.35l.11.13c17.36,22,34.9,27.07,47.3,27.07.84,0,1.66,0,2.45-.07a50.28,50.28,0,0,0,27.2-10.07c.49-.37,1-.74,1.48-1.1l82.63-59.87C1823.23,696.53,1854.69,672.75,1834.67,617.19Z"/></svg>