<?xml version="1.0" encoding="utf-8"?>
<!-- Generator: Adobe Illustrator 25.0.0, SVG Export Plug-In . SVG Version: 6.00 Build 0)  -->
<svg version="1.1" id="South_Config" xmlns="http://www.w3.org/2000/svg" xmlns:xlink="http://www.w3.org/1999/xlink" x="0px"
	 y="0px" viewBox="0 0 1920 1080" style="enable-background:new 0 0 1920 1080;" xml:space="preserve">
<style type="text/css">
	.st0{fill:#FFFFFF;}
</style>
<path class="st0" d="M1364,856.2h-18.3L663,854.4l-442.8-1.2l-0.1,0c-7.2-0.2-70.7-2-87.4-5.6c-8.9-1.5-28.1-8-45.7-20.4
	C64,811,50.4,789.8,47.8,766c-2.6-24.6,2-49.2,13.3-71.2c5.4-10.5,12.6-19.9,21.5-27.8l178.8-159.8c3.3-3.5,25.9-27.1,60.7-45.6
	c39.8-21.1,69.8-20.9,104.9-18.3l0.2,0c13.7,1.2,29.8-1.8,47.8-9c20-8.1,38.1-19.6,53.9-34.4c45.3-41.9,196.9-181.5,247.6-217.2
	c25.7-18.1,52.6-24.8,80.1-20.1c22.2,3.8,39.3,14.3,48.4,20c1.5,0.9,2.8,1.8,3.8,2.3l0.5,0.3l0.5,0.3c48.3,35.1,90.8,76.5,111.8,98
	c24,24.6,51.8,55.9,59.1,71.3c31.8,42.6,31.4,115.7,31.2,143.3c0,3.5,0,6.2,0,8.1l0,0.3c0,75.3,95.2,92.6,96.2,92.8l0.3,0.1
	c1.1,0.2,115,23.5,180.5,36.5l0.5,0.1c2.8,0.7,69.7,18.4,78.7,76.8c9.1,59.1-2.2,78.9-20.4,102.3
	C1428.2,840.3,1385.1,856.2,1364,856.2z M220.5,833.2l442.5,1.2l682.7,1.8h18.2c16.5,0,53.1-14.2,67.8-33.1
	c15.5-19.9,24.5-34.7,16.5-87c-6.8-43.8-59.9-59.3-63.7-60.4c-64.7-12.8-175.7-35.5-180.2-36.5c-2.6-0.5-28.8-5.4-55.4-20.8
	c-37.4-21.6-57.2-53.3-57.2-91.6c-0.1-2.1,0-5,0-8.6c0.2-26,0.6-95-27.8-132l-0.8-1l-0.5-1.2c-7.7-18.2-84.3-103.5-164.4-161.9
	c-1.2-0.7-2.5-1.5-3.9-2.4c-17.1-10.6-57.2-35.3-106.5-0.6c-49.7,35-200.4,173.8-245.5,215.5c-17.6,16.4-37.8,29.3-60,38.3
	c-21,8.4-40.1,11.9-57,10.4c-38.8-2.8-61.6-1.1-94,16.1c-33.8,18-55.4,41.5-55.6,41.8l-0.3,0.4L95.9,682c-7,6.2-12.7,13.6-17,22
	c-9.5,18.5-13.4,39.2-11.2,59.9c4.9,44.2,58.8,62.5,68.5,64l0.7,0.1C148.8,830.7,201.2,832.7,220.5,833.2z"/>
</svg>
