<svg id="North_A_Config" data-name="North A_Config" xmlns="http://www.w3.org/2000/svg" viewBox="0 0 1920 1080"><defs><style>.cls-1{fill:#fff;}</style></defs><title>active</title><path class="cls-1" d="M1834.67,617.19c-8.39-26.45-26-37.43-43.8-45.34-13-5.78-35.6-13-50.33-16.07l-96.44-20.12a10,10,0,1,0-4.09,19.58l96.44,20.12c13.36,2.79,34.56,9.55,46.29,14.77,16.54,7.35,27.22,15.15,32.92,33.26l.13.41c15.06,41.59-5.91,57.6-7.64,58.83l-.08,0L1725,742.87c-.69.51-1.38,1-2,1.54a30,30,0,0,1-16,5.86c-11.26.59-22.32-5.9-32.92-19.34-.8-1-1.65-2.15-2.55-3.34-16.77-21.88-51.65-67.41-61.92-133a45.82,45.82,0,0,1-.52-6.13c-.13-5-.22-11.87-.29-20.46a100.79,100.79,0,0,1,2.32-22.3c17.18-79,27.9-127.95,28.67-131,0,.12-.06.21-.07.27.8-2.66,4.21-21,6.26-32.58l.1-.74c1.34-13.12,1.58-27.18-5.6-41-4.65-9-8.36-15.26-11.32-19.17-14.23-20.33-38.24-66.83-39.89-74.46l-.18-1c0-.19-4.31-18.62-3-34.16l0-.32a38,38,0,0,0-22.63-39.14c-42.56-18.69-80.4,6.53-82,7.61l-.14.1L1245.7,353c-18.1,13.35-27.44,32.35-27.74,56.46,0,.71,0,1.43-.08,2.14l0,.7c-1.4,29,13.36,45.48,26,54.23a77.6,77.6,0,0,0,26.52,11.56c23.27,7.55,41-2.85,46.76-11.28.49-.7,1-1.47,1.55-2.31,3.07-4.65,7.27-11,17.77-21.92s19-12.49,25.77-13.7c3.84-.28,7.7.67,21.3,5.2,16.1,5.37,27.63.09,35.25-3.41,1.2-.55,2.34-1.07,3.29-1.45l.54-.23c51-23.95,65.76-51.09,72-62.68.41-.77.79-1.46,1.13-2.06,5.37-9.47,20-53.46,22.89-62.18l.25-.92c2.69-11.81,9-24.94,12.55-26.1l.33,0c.43.09,2.22,1.19,4.66,4.93a73.18,73.18,0,0,1,5.62,11.14c.22.53.43,1,.62,1.44,14.31,50.44,11,78,8.88,96.28l-.07.55c-2.38,21.1-23,33.35-25.56,34.8-17.19,7.21-61.78,25.76-69.27,28.26-11.45,3.81-27.76,15.58-28.19,29.8v.58c.72,25.57,19.64,34.9,33,35.15l99.49,20.76a10,10,0,1,0,4.09-19.58l-100.5-21-1-.27-1.23.06a16.66,16.66,0,0,1-7.35-2.07c-1.5-.86-6-3.47-6.45-13.1.59-2.46,7-8.9,14.5-11.39,9.82-3.27,68.65-27.93,71.15-29l.73-.34c1.33-.69,32.76-17.32,36.5-50.41l.06-.5c2.22-18.73,5.93-50.07-9.7-104.79l-.2-.72-.31-.67c-.22-.48-.47-1.08-.77-1.76-3.78-8.83-12.6-29.42-30-28.14-10,.47-18.32,8.23-24.82,23.09a116.76,116.76,0,0,0-6.06,18c-6.45,19.52-17.78,52.23-21.16,58.17-.39.71-.83,1.51-1.31,2.4-5.34,9.85-17.82,32.87-62.71,54-1.32.53-2.64,1.14-3.91,1.72-6.16,2.82-12,5.49-20.59,2.62-15.47-5.16-21.62-6.89-29.87-6.11l-1.09.16c-8.13,1.45-21.73,3.87-36.84,19.54-11.78,12.24-16.77,19.79-20.06,24.79-.49.73-.93,1.41-1.33,2-.07.09-8.44,8.87-24.52,3.45l-.71-.23-.7-.13a56.78,56.78,0,0,1-20-8.85c-12-8.51-17.64-20.77-16.88-36.45l0-.64c.05-1,.1-1.94.11-2.92.22-17.76,6.64-31.05,19.59-40.6l235.33-172.57c2.45-1.61,31.1-19.59,62.58-5.76a18.3,18.3,0,0,1,10.8,18.61l-.07.64c-1.59,17.85,2.7,37.56,3.34,40.34,2.5,13.2,30.28,64.18,43.34,82.78l.23.32c1.26,1.65,4.19,6,9.6,16.42,4.45,8.58,4.63,18,3.49,29.42-2.91,16.4-5.29,28.44-5.71,30.14-.36,1.33-2.55,10.74-28.94,132a121.85,121.85,0,0,0-2.77,26.72c.07,8.69.17,15.69.29,20.8a67.87,67.87,0,0,0,.76,8.72c11,70.57,48,118.83,65.8,142,.91,1.18,1.77,2.3,2.56,3.35l.11.13c17.36,22,34.9,27.07,47.3,27.07.84,0,1.66,0,2.45-.07a50.28,50.28,0,0,0,27.2-10.07c.49-.37,1-.74,1.48-1.1l82.63-59.87C1823.23,696.53,1854.69,672.76,1834.67,617.19Z"/></svg>