<?xml version="1.0" encoding="utf-8"?>
<!-- Generator: Adobe Illustrator 24.0.1, SVG Export Plug-In . SVG Version: 6.00 Build 0)  -->
<svg version="1.1" id="Homestead_Road_A__Config" xmlns="http://www.w3.org/2000/svg" xmlns:xlink="http://www.w3.org/1999/xlink"
	 x="0px" y="0px" viewBox="0 0 1920 1080" style="enable-background:new 0 0 1920 1080;" xml:space="preserve">
<style type="text/css">
	.st0{fill:#FFFFFF;}
</style>
<title>active</title>
<path class="st0" d="M1290.5,952.8c-0.8,0-1.6,0-2.4,0c-132.8-2.5-222.9-3.1-310.1-3.7c-122.2-0.8-237.6-1.6-451.9-7.8h0
	c-74.9-2.2-134.3-37.7-171-67.1c-23.2-18.6-45.5-41-34.8-65.9c2.9-6.7,11.1-20.1,14.6-25.5c13.1-19.7,3.7-37.1-5.9-50.1
	c-3.9-5.2-8.2-11.1-13-17.6c-28-37.8-70.2-95-97.6-127.4c-17.3-20.5-24.4-42.3-20.9-65c2.8-18.7,12-33.6,18.6-44.6l1.4-2.3
	c28.6-47.2,54.1-93.7,76.6-134.8c22-40.2,41-75,58.4-102c17.3-27,41-49.3,70.4-66.2c23.3-13.4,50.2-23.5,79.9-29.9
	c48.4-10.5,88-8,92.5-7.6c165.1,1.4,655.1,2.7,660,2.7l0.6,0c89.1,5.3,155.1,40.8,160.5,43.8c8.4,4.1,138.8,67.9,182.5,92.6
	c30.6,17.3,44.9,44,36.4,68.1c-15.4,43.3-54.8,38.9-76,36.5c-1.9-0.2-3.6-0.4-5.3-0.6c-100.8-9.5-220.6-21.7-347.4-34.6
	c-213.9-21.8-435.2-44.3-597.7-57.3c-19.7-1.6-46.2,4.1-71,15.2c-26.1,11.7-46.9,27.9-57.1,44.4c-4.8,7.9-9.6,15.4-14.2,22.7
	c-17.8,28.2-36.1,57.4-66.6,116.1c-8.5,16.3-9.3,30.3-2.4,41.7c9.4,15.6,31.4,23.6,41.2,23.7c87,0.8,201.1-0.2,321.9-1.1
	c151.2-1.2,307.6-2.5,419.4-0.4c41.1,0.8,76.6,8.9,108.5,24.8c27.6,13.7,47.8,30.8,65.7,45.9l1.8,1.6c18.6,15.7,41.8,12.7,52.8,6.8
	c18.3-9.7,22.5-27.1,23.5-34.1c1-7.1,2.5-16.6,4.1-26.6c2.8-17.1,5.9-36.5,7.2-50.1c4.5-47.3,18.7-63.1,38.5-72.4
	c28.9-13.4,54.9-8.3,77.3,15c8.8,9.2,26.1,28.8,34.2,39c9.3,11.6,26.4,38.5,33.8,52.4c13.1,24.4,31.7,73.7,45,110.7
	c17.3,48.3-13.5,75.4-25.1,85.6c-33.8,29.6-138.3,105-142.8,108.2c-0.5,0.3-53.3,39.1-71.8,52.3
	C1393.2,936,1328.9,952.8,1290.5,952.8z M526.6,921.2c214.1,6.3,329.4,7,451.5,7.8c87.2,0.6,177.3,1.2,310.3,3.7c0.7,0,1.4,0,2.1,0
	c35.4,0,95.4-16.2,130.6-41.1c18.4-13,71.1-51.7,71.6-52.1c1.2-0.8,108.3-78,141.3-107c16.7-14.7,30.7-32.6,19.5-63.8
	c-10.7-29.8-30.7-83.4-43.8-108c-6.9-12.9-23.3-38.7-31.8-49.3c-7.8-9.6-24.8-29-33.1-37.7c-11.1-11.6-27.3-23.3-54.5-10.7
	c-9.6,4.4-22.7,10.5-27,56.1c-1.3,14.2-4.5,33.9-7.3,51.4c-1.6,9.9-3.1,19.2-4,26.1c-1.4,10-7.4,35-33.9,49
	c-19,10.1-50.6,11.5-75.1-9.2l-1.8-1.6c-33.9-28.7-76.1-64.4-161.7-66c-111.6-2.1-267.8-0.8-418.9,0.4c-120.9,1-235,1.9-322.2,1.1
	c-15.4-0.1-44.6-10.8-58.1-33.4c-7.3-12.2-13-32.8,1.8-61.2c30.9-59.5,49.5-89,67.5-117.6c4.6-7.2,9.3-14.7,14-22.5
	c26.7-43.4,100.8-72.8,146.8-69.1c162.7,13,384,35.5,598.1,57.3c126.8,12.9,246.5,25.1,347.3,34.6c1.8,0.2,3.7,0.4,5.6,0.6
	c25.5,2.8,45.7,2.9,55-23.3c5.1-14.4-5.6-31.7-27.4-43.9c-43.7-24.7-180.3-91.5-181.7-92.2l-0.5-0.3c-0.6-0.4-65.8-36.2-151.9-41.4
	c-14.3,0-497-1.3-660.2-2.7l-0.7,0c-0.4,0-40-3.1-87.6,7.3c-62.7,13.7-108.9,43.1-137.2,87.2c-16.9,26.5-35.8,60.9-57.7,100.9
	c-22.6,41.2-48.2,88-77,135.5l-1.4,2.3c-12.1,19.8-30.3,49.7,0.5,86.2c27.8,32.8,70.3,90.3,98.4,128.4c4.8,6.5,9.2,12.4,13,17.6
	c3.3,4.4,10.9,14.7,14.4,27.8c4.2,15.8,1.6,31-7.9,45.2c-3.8,5.7-10.9,17.5-12.9,22.3c-1.7,3.9-6.1,14.2,29,42.4
	C401.9,886,457.3,919.2,526.6,921.2L526.6,921.2z"/>
</svg>
