<svg id="North_B_Config" data-name="North B_Config" xmlns="http://www.w3.org/2000/svg" viewBox="0 0 1920 1080"><defs><style>.cls-1{fill:#fff;}</style></defs><title>active</title><path class="cls-1" d="M1645.19,278.52l-.21-.35c-1.57-2.58-38.61-63.49-50.42-81.59A41.84,41.84,0,0,0,1586,187l-6.87-5.61-.6-.46a82.67,82.67,0,0,0-62.68-14,25.81,25.81,0,0,0-9.27,3.6c-19.78,12.64-26.71,36.05-29.32,44.87-.19.66-.36,1.24-.52,1.72l-.23.92c-4.06,19.2-24.73,47.32-33.55,59.33l-1.39,1.89a32.67,32.67,0,0,0-5.67,13.79,41.23,41.23,0,0,0,12.65,37c11.19,10.56,18.58,17.6,20.78,19.8a33.54,33.54,0,0,1,4.1,5.61l.14.23a7.34,7.34,0,0,1-.16,7.44c-11.38,18.52-31.33,34.57-59.31,47.7l-.2.1-2.23,1.13c-4.7,2.42-14.31,7.37-18.37,4.93-2-4.16-.4-19.43,2.62-23.72h0c.33-.46.63-.92.92-1.38a26.49,26.49,0,0,0-2-30.59,204.68,204.68,0,0,0-17.14-18.53c-18.41-17.87-44.51-12.9-45.61-12.68l-64.77,16.59A65.65,65.65,0,0,0,1218,409v.48c0,.55,0,1.44-.07,2-1.73,29.36,13,46.08,25.72,54.94A76.94,76.94,0,0,0,1271,478.25l189.44,39.52,73.4,15.35a2.72,2.72,0,0,1,.59.19c-.23.15-.49.31-.8.48-12.11,6.72-35.3,18.42-42.12,21.85a25.2,25.2,0,0,0-10,8.9c-5.6,8.84-4.44,18.75,3.11,26.51,9.38,9.65,30,27.7,34.94,30.85.2.13.75.54,1.15.85,3.84,2.87,11.35,8.5,21.93,8.5a29.94,29.94,0,0,0,4-.27,30.5,30.5,0,0,0,16.4-7.76l.28-.26c34-27.79,44.52-63.09,45-64.58l2.78-12.63c17-78.26,27.7-127,28.65-130.87l.12-.43,13.89-81.5.07-.46C1657.63,301.41,1645.7,279.44,1645.19,278.52ZM1634,329.83l-13.69,80.35c-.82,3.46-4.9,21.68-28.76,131.31L1589,553.06c-1,3.08-10.8,32-38.48,54.54l-.88.78a10.68,10.68,0,0,1-5.65,2.78c-4.26.57-7.65-1.66-11.32-4.42-.79-.59-1.55-1.16-2.32-1.65-3-2-22-18.27-31.43-28a5,5,0,0,1-.91-1.17,4,4,0,0,1,.35-.69,5.27,5.27,0,0,1,2.07-1.74c6.91-3.47,30.41-15.33,42.85-22.24s13.61-17.35,10.52-24.79a22,22,0,0,0-15.93-12.94l-73.4-15.35L1275,458.65l-.26,0a57,57,0,0,1-20.15-9c-12-8.63-17.63-21.07-16.69-37,.05-.85.09-2.11.1-3v-.31a45.6,45.6,0,0,1,34.27-43.26l63.89-16.37c1.81-.29,17.4-2.45,27.59,7.44a184.7,184.7,0,0,1,15.47,16.7,6.57,6.57,0,0,1,.68,7.46c-.1.16-.21.32-.32.48h0c-4.38,6.21-6.5,16.58-7,24.22-.59,8.7.3,20.35,7.9,26.4,13.92,11.08,31.78,1.89,40.36-2.52l1.88-1c32-15,54.12-33.1,67.75-55.3a27.33,27.33,0,0,0,.52-27.76l-.47-.8a53.6,53.6,0,0,0-7-9.32c-3-3-13.19-12.64-21.2-20.21a21.24,21.24,0,0,1-6.67-19.06,12.71,12.71,0,0,1,2.1-5.4l1.36-1.87c10.34-14.06,31.77-43.22,36.9-66.58l.47-1.55c2.22-7.52,7.43-25.12,21-33.72l.18-.12a5.88,5.88,0,0,1,1.63-.59h0a62.15,62.15,0,0,1,47.53,10.46l6.58,5.37a22.17,22.17,0,0,1,4.48,5c11.27,17.29,47.35,76.57,49.94,80.83C1628.53,289.85,1636.77,306.66,1634,329.83Z"/></svg>