<?xml version="1.0" encoding="utf-8"?>
<!-- Generator: Adobe Illustrator 24.0.1, SVG Export Plug-In . SVG Version: 6.00 Build 0)  -->
<svg version="1.1" id="Moto_-_Config" xmlns="http://www.w3.org/2000/svg" xmlns:xlink="http://www.w3.org/1999/xlink" x="0px"
	 y="0px" viewBox="0 0 1920 1080" style="enable-background:new 0 0 1920 1080;" xml:space="preserve">
<style type="text/css">
	.st0{fill:#FFFFFF;}
</style>
<title>active</title>
<path class="st0" d="M1691.2,519.7c-15.1-8.4-36.3-20.6-46.6-27.2c-24.6-15.6-21.1-29-14.9-42.5c31.7-69.1,25.7-135.6-17.8-197.5
	c-37.1-52.8-96.8-80.6-182.3-84.8c-93.8-4.6-222.2-8.9-358.1-13.4c-129.2-4.3-262.8-8.8-364.3-13.6c-39-1.8-65,3.6-81.9,17
	c-19,15.1-22.7,37.6-23.8,55.5c-1.7,26.4,2.3,75.8,4.7,105.4c0.3,3.2,0.5,6.2,0.7,8.9c7.2,90.4,72.1,119.3,111,136.6l3.4,1.5
	c40.2,18,96.1,41.2,155.2,65.8c75.5,31.4,153.6,63.9,202.9,87c55.5,26.1,58.7,59.7,61,84.3c5.1,54.5-9.6,91.2-44.9,112.3
	c-28,16.7-82.8,38.1-122.4,50.6c-25.9,8.2-35.5,4.5-41.5-0.1c-12.2-9.5-11.5-23.7-9.1-30.7c1-2.9,2.2-6.6,3.5-10.6
	c2.7-8.3,6.1-18.7,8.6-25.1c23.5-59.4-14-79.6-30-88.3c-39.6-21.3-73.3,4.4-83.5,20.2c-11,17.1-29,43.5-46.9,69l-2,2.9
	c-16.5,23.5-30.7,43.7-44.7,52c-15.2,9.1-48.5,26.6-65.6,34.1c-17.5,7.7-29.1,4.8-34.2-0.5c-12.7-13.3-9.1-18.9-4.1-26.6l0.1-0.1
	c6.3-9.7,15.5-22.8,25.2-36.6c15.7-22.3,31.9-45.3,40-59.9c23.2-41.8,30.5-74.1,24.2-107.9c-12.7-68.3-69.1-97.3-101.7-108.5
	c-15.7-5.4-36.9-12.9-59.2-20.8c-43.8-15.4-93.4-32.9-124.1-42.8c-19.1-6.2-35.3-5.2-48,2.9c-17.1,10.9-20.9,30.6-21.7,36.4
	c-1.1,8.4-2.9,20.4-4.8,33.2c-3.3,22.3-7.1,47.6-8.6,63.2c-3.5,37.6-1,45.8,5,60.7c11.2,27.9,33.1,77.7,47.2,101
	c16.3,27,27.4,38.5,39.3,41c29.3,6.3,29.6,18.4,29.8,32.4c0,1.8,0.1,3.7,0.2,5.5c1.1,20,10.3,29.4,16.3,35.6
	c1.4,1.5,2.7,2.7,3.6,3.9c35,44,97.1,62.6,139.6,65.2c43.1,2.7,110.7,3.4,174.7,3.4c54.3,0,106-0.5,138-0.9
	c82.4-0.9,108-11.3,142.9-28.3c160.5-78.2,361.6-183.3,597.8-312.4c33.9-18.5,39.1-44.2,39.2-57.9
	C1718.8,549.2,1707.8,529,1691.2,519.7z M1670,610.4c-235.9,129-436.7,234-596.9,312c-29.2,14.2-52.3,25.5-134.4,26.3
	c-69.5,0.7-232.3,2.4-311.3-2.5c-38.5-2.3-94.3-18.9-125.2-57.7c-1.6-2-3.3-3.7-5-5.4c-5.4-5.5-10-10.2-10.7-22.7
	c-0.1-1.5-0.1-3.1-0.1-4.7c-0.3-15.7-0.8-42-45.6-51.6c-3.1-0.7-10.6-5.7-26.4-31.9c-13.4-22.1-35.2-71.9-45.7-98.1
	c-4.7-11.6-6.9-17-3.6-51.3c1.4-15,5.1-40,8.4-62.1c1.9-12.8,3.7-25,4.8-33.6c0.5-3.6,2.8-15.9,12.6-22.1c3.9-2.5,8.7-3.7,14.2-3.7
	c5,0,10.6,1,16.9,3c30.4,9.8,79.9,27.3,123.5,42.7c22.4,7.9,43.6,15.4,59.4,20.8c28.4,9.8,77.7,35,88.5,93.3
	c3.8,20.3,4.1,47.5-22,94.5c-7.6,13.7-24.2,37.3-38.9,58.1c-9.9,14-19.2,27.3-25.7,37.3l-0.1,0.1c-5.6,8.6-17.2,26.5,6.4,51.2
	c4.7,5,22.8,20,56.7,5c18.2-8,51.9-25.8,67.8-35.2c17.6-10.5,33-32.4,50.8-57.7l2-2.9c18.1-25.7,36.2-52.4,47.3-69.7
	c4.5-6.9,27.2-29.5,57.2-13.4c16,8.6,37.9,20.4,20.9,63.3c-2.7,6.9-6.1,17.2-9,26.3c-1.3,3.9-2.4,7.6-3.4,10.3
	c-5.4,16-2.7,38.5,15.8,52.9c14.3,11.2,32.2,12.2,59.8,3.4c39.4-12.5,95.9-34.3,126.5-52.5c42-25,60.4-69.2,54.6-131.3
	c-3.1-33.7-11.6-72-72.4-100.6c-49.7-23.3-128-55.9-203.7-87.4c-59-24.5-114.7-47.7-154.7-65.6l-3.4-1.5
	c-39.2-17.5-92.9-41.4-99.1-119.9c-0.2-2.7-0.5-5.7-0.7-9c-2.3-29-6.3-77.6-4.7-102.5c2-31.5,9.7-57.3,84.8-53.7h0
	c101.6,4.8,235.3,9.2,364.5,13.6c135.8,4.5,264.1,8.8,357.8,13.4c78.9,3.9,133.5,28.8,166.9,76.3c39.1,55.7,44.5,115.4,16,177.6
	c-3.9,8.4-7.6,18.6-5.9,30.4c2,14.1,11.6,26.7,28.3,37.4c13.8,8.7,42.1,24.6,47.6,27.7c8.7,4.8,17.4,17.7,17.3,32.8
	C1698.7,581.3,1693.6,597.5,1670,610.4z"/>
</svg>
