<svg id="Oval_-_Config" data-name="Oval - Config" xmlns="http://www.w3.org/2000/svg" viewBox="0 0 1920 1080"><defs><style>.cls-1{fill:#fff;}</style></defs><title>oval_active</title><path class="cls-1" d="M971.86,969.05c-12.89,0-44.79-.88-91-8-55-8.52-141.49-28-241.22-72.47l-.34-.16c-112.07-55.12-217.93-107.18-290.8-180.53-79.14-79.65-111.32-176.93-101.28-306.13l0-.51c4.3-33.19,18.53-98.44,65.51-162.52,49.69-67.79,121.63-115.5,213.81-141.82,65.28-18.63,304.7-22.58,435.89-22,16.65.08,37-.08,60.62-.26,141-1.09,377-2.91,470,40,113.28,52.33,227.22,183.79,226.42,359.53-.38,83.94-39.34,163.3-115.8,235.88-63.71,60.48-151.89,115.12-262.08,162.39l-2.29,1C1239.52,918.25,1126.41,969,980,969H978C977.25,969,975.19,969.05,971.86,969.05ZM648,870.36c97.33,43.37,181.68,62.43,235.3,70.79,58.17,9.07,93.75,7.84,94.1,7.82H980c142.13,0,253.14-49.79,351.16-93.74l2.52-1.13c108-46.34,194.26-99.68,256.26-158.54,72.35-68.69,109.22-143.2,109.57-221.47.76-166.86-107.34-291.64-214.81-341.28-88.88-41-322.08-39.26-461.42-38.18-23.66.18-44.09.34-60.86.26-130.12-.59-367.19,3.21-430.31,21.22C313.1,178.64,274,351.57,267.19,403.53,246.38,672.78,423.6,760,648,870.36Z"/></svg>