<svg id="Road_Course_-_Config" data-name="Road Course - Config" xmlns="http://www.w3.org/2000/svg" viewBox="0 0 1920 1080"><defs><style>.cls-1{fill:#fff;}</style></defs><title>road course_active</title><path class="cls-1" d="M971.86,969.05c-12.89,0-44.79-.88-91-8-55-8.52-141.49-28-241.22-72.47l-.34-.16c-112.07-55.12-217.93-107.18-290.8-180.53-79.14-79.65-111.32-176.93-101.28-306.13l0-.51c4.3-33.19,18.53-98.44,65.51-162.52,49.69-67.79,121.63-115.5,213.81-141.82,65.28-18.63,304.7-22.58,435.89-22,16.65.08,37-.08,60.62-.26,141-1.09,377-2.91,470,40,55.69,25.73,108.15,69.07,147.72,122,46.19,61.83,73.13,134.57,77.92,210.36a45.3,45.3,0,0,1-39.88,47.79c-24.06,2.86-44.61-5.66-59.42-24.63-30.37-38.92-74.93-101.45-79.48-107.85-59.94-64.73-129.6-95.26-177.54-109.49-51.71-15.34-89.42-15.48-90.18-15.48H732.39c-.37,0-38.13-1.71-56.39,15.65-6.38,6.07-9.49,13.77-9.49,23.54,0,6.39,1.94,11.43,5.93,15.39,12.5,12.43,41.1,12.27,50.51,12.22h558.7a184.69,184.69,0,0,1,105.09,32.09c23.82,16.33,43.4,38.41,52.39,59.08,11.12,25.57,19.84,73.92,24,100.47.47,3,3,6.07,5.82,9.65.64.81,1.29,1.62,1.92,2.44,14.62,18.82,72.79,42.09,111.29,57.49,7.87,3.15,15.32,6.13,21.86,8.84,18,7.47,32.44,21.46,41.73,40.46a54.56,54.56,0,0,1-7.85,59.56c-33.63,39.09-77.83,76.58-131.37,111.44-47.85,31.15-103.34,60.34-164.93,86.76l-2.29,1C1239.52,918.25,1126.41,969,980,969H978C977.25,969,975.19,969.05,971.86,969.05ZM648,870.36c97.33,43.37,181.68,62.43,235.3,70.79,58.17,9.07,93.74,7.84,94.1,7.82H980c142.13,0,253.14-49.79,351.16-93.74l2.52-1.13c127.68-54.77,227.65-121.47,289.08-192.9a34.55,34.55,0,0,0,5-37.72c-7.21-14.77-17.79-25.12-31.42-30.77-6.43-2.67-13.81-5.62-21.63-8.75-45.31-18.13-101.7-40.68-119.65-63.79l-1.74-2.2c-4.06-5.07-8.66-10.81-10-19-3.27-20.62-12-71.21-22.63-95.63-13.31-30.6-62.84-79.14-139.14-79.14H723.06c-12.67.07-46.33.26-64.72-18-7.85-7.81-11.83-17.76-11.83-29.58,0-15.36,5.31-28.17,15.77-38.09,23.79-22.56,66.57-21.28,70.88-21.09h539.05c1.66,0,41.15.06,95.91,16.31,50.46,15,123.85,47.17,187,115.56l.44.47.37.52c.47.67,47.72,67.16,79.32,107.65,10.42,13.35,24.31,19.1,41.29,17.08a25.27,25.27,0,0,0,22.27-26.67c-9.73-154.14-114.52-269.52-214.06-315.5-88.88-41-322.08-39.26-461.42-38.18-23.66.18-44.09.34-60.86.26-130.12-.59-367.19,3.21-430.31,21.22C313.1,178.64,274,351.57,267.19,403.53,246.38,672.78,423.6,760,648,870.36Z"/></svg>