<svg id="Road_Course_short_-_Configs" data-name="Road Course short - Configs" xmlns="http://www.w3.org/2000/svg" viewBox="0 0 1920 1080"><defs><style>.cls-1{fill:#fff;}</style></defs><title>road course short_active</title><path class="cls-1" d="M1524.6,556.11c-24.68,0-49.91-20-65.9-32.74l-1.88-1.5a36.45,36.45,0,0,1-13.4-22.93c-3.27-20.62-12-71.21-22.63-95.63-13.31-30.6-62.84-79.14-139.14-79.14H724.73c-5.26.11-47,.2-67.29-20.23a36.92,36.92,0,0,1-10.92-27.64c.41-15.45,6.06-28.31,16.78-38.2,24-22.14,65.56-20.9,69.86-20.71h539.05c1.62,0,41.14.06,95.91,16.31,50.46,15,123.85,47.17,187,115.56,21.4,23.26,38,80.75,14.36,166.26l-.12.4c-6.77,21-17.75,33.93-32.63,38.44A41.39,41.39,0,0,1,1524.6,556.11ZM724.53,304.17h557.12a184.69,184.69,0,0,1,105.09,32.09c23.82,16.33,43.4,38.41,52.39,59.08,11.12,25.57,19.84,73.92,24,100.47a16.46,16.46,0,0,0,6,10.38l1.91,1.52c14.53,11.54,41.56,33,59.77,27.51,8.19-2.48,14.69-11,19.32-25.23,22.86-82.89,4.57-131.51-9.84-147.18-60-65-129.91-95.68-178-109.94-51.66-15.33-89.36-15.48-90.18-15.48H732.38c-.78,0-37.14-1.58-55.56,15.45-6.67,6.18-10,14-10.31,24a16.72,16.72,0,0,0,5.12,13c12.31,12.39,42.29,14.55,52.8,14.34Z"/></svg>