<?xml version="1.0" encoding="utf-8"?>
<!-- Generator: Adobe Illustrator 25.0.0, SVG Export Plug-In . SVG Version: 6.00 Build 0)  -->
<svg version="1.1" id="Montreal__Config" xmlns="http://www.w3.org/2000/svg" xmlns:xlink="http://www.w3.org/1999/xlink" x="0px"
	 y="0px" viewBox="0 0 1920 1080" style="enable-background:new 0 0 1920 1080;" xml:space="preserve">
<style type="text/css">
	.st0{fill:#FFFFFF;}
</style>
<path class="st0" d="M1253.5,706.2c-105.8,0-225.8-1.1-477.5-3.4c-0.5,0-1,0-1.5,0c-6.4,0.1-19.6,0.2-27-11.9
	c-1.7-2.8-3.4-7.1-5.5-14.4c-0.1-0.3-0.2-0.5-0.2-0.6c-0.4-0.3-2.9-1.6-12-1.6c-32,0-70.2,0.2-110.6,0.4
	c-90.3,0.5-192.7,1.1-270.9-0.4c-25.2-0.5-55.8-2.3-99.6-18.1c-16.3-5.9-41.5-14.8-61.8-22c-7.6-2.7-14.5-5.1-19.9-7.1
	c-1-0.3-1.9-0.7-2.7-1.1c-5.2-2.2-6.8-2.8-11,2.4c-2.2,2.7-5.4,7.3-8.5,11.7c-3.9,5.6-8,11.3-11.2,15.2
	c-10.9,12.9-23.5,17.4-37.5,13.4c-4.2-1.2-18.7-6.3-25.8-20.5c-3.4-6.8-6.2-18.1-0.3-33.5c10.3-27.2,25.4-54.8,50.4-92.2
	c13.6-20.5,27.7-36.2,66.8-65.1c18.6-13.8,53.7-39.3,71.4-51.3c12.4-8.5,31.2-8.7,45.7-0.4c2.3,1.3,4.6,2.7,6.9,4.1
	c3.8,2.3,7.7,4.7,10.1,5.7c6.7,3,7.8,2.6,19.5-3.7c1.6-0.8,3.2-1.7,5-2.7c7.5-4,16.3-8.5,25.6-13.3c20.6-10.6,44-22.6,58.8-31.4
	c5.5-3.2,12.2-7.2,18.6-15.3c17.6-22.6,41.2-31.6,53.7-35.1c16.1-4.4,36.7-7.8,68.1-0.1l5.2,1.3c35.7,8.8,80.2,19.8,114.6,25.7
	c5.3,0.9,13,0.6,17-3.2c3.1-2.9,4.3-8.4,3.4-16.1c-1.1-9.8-3.7-32.7,10.5-50.5c10-12.5,26.4-20,48.6-22.4c19.5-2.1,38.2-2,79.9,0.4
	c49.4,2.8,87,5.9,156,22.7c52.1,12.7,124.5,38.6,184.4,66.1l0.4,0.2l94.9,48.2c16.8,8.9,24.1,24.3,19.1,40.3
	c-1.9,5.9-5.4,26.7,27.3,44.7c0.1,0,0.3,0.2,0.7,0.4c16,9.3,102,58,221.1,102.5l4.2,1.6c27.7,10.4,54,20.3,114.6,23.6
	c21,1.1,73.1,3.6,102.8,1.8l0.6,0c9.2-0.6,28.3-1.8,39.3,8.6c5,4.7,7.6,11,7.6,18.3c0,7.8-2.5,14.1-7.3,18.6
	c-6.4,6-16.1,8.6-29.9,7.8l-0.2,0c-11.6-0.9-23.4-2.4-34.8-4.6l-0.2,0c-10-2-31.1-4.8-59.6-0.4c-35.9,5.6-85.6,15.2-138.2,25.3
	c-54.5,10.5-110.9,21.4-155.6,28.5l-2.4,0.4c-8.4,1.4-13.9,2.3-38.6,2.4C1320.5,706.1,1287.8,706.2,1253.5,706.2z M775.6,682.7
	c0.2,0,0.4,0,0.6,0c333,3.1,435.4,4,579.4,3.1c23.1-0.1,27.8-0.9,35.6-2.1l2.5-0.4c44.3-7,100.5-17.9,154.9-28.3
	c52.8-10.2,102.6-19.8,138.9-25.4c23.4-3.6,47-3.4,66.6,0.5c10.7,2,21.7,3.4,32.5,4.3c10.9,0.6,14.2-1.6,14.9-2.4
	c0.3-0.3,1.1-1,1.1-4.1c0-2.6-0.9-3.4-1.3-3.8c-4.7-4.4-19.5-3.5-24.4-3.2l-0.6,0c-30.8,1.9-83.8-0.6-105.2-1.8
	c-63.8-3.5-92.7-14.3-120.6-24.8l-4.1-1.6c-120.6-45.1-207.9-94.5-224.1-104l-0.3-0.2c-36.5-20.1-42.9-48.4-36.7-68.2
	c2.1-6.6-1.1-12.2-9.3-16.6l-94.5-48c-58.8-27-129.6-52.4-180.6-64.7c-67.4-16.4-104.1-19.4-152.4-22.1c-40.4-2.3-58.3-2.4-76.6-0.5
	c-16.8,1.8-28.6,6.8-35.1,15c-7.9,9.9-7.6,23.6-6.2,35.7c1.6,14.3-1.6,25.3-9.5,32.9c-11.8,11.2-29.1,9.2-34.1,8.4
	c-35.1-6-80-17.1-116-26l-5.2-1.3c-26.9-6.6-43.8-4-58.1-0.1c-10.1,2.8-29.1,10.1-43.2,28.1c-8.6,11.1-18,16.6-24.1,20.2
	c-15.4,9.1-39,21.2-59.9,32c-9.3,4.8-18,9.2-25.4,13.2c-1.8,0.9-3.4,1.8-4.9,2.6c-12.8,6.9-21.3,11.5-37.2,4.3
	c-3.4-1.6-7.7-4.1-12.2-6.8c-2.2-1.3-4.4-2.7-6.5-3.9c-8.9-5.1-19.3-4-24.5-0.4c-17.5,11.9-52.4,37.2-70.8,50.8
	c-40.3,29.9-51.2,43.8-62.1,60.2c-24.1,36.1-38.6,62.5-48.3,88.2c-2.6,7-2.8,12.8-0.5,17.5c2.8,5.5,9,9,13.4,10.3
	c6.3,1.8,10.9-0.1,16.7-7c2.7-3.2,6.5-8.6,10.1-13.8c3.4-4.9,6.7-9.5,9.3-12.7c13.6-16.8,28-10.8,34.2-8.3c0.7,0.3,1.3,0.5,1.9,0.7
	c5.4,1.9,12.3,4.4,19.9,7.1c20.3,7.2,45.6,16.2,61.9,22.1c40.9,14.8,68.5,16.5,93.2,17c78,1.5,180.2,1,270.4,0.4
	c40.4-0.2,78.6-0.4,110.7-0.4c13.1,0,27.1,2,31.4,16.5c2.1,7.2,3.1,9.2,3.4,9.6c1.2,2,4.3,2.4,9.7,2.3
	C774.8,682.7,775.2,682.7,775.6,682.7z M741.8,675.8C741.8,675.8,741.8,675.8,741.8,675.8C741.8,675.8,741.8,675.8,741.8,675.8z"/>
</svg>
