<?xml version="1.0" encoding="utf-8"?>
<!-- Generator: Adobe Illustrator 24.0.1, SVG Export Plug-In . SVG Version: 6.00 Build 0)  -->
<svg version="1.1" id="GP_-_Config" xmlns="http://www.w3.org/2000/svg" xmlns:xlink="http://www.w3.org/1999/xlink" x="0px"
	 y="0px" viewBox="0 0 1920 1080" style="enable-background:new 0 0 1920 1080;" xml:space="preserve">
<style type="text/css">
	.st0{fill:#FFFFFF;}
</style>
<title>active</title>
<path class="st0" d="M1817.2,903.6c-0.1-8.8-2.9-257.6-4.6-346.7l0-0.2c-0.1-8.2-0.5-25.2-13.4-36.9c-9.3-8.4-23-12-40.7-10.7
	c-15.9,0-491.4,1.3-650.4,1.1c-23.2,0-58.7-0.1-93-0.3c-33.3-0.1-67.7-0.3-90.3-0.3c-14.1,0-32.8-4.7-42.9-17.7
	c-9-11.6-10.6-28.7-4.9-50.8c5.8-22.3,18.3-53.6,31.6-86.7c16.5-41.1,33.6-83.6,39.2-113.2c3.3-17.6,3.8-27.6-1.5-44
	c-3.9-12-14.2-35.3-21.7-47.5c-8.6-13.9-18.5-21.5-29.6-22.5c-10.3-1-20.4,3.8-29.9,14.1c-9.5,10.3-25.6,29.6-37.3,43.6
	c-3.4,4-6.4,7.7-9,10.7c-6.8,8.1-14.7,14.9-42.1,16c-9.9,0.4-25.4,0-40.4-0.3c-14.9-0.3-29-0.6-38.8-0.3
	c-13.1,0.4-21.1,0.7-44.8-28.5l-1-1.2c-12.5-15.3-33.3-40.9-53-55.6C584.6,115,555.1,96.8,539.3,87l-1.4-0.8
	c-10.1-6.3-21.3-12.3-46.2-16.3c-7.7-1.3-25.9-4.2-34.3-6.2c-22.6-5.3-49.8-8.2-87.5,24.6c-5.2,4.5-11.4,9.9-18.2,15.7
	c-32,27.6-75.7,65.5-98.8,88.1c-18,17.6-34.9,39.4-27,94.2l0,0.1c0.2,1.3,21.1,134,27.6,178c1.7,11.2,3.7,25.1-6.7,42.9
	c-7.6,12.9-13.7,30.3-1.2,61.6c4.9,12.3,9.5,23.9-19,44.5c-4.8,3.4-11.3,8.2-14,18c-2.4,8.7-1.4,20.2,3.3,37
	c1,3.7,1.4,4.9-10.8,23.4c-7,10.7-21,31.5-28.4,41.5l-0.9,1.2c-4.6,6.1-9.8,13-13.5,30.9c-0.7,3.4-1.6,8.2-2.5,13.2
	c-1.1,6.4-2.3,13-3.2,17c-2,8.5-5,18.2-16.6,26.2c-4.6,3.2-10.9,8-17.6,13c-7.2,5.5-14.7,11.2-19.6,14.5
	c-8.8,5.9-23.4,18.3-23.1,34.7c0.2,10.6,6.5,19.9,18.8,27.7c26.6,16.7,81,36.2,117,49.2c6.3,2.3,12,4.3,17,6.1
	c16.8,6.2,32.3,9.2,46.2,8.9h0c263-4.5,619.5-11.7,824.1-19.8l1.3-0.1c13.2-0.5,40.7-1.7,64.2,6.4c42.5,14.6,126.2,38.9,174.5,49.7
	c2.5,0.5,5.2,0.9,8.2,0.9c11.3,0,25.6-4.5,38.4-17.3l0.1-0.2c7.9-8.2,15.3-17.1,22.1-26.3c7.7-10.6,13.9-18.9,50.6-18.9
	c0.5,0,1,0,1.6,0c31.5,0.2,89.9-1.7,128.5-3l13.7-0.4c42.9-1.4,120.9-2,168.5-1.8c6.2,0,22.7,0.1,33.5-11.3
	C1814.8,926.5,1817.9,916.3,1817.2,903.6z M1793.4,919.9c-4.9,5.1-15.1,5.1-18.9,5.1c-47.8-0.2-126.1,0.4-169.2,1.8l-13.7,0.4
	c-38.5,1.3-96.6,3.2-127.8,3c-0.5,0-1,0-1.5,0c-43.5,0-55.6,11.8-66.9,27.1c-6.2,8.5-13.1,16.6-20.3,24.2
	c-10.5,10.4-21.6,12.5-28,11c-47.7-10.6-130.4-34.7-172.4-49.1c-19.2-6.6-39.7-7.9-55.3-7.9c-6.5,0-12,0.2-16.3,0.4l-1.2,0
	c-204.4,8.1-560.7,15.3-823.6,19.8h0c-11.4,0.2-24.5-2.4-39-7.7c-5-1.8-10.8-3.9-17.1-6.2c-35.2-12.6-88.3-31.8-113.1-47.3
	c-4.3-2.7-9.4-6.8-9.4-11.1c-0.1-4.8,5.7-11.9,14.3-17.7c5.3-3.6,13.1-9.4,20.5-15.1c6.2-4.7,12.6-9.6,16.9-12.5
	c16.7-11.5,21.9-25.7,24.7-38.1c1-4.5,2.3-11.4,3.4-18c0.9-4.9,1.7-9.5,2.3-12.7c2.8-13.5,5.9-17.6,9.9-22.9l1-1.3
	c7.7-10.4,21.9-31.5,29-42.4c12.7-19.4,17-26.8,13.3-39.8c-3.5-12.7-4.6-21.5-3.3-26.4c0.7-2.6,2.1-3.9,6.4-7.1
	c37.9-27.4,33.2-49.5,25.8-68.1c-9.7-24.4-5.1-35.5-0.1-44.1c14-23.8,11-43.9,9.3-55.9c-6.4-43.7-27-174.3-27.6-178.1
	c-7.1-49.2,8-64,21.2-76.9c22.7-22.2,66.2-59.8,97.9-87.3c6.8-5.9,13-11.2,18.2-15.8c33.2-28.8,54.4-23.8,69.9-20.2
	c9.1,2.1,27,5.1,35.7,6.5c21.2,3.4,30.2,8.2,38.8,13.6l1.4,0.9c15.6,9.6,44.6,27.5,58.2,37.7c17.7,13.2,37.6,37.6,49.5,52.2l1,1.2
	c27.9,34.3,41.7,36.5,60.9,35.9c9.3-0.3,23.8,0,37.8,0.3c15.3,0.3,31,0.7,41.5,0.3c32-1.2,45.8-10.1,56.7-23.1c2.5-3,5.6-6.7,9-10.8
	c11.6-13.9,27.5-32.9,36.7-42.9c3.5-3.8,8.6-8.2,13.3-7.7c2.6,0.2,7.8,2.3,14.5,13.1c6.7,10.9,16.2,32.5,19.7,43.2
	c3.8,11.7,3.9,17.8,0.8,34.1c-5.2,27.7-21.9,69.3-38.1,109.5c-13.6,33.7-26.4,65.6-32.4,89.2c-7.4,28.4-4.5,51.3,8.4,68
	c18.3,23.7,49.6,25.5,58.7,25.5c22.6,0,56.9,0.1,90.2,0.3c34.3,0.1,69.8,0.3,93,0.3c160.9,0.2,645.9-1.1,650.8-1.1l0.8,0
	c12.2-1,20.9,0.9,26,5.6c6.5,5.9,6.7,16.3,6.8,22.5l0,0.2c1.7,90.2,4.6,344.2,4.6,346.8l0,0.5
	C1797.6,911.6,1796.3,916.8,1793.4,919.9z"/>
</svg>
