<?xml version="1.0" encoding="utf-8"?>
<!-- Generator: Adobe Illustrator 24.0.1, SVG Export Plug-In . SVG Version: 6.00 Build 0)  -->
<svg version="1.1" id="Homestead_Road_B__Config" xmlns="http://www.w3.org/2000/svg" xmlns:xlink="http://www.w3.org/1999/xlink"
	 x="0px" y="0px" viewBox="0 0 1920 1080" style="enable-background:new 0 0 1920 1080;" xml:space="preserve">
<style type="text/css">
	.st0{fill:#FFFFFF;}
</style>
<title>active</title>
<path class="st0" d="M1290.5,952.8c-0.8,0-1.6,0-2.4,0c-124.9-2.4-225.3-2.2-322.3-2c-150.5,0.3-280.4,0.5-448.8-9.6
	c-91.7-5.5-172.5-24.7-240.1-57.1c-59.6-28.5-109.1-67.2-147.3-115c-78.2-98-92.8-213.7-80.4-289.3c10.9-66.1,37.4-124.3,78.9-173
	c36.2-42.5,83.9-78,141.9-105.6c49.4-23.5,105.7-41.1,167.5-52.3c51.2-9.3,105.7-14,157.6-13.5h0c164.7,1.4,655.4,2.7,660.4,2.7
	l0.6,0c89.1,5.3,155.2,40.8,160.5,43.8c8.4,4.1,138.8,67.9,182.5,92.6c30.6,17.3,44.9,44,36.4,68.1c-15.4,43.3-54.8,38.9-76,36.5
	c-1.9-0.2-3.6-0.4-5.3-0.6c-100.8-9.5-220.6-21.7-347.4-34.6c-213.9-21.8-435.2-44.3-597.7-57.3c-19.7-1.6-46.2,4.1-71,15.2
	c-26.1,11.7-46.9,27.9-57.1,44.4c-4.8,7.9-9.6,15.4-14.2,22.7c-17.8,28.2-36.1,57.4-66.6,116.1c-8.5,16.3-9.3,30.3-2.4,41.7
	c9.4,15.6,31.4,23.6,41.2,23.7c87,0.8,201.1-0.2,321.9-1.1c151.2-1.2,307.6-2.5,419.4-0.4c41.1,0.8,76.6,8.9,108.5,24.8
	c27.6,13.7,47.8,30.8,65.7,45.9l1.8,1.6c18.6,15.7,41.8,12.7,52.8,6.8c18.3-9.7,22.5-27.1,23.5-34.1c1-7.1,2.5-16.6,4.1-26.6
	c2.8-17.1,5.9-36.5,7.2-50.1c4.5-47.3,18.7-63.1,38.5-72.4c28.9-13.4,54.9-8.3,77.3,15c8.8,9.2,26.1,28.8,34.2,39
	c9.3,11.6,26.4,38.5,33.8,52.4c13.1,24.4,31.7,73.7,45,110.7c17.3,48.3-13.5,75.4-25.1,85.6c-33.8,29.6-138.3,105-142.8,108.2
	c-0.5,0.3-53.3,39.1-71.8,52.3C1393.2,936,1328.9,952.8,1290.5,952.8z M1042.9,930.7c73.1,0,153.9,0.4,245.5,2.1c0.7,0,1.4,0,2.1,0
	c35.4,0,95.4-16.2,130.6-41.1c18.4-13,71.1-51.7,71.6-52.1c1.2-0.8,108.3-78,141.3-107c16.7-14.7,30.7-32.6,19.5-63.8
	c-10.7-29.8-30.7-83.4-43.8-108c-6.9-12.9-23.3-38.7-31.8-49.3c-7.8-9.6-24.8-29-33.1-37.7c-11.1-11.6-27.4-23.3-54.5-10.7
	c-9.6,4.4-22.7,10.5-27,56.1c-1.3,14.2-4.5,33.9-7.3,51.4c-1.6,9.9-3.1,19.2-4,26.1c-1.4,10-7.4,35-33.9,49
	c-19,10.1-50.6,11.5-75.1-9.2l-1.8-1.6c-33.9-28.7-76.1-64.4-161.7-66c-111.6-2.1-267.8-0.8-418.9,0.4c-120.9,1-235,1.9-322.2,1.1
	c-15.4-0.1-44.6-10.8-58.1-33.4c-7.3-12.2-13-32.8,1.8-61.2c30.9-59.5,49.5-89,67.5-117.6c4.6-7.2,9.3-14.7,14-22.5
	c26.7-43.4,100.8-72.8,146.8-69.1c162.7,13,384,35.5,598.1,57.3c126.8,12.9,246.5,25.1,347.3,34.6c1.8,0.2,3.7,0.4,5.6,0.6
	c25.5,2.8,45.7,2.9,55-23.3c5.1-14.4-5.6-31.7-27.4-43.9c-43.7-24.7-180.3-91.5-181.7-92.2l-0.5-0.3c-0.6-0.4-65.8-36.2-151.9-41.4
	c-14.2,0-497-1.3-660.2-2.7c-78.7-0.7-474,12.1-525.9,327.6C57,554.4,70.9,663.8,145,756.6c78.1,97.8,207.1,154.7,373,164.6
	c167.8,10,297.5,9.8,447.6,9.5C990.4,930.7,1016.1,930.7,1042.9,930.7z"/>
</svg>
