<svg id="Full_-_Config" data-name="Full - Config" xmlns="http://www.w3.org/2000/svg" viewBox="0 0 1920 1080"><defs><style>.cls-1{fill:#fff;}</style></defs><title>active</title><path class="cls-1" d="M1836.09,472.53l-.14-.63c-.2-.75-20.08-75.78-38.1-136.38l0-.17C1778.74,275.1,1688.28,274,1684.43,274l-652-3c-.58,0-57.89-.48-91.3-.48-65-.71-88.46,6.75-101.61,13.33l-.14.07C803.56,302.52,695.5,399.7,682.22,412.13c-18.83,17.63-58.06,37.12-75.62,41.82-29.71,5.89-57.77,23.43-60.42,25.12-22.6,13.46-42.13,44.42-62.81,77.2-5.55,8.8-11.29,17.9-17.16,26.78-17.88,26.07-42.66,37.14-73.64,32.92-19-2.59-52.69-25.17-52.2-60.93.42-31.43,13.44-41.27,26-50.79,1.47-1.11,3-2.26,4.46-3.42,55.27-34.55,51.23-72.3,49.9-84.74-.78-7.18-4.48-21.6-20.66-37.42C384.41,363.33,361.36,351,331.6,342c-60-18.12-108,3.63-126,11.82-2.1,1-3.91,1.78-5,2.18l-.87.38c-56.5,28-90.2,87.87-93.89,101C90.57,509.54,121.7,539,123,540.22l.15.13c1.54,1.36,153.27,135.63,165.2,146.48,10.64,9.67,43,39.12,98.56,43.34,40.54,3,77.1-22.19,78.64-23.26l.17-.12,143.4-109.3c17.41-13.27,34.5-27.4,50.8-42l31.48-28.17c8.76-7.83,17.35-16.2,26.27-25.59,10.63-11.19,31.64-30,52.9-30,28.22,0,38.2,24.52,38.59,25.5l.21.57.29.54c.61,1.16,61.3,116.52,73.82,140.48.39.74.78,1.48,1.19,2.21a91.84,91.84,0,0,0,56.68,43.7c84.57,22.47,362.62,96.35,389.67,103.8l84.41,22.83.61.15a137.15,137.15,0,0,0,25.19,2.19c15.26,0,35.09-2.35,52.68-11.89,30.5-16.54,132.23-86.22,140.88-92.16l6.12-3.3.76-.45c39-25.69,97.75-79.56,122.83-102.55l10.15-9.29,5.22-4.62c10.53-8.78,42-45.49,51.78-62.72C1842.56,507.58,1836.79,476.06,1836.09,472.53Zm-21.81,44.39c-9.1,16-39.2,50.63-47.25,57.26l-5.68,5L1751,588.66c-24.67,22.6-82.32,75.44-120,100.36l-6.67,3.6-.44.3c-1.09.75-109.27,75-139.53,91.37-26.2,14.21-60.82,8.33-64.09,7.73l-84-22.71c-27.13-7.47-305.25-81.38-389.85-103.85a71.74,71.74,0,0,1-44.32-34.07c-.32-.58-.64-1.17-1-1.78-12.14-23.23-69.5-132.26-73.61-140.08-2.21-5.3-17.39-37.74-57-37.74-28.73,0-54.56,22.67-67.4,36.18-8.54,9-16.75,17-25.1,24.46L646.61,540.6c-15.91,14.24-32.59,28-49.58,41l-143,109c-2.36,1.59-33.38,22-65.56,19.63-43.6-3.32-70.31-23.39-86.6-38.2C289.88,661.16,144.54,532.54,136.57,525.5c-1.66-1.62-23-23.37-11.49-62.54l0-.19c2.52-9.22,33.39-63.45,83.11-88.25,1.55-.61,3.38-1.44,5.64-2.47,17.69-8,59.1-26.83,112-10.88,69.23,20.89,74.65,53.41,75,57.06,1.21,11.34,4.06,37.91-41.06,65.92l-.51.31-.47.38c-1.39,1.11-2.9,2.25-4.49,3.46-14.1,10.66-33.41,25.26-34,66.47-.62,46,40.7,77.09,69.5,81,26.89,3.66,64.84-.56,92.88-41.49l.09-.14c6-9.08,11.82-18.3,17.45-27.22,19.39-30.75,37.72-59.8,56.23-70.75l.31-.2c.27-.17,27-17.21,53.93-22.48l.62-.14c19.64-5.14,62.32-25.87,84.51-46.64,25.54-23.91,123-109.58,152.66-125.07,10.29-5.13,31.11-11.85,92.44-11.18h.11c33.32,0,90.6.47,91.21.48l652,3c.8,0,79.65,1.06,94.38,47.35,17.31,58.24,36.37,129.91,37.82,135.38C1817.93,484.08,1820.35,506.2,1814.28,516.92Z"/></svg>