<svg id="Chicane_-_Config" data-name="Chicane - Config" xmlns="http://www.w3.org/2000/svg" viewBox="0 0 1920 1080"><defs><style>.cls-1{fill:#fff;}</style></defs><title>active</title><path class="cls-1" d="M1771.39,425.67c14.46-11.88,26.11-41.82,28.36-47.87,1.39-2.62,4.74-9.92,4-17.94a69.05,69.05,0,0,0-3.31-15c-.8-2.66-1.63-5.4-2.51-8.88l-.16-.59C1778.74,275.1,1688.28,274,1684.43,274l-652-3c-.58,0-57.89-.48-91.3-.48-65-.71-88.46,6.75-101.61,13.33l-.14.07C803.56,302.52,695.5,399.7,682.22,412.13c-18.83,17.63-58.06,37.12-75.62,41.82-29.71,5.89-57.77,23.43-60.42,25.12-22.6,13.46-42.13,44.42-62.81,77.2-5.55,8.81-11.3,17.91-17.17,26.79-17.88,26.06-42.65,37.13-73.63,32.91-19-2.59-52.69-25.17-52.2-60.93.42-31.43,13.44-41.27,26-50.79,1.47-1.11,3-2.26,4.46-3.42,55.28-34.55,51.23-72.3,49.9-84.74-.78-7.18-4.48-21.6-20.66-37.42C384.41,363.33,361.36,351,331.6,342c-60-18.12-108,3.63-126,11.82-2.1,1-3.91,1.78-5,2.18l-.87.38c-56.53,28-90.23,87.93-93.89,101C90.57,509.54,121.7,539,123,540.22l.15.13c1.54,1.36,153.27,135.63,165.2,146.48,10.64,9.67,43,39.12,98.56,43.34,40.54,3,77.1-22.19,78.63-23.26l.18-.12,143.4-109.3c17.41-13.27,34.5-27.4,50.8-42l31.48-28.17c8.76-7.83,17.35-16.2,26.27-25.59,10.63-11.19,31.64-30,52.9-30,28.22,0,38.2,24.52,38.59,25.5l.21.57.29.54c.61,1.16,61.3,116.52,73.82,140.48.39.74.78,1.48,1.19,2.21a91.84,91.84,0,0,0,56.68,43.7c52.34,13.91,184.39,49,279.93,74.45l87.81,22.66.18.05c15.65,3.73,20.66,4.6,23,4.9l.87.08c1.52.09,3,.13,4.57.13,27.65,0,55.54-13.76,71.76-26.19,4-2.65,8.83-7.57,15.45-14.29,17.68-18,47.27-48,77.38-49.45,16.94-1,34.43,6.3,47.78,12.7a104.41,104.41,0,0,0,48.52,10.36c18.53-.63,28.15-6,36.63-10.71,1.86-1,3.62-2,5.44-2.93l.6-.3.56-.38c2.3-1.52,4.67-3.14,7.1-4.84l.16-.11.12-.08c38.53-27.05,90.4-74.59,115.32-97.43l10.21-9.34c20.67-18.91,22.3-43.56,22.84-51.66,0-.52.06-.94.09-1.21.46-3.78,1.67-23.65-19.49-43.6-14.46-13.64-20.06-29.29-20.47-38.56C1757.34,450.45,1760.67,434.47,1771.39,425.67Zm-12.7-15.46c-17.62,14.48-21.46,38.05-21,49.7.6,13.63,7.93,34.51,26.73,52.24,14.71,13.87,13.42,26.14,13.36,26.65s-.13,1.28-.19,2.28c-.41,6.12-1.65,24.74-16.39,38.24L1751,588.66l-2.3,2.1-1.52,1.39-.82.75-2.3,2.11-.24.22c-20.1,18.37-53.64,48.67-83.59,72.32l-.15.12-3.58,2.81-.67.51c-1,.81-2.06,1.6-3.09,2.39l-1.13.86-2.63,2-1.56,1.17c-.73.55-1.46,1.1-2.19,1.63s-1.27.94-1.91,1.4l-1.81,1.32-2.21,1.57-1.47,1-.2.14L1631.1,689c-2,1-3.82,2-5.61,3-7.44,4.15-13.87,7.73-27.56,8.19a84.41,84.41,0,0,1-39.2-8.4c-15.51-7.44-36.06-15.83-57.46-14.65-37.85,1.85-70.87,35.37-90.6,55.4-5,5.09-10.21,10.36-12.33,11.7l-.78.54c-11.45,8.86-37.44,23.44-62.77,22.2l-3.08-.51c-3-.58-8.29-1.73-17.67-4l-87.65-22.63c-95.48-25.43-227.53-60.52-279.88-74.43a71.77,71.77,0,0,1-44.32-34.07c-.32-.58-.64-1.17-1-1.78-12.14-23.23-69.49-132.25-73.61-140.08-2.21-5.3-17.39-37.74-57-37.74-28.73,0-54.56,22.67-67.4,36.18-8.54,9-16.75,17-25.1,24.46L646.61,540.6c-15.91,14.24-32.59,28-49.58,41l-143,109c-2.36,1.59-33.37,22-65.56,19.63-43.6-3.32-70.31-23.39-86.6-38.2C289.88,661.16,144.56,532.56,136.58,525.5c-1.65-1.6-23-23.35-11.5-62.54l0-.19c2.52-9.22,33.39-63.45,83.11-88.25,1.55-.61,3.38-1.44,5.64-2.47,17.69-8,59.1-26.83,112-10.88,69.23,20.89,74.65,53.41,75,57.05,1.21,11.35,4.06,37.92-41.06,65.93l-.51.31-.47.38c-1.39,1.11-2.9,2.25-4.49,3.46-14.1,10.66-33.41,25.26-34,66.47-.62,46,40.7,77.09,69.5,81,26.89,3.66,64.84-.56,92.88-41.49l.09-.14c6-9.08,11.82-18.3,17.45-27.22,19.39-30.75,37.72-59.8,56.23-70.75l.31-.2c.27-.17,27-17.21,53.93-22.48l.62-.14c19.64-5.14,62.32-25.87,84.51-46.64,25.54-23.92,123-109.59,152.67-125.08,10.29-5.12,31.1-11.84,92.43-11.17h.11c33.32,0,90.6.47,91.21.48l652,3c.79,0,79.43,1.06,94.31,47.15,1,3.8,1.88,6.83,2.69,9.5,1.32,4.38,2.2,7.27,2.53,11,.21,2.42-1.17,5.77-1.84,6.93l-.47.8-.32.88C1776.93,382.07,1767,403.38,1758.69,410.21Z"/></svg>