<svg id="Legends_Oval_-_Config" data-name="Legends Oval - Config" xmlns="http://www.w3.org/2000/svg" viewBox="0 0 1920 1080"><defs><style>.cls-1{fill:#fff;}</style></defs><title>active</title><path class="cls-1" d="M1651.46,522.57a52.78,52.78,0,0,0-38.36-34.37,119.27,119.27,0,0,0-24.52-2.61c-40-.44-52.79,5.79-64.8,19.07-7.37,8.15-44,50.74-44.19,91.52-5.21,71.37,19.36,178,40.91,202.74l.09.12c12,13.4,25.48,20.18,40,20.18q1.15,0,2.31-.06c28.83-1.41,49.87-29.6,50.75-30.8l.08-.11a291.94,291.94,0,0,0,37.73-265.68Zm-54,254c-.71.93-16.8,21.72-35.58,22.63-9.22.47-17.85-3.94-26.4-13.44-15.19-17.58-41.39-115.71-36-188.45l0-.38v-.38c-.08-34.25,35-74,39-78.45,6.27-6.93,11.69-12.91,49.75-12.49a98.79,98.79,0,0,1,20.37,2.13,32.88,32.88,0,0,1,23.86,21.47,272,272,0,0,1-35.08,247.36Z"/></svg>