<svg id="First_Chicane_-_Config" data-name="First Chicane - Config" xmlns="http://www.w3.org/2000/svg" viewBox="0 0 1920 1080"><defs><style>.cls-1{fill:#fff;}</style></defs><title>active</title><path class="cls-1" d="M1441.26,813.76a137.15,137.15,0,0,1-25.19-2.19l-.82-.21-83.66-24.61c-34.2-5.17-393.89-102.84-409.33-107l-1.28-.35-1.14-.66c-.91-.53-22.48-13.33-36.33-39.82-12.52-24-73.21-139.32-73.82-140.48l-.29-.54-.21-.57c-.39-1-10.37-25.5-38.59-25.5-30.38,0-60.09,38.13-60.39,38.52l-.56.73-.7.63L635.38,577.5l-.32.23L465.75,706.79l-.18.12c-1.53,1.07-38.09,26.23-78.63,23.26C331.41,726,299,696.5,288.38,686.83,276.45,676,124.72,541.71,123.18,540.35l-.15-.13c-1.33-1.23-32.46-30.68-17.16-82.82,3.66-13.07,37.36-73,93.89-101l.87-.38c1.07-.4,2.88-1.23,5-2.18,18-8.19,65.95-29.94,126-11.82,29.76,9,52.81,21.31,68.5,36.65,16.18,15.82,19.88,30.24,20.66,37.42,1.33,12.44,5.37,50.19-49.9,84.74-1.47,1.16-3,2.31-4.46,3.42-12.59,9.52-25.61,19.36-26,50.79-.49,35.76,33.2,58.34,52.2,60.93,31,4.22,55.75-6.85,73.63-32.91,5.87-8.88,11.62-18,17.17-26.79,20.68-32.78,40.21-63.74,62.81-77.2,2.65-1.69,30.71-19.23,60.42-25.12,17.56-4.7,56.79-24.19,75.62-41.82C695.5,399.7,803.56,302.52,839.39,283.88l.14-.07c13.15-6.58,36.58-14,101.61-13.33,33.41,0,90.72.47,91.3.48l652,3c3.85,0,94.31,1.14,113.37,61.39l.16.59c.88,3.48,1.71,6.22,2.51,8.88a69.05,69.05,0,0,1,3.31,15c.71,8-2.64,15.32-4,17.94-2.25,6.05-13.9,36-28.36,47.87-10.72,8.8-14.05,24.78-13.68,33.37.41,9.27,6,24.92,20.47,38.56,21.16,19.95,20,39.82,19.49,43.6,0,.27-.05.69-.09,1.21-.54,8.1-2.17,32.75-22.84,51.66l-10.21,9.34c-25.08,23-83.85,76.86-122.83,102.55l-.76.45-6.12,3.3c-8.65,5.94-110.38,75.62-140.88,92.16C1476.35,811.41,1456.52,813.75,1441.26,813.76ZM1420.42,792c3.83.69,38,6.32,64-7.75,30.26-16.42,138.44-90.62,139.53-91.37l.44-.3,6.67-3.6c37.66-24.92,95.31-77.76,120-100.36l10.21-9.34c14.74-13.5,16-32.12,16.39-38.24.06-1,.12-1.77.19-2.28s1.35-12.78-13.36-26.65c-18.8-17.73-26.13-38.61-26.73-52.24-.5-11.65,3.34-35.22,21-49.7,8.32-6.83,18.24-28.14,22.54-40l.32-.88.47-.8c.67-1.16,2-4.51,1.84-6.93-.33-3.74-1.21-6.63-2.53-11-.81-2.67-1.73-5.7-2.69-9.5C1763.76,295,1685.12,294,1684.33,294l-652-3c-.61,0-57.89-.48-91.21-.48H941c-61.34-.67-82.15,6-92.44,11.18-29.68,15.5-127.12,101.16-152.66,125.07-22.19,20.77-64.87,41.5-84.51,46.64l-.62.14c-27,5.27-53.66,22.31-53.93,22.48l-.31.2c-18.51,10.95-36.84,40-56.23,70.75-5.63,8.92-11.44,18.14-17.45,27.22l-.09.14c-28,40.93-66,45.15-92.88,41.49-28.8-3.93-70.12-35-69.5-81,.56-41.21,19.87-55.81,34-66.47,1.59-1.21,3.1-2.35,4.49-3.46l.47-.38.51-.31c45.12-28,42.27-54.58,41.06-65.92-.39-3.65-5.81-36.17-75-57.06C273,345.22,231.57,364,213.88,372.05c-2.26,1-4.09,1.86-5.64,2.47-49.72,24.8-80.59,79-83.11,88.25l0,.19c-11.53,39.19,9.85,60.94,11.5,62.54,8,7.06,153.3,135.66,165.25,146.53,16.29,14.81,43,34.88,86.6,38.2,32.19,2.36,63.2-18,65.56-19.63L622.63,562.07,695,497.35c5-6.29,37.78-45.56,75.64-45.56,39.63,0,54.81,32.44,57,37.74,4.12,7.83,61.47,116.85,73.61,140.08A87.88,87.88,0,0,0,929,660.81c106.94,29,384,103.58,405.94,106.21l.83.1.8.24Z"/></svg>