<svg id="Second_Chicane_-_Config" data-name="Second Chicane - Config" xmlns="http://www.w3.org/2000/svg" viewBox="0 0 1920 1080"><defs><style>.cls-1{fill:#fff;}</style></defs><title>active</title><path class="cls-1" d="M1836.09,472.53l-.14-.63c-.2-.75-20.08-75.78-38.1-136.38l0-.17C1778.74,275.1,1688.28,274,1684.43,274l-652-3c-.58,0-57.89-.48-91.3-.48-65-.7-88.46,6.75-101.61,13.33l-.14.07C803.56,302.52,695.5,399.7,682.22,412.13c-18.83,17.63-58.06,37.12-75.62,41.82-29.71,5.89-57.77,23.43-60.42,25.12-22.6,13.46-42.13,44.42-62.81,77.2-5.55,8.8-11.29,17.9-17.16,26.78-17.88,26.07-42.66,37.14-73.64,32.92-19-2.59-52.69-25.17-52.2-60.93.42-31.43,13.44-41.27,26-50.79,1.47-1.11,3-2.26,4.46-3.42,55.28-34.55,51.23-72.3,49.9-84.74-.78-7.18-4.48-21.6-20.66-37.42C384.41,363.33,361.36,351,331.6,342c-60-18.12-108,3.63-126,11.82-2.1,1-3.91,1.78-5,2.18l-.87.38c-56.5,28-90.2,87.87-93.89,101C90.57,509.54,121.7,539,123,540.22l.15.13c1.54,1.36,153.27,135.63,165.2,146.48,10.64,9.67,43,39.12,98.56,43.34,40.54,3,77.1-22.19,78.64-23.26l.17-.12,143.4-109.3c17.41-13.27,34.5-27.4,50.8-42l31.48-28.17c8.76-7.83,17.35-16.2,26.27-25.59,10.63-11.19,31.64-30,52.9-30,28.22,0,38.2,24.52,38.59,25.5l.21.57.29.54c.61,1.16,61.3,116.52,73.82,140.48.39.74.78,1.48,1.19,2.21a91.84,91.84,0,0,0,56.68,43.7c52.34,13.91,184.39,49,279.93,74.45l87.81,22.66.18.05c15.65,3.73,20.66,4.6,23,4.9l.88.08c1.52.09,3,.13,4.57.13,27.65,0,55.54-13.76,71.76-26.19,4-2.65,8.83-7.57,15.45-14.29,17.68-18,47.27-48,77.38-49.45,16.94-1,34.43,6.3,47.78,12.7a104.41,104.41,0,0,0,48.52,10.36c18.53-.63,28.15-6,36.63-10.71,1.86-1,3.62-2,5.44-2.93l.6-.3,7.82-5.33.12-.08c38.52-27,90.38-74.57,115.31-97.43l15.42-13.95c10.57-8.84,42-45.47,51.74-62.68C1842.56,507.58,1836.79,476.06,1836.09,472.53Zm-21.81,44.39c-9.1,16-39.2,50.63-47.25,57.26l-16,14.43,0,0c-22.69,20.79-75.78,69.45-113.25,95.77L1631.1,689c-2,1-3.82,2-5.61,3-7.44,4.15-13.87,7.73-27.56,8.19a84.41,84.41,0,0,1-39.2-8.4c-15.51-7.44-36.06-15.83-57.46-14.65-37.85,1.85-70.87,35.37-90.6,55.4-5,5.09-10.21,10.36-12.33,11.7l-.77.54c-11.46,8.86-37.47,23.44-62.78,22.2l-3.08-.51c-3-.58-8.29-1.73-17.67-4l-87.65-22.63c-95.48-25.43-227.53-60.52-279.88-74.43a71.77,71.77,0,0,1-44.32-34.07c-.32-.58-.64-1.17-1-1.78-12.14-23.23-69.5-132.26-73.61-140.08-2.21-5.3-17.39-37.74-57-37.74-28.73,0-54.56,22.67-67.4,36.18-8.54,9-16.75,17-25.1,24.46L646.61,540.6c-15.91,14.24-32.59,28-49.58,41l-143,109c-2.36,1.59-33.38,22-65.56,19.63-43.6-3.32-70.31-23.39-86.6-38.2C289.88,661.16,144.54,532.54,136.57,525.5c-1.66-1.62-23-23.37-11.49-62.54l0-.19c2.52-9.22,33.39-63.45,83.11-88.25,1.55-.61,3.38-1.44,5.64-2.47,17.69-8,59.1-26.83,112-10.88,69.23,20.89,74.65,53.41,75,57.05,1.21,11.35,4.06,37.92-41.06,65.93l-.51.31-.47.38c-1.39,1.11-2.9,2.25-4.49,3.46-14.1,10.66-33.41,25.26-34,66.47-.62,46,40.7,77.09,69.5,81,26.89,3.66,64.84-.56,92.88-41.49l.09-.14c6-9.08,11.82-18.3,17.45-27.22,19.39-30.75,37.72-59.8,56.23-70.75l.31-.2c.27-.17,27-17.21,53.93-22.48l.62-.14c19.64-5.14,62.32-25.87,84.51-46.64,25.55-23.92,123-109.6,152.67-125.08,10.3-5.13,31.12-11.83,92.43-11.17h.11c33.32,0,90.6.47,91.21.48l652,3c.8,0,79.65,1.06,94.38,47.35,17.31,58.24,36.37,129.91,37.82,135.38C1817.93,484.08,1820.35,506.2,1814.28,516.92Z"/></svg>