<?xml version="1.0" encoding="utf-8"?>
<!-- Generator: Adobe Illustrator 24.0.1, SVG Export Plug-In . SVG Version: 6.00 Build 0)  -->
<svg version="1.1" id="Oval_-_Config" xmlns="http://www.w3.org/2000/svg" xmlns:xlink="http://www.w3.org/1999/xlink" x="0px"
	 y="0px" viewBox="0 0 1920 1080" style="enable-background:new 0 0 1920 1080;" xml:space="preserve">
<style type="text/css">
	.st0{fill:#FFFFFF;}
</style>
<title>active</title>
<path class="st0" d="M993.3,933.2c-12,0-24.2-0.2-36.6-0.6C670.4,924,430.4,863,243.5,751.6C164.6,704.5,34.1,595.9,47,397.7
	c5.1-78.1,37.8-156.8,89.8-215.8c32.3-36.7,72.1-66.5,118.3-88.6c52-24.9,112.5-40,179.8-44.9c179.5-13.2,471.9-9,706.9-5.7
	c97.9,1.4,190.3,2.7,261.8,2.6c0.3,0,0.7,0,1,0c47.2,0,93.2,4.2,136.7,12.5c58,11,109.8,29.1,154,53.7
	c54.2,30.2,97,70.5,127.3,119.7c35.2,57.2,53.9,127.1,55.6,207.9c1,51-10.9,103.7-34.6,152.3c-24.9,51-61.7,95.1-106.5,127.4l0,0
	c-107.9,77.9-275.1,143.7-349.4,159.3c-13,2.7-26.4,5.7-40.6,8.8C1252.5,907.7,1136.5,933.2,993.3,933.2z M784.5,59.3
	c-130.7,0-254.8,2.1-348.1,9C178.4,87.3,76.2,258.3,67,399C54.7,586.6,178.8,689.7,253.8,734.4c183.9,109.7,420.6,169.7,703.5,178.3
	c157.7,4.8,284-23,385.6-45.3c14.3-3.1,27.7-6.1,40.8-8.8c72.6-15.3,236.1-79.7,341.9-156l5.9,8.1l-5.9-8.1
	c82.8-59.7,134.9-163,132.9-263c-6.9-338.3-320.3-374.3-454.6-374.2c-71.6,0.1-164.2-1.2-262.1-2.6
	C1029.4,61.1,904.2,59.3,784.5,59.3z"/>
</svg>
