<svg id="Competition_-_Config" data-name="Competition - Config" xmlns="http://www.w3.org/2000/svg" viewBox="0 0 1920 1080"><defs><style>.cls-1{fill:#fff;}</style></defs><path class="cls-1" d="M984.3,933c-9.07,0-18.22-.1-27.51-.29-196.19-4.16-455.31-59.92-630.15-135.61l-.78-.34-.71-.46c-2.49-1.62-24.52-16.12-33.39-25.62-24-25.72-66.79-97-68.6-100.06l-.74-1.25L208,613.14c-6.31-22.53-5.68-28,.28-45.86C215.4,546,222.67,528.9,233.67,503c2.76-6.49,5.74-13.5,9-21.24,3.6-8.54,12.42-31.25,15.51-39.59.26-.71.63-1.93,1-3.23,2.93-9.7,10.69-35.49,36.53-34.18,11.09.56,29.76-.33,46.23-1.11,12.14-.58,23.61-1.12,31.93-1.12,13.57,0,19.82-3,41.57-14.41,8.55-4.49,19-11,29.11-17.4,10.43-6.54,21.22-13.31,30.45-18.16,1-.51,2-1.11,3.06-1.76,6.17-3.67,14.61-8.7,32.74-7.82,5.76.28,15.83.51,23.93.7l7.73.18c8.59.23,37,3.81,42.63,40.49l.11.74c2.67,17.58,6.63,32.05,28.23,31.11,80.79-3.55,153.72-6.66,218.07-9.4,186.44-8,321.15-13.71,452.09-21.7.72,0,1.49-.11,2.31-.17,10-.79,30.9-2.44,41.6,19.16.56,1.14,1,2.26,1.52,3.35,1.56,3.57,2.53,5.64,4.41,6.65s7.07,2.29,19.76-.92c72-18.25,195.7-54.64,261.32-74.65,5.73-1.75,15.26-9.87,17.5-20,1.68-7.61-1.24-14.66-8.93-21.56-30.44-27.32-74.83-43.37-118.89-43.13l-.41,0c-1.58,0-4.92,0-10-.12-22-.37-73.65-1.22-125.16,1.66-13.6.76-26.21,9.14-39.56,18-17.09,11.36-36.47,24.24-62.33,24.24h-7.86c-216.17-.16-402.86-.29-559.55-1.44h-1.71c-6.11,0-17.48.07-28.58-3.86-14.83-5.24-24.38-15.93-27.63-30.91-1.57-7.21-4.06-60.27.82-75.22,2.91-8.91,10.63-32.56,47.62-32.56,100.13,0,274.63,1.79,395.26,3.55l1.81,0c13.77.29,20.45-1.3,23.58-11.62,3.5-11.47,7-35.33,9.14-49.58l.65-4.43c.09-.61.18-1.25.28-1.92.91-6.49,2.29-16.3,7.93-24.84,7.11-10.8,18.59-16.36,34.12-16.54,76.88-.87,239.25-3,240.88-3h.11A738,738,0,0,1,1541.44,57.8c58,11,109.82,29.1,154,53.72,54.18,30.23,97,70.49,127.33,119.66,35.23,57.16,53.94,127.13,55.59,208,1.05,51-10.93,103.65-34.63,152.25-24.88,51-61.71,95.07-106.52,127.4-107.92,77.88-275.11,143.65-349.42,159.34-11.15,2.36-22.6,4.84-34.71,7.47C1255.16,906.82,1134.67,933,984.3,933ZM335.38,779.05c172.7,74.59,428.25,129.52,621.83,133.62,160.93,3.42,288.83-24.34,391.6-46.63,12.14-2.63,23.61-5.12,34.82-7.48,72.61-15.34,236.13-79.72,341.85-156,82.76-59.72,134.9-163,132.85-263-6.9-337.43-318.67-374.21-453.63-374.21h-1c-3.5,0-164.42,2.13-240.86,3-17.78.21-20.44,9.7-22.48,24.17-.1.73-.2,1.43-.3,2.09l-.65,4.4c-2.33,15.76-5.86,39.58-9.78,52.48-8.08,26.55-32.65,26-43.15,25.78l-1.68,0c-120.55-1.77-294.93-3.55-395-3.55-22.48,0-26,10.85-28.61,18.77-3.1,9.5-1.39,58.93-.28,64.82,3.65,16.81,20.56,19,36.59,19h1.93c156.62,1.15,343.28,1.28,559.42,1.44h7.84c19.82,0,35.1-10.15,51.27-20.89,15-10,30.48-20.26,49.5-21.32,52.24-2.92,104.36-2.06,126.62-1.69,3.7.06,6.59.11,8.28.12h.08c49.44-.69,99.52,17.35,133.93,48.22,13,11.65,18.33,26.12,15.09,40.77-3.89,17.61-19,31.07-31.19,34.8-65.8,20.06-189.93,56.57-262.24,74.9-15.08,3.83-25.93,3.56-34.13-.84s-11.21-11.53-13.28-16.29c-.4-.91-.77-1.76-1.12-2.46-4.36-8.81-11.57-8.92-22.09-8.09l-2.67.19c-131.12,8-265.91,13.76-452.46,21.72-64.34,2.74-137.27,5.86-218,9.4-22.15,1-33.68-9.54-39.45-18.53-6.48-10.1-8.26-21.81-9.43-29.56l-.11-.72c-2.33-15.26-10.2-23.17-23.38-23.51l-7.67-.19c-8.21-.18-18.43-.42-24.44-.71-12.1-.59-16.47,2-21.53,5-1.26.76-2.57,1.53-4,2.29-8.54,4.49-19,11.05-29.11,17.39C444.77,394.24,434,401,424.76,405.85c-23.64,12.41-32.74,16.71-50.87,16.71-7.84,0-19.08.53-31,1.1-17.76.84-36.12,1.72-48.19,1.11-8.57-.44-12.36,6.68-16.37,20-.51,1.66-.94,3.1-1.41,4.38-3.22,8.7-12.08,31.5-15.84,40.42-3.26,7.76-6.26,14.8-9,21.3-10.82,25.44-18,42.24-24.82,62.76-4.7,14.09-5.2,15.56,0,34.25l0,.21,13.71,53.47c5.83,9.65,44.4,73,65.32,95.45C312.29,763.32,328.67,774.63,335.38,779.05Z"/></svg>