<svg id="Moto_-_Config" data-name="Moto - Config" xmlns="http://www.w3.org/2000/svg" viewBox="0 0 1920 1080"><defs><style>.cls-1{fill:#fff;}</style></defs><path class="cls-1" d="M984.3,933c-9.07,0-18.22-.1-27.51-.29-196.19-4.16-455.31-59.92-630.15-135.61l-.79-.34-.73-.48c-2.54-1.67-25.13-16.63-34.51-26.79-20.08-21.77-65.11-94.85-67-98l-.8-1.31-16-63.63c-6-17.43-.16-36.17.54-38.27l.31-.82c4.52-10.43,8.18-20.18,12.05-30.51,6.15-16.44,12.52-33.44,23.23-55.64,3.6-7.45,11.39-28.55,14.72-37.56l.58-1.56c.26-.71.63-1.93,1-3.23,2.93-9.7,10.69-35.49,36.53-34.18,11.09.56,29.76-.33,46.23-1.11,12.14-.58,23.61-1.12,31.93-1.12,13.57,0,19.82-3,41.57-14.41,8.55-4.49,19-11,29.11-17.4,10.43-6.54,21.22-13.31,30.45-18.16,1-.51,2-1.11,3.06-1.76,6.17-3.67,14.62-8.71,32.74-7.82,5.76.28,15.83.51,23.93.7l7.73.18c8.59.23,37,3.81,42.63,40.49l.11.74c2.67,17.58,6.63,32.05,28.23,31.11,80.79-3.55,153.72-6.66,218.07-9.4,186.44-8,321.15-13.71,452.09-21.7.72,0,1.49-.11,2.31-.17,10-.79,30.9-2.44,41.6,19.16.56,1.14,1,2.26,1.52,3.35,1.56,3.57,2.53,5.64,4.41,6.65s7.07,2.29,19.76-.92c69.33-17.59,194.55-54.24,261.31-74.65,7.41-2.27,16.28-10.05,18.29-19.15,1.68-7.58-1.59-15.12-9.71-22.4-32.57-29.23-72.71-43.73-119.3-43.11-1.59,0-4.92,0-10-.12-22-.37-73.65-1.22-125.16,1.66-13.6.76-26.21,9.14-39.56,18-17.09,11.36-36.47,24.24-62.33,24.24-12.92,0-53-1.06-82.3-1.84-10.08-.27-18.59-.49-23.71-.61-14.72-.35-25.7-7.38-30.93-19.8-3.88-9.24-3.79-19.32-3.73-25.35v-.7c.05-5.48,0-13.17-.07-21.31-.08-12.63-.18-26.95.08-35.8.38-12.94,3.75-22.2,10.31-28.3,8.69-8.08,20.06-7.58,26.86-7.28,1.13,0,2.2.1,3,.1,19.77,0,40.62-.06,60.78-.12,88.56-.26,180.14-.52,232.51,3.93,226.43,19.26,268.69,131,286.73,178.65,5.77,15.25,10.63,19.28,13,20.32s5.24.19,9.72-1.27l.39-.13c3.42-1.11,7.41-2.52,11.64-4,8.52-3,18.18-6.39,25.81-8.3,18.37-4.59,33.72-2.35,45.63,6.66,14.89,11.25,23.23,32.8,24.12,62.3,5.34,175.77-67.2,239.7-125.48,291.07l-8.09,7.15c-42.93,38.14-76,39.57-100.17,40.62h-.26c-80.29,3.47-102.54,29.39-118.44,55.63-20.17,33.28-41.91,43.27-53.08,46.26-49.17,13.17-82.46,22.34-82.79,22.43l-.59.14c-11.15,2.36-22.6,4.84-34.71,7.47C1255.16,906.82,1134.67,933,984.3,933ZM335.39,779.06C508.1,853.65,763.63,908.57,957.21,912.67c161,3.42,288.83-24.34,391.6-46.63,12-2.61,23.41-5.07,34.52-7.42,3.41-.94,35.85-9.86,82.64-22.39,6.65-1.78,24-9,41.15-37.3,8.76-14.47,20.71-31,42.89-43.63,22.47-12.85,52.5-19.92,91.78-21.62h.27c22.34-1,50.13-2.17,87.74-35.59l8.15-7.2c58-51.14,123.78-109.09,118.72-275.46-.69-22.92-6.45-39.59-16.19-47-6.94-5.25-16.33-6.3-28.72-3.2-6.72,1.68-15.92,4.91-24,7.76-4.34,1.53-8.44,3-12.08,4.16l-.38.12c-5.76,1.88-14.47,4.72-23.93.58s-17.13-14.23-23.69-31.56c-16.71-44.17-55.85-147.61-269.72-165.8-51.49-4.38-142.63-4.12-230.76-3.86-20.18.06-41,.12-60.84.12-1.28,0-2.56-.06-3.92-.12-4.59-.2-9.8-.43-12.36,2-2.34,2.17-3.74,7.23-3.94,14.24-.25,8.49-.15,22.61-.07,35.07.06,8.22.12,16,.07,21.6v.74c-.17,18.63,3.51,24.69,15.13,25,5.14.12,13.67.34,23.77.61,27.53.73,69.12,1.83,81.78,1.83,19.82,0,35.1-10.15,51.27-20.89,15-10,30.48-20.26,49.5-21.32,52.24-2.92,104.36-2.06,126.62-1.69,4.69.08,8.07.14,9.36.12,51.77-.7,96.5,15.54,132.93,48.22,13.49,12.11,19.13,26.88,15.88,41.6-3.93,17.82-19.33,30.1-32,34-67,20.48-192.59,57.25-262.25,74.91-15.08,3.83-25.93,3.56-34.13-.84s-11.21-11.53-13.28-16.29c-.4-.91-.77-1.76-1.12-2.46-4.36-8.81-11.58-8.92-22.09-8.09l-2.67.19c-131.12,8-265.91,13.76-452.46,21.72-64.34,2.74-137.27,5.86-218,9.4-22.15,1-33.68-9.54-39.45-18.53-6.48-10.1-8.26-21.81-9.43-29.56l-.11-.72c-2.33-15.26-10.2-23.17-23.38-23.51l-7.67-.19c-8.21-.18-18.43-.42-24.44-.71-12.1-.59-16.47,2-21.53,5-1.26.76-2.57,1.53-4,2.29-8.54,4.49-19,11.05-29.11,17.39C444.77,394.24,434,401,424.76,405.85c-23.64,12.41-32.74,16.71-50.87,16.71-7.84,0-19.08.53-31,1.1-17.76.84-36.12,1.72-48.19,1.11-8.59-.44-12.36,6.68-16.37,20-.51,1.66-.94,3.1-1.41,4.38l-.58,1.56c-3.72,10.07-11.46,31-15.46,39.32-10.32,21.38-16.52,38-22.52,54-3.9,10.41-7.59,20.26-12.21,30.95-.65,2.2-4.14,15.05-.43,25.36l.29.94,15.4,61.1c6.19,10,46.49,74.71,63.88,93.57C311.62,762.72,328.51,774.49,335.39,779.06Z"/></svg>