<?xml version="1.0" encoding="utf-8"?>
<!-- Generator: Adobe Illustrator 24.0.1, SVG Export Plug-In . SVG Version: 6.00 Build 0)  -->
<svg version="1.1" id="cota_grand_prix_-_Config" xmlns="http://www.w3.org/2000/svg" xmlns:xlink="http://www.w3.org/1999/xlink"
	 x="0px" y="0px" viewBox="0 0 1920 1080" style="enable-background:new 0 0 1920 1080;" xml:space="preserve">
<style type="text/css">
	.st0{fill:#FFFFFF;}
</style>
<title>active</title>
<path class="st0" d="M1809.8,900c-4,0-7.8-0.4-10.8-0.7c-1.1-0.1-2.1-0.2-2.6-0.2l-0.2,0c-64.8-4.7-121.7-9.5-220.4-20.3
	c-29.8-3.3-39-12-44.6-42.6c-5.8-31.2-14.8-100.9-19.1-137.5l-0.2-2c-3.3-27.6-4.5-35.9-10.2-43.5c-22.6-29.6-31.4-36.6-47.4-49.2
	c-15.1-11.9-31.4-13.2-40.2-13.9c-9.6-0.8-23.7-1.5-34.1-2.1l-4.8-0.3c-19.6-1.1-28.5,0.8-36.9,7.8c-4,3.4-12.5,10.7-19.9,17.2
	c-5,4.3-9.6,8.3-12.3,10.6c-12.6,10.8-15.1,16.7-14.6,34.8c1.1,37.9,4.5,102,6.5,140.3l0.6,11.1c0.7,13.9-2.7,23.9-10.2,29.8
	c-9.7,7.6-21.5,4.4-22.8,4l-1.1-0.3l-1-0.6c-0.8-0.5-19.7-11.4-27.6-17.2c-8.8-6.5-13.1-11.8-17-20.6c-3.8-8.7-8.4-29.1-10-37.1
	c-4.3-22.1-4-39,1-53.2c5.2-15-14.7-31.7-17-33.5c-7.2-5.8-18.9-13.6-27.4-17.5c-2.9-1.3-8.2-3.2-10.8-1.3
	c-4.8,3.6-6.6,18.8-5.1,30.7c1.8,15.3,3.3,28.3,4.7,40.5c3.7,32.2,6.7,57.6,12.1,101c1.9,15-0.6,24.8-7.4,30.1
	c-4.9,3.7-11.3,4.3-17.6,1.7c-35-14.5-89.7-35.7-142.5-56.2c-45.4-17.6-88.4-34.3-118.1-46.3C756.5,713.3,626.9,677,541.1,653
	l-1.9-0.5c-98.5-27.6-239.6-59.8-397.5-90.7c-19.4-3.8-35.8-8.3-39.8-25c-3.5-14.8,7.6-28.1,30.6-36.6
	c70.9-26.2,203.8-83.8,276.8-115.8c31.1-13.7,49.8-8.3,63.5-4.5c7.7,2.2,16.2,4.6,25.3,7.1c33.1,9.3,74.3,20.9,97.8,28.3
	c29.1,9.3,34.8,23.7,36.5,37.9c4.5,36.5,14.1,43.6,22.7,47.5c20.8,9.2,38.8,1.2,53.3-5.3l2.5-1.1c12.6-5.6,39.5-15,51.2-18.1
	c46.3-12.6,63.3,15.5,72.4,30.7l0.1,0.2c40.3,66.8,70.1,76.9,96.3,77.8c42.7,1.5,72.5-20.5,86.1-41.6c30.3-46.9,54.8-46.8,77.2-42.7
	c44.1,8.1,62.6-5.4,76.1-21.2c28.8-33.9,54.3-34.8,73-35.5l1.1,0c33.9-1.3,102.4-4.7,136.6-7.1c66.9-4.7,82.1-38.7,91.8-73.1
	c5-17.6,9.2-46.3,13.3-74c3.6-24.4,6.9-47.5,10.8-63c3.9-15.6,11-24.1,21-25.3c17.5-2,29.4,20.7,29.6,21c6.4,12.3,18.5,36.4,24.3,49
	c51.2,112.4,137.3,307.6,206.4,464.4c20.5,46.6,39.9,90.5,55.6,126l0,0c5.3,11.9,5.3,21.5,0.2,28.6
	C1828.2,898.3,1818.4,900,1809.8,900z M1797.6,879.2c1,0.1,2.1,0.2,3.5,0.3c12,1.2,15.6,0.1,16.6-0.7c0.1-0.5,0.4-3-2.2-8.8
	c-15.7-35.5-35.1-79.5-55.6-126.1c-69.1-156.8-155.1-352-206.3-464.2c-5.6-12.3-17.6-36-23.9-48.1c-2.2-4.2-6.9-9.1-9.2-10.1
	c-0.8,0.9-2.5,3.4-4.2,10.1c-3.6,14.5-6.9,37.1-10.4,61c-4.1,28.4-8.4,57.7-13.8,76.6c-4.9,17.3-11.5,37.2-27.5,54.2
	c-18.7,19.9-45.6,30.8-82.2,33.4c-34.3,2.4-103.1,5.9-137.2,7.1l-1.1,0c-17.4,0.6-35.3,1.3-58.5,28.5
	c-15.5,18.2-40.4,37.9-94.9,27.9c-14.6-2.7-31.2-5.7-56.8,33.9c-16,24.9-50.2,50.9-98.8,50.9c-1.6,0-3.2,0-4.8-0.1
	c-20.7-0.7-38.1-6.6-54.9-18.7c-19.4-13.9-38.3-36.3-57.8-68.8l-0.1-0.2c-9-14.9-18.4-30.4-50.1-21.7c-10.6,2.9-36.9,12-48.4,17.1
	l-2.4,1.1c-16.2,7.2-40.6,18.1-69.6,5.3c-20-8.9-30-27.3-34.5-63.3c-0.8-6.9-1.8-14.7-22.7-21.3c-23.2-7.4-64.2-18.9-97.2-28.1
	c-9.1-2.5-17.7-5-25.3-7.1c-12-3.4-25.5-7.2-50,3.5c-73.1,32.1-206.5,89.9-277.9,116.2c-12.2,4.5-18.8,10.3-18.1,13.2
	c0.7,2.9,3.1,5.9,24.2,10c158.3,31,300,63.3,399,91.1l1.9,0.5c86.2,24.1,216.5,60.6,341.7,111.4c29.6,12,72.5,28.6,117.8,46.2
	c51.9,20.1,105.5,40.9,140.7,55.4c0.3-1.9,0.4-5-0.3-9.9c-5.5-43.6-8.4-69-12.2-101.2c-1.4-12.2-2.9-25.3-4.7-40.5
	c-0.7-6.1-3.5-36.9,13.2-49.2c5.6-4.1,15.5-7.6,30.8-0.8c10.6,4.7,23.7,13.5,31.8,20.2c7.8,6.3,32.5,29,23.3,55.6
	c-3.7,10.6-3.7,24.6-0.2,42.8c1.8,9.5,6.1,27.1,8.7,32.9c2.2,5.1,4.2,7.8,10.6,12.5c5.4,4,18.3,11.6,24.3,15.2c1.1,0.1,3,0.1,4-0.7
	c1.5-1.2,3-5.3,2.5-13l-0.6-11.1c-2.2-40.9-5.4-102.7-6.5-140.8c-0.7-24,4.4-35.8,21.6-50.5c2.7-2.3,7.2-6.2,12.2-10.5
	c7.5-6.5,16-13.9,20.2-17.4c14.3-11.9,29.5-13.6,50.8-12.4l4.8,0.3c10.5,0.6,24.8,1.3,34.6,2.1c10.1,0.8,31.2,2.5,51,18.1
	c18.1,14.3,27.9,22.5,50.9,52.8c9.3,12.2,10.8,24.2,14.2,53.3l0.2,2c4.6,39.1,13.5,107.2,18.9,136.2c2.1,11.6,4.2,17.6,7.3,20.5
	c3,2.9,8.8,4.6,19.8,5.8C1676.4,869.7,1733,874.5,1797.6,879.2z M1149.3,847.8C1149.3,847.8,1149.3,847.8,1149.3,847.8
	C1149.3,847.8,1149.3,847.8,1149.3,847.8z"/>
</svg>
