<?xml version="1.0" encoding="utf-8"?>
<!-- Generator: Adobe Illustrator 24.0.1, SVG Export Plug-In . SVG Version: 6.00 Build 0)  -->
<svg version="1.1" id="Irwindale_Outer_Oval__Config"
	 xmlns="http://www.w3.org/2000/svg" xmlns:xlink="http://www.w3.org/1999/xlink" x="0px" y="0px" viewBox="0 0 1920 1080"
	 style="enable-background:new 0 0 1920 1080;" xml:space="preserve">
<style type="text/css">
	.st0{fill:#FFFFFF;}
</style>
<title>active</title>
<path class="st0" d="M1455.3,283c-35.9-23.3-78.6-42.7-123.6-56c-39.1-11.6-79.8-18.4-114.5-19.3c-112.3-2.9-337.8-2.9-449.5,1.4
	c-62.1,2.4-119.6,15.3-171,38.4c-48.3,21.7-89.2,51.3-121.4,87.9c-50.6,57.6-74.9,127.8-68.6,197.8c4.5,50,21.8,95.5,51.3,135
	c25.5,34.1,60,63.8,102.6,88.3c36,20.7,76.8,37.2,121.3,49c47.2,12.6,85.6,16.5,109.6,17.6c54.7,2.5,130.2,3.6,206.4,3.6
	c89.5,0,179.8-1.5,238.1-4c105.5-4.6,195-36,258.8-90.9c30.6-26.3,54.6-57.4,71.2-92.4c16.6-35,25.6-73.1,26.5-113.2
	C1595.7,400.9,1519.6,324.8,1455.3,283z M1572.7,525.6c-3.9,159.6-136.4,268.3-337.4,277c-107.4,4.7-324.2,5.9-442.7,0.4
	c-95.3-4.4-346.8-61.7-365.8-271.7c-5.8-64.5,16.8-129.4,63.7-182.8c63.7-72.6,162.5-115,278.1-119.5c61.2-2.4,156.7-3.5,248.9-3.5
	c75.6,0,148.9,0.7,199.4,2c56.1,1.5,149.3,21.2,227.6,72.1C1504.5,338.8,1575.5,409.6,1572.7,525.6z"/>
</svg>
