<?xml version="1.0" encoding="utf-8"?>
<!-- Generator: Adobe Illustrator 24.0.1, SVG Export Plug-In . SVG Version: 6.00 Build 0)  -->
<svg version="1.1" id="cota_east_-_Config" xmlns="http://www.w3.org/2000/svg" xmlns:xlink="http://www.w3.org/1999/xlink" x="0px"
	 y="0px" viewBox="0 0 1920 1080" style="enable-background:new 0 0 1920 1080;" xml:space="preserve">
<style type="text/css">
	.st0{fill:#FFFFFF;}
</style>
<title>active</title>
<path class="st0" d="M833.4,744.7c-3.7,0-7.9-0.7-12.7-2.4c-67.9-24.3-206.5-67.3-280.5-89h0c-92.9-27.3-226.9-58.1-398.3-91.7
	c-19.5-3.8-35.9-8.3-39.8-25c-3.5-14.8,7.6-28.1,30.6-36.6c71.4-26.4,204.1-83.8,276.8-115.8c30.9-13.6,49.7-8.3,63.3-4.5l0.1,0
	c7.6,2.1,16,4.5,24.9,7c33.3,9.4,74.7,21,98.3,28.5c29.1,9.3,34.8,23.7,36.5,37.9c4.5,36.5,14.1,43.6,22.7,47.5
	c20.8,9.2,38.8,1.2,53.2-5.3c0.9-0.4,1.7-0.8,2.5-1.1c12.7-5.6,39.6-15,51.2-18.1c50-13.7,64.7,19.6,70.2,32.1
	c13.2,30,21.1,63.3,26.3,111.6c0.5,4.2,1,8.7,1.7,13.5c3.3,25.4,7.8,60.2-1.8,94c-1.7,5.9-6.2,11.2-12.2,14.3
	C843.3,743.2,839,744.7,833.4,744.7z M545.8,634.1c74.2,21.8,213.4,64.9,281.7,89.4c8.1,2.9,11.4-0.3,11.9-1.7
	c8.4-29.9,4.4-61,1.1-86c-0.6-4.9-1.2-9.5-1.7-13.9c-5-46.1-12.4-77.7-24.7-105.7c-7-15.8-15.8-29.2-46.6-20.8
	c-10.5,2.9-36.8,12-48.4,17.1c-0.8,0.4-1.6,0.7-2.4,1.1c-16.2,7.2-40.6,18.1-69.5,5.3c-20-8.9-30-27.3-34.4-63.3
	c-0.8-6.9-1.8-14.7-22.7-21.3c-23.3-7.4-64.5-19-97.6-28.3c-8.9-2.5-17.3-4.9-24.9-7l-0.1,0c-12-3.3-25.5-7.1-49.9,3.6
	c-72.9,32-206,89.7-277.9,116.2c-12.1,4.4-18.8,10.3-18.1,13.2c0.7,2.9,3.1,5.9,24.2,10C317.7,575.7,452.4,606.7,545.8,634.1
	L545.8,634.1z"/>
</svg>
