<?xml version="1.0" encoding="utf-8"?>
<!-- Generator: Adobe Illustrator 24.0.1, SVG Export Plug-In . SVG Version: 6.00 Build 0)  -->
<svg version="1.1" id="cota_west_-_Config" xmlns="http://www.w3.org/2000/svg" xmlns:xlink="http://www.w3.org/1999/xlink" x="0px"
	 y="0px" viewBox="0 0 1920 1080" style="enable-background:new 0 0 1920 1080;" xml:space="preserve">
<style type="text/css">
	.st0{fill:#FFFFFF;}
</style>
<title>active</title>
<path class="st0" d="M1810.2,900c-4.3,0-8.3-0.4-11.5-0.8c-0.9-0.1-1.8-0.2-2.4-0.2c-64.8-4.7-121.6-9.5-220.4-20.3
	c-29.8-3.3-39-12-44.6-42.6c-5.6-30.6-14.7-100.6-19.1-137.5l-0.2-2c-3.3-27.6-4.5-35.9-10.2-43.5c-22.6-29.5-31.4-36.5-47.4-49.2
	c-15-11.9-30.8-13.1-40.2-13.9c-9.5-0.8-23.7-1.5-34-2.1l-4.8-0.3c-19.6-1.1-28.6,0.8-36.9,7.8c-4,3.4-12.4,10.7-19.9,17.1
	c-5,4.3-9.6,8.4-12.3,10.7c-12.6,10.8-15.1,16.6-14.6,34.8c1.1,37.9,4.5,102,6.5,140.3l0.6,11.1c0.7,13.9-2.7,23.9-10.2,29.8
	c-9.7,7.6-21.5,4.4-22.8,4l-1.1-0.3l-1-0.6c-0.8-0.5-19.7-11.4-27.6-17.2c-8.8-6.5-13.1-11.7-17-20.6c-3.8-8.6-8.4-29.1-10-37.1
	c-4.3-22.1-4-39,1-53.2c5.2-15-14.7-31.7-17-33.6c-7-5.6-18.6-13.5-27.4-17.4c-2.9-1.3-8.2-3.2-10.8-1.3c-4.8,3.6-6.6,18.8-5.1,30.7
	c1.8,15.3,3.3,28.4,4.8,40.7c3.7,32.1,6.7,57.5,12.1,100.9c1.9,15-0.6,24.8-7.4,30.1c-4.8,3.7-11.2,4.3-17.4,1.8
	c-5.4-2.1-168.1-63.7-229.1-90.8c-19.4-8.6-15.4-27.1-9.8-42.3c0.9-2.4,3-10,4.2-14.2l0.2-0.7c0.7-1.9,1-4.8,0.7-6.1
	c-6.2-1.5-16-7.3-12.8-28.9c2.4-16.5,8.5-47.8,11.6-63.6c0.2-1.2,0.5-2.8,0.7-4.5c1.3-8.8,3-20.8,11.3-26.8c3.9-2.8,8.7-3.9,13.7-3
	c49.5,8.5,79.2-33.3,84.7-41.8c30.3-46.9,54.7-46.8,77.2-42.7c44.1,8.1,62.6-5.4,76.1-21.2c28.8-33.9,54.3-34.8,73-35.5l1.1,0
	c33.9-1.3,102.4-4.7,136.6-7.1c66.8-4.7,82-38.7,91.8-73.1c5-17.6,9.2-46.4,13.3-74.2c3.6-24.3,6.9-47.3,10.8-62.8
	c3.9-15.6,11-24.1,21-25.3c17.4-2,29.5,20.7,29.6,20.9c6.4,12.3,18.5,36.4,24.3,49c51.2,112.2,137,307,206,463.5
	c20.7,46.9,40.2,91.2,56,126.9c5.3,12,5.3,21.6,0.1,28.7C1828.2,898.3,1818.7,900,1810.2,900z M1366,567.4c3.3,0,6.8,0.1,10.4,0.3
	l4.8,0.3c10.4,0.6,24.7,1.3,34.5,2.1c10.2,0.8,31.3,2.5,51.1,18.1c18.1,14.3,27.8,22.6,50.9,52.8c9.4,12.3,10.8,24.3,14.2,53.3
	l0.2,2c4.4,36.7,13.4,106.1,18.9,136.3c2.1,11.6,4.2,17.5,7.3,20.5c3,2.9,8.8,4.6,19.8,5.8c98.4,10.8,155,15.5,219.6,20.2
	c0.8,0.1,1.9,0.2,3.1,0.3c12.1,1.3,15.7,0.3,16.8-0.6c0.1-0.5,0.3-3-2.2-8.8c-15.8-35.8-35.3-80.1-56-127
	c-68.9-156.5-154.7-351.3-205.9-463.3c-5.6-12.3-17.6-36-23.9-48.1c-2.1-4-6.8-9.1-9.3-10.1c-0.8,0.9-2.5,3.4-4.2,10.1
	c-3.6,14.5-6.9,37-10.4,60.8c-4.2,28.5-8.5,57.9-13.9,76.8c-4.9,17.3-11.5,37.2-27.5,54.2c-18.7,19.9-45.6,30.8-82.2,33.4
	c-34.3,2.4-103.1,5.9-137.2,7.1l-1.1,0c-17.4,0.6-35.3,1.3-58.5,28.5c-12.6,14.8-31.4,30.6-67.3,30.6c-8.3,0-17.4-0.8-27.6-2.7
	c-14.6-2.7-31.2-5.7-56.8,33.9c-19.1,29.7-56.4,58.5-103.8,50.8c-1.4,2.8-2.5,9.9-2.9,12.8c-0.3,2-0.6,3.9-0.9,5.5
	c-3.1,15.7-9.1,46.5-11.5,62.6c-0.6,3.7-0.5,5.9-0.4,7.1c4.7,1.6,8.4,4.6,10.8,8.9c4.8,8.8,1.8,19.4,0.8,22.3
	c-0.6,2.2-3.2,11.9-4.7,15.7c-4.7,12.5-3.2,15.7-3.2,15.7c0,0.1,0.4,0.5,2.3,1.3c57.6,25.6,207.4,82.5,226.3,89.7
	c0.3-1.9,0.4-5-0.3-10c-5.5-43.5-8.4-68.9-12.1-101.1c-1.4-12.2-2.9-25.3-4.7-40.6c-0.7-6-3.5-36.9,13.1-49.2
	c5.6-4.1,15.5-7.6,30.8-0.8c10.5,4.7,23.5,13.5,31.8,20.1c7.8,6.4,32.5,29.1,23.3,55.7c-3.7,10.6-3.7,24.6-0.2,42.8
	c1.8,9.5,6.1,27.1,8.7,32.9c2.3,5.3,4.1,7.8,10.6,12.6c5.3,4,18.3,11.6,24.3,15.2c1.1,0.1,3,0.1,4-0.7c1.5-1.2,3-5.3,2.6-13
	l-0.6-11.1c-2.2-40.9-5.4-102.7-6.5-140.8c-0.7-24.1,4.4-35.9,21.6-50.6c2.7-2.3,7.3-6.3,12.2-10.6c7.5-6.5,16-13.9,20.1-17.4
	C1337.4,570.2,1349.9,567.4,1366,567.4z M1149.4,847.6C1149.4,847.6,1149.4,847.6,1149.4,847.6S1149.4,847.6,1149.4,847.6z
	 M908.3,712.1L908.3,712.1L908.3,712.1z"/>
</svg>
