<?xml version="1.0" encoding="utf-8"?>
<!-- Generator: Adobe Illustrator 24.0.1, SVG Export Plug-In . SVG Version: 6.00 Build 0)  -->
<svg version="1.1" id="Donnington_Grand_Prix__Config"
	 xmlns="http://www.w3.org/2000/svg" xmlns:xlink="http://www.w3.org/1999/xlink" x="0px" y="0px" viewBox="0 0 1920 1080"
	 style="enable-background:new 0 0 1920 1080;" xml:space="preserve">
<style type="text/css">
	.st0{fill:#FFFFFF;}
</style>
<title>active</title>
<path class="st0" d="M1812.6,577.6c-18.4-28.6-60.7-37.4-84.3-40c-149.1-17.1-275.5-28.7-409.4-41c-39.4-3.6-80.2-7.4-121.3-11.3
	c-0.9-0.4-1.9-0.6-2.9-0.7c-85.9-7.1-111.1-15.7-112.3-38.4c-1.4-25.7,20-30.2,29.3-31l74-5.9c29.6-2.2,59.2-6.9,88.1-13.8
	c22.2-5.3,50.9-11.9,81.3-18.8c49.6-11.3,105.8-24,151.7-35.8c15.4-4,26-11,31.3-21c4.3-8,4.9-17.6,1.7-26.9
	c-9.2-27.1-33.5-28.6-45.4-25.5c-77.9,14.3-107.7,20.6-129.4,25.2c-13.1,2.8-23.4,4.9-39.7,7.9c-46.9,8.5-62.2,10.1-81.5,12.1
	c-2,0.2-4,0.4-6,0.6c-54.9,5.8-146.9,15.5-239.4,19.7c-23.2,1.1-37.5,5.9-45,15.1c-5.1,6.2-6.9,14.2-5.3,23.7
	c2.5,15.7-1.8,21-4.8,21.7c0.3-0.1,0.5-0.1,0.5-0.1l0.2,1.5c-0.9-0.3-1.8-0.4-2.8-0.4c-70.9-0.4-148.9-1.3-231.4-2.3
	c-169.8-2-345.4-4-461.3-1.3c-55.7,1.3-89.3,24-107.7,42.7c-14.6,15-21.3,25.1-28.6,36.7c-5.5,8.8-13.8,22.2-18.6,38.4
	c-2.5,8.6-10.2,34.8,2.4,52.6c26.2,36.8,56,80.2,84.9,122.3c41,59.6,83.3,121.3,114.4,162.7c11.7,15.6,28.1,26,47.5,29.9
	c16.6,3.4,32,1.2,40.8-1.9c31.6-11.1,61.1-28.4,88-51.5c39.9-34.4,80.1-42.4,110.7-45.6c28.4-3,90.2-3.4,116.5-2.3
	c29.1,1.2,55,4.6,71.9,7c10.7,1.5,32.6,5.9,43.4,8.7c17,4.4,23,9.3,28.7,14c44.1,36.3,122.8,103.9,164.6,140.2
	c17.1,14.9,33.8,22.7,51.2,23.8c1.5,0.1,3,0.1,4.4,0.1c12.5,0,23.4-3.5,33.4-7.4c36.7-14.3,73.7-30.6,109.8-48.3
	c14.7-7.2,28.6-15.4,40.8-22.6c16.4-9.6,30.6-18,42.6-21.9c24.6-7.9,51.1-10.3,76.7-6.7c7.7,1.1,16.1,2.9,25.9,5
	c15.4,3.3,34.6,7.4,58,9.9c43.5,4.5,68.4,1.9,86.9-1.3c8.4-1.4,37.1-6.5,51.1-11c27.6-8.8,44.5-17.6,58-24.7l1.6-0.9
	c14-7.3,35.1-20.2,46.1-28.9c15.1-12,33.2-32,43.7-45.5c58.3-74.7,68.2-95.4,79.9-131.7C1824.2,611.7,1822.6,593.1,1812.6,577.6z
	 M1798.3,626.8c-10.1,31.5-17.6,49.9-76.6,125.5c-8.2,10.5-25.7,30.4-40.4,42.2c-9.9,7.9-29.9,20.1-42.8,26.8l-1.7,0.9
	c-13.5,7.1-28.9,15.1-54.8,23.4c-10.2,3.3-31.7,7.5-48.4,10.3c-18,3.1-40.4,5.4-81.4,1.1c-22.3-2.3-40.2-6.2-55.9-9.5
	c-10.1-2.2-18.9-4.1-27.3-5.2c-28.6-4-58.2-1.4-85.7,7.5c-14.1,4.6-29.1,13.5-46.6,23.7c-12.5,7.3-25.4,14.9-39.5,21.8
	c-35.6,17.5-72,33.5-108.2,47.7c-14.8,5.8-37.1,14.4-68.6-13c-41.9-36.4-120.8-104.1-165-140.6c-8.3-6.8-16.7-12.9-36.5-18
	c-11.5-3-34.1-7.5-45.5-9.1c-17.4-2.5-43.9-5.9-73.9-7.2c-27.5-1.2-89.7-0.7-119.4,2.4c-30.8,3.2-77,11.9-121.6,50.4
	c-24.9,21.5-52.3,37.5-81.5,47.8c-10.2,3.6-44.3,7.4-65.7-21.1c-30.8-41.1-73.1-102.6-113.9-162c-28.9-42.1-58.8-85.7-85.1-122.5
	c-4.6-6.5-4.4-18.4,0.6-35.4c4-13.5,11.1-25,16.4-33.4c6.8-10.9,12.7-19.7,25.9-33.3c15.8-16.1,44.8-35.5,93.8-36.7
	c115.6-2.7,291-0.7,460.6,1.3c82.6,1,160.6,1.9,231.5,2.3c0,0,0,0,0.1,0c1.8,0,3.5-0.5,5-1.4l0,0.1c1.6-0.2,9.7-1.5,16-9.9
	c6.2-8.2,8.1-19.9,5.7-34.8c-0.8-4.9,0.2-6.8,1.1-7.9c2-2.5,8.6-6.8,30.4-7.8c93.1-4.2,185.4-14,240.6-19.8c2.1-0.2,4-0.4,6-0.6
	c19-2,35.3-3.7,83-12.3c16.6-3,27-5.2,40.2-8c21.7-4.6,51.4-10.8,129.3-25.2l0.7-0.2c0,0,4.6-1.1,9.6,0.1c5.8,1.4,9.8,5.5,12.2,12.5
	c1,2.9,1.7,7.1-0.4,11c-2.6,4.8-9,8.6-18.7,11.1c-45.6,11.7-101.7,24.4-151.1,35.6c-30.5,6.9-59.3,13.5-81.6,18.8
	c-27.8,6.7-56.4,11.2-84.9,13.3l-74.1,5.9c-23.2,1.9-49.7,16.6-47.7,52c1.1,20.2,13.1,34,36.5,42.4c20.3,7.2,49.9,11.1,87.9,14.3
	c0.8,0.3,1.6,0.5,2.5,0.6c43.4,4.1,86.3,8,127.8,11.9c133.7,12.3,260,23.9,408.9,41c16.1,1.8,55.3,8.6,69.7,31
	C1802.5,598.8,1803.3,611.3,1798.3,626.8z"/>
</svg>
