<?xml version="1.0" encoding="utf-8"?>
<!-- Generator: Adobe Illustrator 24.0.1, SVG Export Plug-In . SVG Version: 6.00 Build 0)  -->
<svg version="1.1" id="Donnington_National__Config"
	 xmlns="http://www.w3.org/2000/svg" xmlns:xlink="http://www.w3.org/1999/xlink" x="0px" y="0px" viewBox="0 0 1920 1080"
	 style="enable-background:new 0 0 1920 1080;" xml:space="preserve">
<style type="text/css">
	.st0{fill:#FFFFFF;}
</style>
<title>active</title>
<path class="st0" d="M1812.6,577.6c-18.4-28.6-60.7-37.3-84.3-40c-79.6-9.1-179-18.6-284.2-28.6c-152.8-14.5-310.8-29.5-414.2-44.3
	c-58.8-8.4-61.2-29.4-63.2-46.4c-1.2-10.1-6.7-17.6-15.6-21.1c-6.4-2.6-13.2-2.5-17.3-2.5l-0.7,0c-71.4-0.4-149-1.3-231.2-2.3
	c-166.2-2-338-4-453.6-1.3c-55.7,1.3-89.3,24-107.7,42.7c-14.6,15-21.3,25.1-28.6,36.7c-5.5,8.8-13.8,22.2-18.6,38.4
	c-2.5,8.6-10.2,34.8,2.4,52.6c26.2,36.9,56.2,80.5,85.2,122.7c40.9,59.5,83.1,121,114.1,162.3c11.7,15.6,28.2,26,47.5,29.9
	c16.6,3.4,32,1.2,40.8-1.9c31.6-11.1,61.1-28.4,88-51.5c39.9-34.4,80.1-42.4,110.7-45.6c28.4-3,90.2-3.4,116.5-2.3
	c29.1,1.2,55,4.6,71.9,7c10.7,1.5,32.6,5.9,43.4,8.7c17,4.4,23,9.3,28.7,14c43.1,35.6,122.2,103.4,164.6,140.2
	c17.1,14.9,33.8,22.7,51.2,23.8c1.5,0.1,3,0.1,4.4,0.1c12.5,0,23.4-3.5,33.4-7.4c36.7-14.3,73.7-30.6,109.8-48.3
	c14.7-7.2,28.6-15.4,40.8-22.6c16.4-9.6,30.6-18,42.6-21.9c24.6-7.9,51.1-10.3,76.7-6.7c7.7,1.1,16.1,2.9,25.9,5
	c15.4,3.3,34.6,7.4,58,9.9c43.5,4.5,68.4,1.9,86.9-1.3c8.4-1.4,37.1-6.5,51.1-11c27.6-8.8,44.4-17.6,58-24.7l1.7-0.9
	c14-7.3,35.1-20.2,46.1-28.9c15.1-12,33.2-32,43.7-45.5c58.3-74.7,68.2-95.4,79.9-131.7C1824.2,611.6,1822.6,593,1812.6,577.6z
	 M1798.3,626.8c-10.1,31.5-17.6,49.9-76.6,125.5c-8.2,10.5-25.7,30.4-40.4,42.2c-9.9,7.9-29.9,20.1-42.8,26.8l-1.7,0.9
	c-13.5,7.1-28.9,15.1-54.8,23.4c-10.2,3.3-31.7,7.5-48.4,10.3c-18,3.1-40.4,5.4-81.4,1.1c-22.3-2.3-40.2-6.2-55.9-9.5
	c-10.1-2.2-18.9-4.1-27.3-5.2c-28.6-4-58.2-1.4-85.7,7.5c-14.1,4.6-29.1,13.5-46.6,23.7c-12.5,7.3-25.4,14.9-39.5,21.8
	c-35.6,17.5-72,33.5-108.2,47.7c-14.8,5.8-37.1,14.4-68.6-13.1c-42.4-36.9-121.7-104.8-165-140.5c-8.3-6.8-16.7-12.9-36.5-18
	c-11.5-3-34.1-7.5-45.5-9.1c-17.4-2.5-43.9-5.9-73.9-7.2c-8.9-0.4-21.3-0.6-35.2-0.6c-29.1,0-64.1,0.9-84.2,3
	c-30.8,3.2-77,11.9-121.6,50.4c-24.9,21.5-52.3,37.5-81.5,47.8c-10.2,3.6-44.3,7.4-65.7-21.1l0,0c-30.7-41-72.9-102.3-113.6-161.6
	c-29-42.3-59-85.9-85.4-122.9c-4.6-6.5-4.4-18.4,0.6-35.4c4-13.5,11.1-25,16.4-33.4c6.8-10.9,12.7-19.7,25.9-33.3
	c15.8-16.1,44.8-35.5,93.8-36.7c115.2-2.7,286.8-0.7,452.9,1.3c82.2,1,159.8,1.9,231.3,2.3l0.8,0c0.1,0,0.2,0,0.3,0
	c11.5,0,12.3,2.2,12.7,6c3,25.8,11.9,54.1,80.2,63.9c103.8,14.8,262.1,29.9,415.1,44.4c105.1,10,204.4,19.4,283.8,28.5
	c16.1,1.8,55.3,8.6,69.7,31C1802.5,598.7,1803.3,611.3,1798.3,626.8z"/>
</svg>
