<svg id="Open_Dogleg_-_Config" data-name="Open Dogleg - Config" xmlns="http://www.w3.org/2000/svg" viewBox="0 0 1920 1080"><defs><style>.cls-1{fill:#fff;}</style></defs><title>active</title><path class="cls-1" d="M1768.16,518.49c-37.1-118.1-163.23-217.07-171.26-223.28-11-8.88-209.14-169.32-301.46-215.88C1185,21.66,1054.77,41.9,1049.28,42.79L895.45,71.2l-403,67c-1.79.27-13.4,2-29.5,4.92l-.19,0C401.44,155,345,177.86,295.15,211.24c-51.12,34.2-77.27,67.36-86.14,80l-.25.37C159,366.36,138.43,437.42,130,483.88c-9.25,50.92-6.53,84.26-6.41,85.66l0,.3c7.5,73.7,28.73,140,63.1,197.08,25.79,42.82,59.57,80.81,97.68,109.84a289.46,289.46,0,0,0,64.95,37.13C466,962.08,598.45,960.42,608,960.22c18.47.2,727,7.79,787.82,7.84q15.32.8,30.17.8c58.47,0,111.34-9.3,157.48-27.74a309.61,309.61,0,0,0,93.27-57.73c18.34-16.43,54.89-65.2,80.4-132.22C1778.72,694.39,1798.17,608,1768.16,518.49Zm-48.44,218.45c-23.66,62.15-57.19,105.44-69.71,116.66-61.47,55.06-146.47,80.12-252.64,74.48l-1.06,0c-57.34,0-780.93-7.76-788.24-7.84h-.66c-1.31,0-132.21,2.36-242.8-43.31a249.83,249.83,0,0,1-56-32c-47.27-36-129-120.12-145.2-278.92-.15-2.11-2.08-31.91,6.2-76.56,7.85-42.33,26.77-107.1,72.28-175.45,26.52-37.74,104.28-107.7,228.34-131.53,16.34-3,28.07-4.67,28.19-4.69l.21,0,403.53-67.14,153.66-28.38c5.33-.8,124.49-18,221.21,32.6l.26.14c89,44.84,292.52,209.77,294.57,211.43l.41.33c1.23.95,124.14,96.57,157.76,203.89l.13.4C1756.51,609.34,1739,686.23,1719.72,736.94Z"/></svg>