<?xml version="1.0" encoding="utf-8"?>
<!-- Generator: Adobe Illustrator 24.0.1, SVG Export Plug-In . SVG Version: 6.00 Build 0)  -->
<svg version="1.1" id="Gateway_Oval_-_Config" xmlns="http://www.w3.org/2000/svg" xmlns:xlink="http://www.w3.org/1999/xlink"
	 x="0px" y="0px" viewBox="0 0 1920 1080" style="enable-background:new 0 0 1920 1080;" xml:space="preserve">
<style type="text/css">
	.st0{fill:#FFFFFF;}
</style>
<title>active</title>
<path class="st0" d="M1545,843.8c-260.6,0-389.9-0.8-503.9-1.5c-148.8-0.9-277.2-1.7-642.8-0.6l0,0c-46.6,0.1-90-9.2-129-27.7
	c-34.4-16.4-65.4-39.8-92-69.8c-66.1-74.3-94.1-177.5-86.9-237c6.6-55,22.6-103.2,47.5-143.3c21.8-35.2,50.5-64.1,85.1-86
	c54.8-34.6,125.3-50.9,188.6-43.6c272.1,31.4,496.1,56,676.1,75.9c305.5,33.6,473.8,52.2,515.3,63.7c35.8,10,67.2,24.9,93.6,44.5
	c23.1,17.2,42.4,38,57.3,61.8c33.3,53.3,34.9,104.7,34,124.3c-4.4,99.9-52.8,157-92.7,187.2C1652.5,824.4,1596.3,843.8,1545,843.8z
	 M398.3,831.7L398.3,831.7L398.3,831.7z M710.1,821.2c147.8,0,235.2,0.5,331.1,1.1c114,0.7,243.2,1.5,503.8,1.5
	c36.3,0,91.7-12.6,138.2-47.8c52.3-39.7,81.6-99.2,84.8-172.2c0.8-17.8-0.7-64.3-31-112.8c-29.6-47.3-76.4-80.2-139.3-97.7
	c-39.9-11.1-217.7-30.7-512.2-63.1c-180-19.8-404.1-44.5-676.2-75.9c-91.5-10.6-271.8,29.2-299,255.4c-3.3,27.4,2,64.7,14.4,102.5
	c10.3,31.1,30.4,77,67.5,118.8c52.8,59.4,123.7,90.8,205,90.8c0.3,0,0.7,0,1,0l0,0C528.4,821.3,628.5,821.2,710.1,821.2z"/>
</svg>
