<?xml version="1.0" encoding="utf-8"?>
<!-- Generator: Adobe Illustrator 24.0.1, SVG Export Plug-In . SVG Version: 6.00 Build 0)  -->
<svg version="1.1" id="Gateway_Road_-_Config" xmlns="http://www.w3.org/2000/svg" xmlns:xlink="http://www.w3.org/1999/xlink"
	 x="0px" y="0px" viewBox="0 0 1920 1080" style="enable-background:new 0 0 1920 1080;" xml:space="preserve">
<style type="text/css">
	.st0{fill:#FFFFFF;}
</style>
<title>active</title>
<path class="st0" d="M1338.5,844.3c-3.9,0-7.7,0-11.5-0.1c-3,0-6-0.1-9-0.1c-213.5-1.1-348.5-1.2-479.1-1.3
	c-129.2-0.1-251.3-0.1-440.7-1.2c-46.9-0.3-90.6-10-129.8-28.9c-34.6-16.7-65.6-40.5-92.3-70.7c-39-44.2-60-92.3-70.7-124.8
	c-13.2-40-18.7-80.1-15.1-110.1c6.6-55,23-103.2,48.5-143.5c22.4-35.1,51.7-64.2,87.3-86.3c82.6-51.3,167.5-47.9,191.6-45.6l0,0
	c14.1,1.3,28.2,2.5,43.1,3.8c73.9,6.3,157.7,13.5,275.4,38.5c28.1,6,50.4,21.1,64.3,43.6c15.6,25.2,17.9,54.9,13.2,73.2
	c-8.3,32.6-29.1,55.7-60,66.9c-27.5,9.9-56,8.1-70.5,6.2c-87.9-11.8-209.6-26.6-352-43c-23.3-2.7-42.7,3-57.5,16.8
	c-21.1,19.7-27,50.1-26.6,58.4c2.3,50.8,19,92.1,49.7,122.7c29.9,29.8,63.2,39.7,76.2,42.6c67.7,15.1,126.4-3.8,174.4-56.4
	C578,572.1,612.6,556,653.4,556c0.5,0,1,0,1.5,0c65.8,0.6,259.4-0.1,261.3-0.1c45.9-0.4,77.8-9.9,104.8-57.3
	c28.3-49.7,75.6-70.9,140.8-63.1c54.8,6.5,82.3,8.1,108.8,9.6c46.2,2.6,86.1,4.9,251.6,32.1c34.6,5.7,64.1,22.2,85.3,47.7
	c17.3,20.8,28.6,47.1,31.8,73.8c4.1,34.4-3.3,65.9-22.2,93.6c-14.9,21.9-33,35.1-39.9,40.1l-0.9,0.7c-14,10.3-34.6,23.3-54.5,35.9
	c-12.7,8-24.8,15.6-33.5,21.6C1415.1,840,1374.8,844.3,1338.5,844.3z M392.3,250.8c-98.3,0-257.1,52.3-282,258.9
	c-6.5,54.4,19.6,149.7,81,219.2c53.1,60.3,124.8,92.4,207.2,92.8c189.3,1,311.3,1.1,440.6,1.2c130.6,0.1,265.6,0.1,479.1,1.3
	c3.1,0,6.1,0.1,9.2,0.1c38,0.5,74,1,149.8-50.4c9-6.1,21.2-13.8,34.1-21.9c18.7-11.8,39.9-25.2,53.3-35.1l1-0.7
	c41.4-30.2,59.5-69,54-115.1c-5-41.3-34.2-93.3-100.4-104.2c-164.5-27.1-203.9-29.3-249.5-31.9c-26.9-1.5-54.7-3.1-110.1-9.7
	c-57.2-6.8-96.8,10.6-121,53.2c-31.5,55.4-71.6,67-122.1,67.4c-2,0-195.6,0.7-261.6,0.1c-0.4,0-0.8,0-1.2,0c-34.9,0-64.7,14-91,42.8
	c-27.5,30.1-58.9,50.5-93.3,60.6c-31.2,9.1-65,9.7-100.2,1.9c-14.6-3.3-52.3-14.5-85.9-48c-34.4-34.2-53.1-80-55.6-135.9
	c-0.6-13,6.9-49.6,32.9-73.9c19.3-18,44-25.4,73.4-22.1c142.5,16.4,264.4,31.2,352.4,43c21.2,2.9,91.8,7.1,108.4-58.2
	c3.5-13.8,1.6-37.7-10.8-57.7c-11.2-18-28.5-29.6-51.5-34.5c-116.4-24.8-199.6-31.9-272.9-38.2c-15-1.3-29.1-2.5-43.3-3.8h0
	C408.6,251.2,400.7,250.8,392.3,250.8z"/>
</svg>
