<?xml version="1.0" encoding="utf-8"?>
<!-- Generator: Adobe Illustrator 24.0.1, SVG Export Plug-In . SVG Version: 6.00 Build 0)  -->
<svg version="1.1" id="Grand_Prix_-_Config" xmlns="http://www.w3.org/2000/svg" xmlns:xlink="http://www.w3.org/1999/xlink"
	 x="0px" y="0px" viewBox="0 0 1920 1080" style="enable-background:new 0 0 1920 1080;" xml:space="preserve">
<style type="text/css">
	.st0{fill:#FFFFFF;}
</style>
<title>active</title>
<path class="st0" d="M1687.5,768.3c-17.3-19.3-46.5-24.7-61-24.9c-70.5-0.8-157.7-1.2-250-1.6c-114.9-0.5-233.6-1.1-324.4-2.4
	c-13.4-0.2-58.9-1-84.5-2.7c-1.4-0.1-2.9-0.2-4.4-0.2c-11.1-0.5-22.6-0.9-32.4-15.5c-11.1-16.4-38.1-41.2-94.3-23.5
	c-6.3,2-14.1,4.5-33.4-12.6c-42.1-37.2-91.6-81.3-140-125.8c-3-2.8-7.8-2.6-10.6,0.4c-2.8,3-2.6,7.8,0.4,10.6
	c48.5,44.6,98.1,88.8,140.3,126c21.2,18.8,34.5,19.9,47.8,15.6c34.8-11,62.3-4.7,77.4,17.6c14.1,20.9,32.2,21.6,44.2,22.1
	c1.4,0.1,2.7,0.1,4,0.2c26,1.8,71.9,2.6,85.3,2.8c90.8,1.3,209.6,1.9,324.5,2.4c92.3,0.4,179.5,0.9,249.9,1.6
	c11.2,0.1,36.1,4.4,50,19.9c7.6,8.5,10.9,19.5,9.6,32.5c-2.7,27.3-17.2,51.6-42,70.5c-29.8,22.7-72.3,36.2-126.3,40.3
	c-12.8,1-26.1,3.3-41.5,6.1c-25.8,4.6-55.1,9.8-92.3,10.2c-44.2,0.4-382.2,2.6-593,3.9l-63.6,1.1c-5.5,0-21.9,0-27.2-5.6
	c-0.8-0.9-1.7-2.2-1.6-5c0-0.3,0-0.7,0.1-1c0.3-4.8,0.9-14.7-6.5-20.1c-5.4-3.9-12.9-3.9-22.9,0l-4.9,2c-20.2,8-61.9,24.6-83.4,30.4
	l-15.4,1.4c-71.8,2.7-146,3-196.2-24.1C291.9,879,258,783.8,251.5,750.7c-5.8-29.5-12.5-77.4-19.5-128
	c-8.1-58.4-16.5-118.8-24.2-153.9c-0.8-3.6-4-6-7.5-5.9c-4.4-6.1-10.2-10.2-17.3-12.1c-3.5-0.9-6.6-1.5-9.3-2
	c-9.1-1.7-9.6-2.3-10.5-5.8c-0.7-2.8-1.6-6.2-2.6-10c-1.9-7.4-4.3-16.6-6.7-25.6c-0.7-2.8-6.1-24.4-9.4-32.1
	c-8.5-19.7-21.3-51.9-32.6-80.3c-5.8-14.7-11.3-28.5-15.5-38.9c-7.9-19.5-8.9-35.5-2.9-47.6c6.8-13.6,20.7-19.1,28.5-21.1
	c40.6-10.8,115.6-24.7,154.2-30.6c22.9-3.5,36.4,11.4,45.5,24.8l18.2,26.8c29.5,43.3,66.2,97.2,88,128.9c5.4,7.8,9.7,14.3,13.2,19.4
	c11.3,16.7,15.5,22.9,23.9,32c40.1,43.5,84.8,88.6,136.7,137.7c3,2.8,7.8,2.7,10.6-0.3c2.8-3,2.7-7.8-0.3-10.6
	c-51.6-48.9-96.1-93.7-136-136.9c-7.6-8.3-11.4-13.8-22.5-30.2c-3.5-5.2-7.9-11.6-13.3-19.5c-21.8-31.7-58.5-85.6-88-128.9
	L334,172.9c-6.2-9-25-36.5-60.2-31.2c-37.4,5.7-112.8,19.5-155.8,30.9c-10.2,2.7-28.6,10.1-38,28.9c-8,16.1-7.2,36.3,2.4,59.9
	c4.2,10.4,9.7,24.2,15.5,38.8c11.3,28.5,24.1,60.9,32.7,80.8c2.4,5.6,7,23.4,8.6,29.8l0,0.2c2.4,9,4.8,18.2,6.7,25.6
	c1,3.9,1.9,7.3,2.6,10.1c3.5,13.2,13.4,15.1,22.2,16.7c2.6,0.5,5.3,1,8.3,1.8c7.2,1.9,12,8.5,14.2,19.7c1.6,11.5,31,218,40.9,267.8
	c0.8,4,8.3,40.1,32.1,83c24.6,44.5,56,77.3,93.2,97.4c0.8,0.4,1.6,0.7,2.4,0.8c0,0,0,0,0.1,0c40.6,21.9,94.4,27.1,150.2,27.1
	c17.9,0,36-0.5,53.9-1.2l17.3-1.5l0.6-0.2c22.2-5.9,63.5-22.3,85.7-31.1l4.9-2c5.7-2.3,8-1.9,8.5-1.8c0.7,1.3,0.5,5.6,0.4,7
	c0,0.5-0.1,0.9-0.1,1.3c-0.3,6.3,1.7,11.8,5.8,16.1c8.6,9,24.1,10.2,38.1,10.2l63.7-1.1c210.7-1.3,548.7-3.5,592.9-3.9
	c38.5-0.3,69.8-5.9,94.8-10.4c15-2.7,27.9-5,40-5.9c56.9-4.3,102.1-18.8,134.2-43.3c28.2-21.5,44.8-49.5,47.9-81
	C1702.6,794.9,1698.1,780.1,1687.5,768.3z"/>
</svg>
