<?xml version="1.0" encoding="utf-8"?>
<!-- Generator: Adobe Illustrator 24.0.1, SVG Export Plug-In . SVG Version: 6.00 Build 0)  -->
<svg version="1.1" id="Short___Config" xmlns="http://www.w3.org/2000/svg" xmlns:xlink="http://www.w3.org/1999/xlink" x="0px"
	 y="0px" viewBox="0 0 1920 1080" style="enable-background:new 0 0 1920 1080;" xml:space="preserve">
<style type="text/css">
	.st0{fill:#FFFFFF;}
</style>
<title>active</title>
<path class="st0" d="M1760.9,344.2c-2.6-38.9-11.9-68.6-28.3-90.8c-16.1-21.8-36.7-32.9-52.9-40.1c-8-3.6-20.2-8.3-32.1-12.8
	c-10.4-4-20.1-7.7-26.7-10.6c-32.6-14.1-40.8-18.2-55.3-38.2c-12-16.5-23.9-42.4-36.6-69.7l-3.5-7.6c-16.3-35.2-58.4-49.1-92.8-47.3
	c-48.7,2.6-71.7,20.6-82.5,35.3c-11.2,15.2-14.9,34.4-10.2,52.6c7.3,28.3,33.6,36,47.8,40.1l0.6,0.2c27.2,7.9,52.4,30.5,59.3,43.1
	c8,14.5,10.1,26.4,6.1,35.3c-7,16-33.1,22.3-44.2,24.9c-5.6,1.3-12.6,3.1-20.1,4.9c-23.1,5.8-54.8,13.6-72.3,16.7
	c-52.1,9-93.6,35.8-123.2,79.5c-18.4,27.2-34.7,54.4-49.1,78.4c-14.6,24.3-27.2,45.3-39.1,61.9c-17.7,24.7-56.4,75-77.8,102.8
	c-34.9,45.3-49.9,79.2-61.9,106.5c-6.5,14.7-12.1,27.4-19.4,38.5l-0.4,0.5l-0.3,0.7c-0.7,1.4-14.4,26-70,54.5
	c-25.6,13.1-53.4,54.6-53.9,95.4l0,0.8c-0.1,7.9-0.3,21.2,4.4,33.2c6.2,16.1,19,25.1,37,26.1c262.6,14,633.2,46.3,638.9,46.8
	c7.2,0.7,14.1,1,20.9,1c36.2,0,66.7-9.6,91-28.7c21.6-16.9,38.3-41.2,51.1-74c5.5-14.1,12.6-37.3,18.9-57.8c3.6-11.8,7-23,9.7-30.9
	c11.9-35.6,22.8-76,27-100.5c4.5-26,9.1-56.7,14.3-92.3c5.1-35,11-74.7,17.9-117C1764.9,434.1,1763.5,381.7,1760.9,344.2z
	 M1733.4,502.6c-7,42.5-12.8,82.3-18,117.3c-5.2,35.4-9.7,66-14.2,91.7c-4.1,23.6-14.7,62.8-26.3,97.5c-2.8,8.2-6.2,19.5-9.9,31.4
	c-6.2,20.1-13.2,43-18.4,56.4c-15.4,39.4-44.7,90-123.4,90c-6.1,0-12.4-0.3-19.1-0.9l-0.1,0c-3.7-0.3-376-32.8-639.6-46.8
	c-19.1-1-22.7-15.7-22.4-39.1l0-0.8c0.4-32.2,23-67.7,43-77.9c59.4-30.5,75.7-57.4,78.6-63c8.1-12.4,13.9-25.6,20.7-40.9
	c11.6-26.3,26.1-59.1,59.5-102.4c21.5-27.9,60.3-78.5,78.2-103.4c12.4-17.3,25.2-38.6,40-63.3c14.3-23.8,30.5-50.8,48.6-77.5
	c26.5-39.1,63.5-63,110-71c18.2-3.2,49-10.8,73.7-17c7.4-1.8,14.4-3.6,19.9-4.9c14-3.4,46.8-11.3,57.8-36.3
	c6.6-14.9,4.2-32.8-6.9-53.1c-10.1-18.3-40.2-43.6-71.2-52.6l-0.6-0.2c-15.6-4.5-29.9-10-34-25.9c-1.5-5.9-3.8-21.1,7-35.8
	c11.8-16,35.1-25.4,67.4-27.1c26.8-1.4,61.3,9.1,73.6,35.7l3.5,7.6c13.1,28.3,25.4,54.9,38.5,73.1c18.3,25.1,31.5,30.9,63.6,44.8
	c7,3,17,6.8,27.5,10.9c11.6,4.4,23.5,9,31,12.4c30.8,13.8,64,35.1,69.4,114.1C1743.4,382,1744.8,432.8,1733.4,502.6z"/>
</svg>
