<?xml version="1.0" encoding="utf-8"?>
<!-- Generator: Adobe Illustrator 24.0.1, SVG Export Plug-In . SVG Version: 6.00 Build 0)  -->
<svg version="1.1" id="Combined_Without_Chicanes_-_Config"
	 xmlns="http://www.w3.org/2000/svg" xmlns:xlink="http://www.w3.org/1999/xlink" x="0px" y="0px" viewBox="0 0 1920 1080"
	 style="enable-background:new 0 0 1920 1080;" xml:space="preserve">
<style type="text/css">
	.st0{fill:#FFFFFF;}
</style>
<title>active</title>
<path class="st0" d="M1844,716.7c-1.1-43.7-11.4-82.8-30.6-116.4c-16.7-29-40.1-54-69.6-74.1c-66-45-140.5-51.7-161.8-52.7
	c-101.8-4.6-282.8-8.2-379.6-9.4c-32.4-0.4-76.5-1.6-123.1-2.8c-89.2-2.3-190.4-5-251.8-3.7c-64.5,1.4-122.8,19.4-168.6,52.1
	c-38.6,27.6-67.2,64.7-80.4,104.5c-15.7,47.1-18.6,93.5-8.6,138c7.5,33.5,22,65.3,43.3,94.5c30.1,41.4,74.7,68.7,136.4,83.3
	c42.5,10.1,86.1,12.5,125.6,13c-119.2,0.7-213.3,1.2-240.3,1.3c-17.1,0.1-35.6,0.8-55.2,1.6c-73.7,2.9-157.2,6.3-212.3-23.5
	c-77.3-41.8-111.2-137-117.7-170.1c-5.8-29.4-12.4-77.1-19.5-127.5c-8.2-58.6-16.6-119.2-24.3-154.4c-2.7-12.6-6.9-31.8-25-54.1
	c-6.9-8.4-14.4-16.5-22.2-24c-3.5-3.4-11.2-13.4-14-18.2c-11.1-18.8-23.5-52.8-34.3-82.8c-4.8-13.4-9.4-26-13.3-35.6
	c-7.9-19.5-8.9-35.5-2.9-47.6c6.8-13.6,20.7-19.1,28.4-21.1c40.6-10.8,115.7-24.7,154.2-30.6c22.9-3.5,36.4,11.4,45.5,24.8
	c10.2,14.9,22.5,32.9,35.3,51.8c24.9,36.6,53.2,78.1,70.9,103.9c5.4,7.8,9.7,14.3,13.2,19.4c11.3,16.7,15.5,22.9,23.9,32
	c40.1,43.5,84.8,88.6,136.7,137.7c3,2.8,7.8,2.7,10.6-0.3c2.8-3,2.7-7.8-0.3-10.6c-51.6-48.9-96.1-93.7-136-136.9
	c-7.6-8.3-11.4-13.8-22.5-30.2c-3.5-5.2-7.9-11.6-13.3-19.5c-17.7-25.8-46-67.3-70.9-103.9c-12.8-18.8-25.1-36.9-35.3-51.8
	c-6.2-9-25-36.5-60.2-31.2c-37.4,5.7-112.8,19.5-155.8,30.9c-10.2,2.7-28.6,10.1-38,28.9c-8,16.1-7.2,36.3,2.4,59.9
	c3.8,9.3,8.3,21.8,13.1,35.1c11.1,30.6,23.7,65.3,35.5,85.3c3.5,5.9,12.1,17,16.5,21.3c7.4,7.1,14.5,14.7,21,22.7
	c15.9,19.5,19.4,35.8,22,47.8c7.5,34.7,15.9,95,24.1,153.3c7.1,50.7,13.7,98.5,19.6,128.3c0.8,4,8.3,40.1,32.1,83
	c24.6,44.5,56,77.3,93.2,97.4c40.9,22.1,94.9,27.1,149.5,27.1c23.7,0,47.6-1,70.5-1.9c19.5-0.8,37.8-1.5,54.7-1.6
	c81.2-0.4,771.4-4.2,920.8-6.5c73.4-1.2,127.1-12.8,168.9-36.5c37.7-21.4,68.7-52,89.8-88.5C1834.7,793,1844.9,754.6,1844,716.7z
	 M1717.3,903.4c-39.5,22.4-90.9,33.4-161.7,34.5c-10.3,0.2-23.2,0.3-38.3,0.5c55.6-1.7,102-16,134.2-41.3
	c27.6-21.7,44.6-51.2,47.7-83c1.7-17.4-2.8-32.2-13.4-44c-17.3-19.3-46.5-24.7-61-24.9c-70.5-0.8-157.7-1.2-249.9-1.6
	c-114.9-0.5-233.7-1.1-324.5-2.4c-17.3-0.3-60-1-84.5-2.7c-1.4-0.1-2.9-0.2-4.5-0.2c-11.1-0.5-22.5-1-32.3-15.5
	c-8.8-13.1-21.5-22.3-36.6-26.6c-6.8-2-14.2-2.9-21.9-2.9c-11.1,0-23.1,2-35.9,6c-6.3,2-14.1,4.5-33.4-12.6
	c-52.8-46.8-96.8-86.1-140-125.9c-3-2.8-7.8-2.6-10.6,0.4c-2.8,3-2.6,7.8,0.4,10.6c43.3,39.9,87.4,79.3,140.3,126.1
	c21.2,18.8,34.5,19.9,47.8,15.7c34.8-11,62.3-4.7,77.4,17.6c14.1,20.8,32.1,21.6,44.1,22.1c1.4,0.1,2.8,0.1,4.1,0.2
	c24.9,1.7,67.9,2.5,85.3,2.8c90.8,1.3,209.7,1.9,324.6,2.4c92.2,0.4,179.4,0.9,249.8,1.6c11.2,0.1,36.1,4.4,50,19.9
	c7.6,8.5,10.9,19.5,9.6,32.5c-2.7,27.7-17.6,53.5-42,72.6c-29.8,23.4-73.3,36.6-125.9,38.2c-105.8,3.1-319.3,4.8-617.5,4.8
	c-72.7,0-208.1,0-273.5-90.2c-33-45.4-65.4-120.3-32.5-218.9c23.6-70.8,105.4-143.6,235-146.3c61-1.3,162,1.3,251,3.7
	c46.7,1.2,90.9,2.4,123.3,2.8c96.7,1.2,277.5,4.8,379.1,9.4c90,4.1,243.5,56.9,247.7,228.5C1830.8,790.7,1787,863.9,1717.3,903.4z"
	/>
</svg>
