<?xml version="1.0" encoding="utf-8"?>
<!-- Generator: Adobe Illustrator 24.0.1, SVG Export Plug-In . SVG Version: 6.00 Build 0)  -->
<svg version="1.1" id="Junior_-_Config" xmlns="http://www.w3.org/2000/svg" xmlns:xlink="http://www.w3.org/1999/xlink" x="0px"
	 y="0px" viewBox="0 0 1920 1080" style="enable-background:new 0 0 1920 1080;" xml:space="preserve">
<style type="text/css">
	.st0{fill:#FFFFFF;}
</style>
<title>active</title>
<path class="st0" d="M1686.2,770.1c-17.3-19.3-46.5-24.7-61-24.9c-70.6-0.8-157.9-1.2-250.3-1.6c-42.2-0.2-85.8-0.4-127.8-0.7
	l-130.8-1c-1.1,0-26.8,0.1-54.7,3.5c-40,5-62.7,14.2-69.4,28.2c-6,12.4-5,23.7-4.2,34.6c0.9,11.1,1.7,21.5-4.2,34.2
	c-6.2,13.3-25.4,28.1-36.9,37c-7.6,5.9-10.7,8.4-12.4,11c-5.3,8.5-6.5,17.8-3.5,26.7c6,18.1,27.4,30.1,35.1,33.2
	c10.1,4.1,42.1,6.9,45.7,7.2l0.4,0l248.5-3.9c118.7-3.3,214.1-11,262.5-15.6c53.1-2.5,97.5-16.7,128.7-41.1
	c27.6-21.7,44.6-51.2,47.7-83C1701.3,796.7,1696.8,781.9,1686.2,770.1z M1684.7,812.6c-2.7,27.7-17.6,53.5-42,72.6
	c-21.9,17.2-51.2,28.9-86.1,34.5c-0.1,0-0.3,0-0.4,0c-0.4,0-12.4,1.4-33.9,3.4c-1.8,0.1-3.6,0.2-5.5,0.2c-0.9,0-1.8,0.2-2.6,0.5
	c-50.1,4.6-141.4,11.6-253.7,14.8l-247.6,3.9c-12.9-1.1-35.1-3.7-41-6.1c-6.7-2.7-22.7-12.5-26.5-24c-1.5-4.6-0.9-9.2,1.9-13.8
	c1.1-1.2,5.4-4.5,8.9-7.2c13.4-10.3,33.6-25.9,41.3-42.5c7.6-16.3,6.5-29.8,5.5-41.8c-0.8-9.7-1.5-18.1,2.7-26.9
	c1.5-3.1,10.1-13.9,57.6-19.8c26.9-3.4,52.7-3.4,52.9-3.4l130.7,1c42.1,0.2,85.7,0.5,127.9,0.7c92.4,0.4,179.7,0.9,250.2,1.6
	c11.2,0.1,36.1,4.4,50,19.9C1682.7,788.6,1685.9,799.6,1684.7,812.6z"/>
</svg>
