<?xml version="1.0" encoding="utf-8"?>
<!-- Generator: Adobe Illustrator 24.0.1, SVG Export Plug-In . SVG Version: 6.00 Build 0)  -->
<svg version="1.1" id="Grand_Prix_without_chicanes_-_Config"
	 xmlns="http://www.w3.org/2000/svg" xmlns:xlink="http://www.w3.org/1999/xlink" x="0px" y="0px" viewBox="0 0 1920 1080"
	 style="enable-background:new 0 0 1920 1080;" xml:space="preserve">
<style type="text/css">
	.st0{fill:#FFFFFF;}
</style>
<title>active</title>
<path class="st0" d="M1685,769.7c-17.3-19.3-46.5-24.7-61-24.9c-70.5-0.8-157.7-1.2-250-1.6c-114.9-0.5-233.7-1.1-324.4-2.4
	c-13.3-0.2-58.9-1-84.5-2.7c-1.4-0.1-2.9-0.2-4.5-0.2c-11.1-0.5-22.5-1-32.3-15.5c-8.8-13.1-21.5-22.3-36.6-26.6
	c-16.7-4.8-36.1-3.7-57.8,3.1c-6.3,2-14.1,4.5-33.4-12.6c-45.2-40.1-93.5-83-140-125.9c-3-2.8-7.8-2.6-10.6,0.4
	c-2.8,3-2.6,7.8,0.4,10.6c46.6,42.9,95,85.9,140.3,126c21.2,18.8,34.5,19.9,47.8,15.7c34.8-11,62.3-4.7,77.4,17.6
	c14.1,20.8,32.1,21.6,44.1,22.1c1.4,0.1,2.8,0.1,4.1,0.2c26,1.8,71.9,2.6,85.3,2.8c90.8,1.3,209.7,1.9,324.6,2.4
	c92.3,0.4,179.4,0.9,249.9,1.6c11.2,0.1,36.1,4.4,50,19.9c7.7,8.5,10.9,19.5,9.6,32.5c-2.7,27.3-17.2,51.6-42,70.5
	c-29.8,22.7-72.3,36.2-126.2,40.3c-12.8,1-26.1,3.3-41.5,6.1c-25.8,4.6-55.1,9.8-92.3,10.1c-57.8,0.5-674.5,4.5-747.2,4.8
	c-17.1,0.1-35.6,0.8-55.2,1.6c-73.7,2.9-157.2,6.3-212.3-23.5c-77.4-41.8-111.2-137-117.7-170.1c-5.8-29.4-12.4-76.9-19.4-127.3
	c-8.2-58.7-16.7-119.4-24.3-154.7c-2.7-12.6-6.9-31.8-25-54.1c-6.8-8.4-14.3-16.4-22.1-23.9c-5.3-5.7-10-11.8-14.2-18.4
	c-11.1-18.8-23.4-52.7-34.3-82.6c-4.9-13.4-9.4-26.1-13.4-35.7c-7.9-19.5-8.9-35.6-2.9-47.6c6.8-13.6,20.7-19.1,28.4-21.1
	c40.7-10.8,115.7-24.7,154.2-30.6c22.9-3.5,36.4,11.4,45.5,24.8l17.2,25.2c29.8,43.8,67,98.3,89.1,130.5c5.4,7.9,9.8,14.4,13.3,19.6
	c11.2,16.6,15.4,22.8,23.8,31.8c40.1,43.6,84.8,88.6,136.7,137.7c3,2.8,7.8,2.7,10.6-0.3c2.8-3,2.7-7.8-0.3-10.6
	C560.4,466,515.9,421.3,476,378c-7.6-8.3-11.3-13.8-22.4-30.1c-3.5-5.2-7.9-11.7-13.4-19.6c-22.1-32.1-59.2-86.6-89-130.4L334,172.5
	c-6.2-9-25-36.5-60.2-31.2c-38.8,5.9-114.6,19.9-155.8,30.9c-10.2,2.7-28.6,10.1-38,28.9c-8,16.1-7.2,36.3,2.4,59.9
	c3.8,9.3,8.3,21.9,13.1,35.1c11.1,30.6,23.7,65.3,35.5,85.3l0.1,0.2c4.7,7.4,10.1,14.4,16.1,20.8l0.3,0.3c7.4,7.1,14.5,14.7,21,22.7
	c15.9,19.5,19.4,35.8,22,47.8c7.6,34.7,16,95.2,24.1,153.6c7.1,50.5,13.7,98.3,19.6,128.1c0.8,4,8.3,40.1,32.1,83
	c24.6,44.5,56,77.3,93.2,97.4c40.9,22.1,94.9,27.1,149.5,27.1c23.7,0,47.6-1,70.5-1.9c19.5-0.8,37.8-1.5,54.7-1.6
	c72.6-0.3,689.4-4.3,747.2-4.8c38.5-0.3,69.7-5.9,94.8-10.4c15-2.7,27.9-5,40-5.9c56.9-4.3,102-18.8,134.2-43.3
	c28.2-21.5,44.8-49.5,47.9-81C1700.1,796.3,1695.6,781.5,1685,769.7z"/>
</svg>
