<?xml version="1.0" encoding="utf-8"?>
<!-- Generator: Adobe Illustrator 24.0.1, SVG Export Plug-In . SVG Version: 6.00 Build 0)  -->
<svg version="1.1" id="Grand_Prix_without_1st_chicane_-_Config"
	 xmlns="http://www.w3.org/2000/svg" xmlns:xlink="http://www.w3.org/1999/xlink" x="0px" y="0px" viewBox="0 0 1920 1080"
	 style="enable-background:new 0 0 1920 1080;" xml:space="preserve">
<style type="text/css">
	.st0{fill:#FFFFFF;}
</style>
<title>active</title>
<path class="st0" d="M1685,770.1c-17.3-19.3-46.5-24.7-61-24.9c-70.5-0.8-157.7-1.2-249.9-1.6c-114.9-0.5-233.7-1.1-324.5-2.4
	c-17.3-0.3-60-1-84.5-2.7c-1.4-0.1-2.9-0.2-4.5-0.2c-11.1-0.5-22.5-1-32.3-15.5c-8.8-13.1-21.5-22.3-36.6-26.6
	c-16.7-4.8-36.1-3.7-57.8,3.1c-6.3,2-14.1,4.5-33.4-12.6c-45.6-40.4-94.1-83.6-140.1-125.9c-3-2.8-7.8-2.6-10.6,0.4
	c-2.8,3-2.6,7.8,0.4,10.6c46.1,42.4,94.6,85.7,140.3,126.1c21.2,18.8,34.5,19.9,47.8,15.7c34.8-11,62.3-4.7,77.4,17.6
	c14.1,20.8,32.1,21.6,44.1,22.1c1.4,0.1,2.8,0.1,4.1,0.2c24.8,1.7,67.9,2.5,85.3,2.8c90.8,1.3,209.7,1.9,324.6,2.4
	c92.2,0.4,179.4,0.9,249.8,1.6c11.2,0.1,36.1,4.4,50,19.9c7.6,8.5,10.9,19.5,9.6,32.5c-2.7,27.3-17.2,51.6-42,70.5
	c-29.8,22.7-72.3,36.2-126.2,40.3c-12.8,1-26.1,3.3-41.5,6.1c-25.8,4.6-55.1,9.8-92.3,10.1c-60.8,0.5-678.7,4.5-747.2,4.8
	c-17.2,0.1-35.9,0.8-55.6,1.6c-72,2.8-153.3,6-208.3-21.7c-0.6-1.8-1.8-3.5-3.6-4.4C289.4,878.1,255.5,783,249,749.8
	c-2.8-14.1-7.3-41.6-12.2-73.8c-2.3-16.2-4.7-33.3-7.2-50.8c-6.6-47.3-13.4-96-19.8-131.5c-1-6.8-1.5-10.8-1.6-11.1l-0.1-0.4
	c-0.5-2.7-1.2-5.2-2-7.6c-0.3-1.4-0.6-2.8-0.9-4.1c-0.4-1.9-1.5-3.4-2.9-4.5c-4.5-7.9-11-13.1-19.3-15.3c-3.5-0.9-6.6-1.5-9.3-2
	c-9.1-1.7-9.6-2.3-10.5-5.8c-0.7-2.8-1.6-6.2-2.6-10c-1.9-7.4-4.3-16.6-6.7-25.6c-0.7-2.8-6.1-24.4-9.4-32.1
	c-8.5-19.7-21.3-51.9-32.6-80.3c-5.8-14.7-11.3-28.5-15.5-38.9c-7.9-19.5-8.9-35.5-2.9-47.6c6.8-13.6,20.7-19.1,28.5-21.1
	c40.6-10.8,115.6-24.7,154.2-30.6c22.9-3.5,36.4,11.4,45.5,24.8l18.2,26.8c29.5,43.3,66.2,97.2,88,128.9c5.4,7.8,9.7,14.3,13.2,19.4
	c11.3,16.7,15.5,22.9,23.9,32c40.1,43.5,84.8,88.6,136.7,137.7c3,2.8,7.8,2.7,10.6-0.3c2.8-3,2.7-7.8-0.3-10.6
	c-51.6-48.9-96.1-93.7-136-136.9c-7.6-8.3-11.4-13.8-22.5-30.2c-3.5-5.2-7.9-11.6-13.3-19.5c-21.8-31.7-58.5-85.6-88-128.9
	L334,172.9c-6.2-9-25-36.5-60.2-31.2c-37.4,5.7-112.8,19.5-155.8,30.9c-10.2,2.7-28.6,10.1-38,28.9c-8,16.1-7.2,36.3,2.4,59.9
	c4.2,10.4,9.7,24.2,15.5,38.8c11.3,28.5,24.1,60.9,32.7,80.8c2.4,5.6,7,23.4,8.6,29.8l0,0.2c2.4,9,4.8,18.2,6.7,25.6
	c1,3.9,1.9,7.3,2.6,10.1c3.5,13.2,13.4,15.1,22.2,16.7c2.6,0.5,5.3,1,8.3,1.8c5.7,1.5,9.8,6,12.5,13.2c1.1,5.4,2.2,11.2,3.4,17.6
	c4.4,30.8,16.8,117,27.1,183.3c4.3,30.1,8.4,56.7,12.2,75.9c0.8,4,8.3,40.1,32.1,83c24.6,44.5,56,77.3,93.2,97.4
	c40.9,22.1,95,27.2,149.6,27.2c23.6,0,47.3-0.9,70-1.8c19.6-0.8,38.1-1.5,55.1-1.6c68.5-0.3,686.5-4.3,747.2-4.8
	c38.5-0.3,69.7-5.9,94.8-10.4c15-2.7,27.9-5,40-5.9c56.9-4.3,102.1-18.8,134.2-43.3c28.2-21.5,44.8-49.5,47.9-81
	C1700.1,796.7,1695.6,781.9,1685,770.1z"/>
</svg>
