<?xml version="1.0" encoding="utf-8"?>
<!-- Generator: Adobe Illustrator 24.0.1, SVG Export Plug-In . SVG Version: 6.00 Build 0)  -->
<svg version="1.1" id="Oval_Left_-_Config" xmlns="http://www.w3.org/2000/svg" xmlns:xlink="http://www.w3.org/1999/xlink" x="0px"
	 y="0px" viewBox="0 0 1920 1080" style="enable-background:new 0 0 1920 1080;" xml:space="preserve">
<style type="text/css">
	.st0{fill:#FFFFFF;}
</style>
<title>active</title>
<path class="st0" d="M1844.2,716c-1.1-43.7-11.4-82.8-30.6-116.4c-16.7-29-40.1-54-69.6-74.1c-66-45-140.5-51.7-161.8-52.7
	c-101.6-4.6-282.6-8.2-379.6-9.4c-32.4-0.4-76.6-1.6-123.4-2.8c-89.2-2.3-190.2-5-251.5-3.7c-64.5,1.4-122.8,19.4-168.5,52.1
	c-38.6,27.6-67.2,64.7-80.4,104.5c-15.7,47.1-18.6,93.5-8.6,138c7.5,33.5,22,65.3,43.3,94.5c29.7,41,75.6,69.5,136.3,84.8
	c51.2,12.9,104.1,14.6,149.1,14.6l154.1,7.3l0.2,0l499.9-1.2c0.9,0.4,1.9,0.6,3,0.6c73.4-1.2,127.1-12.8,168.9-36.5
	c37.7-21.4,68.7-52,89.8-88.4C1834.9,792.4,1845.1,753.9,1844.2,716z M1717.5,902.7c-35.7,20.2-81,31.1-141.5,33.9
	c-0.2,0-0.4,0-0.5,0l-522,1.2l-154.1-7.3l-0.4,0c-95.9,0-213.6-10.6-273.5-93.2c-33-45.4-65.4-120.3-32.5-219
	c23.6-70.8,105.4-143.6,235-146.3c11.1-0.2,23.5-0.3,37-0.3c60.4,0,141.1,2.1,213.9,4c46.8,1.2,91,2.4,123.6,2.8
	c96.8,1.2,277.7,4.8,379.1,9.4c90,4.1,243.5,56.9,247.7,228.5C1831,790.1,1787.1,863.2,1717.5,902.7z"/>
</svg>
