<?xml version="1.0" encoding="utf-8"?>
<!-- Generator: Adobe Illustrator 24.0.1, SVG Export Plug-In . SVG Version: 6.00 Build 0)  -->
<svg version="1.1" id="Combined_Without_1st_Chicane_-_Config"
	 xmlns="http://www.w3.org/2000/svg" xmlns:xlink="http://www.w3.org/1999/xlink" x="0px" y="0px" viewBox="0 0 1920 1080"
	 style="enable-background:new 0 0 1920 1080;" xml:space="preserve">
<style type="text/css">
	.st0{fill:#FFFFFF;}
</style>
<title>active</title>
<path class="st0" d="M1844.3,716.6c-1.1-43.7-11.4-82.8-30.6-116.4c-16.7-29-40.1-54-69.6-74.1c-66-45-140.5-51.7-161.8-52.6
	c-101.8-4.6-282.8-8.2-379.6-9.4c-32.4-0.4-76.5-1.6-123.2-2.8c-89.2-2.3-190.3-5-251.7-3.7c-64.5,1.4-122.8,19.4-168.5,52.1
	c-38.6,27.6-67.2,64.7-80.4,104.5c-15.7,47.1-18.6,93.5-8.6,138c7.5,33.5,22,65.3,43.3,94.5c30.1,41.4,74.7,68.7,136.4,83.3
	c43.8,10.4,88.8,12.6,129.4,13c-120.1,0.7-215.6,1.2-244,1.4c-17.2,0.1-35.7,0.8-55.3,1.6c-73.7,3-157.2,6.3-212.2-23.5
	c-77.3-41.8-111.2-137-117.7-170.1c-9.8-49.8-40.5-265.1-40.8-267.2l-0.1-0.4c-3.4-17.1-12.1-28-25.1-31.5c-3.5-0.9-6.6-1.5-9.3-2
	c-9.1-1.7-9.6-2.3-10.5-5.8c-0.7-2.6-1.5-5.8-2.4-9.3c-2-7.6-4.4-16.9-6.9-26.3c-0.7-3.4-5.9-26.5-9.4-34.7
	c-7.7-18.4-19.6-48-30-74.1c-6.8-17.1-13.3-33.3-18.1-45.1c-7.9-19.5-8.9-35.5-2.9-47.6c6.8-13.6,20.7-19.1,28.4-21.1
	c40.7-10.8,115.7-24.7,154.2-30.6c22.9-3.5,36.4,11.4,45.5,24.8c10.3,15,22.7,33.2,35.6,52.3c24.8,36.4,52.9,77.7,70.6,103.4
	c5.4,7.8,9.8,14.3,13.3,19.5c11.3,16.6,15.5,22.9,23.9,32c39.6,43,84.2,87.9,136.5,137.5c3,2.8,7.8,2.7,10.6-0.3
	c2.8-3,2.7-7.8-0.3-10.6c-52-49.3-96.4-94-135.8-136.7c-7.6-8.3-11.4-13.8-22.5-30.2c-3.5-5.2-7.9-11.6-13.3-19.5
	c-17.6-25.7-45.8-66.9-70.6-103.3c-13-19-25.4-37.2-35.6-52.3c-6.2-9.1-25-36.6-60.2-31.2c-44.6,6.8-116.8,20.5-155.8,30.9
	c-10.2,2.7-28.6,10.1-38,28.9c-8,16.1-7.2,36.3,2.5,60c4.8,11.8,11.3,27.9,18.1,45.1c10.5,26.2,22.3,55.9,30.1,74.4
	c2.5,6,7.1,25.3,8.6,32.3l0.1,0.3c2.5,9.3,4.9,18.7,6.9,26.3c0.9,3.6,1.7,6.7,2.4,9.4c3.5,13.1,13.5,15,22.2,16.7
	c2.6,0.5,5.3,1,8.3,1.8c7.2,1.9,12,8.5,14.2,19.7c1.1,7.9,31.1,218.3,40.9,267.8c0.8,4,8.3,40.1,32.1,83
	c24.6,44.5,56,77.3,93.2,97.4c40.9,22.1,94.8,27.2,149.4,27.2c23.8,0,47.6-1,70.6-1.9c19.5-0.8,37.9-1.5,54.8-1.6
	c85.2-0.4,772.1-4.2,920.7-6.6c73.4-1.2,127.1-12.8,168.9-36.5c37.7-21.4,68.7-52,89.8-88.4C1835.1,792.9,1845.3,754.5,1844.3,716.6
	z M1717.7,903.3c-39.5,22.4-90.9,33.4-161.7,34.5c-10,0.2-22.5,0.3-37,0.5c55-1.9,100.9-16.2,132.9-41.3
	c27.6-21.7,44.6-51.2,47.7-83c1.7-17.4-2.8-32.2-13.4-44c-17.3-19.3-46.5-24.7-61-24.9c-70.5-0.8-157.7-1.2-250-1.6
	c-114.9-0.5-233.6-1.1-324.3-2.4c-17.3-0.3-60.1-1-84.5-2.7c-1.4-0.1-2.9-0.2-4.4-0.2c-11.1-0.5-22.6-0.9-32.4-15.5
	c-8.4-12.4-25.9-29.6-58.2-29.6c-10.4,0-22.4,1.8-36.1,6.1c-6.3,2-14.1,4.5-33.4-12.6c-53.7-47.5-98.2-87.3-141.2-126.9
	c-3-2.8-7.8-2.6-10.6,0.4c-2.8,3-2.6,7.8,0.4,10.6c43.1,39.7,87.7,79.5,141.4,127.1c21.2,18.8,34.5,19.9,47.8,15.7
	c34.8-11,62.3-4.7,77.4,17.6c14.1,20.9,32.2,21.6,44.2,22.1c1.4,0.1,2.7,0.1,4,0.2c24.8,1.7,67.9,2.5,85.3,2.8
	c90.8,1.3,209.6,1.9,324.5,2.4c92.3,0.4,179.5,0.9,249.9,1.6c11.2,0.1,36.1,4.4,50,19.9c7.6,8.5,10.9,19.5,9.6,32.5
	c-2.7,27.7-17.6,53.5-42,72.6c-29.8,23.4-73.3,36.6-125.9,38.2c-105.8,3.1-319.3,4.8-617.5,4.8c-72.7,0-208.1,0-273.5-90.2
	c-33-45.4-65.4-120.3-32.5-218.9c23.6-70.8,105.4-143.6,235-146.3c61-1.3,161.9,1.3,250.9,3.7c46.8,1.2,90.9,2.4,123.4,2.8
	c96.7,1.2,277.5,4.8,379.1,9.4c90,4.1,243.5,56.8,247.7,228.5C1831.1,790.6,1787.3,863.8,1717.7,903.3z"/>
</svg>
