<?xml version="1.0" encoding="utf-8"?>
<!-- Generator: Adobe Illustrator 24.0.1, SVG Export Plug-In . SVG Version: 6.00 Build 0)  -->
<svg version="1.1" id="fiveflags_Config" xmlns="http://www.w3.org/2000/svg" xmlns:xlink="http://www.w3.org/1999/xlink" x="0px"
	 y="0px" viewBox="0 0 1920 1080" style="enable-background:new 0 0 1920 1080;" xml:space="preserve">
<style type="text/css">
	.st0{fill:#FFFFFF;}
</style>
<title>active</title>
<path class="st0" d="M973.5,929.6c-107.3,0-205.2-4.4-267.8-7.3l-11.5-0.5c-40.7-1.8-85.4-10.8-129.1-26
	c-50.7-17.6-97.2-42.2-138.2-73.3c-72.3-54.8-160.4-155.8-169.5-325.9c-4.5-84.8,32.3-186.8,96.2-266.3
	c37.4-46.6,82.5-84.3,134.2-112.1c58.4-31.5,123.9-49.6,194.9-53.8c133.9-8,443.6-9.8,589.1-0.7c37.6,2.4,79.1,12.2,119.9,28.4
	c45.8,18.2,88.1,43.2,125.6,74.2c64.9,53.6,144.6,150.4,155.4,306.8l0,0c0.5,10.6,2.8,102.3-43.1,200.6
	c-28.1,60.2-68.4,110.5-119.8,149.5c-63.3,48.1-143.2,78.6-237.4,90.7l-5.1-39.7l5.1,39.7C1178.1,925.9,1071.9,929.6,973.5,929.6z
	 M991.6,137.5c-113.6,0-230.1,2.2-304.2,6.7c-140.7,8.4-225.3,78.7-271.4,136.2c-62.3,77.5-81.3,162.7-78.7,212
	c12.9,243.4,228,343.5,360.6,349.5l11.5,0.5c117.7,5.3,362.5,16.4,552.8-8c142.5-18.3,241.2-82.7,293.3-191.4
	c39-81.3,37.4-159.6,37.2-165c-9-127.7-73.7-206.4-126.5-250c-69.5-57.4-148.7-81.2-199.6-84.4
	C1202.6,139.5,1098.4,137.5,991.6,137.5z M1592.8,478.2c0,0.9,0.1,1.4,0.1,1.4l-0.1-1C1592.9,478.5,1592.8,478.3,1592.8,478.2z"/>
</svg>
