<?xml version="1.0" encoding="utf-8"?>
<!-- Generator: Adobe Illustrator 25.0.0, SVG Export Plug-In . SVG Version: 6.00 Build 0)  -->
<svg version="1.1" id="GP" xmlns="http://www.w3.org/2000/svg" xmlns:xlink="http://www.w3.org/1999/xlink" x="0px" y="0px"
	 viewBox="0 0 1920 1080" style="enable-background:new 0 0 1920 1080;" xml:space="preserve">
<style type="text/css">
	.st0{fill:#FFFFFF;}
</style>
<path class="st0" d="M638.5,941.7c-5.3,0-9.3-1.5-12.2-3.1c-7.4-4.2-10.7-11.4-11.2-14.3c-3.4-18.9,8.1-28.5,12.1-31.2
	c12.7-11.6,42.2-39.6,63.7-60c12.2-11.6,21.9-20.7,25-23.6l3-2.8c6.7-6.2,11.1-10.3,18.7-18.9c6.2-7,13.1-19.3,10.9-38.1
	c-1.7-6.9-3.1-11.8-4.4-16c-2.1-7-3.6-12.1-4.6-21.6c-1.1-10.6,2.1-26.4,9.5-47.1c1-2.6,4-11.3,7.9-22.3
	c7.9-22.5,18.8-53.3,21.1-59.6c2.3-6,12.5-35.4,28.6-82.7c1.4-4.2,2.2-6.3,2.7-7.8c1-2.7,1-2.8,3-9.4c3.3-15.9-9.8-22.7-23.5-28.3
	c-0.9-0.4-1.7-0.7-2.5-1c-11-4.7-43.9-19.9-53.5-25.6c-17.6-11.2-16.7-24.7-16.3-30.5l0.1-0.9c2.5-17.6,9.1-24.1,13-27.9
	c0.7-0.7,1.4-1.3,1.8-1.9c3.7-4.6,50-58.5,56.5-65.2c2.9-3.1,13.9-16.1,25.6-29.9c13.9-16.4,28.2-33.4,33.4-39
	c21.6-21.5,34.5-26.1,42.5-27.6c18.3-4.6,148.2-35.1,166.9-39.3c5.9-1.3,13.1-3,18.8-4.3l29.1-6.8c2.4-0.5,9.6-2.2,10.9-4.4
	c0.1-0.2,0.5-0.9-0.1-2.9c-5-16,0.1-20.5,5.8-22.7l0.5-0.2c0.6-0.3,2.5-1.1,4.9-2.2c15-6.7,29.6-13.1,34.8-14.2l50.1-10.9
	c4.8-1,9.2-1.9,12.7-2.7c3.5-0.7,6-1.3,7.3-1.5c0.7-0.1,1.4-0.3,2.2-0.5c8.7-1.9,25-5.5,37.9,8.1c6,6,7.4,17.3,7.6,19.5l0,0.2
	c0.4,3.8,1,10.7-4.8,18.6c-3.8,5.2-8.8,9.7-15.2,15.4c-2.7,2.5-5.8,5.2-9.1,8.3c-10.7,10.5-16.5,16-18.6,17.9
	c-3,2.7-28.7,27.4-55.8,53.5c-30.6,29.4-62.2,59.9-68.1,65.3c-11.4,10.5-72.8,71.8-73.4,72.4c-0.5,0.5-1.4,1.4-2.5,2.5
	c-7.8,8-28.3,29.2-46.9,42.9c-20.8,15.3-47.8,32.5-58.5,39.1c-9.3,5.8-16,8.7-21,5.4c-4.3-2.9-6.4-12.1-2.7-21.3
	c0.7-1.7,1.6-4.1,2.6-6.8c3.7-10.1,8.8-23.9,13.7-30.1c1.1-1.4,2.1-2.6,3-3.8c4.1-5,6.5-8,8.7-14.5c2.6-10.1,1.2-20-3.8-27.9
	c-4.2-6.6-10.7-11.4-17.4-12.7c-12.7-1.5-17.1-1.6-34.8,1.3l-3.7,0.6c-15.5,2.5-26.8,4.3-41.7,10.5c-13.9,5.7-14.6,14.1-14.8,17.2
	l0,0.6c-0.5,5,0.7,9.2,3.5,12.4c4.7,5.3,12.6,6.6,13.8,6.6c2.5,0,13.6,0.7,20.6,1.3c8,0.7,13.7,3.2,16.9,7.5
	c4.4,6,2.8,13.6,1.9,17.7c-0.1,0.6-0.2,1.1-0.3,1.5c-0.6,3.6-8.1,43.7-13.6,72.9c-2.9,15.4-5.2,27.9-5.8,30.8
	c-1.1,6.2-5.8,18.9-9.5,29.1c-1.6,4.5-3.1,8.4-3.8,10.5c-2.3,7.1-19.9,57.5-23.5,67.7c-7.4,19.9-4.1,28.6-2.6,32.3
	c4.9,11.5,12,16.7,16.7,20.1l0.6,0.5c4.4,3.2,32.7,16.7,40.7,20.3c5.3,2.3,9.1,6.7,11,12.5c2.2,6.8,1.5,14.9-1.9,20.7
	c-4.6,7.9-17.9,14.4-22.9,16.8c-0.7,0.3-1.2,0.6-1.4,0.7l-0.3,0.2c-13.1,5.9-50.6,26-63.5,33.4c-9.2,5.3-26.2,18.4-50.5,39
	c-1.2,1-2.5,2.1-3.7,3.1c-9.7,8.1-19.8,16.5-33.5,35.1c-13.6,18.4-20.8,29.6-28.5,41.6c-1.2,1.8-2.4,3.7-3.6,5.6
	c-2.1,3.3-3.8,6.1-5.4,8.5c-5.3,8.5-7.7,12.4-12.2,14.8l-0.3,0.1C647.2,940.8,642.5,941.7,638.5,941.7z M722.6,397.7l0,0.6
	c-0.4,5.5-1.1,15.7,13.5,24.9c9.3,5.6,41.8,20.6,52.7,25.2c0.8,0.3,1.6,0.7,2.4,1c11.1,4.6,31.8,13.1,27.1,35.3l-0.1,0.3
	c-2.1,6.9-2.2,6.9-3.2,9.8c-0.5,1.4-1.3,3.6-2.7,7.7c-9.4,27.4-25.6,74.7-28.7,82.9c-2.4,6.2-13.2,37-21.1,59.4
	c-3.9,11-6.9,19.7-7.9,22.4c-7.1,19.8-10.2,34.8-9.2,44.4c1,8.9,2.4,13.8,4.4,20.5c1.3,4.4,2.8,9.3,4.5,16.5l0.1,0.4
	c2.5,21.1-5.3,35-12.3,42.9c-7.7,8.9-12.3,13-19.1,19.4l-3,2.8c-3.1,2.9-12.7,12-25,23.6c-21.7,20.5-51.3,48.6-64,60.2l-0.4,0.3
	c-3.8,2.5-12.4,10-9.7,25.3c0.2,1.6,2.7,6.9,8.2,10c5.7,3.2,12.8,3.1,21.1-0.3c3-1.6,5-4.9,9.8-12.6c1.5-2.5,3.3-5.2,5.4-8.6
	c1.2-1.9,2.4-3.8,3.6-5.6c7.7-12,14.9-23.4,28.7-41.9c14.2-19.1,25-28.1,34.5-36.1c1.2-1,2.5-2.1,3.7-3.1
	c24.6-20.8,41.8-34.2,51.4-39.6c12.9-7.4,50.6-27.6,63.9-33.6c0.3-0.2,0.8-0.4,1.7-0.8c4.1-2,16.6-8.1,20.3-14.4
	c2.5-4.3,3.1-10.7,1.4-15.9c-0.9-2.9-3.1-6.8-7.7-8.9c-4.2-1.9-36.4-17-41.8-21l-0.6-0.5c-4.9-3.6-13.2-9.6-18.7-22.7l0-0.1
	c-1.7-4.3-5.6-14.5,2.6-36.6c3.6-10.2,21.2-60.5,23.5-67.5c0.7-2.3,2.2-6.2,3.8-10.8c3.5-9.5,8.2-22.5,9.3-28.2
	c0.6-3,2.9-15.5,5.8-30.9c5.5-29.2,12.9-69.3,13.6-72.9c0.1-0.5,0.2-1.1,0.3-1.7c0.8-3.6,1.9-9.1-0.9-12.9
	c-2.1-2.9-6.3-4.6-12.6-5.1c-7.2-0.6-17.9-1.3-20-1.3c-2.1,0-11.9-1.5-18.2-8.5c-4.1-4.5-5.8-10.2-5.1-17l0-0.5
	c0.3-3.8,1.2-15.2,18.5-22.3c15.6-6.4,27.1-8.3,43-10.9l3.7-0.6c18.4-3,23.3-2.9,36.6-1.3l0.2,0c8.3,1.6,16.3,7.4,21.4,15.4
	c5.9,9.4,7.5,21,4.5,32.7l-0.1,0.2c-2.5,7.6-5.6,11.3-9.8,16.5c-0.9,1.1-1.9,2.3-3,3.7c-4.2,5.4-9.4,19.3-12.8,28.4
	c-1,2.7-1.9,5.1-2.6,6.9c-2.8,7.1-0.9,13.2,0.5,14.1c1.8,1.2,6.6-0.6,14.5-5.5c10.6-6.6,37.5-23.7,58.1-38.9
	c18.1-13.4,38.5-34.3,46.1-42.2c1.1-1.2,2-2,2.5-2.6c0.6-0.6,61.8-61.8,73.6-72.6c5.9-5.4,37.5-35.8,68-65.2
	c27.2-26.2,52.9-50.9,56-53.7c2.7-2.4,11.3-10.8,18.5-17.8c3.4-3.2,6.5-6,9.3-8.5c6.1-5.5,11-9.9,14.4-14.5c4.4-6.1,4-11.2,3.6-14.5
	l0-0.2c-0.4-4.1-2.1-12-5.9-15.9c-10.7-11.2-24.3-8.2-32.4-6.4c-0.8,0.2-1.6,0.3-2.3,0.5c-1.3,0.3-3.8,0.8-7.3,1.5
	c-3.5,0.7-7.9,1.7-12.7,2.7l-50.1,10.8c-5.2,1.1-25.1,10-33.6,13.8c-2.6,1.2-4.3,1.9-5,2.2l-0.6,0.2c-2.7,1.1-6.3,2.5-2.2,15.4
	c0.9,3.1,0.7,5.6-0.5,7.7c-2.2,3.7-7.4,5.5-14.7,7.2l-29.1,6.8c-5.7,1.3-12.9,3-18.8,4.3c-18.7,4.2-148.9,34.8-166.8,39.3l-0.2,0
	c-7.1,1.4-19,5.5-39.4,25.9c-5.1,5.4-20,23.1-33.1,38.7c-12.2,14.5-22.7,27-25.8,30.2c-6.1,6.4-52.5,60.5-56.1,64.9
	c-0.6,0.8-1.4,1.5-2.2,2.3C730.3,376.8,724.9,382.2,722.6,397.7z M890,208.3L890,208.3L890,208.3z"/>
</svg>
