<svg id="Touristenfahrten" xmlns="http://www.w3.org/2000/svg" viewBox="0 0 1920 1080"><defs><style>.cls-1{fill:#fff;}</style></defs><path class="cls-1" d="M767.27,1021.35a26.05,26.05,0,0,1-11.47-2.83c-4.68-2.27-8.13-4.26-11.18-6-2-1.14-3.82-2.21-5.83-3.26-6.19-3.24-10.31-5-13-5.46-1.75-.33-5.55-.78-9.23-1.21-3-.36-6.12-.72-8.3-1-3.58-.53-5.1-.66-6-.74l-.87-.09h-.09c-3.83-.5-8.08.67-12.3,3.39l-.07,0-.07,0a8.69,8.69,0,0,1-3.7.81c-7,0-13.63-7.88-15.07-9.7-1.84-2.34-5.6-10.31-6.25-12.23a10.8,10.8,0,0,0-4-4.59l-.17-.1c-6.18-3.7-9.8-6.6-11.06-8.89a20.77,20.77,0,0,1-2.12-6.86,14.75,14.75,0,0,0-.35-1.65c-.39-1.18-1.31-4-5.63-4.79-1.81-.35-4.76-.95-7.89-1.57-5.38-1.08-11.47-2.3-14.3-2.82l-1.19-.21c-4.09-.73-8-1.41-10.84-5.37a12.31,12.31,0,0,1-2.58-8.13c0-.35,0-.65,0-.92s0-.9,0-1.47c0-1.82-.09-4.56-.88-6l-.26-.49c-1-1.82-1.79-3.26-6.29-6.62L585,914.3c-13-9.6-32.76-24.09-36.63-27.12A86.3,86.3,0,0,1,535,874.53c-2.84-3.51-35.78-46-37.44-49.53s-2.47-6.24-2.84-12.18c-.07-1.24-.15-2.41-.23-3.54a68.06,68.06,0,0,1-.24-10.77c.38-4.21,1.36-6.22,3-9.55,1.07-2.2,4.09-8.9,6.51-14.28l3-6.6c1.13-2.44,2-7.4,2.42-10.06.09-.55.17-1,.23-1.3.47-2.54,3.44-18.91,3.66-21.49a128.84,128.84,0,0,0,.24-17.52c-.41-6.44-1.17-18.44-1.54-22.89a129,129,0,0,0-3.41-18.89,248.37,248.37,0,0,0-8.5-23.84c-3-7.08-22.19-55.3-25.08-64-2.55-7.63-9.34-14.32-12.23-17.17-.25-.25-.48-.46-.67-.66-2.28-2.28-10.9-8.53-19.24-12.34-2.29-1.05-4.53-2-6.7-3-5.75-2.49-10.71-4.64-13.84-7-4.24-3.27-6-6.11-6.28-10.12-.25-3.69,1.48-10.58,7.2-13.37,2.41-1.18,10.91-4.37,19.91-7.75,10.14-3.81,21.64-8.13,24.71-9.7,5.26-2.68,8.24-4.52,9.4-5.8s8.62-8.3,11.47-9.86c1.2-.65,3.1-1.73,4.94-2.77,2.24-1.28,4.17-2.38,4.84-2.71.94-.47,5.25-4.4,7.32-6.28l.72-.66c1.53-1.39,5.35-5.19,8.72-8.55,2.3-2.29,4.48-4.46,5.51-5.44l1.5-1.45a114.43,114.43,0,0,1,9.9-8.86c3.49-2.57,13.55-10.84,15.32-12.5,2-1.82,8.59-8.75,11.55-13.75,3.06-5.18,10.54-22.4,12.27-26.56.22-.52.42-1,.62-1.44,1.4-3.2,2.33-5.31,2-14.56a98.24,98.24,0,0,1-.23-12.85,16.42,16.42,0,0,1,8.94-13.07c6.43-3.39,7-4.23,7.74-5.51l0,0c.83-1.35,3.37-5.47,2.58-8.14a9.86,9.86,0,0,0-2.94-4.65c-.12-.11-.23-.21-.32-.31a10.42,10.42,0,0,1-.24-13.79c.78-.78,13.35-12.07,17.22-14.32,2.7-1.57,9-6.11,12.71-8.83l3-2.16a21.73,21.73,0,0,0,4.25-4.13l.88-1,1-1.11c2.46-2.85,7.57-8.78,10.79-11.59,1.29-1.12,3.73-3.38,6.56-6,5.28-4.88,11.84-10.95,15.32-13.74a68.17,68.17,0,0,0,12-13c1.26-1.69,2.41-3.2,3.51-4.66,1.65-2.17,3.21-4.23,4.79-6.38a27.85,27.85,0,0,0,4.2-9.33,21.87,21.87,0,0,0-.12-11.63c-.84-3.26-2.07-9.1-3.15-14.25-.88-4.13-1.7-8-2.07-9.36-.82-3-1.81-4.78-4.9-6.53C672,187.6,669,188,666.35,188.3l-.13,0c-3,.36-7.4.92-14.07-3.28s-19.08-13.57-20.31-14.57a14.71,14.71,0,0,1-3-3.2,9.82,9.82,0,0,1-1.71-6.36,11,11,0,0,1,1.83-6c1.15-1.55,2.94-2.79,6-4.15,3.65-1.63,15.89-7.17,20.37-10.12A128,128,0,0,0,670.49,129c4.06-3.84,4.16-5.09,4.5-9.21.13-1.58.18-2.79.22-3.77a13.21,13.21,0,0,1,.56-4.13c.68-1.9,4.67-8.31,7.16-11.7.86-1.17,1.8-2.6,2.72-4,2-3,3.91-5.9,5.55-7.27l1-.85a22.6,22.6,0,0,1,6.26-4.06l.54-.26c3.9-1.91,6-3,11.28-2.35l.27,0c5.07.59,9.86,1.15,16.05,5.4,5.78,4,27.14,19.18,28.58,20.36l.45.35c1.63,1.22,4.66,3.5,6.13,10.29,1.53,7,6.49,6.32,7.06,6.21,1.4-.26,2.61-1.5,4-4.15l.24-.45c1.59-3,4-7.51,13.66-8.24,9.5-.71,37.43-1.9,40.69-1.9.64,0,1.23,0,1.79-.07,2.18-.12,4.24-.24,9.36,1.31,8.17,2.46,18,5.24,21,5.66,3.23.44,6,.07,8.93-3.19,3.21-3.55,6.76-10.34,7.31-13.2a58.79,58.79,0,0,0,.93-12.53c0-.62-.1-1.27-.16-1.89-.38-3.75-.81-8,4.78-11.31,6.12-3.62,32.2-12.7,43.42-15.45h0c13-3,34.71-7.19,45.43-9,8.06-1.39,8.31-1.44,9.07-1.6l1.48-.29a19.92,19.92,0,0,0,7.42-3.19c1.28-1.08,23.72-17.34,27.43-19.69,3.24-2.05,7.27-4.6,12.33-4.34a16.89,16.89,0,0,1,6.84,1.8,10.36,10.36,0,0,1,4.75,4.71c1.73,3.72,2.84,11.84,2.84,14.27s-.68,8.84-1.32,13.92c-.68,5.44-2.48,19.87-1.42,30.37.34,3.33.38,6.07.43,8.71a61.6,61.6,0,0,0,3.31,20.82c1,2.73,1.75,4.72,2.34,6.33,1.31,3.62,1.67,4.6,2.48,5.71.2.27.51.71.9,1.26,2.11,3,7.05,10,10.05,12.41.62.5,1.31,1.07,2,1.68a120.24,120.24,0,0,0,17.63,12.58c3.61,2,13.26,6.27,17.9,8.35l2.19,1c1.55.7,5,2.18,8.29,3.6l6,2.57c3.46,1.51,9.2,2.16,17.06,1.92,8.1-.25,17.72-.35,22.38-.24,5.11.12,19.31,2.1,23.69,2.87,2.14.37,7.56,1.11,13.3,1.89,6.94,1,14.11,1.93,16.41,2.39a139.32,139.32,0,0,1,13.55,3.94l3,1c1.75.56,3.52,1.09,5.39,1.65,4.43,1.32,9,2.69,13.57,4.55,6.28,2.56,13.45,7.13,16.69,10.63a81.36,81.36,0,0,0,12.57,10.59c3.29,2,22,12.22,26.57,14.17s6.94,2.51,9.89,2.29a66.39,66.39,0,0,0,14-2.44c4.67-1.52,19.23-9.52,22.58-11.42s20.87-14.63,26-19.1c1.86-1.61,3.3-3,4.57-4.16,2.29-2.16,3.81-3.58,5.59-4.35a47,47,0,0,1,11.6-2.81c1.59-.21,4.37-.64,7.31-1.09,5.86-.91,12.49-1.93,14.89-2l1.53-.05a41.83,41.83,0,0,0,8.31-.75l2.47-.6c3.07-.74,7.26-1.74,9.3-2.45,3.47-1.21,8.09-1.55,10.63,1.13,2.3,2.41,4.46,4.7,4.6,7.77.11,2.41.4,8.8-5.07,13.21-4.39,3.53-12.51,9.6-16,11.41a36.23,36.23,0,0,0-8.27,6.45c-3.36,3.22-5.87,5.43-8,6.5a52.31,52.31,0,0,0-4.75,3.18,62.09,62.09,0,0,1-5.92,3.93c-2.8,1.47-5.22,2.73-6.35,3.41a7.5,7.5,0,0,0-2.28,2.15,5.21,5.21,0,0,0-.63,4.47,6.31,6.31,0,0,0,6,4.59c1.07,0,4.72-1.46,5.51-4.13,1-3.45,2.79-8.37,6.32-11.27,4.52-3.71,9.52-7.7,12.32-9.16a46.4,46.4,0,0,1,8.18-2.79c1.82-.51,3.89-1.09,6.14-1.8,2.93-.92,7.08-2.12,11.1-3.27,4.58-1.32,8.9-2.56,9.94-3a33.71,33.71,0,0,1,10.43-1.63,73,73,0,0,0,13.14-1.51c2.17-.53,4.35-2.31,5.94-3.61a15.63,15.63,0,0,1,1.81-1.37c.78-.46,2.86-2.05,5.06-3.74,1.59-1.22,3.23-2.48,4.69-3.55a36.9,36.9,0,0,0,7.29-7c.31-.52,1.28-1.89,2.83-4.08,1.69-2.38,3.8-5.35,4.65-6.74,1.43-2.31,2.32-4.24,2.32-6.73a64.61,64.61,0,0,0-1.26-9.37l-.27-1.47a12.81,12.81,0,0,1,2.21-10.26l2.49-3.65c2.81-4.14,7.06-10.4,8.44-12.38a14.83,14.83,0,0,1,7-5.68,15.77,15.77,0,0,1,8.6-.5,18.38,18.38,0,0,1,5.82,2.74c.44.29.83.55,1.09.68s1,.54,1.86,1a74.22,74.22,0,0,0,8.61,4.48,57.6,57.6,0,0,0,8.59,2,24.34,24.34,0,0,1,3.69.82c.45.2,2.51.84,4.32,1.4,2.31.72,4.69,1.46,5.84,1.91.59.23,1.61.56,2.79.94,3.78,1.23,7,2.33,8.42,3.37l.71.52c2.4,1.75,6.87,5,8.8,9.2s6.24,9.42,8.16,10.81c2.11,1.52,8,4.35,10.22,4.78a36.19,36.19,0,0,0,5.51.39c.79,0,1.54,0,2.17.07a15.06,15.06,0,0,1,9.08,4.14c2.74,2.74,16.83,19.5,19.75,24.07a18.23,18.23,0,0,1,2.29,12.59,29.74,29.74,0,0,1-3.49,8.55c-1.73,2.54-5.27,10.36-6.75,14.56l-.37,1.05a104.81,104.81,0,0,0-3.51,11.29c-.86,3.77,2.6,8.47,4.79,10.65l.42.43c2.5,2.51,5.61,5.64,10.73,7.23a59.35,59.35,0,0,0,11.37,2.45c4.6.17,9.11,5.66,9.4,8.91l0,.25c.67,7.39,2.24,25,2.35,29.38.27,4.66-.81,8.36-3.2,11-3.08,3.39-7.47,4-9.81,4.14a82.09,82.09,0,0,1-16.87-.84c-6.14-1-8.16-1.34-14.17-2.25l-3.15-.48c-5.68-.82-9.93-.18-12.62,1.92a9.93,9.93,0,0,0-3.26,5.25c0,.17-.1.32-.15.46-.28.84-.49,1.73-.71,2.68a18.74,18.74,0,0,1-1.76,5.14c-1.42,2.45-12.05,15.29-14.6,18.33-2.81,3.35-6.4,10.82-8.35,16.15-2.92,8-2.82,9.1-2.61,11.21,0,.24.05.48.07.75.16,2,.5,5.13.86,8.46.15,1.37.3,2.77.44,4.1a32.28,32.28,0,0,1-.4,9.38c-.07.41-.13.83-.2,1.25a79.8,79.8,0,0,0-.22,11.65c0,.29,0,.62,0,1,.17,3.33.47,9.51-.3,14.1-.51,3.11-2.69,6.34-4.43,8.5a28.92,28.92,0,0,1-6.42,6.07c-6.89,4.7-13.92,5.69-18.12,6.28l-1.34.19c-3.65.57-7.78,1.22-10.51,3.94-1,1-3.13,3-5.88,5.57-5.78,5.41-13.71,12.83-15.52,15.11A74.44,74.44,0,0,0,1522.5,495c-.3.69-.55,1.29-.79,1.8l-.66,1.44c-1.65,3.64-4.4,9.73-7.82,13.79-.56.67-1.1,1.31-1.61,1.94-2.94,3.58-5.48,6.67-10,8.71-2.57,1.16-4.74,1.94-6.48,2.56a19.81,19.81,0,0,0-3.33,1.38,95.52,95.52,0,0,0-8.39,6.17c-.2.19-.43.41-.69.68-2.1,2.13-6,6.09-16,8.17-5.2,1.07-9.52,1.75-13,2.29a63.85,63.85,0,0,0-8.75,1.71c-2.23.72-8,2.91-13.61,5-4.45,1.68-9.06,3.42-12,4.47-6.59,2.35-14,3.08-23.67,3.86a18.35,18.35,0,0,1-2.19.13c-8.56,0-14.58-6.22-17.6-9.33a15.6,15.6,0,0,0-1.41-1.37l-.15-.08-.14-.13c-.6-.58-1.21-1.2-1.8-1.8-2.83-2.89-5.77-5.88-10.28-7.17-8-2.26-16.34,4-20.33,7-.77.58-1.38,1-1.86,1.34-.94.6-2.4,1.47-4.11,2.49-3.64,2.17-8.64,5.14-11.12,7.07h0c-3.09,2.28-4.89,4.53-5.37,6.71a5.62,5.62,0,0,0,.51,3.71c.74,1.57,7,9.28,8.79,11.06,3.11,3.1,8.15,6.18,14.58,8.89,8.81,3.71,23.09,8.95,26.75,10.18,1.26.42,2.14.66,2.91.88a19.79,19.79,0,0,1,4.13,1.56c3.29,1.64,5.68,4.13,8,8.32,1.18,2.13,2.16,3.76,3,5.08a29.1,29.1,0,0,1,1.86,3.35c.66,1.59,3,10.88,3.86,14.92a38.39,38.39,0,0,1,.36,12.37v.05c-1.52,6.21-4.82,14.62-11.88,19.45-1.59,1.09-4.79,2.84-7.62,4.38-1.22.66-2.37,1.29-3.15,1.73-.94.54-16.49,9.15-36.18,20-32.13,17.79-76.13,42.15-81.61,45.26-3.7,2.1-23.12,13.28-45.6,26.23-30.26,17.43-64.56,37.18-67,38.49-4.08,2.22-32.32,19.27-32.6,19.45h0c-5.41,3.22-18.66,11-34,20.06-31.3,18.43-70.25,41.37-75.92,45l-.41.26c-8.14,5.2-11.5,7.35-22.95,20.88-9.62,11.37-23.12,26.63-28.89,33.15l-2.71,3.08c-2.5,2.86-7.59,9.25-8.57,11.76-1.25,3.2-5.78,13.28-10,17.5s-15.35,14.65-17.76,16.69c-1.93,1.64-5.58,5.53-7,9.69l-.15.45c-1.36,4-2.44,7.15-7.1,8.83a10.83,10.83,0,0,1-7.65.16c-.48-.13-.94-.27-1.37-.34a8.53,8.53,0,0,1-1.08-.26c-1.65-.45-3.71-1-10,3.5-7.6,5.45-8.43,5.83-11.07,5.09l-.15,0c-2.53-.71-8.06-5-9.52-6.33l-1.35-1.24c-3.79-3.41-12.66-11.41-15-14.75-1.55-2.25-4.31-6.4-6.53-9.74-1.48-2.23-2.75-4.15-3.09-4.62a5,5,0,0,0-3.56-2.12c-1.75-.07-3.63,1.11-5.59,3.5a66.73,66.73,0,0,0-8.17,13.43c-1.07,2.18-2.09,4.24-3.25,6.14-3.4,5.59-6.09,9.3-14.72,13.74l-1.77.91c-7.11,3.66-10,5.18-14.32,6.53A24.62,24.62,0,0,1,767.27,1021.35ZM699.6,998.2a15.57,15.57,0,0,1,2,.13h.08l.78.08c.93.08,2.49.22,6.13.76,2.15.31,5.25.68,8.24,1,3.89.46,7.56.89,9.38,1.23,2.89.54,7.22,2.35,13.63,5.7,2.05,1.07,3.93,2.15,5.92,3.3,3.15,1.82,6.42,3.71,11,5.94,7.73,3.75,13.5,2.64,17.17,1.48,4.08-1.29,7-2.77,14-6.37l1.78-.91c8.07-4.16,10.59-7.63,13.77-12.86,1.1-1.81,2.1-3.83,3.16-6a67.72,67.72,0,0,1,8.46-13.89c2.45-3,5-4.46,7.51-4.36a7.33,7.33,0,0,1,5.42,3.13c.35.49,1.57,2.34,3.12,4.67,2.21,3.32,5,7.47,6.5,9.7,2.14,3.12,11.19,11.27,14.6,14.34.65.59,1.13,1,1.38,1.26,1.73,1.6,6.77,5.29,8.53,5.78l.16,0c1.52.43,1.75.49,9-4.73s10-4.42,12.05-3.85c.31.08.57.16.83.2a14.54,14.54,0,0,1,1.64.4,8.66,8.66,0,0,0,6.19-.11c3.58-1.29,4.36-3.58,5.65-7.36l.16-.46c1.49-4.34,5.09-8.49,7.71-10.73,2.38-2,13.49-12.42,17.63-16.56s8.49-14.18,9.47-16.69c1.16-3,6.56-9.68,9-12.46l2.73-3.08c5.75-6.51,19.24-21.77,28.85-33.12,11.68-13.8,15.13-16,23.48-21.34l.41-.26c5.71-3.65,44.68-26.6,76-45,15.34-9,28.59-16.83,34-20h0c1.26-.76,28.57-17.26,32.7-19.5,2.39-1.29,36.68-21,66.93-38.46,22.48-13,41.9-24.13,45.61-26.24,5.49-3.11,49.5-27.48,81.63-45.27,19.68-10.89,35.23-19.5,36.16-20s1.9-1.06,3.18-1.76c2.64-1.44,5.93-3.22,7.42-4.25,6.43-4.4,9.48-12.23,10.91-18a36.24,36.24,0,0,0-.36-11.36c-1-4.7-3.23-13.31-3.73-14.53a30.92,30.92,0,0,0-1.71-3c-.8-1.33-1.79-3-3-5.15-2.6-4.7-5-6.36-7-7.35a17.23,17.23,0,0,0-3.71-1.39c-.76-.22-1.71-.48-3-.92-3.69-1.23-18.06-6.51-26.92-10.24-6.71-2.83-12-6.08-15.34-9.4-1.64-1.64-8.29-9.67-9.26-11.74a8,8,0,0,1-.68-5.22c.61-2.75,2.71-5.47,6.27-8.1,2.6-2,7.45-4.9,11.35-7.22,1.68-1,3.14-1.87,4-2.45.41-.26,1-.72,1.71-1.24,4.31-3.22,13.26-9.92,22.41-7.33,5.12,1.46,8.42,4.82,11.33,7.79.57.58,1.11,1.13,1.65,1.66a12.07,12.07,0,0,1,1.86,1.73c3,3.1,9.24,9.55,17.81,8.49h.06c9.53-.77,16.76-1.48,23.08-3.74,2.92-1,7.52-2.78,12-4.45,5.88-2.22,11.44-4.32,13.72-5.06a65.13,65.13,0,0,1,9.11-1.8c3.44-.54,7.72-1.21,12.87-2.27,9.32-1.93,12.9-5.56,14.82-7.51l.75-.74a103.15,103.15,0,0,1,8.71-6.42,19.42,19.42,0,0,1,3.83-1.63c1.71-.61,3.82-1.37,6.31-2.5,4-1.8,6.25-4.56,9.11-8l1.63-2c3.21-3.81,5.88-9.71,7.48-13.24.24-.54.46-1,.66-1.46s.48-1.06.77-1.74a76.78,76.78,0,0,1,11.49-19.28c1.92-2.42,9.92-9.9,15.76-15.36,2.63-2.46,4.9-4.59,5.82-5.51,3.28-3.28,8-4,11.82-4.61l1.38-.2c4-.57,10.69-1.51,17.13-5.9l0,0c3.42-2.13,9-8.51,9.78-13s.43-10.36.27-13.59c0-.38,0-.72,0-1a86.25,86.25,0,0,1,.25-12.1c.07-.43.13-.85.2-1.27a29.52,29.52,0,0,0,.39-8.76c-.14-1.33-.29-2.72-.44-4.1-.36-3.34-.7-6.49-.87-8.51,0-.26,0-.49-.06-.72-.26-2.63-.25-4,2.74-12.25,1.61-4.41,5.41-12.88,8.76-16.86,4.3-5.14,13.23-16.05,14.36-18a16.66,16.66,0,0,0,1.51-4.5c.22-.95.46-1.94.77-2.88l.14-.42a12.13,12.13,0,0,1,4.07-6.42c3.21-2.5,8.07-3.31,14.42-2.39l3.16.48c6,.92,8,1.23,14.2,2.25a79.17,79.17,0,0,0,16.39.82c2-.08,5.65-.61,8.15-3.36,1.94-2.14,2.81-5.26,2.58-9.28v0c-.1-4.24-1.68-21.86-2.35-29.24l0-.24c-.19-2.06-3.77-6.66-7.17-6.76h-.1a61.17,61.17,0,0,1-11.85-2.54c-5.68-1.77-9.16-5.27-11.7-7.83l-.42-.42c-3.14-3.14-6.45-8.39-5.43-12.86a105.48,105.48,0,0,1,3.59-11.55l.37-1c1.54-4.38,5.15-12.38,7-15.12a26.69,26.69,0,0,0,3.17-7.84,15.8,15.8,0,0,0-2-10.68c-2.87-4.48-16.73-21-19.43-23.67a12.76,12.76,0,0,0-7.54-3.45c-.58,0-1.31-.05-2.07-.07a36.28,36.28,0,0,1-5.92-.43c-2.78-.53-9-3.62-11.16-5.19-2.39-1.73-6.91-7.35-8.93-11.74-1.67-3.64-5.81-6.65-8-8.27l-.74-.54c-1.18-.89-5.12-2.17-7.73-3-1.21-.4-2.25-.73-2.91-1-1.07-.42-3.52-1.18-5.68-1.85-2.48-.77-4-1.25-4.58-1.5-.32-.13-1.83-.41-3.17-.66a59.4,59.4,0,0,1-9-2.16,75.68,75.68,0,0,1-8.94-4.65c-.77-.45-1.44-.84-1.73-1a15.05,15.05,0,0,1-1.33-.8,15.84,15.84,0,0,0-5-2.43,13.18,13.18,0,0,0-7.32.45,12.28,12.28,0,0,0-5.81,4.77c-1.37,2-5.62,8.23-8.43,12.36l-2.49,3.66a10.51,10.51,0,0,0-1.83,8.51c.09.48.18,1,.26,1.46a65.46,65.46,0,0,1,1.3,9.79,14.45,14.45,0,0,1-2.67,8c-.89,1.45-2.93,4.33-4.73,6.86-1.26,1.78-2.45,3.46-2.74,3.93a38.18,38.18,0,0,1-7.91,7.71c-1.44,1.06-3.07,2.31-4.65,3.52-2.36,1.81-4.4,3.38-5.31,3.91a14.86,14.86,0,0,0-1.51,1.16c-1.76,1.44-4.18,3.42-6.89,4.08a75.29,75.29,0,0,1-13.69,1.57,31.33,31.33,0,0,0-9.52,1.46c-1.16.47-5.35,1.68-10.2,3.07-4,1.15-8.13,2.34-11,3.25-2.29.72-4.38,1.31-6.22,1.83a44.82,44.82,0,0,0-7.72,2.61c-3,1.53-9.23,6.69-11.91,8.89-3,2.48-4.62,7-5.55,10.1-1.12,3.78-5.73,5.84-7.79,5.84a9.12,9.12,0,0,1-4.22-1.14,8.4,8.4,0,0,1-4-5.19c-1.22-4.36,1.25-7.66,4-9.29,1.19-.72,3.53-1.95,6.47-3.48a63.33,63.33,0,0,0,5.64-3.76,51.3,51.3,0,0,1,5.07-3.38c2.07-1,4.92-3.68,7.43-6.08a38,38,0,0,1,8.82-6.85c2.92-1.52,10.42-7,15.59-11.15,4-3.24,4.35-7.71,4.19-11.25-.1-2.19-1.88-4.07-4-6.24-1.65-1.75-5.27-1.52-8.13-.53-2.15.75-6.41,1.77-9.52,2.52l-2.45.6a44.09,44.09,0,0,1-8.82.82l-1.52,0c-2.26.08-9.1,1.13-14.61,2-3.08.48-5.75.89-7.37,1.1a45.48,45.48,0,0,0-11,2.64c-1.4.61-2.8,1.92-4.9,3.9-1.23,1.15-2.75,2.58-4.65,4.22-5.35,4.63-22.82,17.33-26.43,19.37s-18.11,10-23,11.62a69.94,69.94,0,0,1-14.53,2.55c-3.35.24-6-.36-11-2.47s-23.75-12.43-26.87-14.33a83.81,83.81,0,0,1-13.08-11c-2.62-2.83-9.26-7.36-15.84-10-4.46-1.81-9-3.17-13.36-4.48-1.88-.56-3.67-1.09-5.44-1.66l-3-1c-4.86-1.57-9.88-3.2-13.28-3.87-2.23-.45-9.37-1.42-16.27-2.36-5.76-.79-11.21-1.53-13.39-1.91-5-.88-18.62-2.72-23.33-2.84s-14.2,0-22.26.24c-8.33.26-14.24-.44-18.09-2.12l-5.93-2.56c-3.32-1.43-6.76-2.9-8.33-3.62l-2.18-1c-4.67-2.09-14.4-6.45-18.08-8.43l0,0a122.67,122.67,0,0,1-18-12.82c-.76-.62-1.41-1.17-2-1.65-3.26-2.63-8.15-9.56-10.5-12.89l-.87-1.23c-1-1.38-1.43-2.52-2.81-6.3-.58-1.61-1.31-3.6-2.33-6.33l0-.06a64.31,64.31,0,0,1-3.44-21.53c0-2.59-.09-5.28-.41-8.51-1.09-10.77.74-25.4,1.43-30.9.78-6.3,1.29-11.65,1.29-13.63,0-2.28-1.1-10-2.62-13.27-1.34-2.88-5.09-4.9-9.55-5.13-4-.21-7.18,1.59-10.94,4S991,45.32,989.69,46.38a21.94,21.94,0,0,1-8.5,3.7c-.81.15-1.16.23-1.43.29-.79.16-1.06.22-9.16,1.61-10.69,1.84-32.37,6-45.27,9h0c-12,2.94-37.2,11.88-42.78,15.18-4.29,2.54-4,5.4-3.63,9,.07.65.13,1.32.17,2a60.56,60.56,0,0,1-1,13.11c-.62,3.21-4.37,10.46-7.88,14.35a11.35,11.35,0,0,1-11,3.94c-3.94-.54-17.31-4.53-21.31-5.74-4.72-1.42-6.49-1.32-8.55-1.21-.59,0-1.21.07-1.92.07-3.16,0-31.37,1.21-40.52,1.9-3.74.28-6.52,1.18-8.51,2.74a12.18,12.18,0,0,0-3.22,4.25l-.25.47c-1.28,2.35-3,4.83-5.7,5.35a7.54,7.54,0,0,1-1.31.11c-3,0-7.1-1.69-8.5-8.15-1.28-5.93-3.76-7.79-5.24-8.9l-.52-.41c-1.22-1-22.32-16.06-28.42-20.24-5.7-3.92-10-4.42-15-5l-.28,0c-4.53-.53-6.23.3-10,2.12l-.54.26a20.62,20.62,0,0,0-5.74,3.72l-1,.87c-1.38,1.16-3.27,4-5.1,6.77-.93,1.41-1.9,2.86-2.78,4.07a80.49,80.49,0,0,0-6.85,11.1,11.81,11.81,0,0,0-.42,3.43c0,1-.09,2.23-.22,3.86-.38,4.67-.74,6.49-5.24,10.74a130,130,0,0,1-15.48,11.89c-4.63,3-17,8.65-20.71,10.3-5.18,2.31-6.1,4-6.43,8.15s2.82,6.7,3.85,7.54S647.05,179,653.41,183c6,3.75,9.75,3.28,12.51,2.93l.13,0c2.84-.35,6.38-.79,10.35,1.45,3.77,2.14,5.06,4.54,6,8,.39,1.39,1.18,5.16,2.1,9.52,1.08,5.12,2.3,10.93,3.13,14.13a24.22,24.22,0,0,1,.12,12.83A30.58,30.58,0,0,1,683.19,242c-1.59,2.16-3.16,4.23-4.82,6.41l-3.5,4.64a70.38,70.38,0,0,1-12.44,13.4c-3.42,2.73-9.95,8.77-15.19,13.62-2.85,2.64-5.31,4.91-6.62,6-3.09,2.7-8.13,8.54-10.55,11.35-.4.47-.74.85-1,1.13s-.58.67-.86,1a23.74,23.74,0,0,1-4.7,4.54c-.59.41-1.64,1.17-3,2.14-4,2.92-10.1,7.33-12.91,9-3.52,2.05-16,13.21-16.73,13.94a8.1,8.1,0,0,0,.23,10.43l.29.28a12.24,12.24,0,0,1,3.58,5.69c1.09,3.68-1.76,8.31-2.84,10.06l0,0c-1.08,1.75-2,2.83-8.65,6.36a14,14,0,0,0-7.68,11.16,97.26,97.26,0,0,0,.23,12.54v0c.32,9.8-.75,12.23-2.22,15.6-.2.45-.4.9-.61,1.4-1.74,4.19-9.29,21.57-12.42,26.86s-10,12.39-12,14.28c-1.8,1.68-12,10.08-15.54,12.67a115.64,115.64,0,0,0-9.65,8.66l-1.51,1.46c-1,1-3.18,3.12-5.48,5.4-3.38,3.38-7.23,7.2-8.79,8.63l-.72.65c-3.63,3.3-6.72,6.09-7.86,6.65-.61.31-2.71,1.5-4.73,2.65-1.85,1.05-3.75,2.13-5,2.8-2.43,1.32-9.7,8.11-10.85,9.37-1.4,1.54-4.41,3.42-10.08,6.32-3.19,1.62-14.25,5.78-25,9.8-8.94,3.36-17.39,6.53-19.7,7.66-4.42,2.16-6.09,7.78-5.87,11.08.2,2.78,1.16,5.16,5.36,8.4,2.89,2.23,7.73,4.32,13.33,6.75,2.18.94,4.43,1.91,6.74,3,8.73,4,17.49,10.37,19.94,12.83l.65.64c3,3,10.1,9.93,12.82,18.1,2.88,8.64,22,56.74,25,63.8a253.45,253.45,0,0,1,8.6,24.12,133.5,133.5,0,0,1,3.48,19.34c.37,4.48,1.14,16.49,1.55,22.94a132.13,132.13,0,0,1-.24,17.87c-.25,2.85-3.41,20.21-3.7,21.73-.06.3-.13.74-.22,1.26-.47,2.77-1.34,7.93-2.6,10.65-.5,1.1-1.65,3.64-3,6.58-2.43,5.4-5.46,12.11-6.54,14.34-1.59,3.3-2.39,5-2.73,8.74a67.16,67.16,0,0,0,.24,10.39c.08,1.13.16,2.3.23,3.55.34,5.57,1.12,8.09,2.63,11.33,1.39,3,32.93,43.87,37.12,49a83.8,83.8,0,0,0,13,12.28c3.83,3,23.53,17.49,36.56,27.07,5.45,4,9.76,7.18,11.26,8.3,4.93,3.66,5.87,5.39,7,7.38.08.16.17.31.26.47,1.08,1.94,1.13,4.92,1.17,7.1,0,.54,0,1,0,1.36s0,.7,0,1.08a9.92,9.92,0,0,0,2.12,6.73c2.32,3.18,5.41,3.72,9.33,4.42l1.21.21c2.84.53,9,1.75,14.34,2.83,3.12.63,6.07,1.22,7.88,1.57,5.67,1.11,7,5.07,7.43,6.37a16.07,16.07,0,0,1,.43,2,19,19,0,0,0,1.85,6.12c.72,1.29,3.07,3.73,10.21,8l.17.1a13.1,13.1,0,0,1,5,5.86c.57,1.73,4.22,9.44,5.86,11.52.91,1.16,9.12,11.22,15.83,8.24A22.09,22.09,0,0,1,699.6,998.2Zm408.18-180Z"/></svg>