<?xml version="1.0" encoding="utf-8"?>
<!-- Generator: Adobe Illustrator 24.0.1, SVG Export Plug-In . SVG Version: 6.00 Build 0)  -->
<svg version="1.1" id="Oval__Config" xmlns="http://www.w3.org/2000/svg" xmlns:xlink="http://www.w3.org/1999/xlink" x="0px"
	 y="0px" viewBox="0 0 1920 1080" style="enable-background:new 0 0 1920 1080;" xml:space="preserve">
<style type="text/css">
	.st0{fill:#FFFFFF;}
</style>
<title>active</title>
<path class="st0" d="M1685.5,264.2c-61.1-58.7-144.2-94.9-222.2-96.9c-265-6.9-666.1-12.6-924.3-6C316.5,167,179,339.5,174.7,503
	c-1.5,57.9,7.2,111.6,26.1,159.7c16.8,43,41.8,81.6,74.1,114.9c37.8,38.9,86.2,70.6,140.2,91.7c44.9,17.6,92,27.3,132.6,27.4
	c229.7,0.4,388.3,1.4,515.8,2.1c105.2,0.6,189.9,1.2,277.8,1.2c37,0,74.7-0.1,114.6-0.3c139.8-0.7,222.7-72.7,267.7-133
	c24.8-33.2,45-72.4,58.4-113.3c11.7-35.5,18.1-72,18-102.7C1799.7,404.4,1737.6,314.2,1685.5,264.2z M1683.5,736.7
	c-38.2,51.2-108.7,112.3-227.9,112.9c-134.4,0.7-242.4,0.1-391.8-0.8c-127.5-0.8-286.2-1.7-516-2.2c-67.8-0.1-167.4-32.3-237-104
	c-59.7-61.4-88.6-141.6-86.1-238.4c3.7-140.2,122.8-288.1,315.6-293c257.2-6.6,657.3-0.9,921.7,6c65.9,1.7,136.5,32.7,188.9,83
	c45.1,43.2,98.8,121.7,99.1,250.4C1750.1,595.3,1732.7,670.7,1683.5,736.7z"/>
</svg>
