<?xml version="1.0" encoding="utf-8"?>
<!-- Generator: Adobe Illustrator 25.0.0, SVG Export Plug-In . SVG Version: 6.00 Build 0)  -->
<svg version="1.1" id="Sprintstrecke" xmlns="http://www.w3.org/2000/svg" xmlns:xlink="http://www.w3.org/1999/xlink" x="0px"
	 y="0px" viewBox="0 0 1920 1080" style="enable-background:new 0 0 1920 1080;" xml:space="preserve">
<style type="text/css">
	.st0{fill:#FFFFFF;}
</style>
<path class="st0" d="M1278.7,120.6l0-0.3c-0.1-1.3-1.4-13.3-7.6-19.5c-12.9-13.6-29.2-10-37.9-8.1c-0.8,0.2-1.5,0.3-2.2,0.5
	c-4,0.8-20.4,4.3-36.3,7.7l-33.8,7.3c-5.2,1.1-20.2,7.7-33.9,13.8c-2.8,1.3-5.1,2.3-5.7,2.5l-0.4,0.2c-5.7,2.2-10.9,6.7-5.8,22.8
	c0.5,2,0.2,2.6,0,2.9c-1.3,2.2-8.5,3.9-10.8,4.4l0,0c-0.3,0.1-0.7,0.1-1.1,0.2l-12.7,3c-11.5,2.7-27.4,6.4-34.1,7.9
	c-18.4,4.1-148.2,34.7-166.9,39.3c-7.9,1.5-20.9,6.1-42.5,27.6c-5.2,5.5-19.3,22.3-32.9,38.5c-11.8,14.1-23,27.3-26,30.5
	c-6.7,7-54.1,62.4-56.5,65.2c-0.4,0.5-1.1,1.1-1.8,1.9c-3.9,3.9-10.5,10.4-13.1,28l-0.1,0.9c-0.4,5.8-1.3,19.3,16.3,30.5
	c9.6,5.8,42.5,21,53.5,25.6c0.8,0.3,1.6,0.7,2.5,1c13.7,5.6,26.8,12.5,23.5,28.3c-2.1,6.7-2.1,6.7-3.1,9.5c-0.5,1.4-1.3,3.6-2.7,7.7
	c-3.4,10.1-28.8,83.7-29.1,84.5c-0.9,2.7-3.1,12.3,7,24.4c2.5,3.2,8.9,7.6,17,7.6c4.2,0,8.9-1.2,13.6-4.3c3.7-2.1,9.1-8.8,13.4-21.4
	c0.3-1,8.1-23.5,8.8-25.6c0.7-2.2,2.1-6,3.8-10.5c3.7-10.2,8.4-22.9,9.5-29.1c0.5-2.8,2.7-14.3,5.4-28.7c5.6-30.1,13.3-71.4,14-75.1
	c0.1-0.4,0.2-1,0.3-1.5c0.9-4.1,2.5-11.7-1.9-17.7c-3.2-4.3-8.9-6.8-16.9-7.5c-6.8-0.6-18.1-1.3-20.6-1.3c-1.3,0-9.1-1.3-13.8-6.6
	c-2.8-3.2-4-7.3-3.5-12.3c0-0.2,0-0.4,0.1-0.6c0.3-3.2,1-11.5,14.9-17.2c14.9-6.1,26.1-8,41.6-10.5l3.8-0.6
	c17.6-2.9,22.1-2.8,34.8-1.3c6.7,1.3,13.2,6.1,17.4,12.7c5,7.9,6.3,17.8,3.8,27.9c-2.2,6.5-4.7,9.6-8.7,14.6c-0.9,1.1-1.9,2.4-3,3.7
	c-4.8,6.2-10,20.1-13.7,30.2c-1,2.6-1.8,4.9-2.5,6.6c-3.7,9.2-1.6,18.5,2.7,21.3c5,3.3,11.7,0.4,21-5.4c9.2-5.8,37.2-23.4,58.5-39.1
	c18.3-13.5,38.9-34.7,46.7-42.7c1.2-1.2,2.1-2.2,2.7-2.7c0.6-0.6,2.1-2.1,4.3-4.3c14.7-14.6,59.3-59.2,69-68.1
	c6.3-5.7,41.6-39.8,72.8-69.8c24.9-23.9,48.3-46.5,51.1-49.1c2.4-2.2,9.7-9.2,18.6-17.9c3.4-3.2,6.5-6,9.3-8.5
	c6.3-5.7,11.3-10.1,15-15.2C1279.6,131.4,1279,124.4,1278.7,120.6z M1269,135.6c-3.4,4.6-8.2,8.9-14.2,14.3c-2.8,2.5-6,5.4-9.5,8.7
	c-8.9,8.7-16.1,15.7-18.5,17.8c-2.9,2.6-25.3,24.2-51.3,49.2c-31.2,30-66.5,64-72.7,69.7c-9.8,9-54.5,53.6-69.2,68.3
	c-2.2,2.2-3.8,3.8-4.3,4.3c-0.6,0.6-1.5,1.5-2.7,2.8c-7.7,7.9-28,28.8-45.9,42c-21.1,15.6-49,33.1-58.1,38.9
	c-7.9,5-12.6,6.8-14.5,5.5c-1.4-0.9-3.3-7-0.5-14.1c0.7-1.8,1.6-4.1,2.6-6.8c3.4-9.2,8.5-23.1,12.8-28.6c1-1.3,2-2.5,2.9-3.7
	c4.2-5.2,7.2-8.9,9.8-16.6l0.1-0.2c3-11.8,1.4-23.4-4.5-32.7c-5.1-8-13.1-13.8-21.4-15.4l-0.2,0c-13.3-1.6-18.3-1.7-36.6,1.3
	l-3.8,0.6c-15.9,2.6-27.4,4.4-42.9,10.8c-17.2,7.1-18.2,18.5-18.5,22.2c0,0.2,0,0.4-0.1,0.5c-0.7,6.8,1,12.5,5.1,17
	c6.3,7,16.1,8.5,18.2,8.5c2.1,0,13,0.6,20,1.3c6.2,0.5,10.4,2.3,12.6,5.1c2.8,3.8,1.6,9.2,0.9,12.8c-0.1,0.7-0.3,1.2-0.3,1.7
	c-0.6,3.7-8.3,44.9-14,75c-2.7,14.4-4.8,25.9-5.4,28.7c-1.1,5.7-5.8,18.7-9.3,28.2c-1.7,4.5-3.1,8.5-3.8,10.8
	c-0.7,2-8.7,25.3-8.8,25.5c-4.1,11.9-8.8,17.1-10.8,18.2l-0.2,0.1c-10.8,7.1-20.4,1.1-22.7-1.9l-0.1-0.1c-8.1-9.8-6.6-16.7-6-18.7
	c0.3-0.7,25.6-74.4,29.1-84.5c1.4-4.1,2.2-6.2,2.7-7.7c1-2.9,1-3,3.2-9.8l0.1-0.3c4.7-22.2-16-30.7-27.1-35.3
	c-0.9-0.4-1.7-0.7-2.4-1c-10.9-4.6-43.4-19.6-52.7-25.2c-14.6-9.2-13.9-19.5-13.5-24.9l0-0.6c2.3-15.5,7.7-20.9,11.3-24.5
	c0.8-0.8,1.5-1.5,2.2-2.3c3.9-4.7,50-58.4,56.2-64.9c3.1-3.3,14.4-16.6,26.3-30.7c13-15.4,27.7-32.8,32.7-38.2
	c20.4-20.4,32.2-24.6,39.4-25.9l0.2,0c18.3-4.6,148.4-35.2,166.8-39.3l0,0c6.7-1.5,22.6-5.2,34.1-8c5.1-1.2,9.8-2.3,12.1-2.8l0,0
	l1.7-0.4c7.2-1.7,12.4-3.5,14.6-7.2c1.2-2.1,1.4-4.6,0.6-7.6l0-0.1c-4.1-13-0.4-14.4,2.3-15.5l0.5-0.2c0.8-0.3,2.9-1.2,6-2.6
	c9-4,27.6-12.4,32.7-13.4l29.5-6.4l4.3-0.9c15.9-3.4,32.3-6.9,36.2-7.7c0.7-0.1,1.5-0.3,2.3-0.5c8.6-1.9,21.7-4.7,32.3,6.4
	c3.9,3.9,5.6,12.1,5.9,15.9l0,0.3C1273,124.6,1273.4,129.6,1269,135.6z"/>
</svg>
