<?xml version="1.0" encoding="utf-8"?>
<!-- Generator: Adobe Illustrator 24.0.1, SVG Export Plug-In . SVG Version: 6.00 Build 0)  -->
<svg version="1.1" id="Daytona_2008_Road_-_Config" xmlns="http://www.w3.org/2000/svg" xmlns:xlink="http://www.w3.org/1999/xlink"
	 x="0px" y="0px" viewBox="0 0 1920 1080" style="enable-background:new 0 0 1920 1080;" xml:space="preserve">
<style type="text/css">
	.st0{fill:#FFFFFF;}
</style>
<title>active</title>
<path class="st0" d="M1843.9,250.3c-28.1-58.7-68-96.4-89.2-113.6c-106.9-86.6-233.7-87-317.7-87.2c-7,0-13.6,0-19.9-0.1l-38.8-0.4
	c-149.7-1.6-304.5-3.3-516.3-3.8c-10.8,0-39.3-0.1-60.2,23.7c-13.9,15.8-22.8,19.6-30.3,21.3c-9.7,2.2-38.9,5.3-49.5,6.3
	c-26.6,1.7-34-6.1-39.9-14.9c-23.7-36-48.7-37-66.9-37.7l-2.2-0.1c-42.1-1.8-168.6-2.2-169.9-2.2l-0.3,0l-0.3,0
	c-119.9,6.7-194.6,45.6-228.4,68.3c-51,34.1-90.1,77.6-116.4,129.5c-25,49.2-31.9,94.1-33.8,116.4c-7.7,91.7,17.2,174,74,244.6
	c51.7,64.2,119,104.8,166.3,127.6C368.8,759,468.8,799.5,549.1,832c34.9,14.1,67.9,27.5,93.4,38.2c124.3,52.3,235,79.1,329.2,79.9
	c1.1,0,2.1,0,3.2,0c51.9,0,115.2-10.1,183.4-29.3c63.1-17.8,128.9-42.7,190.2-72.2c28.5-13.7,53.8-43.8,64.3-76.8
	c7.9-24.8,6.6-48.7-3.8-67.5c-9.8-17.7-25.7-31.3-47.3-40.5c-22.9-9.7-53.1-14.7-89.6-14.7c-14.3,0-26.7,0-54.4-23
	c-16.6-13.8-29.9-20.2-80.1-19.9c-22.2,0.1-135.9,0.5-190.6-4.7c-9.9-0.9-34.6-10.6-34.6-27.9c0-6.7,0-24.6,47.5-36.4
	c34.5-8.5,63.3-10.2,144.7-11.7c72.2-1.3,173.5-1.3,237,1.8c11.4,0.5,70.3,1.9,108.9-25.8c3.8-2.7,7.4-5.2,10.8-7.7
	c33.4-23.7,55.4-39.4,140.8-120.4c5.8-5.5,57.6-53.1,91.1-29.5c11.4,8.1,21.5,33.6-0.3,67.6c-43.7,68.2-160.3,161.5-195.1,188.5
	c-16,12.4-52,45.3-41.4,82.9c6.1,21.6,34.1,34.5,66.6,49.5c3,1.4,6.1,2.8,9.2,4.2l0,0c44.9,20.9,82.8,7.4,97,0.6
	c93.2-44.4,219.8-123,243.1-291.8C1881.8,375.5,1872.3,309.8,1843.9,250.3z M1852.3,442.7c-22,159.3-142.9,234.1-231.9,276.5
	c-11.7,5.6-42.8,16.6-80-0.7l0,0c-3.1-1.4-6.2-2.9-9.2-4.3c-25.6-11.8-52.1-24-55.7-36.7c-7.5-26.6,24.5-53.9,34.4-61.7
	c35.4-27.5,154.2-122.6,199.6-193.5c15.5-24.2,17.1-44.4,15.7-57c-1.8-16-9.3-29.7-20.7-37.8c-18-12.7-41.3-13.4-67.4-2.1
	c-23.1,10.1-42,26.7-49,33.4c-84.3,80-105.9,95.4-138.6,118.6c-3.5,2.5-7.1,5-10.9,7.7c-33.9,24.3-90,22.4-96.3,22.1
	c-63.9-3.1-165.8-3.1-238.3-1.8c-83.1,1.5-112.8,3.3-149.2,12.3c-42.2,10.5-62.7,28.7-62.7,55.8c0,30.3,34.3,46.1,52.7,47.8
	c55.7,5.2,170.2,4.9,192.6,4.8c1,0,2.1,0,3.1,0c45.7,0,53.1,6.1,64.2,15.3c30.9,25.6,47.3,27.6,67.2,27.6
	c62.8,0.1,103,15.1,119.4,44.8c9.8,17.8,6.7,38,2.2,51.8c-8.8,27.5-30.5,53.6-53.9,64.8c-100.5,48.3-248.6,99.5-364.7,99.5
	c-1.1,0-2.1,0-3.2,0c-91.6-0.7-199.8-27.1-321.7-78.3c-25.6-10.8-58.7-24.2-93.6-38.3c-80.1-32.4-179.7-72.8-243.7-103.6
	C220,665.2,66.8,560.1,83.9,357.4c3.7-43.5,24.8-153,141.4-231c54.6-36.5,134.1-60.2,218.1-64.9c6.9,0,128.1,0.4,168.8,2.2l2.3,0.1
	c16.9,0.7,33,1.3,51,28.7c8.7,13.1,22.3,26.2,58,23.9l0.3,0c1.6-0.2,39.2-3.8,52.2-6.7c10.3-2.3,23.2-7.4,40.9-27.6
	c14.9-17,36.1-16.9,45.2-16.9c211.7,0.5,366.4,2.2,516.1,3.8l38.8,0.4c6.4,0.1,13,0.1,20,0.1c81.1,0.3,203.7,0.6,305.1,82.8
	C1782.7,185.2,1874.9,279.4,1852.3,442.7z"/>
</svg>
