<?xml version="1.0" encoding="utf-8"?>
<!-- Generator: Adobe Illustrator 25.0.0, SVG Export Plug-In . SVG Version: 6.00 Build 0)  -->
<svg version="1.1" id="Kurz_w_out_Arena" xmlns="http://www.w3.org/2000/svg" xmlns:xlink="http://www.w3.org/1999/xlink" x="0px"
	 y="0px" viewBox="0 0 1920 1080" style="enable-background:new 0 0 1920 1080;" xml:space="preserve">
<style type="text/css">
	.st0{fill:#FFFFFF;}
</style>
<path class="st0" d="M1278.6,120.5l0-0.2c-0.2-2.2-1.5-13.5-7.6-19.5c-12.9-13.6-29.2-10-37.9-8.1c-0.8,0.2-1.5,0.3-2.2,0.5
	c-3.4,0.7-16.2,3.4-38,8.1l-32.1,7c-5.1,1.1-19.7,7.5-34.8,14.2c-2.4,1.1-4.2,1.9-4.9,2.2l-0.5,0.2c-5.7,2.3-10.8,6.7-5.8,22.7
	c0.6,2,0.2,2.7,0.1,2.9c-1.3,2.2-8.5,3.9-10.9,4.4c-0.4,0.1-37.2,8.8-47.8,11.2c-18.7,4.2-148.6,34.7-166.9,39.3
	c-7.9,1.5-20.9,6.1-42.5,27.6c-5.2,5.6-19.6,22.6-33.4,39c-11.6,13.8-22.6,26.9-25.6,29.9c-6.3,6.6-53,60.9-56.5,65.2
	c-0.4,0.5-1.1,1.2-1.8,1.9c-3.9,3.9-10.5,10.4-13,27.9l-0.1,0.9c-0.4,5.8-1.3,19.3,16.3,30.5c9.6,5.8,42.5,21,53.5,25.6
	c0.8,0.3,1.6,0.7,2.5,1c13.7,5.6,26.8,12.5,23.5,28.3c-2.1,6.7-2.1,6.7-3.1,9.5c-0.5,1.4-1.3,3.6-2.7,7.7l0,0
	c-3.2,9.3-25.3,73.5-28.7,83.2l-0.5,1.3c-0.9,2.7-3.1,12.2,7,24.4c2.5,3.2,8.9,7.6,17,7.6c4.2,0,8.9-1.2,13.6-4.3
	c3.7-2.1,9.2-8.9,13.4-21.4c0.3-1,8.2-23.8,8.8-25.6c0.7-2.2,2.1-6.1,3.8-10.5c3.7-10.2,8.4-22.9,9.5-29.1c0.7-3.7,4-21.7,7.8-41.8
	l1.7-8.9c1.8-8.7,5.2-16.8,10.1-24.3c3.3-5,17-19,25.7-21.3c0.3-0.1,0.5-0.1,0.6-0.1c0.2,0.3,0.9,1.9,0.4,7
	c-0.3,5.2,0.8,13.8,5.1,22.4l0.4,0.8l6.2,3.7h0.8c3.7,0,8.6-2,16.2-6.8c10.7-6.7,37.7-23.8,58.5-39.1c18.5-13.6,39.1-34.9,46.9-42.9
	c1.1-1.1,1.9-2,2.5-2.5c0.6-0.6,61.9-61.9,73.4-72.4c5.9-5.4,37.6-35.9,68.1-65.3c27.2-26.1,52.8-50.8,55.8-53.5
	c2.1-1.9,7.9-7.5,18.6-17.9c3.3-3.1,6.4-5.9,9.1-8.3c6.4-5.8,11.5-10.3,15.2-15.5C1279.6,131.3,1279,124.3,1278.6,120.5z
	 M1269,135.6c-3.4,4.7-8.3,9-14.4,14.5c-2.8,2.5-5.9,5.3-9.3,8.5c-7.2,7-15.8,15.4-18.5,17.8c-3.1,2.8-28.8,27.5-56,53.7
	c-30.6,29.4-62.2,59.8-68,65.2c-11.7,10.8-72.9,72-73.6,72.6c-0.5,0.5-1.4,1.4-2.5,2.6c-7.7,7.9-28,28.9-46.1,42.2
	c-20.6,15.2-47.5,32.2-58.1,38.9c-5.8,3.6-9.8,5.5-12.3,5.9l-3.2-1.9c-3.4-7.3-4.4-14.5-4.1-18.5c0.6-6.3-0.2-10.2-2.6-12.2
	c-1.1-0.9-3-1.8-6-1c-10.8,2.9-25.5,18.2-29.1,23.8c-5.3,8-9,16.9-11,26.4l-1.7,9c-3.8,20.1-7.1,38.1-7.8,41.8
	c-1.1,5.7-5.8,18.7-9.3,28.2c-1.7,4.5-3.1,8.5-3.8,10.8c-0.5,1.4-5.9,17.3-8.8,25.5c-4,11.9-8.8,17.1-10.8,18.2l-0.2,0.1
	c-10.8,7.1-20.4,1.1-22.7-1.9l-0.1-0.1c-8.1-9.8-6.6-16.7-6-18.7l0,0c0.3-0.7,0.6-1.7,1.2-3.2l3-8.7c2.5-7.2,5.8-16.9,9.3-26.9
	c6.9-20,14.1-41.1,15.7-45.7c1.4-4.1,2.2-6.2,2.7-7.7c1-2.9,1-3,3.2-9.8l0.1-0.3c4.7-22.2-16-30.7-27.1-35.3c-0.9-0.4-1.7-0.7-2.4-1
	c-10.9-4.6-43.4-19.6-52.7-25.2c-14.6-9.2-13.9-19.5-13.5-24.9l0-0.6c2.3-15.5,7.7-20.9,11.3-24.4c0.8-0.8,1.6-1.6,2.2-2.3
	c3.6-4.3,50-58.3,56.2-64.9c3.1-3.2,13.6-15.7,25.8-30.2c13.2-15.6,28.1-33.3,33.1-38.7c20.4-20.4,32.2-24.6,39.4-25.9l0.2,0
	c17.9-4.5,148.1-35.1,166.8-39.3c10.7-2.4,47.5-11.1,47.9-11.2c7.2-1.7,12.5-3.5,14.7-7.2c1.2-2.1,1.4-4.6,0.5-7.7
	c-4.1-12.9-0.4-14.4,2.2-15.4l0.6-0.2c0.7-0.3,2.4-1.1,5-2.2c8.5-3.8,28.3-12.7,33.6-13.8l32.1-7c21.8-4.7,34.6-7.4,38-8.1
	c0.7-0.1,1.5-0.3,2.3-0.5c8.1-1.8,21.7-4.8,32.4,6.4c3.9,3.9,5.5,11.8,5.9,15.9l0,0.2C1273,124.5,1273.5,129.6,1269,135.6z"/>
</svg>
