<?xml version="1.0" encoding="utf-8"?>
<!-- Generator: Adobe Illustrator 25.0.0, SVG Export Plug-In . SVG Version: 6.00 Build 0)  -->
<svg version="1.1" id="Mullenbachschleife" xmlns="http://www.w3.org/2000/svg" xmlns:xlink="http://www.w3.org/1999/xlink" x="0px"
	 y="0px" viewBox="0 0 1920 1080" style="enable-background:new 0 0 1920 1080;" xml:space="preserve">
<style type="text/css">
	.st0{fill:#FFFFFF;}
</style>
<path class="st0" d="M880.3,719.1c-1.9-5.8-5.7-10.2-11-12.5c-5.3-2.4-20.2-9.4-30.5-14.7l-8.3-4.5c-0.7-0.4-1.3-0.8-2-1.2l-0.6-0.4
	c-4.7-3.4-11.8-8.6-16.7-20.1c-1.4-3.7-4.7-12.4,2.6-32.3c1.2-3.3,3.9-11,7.1-20.2c0.5-1.6-0.3-3.3-1.8-3.8
	c-1.6-0.5-3.3,0.3-3.8,1.8c-3.2,9.1-5.9,16.8-7.1,20.1c-8.2,22.1-4.2,32.2-2.6,36.6l0,0.1c2.8,6.7,6.4,11.5,9.8,15.1
	c-5.6,0.1-12.1,2.3-21,7.5c-0.4,0.2-0.8,0.5-1.2,0.7c-3.1,1.8-7.4,4.3-10.7,3.2c-2-0.6-3.7-2.5-5.1-5.5c-1-2.2-1.5-6-2-10
	c-0.1-0.6-0.1-1.2-0.2-1.8s-0.2-1.2-0.3-1.8c0-0.3-0.1-0.6-0.1-0.9c-1.2-8.1-3.7-16.9-12.2-18.6c-0.3-0.1-0.7-0.1-1-0.2l-0.1,0
	c-3.8-0.3-6.7,0.6-9.7,5.2c0,0,0,0,0,0.1c-0.3,0.4-0.6,0.9-0.9,1.5c-0.1,0.1-0.2,0.3-0.3,0.5c-0.1,0.1-0.1,0.3-0.2,0.4
	c0,0,0,0.1-0.1,0.1c-1.4,2.6-2.8,6.1-4.3,10.6l-5.1,19.8l0,0.2c-1.4,7-1.8,13.2-1.2,18.2c1,9.5,2.5,14.5,4.6,21.6
	c1.3,4.2,2.7,9.1,4.4,16c2.2,18.8-4.7,31.1-10.9,38.1c-7.5,8.6-12,12.7-18.7,18.9l-3,2.8c-3.1,2.9-12.8,12-25,23.6
	c-21.5,20.4-51,48.3-63.7,60c-4,2.7-15.5,12.2-12.1,31.2c0.4,2.8,3.8,10.1,11.2,14.3c2.9,1.6,6.9,3.1,12.2,3.1c4,0,8.8-0.8,14.2-3.1
	l0.3-0.1c4.4-2.4,6.9-6.2,12.2-14.8c1.5-2.4,3.3-5.2,5.4-8.5c1.3-2,2.5-3.9,3.7-5.8c7.6-11.9,14.8-23.1,28.4-41.4
	c13.8-18.5,23.8-26.9,33.5-35.1c1.2-1,2.5-2.1,3.7-3.1c24.3-20.6,41.3-33.7,50.5-39c12.9-7.4,50.4-27.5,63.5-33.4l0.3-0.2
	c0.2-0.1,0.7-0.4,1.4-0.7c5-2.4,18.3-8.9,22.9-16.8C881.8,734,882.5,725.8,880.3,719.1z M873.2,736.8c-3.7,6.3-16.2,12.4-20.3,14.4
	c-0.9,0.4-1.3,0.7-1.7,0.8c-13.4,6-51,26.2-63.9,33.6c-9.5,5.4-26.8,18.8-51.4,39.6c-1.2,1-2.4,2.1-3.7,3.1
	c-9.5,8-20.3,17-34.5,36.1c-13.7,18.5-21,29.8-28.6,41.8c-1.2,1.9-2.4,3.8-3.7,5.8c-2.1,3.3-3.9,6.1-5.4,8.6
	c-4.8,7.7-6.8,10.9-9.8,12.6c-8.3,3.4-15.4,3.5-21.1,0.3c-5.5-3.1-8-8.5-8.2-10c-2.7-15.3,5.9-22.8,9.7-25.3l0.4-0.3
	c12.6-11.6,42.3-39.7,64-60.2c12.2-11.6,21.9-20.7,25-23.6l3-2.8c6.9-6.3,11.4-10.5,19.1-19.4c7-8,14.8-21.9,12.3-42.9l-0.1-0.4
	c-1.7-7.2-3.2-12.1-4.5-16.5c-2-6.7-3.5-11.6-4.4-20.5c-0.5-4.4-0.1-10,1.1-16.4l5-19.3c0.1-0.4,0.3-0.7,0.4-1.1c0,0,0-0.1,0-0.1
	c0.1-0.3,0.2-0.6,0.3-0.9c0-0.1,0.1-0.2,0.1-0.3c0.1-0.2,0.2-0.4,0.2-0.7c0.1-0.2,0.1-0.3,0.2-0.5c0.1-0.1,0.1-0.3,0.2-0.4
	c0.1-0.2,0.2-0.5,0.3-0.7c0-0.1,0.1-0.1,0.1-0.2c3.6-9.1,5.6-9.4,7.2-9.3c0.1,0,0.1,0,0.2,0c1.1,0.1,2.1,0.5,2.9,1.1
	c3,2.1,4.3,6.9,5.2,13.3c0.2,1.2,0.3,2.4,0.5,3.6c0.6,4.5,1.1,8.8,2.6,11.8c2.2,4.6,5.1,7.5,8.8,8.7c0.3,0.1,0.7,0.2,1,0.3
	c0.1,0,0.2,0,0.3,0.1c0.2,0,0.5,0.1,0.7,0.1c0.1,0,0.2,0,0.3,0c0.2,0,0.5,0,0.7,0c0.1,0,0.2,0,0.3,0c0,0,0.1,0,0.1,0
	c0.6,0,1.2,0,1.8-0.1c0.1,0,0.2,0,0.3,0c0.2,0,0.5-0.1,0.7-0.1c0.1,0,0.2,0,0.3-0.1c0.2-0.1,0.5-0.1,0.7-0.2c0.1,0,0.2,0,0.3-0.1
	c0.6-0.2,1.2-0.4,1.8-0.6c0.1,0,0.2-0.1,0.3-0.1c0.2-0.1,0.4-0.2,0.6-0.3c0.1,0,0.2-0.1,0.3-0.1c0.2-0.1,0.4-0.2,0.6-0.3
	c0.1,0,0.2-0.1,0.3-0.1c0.3-0.1,0.5-0.3,0.8-0.4c0,0,0,0,0,0c0.3-0.1,0.5-0.3,0.8-0.4c0.1,0,0.2-0.1,0.3-0.1
	c0.2-0.1,0.3-0.2,0.5-0.3c0.1-0.1,0.2-0.1,0.3-0.2c0.2-0.1,0.3-0.2,0.5-0.3c0.1,0,0.2-0.1,0.2-0.1c0.2-0.1,0.4-0.3,0.6-0.4
	c0.4-0.2,0.8-0.5,1.2-0.7c5.5-3.2,9.9-5.1,13.5-6c6.8-1.7,11.2,0,16.3,2.7c0,0,0,0,0,0l0.3,0.2c2.8,1.7,5.7,3.2,8.6,4.6
	c0,0,0.1,0,0.1,0c10.5,5.3,25.3,12.3,30.6,14.7c4.7,2.1,6.8,6,7.7,8.9C876.3,726.1,875.7,732.4,873.2,736.8z"/>
</svg>
