<?xml version="1.0" encoding="utf-8"?>
<!-- Generator: Adobe Illustrator 25.0.0, SVG Export Plug-In . SVG Version: 6.00 Build 0)  -->
<svg version="1.1" id="Gesamtstrecke_Short_w_out_Arena"
	 xmlns="http://www.w3.org/2000/svg" xmlns:xlink="http://www.w3.org/1999/xlink" x="0px" y="0px" viewBox="0 0 1920 1080"
	 style="enable-background:new 0 0 1920 1080;" xml:space="preserve">
<style type="text/css">
	.st0{fill:#FFFFFF;}
</style>
<path class="st0" d="M665.5,945.2c-2,0-3.9-0.8-5.3-2.3c-3.2-3.8-2.5-6.8-2.2-7.7l1.8-5.3c1.5-4.4,3.7-10.7,5.1-14.9l1.3-3.9
	c0.4-1.3,0.6-1.9,0.8-2.3c0.2-0.7,0.3-0.8,0.8-2.6c0.8-4.1-2.5-5.8-6.4-7.4l-0.7-0.3c-3.1-1.3-12.5-5.6-15.4-7.4
	c-5.4-3.4-5.1-7.7-5-9.3l0-0.3c0.8-5.3,2.8-7.2,3.9-8.4c0.2-0.2,0.3-0.3,0.5-0.5c0.1-0.2,14.2-16.6,16.2-18.7c0.9-0.9,4.5-5.2,8-9.3
	c3.7-4.4,7.5-8.9,8.9-10.4c6.3-6.3,10.2-7.7,12.5-8.1c4.9-1.2,42.4-10.1,47.7-11.2c2.7-0.6,6.3-1.5,9.7-2.3c3.4-0.8,6.6-1.6,8.5-2
	c2.6-0.6,2.9-1,3.1-1.5c0.1-0.1,0.1-0.2,0.2-0.4c0.1-0.1,0.2-0.7,0.3-1.1c0.4-1.6,0.9-3.8,2.2-5.3c1.7-2,3.9-3.5,6.5-4.2l13.7-2.9
	l9-1.9c1.9-0.5,3.6-1.8,4.5-3.6l0.1-0.2c0.6-0.8,1-3.1,0-6.2l-4.7-5.5c-1.4-2.1-3.3-4.9-4.7-7c-0.9-1.4-1.6-2.4-1.9-2.8
	c0,0-0.9-1.3-2.3-1.4c-1.2-0.1-2.5,0.8-3.9,2.5c-2.9,3.6-4.7,7.2-6.3,10.3c-0.8,1.7-1.6,3.3-2.6,4.8c-2.6,4.3-4.8,7.4-11.7,10.9
	l-1.4,0.7c-5.5,2.8-7.8,4-11.2,5.1c-5,1.6-10.5,1.2-15.2-1.3c-3.6-1.7-6.3-3.3-8.7-4.7c-1.5-0.9-3-1.7-4.5-2.5
	c-3.3-1.7-7.3-3.7-9.9-4.2c-1.4-0.3-4.4-0.6-7.4-1c-2.2-0.3-4.6-0.6-6.2-0.8c-2.8-0.4-3.9-0.5-4.6-0.6c-0.3,0-0.5,0-0.7-0.1
	c-2.9-0.4-6.1,0.5-9.2,2.5l-0.2,0.1c-6.8,3.1-13.9-5.3-15.3-7.1l-0.1-0.1c-1.9-3-3.5-6.2-4.8-9.5c-0.6-1.3-1.6-2.5-2.9-3.3
	c-4.8-2.9-7.9-5.3-8.9-7.2c-1.1-1.9-1.5-4.1-1.7-5.5c-0.1-0.5-0.2-1-0.2-1.2c-0.5-1.8-2-3.1-3.8-3.3l-0.1,0
	c-1.7-0.3-4.8-0.9-7.9-1.6c-3.7-0.7-7.5-1.5-9.4-1.9l-1-0.2c-3.1-0.6-6.3-1.2-8.7-4.4c-2.1-2.9-2.1-5.1-2.1-6.6c0-0.2,0-0.5,0-0.7
	c0-0.3,0-0.7,0-1.2c0-1.3-0.1-3.4-0.6-4.3l-0.2-0.4c-0.7-1.4-1.3-2.4-4.7-5c-1.1-0.8-4.1-3-7.9-5.8c-10.4-7.7-26.2-19.3-29.3-21.7
	c-3.8-2.9-7.3-6.2-10.4-9.9c-1.3-1.6-27.8-35.7-29.2-38.6c-1.4-3-2.2-6.4-2.3-9.7c-0.1-0.9-0.1-1.8-0.2-2.7c-0.2-3.4-0.4-6-0.2-8.5
	c0.2-2.7,1-5.3,2.4-7.7c0.7-1.5,2.6-5.6,4.2-9.2c1.4-3,2.6-5.9,3.2-6.9c0.8-1.8,1.5-5.7,1.8-7.5c0.1-0.5,0.1-0.8,0.2-1.1
	c0.3-1.7,2.7-14.6,2.8-16.6c0.4-4.5,0.4-9,0.2-13.5l-0.1-0.9c-0.4-5.8-0.9-13.7-1.1-16.9c-0.5-4.9-1.4-9.8-2.7-14.5
	c-1.9-6.2-4.1-12.4-6.6-18.4c-2.3-5.3-17.2-42.9-19.5-49.7c-2-5.8-7.2-10.9-9.4-13.1l-0.5-0.5c-1.7-1.7-8.3-6.5-14.8-9.5
	c-1.8-0.8-3.5-1.6-5.2-2.3c-4.5-1.9-8.4-3.6-10.9-5.6c-3.4-2.6-4.9-5-5.1-8.3c-0.2-3,1.2-8.6,5.9-10.9c1.9-0.9,8.6-3.4,15.7-6.1
	c7.8-2.9,16.6-6.2,19-7.4c3.9-2,6.3-3.4,7.1-4.4c0.8-0.9,6.7-6.5,9.1-7.8c1-0.5,2.5-1.4,4-2.2c1.7-0.9,3.1-1.8,3.6-2
	c0.8-0.4,4.4-3.7,5.9-5.1l0.2-0.2c1.2-1.1,4-3.9,6.6-6.4c1.9-1.9,3.6-3.6,4.5-4.4c2.8-2.8,5.7-5.5,8.8-8c2.8-2.1,10.6-8.5,11.9-9.7
	c1.3-1.2,6.6-6.6,8.9-10.5c2.4-4,8.2-17.5,9.5-20.5c0.2-0.4,0.3-0.8,0.5-1.1c1.1-2.4,1.8-4,1.5-11c-0.3-3.3-0.3-6.6-0.2-10
	c0.4-4.7,3.2-8.6,7.3-10.7c4.8-2.6,5.2-3.2,5.7-4c0.6-1.1,2.5-4.1,2-5.9c-0.4-1.4-1.2-2.6-2.3-3.5L601,274c-1.4-1.6-2.2-3.7-2.2-5.8
	c0.1-2,0.8-3.9,2-5.5l0.1-0.1c0.7-0.7,10.5-9.4,13.5-11.2c2.1-1.2,6.9-4.7,9.8-6.8c1-0.7,1.9-1.4,2.3-1.7c1.4-1.1,2.7-2.4,3.8-3.8
	l0.4-0.5c1.7-1.9,6-7.1,8.8-9.5c1.1-0.9,3.1-2.8,5.6-5.1c3.9-3.6,8.9-8.2,11.5-10.3c3.5-2.9,6.6-6.2,9.2-9.9
	c1.2-1.6,2.2-2.9,3.2-4.2c1.1-1.5,2.2-2.9,3.3-4.3c1.5-2.1,2.6-4.5,3.2-7c0.8-2.9,0.7-5.9-0.1-8.7c-0.7-2.6-1.6-7.1-2.5-11.1
	c-0.7-3.2-1.3-6.3-1.6-7.3l0-0.1c-0.4-2-1.7-3.7-3.5-4.6c-2.4-1.4-4.5-1.1-6.6-0.8l-0.1,0c-2.4,0.3-5.9,0.7-11.3-2.6
	c-4.9-3.1-14.7-10.4-15.8-11.4c-2.8-2.3-4.1-5-3.9-7.9c0.3-4.4,1.8-6.3,6.4-8.3c5.8-2.6,12.9-6,15.7-7.8c4.1-2.7,8.1-5.7,11.7-9
	c3-2.8,3-3.6,3.3-6.7c0.1-1.2,0.1-2.2,0.2-2.9c0.1-1.4,0.1-2.3,0.5-3.3l0.1-0.2c1.6-3.1,3.5-6.2,5.6-9c0.7-0.9,1.4-2,2.1-3.1
	c1.6-2.4,3-4.6,4.4-5.7c1.7-1.7,3.7-3,5.8-3.9l0.2-0.1c3.1-1.5,4.9-2.4,9.2-2l0.1,0c4,0.4,7.9,0.8,12.8,4.2
	c4.7,3.3,21.1,15,22.2,15.9c0.1,0.1,0.2,0.2,0.3,0.3c1.2,0.9,3.8,2.8,5,8.3c1,4.8,4.2,4.5,4.8,4.4c0.6-0.1,1.5-0.5,2.7-2.9l0.1-0.3
	c1.2-2.3,3.2-6.2,11.1-6.8c7.5-0.6,29.1-1.5,31.6-1.5c0.5,0,0.9,0,1.3,0c1.7-0.1,3.4-0.2,7.5,1l1.6,0.5c4.9,1.4,12.3,3.6,14.6,3.9
	l0.1,0c2.4,0.5,4.8-0.3,6.3-2.2c2.4-2.7,5.2-7.9,5.6-10c0.6-3.2,0.8-6.4,0.7-9.7c0-0.4-0.1-0.9-0.1-1.4c-0.3-2.9-0.7-6.6,4-9.3
	c4.8-2.8,25.1-9.9,33.9-12.1c10-2.3,26.9-5.6,35.3-7c6.3-1.1,6.4-1.1,7-1.2c0.2,0,0.5-0.1,1.1-0.2c2-0.4,3.9-1.2,5.5-2.4
	c1.6-1.3,18.7-13.6,21.3-15.3c2.6-1.6,5.8-3.7,9.9-3.5c4.4,0.2,8.1,2.3,9.5,5.4c1.4,3,2.1,9.4,2.1,11.3c0,2-0.5,7.1-1,10.9l0,0.4
	c-0.6,4.6-1.9,15.2-1.1,23.1c0.3,2.7,0.3,4.8,0.4,6.9c0.1,4.5,0.2,8.4,2.6,15.9c0.8,2.1,1.4,3.8,1.8,5c1,2.8,1.2,3.4,1.8,4.1
	c0.2,0.2,0.4,0.6,0.8,1.1c1.6,2.3,5.4,7.6,7.6,9.4c4.7,4.2,9.8,7.9,15.2,11c2.8,1.5,10.8,5.1,14.2,6.6l1.4,0.6
	c1.2,0.6,3.9,1.7,6.5,2.8c1.7,0.7,3.4,1.5,4.6,2c2.6,1.1,7,1.6,13,1.4c6.3-0.2,13.8-0.3,17.4-0.2c4,0.1,15,1.6,18.5,2.2
	c1.7,0.3,6,0.9,10.6,1.5c5.2,0.7,10.7,1.5,12.4,1.8c2.6,0.5,6.1,1.6,9.8,2.8c1,0.3,2.1,0.7,3.1,1c1.3,0.4,2.5,0.8,3.9,1.2
	c3.6,1.1,7.2,2.2,10.9,3.7c4.9,2,10.6,5.6,13.2,8.4c2.9,3,6.2,5.8,9.7,8.2c2.5,1.5,16.9,9.4,20.5,10.9c3.5,1.5,5.2,1.9,7.4,1.7
	c3.6-0.2,7.3-0.9,10.8-1.9c3.5-1.1,14.8-7.3,17.4-8.8c2.6-1.5,16.1-11.3,20.1-14.8c1.4-1.2,2.5-2.3,3.5-3.2c1.8-1.7,3-2.9,4.5-3.5
	c3-1.1,6.1-1.9,9.2-2.2c1.2-0.2,3.4-0.5,5.7-0.9c4.5-0.7,9.7-1.5,11.5-1.6c2.6,0,5.1-0.2,7.6-0.6c0.4-0.1,1-0.2,1.6-0.4
	c2.4-0.6,5.7-1.4,7.3-1.9c2.9-1,6.7-1.2,8.9,1c1.9,1.9,3.6,3.8,3.7,6.4c0.1,2,0.3,7.1-4.1,10.7c-3.5,2.8-9.7,7.5-12.5,8.9
	c-2.3,1.3-4.4,2.9-6.2,4.9c-1.9,2-4,3.7-6.3,5.1l-0.1,0.1c-0.7,0.3-2.1,1.4-3.5,2.4c-1.7,1.2-3.5,2.5-4.7,3.1
	c-2.4,1.2-4.1,2.2-4.9,2.6c-1.7,0.9-2.5,2.7-2,4.5c0.5,1.8,2.2,3.1,4.1,3.1c0.6,0,3.2-1.1,3.7-2.8c0.8-2.8,2.2-6.7,5.1-9l0.3-0.2
	c2.8-2.3,7-5.7,9.4-6.9c1.6-0.8,3.8-1.4,6.5-2.2c1.4-0.4,3-0.8,4.8-1.4c2.3-0.7,5.5-1.6,8.6-2.5c3.4-1,6.9-2,7.7-2.3l0.1,0
	c2.6-0.8,5.4-1.3,8.1-1.3c0,0,0,0,0.1,0c3.4-0.1,6.8-0.5,10.1-1.2c1.5-0.4,3.1-1.7,4.3-2.7c0.6-0.5,1.1-0.9,1.5-1.1
	c0.5-0.3,2.1-1.5,3.6-2.7c1.3-1,2.7-2.1,3.9-3c2.1-1.5,4-3.3,5.5-5.4c0.3-0.5,1.1-1.5,2.2-3.2c1.3-1.8,2.9-4.1,3.6-5.1
	c1.1-1.5,1.6-3.2,1.7-4.9c-0.2-2.8-0.6-5.6-1.2-8.3c-0.6-3,0-6,1.8-8.5l1-1.4c2.2-3.2,6.3-9.2,7.5-11c1.4-2.1,3.3-3.7,5.7-4.6
	c2.3-0.8,4.7-0.9,7-0.4c2,0.5,3.6,1.5,4.7,2.2c0.3,0.2,0.6,0.4,0.8,0.5l0.1,0.1c2.6,1.6,5.3,3,8.1,4.3c1.6,0.6,4.4,1.1,6.5,1.5
	c1.8,0.3,2.6,0.5,3,0.7c0.3,0.1,2,0.7,3.4,1.1c1.8,0.5,3.6,1.1,4.5,1.5c0.5,0.2,1.2,0.4,2.1,0.7c3.1,1,5.6,1.8,6.7,2.7
	c0.2,0.1,0.4,0.3,0.6,0.4c1.9,1.4,5.4,4,7,7.3c1.5,3.1,3.6,5.9,6.2,8.2c2.4,1.5,5,2.8,7.7,3.6c1.9,0.2,3.9,0.3,5.8,0.3l0.1,0l0.1,0
	c2.8,0.3,5.4,1.5,7.3,3.4c2.1,2.1,13.1,15.2,15.4,18.8c1.8,3.1,2.5,6.6,1.9,10.1l0,0.1c-0.6,2.4-1.5,4.6-2.7,6.8
	c-2.1,3.6-3.8,7.4-5.2,11.3c-1.2,3.1-2.2,6.3-3,9.5c-0.5,2.3,1.5,5.6,3.6,7.7l0.3,0.3c1.9,1.9,4.3,4.3,8.1,5.5
	c2.8,0.9,5.7,1.5,8.7,1.9c3.9,0.2,7.6,4.7,7.8,7.4c0.2,2,1.8,19.2,1.9,23.1c0.2,3.7-0.7,6.8-2.6,8.9c-2.5,2.8-6.1,3.3-8,3.4
	c-4.4,0.2-8.8,0-13.2-0.7c-5.5-0.9-6.9-1.1-13.5-2.1c-9.6-1.4-11,3-11.7,5.1l-0.1,0.4c-0.2,0.6-0.4,1.3-0.5,2.1
	c-0.3,1.4-0.7,2.8-1.4,4.1c-1.3,2.2-11.3,14.2-11.4,14.3c-2.3,2.7-5.1,8.9-6.4,12.4c-2.2,6.1-2.1,6.9-2,8.4c0,0.2,0,0.4,0.1,0.6
	c0.1,1.6,0.4,4.4,0.7,7l0.3,2.7c0.3,2.8,0.1,5.6-0.5,8.4c-0.3,2.9-0.3,5.9-0.2,8.9l0,0.7c0.1,2.6,0.4,7.5-0.2,11.1
	c-0.7,4.3-5.6,9.8-8.7,11.7c-5.4,3.7-11,4.5-14.3,4.9c-0.4,0.1-0.7,0.1-1,0.1c-2.6,0.4-5.8,0.9-7.8,2.9c-0.7,0.7-2.4,2.3-4.4,4.2
	c-4.3,4-10.7,10.1-12.1,11.8c-3.9,4.8-6.9,10.1-9.2,15.7l-0.5,1.1c-1.3,2.9-3.5,7.7-6.2,10.9c-0.4,0.5-0.8,1-1.2,1.5
	c-2.3,2.8-4.3,5.3-8,6.9c-2,0.9-3.7,1.5-5.1,2c-1.1,0.4-2,0.7-2.4,1c-2.3,1.5-4.4,3.1-6.5,4.8c-0.1,0.1-0.3,0.3-0.5,0.5
	c-1.7,1.7-4.8,4.8-12.7,6.5c-4.1,0.8-7.4,1.4-10.1,1.8c-3,0.5-5.2,0.8-6.7,1.3c-1.8,0.6-6.4,2.3-10.9,4c-3.3,1.3-6.8,2.6-9,3.4
	c-5.2,1.9-11,2.4-18.5,3c-7.8,1-13.2-4.6-15.8-7.3c-0.4-0.4-0.8-0.9-1-1l-0.2-0.1l-0.1-0.1c-0.5-0.5-0.9-0.9-1.4-1.4
	c-2.1-2.2-4.4-4.5-7.7-5.4c-5.9-1.7-12.3,3-15.3,5.3c-0.6,0.5-1.1,0.8-1.5,1.1c-0.7,0.4-1.8,1.1-3.1,1.8c-2.9,1.7-6.8,4-8.7,5.5
	c-5.2,3.9-4.1,6.4-3.6,7.4c0.5,1.1,5.2,7,6.7,8.4c2.4,2.4,6.2,4.7,11.1,6.8c7.1,2.9,18.1,7,20.7,7.9c1,0.3,1.7,0.5,2.2,0.7
	c1.1,0.3,1.9,0.5,3.3,1.2c2.6,1.3,4.6,3.3,6.4,6.7c0.9,1.7,1.7,3,2.3,4c0.6,1.1,1.1,1.9,1.4,2.5c0.6,1.4,2.5,8.8,3.1,11.7
	c0.6,3.2,0.7,6.5,0.3,9.7l0,0.2c-1.2,4.9-3.8,11.6-9.5,15.4c-1.2,0.8-3.5,2-5.5,3.1c-1.2,0.6-2.2,1.2-2.9,1.6
	c-0.9,0.5-17.5,9.7-36.7,20.3c-23.9,13.2-51,28.2-54.8,30.4c-2.7,1.5-16.3,9.4-32.1,18.5c-25,14.4-53.3,30.7-55.3,31.8
	c-3.2,1.7-25.1,14.9-25.3,15.1c-4.8,2.9-17.4,10.3-31.9,18.9c-23.1,13.6-49.3,29-53.4,31.6l-0.2,0.1c-6.5,4.1-8.9,5.7-17.8,16.2
	c-7.1,8.3-16.5,19-21.6,24.7c-1.5,1.6-2.5,2.8-2.9,3.3c-2.3,2.7-5.9,7.3-6.6,9c0,0.1-3.9,9.8-7.9,13.8c-3.2,3.3-12,11.4-13.8,13
	c-2.3,2-4.1,4.5-5.3,7.3l0,0.1c-1.1,3.2-2,6-5.9,7.4c-3.1,1.1-5,0.5-6.4,0.1c-0.3-0.1-0.6-0.2-1-0.3c-0.3-0.1-0.5-0.1-0.8-0.2
	c-1.2-0.3-2.6-0.8-7.3,2.6l-4.9,3.3c-6,4.1-11.8,8.7-17.1,13.6l-5.7,5.3c-2.3,2.2-4.6,4.4-5.3,5.1c-0.8,0.8-8.1,7.8-15.8,15.1
	c-8.8,8.5-18,17.3-19.7,18.8c-3.2,2.9-19.4,19.2-20.9,20.7c-0.1,0.1-0.3,0.3-0.6,0.6c-2.2,2.3-8.2,8.4-13.6,12.4
	c-6.2,4.6-14.2,9.6-16.8,11.2c-2.9,1.8-5,2.7-6.7,1.6l-0.3-0.2l-1-1.7c-0.8-1.9-1.2-3.9-1.2-6l0-0.1c0-0.5,0-0.9,0-1.1
	c-2.3,1-5.6,4.3-6.5,5.6c-1.4,2.1-2.3,4.3-2.8,6.7l-1,5.4c0,0.1,0,0.1,0,0.2c-0.6,3.1-1.1,5.8-1.4,7.4l-0.3,1.6
	c-0.3,1.9-1.7,5.6-2.8,8.6c-0.4,1.2-0.8,2.2-1,2.8c-0.1,0.2-0.2,0.7-0.4,1.3l-2.1,6c-1.1,3.2-2.6,5.6-4.1,6.4
	C668.5,944.8,667,945.2,665.5,945.2z M643.5,881.9l0,0.1c-0.1,1.4-0.3,4.1,3.6,6.5c2.7,1.6,12,5.9,15,7.2l0.7,0.3
	c3.1,1.3,9.6,3.9,8.2,10.8l0,0.1c-0.6,2-0.6,2-0.9,2.8c-0.1,0.4-0.4,1-0.8,2.3l-1.3,3.9c-1.4,4.2-3.6,10.5-5.1,14.9l-1.8,5.3
	c-0.1,0.3-0.6,2.1,1.6,4.7c1.4,1.5,3.9,1.8,5.6,0.5l0.2-0.1c0.4-0.2,1.7-1.5,2.8-4.8l2.1-6c0.2-0.5,0.3-0.9,0.4-1.2
	c0.2-0.7,0.6-1.7,1-2.9c1-2.6,2.4-6.5,2.7-8.1l0.3-1.6c0.3-1.6,0.8-4.2,1.3-7.1c0-0.1,0-0.1,0-0.2l1.1-5.7c0.6-2.8,1.7-5.4,3.2-7.8
	c1.1-1.7,5.4-6.2,8.7-7.1c1.1-0.3,1.8,0.1,2.3,0.4c1.1,0.9,1.1,2.6,1,4c0,1.5,0.3,3.1,0.9,4.5l0.4,0.7c0.3,0,1.2-0.3,3.3-1.6
	c2.6-1.6,10.5-6.6,16.6-11.1c5.2-3.9,11.2-10.1,13.2-12.1c0.3-0.3,0.5-0.5,0.6-0.6c0.9-0.9,17.8-17.8,21-20.8
	c1.7-1.5,11.2-10.7,19.6-18.8c8-7.7,15-14.4,15.9-15.2c0.7-0.7,3.1-2.9,5.3-5.1l5.7-5.3c5.5-5.1,11.3-9.7,17.5-13.9l4.9-3.3
	c5.4-3.9,7.8-3.7,9.9-3.1c0.2,0.1,0.4,0.1,0.6,0.1c0.4,0.1,0.8,0.2,1.2,0.3c1.2,0.4,2.4,0.7,4.5-0.1c2.6-0.9,3.1-2.5,4.1-5.5
	l0.1-0.2c1.4-3.4,3.5-6.3,6.2-8.6c1.8-1.6,10.4-9.6,13.7-12.8c3-3,6.5-10.8,7.2-12.8c1.2-3,7-9.8,7.1-9.8c0.4-0.5,1.5-1.7,2.9-3.3
	c5.1-5.7,14.5-16.4,21.6-24.7c9.2-10.8,11.9-12.6,18.5-16.8l0.2-0.1c4.1-2.6,30.3-18.1,53.4-31.7c14.5-8.6,27.1-16,31.9-18.9
	c0.9-0.5,22.2-13.4,25.4-15.1c1.9-1,31.5-18.1,55.2-31.7c15.8-9.1,29.4-17,32.1-18.5c3.8-2.2,30.9-17.2,54.8-30.4
	c18.4-10.2,35.8-19.8,36.6-20.3c0.7-0.4,1.8-1,3-1.7c2-1.1,4.2-2.3,5.2-3c4.8-3.3,7.1-9.2,8.2-13.6c0.4-2.9,0.3-5.8-0.3-8.7
	c-0.9-3.8-2.5-10.2-2.9-11.1c-0.2-0.5-0.7-1.2-1.3-2.2c-0.6-1.1-1.4-2.4-2.4-4.1c-2-3.5-3.7-4.7-5.2-5.5c-1.2-0.6-1.7-0.7-2.8-1
	c-0.6-0.2-1.3-0.4-2.4-0.7c-2.6-0.9-13.8-5-20.9-8c-5.3-2.2-9.4-4.7-12.1-7.4c-1.3-1.3-6.5-7.6-7.3-9.3c-1.8-3.8-0.2-7.5,4.5-11.1
	c2.1-1.6,5.9-3.9,9-5.7c1.2-0.7,2.3-1.4,3-1.8c0.3-0.2,0.8-0.5,1.3-0.9c3.4-2.5,10.5-7.9,17.9-5.8c4.1,1.2,6.7,3.8,9.1,6.2
	c0.4,0.4,0.8,0.8,1.2,1.2c0.4,0.3,0.8,0.7,1.5,1.4c2.3,2.3,7,7.2,13.3,6.4c7.4-0.6,13-1.1,17.8-2.9c2.2-0.8,5.6-2.1,8.9-3.3
	c4.7-1.8,9.2-3.5,11-4.1c1.8-0.6,4-0.9,7.2-1.4c2.7-0.4,6-0.9,10-1.8c7.1-1.5,9.6-4.1,11.2-5.6c0.2-0.2,0.4-0.4,0.6-0.6
	c2.2-1.8,4.5-3.5,6.8-5c0.7-0.5,1.7-0.8,3.1-1.3c1.3-0.5,3-1.1,4.9-1.9c3-1.4,4.6-3.3,6.9-6.1c0.4-0.5,0.8-1,1.3-1.5
	c2.5-2.9,4.5-7.5,5.8-10.2l0.5-1c2.3-5.9,5.6-11.5,9.6-16.4c1.4-1.8,6.5-6.6,12.4-12.1c2-1.8,3.7-3.4,4.4-4.1
	c2.7-2.7,6.5-3.3,9.5-3.7c0.3-0.1,0.7-0.1,1.1-0.2c3.1-0.4,8.2-1.1,13.1-4.5c2.6-1.6,6.8-6.4,7.4-9.7c0.5-3.3,0.3-8.2,0.2-10.5
	l0-0.7c-0.2-3.1-0.1-6.3,0.2-9.4l0-0.2c0.5-2.5,0.7-5,0.4-7.6l-0.3-2.7c-0.3-2.8-0.6-5.4-0.7-7.1l-0.1-0.6c-0.2-2.1-0.2-3.3,2.1-9.7
	c1.3-3.6,4.2-10.1,6.9-13.3c4-4.8,10.3-12.5,11.1-13.9c0.5-0.9,0.8-2.1,1.1-3.3c0.2-0.8,0.4-1.6,0.6-2.3l0.1-0.3
	c0.7-2.2,2.9-8.9,15-7.2c6.6,1,7.9,1.2,13.5,2.1c4.1,0.6,8.4,0.8,12.6,0.6c1.5-0.1,4.1-0.4,5.9-2.4c1.4-1.5,2-3.8,1.9-6.8
	c-0.1-3.1-1.2-15.9-1.8-22.9c-0.1-1.4-2.7-4.7-5-4.7l-0.1,0c-3.1-0.4-6.3-1-9.3-2c-4.6-1.4-7.3-4.3-9.4-6.3l-0.2-0.3
	c-0.9-0.9-5.4-5.8-4.4-10.5c0.8-3.4,1.9-6.7,3.1-9.9c1.5-4,3.3-8,5.4-11.7c1.1-1.9,1.9-3.8,2.4-5.9c0.5-2.7-0.1-5.5-1.5-7.9
	c-2.2-3.4-13-16.3-15-18.2c-1.5-1.4-3.4-2.3-5.5-2.6c0,0,0,0,0,0c-2,0-4.1-0.1-6.2-0.4l-0.3-0.1c-3.1-0.9-6-2.3-8.7-4l-0.2-0.1
	c-2.9-2.6-5.3-5.7-7-9.2c-1.2-2.7-4.4-5-6-6.2c-0.2-0.2-0.4-0.3-0.6-0.5c-0.8-0.6-4-1.7-5.9-2.3c-0.9-0.3-1.8-0.6-2.3-0.8
	c-0.8-0.3-2.7-0.9-4.3-1.4c-2-0.6-3.2-1-3.7-1.2c-0.2-0.1-1.4-0.3-2.3-0.5c-2.2-0.4-5.2-1-7.1-1.7c-2.9-1.3-5.7-2.8-8.4-4.4
	c-0.3-0.2-0.6-0.4-1-0.6c-1-0.6-2.3-1.5-3.8-1.8c-1.8-0.4-3.6-0.3-5.3,0.3c-1.7,0.7-3.2,1.9-4.2,3.5c-1.3,1.8-5.3,7.8-7.5,11l-1,1.5
	c-1.3,1.8-1.8,4-1.3,6.1c0.6,2.9,1,5.8,1.2,8.8l0,0.1l0,0.1c-0.1,2.4-0.8,4.6-2.2,6.5c-0.6,1-2.2,3.3-3.6,5.2
	c-0.9,1.3-1.9,2.7-2.1,3.1l-0.1,0.1c-1.8,2.3-3.9,4.3-6.2,6c-1.2,0.9-2.6,1.9-3.8,2.9c-2,1.5-3.3,2.5-3.9,2.9
	c-0.2,0.1-0.7,0.5-1.1,0.9c-1.4,1.2-3.3,2.7-5.5,3.3c-3.6,0.8-7.2,1.2-10.8,1.2c0,0,0,0-0.1,0c-2.5,0-4.9,0.4-7.2,1.1
	c-0.9,0.4-3.6,1.2-7.9,2.4c-3.1,0.9-6.3,1.8-8.5,2.5c-1.8,0.6-3.4,1-4.8,1.4c-2.5,0.7-4.6,1.3-5.9,2c-2.1,1.1-6.3,4.5-8.8,6.6
	l-0.3,0.2c-2.2,1.8-3.4,5.2-4.1,7.6c-1,3.2-4.9,4.9-6.6,4.9c-3.2,0-6.1-2.2-7-5.3c-0.8-3.1,0.6-6.4,3.4-7.9c1-0.6,3.3-1.8,5-2.7
	c1-0.5,2.8-1.8,4.4-2.9c1.6-1.1,3-2.1,3.9-2.6c2.1-1.3,4-2.9,5.7-4.6c2-2.1,4.4-4,7-5.4c2.3-1.2,8.1-5.4,12.1-8.6
	c3.3-2.6,3.1-6.6,3-8.3c-0.1-1.5-1.4-2.9-2.9-4.5c-1.1-1.2-3.7-0.9-5.7-0.3c-1.7,0.6-5.1,1.4-7.6,2c-0.7,0.2-1.3,0.3-1.7,0.4
	c-2.8,0.5-5.5,0.7-8.2,0.7c-1.6,0.1-6.9,0.9-11.1,1.5c-2.4,0.4-4.5,0.7-5.8,0.9c-2.9,0.3-5.7,1-8.4,2c-0.9,0.4-2,1.4-3.6,2.9
	c-0.9,0.9-2.1,2-3.6,3.3c-4.2,3.6-17.8,13.5-20.6,15.1c-2.8,1.6-14.1,7.8-18,9.1c-3.8,1.1-7.6,1.7-11.4,2c-2.7,0.2-4.8-0.3-8.8-2
	c-3.7-1.6-18.2-9.5-20.9-11.2c-3.7-2.5-7.2-5.4-10.3-8.6c-2-2.2-7.1-5.6-12.1-7.7c-3.6-1.4-7.2-2.5-10.7-3.6
	c-1.3-0.4-2.6-0.8-3.9-1.2c-1-0.3-2.1-0.7-3.1-1c-3.6-1.2-7-2.3-9.5-2.7c-1.7-0.3-7.1-1.1-12.2-1.8c-4.6-0.6-9-1.2-10.7-1.5
	c-3.8-0.7-14.5-2.1-18-2.2c-3.6-0.1-11,0-17.3,0.2c-6.6,0.2-11.2-0.4-14.3-1.7c-1.2-0.5-2.8-1.2-4.5-2c-2.6-1.1-5.3-2.3-6.5-2.8
	l-1.3-0.6c-3.7-1.7-11.4-5.1-14.4-6.7c-5.6-3.3-10.8-7.1-15.7-11.3c-2.5-2-6.3-7.4-8.2-10c-0.3-0.5-0.6-0.8-0.7-1
	c-0.8-1.1-1.2-2.1-2.2-4.9c-0.4-1.2-1-2.8-1.9-5c-2.6-8-2.6-12.3-2.7-16.9c0-2-0.1-4.1-0.4-6.6c-0.9-8.2,0.5-19.1,1.1-23.8l0-0.4
	c0.6-4.8,1-9,1-10.5c0-1.8-0.7-7.6-1.9-10.1c-0.9-2-3.7-3.5-6.9-3.6c-2.9-0.2-5.3,1.2-8.1,3c-2.9,1.8-20.1,14.3-21,15.1l-0.1,0.1
	c-2,1.5-4.3,2.4-6.7,2.9c-0.6,0.1-0.9,0.2-1.1,0.2c-0.6,0.1-0.8,0.2-7.1,1.3c-8.4,1.4-25.2,4.7-35.1,7c-9.1,2.2-28.9,9.3-33,11.7
	c-3,1.8-2.8,3.7-2.5,6.5c0.1,0.5,0.1,1,0.1,1.6c0.1,3.5-0.1,7-0.8,10.4c-0.6,2.9-3.7,8.5-6.3,11.4c-2.2,2.7-5.7,3.9-9.2,3.2
	c-2.6-0.4-9.7-2.5-15-4l-1.6-0.5c-3.6-1.1-5-1-6.5-0.9c-0.5,0-0.9,0-1.4,0c-2.4,0-24.3,0.9-31.4,1.5c-6.2,0.5-7.6,3.1-8.6,5.2
	l-0.2,0.3c-1,1.8-2.4,4-4.8,4.5c-2.4,0.4-6.9-0.5-8.3-6.7c-0.9-4.4-2.8-5.7-3.9-6.6c-0.2-0.1-0.3-0.2-0.4-0.3
	c-0.9-0.8-17-12.3-22-15.7c-4.3-3-7.6-3.3-11.4-3.7l-0.1,0c-3.4-0.4-4.7,0.2-7.6,1.7l-0.3,0.1c-1.9,0.9-3.6,2-5,3.4l-0.1,0.1
	c-1,0.8-2.5,3.1-3.8,5.1c-0.7,1.1-1.5,2.2-2.2,3.2c-2,2.7-3.8,5.5-5.3,8.5c-0.2,0.6-0.2,1.1-0.3,2.4c0,0.8-0.1,1.8-0.2,3.1
	c-0.3,3.6-0.6,5.2-4.2,8.7c-3.8,3.4-7.9,6.5-12.1,9.3c-3.8,2.5-14.1,7.1-16.1,8c-4,1.8-4.4,2.9-4.6,5.8c-0.2,2.6,1.5,4.3,2.8,5.4
	c0.9,0.7,10.5,8,15.5,11.1c4.4,2.8,7.3,2.4,9.3,2.2l0.1,0c2.3-0.3,5.2-0.6,8.4,1.2c2.6,1.3,4.4,3.7,5,6.6c0.3,1.1,0.9,4.1,1.6,7.4
	c0.8,4,1.8,8.4,2.4,10.9c1,3.3,1,6.9,0.1,10.3c-0.7,2.9-1.9,5.6-3.6,8c-1.1,1.5-2.2,2.9-3.3,4.4c-1,1.3-2,2.6-3.2,4.2
	c-2.8,3.9-6,7.4-9.7,10.5c-2.6,2.1-7.4,6.5-11.3,10.2c-2.4,2.2-4.5,4.2-5.6,5.1c-2.6,2.2-6.8,7.2-8.4,9.1l-0.4,0.5
	c-1.2,1.6-2.7,3.1-4.4,4.4c-0.5,0.4-1.3,1-2.3,1.7c-3.1,2.3-7.9,5.7-10.1,7c-2.6,1.5-11.8,9.7-12.8,10.7c-0.8,1-1.2,2.3-1.3,3.6
	c0,1.3,0.5,2.7,1.4,3.8c1.5,1.3,2.6,3,3.1,4.9c0.9,3.1-1.4,6.8-2.2,8.2c-1,1.6-1.9,2.5-7,5.2c-3.2,1.6-5.3,4.7-5.7,8.2
	c-0.2,3.1-0.1,6.4,0.2,9.6c0.3,7.8-0.6,9.7-1.8,12.4c-0.1,0.3-0.3,0.7-0.5,1.1c-1.3,3.2-7.2,16.7-9.7,20.9
	c-2.5,4.2-7.8,9.8-9.4,11.2c-1.4,1.3-9.2,7.8-12.1,9.9c-2.9,2.4-5.8,5-8.6,7.8c-0.8,0.8-2.6,2.5-4.4,4.4c-2.6,2.5-5.5,5.4-6.7,6.5
	l-0.2,0.2c-3.7,3.3-5.7,5.1-6.6,5.6c-0.4,0.2-2,1.1-3.5,1.9c-1.5,0.8-3.1,1.7-4.1,2.3c-1.7,0.9-7.3,6-8.3,7.2c-1.1,1.3-3.5,2.8-8,5
	c-2.5,1.3-11,4.5-19.3,7.6c-6.7,2.5-13.6,5.1-15.4,6c-3.5,1.7-4.4,6.2-4.2,8c0.1,2,0.8,3.7,3.9,6.1c2.2,1.7,5.9,3.3,10.3,5.2
	c1.7,0.7,3.4,1.5,5.2,2.3c6.8,3.1,13.7,8.1,15.6,10.1l0.5,0.5c2.4,2.3,7.9,7.8,10.1,14.3c2.3,6.8,17.1,44.1,19.4,49.5
	c2.5,6.1,4.8,12.4,6.7,18.8c1.3,5,2.2,10,2.8,15.1c0.3,3.2,0.8,11.2,1.1,17l0.1,0.9c0.3,4.6,0.2,9.3-0.2,13.9
	c-0.2,2.2-2.6,15.5-2.9,16.9c0,0.2-0.1,0.6-0.2,1c-0.5,3-1.1,6.4-2.1,8.3c-0.5,1-1.8,3.9-3.1,6.9c-1.7,3.9-3.5,7.8-4.2,9.3l0,0.1
	c-1.1,2-1.8,4.2-2,6.5c-0.2,2.3,0,4.8,0.2,8c0.1,0.9,0.1,1.8,0.2,2.8c0,3,0.7,5.9,2,8.6c1.1,2.3,25.6,34,28.7,37.9
	c3,3.5,6.3,6.7,10,9.4c3.1,2.4,19.4,14.4,29.2,21.6c3.8,2.8,6.8,5,7.9,5.8c3.9,2.9,4.7,4.3,5.6,5.9l0.2,0.4c0.9,1.6,0.9,4,1,5.7
	c0,0.4,0,0.8,0,1.1c0,0.3,0,0.6,0,0.9c0,1.3,0,2.8,1.5,4.9c1.6,2.3,3.8,2.7,6.8,3.2l1,0.2c1.9,0.4,5.7,1.1,9.4,1.9
	c3.1,0.6,6.1,1.2,7.8,1.5c3,0.4,5.4,2.5,6.3,5.4c0.1,0.4,0.2,0.9,0.3,1.6c0.2,1.3,0.5,3.1,1.4,4.5c0.4,0.6,1.8,2.5,7.9,6.1
	c1.8,1.1,3.2,2.7,4.1,4.7c1.3,3.2,2.8,6.2,4.6,9c2.5,3.1,7.6,7.9,11.5,6.2c3.7-2.4,7.5-3.4,11.1-2.9c0.2,0,0.4,0,0.6,0.1
	c0.7,0.1,1.9,0.2,4.8,0.6c1.6,0.2,3.9,0.5,6.2,0.8c3.1,0.4,6.1,0.7,7.5,1c2.3,0.4,5.6,1.8,10.7,4.5c1.6,0.8,3.1,1.7,4.6,2.6
	c2.4,1.4,5,2.9,8.5,4.6c4,2.1,8.7,2.5,12.9,1.1c3.1-1,5.3-2.1,10.7-4.9l1.4-0.7c6.3-3.2,8.1-5.8,10.5-9.8c0.8-1.4,1.6-2.9,2.4-4.6
	c1.6-3.3,3.5-7,6.6-10.9c2-2.5,4.2-3.7,6.3-3.6c2.7,0.1,4.3,2.3,4.6,2.7c0.3,0.4,1,1.5,1.9,2.8c1.4,2.1,3.2,4.9,4.6,6.9l4.9,5.7
	l0.1,0.3c1.5,4.3,0.8,7.5-0.2,9.1c-1.3,2.5-3.7,4.3-6.5,5l-9.1,1.9l-13.6,2.9c-1.9,0.5-3.6,1.6-4.9,3.2c-0.8,1-1.3,2.8-1.6,4.1
	c-0.2,0.8-0.3,1.4-0.6,1.9c0,0.1-0.1,0.1-0.1,0.2c-0.7,1.4-1.7,2.4-5.1,3.1c-1.9,0.4-5.1,1.2-8.5,2c-3.4,0.8-7.1,1.7-9.8,2.3
	c-5.3,1.2-42.7,10-47.7,11.2c-1.2,0.2-4.6,0.9-11,7.3c-1.3,1.4-5.1,5.9-8.7,10.2c-3.7,4.4-7.1,8.5-8.1,9.5
	c-1.7,1.7-13.3,15.3-16.1,18.5c-0.2,0.2-0.4,0.4-0.6,0.7C645.6,876.2,644.1,877.7,643.5,881.9z"/>
</svg>
