<?xml version="1.0" encoding="utf-8"?>
<!-- Generator: Adobe Illustrator 25.0.0, SVG Export Plug-In . SVG Version: 6.00 Build 0)  -->
<svg version="1.1" id="Gesamtstrecke_Long" xmlns="http://www.w3.org/2000/svg" xmlns:xlink="http://www.w3.org/1999/xlink" x="0px"
	 y="0px" viewBox="0 0 1920 1080" style="enable-background:new 0 0 1920 1080;" xml:space="preserve">
<style type="text/css">
	.st0{fill:#FFFFFF;}
</style>
<path class="st0" d="M618.8,1038c-1.6,0-2.9-0.5-3.8-1c-2.2-1.2-3.3-3.4-3.5-4.5c-0.9-3.6,0.6-7.5,3.7-9.6
	c4.2-3.8,14.6-13.7,20.8-19.6c2.2-2.1,3.9-3.7,4.6-4.3c2.2-1.9,4.3-4,6.2-6.2c2.4-2.8,3.5-6.6,3-10.3c-0.5-2-0.9-3.3-1.2-4.5
	c-0.6-2-1.1-3.5-1.4-6.3c-0.3-3.2,0.6-7.7,2.7-13.8c0.3-0.8,1.1-3.2,2.2-6.3c2.3-6.4,5.4-15.3,6.1-17.1c0.8-2,4.5-12.9,6.8-19.5
	l2.1-6.1c0.3-0.9,0.3-0.9,0.7-2.1l0.3-0.9c0.8-4-2.5-5.8-6.3-7.3l-0.7-0.3c-3.1-1.3-12.5-5.6-15.4-7.4c-5.4-3.4-5.1-7.7-5-9.3l0-0.3
	c0.8-5.2,2.7-7.2,3.9-8.4c0.2-0.2,0.3-0.3,0.5-0.5c0.9-1.1,14.3-16.6,16.2-18.6c0.8-0.8,3.6-4.2,6.7-7.8c4-4.8,8.6-10.2,10.2-11.9
	c6.3-6.3,10.2-7.6,12.5-8.1c3.2-0.8,19.4-4.6,46.9-11l0.8-0.2c5.3-1.2,14.5-3.4,18.3-4.2c2.6-0.6,2.9-1.1,3.1-1.5
	c0.1-0.1,0.1-0.2,0.2-0.3c0.1-0.1,0.2-0.7,0.3-1.1c0.4-1.6,0.9-3.8,2.2-5.3c1.7-2,3.9-3.5,6.5-4.2l15.3-3.3l7.4-1.5
	c2-0.5,3.6-1.8,4.6-3.6l0.1-0.2c0.6-0.8,1-3.1,0-6.3l-5.6-6.8c-1-1.4-2-3.1-3-4.5c-1.3-1.9-2.4-3.6-2.7-4c0,0-1-1.4-2.3-1.4
	c-1.5,0-2.9,1.3-3.9,2.5c-2.9,3.6-4.7,7.2-6.3,10.3c-0.8,1.7-1.6,3.3-2.6,4.8c-2.6,4.3-4.8,7.4-11.7,10.9l-1.5,0.8
	c-5.3,2.7-7.7,4-11,5c-5,1.6-10.5,1.2-15.1-1.3c-3.6-1.8-6.3-3.3-8.7-4.7c-1.5-0.9-2.9-1.7-4.5-2.5c-3-1.6-7.3-3.7-9.9-4.2
	c-1.3-0.3-4.3-0.6-7.1-0.9c-2.3-0.3-4.8-0.6-6.5-0.8c-2.8-0.4-3.9-0.5-4.6-0.6c-0.3,0-0.5,0-0.7-0.1c-3.7-0.5-7,1.1-9.2,2.5
	l-0.2,0.1c-6.8,3.1-13.9-5.3-15.3-7.1l-0.1-0.1c-1.9-3-3.5-6.2-4.8-9.5c-0.6-1.3-1.6-2.5-2.9-3.3c-5-3-7.9-5.3-8.9-7.2
	c-1.1-2-1.5-4.1-1.7-5.5c-0.1-0.5-0.2-1-0.2-1.2c-0.5-1.8-2-3.1-3.8-3.3l-0.1,0c-1.4-0.3-3.5-0.7-5.8-1.2c-4.3-0.9-9.1-1.8-11.4-2.2
	l-0.9-0.2c-3.3-0.6-6.4-1.1-8.8-4.4c-2.1-2.9-2.1-5.2-2.1-6.7c0-0.2,0-0.5,0-0.7c0-0.3,0-0.7,0-1.2c0-1.3-0.1-3.4-0.6-4.4l-0.2-0.4
	c-0.7-1.4-1.3-2.4-4.7-5c-1.2-0.9-4.7-3.5-9.1-6.7c-10-7.3-25.1-18.4-28-20.7c-3.8-2.9-7.3-6.2-10.4-9.9
	c-1.3-1.6-27.8-35.7-29.1-38.6c-1.4-3-2.2-6.4-2.3-9.7c-0.1-0.9-0.1-1.8-0.2-2.6c-0.2-3.2-0.4-6-0.2-8.5c0.2-2.7,1-5.3,2.4-7.7
	c0.9-1.8,3.5-7.5,5.3-11.7c0.9-2,1.7-3.7,2-4.5c0.8-1.8,1.5-5.6,1.8-7.6c0.1-0.5,0.1-0.8,0.2-1.1c0.3-1.5,2.7-14.6,2.8-16.6
	c0.4-4.5,0.4-9,0.2-13.5l0-0.1c-0.4-5.7-0.9-14.3-1.2-17.6c-0.5-4.9-1.4-9.8-2.6-14.6c-1.9-6.2-4.1-12.4-6.6-18.4
	c-2.5-5.7-17.3-43.2-19.5-49.7c-1.9-5.8-7.2-11-9.4-13.2l-0.5-0.5c-1.7-1.7-8.4-6.5-14.8-9.5c-1.7-0.8-3.5-1.5-5.1-2.2
	c-4.5-2-8.5-3.7-11-5.6c-3.4-2.6-4.9-5-5.1-8.3c-0.2-3,1.2-8.6,5.9-10.9c1.9-0.9,8.2-3.3,15.5-6c7.9-3,16.8-6.3,19.2-7.5
	c4-2,6.3-3.4,7.1-4.4c0.9-0.9,6.8-6.5,9-7.8c0.9-0.5,2.5-1.4,3.9-2.2c1.7-1,3.2-1.8,3.7-2.1c0.7-0.4,4-3.4,5.6-4.8l0.5-0.5
	c1.3-1.2,4.8-4.6,7.5-7.4c1.5-1.5,2.8-2.8,3.5-3.5c2.8-2.8,5.8-5.5,8.8-8c2.8-2,10.5-8.4,11.9-9.7c1.2-1.1,6.5-6.6,8.9-10.5
	c2.3-4,8.1-17.3,9.5-20.5c0.2-0.4,0.3-0.8,0.5-1.1c1.1-2.4,1.8-4,1.5-11.1c-0.3-3.3-0.3-6.6-0.2-10c0.4-4.7,3.2-8.6,7.3-10.7
	c4.8-2.6,5.2-3.1,5.8-4.1c1.7-2.7,2.3-4.7,2-5.9c-0.4-1.4-1.2-2.6-2.3-3.5l-0.2-0.2c-1.4-1.6-2.2-3.7-2.2-5.8c0.1-2.1,0.8-3.9,2-5.5
	l0.1-0.1c0.6-0.6,10.4-9.4,13.5-11.2c2.1-1.2,6.9-4.7,9.8-6.8c1-0.7,1.9-1.4,2.3-1.7c1.4-1.1,2.7-2.4,3.8-3.8l0.8-0.9
	c1.9-2.2,5.9-6.9,8.4-9.1c0.9-0.8,2.6-2.3,4.5-4.1c4.1-3.8,9.7-9,12.6-11.2c3.5-2.9,6.6-6.2,9.2-9.9c1-1.3,1.9-2.5,2.7-3.6
	c1.3-1.7,2.5-3.3,3.7-5c1.5-2.1,2.5-4.5,3.2-7c0.8-2.9,0.7-5.9-0.1-8.7c-0.7-2.6-1.6-7.1-2.5-11.2c-0.7-3.2-1.3-6.2-1.6-7.2l0-0.1
	c-0.4-2-1.7-3.7-3.5-4.6c-2.4-1.4-4.6-1.1-6.6-0.8c-2.4,0.3-6,0.8-11.4-2.6c-5.1-3.2-14.9-10.5-15.9-11.3c-1-0.9-4.2-3.5-3.9-7.9
	c0.3-4.4,1.8-6.3,6.4-8.3c5.8-2.6,12.9-6,15.7-7.8c4.1-2.7,8-5.7,11.7-9c3-2.8,3-3.6,3.3-6.7c0.1-1.2,0.1-2.2,0.2-2.9
	c0.1-1.4,0.1-2.3,0.5-3.3l0.1-0.2c1.6-3.2,3.5-6.2,5.6-9.1c0.6-0.8,1.3-1.8,2-2.9c1.6-2.4,3.1-4.7,4.5-5.9c1.7-1.7,3.7-3,5.8-3.9
	l0.4-0.2c3-1.5,4.9-2.4,9.1-1.9l0.2,0c4,0.5,7.8,0.9,12.7,4.2c4.6,3.1,21,14.9,22.2,15.9l0.3,0.2c1.3,0.9,3.9,2.8,5.1,8.4
	c1.1,4.9,4.4,4.4,4.8,4.4c0.6-0.1,1.5-0.6,2.7-2.9l0.2-0.4c1.2-2.3,3.3-6.1,11-6.7c7.4-0.6,29.1-1.5,31.6-1.5c0.5,0,0.9,0,1.3,0
	c1.7-0.1,3.4-0.2,7.5,1c5.1,1.5,13.7,4,16.2,4.4c2.4,0.5,4.8-0.3,6.3-2.2c2.4-2.7,5.2-7.9,5.6-10c0.6-3.2,0.8-6.4,0.7-9.7
	c0-0.4-0.1-0.9-0.1-1.4c-0.3-2.9-0.7-6.6,4-9.3c4.8-2.8,24.9-9.8,33.9-12c10.2-2.4,27.1-5.6,35.3-7c6.4-1.1,6.4-1.1,7-1.2
	c0.2,0,0.5-0.1,1.1-0.2c2-0.4,3.9-1.2,5.6-2.4c1.4-1.1,18.5-13.5,21.3-15.3c2.6-1.6,5.8-3.7,9.9-3.5c4.4,0.2,8,2.3,9.5,5.4
	c1.4,3,2.3,9.3,2.3,11.3c0,2.4-0.8,8.9-1,10.9l0,0.3c-0.6,4.6-1.9,15.3-1.1,23.1c0.3,2.6,0.3,4.7,0.3,6.8c0.1,4.5,0.2,8.4,2.6,16
	c0.8,2.1,1.4,3.7,1.8,5c1,2.8,1.3,3.4,1.8,4.2c0.2,0.2,0.4,0.5,0.7,1c1.6,2.3,5.4,7.7,7.7,9.5c4.7,4.2,9.8,7.8,15.2,11
	c2.7,1.5,10.1,4.8,13.7,6.4c0.8,0.4,1.4,0.6,1.8,0.8c1.2,0.6,4,1.7,6.6,2.9c1.7,0.7,3.3,1.4,4.4,1.9c2.6,1.1,7,1.6,13,1.4
	c6-0.2,13.7-0.3,17.4-0.2c4,0.1,14.9,1.6,18.5,2.2c1.6,0.3,5.7,0.8,10,1.4c5.5,0.8,11.2,1.5,13.1,1.9c2.8,0.6,7,1.9,11,3.2l1.9,0.6
	c1.4,0.4,2.8,0.9,4.3,1.3c3.4,1,7,2.1,10.5,3.5c4.9,2,10.6,5.6,13.2,8.4c2.9,3,6.2,5.8,9.7,8.2c2.4,1.4,16.8,9.4,20.5,10.9
	c3.5,1.5,5.2,1.9,7.4,1.7c3.6-0.2,7.2-0.9,10.7-1.9c3.3-1.1,14-6.9,17.4-8.8c2.6-1.5,16.1-11.3,20.1-14.8c1.4-1.2,2.6-2.3,3.5-3.2
	c1.8-1.7,3-2.8,4.5-3.5c3-1.1,6.1-1.9,9.2-2.2c1.2-0.2,3.4-0.5,5.7-0.9c4.5-0.7,9.6-1.5,11.5-1.6c2.6,0,5.1-0.2,7.6-0.6
	c0.4-0.1,1-0.3,1.7-0.4c2.4-0.6,5.7-1.4,7.3-1.9c2.9-1,6.7-1.3,8.9,1c1.9,2,3.6,3.8,3.7,6.4c0.1,2,0.3,7.1-4.1,10.7
	c-3.5,2.8-9.7,7.5-12.5,8.9c-2.3,1.3-4.4,2.9-6.2,4.9c-1.9,2-4,3.7-6.3,5.1l-0.1,0.1c-0.7,0.3-2.2,1.4-3.6,2.4
	c-1.7,1.2-3.5,2.5-4.6,3.1c-2.1,1.1-4,2.1-5,2.7c-1.6,0.9-2.4,2.7-1.9,4.5c0.5,1.8,2.2,3.1,4.1,3.1c0.6,0,3.2-1,3.7-2.8
	c0.8-2.8,2.2-6.7,5.1-9l0.4-0.4c2.7-2.2,6.9-5.6,9.2-6.8c1.6-0.8,3.8-1.4,6.4-2.2c1.4-0.4,3-0.9,4.8-1.4c2.3-0.7,5.5-1.6,8.6-2.5
	c3.4-1,6.9-2,7.7-2.3l0.1,0c2.6-0.8,5.4-1.3,8.1-1.3c0,0,0,0,0.1,0c3.4-0.1,6.8-0.5,10.1-1.2c1.5-0.4,3.2-1.7,4.4-2.7
	c0.6-0.5,1-0.8,1.4-1.1c0.6-0.4,2.2-1.6,3.7-2.8c1.3-1,2.6-2,3.8-2.9c2.1-1.5,4-3.3,5.6-5.4c0.3-0.5,1.1-1.5,2.2-3.2
	c1.3-1.8,2.9-4.1,3.6-5.1c1.1-1.5,1.6-3.2,1.7-4.9c-0.2-2.8-0.6-5.6-1.2-8.3c-0.6-3,0-6.1,1.8-8.5c0.6-0.8,1.9-2.8,3.4-5
	c2-2.9,4.2-6.2,5.1-7.4c1.4-2.1,3.3-3.7,5.7-4.6c2.3-0.8,4.7-1,7-0.4c2,0.5,3.6,1.5,4.7,2.2c0.3,0.2,0.6,0.4,0.8,0.5l0.1,0.1
	c2.6,1.6,5.3,3,8.1,4.3c1.5,0.6,4.4,1.1,6.5,1.5c1.8,0.3,2.6,0.5,3,0.7c0.3,0.1,2,0.6,3.3,1.1c1.8,0.6,3.7,1.1,4.6,1.5
	c0.5,0.2,1.3,0.4,2.2,0.7c3.1,1,5.5,1.8,6.7,2.7l0.5,0.4c1.9,1.4,5.5,4,7.1,7.4c1.5,3.1,3.6,5.9,6.2,8.2c2.4,1.5,5,2.8,7.7,3.6
	c1.9,0.2,3.8,0.3,5.8,0.3l0.2,0c2.8,0.3,5.4,1.5,7.3,3.4c2.2,2.2,13.1,15.2,15.4,18.8c1.8,3.1,2.5,6.6,1.9,10.1l0,0.1
	c-0.6,2.4-1.5,4.7-2.7,6.8c-2.1,3.6-3.8,7.4-5.2,11.3c-1.2,3.1-2.2,6.3-3,9.5c-0.5,2.3,1.5,5.6,3.6,7.7l0.5,0.5c2,2,4.2,4.2,7.9,5.3
	c2.8,0.9,5.7,1.5,8.7,1.9c3.9,0.2,7.6,4.7,7.8,7.4l0.1,0.9c1.1,12.4,1.7,19.9,1.8,22.2c0.2,3.7-0.7,6.8-2.6,8.9
	c-2.5,2.8-6.1,3.3-8,3.4c-4.4,0.2-8.8,0-13.2-0.7c-5.1-0.9-6.6-1.1-12.1-1.9l-1.4-0.2c-9.6-1.4-11,3-11.7,5.2l-0.1,0.4
	c-0.2,0.6-0.4,1.3-0.5,2c-0.3,1.4-0.7,2.8-1.4,4.2c-1.3,2.2-11.3,14.2-11.4,14.3c-2.1,2.5-4.9,8.2-6.4,12.4c-2.2,6.2-2.2,6.9-2,8.5
	l0.1,0.6c0.2,1.7,0.5,4.4,0.7,7.2l0.3,2.6c0.3,2.8,0.1,5.6-0.5,8.4c-0.3,3-0.3,6-0.2,8.9l0,0.8c0.1,2.6,0.4,7.4-0.2,11
	c-0.8,4.6-6,10-8.7,11.7c-5.4,3.7-10.9,4.5-14.2,4.9c-0.4,0.1-0.8,0.1-1.1,0.2c-2.7,0.4-5.9,0.9-7.8,2.9c-0.8,0.8-2.6,2.5-4.8,4.6
	c-4.1,3.9-10.4,9.7-11.7,11.4c-3.9,4.8-6.9,10.1-9.2,15.7c-0.2,0.4-0.4,0.8-0.5,1.2c-1.3,2.9-3.5,7.6-6.2,10.8
	c-0.4,0.5-0.8,1-1.2,1.4c-2.3,2.9-4.4,5.3-8,7c-2,0.9-3.7,1.5-5,2c-1.1,0.4-2.1,0.8-2.5,1c-2.3,1.5-4.4,3.1-6.5,4.8
	c-0.1,0.1-0.3,0.3-0.5,0.5c-1.7,1.7-4.8,4.9-12.7,6.5c-4.1,0.8-7.4,1.4-10.2,1.8c-2.9,0.4-5.1,0.8-6.7,1.3c-1.8,0.6-6.3,2.3-10.8,4
	c-3.4,1.3-6.9,2.6-9.1,3.4c-5.2,1.9-11.2,2.5-18.5,3c-7.8,1-13.2-4.6-15.8-7.3c-0.4-0.4-0.8-0.9-1-1l-0.2-0.1l-0.1-0.1
	c-0.5-0.5-0.9-0.9-1.4-1.4c-2.1-2.2-4.4-4.5-7.7-5.4c-5.9-1.7-12.2,3-15.3,5.3c-0.6,0.5-1.1,0.8-1.5,1.1c-0.7,0.4-1.8,1.1-3,1.8
	c-2.9,1.7-6.8,4.1-8.8,5.6c-5.3,3.9-4.1,6.4-3.6,7.4c0.5,1.1,5.2,7,6.7,8.4c1.6,1.6,4.9,4.1,11.1,6.8c7,3,18.2,7,20.7,7.9
	c1,0.3,1.7,0.5,2.3,0.7c1,0.3,1.9,0.5,3.3,1.2c2.7,1.3,4.6,3.3,6.4,6.7c0.9,1.7,1.7,2.9,2.3,4c0.7,1.2,1.2,2,1.5,2.6
	c0.6,1.4,2.6,9.6,3.1,11.7c0.6,3.3,0.7,6.5,0.3,9.8l0,0.2c-1.2,4.9-3.8,11.6-9.5,15.4c-1.3,0.9-3.7,2.2-5.9,3.4
	c-1,0.5-1.9,1-2.5,1.4c-0.8,0.4-13.2,7.3-29,16.1c-24.6,13.6-58.2,32.2-62.4,34.6c-2.9,1.7-19,10.9-36,20.7
	c-23.2,13.4-49.5,28.5-51.3,29.5c-3.2,1.7-25.1,14.9-25.3,15.1c-4.3,2.6-14.8,8.8-27,16c-24,14.1-53.9,31.8-58.3,34.5l-0.4,0.2
	c-6.2,4-8.8,5.6-17.6,16.1c-7.6,9-18.2,20.9-22.7,26c-0.9,1-1.5,1.7-1.8,2.1c-2.3,2.6-5.9,7.2-6.5,9c-0.8,2-4.4,10.2-7.9,13.8
	c-3.2,3.2-11.9,11.4-13.8,13c-2.3,2-4.1,4.5-5.3,7.3l-0.1,0.2c-1.1,3.1-2,5.8-5.9,7.2c-3,1.1-4.9,0.5-6.3,0.1
	c-0.4-0.1-0.7-0.2-1-0.3c-0.3,0-0.6-0.1-0.9-0.2c-1.1-0.3-2.2-0.6-5.4,1.3l-6.9,4.6c-6,4.1-11.8,8.7-17.1,13.6l-11,10.4
	c-0.8,0.7-7.5,7.2-14.6,14c-8.9,8.6-19.1,18.4-20.9,20c-3.2,2.9-19.8,19.6-20.9,20.7c-0.1,0.1-0.3,0.4-0.6,0.6
	c-2.2,2.3-8.2,8.4-13.6,12.4c-6,4.4-13.7,9.3-16.8,11.2c-2.9,1.8-5,2.7-6.7,1.5c-1.6-1.1-2.1-4.2-1-6.9c0.2-0.5,0.4-1.1,0.7-1.9
	c1.1-2.9,2.6-7,4-8.8c0.3-0.4,0.6-0.8,0.9-1.1c1.1-1.4,1.8-2.2,2.4-3.9c0.7-2.6,0.3-5.3-1-7.4c-1.1-1.7-2.8-3-4.5-3.3
	c-3.5-0.4-4.8-0.4-9.8,0.4l-1.1,0.2c-4.4,0.7-7.6,1.2-11.8,3c-3.6,1.5-3.8,3.5-3.9,4.4l0,0.2c-0.1,1.2,0.1,2.2,0.8,3
	c1.1,1.3,3.2,1.7,3.5,1.7c0,0,0,0,0,0c0.7,0,3.9,0.2,5.9,0.4c2.5,0.2,4.3,1,5.3,2.4c1.4,1.9,0.9,4.3,0.7,5.6c0,0.2-0.1,0.3-0.1,0.4
	c-0.2,1-2.1,11.1-3.6,19.3c-1,5.1-1.8,9.5-1.9,10.4c-0.3,1.8-1.7,5.5-2.8,8.5c-0.5,1.2-0.8,2.3-1,2.9c-0.6,2-5.7,16.4-6.7,19.4
	c-2,5.5-1.2,7.7-0.8,8.8c1,2.3,2.6,4.2,4.7,5.5c1.3,0.9,9.4,4.8,11.6,5.8c1.7,0.7,2.9,2.1,3.5,4c0.7,2.1,0.5,4.6-0.6,6.5
	c-1.2,2.2-4.3,3.8-6.8,5.1c-0.2,0.1-0.3,0.1-0.4,0.2l-0.1,0.1c-3.7,1.7-14.4,7.4-18.1,9.5c-2.6,1.5-7.4,5.2-14.3,11.1
	c-4,3.1-7.6,6.8-10.6,10.8c-3.9,5.3-6,8.5-8.2,11.9l-1,1.6c-0.6,0.9-1.1,1.7-1.5,2.4c-1.6,2.5-2.3,3.7-3.7,4.5l-0.1,0.1
	C621.5,1037.8,620.1,1038,618.8,1038z M643.5,881.8l0,0.1c-0.1,1.4-0.3,4.1,3.6,6.5c2.6,1.6,11.9,5.9,15,7.2l0.7,0.3
	c3.1,1.3,9.6,3.9,8.1,10.8l0,0.1l-0.3,1c-0.4,1.2-0.4,1.2-0.7,2.2l-2.1,6c-2.2,6.5-6,17.5-6.8,19.5c-0.7,1.8-3.8,10.6-6,17
	c-1.1,3.1-2,5.6-2.2,6.4c-2,5.6-2.9,9.8-2.6,12.4c0.3,2.5,0.7,3.8,1.2,5.7c0.4,1.3,0.8,2.7,1.3,4.8l0,0.1c0.7,4.6-0.7,9.2-3.7,12.8
	c-2,2.3-4.2,4.4-6.4,6.4c-0.6,0.6-2.3,2.2-4.5,4.3c-6.3,5.9-16.7,15.9-20.9,19.7l-0.2,0.1c-2.1,1.4-3.1,4-2.5,6.5l0,0.1
	c0,0.2,0.6,1.6,2.1,2.4c1.4,0.8,3.2,0.7,5.4-0.1c0.7-0.4,1.2-1.1,2.5-3.4c0.4-0.7,0.9-1.5,1.5-2.4l1-1.6c2.2-3.5,4.3-6.7,8.3-12.1
	c3.1-4.3,6.9-8.1,11.1-11.4c7.1-6,11.9-9.8,14.7-11.4c3.7-2.1,14.5-7.9,18.3-9.6c0.1-0.1,0.3-0.1,0.5-0.2c3-1.5,4.9-2.8,5.5-3.9
	c0.6-1.1,0.8-2.7,0.3-4c-0.3-1-1-1.8-1.9-2.2c-1.6-0.7-10.4-4.9-12.1-6.1c-2.5-1.6-4.5-4-5.8-6.9c-0.5-1.4-1.7-4.4,0.7-11
	c1-3,6.1-17.3,6.7-19.3c0.2-0.6,0.6-1.7,1.1-3c1-2.7,2.4-6.4,2.7-8c0.2-1,1-5.3,1.9-10.4c1.5-8.1,3.4-18.3,3.6-19.2
	c0-0.1,0.1-0.3,0.1-0.5c0.2-0.9,0.5-2.3-0.1-3.2c-0.6-0.8-2-1.1-3.1-1.2c-2-0.2-5.1-0.4-5.7-0.4c-0.7,0-3.7-0.5-5.7-2.6
	c-1.3-1.4-1.8-3.3-1.6-5.4l0-0.2c0.1-1.2,0.5-4.7,5.7-6.9c4.5-1.9,7.8-2.4,12.4-3.1l1.1-0.2c5.3-0.9,6.8-0.8,10.7-0.4l0.1,0
	c2.6,0.5,5,2.3,6.5,4.7c1.8,2.8,2.3,6.3,1.4,9.9c-0.8,2.4-1.7,3.6-2.9,5c-0.3,0.3-0.6,0.7-0.9,1.1c-1.2,1.5-2.7,5.6-3.6,8
	c-0.3,0.8-0.5,1.4-0.7,1.9c-0.7,1.6-0.3,3,0,3.3c0,0,0.6,0.1,3.4-1.6c3-1.9,10.7-6.7,16.6-11.1c5.2-3.8,11-9.8,13.2-12.1
	c0.3-0.3,0.5-0.5,0.6-0.7c1.1-1.1,17.8-17.8,21.1-20.8c1.8-1.6,11.9-11.4,20.8-20c7.4-7.1,13.8-13.3,14.7-14l0.6-0.5l10.4-9.8
	c5.4-5.1,11.3-9.7,17.5-13.9l7-4.7c4-2.5,6-2.2,7.8-1.7c0.2,0.1,0.4,0.1,0.6,0.1c0.5,0.1,0.9,0.2,1.3,0.3c1.2,0.4,2.4,0.7,4.4-0.1
	c2.5-0.9,3-2.4,4.1-5.4l0.1-0.3c1.4-3.3,3.5-6.3,6.2-8.6c1.9-1.6,10.5-9.6,13.6-12.8c3.1-3.1,6.5-11,7.2-12.8c1-2.6,5.6-8.1,7.1-9.8
	c0.3-0.4,1-1.1,1.9-2.1c4.5-5.1,15.1-17,22.6-26c9.1-10.8,11.8-12.5,18.3-16.6l0.4-0.2c4.4-2.8,34.3-20.4,58.4-34.6
	c12.2-7.2,22.7-13.4,27-15.9c0.9-0.5,22.2-13.4,25.4-15.1c1.8-1,28.1-16.1,51.3-29.5c17-9.8,33.1-19.1,36.1-20.7
	c4.2-2.4,37.9-21,62.4-34.6c15.2-8.4,28.3-15.6,29-16.1c0.6-0.4,1.5-0.9,2.5-1.4c2-1.1,4.5-2.5,5.7-3.2c4.8-3.3,7.1-9.2,8.2-13.6
	c0.4-2.9,0.3-5.8-0.3-8.7c-0.9-3.9-2.5-10.3-2.9-11.1c-0.2-0.5-0.6-1.2-1.3-2.2c-0.6-1-1.4-2.3-2.4-4.1c-1.9-3.5-3.6-4.7-5.2-5.5
	c-1.2-0.6-1.7-0.7-2.7-1c-0.6-0.2-1.4-0.4-2.4-0.7c-2.6-0.9-13.8-5-20.9-8c-6.7-2.8-10.3-5.6-12.1-7.4c-1.3-1.3-6.5-7.6-7.3-9.3
	c-1.8-3.8-0.3-7.5,4.5-11.1c2.1-1.6,6.1-4,9-5.7c1.2-0.7,2.3-1.4,2.9-1.8c0.3-0.2,0.8-0.6,1.3-1c3.4-2.5,10.5-7.8,17.9-5.8
	c4.1,1.2,6.7,3.8,9.1,6.2c0.4,0.4,0.8,0.8,1.2,1.2c0.4,0.3,0.8,0.7,1.5,1.4c2.3,2.3,7,7.2,13.3,6.4c7.2-0.6,13-1.1,17.8-2.9
	c2.2-0.8,5.7-2.1,9.1-3.4c4.7-1.8,9.1-3.4,10.9-4c1.8-0.6,4-0.9,7.1-1.4c2.7-0.4,6-0.9,10-1.8c7-1.5,9.7-4.1,11.2-5.7
	c0.2-0.2,0.4-0.4,0.6-0.6c2.2-1.8,4.5-3.5,6.8-5c0.7-0.5,1.7-0.8,3.1-1.4c1.3-0.5,2.9-1.1,4.8-1.9c3-1.3,4.6-3.4,6.9-6.1
	c0.4-0.5,0.8-1,1.2-1.5c2.4-2.9,4.5-7.4,5.7-10.1c0.2-0.4,0.4-0.8,0.5-1.1c2.3-5.9,5.6-11.5,9.6-16.4c1.5-1.9,7.3-7.3,12-11.7
	c2.2-2,4-3.8,4.8-4.5c2.7-2.7,6.4-3.3,9.5-3.7c0.3-0.1,0.7-0.1,1.1-0.2c3-0.4,8.1-1.1,13-4.5c2.6-1.7,6.8-6.4,7.4-9.7
	c0.6-3.3,0.3-7.9,0.2-10.4l0-0.8c-0.2-3.1-0.1-6.3,0.2-9.4l0-0.2c0.5-2.5,0.7-5,0.4-7.6l-0.3-2.5c-0.3-2.8-0.6-5.5-0.7-7.2l-0.1-0.5
	c-0.2-2.1-0.2-3.3,2.1-9.8c1.3-3.6,4.2-10,6.9-13.3c3.3-4,10.2-12.4,11.1-13.9c0.5-0.9,0.8-2.1,1.1-3.3c0.2-0.7,0.4-1.5,0.6-2.3
	l0.1-0.3c0.7-2.2,2.8-9,15-7.2l1.4,0.2c5.5,0.8,7,1.1,12.1,1.9c4.1,0.6,8.4,0.8,12.6,0.6c1.5-0.1,4.1-0.4,5.9-2.4
	c1.4-1.5,2-3.8,1.9-6.8c-0.1-2.3-0.7-9.7-1.8-22.1l-0.1-0.9c-0.1-1.2-2.6-4.6-5-4.7l-0.1,0c-3.1-0.4-6.3-1-9.3-2
	c-4.4-1.4-7.1-4.1-9.1-6.1l-0.5-0.5c-2.6-2.5-5.3-6.8-4.4-10.5c0.8-3.3,1.9-6.7,3.1-9.9c1.5-4,3.3-8,5.4-11.7
	c1.1-1.9,1.9-3.8,2.4-5.9c0.5-2.7-0.1-5.5-1.5-7.9c-2.2-3.4-13-16.3-15-18.2c-1.5-1.4-3.4-2.3-5.5-2.6c-2,0-4.2-0.1-6.2-0.4
	l-0.3-0.1c-3.1-0.9-6-2.3-8.7-4l-0.2-0.1c-2.9-2.6-5.3-5.7-7-9.2c-1.3-2.7-4.5-5.1-6.1-6.3l-0.5-0.4c-0.8-0.6-3.9-1.6-5.8-2.2
	c-1-0.3-1.8-0.6-2.3-0.8c-0.8-0.3-2.7-0.9-4.4-1.4c-2-0.6-3.2-1-3.6-1.2c-0.2-0.1-1.4-0.3-2.3-0.5c-2.2-0.4-5.2-1-7.1-1.7
	c-2.9-1.3-5.7-2.8-8.4-4.4c-0.3-0.2-0.6-0.4-1-0.6c-0.9-0.6-2.2-1.5-3.7-1.8c-1.8-0.4-3.6-0.3-5.3,0.3c-1.7,0.7-3.2,1.9-4.2,3.5
	c-0.9,1.3-3.1,4.5-5.1,7.4c-1.5,2.2-2.8,4.2-3.4,5c-1.3,1.8-1.8,4-1.3,6.1c0.6,2.9,1,5.8,1.2,8.8l0,0.1l0,0.1
	c-0.1,2.4-0.8,4.6-2.2,6.5c-0.6,1-2.2,3.3-3.6,5.2c-1,1.3-1.9,2.7-2.1,3.1l-0.1,0.1c-1.8,2.3-3.9,4.3-6.2,6
	c-1.2,0.8-2.5,1.9-3.8,2.8c-2,1.6-3.3,2.5-4,2.9c-0.2,0.1-0.6,0.5-1,0.8c-1.3,1.1-3.4,2.8-5.7,3.4c-3.6,0.7-7.2,1.2-10.7,1.2
	c-2.5,0-4.9,0.4-7.3,1.1c-0.9,0.4-3.6,1.1-7.9,2.4c-3.1,0.9-6.3,1.8-8.6,2.5c-1.8,0.6-3.4,1-4.9,1.4c-2.5,0.7-4.5,1.3-5.9,2
	c-2,1.1-6.2,4.4-8.7,6.5l-0.4,0.4c-2.2,1.8-3.4,5.2-4.1,7.5c-0.9,3.2-4.9,4.9-6.6,4.9c-3.2,0-6.1-2.2-7-5.3
	c-0.8-3.1,0.6-6.4,3.4-7.9c1-0.5,2.9-1.6,5-2.7c1-0.5,2.8-1.8,4.3-2.9c1.6-1.2,3-2.2,4-2.6c2.1-1.3,4-2.9,5.7-4.6c2-2.1,4.4-4,7-5.4
	c2.3-1.2,8.1-5.4,12.1-8.6c2.9-2.3,3.1-5.6,3-8.3c-0.1-1.5-1.3-2.8-2.9-4.5c-1.1-1.2-3.7-1-5.7-0.3c-1.7,0.6-5.1,1.4-7.6,2
	c-0.7,0.2-1.3,0.3-1.8,0.4c-2.8,0.5-5.5,0.7-8.2,0.7c-1.6,0.1-6.9,0.9-11.1,1.5c-2.4,0.4-4.5,0.7-5.8,0.9c-2.9,0.3-5.7,1-8.4,2
	c-0.9,0.4-2,1.4-3.6,2.9c-1,0.9-2.1,2-3.6,3.3c-4.2,3.6-17.8,13.5-20.6,15.1c-2.6,1.5-14,7.8-18,9.1c-3.8,1.1-7.6,1.7-11.4,2
	c-2.8,0.2-4.8-0.3-8.8-2c-3.9-1.6-18.4-9.6-20.9-11.2c-3.7-2.5-7.2-5.4-10.3-8.6c-2-2.2-7.1-5.6-12.1-7.7c-3.4-1.4-6.9-2.4-10.2-3.4
	c-1.5-0.4-2.9-0.9-4.3-1.3l-1.9-0.6c-3.9-1.3-8-2.6-10.7-3.1c-1.7-0.4-7.7-1.2-12.9-1.9c-4.3-0.6-8.4-1.1-10.1-1.4
	c-3.9-0.7-14.5-2.1-18-2.2c-3.7-0.1-11.3,0-17.2,0.2c-6.5,0.2-11.2-0.3-14.3-1.7c-1.1-0.5-2.7-1.2-4.4-1.9c-2.7-1.2-5.4-2.3-6.7-2.9
	c-0.4-0.2-1-0.4-1.8-0.8c-3.6-1.6-11.1-5-14-6.5c-5.6-3.3-10.8-7.1-15.6-11.3c-2.6-2.1-6.4-7.5-8.2-10.1c-0.3-0.4-0.5-0.7-0.6-0.9
	c-0.8-1.1-1.2-2.1-2.2-4.9c-0.4-1.2-1-2.8-1.8-5c-2.6-8.1-2.7-12.4-2.8-17c0-2-0.1-4.1-0.3-6.5c-0.8-8.2,0.5-19.1,1.1-23.8l0-0.3
	c0.6-5,1-9,1-10.5c0-1.7-0.8-7.6-2-10.1c-1-2.1-3.7-3.5-6.9-3.7c-2.9-0.2-5.3,1.2-8.1,3c-2.8,1.8-20,14.3-21,15.1l-0.1,0.1
	c-2,1.5-4.3,2.4-6.7,2.9c-0.6,0.1-0.9,0.2-1.1,0.2c-0.7,0.1-0.7,0.2-7.2,1.3c-8.2,1.4-25,4.6-35.1,7c-9.4,2.3-28.9,9.2-33.1,11.7
	c-3,1.8-2.8,3.7-2.5,6.5c0.1,0.5,0.1,1,0.1,1.6c0.1,3.5-0.1,7-0.8,10.4c-0.6,2.9-3.7,8.5-6.3,11.4c-2.2,2.7-5.7,4-9.2,3.2
	c-2.7-0.4-11.6-3-16.5-4.5c-3.6-1.1-4.9-1-6.4-0.9c-0.5,0-1,0.1-1.5,0.1c-2.4,0-24.3,0.9-31.4,1.5c-6.1,0.5-7.5,3-8.6,5.1l-0.2,0.4
	c-1.1,1.9-2.5,4-4.8,4.4c-2.3,0.4-6.9-0.4-8.3-6.7c-1-4.5-2.9-5.9-3.9-6.6c-0.1-0.1-0.2-0.2-0.3-0.3c-0.9-0.7-17.4-12.6-22.1-15.8
	c-4.3-2.9-7.6-3.3-11.4-3.7l-0.2,0c-3.4-0.4-4.5,0.2-7.4,1.6l-0.4,0.2c-1.9,0.9-3.6,2-5,3.4l-0.1,0.1c-1,0.9-2.6,3.2-4,5.3
	c-0.7,1-1.4,2.1-2.1,3c-2,2.7-3.8,5.6-5.3,8.6c-0.2,0.6-0.2,1.2-0.3,2.4c0,0.8-0.1,1.8-0.2,3.1c-0.3,3.6-0.6,5.2-4.2,8.7
	c-3.8,3.4-7.8,6.5-12.1,9.3c-3.8,2.5-14.1,7.1-16.2,8c-4,1.8-4.4,2.9-4.6,5.8c-0.2,2.9,1.9,4.6,2.8,5.4c0.9,0.8,10.7,8,15.6,11.1
	c4.5,2.8,7.3,2.5,9.4,2.2c2.2-0.3,5.2-0.7,8.4,1.2c2.5,1.3,4.4,3.7,5,6.6c0.3,1.1,0.9,4,1.6,7.3c0.8,4,1.8,8.5,2.4,11
	c1,3.3,1,6.9,0.1,10.3c-0.7,2.9-1.9,5.6-3.6,8c-1.3,1.7-2.5,3.3-3.8,5c-0.8,1.1-1.7,2.3-2.7,3.6c-2.8,3.9-6,7.4-9.7,10.5
	c-2.8,2.2-8.4,7.4-12.4,11.1c-1.9,1.8-3.6,3.3-4.5,4.2c-2.4,2.1-6.3,6.6-8.1,8.8l-0.7,0.8c-1.2,1.6-2.7,3.1-4.4,4.3
	c-0.5,0.4-1.3,1-2.3,1.7c-3.1,2.3-7.9,5.7-10.1,7c-2.6,1.5-11.7,9.6-12.8,10.7c-0.8,1-1.2,2.3-1.3,3.6c0,1.3,0.5,2.7,1.4,3.8
	c1.5,1.3,2.6,3,3.1,4.9c0.9,3.1-1.4,6.9-2.3,8.3c-1,1.6-1.9,2.5-6.9,5.2c-3.2,1.6-5.3,4.7-5.7,8.2c-0.2,3.1-0.1,6.4,0.2,9.6
	c0.3,7.8-0.6,9.8-1.8,12.4c-0.1,0.3-0.3,0.7-0.5,1.1c-1.4,3.4-7.2,16.8-9.7,20.9c-2.5,4.3-8.1,10-9.4,11.2
	c-1.5,1.3-9.4,7.9-12.1,9.9c-2.9,2.4-5.8,5-8.6,7.8c-0.7,0.7-2,2-3.5,3.5c-2.8,2.8-6.3,6.3-7.6,7.5l-0.5,0.5
	c-3.5,3.2-5.4,4.8-6.3,5.3c-0.5,0.2-2,1.1-3.6,2c-1.5,0.8-3,1.7-3.9,2.2c-1.8,1-7.4,6.2-8.3,7.2c-1.1,1.2-3.5,2.8-8,5
	c-2.5,1.3-11.1,4.5-19.5,7.7c-6.9,2.6-13.4,5.1-15.2,5.9c-3.5,1.7-4.4,6.2-4.2,8c0.1,2,0.9,3.7,3.9,6.1c2.2,1.7,6,3.3,10.3,5.2
	c1.7,0.7,3.4,1.5,5.1,2.3c6.8,3.1,13.7,8.1,15.6,10.1l0.5,0.4c2.4,2.4,8,7.9,10.1,14.3c2.2,6.5,17,43.7,19.4,49.5
	c2.5,6.1,4.8,12.4,6.7,18.8c1.3,5,2.2,10.1,2.7,15.1c0.3,3.3,0.8,12,1.2,17.7l0,0.2c0.3,4.6,0.2,9.3-0.2,13.9
	c-0.2,2.3-2.7,15.8-2.9,16.9c0,0.2-0.1,0.6-0.2,1c-0.5,3-1.1,6.3-2,8.3c-0.4,0.8-1.1,2.4-2,4.4c-1.9,4.2-4.5,10-5.4,11.8l0,0.1
	c-1.1,2-1.8,4.2-2,6.5c-0.2,2.3,0,4.8,0.2,8.1c0.1,0.9,0.1,1.8,0.2,2.7c0,3,0.7,5.9,2,8.6c1.1,2.3,25.6,34,28.7,37.9
	c3,3.5,6.3,6.7,10,9.4c2.9,2.3,18,13.4,28,20.7c4.4,3.3,8,5.8,9.2,6.7c3.9,2.9,4.7,4.3,5.6,5.9l0.2,0.3c0.9,1.6,1,4,1,5.8
	c0,0.4,0,0.7,0,1c0,0.3,0,0.6,0,0.9c0,1.3,0,2.7,1.5,4.9c1.7,2.3,3.8,2.7,6.9,3.2l1,0.2c2.3,0.4,7.1,1.4,11.4,2.3
	c2.3,0.5,4.4,0.9,5.8,1.2c3,0.4,5.4,2.5,6.3,5.4c0.1,0.4,0.2,0.9,0.3,1.6c0.2,1.3,0.5,3,1.4,4.6c0.4,0.8,2,2.6,7.8,6l0.1,0.1
	c1.8,1.1,3.2,2.7,4.1,4.6c1.3,3.2,2.8,6.2,4.6,9c2.5,3.1,7.6,7.9,11.5,6.2c2.6-1.7,6.6-3.5,11.1-2.9c0.2,0,0.4,0,0.6,0.1
	c0.7,0.1,1.9,0.2,4.8,0.6c1.7,0.2,4.1,0.5,6.4,0.8c3,0.4,5.9,0.7,7.3,1c2.3,0.4,5.6,1.8,10.7,4.5c1.6,0.8,3.1,1.7,4.6,2.6
	c2.4,1.4,5,2.9,8.5,4.6c4,2.1,8.7,2.5,12.9,1.1c3.1-1,5.3-2.1,10.6-4.8l1.5-0.8c6.3-3.2,8.1-5.8,10.5-9.8c0.8-1.4,1.6-2.9,2.4-4.6
	c1.6-3.3,3.5-7,6.6-10.9c2-2.5,4.1-3.7,6.3-3.6c2.8,0.1,4.4,2.3,4.7,2.7c0.3,0.4,1.4,2,2.7,4c1,1.4,2,3,3,4.5l5.8,7l0.1,0.3
	c1.5,4.3,0.8,7.5-0.2,9.1c-1.4,2.5-3.7,4.3-6.5,5l-0.1,0l-7.4,1.5l-15.2,3.3c-1.9,0.5-3.6,1.6-4.9,3.2c-0.8,1-1.3,2.8-1.6,4.1
	c-0.2,0.8-0.3,1.4-0.6,1.9c0,0.1-0.1,0.1-0.1,0.2c-0.6,1.2-1.4,2.3-5.1,3.1c-3.8,0.8-12.9,3-18.2,4.2L738,818
	c-27.1,6.3-43.7,10.3-46.9,11.1c-1.2,0.2-4.6,0.9-11,7.3c-1.5,1.6-6,7-10.1,11.7c-3.2,3.8-5.9,7-6.8,7.9c-1.8,2-15.1,17.4-16,18.5
	c-0.2,0.2-0.4,0.5-0.7,0.7C645.6,876.2,644.1,877.6,643.5,881.8z M791.6,795L791.6,795L791.6,795z"/>
</svg>
