<?xml version="1.0" encoding="utf-8"?>
<!-- Generator: Adobe Illustrator 24.0.1, SVG Export Plug-In . SVG Version: 6.00 Build 0)  -->
<svg version="1.1" id="Imola_Moto_-_Config" xmlns="http://www.w3.org/2000/svg" xmlns:xlink="http://www.w3.org/1999/xlink"
	 x="0px" y="0px" viewBox="0 0 1920 1080" style="enable-background:new 0 0 1920 1080;" xml:space="preserve">
<style type="text/css">
	.st0{fill:#FFFFFF;}
</style>
<title>active</title>
<path class="st0" d="M1848.4,241.2c-5.7-16.3-25-29.5-43.9-30c-34.5-0.9-80.9-0.1-130.1,0.8c-56.2,1-114.3,2-155.7,0.4
	c-35.9-1.3-57.1-5.8-77.8-12c-6.3-1.9-13.8-4.2-21.9-6.6c-29.7-9-70.4-21.3-97.4-28.9c-36.9-10.4-55,14.5-63.6,26.4l-0.5,0.7
	c-6,8.3-14.5,22.4-22.1,34.8c-4.2,6.9-8.2,13.5-11.1,18.1c-25.2,39.3-24.8,74.5-22.3,97.5c4,37,11.3,110.6,15.1,149.5
	c1.5,15.7-0.7,18.8-4.1,23.4c-0.7,1-1.5,2-2.3,3.2c-9.1,13.6-30.5,38.1-43.3,52.8c-1.5,1.8-3,3.4-4.2,4.9c-6.4,7.4-9,5.9-14.5,2.8
	l-0.3-0.2c-4-2.2-8.3-4.9-12.5-7.4c-5.4-3.3-10.4-6.3-14.5-8.5c-13-6.8-21.7-8.1-28.8-8.8c-38.3-3.8-82.3-8.9-128.8-14.3
	c-69.3-8-147.9-17.2-236.2-25.4c-10-0.9-11.1-5.3-11.4-9.3c-0.6-8.7-3.6-15-9-18.9c-8.2-5.9-18.4-3.1-23.2-1.8
	c-0.5,0.1-0.9,0.2-1.3,0.3c-48.7,12.3-113.7,29.7-150,41.4C464,548.3,426,577,393.1,604.5c-30.2,25.1-92.4,73.7-123.3,96.2
	c-21.7,15.9-38.1,21.8-49.9,25.1c-9.4,2.7-21.6,6.2-34.5,10c-24.9,7.3-53.1,15.5-73.5,21.1c-11.6,3.1-19.7,8.8-24.2,16.7
	c-6.7,11.9-3,25.1-1,32.1l1,3.6c5.4,19.1,13.5,48,19.2,63.7c7.6,20.7,21.6,27,32,28.6c11.7,1.8,23.4-1.3,31.2-3.5
	c1.1-0.3,2.2-0.6,3.2-0.9c62.8-16,200.8-48.4,230.5-55c27.5-6.2,47.1-7.9,63.8-5.8l0,0c13.5,1.8,32.8,4.9,53.1,8.2
	c26.1,4.3,53,8.7,71.2,10.7c13.1,1.5,21.4-2.3,24.7-11.2c1.4-3.8,1.8-8.9,2.1-13.5c0.1-1.2,0.1-2.3,0.2-3.1c1.3,0.5,2.6,1.1,3.5,1.5
	c1.2,0.5,2.3,1.1,3.4,1.5c34.6,12.3,108.9,38.8,109.6,39.1l0.2,0.1c17.1,5.8,37.4,12.7,59,20.1c54.7,18.8,116.8,40,143.2,47.6
	c34.8,9.9,59.9,12.3,80,14.1l4.4,0.4c31.9,3.1,78.1,4.7,120.1,4.7c25.2,0,48.8-0.6,67-1.9c32.7-2.3,68.8-5.2,87.9-9.9
	c33.9-8.3,38-25.3,39.3-40.6c1.4-17.2,11.4-21.1,21.1-24.9l0.1-0.1c26.3-10.3,54.3-20.2,77-27.3c25.1-7.9,34-24.1,39.9-34.8
	c0.4-0.6,0.7-1.3,1.1-1.9c28-50.1,73.5-133.6,113.6-207.2c19.6-36,38.1-70,52.1-95.4c12.7-23.1,11.6-35.3,9.3-46.7
	c-1.4-7.4-5.6-29.9-5.6-30.2c-4.8-25.6,4-30.9,14.3-37.1c1.3-0.8,2.6-1.6,3.9-2.4c13.4-8.7,27.4-17.4,42.1-26.7
	c44.7-28,90.8-56.9,129-88.7C1853.2,265.4,1851.2,249.4,1848.4,241.2z M1821.6,265.7c-37.1,30.9-82.7,59.5-126.8,87.1
	c-14.8,9.3-28.8,18-42.4,26.8c-1.1,0.7-2.2,1.4-3.3,2.1c-11.6,7-31,18.7-23.6,57.9c0.2,0.9,4.2,22.8,5.7,30.4
	c1.4,7.2,2.9,14.7-7.3,33.2c-13.9,25.4-32.5,59.4-52.1,95.5c-40.1,73.6-85.5,157-113.5,207c-0.4,0.7-0.7,1.3-1.1,2
	c-5.4,9.8-11,19.9-28.4,25.3c-23,7.2-51.6,17.3-78.3,27.8l-0.1,0.1c-10.2,4-31.3,12.2-33.8,41.9c-0.8,9.6-1.4,17.2-24.1,22.8
	c-20.1,4.9-65.2,8.1-84.5,9.4c-47.7,3.3-133.7,2-183.8-2.8l-4.5-0.4c-19.3-1.8-43.4-4.1-76.4-13.5c-26-7.4-87.7-28.6-142.2-47.2
	c-21.6-7.4-41.9-14.4-59-20.1c-2.9-1-75.5-27-109.6-39.1c-0.3-0.1-1.2-0.5-1.9-0.8c-5-2.3-14.2-6.5-22.5-1.8c-3.5,2-8,6.3-9.1,15.6
	c-0.2,1.4-0.3,3-0.4,4.7c-0.1,1.6-0.3,4.4-0.5,6.3c-0.9,0-2.1,0-4-0.2c-17.6-2-44.3-6.3-70.2-10.6c-20.5-3.4-39.9-6.5-53.8-8.3
	c-19.1-2.5-40.9-0.6-70.7,6.1c-30.8,6.9-166.9,38.8-231.1,55.2c-1.1,0.3-2.3,0.6-3.5,0.9c-18.4,5-31.9,7-39.2-12.8
	c-5.5-14.9-13.8-44.5-18.7-62.2l-1-3.6c-1.5-5.2-3.4-12.2-0.8-16.9c1.8-3.1,5.8-5.6,12-7.3c20.6-5.6,48.9-13.9,73.9-21.2
	c12.9-3.8,25.1-7.3,34.4-10c13.4-3.8,31.9-10.5,56.1-28.2c31.8-23.1,93.4-71.2,124.4-97c31.4-26.2,67.6-53.5,133-74.6
	c35.8-11.6,100.3-28.8,148.7-41c0.5-0.1,1-0.3,1.6-0.4c1.3-0.4,4.7-1.3,6.2-1.1c0.2,0.5,0.6,1.6,0.7,3.8c1,15.9,12.1,26.3,29.5,28
	c88.1,8.2,166.6,17.3,235.8,25.4c46.6,5.4,90.7,10.5,129.2,14.3c5.7,0.6,11.7,1.5,21.6,6.6c3.5,1.8,8.3,4.7,13.3,7.8
	c4.3,2.6,8.8,5.3,13,7.7l0.3,0.2c6.1,3.5,22.3,12.6,39.4-7c1.3-1.5,2.7-3.1,4.2-4.9c14-16,35-40.1,44.9-54.9
	c0.6-0.9,1.2-1.7,1.8-2.6c5.9-8.1,9.9-15.6,7.8-37.1c-3.8-39-11.1-112.7-15.1-149.8c-2.2-20-2.6-50.5,19.2-84.5
	c3.1-4.8,7.1-11.5,11.4-18.6c7.3-12.1,15.6-25.8,21.1-33.4l0.5-0.7c8.3-11.4,18.6-25.6,42-18.9c26.8,7.6,67.4,19.8,97,28.8
	c8.2,2.5,15.6,4.7,22,6.6c19.2,5.8,42.5,11.4,82.8,12.9c42,1.6,100.4,0.6,156.9-0.4c48.9-0.9,95.1-1.7,129.2-0.8
	c10.6,0.3,22.5,8,25.5,16.5C1831.5,253.6,1828.9,259.7,1821.6,265.7z"/>
</svg>
