<?xml version="1.0" encoding="utf-8"?>
<!-- Generator: Adobe Illustrator 24.0.1, SVG Export Plug-In . SVG Version: 6.00 Build 0)  -->
<svg version="1.1" id="_24_Heures_du_Mans_-_Config"
	 xmlns="http://www.w3.org/2000/svg" xmlns:xlink="http://www.w3.org/1999/xlink" x="0px" y="0px" viewBox="0 0 1920 1080"
	 style="enable-background:new 0 0 1920 1080;" xml:space="preserve">
<style type="text/css">
	.st0{fill:#FFFFFF;}
</style>
<title>active</title>
<path class="st0" d="M1836.9,110.1c-6.3-2.3-17.8-5.8-24.1-7.7c-13.7-4-20.3-4.3-27-4.2c-16.4,0.2-37.7,0.6-60.4,0.9
	c-25.8,0.4-52.4,0.9-70.7,1.1c-18.1,0.2-43.1,0.9-69.5,1.7c-40.3,1.2-86,2.5-115.2,2.1c-30.7-0.4-40.2,1.6-54.5,6.2
	c-6.7,2.2-18.1,5.1-28.2,7.7c-6.7,1.7-13.1,3.4-17.7,4.7c-21.6,6.2-26.8,3.2-34.6-1.3c-6.8-4-13.3-5-19.1-3.2
	c-6.1,1.9-11,6.7-14.6,14.3c-4.1,8.8-10.4,12.1-15,13.3c-44.8,11.8-100.1,27.4-144.5,40c-17.8,5-34.5,9.8-48.3,13.6
	c-49.4,13.8-148.4,41.5-198.2,55.6c-8.2,2.3-18.2,5.2-29.3,8.3c-37.4,10.6-88.6,25.2-117.1,32.8c-10.5,2.8-14.5,7.4-17.8,11
	l-0.5,0.6c-3.3,3.8-6.8,7.5-10.5,10.9c-8.1,7.2-14.1,4.6-20.5-1.5c-6.4-6.1-17.1-2.7-22.2-1.1l-0.5,0.2
	c-39.1,12.2-92.1,26.4-138.7,39c-24.7,6.6-48,12.9-66.5,18.1c-18.2,5.1-46.6,12.9-74.1,20.4c-20.6,5.6-40,10.9-53.7,14.7
	c-23,6.4-66.6,18.7-88.3,25.1c-24.4,7.2-32.4,12-40.1,16.6c-1.7,1-3.4,2.1-5.3,3.1c-19.5,10.8-57.5,32.5-76.7,44.3
	c-14.3,8.8-23.6,15.8-32.2,24c-16.1,15.4-23.4,27.2-29.3,36.7c-1.6,2.6-3.2,5.1-4.8,7.5c-8,11.8-8.2,18.4-5.5,27.8l0.7,2.6
	c3.7,13.3,9.9,35.7,15.7,46.7l0,0c2.2,4.2,7,10.2,10.8,15c0.9,1.1,1.7,2.2,2.4,3c4.2,5.4,8.9,10.7,13.7,15.6l0.2,0.1
	c6.7,6.2,12.3,5.9,16.1,5.8c0.3,0,0.7,0,1.1,0c3.2-0.1,6.5-0.1,9.7,0.2c14.8,2.1,16.5,11.6,16.2,20.7c0,1.5-0.1,3.2-0.2,5.1
	c-0.3,9.1-0.8,21.7-0.3,28.8c2.4,32.1,18.8,40.9,30.8,47.3c0.9,0.5,1.8,0.9,2.6,1.4c7.5,4.1,11,10.4,13.8,15.4
	c0.3,0.6,0.6,1.1,0.9,1.6c3.7,6.5,9.8,16.8,15.2,25.8c2.9,4.9,5.7,9.6,7.9,13.3c6.1,10.4,13.8,8.9,16.3,8.4c2-0.4,5.8-1.3,7.7-1.9
	c4.3-1.1,4.6-0.4,5.8,2.4c0.2,0.5,0.4,1,0.6,1.4c3.9,7.9,11.8,23.2,16.4,31.2c10,17.3,21.6,24.3,32.7,29.4
	c19.7,9,39.4,13.4,53.7,16.7c2.6,0.6,5,1.1,7.2,1.7c12.5,2.9,25.4,5.1,38.2,6.4c35.9,3.9,141.4,9.4,142.4,9.5c0.7,0,1.3,0.1,2,0.1
	c6.3,0,10-2.1,11-6.3c1-4.2,1.7-4.3,3.1-4.4c7.3-0.9,15.7-2.1,19.2-2.7c7.7-1.2,13.8-2.5,16.5-8.4c4.4-9.9,7.4-10.5,11.4-11.4
	c32.1-7.1,85.8-18.9,114.8-26.1c19.8-5,29.3-4.4,38.3-1.9c10.3,2.9,22.5,4.3,31,3.7c11.9-0.8,35.3-3.7,46.8-5.4
	c22.7-3.3,29.9,6.1,36.3,14.3c1.3,1.6,2.5,3.2,3.7,4.6c21,23.6,35.6,24.2,49.8,22.8c17.7-1.8,27.6-12.6,34.2-19.8l1.1-1.2
	c15.5-16.6,22.5-19.3,33.9-20.9c9.9-1.2,19.9-1.6,29.8-1.3c17.8,0.9,25.2,7.2,31.7,12.7l0.1,0.1c4.3,3.6,10.7,10.6,16.5,16.8
	c3.6,3.9,7.1,7.6,9.7,10.3c12.3,12.1,28.2,15.5,45,9.6c21.3-7.6,33.3-15.8,42.9-22.4c1.4-1,2.8-1.9,4.2-2.9
	c14.4-9.7,29.7-18.3,45.5-25.6c11.5-5.3,27.3-12.2,44-19.6c20.6-9,41.8-18.4,55.6-24.9c14.6-6.9,30-11.9,45.8-14.9
	c38.3-6.8,114.2-20.9,155.5-29.8c4.9-1.1,8.3-3.2,10.1-6.4c2.5-4.5,0.9-9.3,0.1-11.6l-0.1-0.2c-1.2-3.5-2.6-7.5-4.1-11.8
	c-7.1-20.6-16.9-48.7-22.3-65.4c-0.9-2.7-0.8-5.1,0.3-7.2c2.1-4,7.1-6.4,9.5-7.1c5.8-1.8,11.2-3.2,16.5-4.7
	c6.8-1.8,12.7-3.4,17.6-5.2c14.5-5.3,19.8-10.5,24.3-15.9c26.5-31.2,74.6-89.5,99.3-120.9c8.8-11.4,17-23.5,24.5-35.8
	c15.9-25.9,36.9-64.3,53.8-95.1c6.1-11.2,11.9-21.8,16.8-30.5c6.1-11.3,11.4-23.1,15.8-35.1c6.3-17.5,18-52.2,23.6-69.5
	c5.8-17.8,13.5-43.6,20.9-68.6c7.4-24.9,15.1-50.6,20.6-67.4C1850.8,122.8,1846.7,113.6,1836.9,110.1z M1837.8,130.3
	c-5.5,17-13.2,42.8-20.7,67.7c-7.4,24.9-15.1,50.6-20.9,68.3c-5.6,17.2-17.2,51.8-23.5,69.1c-4.3,11.6-9.4,22.9-15.2,33.8
	c-4.8,8.7-10.6,19.2-16.8,30.5c-16.9,30.8-37.8,69-53.6,94.7c-7.3,12-15.4,23.7-23.9,34.8c-24.6,31.3-72.5,89.4-99,120.5
	c-3.8,4.5-7.9,8.5-20.1,13c-4.5,1.6-10.2,3.2-16.8,5c-5.1,1.4-10.8,2.9-16.8,4.7c-1.8,0.6-11.1,3.8-15.4,12.1
	c-2.3,4.5-2.7,9.7-1,14.9c5.5,16.8,15.2,45,22.4,65.6c1.5,4.3,2.9,8.3,4.1,11.8l0.1,0.2c0.3,0.8,1,2.9,0.7,3.5
	c-0.2,0.3-1.1,1-3.5,1.5c-41.2,8.8-116.9,23-155.2,29.8c-16.7,3.2-33,8.5-48.3,15.7c-13.6,6.5-34.8,15.8-55.3,24.8
	c-16.7,7.4-32.6,14.3-44.2,19.6c-16.3,7.5-32.1,16.4-46.9,26.4c-1.4,0.9-2.8,1.9-4.3,2.9c-9.6,6.6-20.5,14.1-40.6,21.2
	c-13.3,4.7-24.9,2.3-34.6-7.3c-2.5-2.5-5.8-6.1-9.4-9.9c-5.9-6.4-12.6-13.6-17.3-17.7l-0.1-0.1c-7-5.9-16.5-14-37.7-15.1l-0.1,0
	c-10.4-0.3-21,0.2-31.4,1.4l-0.1,0c-14,2-23.1,5.9-39.8,24l-1.2,1.3c-5.9,6.4-14,15.2-27.9,16.6c-10.3,1-21.9,2.2-41.3-19.5
	c-1-1.2-2.1-2.6-3.3-4.1c-6.8-8.9-17.1-22.2-45.6-18.1c-11.7,1.7-34.8,4.5-46.1,5.3c-6.1,0.4-17-0.4-27.6-3.4
	c-10.6-2.9-21.5-3.6-43.4,1.9c-28.9,7.2-82.5,19-114.5,26.1c-6.7,1.5-12.3,3.7-18.4,17c-0.5,1-3.2,1.8-8.9,2.7
	c-3.5,0.5-11.8,1.7-19,2.6c-4.4,0.6-8.8,2.3-11.2,10.6c-0.6,0.1-1.5,0.1-3,0c-1.1-0.1-106.3-5.6-142-9.4
	c-12.4-1.3-24.8-3.4-36.9-6.2c-2.3-0.5-4.8-1.1-7.3-1.7c-14.7-3.3-32.9-7.4-51.7-16c-8.9-4.1-19.1-9.7-28.2-25.3
	c-4.5-7.7-12.3-22.8-16.1-30.6c-0.1-0.3-0.3-0.6-0.4-1c-1.1-2.6-3.8-8.9-12.1-8.9c-1.6,0-3.4,0.2-5.5,0.8c-1.8,0.5-5.3,1.4-7,1.7
	c-1.8,0.3-3.3,0.6-5.9-3.6c-2.2-3.8-5-8.4-7.9-13.4c-5.4-9-11.5-19.3-15.1-25.7c-0.3-0.5-0.6-1-0.9-1.5c-3.1-5.5-7.7-13.7-17.7-19.3
	c-0.9-0.5-1.8-1-2.7-1.5c-11.1-5.9-23.6-12.6-25.6-39.2c-0.5-6.6,0-19.3,0.3-27.7c0.1-1.9,0.1-3.6,0.2-5.1
	c0.6-18.1-7.8-28.5-25-30.9l-0.3,0c-3.7-0.3-7.4-0.4-10.9-0.2c-0.4,0-0.8,0-1.2,0c-2.9,0.1-5.2,0.2-8.8-3.1
	c-4.6-4.6-8.9-9.5-12.9-14.6c-0.7-0.9-1.6-2-2.5-3.1c-3.2-4-8-10-9.8-13.4c-5.3-10-11.5-32.6-14.9-44.7l-0.7-2.6
	c-1.9-6.7-2-10.4,4.2-19.5c1.7-2.6,3.3-5.1,5-7.9c5.9-9.5,12.6-20.2,27.8-34.7c8-7.7,16.9-14.2,30.5-22.7
	c19-11.8,56.8-33.3,76.2-44.1c2-1.1,3.9-2.2,5.6-3.3c7.5-4.5,14.6-8.8,37.8-15.6c21.7-6.4,65.2-18.7,88.1-25.1
	c13.7-3.8,33.1-9.1,53.7-14.7c27.5-7.5,55.9-15.3,74.1-20.4c18.4-5.2,41.7-11.5,66.3-18.1c46.8-12.6,99.8-26.8,139.1-39.1l0.6-0.2
	c2.5-0.8,10.1-3.2,12.3-1.2c11.5,10.9,23,11.4,34.1,1.7l0.1-0.1c3.9-3.7,7.7-7.6,11.2-11.7l0.5-0.5c2.7-3.1,5.3-5.9,12.9-8
	c28.5-7.7,79.8-22.2,117.2-32.8c11-3.1,21.1-6,29.3-8.3c49.8-14.1,148.8-41.8,198.2-55.6c13.8-3.8,30.6-8.6,48.3-13.6
	c44.4-12.5,99.6-28.1,144.3-39.9c6.6-1.7,15.7-6.4,21.5-18.7c1.6-3.4,4.4-7.8,8.5-9.1c3-0.9,6.8-0.2,11.1,2.3
	c10.3,6,18.3,9.1,42.3,2.3c4.4-1.3,10.7-2.9,17.4-4.6c10.7-2.8,21.7-5.6,28.8-7.9c13.5-4.4,21.9-6.1,51.3-5.8
	c29.4,0.4,75.2-1,115.6-2.1c26.4-0.8,51.3-1.5,69.4-1.7c18.3-0.2,45-0.6,70.8-1.1c22.6-0.4,44-0.7,60.3-0.9
	c6.1-0.1,11.7,0.2,24.1,3.8c5,1.5,17.2,5.2,23.5,7.5C1838.2,121.2,1839.6,124.8,1837.8,130.3z"/>
</svg>
