<?xml version="1.0" encoding="utf-8"?>
<!-- Generator: Adobe Illustrator 24.0.1, SVG Export Plug-In . SVG Version: 6.00 Build 0)  -->
<svg version="1.1" id="Historic_-_Config" xmlns="http://www.w3.org/2000/svg" xmlns:xlink="http://www.w3.org/1999/xlink" x="0px"
	 y="0px" viewBox="0 0 1920 1080" style="enable-background:new 0 0 1920 1080;" xml:space="preserve">
<style type="text/css">
	.st0{fill:#FFFFFF;}
</style>
<title>active</title>
<path class="st0" d="M1836.9,110.1c-7.1-2.6-20.2-6.5-24.1-7.7c-13.7-4-20.3-4.3-27-4.2c-16.3,0.2-37.7,0.6-60.3,0.9
	c-25.8,0.4-52.5,0.9-70.8,1.1c-18.1,0.2-43.1,0.9-69.5,1.7c-40.3,1.2-86,2.5-115.3,2.1c-30.8-0.4-40.3,1.6-54.5,6.2
	c-6.9,2.3-18.7,5.3-29.1,8c-6.3,1.6-12.3,3.2-16.7,4.4c-21.8,6.2-62.9,17.6-83.3,23.1h0c-45.5,12.3-101.6,28-146.7,40.7
	c-17.1,4.8-32.8,9.2-46,12.9c-49.4,13.8-148.5,41.5-198.2,55.6c-7.8,2.2-17.3,4.9-27.7,7.8c-37.9,10.7-89.8,25.4-118.7,33.2
	c-18.4,5-54.2,14.8-71.9,20c-38.1,11.3-89.3,25.2-134.5,37.6c-26.4,7.2-51.3,14-70.8,19.5c-18.4,5.2-47.2,13.1-75.1,20.7
	c-20.2,5.5-39.2,10.7-52.7,14.4c-22,6.1-66,18.6-88.3,25.1c-24.4,7.2-32.4,12-40.1,16.6c-1.7,1-3.4,2.1-5.3,3.1
	c-20.6,11.4-58,32.8-76.7,44.3c-14.3,8.8-23.6,15.8-32.2,24c-16.1,15.4-23.4,27.2-29.3,36.7c-1.6,2.6-3.2,5.1-4.8,7.5
	c-8,11.8-8.2,18.4-5.5,27.9l0.8,3c3.7,13.2,9.9,35.4,15.6,46.3c2.2,4.1,6.8,10,10.6,14.7c1,1.2,1.9,2.4,2.6,3.3
	c4.2,5.4,8.9,10.7,13.7,15.6l0.2,0.1c6.7,6.2,12.3,5.9,16.1,5.8c0.3,0,0.7,0,1.1,0c3.2-0.1,6.5-0.1,9.7,0.2
	c14.8,2.2,16.5,11.6,16.2,20.6c0,1.3-0.1,2.8-0.2,4.5c-0.3,9.3-0.8,22.1-0.3,29.4c2.4,32.1,18.8,40.9,30.8,47.3
	c0.9,0.5,1.8,0.9,2.6,1.4c7.5,4.1,11,10.4,13.8,15.4c0.3,0.6,0.6,1.1,0.9,1.6c3.7,6.5,9.8,16.8,15.2,25.8c2.9,4.9,5.7,9.6,7.9,13.3
	c5.5,9.3,12,9.2,16.3,8.4c2-0.4,5.8-1.3,7.7-1.9c4.3-1.2,4.6-0.4,5.8,2.4c0.2,0.5,0.4,1,0.6,1.4c3.9,7.9,11.8,23.2,16.4,31.2
	c10,17.3,21.6,24.3,32.7,29.4c19.7,9,39.4,13.4,53.7,16.7c2.6,0.6,5,1.1,7.2,1.7c12.5,2.9,25.4,5.1,38.2,6.4
	c35.9,3.9,141.4,9.4,142.4,9.5c0.7,0,1.3,0.1,2,0.1c6.3,0,10-2.1,11-6.3c1-4.2,1.7-4.3,3.1-4.4c7.3-0.9,15.7-2.1,19.2-2.7
	c7.7-1.2,13.8-2.5,16.5-8.4c4.5-9.9,7.2-10.5,11.4-11.4c29.7-6.5,85.1-18.7,114.8-26.1c19.8-5,29.3-4.4,38.3-1.9
	c10.4,2.9,22.5,4.3,31,3.7c11.9-0.8,35.3-3.7,46.8-5.4c22.7-3.3,29.9,6.1,36.3,14.3c1.3,1.6,2.5,3.2,3.7,4.6
	c21,23.6,35.6,24.2,49.8,22.8c17.7-1.8,27.6-12.6,34.2-19.8l1.2-1.2c15.5-16.6,22.5-19.3,33.9-20.9c9.9-1.2,19.9-1.6,29.8-1.3
	c17.8,0.9,25.2,7.2,31.7,12.7l0.1,0.1c4.3,3.6,10.7,10.6,16.5,16.8c3.6,3.9,7.1,7.6,9.7,10.3c12.3,12.1,28.2,15.5,45,9.6
	c21.3-7.6,33.3-15.8,42.9-22.4c1.4-1,2.8-1.9,4.2-2.9c14.4-9.7,29.7-18.3,45.5-25.6c11.5-5.3,27.3-12.2,44-19.6
	c20.6-9,41.8-18.4,55.6-24.9c14.6-6.9,30-11.9,45.8-14.9c38-6.7,113.7-20.9,155.5-29.8c4.9-1.1,8.3-3.2,10.1-6.4
	c2.5-4.5,0.9-9.3,0-11.7l-0.1-0.2c-1.2-3.6-2.7-7.8-4.3-12.4c-7.1-20.4-16.8-48.3-22.1-64.9c-0.9-2.7-0.8-5.1,0.3-7.2
	c2.1-4,7.1-6.4,9.5-7.1c5.7-1.7,11.1-3.2,16.3-4.6c6.9-1.9,12.8-3.5,17.7-5.3c14.5-5.3,19.8-10.5,24.3-15.9
	c26.2-30.8,74.2-89,99.3-120.9c8.8-11.4,17-23.5,24.5-35.8c15.9-25.9,36.9-64.2,53.8-95.1c6.1-11.2,11.9-21.8,16.8-30.5
	c6.1-11.3,11.4-23.1,15.8-35.1c6.2-17,17.7-51.3,23.6-69.5c5.9-18.2,13.8-44.5,21.4-70c7.6-25.4,14.8-49.4,20.2-66
	C1850.7,122.8,1846.7,113.6,1836.9,110.1z M1837.8,130.3c-5.4,16.7-12.6,40.7-20.2,66.2c-7.6,25.4-15.5,51.7-21.3,69.8
	c-5.8,18.1-17.4,52.3-23.5,69.1c-4.3,11.6-9.4,22.9-15.2,33.8c-4.8,8.7-10.6,19.3-16.8,30.5c-16.8,30.8-37.8,69-53.6,94.7
	c-7.3,12-15.4,23.7-23.9,34.8c-25,31.7-72.9,89.8-99,120.5c-3.8,4.5-7.9,8.5-20.1,13c-4.5,1.6-10.2,3.2-16.9,5
	c-5,1.4-10.8,2.9-16.6,4.7c-1.8,0.6-11.1,3.8-15.4,12.1c-2.3,4.5-2.7,9.7-1,14.9c5.4,16.7,15.1,44.6,22.2,65.1
	c1.6,4.6,3,8.8,4.3,12.4l0.1,0.2c0.3,0.8,1,2.9,0.7,3.5c-0.2,0.3-1.1,1-3.5,1.5c-41.7,8.9-117.2,23-155.2,29.8
	c-16.7,3.2-33,8.5-48.3,15.7c-13.6,6.5-34.8,15.8-55.3,24.8c-16.7,7.4-32.6,14.3-44.2,19.6c-16.3,7.5-32.1,16.4-46.9,26.4
	c-1.4,0.9-2.8,1.9-4.3,2.9c-9.6,6.6-20.5,14.1-40.6,21.2c-13.3,4.7-24.9,2.3-34.6-7.3c-2.5-2.5-5.8-6.1-9.4-9.9
	c-5.9-6.4-12.6-13.6-17.3-17.7l-0.1-0.1c-7-5.9-16.5-14-37.7-15.1l-0.1,0c-10.4-0.3-21,0.2-31.4,1.4l-0.1,0c-14,2-23.1,5.9-39.8,24
	l-1.2,1.3c-5.9,6.4-14,15.2-27.9,16.6c-10.3,1-21.9,2.2-41.3-19.5c-1-1.2-2.1-2.6-3.3-4.1c-6.8-8.9-17.1-22.2-45.6-18.1
	c-11.7,1.7-34.8,4.5-46.1,5.3c-6.1,0.4-17-0.4-27.6-3.4c-10.6-2.9-21.5-3.6-43.4,1.9c-29.6,7.4-84.8,19.5-114.5,26.1
	c-6.7,1.5-12.3,3.7-18.4,17c-0.5,1-3.2,1.8-8.9,2.7c-3.5,0.5-11.8,1.7-19,2.6c-4.4,0.6-8.8,2.3-11.2,10.6c-0.6,0.1-1.5,0.1-3,0
	c-1.1-0.1-106.3-5.6-142-9.4c-12.4-1.3-24.8-3.4-36.9-6.2c-2.3-0.5-4.8-1.1-7.3-1.7c-14.7-3.3-32.9-7.4-51.7-16
	c-8.9-4.1-19.2-9.7-28.2-25.3c-4.5-7.7-12.3-22.8-16.1-30.6c-0.1-0.3-0.3-0.6-0.4-1c-1.1-2.6-3.8-8.9-12.1-8.9
	c-1.6,0-3.5,0.2-5.5,0.8c-1.8,0.5-5.3,1.4-7,1.7c-1.8,0.3-3.3,0.6-5.9-3.6c-2.2-3.8-5-8.4-7.9-13.4c-5.4-9-11.5-19.3-15.1-25.7
	c-0.3-0.5-0.6-1-0.9-1.6c-3.1-5.5-7.7-13.7-17.7-19.2c-0.9-0.5-1.8-1-2.7-1.5c-11.1-5.9-23.6-12.6-25.6-39.2
	c-0.5-6.7,0-19.7,0.3-28.3c0.1-1.7,0.1-3.2,0.2-4.5c0.7-22.5-13.2-29.2-25-30.9l-0.3,0c-3.7-0.3-7.4-0.4-10.9-0.2
	c-0.4,0-0.8,0-1.2,0c-2.9,0.1-5.2,0.2-8.8-3.1c-4.6-4.6-8.9-9.5-12.9-14.6c-0.8-1-1.7-2.1-2.7-3.4c-3.3-4.1-7.9-9.8-9.6-13.1
	c-5.2-10-11.2-31.5-14.8-44.4l-0.8-3c-1.9-6.8-2.1-10.4,4.2-19.5c1.7-2.6,3.3-5.1,5-7.9c5.9-9.5,12.6-20.2,27.8-34.7
	c8-7.7,16.9-14.2,30.5-22.7c18.6-11.5,55.8-32.7,76.2-44.1c2-1.1,3.9-2.2,5.6-3.3c7.5-4.5,14.6-8.8,37.8-15.6
	c22.2-6.6,66.2-19,88.1-25.1c13.4-3.7,32.5-8.9,52.7-14.4c27.9-7.6,56.7-15.5,75.1-20.7c19.5-5.5,44.4-12.3,70.7-19.5
	c45.2-12.4,96.4-26.3,134.7-37.6c17.6-5.2,53.3-15,71.7-20c28.9-7.8,80.8-22.5,118.8-33.3c10.4-3,19.9-5.6,27.7-7.8
	c49.8-14.1,148.8-41.8,198.2-55.6c13.2-3.7,28.9-8.1,46-12.9c45.1-12.7,101.2-28.4,146.6-40.7c20.4-5.5,61.5-17,83.4-23.1
	c4.2-1.2,10.2-2.7,16.5-4.4c10.5-2.7,22.5-5.8,29.7-8.1c13.4-4.4,21.8-6.1,51.3-5.8c29.4,0.4,75.2-1,115.7-2.1
	c26.4-0.8,51.3-1.5,69.3-1.7c18.4-0.2,45.1-0.6,70.9-1.1c22.6-0.4,43.9-0.7,60.2-0.9c6.1-0.1,11.7,0.2,24.1,3.8
	c7.8,2.3,18.1,5.5,23.5,7.5C1838.2,121.2,1839.6,124.8,1837.8,130.3z"/>
</svg>
