<?xml version="1.0" encoding="utf-8"?>
<!-- Generator: Adobe Illustrator 24.0.1, SVG Export Plug-In . SVG Version: 6.00 Build 0)  -->
<svg version="1.1" id="Daytona_2008_Oval_-_Config" xmlns="http://www.w3.org/2000/svg" xmlns:xlink="http://www.w3.org/1999/xlink"
	 x="0px" y="0px" viewBox="0 0 1920 1080" style="enable-background:new 0 0 1920 1080;" xml:space="preserve">
<style type="text/css">
	.st0{fill:#FFFFFF;}
</style>
<title>active</title>
<path class="st0" d="M1842.6,250.2c-27.9-59.4-67.1-96.6-88-113.5c-106.9-86.6-233.7-87-317.7-87.2c-7,0-13.6,0-19.9-0.1
	c-159.1-1.7-470.5-4.9-629-6.2c-21-0.2-48.3-0.5-77.1-0.8c-78.2-0.9-175.5-2-231.8-1.4c-113.1,1.2-194.8,22.4-265,68.8
	c-50.8,33.6-90,77.1-116.3,129.2c-25.1,49.5-32,94.4-33.9,116.8c-7.7,91.7,17.2,174,74,244.6c51.7,64.2,119,104.8,166.3,127.6
	c64.6,31,164.6,71.5,244.9,104c34.9,14.1,67.9,27.5,93.4,38.2c82.1,34.5,204,80,321.3,80c2.7,0,5.5,0,8.2-0.1
	c84.7-1.6,153.2-12.8,215.6-35.4l2.1-0.8c119-43.1,318.1-115.2,418.5-164.7c53.5-26.4,109.8-57.1,159-102.8
	c28.2-26.2,51.1-55,68.1-85.5c19.7-35.4,32.1-74.3,36.9-115.6C1880.3,374.9,1870.4,309.3,1842.6,250.2z M1852.3,443
	c-20.2,173.5-177.5,251.1-253,288.4c-99.4,49-297.8,120.9-416.4,163.8l-2.1,0.8c-61,22.1-125.5,32.6-209.1,34.2
	c-2.6,0-5.2,0.1-7.9,0.1c-113.7,0-233-44.5-313.5-78.4c-25.6-10.8-58.7-24.2-93.6-38.3C476.6,781.2,377,740.8,313,710
	C220,665.2,66.8,560.1,83.9,357.4c3.7-43.7,24.8-153.8,141.3-231C291.9,82.2,370.3,62,479.3,60.9c11-0.1,23.5-0.2,37.2-0.2
	c56.2,0,131.3,0.8,194.2,1.5c28.9,0.3,56.2,0.6,77.2,0.8c158.5,1.3,469.9,4.5,629,6.2c6.4,0.1,13,0.1,20,0.1
	c81.1,0.3,203.7,0.6,305.1,82.8C1772.9,177.2,1872.2,272.1,1852.3,443z"/>
</svg>
