<?xml version="1.0" encoding="utf-8"?>
<!-- Generator: Adobe Illustrator 24.0.1, SVG Export Plug-In . SVG Version: 6.00 Build 0)  -->
<svg version="1.1" id="Bullring_-_Config" xmlns="http://www.w3.org/2000/svg" xmlns:xlink="http://www.w3.org/1999/xlink" x="0px"
	 y="0px" viewBox="0 0 1920 1080" style="enable-background:new 0 0 1920 1080;" xml:space="preserve">
<style type="text/css">
	.st0{fill:#FFFFFF;}
</style>
<title>active</title>
<path class="st0" d="M840.9,953.1c-101.6,0-204-2-298.2-15.5C411.9,918.8,318.6,880,257.3,818.9c-29.1-29-51.5-63.7-66.4-103.1
	c-15.8-41.7-23.8-90-23.8-143.6c0-77.7,29-145.9,86.3-202.8c46.6-46.3,112.5-85.6,195.8-116.7c66.2-24.7,143.5-44.4,229.8-58.5
	c145.4-23.8,268.5-23.5,271.8-23.5c3.3,0,126.4-0.3,271.8,23.5c86.3,14.1,163.7,33.8,229.8,58.5c83.3,31.1,149.1,70.4,195.8,116.7
	c57.3,56.9,86.3,125.1,86.3,202.8c0,55.5-8,105.2-23.9,147.7c-15,40.3-37.4,75.5-66.7,104.7c-31.2,31.1-71.5,56.5-119.7,75.7
	c-43,17-92.4,29.4-151.2,37.9c-108.1,15.6-229.8,15.1-347.4,14.7c-19.9-0.1-40.6-0.2-60.6-0.2c-20,0-40.6,0.1-60.6,0.2
	C883.2,953,862.1,953.1,840.9,953.1z M949.9,190.7c-10.7,0-129,0.5-268.1,23.3c-133.1,21.8-313.1,68.9-414.4,169.6
	c-53.3,53-80.4,116.5-80.4,188.6c0,100,27.6,176,84.3,232.5c58.1,57.9,147.8,94.9,274.1,113c112.4,16.1,237.6,15.6,358.7,15.1
	c20-0.1,40.7-0.2,60.7-0.2c20.1,0,40.7,0.1,60.7,0.2c116.9,0.5,237.7,1,344.4-14.5c119.1-17.2,204.1-52.5,259.7-108
	c57-56.8,84.7-134.7,84.7-238.3c0-72.1-27-135.6-80.4-188.6c-101.3-100.7-281.3-147.8-414.4-169.6
	c-145.1-23.7-267.6-23.3-268.8-23.3l-0.1,0l-0.1,0C950.6,190.7,950.4,190.7,949.9,190.7z"/>
</svg>
