<?xml version="1.0" encoding="utf-8"?>
<!-- Generator: Adobe Illustrator 24.0.1, SVG Export Plug-In . SVG Version: 6.00 Build 0)  -->
<svg version="1.1" id="Eldora_Config" xmlns="http://www.w3.org/2000/svg" xmlns:xlink="http://www.w3.org/1999/xlink" x="0px"
	 y="0px" viewBox="0 0 1920 1080" style="enable-background:new 0 0 1920 1080;" xml:space="preserve">
<style type="text/css">
	.st0{fill:#FFFFFF;}
</style>
<title>active</title>
<path class="st0" d="M1019.8,883.6c-114.7,0-238.4-4.4-316.3-11c-75.1-6.4-157.5-44.1-220.3-100.9
	c-55.6-50.2-123.4-139.8-130.4-281.1c-3.9-78.9,18.8-163.8,62.4-232.7c26.6-42,60.5-78.2,100.9-107.5
	c45.2-32.7,98.4-56.7,158.2-71.4c91.1-22.3,293.3-22.6,301.9-22.6c70,0,132.2,4.5,189.9,13.8c83.2,13.4,155.8,36.9,215.6,69.8
	c61.3,33.7,108.7,77.6,140.8,130.7c38.6,63.5,56.6,141.8,53.5,232.6c-2.7,80.2-39.6,169-98.8,237.6c-33.3,38.6-72.4,69.9-116.3,93
	c-48.7,25.7-102.3,40.8-159.2,44.7C1151.7,882,1087.3,883.6,1019.8,883.6z M976.1,136.3c-80.4,0-222.1,5.4-282.8,20.3
	C477.2,209.7,427.8,389,432.6,486.6l0,0c5.6,113.9,59.7,185.6,104.1,225.7c59.3,53.5,128.5,76.7,173.5,80.6
	c120.9,10.3,354.4,15.1,485.9,6c110.1-7.6,180.6-64.2,220.4-110.2c47.6-55.2,77.3-125.4,79.4-188c4.6-138.3-44-230.6-153-290.5
	C1254.1,161.1,1130.6,136.3,976.1,136.3z"/>
</svg>
