<svg id="Michigan_2018_-_Config" data-name="Michigan 2018 - Config" xmlns="http://www.w3.org/2000/svg" viewBox="0 0 1920 1080"><defs><style>.cls-1{fill:#fff;}</style></defs><title>active</title><path class="cls-1" d="M1829.53,404.78c-12.32-63.92-41.09-122.87-85.52-175.23-24.57-30.73-59.55-56.75-104-77.36-35.16-16.31-76.34-29.3-122.38-38.61-78.1-15.79-142.38-15.55-145-15.54L572,96H572c-95.55.54-178,11.69-245.13,33.15C272.21,146.62,243,166,228.93,175.24c-2.07,1.37-3.7,2.45-4.9,3.18l-.65.43c-60,43.12-102.53,99.3-126.42,167-17.58,49.78-19.54,91.55-19.55,107.37C75,527.91,96.07,598,139.94,661.52c32.47,47,68.19,76.29,82.1,86.74C340.45,840,544.46,891.85,604.79,905.68c113.36,34.52,304.52,42,346.14,42q12.27.31,24.59.3c149.36,0,302.42-32.32,363.5-46.82l1.71-.4c158.43-29.28,303.76-111.62,309.87-115.11l.4-.24c40.92-26,76-56.75,104.19-91.44a370.67,370.67,0,0,0,54.62-90.83c22.93-54.83,24.26-96.9,24.34-101.11,0-.3.07-.75.14-1.34C1838.32,462.74,1833.93,427.58,1829.53,404.78Zm-15.13,93.84a29.65,29.65,0,0,0-.25,3.11c0,1.56-2.15,157.69-173.67,266.71-50.92,29.06-179.59,89.86-303.63,112.73l-2.44.57c-63.71,15.12-228.57,49.86-383.11,46h-.25c-33.82,0-229.11-7.17-340.75-41.27l-.69-.18c-58.89-13.48-260-64.42-375.38-153.87l-.13-.1c-23.75-17.81-142-115-136.7-278.63v-.32c0-26.58,6.63-163.87,137.34-258,1.46-.9,3.13-2,5.22-3.39C314.88,142.36,426.61,116.82,572,116l800.66,2c.67,0,65.23-.22,141.36,15.22,69.4,14.07,162.92,44.38,214.41,108.88l.19.24C1819.28,349.09,1818.81,457.12,1814.4,498.62Z"/></svg>