<svg id="Oval_-_Config" data-name="Oval - Config" xmlns="http://www.w3.org/2000/svg" viewBox="0 0 1920 1080"><defs><style>.cls-1{fill:#fff;}</style></defs><title>active</title><path class="cls-1" d="M1762.87,736.83c-6.82-61.39-38-104.19-63-129.29-25.29-25.39-49.08-38.08-52.89-40C1611.21,545.14,898.65,99.44,886.65,92.25c-.87-.52-2.11-1.32-3.69-2.33-10.43-6.64-34.84-22.19-67-34.84-40.52-15.92-79.22-21.8-115-17.47-53.75,4.23-96.36,28-122.66,47.14C550.52,105,534.84,124.18,533.41,126L194.79,531.83c-34.64,36.81-57.56,79.51-68.13,126.91-8.5,38.16-6.55,69.29-5.72,82.58.07,1.11.14,2.1.18,3l.06.65c8,65.7,33,119.92,74.4,161.17,32.35,32.23,67.41,49.24,91.08,59.24,51.6,26,165.73,21.59,173.38,21.26l719.67,1.93c3.12,0,311.19.48,338.6.49,5.13.3,10.15.44,15.09.44,93.95,0,153.52-52.69,165-63.77C1720,904.82,1773.77,830.17,1762.87,736.83ZM1722.6,854.6c-13.88,29.17-31,49.85-38.1,56.72-11,10.64-70.83,63.45-165.28,57.72h-.61c-25.36,0-335.74-.48-338.86-.49L459.86,966.6h-.48c-1.16.06-116.56,4.91-164-19.25l-.65-.3c-90-38-141.76-106.68-153.69-204.21,0-.83-.1-1.76-.17-2.78-4.75-75.87,18.34-141.39,68.65-194.74l.21-.22L548.84,138.7l.15-.19c.15-.19,15.08-18.77,41.55-38,24.14-17.52,63.2-39.2,112.13-43l.44,0c51.06-6.24,107.95,10.35,169.1,49.3,1.78,1.14,3.17,2,4.15,2.61,11.89,7.13,752.92,470.63,760.4,475.31l.43.27.46.22c.93.46,93.5,47.23,105.35,153.89C1747.52,777.81,1740.66,816.67,1722.6,854.6Z"/></svg>