<svg id="Oval_-_Config" data-name="Oval - Config" xmlns="http://www.w3.org/2000/svg" viewBox="0 0 1920 1080"><defs><style>.cls-1{fill:#fff;}</style></defs><title>active</title><path class="cls-1" d="M1365.23,158.92c-63.72-30.58-136.89-53.86-217.47-69.2-63.25-12-130-18.67-187.83-18.67-166.86,0-314.36,27.64-438.41,82.15-86.23,37.9-149.62,86.43-193.8,148.36-24.64,34.55-43.45,73.86-55.89,116.83-12.84,44.33-19.35,94.12-19.35,148,0,55.84,12.84,110,38.18,161,23.35,47,56.3,89.5,97.93,126.21a464.21,464.21,0,0,0,134.68,82.5c49.58,19.63,102.1,30,151.89,30h555.4l1.65-.14c4-.34,100.33-8.86,197.28-64.2,91.67-52.32,200.94-156.95,200.94-358.35C1630.43,375.16,1538.72,242.19,1365.23,158.92ZM1392.08,831c-76,44.07-154.06,53.9-165.14,55.11H675.16c-161.76,0-342.68-136.75-342.68-319.76,0-167.86,68.23-272.7,221.22-339.94,113.84-50,250.52-75.39,406.23-75.39,98.62,0,247.78,21,370.68,80,145.86,70,219.82,175.11,219.82,312.4C1550.43,673.36,1497.15,770.12,1392.08,831Z"/></svg>