<?xml version="1.0" encoding="utf-8"?>
<!-- Generator: Adobe Illustrator 24.0.1, SVG Export Plug-In . SVG Version: 6.00 Build 0)  -->
<svg version="1.1" id="Daytona_2008_Moto_-_Config" xmlns="http://www.w3.org/2000/svg" xmlns:xlink="http://www.w3.org/1999/xlink"
	 x="0px" y="0px" viewBox="0 0 1920 1080" style="enable-background:new 0 0 1920 1080;" xml:space="preserve">
<style type="text/css">
	.st0{fill:#FFFFFF;}
</style>
<title>active</title>
<path class="st0" d="M1673,354.3c-25.6-20.2-52.8-3.9-67.3,4.9c-1.9,1.2-3.8,2.3-5.3,3.1c-21.6,11.9-26.9,13.1-44.1,9.9
	c-24.9-4.6-30.4-35-31.2-41.1c-5.4-38.9,9.4-71.9,22.8-92.8c15.6-24.3,17.9-48.3,6.2-64.1c-4-5.4-12.7-16.3-18-21.9
	c-18.5-19.6-32.6-27.2-44.5-32.8c-20.7-9.8-53.5-25.1-82.4-38.5c-18.6-8.7-36.2-16.8-49-22.8c-18.4-8.6-45-8.8-46.9-8.8
	c-50.2-0.5-89.8-1.1-128.2-1.6c-87.4-1.2-162.8-2.2-322.9-2.6c-0.6,0-1.2,0-1.8,0c-12.3-0.1-40.9-0.3-59,24.5
	c-12.1,16.6-22.2,18.9-29.7,20.6c-11.2,2.5-25.7,5.3-55.7,8.3l-0.9,0.1c-14.2,1.5-54.8,5.4-125.8,7.6c-2.1,0.1-13.1-0.4-21.6-15.4
	l-0.3-0.5c-0.9-1.4-22.2-34.3-54-40.4c-19.9-3.8-58.8-4.2-70.2-4.3c-0.7,0-1.3,0-2,0c-113.9,0-191.1,40.2-227,64.3
	c-51,34.1-90.1,77.6-116.4,129.5c-25,49.2-31.9,94.1-33.8,116.4c-7.7,91.7,17.2,174,74,244.6c51.7,64.2,119,104.8,166.3,127.6
	c64.5,31,164.3,71.4,244.4,103.9c35.1,14.2,68.2,27.6,93.8,38.4c124.3,52.3,235,79.1,329.2,79.9c1.1,0,2.1,0,3.2,0
	c51.9,0,115.2-10.1,183.4-29.3c63.1-17.8,128.9-42.7,190.2-72.1c28.5-13.7,53.8-43.8,64.3-76.8c7.9-24.8,6.6-48.7-3.8-67.5
	c-20.2-36.6-66.2-55.1-136.9-55.2c-14.3,0-26.7,0-54.4-23c-16.6-13.8-29.9-20.2-80.2-19.9c-61.2,0.4-147.8-0.7-190.6-4.7
	c-9.9-0.9-34.6-10.6-34.6-27.9c0-6.7,0-24.6,47.6-36.4c34.5-8.6,63.4-10.3,144.7-11.7c37.7-0.7,136.1-1.9,237.1,1.8
	c2.6,0.1,5.9,0.2,9.4,0.3c10.7,0.3,25.3,0.7,32.6,1.4c27.4,2.7,29.4,11.6,30.9,18.2c2.8,12,7.8,31.6,12.9,46.9
	c4.4,13.3,15.5,26.8,23.3,28.4c32.3,6.7,69.3-20.7,87.1-33.9l0.9-0.7c24.2-17.9,62.2-50.7,89.5-83.9c23.5-28.6,33.9-51.8,42.3-70.4
	c0.8-1.8,1.6-3.5,2.4-5.3C1694.5,380.9,1682.2,361.6,1673,354.3z M1654.7,420.2c-0.8,1.7-1.6,3.5-2.4,5.3
	c-8.3,18.5-17.7,39.4-39.5,65.9c-26.1,31.8-62.6,63.2-85.9,80.5l-0.9,0.7c-13.9,10.3-46.1,34.2-69.5,30.6c-2.2-2-7.4-7.9-9.9-15.4
	c-4.9-14.7-9.7-33.5-12.4-45.1c-4.7-20.4-19.6-30.8-48.5-33.6c-7.9-0.8-22.4-1.2-33.9-1.5c-3.5-0.1-6.8-0.2-9.3-0.3
	c-101.5-3.7-200.4-2.5-238.2-1.8c-83.1,1.5-112.8,3.3-149.2,12.3c-42.2,10.5-62.7,28.7-62.7,55.8c0,30.3,34.3,46.1,52.7,47.8
	c56.2,5.3,170.3,4.9,192.6,4.8c48.5-0.3,56,5.9,67.3,15.3c30.9,25.7,47.4,27.6,67.2,27.6c62.8,0.1,103,15.1,119.4,44.8
	c9.8,17.8,6.7,38,2.2,51.8c-8.8,27.5-30.5,53.6-53.9,64.8c-100.6,48.3-248.7,99.5-364.8,99.5c-1.1,0-2.1,0-3.1,0
	c-91.6-0.7-199.8-27.1-321.7-78.3c-25.7-10.8-58.9-24.3-94-38.5c-79.9-32.4-179.4-72.7-243.3-103.4C220,665.2,66.8,560.1,83.9,357.4
	c3.7-43.5,24.8-153,141.4-231c34.1-22.8,107.3-60.9,215.9-60.9c0.6,0,1.3,0,1.9,0h0c22.7,0.1,52.1,1.2,66.6,3.9
	c22.2,4.3,39.2,29.1,40.8,31.4c10.9,19.2,27.5,25.7,39.5,25.3c71.7-2.2,113-6.1,127.4-7.7l0.7-0.1c31.1-3.1,46.3-6,58.1-8.7
	c8.7-2,25-5.7,41.4-28.3c12-16.5,31.9-16.3,42.6-16.2c0.7,0,1.3,0,1.9,0c159.9,0.4,235.3,1.4,322.6,2.6c38.4,0.5,78.1,1.1,128.3,1.6
	l0.1,0c0,0,0,0,0.1,0c6.6,0,26.3,1.2,38.5,6.9c12.8,6,30.4,14.2,49.1,22.9c28.9,13.4,61.7,28.7,82.3,38.4
	c10.7,5.1,22.4,11.4,38.5,28.5c4.3,4.6,12.4,14.5,16.4,20c5.1,6.9,5.9,21.3-6.9,41.4c-15.2,23.7-32,61.4-25.8,106.3
	c3.4,24.4,17.6,52.5,47.4,58c23.3,4.3,33.2,1.3,57.4-12.1c1.9-1,3.9-2.2,6-3.5c16.3-9.8,31-17.1,44.6-6.3
	C1666.3,374.5,1668.2,390.4,1654.7,420.2z"/>
</svg>
