<svg id="Myrtle_Beach_-_Config" data-name="Myrtle Beach - Config" xmlns="http://www.w3.org/2000/svg" viewBox="0 0 1920 1080"><defs><style>.cls-1{fill:#fff;}</style></defs><title>active</title><path class="cls-1" d="M1679.85,405.19a421.74,421.74,0,0,0-49.1-127.26,401.62,401.62,0,0,0-105.31-117.69c-48.91-36.79-107.72-64.09-174.8-81.15l-.13,0c-12.23-3-41.4-7.27-152.94-9.28-65-1.18-150-1.42-252.57-.73-174.5,1.19-341.79,4.72-343.46,4.76l-1,0c-2.43.17-60.38,4.57-133,30.54-42.77,15.29-81.83,35-116.09,58.45C308.33,192.4,272.76,228.1,245.7,269,207.48,323.33,185.53,401,187,476.73a391.58,391.58,0,0,0,29.78,141.82c21.52,52.37,54.65,102.37,98.46,148.59l.58.61.63.56c35.4,31.57,72.58,57.44,138.94,81,70.36,25,171.3,46.36,317.67,67.18l.3,0c70,8.86,181.13,23.8,182.24,24l1.37.13c1.1.08,18.11,1.15,46.47,1.15,16.33,0,36.42-.36,59.39-1.46,58-2.79,146-11.12,236-35C1401,878.22,1484.88,837,1548.2,782.83c80.23-68.65,127.22-157.91,139.64-265.29l.08-.73C1690.67,481.82,1687.88,443.22,1679.85,405.19Zm-31.78,108.12c-20.57,176.4-141.23,295.2-358.66,353.12-160.63,42.79-317.94,35-329.24,34.32-9.86-1.32-114.5-15.37-181.66-23.87C470.08,833,403.25,792,343.68,739,268,659,228.77,570.49,227,476c-1.92-100.27,39-166.34,51.59-184.2l.34-.49c54.82-82.92,139.57-126.7,201-148.82,64.54-23.23,117.82-28.22,123.06-28.66,185.23-4,677-10.86,737.88,4.09C1602.41,184.44,1657,397.56,1648.07,513.31Z"/></svg>