<svg id="Dirt_Config" xmlns="http://www.w3.org/2000/svg" viewBox="0 0 1920 1080"><defs><style>.cls-1{fill:#fff;}</style></defs><path class="cls-1" d="M909.74,834.17c-81.27,0-148.66-2.5-211.63-12.4-116.89-18.38-175.75-82.41-204.55-132.89A287.25,287.25,0,0,1,460,593.39c-5-29.74-5.37-59.45-1.2-85.95A260.46,260.46,0,0,1,500.73,401c19.24-28.38,44-53.35,73.76-74.22,51.34-36.09,114.78-57.27,165.57-55.3,16.73.65,35.09,1.34,54.68,2.07,146.17,5.44,367.06,13.66,492.85,31,63.23,8.72,110,37.92,138,60.88,34.94,28.58,61.38,64.21,72.55,97.76,21.46,64.5,24.66,123.62,9.52,175.71-14,48-40.61,82.36-62.29,107-31.46,35.68-80,60.92-144.29,75a464.2,464.2,0,0,1-90.32,10.7,10,10,0,0,0,9.87-9.94l-9.84-.06,0,10c-65.89,0-125.55.79-178.19,1.48C988,833.63,947.4,834.17,909.74,834.17Zm-176-542.84c-36.82,0-93.27,13.48-147.77,51.78-41.59,29.23-94,82-107.45,167.45-6.66,42.29-1.65,108.74,32.39,168.41,26.62,46.67,81.25,105.9,190.29,123,90.46,14.22,191.4,12.89,331.11,11,52.62-.69,112.27-1.48,178.18-1.48h.21c6.15,0,151.25-1.33,219.67-78.94,46.08-52.27,93.27-129.42,48.79-263.12-10-30.05-34.14-62.34-66.23-88.59-26.08-21.33-69.48-48.46-128.09-56.55C1160.05,307.13,939.77,298.93,794,293.5c-19.61-.73-38-1.41-54.72-2.06C737.49,291.37,735.65,291.33,733.76,291.33Z"/></svg>