<?xml version="1.0" encoding="utf-8"?>
<!-- Generator: Adobe Illustrator 25.0.0, SVG Export Plug-In . SVG Version: 6.00 Build 0)  -->
<svg version="1.1" id="RX" xmlns="http://www.w3.org/2000/svg" xmlns:xlink="http://www.w3.org/1999/xlink" x="0px" y="0px"
	 viewBox="0 0 1920 1080" style="enable-background:new 0 0 1920 1080;" xml:space="preserve">
<style type="text/css">
	.st0{fill:#FFFFFF;}
</style>
<path class="st0" d="M852.7,390c-3.6-13.3-15.4-25.8-35-36.9c-25-14.2-112.9-61.9-113.8-62.4c-40-21.2-63.6,1.9-73.7,11.8
	c-1.3,1.3-2.6,2.5-3.3,3c-0.6,0.4-1.2,0.9-1.9,1.4c-7.2,5.6-19.3,14.9-33.3,10.7c-7.6-2.3-22.2-7.6-39.2-13.7
	c-22-8-46.8-17-63.1-21.8c-6-1.8-12.2-0.6-18.5,3.4c-25.2,16.2-45.1,76.8-46.6,87.4l-0.9,6.5c-5.9,42.8-9.2,66.3-11.2,175.9
	c-0.1,6.4-0.3,13.6-0.4,21.4c-1,49.9-2.5,125.3,0.4,165.7c2.5,34.6,13.8,122.8,64.4,195.4c12.9,18.5,31.6,36.8,51.2,50.1
	c23.7,16.1,48.1,24.8,70.8,25.3c0,0,0.1,0,0.1,0c0.6,0,1.2-0.1,1.7-0.3c2.2,0,4.5-0.1,6.7-0.2c14.3-1.1,28-5.2,40.6-12
	c17.8-9.4,38.2-23.6,37.7-50.4c-0.4-21.8-8.1-43.6-22.9-64.6c-12.5-17.8-29.6-34.1-49.3-47.2c-16.6-10.8-34.3-19.8-52.8-26.8l-4.8-3
	c-0.4-0.3-0.8-0.6-1.3-0.9c-1.5-1.2-3-2.4-4.6-3.7c-7.7-6.8-14.6-16-20.6-27.4c-6.7-13-11.8-38.7-15-76.3
	c-1.8-21.5-2.6-56.7-1.8-83.9c0.3-10,2.1-61.6,7.5-99.2l1.1-6.8l0-0.1c4.2-33.4-1.3-60.1-15.3-75.1c-11.6-12.4-15.6-27.9-13.5-36.2
	c2.1-8,9.5-20.8,21.6-23.5c7.1-1.6,18-0.8,37.8,0.7c15.6,1.1,37,2.7,66.9,3.9l29.2,4.6c17.6,4.1,25.9,7.2,58.6,21.7
	c8.3,3.7,20.1,9.4,32.5,15.5c15,7.3,30.5,14.8,40.9,19.2c11.2,4.7,45.2,19.2,67.6-19.9C853.6,410.2,855.4,399.8,852.7,390z
	 M838.9,415.8c-15.9,27.8-37.8,23-55,15.7c-10.1-4.3-25.5-11.8-40.4-19c-12.5-6.1-24.4-11.9-32.9-15.6c-33.2-14.7-42.2-18-60.5-22.3
	l-30-4.8l-0.6-0.1c-29.8-1.1-51.2-2.7-66.8-3.9c-21.4-1.6-32.2-2.4-40.7-0.4c-15.4,3.5-25.8,18.4-29.1,30.7
	c-3.4,13,3.3,32.1,15.8,45.6c12,12.8,16.5,36.6,12.7,67l-1.1,6.8c-5.5,38.2-7.3,90.3-7.6,100.4c-0.8,27.5-0.1,63.2,1.8,85
	c3.3,39,8.8,65.9,16.1,80.1c7.8,15,17.2,26.6,28,34.5c9.4,7.5,18.2,14.3,26.2,20.4c32.2,24.7,55.5,42.6,71.2,73.5
	c9.2,18.2,4.7,32.1-0.7,40.6c-9.3,14.7-28.4,24.6-46.5,24.1c-30.9-0.8-75.6-32.3-96.5-52c-2.1-1.9-3.8-3.6-5.4-4.9
	c-5.2-6.1-18.6-22.4-21.4-27.9c-1.2-2.5-4.2-3.5-6.7-2.2c-2.5,1.2-3.5,4.2-2.2,6.7c3.9,7.7,21,27.9,22.9,30.1l0.5,0.5
	c1.5,1.4,3.3,3,5.5,5c22.8,21.5,69.1,53.8,103.1,54.7c0.5,0,1,0,1.5,0c21,0,42.9-11.7,53.7-28.8c9.6-15.1,10-33.1,1.2-50.5
	c-14.4-28.4-34.2-46.1-60.7-66.7c4.7,2.7,9.4,5.5,13.9,8.4c32.2,21.4,66.9,59.8,67.8,103.7c0.4,21.2-15.3,32.4-32.4,41.4
	c-11.4,6.1-23.8,9.8-36.6,10.8c-23,1.6-47.3-5.9-64.8-20.1c-0.9-0.8-2-1.1-3.1-1.1c-0.6,0-1.2,0.1-1.8,0.3
	c-21.2-13.7-39.6-32.1-51.9-49.7c-49.2-70.5-60.2-156.6-62.7-190.4c-2.9-40-1.4-115.1-0.4-164.8c0.2-7.9,0.3-15.1,0.4-21.4
	c2-109,5.2-132.3,11.1-174.7l0.9-6.5c1.2-8.8,20.7-66.6,42.1-80.4c3.7-2.4,7.1-3.1,10.2-2.2c15.9,4.7,40.7,13.7,62.5,21.6
	c17.1,6.2,31.8,11.6,39.7,13.9c18.8,5.7,34.1-6,42.2-12.3c0.6-0.5,1.2-0.9,1.8-1.3c1.2-0.9,2.6-2.2,4.3-3.9
	c9.9-9.7,28.4-27.8,62-10.1c0.9,0.5,88.7,48.2,113.6,62.3c17.2,9.8,27.4,20.2,30.3,30.9C845,399.9,843.7,407.5,838.9,415.8z"/>
</svg>
