<?xml version="1.0" encoding="utf-8"?>
<!-- Generator: Adobe Illustrator 24.0.1, SVG Export Plug-In . SVG Version: 6.00 Build 0)  -->
<svg version="1.1" id="Daytona_2008_Rally_Long_-_Config"
	 xmlns="http://www.w3.org/2000/svg" xmlns:xlink="http://www.w3.org/1999/xlink" x="0px" y="0px" viewBox="0 0 1920 1080"
	 style="enable-background:new 0 0 1920 1080;" xml:space="preserve">
<style type="text/css">
	.st0{fill:#FFFFFF;}
</style>
<path class="st0" d="M1541.3,723.4l-0.6-0.4c-7.6-4.9-17.5-10.2-27.1-15.2c-6.1-3.2-11.8-6.2-16.6-9c-16.5-9.5-20.2-19.4-23.5-28.1
	c-6.7-17.8-15.2-46.3-23.4-73.9c-6.8-23-13.3-44.7-18.6-59.8c-5.8-16.5-21.7-35.1-64.6-29.7c-25.2,3.1-37.6,16.9-45.5,28.6
	c-9.8,14.4-18.1,14.8-26,15.2c-46.7,2.4-114.5,4.8-163.8-2.3c-14.2-2-23.6-8.5-27.9-19.3c-10.7-26.8-44.8-24.2-46.3-24l-101.6,12.1
	l-0.6,0.1c-42.2,10.5-62.7,28.7-62.7,55.8c0,30.3,34.3,46.1,52.7,47.8c55.7,5.2,170.2,4.9,192.6,4.8c48.5-0.3,55.9,5.9,67.3,15.3
	c31.6,26.3,48.7,26.9,66.8,27.6c34.6,1.4,44.6,4.4,58.4,8.6l2.5,0.8c39,11.8,62.5,40,83.2,64.8c21.5,25.8,41.9,50.3,74.6,50.3
	c4.9,0,10.1-0.6,15.6-1.7c12-2.6,40.8-14.4,53.8-23c7.2-4.7,8.2-11.1,8.2-14.4C1567.9,742.3,1554.4,731.9,1541.3,723.4z
	 M1501.8,772.4L1501.8,772.4c-4,0.9-7.7,1.3-11.2,1.3c-22.3,0-37.2-16.4-59.4-43.1c-22.5-27-48-57.6-92.7-71.1l-2.5-0.8
	c-14.7-4.5-26.2-8-63.4-9.4c-16.5-0.6-28.4-1.1-54.8-23c-16.3-13.5-29.4-19.9-77-19.9c-1,0-2.1,0-3.1,0
	c-22.2,0.1-135.9,0.5-190.6-4.7c-9.9-0.9-34.6-10.6-34.6-27.9c0-6.7,0-24.4,47-36.2l99.9-11.9c1.7-0.1,20.9-1,25.9,11.6
	c7,17.4,22.5,28.6,43.6,31.6c51,7.3,120.1,4.9,167.6,2.5c9.1-0.5,26.1-1.3,41.5-23.9c7.2-10.5,15.3-18,31.5-20
	c35.9-4.5,41.4,11.3,43.3,16.5c5.1,14.6,11.5,36.1,18.3,58.9c8.3,27.9,16.9,56.8,23.9,75.3c4.8,12.8,11.3,26.3,32.2,38.3
	c5.1,2.9,11,6,17.2,9.3c9.2,4.9,18.7,9.9,25.6,14.3l0.6,0.4c10.5,6.8,14.8,10.9,16.5,13.2C1535.3,760.4,1511.1,770.4,1501.8,772.4z"
	/>
</svg>
