<?xml version="1.0" encoding="utf-8"?>
<!-- Generator: Adobe Illustrator 24.0.1, SVG Export Plug-In . SVG Version: 6.00 Build 0)  -->
<svg version="1.1" id="Rallycross__Config" xmlns="http://www.w3.org/2000/svg" xmlns:xlink="http://www.w3.org/1999/xlink" x="0px"
	 y="0px" viewBox="0 0 1920 1080" style="enable-background:new 0 0 1920 1080;" xml:space="preserve">
<style type="text/css">
	.st0{fill:#FFFFFF;}
</style>
<title>active</title>
<path class="st0" d="M969.2,294.1c-11.7-45.2-41.3-68.7-85.7-68c-41.4,0.7-101.5,2.2-134.6,4.1c-28.2,1.6-49.7,10.9-63.9,27.6
	c-15.9,18.7-22.1,45.8-18.5,80.6c3.7,35.5-13.6,49.5-29.1,57.8c-30.9,16.5-123.1,56.9-124,57.3l-0.2,0.1
	c-34.3,15.8-47.8-6.4-49.2-8.9l-0.4-0.7c-20.7-32.5,5.4-66.1,6.5-67.5l0.2-0.3l49.1-72.3l0.4-0.7c18-31.4,27-40.5,37.8-49.8
	c2.6-2.2,6.2-5.1,10.1-8.1c13.8-10.8,31-24.2,36.7-36.9c5.8-13,6-24.6,0.5-34.4c-8.8-15.7-29-20.7-40.3-22.2
	c-36.6-5.1-87.3,29.4-104.8,45.9c-41.4,39-71.8,81.9-90.5,127.3c-16.7,40.7-23.9,83.5-21.6,127.3c3.9,72.7,35.4,148.2,86.4,207.2
	c10.4,12,64.2,72,106.6,74.1c1,0.1,2.5,0.1,4.2,0.1c6.9,0,18.2-1.2,24.1-9.7c7-10,1.7-22.3-1.4-29.6l-0.2-0.4
	c-4.8-11.1-7.6-26.8-9.9-39.4c-0.7-3.9-1.4-7.6-2-10.8c-8.2-40,13.1-54.8,32.6-64.3c-8.6,9.6-15.6,21.5-19.5,33.4
	c-6.3,19.4-4.1,37.8,6.3,51.9c15.6,21.2,46.9,23.8,48.2,23.9l0.3,0l329.2,6.2c0.1,0,0.1,0,0.2,0c5.4,0,9.9-4.4,10-9.8
	c0.1-5.5-4.3-10.1-9.8-10.2l-328.5-6.2c-2.5-0.2-23.8-2.8-33.4-15.8c-14.7-19.9,0.7-50.8,17.4-65.6l48.5-39.6
	c15.6-7.2,32.3-15,49.3-22.9c76-35.3,162.1-75.3,220.8-101.1c45.7-20.1,46.7-53.4,47.4-73.3l0.1-2.1
	C975.2,333.1,972.6,307.2,969.2,294.1z M954.7,347.8l-0.1,2.2c-0.6,18.1-1.3,40.7-35.4,55.7c-58.9,25.9-145.1,65.9-221.2,101.2
	c-16.7,7.7-33,15.3-48.3,22.4c-1.1,0.3-2.2,0.8-3.1,1.5c-22.6,10.5-42.8,19.8-58.6,26.9l-0.2,0.1c-20.9,9.5-64.3,29.1-51.7,90.2
	c0.6,3,1.3,6.6,2,10.4c2.5,13.6,5.5,30.5,11.2,43.7l0.2,0.4c1,2.2,3.4,7.9,3.3,10.2c-0.8,0.4-3.7,1.4-10.8,1.1
	c-24.7-1.2-65.2-35.7-92.5-67.2h0c-72.8-84.2-149.5-270.4,24.2-434.2c16.5-15.5,56.8-41,83.4-41c1.7,0,3.4,0.1,5,0.3
	c9.8,1.3,21.7,5.2,25.5,12.1c2.2,4,1.8,9.6-1.3,16.6c-3.6,8.2-19.9,20.9-30.7,29.3c-4.1,3.2-7.9,6.2-10.9,8.7
	c-13.9,12-24.3,23.8-42,54.7l-48.5,71.4c-1.6,2.1-9.4,12.7-14.3,27.7c-7.3,22.3-5,43.9,6.7,62.4c1.3,2.3,6.9,11.3,18,17.9
	c11.2,6.6,30.1,11.8,56.9-0.5c4.9-2.1,93.9-41.2,125.3-58c8-4.3,19.7-11.5,28.4-24.4c9.6-14.2,13.3-32.1,11.1-53.2
	c-3.1-29.1,1.6-51.2,13.8-65.6c10.5-12.4,27.3-19.3,49.8-20.6c32.9-1.9,92.6-3.4,133.8-4.1c35.1-0.6,56.7,16.7,66,52.9
	C952.8,310.3,955.1,334.4,954.7,347.8z"/>
</svg>
