<svg id="_300__Config" data-name="300 _Config" xmlns="http://www.w3.org/2000/svg" viewBox="0 0 1920 1080"><defs><style>.cls-1{fill:#fff;}</style></defs><path class="cls-1" d="M1579.09,936.7q-10,0-20.25-.85c-34.26-2.84-148.84-23.94-184.9-176.1l-.12-.47c-2.12-9-3.53-14.95-19.18-11.61-44.33,9.47-214,35.39-313.21,48.58l-3.33.45c-9.52,1.31-16.39,2.26-43.75,2.3-83,.11-171.32-1.33-273.56-3-135.43-2.24-288.93-4.78-480.67-4.53-18.35,0-42.18-1.7-64-15.42-21-13.21-50.15-36.18-89.2-97.06l-.53-.82c-9.15-14.23-14.67-25.63-14.2-63.78.63-52.25,3.94-122.08,7.43-196,3-62.4,6-126.93,7.38-181,.78-30.5,15.77-48.88,40.11-49.15h.46c9.81,0,39.28,3.49,39.84,44.83.77,56.92.89,108.08,1,157.55.16,66.62.3,124.16,2,179.17.79,25.35,8.85,71,54.06,92,20.71,9.6,52.73,16.77,80.53,8.12,37.83-11.76,75.23-24.48,114.84-37.94C539.69,591.15,675.55,545,862.17,514c14.16-2.35,50.76-14.18,50.17-40.28-.26-11.42-.56-24.38-37-34.12-56.06-15-155.54-32.77-235.47-47.07C610,387.14,581.73,382.09,560,377.93l-.81-.15c-20.08-3.85-40.83-7.83-69.53,27.72C440.72,466.14,372.41,549.73,325,603.61c-5.42,6.15-16.69,18.95-32.93,19.81-9.72.51-19.14-3.36-28-11.5-9.38-8.62-27.65-25.84-36.64-35.76-10.68-11.78-17.43-25.1-20.33-58.29-2-23.05-3.44-60.88-4.69-94.26-.69-18.36-1.34-35.69-2-48.3-1.12-21.12,6.16-54,30.33-77.08,20.41-19.49,48.87-28,82.3-24.74,203,20.08,756.26,92.42,992.49,123.31,61.1,8,101.46,13.27,108.22,14,27.58,3.15,63.36,2.29,95.51-32.62,2.3-2.49,5.28-5.79,8.57-9.43,9-9.93,20.14-22.29,26.15-28l1.54-1.48c8.22-8,23.54-22.86,54.73-2.77,29.11,18.75,58.62,36.62,87.17,53.9,38.36,23.23,74.59,45.17,107.3,67.6,10.92,7.49,27.43,18.81,39,36.87,13.32,20.83,17.51,45.7,12.79,76-9.26,59.46-29.08,147.85-52.5,211.26-15.19,41.11-43.73,80.32-78.31,107.56C1676.45,920.67,1629.58,936.7,1579.09,936.7Zm-217-209.92c9,0,16.22,2.73,21.68,8.17,6.34,6.33,8.25,14.39,9.51,19.73l.11.46c33,139.05,136.23,158.22,167.09,160.78,124.64,10.36,193.6-83.51,214.68-140.61,22.95-62.12,42.4-148.93,51.5-207.4,8.95-57.48-21.26-78.2-43.33-93.33-32.23-22.1-68.23-43.9-106.34-67-28.66-17.35-58.29-35.29-87.64-54.19-17.83-11.49-22.93-6.55-30,.3l-1.75,1.68c-5.43,5.11-16.3,17.15-25,26.81-3.34,3.69-6.36,7-8.7,9.57-38.68,42-82.72,42.34-112.49,38.94-6.92-.79-47.35-6.07-108.54-14.08C1066.74,385.76,513.75,313.45,311,293.4c-27.85-2.76-50.23,3.74-66.52,19.3-19.28,18.41-25.07,44.66-24.18,61.55.67,12.77,1.33,30.18,2,48.61C223.58,456,225,493.58,227,516.13c2.67,30.5,8.47,39.15,15.23,46.6,8.52,9.4,26.85,26.65,35.35,34.46,4.76,4.37,9.27,6.48,13.42,6.26,7.85-.42,15.37-9,19-13.06,47.23-53.62,115.34-137,164.17-197.45,36.24-44.89,66.64-39.06,88.85-34.81l.81.16c21.6,4.13,49.77,9.17,79.59,14.5C723.67,387.16,823.6,405,880.47,420.23c44.79,12,51.4,32.54,51.86,53,.88,38.88-43.36,56.55-66.87,60.46-185,30.76-320.05,76.65-439.2,117.14-39.73,13.5-77.25,26.26-115.33,38.1-41.81,13-83.19-3.65-94.88-9.07-57-26.42-64.89-85.38-65.64-109.5-1.7-55.3-1.84-113-2-179.75-.11-49.41-.23-100.51-1-157.32-.31-22.69-11.58-25.2-20.07-25.1-16.2.19-20,16.24-20.34,29.67-1.38,54.29-4.44,118.93-7.4,181.45C96.11,493,92.82,562.7,92.18,614.6c-.42,34.9,4.38,42.38,11,52.73l.53.83c36.92,57.55,63.76,78.82,83,90.93,17.35,10.91,37.39,12.35,53,12.35h.34c191.9-.25,345.51,2.29,481,4.54,102.15,1.69,190.36,3.14,273.2,3,26,0,32-.87,41-2.11l3.42-.47c96.75-12.86,268.54-39.1,311.68-48.31A55.5,55.5,0,0,1,1362.1,726.78Z"/></svg>