<svg id="_200__Config" data-name="200 _Config" xmlns="http://www.w3.org/2000/svg" viewBox="0 0 1920 1080"><defs><style>.cls-1{fill:#fff;}</style></defs><path class="cls-1" d="M1579.09,936.7q-10,0-20.25-.85c-34.26-2.84-148.84-23.94-184.9-176.1l-.12-.47c-2.12-9-3.53-14.95-19.18-11.61-44.33,9.47-214,35.39-313.21,48.58l-3.33.45c-9.52,1.31-16.39,2.26-43.75,2.3-83,.11-171.32-1.33-273.56-3-135.43-2.24-288.93-4.78-480.67-4.53-18.35,0-42.18-1.7-64-15.42-21-13.21-50.15-36.18-89.2-97.06l-.53-.82c-9.15-14.23-14.67-25.63-14.2-63.78.63-52.25,3.94-122.08,7.43-196,3-62.4,6-126.93,7.38-181,.78-30.5,15.77-48.88,40.11-49.15,9.21-.11,39.49,2.78,42.27,44.29,1.24,18.41,14.24,22,28.11,23.21,1.11.1,2.06.18,2.92.3,71.52,10.16,110.79,15.27,112.79,15.53C546.43,297.46,1210,384.12,1407.79,410.07l6.06.79c39.48,5.17,63.81,1.61,95.35-32.64,2.3-2.49,5.28-5.79,8.57-9.43,9-9.93,20.14-22.29,26.15-28l1.54-1.48c8.22-8,23.54-22.86,54.73-2.77,29.11,18.75,58.62,36.62,87.17,53.9,38.36,23.23,74.59,45.17,107.3,67.6,10.92,7.49,27.43,18.81,39,36.87,13.32,20.83,17.51,45.7,12.79,76-9.26,59.46-29.08,147.85-52.5,211.26-15.19,41.11-43.73,80.32-78.31,107.56C1676.45,920.67,1629.58,936.7,1579.09,936.7Zm-217-209.92c9,0,16.22,2.73,21.68,8.17,6.34,6.33,8.25,14.39,9.51,19.73l.11.46c33,139.05,136.23,158.22,167.09,160.78,124.64,10.36,193.6-83.51,214.68-140.61,22.95-62.12,42.4-148.93,51.5-207.4,8.95-57.48-21.26-78.2-43.33-93.33-32.23-22.1-68.23-43.9-106.34-67-28.66-17.35-58.29-35.29-87.64-54.19-17.83-11.49-22.93-6.55-30,.3l-1.75,1.68c-5.43,5.11-16.3,17.15-25,26.81-3.34,3.69-6.36,7-8.7,9.57-37.09,40.27-68.21,44.75-112.65,38.92l-6.07-.79C1207.38,404,543.87,317.29,310.89,291.38l-.17,0c-.39-.05-39.91-5.16-113.13-15.57-.29,0-1.08-.11-1.78-.17-5.07-.43-15.63-1.32-25.38-6.68-8.83-4.86-19.64-14.89-21-35.12-1.16-17.25-8.26-25.64-21.72-25.64h-.37c-16.2.19-20,16.24-20.34,29.67-1.38,54.29-4.44,118.93-7.4,181.45C96.11,493,92.82,562.7,92.18,614.6c-.42,34.9,4.38,42.38,11,52.73l.53.83c36.92,57.55,63.76,78.82,83,90.93,17.35,10.91,37.39,12.35,53,12.35h.34c191.9-.25,345.51,2.29,481,4.54,102.15,1.69,190.36,3.14,273.2,3,26,0,32-.87,41-2.11l3.42-.47c96.75-12.86,268.54-39.1,311.68-48.31A55.5,55.5,0,0,1,1362.1,726.78Z"/></svg>