<?xml version="1.0" encoding="utf-8"?>
<!-- Generator: Adobe Illustrator 24.0.1, SVG Export Plug-In . SVG Version: 6.00 Build 0)  -->
<svg version="1.1" id="_100__Config" xmlns="http://www.w3.org/2000/svg" xmlns:xlink="http://www.w3.org/1999/xlink" x="0px"
	 y="0px" viewBox="0 0 1920 1080" style="enable-background:new 0 0 1920 1080;" xml:space="preserve">
<style type="text/css">
	.st0{fill:#FFFFFF;}
</style>
<title>active</title>
<path class="st0" d="M932.3,473.2c-0.5-20.5-7.1-41-51.9-53c-56.9-15.2-156.8-33.1-237.1-47.4c-29.8-5.3-58-10.4-79.6-14.5l-0.9-0.2
	c-22.2-4.2-52.6-10-88.7,34.8C434.5,442,360.4,533,309.9,590.4c-3.6,4.1-11.1,12.6-19,13.1c-4.1,0.2-8.7-1.9-13.4-6.3
	c-8.5-7.9-26.9-25.2-35.4-34.5c-6.8-7.4-12.6-16.1-15.2-46.6c-3.1-35-5.6-105.5-6.6-141.6c-0.1-3-0.8-13.6-6.5-23.3
	c-6.1-10.4-16-16.1-27.7-16.1c-0.1,0-0.2,0-0.3,0c-20.5,0.2-33,13.4-33.6,35.5c-1.4,52.1-2.5,150.6-1.8,199.5
	c0.2,11.5,2,34.2,12.8,57c11.3,23.9,29.1,41.6,52.8,52.6c8.5,4,33,13.9,61.8,13.9c10.6,0,21.8-1.4,33.1-4.9
	c38.1-11.8,75.6-24.6,115.3-38.1c119.1-40.5,254.2-86.4,439.2-117.1C889,529.7,933.2,512.1,932.3,473.2z M862.2,513.9
	c-186.6,31-322.5,77.2-442.4,117.9c-39.6,13.5-77,26.2-114.8,37.9c-27.8,8.6-59.8,1.5-80.5-8.1c-48-22.2-53.8-71.6-54.1-91.8v0
	c-0.7-48.7,0.4-146.8,1.8-198.7c0.4-14,6.8-16,13.8-16c0,0,0.1,0,0.1,0c13.5,0,14.2,19.1,14.3,19.9c1,36.4,3.6,107.4,6.7,142.8
	c2.9,33.2,9.7,46.5,20.3,58.3c8.9,9.8,27.2,27.1,36.6,35.8c8.9,8.1,18.3,12,28,11.5c16.2-0.9,27.5-13.7,32.9-19.8
	c50.8-57.6,125-148.9,164.7-198.1c28.7-35.5,49.4-31.6,69.4-27.7l0.9,0.2c21.7,4.2,49.9,9.2,79.8,14.5
	c79.9,14.3,179.4,32.1,235.5,47.1c36.5,9.7,36.8,22.7,37,34.1C912.9,499.7,876.3,511.6,862.2,513.9z"/>
</svg>
