<?xml version="1.0" encoding="utf-8"?>
<!-- Generator: Adobe Illustrator 24.0.1, SVG Export Plug-In . SVG Version: 6.00 Build 0)  -->
<svg version="1.1" id="Irwindale_Inner_Outer_Oval__Config"
	 xmlns="http://www.w3.org/2000/svg" xmlns:xlink="http://www.w3.org/1999/xlink" x="0px" y="0px" viewBox="0 0 1920 1080"
	 style="enable-background:new 0 0 1920 1080;" xml:space="preserve">
<style type="text/css">
	.st0{fill:#FFFFFF;}
</style>
<title>active</title>
<path class="st0" d="M1513.4,322.1c-46.9-43.4-109.5-75.6-171.7-88.2c-94.1-19.1-195.3-20.2-300.8-3.2
	c-90.1,14.5-185.6,42.5-283.7,83.4l-0.3,0.1c-10.5,4.3-47.1,21.2-80.1,56.2c-20.5,21.8-35.8,46.7-45.4,74
	c-11.9,33.6-15.1,70.9-9.5,110.8c5.5,39.4,20.9,74.6,46,104.5c31.4,37.6,78.2,67.2,139,88.2c76.1,26.2,141.2,44,205,56
	c63.4,11.9,123.6,17.9,182.7,17.9c21.2,0,42.2-0.8,63.1-2.3l0,0c100.9-7.3,186.1-38.8,246.5-91c61.7-53.4,95-126.4,96.3-211.2
	C1601.7,443.5,1571.6,376,1513.4,322.1z M1580.6,516.8c-2.5,160.1-126.8,268.3-324.3,282.6l0,0C1081.9,812,928,768.3,813.4,728.8
	C710.8,693.6,653,634.1,641.7,552.3c-9.3-66.7,7.5-123.3,49.7-168.3c30.2-32.1,63.6-47.5,73.1-51.4l0.3-0.1
	c150-62.4,291.4-93.7,422.4-93.7c51.8,0,102,4.9,150.5,14.7C1436.7,273.6,1583,360.3,1580.6,516.8z"/>
</svg>
