<svg id="Limaland_-_Config" data-name="Limaland - Config" xmlns="http://www.w3.org/2000/svg" viewBox="0 0 1920 1080"><defs><style>.cls-1{fill:#fff;}</style></defs><title>active</title><path class="cls-1" d="M961.9,848.05c-90.81,0-181.62-.46-206.53-1.38-88.45,2.83-171-21.53-232.56-68.64C450.09,722.39,408.63,637.74,402.9,533.24c-1.71-31.22,3.79-65.82,15.9-100.06a331.67,331.67,0,0,1,164-184.88c45.6-23,97.16-36.23,153.23-39.46,57-3.28,394.7-3.28,451.69,0,56.07,3.23,107.62,16.5,153.23,39.46a331.67,331.67,0,0,1,164,184.88c12.11,34.24,17.6,68.84,15.89,100.06-5.72,104.5-47.18,189.15-119.9,244.79-61.58,47.11-144.12,71.47-232.56,68.64C1143.52,847.59,1052.71,848.05,961.9,848.05ZM755.64,766.61l1.57.07c42.09,1.82,367.3,1.82,409.38,0l1.57-.07,1.58.06c124.63,4.4,261.31-55.74,271.28-237.8,1.9-34.62-11.58-93.63-55.8-146-33.4-39.57-95.57-88-202.07-94.15-53.76-3.09-388.73-3.09-442.5,0C634.16,294.83,572,343.29,538.58,382.86c-44.22,52.38-57.69,111.39-55.8,146,10,182.06,146.67,242.2,271.29,237.8Z"/></svg>