<svg id="Rallycross_-_Config" data-name="Rallycross - Config" xmlns="http://www.w3.org/2000/svg" viewBox="0 0 1920 1080"><defs><style>.cls-1{fill:#fff;}</style></defs><title>active</title><path class="cls-1" d="M1564.42,583.48a58.11,58.11,0,0,0-3.65-11.39l-.24-.51c-12.13-24.54-33.29-39.72-61.17-43.89a106.88,106.88,0,0,0-37.13,1c-10.56,1.94-164.78,30.21-191,36.3-20.5,3.2-35.28,16-41.64,36.22a77.27,77.27,0,0,0-3.23,27.31c.22,8.11,2.71,102.58,4.36,130.73.27,10.05-6.49,18.19-8,19.9-5.36,4.43-14.17,9.53-17.82,9.63-25.14-.56-541-11.92-573.49-11.92-35.18,0-65.41-9.08-80.29-14.49l-.22-.08c-39.47-13.65-111-52.57-146.58-159.86-9.42-28.41-10.8-61.26-4.2-100.41,6.65-39.52,22.11-61,32.35-75.22l2.5-3.5C486.8,354,533.81,312.11,564.13,289.14A44.22,44.22,0,0,0,580,265.75a34.8,34.8,0,0,0,1.17-11.89c-1.8-23.51-18.65-38.34-45.06-39.66a82.29,82.29,0,0,0-38.46,7.71A347.83,347.83,0,0,0,643.35,885.68H1225a348,348,0,0,0,339.17-270.3A74.17,74.17,0,0,0,1564.42,583.48Zm-29.52,25.24c-33.11,145.41-160.55,247-309.91,247H643.35c-175.26,0-317.85-142.58-317.85-317.84C325.5,414.3,398,301,510.2,249.14a53,53,0,0,1,22.07-5c.77,0,1.54,0,2.3.06,15.8.79,16.33,7.8,16.65,12a4.89,4.89,0,0,1-.18,1.66,14,14,0,0,1-5,7.42c-31.88,24.15-81.21,68.1-135.19,140.27l-.23.33c-.78,1.1-1.61,2.25-2.49,3.46-11.13,15.48-29.76,41.37-37.58,87.77-7.42,44.1-5.68,81.66,5.32,114.84C415.44,731.31,496.24,775.12,541,790.62c16.77,6.09,50.74,16.26,90.44,16.26,32.23,0,567.65,11.8,573.06,11.92h.33c16.92,0,34.62-14.42,38-17.31l.76-.7c1.84-1.81,18-18.41,17.16-42.7l0-.38c-1.66-28-4.31-129.35-4.34-130.37l0-1a47,47,0,0,1,2.12-16.78c3-9,8.54-13.66,17.8-15l.67-.1.65-.15c23.82-5.66,188.78-35.89,190.44-36.19l.76-.16c1.88-.44,46.28-10.27,64.76,26.59a29.4,29.4,0,0,1,1.6,5.25A43.77,43.77,0,0,1,1534.9,608.72Z"/></svg>