<?xml version="1.0" encoding="utf-8"?>
<!-- Generator: Adobe Illustrator 24.0.1, SVG Export Plug-In . SVG Version: 6.00 Build 0)  -->
<svg version="1.1" id="Knoxville__Config" xmlns="http://www.w3.org/2000/svg" xmlns:xlink="http://www.w3.org/1999/xlink" x="0px"
	 y="0px" viewBox="0 0 1920 1080" style="enable-background:new 0 0 1920 1080;" xml:space="preserve">
<style type="text/css">
	.st0{fill:#FFFFFF;}
</style>
<title>active</title>
<path class="st0" d="M1519,533.7c-3.4-110.1-46-203.9-123.2-271.1c-31.3-27.3-67.2-49.4-106.8-65.7c-34.5-14.3-70.7-23.5-104.5-26.7
	c-133.5-12.7-387.9-13.7-513.6-2c-142.6,13.2-221.8,88.6-263.2,149.6c-23.7,34.9-41.3,74-52.5,116.2c-9.8,36.9-13.9,74.1-11.8,107.6
	c8.1,133.5,72.4,217.2,124.9,263.9c58.5,52,135.2,87,205.2,93.5l0,0c63.8,5.9,153.9,8.3,244.2,8.3c101.3,0,202.9-3,267.6-7.3
	c137.4-9.1,217.2-79.1,259.9-136.3C1493.8,698.5,1521.4,612.6,1519,533.7z M1181.4,840.1c-133.4,8.8-381.8,10.3-502.2-0.9l0,0
	c-100.1-9.3-263.6-99.4-275.8-301.3c-2.9-47.3,9.8-121.2,54.1-186.5c34.1-50.3,99.8-112.5,219.1-123.5c57.6-5.3,142.9-8,230.7-8
	c99.5,0,202.3,3.4,271.7,9.9c93.9,8.9,273.4,84.3,280.2,305.7C1462.4,646,1390,826.3,1181.4,840.1z"/>
</svg>
