<svg id="Oval_-_Config" data-name="Oval - Config" xmlns="http://www.w3.org/2000/svg" viewBox="0 0 1920 1080"><defs><style>.cls-1{fill:#fff;}</style></defs><title>active</title><path class="cls-1" d="M1620.71,458.3c-.43-19.58-6-65.46-24.3-113.21-10.71-28-24.32-53.12-40.47-74.63-19.78-26.35-43.42-47.39-70.29-62.55l-3.34-2.15c-26-16.8-86.92-56.14-249.94-52.38-34.08-.7-578.44-2.68-641.52-2.91h-.7l-.7,0c-1.27.05-31.62,1.47-72.62,12.33a318.21,318.21,0,0,0-127.81,68A309.63,309.63,0,0,0,284.77,437l-.09,1.43c-3.95,101.32,28.06,187.09,92.56,248l.59.53c13.16,11.79,41.69,35.38,84.91,60.84A695.24,695.24,0,0,0,625,817c48.71,15.75,152.75,36.13,157.17,37l.65.12c4.81.83,98.66,16.8,182.86,16.8a476.57,476.57,0,0,0,53.39-2.68c44.84-3.74,99.39-9.61,164.28-24.75,77.86-18.16,155.22-45.73,236.51-84.29l1-.47c.72-.37,3.14-1.45,5.08-2.32,18.59-8.3,68-30.34,111.86-76.25a290.18,290.18,0,0,0,58.39-89.28c16.48-39.59,24.75-84,24.59-132ZM1401.42,701.61c-3.2,1.44-5.59,2.5-7.67,3.55-161.28,76.44-278,94.83-380.12,103.31l-1,.1c-81.14,9.41-212-12.29-219.35-13.53-6.7-1.32-106.6-21-150.3-35.27l-1.07-.32c-126.28-35.92-202.86-98.18-223.78-116.87C367,594,341.53,524.52,344.61,441.49a252.42,252.42,0,0,1,16.7-70.23c29.06-73.55,92.94-129.79,170.88-150.43,31.52-8.35,55.49-10.12,59.32-10.36,173.36.63,623.34,2.36,639.61,2.88l1,.05,1,0c145.05-3.43,195.23,29,216.66,42.8,1.74,1.13,3.32,2.15,4.76,3l1.17.68c82.94,46.44,104.1,162.15,105,199.47C1561,572.79,1507.42,654.3,1401.42,701.61Z"/></svg>