<?xml version="1.0" encoding="utf-8"?>
<!-- Generator: Adobe Illustrator 24.0.1, SVG Export Plug-In . SVG Version: 6.00 Build 0)  -->
<svg version="1.1" id="Rallycross_-_Config" xmlns="http://www.w3.org/2000/svg" xmlns:xlink="http://www.w3.org/1999/xlink"
	 x="0px" y="0px" viewBox="0 0 1920 1080" style="enable-background:new 0 0 1920 1080;" xml:space="preserve">
<style type="text/css">
	.st0{fill:#FFFFFF;}
</style>
<title>active</title>
<path class="st0" d="M1852.2,371.3c-4.8-11.6-16.7-18.6-26.3-21.3c-13.5-3.8-37.5-11.1-51.9-15.4l-3.6-1.1
	c-12.9-3.9-50.8-14.4-52.4-14.9l-0.5-0.1c-31-6.9-47,19.9-54.8,32.8c-0.8,1.4-1.6,2.7-2.3,3.9c-16.3,25.8-61.5,86.6-83.2,112.2
	c-20.2,23.5-46.8,40-76.9,47.6c-23.4,6.1-46.8,10-95.9-2.8c-35.4-9.2-93.5-31.4-140.2-49.1c-17.3-6.6-33.7-12.8-46.5-17.5
	c-20.2-7.3-55.5-10.1-88.8,6.2c-28.3,13.9-48.9,39.1-59.7,72.8c-9.9,30.9-2.7,70.7,18.2,101.5c23.3,34.2,60.9,54.7,105.9,57.7
	c79,5.2,167.4,6.2,231.9,6.9c9.5,0.1,18.6,0.2,27.2,0.3h0c25.2,0.3,57.3,1,91.2,1.6c61,1.2,128.6,2.6,180.8,2.6
	c11.5,0,22.2-0.1,32-0.2c18.9-0.3,32.9-5.6,41.7-15.9c6.3-7.3,9.6-17,9.6-27.9c0-5.4,0-11.3,0-17.8c0.1-43.4,0.1-109-1.8-144.5
	c-1.1-19.3,1.9-26.1,5.8-33c3.7-6.5,10.9-16.6,17.8-26.4c7.5-10.7,15.3-21.7,19.6-29.4C1856.3,387.5,1854.8,377.5,1852.2,371.3z
	 M1831.7,390.3c-3.8,6.8-11.3,17.4-18.5,27.7c-7.5,10.6-14.6,20.6-18.8,28c-6.3,10.9-9.6,21.6-8.4,44c1.9,34.9,1.8,100.2,1.8,143.4
	c0,6.4,0,12.4,0,17.8c0,15.7-10.3,23.5-31.6,23.9c-53.7,0.8-137.8-0.9-212.1-2.4c-34-0.7-66.1-1.3-91.4-1.6
	c-8.6-0.1-17.7-0.2-27.2-0.3c-64.3-0.7-152.3-1.7-230.8-6.9c-49.5-3.2-76.6-28.4-90.6-49c-17.6-25.8-23.8-58.9-15.7-84.1
	c9.2-28.8,25.8-49.3,49.5-60.9c25.8-12.7,55.4-11.9,73.1-5.4c12.6,4.6,28.9,10.8,46.2,17.4c47.2,17.9,105.8,40.3,142.3,49.8
	c53.6,14,80.7,9.3,105.9,2.8c34.1-8.6,64.2-27.3,87.2-54c22.7-26.6,67.9-87.6,85-114.5c0.8-1.3,1.7-2.7,2.6-4.3
	c8.9-14.9,17.5-26.9,33-23.6c3.5,1,39.5,11,51.7,14.7l3.6,1.1c14.4,4.4,38.6,11.7,52.3,15.6c4.2,1.2,11.2,4.7,13.2,9.7
	C1834.2,380.1,1835.6,383.5,1831.7,390.3z"/>
</svg>
