<?xml version="1.0" encoding="utf-8"?>
<!-- Generator: Adobe Illustrator 24.0.1, SVG Export Plug-In . SVG Version: 6.00 Build 0)  -->
<svg version="1.1" id="Charlotte_Dirt_Config" xmlns="http://www.w3.org/2000/svg" xmlns:xlink="http://www.w3.org/1999/xlink"
	 x="0px" y="0px" viewBox="0 0 1920 1080" style="enable-background:new 0 0 1920 1080;" xml:space="preserve">
<style type="text/css">
	.st0{fill:#FFFFFF;}
</style>
<title>active</title>
<path class="st0" d="M1023.7,957.1c-100.3,0-193-4.6-261.4-8c-15.2-0.8-29.6-1.5-42-2c-42.6-1.9-89.2-10.7-134.9-25.4
	c-53.6-17.3-102.7-41.5-145.9-72C329,771.5,266.8,658.1,259.6,521.8c-2.2-41.6,4.9-87.8,20.5-133.8c16.8-49.4,43.2-97.2,76.4-138.1
	c38.1-46.9,84.5-84.9,137.9-112.9c60-31.4,128-49.6,202-54.1c143.7-8.6,434.3-4.1,588.4,5.6c85.8,5.4,180.3,43.1,252.8,100.9
	c66.5,53,148.2,149.6,159.7,308.2c1.3,13.2,8.3,103.6-34.5,201.9c-26.4,60.6-66.3,111.3-118.5,150.7c-63.9,48.2-146.1,79-244.2,91.6
	C1209.9,953.4,1113.8,957.1,1023.7,957.1z M901.4,158.3c-77.1,0-148.4,1.4-200.1,4.4c-148.6,8.9-235.7,79.7-282.6,137.5
	c-62.7,77.3-82,163-79.2,217.3c14.4,273.2,282.3,345,384.4,349.6c12.6,0.6,27.1,1.3,42.4,2c127.2,6.3,340,16.8,523.8-6.8l0,0
	c150.3-19.3,251-84.5,299.1-193.9c36.5-83.1,28.8-162.5,28.7-163.3l-0.1-1.4c-16.5-230.1-215.9-328-337.7-335.6
	C1183.8,162.3,1034.1,158.3,901.4,158.3z M1657.5,501L1657.5,501L1657.5,501z"/>
</svg>
