<svg id="GP_-_Config" data-name="GP - Config" xmlns="http://www.w3.org/2000/svg" viewBox="0 0 1920 1080"><defs><style>.cls-1{fill:#fff;}</style></defs><g id="Layer_10" data-name="Layer 10"><path class="cls-1" d="M1869.8,492.41l0-.23c-.3-1.48-30.34-148.21-36.62-197.19-1.7-13.29-7.29-23.74-16.16-30.22-9.5-6.95-22.16-9-37.63-6.2-73.2,13.4-174.4,30.5-281.54,48.6-181.12,30.6-386.42,65.29-510.42,91.3-43.45,9.12-91.5,9.49-118.46-56.79-1.75-4.31-4.09-11.3-6.36-18.06-2.53-7.55-5.15-15.35-7.3-20.53q-1.24-3-2.5-6.18c-5.58-13.92-12.53-31.24-26.95-44.79-16.73-15.71-40-23.34-71-23.34-18.42,0-42.91.12-68.84.25-59.53.31-133.61.68-176.28-.25l-3.78-.09c-34-.8-72.52-1.71-132.09,35.38-57.59,35.84-155,101.28-233.24,153.86-24.2,16.25-47.05,31.6-65.1,43.64C56.84,474,50.38,494.48,53.86,530.12c1.81,18.52,7.27,44.86,12.25,68.09.24,1.12.5,2.66.79,4.44,2.69,16.12,9,53.87,52.81,63.67,31.27,7,73.88,18.3,119,30.29,81.84,21.74,174.59,46.38,232.69,54,9.34,1.22,22.25-.71,30.5-9.8,5-5.54,10.16-15.9,6-33.78-3.57-15.43-9.46-43.34-11.07-57-1-8.17-.68-17.15,14-29.26,4.65-3.84,10.71-9.31,17.12-15.1,10.87-9.81,23.19-20.93,32.36-27.54,1.61-1.16,3.17-2.38,4.82-3.67,10.08-7.88,20.5-16,40.64-9.2l10.45,3.55c29.41,9.95,78.63,26.61,103.4,36.56,13.76,5.53,25.36,12.52,16.28,37-1,2.74-2.54,6.51-4.16,10.51-3.46,8.54-7.39,18.23-9.15,24.72-3.63,13.38-1.83,28.43.91,51.22,1.27,10.58,4.77,31,6.65,40.52,3.08,15.62,9.49,48.13,53.31,52.21,11.06,1,26.11,1.48,42.06,1.95,19.74.59,40.16,1.2,54.88,3,56.36,6.67,102.33,14.4,222.87,59.29,15.77,5.87,39.47,16.54,62.4,26.85,23.52,10.58,47.84,21.52,64.43,27.67l2.84,1.06c46.12,17.11,96.89,35.94,170.57,35.94a506.4,506.4,0,0,0,79.24-6.59c41.37-6.56,117.39-27.31,162.81-39.71l12.71-3.46c11.38-3.1,46-12.51,46.12-47,.13-46.28-16.49-107.55-48.08-177.19-.7-1.54-1.44-3.06-2.24-4.68-7.1-14.52-13.81-28.24,11.57-46.76l166-93.23C1835.15,556.86,1877.24,533.58,1869.8,492.41Zm-47.53,48.65L1655.36,634.8l-.49.28-.46.33c-39.58,28.55-25.72,56.87-18.28,72.09.72,1.48,1.41,2.88,2,4.15,30.41,67.05,46.41,125.44,46.29,168.88,0,13.46-9.42,21.74-31.37,27.71l-12.73,3.47c-45,12.29-120.38,32.86-160.68,39.24-114.42,18.14-181-6.56-239.72-28.35l-2.84-1.05c-16-5.91-40-16.72-63.18-27.16s-47.23-21.25-63.62-27.35c-122.64-45.67-169.7-53.57-227.5-60.41-15.59-1.85-36.46-2.47-56.63-3.08-15.62-.47-30.38-.91-40.81-1.88-28.94-2.69-32.6-21.25-35.56-36.23-2-10.35-5.28-29.62-6.4-39-2.45-20.46-4.07-34-1.46-43.6,1.45-5.33,5.29-14.83,8.38-22.45,1.68-4.14,3.26-8,4.38-11.07,6.76-18.22,5.83-33.43-2.76-45.21-6.69-9.16-16.3-13.9-24.81-17.32-25.29-10.16-72.93-26.28-104.45-37l-10.44-3.54a64.23,64.23,0,0,0-20.71-3.68c-18.12,0-30,9.32-38.67,16.06-1.49,1.17-2.9,2.27-4.2,3.21-10.06,7.25-22.81,18.76-34.06,28.91-6.24,5.64-12.15,11-16.45,14.52-21.55,17.79-22.61,34.48-21.12,47,1.83,15.58,8.29,45.5,11.44,59.15,1.21,5.21,1.95,12.2-1.35,15.83-2.85,3.15-8.79,4-13.08,3.41-56.82-7.46-148.91-31.93-230.17-53.51-45.31-12-88.11-23.41-119.77-30.48C95.76,640.47,89.9,619,86.63,599.36c-.33-2-.63-3.77-1-5.34-4.87-22.69-10.2-48.36-11.9-65.84-3.8-38.92,7-46.11,12.78-50,18.08-12,40.94-27.42,65.15-43.68C229.83,382,327.07,316.71,384.36,281.05c54.5-33.93,88.33-33.13,121-32.36l3.83.09c42.93.93,117.16.56,176.81.25,25.91-.13,50.37-.25,68.74-.25,57.15,0,68.47,28.25,79.42,55.57.88,2.19,1.74,4.34,2.6,6.41,1.89,4.53,4.39,12,6.81,19.22,2.47,7.38,4.81,14.35,6.79,19.23,15.16,37.26,38.78,60.65,70.21,69.54,25.49,7.21,51.27,3.41,70.89-.7,123.62-25.93,328.7-60.59,509.65-91.16,107.2-18.11,208.46-35.22,281.8-48.65,9.86-1.8,17.34-.9,22.23,2.67,5.47,4,7.44,11.24,8.12,16.62,6.33,49.41,35.27,190.87,36.84,198.54C1855,523.47,1822.57,540.9,1822.27,541.06Z"/></g></svg>