<?xml version="1.0" encoding="utf-8"?>
<!-- Generator: Adobe Illustrator 24.0.1, SVG Export Plug-In . SVG Version: 6.00 Build 0)  -->
<svg version="1.1" id="Kokomo__Config" xmlns="http://www.w3.org/2000/svg" xmlns:xlink="http://www.w3.org/1999/xlink" x="0px"
	 y="0px" viewBox="0 0 1920 1080" style="enable-background:new 0 0 1920 1080;" xml:space="preserve">
<style type="text/css">
	.st0{fill:#FFFFFF;}
</style>
<title>active</title>
<path class="st0" d="M1409.4,306c-48.8-52.2-118-83.4-194.7-88c-212.7-12.6-283.2-9.6-437.6-3.1l-24.1,1
	c-120.7,5.1-192,58.7-230.6,102.9c-47.7,54.6-72.6,126.2-66.6,191.4c8,87,43.4,155.8,105,204.6c55.5,44,130.7,71.2,229.9,83.4
	l0.6,0.1c0.5,0.1,1.3,0.2,2.5,0.3c64.9,7.7,123.7,9.4,161.7,9.4c0.6,0,1.2,0,1.8,0c106.8,0,202.5-11.9,284.6-35.4
	c30.1-8.6,88.2-29.7,139.8-74.3c28.3-24.5,50.9-53,67.2-84.5c19.1-37.2,29.5-78.9,30.7-123.9C1481.5,421.8,1456.5,356.5,1409.4,306z
	 M1399.7,487.9c-3.8,142.4-126.9,192.9-179.7,207.9c-167.2,47.8-361.2,30-416.7,23.4c-1.3-0.2-2.3-0.3-3-0.4
	c-168.9-20.7-253.1-89.4-264.8-216c-3.1-33.9,7.6-86.2,47.1-131.4c28.3-32.3,81.4-71.7,173.7-75.6l24.1-1
	c156.2-6.6,220.8-9.3,429.5,3C1336.3,305.4,1402,401.4,1399.7,487.9z"/>
</svg>
