<svg id="Rally_Short_-_Configs" data-name="Rally Short - Configs" xmlns="http://www.w3.org/2000/svg" viewBox="0 0 1920 1080"><defs><style>.cls-1{fill:#fff;}</style></defs><path class="cls-1" d="M1353.86,870.5c-12.46,0-22.51-3.06-30-9.17-10.3-8.36-15.07-21.63-14.16-39.46h0c.86-16.83,4.67-31.94,8-45.27,2.66-10.54,5-19.67,5.18-27.12-5.43-85.39-33.44-146.81-81-177.65-35.84-23.22-70.83-21.36-71.18-21.33h-.49c-.7,0-71.06,1.08-157-.43-9.95-.18-18.22-3.66-24.58-10.36-15.71-16.54-14.63-48.24-13.85-71.38.13-3.8.25-7.38.28-10.42.08-10.4-.12-19.67-.29-27.85-.59-27.7-.94-44.42,10.56-55.54,10.83-10.47,29.42-11.67,55.91-10.2,107.75,6.4,234.65,21,377.24,43.28,5.75.9,9.9,1.55,11.27,1.73,51.13,7.23,76.51,33.18,83.46,47.38l.77,1.58.19,1.75c4.85,45.32,35.83,64.91,37.72,66.07,4,2.33,70.59,41.73,70.59,95.94,0,54.81-42.31,79-44.11,80l-1.14.64-1.26.31c-3.43.88-84.5,21.4-125.06,27.77-17.21,2.7-35.6,16.77-44.72,34.22-5.94,11.39-10.84,29.47-.38,51a35.57,35.57,0,0,1,.32,30.47,36,36,0,0,1-23.58,19.87A113,113,0,0,1,1353.86,870.5Zm-24.22-47.61h0c-.57,11.09,1.71,18.8,6.78,22.91,7.19,5.83,21.73,6.23,40.95,1.14a16,16,0,0,0,10.53-8.87,15.64,15.64,0,0,0-.13-13.4c-11-22.62-10.77-47.12.64-69,12-23.07,35.9-41,59.35-44.72,36.78-5.77,110.68-24.23,121.83-27a73.22,73.22,0,0,0,32.84-61.88c0-43.13-60.06-78.31-60.67-78.66l-.09-.06c-1.67-1-40.5-24.52-47.21-79.17-5.29-8.88-25.33-29.06-67.47-35-1.52-.2-5.33-.79-11.65-1.78-142-22.22-268.23-36.72-375.3-43.08-15.87-.87-34.9-1.14-40.86,4.62-5.22,5-4.9,20-4.47,40.74.18,8.31.38,17.74.3,28.43,0,3.3-.15,7-.29,10.94-.63,18.5-1.58,46.46,8.36,56.92,2.61,2.75,5.92,4.06,10.43,4.14,83.25,1.47,151.78.51,156.16.44,4.84-.26,55.33-2,101.21,38.26,42.63,37.4,66.85,97.93,72,179.88l0,.41v.42c-.2,9.8-2.92,20.58-5.8,32C1334,793.93,1330.4,808,1329.64,822.89Z"/></svg>