<svg id="Rally_Long_-_Configs" data-name="Rally Long - Configs" xmlns="http://www.w3.org/2000/svg" viewBox="0 0 1920 1080"><defs><style>.cls-1{fill:#fff;}</style></defs><title>active</title><path class="cls-1" d="M1353.86,870.5c-12.46,0-22.51-3.06-30-9.17-10.3-8.36-15.07-21.63-14.16-39.46h0c.86-16.83,4.67-31.94,8-45.27,2.66-10.54,5-19.67,5.18-27.12-5.43-85.39-33.44-146.81-81-177.65-35.84-23.22-70.83-21.36-71.18-21.33l-.68,0c-3.21,0-322.35-1-441.59-1-52.12,0-88.54-17.29-108.26-51.38-15.79-27.28-16.21-58.32-16.41-73.23,0-1.86,0-3.47-.1-4.82v-.68c.93-29.65,11.46-54.58,30.43-72.09a96.69,96.69,0,0,1,68.86-25.13c18.75.9,70.27,8.28,129.93,16.82,81.53,11.68,173.94,24.91,207.87,25.27l.49,0c107.71,6.4,234.61,21,377.2,43.28,5.75.9,9.9,1.55,11.27,1.73,51.13,7.23,76.51,33.18,83.46,47.38l.77,1.58.19,1.75c4.85,45.34,35.86,64.93,37.72,66.07,4.07,2.35,70.59,41.74,70.59,95.94,0,54.81-42.31,79-44.11,80l-1.14.64-1.26.31c-3.43.88-84.5,21.4-125.06,27.77-17.21,2.7-35.6,16.77-44.72,34.22-5.94,11.39-10.84,29.47-.38,51a35.57,35.57,0,0,1,.32,30.47,36,36,0,0,1-23.58,19.87A113,113,0,0,1,1353.86,870.5Zm-24.22-47.61c-.57,11.09,1.71,18.8,6.78,22.91,7.19,5.83,21.73,6.23,40.95,1.14a16,16,0,0,0,10.53-8.87,15.64,15.64,0,0,0-.13-13.4c-11-22.62-10.77-47.12.64-69,12-23.07,35.9-41,59.35-44.72,36.78-5.77,110.68-24.23,121.83-27a73.22,73.22,0,0,0,32.84-61.88c0-43.13-60.06-78.31-60.67-78.66l-.09-.06c-1.67-1-40.5-24.52-47.21-79.17-5.29-8.88-25.33-29.06-67.47-35-1.52-.2-5.33-.79-11.65-1.78-141.86-22.21-268-36.69-375.06-43.06-35.44-.44-128.3-13.74-210.25-25.47C773.34,350.72,719.79,343.05,702,342.2c-15.07-.73-37.25,4.09-54.32,19.84-15.09,13.93-23.17,33.34-24,57.7.05,1.4.07,3.06.1,4.93.19,14.23.55,40.72,13.72,63.48,15.89,27.47,46.49,41.4,90.95,41.4,117.65,0,429.79.93,441.35,1,5.38-.29,55.53-1.73,101.11,38.26,42.63,37.4,66.85,97.93,72,179.88l0,.41v.41c-.2,9.81-2.92,20.59-5.8,32-3.14,12.44-6.69,26.54-7.45,41.4Z"/></svg>