<?xml version="1.0" encoding="utf-8"?>
<!-- Generator: Adobe Illustrator 24.0.1, SVG Export Plug-In . SVG Version: 6.00 Build 0)  -->
<svg version="1.1" id="_2000_Moto_-_Config" xmlns="http://www.w3.org/2000/svg" xmlns:xlink="http://www.w3.org/1999/xlink"
	 x="0px" y="0px" viewBox="0 0 1920 1080" style="enable-background:new 0 0 1920 1080;" xml:space="preserve">
<style type="text/css">
	.st0{fill:#FFFFFF;}
</style>
<title>active</title>
<path class="st0" d="M1550.3,614.6c-4-17-13.4-30.3-27.3-38.5c-16.2-9.6-34-9.7-44.4-6.8c-25,6.9-73.2,25.3-92.8,32.9
	c-47.3,18.3-81,26.9-109.3,27.8c-112.6,3.4-119.9,3.1-160.7,1.1c-4.1-0.2-8.5-0.4-13.4-0.6l0,0c-27.5-1.3-121-17.5-132.6-19.9
	l-1.1-0.3c-21.3-5.2-36.1-14.5-41.9-26.1c-2.8-5.7-3.2-11.8-1.1-16.8c17.2-40.2,3.1-70.9,2.5-72.2l-0.4-0.9l-30.5-41.7
	c-16.2-21.9-38-34.4-63.1-36.2c-25.2-1.7-46.2,7.8-54,11.9c-30.3,16.1-76.9,40.2-122,63.5c-34.7,17.9-67.5,34.9-90.7,47.1
	c-24.7,13-57.7,13-70.1-9.5c-8.4-15.2-10-28.7-4.8-40.1c6.8-15,24.2-23.6,34.2-25.7c17-3.6,48-10.1,63.7-12.9
	c43.5-7.8,77.5-23.3,104-47.5c2.7-2.5,6.2-5.6,9.9-9c12-10.9,27-24.4,35.4-32.8c37.1-37,66.8-47.1,92.9-56.1c2-0.7,3.9-1.3,5.8-2
	c25.1-8.7,58.6-18.5,94.1-29c48.4-14.2,98.4-28.9,130.3-41.7c28.8-11.6,41.6-31.9,47.3-46.8c7.7-20.4,7-44-1.8-61.8
	c-30.4-60.7-93.5-52.1-122.7-39c-80.9,36.2-192.4,83.2-300.3,128.7c-80.3,33.8-156.1,65.8-219.3,93.3c-34.5,15-62.3,34.4-82.6,57.9
	c-17.9,20.7-30.2,44.5-36.6,71c-13.1,54.6,2.1,105.3,12.4,130.6c13.9,34.5,41,66.4,76.3,89.8c33.6,22.3,72,35.5,108.1,37.3
	c117.8,5.7,176.2,5.5,304.2,4.9c107.7-0.5,270.4-1.2,563.8,1.3c3.6,0,7,0,10.3,0c42.5,0,60.6-2.6,80.2-10.9
	C1554.1,666.9,1554.6,632.9,1550.3,614.6z M1494.5,670.5c-18,7.7-35.8,9.7-82.5,9.3c-161.4-1.3-283.3-1.7-378.3-1.7
	c-77.7,0-137.3,0.3-185.7,0.5c-131.5,0.6-185.9,0.8-303.1-4.9C474.8,670.2,403,621,378,559c-15.5-38.3-54.3-168.3,96.3-233.7
	c63.2-27.4,138.9-59.4,219.1-93.2c108-45.5,219.6-92.6,300.7-128.9c11-4.9,29.2-9.3,47.3-6.9c22,2.9,38.6,15.3,49.3,36.6
	c6.3,12.7,6.7,30.7,1,45.7c-4.3,11.2-14,26.5-36.1,35.3c-31,12.5-80.6,27-128.5,41.1c-35.8,10.5-69.5,20.4-95.1,29.3
	c-1.9,0.7-3.8,1.3-5.7,2c-26.8,9.2-60.2,20.6-100.6,60.9c-8,8-22.8,21.4-34.7,32.1c-3.8,3.4-7.3,6.6-10,9.1
	c-23.6,21.5-54.3,35.4-94,42.6c-16,2.9-47.1,9.4-64.3,13.1c-12.9,2.8-37.5,13.7-48.2,37c-5.5,12-9,31.8,5.4,58.1
	c8.5,15.5,23.9,25.5,43.4,28c17.4,2.3,36.4-1.4,53.5-10.4c23.1-12.2,55.9-29.1,90.6-47c45.1-23.3,91.8-47.4,122.2-63.6
	c9.4-5,57.7-27.5,91.5,18.4l29.2,40c1.8,4.4,9.2,26.3-3.1,55.1c-4.4,10.4-3.9,22.6,1.6,33.6c6,12,20.3,28,55,36.6l0,0
	c0.5,0.1,1,0.3,1.6,0.4c0.8,0.2,2,0.4,3.6,0.7c3.1,0.6,7.4,1.4,12.5,2.3c7.1,1.2,21.6,3.8,39.7,6.7c27.6,4.4,63.8,9.9,80.2,10.7
	c4.9,0.2,9.3,0.4,13.3,0.6c41.4,2,48.9,2.4,162.3-1.1c31.1-0.9,65.7-9.6,115.9-29.1c19.3-7.5,66.8-25.6,90.9-32.3
	c7.1-2,18.7-1.3,28.8,4.7c9.2,5.5,15.3,14.2,18,25.8C1535.9,640.8,1523.7,658.1,1494.5,670.5z"/>
</svg>
