<?xml version="1.0" encoding="utf-8"?>
<!-- Generator: Adobe Illustrator 24.0.1, SVG Export Plug-In . SVG Version: 6.00 Build 0)  -->
<svg version="1.1" id="_2000_Short_-_Config" xmlns="http://www.w3.org/2000/svg" xmlns:xlink="http://www.w3.org/1999/xlink"
	 x="0px" y="0px" viewBox="0 0 1920 1080" style="enable-background:new 0 0 1920 1080;" xml:space="preserve">
<style type="text/css">
	.st0{fill:#FFFFFF;}
</style>
<title>active</title>
<path class="st0" d="M1108.6,124.1c-30.4-60.7-93.5-52.1-122.7-39c-80.7,36.1-192.1,83.1-299.8,128.5
	c-80.4,33.9-156.4,66-219.8,93.5c-34.5,15-62.3,34.4-82.6,57.9c-17.9,20.7-30.2,44.5-36.6,71c-13.1,54.6,2.1,105.3,12.4,130.6
	c13.9,34.5,41,66.4,76.3,89.8c33.6,22.3,72,35.5,108.1,37.3l0.2,0c1.8,0,133.7,3.4,238.3,3.4c36.2,0,69.2-0.4,92.3-1.5
	c33.2-1.5,60.2-19.2,76-49.7c19.6-37.9,18.4-89.2-2.8-122.2c-13.7-21.3-49.3-69.1-50.7-71c-16.2-21.9-38-34.4-63.1-36.2
	c-25.2-1.7-46.2,7.8-54,11.9c-30.3,16.1-76.9,40.2-122,63.5c-34.7,17.9-67.5,34.9-90.7,47.1c-24.7,13-57.7,13-70.1-9.5
	c-8.4-15.2-10-28.7-4.8-40.1c6.8-15,24.2-23.6,34.2-25.7c17-3.6,48-10.1,63.7-12.9c43.5-7.8,77.5-23.3,104-47.5
	c2.7-2.5,6.2-5.6,9.9-9c12-10.9,27-24.4,35.4-32.8c37.1-37,66.8-47.1,92.9-56.1c2-0.7,3.9-1.3,5.8-2c25.1-8.7,58.6-18.5,94.1-29
	c48.4-14.2,98.4-28.9,130.3-41.7c28.8-11.6,41.6-31.9,47.3-46.8C1118.1,165.5,1117.4,141.8,1108.6,124.1z M1091.7,178.7
	c-4.3,11.2-14,26.5-36.1,35.3c-31,12.5-80.6,27-128.5,41.1c-35.8,10.5-69.5,20.4-95.1,29.3c-1.9,0.7-3.8,1.3-5.7,2
	c-26.8,9.2-60.2,20.6-100.6,60.9c-8,8-22.8,21.4-34.7,32.1c-3.8,3.4-7.3,6.6-10,9.1c-23.6,21.5-54.3,35.4-94,42.6
	c-16,2.9-47.1,9.4-64.3,13.1c-12.9,2.8-37.5,13.7-48.2,37c-5.5,12-9,31.8,5.4,58.1c8.5,15.5,23.9,25.5,43.4,28
	c17.4,2.3,36.4-1.4,53.5-10.4c23.1-12.2,55.9-29.1,90.6-47c45.1-23.3,91.8-47.4,122.2-63.6c9.4-5,57.7-27.5,91.6,18.5
	c0.4,0.5,36.7,49.3,50,70c17.3,26.8,18,70.8,1.8,102.2c-8.7,16.9-26.1,37.4-59.1,38.9c-88.5,4.1-322.7-1.8-329.1-1.9
	c-70.1-3.4-141.7-52.7-166.7-114.6c-15.5-38.3-54.3-168.3,96.3-233.7c63.3-27.5,139.2-59.5,219.6-93.4
	c107.8-45.4,219.2-92.4,300.2-128.6c11-4.9,29.2-9.3,47.3-6.9c22,2.9,38.6,15.3,49.3,36.6C1097,145.7,1097.4,163.7,1091.7,178.7z"/>
</svg>
