<?xml version="1.0" encoding="utf-8"?>
<!-- Generator: Adobe Illustrator 24.0.1, SVG Export Plug-In . SVG Version: 6.00 Build 0)  -->
<svg version="1.1" id="_1000_Outer_-_Config" xmlns="http://www.w3.org/2000/svg" xmlns:xlink="http://www.w3.org/1999/xlink"
	 x="0px" y="0px" viewBox="0 0 1920 1080" style="enable-background:new 0 0 1920 1080;" xml:space="preserve">
<style type="text/css">
	.st0{fill:#FFFFFF;}
</style>
<title>active</title>
<path class="st0" d="M1518.7,811.9c-8.1-14.1-23.6-36.2-34.6-47.2c-12.6-12.6-24.6-19.3-55-20.6l-0.3,0l-0.3,0
	c-1.5,0-147.6,1-196,0.8c-47-0.2-130.6-0.1-175.3,0.4c-26.3,0.3-67.3,11.9-96,43.4c-23.5,25.8-34.2,60.2-31.1,99.6
	c1.6,19.3,9.1,41.3,22.6,75c11.9,29.9,32,43.9,63.9,43.9c7.1,0,14.8-0.7,23.1-2.1c2.2-0.3,34.5-4.9,45.5-6.2
	c33.2-4,94-14.5,123.4-20.3c42.7-8.5,77.2-18.7,141.9-42.3c34.8-12.7,100.2-38.4,132.5-53.9l0.3-0.2c11-5.3,34-16.3,40.3-36.6
	C1527.1,835,1525.4,823.6,1518.7,811.9z M1504.6,839.8c-3.7,12-21.4,20.4-29.8,24.5l-0.3,0.2c-31.7,15.2-96.3,40.7-130.7,53.2
	c-63.7,23.2-97.4,33.2-139,41.5c-29.1,5.7-89.2,16.2-121.9,20.1c-11.5,1.4-44.6,6-46,6.2l-0.2,0c-41.7,6.9-56.2-6.8-65.3-29.5
	c-12.7-31.9-19.9-52.4-21.2-69.2c-2.7-34.2,6-62.7,25.9-84.5c24.4-26.8,59.1-36.6,81.5-36.9c30.5-0.4,79.2-0.5,122-0.5
	c19.7,0,38.2,0,53,0.1c47.6,0.2,189-0.7,196-0.8c26.1,1.2,33.1,6.4,41.4,14.7c9.4,9.4,24.1,30.2,31.4,43
	C1505.2,828.6,1506.3,834.5,1504.6,839.8z"/>
</svg>
