<?xml version="1.0" encoding="utf-8"?>
<!-- Generator: Adobe Illustrator 24.0.1, SVG Export Plug-In . SVG Version: 6.00 Build 0)  -->
<svg version="1.1" id="_1000_Chicane_-_Config" xmlns="http://www.w3.org/2000/svg" xmlns:xlink="http://www.w3.org/1999/xlink"
	 x="0px" y="0px" viewBox="0 0 1920 1080" style="enable-background:new 0 0 1920 1080;" xml:space="preserve">
<style type="text/css">
	.st0{fill:#FFFFFF;}
</style>
<title>active</title>
<path class="st0" d="M1518.7,811.9c-8.1-14.1-23.6-36.2-34.6-47.2c-13-13-25.6-20.3-55-21.6c-9.6-0.4-24,0.4-37.9,6.6
	c-16.2,7.3-28,20-35.1,37.8c-11.6,29.2-24.7,62.2-88.1,82.6c-7.5,1.9-148.6,37.6-202.7,50.9c-0.9,0.2-1.9,0.5-2.9,0.8
	c-16.4,4.3-25,4.3-29.9-7.5c-2.9-7-6.7-20-9-27.7l-0.5-1.6c-2.2-7.5,1.4-17.9,9.3-26.6c13.9-15.3,36.3-21.7,60.2-17.2
	c11.9,2.2,45.7,7.1,48.7,7.5c3,0.5,32.8,5.3,60.2-4.2c3.6-1.1,39.7-11.7,52.7-15.8c9.3-2.9,22.6-11,29.3-24.1
	c4.9-9.7,5.5-20.7,1.8-32c-7.9-23.7-26.7-26-52.4-26.6c-49.1-1.2-133.5-1.1-175.5-0.6c-26.3,0.3-67.3,11.9-96,43.4
	c-23.5,25.8-34.2,60.2-31.1,99.6c1.5,19.3,9.1,41.3,22.6,75c11.9,29.9,32,43.9,63.9,43.9c7.1,0,14.8-0.7,23.1-2.1
	c2.9-0.4,35.2-4.7,46.6-7.4c12.3-2.9,20.7-5.8,38.4-27.9c3.5-4.4,11.7-12,19.9-12.3c4.9-0.2,9.5,2.1,14.3,7.2
	c8.6,9,23.1,20.3,50,13.8c42.5-10.2,79.9-19.8,141.5-42.2c34.8-12.7,100.2-38.4,132.5-53.9l0.3-0.2c11-5.3,34-16.3,40.3-36.6
	C1527.1,835,1525.4,823.6,1518.7,811.9z M1504.6,839.8c-3.7,12-21.4,20.4-29.8,24.5l-0.3,0.2c-31.7,15.2-96.3,40.7-130.7,53.2
	c-60.8,22.1-96.1,31.2-139.4,41.6c-17.4,4.2-25-2-30.9-8.2c-11.1-11.7-22.3-13.7-29.7-13.4c-18.6,0.8-32.2,16.7-34.7,19.8
	c-14.3,17.9-18.9,19-27.4,20.9c-10.7,2.5-44.5,7-44.8,7l-0.3,0c-41.7,6.9-56.2-6.8-65.3-29.5c-12.7-31.9-19.9-52.4-21.2-69.2
	c-2.7-34.2,6-62.7,25.9-84.5c24.4-26.8,59.1-36.6,81.5-36.9c17.9-0.2,43.5-0.4,70.8-0.4c36.5,0,76,0.3,103.9,0.9
	c29.8,0.7,31.1,4.8,33.9,12.9c2.1,6.3,1.9,11.7-0.6,16.6c-4.3,8.4-14.1,13.1-17.5,14.1c-13.2,4.2-52.2,15.6-52.6,15.7l-0.5,0.2
	c-23.3,8.2-50.2,3.5-50.4,3.5l-0.4-0.1c-0.4-0.1-36.3-5.2-48-7.4c-30.7-5.8-60.1,3-78.7,23.5c-12.8,14.1-17.9,31.2-13.6,45.6
	l0.5,1.6c2.5,8.7,6.4,21.8,9.7,29.7c5.3,12.9,14.9,20.6,27.8,22.2c9.7,1.2,19.3-1.3,25.7-3c0.9-0.2,1.8-0.5,2.6-0.7
	c55.4-13.6,201.7-50.6,203.2-51l0.6-0.2c72.7-23.3,89-64.4,100.9-94.4c11-27.7,35.2-32.6,53.5-31.8c25.3,1.1,32.6,6.7,41.7,15.8
	c9.4,9.4,24.1,30.2,31.4,43C1505.2,828.6,1506.3,834.5,1504.6,839.8z"/>
</svg>
