<svg id="Martinsville_-_Config" data-name="Martinsville - Config" xmlns="http://www.w3.org/2000/svg"
     viewBox="0 0 1920 1080">
    <defs>
        <style>.cls-1{fill:#fff;}</style>
    </defs>
    <title>active</title>
    <path class="cls-1"
          d="M1601.75,408.32c-15.43-29.1-37.19-55.46-64.66-78.34-54.54-45.42-125.56-71.46-194.85-71.46H588.57c-79.32,0-158.08,19.33-216.1,53C296.32,355.78,256.07,423,256.07,506c0,82,40.23,148.85,116.33,193.46,58.6,34.36,137.39,54.06,216.17,54.06h753.67c69.29,0,140.31-26,194.85-71.46,27.47-22.88,49.23-49.24,64.66-78.35,16.58-31.26,25-64.13,25-97.71S1618.33,439.58,1601.75,408.32ZM1342.24,713.55H588.57c-101.17,0-292.5-43.37-292.5-207.52,0-68.91,32.47-122.7,96.49-159.89,52.1-30.27,123.54-47.62,196-47.62h753.67c128,0,244.49,98.91,244.49,207.51S1470.2,713.55,1342.24,713.55Z"/>
</svg>