<?xml version="1.0" encoding="utf-8"?>
<!-- Generator: Adobe Illustrator 24.0.1, SVG Export Plug-In . SVG Version: 6.00 Build 0)  -->
<svg version="1.1" id="Charlotte_Roval_2018_Config"
	 xmlns="http://www.w3.org/2000/svg" xmlns:xlink="http://www.w3.org/1999/xlink" x="0px" y="0px" viewBox="0 0 1920 1080"
	 style="enable-background:new 0 0 1920 1080;" xml:space="preserve">
<style type="text/css">
	.st0{fill:#FFFFFF;}
</style>
<title>active</title>
<path class="st0" d="M839.1,966.1c-31.5,0-51.7-0.1-52.5-0.1c-34.6,0-51-33.8-51.5-57.8c-0.2-9.2-2.8-15.8-7.6-19.6
	c-8.8-6.9-23.8-3.8-24-3.8l-0.7,0.1c-0.6,0.1-62.7,9.9-92.7,13.4c-48.1,5.7-63.2,5.8-85.1,1.1c-107.4-23.5-246.9-88.4-248.3-89
	l-0.3-0.1c-54.7-27.6-108.8-73.9-148.2-127c-23.9-32.1-42.4-66.5-55.2-102.2c-14.4-40.3-21.4-82.4-20.7-125
	c-0.1-5.7-0.6-91.8,47.1-181c28.5-53.3,68.3-96.5,118.3-128.3c62.2-39.6,140.2-61.5,232-65.3c9.9-0.8,179.5-14.9,243.8-7.3
	c12.9,1.5,62.1,11.6,70.1,13.3l75.4-0.6L882.7,63l499.5-6.4c1.2,0,2.5,0,3.7,0c72.5,0,177,9.9,270.4,55.8
	c51.8,25.5,94.8,59.6,127.5,101.3c38,48.4,62.8,107.8,73.9,176.5c1,5.4,15,82-16.9,174.7c-19,55.3-50.5,104.7-93.5,147
	c-53.5,52.5-125,93.9-212.7,122.9l-0.2,0.1c-25.3,8.4-67.6,22.5-110.4-25.6c-14.1-15.8-19.7-26.5-29.4-50.9
	c1.8,6.3,3.3,12.1,4.6,17.1c7.6,30.4,2.5,64.1-13.9,92.7c-20.8,36.2-59,62.8-110.5,77.1c-2.2,0.6-4.5,1.3-7,2
	c-19.3,5.5-45.7,13.1-88.8,14.9C1097.2,965.6,925.8,966.1,839.1,966.1z M711.4,864.1c8.3,0,19.2,1.7,28.4,8.8
	c9.8,7.6,14.9,19.3,15.3,34.9c0.3,12.5,8.4,38.2,31.6,38.2c2.8,0,280.3,0.8,391.7-3.8c40.7-1.7,65.8-8.9,84.1-14.2
	c2.5-0.7,4.9-1.4,7.2-2c46.3-12.8,80.4-36.2,98.5-67.7c19.6-34.2,14.8-65.8,11.8-77.9c-7.6-30.5-26.3-89.5-40-126.3
	c-27.5-73.8-45.3-89.8-71.2-107.2c-17.1-11.5-66.4-23.1-106.8-30c-56.6-9.7-205-45.7-211.3-47.2l-0.8-0.2
	c-36.8-12.5-64.2-40.8-79.2-81.9c-11.1-30.4-11.6-57-11.6-58.1c0-2.8-0.9-69.3,2.8-97.1c3.9-30.3,15.5-52.4,34.2-65.6
	c12.7-8.9,28.2-13.6,47.4-14.1c8.9-0.3,21.7-0.8,35.3-1.4c15-0.7,30.6-1.3,40.8-1.6c91.2-2.4,363.1,1.5,373.5,1.7
	c45.3-1.9,76.4,0.9,97.8,8.8c21.3,7.8,32.3,20.3,42.5,33.4c24.3,31.1,74.1,101.7,88.6,146c10.5,32,2.9,63.3-21.9,90.6
	c-19.9,21.9-46.5,36.4-64.7,42.6c-73.7,25.3-85.5,31.1-108.5,47.1c-58.5,40.7-52.9,81.7-48.4,114.6c0.2,1.4,0.4,2.8,0.6,4.2
	c3.6,26.7,20.1,75.7,29.7,100.4c13.2,33.9,17,41.9,30.5,57c34.1,38.2,65.9,27.6,89.2,19.9l0.2-0.1
	c153.1-50.8,251.8-137.1,293.2-256.5c30.9-89.2,16.6-164.6,16.5-165.4l-0.1-0.4c-44.3-275-300.4-316.9-451.9-316.9
	c-1.3,0-2.5,0-3.8,0L887.9,83l-43.7,23.7l-82.6,0.7l-1-0.2c-0.6-0.1-56.6-11.7-69.5-13.2c-62.8-7.5-238.2,7.2-240,7.4l-0.4,0
	c-159.7,6.5-271.8,67.9-333.3,182.4C71.3,369.6,72.3,455,72.3,455.8l0,0.2l0,0.2c-2.7,179,132.6,295.5,213,336.2
	c5,2.3,140.2,64.8,244,87.6c18.3,4,30.2,4.3,78.5-1.4c28.6-3.4,87-12.5,91.6-13.2C701.1,864.9,705.6,864.1,711.4,864.1z
	 M955.8,450.4c9.1,2.2,155.1,37.5,209.6,46.9c26.4,4.5,90.4,16.8,114.6,33.1c29.3,19.7,49.2,37.3,78.8,116.8
	c0.9,2.4,1.8,4.9,2.8,7.5c-1-4.8-1.8-9.3-2.4-13.4c-0.2-1.3-0.4-2.7-0.6-4.1c-4.7-34.3-11.8-86,56.8-133.8
	c26.3-18.3,41.1-24.8,113.5-49.6c25.5-8.8,94-47.4,74.1-108.1c-12.7-38.7-58-104.9-85.4-140c-16.8-21.5-30-38.5-124-34.5l-0.3,0
	l-0.3,0c-2.8,0-280.9-4.1-372.9-1.7c-10,0.3-25.5,0.9-40.4,1.6c-13.6,0.6-26.5,1.1-35.5,1.4c-23.4,0.7-55.3,7.9-62.4,62.3
	c-3.4,26.4-2.6,93.6-2.6,94.2c0,0.2,0.5,24.8,10.6,52.1C902.6,416.5,924.9,439.8,955.8,450.4z M841.7,96.7L841.7,96.7L841.7,96.7z"
	/>
</svg>
