<?xml version="1.0" encoding="utf-8"?>
<!-- Generator: Adobe Illustrator 24.0.1, SVG Export Plug-In . SVG Version: 6.00 Build 0)  -->
<svg version="1.1" id="Chilibowl_Config" xmlns="http://www.w3.org/2000/svg" xmlns:xlink="http://www.w3.org/1999/xlink" x="0px"
	 y="0px" viewBox="0 0 1920 1080" style="enable-background:new 0 0 1920 1080;" xml:space="preserve">
<style type="text/css">
	.st0{fill:#FFFFFF;}
</style>
<title>active</title>
<path class="st0" d="M959.1,935.2c-87.6,0-168.4-4-228.1-7c-13.2-0.7-25.6-1.3-36.4-1.8c-37.5-1.7-78.5-9.4-118.7-22.3
	c-47.1-15.2-90.3-36.5-128.3-63.4c-97.5-69-152.4-169-158.8-289.3c-1.9-36.8,4.3-77.8,18.1-118.4c14.8-43.6,38.1-85.7,67.4-121.8
	c33.6-41.4,74.5-74.9,121.6-99.6c52.9-27.7,112.7-43.7,177.9-47.6c125.2-7.5,378.4-3.5,512.6,4.9c75.7,4.7,159,38,222.9,88.9
	c58.7,46.8,130.7,131.9,140.9,271.9c1.2,11.8,7.2,92.1-30.6,178.6c-36.5,83.4-121.5,188.2-319.5,213.6h0
	C1121.4,932,1037.5,935.2,959.1,935.2z M1195.1,882.2L1195.1,882.2L1195.1,882.2z M850.8,240.2c-66.7,0-128.3,1.1-172.1,3.8
	c-127.4,7.6-202,68.2-242.2,117.7c-53.7,66.2-70.2,139.2-67.8,185.6c12.3,234,242,295.4,329.5,299.3c11,0.5,23.5,1.1,36.8,1.8
	c110.5,5.5,295.5,14.6,455.1-5.8c129.2-16.5,215.4-72.5,256.4-166.2c30.9-70.8,24.4-138.3,24.3-139l-0.1-1.3
	c-14.1-196.9-184.8-280.7-289-287.2C1099.3,243.7,967.1,240.2,850.8,240.2z"/>
</svg>
