<svg id="Full_-_Config" data-name="Full - Config" xmlns="http://www.w3.org/2000/svg" viewBox="0 0 1920 1080"><defs><style>.cls-1{fill:#fff;}</style></defs><title>active</title><path class="cls-1" d="M1789.77,723.24c-.76-25.34-12.73-58.78-65.45-74.2-30.18-8.83-64.79-9-85.47-9.09-4.1,0-7.64,0-10.4-.11l-1,0-1,.07c-2.06.15-10.36.15-15.32.15-5.16,0-8.47,0-10.55.06L833.09,665.71l-.82.09c-.27,0-28.12,2.54-44-11.59C780,646.81,776,635.67,776,620.14c0-8.41,2.74-14.84,8.64-20.23,21.63-19.77,76.46-19.73,93.94-18.16l.92.06a1085.14,1085.14,0,0,0,146.35-5c106.19-11.16,175.7-37.67,206.63-78.8,35.66-45.4,37.61-89,33-117.68-5.83-35.87-24.27-63.72-39.69-77.93-29.52-28.64-69.66-44-119.28-45.65-43.56-1.44-83.14,8.26-102.85,14.17l-.25.08L129.51,559l-.27.09A178.35,178.35,0,0,0,72.61,594c-36,33.18-49.89,76.23-40.27,124.54.85,6.6,5.55,32.37,29,58.25C76,793,95.23,806,118.35,815.41c27.68,11.22,61.17,17.25,99.55,17.9,16.66.29,42,.8,42.2.81h.3l1411.49-13.06c7.86.4,59.8,1.8,92.27-29.37C1782,774.56,1790.62,751.53,1789.77,723.24Zm-53.21,39.5c-17.85,17.24-51.41,19.1-62.77,18.36l-.8-.05L260.62,794.12c-2.92-.06-26.29-.53-42-.8C84.46,791,72.66,718.36,72,713.44l0-.76-.27-1.33c-16.78-82,66-112.84,70.53-114.47l873.08-287.7c29.07-8.69,126.84-32.3,182.7,22.11l.46.43c21.63,19.77,50.66,80.43,2.39,141.75l-.3.39c-12.51,16.73-36.18,30.87-70.35,42-29.22,9.53-65.6,16.64-108.12,21.13-70.66,7.46-135,5.09-140.45,4.87a285.09,285.09,0,0,0-45.2.33c-35.2,3.09-61.71,12.56-78.78,28.14-14.21,13-21.71,30.18-21.71,49.8,0,27.22,8.66,48.73,25.74,63.94,27.72,24.69,66.58,22.3,74.26,21.55l765.92-25.56c1.52,0,5.46,0,9.28,0,7.93,0,13.62,0,17-.18,3,.07,6.5.08,10.46.1,54.3.25,110,5.73,111.13,44.49C1750.29,741.13,1746,753.66,1736.56,762.74Z"/></svg>