<svg id="Full_-_Config" data-name="Full - Config" xmlns="http://www.w3.org/2000/svg" viewBox="0 0 1920 1080"><defs><style>.cls-1{fill:#fff;}</style></defs><title>active</title><path class="cls-1" d="M1538.76,687.94a91.49,91.49,0,0,0-43.92-60.7c-29.16-17.2-70.85-22.72-123.9-16.39a449.4,449.4,0,0,0-67.43,13.41L886.78,736.88a192,192,0,0,1-80.47,4.66c-56.87-9-63.26-35.09-65-45.12-.85-10.34,2-19.13,9-27.6,28.09-34.16,106.32-48.4,134.06-51l1-.09,1-.15a1039.34,1039.34,0,0,0,111.44-25.33c82.15-23.5,140.19-52.09,172.52-84.95A265.4,265.4,0,0,0,1233,407.9a229,229,0,0,0,12.81-84.39c-1.3-33.57-10.17-67.27-26.35-100.18a225.41,225.41,0,0,0-81.16-89.1,212.39,212.39,0,0,0-84-30.08c-35.18-4.83-73.32-1.59-113.36,9.6a210.84,210.84,0,0,0-94.34,55.77c-11.66,12-21.77,24-30.68,34.68-3.61,4.32-7,8.39-10.09,11.91-20.52,23.56-188.7,255.63-207.81,282L454.91,700.66c-7.52,9.56-59.16,79.16-43.16,166.16,6.88,37.4,29.12,69.93,61,89.25S545.3,985,594.43,985a477.59,477.59,0,0,0,75.63-6.55l.32-.06c108.77-18.75,701.71-125,712.51-126.89A308.61,308.61,0,0,0,1436,836.42c40.21-15.38,69.52-36.37,87.11-62.37C1540.12,748.83,1545.55,719.05,1538.76,687.94Zm-65.34,52.4c-21.71,32.22-80.08,48.48-100.68,52l-.33,0c-6,1.08-602.63,108-712.08,126.82-86.55,13.95-132.87-.18-156.49-14.48A72,72,0,0,1,470.76,856c-11.59-63,29.87-116.4,31.39-118.32l.56-.68,144-203.8C721.09,430.43,836.85,271.81,851,255.52c3.45-4,7-8.25,10.85-12.79,8.24-9.84,17.58-21,27.67-31.36a150.88,150.88,0,0,1,67.5-39.84c58.43-16.33,108.74-11.74,149.54,13.65,36.41,22.65,54.38,55.19,59,64.63,56.43,114.73-21.31,199-37.47,214.75l-.51.51c-50.48,51.58-196.63,84.54-249.88,93.11a439.19,439.19,0,0,0-65.29,12.38c-50.33,13.6-86.82,33.81-108.45,60.07-17.31,21-25,46.15-22.33,72.73l.1,1,.17,1c8.61,51.24,49.45,85.16,115,95.51a251.76,251.76,0,0,0,105.48-6l417-112.72.75-.21c25.7-7.67,107.33-24.67,144.13-3,8.74,5.16,13.61,11.89,15.78,21.82C1483.47,716,1481.34,728.6,1473.42,740.34Z"/></svg>