<?xml version="1.0" encoding="utf-8"?>
<!-- Generator: Adobe Illustrator 24.0.1, SVG Export Plug-In . SVG Version: 6.00 Build 0)  -->
<svg version="1.1" id="Charlotte_Legends_Oval_Config"
	 xmlns="http://www.w3.org/2000/svg" xmlns:xlink="http://www.w3.org/1999/xlink" x="0px" y="0px" viewBox="0 0 1920 1080"
	 style="enable-background:new 0 0 1920 1080;" xml:space="preserve">
<style type="text/css">
	.st0{fill:#FFFFFF;}
</style>
<title>active</title>
<path class="st0" d="M999.8,962.5c-21.5,0-43.3-0.2-64.7-0.3c-31.6-0.2-61.4-0.4-88.3-0.2c-0.3,0-0.7,0-1,0
	c-45.9,0-66.1-34.2-69.5-63.7c-2.1-18.9,3.4-37,15.7-51c10.9-12.4,26.1-20.3,39.7-20.5c66.8-1.2,176.1-1.1,259.9,0.2l0,0
	c17.1,0.2,32,8.4,43.2,23.5c9.6,13,13.9,27.8,14.6,37.2c1.5,18.3-4.6,36.3-17.1,50.5c-11.9,13.4-28.5,22.2-43.4,22.8
	C1061.1,962.1,1030.8,962.5,999.8,962.5z M875.8,941.9c18.9,0,38.8,0.1,59.4,0.3c52.3,0.4,106.4,0.8,152.8-1.1
	c9.5-0.4,21-6.7,29.3-16c6.3-7.1,13.5-19.1,12.2-35.7c-1.1-14.1-13.8-42-38.2-42.3h0c-83.6-1.3-192.6-1.4-259.2-0.2
	c-6.6,0.1-16.9,4.4-25,13.7c-6,6.9-12.8,18.6-10.9,35.5c1.2,10.9,8.5,46.4,50.4,45.9C855.9,941.9,865.7,941.9,875.8,941.9z"/>
</svg>
