<?xml version="1.0" encoding="utf-8"?>
<!-- Generator: Adobe Illustrator 24.0.1, SVG Export Plug-In . SVG Version: 6.00 Build 0)  -->
<svg version="1.1" id="Charlotte_Legends_RC_Long_Config"
	 xmlns="http://www.w3.org/2000/svg" xmlns:xlink="http://www.w3.org/1999/xlink" x="0px" y="0px" viewBox="0 0 1920 1080"
	 style="enable-background:new 0 0 1920 1080;" xml:space="preserve">
<style type="text/css">
	.st0{fill:#FFFFFF;}
</style>
<title>active</title>
<path class="st0" d="M995.1,963.8c-57.9,0-118-0.7-161.7-3.7c-17-1.2-31.6-8.6-42.1-21.5c-14.1-17.4-18.3-41.1-16.2-56.8
	c6.4-46.6,44.8-60.1,66.5-60.6c108.3-2.9,432.2,2.1,442,2.2c9.3-0.2,16.1-2.8,20.3-7.5c6.5-7.4,5.4-18.6,5.4-18.7l-0.1-0.8l0-0.7
	l3.5-101.8c-3.2-63.4-26.1-111.4-68-142.8c-31.5-23.6-62.7-28.6-63-28.7l-0.7-0.1L951,470.8c-77.1-14.7-89.7-111.8-91.8-141.3
	c0,0,0,0,0-0.1H859c0-2.8-0.9-69.3,2.8-97.1c3.9-30.3,15.5-52.4,34.2-65.6c12.7-8.9,28.2-13.6,47.4-14.1c8.9-0.3,21.7-0.8,35.3-1.4
	c15-0.7,30.6-1.3,40.8-1.6l0.2,0l211.2-1.9c2.9-0.2,14.4-0.6,27.7,5.3c13.3,6,31,19.6,39.4,51l0.1,0.6
	c0.3,1.4,27.6,139.9,36.5,185.8c6.2,31.8,23,46.7,53,46.7c0.6,0,1.1,0,1.7,0c15.2-0.3,37-10.1,58.4-26.2c10.6-8,23.6-23.5,25.5-40.8
	c1.3-11.9-3-23.6-12.5-34.5c-7.5-8.6-21.2-20.4-34.5-31.9c-13.3-11.5-27.1-23.3-35.5-32.7c-18.7-20.9-18.7-41.7-15.4-55.5
	c5.9-24.9,26.3-44.8,43.4-51.6c61.8-24.5,92.8,1.1,114.9,29.5c24.3,31.1,74.1,101.7,88.6,146c10.5,32,2.9,63.3-21.9,90.6
	c-19.8,21.7-46.4,36.3-64.6,42.6l-0.8,0.3c-81,28.2-125.6,43.8-138.1,81.7c-6.3,18.9-4.4,40.9,5,58.6c6.3,11.9,18.9,27.6,43.3,34.6
	c55.2,15.9,93.8-20.6,107.8-37.1c10.8-12.6,33.5-47.2,35.5-50.3c22.9-39.5,47.1-62.1,72.1-67.1c19.8-4,35.2,3.8,44.7,11.1
	c19.7,15,29.4,36.3,28.2,61.6c-1.4,30.5-17.9,60-31.5,79.3c-15.9,22.7-36.5,43.5-53.7,54.2c-21.7,13.5-49.8,26.2-76.9,38.4
	c-29.3,13.2-56.9,25.7-73.4,37.6l0,0c-23.4,17-42.4,41.1-60.8,64.4c-18.7,23.7-36.3,46-56.6,57.5c-34.8,19.8-77.8,36.8-103,44.2
	c-64.9,19.2-91.6,21.3-133.1,21.3c-17,0-38,0.1-60.2,0.3C1056.9,963.6,1026.3,963.8,995.1,963.8z M942.2,840.2
	c-40.3,0-75.6,0.3-100,0.9c-4.2,0.1-41.7,2.3-47.3,43.4c-1.6,11.5,2,29.4,11.8,41.5c7,8.6,16.4,13.4,27.9,14.2
	c66.6,4.6,172.1,3.8,249.1,3.3c22.2-0.2,43.2-0.3,60.3-0.3c39.5,0,65-2,127.4-20.5c24.1-7.1,65.3-23.5,98.8-42.4
	c16.8-9.5,33.3-30.4,50.7-52.5c18.3-23.2,39.1-49.6,64.8-68.2c18.2-13.2,46.7-26.1,76.9-39.7c26.6-12,54-24.4,74.6-37.1
	c29.5-18.4,73.8-73.4,75.8-117.5c0.9-18.9-5.8-33.6-20.4-44.7c-9-6.9-18.6-9.4-28.6-7.4c-18.9,3.8-39.2,23.7-58.9,57.7l-0.3,0.5
	c-1,1.6-25.2,38.4-37.2,52.6c-13.6,16-47.1,48.1-95.7,48.1c-10.3,0-21.3-1.4-32.9-4.8c-24.7-7.1-43.9-22.5-55.5-44.5
	c-11.9-22.5-14.2-50.2-6.3-74.2c15.6-47.2,63.5-63.9,150.5-94.3l0.8-0.3c25.5-8.9,93.9-47.8,74.1-108.1
	c-12.7-38.7-58-104.9-85.4-140c-18-23-39.9-43.8-91.8-23.2c-10.3,4.1-26.8,18.4-31.3,37.6c-3.2,13.3,0.5,26,10.9,37.6
	c7.5,8.4,20.8,19.8,33.6,30.9c13.8,11.9,28.1,24.2,36.6,33.9c13.3,15.3,19.2,32.1,17.3,49.8c-2.5,23.7-18.8,43.8-33.3,54.7
	c-11.8,8.9-42.3,29.7-70.1,30.2c-28.4,0.5-64.4-10-74.7-62.9c-8.7-44.8-34.9-177.8-36.4-185.4c-5.1-18.9-14.6-31.5-28.1-37.6
	c-9.6-4.3-17.9-3.6-18-3.6l-0.9,0.1l-211.5,1.9c-10,0.3-25.4,0.9-40.4,1.6c-13.6,0.6-26.5,1.1-35.5,1.4
	c-23.4,0.7-55.3,7.9-62.4,62.3c-3.1,23.5-2.7,79.1-2.6,91.7c0.1,0.5,0.1,1,0.2,1.5c1.8,25.9,12.6,111.2,75.7,123l0.3,0.1l229.9,51.4
	c4.2,0.7,37,6.7,70.9,31.8c20.8,15.4,37.8,35,50.4,58c15.6,28.5,24.5,62.5,26.4,100.9l0,0.4l-3.6,102c0.4,4.3,0.9,20.4-10.1,33.1
	c-8,9.3-19.9,14.2-35.2,14.5l-0.2,0l-0.2,0C1280.9,843.3,1082,840.2,942.2,840.2z M1491.7,767.6L1491.7,767.6L1491.7,767.6z
	 M859.2,329.5c0.8,4.1,4.7,8.2,10.1,8.1c5.2-0.1,8.8-4.1,9.6-8.1L859.2,329.5z"/>
</svg>
