<?xml version="1.0" encoding="utf-8"?>
<!-- Generator: Adobe Illustrator 24.0.1, SVG Export Plug-In . SVG Version: 6.00 Build 0)  -->
<svg version="1.1" id="Charlotte_Legends_RC_Medium_Config"
	 xmlns="http://www.w3.org/2000/svg" xmlns:xlink="http://www.w3.org/1999/xlink" x="0px" y="0px" viewBox="0 0 1920 1080"
	 style="enable-background:new 0 0 1920 1080;" xml:space="preserve">
<style type="text/css">
	.st0{fill:#FFFFFF;}
</style>
<title>active</title>
<path class="st0" d="M1364.6,842.4c-8.2,0-14.9-0.6-18.1-1.2c-30.4-6.3-37.7-32.5-37.3-45.4l3.5-101.8
	c-3.2-63.4-26.1-111.4-68-142.8c-31.5-23.6-62.7-28.6-63.1-28.7l-0.7-0.1L951,470.8c-77.1-14.7-89.7-111.8-91.8-141.3c0,0,0,0,0-0.1
	H859c0-2.8-0.9-69.3,2.8-97.1c3.9-30.3,15.5-52.4,34.2-65.6c12.7-8.9,28.2-13.6,47.4-14.1c8.9-0.3,21.7-0.8,35.3-1.4
	c15-0.7,30.6-1.3,40.8-1.6l0.2,0l211.2-1.9c2.9-0.2,14.4-0.6,27.7,5.3c13.3,6,31,19.6,39.4,51l0.1,0.6
	c0.3,1.4,27.6,139.9,36.5,185.8c6.3,32.4,23.6,47.3,54.7,46.7c15.2-0.3,37-10.1,58.4-26.2c10.6-8,23.6-23.5,25.5-40.8
	c1.3-11.9-3-23.6-12.5-34.5c-7.5-8.6-21.2-20.4-34.5-31.9c-13.3-11.5-27.1-23.3-35.5-32.7c-18.7-20.9-18.7-41.7-15.4-55.5
	c5.9-24.9,26.3-44.8,43.4-51.6c61.8-24.5,92.8,1.1,114.9,29.5c24.3,31.1,74.1,101.7,88.6,146c10.5,32,2.9,63.3-21.9,90.6
	c-19.8,21.7-46.4,36.3-64.6,42.6l-0.8,0.3c-81,28.2-125.6,43.8-138.1,81.7c-6.3,18.9-4.4,40.9,5,58.6c6.3,11.9,18.9,27.6,43.3,34.6
	c9.5,2.7,18.5,3.9,27,3.9c40.8,0,69.2-27.4,80.8-41c10.8-12.6,33.5-47.2,35.5-50.3c22.9-39.5,47.1-62.1,72.1-67.1
	c19.8-4,35.2,3.8,44.7,11.1c19.7,15,29.4,36.3,28.2,61.6c-1.4,30.5-17.9,60-31.5,79.3c-15.9,22.7-36.5,43.5-53.7,54.2
	c-23.2,14.4-53.2,28.3-82.2,41.7c-26.9,12.4-52.4,24.2-68.5,34.7c-18.4,12-32.1,22.6-44.1,32c-12.5,9.7-23.2,18.1-34.8,24.3
	C1403.3,840.2,1380.9,842.4,1364.6,842.4z M1329.2,796.3c0,2.3,0.5,21,21.4,25.3c8.1,1.7,41.7,1.9,58.2-6.9
	c10.1-5.4,19.7-12.9,32-22.4c11.8-9.2,26.4-20.6,45.5-33c17.4-11.3,43.4-23.3,71.1-36.1c28.5-13.1,57.9-26.7,80-40.5
	c29.5-18.4,73.8-73.4,75.8-117.5c0.9-18.9-5.8-33.6-20.4-44.7c-9-6.9-18.6-9.3-28.6-7.4c-18.9,3.8-39.2,23.7-58.9,57.7l-0.3,0.5
	c-1,1.6-25.2,38.4-37.2,52.6c-16.5,19.4-62.2,62.5-128.6,43.4c-24.7-7.1-43.9-22.5-55.5-44.5c-11.9-22.5-14.2-50.2-6.3-74.2
	c15.6-47.2,63.5-63.9,150.5-94.3l0.8-0.3c25.5-8.9,93.9-47.8,74.1-108.1c-12.7-38.7-58-104.9-85.4-140c-18-23-39.9-43.8-91.8-23.2
	c-10.3,4.1-26.8,18.4-31.3,37.6c-3.2,13.3,0.5,26,10.9,37.6c7.5,8.4,20.8,19.8,33.6,30.9c13.8,11.9,28.1,24.2,36.6,33.9
	c13.3,15.3,19.2,32.1,17.3,49.8c-2.5,23.7-18.8,43.8-33.3,54.7c-11.8,8.9-42.3,29.7-70.1,30.2c-28.4,0.5-64.4-10-74.7-62.9
	c-8.7-44.8-34.9-177.8-36.4-185.4c-5.1-18.9-14.6-31.5-28.1-37.6c-9.6-4.3-17.9-3.6-18-3.6l-0.9,0.1l-211.5,1.9
	c-10,0.3-25.4,0.9-40.3,1.6c-13.6,0.6-26.5,1.1-35.5,1.4c-23.4,0.7-55.3,7.9-62.4,62.3c-3.1,23.5-2.7,79.1-2.6,91.7
	c0.1,0.5,0.1,1,0.2,1.5c1.8,25.9,12.6,111.2,75.7,123l0.3,0.1l229.9,51.4c4.2,0.7,37,6.7,70.9,31.8c20.8,15.4,37.8,35,50.4,58
	c15.6,28.5,24.5,62.5,26.4,100.9l0,0.4L1329.2,796.3z M859.2,329.5c0.8,4.1,4.6,8.2,10.1,8.1c5.2-0.1,8.8-4.1,9.6-8.1L859.2,329.5z"
	/>
</svg>
