<?xml version="1.0" encoding="utf-8"?>
<!-- Generator: Adobe Illustrator 24.0.1, SVG Export Plug-In . SVG Version: 6.00 Build 0)  -->
<svg version="1.1" id="Charlotte_Legends_RC_Short_Config"
	 xmlns="http://www.w3.org/2000/svg" xmlns:xlink="http://www.w3.org/1999/xlink" x="0px" y="0px" viewBox="0 0 1920 1080"
	 style="enable-background:new 0 0 1920 1080;" xml:space="preserve">
<style type="text/css">
	.st0{fill:#FFFFFF;}
</style>
<title>active</title>
<path class="st0" d="M1316.3,522.5c-11.3,0-20.2-1.8-26.5-3.7c-9.3-2.8-32.1-14.8-34.6-16.2l-0.3-0.2c-14.4-8.2-24.5-8.4-33.4-8.6
	c-1.4,0-2.8-0.1-4.1-0.1c-13.7-0.6-54.8-2.4-55.2-2.5c-56.4-2.6-149.5-11.1-211-21.5c-35.2-6-62.1-30.9-77.9-72.2
	c-7.7-20-12.7-44.2-14.3-68.2l-0.2,0c0-2.8-0.9-69.3,2.8-97.1c3.9-30.3,15.5-52.4,34.2-65.6c12.7-8.9,28.2-13.6,47.4-14.1
	c8.9-0.3,21.7-0.8,35.3-1.4c15-0.7,30.6-1.3,40.8-1.6l0.2,0l211.2-1.9c2.9-0.2,14.4-0.6,27.7,5.3c13.3,6,31,19.6,39.4,51l0.1,0.6
	c0.3,1.4,27.6,139.9,36.5,185.8c6.3,32.4,23.6,47.2,54.7,46.7c15.2-0.3,37-10.1,58.4-26.2c10.6-8,23.6-23.5,25.5-40.8
	c1.3-11.9-3-23.6-12.5-34.5c-7.5-8.6-21.2-20.4-34.5-31.9c-13.3-11.5-27.1-23.3-35.5-32.7l0,0c-18.7-20.9-18.7-41.7-15.4-55.5
	c5.9-24.9,26.3-44.8,43.4-51.6c61.8-24.5,92.8,1.1,114.9,29.5c24.3,31.1,74.1,101.7,88.6,146c7.9,24.1,5.8,47.7-6.4,70.1
	c-19.5,35.9-59,57.6-80.9,63.4c-69.1,18.3-139.1,35.3-191.9,46.6C1332.8,521.7,1324,522.5,1316.3,522.5z M1264.7,485
	c9.1,4.8,25.4,12.9,31,14.6c6.8,2.1,21.4,4.9,42.8,0.3c52.6-11.2,122.2-28.1,191-46.3c17.8-4.7,52-23.4,68.4-53.6
	c9.4-17.4,11.1-35.6,5-54.3c-12.7-38.7-58-104.9-85.4-140c-18-23-39.9-43.8-91.8-23.2c-10.3,4.1-26.8,18.4-31.3,37.6
	c-3.2,13.3,0.5,26,10.9,37.6l0,0c7.5,8.4,20.8,19.8,33.6,30.9c13.8,11.9,28.1,24.2,36.6,33.9c13.3,15.3,19.2,32.1,17.3,49.8
	c-2.5,23.7-18.8,43.8-33.3,54.7c-11.8,8.9-42.3,29.7-70.1,30.2c-28.4,0.5-64.4-10-74.7-62.9c-8.7-44.8-34.9-177.8-36.4-185.4
	c-11.8-43.7-44.8-41.3-46.2-41.2l-0.5,0l-0.4,0l-211.5,1.9c-10,0.3-25.4,0.9-40.3,1.6c-13.6,0.6-26.5,1.1-35.5,1.4
	c-23.4,0.7-55.3,7.9-62.4,62.3c-3.1,23.5-2.7,79.1-2.6,91.7c0.1,0.4,0.1,0.9,0.1,1.4c1.7,25.9,12.1,111.3,75.5,122.1
	c60.7,10.3,152.8,18.6,208.6,21.2c0.4,0,41.4,1.9,55,2.4c1.2,0,2.4,0.1,3.7,0.1C1232.1,474.1,1246,474.4,1264.7,485z M859.2,329.5
	c0.8,4.1,4.6,8.2,10,8.1c5.2-0.1,8.8-4.1,9.6-8.1L859.2,329.5z"/>
</svg>
