<?xml version="1.0" encoding="utf-8"?>
<!-- Generator: Adobe Illustrator 24.0.1, SVG Export Plug-In . SVG Version: 6.00 Build 0)  -->
<svg version="1.1" id="Charlotte_2018_Oval_Config" xmlns="http://www.w3.org/2000/svg" xmlns:xlink="http://www.w3.org/1999/xlink"
	 x="0px" y="0px" viewBox="0 0 1920 1080" style="enable-background:new 0 0 1920 1080;" xml:space="preserve">
<style type="text/css">
	.st0{fill:#FFFFFF;}
</style>
<title>active</title>
<path class="st0" d="M878.7,967.6c-57.6,0-108.6-0.9-164.8-3.3l-0.5,0l-0.5-0.1c-2.2-0.3-54.8-8-133.9-36.1l-9-3.2
	c-78.2-27.8-223.7-79.4-293.5-114.6c-54.7-27.6-108.8-73.9-148.2-127c-23.9-32.1-42.4-66.5-55.2-102.2
	c-14.4-40.3-21.4-82.4-20.7-125c-0.1-5.7-0.5-90,47.2-178.3c28.5-52.7,68.3-95.8,118.3-127.9c62.1-40,140.2-63,231.9-68.4
	C825,59.2,1079.2,58,1325,56.9c19.1-0.1,38.1-0.2,57.2-0.3c72.7-0.3,179.1,9.1,274.1,55.8c51.8,25.5,94.8,59.6,127.5,101.3
	c38,48.4,62.9,107.9,74,176.6c7.7,47.7,11.1,142.9-52.5,245.5c-27.8,44.9-65.4,85.6-111.6,121c-51.3,39.3-113.7,72.2-185.5,97.8
	c-27.1,9.7-76.5,28.6-124.2,46.9c-40.4,15.5-82.2,31.5-109.4,41.4c-23.5,8.6-42.8,13.7-94.6,21.1l-0.6,0.1l-0.6,0
	c-32.9,0.4-63.1,0.9-91.1,1.3C1003,966.7,937.5,967.6,878.7,967.6z M1178.8,954.2L1178.8,954.2L1178.8,954.2z M715.3,944.4
	c112.8,4.8,205,3.5,372.2,1.1c27.9-0.4,57.9-0.8,90.5-1.3c49.6-7,67.8-11.9,89.9-19.9c27-9.9,68.8-25.9,109.1-41.3
	c47.8-18.3,97.3-37.3,124.6-47c284.6-101.6,359.1-301.8,336.5-442.3C1793.5,116.2,1533.3,76,1382.4,76.7
	c-19.1,0.1-38.2,0.2-57.2,0.3c-245.6,1.1-499.5,2.2-874.2,24.4c-159.6,9.4-271.8,71.7-333.4,185.1c-46.2,85-45.2,168.5-45.2,169.4
	l0,0.2l0,0.2c-2.7,179.1,132.7,295.7,213.2,336.3c68.7,34.6,213.4,86,291.2,113.6l9,3.2C658.9,935.2,709.9,943.5,715.3,944.4z"/>
</svg>
