<svg id="Charlotte_Roval_Long_Config" data-name="Charlotte Roval Long_Config" xmlns="http://www.w3.org/2000/svg" viewBox="0 0 1920 1080"><defs><style>.cls-1{fill:#fff;}</style></defs><path class="cls-1" d="M839.12,966.06c-31.47,0-51.74-.06-52.49-.06-34.59,0-51-33.78-51.52-57.77-.21-9.19-2.74-15.76-7.52-19.51-7.44-5.85-19.9-4.76-24.07-3.85l-.63.12c-.62.1-62.65,9.85-92.72,13.39-48.11,5.66-63.22,5.84-85.09,1.06-107.4-23.53-246.92-88.39-248.31-89.05l-.27-.13c-54.75-27.63-108.78-73.91-148.25-127A392.92,392.92,0,0,1,73.06,581.06,355.25,355.25,0,0,1,52.33,456c-.07-5.47-.34-87.15,47.4-174.82A361.87,361.87,0,0,1,217.67,152.24c61.91-41.41,139.63-67.15,231-76.52A1061.09,1061.09,0,0,1,592.38,71c19.88.76,32.29,9.29,42.27,16.14,8.27,5.69,14.81,10.18,24.35,10.18,15.69,0,32.73-.51,49.21-1,8.38-.26,17-.52,25.54-.71C744.51,95.37,754,90.19,765,84.2,779.85,76.14,796.64,67,821,67c39.44,0,555.92-10.23,561.13-10.33h.15c72.61-.35,179.1,9,274.12,55.74,51.85,25.5,94.75,59.6,127.51,101.35,38,48.4,62.86,107.8,73.95,176.55.82,4.62,14.5,85.33-17.89,180.58a369.43,369.43,0,0,1-93.67,147.79c-53.42,51.74-124.7,90.86-211.84,116.25-27.29,8-48.53,5.66-64.92-7-19.53-15.12-19.5-33.08-17.75-42.44,2.71-14.5,13-27.52,24.59-30.94,87-25.86,145.07-65.06,145.65-65.45l.14-.1c70.76-46.62,83.59-103.35,83.71-103.92l.1-.45c5.69-22.05,4.34-40.42-3.92-53.13a37.22,37.22,0,0,0-24.49-16.4c-35.77-6-47.74,14.68-57.35,31.28-1.09,1.87-2.11,3.64-3.14,5.32-37.16,60.47-50.64,79-74.67,94.51-36.28,23.35-67.93,25.06-88.08,22.37-24.43-3.25-46.37-15.1-58.69-31.71-17.89-24.12-24.87-48.45-20.75-72.32,6.47-37.43,38.16-59.55,40.46-61.11,26.21-18.25,41.09-24.75,113.41-49.55,25.53-8.75,94-47.41,74.07-108.09-12.67-38.68-58-104.89-85.38-140-16.78-21.49-30-38.47-124-34.5l-.28,0h-.29c-2.8,0-280.89-4.11-372.92-1.67-10,.27-25.37.93-40.27,1.58-13.71.59-26.66,1.15-35.69,1.42-23.4.7-55.31,7.92-62.39,62.3-3.44,26.43-2.59,93.57-2.58,94.24a176.6,176.6,0,0,0,10.59,52.08c13,35.26,35.32,58.51,66.21,69.11,9.13,2.21,155.14,37.51,209.56,46.87,26.4,4.53,90.4,16.84,114.56,33.11,29.28,19.72,49.19,37.42,78.78,116.8,13.91,37.3,32.91,97.3,40.67,128.41,7.58,30.37,2.53,64.15-13.85,92.67-20.77,36.16-59,62.81-110.52,77.06-2.21.61-4.53,1.27-7,2-19.27,5.54-45.67,13.14-88.82,14.92C1097.17,965.6,925.75,966.06,839.12,966.06ZM711.43,864.11c8.28,0,19.24,1.67,28.39,8.78,9.78,7.62,14.92,19.35,15.29,34.88.29,12.47,8.39,38.23,31.56,38.23,2.82,0,280.32.83,391.69-3.77,40.75-1.68,65.82-8.9,84.13-14.16q3.78-1.1,7.18-2c46.35-12.82,80.41-36.24,98.5-67.74,19.64-34.2,14.79-65.85,11.79-77.87-7.61-30.53-26.3-89.53-40-126.26-27.5-73.77-45.25-89.71-71.21-107.2-17.12-11.52-66.38-23.05-106.78-30-56.57-9.73-205-45.72-211.33-47.25l-.85-.25C913,457,885.64,428.71,870.61,387.6A193.77,193.77,0,0,1,859,329.46c0-2.81-.87-69.25,2.75-97.08,3.94-30.3,15.47-52.36,34.25-65.58,12.71-8.93,28.2-13.55,47.37-14.13,8.9-.27,21.78-.82,35.43-1.41,15-.65,30.47-1.32,40.6-1.59,91.13-2.42,363.06,1.51,373.46,1.66,45.33-1.9,76.43.89,97.84,8.77s32.27,20.28,42.52,33.41c24.3,31.13,74.09,101.71,88.62,146,10.48,32,2.91,63.35-21.91,90.63-19.91,21.89-46.47,36.37-64.69,42.61-73.67,25.27-85.55,31.09-108.53,47.08l-.14.1c-.25.17-27,18.6-32,48.12-3.09,18.23,2.67,37.35,17.13,56.84,17,22.94,65.46,39.47,119.89,4.44,19.64-12.64,31.15-27.47,68.45-88.16.89-1.46,1.85-3.12,2.87-4.87,10-17.22,28.52-49.26,78-41a56.78,56.78,0,0,1,38,25.22c7.93,12.21,15.49,34,6.57,68.82-1.14,5.21-15.89,66-92.17,116.24-3.41,2.33-61.72,41.49-151.16,68.06-2.94.87-9,6.78-10.63,15.45s1.86,16.38,10.35,22.94c7,5.42,19.48,11.69,47.08,3.64,152.25-44.37,250.55-128.92,292.16-251.28,31-91.16,17.27-169.88,17.13-170.66l0-.2C1793.44,116.13,1533.45,76,1382.45,76.67,1373.29,76.85,860.49,87,821,87c-19.27,0-33.07,7.51-46.41,14.77-12.18,6.63-24.78,13.48-40.38,13.84-8.43.2-17.05.45-25.4.71-16.62.5-33.82,1-49.81,1-15.75,0-26.34-7.27-35.68-13.69-9.06-6.23-17.62-12.11-31.7-12.65a1042,1042,0,0,0-140.93,4.62C291.45,112,179.42,177.34,117.72,290c-46.16,84.27-45.4,165-45.39,165.86v.32c-2.71,179,132.56,295.52,213,336.18,4.94,2.3,140.21,64.84,244,87.57,18.34,4,30.18,4.29,78.47-1.39,28.63-3.36,87-12.5,91.65-13.23A59.44,59.44,0,0,1,711.43,864.11Z"/></svg>