<svg id="Grand_Prix_-_Config" data-name="Grand Prix - Config" xmlns="http://www.w3.org/2000/svg" viewBox="0 0 1920 1080"><defs><style>.cls-1{fill:#fff;}</style></defs><title>active</title><path class="cls-1" d="M1744.63,330.66l-.28-.27c-18.69-20.07-73.54-40.55-163-60.85-80.15-18.18-322.83-67.46-325.34-68-1.94-.38-194.84-38.31-203-39.94l-.9-.18c-39.07-7.71-71.15-21.34-90.33-38.36l-.24-.21c-.56-.47-2.42-2.3-4.06-3.92-12.26-12.11-41-40.46-71.33-49.35l-.38-.11a80.19,80.19,0,0,0-35-1A81.65,81.65,0,0,0,803.62,97l-34.38,41.85C760.8,148.94,748,152,736.75,154.75a116,116,0,0,1-33.9,2.91c-14.45-.83-49.45-2.78-63-3.21-22.86-1.18-39.35-.76-59.24,14.88-7.78,6.11-18.91,18.61-27.85,28.65-4.51,5.06-9.62,10.8-11.28,12.21l-.38.32-.35.36c-14.21,14.7-39.33,24.26-39.51,24.33-6.38,2.34-155.31,56.95-172.63,63.64-47,14.64-159.49,83.54-187.63,102.75-39.15,24.68-49.93,56.56-52.08,79A102.33,102.33,0,0,0,93.94,524c5.32,13.35,129.52,325.13,134.41,337.12,14.3,38.75,40.42,72.31,77.66,99.76a298.68,298.68,0,0,0,66.64,36.74c19.47,7.75,110.25,22.7,137.38,26.14a95.52,95.52,0,0,0,13,.91c17.67,0,33.54-5.18,45.61-15.07,13.75-11.26,21.65-27.49,22.85-46.92a50,50,0,0,0-14.72-39.07c-13.64-13.83-33.25-19.91-43.08-19.91h-.21c-6.59-.49-15.71,1.8-28.16,4.92s-26.4,6.61-39.71,7.77a41.42,41.42,0,0,1-37.12-16.71c-21.56-29.93-4.46-65.36-3.73-66.82l0-.12L678.51,293.53c4.72-9.17,13.4-11.83,23.44-14.9,1.71-.53,3.46-1.06,5.2-1.64,58.93-15.63,111.76-9.82,126.57-7.66a25.43,25.43,0,0,1,11,4.27c4.84,3.42,6.55,7,5.73,12A16.76,16.76,0,0,1,843,296.67c-14.56,9.63-49.63,32.86-62.53,41.64-16.29,9.55-24.66,20.9-24.89,33.74-.36,20,19.74,33.7,22.8,35.66,53.25,36.19,140,96,147.58,103.22l.51.53c33.31,32.43,39.21,75.67,39.26,76.08l0,.31c.5,3.22,12.37,79,15.74,96.37l0,.15c12.13,57.81,54.24,72.63,59.42,74.25l172.92,64.06L1443,907.57c37,14.18,56.8,2.34,68.64-4.74,1.3-.79,2.54-1.52,3.66-2.15,47.59-26.45,75.24-80.74,80-93.83l.22-.69c7-24.6-9.83-41.12-20-46.63-2-1.25-7.07-4-21.56-11.16-5-2.47-5.88-5.06-6.16-5.91-1.06-3.16.16-7,.85-8.51,5-8.15,79.64-128.72,97.73-158.63,13.78-22.79,47.07-59.1,60.74-73.66,4.61-4.9,9.46-9.65,14.42-14.13,1.41-1.28,3-2.63,4.58-4.07,11.53-10.18,27.32-24.11,35.08-40.48C1781.57,400.05,1775.68,360.16,1744.63,330.66Zm-1.49,103.75c-6,12.66-20,25-30.25,34-1.69,1.5-3.29,2.9-4.75,4.22-5.36,4.85-10.6,10-15.58,15.29-17.53,18.65-49,53.46-63.29,77-18.57,30.72-97.09,157.6-97.88,158.88l-.32.56c-.65,1.21-6.17,12.15-2.33,24.09,1.7,5.27,5.92,12.64,16.38,17.8,13.93,6.89,18.28,9.28,19.46,10l.3.25.95.5c1.52.82,14.63,8.45,10.62,23.3-4.39,11.56-29.5,59.9-70.84,82.88-1.41.78-2.78,1.6-4.22,2.46-10.93,6.54-23.32,14-51.26,3.22l-229.28-85-173.2-64.16-.68-.23c-1.45-.43-35.71-11.19-45.82-59.19-3.26-16.79-15-91.78-15.58-95.45s-7.42-51-45.14-87.76h0c-10.51-10.17-98.46-70.4-150.91-106l-.28-.19c-2.92-1.84-13.79-10.38-13.65-18.49.13-6.78,8.37-13,15.27-17l.61-.39c12.55-8.55,47.95-32,62.58-41.67a36.87,36.87,0,0,0,16.19-24.51c2.08-12.56-2.87-23.77-13.92-31.59a45.61,45.61,0,0,0-19.71-7.72c-15.78-2.3-72.16-8.51-134.89,8.2l-.58.18c-1.6.53-3.27,1-5,1.58-12,3.67-26.94,8.25-35.49,25.11l-.07.13L406.84,824.06c-1.67,3.4-22.78,48.17,5.46,87.35a61.53,61.53,0,0,0,55.07,25c14.89-1.3,30.39-5.18,42.85-8.3,8.37-2.1,18.8-4.71,21.85-4.37l.79.09.8,0h.23c3.88,0,18.78,3.94,28.66,14a29.63,29.63,0,0,1,9,23.8c-.84,13.73-6.22,25-15.55,32.68-10.63,8.71-26,12.19-43.3,9.81h-.1c-33-4.19-116.89-18.66-132.55-24.89-38.07-15.16-106-51.56-133-125l-.14-.35c-3.38-8.2-133.09-333.81-134.38-337a83.74,83.74,0,0,1-3.78-34.23c2.52-26.14,17-47.68,43-64l.32-.21c29.24-20,140.63-87.41,182.73-100.36l.68-.24c15.44-6,171-63.06,172.67-63.66,1.19-.44,29.22-11.06,46.63-28.86,2.61-2.31,6.48-6.63,12.88-13.81,8-8.95,18.89-21.22,25.27-26.23,14.05-11,24.79-11.71,46-10.63h.19c13.29.42,48.23,2.37,62.64,3.19a136.08,136.08,0,0,0,39.74-3.43c12.85-3.11,30.45-7.36,43.17-22.54l34.46-41.94a61.56,61.56,0,0,1,35.5-21.57,60,60,0,0,1,26.11.72c25.47,7.55,51.54,33.31,62.69,44.32,2.37,2.35,4,3.93,5.17,4.95,21.82,19.31,57.2,34.56,99.65,42.94l.85.17c8.2,1.64,201.13,39.57,203,39.94,2.43.5,244.9,49.73,324.82,67.87,112.56,25.53,144.15,45.49,152.95,55.11l1,1C1762,374.73,1754.71,410,1743.14,434.41Z"/></svg>