<svg id="International_-_Config" data-name="International - Config" xmlns="http://www.w3.org/2000/svg" viewBox="0 0 1920 1080"><defs><style>.cls-1{fill:#fff;}</style></defs><title>active</title><path class="cls-1" d="M1744.63,330.66l-.28-.27c-18.69-20.07-73.54-40.55-163-60.85-80.15-18.18-322.83-67.46-325.34-68-1.94-.39-194.84-38.31-203-39.95l-120-23.54a55.09,55.09,0,0,0-19.1-2.1c-15.19,1.16-26.15,9.57-30.86,23.69l-.2.7c-6.13,24.13-29.2,116.75-30.45,121.8-.17.57-.82,2.68-1.75,5.12a19.43,19.43,0,0,1-7.54,9.38h0c-14.56,9.63-49.63,32.86-62.53,41.64-16.29,9.55-24.66,20.9-24.89,33.74-.36,20.05,19.77,33.72,22.81,35.66,53.25,36.19,140,96,147.57,103.22l.51.53c33.31,32.43,39.21,75.67,39.26,76.08l0,.31c.5,3.22,12.37,79,15.74,96.37l0,.15c12.13,57.81,54.24,72.63,59.42,74.25l172.92,64.06L1443,907.57c12.63,4.85,23.26,6.65,32.25,6.65,17.34,0,28.6-6.73,36.4-11.39,1.3-.79,2.54-1.52,3.66-2.15,47.59-26.45,75.24-80.74,80-93.83l.22-.69c7-24.6-9.83-41.12-20-46.63-2-1.25-7.07-4-21.56-11.16-5-2.47-5.88-5.06-6.16-5.91-1.06-3.16.16-7,.85-8.51,5-8.17,79.64-128.72,97.73-158.63,13.78-22.79,47.07-59.1,60.74-73.66,4.61-4.9,9.46-9.65,14.42-14.13,1.41-1.28,3-2.63,4.58-4.07,11.53-10.18,27.32-24.11,35.08-40.48C1781.57,400.05,1775.68,360.16,1744.63,330.66Zm-1.49,103.75c-6,12.66-20,25-30.25,34-1.69,1.5-3.29,2.9-4.75,4.22-5.36,4.85-10.6,10-15.58,15.29-17.53,18.65-49,53.46-63.29,77-18.57,30.72-97.09,157.6-97.88,158.88l-.32.56c-.65,1.21-6.17,12.15-2.33,24.09,1.7,5.27,5.91,12.64,16.38,17.8,14.16,7,18.42,9.36,19.52,10l.31.26,1,.5c.61.31,14.7,7.87,10.55,23.26-4.39,11.57-29.51,59.9-70.84,82.88-1.41.78-2.78,1.6-4.22,2.46-10.93,6.54-23.32,14-51.26,3.22l-229.28-85-173.2-64.16-.68-.23c-1.45-.43-35.72-11.19-45.82-59.2-3.26-16.8-15-91.82-15.58-95.44-.51-3.82-7.39-50.79-44.83-87.46-2-2.28-9.16-8.6-78.83-56.73-36.18-25-72-49.37-72.4-49.61l-.25-.17c-3.6-2.31-13.85-10.67-13.68-18.54.15-6.77,8.39-13,15.27-17l.61-.39C804,346.48,839.4,323,854,313.36a39.37,39.37,0,0,0,15.21-19c1.39-3.66,2.27-6.7,2.31-6.83l.09-.35c.24-1,24-96.29,30.38-121.53,2.13-6.08,6.11-9.09,12.85-9.72a35.46,35.46,0,0,1,12.41,1.31l.61.21,121.15,23.76c8.2,1.64,201.13,39.57,203,39.94,2.43.5,244.9,49.73,324.82,67.86,112.56,25.54,144.15,45.5,152.95,55.12l1,1C1762,374.73,1754.71,410,1743.14,434.41Z"/></svg>