<svg id="National_-_Config" data-name="National - Config" xmlns="http://www.w3.org/2000/svg" viewBox="0 0 1920 1080"><defs><style>.cls-1{fill:#fff;}</style></defs><title>active</title><path class="cls-1" d="M523.06,1024.71a95.66,95.66,0,0,1-13-.91c-27.15-3.45-117.9-18.39-137.37-26.14A298.68,298.68,0,0,1,306,960.92c-37.23-27.45-63.36-61-77.66-99.75C223.49,849.25,99.26,537.39,93.94,524a102.33,102.33,0,0,1-5.08-43.49c2.15-22.4,12.94-54.27,52.08-79,28.14-19.2,140.61-88.11,187.63-102.75,17.32-6.69,166.25-61.3,172.63-63.64.18-.07,25.3-9.63,39.51-24.33l.35-.36.38-.32c1.66-1.41,6.77-7.15,11.28-12.21,8.94-10,20.07-22.54,27.85-28.65,19.52-15.34,40.61-16.63,54.89-15a50.31,50.31,0,0,1,31.68,15.82c8.41,9.09,13.3,20.62,14.51,34.28l0,.21c1.43,21.23,3,41.76,3.85,52.11a64.93,64.93,0,0,1-1.19,18.6c-1.66,7.89-3.63,14-5.86,18.27L424.84,832.78l0,.12c-.73,1.46-17.83,36.89,3.73,66.82a41.42,41.42,0,0,0,37.12,16.71c13.31-1.16,27.34-4.67,39.71-7.77s21.58-5.41,28.16-4.92c9.77-.09,29.55,6,43.29,19.91a50,50,0,0,1,14.72,39.07c-1.2,19.43-9.1,35.66-22.85,46.92C556.6,1019.53,540.73,1024.71,523.06,1024.71ZM554.78,225.1c-17.42,17.79-45.44,28.41-46.63,28.85-1.64.6-157.23,57.66-172.67,63.66l-.68.24c-42.1,12.95-153.49,80.37-182.73,100.36l-.32.21c-61.24,38.51-40.13,95.88-39.2,98.3,1.28,3.21,131,328.82,134.37,337l.14.35c27,73.43,94.92,109.83,133,125,15.66,6.23,99.57,20.7,132.55,24.89h.1c17.29,2.38,32.67-1.11,43.3-9.81,9.33-7.65,14.71-18.95,15.55-32.68a29.63,29.63,0,0,0-9-23.8c-10.09-10.23-25.41-14.1-28.89-14l-.8,0-.79-.09c-3.05-.34-13.48,2.27-21.85,4.37-12.46,3.12-28,7-42.85,8.3a61.52,61.52,0,0,1-55.07-25c-28.25-39.19-7.11-84-5.45-87.35L660.6,284.62l.13-.24c.62-1.15,2.26-4.74,4-13.15a45.1,45.1,0,0,0,.82-12.9c-.82-10.38-2.42-30.95-3.86-52.24-.83-9.1-3.94-16.62-9.26-22.37a30.36,30.36,0,0,0-19.13-9.52h-.09c-10.55-1.2-26.12-.29-40.31,10.86-6.38,5-17.3,17.28-25.27,26.23C561.26,218.46,557.39,222.78,554.78,225.1Z"/></svg>