<?xml version="1.0" encoding="utf-8"?>
<!-- Generator: Adobe Illustrator 24.0.1, SVG Export Plug-In . SVG Version: 6.00 Build 0)  -->
<svg version="1.1" id="Fairbury_Config" xmlns="http://www.w3.org/2000/svg" xmlns:xlink="http://www.w3.org/1999/xlink" x="0px"
	 y="0px" viewBox="0 0 1920 1080" style="enable-background:new 0 0 1920 1080;" xml:space="preserve">
<style type="text/css">
	.st0{fill:#FFFFFF;}
</style>
<title>active</title>
<path class="st0" d="M1066.6,983.8c-102.5,0-237.5-1.8-407.9-5.5c-61.3-1.3-117.7-12.9-167.5-34.5c-45.4-19.6-85.4-47.5-118.9-82.8
	c-82.2-86.5-109-199.7-106.6-276.8c2-67.5,19.2-128.6,51.2-181.7c27.7-46.1,66.1-85.6,114.2-117.3c39.9-26.3,85.1-46.5,134.5-60.2
	c41.9-11.6,84.6-17.7,123.5-17.7c42.7,0,92.1-0.5,144.3-1.1c145.2-1.6,309.8-3.3,429.1,4.9c69.2,4.8,131.4,20.9,184.9,47.9
	c47.8,24.2,88.6,56.9,121.1,97.4c27.6,34.3,48.6,73.3,62.6,115.7c11.7,35.7,17.8,72.6,17.7,106.7c-0.3,82.7-17.1,154.5-50,213.2
	c-29.2,52.1-71.1,94.2-124.4,125.2c-92.8,54-199.6,62.9-271.9,65C1165.9,983.3,1120.8,983.8,1066.6,983.8z M1018.1,324.9
	c-61.3,0-124,0.7-183.5,1.3c-52.6,0.6-102.2,1.1-145.6,1.1c-82.2,0-296.9,46.8-303.4,260.5c-1.5,50.5,16.9,130.7,73.7,190.6
	c48.6,51.2,116.6,78.1,201.9,79.9c95,2.1,384,8.3,537.7,4c59.1-1.7,145.8-8.6,214.9-48.8c76.8-44.7,114.4-121.6,114.7-235.1
	c0.1-38.5-13.9-97.3-53.8-146.9c-48.3-60.1-122.5-94-220.7-100.7C1187.3,326.3,1104.1,324.9,1018.1,324.9z"/>
</svg>
