<?xml version="1.0" encoding="utf-8"?>
<!-- Generator: Adobe Illustrator 24.0.1, SVG Export Plug-In . SVG Version: 6.00 Build 0)  -->
<svg version="1.1" id="Barcelona_National_-_Config"
	 xmlns="http://www.w3.org/2000/svg" xmlns:xlink="http://www.w3.org/1999/xlink" x="0px" y="0px" viewBox="0 0 1920 1080"
	 style="enable-background:new 0 0 1920 1080;" xml:space="preserve">
<style type="text/css">
	.st0{fill:#FFFFFF;}
</style>
<title>active</title>
<path class="st0" d="M1795,657.1c-0.8-20.3-4-33.9-17.5-38.9c-7.7-2.8-17.6-3.9-26.3-4.8l-1.2-0.1c-8.3-0.8-8.1-2.9-7.5-9.2
	c3.5-38.7,7.6-86.6,8.9-114.2c1.9-40.6-22.2-55.9-36.7-61.4c-29.9-11.3-105.1-39.3-158.5-54.2c-32.2-9-55.2-1-68.8,7.3
	c-18.1,11-31.4,29.5-35.5,49.5c-6,28.9,0.1,53.3,18.1,72.6c16.1,17.3,38.4,26.3,54.2,30.9c19.9,5.6,32.9,15.7,35.4,22.7
	c2.4,6.9,5.4,15.1,8.6,23.8c11,29.9,24.7,67.2,30.1,92.3c1.3,5.9,1.8,13.7-2.7,17c-5.3,3.9-15.1,2.4-18.1,0.7
	c-66.4-38.3-143.7-85.6-225.5-135.7c-104.7-64.1-213-130.3-301.8-179.6c-61.5-34.1-121.7-4.1-144.8,28.2
	c-20.4,28.5-47.6,67.3-73.8,104.9c-18.6,26.6-36.1,51.7-50,71.3c-28.6,40.4-27.1,68.3-25.9,90.8c0.2,3.3,0.3,6.4,0.4,9.4v0
	c0.4,16.6-3.2,28.9-10.5,36.6c-9.2,9.6-23.4,11.1-36,11.3c-16.6,0.3-34.1,0-51.1-0.3c-16.7-0.3-33.9-0.6-49.6-0.3
	c-37.9,0.7-56.6,27.2-58.4,53.2c-1.2,17.5,5.5,35.4,18.3,49.1c10.5,11.2,23.4,17.9,34.5,17.9c0,0,0.1,0,0.1,0
	c489-1.8,1034.7,4.1,1043.7,4.1c2.2,0.1,4.3,0.1,6.4,0.1c45.7,0,81.3-11.9,105.9-35.3c27-25.7,33.5-58.3,34.2-81.1
	c0.1-4.1,0.3-8.8,0.5-14C1794.7,702.4,1795.7,676.1,1795,657.1z M1774,720.9c-0.2,5.2-0.4,10-0.5,14.2c-0.9,30-15,99.6-126.1,97
	l-0.1,0c-4.8-0.1-419.4-4.5-850.2-4.5c-64.7,0-129.8,0.1-193.9,0.3c0,0,0,0,0,0c-4.4,0-12.5-3.6-19.9-11.6c-9.1-9.7-13.8-22.1-13-34
	c0.4-5.7,4.1-33.9,38.8-34.5c15.4-0.3,31.7,0,48.9,0.3c17.2,0.3,34.9,0.6,51.8,0.3c15.8-0.3,35.7-2.5,50.1-17.5
	c11.1-11.6,16.5-28.7,16-50.9c-0.1-3.3-0.3-6.7-0.4-10c-1.1-21.4-2.3-43.5,22.3-78.2c13.9-19.7,31.5-44.8,50.1-71.4
	c26.2-37.5,53.4-76.4,73.7-104.7c14.8-20.6,63.2-53.2,118.8-22.3c88.5,49.1,196.5,115.2,301.1,179.2c82,50.1,159.4,97.5,226,135.9
	c8.4,4.9,26.9,7.6,39.8-1.8c7.3-5.3,15.1-16.2,10.5-37.4c-5.7-26.5-19.7-64.5-30.9-95c-3.2-8.6-6.2-16.7-8.6-23.5
	c-6.2-17.6-29.3-29.8-48.8-35.3c-26.3-7.5-68.9-27.9-58.1-80.2c2.3-11.3,10.5-26.8,26.3-36.5c14.7-8.9,33-10.7,53-5.1
	c52.6,14.7,127.1,42.4,156.8,53.7c16.8,6.3,24.8,20.4,23.8,41.7c-1.3,27.2-5.4,74.9-8.9,113.3c-2.1,23.1,12.6,29.5,25.4,30.8
	l1.2,0.1c7.2,0.7,16.1,1.6,21.4,3.6c0.7,0.3,1,0.4,1.6,1.8c1,2.4,2.4,7.6,2.8,19.1C1775.7,676.1,1774.7,702,1774,720.9z"/>
</svg>
