<?xml version="1.0" encoding="utf-8"?>
<!-- Generator: Adobe Illustrator 24.0.1, SVG Export Plug-In . SVG Version: 6.00 Build 0)  -->
<svg version="1.1" id="Barcelona_Club_-_Config" xmlns="http://www.w3.org/2000/svg" xmlns:xlink="http://www.w3.org/1999/xlink"
	 x="0px" y="0px" viewBox="0 0 1920 1080" style="enable-background:new 0 0 1920 1080;" xml:space="preserve">
<style type="text/css">
	.st0{fill:#FFFFFF;}
</style>
<title>active</title>
<path class="st0" d="M692.4,368.6c-15.8-22.5-43.8-33.5-64.4-34.3c-50.4-2.1-130.3-2-200.9-1.8c-27,0.1-52.5,0.1-74,0
	c-0.4,0-0.7,0-1.1,0c-76.6,0-136.5,30-153.1,39.2c-27.8,15.4-49.8,34.9-65.4,57.8c-13.9,20.4-22.5,43.1-25.6,67.5
	c-6.7,52.8,14.2,99,37.8,121.4c36.5,34.6,81,50.7,113.5,62.4c7.7,2.8,14.4,5.2,20.1,7.6c49.6,20.4,50.6,54.8,46.8,73.5
	c-5.6,27.1-2.3,48.4,9.9,63.4c15,18.5,39,21.5,52,21.5c2,0,24.8,0.5,45.7,0.5c11,0,21.6-0.1,28.1-0.5c37.2-2.1,50-31.7,49.8-56.5
	c0-5,0-12.2,0.1-19.7c0.1-12.2,0.2-24.8-0.1-33c-1-27.1-26.2-42-41.2-50.9c-2.1-1.2-4-2.4-5.6-3.4l-3.5-2.2
	c-32.5-20.6-66.2-41.9-126.5-90.9c-9.8-8-20.5-20.5-15.5-35c4.4-12.9,20.2-23.2,36-23.6c30-0.7,73.6-0.1,115.8,0.5
	c35,0.5,68.1,1,93.2,0.7c41.6-0.4,72-15.9,90.1-28.7c22.4-15.9,39-36.9,45.5-57.7C711.8,407.8,702.4,382.8,692.4,368.6z
	 M680.7,440.2c-5.1,16.4-19.4,34.1-38,47.3c-15.8,11.2-42.3,24.7-78.8,25.1c-24.9,0.3-57.8-0.2-92.7-0.7
	c-42.4-0.6-86.2-1.2-116.6-0.5c-24.4,0.6-47.3,16.2-54.5,37.2c-6.7,19.6,1.3,40.4,21.8,57c61.3,49.7,95.4,71.3,128.4,92.2l3.5,2.2
	c1.9,1.2,4,2.4,6.2,3.7c13,7.7,30.8,18.2,31.4,34.4c0.3,7.7,0.2,20.7,0.1,32.1c-0.1,7.6-0.1,14.8-0.1,20.1
	c0.1,10.4-2.7,34.7-30.9,36.3c-18.5,1-71.9,0-72.4,0l-0.1,0c-9.4-0.1-26.7-2-36.6-14.1c-8.2-10.1-10.1-25.8-5.8-46.8
	c4.1-19.9,6.5-69.1-58.7-96c-6.1-2.5-13.3-5.1-20.9-7.9c-30.8-11.1-73-26.4-106.5-58.1c-19.3-18.3-37.5-58.8-31.8-104.4
	c4-32.1,21.4-77.3,80.8-110.3c15.5-8.6,71.6-36.7,143.4-36.7c0.3,0,0.7,0,1,0c21.6,0.1,47.1,0,74.1,0c70.4-0.1,150.1-0.3,200,1.8
	c15.2,0.6,37,9,48.9,25.8C686.8,395.4,688.4,415.6,680.7,440.2z"/>
</svg>
