<?xml version="1.0" encoding="utf-8"?>
<!-- Generator: Adobe Illustrator 24.0.1, SVG Export Plug-In . SVG Version: 6.00 Build 0)  -->
<svg version="1.1" id="Barcelona_Moto_-_Config" xmlns="http://www.w3.org/2000/svg" xmlns:xlink="http://www.w3.org/1999/xlink"
	 x="0px" y="0px" viewBox="0 0 1920 1080" style="enable-background:new 0 0 1920 1080;" xml:space="preserve">
<style type="text/css">
	.st0{fill:#FFFFFF;}
</style>
<title>active</title>
<path class="st0" d="M1780,559.7l-2.2-0.4c-9-1.7-22.7-4.2-30.7-5c-0.1,0-0.2,0-0.3,0c-0.4-0.9-0.8-3.1-0.3-8.6
	c1.8-18.8,4.9-54.8,4.9-55.2l0-0.4c1.9-40.6-22.2-55.9-36.7-61.4c-29.9-11.3-105.2-39.3-158.5-54.2c-32.2-9-55.2-1-68.8,7.3
	c-18.1,11-31.4,29.5-35.5,49.5c-6,28.9,0.1,53.3,18.1,72.6c16.1,17.3,38.4,26.3,54.2,30.9c19.9,5.6,32.9,15.7,35.4,22.7
	c2.4,6.9,5.4,15.1,8.6,23.8c11,29.9,24.7,67.2,30.1,92.3c1.9,8.6,0.9,14.3-2.7,17c-5.3,3.9-15.1,2.4-18.1,0.7
	c-66.4-38.3-143.7-85.6-225.5-135.7c-104.7-64-213-130.3-301.8-179.6c-61.5-34.1-121.7-4.1-144.8,28.2
	c-20.4,28.5-47.6,67.3-73.9,104.9c-18.6,26.6-36.1,51.7-50,71.3c-27.9,39.4-26.8,66.9-25.8,89c0.2,3.8,0.3,7.5,0.3,11
	c-0.1,41.6-24.9,47.4-51.7,47.5c-38,0.1-90.8-1.2-120.3-3c-61.7-3.7-84.6-18.8-108.8-34.7c-3.5-2.3-7.1-4.7-10.8-7
	c-32.6-20.4-66.3-41.4-130-93.1c-9.8-8-20.5-20.5-15.5-35.1c4.4-12.9,20.2-23.2,36-23.6c30-0.7,73.6-0.1,115.8,0.5
	c35,0.5,68.1,1,93.2,0.7c41.6-0.4,72-15.9,90.1-28.7c22.4-15.9,39-36.9,45.5-57.7c12-38.4,2.6-63.4-7.4-77.6
	c-15.8-22.5-43.8-33.5-64.4-34.3c-50.4-2.1-130.4-2-200.9-1.8c-27,0.1-52.5,0.1-74,0c-0.4,0-0.7,0-1.1,0
	c-76.6,0-136.5,30-153.1,39.2c-27.8,15.4-49.8,34.9-65.4,57.8c-13.9,20.4-22.5,43.1-25.6,67.5c-6.7,52.8,14.2,99,37.8,121.4
	c36.5,34.6,81,50.7,113.5,62.4c7.7,2.8,14.4,5.2,20.1,7.6c49.6,20.4,50.6,54.8,46.8,73.5c-5.6,27.1-2.3,48.4,9.9,63.4
	c15.1,18.6,39.1,21.5,52,21.5c126.2,0.7,276.7,0.7,436.1,0.6c301.3-0.1,612.8-0.3,823,4.8c2.2,0.1,4.3,0.1,6.5,0.1
	c45.7,0,81.3-11.9,105.9-35.3c27-25.7,33.5-58.3,34.2-81.1l0,0c0-1,3-101.3,3.6-142.3C1797.2,583.5,1797.5,563,1780,559.7z
	 M1777.1,593.1c-0.6,40.9-3.5,141-3.5,142c-0.9,30-15.1,99.6-126.1,97c-176.4-4.2-423.9-4.8-676.9-4.8c-48.8,0-97.9,0-146.6,0
	c-159.3,0.1-309.8,0.1-436-0.6c-9.4-0.1-26.7-2-36.6-14.1c-8.2-10.1-10.1-25.8-5.8-46.8c4.1-19.9,6.5-69.1-58.7-96
	c-6.1-2.5-13.3-5.1-20.9-7.9c-30.8-11.1-73-26.4-106.5-58.1c-19.3-18.3-37.5-58.8-31.8-104.4c4-32.1,21.4-77.3,80.8-110.3
	c15.6-8.7,72.1-37,144.4-36.7c21.6,0.1,47.1,0,74.1,0c70.4-0.1,150.1-0.3,200,1.8c15.2,0.6,37,9,48.9,25.9
	c10.8,15.3,12.3,35.6,4.7,60.2c-5.1,16.4-19.4,34.1-38,47.3c-15.8,11.2-42.3,24.7-78.8,25.1c-24.9,0.3-57.8-0.2-92.7-0.7
	c-42.4-0.6-86.2-1.2-116.6-0.5c-24.4,0.6-47.3,16.2-54.5,37.2c-6.7,19.6,1.3,40.4,21.8,57c64.6,52.4,98.9,73.8,132,94.5
	c3.5,2.2,6.8,4.4,10.4,6.7c25.3,16.6,51.6,33.8,118.6,37.9c29.8,1.8,83.2,3.1,121.5,3c12.9,0,29.4-1.2,43.7-9.5
	c18.4-10.8,27.8-30.3,27.9-57.9c0-3.9-0.2-8-0.3-11.8c-0.9-21.1-1.8-42.8,22.2-76.6c13.9-19.7,31.5-44.8,50.1-71.4
	c26.2-37.5,53.4-76.4,73.7-104.7c14.8-20.6,63.2-53.2,118.8-22.3c88.5,49.1,196.5,115.2,301.1,179.2c82,50.1,159.4,97.5,226,136
	c8.4,4.9,26.9,7.6,39.8-1.8c7.3-5.3,15.1-16.2,10.5-37.4c-5.7-26.5-19.7-64.5-30.9-95c-3.2-8.6-6.2-16.7-8.6-23.5
	c-6.2-17.6-29.3-29.8-48.8-35.3c-26.3-7.5-68.9-27.9-58.1-80.2c2.3-11.3,10.5-26.8,26.3-36.5c14.7-8.9,33-10.7,53-5.1
	c52.6,14.7,127.1,42.4,156.8,53.7c16.7,6.3,24.7,20.3,23.8,41.5c-0.3,2.9-3.2,36.9-4.9,54.9c-0.3,3.2-0.9,9,0.6,14.8
	c2.3,9,8.8,14.7,17.8,15.6c7.3,0.8,21,3.3,29.2,4.8l1.7,0.3C1776.3,580.5,1777.2,584,1777.1,593.1z"/>
</svg>
