<?xml version="1.0" encoding="utf-8"?>
<!-- Generator: Adobe Illustrator 24.0.1, SVG Export Plug-In . SVG Version: 6.00 Build 0)  -->
<svg version="1.1" id="Barcelona_Historic_-_Config"
	 xmlns="http://www.w3.org/2000/svg" xmlns:xlink="http://www.w3.org/1999/xlink" x="0px" y="0px" viewBox="0 0 1920 1080"
	 style="enable-background:new 0 0 1920 1080;" xml:space="preserve">
<style type="text/css">
	.st0{fill:#FFFFFF;}
</style>
<title>active</title>
<path class="st0" d="M1796.4,524.1c-2.3-24.6-12.2-45.9-29.4-63.3c-11.7-11.9-26.9-21.9-46.3-30.8c-1.3-0.6-146.9-57.2-183.7-57.2
	c-0.3,0-0.5,0-0.8,0c-43.5,1-64.3,21-74.1,37.6c-15.4,26.1-13.2,60.4-3.3,79.5c16.8,32.5,58.8,44.3,86.5,52.1
	c4.1,1.2,8,2.2,11.3,3.3c70.6,21.8,105,63.3,102.1,123.3c-0.8,17.6-5.9,30-15.1,36.7c-12.2,8.9-27.9,5.7-32.4,4.5
	c-6-1.6-21.6-10.2-33.5-17.4c-37.3-22.8-75.9-46.5-113.3-69.4c-142.6-87.5-290-178-414.2-247c-61.5-34.1-121.7-4.1-144.8,28.2
	c-20.4,28.5-47.6,67.3-73.9,104.9c-18.6,26.6-36.1,51.7-50,71.3c-27.9,39.4-26.8,66.9-25.8,89c0.2,3.8,0.3,7.5,0.3,11
	c-0.1,41.6-24.9,47.4-51.7,47.5c-38,0.1-90.8-1.2-120.3-3c-61.7-3.7-84.6-18.8-108.8-34.7c-3.5-2.3-7.1-4.7-10.8-7
	c-32.6-20.4-66.3-41.4-130-93.1c-9.8-8-20.5-20.5-15.5-35.1c4.4-12.9,20.2-23.2,36-23.6c30-0.7,73.6-0.1,115.8,0.5
	c35,0.5,68.1,1,93.2,0.7c41.6-0.4,72-15.9,90.1-28.7c22.4-15.9,39-36.9,45.5-57.7c12-38.4,2.6-63.4-7.4-77.6
	c-15.8-22.5-43.8-33.5-64.4-34.3c-50.4-2.1-130.4-2-200.9-1.8c-27,0.1-52.5,0.1-74,0c-0.4,0-0.7,0-1.1,0
	c-76.6,0-136.5,30-153.1,39.2c-27.8,15.4-49.8,34.9-65.4,57.8c-13.9,20.4-22.5,43.1-25.6,67.5c-6.7,52.8,14.2,99,37.8,121.4
	c36.5,34.6,81,50.7,113.5,62.4c7.7,2.8,14.4,5.2,20.1,7.6c49.6,20.4,50.6,54.8,46.8,73.5c-5.6,27.1-2.3,48.4,9.9,63.4
	c15.1,18.6,39.1,21.5,52,21.5c126.2,0.7,276.7,0.7,436.1,0.6c301.3-0.1,612.8-0.3,823,4.8c2.2,0.1,4.3,0.1,6.5,0.1
	c45.7,0,81.3-11.9,105.9-35.3c27-25.7,33.5-58.3,34.2-81.1c0-1,3-101.3,3.6-142.3C1797.1,590.8,1798.1,541.4,1796.4,524.1z
	 M1777.1,593L1777.1,593c-0.6,41-3.5,141.1-3.5,142.1c-0.9,29.5-14.5,97.1-120,97.1c-2,0-4,0-6.1-0.1
	c-176.4-4.2-423.9-4.8-676.9-4.8c-48.8,0-97.9,0-146.6,0c-159.3,0.1-309.8,0.1-436-0.6c-9.4-0.1-26.7-2-36.6-14.1
	c-8.2-10.1-10.1-25.8-5.8-46.8c4.1-19.9,6.5-69.1-58.7-96c-6.1-2.5-13.3-5.1-20.9-7.9c-30.8-11.1-73-26.4-106.5-58.1
	c-19.3-18.3-37.5-58.8-31.8-104.4c4-32.1,21.4-77.3,80.8-110.3c15.5-8.6,71.6-36.7,143.4-36.7c0.3,0,0.7,0,1,0
	c21.6,0.1,47.1,0,74.1,0c70.4-0.1,150.1-0.3,200,1.8c15.2,0.6,37,9,48.9,25.9c10.8,15.3,12.3,35.6,4.7,60.2
	c-5.1,16.4-19.4,34.1-38,47.3c-15.8,11.2-42.3,24.7-78.8,25.1c-24.9,0.3-57.8-0.2-92.7-0.7c-42.4-0.6-86.2-1.2-116.6-0.5
	c-24.4,0.6-47.3,16.2-54.5,37.2c-6.7,19.6,1.3,40.4,21.8,57c64.6,52.4,98.9,73.8,132,94.5c3.5,2.2,6.8,4.4,10.4,6.7
	c25.3,16.6,51.6,33.8,118.6,37.9c29.8,1.8,83.2,3.1,121.5,3c12.9,0,29.4-1.2,43.7-9.5c18.4-10.8,27.8-30.3,27.9-57.9
	c0-3.9-0.2-8-0.3-11.8c-0.9-21.1-1.8-42.8,22.2-76.6c13.9-19.7,31.5-44.8,50.1-71.4c26.2-37.6,53.4-76.4,73.7-104.7
	c14.8-20.6,63.2-53.2,118.8-22.3c123.8,68.8,271.1,159.1,413.5,246.6c37.4,22.9,76,46.7,113.3,69.4c6.4,3.9,28,16.8,38.8,19.7
	c6.7,1.8,30,6.4,49.3-7.7c14.3-10.5,22.1-27.9,23.2-51.9c1.4-29.2-4.9-55-18.7-76.9c-18.9-29.9-51.7-52.3-97.5-66.4
	c-3.6-1.1-7.6-2.2-11.8-3.4c-24.4-6.9-61.3-17.2-74.1-42c-6.4-12.3-9.7-39,2.8-60.1c10.5-17.8,29.8-27.1,57.3-27.8
	c0.2,0,0.4,0,0.6,0c29,0,160.2,49.1,175.3,55.4c25.5,11.6,59.7,32.3,64,77.7C1778.1,542.2,1777.1,592.4,1777.1,593z"/>
</svg>
