<?xml version="1.0" encoding="utf-8"?>
<!-- Generator: Adobe Illustrator 24.0.1, SVG Export Plug-In . SVG Version: 6.00 Build 0)  -->
<svg version="1.1" id="Charlotte_Roval_2019" xmlns="http://www.w3.org/2000/svg" xmlns:xlink="http://www.w3.org/1999/xlink"
	 x="0px" y="0px" viewBox="0 0 1920 1080" style="enable-background:new 0 0 1920 1080;" xml:space="preserve">
<style type="text/css">
	.st0{fill:#FFFFFF;}
</style>
<title>active</title>
<path class="st0" d="M1857.8,390.2c-11.1-68.7-36-128.1-73.9-176.5c-32.8-41.7-75.7-75.8-127.5-101.3
	c-95-46.7-201.5-56.1-274.2-55.8c-3,0-304.9,2.7-484.3,9.3h0c-29.1,1.1-47.2,26.3-56.9,39.9c-1,1.4-1.9,2.7-2.8,3.8
	c-19.1,25.5-41.2,17.1-70.4,2.5c-6.5-3.2-12.6-6.3-18.2-8.3c-40-14.2-65-16.2-81.5-17.6c-3.7-0.3-6.8-0.6-9.6-0.9
	C594,77.2,455.9,81.2,450,81.3l-0.1,0c-91.9,3.7-170,25.7-232.2,65.3c-50,31.9-89.8,75-118.3,128.3c-47.7,89.3-47.1,175.3-47.1,181
	c-0.6,42.7,6.4,84.8,20.7,125c12.8,35.7,31.3,70.1,55.2,102.2c39.5,53.1,93.5,99.4,148.2,127l0.3,0.1c1.4,0.7,140.9,65.5,248.3,89
	c21.9,4.8,37,4.6,85.1-1.1c30.1-3.5,92.1-13.3,92.7-13.4l0.7-0.1c0.1,0,15.1-3.1,24,3.8c4.8,3.7,7.4,10.3,7.6,19.6
	c0.6,24,16.9,57.8,51.5,57.8c0.7,0,21,0.1,52.5,0.1c86.6,0,258-0.5,340.1-3.9c43.1-1.8,69.5-9.4,88.8-14.9c2.5-0.7,4.8-1.4,7-2
	c51.5-14.3,89.7-40.9,110.5-77.1c16.4-28.5,21.4-62.3,13.9-92.7c-1.3-5-2.8-10.8-4.6-17.1c9.7,24.3,15.3,35,29.4,50.9
	c42.8,48,85.1,34,110.4,25.6l0.2-0.1c87.6-29.1,159.2-70.4,212.7-122.9c43-42.2,74.5-91.7,93.5-147
	C1872.8,472.2,1858.9,395.6,1857.8,390.2z M1821.7,559.3c-41.4,119.4-140.1,205.7-293.2,256.5l-0.2,0.1
	c-23.3,7.7-55.1,18.3-89.2-19.9c-13.5-15.1-17.3-23.1-30.5-57c-9.6-24.6-26.2-73.7-29.7-100.4c-0.2-1.4-0.4-2.8-0.6-4.2
	c-4.5-32.9-10.1-73.9,48.4-114.6c23-16,34.9-21.8,108.5-47.1c18.2-6.2,44.8-20.7,64.7-42.6c24.8-27.3,32.4-58.6,21.9-90.6
	c-14.5-44.4-64.3-114.9-88.6-146c-10.3-13.1-21.2-25.6-42.5-33.4c-21.4-7.9-52.5-10.7-97.8-8.8c-10.3-0.2-282.3-4.1-373.5-1.7
	c-10.2,0.3-25.7,0.9-40.8,1.6c-13.6,0.6-26.4,1.1-35.3,1.4c-19.2,0.6-34.7,5.2-47.4,14.1c-18.8,13.2-30.3,35.3-34.2,65.6
	c-3.6,27.8-2.8,94.3-2.8,97.1c0,1.1,0.5,27.7,11.6,58.1c15,41.1,42.4,69.4,79.2,81.9l0.8,0.2c6.3,1.5,154.8,37.5,211.3,47.2
	c40.4,6.9,89.7,18.5,106.8,30c25.9,17.4,43.7,33.4,71.2,107.2c13.7,36.7,32.4,95.7,40,126.3c3,12,7.8,43.7-11.8,77.9
	c-18.1,31.5-52.2,54.9-98.5,67.7c-2.3,0.6-4.7,1.3-7.2,2c-18.3,5.3-43.4,12.5-84.1,14.2c-111.4,4.6-388.9,3.8-391.7,3.8
	c-23.2,0-31.3-25.8-31.6-38.2c-0.4-15.5-5.5-27.3-15.3-34.9c-9.1-7.1-20.1-8.8-28.4-8.8c-5.9,0-10.4,0.8-12,1.2
	c-4.7,0.7-63,9.9-91.6,13.2c-48.3,5.7-60.1,5.4-78.5,1.4c-103.7-22.7-238.9-85.2-244-87.6c-80.5-40.7-215.7-157.1-213-336.2l0-0.2
	l0-0.2c0-0.9-1-86.2,45.1-172.1c61.5-114.5,173.6-175.9,333.3-182.4c3.8-0.1,142.9-4,205.4,3.9c3.2,0.4,6.6,0.7,10.5,1
	c15.5,1.3,39,3.2,76.5,16.5c4.5,1.6,10.1,4.4,16,7.3c13.3,6.7,28.5,14.2,44.7,15.7c20.2,1.9,37.2-6.3,50.6-24.2
	c0.9-1.2,1.9-2.6,3-4.1c8.3-11.5,22.1-30.8,41.4-31.5c179.1-6.6,480.7-9.3,483.7-9.3c151-0.7,411.1,39.5,455.8,316.9l0.1,0.4
	C1838.3,394.7,1852.7,470.1,1821.7,559.3z M1358.5,637.2c0.2,1.4,0.4,2.8,0.6,4.1c0.5,4,1.3,8.5,2.4,13.4c-0.9-2.6-1.9-5.1-2.8-7.5
	c-29.6-79.5-49.5-97.1-78.8-116.8c-24.1-16.3-88.2-28.6-114.6-33.1c-54.4-9.4-200.4-44.7-209.6-46.9c-30.9-10.6-53.2-33.9-66.2-69.1
	C879.5,354,879,329.4,879,329.2c0-0.7-0.8-67.8,2.6-94.2c7.1-54.4,39-61.6,62.4-62.3c9-0.3,21.9-0.8,35.5-1.4
	c15-0.6,30.4-1.3,40.4-1.6c92.1-2.4,370.1,1.6,372.9,1.7l0.3,0l0.3,0c94-4,107.3,13,124,34.5c27.4,35,72.7,101.2,85.4,140
	c19.9,60.7-48.5,99.3-74.1,108.1c-72.4,24.8-87.2,31.3-113.5,49.6C1346.7,551.2,1353.8,603,1358.5,637.2z"/>
</svg>
