<?xml version="1.0" encoding="utf-8"?>
<!-- Generator: Adobe Illustrator 24.0.1, SVG Export Plug-In . SVG Version: 6.00 Build 0)  -->
<svg version="1.1" id="lernerville__Config" xmlns="http://www.w3.org/2000/svg" xmlns:xlink="http://www.w3.org/1999/xlink"
	 x="0px" y="0px" viewBox="0 0 1920 1080" style="enable-background:new 0 0 1920 1080;" xml:space="preserve">
<style type="text/css">
	.st0{fill:#FFFFFF;}
</style>
<title>active</title>
<path class="st0" d="M1676.3,487.1c-1.3-69-28.9-129.4-79.8-174.7c-37.6-33.4-87.4-57.4-133.3-64.2c-89.7-13.2-189.6-20.4-289-20.9
	c-81.4-0.4-159.9,3.6-221.1,11.4c-86.1,10.9-157.1,45.1-205.3,98.8c-42.6,47.5-64.6,108.3-60.2,166.8c5.6,74.6,41.4,133,103.4,168.9
	c52.3,30.3,106.4,35.1,121.8,35.8h0c136.6,6.6,313.1,10.9,435.9,10.9c17.9,0,34.6-0.1,49.9-0.3c96-1.2,169.3-27.1,217.7-77.1
	c25.2-26,42.9-57.7,52.4-94.2C1675.9,521.2,1676.5,498.3,1676.3,487.1z M1573.3,600.7c-36.9,38.1-95.9,57.9-175.3,58.9
	c-119.5,1.5-326.8-3.1-482.2-10.5c-16.1-0.8-157.8-11.6-168.2-149.3c-6.5-85.9,64.7-182.7,213.2-201.5
	c115-14.5,312.3-17.3,493.8,9.4c26.8,3.9,67.7,19,102.1,49.6c38.6,34.4,58.7,78.4,59.7,131.1
	C1616.6,503.9,1614.4,558.2,1573.3,600.7z"/>
</svg>
