<?xml version="1.0" encoding="utf-8"?>
<!-- Generator: Adobe Illustrator 24.0.1, SVG Export Plug-In . SVG Version: 6.00 Build 0)  -->
<svg version="1.1" id="Lime_Rock_Classic_-_Config" xmlns="http://www.w3.org/2000/svg" xmlns:xlink="http://www.w3.org/1999/xlink"
	 x="0px" y="0px" viewBox="0 0 1920 1080" style="enable-background:new 0 0 1920 1080;" xml:space="preserve">
<style type="text/css">
	.st0{fill:#FFFFFF;}
</style>
<title>active</title>
<path class="st0" d="M1604.8,394.3L1604.8,394.3c-1.2-1-115.8-96.5-152.4-129.2l-0.2-0.1c-4.4-3.8-109.1-93.2-141.7-116.5
	c-1.7-1.2-41.8-29.8-60.7-38.9c-64.8-31.1-122,1.8-143.5,14.2c-8.3,4.8-19.2,11.2-30.8,18c-18.8,11.1-38.2,22.5-50.9,29.5
	C958.3,208,908.9,230.1,864.4,243c-8.1,2.3-21.2,5.2-33.9,8c-9.5,2.1-18.5,4.1-24.9,5.7c-43.4,11.3-71.7,38.1-92.4,57.6
	c-2.6,2.5-5,4.8-7.4,6.9c-24.3,22.4-71.9,69.6-94.3,96.5c-44.6,53.6-19.2,100.5-4,128.5c1.1,2.1,2.2,4.1,3.3,6.1
	c2.2,4.1,5,9.2,7.9,14.6c9,16.4,21.4,39,25.6,51.9c16.2,49.7-8,73.2-27.4,92.1l-1.2,1.1c-25.5,24.9-77.3,29.7-105.8,26.9
	c-20.7-2-46.8-5.5-72.1-8.8c-4.5-0.6-8.9-1.2-13.3-1.7c-13.6-1.8-24.8-3.4-33.7-4.6c-25.4-3.6-38.1-5.4-56.2-4.3
	c-36.8,2.2-64.9,17.3-83.5,44.8c-29.9,44.3-25.2,108.5-15.2,138.6c12.1,36.3,35.3,63.6,68.9,81.3c32.5,17.1,64.9,20,81.4,20.2
	c65.9,0.8,180.1,0.3,271.8-0.1c29.6-0.1,56.5-0.2,78.1-0.3c60.6-0.1,154.3,0.7,244.8,1.5c72.1,0.6,140.2,1.2,188.9,1.3l25.5,0.1
	c17.9,0,33.7,0.1,47.8,0.1c67.8,0,96.8-0.9,140.4-6.2c36.7-4.5,69.7-20.1,97.9-46.3c18.6-17.3,35.1-39.1,50.5-66.8
	c14.1-25.3,31.3-71.1,42.7-101.4c2-5.3,3.8-10.2,5.5-14.5c22.8-59.8,61.3-170.6,76.7-223.9C1673.6,489.7,1656.1,438.1,1604.8,394.3z
	 M1637.6,542.2c-15.3,52.8-53.5,162.9-76.2,222.3c-1.6,4.3-3.5,9.3-5.5,14.6c-11.2,29.7-28,74.7-41.4,98.7
	c-34.8,62.5-78.4,96.2-133.4,102.9c-51.4,6.3-82.5,6.2-185.7,6l-25.5-0.1c-48.7-0.1-116.7-0.7-188.8-1.3
	c-83.7-0.7-170.1-1.5-230.6-1.5c-5,0-9.8,0-14.4,0c-21.6,0-48.5,0.2-78.1,0.3c-91.7,0.4-205.7,0.8-271.5,0.1
	c-17.1-0.2-104-5.3-131.5-87.8c-9.5-28.4-11.8-84.8,12.8-121.1c14.9-22,37.8-34.2,68.1-36c16-1,27.3,0.6,52.1,4.2
	c9,1.3,20.2,2.9,34,4.7c4.4,0.6,8.9,1.2,13.3,1.7c25.5,3.3,51.8,6.8,72.8,8.9c5.2,0.5,11.4,0.8,18.1,0.8c31.7,0,76.7-7,103.6-33.3
	l1.2-1.1c19.7-19.1,52.6-51.1,32.5-112.7c-4.8-14.7-17.2-37.2-27.1-55.3c-2.9-5.3-5.7-10.3-7.8-14.3c-1.1-2-2.2-4.1-3.4-6.3
	c-14.4-26.6-34.2-63,1.8-106.2c20-24,64.7-69.1,92.4-94.6c2.4-2.3,4.9-4.6,7.6-7.1c20.2-19.1,45.3-42.8,83.7-52.8
	c6.1-1.6,14.9-3.5,24.2-5.5c13-2.9,26.5-5.8,35.2-8.3c45.9-13.3,96.6-35.9,164.3-73.3c12.9-7.1,32.4-18.6,51.3-29.7
	c11.5-6.8,22.3-13.1,30.6-17.9c32.4-18.7,75.9-37.1,124.9-13.5c12.9,6.2,41.6,25.6,57.8,37.1l0,0c31.5,22.5,136.8,112.4,140.3,115.3
	c36.7,32.7,149.8,126.9,152.7,129.4C1637.3,448.3,1652.2,491.7,1637.6,542.2z"/>
</svg>
