<?xml version="1.0" encoding="utf-8"?>
<!-- Generator: Adobe Illustrator 24.0.1, SVG Export Plug-In . SVG Version: 6.00 Build 0)  -->
<svg version="1.1" id="Lime_Rock_West_Bend_Chicane_-_Config"
	 xmlns="http://www.w3.org/2000/svg" xmlns:xlink="http://www.w3.org/1999/xlink" x="0px" y="0px" viewBox="0 0 1920 1080"
	 style="enable-background:new 0 0 1920 1080;" xml:space="preserve">
<style type="text/css">
	.st0{fill:#FFFFFF;}
</style>
<title>active</title>
<path class="st0" d="M1706.2,516.7c-1.5-23.5-11.2-32.9-18.3-39.8c-0.6-0.5-1.1-1.1-1.7-1.6c-4.9-4.9-11-11.1-17.4-17.6
	c-21-21.4-47.2-48.1-64.1-62.4c-10.6-9-23.6-20-37.4-31.7c-39-33-87.6-74-115-98.5l-0.2-0.1c-4.4-3.8-109.1-93.2-141.7-116.5
	c-1.7-1.2-41.8-29.8-60.7-38.9c-64.8-31.1-122,1.8-143.5,14.2c-8.3,4.8-19.2,11.2-30.8,18c-18.8,11.1-38.2,22.5-50.9,29.5
	C958.3,208,908.9,230.1,864.4,243c-7.9,2.3-20.9,5.1-33.3,7.9c-9.8,2.1-19,4.1-25.5,5.8c-43.4,11.3-71.7,38-92.3,57.5
	c-2.6,2.5-5.1,4.8-7.5,7c-24.2,22.3-71.8,69.5-94.3,96.5c-44.6,53.6-19.2,100.5-4,128.5c1.1,2.1,2.2,4.1,3.3,6.1
	c2.2,4.1,5,9.2,7.9,14.6c9,16.4,21.4,39,25.6,51.8c16.2,49.7-8,73.2-27.4,92.1l-1.2,1.1c-25.5,24.9-77.3,29.7-105.8,26.9
	c-20.7-2-46.8-5.5-72.1-8.8c-4.5-0.6-8.9-1.2-13.3-1.7c-13.6-1.8-24.8-3.4-33.7-4.6c-25.4-3.6-38.1-5.4-56.2-4.3
	c-36.8,2.2-64.9,17.3-83.5,44.8c-29.9,44.3-25.2,108.5-15.2,138.6c12.1,36.3,35.3,63.6,68.9,81.3c32.5,17.1,64.9,20,81.4,20.2
	c66.2,0.7,180.7,0.3,272.7-0.1c29.2-0.1,55.8-0.2,77.2-0.3c60.3-0.1,153.4,0.7,243.5,1.5c72.6,0.6,141.2,1.2,190.3,1.3l25.5,0.1
	c17.9,0,33.7,0.1,47.8,0.1c67.8,0,96.8-0.9,140.4-6.2c36.8-4.5,69.7-20.1,97.9-46.3c18.6-17.3,35.1-39.1,50.5-66.8
	c16.3-29.4,38.9-86.9,49.2-116.2c7.3-20.7,16.9-46.5,26.1-71.4c11.5-31,22.3-60.2,29.2-80.2c5.6-16.5,22.3-19.4,31.7-19.6
	c33.2-0.8,36.5-28.3,37.5-37.3c0.1-1,0.2-2,0.3-2.5C1708,549.8,1707.2,533.1,1706.2,516.7z M1686.3,556.8c-0.2,1.1-0.4,2.4-0.5,3.7
	c-1.4,11.3-3.5,19.4-18.1,19.7c-11.8,0.3-40.2,4.1-50.1,33.1c-6.7,19.8-17.5,48.9-29,79.7c-9.3,25-18.9,50.8-26.2,71.7l0,0
	c-10.9,30.8-33,86.3-47.9,113.1c-34.8,62.5-78.4,96.2-133.4,102.9c-51.4,6.3-82.5,6.2-185.7,6l-25.5-0.1
	c-49-0.1-117.5-0.7-190.1-1.3c-83.9-0.7-170.5-1.5-230.8-1.5c-4.4,0-8.7,0-12.8,0c-21.4,0-48,0.2-77.2,0.3
	c-92,0.4-206.4,0.8-272.4,0.1c-17.1-0.2-104-5.3-131.5-87.8c-9.5-28.4-11.8-84.8,12.8-121.1c14.9-22,37.8-34.1,68.1-36
	c16-1,27.3,0.6,52.1,4.2c9,1.3,20.2,2.9,34,4.7c4.4,0.6,8.9,1.2,13.3,1.7c25.5,3.3,51.8,6.8,72.8,8.9c29.8,2.9,89-0.6,121.7-32.5
	l1.2-1.1c19.7-19.1,52.6-51.1,32.5-112.7c-4.8-14.7-17.2-37.2-27.1-55.3c-2.9-5.3-5.7-10.3-7.8-14.3c-1.1-2-2.2-4.1-3.4-6.3
	c-14.4-26.6-34.2-63,1.8-106.2c20.1-24.1,64.8-69.2,92.4-94.6c2.5-2.3,5-4.7,7.7-7.2c20.1-19,45.2-42.7,83.6-52.7
	c6.2-1.6,15.2-3.6,24.8-5.7c12.8-2.8,26-5.7,34.6-8.2c45.9-13.3,96.6-35.9,164.3-73.3c12.9-7.1,32.4-18.6,51.3-29.7
	c11.5-6.8,22.4-13.2,30.6-17.9c32.4-18.7,75.9-37.1,124.9-13.5c12.9,6.2,41.6,25.6,57.8,37.1c31.5,22.5,136.9,112.5,140.2,115.3
	c27.6,24.6,76.2,65.7,115.3,98.7c13.8,11.7,26.8,22.7,37.4,31.6c16.2,13.8,42,40.1,62.8,61.2c6.4,6.5,12.5,12.7,17.5,17.7
	c0.6,0.6,1.2,1.2,1.8,1.8c6,5.9,11.2,11,12.3,26.8C1686.8,526.7,1688.1,547.1,1686.3,556.8z"/>
</svg>
