<?xml version="1.0" encoding="utf-8"?>
<!-- Generator: Adobe Illustrator 24.0.1, SVG Export Plug-In . SVG Version: 6.00 Build 0)  -->
<svg version="1.1" id="Oval_-_Config" xmlns="http://www.w3.org/2000/svg" xmlns:xlink="http://www.w3.org/1999/xlink" x="0px"
	 y="0px" viewBox="0 0 1920 1080" style="enable-background:new 0 0 1920 1080;" xml:space="preserve">
<style type="text/css">
	.st0{fill:#FFFFFF;}
</style>
<title>active</title>
<path class="st0" d="M1753,443.6c-3.2-61.5-19.2-117.7-47.5-167c-24.8-43.3-59-81-101.6-112.3c-36.9-27.1-78.8-48.5-124.6-63.7
	c-40-13.2-80.8-20.9-118-22.1c-117.5-3.8-311.4-4.1-482.5-4.3c-89.1-0.1-173.2-0.2-235.1-0.8c-59-0.6-172.8,7.2-272.4,66.2
	C320.9,169.6,280.4,209,251.1,257c-34,55.5-53.4,123-57.8,200.8v0c-0.7,13-2.5,82,34.6,162.4c18.9,40.8,44.8,78,77.1,110.4
	c38.8,39,87.1,71.4,143.6,96.4c57.1,25.2,170.2,64.7,255.1,93.3c52.2,17.6,62.1,18.1,75.8,18.8l2.4,0.1c46,2.5,114.9,3.5,183.4,3.5
	c67.3,0,134.4-0.9,179.2-2.3c42.2-1.2,61.2-3.6,81.1-10.3c68-22.7,189.4-64.1,239.2-86.7c61.2-27.8,113.2-59.4,154.5-93.7
	c37.5-31.1,67.4-65.5,88.9-102.2C1742.9,588.4,1757.1,523.6,1753,443.6z M1456.4,825.2c-49,22.3-169.7,63.4-237.3,86
	c-17.8,5.9-35.4,8.1-75.4,9.3c-90,2.6-270.4,3.7-360.9-1.2c-0.8,0-1.7-0.1-2.5-0.1c-12.1-0.6-20.8-1.1-70.4-17.8
	c-84.5-28.5-197-67.7-253.4-92.7C356.8,764.5,285.9,698.3,246,611.7c-35.1-76-33.5-140.7-32.8-152.8l0,0
	C232.6,116,547.5,92.5,643.6,93.4c62,0.6,146.1,0.7,235.3,0.8c170.9,0.2,364.7,0.5,481.9,4.3C1497.9,103,1720.4,201,1733,444.6
	C1739,560.5,1713,708.5,1456.4,825.2z"/>
</svg>
