<?xml version="1.0" encoding="utf-8"?>
<!-- Generator: Adobe Illustrator 24.0.1, SVG Export Plug-In . SVG Version: 6.00 Build 0)  -->
<svg version="1.1" id="lankebanen_Rally_Cross__Config"
	 xmlns="http://www.w3.org/2000/svg" xmlns:xlink="http://www.w3.org/1999/xlink" x="0px" y="0px" viewBox="0 0 1920 1080"
	 style="enable-background:new 0 0 1920 1080;" xml:space="preserve">
<style type="text/css">
	.st0{fill:#FFFFFF;}
</style>
<title>active</title>
<path class="st0" d="M1453.1,736.2c-6.9-31.5-23.7-53.5-49.9-65.5c-17.2-7.9-37.9-11-61.4-9.3c-15.3,1.1-38.1,3.3-60.1,5.4
	c-17.2,1.7-35,3.4-49,4.6c-82.9,7-99-27.5-130.9-96.3l-7.5-16.1c-43.8-94.1-61.9-133.1-89.3-175.8c-33.2-51.7-67.1-84.4-99.9-116
	c-7.8-7.5-15.8-15.2-23.7-23.1c-19.3-19.3-58.2-54.3-84.6-76.9c-68.3-58.6-115.8-48.5-143.6-29.8c-27.5,18.5-46.1,64.1-21.9,120.5
	c18.7,43.6,65.5,151.1,96.3,206.7c17.4,31.4,41.1,54,70.6,67.1c38.9,17.3,76.9,26.9,104.6,34c4.1,1,7.9,2,11.5,2.9
	c41.4,10.8,59.8,37.7,59.3,58.2c-0.9,37.6-37.6,48-59.5,50.8l-0.8,0.1c-6.3,1.4-153.9,33.6-199,46.5c-2.3,0.6-15.8,4.2-30.2,13.9
	c-20.8,14.1-34,34.3-38.1,58.5c-1.5,9.2-6.2,37.2,5.5,67.9l0,0c11.3,29.5,45.4,65.2,143.9,67.9c19.6,0.5,40.9,0.7,61.9,0.7
	c24.7,0,49-0.3,69.1-0.5h2.1c4.7,0,9.8-0.1,15.3-0.1c22.8-0.1,51.1-0.3,70.7-1.3c0.5,0,1.1-0.1,1.6-0.1c0.4,0,0.8,0.1,1.2,0.1h323.9
	c5.5,0,10-4.5,10-10s-4.5-10-10-10h-248.5c4.8-1.8,9.8-3.6,14.9-5.4c29.4-10.8,62.8-23,83.4-29.5c67-21.2,108.6-27.5,145.3-33.2
	c17.8-2.7,34.6-5.3,51.9-9.3c37.3-8.7,53.4-28.9,60.4-44.4C1458.1,768.5,1455.5,747.1,1453.1,736.2z M1383.6,814.5
	c-16.5,3.8-32.2,6.2-50.4,9c-35.6,5.4-79.8,12.2-148.3,33.9c-21.1,6.7-54.6,19-84.2,29.8c-14.9,5.5-29,10.6-39.5,14.3l-0.2,0.1
	c-15.3,5.7-31.2,9-47.5,9.9c-19.1,1-47.2,1.2-69.8,1.3c-5.5,0-10.7,0.1-15.3,0.1l-2.2,0c-37.1,0.4-88,0.9-130.3-0.3
	c-69.2-1.9-112.7-20.9-125.8-55c-9.8-25.6-5.8-49.6-4.5-57.5c7.5-45,51.5-55.9,53.4-56.3l0.5-0.1c43-12.4,188.7-44.3,197.5-46.2
	c12.4-1.7,30.2-5.7,45.7-15.6c19.6-12.5,30.2-31.4,30.7-54.5c0.6-28.1-22.3-64.5-74.3-78c-3.6-0.9-7.5-1.9-11.6-3
	c-27-6.8-64.1-16.2-101.4-32.8c-25.4-11.3-46-31-61.3-58.5c-30.3-54.8-76.8-161.5-95.4-204.9c-19.7-45.9-6.2-82,14.7-96
	c40-26.9,87,0.6,119.5,28.4c26.1,22.4,64.5,56.9,83.5,75.9c8.1,8,16.2,15.8,24,23.4c33.4,32.2,65,62.6,96.9,112.4
	c26.7,41.6,43.4,77.5,88,173.4l7.5,16.1c30,64.5,50.6,108.7,129.8,108.7c6.6,0,13.5-0.3,21-0.9c14.2-1.2,32-2.9,49.2-4.6
	c21.9-2.1,44.6-4.3,59.7-5.4c34.7-2.5,78.5,5.7,90.2,59.1C1437.5,758.4,1440.5,801.3,1383.6,814.5z"/>
</svg>
