<?xml version="1.0" encoding="utf-8"?>
<!-- Generator: Adobe Illustrator 24.0.1, SVG Export Plug-In . SVG Version: 6.00 Build 0)  -->
<svg version="1.1" id="lankebanen_Club__Config" xmlns="http://www.w3.org/2000/svg" xmlns:xlink="http://www.w3.org/1999/xlink"
	 x="0px" y="0px" viewBox="0 0 1920 1080" style="enable-background:new 0 0 1920 1080;" xml:space="preserve">
<style type="text/css">
	.st0{fill:#FFFFFF;}
</style>
<title>active</title>
<path class="st0" d="M1453.1,736.2c-6.9-31.4-23.6-53.6-49.7-66c-16.9-8-37.5-11.6-61.2-10.8l-0.4,0l-110.6,12.7l-0.2,0
	c-34.3,4.6-64-4.5-88-27c-17.1-16.1-26.3-34.7-28-39.1l-0.2-0.4c-33.7-88.6-96.4-199.6-97-200.7l-0.1-0.1
	c-44.9-76.5-92.1-133.9-140.4-170.5c-25.8-19.5-53.9-30.9-81.5-32.8c-24.3-1.7-46.9,4-63.6,16.1c-24.5,17.7-39.4,46-43.2,82
	c-3.6,34.3,3.7,64.9,6,73.4c6.9,25.3,20.3,70.8,32.4,91.8c18.3,31.7,42,54.2,70.5,67c38.3,17.1,76,26.7,103.5,33.6
	c4.5,1.1,8.7,2.2,12.6,3.2c16.4,4.3,31.8,13.3,43.3,25.4c10.3,10.7,16.2,23,16,32.8c-0.8,34.5-30.9,45.6-60.2,52
	c-0.7,0.1-75.1,14.5-348.7-5.5c-14.7-1.1-50.3-1.1-63.7,21.5c-9.4,15.8-5.1,37.8,12.7,65.4c29.2,45.4,69.7,87.5,120.2,125.1
	c39.2,29.2,84.2,44.2,137.7,46c21.7,0.7,40.8,1.2,61.5,1.2c25.6,0,53.8-0.7,92.7-2.4c28.6-1.2,48.6-19.8,48.6-45
	c0.1-35.9,5.9-58,16.7-63.8c14.5-7.8,29.4-6.2,45.7,5c4.3,3,9.1,6.5,14.2,10.2c16.8,12.4,37.8,27.7,67.1,41.4l0.7,0.3l0.7,0.2
	c27.1,8.1,43.6,4.4,62.7,0.2c2.5-0.6,5.1-1.1,7.8-1.7l18.3-3.9c98.6-20.7,131.8-27.7,179.8-38.9c37.3-8.7,53.4-28.9,60.4-44.4
	C1458.1,768.4,1455.5,747.1,1453.1,736.2z M1383.6,814.5c-47.8,11.1-80.9,18.1-179.4,38.8l-18.3,3.9c-2.8,0.6-5.4,1.2-8,1.7
	c-18.2,4-30.3,6.7-52,0.4c-27.1-12.8-47-27.4-63-39.1c-5.2-3.8-10.1-7.4-14.7-10.6c-22.4-15.3-45.4-17.4-66.5-6
	c-18.4,10-27.1,35.8-27.2,81.4c0,17.6-15.9,24.5-29.5,25.1c-69.6,3-104.7,2.8-152.7,1.2h0c-49.3-1.6-90.6-15.4-126.4-42
	c-48.6-36.2-87.4-76.6-115.3-119.9c-13-20.1-17.3-35.9-12.3-44.4c5.3-9,21.8-12,36.9-12c2.8,0,5.5,0.1,8.2,0.3
	c277.9,20.3,351.2,5.8,354.3,5.1c9.3-2,28.8-6.2,45.2-16.7c19.9-12.8,30.3-31,30.9-54.3c0.3-15.2-7.5-32.3-21.5-47
	c-14-14.7-32.8-25.7-52.7-30.9c-3.9-1-8.2-2.1-12.7-3.3c-26.8-6.8-63.5-16.1-100.2-32.5c-24.6-11-45.2-30.7-61.3-58.7
	c-11.4-19.8-25.1-67.5-30.5-87.1c-9.5-34.9-14-102.4,29.6-133.9c24.6-17.7,73-20.2,121.3,16.4c46.2,35,91.7,90.3,135.2,164.6
	c1.8,3.1,62.9,111.6,95.7,197.9l0,0c1.5,3.8,10.6,25.4,32,45.9c17.2,16.5,45.4,34.7,86.1,34.7c6.2,0,12.6-0.4,19.3-1.3l109.7-12.6
	c50.6-1.7,80.9,18.8,90.2,61.1C1437.5,758.3,1440.5,801.3,1383.6,814.5z"/>
</svg>
