<?xml version="1.0" encoding="utf-8"?>
<!-- Generator: Adobe Illustrator 24.0.1, SVG Export Plug-In . SVG Version: 6.00 Build 0)  -->
<svg version="1.1" id="lankebanen_Short__Config" xmlns="http://www.w3.org/2000/svg" xmlns:xlink="http://www.w3.org/1999/xlink"
	 x="0px" y="0px" viewBox="0 0 1920 1080" style="enable-background:new 0 0 1920 1080;" xml:space="preserve">
<style type="text/css">
	.st0{fill:#FFFFFF;}
</style>
<title>active</title>
<path class="st0" d="M1453.1,736.3c-6.9-31.5-23.7-53.5-49.9-65.5c-17.2-7.9-37.9-11-61.4-9.3c-14.9,1.1-36.9,3.2-58.3,5.3
	c-17.9,1.7-36.3,3.5-50.8,4.7c-82.9,7-99-27.5-130.9-96.3l-7.7-16.6c-43.7-93.8-61.8-132.7-89.1-175.3
	c-33.1-51.5-66.8-84.1-99.4-115.6c-7.9-7.6-16.1-15.5-24.1-23.6c-19.5-19.4-58.3-54.3-84.6-76.9c-68.3-58.6-115.8-48.5-143.6-29.8
	c-27.5,18.5-46.1,64.1-21.9,120.5c18.8,43.8,65.7,151.5,96.3,206.7c17.4,31.4,41.1,54,70.6,67.1c38.5,17.2,76.4,26.8,104,33.8
	c4.3,1.1,8.2,2.1,11.9,3.1c41.4,10.8,59.8,37.7,59.3,58.2c-0.9,37.6-37.6,48-59.5,50.8c-90.4,11.9-140.4,8.9-288.5,0.2
	c-18.2-1.1-37.8-2.2-59.2-3.4c-10.5-0.6-40.5,2.2-53.5,22.4c-8.8,13.6-7.8,31,3,51.7c2.9,6.7,34.3,73,162.1,156.4
	c26.2,17.1,71.4,27.7,117.8,27.7c14.6,0,31.5,0.1,49.5,0.2c17.6,0.1,35.5,0.2,52.2,0.2c10.3,0,20.1,0,29-0.1h2.1
	c4.7,0,9.8-0.1,15.3-0.1c22.8-0.1,51.2-0.3,70.8-1.3c18.3-1,36.3-4.7,53.4-11.1c9.9-3.5,23-8.3,36.8-13.4
	c30.4-11.1,64.9-23.8,86.2-30.5c67-21.2,108.6-27.5,145.3-33.2c17.8-2.7,34.6-5.3,51.9-9.3c37.3-8.7,53.4-28.9,60.4-44.4
	C1458.1,768.5,1455.5,747.1,1453.1,736.3z M1383.6,814.6c-16.5,3.8-32.2,6.2-50.4,9c-35.6,5.4-79.8,12.2-148.3,33.8
	c-21.7,6.8-56.5,19.6-87.1,30.8c-13.8,5.1-26.8,9.8-36.7,13.3l-0.1,0.1c-15.3,5.7-31.3,9-47.6,9.9c-19.1,1-47.2,1.2-69.8,1.3
	c-5.5,0-10.6,0.1-15.3,0.1l-2.2,0c-23.2,0.2-52.5,0.1-81-0.1c-16.6-0.1-32.3-0.2-46.1-0.2c-1.2,0-2.3,0-3.5,0
	c-51.1,0-89.5-13.2-106.8-24.5c-65.9-42.9-104.4-80.8-125.2-105.1c-22.5-26.2-29.5-42.5-29.5-42.6l-0.4-0.8
	c-7.3-14.1-8.7-24.8-4.1-32c7.3-11.3,28.6-13.7,35.5-13.3c21.4,1.2,41,2.4,59.2,3.4c149.6,8.8,200,11.7,292.3-0.4
	c12.4-1.6,30.5-5.7,46.1-15.7c19.6-12.5,30.2-31.4,30.7-54.5c0.6-28.1-22.3-64.5-74.3-78c-3.7-1-7.8-2-12.1-3.1
	c-26.9-6.8-63.8-16.2-100.8-32.7c-25.4-11.3-46-31-61.3-58.5c-30.1-54.4-76.7-161.4-95.4-204.9c-19.7-45.9-6.2-82,14.7-96
	c40-26.9,87,0.6,119.4,28.4c26,22.3,64.3,56.8,83.4,75.9c8.2,8.2,16.4,16.1,24.4,23.8c33.3,32.1,64.7,62.4,96.5,112
	c26.6,41.5,43.2,77.3,87.8,172.9l7.7,16.6c30,64.5,50.6,108.7,129.8,108.7c6.6,0,13.5-0.3,21-0.9c14.6-1.2,33.2-3,51.1-4.7
	c21.2-2,43.1-4.2,57.8-5.3c34.7-2.5,78.5,5.7,90.2,59.1C1437.5,758.4,1440.5,801.4,1383.6,814.6z"/>
</svg>
