<?xml version="1.0" encoding="utf-8"?>
<!-- Generator: Adobe Illustrator 24.0.1, SVG Export Plug-In . SVG Version: 6.00 Build 0)  -->
<svg version="1.1" id="lankebanen_Road_Short__Config"
	 xmlns="http://www.w3.org/2000/svg" xmlns:xlink="http://www.w3.org/1999/xlink" x="0px" y="0px" viewBox="0 0 1920 1080"
	 style="enable-background:new 0 0 1920 1080;" xml:space="preserve">
<style type="text/css">
	.st0{fill:#FFFFFF;}
</style>
<title>active</title>
<path class="st0" d="M1453.2,736.2c-6.9-31.4-23.6-53.6-49.7-66c-16.9-8-37.4-11.6-61.2-10.8c-12.1,0.4-41.9,1.3-56.1-0.1
	c-39.6-4-70-26.8-90.4-67.6c-7.9-15.8-18.6-38.5-29-60.4c-11.4-24.1-23.2-49.1-31.5-65.3c-20.3-39.9-39.7-62.6-57.7-81.2
	c-84.5-87.5-133.2-120.2-180.4-151.8c-4.4-3-8.8-5.9-13.2-8.9c-26.5-17.9-56.3-27-86.2-26.4c-24.7,0.5-48.5,7.8-65.4,20.1
	c-24.5,17.7-39.4,46-43.2,82c-3.6,34.3,3.7,64.8,6,73.4c6.9,25.3,20.3,70.8,32.4,91.8c18.3,31.7,42,54.2,70.5,67
	c42.3,18.9,82.2,28.6,111.3,35.7l4.9,1.2c24.2,5.9,48.3,16.2,60.6,51.5c7.7,22,9.1,40.6-6.9,70.2l-1,1.8c-10.8,20.1-31,57.6-57.9,70
	c-8.5,3.9-19.3,9.6-27.5,18.6c-10.9,11.9-14.3,26.6-9.7,42.5c8,28.1,29.9,40.8,60.1,34.9c17.7-3.5,27.4-12.5,45.1-28.8
	c5.5-5,25.1-20.6,48.9-8.7c4.7,2.4,19.2,9.6,55,34.8c23.8,16.7,48.8,25.1,74.7,25.1c11.4,0,23-1.6,34.7-4.9l0,0
	c57.1-15.8,101.9-24.5,141.5-32.1c19.9-3.8,38.7-7.5,56-11.5c29.9-7,50.2-21.5,60.4-43.3C1458.1,768.2,1455.5,747,1453.2,736.2z
	 M1383.7,812.5c-17,3.9-35.6,7.5-55.3,11.3c-39.9,7.7-85.2,16.4-143,32.4l0,0c-32.4,9-63.6,3.1-92.7-17.3
	c-37.1-26.1-52.5-33.8-57.6-36.3c-8.6-4.3-17.7-6.4-26.9-6.4c-15.7,0-31.5,6.3-44.5,18.3c-17.7,16.4-23.9,21.6-35.4,23.9
	c-20.1,3.9-31.9-2.7-37.1-20.8c-4.5-15.6,3.4-26.8,26.4-37.4c33-15.2,55.2-56.5,67.1-78.7l1-1.8c19.3-35.8,17.2-60.4,8.2-86.3
	c-15.6-44.6-48.2-57.8-74.8-64.3l-4.9-1.2c-30-7.3-67.2-16.4-107.9-34.5c-24.6-11-45.2-30.7-61.3-58.7
	c-11.4-19.8-25.1-67.5-30.5-87.1c-9.5-34.9-14-102.4,29.6-133.9c23.1-16.7,76.5-28.7,128.7,6.7c4.4,3,8.9,6,13.3,8.9
	c46.3,31.1,94.1,63.2,177.1,149.1c16.9,17.5,35.2,38.8,54.3,76.4c8.1,16,19.9,40.8,31.2,64.8c10.4,22,21.2,44.8,29.2,60.8
	c23.4,46.7,60.1,73.9,106.3,78.6c14.9,1.5,43.3,0.8,58.8,0.2c50.8-1.8,81.3,18.8,90.6,61.1C1438.3,761.9,1438.1,799.9,1383.7,812.5z
	"/>
</svg>
