<?xml version="1.0" encoding="utf-8"?>
<!-- Generator: Adobe Illustrator 24.0.1, SVG Export Plug-In . SVG Version: 6.00 Build 0)  -->
<svg version="1.1" id="Homestead_Indy_Pits__Config"
	 xmlns="http://www.w3.org/2000/svg" xmlns:xlink="http://www.w3.org/1999/xlink" x="0px" y="0px" viewBox="0 0 1920 1080"
	 style="enable-background:new 0 0 1920 1080;" xml:space="preserve">
<style type="text/css">
	.st0{fill:#FFFFFF;}
</style>
<title>active</title>
<path class="st0" d="M1317.8,956.5c-5.6,0-11.3,0-16.9-0.1c-152.6-2.6-263.3-3.1-352.1-3.5c-155.1-0.7-257.5-1.2-431.9-11.6
	c-91.7-5.5-172.5-24.7-240.1-57.1c-59.6-28.5-109.1-67.2-147.3-115c-78.2-98-92.8-213.7-80.4-289.3c10.9-66.1,37.4-124.3,78.8-173
	c36.2-42.5,83.9-78,141.9-105.6c49.4-23.5,105.7-41.1,167.5-52.3c51.2-9.3,105.7-14,157.6-13.5c69.4,0.6,162.1,0.7,260.4,0.8
	c141.3,0.2,287.5,0.3,400.1,1.9l7.2,0.1c49.2,0.6,140.7,1.7,236.3,21c117.4,23.6,208,67.8,269.5,131.3
	c66.3,68.5,98.7,159.8,96.4,271.4c-1.2,57.6-15.5,111.8-42.6,161c-26.8,48.6-65.3,91.1-114.6,126.3c-49.7,35.5-109.2,62.8-176.7,81
	C1465.7,947.6,1394.1,956.5,1317.8,956.5z M589.6,155.4c-89.4,0-469.9,18.4-520.8,327.6C57,554.4,70.9,663.8,145,756.6
	c78.1,97.8,207.1,154.7,373,164.6c173.8,10.4,276,10.9,430.8,11.6c88.9,0.4,199.6,0.9,352.4,3.5h0c159.7,2.7,296.2-33.1,394.7-103.5
	c95.1-68,146.6-161.8,148.8-271.4c2.2-106-28.3-192.5-90.8-257c-137.2-141.8-394.7-145-491.6-146.2l-7.2-0.1
	c-112.5-1.5-265.2-1.7-399.9-1.9c-98.3-0.1-191.1-0.2-260.5-0.8C593.1,155.4,591.4,155.4,589.6,155.4z"/>
</svg>
