<?xml version="1.0" encoding="utf-8"?>
<!-- Generator: Adobe Illustrator 24.0.1, SVG Export Plug-In . SVG Version: 6.00 Build 0)  -->
<svg version="1.1" id="lankebanen_Road_Long__Config"
	 xmlns="http://www.w3.org/2000/svg" xmlns:xlink="http://www.w3.org/1999/xlink" x="0px" y="0px" viewBox="0 0 1920 1080"
	 style="enable-background:new 0 0 1920 1080;" xml:space="preserve">
<style type="text/css">
	.st0{fill:#FFFFFF;}
</style>
<title>active</title>
<path class="st0" d="M1453.2,736.2c-6.9-31.4-23.6-53.6-49.7-66c-16.9-8-37.5-11.6-61.2-10.8c-12.1,0.4-41.9,1.3-56.1-0.1
	c-39.6-4-70-26.8-90.4-67.6c-7.9-15.8-18.6-38.5-29-60.4c-11.4-24.1-23.2-49.1-31.5-65.3c-20.3-39.8-39.7-62.6-57.7-81.2
	C993.2,297.4,944.4,264.6,897.3,233c-4.4-3-8.9-6-13.4-9c-26.5-17.9-56.3-27.1-86.2-26.4c-24.7,0.5-48.5,7.8-65.4,20.1
	c-24.5,17.7-39.4,46-43.2,82c-3.6,34.3,3.7,64.9,6,73.4c6.9,25.3,20.3,70.8,32.4,91.8l0,0c18.3,31.7,42,54.3,70.6,67
	c38.3,17.1,76,26.7,103.5,33.6c4.5,1.1,8.7,2.2,12.6,3.2c16.4,4.3,31.8,13.3,43.3,25.4c10.3,10.7,16.2,23,16,32.8
	c-0.8,34.5-30.9,45.6-60.3,52c-92.8,20.1-126.7,28.4-162.6,37.2c-9.8,2.4-20,4.9-31.4,7.7c-28.4,6.8-50.3,23.4-63.1,47.9
	c-15.8,30-14.5,65.2-6.3,86.7c24.4,63.5,93.4,71.4,121.9,71.9c40.4,0.7,89.5,1,136.1,1c33.7,0,66.1-0.1,93-0.4
	c34.8-0.3,60-9.4,78.4-16l3.1-1.1c36.7-13.2,84.5-29.9,108.5-37.2c61.8-18.6,104.8-25.9,142.8-32.2c19-3.2,36.9-6.2,54.5-10.3
	c37.3-8.7,53.4-28.9,60.4-44.4C1458.2,768.4,1455.6,747.1,1453.2,736.2z M1383.7,814.5c-16.9,3.9-34.6,6.9-53.2,10
	c-38.6,6.5-82.3,13.8-145.3,32.8c-30.7,9.3-91.6,31-109.5,37.5l-3.2,1.1c-18,6.5-40.3,14.6-71.8,14.9c-63.7,0.6-159.1,0.6-228.5-0.6
	c-24.5-0.4-83.6-7-103.6-59.1c-6.4-16.8-7.5-45.9,5.3-70.3c10.3-19.5,27.1-32.2,50.1-37.8c11.5-2.8,21.6-5.3,31.5-7.7
	c35.8-8.8,69.5-17.1,162.1-37.1c9.3-2,28.8-6.2,45.2-16.7c19.9-12.8,30.3-31,30.9-54.3c0.3-15.2-7.5-32.3-21.5-47
	c-14-14.7-32.8-25.7-52.7-30.9c-3.9-1-8.2-2.1-12.7-3.3c-26.8-6.8-63.5-16.1-100.3-32.5c-24.6-10.9-45.3-30.7-61.4-58.7l0,0
	c-11.4-19.8-25.1-67.5-30.5-87.1c-9.5-34.9-14-102.4,29.6-133.9c12.1-8.8,32.6-16.2,56.9-16.2c22,0,47,6.1,71.8,22.9
	c4.5,3,8.9,6,13.4,9c46.3,31.1,94.1,63.2,177,149c16.9,17.5,35.2,38.9,54.3,76.4c8.1,16,19.9,40.8,31.2,64.8
	c10.4,22,21.2,44.8,29.2,60.8c23.4,46.7,60.1,73.9,106.3,78.6c14.9,1.5,43.3,0.8,58.9,0.2c50.8-1.8,81.3,18.7,90.6,61.1
	C1437.6,758.3,1440.6,801.3,1383.7,814.5z"/>
</svg>
