<?xml version="1.0" encoding="utf-8"?>
<!-- Generator: Adobe Illustrator 24.0.1, SVG Export Plug-In . SVG Version: 6.00 Build 0)  -->
<svg version="1.1" id="Legends_Oval_-_Config" xmlns="http://www.w3.org/2000/svg" xmlns:xlink="http://www.w3.org/1999/xlink"
	 x="0px" y="0px" viewBox="0 0 1920 1080" style="enable-background:new 0 0 1920 1080;" xml:space="preserve">
<style type="text/css">
	.st0{fill:#FFFFFF;}
</style>
<title>active</title>
<path class="st0" d="M1058.4,815.1c-29.6-0.2-67.6-0.3-107.9-0.3c-21.1,0-42.7-0.1-64-0.1c-0.1,0-0.1,0-0.2,0
	c-18.5,0-34.1,6-45.1,17.3c-12.7,13.1-16.7,30.8-16.3,41.9c1.4,38.1,31.8,60.2,52.2,61h0c36.3,1.3,56.6,1.5,86.1,1.5
	c7.4,0,15.3,0,24.2,0c18.7,0,41.9-0.1,73.1,0l0.4,0l0.4,0c30.2-2.5,62.1-20.7,61.2-64.4C1121.8,836.7,1097.8,815.4,1058.4,815.1z
	 M1060.1,916.3c-31-0.1-54.1,0-72.7,0c-44.4,0.1-64.7,0.1-109.6-1.4h0c-11-0.4-31.9-15-32.9-41.7c-0.2-5.4,1.8-18.1,10.7-27.3
	c7.2-7.5,17.6-11.2,30.8-11.2c21.3,0.1,43,0.1,64.1,0.1c40.2,0,78.2,0.1,107.8,0.3c19.8,0.2,43.6,6.7,44.3,37.2
	C1103.3,907.2,1076.5,914.9,1060.1,916.3z"/>
</svg>
