<svg id="North_Wilkesboro_-_Config" data-name="North Wilkesboro - Config" xmlns="http://www.w3.org/2000/svg" viewBox="0 0 1920 1080"><defs><style>.cls-1{fill:#fff;}</style></defs><title>active</title><path class="cls-1" d="M1636.07,391.05c-23.94-48.89-58-92.07-101.34-128.33-18.21-15.25-43.94-35-81.65-52.77A386.36,386.36,0,0,0,1323.71,175c-61.29-5.68-143.17-12.07-185.77-10.33-17.29,0-217.93.92-228.42,1-10.52-.11-210.52-1.58-372.16,30a464,464,0,0,0-89.78,27c-35.49,14.83-65.93,32.92-93.06,55.31-35.83,29.57-65.26,66.58-87.46,110l-.47,1c-53.51,120.65-45.86,192.75-13,283.51,1.24,3.58,13.9,38.87,45.52,82A404.55,404.55,0,0,0,468,887.62l.28.11c2.95,1.19,6.14,2.59,9.84,4.21,27.24,11.93,72.81,31.88,172.57,34.77,41.59,2.52,453,7.32,470.54,7.53h.48l.48,0c4.94-.18,121.48-4.56,181-18.67l.33-.08c4.37-1.11,9.53-2.34,15.5-3.77,30.19-7.22,80.73-19.3,132.09-41.78,63-27.56,111.75-64,145-108.21l.57-.8c1-1.44,2.39-3.39,4-5.64,18.73-25.86,68.49-94.55,69.69-226.5v-.18C1670.35,483.76,1658.82,437.49,1636.07,391.05Zm-67.8,340.75c-1.7,2.34-3.18,4.39-4.45,6.24-68.13,90.29-193.73,120.32-254.14,134.75-6.06,1.45-11.3,2.71-15.92,3.88-53.91,12.75-164.44,17.25-172.55,17.56-16.87-.19-430.48-5.06-468.34-7.46l-.69,0c-92.22-2.64-131.81-20-158-31.44-3.75-1.65-7.31-3.2-10.74-4.59-61.18-25.87-112-65.78-151.15-118.63-29.42-39.76-40.78-72.35-40.88-72.63l-.14-.41c-30-82.73-36.41-144.69,11.67-253.32C337.77,337.84,390.14,290,463,259.59a424.37,424.37,0,0,1,82-24.67c158.45-31,362.19-29.29,364.24-29.27h.29c2.15,0,214.71-1,228.79-1l.85,0c40.25-1.7,120.55,4.6,180.82,10.18a346.55,346.55,0,0,1,116,31.3c33.36,15.7,55.62,32.69,73,47.25,39,32.64,69.63,71.42,91.1,115.25,20,40.89,30.19,81.22,30.2,119.87C1629.24,647.62,1585,708.78,1568.27,731.8Z"/></svg>