<?xml version="1.0" encoding="utf-8"?>
<!-- Generator: Adobe Illustrator 24.0.1, SVG Export Plug-In . SVG Version: 6.00 Build 0)  -->
<svg version="1.1" id="_Road_Config" xmlns="http://www.w3.org/2000/svg" xmlns:xlink="http://www.w3.org/1999/xlink" x="0px"
	 y="0px" viewBox="0 0 1920 1080" style="enable-background:new 0 0 1920 1080;" xml:space="preserve">
<style type="text/css">
	.st0{fill:#FFFFFF;}
</style>
<title>active</title>
<path class="st0" d="M1787.8,428.7c-8.3-41.4-32.3-120.9-100-187.8c-31.8-31.5-69.5-56.1-112.1-73.3
	c-48.3-19.5-103.4-29.6-163.7-29.9c-129.2-0.7-344.3,4.3-534,8.6c-112.5,2.6-218.7,5-294.5,6c-111.3,1.5-205.1,21.9-278.8,60.9
	c-52.5,27.7-94.2,64.9-123.8,110.4c-34.6,53.2-53.3,118.6-55.6,194.4c-2,66.9,12.5,124.1,44.5,175c19.8,31.5,46.5,60.5,79.5,86.4
	c36.5,28.6,81.7,54.2,134.5,76.1c142.6,59.1,205.3,77.9,266,96.1c11.3,3.4,22.9,6.9,34.8,10.5c25,7.7,56.2,15.6,98.6,15.6
	c0.6,0,1.2,0,1.8,0c13.7-0.1,29.2-0.1,45.9-0.2c96.4-0.4,228.4-0.9,300.3-4.2c2.9-0.1,6-0.3,9.3-0.4c37.2-1.5,93.4-3.7,127.3-26.4
	c15.3-10.2,24-28.6,25.8-54.6c3.1-45.5,9.7-140,9.4-188.8c-0.3-36.3-15.1-72.3-41.8-101.5c-32.9-36.1-81.3-60.1-143.8-71.3
	c-9.8-1.8-21.9-3.8-34.7-6c-36.4-6.2-81.6-13.8-114.1-21.7c-42.7-10.3-69.2-23.5-78.5-118.3c-1.7-17.7-1.3-53.5-1.1-68.1
	c0.8-46.1,23.2-69.7,66.7-70.3l19.4-0.3c116.9-1.5,312.6-4.1,427.5-3.3c1.3,0,2.5,0,3.9,0c17.2,0,36.7,0,59.5,22.1
	c32.7,31.6,66.5,90.2,81,115.2c4.3,7.4,17.5,33.6,8.9,61.5c-6,19.4-21.4,35.3-45.8,47.1c-21.1,10.2-64.1,24.7-86.2,31.4
	c-18.7,5.7-45.3,17.1-66,39.5c-24.6,26.5-34.9,61.3-30.7,103.5c4,39.7,34.2,64.8,56.6,80.1c4.9,3.4,10.8,7.4,17.2,11.8
	c26.1,17.9,61.9,42.3,81.2,56.5c13.9,10.2,42.4,25.7,76.9,15.5l0.9-0.3c2.9-1.2,71.8-29.5,134.8-92.6
	c37.2-37.2,64.5-78.8,81.1-123.6C1796.7,554.2,1800.7,493.1,1787.8,428.7z M1681.1,719.3c-57.6,57.9-122.4,86-128.2,88.5
	c-24.7,7.1-45.6-2.9-58.9-12.6c-19.6-14.3-55.5-38.9-81.7-56.8c-6.4-4.4-12.3-8.4-17.2-11.8c-20.7-14.2-44.9-34.5-48-65.6
	c-8.1-81.8,48.3-111.5,82.6-121.9c22.7-6.9,67-21.8,89.1-32.6c29.7-14.4,48.6-34.3,56.2-59.3c10.9-35.7-5.4-68.3-10.7-77.4
	c-23.1-40-53.6-89.8-84.4-119.5c-28.6-27.7-54.5-27.7-73.4-27.7c-1.3,0-2.5,0-3.7,0c-115.2-0.8-311,1.7-428,3.3l-19.4,0.3
	c-33,0.4-57.1,12.1-71.7,34.7c-9.4,14.5-14.3,33.1-14.7,55.2c-0.3,14.9-0.7,51.6,1.2,70.4c4.8,48.6,14.7,80.9,31.3,101.5
	c15.8,19.7,36.4,27.9,62.4,34.2c33.1,8,78.8,15.8,115.4,22c12.7,2.2,24.8,4.2,34.5,5.9c58.1,10.5,102.7,32.4,132.6,65.1
	c31.5,34.5,36.4,70.1,36.5,88.2c0.3,48-6.2,142-9.3,187.2c-1.3,19.3-7.2,32.9-16.9,39.4c-29.3,19.5-84.2,21.7-117.1,23
	c-3.3,0.1-6.5,0.3-9.4,0.4c-71.5,3.3-203.2,3.8-299.4,4.1c-16.7,0.1-32.2,0.1-45.9,0.2c-40.6,0.2-70.5-7.3-94.3-14.7
	c-12-3.7-23.7-7.2-35-10.6c-60.2-18.1-122.5-36.7-264.1-95.4c-170-70.5-250.5-174.7-246.2-318.5c9-296.4,278.6-344.2,438.5-346.3
	c75.9-1,182.2-3.4,294.7-6c177.7-4.1,377.6-8.7,508.1-8.7c8.8,0,17.2,0,25.3,0.1c222.3,1.2,329.8,142.8,356.2,275
	C1790.3,542.7,1761,639.1,1681.1,719.3z"/>
</svg>
