<?xml version="1.0" encoding="utf-8"?>
<!-- Generator: Adobe Illustrator 24.0.1, SVG Export Plug-In . SVG Version: 6.00 Build 0)  -->
<svg version="1.1" id="Weedsport__Config" xmlns="http://www.w3.org/2000/svg" xmlns:xlink="http://www.w3.org/1999/xlink" x="0px"
	 y="0px" viewBox="0 0 1920 1080" style="enable-background:new 0 0 1920 1080;" xml:space="preserve">
<style type="text/css">
	.st0{fill:#FFFFFF;}
</style>
<title>active</title>
<path class="st0" d="M1261.4,768c-124.6,0-251.7-1.5-335.3-5.8c-66.8-3.5-133.3-32.3-182.4-79.2c-27.1-25.8-48.1-56.2-62.4-90.2
	c-15.6-36.9-22.9-77.3-21.8-120c1.3-48,13-93.7,35-135.7c18.8-36,45.2-69.3,78.2-99c71.1-64,150.7-92,181.7-101.1
	c91-26.8,212.4-41.7,332.9-41c126.6,0.7,233.7,18.3,301.5,49.4l0,0c75.6,34.7,131.6,90.5,166.5,165.9
	c27.8,60.2,34.9,117.2,38.7,147.8c11.6,92.9-6.4,167.5-53.4,221.7c-26,30-60.1,52.6-101.3,67.2c-39.3,13.9-76.4,17.3-100.6,17.8
	C1465.1,767,1364.1,768,1261.4,768z M1279.1,175.9c-110.5,0-220.2,13.7-302.1,37.8c-86.4,25.4-233.6,109-237.5,261.1
	c-3.3,128.2,95.8,202.5,190.8,207.4c150.5,7.8,445.4,6.3,607,3.4c28.5-0.5,99.4-7.1,143-57.4c31.5-36.3,43.1-90,34.5-159.4
	c-7-56.5-23.5-188.7-159.2-250.9l0,0c-56.8-26.1-154.8-41.4-268.6-42.1C1284.2,175.9,1281.7,175.9,1279.1,175.9z"/>
</svg>
