<?xml version="1.0" encoding="utf-8"?>
<!-- Generator: Adobe Illustrator 24.0.1, SVG Export Plug-In . SVG Version: 6.00 Build 0)  -->
<svg version="1.1" id="Infield_RC__Config" xmlns="http://www.w3.org/2000/svg" xmlns:xlink="http://www.w3.org/1999/xlink" x="0px"
	 y="0px" viewBox="0 0 1920 1080" style="enable-background:new 0 0 1920 1080;" xml:space="preserve">
<style type="text/css">
	.st0{fill:#FFFFFF;}
</style>
<path class="st0" d="M1564.3,369.8c-16.3-28.1-50.2-86.7-84.4-119.5c-19.8-19-46.5-28.6-77.4-27.7c-32.1,0.9-55.6,4.4-88.8,43.5
	c-4.4,5.2-17.9,21.1-31.7,21.5c-6.4,0.2-12.4-2.9-18.7-9.3c-3.2-3.3-7-8.9-10.9-14.7c-10.8-16-24.2-35.8-45.3-40.1
	c-16-3.3-45.7-6.5-64.3,8.9c-10,8.3-14.9,20.2-14.7,35.6c0.1,7.1,0.2,16.8,0.3,27.4c0.2,23.4,0.5,49.9,0.9,65.8
	c0.5,17.9-2.8,30.5-9.8,37.6c-5,5-12,7.4-21.6,7.3c-16.1-0.2-32-3.4-35.8-38.5c-1.8-16.3-1-45.6-0.4-69.1c0.2-8.5,0.4-16.5,0.5-22.8
	c0.2-28.1-11-46.2-30.8-49.6c-18.5-3.2-69.2-0.3-76.1,0.1c-32.9,0.5-56.9,12.2-71.5,34.7c-9.4,14.5-14.3,33.1-14.7,55.2
	c-0.3,14.9-0.7,51.6,1.2,70.4c4,41.3,14.2,72.5,31.1,95.2c15.4,20.8,35.9,34,62.6,40.5l0.5,0.1c1.7,0.3,42.3,8,58.4,8.6
	c18.8,0.7,33.7-11.7,35.4-13.1l0.3-0.2c26.4-24.6,35.5-26.4,46.5-26.3c20.4,0.1,24.4,8.6,29.5,19.3c3.4,7.1,7.5,16,17.6,19
	c50.6,15.4,101,23.4,149.9,24c3.6,0,7,0.1,10.4,0.1c49.2,0,84.7-4.1,117.2-13.4c22.7-6.5,66.6-22.6,89.3-33.6
	c29.7-14.4,48.6-34.3,56.2-59.3C1586,411.5,1569.6,378.9,1564.3,369.8z M1555.9,441.3c-6,19.4-21.4,35.3-45.8,47.1
	c-21.4,10.4-64.6,26.2-86.1,32.4c-33.2,9.5-68.5,13.2-121.9,12.6c-47-0.5-95.6-8.3-144.3-23.1c-1.5-0.5-3.5-4.7-5.3-8.4
	c-5.4-11.4-14.5-30.6-47.4-30.8c-0.2,0-0.4,0-0.6,0c-19.6,0-33.6,7.5-59.4,31.5c-1.1,0.9-10.9,8.6-21.4,8.2
	c-13.9-0.5-51.7-7.5-55.2-8.2c-29.4-7.2-69.4-27.4-78.3-118.2c-1.7-17.7-1.3-53.5-1.1-68.1c0.8-46.1,23.2-69.7,66.7-70.3h0.5
	c15.2-0.9,57.7-2.8,71.7-0.4c11.9,2,14.3,17.3,14.2,29.8c0,6.1-0.3,14-0.5,22.4c-0.6,24.1-1.4,54.1,0.5,71.8
	c6,55.6,43.2,56.1,55.4,56.3c15.1,0.2,27.2-4.2,36.1-13.2c11.1-11.2,16.2-28.3,15.5-52.2c-0.4-15.7-0.7-43.3-0.9-65.4
	c-0.1-10.6-0.2-20.3-0.3-27.4c-0.1-9.2,2.3-15.7,7.5-20c12.9-10.7,39.6-6.3,47.5-4.7c13.1,2.7,23.5,18.1,32.7,31.8
	c4.5,6.6,8.7,12.8,13.1,17.4c10.3,10.6,21.6,15.8,33.7,15.4c20.3-0.6,36.1-16.6,46.3-28.5c28.5-33.6,45.9-35.7,74.2-36.5
	c25.8-0.7,47,6.7,63,22.1c32.2,30.9,65.1,87.8,80.9,115.1C1551.3,387.2,1564.5,413.4,1555.9,441.3z"/>
</svg>
