<?xml version="1.0" encoding="utf-8"?>
<!-- Generator: Adobe Illustrator 24.0.1, SVG Export Plug-In . SVG Version: 6.00 Build 0)  -->
<svg version="1.1" id="Mini__Config" xmlns="http://www.w3.org/2000/svg" xmlns:xlink="http://www.w3.org/1999/xlink" x="0px"
	 y="0px" viewBox="0 0 1920 1080" style="enable-background:new 0 0 1920 1080;" xml:space="preserve">
<style type="text/css">
	.st0{fill:#FFFFFF;}
</style>
<title>active</title>
<path class="st0" d="M988,775.9c-85.4,0-177.2-1.8-252.7-3.3c-29.4-0.6-75.5-19.3-107-59c-19.6-24.6-40.3-66.3-27.9-124.9l0,0
	c4.2-19.9,13.9-48.6,36.2-72.7c24.9-26.9,59.1-41.4,101.8-43.1c108.6-4.4,289.5-3.4,394.8,0c30.4,1,57.2,7.4,79.6,19.1
	c33,17.2,55.6,45.3,67.1,83.4c5.8,19.4,8.1,43.6,6.2,66.3c-2.4,28.8-11.2,54.8-25.6,75.3c-23.9,34.1-61.7,52.8-112.4,55.5
	C1103,775.1,1047.1,775.9,988,775.9z M620,592.9c-10.8,50.9,7.1,87,24,108.3c26.3,33.1,66.1,51,91.8,51.5c127.3,2.5,301.6,6,411.4,0
	c44.2-2.4,76.9-18.2,97.1-47c26-37.1,26.8-90.5,16.6-124.4c-21.2-70.3-81.4-86.8-128.2-88.3c-105.4-3.4-288.6-4.2-393.3,0
	C653.2,496.4,627.6,557,620,592.9L620,592.9z"/>
</svg>
