<?xml version="1.0" encoding="utf-8"?>
<!-- Generator: Adobe Illustrator 24.0.1, SVG Export Plug-In . SVG Version: 6.00 Build 0)  -->
<svg version="1.1" id="Daytona_Nascar_Road_-_Config"
	 xmlns="http://www.w3.org/2000/svg" xmlns:xlink="http://www.w3.org/1999/xlink" x="0px" y="0px" viewBox="0 0 1920 1080"
	 style="enable-background:new 0 0 1920 1080;" xml:space="preserve">
<style type="text/css">
	.st0{fill:#FFFFFF;}
</style>
<title>active</title>
<path class="st0" d="M1843.8,250.3c-28.1-58.7-67.9-96.4-89.2-113.6c-106.9-86.6-233.7-87-317.6-87.3c-7,0-13.6,0-19.9-0.1
	l-38.9-0.4c-149.7-1.6-304.5-3.3-516.2-3.8c-10.8,0-39.4,0-60.2,23.7c-13.9,15.8-22.8,19.6-30.3,21.3c-9.7,2.2-38.9,5.3-49.5,6.3
	c-26.6,1.7-34-6.1-39.9-14.9c-23.7-36-48.7-37-66.9-37.7l-2.2-0.1c-42.1-1.8-168.6-2.2-169.9-2.2l-0.3,0l-0.3,0
	c-46.9,2.6-91.6,10.6-132.8,23.7c-36,11.4-69.1,26.9-95.6,44.6c-50.8,34-89.9,77.6-116.1,129.5c-23.1,45.8-31.3,88.5-34.1,116.2
	c-6.2,62.1,8,132.2,38.9,192.3c18.4,35.8,42.6,68.2,71.9,96.5c32.7,31.5,71.8,57.8,116.2,78.2l8,3.7c39.8,18.3,106.4,48.9,144,58.3
	c21,5.2,65.4,12.5,94,11.7c14.8-0.4,31.6,0.5,42.3,17c0.9,1.4,1.9,2.9,2.9,4.5c6.7,10.5,15,23.6,22.7,30.2
	c8.8,7.5,35,21.9,38.7,23.4l0,0c83.4,33.4,208.2,77.9,328.1,78.8c1.1,0,2.1,0,3.2,0c51.9,0,115.2-10.1,183.4-29.3
	c63.1-17.8,128.9-42.7,190.2-72.1c28.5-13.7,53.8-43.8,64.3-76.8c7.9-24.8,6.6-48.7-3.8-67.5c-20.1-36.6-66.2-55.1-136.9-55.2
	c-14.3,0-26.7,0-54.4-23c-16.5-13.8-29.9-20.2-80.2-19.9c-61.2,0.4-147.8-0.7-190.6-4.7c-9.9-0.9-34.6-10.6-34.6-27.9
	c0-6.7,0-24.6,47.6-36.4c34.5-8.6,63.4-10.3,144.7-11.7c72.2-1.3,173.5-1.3,237,1.8c11.4,0.5,70.2,1.9,108.8-25.8
	c3.8-2.7,7.4-5.2,10.8-7.7c33.4-23.7,55.4-39.4,140.8-120.4c5.8-5.5,57.6-53.1,91.1-29.5c11.4,8.1,21.5,33.6-0.3,67.6
	c-43.6,68.1-160.3,161.5-195.1,188.5c-16,12.4-52,45.3-41.4,82.9c6.1,21.7,34,34.5,66.4,49.4c3.1,1.4,6.2,2.8,9.3,4.3
	c44.9,20.9,82.8,7.4,97,0.6c93.2-44.4,219.8-122.9,243.1-291.8C1881.8,375.6,1872.3,309.9,1843.8,250.3z M1852.3,442.8
	c-22,159.4-142.9,234.1-231.9,276.5c-11.7,5.6-42.8,16.6-80-0.7c-3.1-1.5-6.3-2.9-9.4-4.3c-25.5-11.7-51.9-23.9-55.5-36.6
	c-7.5-26.6,24.5-53.9,34.4-61.7c35.4-27.5,154.3-122.7,199.6-193.5c15.5-24.2,17.1-44.4,15.7-57c-1.8-16-9.3-29.7-20.7-37.8
	c-18-12.7-41.3-13.5-67.4-2.1c-23.2,10.1-42,26.7-49,33.4c-84.3,80-105.9,95.4-138.6,118.6c-3.5,2.5-7.1,5-10.9,7.7
	c-34,24.3-90,22.4-96.2,22.1c-63.9-3.1-165.8-3.1-238.3-1.8c-83.1,1.5-112.8,3.3-149.2,12.3c-42.2,10.5-62.7,28.7-62.7,55.8
	c0,30.3,34.3,46.1,52.7,47.8c56.2,5.3,170.3,4.9,192.6,4.8c1,0,2.1,0,3.1,0c45.8,0,53.2,6.1,64.2,15.3
	c30.9,25.7,47.4,27.6,67.2,27.6c62.8,0.1,103,15.1,119.4,44.8c9.8,17.8,6.7,38,2.2,51.8c-8.8,27.5-30.5,53.6-53.9,64.8
	c-100.6,48.3-248.7,99.5-364.8,99.5c-1.1,0-2.1,0-3.1,0c-116.4-0.9-238.8-44.6-320.7-77.4c-3.5-1.6-26.8-14.6-33.3-20.1
	c-5.4-4.6-13.4-17.2-18.8-25.6c-1.1-1.7-2.1-3.3-3-4.7c-17.8-27.4-47.1-26.5-59.7-26.1c-25.6,0.8-67.9-5.9-88.6-11.1
	c-35.8-8.9-101.3-39-140.4-57l-8-3.7C110.4,617.7,75,445.6,83.8,357.6c5.5-54.7,31.2-157.4,141.4-231.1
	c54.6-36.5,134-60.2,218.1-64.9c6.9,0,128.1,0.4,168.8,2.2l2.3,0.1c17,0.7,33,1.3,51,28.7c8.7,13.1,22.3,26.2,58,23.9l0.3,0
	c1.6-0.2,39.2-3.8,52.2-6.7c10.3-2.3,23.1-7.4,40.9-27.6c14.8-16.9,35.3-16.9,45.1-16.9c211.6,0.5,366.3,2.2,516,3.8l38.9,0.4
	c6.4,0.1,13,0.1,20.1,0.1c81.1,0.2,203.7,0.6,305.1,82.8C1782.7,185.2,1874.9,279.4,1852.3,442.8z"/>
</svg>
