<?xml version="1.0" encoding="utf-8"?>
<!-- Generator: Adobe Illustrator 24.0.1, SVG Export Plug-In . SVG Version: 6.00 Build 0)  -->
<svg version="1.1" id="Full__Config" xmlns="http://www.w3.org/2000/svg" xmlns:xlink="http://www.w3.org/1999/xlink" x="0px"
	 y="0px" viewBox="0 0 1920 1080" style="enable-background:new 0 0 1920 1080;" xml:space="preserve">
<style type="text/css">
	.st0{fill:#FFFFFF;}
</style>
<title>active</title>
<path class="st0" d="M1471.9,981.7c-8.7,0-17.7-0.7-27-2.3c-36.2-6.1-83-23.5-123.8-104.1c-25-49.4-43.3-152.6-50-194.7l0-0.3
	c-0.2-1.2-15.6-121.4-23.2-160.5c-8-41.1-40.6-140.9-169.8-181c-56.5-17.5-154-36.9-225.2-51c-20.9-4.1-40.5-8-56.5-11.4
	c-30.3-6.3-59.2-11-92.7-16.4c-50.7-8.2-113.9-18.4-207.8-38.8c-1.3-0.3-2.7-0.6-4.1-0.9c-16-3.4-42.7-9.1-64.7-19.8
	c-36.7-17.7-42.2-40.9-40.3-57.2c2.9-25,21-36.9,51-33.7l0.7,0.1c0.5,0.1,49.4,8.8,120.8,20.6c64.8,10.7,111.6,18.5,239.2,5.9
	c6-0.6,11.9-1.2,18.1-1.7c21.2-2,45.2-4.3,82.4-8.7c35.4-4.2,68.8-7.3,148.6-6.4c36.1,0.4,70.4-7.5,104.9-24c2.9-1.4,6.3-3.1,10-5
	c34.4-17.3,92-46.2,125.6-17.8c25.8,21.8,17.2,47.6,0,98.9c-4,12.1-9.8,27.8-15.8,44.4c-11.3,30.8-24,65.7-29.4,87.3
	c-6.9,27.9-6.4,64,49.4,119.4c14.5,14.4,46.3,39.7,62.9,52.2c6.2,4.7,15,10.7,24.3,17c11.5,7.8,23.4,15.9,31.3,22.2l0,0
	c19.8,15.8,33.3,33.6,41.2,54.2c9.5,24.8,10.3,53.4,2.5,85.2c-6.2,25-22,66-34.8,99c-4.9,12.6-9.4,24.5-12.8,33.6
	c-9.8,26.8-16.2,63-5,83.9c4.7,8.7,12.2,14.2,22.9,16.8c2.5,0.6,5.2,0.9,8.2,0.9c17.1,0,41.2-10.6,52-43.2
	c17.2-52.1,19.9-89.4,13.7-190.3c-2.8-45.5-11.7-89.8-28-139.4c-2-6.2-4.5-13.8-7.2-22.1c-6.6-20.2-14.8-45.4-20.9-63.2
	c-7.4-21.8-10.4-53.6,3.4-77.6c9.9-17.1,26.7-28.1,50-32.7c10.6-2.1,31.5-3.8,52.3,7.9c20.9,11.8,35.4,33.3,42.9,64
	c6.3,25.9,16.9,65.4,27.2,103.6c9.8,36.7,19.1,71.4,25.1,95.5c10,40.4,16.5,86.3,19.8,140.5c2.9,47.7-1.3,136.5-62.5,195.4
	C1582.2,943.9,1535.4,981.7,1471.9,981.7z M1290.9,677.6c5.1,32.3,23.7,140.5,48,188.6c36.8,72.7,77.7,88.1,109.3,93.4
	c68.2,11.5,119.7-29.8,138.7-48.1c55.4-53.3,59.1-135.5,56.4-179.7c-3.2-52.9-9.5-97.7-19.3-136.9c-6-24-15.7-60.2-25.1-95.2
	c-10.3-38.3-20.9-77.9-27.3-104c-15.4-62.9-58.9-59.5-71.9-57c-17.3,3.4-29.6,11.2-36.5,23.1c-10.5,18.2-7.5,44.3-1.8,61.1
	c6.1,18,14.3,43.2,20.9,63.5c2.7,8.3,5.2,15.9,7.2,22.1c16.8,51.2,26,97.1,28.9,144.4c6.4,104,3.5,142.8-14.7,197.8
	c-16.9,51-60.4,61.1-83.8,55.5c-16.4-3.9-28.4-12.9-35.9-26.7c-18.1-33.6-1.7-85.2,3.8-100.2c3.4-9.3,8-21.2,12.9-33.9
	c12.5-32.5,28.1-72.9,34-96.6c12.5-50.3,0.4-89.2-36.8-118.9l0,0c-7.3-5.8-18.9-13.7-30.1-21.3c-9.5-6.5-18.5-12.6-25.1-17.6
	c-17.7-13.4-49.6-38.8-64.9-54c-26.8-26.6-43.9-51.2-52.3-75.3c-7.2-20.8-8-40.9-2.5-63.1c5.6-22.7,18.6-58.1,30-89.4
	c6-16.4,11.7-31.9,15.6-43.8c17.9-53.8,20.2-65.3,6-77.3c-23.5-19.9-75.7,6.3-103.7,20.4c-3.7,1.9-7.2,3.6-10.3,5.1
	c-37.3,17.9-74.6,26.4-113.8,26c-78.6-0.9-111.4,2.2-146,6.3c-37.3,4.4-61.5,6.7-82.8,8.7c-6.1,0.6-12.1,1.1-18.1,1.7
	c-130.2,12.8-178.1,4.9-244.4-6.1c-68.3-11.3-116.1-19.8-120.7-20.6c-26.5-2.8-27.8,9.1-28.7,16.1c-4.1,35.1,61.4,49.1,89.3,55.1
	c1.5,0.3,2.9,0.6,4.2,0.9c93.4,20.3,156.3,30.4,206.8,38.6c33.7,5.4,62.9,10.1,93.6,16.5c15.9,3.3,35.5,7.2,56.3,11.3
	c75.6,15,169.7,33.7,227.2,51.6c54.6,17,98.8,45.7,131.4,85.3c33,40.1,46.5,82.5,52.1,111C1275.2,555.4,1290,670.9,1290.9,677.6z"/>
</svg>
