<?xml version="1.0" encoding="utf-8"?>
<!-- Generator: Adobe Illustrator 24.0.1, SVG Export Plug-In . SVG Version: 6.00 Build 0)  -->
<svg version="1.1" id="Short__Config" xmlns="http://www.w3.org/2000/svg" xmlns:xlink="http://www.w3.org/1999/xlink" x="0px"
	 y="0px" viewBox="0 0 1920 1080" style="enable-background:new 0 0 1920 1080;" xml:space="preserve">
<style type="text/css">
	.st0{fill:#FFFFFF;}
</style>
<title>active</title>
<path class="st0" d="M1471.9,981.7c-8.7,0-17.7-0.7-27-2.3c-36.2-6.1-83-23.5-123.8-104.1c-25-49.4-43.3-152.6-50-194.7
	c-0.6-3.7-1.3-7.8-2.1-12.2c-4.7-26.1-11.8-65.7-0.6-105.9l0,0c6.4-22.8,27-52.4,57.1-63.4c18.4-6.7,48.4-9.3,86.4,16.6
	c17.1,11.7,31,29.8,39.1,51c9.9,26.1,11,55.2,3.2,86.7c-6.2,25-22,66-34.8,99c-4.9,12.6-9.4,24.5-12.8,33.5
	c-9.8,26.8-16.2,63-5,83.9c4.7,8.7,12.2,14.2,22.9,16.8c16.5,4,47.5-4,60.2-42.3c17.2-52.1,19.9-89.4,13.7-190.3
	c-2.8-45.5-11.7-89.8-28-139.4c-2-6.2-4.5-13.7-7.2-22c-6.6-20.3-14.8-45.5-20.9-63.4c-7.4-21.8-10.4-53.6,3.4-77.6
	c9.9-17.1,26.7-28.1,50-32.7c10.6-2.1,31.5-3.8,52.3,7.9c20.9,11.8,35.4,33.3,42.9,64c6.3,25.9,16.9,65.3,27.2,103.5
	c9.8,36.7,19.2,71.4,25.2,95.6c10,40.3,16.5,86.3,19.8,140.5c2.9,47.7-1.3,136.5-62.5,195.4C1582.2,943.9,1535.4,981.7,1471.9,981.7
	z M1287.6,568c-10,35.8-3.6,71.1,1,96.9c0.8,4.5,1.6,8.7,2.2,12.6c5.1,32.1,23.6,140.5,48,188.8c36.8,72.7,77.7,88.1,109.3,93.4
	c8.1,1.4,16,2,23.6,2c56.4,0,98.4-34,115.1-50.1c55.4-53.3,59.1-135.5,56.4-179.7c-3.2-52.9-9.5-97.7-19.3-136.9
	c-6-24-15.7-60.2-25.1-95.2c-10.3-38.3-20.9-77.9-27.3-103.9c-15.4-62.9-58.9-59.5-71.9-57c-17.3,3.4-29.6,11.2-36.5,23.1
	c-10.5,18.2-7.5,44.3-1.8,61.1c6.1,18,14.4,43.3,21,63.6c2.7,8.2,5.1,15.8,7.2,21.9c16.8,51.2,26,97.1,28.9,144.4
	c6.4,104,3.5,142.8-14.7,197.8c-14.2,42.9-47.3,56.8-71.4,56.9c-4.5,0-8.7-0.5-12.4-1.4c-16.4-3.9-28.4-12.9-35.9-26.7
	c-18.1-33.6-1.7-85.2,3.8-100.2c3.4-9.3,8-21.2,12.9-33.9c12.5-32.5,28.1-72.9,34-96.6c14.6-58.8-9.3-99.5-34.2-116.4
	c-24.9-17-47.9-21.8-68.3-14.3C1307.2,527.2,1291.8,552.9,1287.6,568L1287.6,568z"/>
</svg>
