<?xml version="1.0" encoding="utf-8"?>
<!-- Generator: Adobe Illustrator 25.0.1, SVG Export Plug-In . SVG Version: 6.00 Build 0)  -->
<svg version="1.1" id="Oval" xmlns="http://www.w3.org/2000/svg" xmlns:xlink="http://www.w3.org/1999/xlink" x="0px" y="0px"
	 viewBox="0 0 1920 1080" style="enable-background:new 0 0 1920 1080;" xml:space="preserve">
<style type="text/css">
	.st0{fill:#FFFFFF;}
</style>
<path class="st0" d="M301.8,742.3c-42.5,0-101.6-3.6-153-34.4l-0.2-0.1c-79.7-50-93-117.7-99.4-150.2l-0.6-3.2
	c-7.2-35.9-1.5-128.3,61.8-185c65.2-58.4,102.4-64,184.7-64l160-0.1c236,0,1104.3,0.1,1113,0.1c7.2,0,14.5-0.1,21.6-0.2
	c43.6-0.5,88.6-1.1,131.7,17.7c43.5,19,81.1,52.8,103.2,92.7c26.4,47.8,36,100.9,27.1,149.4c-8.2,43.7-30.7,84.3-63.4,114.4
	c-34.8,32-82.3,54.1-130.2,60.7c-8.3,1.2-16.9,1.8-25.3,1.8H335.3c-4.1,0-8.7,0.1-13.7,0.1C315.6,742.2,308.9,742.3,301.8,742.3z
	 M161.3,687.4c54.1,32.3,120.4,31.3,160,30.7c5-0.1,9.8-0.2,14.1-0.2h1297.3c7.3,0,14.8-0.6,22.1-1.6c43.3-5.9,86-25.8,117.3-54.6
	c28.9-26.6,48.8-62.5,56.1-101.1c7.9-43-0.8-90.4-24.6-133.4c-19.5-35.4-53-65.4-91.8-82.3c-38.3-16.7-78.9-16.2-121.8-15.7
	c-7.2,0.1-14.6,0.2-21.9,0.2h0c-8.7,0-877.1-0.1-1113-0.1l-160,0.1c-78.7,0-109.2,4.5-168.7,57.8c-55,49.3-60.3,132.2-54.2,162.4
	l0.7,3.3C78.9,584.4,90.5,642.9,161.3,687.4z"/>
</svg>
