<?xml version="1.0" encoding="utf-8"?>
<!-- Generator: Adobe Illustrator 25.0.0, SVG Export Plug-In . SVG Version: 6.00 Build 0)  -->
<svg version="1.1" id="RX_Active" xmlns="http://www.w3.org/2000/svg" xmlns:xlink="http://www.w3.org/1999/xlink" x="0px" y="0px"
	 viewBox="0 0 1920 1080" style="enable-background:new 0 0 1920 1080;" xml:space="preserve">
<style type="text/css">
	.st0{fill:#FFFFFF;}
</style>
<path class="st0" d="M1738.3,545.4c-2.8-15.1-11.1-28-26.2-40.7c-13.1-11-29.8-15.5-48.4-13.2c-13.8,1.8-28.1,7.4-39.2,15.4
	c-8.7,6.2-16.2,18.2-26.6,34.9c-12.8,20.4-28.8,45.8-52.5,68.8c-39.9,38.7-68.6,39.2-104.5,27c-35.1-11.9-51.7-59.5-67-111.3
	c-13.4-45.4-43.6-185-61.6-268.3c-4.2-19.3-7.8-36-10.2-47c-14.6-66.2-71.1-66.2-112.4-66.2c-12.2,0-28.8,0.1-48,0.1
	c-49,0.2-116.2,0.4-169.9-0.1c-35.3-0.3-61.4,5.9-79.8,19.1c-16.9,12.1-23.7,27.6-28.2,37.9c-10.5,24.1-10.7,107.2-6.8,155.5
	c4.5,55.7,51.7,93.6,94.3,110.5c11,4.4,28.8,9,50.6,13.6c1.1,0.8,2.4,1.4,3.8,1.8l175.3,39.2l0.7,0.1c0.3,0,31.5,5.1,63.1,28.7
	c41.9,31.4,64.8,79.5,68,142.8l-3.4,98.8l0,0.3c0,11.3,3.7,20.7,11,28c11.7,11.6,30.5,15.4,48.4,16.7c-0.7,15.7-3.4,30.7-10.2,42.3
	c-5.8,9.9-16.2,16.9-26.7,23c-52.6,30.8-119.7,37.8-189.6,42.7c-50.8,3.6-102.6,3.5-152.8,3.4c-8.2,0-16.4,0-24.5,0
	c-5.5,0-10,4.5-10,10s4.5,10,10,10c8.2,0,16.3,0,24.5,0c8,0,16.1,0,24.2,0c42.9,0,86.7-0.4,130-3.5c72.3-5.1,141.9-12.3,198.3-45.3
	c12.8-7.5,25.8-16.4,33.9-30.2c8.8-15.1,12.1-33.3,13-51.9c1.7,0,3.3,0,4.9,0c5.1,0,9.5,0,12.7,0.2c3.3,0.2,8,0.5,13.5,0.5
	c22.3,0,57.5-4.6,67.9-38.1c7.3-23.4,20.6-36.9,53.1-51.5c20.5-7,42.2-15.8,68.4-28.6l0.3-0.2c0.7-0.4,17.5-9.5,50.3-32.2
	c35-24.3,47.9-46.1,67.3-86.9C1737.7,579.6,1741.3,561.3,1738.3,545.4z M1329.3,793.2l3.5-99.5l0-0.4
	c-1.9-38.4-10.8-72.4-26.4-100.9c-12.6-23-29.6-42.5-50.4-58c-2.9-2.2-5.8-4.2-8.7-6c41.7,15.9,64.8,43.3,73,66.6
	c3.3,9.5,5.5,17.1,8,25.9c4.6,16.1,10.2,36,25.8,76.1c0,0,0,0,0,0c7.7,28.9,10.7,59.9,12.6,86.4c0.2,2.5,0.4,5.1,0.6,7.8
	c0.6,8.4,1.3,17.4,1.6,26.4c-13.6-1-27.3-3.8-34.3-10.7C1331,803.3,1329.4,799,1329.3,793.2z M1468.8,794.7
	c-5.8,18.6-24.7,25.9-61.2,23.7c-3.9-0.2-8.5-0.2-13.9-0.2c-1.5,0-3.1,0-4.8,0c-0.3-9.9-1.1-19.6-1.7-28.6c-0.2-2.6-0.4-5.2-0.6-7.7
	c-0.8-11.4-1.8-23.6-3.3-36.2c16.8,16.8,37.9,25.3,63.3,25.3c11.3,0,23.4-1.7,36.3-5c0.2-0.1,0.4-0.1,0.7-0.2
	C1477.2,774,1472.3,783.4,1468.8,794.7z M1709.3,592.7c-18.6,39.2-29.4,57.4-60.7,79.1c-30.1,20.9-46.6,30-48.2,30.9
	c-16.3,8-30.7,14.3-44.2,19.6c-1.4-0.1-2.7,0.1-4.1,0.7c-6.5,2.5-12.6,5-18.3,7.5c-18.6,6.3-36.3,11.1-55.9,16.1
	c-51.4,13.2-84.3-3.5-103.5-52.6c-16.5-42.2-22-61.6-26.9-78.7c-2.5-8.7-4.8-16.9-8.3-27c-11.8-33.9-49.4-74.9-119.5-88.5
	c-20.9-4.1-49.6-8.9-80.1-14c-68-11.4-152.5-25.6-180.8-36.8c-37-14.7-77.9-47-81.7-93.5c-4.2-51.2-2.8-127.7,5.2-145.8
	c8.3-19,19.7-45,87-45c0.8,0,1.6,0,2.4,0c53.8,0.5,121,0.3,170.1,0.1c19.2-0.1,35.8-0.1,47.9-0.1c18.5,0,41.6,0,59.1,7
	c18.1,7.2,28.8,21,33.8,43.5c2.4,11,6,27.6,10.2,46.9c18.1,83.6,48.4,223.6,62,269.7c16.8,57.1,35.5,109.7,79.7,124.7
	c14.6,4.9,28.6,8.1,42.8,8.1c25.7,0,51.8-10.4,82-39.7c25.4-24.6,42.8-52.3,55.5-72.5c8.5-13.6,15.9-25.3,21.4-29.3
	c14.4-10.4,43.1-19.8,63.1-3.1C1719,536.5,1727.5,554.4,1709.3,592.7z"/>
</svg>
