<?xml version="1.0" encoding="utf-8"?>
<!-- Generator: Adobe Illustrator 25.0.0, SVG Export Plug-In . SVG Version: 6.00 Build 0)  -->
<svg version="1.1" id="RX" xmlns="http://www.w3.org/2000/svg" xmlns:xlink="http://www.w3.org/1999/xlink" x="0px" y="0px"
	 viewBox="0 0 1920 1080" style="enable-background:new 0 0 1920 1080;" xml:space="preserve">
<style type="text/css">
	.st0{fill:#FFFFFF;}
</style>
<path class="st0" d="M1794.8,606.9c-0.2-3.7-0.2-12.6-0.2-22.9c0-8.4,0.1-17.8,0-26.5c0.4-4.6,0-9.3-0.3-13.6
	c-0.2-4.1-0.4-7.7-0.8-10.5c0-0.1,0-0.1,0-0.2c-0.5-5.4-1.1-10.9-2-16.2c-3.7-21.9-11.5-39.5-23-52c-2.7-3-5.7-5.8-9-8.3
	c-31.6-24.3-79.4-38.7-83.7-40c-34.2-12.5-82.7-29.5-120.2-40c-13.4-3.7-26.3-4.8-38.3-3.1c-19.4,2.9-36.8,12.9-49,28.2
	c-15.2,18.8-21.7,47.9-15.8,70.7c1.5,5.8,4.1,10.9,6.7,15.8c2,3.8,3.9,7.4,5,11c1.6,4.9,1.2,7.9-1.3,11.5
	c-10.2,14.6-12.8,18.8-14.5,25.9c-2.9,12,4.6,17.7,13.2,22.1c4.3,2.2,11.4,5,18.9,8c9.6,3.8,20.4,8,26.1,11.3
	c8.2,4.8,13.6,13.2,20.4,23.9c0.6,1,1.3,2,1.9,3c4.5,7.1,10.4,15.9,16.6,25.2c4.7,7.1,9.6,14.4,14.1,21.1
	c6.8,10.4,20.9,19.4,32.5,19.4c2.5,0,5-0.4,7.2-1.4c0.7-0.3,1.5-0.7,2.4-1.3c2,5.9,3.2,10.6,3.5,14.4c0.2,2.8,0.5,12-4.1,14.9
	c-2.4,1.5-10.1,3.7-31-8.3l-42.7-24.3c-3.6-2.1-8.2-0.8-10.2,2.8s-0.8,8.2,2.8,10.2l42.7,24.3c13.4,7.6,24.5,11.4,33.4,11.4
	c5,0,9.3-1.2,13-3.5c8.1-5.1,12-15.3,11.1-28.6c-0.7-9.6-4.8-20.7-12.1-39.1c0-0.2-0.1-0.4-0.1-0.6l-0.1-0.6l-0.2-0.6
	c-0.2-0.4-18.5-44.2-28.3-74.6c-8.3-25.8-15-33-28.1-47.3c-3.6-3.8-7.6-8.2-12.3-13.7l-3.8-3.6c-10.3-9.7-29.6-27.8-32.8-34.4
	c-7.4-15.3-6-27.6,4.4-37.7c14-13.5,37.9-12.1,52.9-3c5,3.1,8.6,6.3,12.4,9.6c8.2,7.3,16.6,14.9,37.3,18.3
	c4.8,0.8,10.1,1.6,15.7,2.4c25.9,3.9,58.2,8.7,75.2,20.6c17.5,12.3,30.3,40.2,29.2,63.6c0,0.9-0.1,1.9-0.2,2.8
	c-0.1,0.7-0.1,1.4-0.2,2.1c-2.7,30.3-3.3,40.4-3.6,50.2c0,1.1-0.1,2.3-0.3,3.5c-0.4,4.7-1,10.5,2.1,16.2
	c5.2,9.7,16.9,12.6,23.2,14.1c17.4,4.2,18.1,4.4,21.3,4.3c0.8,0,1.8-0.1,4.8,0.2c0.7,0.1,1.4,0.1,2.1,0.1c5.7,0,9.2-2.2,11.3-4.2
	C1795.4,624.8,1795.4,616.1,1794.8,606.9z M1708.6,465.2c-19.9-14-54.1-19.1-81.6-23.2c-5.5-0.8-10.8-1.6-15.5-2.4
	c-16.4-2.8-22.3-8-29.8-14.7c-3.9-3.5-8.4-7.5-14.6-11.3c-19.6-11.9-51.1-14.2-71.1,5c-15.1,14.5-17.7,34-7.6,55
	c4.1,8.4,18.7,22.6,36,38.8l3,2.8c4.8,5.5,8.8,9.9,12.4,13.8c12.4,13.4,17.5,19,24.9,41.7c3.4,10.5,7.7,22.4,11.9,33.5
	c0.1,0.2,0.1,0.4,0.2,0.6c5.3,14,9.9,25.4,14,35.5c0.9,2.3,1.8,4.4,2.6,6.5c1.3,6.5,0.1,8.7-0.2,8.8c-3.6,1.5-15.9-4.3-21.2-12.5
	c-4.5-6.8-9.4-14.1-14.1-21.2c-6.2-9.2-12-18-16.5-24.9c-0.7-1-1.3-2-1.9-3c-7.3-11.4-14.1-22.1-25.5-28.8
	c-6.6-3.9-17.6-8.2-28.1-12.3c-7.2-2.8-13.9-5.5-17.6-7.3c-4.3-2.2-5.4-3.4-5.7-3.8c0-0.2,0-0.6,0.2-1.5c1-4.2,2.2-6.4,12.2-20.8
	c5.2-7.4,6.2-15.3,3.3-24.6c-1.5-4.8-3.8-9.2-6-13.4c-2.3-4.4-4.4-8.5-5.5-12.6c-4.7-18.3,0.7-42.5,13-57.6
	c9.9-12.4,23.9-20.4,39.5-22.7c10-1.4,20.8-0.5,32.2,2.7c37.1,10.4,85.4,27.3,119.4,39.7l0.5,0.2c0.5,0.1,48.8,14.3,79,37.5
	c2.5,1.9,4.9,4.1,7.1,6.5c9.6,10.4,16,25.4,19.3,44.4c1.1,6.7,1.9,13.6,2.2,20.4c0.1,1.5,0.2,3.1,0.4,4.8c0,0.1,0,0.2,0,0.3
	c0.1,3.6,0.2,7.5,0.3,11.8c-0.2,2.1-0.7,4.1-1.5,5.8l-0.1,0.2c-0.3,0.6-0.7,1.2-1.3,1.6c-0.4,0.3-1.8,0.8-5.4,0
	c-1.9-0.4-3.9-0.8-5.8-1.2c-5.5-1.1-10.7-2.2-15.4-4.2c-2.9-1.3-5.1-3.2-5.9-5.2c-0.7-1.7-0.7-4.1-0.5-6.7c0-0.6,0.1-1.1,0.1-1.7
	c0-0.3,0-0.5,0-0.8c0.1-0.9,0.1-1.8,0.2-2.7C1745.6,513.3,1730.3,480.4,1708.6,465.2z M1779.3,619.5c-0.2,0-0.7,0.1-1.6,0
	c-3.8-0.3-5.5-0.3-6.6-0.3c-1.1,0-2.2-0.2-17.3-3.9c-3.7-0.9-11.5-2.8-13.6-6.6c-1-1.8-0.7-4.5-0.4-7.7c0.1-1.4,0.3-2.9,0.3-4.5
	c0.2-6.3,0.6-12.7,1.5-25.1c0.8,0.4,1.6,0.8,2.5,1.2c6.1,2.6,12.3,3.9,18.3,5.1c1.8,0.4,3.7,0.7,5.5,1.2c4.4,1,8.2,1,11.6,0.2
	c0,1.6,0,3.2,0,4.7c0,11-0.1,19.6,0.2,23.9C1780.3,614.3,1780.1,618.2,1779.3,619.5z"/>
</svg>
