<?xml version="1.0" encoding="utf-8"?>
<!-- Generator: Adobe Illustrator 25.0.1, SVG Export Plug-In . SVG Version: 6.00 Build 0)  -->
<svg version="1.1" id="Jump_Trucks_Configs" xmlns="http://www.w3.org/2000/svg" xmlns:xlink="http://www.w3.org/1999/xlink"
	 x="0px" y="0px" viewBox="0 0 1920 1080" style="enable-background:new 0 0 1920 1080;" xml:space="preserve">
<style type="text/css">
	.st0{fill:#FFFFFF;}
</style>
<path class="st0" d="M1359.6,452.5c-9.7-29.6-25.7-56-47.4-78.4c-14.3-14.8-58.7-34.1-104.8,0.8c-62.6,47.3-136.1,120.5-207.1,191.2
	c-3.3,3.3-6.6,6.5-9.8,9.8l-4.8-4.8v-6c0-0.8-0.7-1.5-1.5-1.5s-1.5,0.7-1.5,1.5v6.6c0,0.2,0,0.4,0.1,0.5c0,0,0,0,0,0
	c0.1,0.2,0.2,0.4,0.3,0.5l5.2,5.2c-4.2,4.2-8.5,8.4-12.6,12.6C921.9,538.4,869.1,482.6,796,401.8c-37-40.9-69.2-46.8-89.6-44.5
	c-23.2,2.6-38.6,16-44.6,26.7c-43.9,77.8-53.1,149.8-27.5,214.2c16.5,41.4,47.5,79,92,111.7l0,0c45.3,33.2,107.6,35.8,133.1,15.8
	c32.3-25.3,72.7-64,116.5-107.3c34.5,32.9,70.2,65.1,112.5,101.9c15.9,13.9,40.6,21.1,70,21.1c10.3,0,21.2-0.9,32.4-2.7
	c40.8-6.5,82.2-24.4,110.7-47.8c38.2-31.4,65.1-91.8,68.7-153.9C1371.9,507.5,1368.3,479,1359.6,452.5z M847.1,710
	c-8.3,6.5-25.9,9.6-44.8,7.9c-23-2.1-45.8-10.6-64.1-24.1l0,0c-105.6-77.6-126-181.3-59-299.9c2.8-4.9,12.5-14.8,29.4-16.7
	c15.8-1.8,41.2,3.4,72.6,38c73.4,81,126.4,137.1,180.3,189.3C918.3,647.3,878.5,685.4,847.1,710z M1350.3,535.9
	c-3.2,55.9-27.9,112-61.4,139.6c-55.3,45.5-151.6,60.8-187.3,29.7c-41.9-36.4-77.2-68.3-111.4-100.9c4.1-4.1,8.2-8.2,12.4-12.3
	l5.2,5.2c0.1,0.1,0.3,0.2,0.5,0.3c0,0,0,0,0,0c0.2,0.1,0.4,0.1,0.5,0.1h6.6c0.8,0,1.5-0.7,1.5-1.5s-0.7-1.5-1.5-1.5h-6l-4.8-4.8
	c3.3-3.2,6.5-6.5,9.8-9.8c70.6-70.3,143.5-143,205-189.4c35.1-26.5,68.5-13,78.3-2.8C1345.3,437.1,1352.6,495.5,1350.3,535.9z"/>
</svg>
