<?xml version="1.0" encoding="utf-8"?>
<!-- Generator: Adobe Illustrator 24.0.1, SVG Export Plug-In . SVG Version: 6.00 Build 0)  -->
<svg version="1.1" id="_Legends_Oval_Config" xmlns="http://www.w3.org/2000/svg" xmlns:xlink="http://www.w3.org/1999/xlink"
	 x="0px" y="0px" viewBox="0 0 1920 1080" style="enable-background:new 0 0 1920 1080;" xml:space="preserve">
<style type="text/css">
	.st0{fill:#FFFFFF;}
</style>
<title>active</title>
<path class="st0" d="M1083.7,838.6L1083.7,838.6c-48.2-0.9-167.4-2.6-234.2,0c-13.3,0.5-26.5,6.5-36.1,16.4
	c-8.4,8.6-18.4,24.6-18.8,52.1c-0.2,12.3,5.4,27.2,14.6,38.8c11.5,14.6,27.6,23,45.4,23.8c29.7,1.3,70.1,2,110.8,2
	c40.7,0,81.7-0.7,112.5-2c8.5-0.4,25-2.7,39.2-14.1c10.4-8.3,22.8-24.5,22.7-53.9C1139.8,876.7,1124.9,839.3,1083.7,838.6z
	 M1077,949.7c-61.2,2.6-162.7,2.6-221.6,0c-27.2-1.2-41.1-28.2-40.9-42.4c0.5-35,19.5-48.2,35.7-48.8c26-1,60-1.4,94.7-1.4
	c53.8,0,109.2,0.8,138.4,1.4h0c36.1,0.6,36.5,42.7,36.5,43.2C1119.9,943.4,1089.9,949.2,1077,949.7z"/>
</svg>
