<svg id="National_B_-_Config" data-name="National B - Config" xmlns="http://www.w3.org/2000/svg" viewBox="0 0 1920 1080"><defs><style>.cls-1{fill:#fff;}</style></defs><path class="cls-1" d="M1291.56,398.68c-.83-3.16-4.13-10.42-16.6-9.51a101.9,101.9,0,0,0-13.55,2.38c-1.19.26-2.39.53-3.56.77a521.43,521.43,0,0,1-53,8.74,423.18,423.18,0,0,1-45.64,2.83,445.31,445.31,0,0,1-47.25-2.4c-18.66-1.71-37.79-4.36-56.87-7.88-27.92-5.14-49-11-61.6-14.47-17.33-4.8-29.86-8.27-47-14.62-13.42-5-26.74-11.1-53.34-23.29-20.29-9.3-30.47-14-40.74-19.15-9.57-4.84-12.69-6.67-20.21-11.09-6.61-3.87-16.58-9.73-37-21.16L793,288.59c-17-9.53-24.78-13.88-33.58-23.3-5.47-5.86-10.63-11.39-13-19.88-.68-2.41-.71-3.34-.77-8.48,0-4-.11-10.1-.65-20.24-.91-16.78-1.87-21.86-3.7-26.88-2.08-5.73-5.29-10.66-11.69-20.49-4.46-6.85-8.13-11.93-14.86-14.83A28,28,0,0,0,699,152.68c-11.25,1.78-18.13,9.32-21.43,12.95l-.17.19a129.25,129.25,0,0,1-11.08,10.31,126,126,0,0,0-14.75,14.22c-6.66,7.94-23.74,25.9-57.81,61.76-4,4.23-17.54,17.76-44.49,44.71-14.88,14.88-24.44,24.41-30.9,30.83-11.49,11.45-13.25,13.2-17.59,17.89-12.36,13.37-33.06,35.75-55,69.07-15,22.76-28.43,47.21-37.84,68.84-13.95,32.06-11.58,39.68-10.8,42.19,7,22.54,60.73,132.7,92.94,196.85,8.5,16.92,22.95,46.73,38,79.67,4.58,10,9.71,19.77,14.68,29.23,5.75,10.92,11.68,22.22,16.59,33.63a158.5,158.5,0,0,0,26,41.24c7,7.93,15.11,15.73,27.61,19.07a48.64,48.64,0,0,0,12.57,1.61,58.22,58.22,0,0,0,10-.91c8.25-1.39,14.3-4.25,24.76-10.15a361.44,361.44,0,0,0,39.39-25.69c8.63-6.43,14.65-11.25,19.48-19.45,2-3.36,6.61-11.24,6.55-22,0-8-2.66-14-7.78-23.17-5.74-10.2-10.81-17.46-20-29.89-13.49-18.19-16.53-21.56-21.47-25.33-5.33-4.06-10.52-6.64-19.94-11.33-3.22-1.6-5.92-2.85-8.54-4.06a132.06,132.06,0,0,1-15.36-8,41.87,41.87,0,0,1-8.33-6.22,39.18,39.18,0,0,1-6.78-9.37c-4.3-7.91-6.26-14.58-8.54-22.3l-.32-1.09c-3.07-10.39-5.1-16.67-6.58-21.26-2.14-6.62-2.86-8.85-3.81-14.56-2.33-13.86-.89-17.71-.34-19.16a23.59,23.59,0,0,1,18.88-15,21.59,21.59,0,0,1,10,.11c2.87.81,4.78,2.12,7.91,4.35A49.74,49.74,0,0,1,644,651c19.94,24.17,30.93,37.49,33.43,41a173.69,173.69,0,0,0,14.5,18.1c4.45,4.95,10.54,11.74,24.77,29.76,3.64,4.6,6.79,8.65,9.63,12.3C737.35,766.4,744,775,756.45,786.76c16.88,16,26.42,20.75,34.22,23.5,13.29,4.7,27.74,5.68,43,2.91,10.46-1.9,19.27-5.7,39.28-16.95,24.54-13.8,39.72-24,40.35-24.43,14.86-10,19.8-13,26-16.76,7-4.24,15.74-9.52,41.89-26.86,28.16-18.68,42-28.44,55.39-37.89,12.5-8.82,24.31-17.15,46.93-32.1l3.22-2.13c6.18-4.09,8-5.32,11.42-7.47a34.54,34.54,0,0,0,8.1-7.11c4.4-5.31,6.61-10.4,8.75-15.32.43-1,.87-2,1.34-3,3.18-7.06,8-17.73,7.08-31.24-.83-12.28-6-21.09-12-31.29a71.26,71.26,0,0,0-8.36-11.77,27.16,27.16,0,0,1-4.28-6.23c-4.33-8.29-5.2-15.44-6.93-29.69-.55-4.47-.49-13.4-.38-29.61,0-2.85.07-9.54,1.13-10.43a2.81,2.81,0,0,1,1.41-.56c26.8,2.57,55.07,6.89,80,10.7,8.06,1.24,15.68,2.4,22.57,3.4l8.51,1.24c6.63,1,14.84,2.17,23.63,3.42,6.14.88,12.56,1.78,18.91,2.65,11.48,1.6,20.37-.27,27.2-5.71,8.36-6.66,12.79-17.88,14.37-36.37h0C1289.62,447.3,1293.58,406.35,1291.56,398.68Zm-22.26,50.88,0,.37c-1,12.05-3.35,19.6-6.91,22.43-.85.68-3.43,2.74-12,1.54h0c-6.31-.87-12.69-1.76-18.8-2.63-8.76-1.25-17-2.45-23.56-3.42l-8.54-1.25c-6.81-1-14.39-2.14-22.41-3.37-24-3.67-53.89-8.23-81.29-10.85a22.52,22.52,0,0,0-16.08,5.21c-8.08,6.83-8.15,17.22-8.21,25.56-.12,18.14-.18,26.42.52,32.17,1.83,15.07,3,25,9.07,36.54a46.15,46.15,0,0,0,6.82,10,53.16,53.16,0,0,1,6.31,8.91c5.48,9.31,8.79,14.94,9.31,22.49.57,8.51-2.58,15.49-5.36,21.65-.51,1.13-1,2.23-1.45,3.3-1.87,4.3-3.22,7.41-5.81,10.53a14.51,14.51,0,0,1-3.44,3c-3.52,2.24-5.59,3.61-11.71,7.66l-3.21,2.12c-22.88,15.12-34.81,23.54-47.44,32.45-13.27,9.36-27,19-54.91,37.56-25.8,17.11-34.33,22.27-41.18,26.41-6.23,3.76-11.61,7-26.88,17.3-.15.1-15.21,10.21-39,23.57-19.57,11-26,13.43-33.06,14.71-4.37.8-17.69,3.22-32.71-2.09-5.71-2-13-5.73-27.12-19.16-11.32-10.73-17.29-18.41-28.15-32.35-2.86-3.69-6-7.77-9.71-12.42-14.62-18.51-21-25.57-25.59-30.73a154,154,0,0,1-13.14-16.41c-2.89-4-12.72-15.93-34.24-42a70.08,70.08,0,0,0-13.07-12.11c-3.44-2.46-7.73-5.53-14.09-7.32a40.77,40.77,0,0,0-19-.56A43.51,43.51,0,0,0,579.14,646c-2,5.37-3.5,12.66-.67,29.51,1.2,7.16,2.24,10.36,4.51,17.39,1.45,4.49,3.43,10.64,6.43,20.79l.32,1.07c2.38,8.08,4.84,16.43,10.15,26.2a58.6,58.6,0,0,0,10.22,14,61.37,61.37,0,0,0,12,9.11,150.45,150.45,0,0,0,17.43,9.12c2.48,1.15,5.05,2.34,8,3.81,8.87,4.42,12.92,6.43,16.73,9.34,2.59,2,4.54,3.81,17.53,21.33,8.69,11.73,13.45,18.52,18.65,27.78,4.44,7.91,5.2,10.55,5.22,13.49,0,5.22-2.46,9.44-3.79,11.7-2.52,4.29-5.3,6.94-14.18,13.55a340.45,340.45,0,0,1-37.28,24.32c-9.58,5.41-13.34,7-18.25,7.85a33,33,0,0,1-14.09-.3c-6-1.61-11-5.23-17.73-12.93a140,140,0,0,1-22.66-36c-5.19-12.06-11.31-23.7-17.23-35-4.85-9.21-9.86-18.74-14.2-28.24-15.18-33.18-29.75-63.25-38.32-80.33C475,648,423.69,542.29,416.46,520.45c.37-7.85,14.35-46.79,46-94.84,21.05-31.95,41.05-53.57,53-66.49,4.06-4.38,5.79-6.1,17-17.29,6.47-6.44,16-16,30.94-30.87,27.06-27.07,40.65-40.66,44.89-45.13,34.3-36.09,51.52-54.21,58.58-62.62,3.53-4.21,7.89-8,12.49-11.93a145.38,145.38,0,0,0,12.8-12l.17-.2c2.17-2.38,5.45-6,9.78-6.67a8.64,8.64,0,0,1,4.69.42c.93.4,2,1.23,6,7.38,5.56,8.55,8.35,12.84,9.65,16.41.76,2.1,1.63,4.48,2.52,21.12.53,9.72.59,15.54.63,19.39.07,5.57.1,8.64,1.51,13.67,3.7,13.18,11.44,21.46,17.65,28.12,10.92,11.69,20.69,17.16,38.42,27.1l2.22,1.24c20.21,11.33,30.09,17.12,36.62,21,7.68,4.51,11.19,6.56,21.32,11.68,10.61,5.37,20.91,10.09,41.47,19.51,27,12.38,40.55,18.59,54.67,23.83,17.9,6.66,31.44,10.41,48.59,15.16,12.91,3.57,34.52,9.56,63.3,14.86,19.67,3.62,39.42,6.36,58.68,8.12a463.77,463.77,0,0,0,49.2,2.49,442.26,442.26,0,0,0,47.69-2.95,548,548,0,0,0,55-9l3.75-.82c1.89-.41,4.24-.93,6.39-1.33C1271.72,421,1270.22,442,1269.3,449.56Z"/></svg>