<svg id="Short_B_-_Config" data-name="Short B - Config" xmlns="http://www.w3.org/2000/svg" viewBox="0 0 1920 1080"><defs><style>.cls-1{fill:#fff;}</style></defs><path class="cls-1" d="M921.49,691.56c-1-9.46-8.14-15.42-10.29-17-4.68-3.49-8.89-4.13-15.87-5.19-1.74-.27-3.79-.58-6.24-1-1.35-.23-4.59-.87-8-1.56-6.41-1.28-14.39-2.87-18.87-3.51-1.58-.22-3.29-.5-5.38-.88a348,348,0,0,1-34.12-7.67,131.75,131.75,0,0,1-34-14.57,134,134,0,0,1-18.45-14c-11-9.9-17.24-18.7-24.57-28.95-20.36-28.49-27.3-38.11-30.64-42.73-3-4.19-3.09-4.27-7.51-10.62C690,518.58,684.1,510.08,681.6,506.45c-1.63-2.37-1.76-2.56-2.75-3.91-2.14-2.92-4.16-5.64-6.09-8.24C664.52,483.17,658,474.39,650,460.71c-7.19-12.23-10.1-19-12.24-25.44-3.27-9.77-4.57-18.15-5.83-26.25-2-12.8-2.78-25.29-2.79-25.42-.16-2.57-.25-4.66-.33-6.48a80.75,80.75,0,0,0-1.51-14.1,95.17,95.17,0,0,0-6-19c-1.09-2.58-3-6.5-11.42-20.49-9.73-16.1-12.36-19.44-17.59-22.34-7.69-4.27-15.58-4.48-19.81-4.59a44.78,44.78,0,0,0-17,2.46c-8.94,3.19-15.62,7.05-19.85,11.48-6.89,6.88-12.14,12.11-16.25,16.19-11.76,11.72-14.2,14.15-18.55,18.85-12.36,13.37-33.06,35.75-55,69.07-15,22.76-28.43,47.2-37.84,68.84-13.95,32.06-11.58,39.68-10.8,42.19,7,22.54,60.73,132.7,92.94,196.85,8.5,16.92,22.95,46.73,38,79.67,4.58,10,9.71,19.77,14.69,29.23,5.74,10.92,11.67,22.22,16.58,33.63a158.5,158.5,0,0,0,26,41.24c7,7.93,15.11,15.73,27.61,19.07a48.64,48.64,0,0,0,12.57,1.61,58.22,58.22,0,0,0,10-.91c8.25-1.39,14.3-4.25,24.76-10.15a361.44,361.44,0,0,0,39.39-25.69c8.63-6.43,14.65-11.25,19.48-19.45,2-3.36,6.61-11.24,6.55-22,0-8-2.66-14-7.78-23.17-5.74-10.2-10.81-17.46-20-29.89-13.49-18.19-16.53-21.56-21.47-25.33-5.33-4.06-10.52-6.64-19.94-11.33-3.22-1.6-5.92-2.85-8.54-4.06a132.06,132.06,0,0,1-15.36-8,41.87,41.87,0,0,1-8.33-6.22,39.18,39.18,0,0,1-6.78-9.37c-4.3-7.91-6.26-14.58-8.54-22.3l-.32-1.09c-3.07-10.39-5.1-16.67-6.58-21.26-2.14-6.62-2.86-8.85-3.81-14.56-2.33-13.86-.89-17.71-.34-19.16a23.59,23.59,0,0,1,18.88-15,21.59,21.59,0,0,1,10,.11c2.87.81,4.78,2.12,7.91,4.35A49.74,49.74,0,0,1,644,651c19.94,24.17,30.93,37.49,33.43,41a173.69,173.69,0,0,0,14.5,18.1c4.45,4.95,10.54,11.74,24.77,29.76,3.64,4.6,6.79,8.65,9.63,12.3C737.35,766.4,744,775,756.45,786.76c16.88,16,26.42,20.75,34.22,23.5,13.29,4.7,27.75,5.68,43,2.91,10.46-1.9,19.27-5.7,39.28-16.95l5-2.82a39.62,39.62,0,0,0,18-21.68,31.56,31.56,0,0,0,1.46-6.35,32.23,32.23,0,0,0-.52-10c-.22-1.34-.47-2.87-.71-4.85-.84-6.77-1.44-11.65-.69-15.31.25-1.21,2.72-4.57,11-15l1.88-2.36C918.33,705.37,922.46,700.2,921.49,691.56ZM892.73,705.4l-1.89,2.37c-11.07,13.92-13.73,17.43-15,23.44-1.41,6.87-.6,13.46.43,21.79.29,2.39.59,4.2.83,5.66a14.1,14.1,0,0,1,.38,4.42,11.72,11.72,0,0,1-.55,2.28,19.63,19.63,0,0,1-9,10.68l-4.84,2.74c-19.57,11-26,13.43-33.06,14.71-4.37.8-17.69,3.22-32.71-2.09-5.71-2-13-5.73-27.12-19.16-11.32-10.73-17.29-18.41-28.15-32.35-2.86-3.69-6-7.77-9.71-12.42-14.62-18.51-21-25.57-25.59-30.73a154,154,0,0,1-13.14-16.41c-2.89-4-12.72-15.93-34.24-42a70.08,70.08,0,0,0-13.07-12.11c-3.44-2.46-7.73-5.53-14.09-7.32a40.77,40.77,0,0,0-19-.56A43.51,43.51,0,0,0,579.14,646c-2,5.37-3.5,12.66-.67,29.51,1.2,7.16,2.24,10.36,4.51,17.39,1.45,4.49,3.43,10.64,6.43,20.79l.32,1.07c2.38,8.08,4.84,16.43,10.15,26.2a58.6,58.6,0,0,0,10.22,14,61.37,61.37,0,0,0,12,9.11,150.45,150.45,0,0,0,17.43,9.12c2.48,1.15,5.05,2.34,8,3.81,8.87,4.42,12.92,6.43,16.73,9.34,2.59,2,4.54,3.81,17.53,21.33,8.69,11.73,13.45,18.52,18.65,27.78,4.44,7.91,5.2,10.55,5.22,13.49,0,5.22-2.46,9.44-3.79,11.7-2.52,4.29-5.3,6.94-14.18,13.55a340.45,340.45,0,0,1-37.28,24.32c-9.58,5.41-13.34,7-18.24,7.85a33,33,0,0,1-14.1-.3c-6-1.61-11-5.23-17.73-12.93a140,140,0,0,1-22.66-36c-5.19-12.06-11.31-23.7-17.23-35-4.85-9.21-9.86-18.74-14.2-28.24-15.18-33.18-29.75-63.25-38.32-80.33C475,648,423.69,542.29,416.46,520.45c.37-7.85,14.35-46.79,46-94.84,21.05-31.95,41.05-53.57,53-66.49,4.07-4.4,6.2-6.51,18-18.25l16.36-16.31.21-.22c.71-.76,3.71-3.48,12.13-6.48a25,25,0,0,1,9.71-1.31c3,.08,7.23.19,10.63,2.08a1.92,1.92,0,0,1,.26.16c1.59,1.26,7.86,11.64,9.92,15,8.43,13.94,9.67,16.86,10.14,18A75.44,75.44,0,0,1,607.64,367a61.32,61.32,0,0,1,1.14,11c.08,1.92.18,4.12.35,6.83,0,.55.85,13.5,3,27.25,1.32,8.51,2.82,18.15,6.62,29.52,3,9.14,7,17.33,14,29.24,8.59,14.6,15.73,24.22,24,35.36,1.91,2.57,3.9,5.26,6,8.14.85,1.16.91,1.26,2.42,3.45,2.51,3.64,8.38,12.16,26,37.47,4.52,6.49,4.64,6.66,7.71,10.91,3.33,4.6,10.25,14.19,30.63,42.7,7.62,10.67,14.82,20.74,27.38,32.1a143.06,143.06,0,0,0,60.21,32.95,367.94,367.94,0,0,0,36.2,8.16c2.35.42,4.3.74,6.14,1,3.93.56,11.92,2.16,17.76,3.33,3.9.77,7,1.39,8.64,1.67,2.56.42,4.7.75,6.52,1,5,.76,6.32,1,6.93,1.45a6.9,6.9,0,0,1,2.32,3C900.76,695.33,897,700,892.73,705.4Z"/></svg>