<svg id="Bark_River_-_Config" data-name="Bark River - Config" xmlns="http://www.w3.org/2000/svg" viewBox="0 0 1920 1080"><defs><style>.cls-1{fill:#fff;}</style></defs><path class="cls-1" d="M541.91,954.89c-11.84,0-22.92-1.51-38.59-3.65-21.35-2.91-43.42-5.92-70.14-15.87-20.65-7.69-34.28-12.76-44.4-27.34-7.66-11-11.62-25-11.78-41.6-.12-12.71,2.65-22.23,5.5-30.89,7.57-23,15.38-39.92,23.65-57.83l2.1-4.56c3.92-8.52,8.39-16.8,12.7-24.81,6.92-12.83,13.46-25,17.93-37.93l.27-.78c2.78-8.13,8-23.27,22.58-30.84,8.34-4.33,17.44-5,23.6-4.78,6.48.21,12.36,1.66,21.69,5.36A193.41,193.41,0,0,1,533.13,692h.15l2.47,1.6a210.47,210.47,0,0,1,26.7,20.27,161.56,161.56,0,0,0,13.64,11c9.53,6.71,29.43,18.48,55.55,21.93,15.48,2,31.48,4.16,48.42-4.63a64.4,64.4,0,0,0,33.69-48.39c1.66-13-.9-26-7.6-38.74-7.73-14.67-18.88-22.47-25.55-27.13-14.55-10.17-27.8-13.73-50-19.15-25.44-6.21-39.08-9.14-50-11.5-10.11-2.17-18.09-3.88-30.78-7.2-50.2-13.12-67.94-23.35-79.62-32.45a144.45,144.45,0,0,1-29.42-30.87c-11.74-17-16.67-32.41-25.51-70.07-5.39-23-10.36-46.24-14.75-69.06-12.85-66.85-14.13-84-14.82-93.15-1.94-26.12-3.12-41.88,1.55-62.91,3-13.54,8.6-38.74,29-61.22,17.84-19.65,42.21-32.14,72.43-37.15,17.36-2.87,62-6.36,101,23.23,23.57,17.87,39.15,41.31,45,67.8,6.93,31.09-1.88,56.56-5.64,67.44-7.37,21.32-18.06,35-31.58,52.23a236.68,236.68,0,0,1-25.39,27.77,354,354,0,0,0-27.52,29.2c-26.28,31-28.22,40.77-29.15,45.48-1.62,8.13-3.1,24.16,5.09,40.17,3.59,7,10.18,16.53,29.51,27.94,33.29,19.65,66.51,22.79,79,24l.18,0c52,4.91,67.31,7.64,79.64,9.82,11.81,2.1,20.34,3.61,60.05,6.15.79,0,80.32,5,179.06,2a323.73,323.73,0,0,0,77-11c17.62-4.76,35.83-9.68,55-22.64,14.6-9.86,23.39-20.2,42.64-42.85,10.3-12.11,16.3-20.34,21.12-26.94,6.7-9.19,12-16.45,23.72-27.27,10.79-9.95,23-21.23,42.8-29.82,10-4.34,27.74-9.73,55.59-10.82,22.83-.88,71.91,7.72,123.88,16.83,15.45,2.71,31.43,5.52,46.65,8.05,21.57,3.6,40.67,6.36,57.52,8.79,35.63,5.15,61.38,8.87,82.32,16.22,29,10.18,43.08,24.6,53.94,38.66,13,16.86,20.88,36.94,23.36,59.69,3.42,31.41-6.25,54.87-12,68.89-15.91,38.59-41.82,61.38-62.64,79.7A297.62,297.62,0,0,1,1512.71,726a310.21,310.21,0,0,1-78.56,25.51c-45.68,8.42-80.74,4.55-108.91,1.44-31.47-3.48-65.79-12.66-134.16-31-46-12.3-69-18.46-92.52-26.15-17.49-5.73-30.46-10.43-40.87-14.22-19.83-7.2-31.79-11.55-53.77-15.44-36-6.39-63-5.18-75.93-3.9-12.49,1.25-35.74,3.57-63.81,15.28a220,220,0,0,0-50.95,30.59c-15.12,12.06-22.38,21-46.45,50.62l-8,9.88c-22.93,28.17-31,37.6-37.42,45.19-5.75,6.74-9.89,11.61-22.52,27.4h0c-1.46,1.84-15.8,18.44-60.91,70.63-8.34,9.65-18.72,21.66-36.74,30.73-18.24,9.18-35.11,10.69-46.27,11.69C550.32,954.7,546.07,954.89,541.91,954.89ZM483.36,694a27.56,27.56,0,0,0-12.42,2.57c-7.5,3.89-10.73,13.33-12.88,19.58l-.27.81c-5,14.51-12.24,27.93-19.23,40.9-4.17,7.74-8.48,15.74-12.14,23.69l-2.11,4.57c-8.37,18.13-15.6,33.8-22.81,55.7-2.42,7.37-4.59,14.78-4.5,24.45,0,4.65.18,18.81,8.22,30.39,6.28,9.06,14.73,12.47,34.94,20,24.64,9.17,44.66,11.9,65.86,14.79,22,3,32.35,4.28,47.09,3,10.22-.91,24.22-2.17,39.06-9.64,14.47-7.28,23-17.19,30.6-25.94,37.94-43.9,58.86-68.1,60.42-70h0c12.82-16,17-21,22.91-27.89,6.4-7.51,14.35-16.85,37.15-44.85l8-9.86c24.46-30.1,32.69-40.24,49.51-53.65a241.92,241.92,0,0,1,55.71-33.41c30.82-12.85,57-15.46,69.53-16.72,13.91-1.39,43-2.7,81.4,4.11,23.69,4.19,37,9,57.11,16.33,10.28,3.74,23.07,8.39,40.26,14,23,7.52,45.85,13.64,91.42,25.83,67.44,18,101.27,27.09,131.23,30.4,26.87,3,60.32,6.66,103.09-1.23A288.63,288.63,0,0,0,1504,708a277.76,277.76,0,0,0,61.78-41.18c20.26-17.83,43.23-38,57.36-72.31,5.38-13,13.51-32.77,10.64-59.1-2.08-19-8.58-35.74-19.31-49.64-8.36-10.83-19.4-23.13-44.73-32-19.11-6.7-44-10.31-78.56-15.3-17-2.45-36.16-5.22-57.94-8.85-15.31-2.55-31.33-5.36-46.82-8.08-48.65-8.53-98.94-17.35-119.65-16.55-24.75,1-40,5.53-48.41,9.18-16.68,7.24-27.11,16.87-37.19,26.18-10.29,9.49-14.6,15.4-21.13,24.35-5,6.88-11.26,15.43-22,28.11-19.85,23.36-29.81,35.08-46.68,46.48-22,14.82-42.69,20.42-61,25.36a348.1,348.1,0,0,1-81.63,11.68c-99.73,3.07-180.14-2-180.95-2-40.82-2.61-49.82-4.21-62.26-6.41-12-2.13-26.87-4.77-78-9.61l-.18,0c-13.72-1.3-50.16-4.74-87.29-26.66-18.54-10.94-30-22.06-37.16-36.06-10.93-21.39-9-42.49-6.9-53.16,2-10.18,7.47-23.83,33.51-54.53a372.57,372.57,0,0,1,28.9-30.66,215.69,215.69,0,0,0,23.52-25.7c13.34-17,22.15-28.27,28.43-46.43,3.47-10.07,10.71-31,5-56.56-4.86-21.81-17.86-41.24-37.61-56.21-32.86-24.9-70.85-21.89-85.66-19.43-9.57,1.58-38.68,6.4-60.9,30.85-16.86,18.56-21.52,39.56-24.31,52.11-3.86,17.42-3.14,30.09-1.12,57.09.65,8.79,1.87,25.15,14.51,90.86,4.34,22.56,9.25,45.53,14.59,68.27,8.87,37.82,13.07,49.64,22.49,63.27a123.42,123.42,0,0,0,25.25,26.46c6.25,4.87,19.25,15,72.38,28.88,12.27,3.2,20.06,4.88,29.93,7,11.08,2.38,24.88,5.35,50.58,11.63,23.78,5.8,39.24,10,56.69,22.18,7.62,5.32,21.79,15.23,31.79,34.2,8.65,16.43,11.93,33.45,9.74,50.6a84.7,84.7,0,0,1-44.32,63.61c-22.53,11.68-43.44,8.92-60.24,6.7-30.37-4-53.42-17.64-64.45-25.4A178.53,178.53,0,0,1,549.35,729a191.14,191.14,0,0,0-24.43-18.56A163.39,163.39,0,0,0,499.65,698c-8-3.18-11.47-3.85-15-4ZM691,835h0Z"/></svg>