<svg id="IndyCar_2012-2018_-_Config" data-name="IndyCar 2012-2018 - Config" xmlns="http://www.w3.org/2000/svg" viewBox="0 0 1920 1080"><defs><style>.cls-1{fill:#fff;}</style></defs><path class="cls-1" d="M560.09,833.42c-25.46,0-52.25-7.76-81.62-23.62-32.05-17.3-73.39-41.79-98.31-58.23-1.42-.94-4.06-2.61-7.39-4.74-47.57-30.25-103.51-67.75-114.09-89.45-5.93-12.16-3-20.6.42-25.54,11.68-16.67,45.37-13.63,49.17-13.23,21.27,2.25,58.84,10.83,83.71,16.51l10.33,2.35c10.87,2.45,37.14,3.22,46.34,3.31h.29c75.25,2.9,230.68,3.45,276.53,3.54,17.15,0,36.6.08,73.63-27C823.49,599.56,876,559.86,900.38,537c17.23-16.16,29.22-37,36.65-63.61l.59-2.1c6.56-23.44,14-50,2.15-94.89-3.85-14.62-14.08-53.44,4.26-82.7,10.43-16.63,28.2-27.51,52.83-32.33,21.72-4.25,41-5.58,86-1,22.73,2.3,66.8,8,91.77,12.2,15.29,2.58,40.89,6.88,67.94,18.45l5.5,2.37c30.66,13.32,59.62,25.9,102.74-12,2.08-1.83,4.66-4.13,7.48-6.65,8.21-7.33,18.44-16.45,24.93-21.58,1.37-1.08,2.77-2.23,4.2-3.41,15.32-12.56,38.47-31.56,83.32-16.91,16.51,5.39,35.13,11.39,54.83,17.75,46.89,15.12,95.37,30.75,127.15,41.87,10,3.49,23.72,13,29.72,28.46,3.65,9.38,5.78,24.69-4.77,44.37-20,37.41-70.37,97.55-85.31,115.09-15.68,18.41-43.52,42.71-87.11,54-25.24,6.52-52.32,11.22-105.92-2.79-36.42-9.51-95.09-31.85-142.23-49.79-17.27-6.58-33.58-12.79-46.21-17.37-17.8-6.46-47.32-7.3-73.16,5.4-23.62,11.61-40.26,32.1-49.46,60.91-8.06,25.26-1.89,58.28,15.72,84.13,14,20.55,41.1,45.72,90.63,49,48,3.13,201.38,3.33,336.74,3.5,107,.14,208.15.27,252.27,1.73h0a22,22,0,0,1,19.84,29.77c-5.57,14.69-19.22,32.27-52.61,32.64-29.07.33-75.71-1.81-116.85-3.7-13.4-.61-26-1.19-37-1.64-1.16,0-2.33-.1-3.53-.16-12.15-.62-24.71-1.25-43.49,11l-1.54,1c-18.66,12.19-36.28,23.71-91.85,16.65-8.14-1-20.34-3-32.14-4.93-10.08-1.64-19.59-3.19-26.18-4.08-35.91-4.92-68.67,4.7-97.36,28.55-3.94,3.28-7.6,6.74-11.47,10.41-18.9,17.91-40.33,38.22-101,40.56H1188c-2.25,0-226.64-3.57-301.07-6.12-7-.24-16.45-.65-26.41-1.09-21.26-.94-45.35-2-59.82-2H800c-7.46,0-30.08.07-30.92-30.77,0-1.47,0-3,0-4.73.1-6.57.23-15.57-3.91-19-3.25-2.66-10.29-3-19.82-.88-31.42,6.88-60.62,17.62-116.9,52.19-12.91,7.93-33.21,18.67-60.4,20.43Q564.1,833.43,560.09,833.42Zm-261.5-195.3c-10.65,0-21,2.14-23.11,5.19-.5.71,0,2.85,1.18,5.31C281,657.47,303,678.76,383.5,730c3.55,2.25,6.11,3.88,7.67,4.92,24.49,16.15,65.2,40.26,96.8,57.32,64,34.56,103.11,20,130,3.5,58.7-36.05,89.58-47.35,123.09-54.69,16.3-3.57,28.32-2,36.75,4.93,11.64,9.51,11.4,25.31,11.25,34.75,0,1.46,0,2.83,0,3.89.31,11.33,3.4,11.34,10.88,11.31h.7c14.91,0,39.23,1.08,60.7,2,9.91.43,19.27.85,26.21,1.09,73.07,2.49,291.37,6,300.44,6.1,52.91-2.1,69.82-18.13,87.73-35.09,3.93-3.72,8-7.58,12.43-11.27,33.19-27.59,71.16-38.69,112.86-33,6.83.93,16.47,2.5,26.67,4.15,11.64,1.89,23.67,3.85,31.46,4.84,48.27,6.13,61.56-2.55,78.39-13.55l1.56-1c24.22-15.79,42.25-14.88,55.42-14.22,1.13.06,2.23.12,3.33.16,11,.44,23.68,1,37.1,1.64,40.88,1.88,87.2,4,115.72,3.69,18-.21,29.17-6.66,34.13-19.74a1.91,1.91,0,0,0-.2-1.8,1.94,1.94,0,0,0-1.6-.89c-43.8-1.45-144.75-1.58-251.64-1.72-142.28-.18-289.42-.37-338-3.54-44.93-2.94-82.52-23.41-105.85-57.66-21-30.74-28.12-70.57-18.25-101.48,10.77-33.71,31.41-58.87,59.69-72.77,33.25-16.34,68.62-13.58,88.81-6.25,12.77,4.64,29.15,10.87,46.49,17.48,46.7,17.77,104.8,39.89,140.18,49.13,49,12.81,72.41,8.83,95.86,2.77a149,149,0,0,0,76.89-47.58c30.12-35.36,67.72-83.23,82.91-111.57,5.58-10.42,6.84-19.73,3.75-27.67-3.79-9.74-13.23-15.27-17.69-16.83-31.54-11-79.91-26.64-126.68-41.72-19.72-6.36-38.35-12.37-54.9-17.77-34.43-11.24-49.68,1.27-64.42,13.37-1.54,1.26-3,2.48-4.5,3.64-6,4.75-16,13.65-24,20.8-2.86,2.56-5.48,4.89-7.59,6.75-52.66,46.3-92.17,29.14-123.92,15.35-1.81-.79-3.6-1.57-5.39-2.33-24.86-10.63-48-14.53-63.4-17.11-24.59-4.14-68-9.76-90.46-12-42.55-4.3-60.39-3.12-80.18.76-19,3.71-32.35,11.56-39.73,23.33-13.73,21.91-5.1,54.65-1.86,67,13.22,50.14,4.65,80.77-2.23,105.38l-.58,2.08c-8.44,30.28-22.26,54.1-42.24,72.83-25,23.48-78.43,63.83-103.16,81.89-38.74,28.29-61.4,30.81-84.75,30.81h-.73c-45.9-.09-201.47-.64-277.11-3.55-2.83,0-35.58-.46-50.4-3.8l-10.38-2.36c-24.41-5.58-61.28-14-81.36-16.12A73,73,0,0,0,298.59,638.12Z"/></svg>