<svg id="Hillclimb_-_config" data-name="Hillclimb - config" xmlns="http://www.w3.org/2000/svg" viewBox="0 0 1920 1080"><defs><style>.cls-1{fill:#fff;}</style></defs><path class="cls-1" d="M212.54,906.76a10.83,10.83,0,0,1-3.17-.47,2.5,2.5,0,1,1,1.46-4.78,5.7,5.7,0,0,0,3.07.08,6,6,0,0,0,3-2,14.51,14.51,0,0,0,1.92-3.79,39.81,39.81,0,0,0,2.23-6.31,33.76,33.76,0,0,0,.82-5.06v-.19c.27-2.68.69-5.36,1.1-7.94.25-1.57.5-3.14.71-4.71.59-4.34.92-6.27,1.34-8.71.39-2.27.88-5.11,1.75-10.95.56-3.78.6-4.29.71-5.39.12-1.31.3-3.28,1.3-11.09a39,39,0,0,0,.41-8.65,37.12,37.12,0,0,0-1.62-8.15,41.3,41.3,0,0,0-3.11-7.17,63.59,63.59,0,0,0-4.46-7.21c-1.14-1.63-1.79-2.44-2.47-3.29s-1.28-1.6-2.28-3a55.77,55.77,0,0,1-3.2-5.18l-1.88-3.24c-2-3.49-3.12-5.27-3.91-6.57-.91-1.49-1.52-2.47-2.72-4.68-2.64-4.83-4.1-7.49-4.85-10.36-.81-3.08-1-5.67-1.3-10.39a29.67,29.67,0,0,1-.09-3.37c0-.71,0-1.52-.08-3.79l0-.42a15,15,0,0,1,.41-5.45,17,17,0,0,1,1.84-3.93,33.52,33.52,0,0,1,3.36-4.68c2.81-3.3,5.19-5.86,5.85-6.57,3.69-3.93,5.53-5.9,7-7.35,2.35-2.31,3.91-3.69,6.49-6,3.64-3.23,5-4.23,6.9-5.08a38.65,38.65,0,0,1,4.57-1.72l1.38-.37a6.51,6.51,0,0,0,1.35-.43,7.82,7.82,0,0,0,2.35-1.78l.24-.23a22.87,22.87,0,0,1,2.55-2.19,47.73,47.73,0,0,0,3.77-3.16c1.35-1.22,2.07-1.91,2.58-2.4a18,18,0,0,1,2.06-1.79,21.56,21.56,0,0,1,2.45-1.58c.65-.38,1.55-.9,3-1.78,1-.65,3.18-2,5.6-3.57,2.65-1.76,4-2.64,5.27-3.69a20.2,20.2,0,0,0,2.53-2.36,27.37,27.37,0,0,1,2.67-2.59,23.09,23.09,0,0,1,4-2.88,17.82,17.82,0,0,0,3.14-2.25,32.28,32.28,0,0,0,2.37-2.27,21.79,21.79,0,0,1,3.78-3.24,20,20,0,0,1,5-2.7c1.2-.42,2.43-.71,8.52-.94,5.18-.19,6.28,0,7.36.19a22.07,22.07,0,0,1,5.34,2,17.72,17.72,0,0,1,4.72,3.12,9.52,9.52,0,0,1,1.61,2c.34.49.8,1.17,1.65,2.29a29.5,29.5,0,0,0,3,3.63,20.69,20.69,0,0,0,3.61,2.76,31.07,31.07,0,0,0,5.24,2.72,35,35,0,0,0,9.16,2.12,17.28,17.28,0,0,0,5.73.15,10.37,10.37,0,0,0,3.1-1.05,11.8,11.8,0,0,0,3-2.53l.49-.51c.89-.91,1.81-1.78,2.7-2.62.73-.68,1.45-1.36,2.16-2.07,1.76-1.76,3.6-3.54,6.92-6.76,3.06-2.95,4.63-4.39,6-5.66s2.53-2.32,4.76-4.53c1.83-1.82,2.73-2.77,3.45-3.53s1.49-1.59,3.07-3.08c.8-.75,1.58-1.51,2.37-2.27,1.57-1.52,3.19-3.09,4.9-4.57l.31-.27a11.86,11.86,0,0,0,2.66-2.82c.45-.72.75-1.4,1.55-4.48a73.25,73.25,0,0,0,1.87-9.25c.34-2.5.31-3.39-.12-4.17a4.45,4.45,0,0,0-1.16-1.26,9.91,9.91,0,0,0-4.06-1.76l-.9-.25c-3.48-1-6.76-1.93-9.82-4.36a31.1,31.1,0,0,1-3.74-3.93c-1.55-1.78-2.44-3-3.1-3.85a9.08,9.08,0,0,0-1.72-2c-.37-.3-1.07-.87-6-2.18-1.71-.45-3.27-.83-4.79-1.19-4.92-1.17-8.82-2.09-12.28-4.75-.68-.52-2.76-2.12-2.7-4.61.07-2.89,2.89-4.48,4.41-5.34,1.16-.66,2.27-1.35,3.44-2.08a58.11,58.11,0,0,1,6.3-3.57c3.05-1.43,4.14-2.05,5.29-2.7s2.41-1.38,5.68-2.9a94.64,94.64,0,0,1,13.16-5.38,103.82,103.82,0,0,1,10.59-2.59c1.22-.22,2.2-.37,3.06-.5a22.24,22.24,0,0,0,4.86-1.12,33.62,33.62,0,0,0,6.2-3.06c1.42-.87,2.24-1.49,3-2a18.63,18.63,0,0,1,3.73-2.3,23.85,23.85,0,0,1,6.42-2.1,16.3,16.3,0,0,1,3.62-.22,12,12,0,0,0,2.43-.12,18.21,18.21,0,0,0,5.39-1.84,29.06,29.06,0,0,0,5.63-3.67l1.52-1.16a152.21,152.21,0,0,1,15.33-10l.38-.21a20,20,0,0,0,4.54-3.2,16.55,16.55,0,0,0,1.14-1.2,12.91,12.91,0,0,1,2.1-2,11.91,11.91,0,0,1,2.89-1.65c.59-.26,1.34-.59,2.47-1.18,2.61-1.38,3.7-2,4.71-3.13a4.53,4.53,0,0,0,.71-1.07,7.9,7.9,0,0,1,1.52-2.15c.73-.74,2-1.73,5.66-3.46a35.55,35.55,0,0,1,5.18-2.15,18.65,18.65,0,0,1,4.43-.79,7.4,7.4,0,0,0,2.6-.53,4.8,4.8,0,0,0,1.65-1,9.75,9.75,0,0,1,3-1.82,12.09,12.09,0,0,1,5-.94,2.76,2.76,0,0,0,1.9-.44,14.37,14.37,0,0,0,3.31-3.79c.35-.5.55-.83.72-1.1a9.32,9.32,0,0,1,1.09-1.52,13.45,13.45,0,0,1,5.34-3.54l.23-.09a53.16,53.16,0,0,0,5.86-3.07c1.18-.68,2.39-1.37,3.63-2,4.43-2.31,4.79-2.5,5.57-3a28.17,28.17,0,0,0,2.49-1.77,21.59,21.59,0,0,1,2.94-2,16.83,16.83,0,0,1,3.13-1.41,18.3,18.3,0,0,0,3-1.34,37.18,37.18,0,0,0,4.72-3,13.5,13.5,0,0,0,1.27-1,10.94,10.94,0,0,1,1.42-1.12A24.28,24.28,0,0,1,555.9,485a11.13,11.13,0,0,1,2.89-.67,7.84,7.84,0,0,1,2.82.32A8.65,8.65,0,0,0,563,485a9.8,9.8,0,0,0,3.15-.09,9.31,9.31,0,0,0,2.65-1.06,61.84,61.84,0,0,0,5.8-3.57l.11-.08c2.49-1.7,3.65-2.39,4.49-2.89a26.08,26.08,0,0,0,2.59-1.72c1.57-1.16,2.41-1.91,3.09-2.51a13.26,13.26,0,0,1,3.24-2.26,20,20,0,0,1,8-2.11c2.25-.11,3.54.22,7.78,1.3l.44.12c3.64.93,6,1.52,7.65,1.93a33.84,33.84,0,0,1,4.91,1.4,38.89,38.89,0,0,1,4.2,1.89,11.77,11.77,0,0,0,3.23,1.25,18,18,0,0,0,3.11.48,30.54,30.54,0,0,1,4.57.73,24.79,24.79,0,0,1,7.78,2.78,14.43,14.43,0,0,1,3.44,2.82,9,9,0,0,0,2.72,2.12,38,38,0,0,0,4.77,2c.62.23,1.11.4,1.54.54a12.4,12.4,0,0,1,3.1,1.38,14.51,14.51,0,0,1,3.27,3l.52.57s1.45,1.58,4.51,4.68a59,59,0,0,0,5.94,5.42,24.26,24.26,0,0,0,2.5,1.74,22,22,0,0,1,2.73,2,51.22,51.22,0,0,1,5.69,5.72c1.91,2.12,3.86,4.46,5.8,7a81.82,81.82,0,0,1,5.41,7.49,78.26,78.26,0,0,1,5.16,10.35c1.34,3,2,4.75,2.45,5.89a14.68,14.68,0,0,0,1.51,3.14,26.13,26.13,0,0,0,2.18,3,17.41,17.41,0,0,1,2.82,4.48,37.53,37.53,0,0,1,2.32,7.55c.19,1.06.3,1.93.38,2.64a7.5,7.5,0,0,0,.8,3.07,8.64,8.64,0,0,0,2.22,2.67,6,6,0,0,0,7,1,9.12,9.12,0,0,0,2.5-1.67,10,10,0,0,0,1.88-2.5c1.41-2.54,1.67-5,2-7.93.11-1,.13-1.64.15-2.28,0-.83.07-1.69.27-3.39.27-2.3.61-4.09.79-5a35.22,35.22,0,0,1,1.58-5.52c.41-1.13.82-2.3,1.31-4.15a40.7,40.7,0,0,0,1.28-6.68,28.75,28.75,0,0,0-.14-8.28,17.38,17.38,0,0,0-.5-2.08,17.22,17.22,0,0,1-.66-3.17,24.43,24.43,0,0,1-.17-2.54c0-.75,0-1.83-.14-3.7-.17-3.37-.29-3.93-.58-4.68a14.58,14.58,0,0,0-1.49-2.53,20.63,20.63,0,0,0-1.65-2.21,10.93,10.93,0,0,1-1.58-2.34,24.58,24.58,0,0,1-1.4-4.63c-.33-1.32-.48-2.11-.61-2.75a18.38,18.38,0,0,0-.43-1.86,29.91,29.91,0,0,0-1.53-4.23,35.18,35.18,0,0,0-1.68-3.44c-.36-.69-.8-1.52-1.39-2.66-1.2-2.31-1.81-3.62-2.22-4.48a13.62,13.62,0,0,0-1.23-2.27c-.39-.6-1.69-2.2-3.84-4.84s-3.18-3.91-4.85-5.9l-1-1.16a29.29,29.29,0,0,1-2.16-2.74c-.83-1.21-1.5-2.42-2.72-4.61-.73-1.3-1.08-2-1.34-2.45s-.34-.63-.58-1a23.67,23.67,0,0,0-2.27-3.26c-.47-.59-1-1.27-1.69-2.18a93.65,93.65,0,0,1-5.26-8A63.12,63.12,0,0,1,684,432c-.67-1.36-1.05-2.26-1.37-3.05a20.88,20.88,0,0,0-1.3-2.71,40.83,40.83,0,0,0-3.18-4.55c-1.87-2.49-3.1-4.12-5-6.2-.45-.51-.85-.93-1.19-1.3a14.38,14.38,0,0,1-3-4.06,33.58,33.58,0,0,1-1.34-3.85c-.46-1.49-.72-2.46-.95-3.32-.12-.45-.23-.86-.36-1.31a43.44,43.44,0,0,0-2.25-5.79c-1.08-2.48-1.82-3.9-3.27-6.74-.43-.84-.93-1.8-1.5-2.93-2.06-4.05-2.77-5.55-3.19-6.44s-.5-1-1.11-2.15c-.81-1.48-1.48-2.62-2-3.57a20.43,20.43,0,0,1-3-6.73,28.34,28.34,0,0,1-.56-6.67c0-2.8.07-4.49,1-6.37a12,12,0,0,1,4.87-5.22l.19-.1.32-.18a7.83,7.83,0,0,0,0-1.35c-.06-2.43,0-3.23,0-3.62a3.7,3.7,0,0,0,0-.45,42.31,42.31,0,0,0-.84-4.7c-.56-2.66-.83-3.8-1-4.45s-.2-.89-.31-1.56c-.33-2.08-.5-4-.73-6.56-.07-.77-.11-1.32-.15-1.74a9.48,9.48,0,0,0-.18-1.53,10.22,10.22,0,0,0-.72-2.13,25.55,25.55,0,0,1-.94-2.46,25.1,25.1,0,0,1-1.16-5,15.78,15.78,0,0,1-.06-3.39,16.56,16.56,0,0,0,0-2.58,25.1,25.1,0,0,0-.72-4.24,21.89,21.89,0,0,0-2.49-5.63c-2.83-4.93-3.88-7-4.58-8.44a18.32,18.32,0,0,0-1.78-3,68.72,68.72,0,0,0-7.36-8.61c-1-1.06-1.89-1.91-2.65-2.66-2.38-2.35-4-3.9-5.19-6.93a20,20,0,0,1-1.4-7.83,18.13,18.13,0,0,1,1.67-7.3,14.48,14.48,0,0,1,1.3-2.21,5.93,5.93,0,0,0,.87-1.67,15.28,15.28,0,0,0,.58-4.07c.08-1,.1-1.87.12-2.6a15.81,15.81,0,0,1,.66-4.8,14.9,14.9,0,0,1,.85-2.2,15.82,15.82,0,0,1,4.93-5.63c.55-.44,1.14-.92,1.78-1.47a25.49,25.49,0,0,0,4.59-4.85,33.55,33.55,0,0,0,3.17-6.34c.61-1.41.85-2.08,1.11-2.79s.52-1.43,1.11-2.82c1-2.3,1.63-3.58,2.16-4.61A26.55,26.55,0,0,0,650.1,203c1.5-4.17,1.26-5.75,1.18-6.26a4.93,4.93,0,0,0-1.16-2.75,2.68,2.68,0,0,0-1.33-.84c-.15,0-.16,0-.75.2a16.19,16.19,0,0,1-2,.65c-1.75.41-4.39,1-6.87-.33-3.22-1.77-3.72-5.58-3.76-6a8.91,8.91,0,0,1,.68-4.22,15.54,15.54,0,0,1,3-5,53.47,53.47,0,0,1,5.47-5.65,48.15,48.15,0,0,1,7.69-6.08,39.37,39.37,0,0,1,6.28-3.09,47.09,47.09,0,0,1,6.57-1.92l.3-.07c2.66-.66,5.36-1.27,8-1.86,2.25-.51,4.5-1,6.75-1.55a23.3,23.3,0,0,1,6.33-.7,14.36,14.36,0,0,1,3.9.51c1.57.45,2.59,1.09,5.34,2.94,3.06,2.07,4.46,3,5.22,3.91a13.78,13.78,0,0,1,2.72,5.45,80.3,80.3,0,0,1,2.52,12.06c.89,7.51,1.34,11.28,1.11,14.6-.1,1.41-.22,2.2-.4,3.4s-.46,3.09-.87,6.83c-.44,4-.68,6.15-.66,7.21.08,4.48,1.37,7.84,2.86,11.73a34.52,34.52,0,0,0,5.49,10.21,23,23,0,0,0,4,3.9,21.33,21.33,0,0,0,5.48,2.91l.24.09c3.79,1.46,7.11,3.53,13.14,7.28l2.63,1.63c5.87,3.64,8.27,5.5,10.42,7.48a57.89,57.89,0,0,1,7.5,8.49,86.49,86.49,0,0,1,7.83,12.67,48.16,48.16,0,0,1,2.4,5.12c.48,1.18,1,2.41,2.45,5.34.88,1.74,1.69,3.26,2.43,4.66,2.21,4.16,3.95,7.44,5,12a33.36,33.36,0,0,1,.9,5.26,28.2,28.2,0,0,1,0,3.86,35.76,35.76,0,0,0,0,3.74c.13,2.62.21,3.72.72,4.69a19.61,19.61,0,0,0,2.58,3c1.08,1.15,1.69,1.69,2.13,2.09a9,9,0,0,1,1.73,2,17.24,17.24,0,0,1,.94,1.66,6.75,6.75,0,0,0,1.1,1.67,5.55,5.55,0,0,0,1.35,1.15,8.32,8.32,0,0,0,1.85.69c1,.3,1.53.42,2.06.55a18.29,18.29,0,0,1,2.16.61,13.09,13.09,0,0,1,2.94,1.3,11.48,11.48,0,0,1,1.26.93c.27.23.28.23.4.28a3.4,3.4,0,0,0,1.36.09,18.38,18.38,0,0,0,2.09-.37l1.29-.28c.27-.06.43-.1.75-.15a17.46,17.46,0,0,1,3.81-.29,15.11,15.11,0,0,1,4.09.74,79.35,79.35,0,0,1,7.62,2.53c2.12.92,3.58,1.42,6,2.24,3.52,1.2,8.85,3,20.67,7.65,7.65,3,11.49,4.51,16.48,6.68,2.06.9,3.41,1.51,5.1,2.27,2,.89,4.39,2,9,4,8.3,3.66,10.65,4.59,13.5,5.56,5.67,1.91,9.18,2.84,9.21,2.85h0l1.52.39c3.55.91,6.9,1.76,10.43,4.05a13,13,0,0,1,4.28,4.27,13.19,13.19,0,0,1,1.66,4.77,15.88,15.88,0,0,1,.09,4.37c0,.4-.07.84-.1,1.32a38.23,38.23,0,0,0,.24,6.22,20.79,20.79,0,0,0,2.35,7.53c1,1.81,2.16,3,4.88,5.87a67,67,0,0,0,9.31,8.34c3.46,2.54,5,3.7,7.67,4.85.85.37,1.93.8,3.16,1.28,2.2.87,4.94,2,7.74,3.25a14.06,14.06,0,0,1,3.63,2.32,15.56,15.56,0,0,1,3,3.75l.12.17c1.4,2.14,2.06,3.09,2.59,3.86s1,1.47,2.07,3.18a24.17,24.17,0,0,1,2.84,5.38c.59,2.08.51,3.83.39,6.72a39,39,0,0,1-.35,3.92,7.41,7.41,0,0,0-.06,2.33,14.62,14.62,0,0,0,1.78,4.37,37.82,37.82,0,0,0,5.31,7.75,26.85,26.85,0,0,0,2.37,2.57c.82.77,1.61,1.37,6.12,4.27a43,43,0,0,0,4.4,2.69c.16.07.21.09,1.58.59l3.12,1.14a10.91,10.91,0,0,1,3.85,2,11.15,11.15,0,0,1,2.27,2.95c1,1.73,1.7,3.12,2.07,3.86l.13.28a26,26,0,0,0,3.22,4.74,70.63,70.63,0,0,0,6.42,6.68c2.88,2.82,4.33,4.23,6.21,5.81.57.48,1,.84,1.41,1.16a24.25,24.25,0,0,1,2.51,2.25c.63.64,1.08,1.15,1.46,1.59a6.75,6.75,0,0,0,1.51,1.44,9.75,9.75,0,0,0,3.12,1.27,27.88,27.88,0,0,0,5.6.75c3.53.27,5.64.42,6.4.38h.15a10.59,10.59,0,0,1,4.33.48,11.88,11.88,0,0,1,2.72,1.38,20,20,0,0,1,2.4,1.79c.26.21.52.43.82.66a10.82,10.82,0,0,0,4,2.25,7.85,7.85,0,0,0,3.22.13,14.66,14.66,0,0,0,2.62-.88c1.33-.51,2.31-1,2.79-1.2,3-1.4,4.5-2.1,6.38-3.12l.58-.32a10.74,10.74,0,0,1,4.77-1.71,11,11,0,0,1,3,.22,8.93,8.93,0,0,1,2.17.78c.35.17.8.38,1.47.67a18.72,18.72,0,0,0,2.84,1,15.78,15.78,0,0,0,2.14.36,45,45,0,0,0,6,0h.25a21.83,21.83,0,0,1,4.16.12,17.87,17.87,0,0,1,3,.68,20.71,20.71,0,0,1,5,2.4,43,43,0,0,1,5.23,3.89,48.34,48.34,0,0,1,5.29,5.42,12.12,12.12,0,0,1,2.62,4,10.26,10.26,0,0,1,.47,1.8c.06.3.13.66.25,1.14a30.69,30.69,0,0,0,1.1,3.49c1.39,4,2.27,6.15,2.28,6.17,1.76,4.43,3.22,8,3.68,9.14l0,.14c1.29,3.18,3.06,7.53,5,13,2.25,6.21,3.28,9,3.67,10.83l0,.24a44.43,44.43,0,0,0,2.3,7.64,7.89,7.89,0,0,0,2.28,3.32,4.3,4.3,0,0,0,1.69.9,4.57,4.57,0,0,0,2.15-.13,47.55,47.55,0,0,0,5.29-1.47c1-.34,1.41-.47,1.94-.64.77-.25,1.77-.57,5.07-1.68,2.24-.76,3.18-1.09,4-1.78a11.71,11.71,0,0,0,1.91-2.11c1.23-1.57,2-2.73,2.64-3.75.19-.31.38-.6.57-.88a38.57,38.57,0,0,1,5.72-6.68,36.18,36.18,0,0,1,6.53-5.26,37,37,0,0,1,7.66-3.46,29.89,29.89,0,0,1,10.25-2.12,12.1,12.1,0,0,1,5.41,1.25,11.73,11.73,0,0,1,3.84,3.27,14.13,14.13,0,0,1,2.62,5.55,18.45,18.45,0,0,1,.31,5.62,44.82,44.82,0,0,1-1.06,7.7,42.09,42.09,0,0,1-1.88,6.43,51.38,51.38,0,0,1-2.69,5.56c-.72,1.37-1.92,3.58-3.92,7-.61,1-1.14,1.9-1.61,2.68a55.23,55.23,0,0,0-3.32,6.05,20,20,0,0,0-1.14,2.87c-.36,1.2-.46,2-.78,5.91,0,.11-.21,2.65-.42,7.89a6.35,6.35,0,0,0,.24,2.91,6.77,6.77,0,0,0,1.8,2.28,9.28,9.28,0,0,0,8,3.15,19.27,19.27,0,0,0,6.18-1.15,26.51,26.51,0,0,0,6-2.8A19.94,19.94,0,0,0,1213,639c.69-.56,1.63-1.32,3.08-2.46,2.45-1.93,3.67-2.89,5-3.85a76.6,76.6,0,0,1,9-5.49,37.1,37.1,0,0,1,3.37-1.57c1-.41,2.39-1,5.47-2.43,6.83-3.19,7.93-4.09,8.4-4.47s.84-.71,1.21-1a24.45,24.45,0,0,1,3.4-2.62,21.22,21.22,0,0,1,5.72-2.72,21.45,21.45,0,0,1,6.51-.82h0a32.36,32.36,0,0,1,6.79.8,38.9,38.9,0,0,1,3.94,1c1.05.31,2.24.66,4.36,1.17a24.06,24.06,0,0,0,4.93.94h0a13.48,13.48,0,0,0,5.27-1.17,14.57,14.57,0,0,0,4.39-3.08,10.57,10.57,0,0,0,1.14-1.36c.47-.61,1.18-1.52,2.35-3,1.52-1.91,2.35-3,3.34-4.11s2.15-2.51,3.76-4.1a53.4,53.4,0,0,1,6.71-5.66,42.82,42.82,0,0,1,5.13-3.16,28.69,28.69,0,0,1,3.81-1.63,28.26,28.26,0,0,0,2.76-1.1,35.52,35.52,0,0,0,6.21-3.74,70.24,70.24,0,0,0,6.07-5.19l.53-.51a15.74,15.74,0,0,1,4.16-3.15,14.94,14.94,0,0,1,5-1.47,15.17,15.17,0,0,1,4.5.2,15.85,15.85,0,0,1,4.14,1.44c4.49,2.27,6.74,3.4,8.74,4.5,1.6.88,4.53,2.25,10.37,5l.78.37a27.18,27.18,0,0,1,6.54,3.7,29.93,29.93,0,0,1,5,5.39c1.4,1.77,2.13,2.85,3.89,5.45l1.85,2.73c1.71,2.52,3,4.37,5.58,8a64.79,64.79,0,0,0,4.5,6c2,2.34,3,3.41,4.47,4.28,2.4,1.41,4.56,1.89,6.4,1.42a9.88,9.88,0,0,0,2-.83,21.92,21.92,0,0,0,4.48-2.93l.25-.19a31,31,0,0,1,3.72-2.62,31.41,31.41,0,0,0,3.57-2.49,52.85,52.85,0,0,0,6-5.27,48.24,48.24,0,0,0,3.75-4.39c1.63-2.11,3.27-4.19,4.91-6.26,1.95-2.46,4-5,5.91-7.55l6.16-8a38.72,38.72,0,0,0,2.39-3.2c1.07-1.64,1.83-2.94,2.65-4.32,1.21-2.06,2.47-4.19,4.76-7.48,1.71-2.46,3.07-4.25,4.65-6.31,2.41-3.17,3.84-4.88,5-6.26a55.56,55.56,0,0,0,3.48-4.5c2.15-3.1,3.59-5.64,5.26-8.59a85,85,0,0,0,4.71-9.22,78.93,78.93,0,0,0,2.94-8.21,40.34,40.34,0,0,0,1.48-5.58c.16-1,.51-3.61.75-5.32a12.63,12.63,0,0,1,1.16-4.5,13.21,13.21,0,0,1,2.22-3,26.87,26.87,0,0,1,3.29-3.07,35.68,35.68,0,0,1,3.49-2.44l3.24-2c1.74-1.08,3.48-2.16,5.22-3.22.33-.21.38-.23,1.33-.85l6.87-4.38.8-.51c3.92-2.5,4.33-2.76,5.25-3.44,1.22-.9,1.76-1.36,2.66-2.13s1.76-1.52,3.56-3c2.52-2,3.54-2.75,4.28-3.27a24,24,0,0,0,2.26-1.77l1.29-1.12c1.81-1.6,3.12-2.76,5.42-3.46a24.75,24.75,0,0,1,3.78-.88c.63-.08,1.14-.11,1.58-.14l.61-.05c.09-.17.34-.76.52-1.2a10.54,10.54,0,0,0,.56-1.67c.09-.35.19-.71.34-1.16a23.11,23.11,0,0,1,2-4.42,24.7,24.7,0,0,1,2.52-4,22.77,22.77,0,0,1,5.4-4.61c.75-.53,1.34-.9,1.87-1.24a20.61,20.61,0,0,0,2.47-1.76,19.34,19.34,0,0,0,1.9-1.7,20.92,20.92,0,0,0,2.86-3.82c1.23-2,2-3.49,2.71-4.83l.14-.27c2.72-5.2,4.89-8.93,5.49-9.95,1.54-2.61,2.31-3.92,3.65-5.81a39.88,39.88,0,0,1,6.17-7.27,65.34,65.34,0,0,1,5.73-4.34c1.11-.79,1.82-1.27,2.35-1.63a20,20,0,0,0,1.73-1.26,19.39,19.39,0,0,0,2.49-2.39c.56-.61,1.19-1.3,2.19-2.26a48.49,48.49,0,0,1,7-5.63,21.87,21.87,0,0,1,3.21-1.83,32.65,32.65,0,0,0,3.48-1.88l.16-.1a10,10,0,0,1,4-1.62,9.74,9.74,0,0,1,1.83-.09,2,2,0,0,0,.7,0c.38-.12.67-.39,1.44-1.26l1.8-2c1.08-1.21,2.17-2.41,3.24-3.62a20.15,20.15,0,0,1,3.82-3.68,13.09,13.09,0,0,1,2.65-1.42l.92-.41a16.55,16.55,0,0,0,6-5.18,2.56,2.56,0,0,0,.38-.68c.29-.59.81-1.69,2.27-4.4,1.33-2.44,2.05-3.79,3.09-5.38a36,36,0,0,1,3.89-5.19c1-1,2.47-2.4,6.74-5.14a60.39,60.39,0,0,1,10.1-5.72,38.59,38.59,0,0,1,8.76-2.64,31.09,31.09,0,0,1,9.2-.31,35,35,0,0,1,6.15,1.35c.88.27,1.65.54,5.34,1.95l4.68,1.82a2.5,2.5,0,1,1-1.82,4.65l-4.65-1.8c-3.53-1.35-4.26-1.61-5-1.83a29.19,29.19,0,0,0-5.28-1.17,26.8,26.8,0,0,0-7.79.27,32.48,32.48,0,0,0-7.65,2.33c-3.1,1.29-5,2.55-9.32,5.3s-5.36,3.89-5.8,4.36a30.37,30.37,0,0,0-3.34,4.49c-.9,1.37-1.53,2.54-2.89,5s-1.89,3.62-2.15,4.17a8,8,0,0,1-.83,1.44,21.64,21.64,0,0,1-7.88,6.77c-.42.2-.79.35-1.14.5a9.05,9.05,0,0,0-1.78.94,17.15,17.15,0,0,0-2.91,2.89l-3.26,3.64-1.79,2a8.11,8.11,0,0,1-3.69,2.7,6.71,6.71,0,0,1-2.34.26,4.8,4.8,0,0,0-.93,0,5.51,5.51,0,0,0-2.15,1l-.17.1a36.4,36.4,0,0,1-3.92,2.12,17.91,17.91,0,0,0-2.59,1.48,44.75,44.75,0,0,0-6.29,5c-.88.85-1.43,1.46-2,2a25.16,25.16,0,0,1-3,2.9,23.38,23.38,0,0,1-2.08,1.52c-.51.35-1.18.8-2.25,1.56a64.85,64.85,0,0,0-5.29,4,35.26,35.26,0,0,0-5.43,6.44c-1.22,1.72-2,3-3.42,5.46-.59,1-2.7,4.63-5.36,9.73l-.14.26c-.7,1.35-1.57,3-2.9,5.16a25.59,25.59,0,0,1-3.53,4.67,24.48,24.48,0,0,1-2.31,2.08,25.52,25.52,0,0,1-3,2.11c-.48.31-1,.64-1.69,1.12a18.5,18.5,0,0,0-4.36,3.64,19.73,19.73,0,0,0-2,3.28,18.76,18.76,0,0,0-1.67,3.57c-.12.36-.2.65-.27.94a16.35,16.35,0,0,1-.78,2.29,6.93,6.93,0,0,1-2.15,3.3,5.5,5.5,0,0,1-3.3,1c-.34,0-.75,0-1.25.11a20.91,20.91,0,0,0-3,.71c-1.19.36-1.85.9-3.57,2.42l-1.33,1.16a27,27,0,0,1-2.65,2.07c-.72.51-1.62,1.14-4,3.07-1.74,1.4-2.68,2.21-3.44,2.87-.92.79-1.58,1.36-3,2.37-1.06.78-1.57,1.1-5.53,3.63l-.79.5-6.86,4.39-1.42.9q-2.61,1.59-5.2,3.2l-3.25,2a30,30,0,0,0-3,2.09,22.28,22.28,0,0,0-2.67,2.48,9.18,9.18,0,0,0-1.49,1.95,8.11,8.11,0,0,0-.67,2.87c-.25,1.8-.61,4.43-.78,5.48a43.11,43.11,0,0,1-1.63,6.27,84.23,84.23,0,0,1-3.12,8.7,89,89,0,0,1-5,9.71,100.74,100.74,0,0,1-5.51,9,60.45,60.45,0,0,1-3.74,4.86c-1.12,1.33-2.51,3-4.86,6.08-1.54,2-2.87,3.76-4.52,6.13-2.18,3.14-3.33,5.1-4.56,7.18-.8,1.35-1.63,2.76-2.75,4.49-.53.81-.64,1-2.62,3.53-1.19,1.55-3.07,4-6.16,8-2,2.56-4,5.13-6,7.62-1.62,2.05-3.25,4.11-4.86,6.18a54.2,54.2,0,0,1-4.13,4.84,58.72,58.72,0,0,1-6.57,5.75,39.29,39.29,0,0,1-4,2.8,27.7,27.7,0,0,0-3.22,2.27l-.23.18a26.9,26.9,0,0,1-5.4,3.51,14.72,14.72,0,0,1-2.92,1.19c-3.16.8-6.58.14-10.16-2-2.21-1.29-3.45-2.72-5.71-5.31a70.64,70.64,0,0,1-4.79-6.39c-2.63-3.75-3.93-5.61-5.65-8.14l-1.86-2.74c-1.74-2.57-2.39-3.53-3.67-5.15a25.36,25.36,0,0,0-4.2-4.61c-1.42-1.15-2.45-1.63-5.51-3.06l-.79-.37c-5.94-2.77-8.92-4.16-10.66-5.12-1.92-1-4.15-2.18-8.58-4.41a10.43,10.43,0,0,0-2.85-1,9.64,9.64,0,0,0-6.27.83,11,11,0,0,0-2.92,2.28l-.55.53a74,74,0,0,1-6.55,5.59,40.71,40.71,0,0,1-7.07,4.25,32.2,32.2,0,0,1-3.2,1.29,21.33,21.33,0,0,0-3.19,1.36,35.64,35.64,0,0,0-4.54,2.8,48.74,48.74,0,0,0-6.07,5.12c-1.46,1.45-2.53,2.7-3.48,3.8s-1.63,2-3.22,4c-1.16,1.45-1.86,2.35-2.33,2.95a14.34,14.34,0,0,1-1.58,1.87,19.89,19.89,0,0,1-5.87,4.07,18.55,18.55,0,0,1-7.27,1.6,24.7,24.7,0,0,1-6.15-1.08c-2.23-.54-3.54-.93-4.59-1.24a35.74,35.74,0,0,0-3.51-.88,27.09,27.09,0,0,0-5.81-.71h0a16.69,16.69,0,0,0-5.09.61,17,17,0,0,0-4.46,2.15,18.64,18.64,0,0,0-2.75,2.13c-.43.38-.86.77-1.39,1.19-1,.81-2.61,1.93-9.43,5.12-3.19,1.49-4.63,2.09-5.68,2.52a29.09,29.09,0,0,0-3,1.39,70.56,70.56,0,0,0-8.36,5.11c-1.25.9-2.44,1.84-4.82,3.7-1.44,1.14-2.37,1.89-3,2.44a25.25,25.25,0,0,1-2.74,2,31.9,31.9,0,0,1-7.18,3.34,23.91,23.91,0,0,1-7.69,1.38,15.4,15.4,0,0,1-7-1.29A16,16,0,0,1,1187,645a11.45,11.45,0,0,1-2.91-3.95,10.87,10.87,0,0,1-.6-5c.2-5.34.41-8,.42-8.09.34-4.1.47-5.23,1-7a25.1,25.1,0,0,1,1.39-3.53,59.91,59.91,0,0,1,3.58-6.53c.46-.77,1-1.63,1.58-2.65,2-3.29,3.11-5.43,3.82-6.76a45.78,45.78,0,0,0,2.44-5,36,36,0,0,0,1.66-5.69,41.41,41.41,0,0,0,.95-6.84,13.79,13.79,0,0,0-.19-4.23,8.71,8.71,0,0,0-1.67-3.62,6.84,6.84,0,0,0-2.22-1.94,7.07,7.07,0,0,0-3.25-.68c-1.14,0-3.76.16-8.42,1.83a32.38,32.38,0,0,0-6.73,3,30.6,30.6,0,0,0-5.66,4.59,33.55,33.55,0,0,0-5,5.85l-.52.82a50.48,50.48,0,0,1-2.92,4.14,13.26,13.26,0,0,1-8.27,5.53c-3.35,1.13-4.36,1.46-5.14,1.71l-1.84.6a50.59,50.59,0,0,1-5.87,1.64,8.6,8.6,0,0,1-8-1.76,12.77,12.77,0,0,1-3.78-5.34,50.8,50.8,0,0,1-2.56-8.46l0-.23c-.32-1.47-1.44-4.56-3.47-10.17-2-5.41-3.7-9.71-5-12.84l0-.15c-.47-1.13-1.93-4.72-3.7-9.17,0-.09-.91-2.3-2.35-6.36a38.45,38.45,0,0,1-1.25-4c-.13-.57-.22-1-.28-1.33a6.8,6.8,0,0,0-.26-1,7.67,7.67,0,0,0-1.68-2.46,45.06,45.06,0,0,0-4.8-4.93,36.55,36.55,0,0,0-4.61-3.43,16.39,16.39,0,0,0-3.84-1.88,12.85,12.85,0,0,0-2.21-.5,18.07,18.07,0,0,0-3.34-.07h-.25a48.36,48.36,0,0,1-6.68-.06,19.6,19.6,0,0,1-2.82-.48,23.9,23.9,0,0,1-3.56-1.25c-.76-.33-1.28-.57-1.67-.76a4.14,4.14,0,0,0-1.07-.41,6.06,6.06,0,0,0-1.58-.12,6.27,6.27,0,0,0-2.71,1.1l-.6.33c-2,1.09-3.57,1.82-6.66,3.26-.79.38-1.78.83-3.1,1.33a18.68,18.68,0,0,1-3.52,1.14,12.68,12.68,0,0,1-5.36-.21,15.71,15.71,0,0,1-5.83-3.13c-.36-.28-.66-.54-1-.79a15.45,15.45,0,0,0-1.86-1.39,7.33,7.33,0,0,0-1.66-.88,5.89,5.89,0,0,0-2.41-.22h-.17c-1.1.07-3-.08-7-.38a33,33,0,0,1-6.62-.93,14.53,14.53,0,0,1-4.55-1.93,11.58,11.58,0,0,1-2.5-2.31c-.33-.38-.71-.83-1.25-1.38a21.25,21.25,0,0,0-2.09-1.86l-1.48-1.21c-2-1.7-3.51-3.16-6.48-6.06a72.42,72.42,0,0,1-6.88-7.19,30.16,30.16,0,0,1-3.76-5.61l-.14-.3c-.35-.72-.94-1.93-1.86-3.47a4.81,4.81,0,0,0-3.55-2.85L987.57,490c-1.54-.56-1.6-.59-1.78-.66-.66-.28-1.16-.52-5.18-3.11-4.64-3-5.68-3.74-6.83-4.81a31.81,31.81,0,0,1-2.77-3,43,43,0,0,1-6-8.73,18.46,18.46,0,0,1-2.26-5.89,11.85,11.85,0,0,1,0-3.69c.11-.83.24-1.86.31-3.52.12-2.73.16-3.88-.2-5.14a24.54,24.54,0,0,0-2.29-4.13c-1-1.58-1.33-2.09-1.92-2.94s-1.23-1.78-2.67-4l-.11-.17a11.59,11.59,0,0,0-2.14-2.72,9.87,9.87,0,0,0-2.43-1.55c-2.67-1.23-5.33-2.28-7.47-3.13-1.3-.51-2.44-1-3.33-1.34-3.14-1.38-5.09-2.81-8.63-5.41a72,72,0,0,1-10-8.91c-2.67-2.78-4.28-4.46-5.64-6.91a25.73,25.73,0,0,1-2.94-9.28,42.67,42.67,0,0,1-.27-7.17c0-.54.07-1,.11-1.45a10.85,10.85,0,0,0,0-3.12,7.39,7.39,0,0,0-3.73-5.68c-2.84-1.84-5.67-2.57-9-3.4l-1.55-.4v0c-2.14-.49-8.32-2.52-9.55-2.93-3-1-5.44-2-13.91-5.72-4.6-2-7-3.13-9-4-1.67-.76-3-1.36-5-2.24-4.91-2.14-8.72-3.63-16.32-6.61-11.71-4.6-17-6.39-20.46-7.58-2.44-.83-4.06-1.38-6.37-2.38-1.33-.58-3.25-1.17-7.08-2.34a10.86,10.86,0,0,0-2.82-.53,13.38,13.38,0,0,0-2.75.22l-.51.1c-.25.06-.62.15-1.41.31a19.91,19.91,0,0,1-2.87.47,8,8,0,0,1-3.34-.41,5.83,5.83,0,0,1-1.86-1.13,4.89,4.89,0,0,0-.7-.53,8.67,8.67,0,0,0-1.93-.8,13.63,13.63,0,0,0-1.65-.47c-.56-.13-1.24-.29-2.38-.64a12.33,12.33,0,0,1-2.94-1.17,10.42,10.42,0,0,1-2.52-2.12,11.34,11.34,0,0,1-1.82-2.72,12.92,12.92,0,0,0-.68-1.19,3.81,3.81,0,0,0-.89-1c-.48-.43-1.21-1.08-2.42-2.37a20.35,20.35,0,0,1-3.38-4.13c-1-2-1.14-3.87-1.29-6.75a38.62,38.62,0,0,1,0-4.21,25.41,25.41,0,0,0,0-3.24,27.52,27.52,0,0,0-.77-4.42c-1-4-2.49-6.9-4.62-10.9-.75-1.42-1.58-3-2.47-4.75-1.57-3.12-2.13-4.49-2.63-5.71a44.74,44.74,0,0,0-2.19-4.68,81,81,0,0,0-7.39-12,54.3,54.3,0,0,0-6.89-7.82c-1.94-1.78-4.14-3.48-9.68-6.91l-2.63-1.64c-5.77-3.59-8.95-5.57-12.3-6.86l-.23-.08a26.64,26.64,0,0,1-6.67-3.57,28.22,28.22,0,0,1-4.87-4.76A39.13,39.13,0,0,1,703.44,228c-1.59-4.15-3.09-8.07-3.19-13.43a77.08,77.08,0,0,1,.68-7.83c.43-3.86.7-5.7.91-7,.16-1.12.26-1.79.35-3,.2-2.85-.23-6.46-1.08-13.66a75.56,75.56,0,0,0-2.36-11.24,8.93,8.93,0,0,0-1.74-3.63,43.76,43.76,0,0,0-4.2-3c-2.68-1.81-3.16-2.07-3.91-2.28a10.09,10.09,0,0,0-2.66-.33,19.17,19.17,0,0,0-5,.56c-2.28.55-4.56,1.07-6.84,1.58-2.59.58-5.27,1.19-7.87,1.83l-.3.07a41.47,41.47,0,0,0-6,1.73,34.12,34.12,0,0,0-5.49,2.7,43.88,43.88,0,0,0-7,5.53,48.06,48.06,0,0,0-5,5.12,10.66,10.66,0,0,0-2.09,3.45,4.3,4.3,0,0,0-.42,2,3.24,3.24,0,0,0,1.2,2.15c.79.44,2.07.13,3.31-.16a11.29,11.29,0,0,0,1.41-.45,6,6,0,0,1,3.29-.47,7.49,7.49,0,0,1,4.13,2.27,9.76,9.76,0,0,1,2.54,5.5c.24,1.56.29,4-1.42,8.71a30.07,30.07,0,0,1-1.83,4.14c-.52,1-1.11,2.15-2,4.27-.54,1.28-.77,1.92-1,2.59s-.55,1.52-1.22,3.07a38.71,38.71,0,0,1-3.65,7.2,29.81,29.81,0,0,1-5.41,5.76c-.68.6-1.32,1.11-1.92,1.6-1.73,1.4-2.77,2.25-3.57,3.91a9.92,9.92,0,0,0-.58,1.5,11,11,0,0,0-.44,3.46c0,.75,0,1.68-.13,2.85a19.18,19.18,0,0,1-.85,5.35,10.57,10.57,0,0,1-1.47,2.83,10,10,0,0,0-.9,1.53,13.22,13.22,0,0,0-1.19,5.32,14.54,14.54,0,0,0,1,5.79c.84,2.07,1.85,3.07,4.06,5.25.78.77,1.69,1.66,2.74,2.75a72.83,72.83,0,0,1,7.86,9.22,23.41,23.41,0,0,1,2.15,3.64c.67,1.35,1.69,3.38,4.4,8.11a27.53,27.53,0,0,1,3,6.9,28.36,28.36,0,0,1,.87,5.19,21.67,21.67,0,0,1,0,3.27,10.68,10.68,0,0,0,0,2.45,21,21,0,0,0,1,4c.3.91.55,1.5.79,2.06a14.94,14.94,0,0,1,1,3,14,14,0,0,1,.29,2.21c0,.41.07.94.14,1.68.22,2.5.38,4.31.69,6.21.09.53.12.69.25,1.24s.42,1.83,1,4.53a46.09,46.09,0,0,1,.92,5.23,5.19,5.19,0,0,1,0,1c0,.37,0,1.13,0,3.38a6.65,6.65,0,0,1-1,4.48,5.39,5.39,0,0,1-2.05,1.67l-.14.08a7.11,7.11,0,0,0-2.78,3.1c-.41.8-.45,1.63-.48,4.15a23.55,23.55,0,0,0,.44,5.52,15.73,15.73,0,0,0,2.38,5.27c.58,1,1.28,2.17,2.12,3.69.69,1.25.88,1.64,1.25,2.43s1.09,2.33,3.12,6.31l1.5,2.92c1.45,2.83,2.25,4.4,3.4,7a48.62,48.62,0,0,1,2.47,6.4c.14.48.26.93.39,1.41.21.82.46,1.74.9,3.13a28.08,28.08,0,0,0,1.1,3.22,9.74,9.74,0,0,0,2.08,2.78c.37.39.78.83,1.26,1.36,2,2.24,3.35,4,5.22,6.52a45.47,45.47,0,0,1,3.54,5.11,24.55,24.55,0,0,1,1.56,3.26c.32.75.64,1.53,1.24,2.75.85,1.73,1.57,2.91,3,5.28a85.82,85.82,0,0,0,5,7.58c.64.86,1.15,1.51,1.6,2.07a28.81,28.81,0,0,1,2.68,3.85c.27.47.43.77.66,1.21s.59,1.1,1.29,2.35c1.24,2.22,1.82,3.24,2.49,4.23A25.09,25.09,0,0,0,707,458.7l1,1.17c1.68,2,2.82,3.41,4.86,5.91,2.52,3.1,3.65,4.49,4.19,5.31a19.36,19.36,0,0,1,1.57,2.88c.41.88,1,2.09,2.13,4.32.58,1.12,1,1.93,1.36,2.6a40.4,40.4,0,0,1,1.88,3.84,38.57,38.57,0,0,1,1.75,4.86c.26.94.38,1.56.51,2.21s.25,1.31.55,2.51a23.26,23.26,0,0,0,1,3.62,5.76,5.76,0,0,0,.92,1.35,26.16,26.16,0,0,1,2,2.67,17.74,17.74,0,0,1,2,3.44c.61,1.54.76,2.79.93,6.26.1,1.94.13,3.05.15,3.83a20,20,0,0,0,.13,2,13.16,13.16,0,0,0,.5,2.39,20.88,20.88,0,0,1,.62,2.61,33.38,33.38,0,0,1,.19,9.64,44.46,44.46,0,0,1-1.41,7.46c-.54,2.06-1,3.39-1.44,4.57A30.24,30.24,0,0,0,731,549c-.13.64-.46,2.35-.72,4.54-.18,1.5-.21,2.23-.24,3s0,1.41-.18,2.62c-.33,3.14-.68,6.39-2.57,9.82a15.08,15.08,0,0,1-2.83,3.72,14.29,14.29,0,0,1-4,2.63,11,11,0,0,1-12.14-1.7,13.69,13.69,0,0,1-3.5-4.23,12.1,12.1,0,0,1-1.34-4.81c-.08-.67-.17-1.43-.34-2.34a31.66,31.66,0,0,0-2-6.42,12.65,12.65,0,0,0-2.13-3.35,32.87,32.87,0,0,1-2.55-3.54,19.38,19.38,0,0,1-1.92-4c-.45-1.16-1.06-2.75-2.36-5.66a74.71,74.71,0,0,0-4.84-9.75,79.39,79.39,0,0,0-5.11-7.06c-1.86-2.4-3.73-4.64-5.56-6.67a46.13,46.13,0,0,0-5.15-5.21,18.32,18.32,0,0,0-2.21-1.58,29.24,29.24,0,0,1-2.91-2,63.88,63.88,0,0,1-6.43-5.85c-3.15-3.18-4.59-4.77-4.65-4.83l-.54-.59a10.25,10.25,0,0,0-2.23-2.1,8.4,8.4,0,0,0-2-.86l-1.66-.58a42.16,42.16,0,0,1-5.41-2.34,13.54,13.54,0,0,1-4-3.1,9.81,9.81,0,0,0-2.37-2,20,20,0,0,0-6.35-2.19,25.39,25.39,0,0,0-3.89-.62,24.63,24.63,0,0,1-3.83-.6,16.73,16.73,0,0,1-4.35-1.67,32.79,32.79,0,0,0-3.7-1.67,30.87,30.87,0,0,0-4.32-1.21L603,474.92l-.44-.11c-4-1-4.85-1.22-6.31-1.16a15,15,0,0,0-6,1.59,8.36,8.36,0,0,0-2.18,1.54c-.71.63-1.69,1.49-3.43,2.78a30.19,30.19,0,0,1-3,2c-.82.49-1.86,1.1-4.21,2.72l-.11.07a65.5,65.5,0,0,1-6.26,3.85,13.8,13.8,0,0,1-4,1.55,14.82,14.82,0,0,1-4.83.16,14.63,14.63,0,0,1-2-.41,3.18,3.18,0,0,0-1.21-.16,7.88,7.88,0,0,0-1.65.42,19.7,19.7,0,0,0-5.41,2.63,6.59,6.59,0,0,0-.91.71,19.93,19.93,0,0,1-1.63,1.34,43.7,43.7,0,0,1-5.36,3.39,22.85,22.85,0,0,1-3.7,1.65,12.4,12.4,0,0,0-2.36,1.07,15.41,15.41,0,0,0-2.32,1.56c-.65.5-1.46,1.13-2.85,2-1,.64-1.44.87-6,3.22-1.15.6-2.26,1.24-3.45,1.92a59.42,59.42,0,0,1-6.4,3.34l-.25.11a8.69,8.69,0,0,0-3.52,2.23,4.09,4.09,0,0,0-.58.82c-.21.33-.46.75-.89,1.36a18.1,18.1,0,0,1-4.68,5.12,7.63,7.63,0,0,1-4.58,1.24,7.19,7.19,0,0,0-3.11.57,5,5,0,0,0-1.64,1,9.64,9.64,0,0,1-3.05,1.83,12,12,0,0,1-4.08.87,13.75,13.75,0,0,0-3.36.59,31.81,31.81,0,0,0-4.49,1.89,18.35,18.35,0,0,0-4.19,2.42,3,3,0,0,0-.65.91,9,9,0,0,1-1.4,2.1c-1.66,1.9-3.44,2.84-6.15,4.27-1.29.68-2.16,1.06-2.79,1.34a6.81,6.81,0,0,0-1.85,1,8.64,8.64,0,0,0-1.4,1.35c-.35.39-.78.88-1.42,1.5a24.94,24.94,0,0,1-5.56,4l-.37.21A147.28,147.28,0,0,0,442.33,559c-.53.39-1,.77-1.47,1.12a33,33,0,0,1-6.53,4.22,22.36,22.36,0,0,1-6.8,2.28,17,17,0,0,1-3.33.18,11.27,11.27,0,0,0-2.65.15,18.64,18.64,0,0,0-5.1,1.69,13.56,13.56,0,0,0-2.87,1.78,35.93,35.93,0,0,1-3.38,2.3,39.08,39.08,0,0,1-7.1,3.5,26.76,26.76,0,0,1-5.8,1.35c-.82.13-1.76.27-2.93.48a99.77,99.77,0,0,0-10,2.45,88.81,88.81,0,0,0-12.51,5.14,58.38,58.38,0,0,0-5.32,2.71c-1.18.67-2.41,1.37-5.65,2.88a53.42,53.42,0,0,0-5.76,3.28c-1.17.73-2.38,1.48-3.61,2.18a11.42,11.42,0,0,0-1.74,1.13,7.19,7.19,0,0,0,.6.52c2.61,2,5.87,2.78,10.39,3.85,1.47.35,3.14.75,4.92,1.22,5.48,1.47,6.79,2.28,7.83,3.12a14.26,14.26,0,0,1,2.58,2.85c.64.85,1.44,1.92,2.86,3.55a28.56,28.56,0,0,0,3.08,3.3c2.28,1.81,4.84,2.54,8.08,3.47l.85.23a14.65,14.65,0,0,1,5.89,2.71,9.12,9.12,0,0,1,2.37,2.7c1.27,2.26,1.09,4.54.72,7.27a78.86,78.86,0,0,1-2,9.85c-.86,3.3-1.3,4.51-2.15,5.86a16.33,16.33,0,0,1-3.63,4l-.3.26c-1.61,1.39-3.18,2.91-4.7,4.39-.81.77-1.61,1.55-2.42,2.31-1.47,1.38-2.06,2-2.87,2.87s-1.67,1.77-3.56,3.65c-2.3,2.28-3.51,3.39-4.91,4.67s-2.92,2.67-5.92,5.57c-3.31,3.2-5.13,5-6.87,6.7-.74.74-1.5,1.45-2.26,2.17s-1.74,1.64-2.55,2.47l-.47.49a16.44,16.44,0,0,1-4.21,3.46,15.17,15.17,0,0,1-4.55,1.56,21.41,21.41,0,0,1-7.32-.11,39.34,39.34,0,0,1-10.35-2.42,35.82,35.82,0,0,1-6.11-3.17,25.48,25.48,0,0,1-4.38-3.38,33.12,33.12,0,0,1-3.49-4.19c-.92-1.23-1.44-2-1.79-2.5a5.74,5.74,0,0,0-.92-1.15,13.47,13.47,0,0,0-3.52-2.27,17.36,17.36,0,0,0-4.17-1.56c-.49-.11-1.16-.25-6.1-.07-5.78.22-6.54.48-7,.66a14.89,14.89,0,0,0-3.79,2.1,17.35,17.35,0,0,0-3,2.61c-.68.7-1.46,1.5-2.68,2.56a22.63,22.63,0,0,1-3.89,2.79,18.45,18.45,0,0,0-3.26,2.34,22.27,22.27,0,0,0-2.27,2.21,26.42,26.42,0,0,1-3.05,2.85c-1.48,1.19-2.88,2.12-5.66,4-2.48,1.64-4.67,3-5.75,3.66-1.5.92-2.42,1.45-3.09,1.84a16.67,16.67,0,0,0-2,1.27,11.51,11.51,0,0,0-1.57,1.37c-.55.52-1.29,1.25-2.71,2.52a53.06,53.06,0,0,1-4.12,3.45,18.37,18.37,0,0,0-2.09,1.8l-.22.21a12.68,12.68,0,0,1-3.75,2.74,11,11,0,0,1-2.22.73c-.32.08-.71.18-1.19.32a35.24,35.24,0,0,0-3.92,1.48c-1.26.56-2.25,1.26-5.64,4.26-2.6,2.31-4,3.58-6.29,5.8-1.41,1.38-3.23,3.32-6.87,7.2-.46.49-2.89,3.09-5.68,6.38a28.72,28.72,0,0,0-2.87,4,11.9,11.9,0,0,0-1.35,2.8,10.5,10.5,0,0,0-.22,3.79l0,.43c.12,2.45.1,3.39.08,4.14s0,1.23.09,2.92c.3,4.56.46,6.85,1.14,9.46.58,2.18,1.77,4.41,4.4,9.23,1.15,2.1,1.7,3,2.6,4.47.81,1.32,1.92,3.13,4,6.66.79,1.35,1.4,2.41,1.89,3.27a51.88,51.88,0,0,0,3,4.79c.9,1.29,1.48,2,2.09,2.76s1.44,1.79,2.67,3.56a67.9,67.9,0,0,1,4.79,7.76,46.34,46.34,0,0,1,3.45,8,41.8,41.8,0,0,1,1.83,9.27,42.58,42.58,0,0,1-.42,9.59c-1,7.81-1.18,9.81-1.29,11s-.17,1.75-.75,5.66c-.87,5.91-1.36,8.77-1.76,11.07s-.74,4.29-1.32,8.53c-.21,1.61-.47,3.22-.72,4.82-.4,2.51-.81,5.11-1.06,7.65l0,.19a38.61,38.61,0,0,1-.94,5.77,44.36,44.36,0,0,1-2.48,7c-1,2.42-1.63,3.88-2.79,5.18a11,11,0,0,1-5.5,3.5A10.44,10.44,0,0,1,212.54,906.76Z"/></svg>