<?xml version="1.0" encoding="utf-8"?>
<!-- Generator: Adobe Illustrator 24.0.1, SVG Export Plug-In . SVG Version: 6.00 Build 0)  -->
<svg version="1.1" id="Oval_Config" xmlns="http://www.w3.org/2000/svg" xmlns:xlink="http://www.w3.org/1999/xlink" x="0px"
	 y="0px" viewBox="0 0 1920 1080" style="enable-background:new 0 0 1920 1080;" xml:space="preserve">
<style type="text/css">
	.st0{fill:#FFFFFF;}
</style>
<title>active</title>
<path class="st0" d="M1787.8,428.7c-8.3-41.4-32.3-120.9-100-187.8c-31.8-31.5-69.5-56.1-112.1-73.3
	c-48.3-19.5-103.4-29.6-163.7-29.9c-129.2-0.7-344.3,4.3-534,8.6c-112.5,2.6-218.7,5-294.5,6c-111.3,1.5-205.1,21.9-278.8,60.9
	c-52.5,27.7-94.2,64.9-123.8,110.4c-34.6,53.2-53.3,118.6-55.6,194.4c-2,66.9,12.5,124.1,44.5,175c19.8,31.5,46.5,60.5,79.5,86.4
	c36.5,28.6,81.7,54.2,134.5,76.1c142.6,59.1,205.3,77.9,266,96.1c11.3,3.4,22.9,6.9,34.8,10.5c25,7.7,56.2,15.6,98.6,15.6
	c0.6,0,1.2,0,1.8,0c13.7-0.1,29.2-0.1,45.9-0.2c96.4-0.4,228.4-0.9,300.3-4.2c4-0.2,7.9-0.3,11.6-0.4c28.3-0.9,55-1.8,122.7-25.2
	c70.7-24.5,279.3-109.4,281.4-110.3l0.1-0.1c3-1.3,75-32.3,141.1-98c39.1-38.8,67.9-81.6,85.6-127.3
	C1796,554.9,1800.7,493.2,1787.8,428.7z M1674.6,724.8c-62.7,62.4-132.9,93.2-135.3,94.2c-5.1,2.1-210.6,85.8-280.3,109.9
	c-64.9,22.4-89,23.2-116.8,24.1c-3.8,0.1-7.8,0.3-11.9,0.4c-71.5,3.3-203.2,3.8-299.4,4.1c-16.7,0.1-32.2,0.1-45.9,0.2h0
	c-40.6,0.2-70.5-7.3-94.3-14.7c-12-3.7-23.7-7.2-35-10.6c-60.2-18.1-122.5-36.7-264.1-95.4c-170-70.5-250.5-174.7-246.2-318.5
	c9-296.4,278.6-344.2,438.5-346.3c75.9-1,182.2-3.4,294.7-6c177.7-4.1,377.6-8.7,508.1-8.7c8.8,0,17.2,0,25.3,0.1
	c222.3,1.2,329.8,142.8,356.2,275C1790.3,542.7,1758.8,641,1674.6,724.8z"/>
</svg>
