<svg id="nashville_ss_-_config" data-name="nashville ss - config" xmlns="http://www.w3.org/2000/svg" viewBox="0 0 1920 1080"><defs><style>.cls-1{fill:#fff;}</style></defs><path class="cls-1" d="M968.5,867.05a606.31,606.31,0,0,1-135.77-15.31c-29.87-7-48.6-13.8-82.6-26.22l-8.55-3.12c-70.78-25.8-113.86-40.35-145.32-51C550.71,756,531.85,749.67,493.61,731c-60.89-29.75-94.44-46.13-127.13-83.38a278,278,0,0,1-64.33-133.89c-4.95-28.56-11.92-103.11,30.11-178.58,29-52.06,67.42-79.87,85.88-93.23,17.57-12.72,54.87-36.2,107.22-50.54,43.63-12,79.1-12.2,102.57-12.36,102.57-.7,171.59-.7,217.22,0,77.1,1.18,145,.65,194.65.27,22.82-.18,42.52-.33,57.24-.27,2.17,0,6.75-.07,13.1-.18,35.57-.62,130.07-2.27,229.51,4.2,17.51,1.14,58.52,3.81,106,22.69a311.07,311.07,0,0,1,87.84,52.72c33,28.48,52.47,57.67,61.11,72.54a269.63,269.63,0,0,1-2.08,277.2c-9.86,16.33-32.37,48.42-72.4,79.71-22.46,17.56-47.27,31.53-127.47,63.41-34.08,13.56-53.67,20.57-174.36,63.14-61.84,21.81-95.9,33.83-128.35,40.37A617,617,0,0,1,976.13,867Q972.32,867,968.5,867.05ZM628.07,199c-23.77.16-56.32.38-97.43,11.64-49.3,13.51-84.3,35.53-100.78,47.46-17.29,12.52-53.27,38.57-80.12,86.77-38.94,69.88-32.47,139-27.89,165.42A257.69,257.69,0,0,0,381.52,634.4c28.82,32.85,57.88,47.84,120.87,78.62,37.08,18.11,55.58,24.36,100.27,39.46,31.56,10.65,74.77,25.25,145.76,51.12l8.57,3.13c33.27,12.15,51.59,18.84,80.28,25.53A587,587,0,0,0,975.87,847,597.75,597.75,0,0,0,1086,835.2c29.83-6,60.08-16.5,125.65-39.63,120.37-42.46,139.89-49.45,173.64-62.86,85.07-33.83,104.44-46.45,122.53-60.59,37.51-29.31,58.45-59.13,67.6-74.29a251.24,251.24,0,0,0,1.92-256.8c-8-13.79-26.07-40.88-56.89-67.46a291.26,291.26,0,0,0-82.16-49.28c-44.59-17.71-82-20.14-100-21.31-98.61-6.42-192.51-4.78-227.86-4.16-6.72.11-11.15.18-13.53.18-14.6-.07-34.25.09-57,.27-49.7.38-117.78.91-195.1-.27-45.48-.7-114.37-.7-216.78,0Z"/></svg>