<svg id="gp_-_config" data-name="gp - config" xmlns="http://www.w3.org/2000/svg" viewBox="0 0 1920 1080"><defs><style>.cls-1{fill:#fff;}</style></defs><path class="cls-1" d="M1644.5,628.18c-1.54-4.3-2.87-8-3.88-10.94-.42-1.23-.43-1.25-2.18-7-1.93-6.31-5.93-19.39-14.88-48.41-1-3.31-2-6.36-2.8-9.17-5.39-17.76-8.35-27.54-16.61-38.94-.21-.28-.44-.62-.71-1A74.21,74.21,0,0,0,1579.53,490c-16.84-10.11-38.56-14.94-64.59-14.36-19.31.43-62.29,2.38-112.06,4.64-52.71,2.39-112.46,5.1-162.4,6.86l-24.86.86c-46.62,1.58-117.07,4-156.27,6.38l-1.42.08c-22.22,1.36-39.77,2.43-75.06,16.93a183.85,183.85,0,0,0-47,28.11l-.13.11c-6.74,5.59-9.31,8.56-21.65,22.86-5.71,6.62-13.54,15.69-25,28.74-17.42,19.86-19.61,22-24.08,24.87-17.87,11.56-36.74,12.17-44,11.9a75.68,75.68,0,0,1-35.32-10.2c-10.05-6.16-16-13.49-26.49-28.65-18.57-26.95-31.21-49.32-35.36-56.67l-.33-.58c-7.29-12.9-14.67-24.74-21.17-35.18-26.47-42.52-42.45-68.18-25.92-109.52,8.31-20.76,25.13-31.09,30.66-34.49l1.3-.81c22.22-14.31,41.14-11.36,75.5-6,12.29,1.92,26.21,4.09,42.42,5.72,8.52.85,20.22,2.68,33.76,4.79,43,6.7,101.84,15.87,139.38,7,79-18.7,117.85-63.25,124.84-72,2.37-3,4.68-5.8,6.92-8.55,17.51-21.48,32.63-40,31.78-68.82-.55-18.86-17.88-34.88-38.63-35.71-25.12-1-85.27-2.61-112.91-3-44.72-.62-82.24-2.19-99.57-3.47-36.1-2.66-63.62-6.38-80.06-8.6-20.68-2.8-34.74-5.15-100.26-16.77-30.25-5.37-50.45-9-64.85-11.56-27.53-4.92-34.07-6.09-49.17-8.47-49.91-7.88-73.18-10.75-103.73-12.77-23.68-1.57-77.28-1.53-126,1.25-97.05,5.55-110.09,17.76-114.38,21.77-4.66,4.36-5.64,9-5.64,12.12,0,11.66,13.49,25.73,52.05,63,8.51,8.21,17.3,16.71,25.89,25.28,15.07,15,28.3,27,41.1,38.57,15.46,14,30.07,27.18,44.57,43.09a667.3,667.3,0,0,1,52.85,65.64c21.65,31.1,34.45,56,53.82,93.69,11.56,22.5,17.06,34.53,23.42,48.47,6.1,13.34,13,28.47,26.68,56.07,20.57,41.53,30.89,62.37,48,91.31,19.51,33,35.53,55.61,59.78,89.86,8.9,12.58,33.14,46.36,65.76,88.36C772.3,865.68,779.9,875.2,786,882.85c12.49,15.64,17.16,21.49,24.16,33.64,2.87,5,13,22.51,22.82,38.14,16.75,26.72,20.67,29.41,25.14,30.66a20.13,20.13,0,0,0,5.37.6c14.85,0,42-9.52,42.33-9.63h0c47.16-16.65,96.37-30.26,144-43.42,29-8,59.09-16.34,88.45-25.27,9.51-2.9,11.12-3.35,21.57-6.31,14.22-4,43.79-12.38,129.63-37.15,101.06-29.17,124.59-36.21,132.33-38.52,3.64-1.09,3.7-1.11,6.79-1.92,41-10.87,140.37-38.64,176.52-61.93l2.57-1.62c37.09-23.32,54.21-38.55,57.23-50.91C1667.82,697.19,1660,671.46,1644.5,628.18Zm1,76.28c-.43,1.65-4.78,11.28-48.45,38.73-1.17.73-2.1,1.32-2.75,1.74-34.7,22.35-139.51,51.12-170.81,59.4-3.39.9-3.69,1-7.4,2.1-7.71,2.31-31.17,9.32-132.15,38.46C1198.11,869.65,1168.57,878,1154.37,882c-10.38,2.93-12.25,3.46-21.95,6.41-29.12,8.87-59,17.14-88,25.14C996.54,926.82,947,940.52,899.17,957.4h0c-11.6,4.1-28,8.12-34.35,8.54-5.64-6.65-21-31-37.32-59.43-7.75-13.47-13-20.11-25.86-36.14-6.08-7.6-13.63-17.06-24.08-30.51-32.37-41.67-56.4-75.17-65.23-87.64-24-33.84-39.8-56.2-58.89-88.48-16.74-28.3-27-48.92-47.31-90-13.53-27.32-20.37-42.29-26.41-55.51-6.47-14.15-12.05-26.38-23.83-49.29-19.73-38.41-32.77-63.78-55.18-96a690,690,0,0,0-54.49-67.69c-15.15-16.62-30.11-30.14-45.94-44.45-12.62-11.4-25.66-23.19-40.38-37.89-8.7-8.68-17.56-17.24-26.12-25.51-16.95-16.36-39.6-38.24-45-47.24,5.36-3,25.89-10.91,98.55-15.16,48.41-2.84,101.66-2.92,125.16-1.37,29.86,2,52.73,4.8,101.94,12.57,14.9,2.35,21.4,3.52,48.77,8.41,14.41,2.58,34.62,6.19,64.88,11.56,65.87,11.68,80,14,101.07,16.9,16.67,2.25,44.56,6,81.27,8.73,17.63,1.29,55.62,2.89,100.76,3.52,27.52.39,87.39,2,112.38,3,10.3.41,19.2,7.89,19.45,16.32.63,21.35-10.48,35-27.29,55.6q-3.42,4.18-7,8.69c-3.84,4.81-39.69,47.47-113.83,65-33.72,8-90.34-.85-131.69-7.29-13.83-2.16-25.78-4-34.84-4.93C812.66,330.14,799,328,787,326.14c-35.3-5.5-60.8-9.47-89.4,8.95l-1,.59c-18.58,11.41-31.61,26.25-38.76,44.11-20.29,50.73.8,84.61,27.51,127.51,6.71,10.78,13.65,21.92,20.74,34.46l.32.57c4.27,7.54,17.23,30.5,36.32,58.18,10.08,14.63,18.31,25.66,32.51,34.35a95.13,95.13,0,0,0,45,13.13c11.41.43,33.8-1,55.64-15.1,7.05-4.56,10.73-8.48,28.26-28.46,11.49-13.11,19.35-22.21,25.08-28.86,12-13.88,13.82-16,19.28-20.54l.13-.1a163.81,163.81,0,0,1,41.78-25c32.23-13.24,47.52-14.17,68.69-15.46l1.42-.09c38.93-2.39,109.22-4.78,155.73-6.36,9.46-.32,17.92-.6,24.89-.85,50-1.76,109.84-4.48,162.6-6.87,49.64-2.26,92.52-4.2,111.6-4.63,51.24-1.13,66.54,21.12,71.57,28.43l1,1.41c6.29,8.68,8.6,16.31,13.67,33,.86,2.84,1.79,5.91,2.82,9.26,9,29,13,42.06,14.88,48.36,1.78,5.8,1.85,6,2.39,7.62,1,3,2.39,6.8,4,11.16,4.12,11.54,9.78,27.34,14,41.4C1646.34,698.59,1645.56,703.94,1645.45,704.46Z"/></svg>