<svg id="national_-_config" data-name="national - config" xmlns="http://www.w3.org/2000/svg" viewBox="0 0 1920 1080"><defs><style>.cls-1{fill:#fff;}</style></defs><path class="cls-1" d="M863.5,985.89a20.13,20.13,0,0,1-5.37-.6c-4.47-1.25-8.39-3.94-25.14-30.66-9.8-15.63-20-33.15-22.82-38.14-7-12.15-11.67-18-24.16-33.64-6.11-7.65-13.71-17.17-24.24-30.71-32.62-42-56.86-75.78-65.76-88.36-24.25-34.25-40.27-56.87-59.78-89.86l-.1-.17c-9.12-16.12-13.26-34.45-11.67-51.6,1.73-18.64,9.85-34.85,23.48-46.87,14.92-13.16,36.48-19.65,57.67-17.36a75.73,75.73,0,0,1,53.45,31l.17.24c10.45,15.16,16.44,22.49,26.49,28.65A75.68,75.68,0,0,0,821,628c7.29.27,26.16-.34,44-11.9,4.47-2.9,6.66-5,24.08-24.87,11.44-13,19.27-22.12,25-28.74,12.34-14.3,14.91-17.27,21.65-22.86l.13-.11a183.85,183.85,0,0,1,47-28.11c35.29-14.5,52.84-15.57,75.06-16.93l1.42-.08c39.2-2.41,109.65-4.8,156.27-6.38l24.86-.86c49.94-1.76,109.69-4.47,162.4-6.86,49.77-2.26,92.75-4.21,112.06-4.64,26-.58,47.75,4.25,64.59,14.36a74.21,74.21,0,0,1,23.91,22.72c.27.4.5.74.71,1,8.26,11.4,11.22,21.18,16.61,38.94.85,2.81,1.77,5.86,2.8,9.17,9,29,13,42.1,14.88,48.41,1.75,5.7,1.76,5.72,2.18,7,1,2.93,2.34,6.64,3.88,10.94,15.48,43.28,23.32,69,20.38,81-3,12.36-20.14,27.59-57.23,50.91l-2.57,1.62c-36.15,23.29-135.49,51.06-176.52,61.93-3.09.81-3.15.83-6.79,1.92-7.74,2.31-31.27,9.35-132.33,38.52-85.84,24.77-115.41,33.13-129.63,37.15-10.45,3-12.06,3.41-21.57,6.31-29.36,8.93-59.4,17.24-88.45,25.27-47.59,13.16-96.8,26.77-144,43.42C905.52,976.37,878.35,985.89,863.5,985.89Zm2.6-18.6ZM653.49,663.83c19.07,32.23,34.89,54.58,58.84,88.39,8.83,12.47,32.86,46,65.23,87.64,10.45,13.45,18,22.91,24.08,30.51,12.81,16,18.11,22.67,25.86,36.14,16.36,28.44,31.68,52.78,37.32,59.43,6.33-.42,22.74-4.44,34.35-8.54,47.82-16.88,97.37-30.58,145.29-43.83,28.93-8,58.84-16.27,88-25.14,9.7-2.95,11.57-3.48,21.95-6.41,14.2-4,43.74-12.37,129.52-37.13,101-29.14,124.44-36.15,132.15-38.46,3.71-1.11,4-1.2,7.4-2.1,31.3-8.28,136.11-37.05,170.81-59.4.65-.42,1.58-1,2.75-1.74,43.67-27.45,48-37.08,48.45-38.73.11-.52.89-5.87-5.79-28.14-4.21-14.06-9.87-29.86-14-41.4-1.57-4.36-2.91-8.13-4-11.16-.54-1.59-.61-1.82-2.39-7.62-1.93-6.3-5.93-19.36-14.88-48.36-1-3.35-2-6.42-2.82-9.26-5.07-16.71-7.38-24.34-13.67-33l-1-1.41c-5-7.31-20.37-29.56-71.57-28.43-19.08.43-62,2.37-111.6,4.63-52.76,2.39-112.56,5.11-162.6,6.87-7,.25-15.43.53-24.89.85-46.51,1.58-116.8,4-155.73,6.36l-1.42.09c-21.17,1.29-36.46,2.22-68.69,15.46a163.81,163.81,0,0,0-41.78,25l-.13.1c-5.46,4.53-7.3,6.66-19.28,20.54-5.73,6.65-13.59,15.75-25.08,28.86-17.53,20-21.21,23.9-28.26,28.46C854.09,647,831.69,648.42,820.29,648a95.13,95.13,0,0,1-45-13.13c-14.15-8.67-22.38-19.66-32.43-34.22a56,56,0,0,0-39.39-22.84c-15.7-1.7-31.51,3-42.29,12.48C641.53,607.59,638.45,637.14,653.49,663.83Z"/></svg>