<svg id="chicago_-_config" data-name="chicago - config" xmlns="http://www.w3.org/2000/svg" viewBox="0 0 1920 1080"><defs><style>.cls-1{fill:#fff;}</style></defs><path class="cls-1" d="M912,859.66H604.13c-93.22,0-140.64-1.72-199.44-40.63-26-17.2-55.29-39.63-83.61-61.33-25-19.15-48.63-37.23-68.6-50.72a60.65,60.65,0,0,1-26.76-50.32V569.19a42.58,42.58,0,0,1,36.65-42c16.86-2.33,30.5-3.51,40.53-3.51H911.76a22.42,22.42,0,0,0,22.39-22.4V229.21a42.45,42.45,0,0,1,42.4-42.4h111.08a35.14,35.14,0,0,1,29.77,16.32c30.9,48.46,84.16,77.39,142.48,77.39s111.58-28.93,142.47-77.39a35.15,35.15,0,0,1,29.77-16.32H1543a42.45,42.45,0,0,1,42.4,42.4V501.28a42.45,42.45,0,0,1-42.4,42.4H976.8a22.43,22.43,0,0,0-22.4,22.4V817.26A42.45,42.45,0,0,1,912,859.66Zm-609.1-316c-9,0-22.07,1.15-37.8,3.32a22.5,22.5,0,0,0-19.38,22.19v87.47a40.67,40.67,0,0,0,18,33.74c20.47,13.83,44.32,32.09,69.57,51.42,28.06,21.49,57.07,43.71,82.49,60.53,54.1,35.8,96.86,37.31,188.4,37.31H912a22.43,22.43,0,0,0,22.4-22.4V566.08a42.45,42.45,0,0,1,42.4-42.4H1543a22.43,22.43,0,0,0,22.4-22.4V229.21a22.43,22.43,0,0,0-22.4-22.4H1432.12a15.23,15.23,0,0,0-12.9,7.07,187.47,187.47,0,0,1-66.92,62.84,191.34,191.34,0,0,1-184.84,0,187.5,187.5,0,0,1-66.93-62.84,15.23,15.23,0,0,0-12.9-7.07H976.55a22.43,22.43,0,0,0-22.4,22.4V501.28a42.44,42.44,0,0,1-42.39,42.4Z"/></svg>