<svg id="North_-_config_copy" data-name="North - config copy" xmlns="http://www.w3.org/2000/svg" viewBox="0 0 1920 1080"><defs><style>.cls-1{fill:#fff;}</style></defs><path class="cls-1" d="M555.8,435.17c-5.44,0-12.42-3.38-27.21-16.2-9.27-8-21.18-19.45-35.39-33.9-24.22-24.64-48.86-51.8-55.65-59.45-15-16.43-31.92-32.1-49.85-48.69-13.51-12.5-27.48-25.43-41.93-39.85-8.59-8.57-17.38-17.07-25.89-25.28-38.56-37.24-52.05-51.31-52.05-63,0-3.12,1-7.76,5.64-12.12,4.29-4,17.33-16.22,114.38-21.77,48.7-2.78,102.3-2.82,126-1.25,30.55,2,53.82,4.89,103.73,12.77,15.1,2.38,21.64,3.55,49.17,8.47,14.4,2.58,34.6,6.19,64.85,11.56,65.52,11.62,79.58,14,100.26,16.77,16.44,2.22,44,5.94,80.06,8.6,17.33,1.28,54.85,2.85,99.57,3.47,27.64.39,87.79,2,112.91,3,20.75.83,38.08,16.85,38.63,35.71.85,28.8-14.27,47.34-31.78,68.82-2.24,2.75-4.55,5.59-6.92,8.55-7,8.74-45.85,53.29-124.84,72-37.54,8.88-96.4-.29-139.38-7-13.54-2.11-25.24-3.94-33.76-4.79-16.47-1.66-32.83-4.18-46-6.21-4.86-.75-9.45-1.45-13.55-2-8.31-1.18-16.84-2.65-25.09-4.07-26-4.49-53-9.14-73.76-4.23-35.82,8.45-58.73,23.33-70.06,45.48-3.09,6.05-5.82,11.66-8.24,16.61-10.77,22.09-17.28,35.43-31.57,37.82A14.25,14.25,0,0,1,555.8,435.17Zm1.41-19.87ZM288.79,150.17c5.39,9,28,30.88,45,47.24,8.56,8.27,17.42,16.83,26.12,25.51,14.18,14.16,28,27,41.38,39.33,18.27,16.9,35.53,32.87,51.1,49.95l.09.1c6.1,6.87,28.68,31.78,51.62,55.3,35.71,36.6,48.13,45.16,51.91,47.16,4.08-2.56,9.73-14.16,15.69-26.37,2.45-5,5.23-10.72,8.41-16.94,14.15-27.7,41.39-46,83.27-55.85,24.77-5.84,53.74-.85,81.75,4,8.1,1.4,16.48,2.84,24.52,4,4.22.6,8.85,1.32,13.76,2.08,13.59,2.09,29,4.46,44.93,6.07,9.06.91,21,2.77,34.84,4.93,41.35,6.44,98,15.27,131.69,7.29,74.14-17.55,110-60.21,113.83-65q3.61-4.51,7-8.69c16.81-20.63,27.92-34.25,27.29-55.6-.25-8.43-9.15-15.91-19.45-16.32-25-1-84.86-2.59-112.38-3-45.14-.63-83.13-2.23-100.76-3.52-36.71-2.71-64.6-6.48-81.27-8.73-21-2.85-35.2-5.22-101.07-16.9-30.26-5.37-50.47-9-64.88-11.56-27.37-4.89-33.87-6.06-48.77-8.41-49.21-7.77-72.08-10.59-101.94-12.57-23.5-1.55-76.75-1.47-125.16,1.37C314.68,139.26,294.15,147.13,288.79,150.17Z"/></svg>