<?xml version="1.0" encoding="utf-8"?>
<!-- Generator: Adobe Illustrator 24.0.1, SVG Export Plug-In . SVG Version: 6.00 Build 0)  -->
<svg version="1.1" id="Grand_Prix_-_Config" xmlns="http://www.w3.org/2000/svg" xmlns:xlink="http://www.w3.org/1999/xlink"
	 x="0px" y="0px" viewBox="0 0 1920 1080" style="enable-background:new 0 0 1920 1080;" xml:space="preserve">
<style type="text/css">
	.st0{fill:#FFFFFF;}
</style>
<title>active</title>
<path class="st0" d="M1566,467.1c-0.7-1.2-1.5-2.4-2.2-3.6c-9.7-15.9-21.4-30.7-30-41.4l-2.3-2.9c-13.3-16.7-22.2-22.7-31.7-29
	c-2.3-1.6-4.8-3.2-7.3-5c-17.9-12.7-44.5-29.4-79-49.4c-31.9-18.5-64.7-4.8-75.1,11.8c-12.2,19.4-9.9,35.7-5.8,46
	c7.1,17.9,24.1,29.6,36.9,32.9c8.6,2.2,23.3,4.8,35.2,6.8c4.1,0.7,7.9,1.4,10.9,1.9c14.2,2.6,18,9.6,19.8,15.3
	c2.4,8.1-5.6,21.3-11.8,24.7c-6.9,3.8-16.5,9.3-26.6,15.2c-12.2,7.1-24.9,14.4-33.1,18.8c-17.4,9.2-32.5,11.2-45,6
	c-11.8-4.9-18.5-15.2-21.5-20.8c-7.1-13.5-17.9-34.8-28.4-55.4c-7.5-14.7-14.5-28.6-19.6-38.5c-20-38.6-51.1-38.6-66.1-38.6
	c-18.9,0-42.1-0.5-66.6-1.1c-24.9-0.6-50.6-1.2-73.8-1.3c-19.6-0.1-31.2,1.7-40.5,11.4c-3.6,3.8-10.8,11.5-14.5,15.7
	c-7.4,8.4-14.3,13-20,13.2c-6.6,0.3-12.3-5-17.3-9.8c-1-0.9-1.9-1.8-2.8-2.6C845.1,296.9,792.6,248.2,750.5,209
	c-25.1-23.3-46.7-43.5-72.4-66.2c-25.3-22.4-54.1-32.1-83.5-27.9c-28.3,4-48.9,19.3-56.4,25.7c-26,22-23.2,52.4-13,67
	c3.5,4.9,10.7,14,14.7,18.4c4.1,4.6,4.6,6.9,4.7,7.4c-0.4,0.7-2.1,2-3.1,2.7l-0.2,0.1c-1.8,1.3-4.3,3.2-6.9,5.2
	c-4.5,3.4-9.5,7.2-12.5,9.3c-6,4.3-13.2,9.4-21,15c-27.4,19.5-65,46.1-87.8,64.4c-25.9,20.6-53.3,32.7-70.4,37.2
	c-51.1,13.5-69.4,35.3-75.8,47c-10,18.5-12.4,37.3-7.1,55.7c4.9,16.9,15.2,29.5,23,37.1c22.7,22.1,67.3,58.4,93.5,76.1l32.5,21.9
	c104.9,70.7,263.4,177.6,350.7,234.8c25,16.4,31.2,27.5,36.3,39.4c1.1,2.5,2.4,5.7,3.7,9.1c5.6,13.9,12.5,31.1,19.4,40.4
	c18.5,24.9,33.3,30.7,49.8,31.8c31.4,2,49.1-10.5,62.1-19.7c0.9-0.6,1.8-1.2,2.6-1.8c16.4-11.4,33.9-13.8,53.7-7.4
	c15.2,4.9,42.7,16.2,55.4,23.3c13.2,7.4,26.8,11.1,40.6,11.1c12.8,0,25.8-3.2,38.4-9.7c20.8-10.7,41.3-15.7,62.8-15.3
	c17.9,0.3,40.3,1.4,61.9,2.4c30.3,1.4,61.7,2.8,82.5,2.4c49.9-1,107.9-8.6,152.8-15.1c40.1-5.8,67.1-18.6,82.7-39.1
	c13.7-17.9,15.6-38,15.6-55.2l0.1-26.4c0.3-82.4,0.8-206.8,1.7-273.9C1582.2,493.1,1574.3,480.5,1566,467.1z M1561.6,535.6
	c-0.9,67.2-1.4,191.7-1.7,274.1l-0.1,26.4c-0.1,30.4-6.5,63.7-81.2,74.6c-44.3,6.4-101.5,14-150.3,14.9c-20.1,0.4-51.1-1-81.1-2.4
	c-21.8-1-44.3-2-62.5-2.4c-24.9-0.4-48.5,5.3-72.3,17.5c-20.2,10.4-40.3,10-60-1c-15-8.4-44.5-20.2-59-24.9
	c-9.2-3-18.2-4.5-26.9-4.5c-15.7,0-30.6,4.8-44.4,14.4c-0.9,0.6-1.8,1.3-2.7,1.9c-11.7,8.3-24.9,17.6-49.3,16.1
	c-9.6-0.6-19.5-2.9-35-23.7c-5.3-7.2-12.3-24.5-16.9-35.9c-1.4-3.5-2.7-6.8-3.9-9.5c-5.9-13.8-14.1-28.9-43.7-48.3
	c-87.2-57.1-245.7-164-350.5-234.7l-32.5-21.9c-25-16.9-69.1-52.8-90.8-73.9c-12.1-11.8-29.9-36.5-12.3-69
	c3-5.6,16.5-24.8,63.3-37.2c19-5,49.5-18.4,77.8-40.9l0,0c22.4-17.9,59.7-44.4,87-63.7c7.9-5.6,15.1-10.7,21.1-15
	c3.2-2.3,8.4-6.2,12.9-9.6c2.6-2,5-3.8,6.8-5.1l0.2-0.1c3.3-2.4,10.2-7.5,11.1-16.7c0.7-7.3-2.5-14.7-9.8-22.8
	c-3.4-3.8-10.2-12.3-13.2-16.5c-4.6-6.6-8.4-25.1,9.5-40.3c9.5-8.1,59.7-45.9,113.7,2c25.5,22.6,47.1,42.7,72,65.9
	c42.2,39.3,94.7,88.1,197.6,179.1c0.7,0.7,1.5,1.4,2.4,2.2c6.3,5.9,16.9,15.9,32,15.2c11.5-0.6,22.7-7.1,34-20
	c3.4-3.9,10.6-11.6,13.9-15.1c3.4-3.6,8.2-5.3,25.9-5.2c23,0.1,48.6,0.7,73.4,1.3c24.7,0.6,48,1.1,67.1,1.1c14.3,0,33.9,0,48.3,27.8
	c5.1,9.8,12.1,23.6,19.5,38.3c10.5,20.7,21.3,42.1,28.5,55.7c4.2,8,14,22.6,31.5,29.9c18.2,7.7,39.1,5.4,62.1-6.7
	c8.6-4.5,21.4-12,33.8-19.2c10-5.8,19.5-11.3,26.2-15c12.6-6.9,27.1-29,21.4-48.1c-4.8-15.9-16.7-25.8-35.3-29.2
	c-3-0.6-6.9-1.2-11.1-2c-11.5-2-25.8-4.5-33.6-6.5c-6.9-1.8-18.8-9.5-23.3-20.9c-3.5-8.7-2.1-18.1,4.1-27.9
	c4.5-7.1,24.7-18.7,48.1-5.1c34,19.7,60,36,77.4,48.4c2.8,2,5.4,3.7,7.9,5.4c8.8,5.9,15.8,10.5,27.1,24.7l2.3,2.9
	c8.2,10.3,19.5,24.5,28.5,39.3c0.8,1.3,1.6,2.6,2.4,3.8C1556.3,489.4,1562.1,498.7,1561.6,535.6z"/>
</svg>
