<svg id="gp_-_config" data-name="gp - config" xmlns="http://www.w3.org/2000/svg" viewBox="0 0 1920 1080"><defs><style>.cls-1{fill:#fff;}</style></defs><path class="cls-1" d="M1188.88,998.67c-16.61,0-33,0-47.34-.06-12.59,0-23.12-.05-30,0h0c-58,.1-182.78-.59-283.07-1.15-62.5-.34-116.47-.64-135.94-.64-16.41,0-37.19,0-58.38,0-43.82,0-89.14.11-101.78-.05-15.11-.18-30.29-11.44-35.31-26.19-4.58-13.46,0-26.87,12.59-36.8,22.71-17.91,54.16-40.13,70.31-47.92l2.32-1.12c15.74-7.66,48.49-23.61,98.53-26.43,32.92-1.86,77.63-.82,113.56,0,20.17.47,37.58.88,49.19.7,6.77-.1,13-.07,18.45,0,12.84,0,23,.1,31.07-1.5,17.5-3.46,25-11.79,28.8-31.84,4.4-23.42-14.73-35.47-31.56-41.45-8.63-3.07-31.24-12.44-53.11-21.51-8.71-3.61-17.14-7.1-24.13-10-21.17-8.67-28.46-28-32.45-43.86-4.82-19.15-10.09-45.09-14.33-65.93-2.36-11.59-4.39-21.6-6-29-4.3-19.34-44.79-206.38-47-232.36-1.36-16.1-.63-51.65.22-78.64a24.52,24.52,0,0,0-10.11-20.63c-37.78-27.43-108.84-80-120.68-89.29-22.19-17.41-39.42-59-14.07-91.81C592.39,70.5,629.33,68,671.63,68h0c34.54,0,118.89,14.33,166.11,22.87a30.9,30.9,0,0,1,24.49,37.78L861.2,133a10.93,10.93,0,0,0,3.87,11.19c14.92,11.65,26.58,20.48,32.84,24.86,9.54,6.67,50.09,37,73.42,54.48a24.43,24.43,0,0,0,25.9,2.26c13.91-7.08,23.88-12.6,28.81-16,6.13-4.19,18.87-11.46,34.09-19.44,30.31-15.91,62.6-6.56,80.36,23.25,2.75,4.61,5,8.77,7.23,12.8,1.22,2.23,2.43,4.44,3.71,6.69,2.19,3.88,5.85,10.51,10.08,18.19,12.15,22,32.48,58.91,39.45,69l.54.78c8.91,12.86,18.12,26.16,51.53,36.16l6.43,1.93c38,11.36,77.33,23.1,93.39,33.89,15.08,10.12,32.87,29.32,32,63.28-.68,26.85-8.07,152.36-9.67,175-.67,9.48-2.41,37.13-4.26,66.4-2.51,39.85-5.1,81-5.63,86.59s-2.09,22-13.87,31.46c-6.67,5.36-15.12,7.46-25.12,6.23-11.59-1.42-30.91-4.85-49.59-8.16-19.85-3.53-40.37-7.17-49.21-7.95-20-1.77-67.38-2.34-75-.47-5.22,1.27-22.26,6.89-22.44,25.59-.23,25.09,21.42,29.18,34.35,29.39,11.69.18,30-.21,49.42-.63,27.49-.59,55.93-1.2,70-.25,14.75,1,30.57,8,42.32,18.71a66.85,66.85,0,0,1,22.19,50.2c.25,42.41-30.43,66.83-60.87,69C1273.1,998.46,1230.38,998.67,1188.88,998.67Zm-47.3-20.06c46.78.09,125.08.26,144.42-1.14,20.51-1.47,42.5-17.42,42.31-49s-27.47-47.84-45.85-49.08c-13.16-.88-41.14-.28-68.21.3-19.59.42-38.09.81-50.15.62-33.11-.52-54.32-20-54-49.57.25-26.35,20.45-40.62,37.68-44.83,12.11-3,64.68-1.52,81.53,0,9.72.86,29.74,4.41,50.94,8.17,18.43,3.27,37.48,6.65,48.54,8,6.68.82,9.29-1.28,10.15-2,5.2-4.17,6.17-14.4,6.49-17.76.5-5.23,3.2-48.11,5.58-85.95,1.85-29.32,3.59-57,4.27-66.56,1.59-22.51,9-147.4,9.62-174,.5-20-7.29-35.52-23.16-46.17-13.55-9.1-54.82-21.43-88-31.34l-6.45-1.93c-40.12-12-52.38-29.71-62.23-43.93l-.54-.77c-7.55-10.88-26.61-45.45-40.52-70.7-4.21-7.63-7.84-14.22-10-18-1.31-2.33-2.56-4.61-3.83-6.92-2.12-3.87-4.31-7.87-6.87-12.18-12.34-20.7-33-26.74-53.89-15.77-14.35,7.53-26.65,14.52-32.08,18.24-5.72,3.91-16.17,9.73-31,17.29a44.32,44.32,0,0,1-47-4.07c-23.23-17.41-63.59-47.6-72.89-54.11-8.37-5.86-22.94-17.09-33.68-25.48a30.93,30.93,0,0,1-11-31.72l1.08-4.42a10.9,10.9,0,0,0-8.63-13.33C796.75,103.74,705.9,88,671.68,88h0c-38.24,0-68.95,1.9-87.14,25.44-17.2,22.27-4.65,51.89,10.6,63.85,11.45,9,83.28,62.13,120.08,88.85a44.5,44.5,0,0,1,18.35,37.44c-.68,21.66-1.63,60.39-.28,76.33,1.85,22,37.88,190.66,46.56,229.7,1.68,7.57,3.73,17.66,6.11,29.34,4.2,20.65,9.42,46.34,14.12,65,4.34,17.25,10.32,26,20.64,30.23,7,2.88,15.47,6.38,24.21,10,20.63,8.55,44,18.24,52.15,21.13,33.68,12,49.91,35.3,44.52,64-5.26,28-19,42.72-44.59,47.77-10,2-21.07,1.94-35,1.88-5.39,0-11.5,0-18.07,0-12,.18-29.59-.23-50-.7-35.57-.83-79.84-1.86-112-.05-46,2.6-76.34,17.36-90.91,24.45l-2.38,1.16C576,910,546.72,930,522.05,949.49c-8.69,6.85-6.69,12.72-6,14.65,2.27,6.65,10,12.56,16.62,12.64,12.51.15,57.76.1,101.52,0,21.2,0,42,0,58.4,0,19.52,0,73.52.3,136.05.64C928.86,978,1129,978.58,1141.58,978.61Z"/></svg>