<svg id="hickory_-_config" data-name="hickory - config" xmlns="http://www.w3.org/2000/svg" viewBox="0 0 1920 1080"><defs><style>.cls-1{fill:#fff;}</style></defs><path class="cls-1" d="M985.87,805.9c3.55,0,7.09,0,10.65,0s7.24.1,10.86.16c7.22.13,14.44.32,21.65.35,14.4,0,28.76-.1,43.07-.18s28.56-.25,42.76-.54,28.35-.81,42.41-1.5,28.06-1.65,42-2.87,27.68-2.77,41.31-4.76,27.11-4.43,40.38-7.3c6.64-1.43,13.19-3.06,19.71-4.78l9.71-2.69c3.2-1,6.42-1.91,9.59-2.95A356.5,356.5,0,0,0,1357,764.57,285.35,285.35,0,0,0,1391.47,746a246.59,246.59,0,0,0,31.37-23.09A251.26,251.26,0,0,0,1450.25,695c17-20.05,30.7-43.25,41.53-68l2-4.64,1.89-4.72c1.26-3.15,2.54-6.28,3.67-9.49,2.4-6.37,4.57-12.81,6.6-19.15l2.54-9.27.64-2.32c.18-.78.33-1.58.5-2.37l1-4.76,1-4.75a21.48,21.48,0,0,0,.41-2.4l.34-2.41c.44-3.22.95-6.42,1.35-9.64a256.38,256.38,0,0,0,.86-39.11,277.78,277.78,0,0,0-5.67-39,309.75,309.75,0,0,0-11.56-38c-1.22-3.09-2.53-6.14-3.78-9.22-.65-1.53-1.24-3.08-1.93-4.59l-2.13-4.51-2.11-4.52c-.7-1.51-1.4-3-2.2-4.48l-4.66-8.83c-25.68-46.61-63.86-86.62-109.28-112.8l-4.24-2.47c-1.42-.81-2.91-1.49-4.35-2.25-2.92-1.47-5.8-3-8.74-4.43l-8.93-4-2.23-1c-.75-.31-1.52-.57-2.27-.87l-4.56-1.72-4.55-1.73-1.14-.43-1.16-.37-2.31-.72-9.25-2.91c-6.09-1.44-11.66-3.18-18.77-4.26l-42.15-7.6-42.25-7.49c-56.27-9.85-112.52-18.54-168.86-24-56.36-4.9-112.81-7-168.47-3-13.89,1-27.75,2.29-41.49,4.15s-27.38,4.06-40.88,6.79c-26.94,5.6-53.38,13-78.49,23.24l-4.71,1.9c-1.58.62-3.1,1.35-4.65,2l-4.64,2c-1.55.68-3.1,1.35-4.61,2.11l-9.11,4.38L679.52,268a333.82,333.82,0,0,0-34.11,21.2,288.25,288.25,0,0,0-30.92,25.33L610.83,318c-1.2,1.15-2.34,2.37-3.52,3.54l-3.5,3.57-1.75,1.78c-.58.59-1.12,1.23-1.69,1.84l-6.7,7.41-6.39,7.7a324.28,324.28,0,0,0-23.16,32.71c-1.76,2.86-3.4,5.79-5.11,8.68-.83,1.45-1.72,2.87-2.51,4.36L554.14,394l-2.37,4.46-1.19,2.23-1.07,2.22-4.29,8.89a248.35,248.35,0,0,0-12.25,37,251.09,251.09,0,0,0-6.4,39l-.45,4.94c-.13,1.65-.17,3.31-.25,5l-.24,5-.11,2.48v2.49l0,9.95.39,10a306.61,306.61,0,0,0,4.88,39.56l2,9.78,2.42,9.69.61,2.42.7,2.4,1.41,4.79c.48,1.6.92,3.2,1.42,4.79l1.6,4.73a285.4,285.4,0,0,0,15.18,36.87,302.57,302.57,0,0,0,20,34.36,276,276,0,0,0,24.61,30.95l3.36,3.61,1.68,1.8c.57.59,1.17,1.15,1.75,1.73l7,6.87,7.34,6.52c1.2,1.12,2.49,2.12,3.77,3.14l3.81,3.08c1.29,1,2.51,2.1,3.85,3l4,2.87,4,2.89c.64.48,1.34.95,2.06,1.41l2.14,1.4,8.55,5.58,4.31,2.8c1.42.91,2.88,1.93,4.28,2.71,22.25,13.61,47,23.66,72.89,30.74s53.08,11.34,80.64,13.94,55.63,3.54,84,3.85c14.17.15,28.42.14,42.75.09l21.57-.08Zm0,44.2-21.6.39c-7.17.17-14.35.28-21.54.5q-21.6.57-43.4,1c-29.07.45-58.44.29-88.07-1.93-3.71-.29-7.41-.55-11.12-.93s-7.42-.67-11.14-1.13q-11.13-1.29-22.29-3.05a421.24,421.24,0,0,1-44.51-9.42,349.43,349.43,0,0,1-43.72-14.92,298.76,298.76,0,0,1-41.76-21.26c-1.74-1-3.22-2-4.82-3.07l-4.73-3.09-9.47-6.25-2.37-1.57c-.79-.51-1.58-1.05-2.38-1.65l-4.75-3.48-4.75-3.5c-1.59-1.15-3.07-2.45-4.61-3.66l-4.57-3.72c-1.52-1.24-3-2.46-4.49-3.79l-8.73-7.88-8.33-8.26c-.68-.7-1.39-1.38-2.06-2.08l-2-2.16-4-4.32A325.44,325.44,0,0,1,536.05,704a351.4,351.4,0,0,1-23-40.36c-26.75-55.74-38.47-118.32-32.73-180.07A308,308,0,0,1,488,437.68l.66-2.84.79-2.82,1.59-5.62c.54-1.88,1-3.76,1.62-5.62l1.85-5.56c1.26-3.7,2.41-7.39,3.95-11.13l2.19-5.6,1.1-2.79c.19-.46.37-.94.56-1.39L503,393a456.73,456.73,0,0,1,21.29-41l6-9.82c1-1.66,2.06-3.25,3.14-4.85l3.2-4.81,3.2-4.81,3.39-4.7,3.4-4.69,1.7-2.34,1.8-2.28,7.18-9.13,7.54-8.86c.64-.73,1.25-1.48,1.9-2.2l2-2.14,4-4.27c1.33-1.41,2.63-2.86,4-4.25l4.14-4.1a317.88,317.88,0,0,1,35.29-30.48,355.53,355.53,0,0,1,81-44.73,417.69,417.69,0,0,1,43.34-14.8c14.61-4.18,29.36-7.6,44.15-10.47s29.65-5,44.5-6.73l11.13-1.2,11.13-1c3.71-.36,7.42-.56,11.13-.82s7.42-.52,11.12-.67c14.82-.84,29.61-1.12,44.37-1.21s29.48.18,44.15.73c7.35.25,14.67.64,22,1l21.92,1.4c3.65.25,7.31.46,11,.75s7.28.59,10.93.82c7.28.56,14.57,1.08,21.83,1.74,29.08,2.41,58,5.69,86.82,9.41s57.48,8,86,12.58l21.38,3.49,21.33,3.67,42.73,7.52c7.14,1,15.37,3.35,23.24,5.35,3.79,1.17,7.53,2.39,11.3,3.59l2.82.91,1.4.46,1.38.52,5.52,2.12,5.52,2.13c.91.36,1.84.69,2.74,1.08l2.69,1.2,10.75,4.84c3.53,1.72,7,3.57,10.48,5.35,1.73.92,3.5,1.77,5.19,2.75l5.07,3,5.06,3,2.53,1.49c.83.5,1.63,1.06,2.45,1.59l9.79,6.42c1.65,1,3.18,2.25,4.76,3.38l4.72,3.44,4.71,3.45,4.53,3.66a318.88,318.88,0,0,1,34.18,31.5c2.63,2.84,5.28,5.67,7.87,8.53l7.49,8.85c2.54,2.91,4.84,6,7.21,9.07l3.53,4.59c.58.77,1.19,1.52,1.74,2.31l1.67,2.37,6.64,9.49c2.14,3.21,4.16,6.5,6.24,9.75,1,1.63,2.08,3.25,3.08,4.9l2.89,5,2.87,5c1,1.68,2,3.34,2.8,5.07l5.3,10.31c.9,1.7,1.7,3.46,2.5,5.22l2.41,5.27,2.4,5.28c.79,1.76,1.46,3.58,2.2,5.37,1.43,3.59,2.91,7.17,4.28,10.78A358,358,0,0,1,1555,462.81a333.37,333.37,0,0,1,6.27,46.35,302.09,302.09,0,0,1-1.36,47.05c-.5,3.9-1.13,7.8-1.7,11.7l-.44,2.92a28.56,28.56,0,0,1-.51,2.91l-1.22,5.8-1.23,5.79c-.21,1-.4,1.93-.63,2.9l-.79,2.88-3.2,11.51c-2.37,7.33-4.82,14.5-7.51,21.57-1.27,3.56-2.71,7.08-4.13,10.6l-2.14,5.27-2.29,5.23c-12.1,27.9-27.55,54.85-47,79.09a299.57,299.57,0,0,1-31.86,34,291.89,291.89,0,0,1-36.92,28.49c-26,17-54.44,29.59-83.41,38.58s-58.54,14.68-87.94,18.43-58.78,5.49-87.94,6.3-58.15.68-87,.35L1029,850c-7.17-.08-14.33-.19-21.49-.2-3.57,0-7.15,0-10.72.07Z"/></svg>