<svg id="Oval_-_Config" data-name="Oval - Config" xmlns="http://www.w3.org/2000/svg" viewBox="0 0 1920 1080"><defs><style>.cls-1{fill:#fff;}</style></defs><path class="cls-1" d="M1581.31,236c-24.19-45.38-52.09-78.5-87.79-104.25-38.32-27.64-86.66-46.91-147.76-58.9-84.58-16.61-157.61,11.11-290.18,61.44l-2.59,1c-54.81,20.8-165.3,58.47-272.15,94.9-77.39,26.39-150.49,51.31-199.64,68.85-59.67,21.3-107,41.28-144,69.55-38.73,29.59-63.87,67.05-79.1,117.9-16.41,54.76-17.67,104-3.86,150.47,12.2,41,36.09,79.27,73.05,116.84,67,68.08,142.72,93.94,222.9,121.31l3.49,1.19,17.09,5.86c71.73,24.65,145.9,50.14,219,52.15,5.28.15,10.37.22,15.31.22,69.54,0,106.76-14.47,165.26-43.45,42.11-20.86,83-44.26,122.63-66.9,22.11-12.64,45-25.71,67.68-38.13,61.78-33.78,172.16-95.58,217.3-129.85,43.41-33,70.55-58.65,90.73-85.92,22.19-30,36.17-62.18,45.32-104.4C1632.89,378.52,1624,316.22,1581.31,236Zm13.1,225.63c-17.76,82-57.24,124.46-128.59,178.63C1421.71,673.79,1312.31,735,1251,768.53c-22.88,12.51-45.83,25.63-68,38.32-39.33,22.49-80,45.74-121.58,66.34-56.8,28.14-90.72,41.38-156.14,41.37q-7.23,0-15-.21c-70-1.93-142.69-26.91-213-51.07l-17.13-5.87-3.49-1.2c-81.26-27.74-151.44-51.7-215.1-116.41-72.41-73.6-92.84-152.26-64.29-247.54,28.46-95,88-130.56,210.65-174.35,49-17.5,122.05-42.4,199.38-68.76,107-36.48,217.66-74.21,272.79-95.14l2.58-1c104.45-39.65,170.94-64.9,234.34-64.9a231.73,231.73,0,0,1,44.9,4.38c111.24,21.85,175.49,66.16,221.75,152.94C1604.4,321.88,1612.44,378.46,1594.41,461.67Z"/></svg>