<?xml version="1.0" encoding="utf-8"?>
<!-- Generator: Adobe Illustrator 24.0.1, SVG Export Plug-In . SVG Version: 6.00 Build 0)  -->
<svg version="1.1" id="Historic_Grand_Prix_-_Config"
	 xmlns="http://www.w3.org/2000/svg" xmlns:xlink="http://www.w3.org/1999/xlink" x="0px" y="0px" viewBox="0 0 1920 1080"
	 style="enable-background:new 0 0 1920 1080;" xml:space="preserve">
<style type="text/css">
	.st0{fill:#FFFFFF;}
</style>
<title>active</title>
<path class="st0" d="M1566,467.1c-0.7-1.2-1.5-2.4-2.2-3.6c-9.7-15.9-21.4-30.7-30-41.4l-2.3-2.9c-13.3-16.7-22.2-22.6-31.7-28.9
	c-2.4-1.6-4.8-3.2-7.3-5c-18-12.8-43.9-29-79-49.4c-18.4-10.7-35-9.9-45.7-7.4c-12.6,3-23.9,10.3-29.4,19.1
	c-12.2,19.4-9.9,35.7-5.8,46c7.1,17.9,24.1,29.6,36.9,32.9c8.6,2.2,23.3,4.8,35.1,6.8c4.2,0.7,7.9,1.4,10.9,1.9
	c14.2,2.6,17.9,9.2,19.8,15.3c2.4,8.1-5.6,21.3-11.8,24.7c-6.9,3.8-16.6,9.4-26.8,15.3c-12.2,7.1-24.7,14.4-32.9,18.7
	c-15.9,8.4-29.9,10.8-41.7,7.2c-13.7-4.2-21.4-15.6-24.8-22c-7.1-13.5-17.9-34.8-28.4-55.4c-7.5-14.7-14.5-28.6-19.6-38.5
	c-20-38.6-51.1-38.6-66.1-38.6c-29.3,0-68.9-0.9-107.2-1.7c-11.3-0.2-22.5-0.5-33-0.7c-13.2-0.3-32.8-0.9-51.8-1.5
	c-17.7-0.6-36-1.2-49.9-1.5c-25-0.6-34.2-6.6-43.6-14.5C841.8,295.1,680,144.4,678.3,142.9l-0.2-0.2c-25.3-22.4-54.1-32.1-83.5-27.9
	c-28.2,4-48.8,19.3-56.4,25.7c-16.9,14.2-21,39.2-22.2,74.9c-0.1,1.9-0.1,3.9-0.1,5.9c-0.1,14.6-0.3,31.2-15.2,43.1
	c-15.8,12.8-44.7,34.4-68,51.8c-7.4,5.5-14.1,10.6-19.5,14.6l0,0c-26.7,20.1-54,32-70.6,36.4c-51.1,13.5-69.4,35.3-75.8,47
	c-10,18.5-12.4,37.3-7.1,55.7c4.9,16.9,15.2,29.5,23,37.1c22.7,22.1,67.3,58.4,93.5,76.1l25.1,16.9
	c107,72.2,268.7,181.2,358.2,239.8c25,16.4,31.2,27.5,36.3,39.4c1.1,2.5,2.4,5.8,3.8,9.2c5.6,13.8,12.5,31,19.3,40.3
	c18.5,24.9,33.3,30.7,49.8,31.8c31.4,2,49.1-10.5,62.1-19.7c0.9-0.6,1.8-1.2,2.6-1.8c16.4-11.4,33.9-13.8,53.7-7.4
	c15.2,4.9,42.7,16.1,55.4,23.3c13.2,7.4,26.8,11.1,40.5,11.1c12.9,0,25.8-3.2,38.4-9.7c20.8-10.7,41.4-15.7,62.8-15.3
	c18.1,0.3,40.7,1.4,62.6,2.4c30.1,1.4,61.2,2.8,81.8,2.4c50-1,107.9-8.6,152.8-15.1c40.1-5.8,67.1-18.6,82.7-39.1
	c13.7-17.9,15.6-38,15.6-55.2l0.1-24.7c0.3-82.9,0.8-208.1,1.7-275.7C1582.2,493.1,1574.4,480.5,1566,467.1z M1561.7,535.6
	c-0.9,67.7-1.4,193-1.7,275.9l-0.1,24.7c-0.1,30.4-6.5,63.7-81.2,74.6c-44.3,6.4-101.5,14-150.3,14.9c-19.9,0.4-50.7-1-80.5-2.4
	c-22-1-44.8-2.1-63.2-2.4c-24.9-0.5-48.5,5.3-72.3,17.5c-20.2,10.4-40.4,10-60-1c-15.1-8.5-44.5-20.2-59-24.9
	c-9.2-3-18.2-4.5-26.9-4.5c-15.7,0-30.6,4.8-44.4,14.4c-0.9,0.6-1.8,1.3-2.7,1.9c-11.7,8.2-24.9,17.6-49.3,16.1
	c-9.6-0.6-19.5-2.9-35-23.7c-5.3-7.2-12.3-24.4-16.8-35.8c-1.4-3.5-2.8-6.9-3.9-9.6c-5.9-13.8-14.1-28.9-43.7-48.3
	c-89.4-58.5-251-167.5-357.9-239.6l-25-16.9c-25-16.9-69.1-52.8-90.8-73.9c-12.1-11.8-29.9-36.5-12.3-69c3-5.6,16.5-24.8,63.3-37.2
	c23.9-6.3,52.9-21.2,77.5-39.8l0,0c5.3-4,12-9,19.4-14.5c23.4-17.5,52.4-39.2,68.5-52.2c22.2-17.9,22.5-42.3,22.6-58.5
	c0-1.9,0-3.8,0.1-5.4c1.2-35.2,5.4-52.1,15.1-60.3c9.5-8.1,59.8-45.8,113.6,1.9c4.6,4.3,164.3,152.9,220,199.8
	c11.1,9.4,24.6,18.5,56,19.2c13.8,0.3,32.1,0.9,49.7,1.5c19.9,0.6,38.7,1.3,52.1,1.5c10.6,0.2,21.7,0.4,33,0.7
	c38.4,0.8,78.1,1.7,107.6,1.7c14.3,0,33.9,0,48.3,27.8c5.1,9.8,12.1,23.6,19.5,38.3c10.5,20.7,21.3,42.1,28.5,55.7
	c4.8,9.1,16,25.4,36.6,31.8c17,5.3,36.2,2.4,57-8.6c8.5-4.5,21.3-11.9,33.6-19.1c10.1-5.9,19.7-11.4,26.4-15.1
	c12.6-6.9,27.1-29,21.4-48.1c-4.8-15.9-16.7-25.8-35.3-29.2c-3-0.6-6.9-1.2-11.1-2c-11.5-2-25.7-4.5-33.5-6.5
	c-6.9-1.8-18.8-9.5-23.3-20.9c-3.5-8.7-2.1-18.1,4.1-27.9c4.5-7.1,24.7-18.7,48.1-5.1c34.1,19.8,60.2,36.1,77.4,48.4
	c2.8,2,5.4,3.7,7.9,5.4c8.8,5.9,15.8,10.5,27.1,24.7l2.3,2.9c8.2,10.3,19.5,24.5,28.5,39.3c0.8,1.3,1.6,2.6,2.4,3.8
	C1556.4,489.4,1562.2,498.7,1561.7,535.6z"/>
</svg>
