<svg id="National_-_Config" data-name="National - Config" xmlns="http://www.w3.org/2000/svg" viewBox="0 0 1920 1080"><defs><style>.cls-1{fill:#fff;}</style></defs><path class="cls-1" d="M1604.94,417.89c-.48-18.06-8.49-31.5-23.81-39.95-12.25-6.76-27.45-9.5-42.15-12.16-1.38-.25-2.76-.49-4.14-.75-6.36-1.16-13.24-2.39-20.52-3.69-25.67-4.58-57.61-10.28-87.63-17.08-34-7.7-62.24-37.36-80.94-57l-2.65-2.76c-4.3-4.5-11.23-13.43-20.58-26.53a67.8,67.8,0,0,0-54.25-28.3c-25-.28-58.75-.56-77.43-.3-35.93.51-72.67.73-109.19.68-27,0-43-.24-61.41-.45-16.46-.19-35.12-.41-65.39-.56-74.22-.38-111.47-.57-140.45.68-9.77.42-15.37.74-30.31,1.6-14.56.84-38.92,2.25-85.54,4.8l-27.4,1.47-22.41,1.22c-33,1.83-76.76,3.89-115.31,5.65-44,2.23-65.29,22.12-78.42,73.4l-9.73,43.64c-9.11,35.06,6.29,74.87,33.71,87,121.33,53.63,222.16,106.68,276.65,145.55,63.08,45,110.28,99.5,131.53,132.52,16.25,25.25,27.3,51.69,38,77.27,4.07,9.75,8.28,19.83,12.67,29.55,15,33.12,47.72,41,80.51,41,9.42,0,18.84-.65,27.84-1.54,44.66-4.45,125.77-23.1,149.56-28.71,29.58-7,172.84-47.68,215.17-67,21.88-10,34.32-18.16,41.6-27.28,8-10,9-20.29,9.32-30.82.54-15.82,6.09-21.85,18.25-35l.43-.46c5.55-6,20-17.53,35.39-29.7,18.15-14.39,38.72-30.7,50.75-43,20.2-20.62,22.66-41.79,24.83-60.46.45-3.88.87-7.55,1.45-11.12C1593.46,536,1606,457.76,1604.94,417.89Zm-31.76,118.23c-.64,4-1.11,8.07-1.57,12-2,17-3.84,33-19.25,48.76-11.15,11.38-31.19,27.28-48.88,41.3-16.68,13.22-31.08,24.64-37.69,31.82l-.42.46c-13.2,14.33-22.73,24.69-23.52,47.92-.53,15.32-.79,23-39.25,40.59-40.45,18.49-183.2,59.1-211.45,65.75-23.49,5.54-103.52,23.95-147,28.27-50.7,5-77.06-3.27-88.14-27.81-4.27-9.46-8.25-19-12.45-29-11-26.38-22.41-53.65-39.62-80.39-22.22-34.5-71.35-91.34-136.73-138-55.55-39.61-157.67-93.4-280.18-147.55-18.69-8.28-29.16-38.1-22.41-63.82l9.76-43.73c11-42.85,25-56.46,60-58.23,38.54-1.77,82.4-3.82,115.45-5.66,6.06-.34,13.61-.74,22.38-1.21l27.41-1.48c46.65-2.55,71-4,85.6-4.8,14.84-.85,20.39-1.18,30-1.59,28.5-1.23,65.59-1,139.48-.66,30.21.15,48.84.37,65.27.56,18.49.21,34.46.4,61.61.45,36.63.06,73.47-.17,109.5-.68,18.47-.26,52,0,76.93.29a47.72,47.72,0,0,1,38.19,19.93c10,14.07,17.38,23.47,22.41,28.73l2.62,2.75c20.37,21.36,51.15,53.64,91,62.67,30.47,6.91,62.67,12.66,88.54,17.27,7.24,1.29,14.09,2.52,20.43,3.68l4.19.76c30.3,5.46,48.91,10,49.52,32.95C1585.75,448.85,1577.6,508.71,1573.18,536.12Z"/></svg>