<svg id="Rallycross_-_Config" data-name="Rallycross - Config" xmlns="http://www.w3.org/2000/svg" viewBox="0 0 1920 1080"><defs><style>.cls-1{fill:#fff;}</style></defs><path class="cls-1" d="M912.65,580.51c-1.31,0-2.62,0-3.94-.06-49.33-1.47-127-26.16-181.05-44.6-34.16-11.65-46.76-12-60.1-12.32-3.48-.09-7.07-.18-11.06-.46-19-1.35-44.59-13.79-65.18-23.79-2.23-1.08-4.4-2.14-6.47-3.13h0c-24.5-11.78-60.41-27.6-89.28-40.31L479,448.53c-27.42-12.14-42.83-51.94-33.71-87L455,317.88c13.13-51.28,34.39-71.17,78.42-73.4,38.55-1.76,82.34-3.82,115.31-5.65l22.41-1.22,27.4-1.47c46.62-2.55,71-4,85.54-4.8,14.94-.86,20.54-1.18,30.31-1.6,29-1.25,66.23-1.06,140.45-.68,30.27.15,48.93.37,65.39.56,18.44.21,34.37.4,61.41.45,36.52.05,73.26-.17,109.19-.68,18.68-.26,52.41,0,77.43.3a67.8,67.8,0,0,1,54.25,28.3c9.35,13.1,16.28,22,20.58,26.53l2.65,2.76c14.23,14.93,33.73,35.38,56.92,47.79l.09.05c10.27,5.63,17.76,17,20.57,31.21,2.57,13,.8,26.79-4.72,36.85-11.12,20.23-34.55,31.32-64.25,30.41-25.07-.76-48.16-11.85-70.48-22.58-19.6-9.41-39.87-19.15-61.6-22.08-45.72-6.17-78.49,17.84-110.17,41.05-25.3,18.53-47.61,51.15-63.91,75-4.57,6.68-8.89,13-12.69,18.13C1018.09,546.65,967.47,580.51,912.65,580.51ZM593.51,478.12l6.55,3.17c18,8.76,42.73,20.76,57.85,21.83,3.55.25,6.76.33,10.16.42,14.26.37,29,.75,66,13.38,33.69,11.48,123.18,42,175.2,43.54,46.44,1.4,94.58-28.25,110.12-49.27,3.58-4.85,7.6-10.73,12.26-17.54,17.11-25,40.55-59.25,68.6-79.8,33.26-24.37,71-52,124.66-44.74,24.87,3.35,46.59,13.79,67.59,23.87,21.39,10.28,41.59,20,62.43,20.62,10.38.31,35.64-1,46.11-20.05,3.28-6,4.29-14.92,2.63-23.34-1.63-8.23-5.56-14.78-10.53-17.54-26-13.91-46.75-35.68-61.91-51.59l-2.62-2.74c-5-5.26-12.36-14.66-22.41-28.73a47.72,47.72,0,0,0-38.19-19.93c-24.9-.27-58.46-.55-76.93-.29-36,.51-72.87.74-109.5.68-27.15,0-43.12-.24-61.61-.45-16.43-.19-35.06-.41-65.27-.56-73.89-.38-111-.57-139.48.66-9.63.41-15.18.74-30,1.59-14.56.84-39,2.25-85.6,4.8l-27.41,1.48c-8.77.47-16.32.87-22.38,1.21-33.05,1.84-76.91,3.89-115.45,5.66-34.94,1.77-49,15.38-60,58.23l-9.76,43.73c-6.75,25.72,3.72,55.54,22.41,63.82l16.56,7.29c29,12.77,65.08,28.67,89.87,40.59Z"/></svg>