<svg id="PEC_East_-_Config" data-name="PEC East - Config" xmlns="http://www.w3.org/2000/svg" viewBox="0 0 1920 1080"><defs><style>.cls-1{fill:#fff;}</style></defs><path class="cls-1" d="M1269.18,900.74c-14.31,0-30-2.72-44.1-5.15l-6.42-1.1c-11.11-1.85-23.27-5.06-36.13-8.46-15.59-4.12-31.7-8.38-45.29-9.88-10.65-1.17-18.58.3-27.77,2-10.61,2-22.64,4.19-39.53,2-14.19-1.82-24.77-7.45-31.47-16.74-8-11.15-9.94-26.6-5.87-47.24,3.86-19.48,15.67-28,24.91-31.65,12-4.79,25.22-3.81,34.17-2.14,16.51,3.08,25.14,14.35,32.76,24.3a117.81,117.81,0,0,0,9.93,11.85c11.73,11.73,30.69,18.16,49,24.39l.17,0c25.21,8.56,55.31,10,61.35,5.12,9.83-7.92,17.45-15.54,18.77-35.32,1.1-16.61-16.46-38.45-40.76-68.68q-5.62-7-11.71-14.63c-21-26.45-44.42-51.23-61.52-69.31-9.19-9.72-16.45-17.4-20.75-22.6-6-7.29-22.37-24.44-38.18-41-14.74-15.46-28.66-30.06-35-37.5-7-8.22-29.76-31.49-49.8-52-16.84-17.25-32.75-33.54-39.29-40.79-5-5.56-15.24-16.23-27.08-28.58-22.06-23-49.5-51.62-64.55-69.32-17.62-20.71-26.49-20.26-36.76-19.74-1.36.07-2.71.14-4.06.17-14.09.34-44.21-1.35-61.26-4.89-15.21-3.16-44.47-18.49-72.78-44.69-35.83-33.17-56.38-69.13-56.38-98.67a52.86,52.86,0,1,1,105.72,0c0,43.82,13.48,79.58,16.18,86.31,3.87,9.62,15.34,18.95,20.77,19.95,7.12,1.3,38.59.9,53.71.71l7.74-.1c17.21-.17,24.54,1.81,32.68,8.82,3.2,2.76,18.71,18.52,43.87,44.15,15.58,15.88,31.7,32.3,37.9,38.36,5.6,5.48,31.13,32.06,63.45,65.71,50.28,52.36,112.86,117.53,135.36,139.66,33,32.4,72,80.36,98.87,114.89,17,21.79,50.73,75.9,59.7,97.49h0c10.54,25.36.42,56.23-14.46,72.4C1297,897.87,1283.85,900.73,1269.18,900.74Zm-139.49-45a88.62,88.62,0,0,1,9.74.54c15.07,1.67,31.91,6.12,48.21,10.42,12.4,3.28,24.11,6.37,34.3,8.07l6.55,1.12c18.56,3.21,53.13,9.18,62-.52,10.83-11.77,17.8-34.13,10.72-51.18h0c-8.13-19.58-41.42-72.87-57-92.87-26.53-34-64.93-81.28-97.11-112.92-22.71-22.33-85.4-87.61-135.77-140.06-30.92-32.2-57.62-60-63-65.27-6.34-6.2-21.81-22-38.19-38.65-17.75-18.09-39.84-40.6-42.64-43-3-2.57-4.79-4.13-19.43-4l-7.69.1c-13.49.17-26.44.29-36.9.15,11.62.91,23.22,1.3,30.2,1.13,1.18,0,2.35-.09,3.53-.15,15.87-.8,30.81.66,53,26.77C904.91,372.65,932.12,401,954,423.85c12,12.47,22.28,23.24,27.51,29,6.27,6.95,22,23.11,38.74,40.21,21.24,21.76,43.21,44.26,50.68,53,6,7,20.41,22.11,34.32,36.7,16.06,16.84,32.66,34.24,39.13,42.08,3.88,4.69,10.93,12.15,19.86,21.6,17.35,18.35,41.12,43.48,62.65,70.61q6,7.61,11.64,14.54c28.15,35,46.75,58.15,45.12,82.54-1.85,27.77-14.48,40.14-26.17,49.56-16.83,13.56-61.39,4.68-80.33-1.75l-.17-.06c-19.55-6.63-41.71-14.15-56.74-29.18a133.11,133.11,0,0,1-11.67-13.83c-7.4-9.66-12-15.21-20.54-16.8-20.63-3.84-32.67,2.22-35.79,18-2.91,14.7-2.08,25.35,2.47,31.67,3.38,4.68,9.19,7.49,17.78,8.59,13.79,1.77,23.29,0,33.34-1.86C1113.16,857.13,1120.7,855.73,1129.69,855.73Zm-433.06-688c-17.81,0-32.86,15.05-32.86,32.86,0,23.63,18.68,55,50,84,25.4,23.51,50,36.11,61.24,39.29-11.34-5.42-23-17.38-27.86-29.52-8.52-21.2-17.63-57-17.63-93.76A32.9,32.9,0,0,0,696.63,167.69Z"/></svg>