<svg id="PEC_Outer_-_Config" data-name="PEC Outer - Config" xmlns="http://www.w3.org/2000/svg" viewBox="0 0 1920 1080"><defs><style>.cls-1{fill:#fff;}</style></defs><path class="cls-1" d="M1319.73,816.5c-9-21.59-42.72-75.7-59.71-97.49-26.91-34.53-65.91-82.49-98.87-114.89-22.5-22.13-85.08-87.3-135.36-139.66-32.32-33.65-57.85-60.23-63.45-65.71-6.2-6.06-22.32-22.48-37.9-38.36-25.16-25.63-40.67-41.39-43.87-44.15-8.14-7-15.46-9-32.68-8.82l-7.74.1c-15.13.19-46.6.59-53.71-.71-5.43-1-16.9-10.33-20.77-19.95-2.7-6.73-16.18-42.49-16.18-86.31a54,54,0,0,0-16.37-38.72,50,50,0,0,0-36.87-14.13c-44,1.69-87.11,58.64-112.73,111.38a41.06,41.06,0,0,0,1.68,39.14c13.54,22.68,20.92,35.68,21.8,37.61a150.08,150.08,0,0,1,9.5,29.82c1.67,8.25,1.88,13.05,2.27,21.78.16,3.52.33,7.52.64,12.51.07,1,1.56,24.65,5.46,49.77,2.4,15.45,5.12,33,11.94,53.37,4.55,13.62,10.58,27.78,25.19,52.61,15.7,26.69,28.19,43.52,44,64.84,3.53,4.77,7.22,9.74,11.13,15.07l6.49,9.24c12.49,17.77,26.64,37.91,46.34,66.83,23.33,34.24,92.53,128,102.65,139.71C884.27,864.84,907,874.27,931.3,865c3.25-1.24,6.51-2.55,9.67-3.82,16-6.46,31.22-12.56,48.49-10.92,29.21,2.76,40.1,9.92,51.63,17.49a132.13,132.13,0,0,0,15.54,9.17c14.27,6.89,31.87,4.2,48.89,1.59,11-1.67,22.28-3.4,31.72-2.37,13.72,1.52,29.48,5.67,44.72,9.69,12.1,3.19,24.61,6.49,36.58,8.63l4.38.79c14.67,2.66,31.15,5.64,46,5.64,14.75,0,28-2.93,36.29-12C1320.14,872.73,1330.26,841.86,1319.73,816.5Zm-29.19,58.86c-9.31,10.12-43.58,3.92-64.06.22l-4.42-.8c-11.17-2-23.29-5.19-35-8.28-15.94-4.2-32.42-8.55-47.62-10.23a78.52,78.52,0,0,0-8.43-.44c-9.44,0-19.1,1.48-28.51,2.92-14.65,2.24-28.48,4.36-37.16.17a114.63,114.63,0,0,1-13.26-7.87c-12.46-8.19-26.57-17.46-60.72-20.69-22.11-2.1-40.28,5.21-57.85,12.28-3.21,1.29-6.24,2.51-9.31,3.68-15.32,5.83-29.37.16-36.48-8.05-8.7-10-77.23-102.63-101.23-137.86-19.78-29-34-49.24-46.51-67.07L733.43,624l-.12-.17c-3.95-5.4-7.68-10.42-11.25-15.24-15.45-20.84-27.66-37.3-42.82-63.07-13.73-23.33-19.31-36.39-23.46-48.81-6.29-18.8-8.87-35.43-11.14-50.1-3.76-24.18-5.25-47.7-5.26-47.94-.3-4.81-.48-8.72-.63-12.16-.4-9.08-.67-15.08-2.65-24.86A168.54,168.54,0,0,0,625.41,328c-2.06-4.85-19.55-34.21-23-40a21.14,21.14,0,0,1-.86-20.15C625.28,218.89,664,169,697,167.68a30.21,30.21,0,0,1,22.23,8.56,33.87,33.87,0,0,1,10.24,24.31c0,36.79,9.11,72.56,17.63,93.76,6,15,22.38,29.72,35.71,32.17,8.34,1.53,32,1.36,57.57,1l7.69-.1c14.65-.15,16.45,1.41,19.43,4,2.8,2.4,24.89,24.91,42.64,43,16.38,16.68,31.85,32.45,38.19,38.65,5.39,5.26,32.09,33.07,63,65.27,50.37,52.45,113.06,117.73,135.77,140.06,32.18,31.64,70.58,78.87,97.11,112.92,15.59,20,48.88,73.29,57,92.87h0C1308.34,841.23,1301.37,863.59,1290.54,875.36Z"/></svg>