<?xml version="1.0" encoding="utf-8"?>
<!-- Generator: Adobe Illustrator 24.0.1, SVG Export Plug-In . SVG Version: 6.00 Build 0)  -->
<svg version="1.1" id="International_-_Config" xmlns="http://www.w3.org/2000/svg" xmlns:xlink="http://www.w3.org/1999/xlink"
	 x="0px" y="0px" viewBox="0 0 1920 1080" style="enable-background:new 0 0 1920 1080;" xml:space="preserve">
<style type="text/css">
	.st0{fill:#FFFFFF;}
</style>
<title>active</title>
<path class="st0" d="M1566,467.1c-0.7-1.2-1.5-2.4-2.2-3.6c-9.7-15.9-21.4-30.7-30-41.4l-2.3-2.9c-13.3-16.7-22.2-22.6-31.7-28.9
	c-2.3-1.6-4.8-3.2-7.3-5c-18-12.8-43.9-29-79-49.4c-18.4-10.7-35-9.9-45.7-7.4c-12.6,3-23.9,10.3-29.4,19.1
	c-12.2,19.4-9.9,35.7-5.8,46c7.1,17.9,24.1,29.6,36.9,32.9c8.6,2.2,23.3,4.8,35.1,6.8c4.2,0.7,7.9,1.4,10.9,1.9
	c14.2,2.6,17.9,9.2,19.8,15.3c2.4,8.1-5.6,21.3-11.8,24.7c-6.9,3.8-16.6,9.4-26.8,15.3c-12.2,7.1-24.7,14.3-32.9,18.7
	c-15.9,8.4-29.9,10.8-41.7,7.2c-13.7-4.2-21.4-15.6-24.8-22c-7.1-13.5-17.9-34.8-28.4-55.4c-7.5-14.7-14.5-28.6-19.6-38.5
	c-20-38.6-51.1-38.6-66.1-38.6c-32.6,0-85-0.5-140.3-1.4c-11.2-0.2-28.5-1-45.2-1.8c-16.7-0.8-34-1.6-45.5-1.8
	c-13.8-0.2-33-2.7-59.6-20.1c-13.4-8.8-33.9-8.2-46.9,10.1c-10.6,14.9-7.1,31,10.6,47.7c3.7,3.5,7.4,6.8,11.4,10.4
	c18.3,16.4,39.1,35.1,60.5,75.1c5.7,10.7,12.5,23.4,20,37.3c29,54,68.7,128,90.5,171.7c0.4,0.8,0.8,1.6,1.2,2.4
	c3.8,7.5,7.1,13.9,5.8,30.1c-0.5,5.4-1,12.5-1.5,20c-1.2,16.6-2.7,37.2-4.3,48.8c-2,14.1-10.2,38-27.1,59.1
	c-3.1,3.8-7.4,8.9-12,14.3c-5.9,6.9-12,14.1-16.3,19.6c-2.2,2.8-12.9,17.4-9.2,31.8c1.3,4.9,4.7,11.6,14.1,15.7l0,0
	c16.5,7.1,33.8,14.4,48.7,19.7c2.8,1,5.4,1.9,7.8,2.8c20,7.2,32.6,11.8,44.7,11.8c9.5,0,18.8-2.8,31.1-9.4
	c20.8-11.1,42.1-16.2,63.4-15.3c13.8,0.6,28,1.3,41.7,2c38.4,2,74.7,3.9,102.2,2.7c71.9-3.1,106.4-8.2,139.9-13.2
	c4.2-0.6,8.4-1.3,12.7-1.9c40.1-5.8,67.1-18.6,82.7-39.1c13.7-17.9,15.6-38,15.6-55.2l0.1-24.9c0.3-82.8,0.8-207.9,1.7-275.5
	C1582.2,493.1,1574.4,480.5,1566,467.1z M1561.7,535.6c-0.9,67.7-1.4,192.8-1.7,275.7l-0.1,24.9c-0.1,30.4-6.5,63.7-81.2,74.6
	c-4.3,0.6-8.5,1.3-12.7,1.9c-32.9,4.9-67,10-137.8,13c-26.5,1.1-62.3-0.7-100.3-2.7c-13.8-0.7-28-1.5-41.8-2.1
	c-24.9-1.1-49.7,4.8-73.7,17.6c-20.1,10.7-25.4,8.8-59.6-3.5c-2.5-0.9-5.1-1.8-7.9-2.8c-14.3-5.1-31.3-12.3-47.5-19.2
	c-2.3-1-2.5-1.9-2.6-2.3c-0.8-3.3,2.3-10.3,5.6-14.6c4-5.2,10-12.1,15.7-18.9c4.7-5.5,9.2-10.7,12.4-14.8
	c19.4-24.3,28.9-51.5,31.3-68.9c1.7-12.3,3.2-32.4,4.4-50.1c0.5-7.5,1.1-14.5,1.5-19.7c1.9-21.9-3.6-32.4-7.9-40.9
	c-0.4-0.7-0.8-1.5-1.1-2.2c-22-44-61.8-118.1-90.8-172.3c-7.5-13.9-14.3-26.6-20-37.3c-23-43.2-46.2-63.9-64.8-80.6
	c-3.8-3.4-7.5-6.7-10.9-10c-14-13.3-10.3-18.5-8.1-21.6c8.3-11.6,17.9-6.2,19.7-5c30.9,20.3,53.8,23.2,70.2,23.4
	c11.1,0.2,28.3,1,44.9,1.7c16.9,0.8,34.3,1.6,45.8,1.8c26.6,0.4,93.5,1.4,140.6,1.4c14.3,0,33.9,0,48.3,27.8
	c5.1,9.8,12.1,23.6,19.5,38.3c10.5,20.7,21.3,42,28.5,55.7c4.8,9.1,16,25.4,36.6,31.8c17,5.3,36.2,2.4,57-8.6
	c8.5-4.5,21.3-11.9,33.6-19.1c10.1-5.9,19.7-11.4,26.4-15.1c12.6-6.9,27.1-29,21.4-48.1c-4.8-15.9-16.7-25.8-35.3-29.2
	c-3-0.6-6.9-1.2-11.1-2c-11.5-2-25.7-4.5-33.5-6.5c-6.9-1.8-18.8-9.5-23.3-20.9c-3.5-8.7-2.1-18.1,4.1-27.9
	c4.5-7.1,24.7-18.7,48.1-5.1c34.1,19.8,60.2,36.1,77.4,48.4c2.8,2,5.4,3.7,7.9,5.4c8.8,5.9,15.8,10.5,27.1,24.7l2.3,2.9
	c8.2,10.3,19.5,24.5,28.5,39.3c0.8,1.3,1.6,2.6,2.4,3.8C1556.4,489.4,1562.2,498.7,1561.7,535.6z"/>
</svg>
