<svg id="PEC_West_-_Config" data-name="PEC West - Config" xmlns="http://www.w3.org/2000/svg" viewBox="0 0 1920 1080"><defs><style>.cls-1{fill:none;}</style></defs><path class="cls-1" d="M910.92,870.65c-15.53,0-29.25-8.88-38.23-19.16-12.56-13.7-21.81-26.65-31.61-40.36L841,811c-37.71-52.77-50.57-70.57-56.76-79.13-5.66-7.83-5.88-8.13-14.22-20.12-32.64-46.88-43.53-62.71-48.19-69.46-3-4.34-3.05-4.43-4.64-6.61-3.93-5.37-7.64-10.36-11.19-15.15-15.8-21.32-28.29-38.15-44-64.84-14.61-24.83-20.64-39-25.19-52.61-6.82-20.41-9.54-37.92-11.94-53.37-3.9-25.12-5.39-48.77-5.46-49.77-.31-5-.48-9-.64-12.51-.39-8.73-.6-13.53-2.27-21.78a148.27,148.27,0,0,0-9.5-29.81c-4.93-11.57-13-24.47-20.14-35.84-1.94-3.11-3.8-6.07-5.48-8.83h0c-4.84-7.95-5-18.48-.28-28.17,5.2-10.81,15.11-18.37,25.85-19.73,12.16-1.54,25.06,1.68,33.67,8.4a28.43,28.43,0,0,1,11.22,19.27A226.8,226.8,0,0,1,653,294.25a141.78,141.78,0,0,0,.66,14.8c.62,4.53,3,16.58,5.37,28.23,2.22,11.07,4.52,22.52,5.82,30.11.82,4.79,2.14,10.43,3.68,16.95,3.23,13.78,7.27,30.94,8.3,48.86.65,11.12,1.45,25,3.73,35.87,2.68,12.77,6.31,16.49,8.24,17.57,3.2,1.79,7.46,3.82,12,6,16.55,7.89,33.67,16,38.33,28.9,4.35,12,4.12,31.52,4,44.42,0,2-.05,3.81-.05,5.38,0,10.1,1.38,20.59,17.88,28.15,6.26,2.86,12.93,5.66,19.39,8.36,17.1,7.17,33.25,13.93,42.11,22.09,12.16,11.21,26.67,27.83,30.9,57,3.52,24.37,8.69,44.23,13.76,62.07,5.59,19.71,13.68,30.64,25.46,34.4,4.36,1.39,9.23,2.48,14.39,3.62,17.21,3.84,38.64,8.61,42.53,29.22,3.56,18.85,3.81,39.61-21.38,50.74A42.12,42.12,0,0,1,910.92,870.65ZM613,262.89a28.12,28.12,0,0,0-3.56.22c-4,.5-8.13,3.94-10.35,8.56-1.69,3.51-1.94,7-.66,9.09h0c1.64,2.68,3.45,5.57,5.35,8.61,7.52,12,16.05,25.6,21.59,38.62a166.89,166.89,0,0,1,10.7,33.68c2,9.78,2.25,15.78,2.65,24.86.15,3.44.33,7.35.63,12.16,0,.24,1.5,23.76,5.26,47.94,2.27,14.67,4.85,31.3,11.14,50.1,4.15,12.42,9.73,25.48,23.46,48.81,15.16,25.77,27.37,42.23,42.82,63.07,3.57,4.82,7.3,9.84,11.25,15.24,1.77,2.42,2,2.68,5,7.08,4.65,6.75,15.53,22.54,48.14,69.39,8.24,11.84,8.45,12.14,14,19.83,6.2,8.57,19.08,26.4,56.82,79.21l.09.13c9.46,13.23,18.39,25.72,30.17,38.56l.18.21c3.63,4.17,16.68,17.27,32.29,10.37,9.93-4.38,13.48-9.35,9.82-28.73-1.35-7.14-11.66-9.95-27.23-13.41-5.36-1.2-10.91-2.43-16.12-4.1-27.49-8.77-35.87-38.29-38.62-48-5.25-18.5-10.62-39.14-14.32-64.66-3.3-22.8-14.32-35.61-24.66-45.14-6.26-5.78-21.52-12.17-36.28-18.35-6.6-2.76-13.43-5.63-20-8.63C723,604.1,723,580.27,723,571.3c0-1.63,0-3.53.05-5.62.12-10.76.34-28.76-2.78-37.37-1.86-5.14-19.6-13.59-28.12-17.65-4.81-2.29-9.36-4.46-13.14-6.58-18.73-10.5-20.55-42-22.15-69.73-.94-16.18-4.59-31.73-7.81-45.44-1.55-6.55-3-12.75-3.93-18.15-1.25-7.31-3.51-18.62-5.7-29.55-2.51-12.5-4.88-24.31-5.58-29.46a151.06,151.06,0,0,1-.85-17.2,209.86,209.86,0,0,0-1-21.24,8.63,8.63,0,0,0-3.67-5.87C624.65,264.57,618.82,262.89,613,262.89Z"/></svg>