<svg id="PEC_Handling_-_Config" data-name="PEC Handling - Config" xmlns="http://www.w3.org/2000/svg" viewBox="0 0 1920 1080"><defs><style>.cls-1{fill:#fff;}</style></defs><path class="cls-1" d="M1319.73,816.5c-9-21.59-42.72-75.7-59.71-97.49-26.91-34.53-65.91-82.49-98.87-114.89-22.5-22.13-85.08-87.3-135.36-139.66-32.32-33.65-57.85-60.23-63.45-65.71-6.2-6.06-22.32-22.48-37.9-38.36-25.16-25.63-40.67-41.39-43.87-44.15-8.14-7-15.46-9-32.68-8.82l-7.74.1c-15.12.19-46.59.59-53.71-.71-5.43-1-16.9-10.33-20.77-19.95-2.7-6.73-16.18-42.49-16.18-86.31a52.65,52.65,0,0,0-52.86-52.86c-39.2,0-75.06,45.77-101.91,85.64-1.16,1.71-2.16,3.2-3,4.43-14.79,21.49-14.12,47.72-5.82,62.54,4.9,8.74,8.47,14.1,11.33,18.41A97.9,97.9,0,0,1,608,338.4l.28.66a125.8,125.8,0,0,1,8.27,26.59c1.67,8.25,1.88,13.05,2.27,21.78.16,3.52.33,7.52.64,12.51.07,1,1.56,24.65,5.46,49.77,2.4,15.45,5.12,33,11.94,53.37,4.55,13.62,10.58,27.78,25.19,52.61,15.7,26.69,28.19,43.52,44,64.84,3.55,4.79,7.26,9.78,11.19,15.15,1.59,2.18,1.65,2.27,4.64,6.61,4.66,6.75,15.55,22.58,48.19,69.46,8.34,12,8.56,12.29,14.22,20.12,6.19,8.56,19,26.36,56.76,79.13,6.5,9.1,19.26,26.45,31.68,40.46,16.42,18.51,36.09,24,55.41,15.47C953.27,855.8,953,835,949.46,816.19c-3.89-20.61-25.32-25.38-42.53-29.22-5.16-1.14-10-2.23-14.39-3.62-11.78-3.76-19.87-14.69-25.46-34.4-5.07-17.84-10.24-37.7-13.76-62.07-4.23-29.15-18.74-45.77-30.9-57-8.86-8.16-25-14.92-42.11-22.09-6.46-2.7-13.13-5.5-19.39-8.36C744.42,591.89,743,581.4,743,571.3c0-1.57,0-3.38.05-5.38.15-12.9.38-32.4-4-44.42-4.66-12.86-21.78-21-38.33-28.9-4.5-2.14-8.76-4.17-12-6-1.93-1.08-5.56-4.8-8.24-17.57-2.28-10.91-3.08-24.75-3.73-35.87-1-17.92-5.07-35.08-8.3-48.86-1.54-6.52-2.86-12.16-3.68-16.95-1.4-8.18-2.72-14.17-3.79-19s-1.86-8.42-2.42-12.57l-.1-.59c-1.35-6.82-.27-8.59.08-9.17.88-1.43,3.5-3.67,11-6.2,21-7.09,44-9.17,50.21-4.55l2.6,1.83c13.11,9.2,32.91,23.11,50.46,26.75,17.05,3.54,47.17,5.23,61.26,4.89,1.35,0,2.7-.1,4.06-.17,10.27-.52,19.14-1,36.76,19.74,15,17.7,42.49,46.32,64.55,69.32,11.84,12.35,22.06,23,27.08,28.58,6.54,7.25,22.45,23.54,39.29,40.79,20,20.53,42.75,43.8,49.8,52,6.38,7.44,20.3,22,35,37.5,15.81,16.57,32.16,33.72,38.18,41,4.3,5.2,11.56,12.88,20.75,22.6,17.1,18.08,40.52,42.86,61.52,69.31q6.08,7.65,11.71,14.63c24.3,30.23,41.86,52.07,40.76,68.68-1.32,19.78-8.94,27.4-18.77,35.32-6,4.87-36.15,3.43-61.35-5.12l-.17,0c-18.34-6.23-37.3-12.66-49-24.39a117.81,117.81,0,0,1-9.93-11.85c-7.62-10-16.25-21.22-32.76-24.3-9-1.67-22.15-2.65-34.17,2.14-9.24,3.69-21,12.17-24.91,31.65-4.07,20.64-2.15,36.09,5.87,47.24,6.7,9.29,17.28,14.92,31.47,16.74,16.89,2.16,28.92-.07,39.53-2,9.18-1.71,17.11-3.18,27.77-2,13.59,1.5,29.7,5.76,45.29,9.88,12.86,3.4,25,6.61,36.13,8.46l6.42,1.1c14.05,2.43,29.8,5.15,44.1,5.15,14.67,0,27.83-2.87,36.08-11.84C1320.14,872.73,1330.26,841.86,1319.73,816.5ZM734,300.79l-2.26-1.58c-19.36-14.23-63.46,0-68.43,1.72-20.85,7-28.16,18.38-24.38,37.91.68,4.84,1.6,9,2.68,13.89s2.28,10.32,3.59,18c.93,5.4,2.38,11.6,3.93,18.15,3.22,13.71,6.87,29.26,7.81,45.44,1.6,27.77,3.42,59.23,22.15,69.73,3.78,2.12,8.33,4.29,13.14,6.58,8.52,4.06,26.26,12.51,28.12,17.65,3.12,8.61,2.9,26.61,2.78,37.37,0,2.09-.05,4-.05,5.62,0,9,0,32.8,29.56,46.33,6.55,3,13.38,5.87,20,8.63,14.76,6.18,30,12.57,36.28,18.35,10.34,9.53,21.36,22.34,24.66,45.13,3.7,25.53,9.07,46.17,14.32,64.67,2.75,9.7,11.13,39.22,38.62,48,5.21,1.67,10.76,2.9,16.12,4.1,15.57,3.46,25.88,6.27,27.23,13.41,3.66,19.38.11,24.35-9.82,28.73-11,4.87-21.89,1.35-32.36-10.45-11.81-13.32-24.09-30-30.37-38.82-37.74-52.81-50.62-70.64-56.82-79.21-5.56-7.69-5.77-8-14-19.83-32.61-46.85-43.49-62.64-48.14-69.39-3-4.4-3.21-4.66-5-7.08-3.95-5.4-7.68-10.42-11.25-15.24-15.45-20.84-27.66-37.3-42.82-63.07-13.73-23.33-19.31-36.39-23.46-48.81-6.29-18.8-8.87-35.43-11.14-50.1-3.76-24.18-5.25-47.7-5.26-47.94-.3-4.81-.48-8.72-.63-12.16-.4-9.08-.67-15.08-2.65-24.86a144.77,144.77,0,0,0-9.44-30.38l-.27-.65a117.54,117.54,0,0,0-12.5-23c-2.82-4.23-6-9-10.54-17.11-5.22-9.31-4.84-27.36,4.84-41.42.88-1.27,1.92-2.82,3.11-4.6,12.8-19,51.74-76.81,85.33-76.81a32.51,32.51,0,0,1,32.86,32.86c0,36.79,9.11,72.56,17.63,93.76,4.89,12.17,16.58,24.17,28,29.56C761.84,320.36,745.17,308.66,734,300.79Zm556.58,574.57c-8.92,9.7-43.49,3.73-62,.52l-6.55-1.12c-10.19-1.7-21.9-4.79-34.3-8.07-16.3-4.3-33.14-8.75-48.21-10.42a88.62,88.62,0,0,0-9.74-.54c-9,0-16.53,1.4-23.87,2.76-10,1.87-19.55,3.63-33.34,1.86-8.59-1.1-14.4-3.91-17.78-8.59-4.55-6.32-5.38-17-2.47-31.67,3.12-15.79,15.16-21.85,35.79-18,8.54,1.59,13.14,7.14,20.54,16.8a133.11,133.11,0,0,0,11.67,13.83c15,15,37.19,22.55,56.74,29.18l.17.06c18.94,6.43,63.5,15.31,80.33,1.75,11.69-9.42,24.32-21.79,26.17-49.56,1.63-24.39-17-47.52-45.13-82.54q-5.58-6.95-11.63-14.54c-21.53-27.13-45.3-52.26-62.65-70.61-8.93-9.45-16-16.91-19.86-21.6-6.47-7.84-23.07-25.24-39.13-42.08-13.91-14.59-28.29-29.67-34.32-36.7-7.47-8.72-29.44-31.22-50.68-53-16.7-17.1-32.47-33.26-38.74-40.21-5.23-5.79-15.55-16.56-27.51-29-21.86-22.81-49.08-51.2-63.74-68.43-22.21-26.11-37.15-27.57-53-26.77-1.18.06-2.35.13-3.53.15-7,.17-18.58-.22-30.2-1.13,10.46.14,23.41,0,36.9-.15l7.69-.1c14.65-.15,16.45,1.41,19.43,4,2.8,2.4,24.89,24.91,42.64,43,16.38,16.68,31.85,32.45,38.19,38.65,5.39,5.26,32.09,33.07,63,65.27,50.37,52.45,113.06,117.73,135.77,140.06,32.18,31.64,70.58,78.87,97.11,112.92,15.59,20,48.88,73.29,57,92.87C1308.34,841.23,1301.37,863.59,1290.54,875.36Z"/></svg>