<?xml version="1.0" encoding="utf-8"?>
<!-- Generator: Adobe Illustrator 24.0.1, SVG Export Plug-In . SVG Version: 6.00 Build 0)  -->
<svg version="1.1" id="Classic_-_Config" xmlns="http://www.w3.org/2000/svg" xmlns:xlink="http://www.w3.org/1999/xlink" x="0px"
	 y="0px" viewBox="0 0 1920 1080" style="enable-background:new 0 0 1920 1080;" xml:space="preserve">
<style type="text/css">
	.st0{fill:#FFFFFF;}
</style>
<title>active</title>
<path class="st0" d="M1659.8,250.1c-3.7-53.2-33.3-82.5-57.4-97.7c-30.3-19.1-65-24.5-87.3-23.1c-16.1,1-48.8,3.9-66.2,5.8
	c-27.8,2.9-70.9,8-112.6,12.9c-30.6,3.6-59.5,7-79.9,9.3h0c-64.7,7.2-163.1,17-258.3,26.5c-100.9,10.1-205.2,20.5-273.3,28.1
	c-71.3,8-102.7,17.5-132.8,31.3c-92.6,42.2-129.2,90.5-161.5,133.1c-37.6,49.6-56.6,69.6-81.1,85.4c-45.7,29.5-79,34.3-108.4,38.5
	c-4.2,0.6-8.2,1.2-12.2,1.8c-50,8-89.7,29.4-117.7,63.5c-28.1,34.1-36,70.7-38.2,89.4c-5.4,45.7-14.8,121.8-22.3,183
	c-1.9,15.1-3.6,29.4-5.2,42.2c-3.5,28.6,0.9,50.1,13.3,64c16.3,18.4,41.5,18.4,53.6,18.4l70.5-0.2c192.9-0.5,433.1-1,581.4,0.2
	c0.6,0,1.3,0,1.9,0c42.1,0,72.9-11.3,91.7-33.5c13.4-15.8,20.2-36.7,20.5-62.2c0.1-13.6,1.2-134.7-1.6-193.2
	c-2.9-62.1,38-84.6,62.6-92.6c76.9-24.7,220.7-68.1,279-85.6c25.6-7.7,51.5-15.4,79.1-23.6c102.6-30.5,208.8-62,283.2-88.6
	C1648.7,358.9,1662.4,288.1,1659.8,250.1z M1573.7,364.5c-73.9,26.4-179.8,57.8-282.2,88.3c-27.5,8.2-53.5,15.9-79.1,23.6
	c-58.3,17.5-202.4,60.9-279.4,85.7c-24.2,7.8-80.2,34.3-76.5,112.5c2.7,58,1.7,178.5,1.5,192.1c-0.2,20.6-5.5,37.3-15.8,49.4
	c-15.1,17.8-41.3,26.7-78.2,26.4c-65.7-0.5-149.3-0.7-238.8-0.7c-112.9,0-235.2,0.3-342.8,0.5l-70.5,0.2c-0.2,0-0.3,0-0.5,0
	c-14.5,0-29.1-1.5-38.1-11.6c-8.3-9.4-11.2-25.7-8.4-48.3c1.6-12.8,3.3-27.1,5.2-42.2c7.6-61.2,17-137.4,22.4-183.2
	c1.9-16.5,8.9-48.8,33.7-79c24.9-30.3,60.4-49.3,105.5-56.5c3.8-0.6,7.7-1.2,11.9-1.8c29.9-4.3,67-9.7,116.4-41.5
	c26.5-17.1,47.4-39,86.2-90.1c32.4-42.7,65.8-86.8,153.8-126.9c29-13.2,57.8-21.8,126.8-29.6c67.9-7.7,172.2-18.1,273-28.1
	c95.2-9.5,193.7-19.3,258.5-26.6c20.5-2.3,49.4-5.7,80-9.3c41.7-4.9,84.7-10,112.4-12.9c17.2-1.9,49.5-4.8,65.3-5.7
	c37.8-2.3,117.7,19.8,123.5,102.3C1642.1,283.9,1630.7,344.1,1573.7,364.5z"/>
</svg>
