<svg id="Trioval_-_Config" data-name="Trioval - Config" xmlns="http://www.w3.org/2000/svg" viewBox="0 0 1920 1080"><defs><style>.cls-1{fill:#fff;}</style></defs><path class="cls-1" d="M397.87,406.87c-8.24,0-15.61-1.31-21-3.71h0c-76.49-34.24-118.19-53.75-131.22-61.38-15.6-9.15-37-30.58-31.88-52.11,4.51-19.05,27.05-30,67-32.67,29.75-1.95,71.62-4.16,135.78-7.17,16.4-.66,32.94,6.8,44.32,20,12.27,14.2,17.24,33.3,13.64,52.41l-.07.33-8.69,39a49.67,49.67,0,0,1-9.67,20.36C441.87,399.5,417.43,406.87,397.87,406.87Zm-12.82-22c10.8,4.82,41.65,1.55,55.49-15.58a29.66,29.66,0,0,0,5.71-12.14l8.65-38.82c2.45-13.23-.79-25.82-9.14-35.48-7.43-8.6-18-13.48-28.32-13.06-64,3-105.72,5.2-135.34,7.14-42.19,2.77-48.06,14-48.86,17.31-2.08,8.82,10.2,23,22.54,30.25s54.5,26.91,129.27,60.38Z"/></svg>