<svg id="Oval_-_Config" data-name="Oval - Config" xmlns="http://www.w3.org/2000/svg" viewBox="0 0 1920 1080"><defs><style>.cls-1{fill:#fff;}</style></defs><path class="cls-1" d="M948.74,441.18c127.24,0,214.81,11.79,260.25,35.06,14.38,7.36,23.85,15.5,29,24.88,4.29,7.87,6.28,17.93,6.28,31.66s-2,23.78-6.28,31.65c-5.1,9.38-14.57,17.52-29,24.88-45.44,23.27-133,35.06-260.25,35.06s-214.81-11.79-260.25-35.06c-14.38-7.36-23.85-15.5-29-24.88-4.28-7.87-6.28-17.93-6.28-31.65s2-23.79,6.28-31.66c5.11-9.38,14.58-17.52,29-24.88,45.44-23.27,133-35.06,260.25-35.06m0-45c-294.71,0-340.49,61.15-340.49,136.6S654,669.37,948.74,669.37s340.48-61.15,340.48-136.59-45.77-136.6-340.48-136.6Z"/></svg>