<svg id="Peverly_-_Config" data-name="Peverly - Config" xmlns="http://www.w3.org/2000/svg" viewBox="0 0 1920 1080"><defs><style>.cls-1{fill:#fff;}</style></defs><path class="cls-1" d="M1255.67,339.29c-38.63-26-84.76-38.25-131-39.69-4.28-.24-17.8-.6-22.07-.81-60.25-.47-131,.92-191.27,1.46-39.23.56-78.47.74-117.7,1.05A260.22,260.22,0,0,0,758.18,304C645.54,321.19,560.62,418.51,559.1,532.46a235.49,235.49,0,0,0,18.38,95.34c28.35,67.35,88.73,119.16,159.8,136.36,7.14,1.71,14.56,3.26,21.81,4.31,4,.41,8.91,1.32,13.24,1.54,2,.19,6.85.46,8.85.65,4.12.18,9.06.24,13.15.32,104.56-.85,226.65-2.19,331-2,68.38.45,134.38-30.18,178.65-82.22C1395.18,579.84,1372.3,417.4,1255.67,339.29Zm12.77,227.23c-10.61,71.36-71.25,123.62-143.07,125.73-107,2.59-216.64-1.53-323.69-1.94-6.89-.06-15.28-.1-22.08-.78C715.33,684,660.15,636.79,644.52,574.28a155,155,0,0,1,4.81-91.82c16.19-43.83,53.59-79.17,98.46-92.51a173.61,173.61,0,0,1,22.64-5,179.75,179.75,0,0,1,23.21-1.54c39.23.49,78.47.79,117.7,1.64,58.62.86,117.92,3.24,176.56,5.84,12.19.46,24.66,3.17,36.78,5.52.92.12,2,.52,2.85.73,2.44.63,5.4,1.31,7.84,1.94,5.94,1.24,11.92,2.48,17.79,4,16.5,4.62,32.71,10.55,47.48,19.38C1250.22,451.83,1276.86,509.61,1268.44,566.52Z"/></svg>