<svg id="National_-_Config" data-name="National - Config" xmlns="http://www.w3.org/2000/svg" viewBox="0 0 1920 1080"><defs><style>.cls-1{fill:#fff;}</style></defs><path class="cls-1" d="M1573.48,603.45l-11.55-95c-1.68-15-8.82-27.42-20.11-35-11.94-8.05-27.24-10.05-43-5.63L1009.59,602.5a25.35,25.35,0,0,1-32.05-25.83c4.35-79.34,15-269.46,19.74-321.11,3.25-35.32,4.49-61,.62-79.81-4.53-22.05-16.43-34.25-36.39-37.31-14-2.13-26.4.87-36,8.68-16.57,13.47-20.17,36.56-20.84,49.12-.37,6.88.18,14.18.75,21.9,1.56,20.91,3.18,42.52-13.64,56.09a40.94,40.94,0,0,1-32.5,9c-16-2.4-31.86-13.71-43.55-31-6.41-9.49-12.19-20.9-17.78-31.93-7.86-15.52-15.29-30.18-24.83-41.14C761,165.22,747,159.71,731.5,162.74c-18.29,3.56-29.82,17.09-34.27,40.2-3.4,17.64-2.35,38.5-1.42,56.9.29,5.74.57,11.16.69,16.13.45,18.59,1.4,36.67,8,53.57,7.28,18.75,20.43,33.95,41.37,47.83,35,23.23,54.12,52.08,41,124-11,60.46-49.84,95-118.64,105.61-54.41,8.39-121.12,10.3-174.73,11.83-24.6.7-45.85,1.31-62.42,2.42-36.48,2.44-60.6,25.59-66.15,63.5-.76,5.13-1.57,10.6-2.43,16.35-4.2,28-9.42,62.93-12.8,97.51-2.81,28.81,7.54,46.06,16.72,55.45,11.2,11.47,26.89,17.62,44.64,17.62q2.89,0,5.86-.22c34.17-2.54,299.23-31.37,310.42-32.58a82.57,82.57,0,0,0,70.23-56.77l6.78-21A48.21,48.21,0,0,1,847.65,728c21.18-1,49.89-2.46,66.4-3.52,27.82-1.8,83.55-9.71,100-12.09l.69-.1c36.85-5,410-50.33,523.49-64.09A40.55,40.55,0,0,0,1573.48,603.45Zm-37.69,24.86c-113.54,13.77-486.89,59.08-523.81,64.13l-.83.12c-16.23,2.35-71.31,10.17-98.38,11.92-16.38,1.06-45,2.49-66.08,3.5a68.29,68.29,0,0,0-61.41,47l-6.78,21a62.61,62.61,0,0,1-53.29,43c-2.76.3-276,30-309.81,32.52-14.16,1.06-26.49-3-34.72-11.43-8.9-9.11-12.75-22.78-11.11-39.53,3.32-34.07,8.5-68.68,12.66-96.49.87-5.77,1.69-11.26,2.44-16.41,2.93-19.93,13.57-44.16,47.71-46.45,16.18-1.08,37.25-1.69,61.65-2.38,54.16-1.55,121.56-3.47,177.2-12.05,35.52-5.47,63.42-16.51,85.3-33.73,26.27-20.69,43.09-50.32,50-88.07,6.82-37.39,6-65.7-2.7-89.11-8.06-21.75-23-39.27-46.92-55.16-36.32-24.08-39.49-48.26-40.39-85.21-.13-5.24-.41-10.78-.7-16.66-2-39.36-1.9-72.28,19.54-76.46a21,21,0,0,1,4.1-.41c15.49,0,26,18.31,40.67,47.34,5.87,11.58,11.94,23.56,19,34.08,15,22.27,35.33,36.34,57.16,39.62,17.45,2.62,34.06-1.94,48-13.21,25-20.15,22.8-49.53,21-73.14a160.85,160.85,0,0,1-.73-19.34c.84-15.75,5.76-28.39,13.49-34.67,5.25-4.27,11.91-5.72,20.37-4.43,21.42,3.28,25.47,23.81,18.87,95.52-4.62,50.11-14.38,223.16-19.79,321.85a45.36,45.36,0,0,0,57.33,46.21l489.22-134.74c10.1-2.82,19.51-1.78,26.51,2.94,6.45,4.35,10.39,11.5,11.43,20.78l11.56,95A20.48,20.48,0,0,1,1535.79,628.31Z"/></svg>