<?xml version="1.0" encoding="utf-8"?>
<!-- Generator: Adobe Illustrator 24.0.1, SVG Export Plug-In . SVG Version: 6.00 Build 0)  -->
<svg version="1.1" id="National_-_Config" xmlns="http://www.w3.org/2000/svg" xmlns:xlink="http://www.w3.org/1999/xlink" x="0px"
	 y="0px" viewBox="0 0 1920 1080" style="enable-background:new 0 0 1920 1080;" xml:space="preserve">
<style type="text/css">
	.st0{fill:#FFFFFF;}
</style>
<title>active</title>
<path class="st0" d="M1566,467.1c-0.7-1.2-1.5-2.4-2.2-3.6c-9.7-15.9-21.4-30.7-30-41.4l-2.3-2.9c-13.3-16.7-22.2-22.6-31.7-28.9
	c-2.3-1.6-4.8-3.2-7.3-5c-18-12.8-43.9-29-79-49.4c-18.4-10.7-35-9.9-45.7-7.4c-12.6,3-23.9,10.3-29.4,19.1
	c-12.2,19.4-9.9,35.7-5.8,46c7.1,17.9,24.1,29.6,36.9,32.9c6.1,1.6,14.2,3,21.9,4.3c6.9,1.2,14.1,2.4,19.1,3.7
	c12.8,3.2,21.8,11.9,25.7,18.3c0.2,0.3,14.7,25.5-7.8,48.8c-74.7,77.4-205.8,194.4-301.5,279.7c-23,20.5-44.7,39.9-62.9,56.2
	c-7.7,7-14.6,14.3-20.2,33.5c-1.3,4.5-3.5,11.4-5.6,18.2c-1.8,5.6-3.4,10.9-4.6,14.7c-4.6,15.5,0.3,44,25.8,59
	c7,4.1,13.8,6.3,21.6,6.3c10.9,0,23.5-4.3,40.5-13.1c21.4-11.1,42.8-16.2,63.5-15.3c13.8,0.6,28,1.3,41.7,2
	c38.4,2,74.7,3.9,102.2,2.7c71.9-3.1,106.4-8.2,139.9-13.2c4.2-0.6,8.4-1.3,12.7-1.9c40.1-5.8,67.1-18.6,82.7-39.1
	c13.7-17.9,15.6-38,15.6-55.2l0.1-24.9c0.3-82.8,0.8-207.9,1.7-275.5C1582.2,493.1,1574.4,480.4,1566,467.1z M1561.7,535.5
	c-0.9,67.7-1.4,192.8-1.7,275.7l-0.1,24.9c-0.1,30.4-6.5,63.7-81.2,74.6c-4.3,0.6-8.5,1.3-12.7,1.9c-32.9,4.9-67,10-137.8,13
	c-26.5,1.1-62.3-0.7-100.3-2.7c-13.8-0.7-28-1.5-41.8-2.1c-24.3-1.1-49.1,4.9-73.6,17.5h0c-29.4,15.2-36.5,11-42.7,7.3
	c-16-9.4-19.5-27.1-16.8-36.1c1.1-3.6,2.7-8.9,4.5-14.4c2.2-6.8,4.4-13.9,5.8-18.6c4.5-15.3,9.1-19.5,14.4-24.3
	c18.1-16.3,39.8-35.7,62.8-56.2c96-85.6,227.4-202.8,302.6-280.8c26.4-27.4,18.5-59.7,10.6-72.9c-6.1-10.2-19.3-22.8-38.1-27.5
	c-5.8-1.4-13.3-2.7-20.6-4c-7.4-1.3-15-2.6-20.3-3.9c-6.9-1.8-18.8-9.5-23.3-20.9c-3.5-8.7-2.1-18.1,4.1-27.9
	c3-4.7,12.9-11.4,26-11.4c6.7,0,14.2,1.7,22.1,6.3c34.1,19.8,60.2,36.1,77.4,48.4c2.8,2,5.4,3.7,7.9,5.4
	c8.8,5.9,15.8,10.5,27.1,24.7l2.3,2.9c8.2,10.3,19.5,24.5,28.5,39.3c0.8,1.3,1.6,2.6,2.4,3.8
	C1556.4,489.4,1562.2,498.7,1561.7,535.5z"/>
</svg>
