<?xml version="1.0" encoding="UTF-8"?><svg id="Sandown_-_Config" xmlns="http://www.w3.org/2000/svg" viewBox="0 0 1920 1080"><defs><style>.cls-1{fill:#fff;}</style></defs><path class="cls-1" d="M1707.92,326.65c-5.14-4.95-12.18-7.59-19.29-7.23-71.45,3.53-216.42,9.26-275.44,11.56-22.72,.89-45.52-1.11-67.74-5.92-86.11-18.66-371.21-80.52-424.36-93.04-64.47-15.19-339.96-75.98-390.47-86.85-53.37-11.48-91.78-5.8-136.97,20.29-16.95,9.78-27.68,18.92-37.15,26.98-13.89,11.83-23.07,19.64-44.95,23.29-31.36,5.23-67.57,24.54-113.97,60.77-12.13,9.47-14.5,27.18-5.28,39.47,24.24,32.32,47.95,59.93,63.4,73.84,5.81,5.23,12.05,10.4,18.67,15.87,16.4,13.57,34.98,28.95,52.3,50,20.81,25.31,101.06,150.12,125.16,187.76,2.27,3.54,2.78,7.85,1.4,11.82l-17.65,44.84-.11,.3c-5.21,14.61,1.81,31,15.98,37.3,28.35,12.61,82.94,34.85,100.71,41.02,4.71,1.64,8.49,3.17,12.14,4.65,15.5,6.29,25.74,9.75,60.17,9.75,2.47,0,5.07-.02,7.81-.05,41.06-.54,77.3-1.93,106.42-3.05,7.25-.28,14.07-.54,20.42-.77l782.53-28.07c27.96-1,51.44-20.84,57.08-48.25l45.58-221.35c2.03-9.88,10.47-17.36,20.52-18.2l3.43-.29c19.37-1.61,35.27-16.09,38.66-35.2,3.81-21.49,8.46-54.95,8.92-92.33,.09-7.1-2.8-14-7.92-18.94Zm-20.7,107.78c-1.81,10.19-10.29,17.9-20.63,18.76l-3.43,.29c-18.83,1.57-34.64,15.59-38.45,34.09l-45.58,221.35c-3.78,18.34-19.49,31.63-38.21,32.3l-782.53,28.07c-6.37,.23-13.2,.49-20.47,.77-29.01,1.11-65.11,2.5-105.92,3.04-38.66,.5-46.77-2.78-60.2-8.23-3.7-1.5-7.9-3.21-13.1-5.01-17.05-5.92-71.72-28.2-99.14-40.4-4.64-2.06-6.95-7.4-5.31-12.19l17.65-44.84,.11-.3c3.52-9.88,2.3-20.62-3.35-29.45-24.25-37.88-105.05-163.52-126.56-189.68-18.53-22.54-37.91-38.57-55-52.71-6.45-5.33-12.54-10.37-18.04-15.32-14.55-13.09-37.27-39.62-60.78-70.97-2.73-3.64-2.02-8.89,1.59-11.71,43.67-34.1,77.01-52.15,104.95-56.81,27.34-4.56,39.99-15.32,54.63-27.79,8.82-7.51,18.81-16.02,34.18-24.89,40.92-23.62,74.19-28.52,122.77-18.06,50.47,10.86,325.71,71.59,390.09,86.76,51.86,12.22,314.29,69.19,424.71,93.12,23.87,5.17,48.34,7.31,72.76,6.36,59.05-2.3,204.1-8.04,275.65-11.57,2.26-.11,3.73,.99,4.42,1.66,.68,.66,1.82,2.09,1.8,4.29-.45,36.03-4.93,68.33-8.62,89.09Z"/></svg>