<?xml version="1.0" encoding="UTF-8"?><svg id="gp_-_Config" xmlns="http://www.w3.org/2000/svg" viewBox="0 0 1920 1080"><defs><style>.cls-1{fill:#fff;}</style></defs><path class="cls-1" d="M371.42,1002.26c-7.14,0-15.16-2.48-22.18-12.08-7.18-9.49-2.61-20.03,1.82-30.23,1.83-4.21,3.72-8.56,5.18-13.35,2.89-9.46,2.75-17.87-.36-22.5-.77-1.15-3.13-4.66-11.63-5.43-2.72-.25-5.52-.44-8.23-.63-20.8-1.43-44.37-3.05-65.88-32.29-10.67-14.55-40.31-60.47-47.21-78.57-6.36-16.68-15.98-41.88,.96-67.9,16.15-24.8,29.59-24.96,59.05-25.32,1.92-.02,3.93-.05,6.04-.08,32.89-.5,65.03-12.86,78.17-30.05,15.98-20.92,21.31-31.63,19.37-50.08-2.62-24.9-7.87-37.94-10-40.36-2.63-2.98-8.18-7.56-15.85-4.78-3.58,1.29-10.14,4.65-17.73,8.54-15.5,7.94-36.72,18.81-56.61,24.48-1.73,.49-3.5,1-5.32,1.53-21.02,6.05-47.5,13.67-73.07,13.67-10.78,0-21.39-1.35-31.36-4.75-41.17-14-54.28-47.19-55.64-50.92-2.38-6.54-2.99-17.16,2.42-27.38,3.88-7.33,12.31-17.02,30.43-21.61,9.07-2.3,22.51-5.67,37.06-9.33,29.42-7.4,62.77-15.78,74.73-18.91,3.95-1.03,15.75-4.18,32.07-8.53,56.84-15.15,175.1-46.68,218.71-57.45,33.92-8.38,112.84-29.89,176.26-47.17,41.26-11.25,73.86-20.13,84.12-22.69,15.54-3.88,159.39-44.33,286.31-80.02,86.72-24.38,168.63-47.41,208.69-58.54,37.66-10.46,127.37-35.72,192.88-54.17,34.45-9.7,61.65-17.36,69.76-19.62,15.38-4.29,42.08-12.04,63.54-18.27,10.79-3.13,19.98-5.8,25.17-7.28,27.81-7.95,46.04-12.14,55.72-12.81,18.4-1.27,32.93,7.3,38.82,22.94h0c6.67,17.72-3.52,37.86-10.19,48.28-1.84,2.88-5.53,8.64-10.09,15.76-11.6,18.09-29.12,45.43-35.65,55.71-.84,1.32-1.65,2.61-2.44,3.87-8.16,12.98-15.2,24.2-31.25,33.97-13.01,7.92-54.79,30.02-79.75,43.23-5.25,2.78-9.71,5.14-12.94,6.85-9.82,5.22-49.54,26.86-87.97,47.78-32.54,17.72-63.27,34.46-71.16,38.67-9.83,5.26-32.31,17.7-52.13,28.68-14.13,7.82-26.33,14.58-30.94,17.06-9.18,4.94-14.88,8.78-16.31,24.73-1.42,15.77,.13,38.94,1.38,57.56,.31,4.62,.6,9,.83,12.97,1.54,26.61,2.38,54.19-1.85,75.69-4.92,24.99-23.78,67.36-40.35,90.67-14.85,20.88-43.77,44.78-80.41,49.22-16.05,1.94-71.3,6.35-108.08-18.58-30.74-20.83-38.76-47.55-45.43-77.79-7.07-32.03-27-119.78-30.01-131.01-1.13-4.22-5.27-12.9-12.85-15.58-8.39-2.96-18.73,2.69-25.93,7.95-34.22,25-47.66,42.84-57.54,76.34-4.82,16.34-10.57,37.46-16.13,57.88-6.77,24.86-13.16,48.35-16.95,59.71-.5,1.52-1,3.03-1.49,4.54-6.11,18.69-13.03,39.87-40.1,62.54-9.77,8.18-23.93,20.35-38.93,33.23-25.92,22.26-55.3,47.5-68.86,58.02-20.72,16.08-51.94,31.25-81.47,39.57-26.24,7.4-95.35,23.17-127.37,29.78-30.49,6.3-92.03,20.49-100.29,22.47l-1.34,.33c-3.36,.82-7.61,1.87-12.23,1.87Zm-5.89-23.69c3.44,4.62,5.52,4.32,13.36,2.4l1.43-.35c8.61-2.07,69.63-16.15,100.91-22.61,31.74-6.55,100.13-22.15,125.98-29.44,26.8-7.56,56.1-21.74,74.64-36.13,13.16-10.21,42.34-35.28,68.09-57.39,15.04-12.92,29.25-25.12,39.12-33.39,22.68-18.99,27.89-34.95,33.93-53.42,.51-1.55,1.01-3.1,1.53-4.65,3.61-10.83,9.93-34.05,16.63-58.64,5.59-20.52,11.36-41.74,16.24-58.28,11.07-37.54,27.45-59.45,64.92-86.83,16.11-11.78,31.05-15.36,44.38-10.66,14.41,5.08,22.75,18.94,25.52,29.27,3.29,12.31,23.74,102.49,30.22,131.87,6.95,31.49,14.59,50.27,37.12,65.54,24.66,16.72,64.97,18.86,94.46,15.28,30.17-3.65,54.14-23.55,66.51-40.95,16.38-23.03,33.06-62.79,37.03-82.94,4.33-21.97,2.49-53.65,1.51-70.67-.23-3.91-.52-8.23-.82-12.79-1.29-19.32-2.9-43.36-1.34-60.69,2.29-25.35,14.47-33.93,26.75-40.54,4.51-2.43,16.67-9.16,30.74-16.95,19.89-11.01,42.43-23.5,52.39-28.82,7.82-4.18,38.52-20.9,71.02-38.6,38.46-20.95,78.24-42.61,88.14-47.88,3.24-1.72,7.71-4.09,12.98-6.88,24.76-13.1,66.21-35.03,78.71-42.63,12.02-7.32,17.07-15.35,24.71-27.52,.81-1.29,1.64-2.61,2.49-3.95,6.55-10.31,24.08-37.67,35.69-55.77,4.56-7.11,8.25-12.87,10.09-15.74,7.8-12.19,10.91-23.58,8.32-30.46h0c-2.76-7.33-9.06-10.71-18.72-10.04-8.16,.57-25.52,4.63-51.61,12.09-5.17,1.48-14.33,4.14-25.09,7.26-21.5,6.24-48.26,14.01-63.74,18.33-8.09,2.26-35.28,9.91-69.71,19.61-65.52,18.45-155.25,43.72-192.95,54.19-40.03,11.11-121.92,34.14-208.63,58.52-133.26,37.47-271.05,76.21-286.88,80.17-10.06,2.52-44.19,11.82-83.72,22.59-63.52,17.31-142.57,38.85-176.72,47.29-43.43,10.73-161.58,42.22-218.36,57.36-16.35,4.36-28.17,7.51-32.16,8.55-12.06,3.15-45.45,11.55-74.92,18.96-14.54,3.66-27.96,7.03-37.03,9.32-8.71,2.21-14.82,6.21-17.66,11.58-2.52,4.75-1.95,9.39-1.3,11.18,.41,1.12,10.38,27.63,43.28,38.83,27.7,9.42,65.13-1.34,92.46-9.21,1.84-.53,3.63-1.04,5.37-1.54,18-5.13,38.21-15.48,52.97-23.04,8.53-4.37,15.28-7.83,20.06-9.55,13.54-4.89,27.61-1.01,37.64,10.36,9.98,11.31,13.92,42.28,14.9,51.5,2.65,25.21-5.42,40.82-23.36,64.31-20.81,27.25-63.51,37.45-93.76,37.91-2.13,.03-4.16,.06-6.09,.08-27.93,.34-32.22,.39-42.54,16.24-11.38,17.48-4.82,34.68,.96,49.86,5.65,14.8,33.05,58.04,44.65,73.85,16.01,21.77,31.5,22.83,51.12,24.18,2.82,.19,5.73,.39,8.67,.66,14.86,1.35,22.57,8.46,26.42,14.19,8.94,13.3,5.65,30.46,2.89,39.5-1.79,5.87-4.01,10.97-5.96,15.48-1.6,3.68-3.76,8.65-3.88,10.66Z"/></svg>