<?xml version="1.0" encoding="UTF-8"?><svg id="Sandown_-_Config" xmlns="http://www.w3.org/2000/svg" viewBox="0 0 1920 1080"><defs><style>.cls-1{fill:#fff;}</style></defs><path class="cls-1" d="M1148.75,792.13c-131.48,.3-311.88,.25-442.65,1.28-40.08,.3-80.42-.7-120.23-6.44-57.67-8.3-112.6-27.72-151.7-73.25-20.02-23.15-29.59-52.31-35.58-81.44-1.02-5.22-2.16-11.82-2.93-17.09-3.01-20.81-4.42-41.41-4.83-62.3-.39-18.63-.07-36.9,3.27-55.57,4.47-22.2,13.38-43.28,23.55-63.45,16.34-33.05,38.05-63.76,65-89.08,4.04-3.75,8.86-8.25,13.17-11.67,9.19-7.97,21.36-16.12,32.12-21.18,7.25-3.6,14.87-6.84,22.43-9.57,42.81-15.38,87.08-21.38,131.74-25.67,113.53-8.96,226.27-6.77,339.73-7.59,23.69-.02,60.55,.23,84.48,.32,20.99,.19,63.53,.25,84.54,.54,44.39,.68,89.62,.76,133.29,12.34,26.27,6.9,50.34,16.88,74.5,28.26,61.75,30.22,102.85,91.34,122.52,155.75,4,13.05,7.08,26.61,9,40.19,2.01,13.47,3.26,27.29,3.27,40.93,.05,42.49-12.47,81.05-34.71,116.84-.52,.83-1.07,1.62-1.61,2.43l-3.24,4.85c-1.9,2.89-4.54,6.85-6.63,9.55-1.49,1.9-7.4,9.81-8.71,11.49-4.18,5.09-8.67,10.25-12.94,15.25-56.78,63.45-128.71,78.76-210.18,82.08-28.09,1.4-57.47,1.28-85.53,1.49l-10.58,.03c-3.52-.14-7.05,.68-10.57,.68h0Zm0-56.48c3.5-.01,7,.94,10.51,.64,7.54-.19,23.98-.93,31.5-1.17,20.8-.83,41.41-1.66,61.97-3.45,57.17-4.67,114.19-14.41,155.08-58.22,6.07-6.2,11.82-13.93,17.21-20.72,2.79-3.59,5.29-7.5,7.98-11.15l1.33-1.85c.42-.62,.79-1.26,1.19-1.89l2.36-3.78,2.37-3.77c.39-.63,.81-1.25,1.18-1.88,10.07-17.71,18.33-36.37,22.33-56.08,2.8-15.1,3.53-31.08,2.14-46.39-1.89-25.66-8.65-50.72-19.03-74.35-12.13-27.28-29.8-52.63-53.43-71.06-9.32-7.3-19.63-13.09-30.46-17.76-29.26-13.6-59.35-23.46-91.67-26.6-52.46-4.9-112.13-2.83-165.21-3.39-111.81-.11-224.7,.29-336.29,3.66-13.62,.24-28.06,1.42-41.62,2.31-40.06,3.07-80.47,7.96-119.27,17.45-16.81,4.13-33.7,9.18-49.21,16.59-8.22,4.12-13.76,7.5-20.49,13.42-5.67,4.71-11.47,9.78-16.92,14.75-19.36,16.93-38.49,36.18-48.86,60.26-5.02,11.44-7.25,23.99-10.01,36.01-.76,3.55-1.7,7.06-2.34,10.55-.32,1.71-.58,3.78-.83,5.5-5.35,39.18-1.41,78.91,15.5,115.01,5.23,10.96,10.49,21.86,17.73,31.15l.26,.4,.61,.7c.63,.74,1.9,2.16,2.51,2.91,7.91,8.93,15.85,17.8,25.01,25.49,8.5,7.23,18.21,13.06,28.53,18.23,14.14,7.18,28.74,15.06,44,20.29,12.74,4.47,26.1,6.65,39.55,7.64,17,1.52,33.97,2.42,51.16,2.82,153.41,1.71,310.17-2.36,463.58-2.23h0Z"/></svg>