<svg id="Oval_-_Config" data-name="Oval - Config" xmlns="http://www.w3.org/2000/svg" viewBox="0 0 1920 1080"><defs><style>.cls-1{fill:#fff;}</style></defs><title>active</title><path class="cls-1" d="M1225.3,968h-1L771,966.26l-.92-.18c-.7-.14-71.58-14-165.85-45.08-87.1-28.7-212.74-78.41-316.62-152.21-16.46-11.89-51.2-50.76-79.69-109.3C184.13,610.63,158.21,533.75,169.85,445c11-83.82,42.57-156,93.86-214.52,53.52-61.06,126.4-104.62,216.62-129.46l.3-.08c52.2-12.63,133.25-25.69,178.5-25.69,42.49,0,720.07,6.14,726.91,6.2l.83,0c5.85.54,144.27,13.8,218.05,69.42q5.34,4,11,8.27c37.46,27.95,84.09,62.73,122.35,116.82,45.26,64,67.74,139.21,68.71,230,.11,3.93,1.19,65-33.62,140.46A397.4,397.4,0,0,1,1687,767c-45.68,43.85-103.33,79.46-171.34,105.84l-.18.07c-53.06,19.41-230.75,83.63-289.26,94.91ZM773,946.26,1223.41,948c59.54-11.81,247.59-80.09,285.13-93.83,148-57.44,215.88-149.2,246.71-216.06,33.27-72.15,31.8-131,31.78-131.57v-.21c-2.06-196.08-111-277.32-183-331.08q-5.73-4.27-11.13-8.33c-67.39-50.8-199.29-64.63-207.46-65.44-20.55-.18-684.33-6.19-726.29-6.19-43.72,0-122.58,12.75-173.65,25.09C316.29,167,211.24,283.24,189.68,447.64c-11,83.79,13.63,156.69,36.22,203.1,26.69,54.84,59.16,91.54,73.36,101.79C401,824.84,524.69,873.73,610.49,902,697.84,930.79,764.54,944.57,773,946.26Z"/></svg>