<?xml version="1.0" encoding="UTF-8"?><svg id="Indianapolis_Road_2022_-_Config" xmlns="http://www.w3.org/2000/svg" viewBox="0 0 1920 1080"><defs><style>.cls-1{fill:#fff;}</style></defs><path class="cls-1" d="M951.09,933.4c-141.6,0-298.29-.98-455.92-3.89-3.26-.06-6.51-.35-9.66-.86-10.62-1.73-24.94-5.63-32.83-14.41-6.7-7.45-17.13-24.34-11.73-53.71,1.96-10.65,3.66-30.35-6.9-42.59-7.87-9.12-21.86-13.4-41.59-12.72-3.06,.11-7.43,.41-12.06,.74-8.69,.61-17.67,1.25-23.75,1.04-43.78-1.54-71.36-8.66-89.44-23.06-48.95-39.01-71.63-109.75-74.06-117.69-10.76-35.22,2.38-64.58,37.01-82.66,13.59-7.1,25.81-11.21,48.07-11.21s50.03,.47,71.73,.85c9.85,.17,18.79,.33,25.81,.41,25.69-.73,31.03-7.41,37.69-15.74,10.88-13.6,22.29-24.01,61.22-24.01,42.94,0,792.57,4.55,800.14,4.6,3.92,0,6.55-1.88,8.06-3.45,2.45-2.56,3.76-6.2,3.6-10.01-.18-4.25-.43-9.26-.7-14.79-1.54-31.21-3.64-73.96-.32-94.9,5.62-35.47,27.23-45.57,46.29-54.48,12.11-5.66,23.54-11,33.08-22.39,11.86-14.17,8.92-41.1,6.07-67.14-2.25-20.54-4.57-41.79-.09-59.33,5.54-21.68,20.72-34.57,45.13-38.31,21.65-3.32,54.38-3.86,85.41-1.42,38.85,3.06,109.75,12.48,145.82,25.93,66.41,24.76,111.59,69.79,134.29,133.84,31.8,89.71,27.82,161.5,23.97,230.91-1.06,19.16-6.38,44.64-40.13,44.64h0c-19.09,0-51.78-1.25-78.04-2.25-9.85-.38-19.15-.73-26.5-.97-8.4-.27-16.47,2.24-22.73,7.08-11.02,8.53-13.18,19.55-6.62,33.68,1.67,3.59,3.92,8.25,6.52,13.64,9.53,19.71,22.57,46.71,26.67,61.92,12.53,46.46,3.44,93.17-25.59,131.51-17.53,23.15-41.95,42.47-70.61,55.85-29.44,13.75-63.47,21.23-98.4,21.62-10.26,.12-22.59,.26-36.8,.44-97.71,1.18-273.53,3.3-482.12,3.3Zm-554.71-148.25c23.75,0,41.5,6.63,52.8,19.73,15.2,17.62,14.6,41.96,11.42,59.27-3.85,20.96,2.69,32.01,6.94,36.73,2.98,3.32,11.09,6.4,21.17,8.04,2.21,.36,4.51,.56,6.82,.61,389.52,7.2,773.47,2.57,937.43,.59,14.22-.17,26.55-.32,36.82-.43,63.55-.71,120.85-26.71,153.28-69.55,25.21-33.3,33.11-73.87,22.22-114.23-3.62-13.4-16.71-40.5-25.37-58.43-2.64-5.47-4.92-10.19-6.66-13.92-10.47-22.54-5.9-43.65,12.52-57.92,9.93-7.69,22.61-11.69,35.63-11.26,7.4,.24,16.73,.6,26.61,.97,26.09,1,58.57,2.23,77.28,2.23h0c11.32,0,18.83-1.79,20.16-25.75,3.74-67.45,7.6-137.19-22.86-223.12-20.63-58.21-61.82-99.19-122.43-121.78-33.91-12.64-104.11-21.88-140.4-24.73-29.61-2.33-60.58-1.85-80.81,1.25-16.61,2.54-25.22,9.57-28.78,23.49-3.58,14.03-1.46,33.44,.59,52.2,3.31,30.21,6.72,61.44-10.61,82.15-12.39,14.8-27.03,21.64-39.95,27.68-18.03,8.42-31.05,14.51-35.01,39.49-2.99,18.9-.87,62.17,.54,90.79,.27,5.57,.52,10.63,.71,14.92,.39,9.22-2.94,18.23-9.14,24.7-5.94,6.2-13.96,9.62-22.56,9.62-7.63-.05-757.2-4.6-800.08-4.6-32.41,0-38.52,7.65-45.6,16.5-8.57,10.72-17.43,19.4-40.04,22.29-1.33,.66-2.83,1.03-4.42,1.03-2.41,0-5.38-.02-8.79-.06-1.58,.04-3.21,.06-4.89,.06-.6,0-1.19-.05-1.76-.15-5.81-.09-12.46-.2-19.58-.33-21.61-.38-48.51-.84-71.38-.84-18.34,0-27.46,3.01-38.81,8.94-26.23,13.7-35.11,33.03-27.14,59.09,.89,2.92,22.4,72.04,67.39,107.9,14.31,11.4,38.99,17.35,77.68,18.71,5.01,.18,13.84-.45,21.63-1,4.81-.34,9.36-.66,12.78-.78,1.56-.05,3.1-.08,4.62-.08Z"/></svg>