<?xml version="1.0" encoding="UTF-8"?><svg id="Moto_-_active" xmlns="http://www.w3.org/2000/svg" viewBox="0 0 1920 1080"><defs><style>.cls-1{fill:#fff;}</style></defs><path class="cls-1" d="M1630.48047,881.7793c-8.06738,0-16.35742-1.46875-24.85254-4.41113-42.23145-14.62598-206.83594-67.51172-352.06348-114.17285-31.88477-10.24414-62.62695-20.12109-90.6084-29.12305-149.84277-48.20508-362.95947-118.58984-421.41162-138.38281-6.60645-2.2373-12.92725-4.47266-19.03955-6.63574-44.86475-15.87012-74.50293-26.35547-105.80322,.83691-37.62939,32.69043-69.44678,34.44043-89.5083,30.1543-25.55029-5.45898-46.69434-23.70703-59.5376-51.38184-13.42578-28.93115-9.51758-64.11377,9.95654-89.63281,21.08936-27.63574,56.85254-39.48389,98.12256-32.51172,34.48877,5.82861,319.14307,49.81445,355.74268,55.11914,46.22168,6.69873,62.05859-19.81201,67.20898-43.23242,3.20117-14.55762,1.10059-28.07129-6.07324-39.0791-8.52832-13.08545-24.14746-22.24414-45.16895-26.48682-31.54102-6.36475-104.41553-22.40527-168.71094-36.55713-52.85205-11.6333-102.77246-22.62109-121.83936-26.50146-22.04346-4.48633-48.01367-10.30273-70.92627-15.43457-21.44629-4.80371-41.70312-9.34082-55.12256-11.98145-2.64746-.52148-5.19141-1.04883-7.65723-1.56006-22.62842-4.69336-36.28857-7.52686-65.28418,9.33691-24.14209,14.04004-46.36182,28.354-62.58545,38.80518-7.72852,4.97852-14.40234,9.27783-19.64111,12.49805-13.11426,8.06104-15.36182,11.94629-20.03809,34.6416-4.92969,23.92139-15.26611,78.59033-17.44824,97.79395-1.90381,16.75293-2.35645,20.73291,12.09766,40.14795,17.26904,23.19629,20.38281,51.67383,8.76709,80.18555-13.20605,32.41504-40.27441,50.50781-76.21924,50.94629-21.22314,.30762-41.32275-7.42676-56.59033-21.64453-16.31445-15.19141-25.46094-36.78125-25.75439-60.79102-.38086-31.13965,1.75635-68.57812,3.6416-101.60938,.9165-16.05908,1.78271-31.22705,2.29004-44.35254,.39209-10.14062,.66016-19.32275,.89648-27.42334,.729-25.00928,1.21094-41.53174,4.38281-52.91211,5.33154-19.13184,22.80322-31.76611,37.42871-40.63574,11.83203-7.17578,13.54492-14.92383,12.96533-36.12109-.57568-21.07617-1.29248-47.30664,31.77637-83.69434,15.12305-16.64111,33.68799-27.94824,55.17871-33.60596,22.06006-5.80811,41.79639-4.18896,54.46631-1.80664,18.99512,3.57031,58.76953,12.64062,97.23486,21.41211,22.01221,5.02002,42.8042,9.76123,58.00732,13.08057,18.23047,3.98047,59.94336,13.57471,104.10596,23.73242,56.37158,12.96631,120.26465,27.66211,148.07715,33.61279,21.23291,4.54346,57.83447,12.89209,100.21484,22.55957,57.8877,13.20459,123.49805,28.17041,175.8252,39.37891,89.07031,19.07861,93.18262,20.89746,109.99414,48.65283l1.54395,2.54395c13.34668,21.90723,17.5,35.21973,23.24902,53.64502,1.57422,5.04443,3.20117,10.26074,5.2002,16.2583,1.55371,4.66113,2.9043,9.33643,4.20996,13.85791,7.41016,25.6582,12.77246,40.38232,36.79297,44.63818,37.81445,6.69971,161.25586,25.89551,195.50488,31.03809,51.14746,7.68066,105.58691,16.26025,121.56641,21.65771,19.51465,6.59082,40.79395,17.77832,50.6543,50.77148,3.44141,11.51562,9.43164,30.82812,15.77246,51.27441,9.78711,31.55762,19.9082,64.18848,22.66113,74.58203,1.54199,5.82422,4.58594,15.33594,7.80762,25.40527,6.10156,19.07031,13.01758,40.68555,14.56836,51.9248,2.47559,17.94727-3.10254,50.21094-23.25391,65.74609-13.34277,10.28516-27.66211,15.44238-42.77441,15.44336Zm-971.68701-328.72656c1.9248,0,3.87451,.06152,5.85156,.18262,20.07764,1.23926,40.67725,8.52637,64.52979,16.96387,6.0498,2.13965,12.30615,4.35352,18.78418,6.54688,58.40137,19.77539,271.36426,90.10938,421.12207,138.28711,27.97949,9.00098,58.71875,18.87793,90.60059,29.12109,145.32812,46.69238,310.04688,99.61523,352.49121,114.31543h0c17.8877,6.19434,33.875,3.58691,48.87109-7.97363,12.89746-9.94238,17.44141-34.2041,15.65234-47.17383-1.31348-9.52539-8.23926-31.16992-13.80469-48.5625-3.44434-10.76562-6.41992-20.06348-8.09277-26.37891-2.64551-9.98926-13.15625-43.87891-22.42969-73.77832-6.35645-20.49707-12.36133-39.85742-15.83203-51.47266-7.5918-25.40332-23.54004-32.70215-37.89258-37.55078-16.45508-5.55762-90.32617-16.65039-118.13574-20.82715-34.31641-5.15234-158.05273-24.39502-196.02344-31.12256-37.45996-6.63672-45.45996-34.34033-52.51953-58.78271-1.25-4.3291-2.54297-8.80615-3.96875-13.08154-2.05957-6.18164-3.79102-11.73096-5.31934-16.62646-5.52148-17.69775-9.16895-29.38965-21.23633-49.19629l-1.57031-2.58789c-12.74707-21.04492-12.99023-21.44727-97.07715-39.45801-52.45703-11.23633-118.13574-26.21826-176.0835-39.43652-42.31006-9.65088-78.85059-17.98633-99.95166-22.50098-27.96191-5.98291-91.93457-20.69727-148.37598-33.6792-44.10645-10.14502-85.7666-19.72754-103.88818-23.68359-15.29395-3.33936-36.12939-8.09082-58.18848-13.12109-38.28076-8.72949-77.86523-17.75635-96.48291-21.25635-16.59131-3.11816-58.68506-6.51514-91.14941,29.2085-27.65723,30.43311-27.11182,50.39355-26.58398,69.69727,.47949,17.56104,1.07666,39.4165-22.5874,53.76758-17.04346,10.33594-25.84375,19.25049-28.53418,28.9043-2.51709,9.03174-2.9707,24.58398-3.65674,48.12598-.23779,8.14551-.50732,17.37744-.90283,27.61279-.51465,13.30908-1.38574,28.56689-2.30762,44.71973-1.86719,32.70752-3.9834,69.77832-3.61084,100.22559,.50342,41.19824,32.34424,63.01855,62.10205,62.68164,35.10205-.42871,50.88379-21.16992,57.94189-38.49316,8.87158-21.77734,6.63867-43.33398-6.28809-60.69727-16.91943-22.72656-18.52344-31.50635-15.92725-54.34961,2.28076-20.07129,12.59717-74.65479,17.73145-99.57178,5.43359-26.36816,9.91895-35.8208,29.15381-47.64453,5.05859-3.10889,11.65039-7.35547,19.2832-12.27246,16.38525-10.55518,38.82568-25.01123,63.36133-39.28076,35.61475-20.71338,54.93848-16.70459,79.40137-11.63135,2.40137,.49854,4.87891,1.01221,7.45752,1.52002,13.6748,2.69092,34.05469,7.25537,55.63135,12.08838,22.82324,5.11182,48.69189,10.90576,70.54346,15.35254,19.22314,3.91211,69.21875,14.91699,122.1499,26.56738,64.21582,14.13428,136.99951,30.15479,168.36816,36.48535,26.39941,5.32764,46.44434,17.48926,57.96777,35.1709,10.02539,15.38086,13.16895,34.66357,8.85156,54.29443-4.13281,18.79297-13.02246,34.20215-25.70898,44.56104-16.1709,13.20459-37.6709,17.97217-63.90137,14.16943-36.6416-5.31055-321.66455-49.354-356.20703-55.19141-34.19678-5.7793-62.21484,3.07275-78.89111,24.92432-15.02393,19.6875-18.05225,46.80322-7.71387,69.08057,10.13379,21.83594,26.31934,36.12793,45.57471,40.24219,22.39062,4.78809,47.35889-4.10059,72.2124-25.69336,16.97852-14.75,34.6543-21.74023,55.20898-21.74023Z"/></svg>