<?xml version="1.0" encoding="utf-8"?>
<!-- Generator: Adobe Illustrator 24.0.1, SVG Export Plug-In . SVG Version: 6.00 Build 0)  -->
<svg version="1.1" id="South_-_Config" xmlns="http://www.w3.org/2000/svg" xmlns:xlink="http://www.w3.org/1999/xlink" x="0px"
	 y="0px" viewBox="0 0 1920 1080" style="enable-background:new 0 0 1920 1080;" xml:space="preserve">
<style type="text/css">
	.st0{fill:#FFFFFF;}
</style>
<title>active</title>
<path class="st0" d="M1056.5,678.4c-0.4-0.8-0.9-1.7-1.3-2.5c-27.4-52.7-81-154-109-204.3c-25.7-46.2-46.4-64.4-64.7-80.6
	c-5-4.4-9.8-8.6-14.3-13.2c-11.7-11.7-5.5-21.3-2.3-24.9c6.2-6.9,9.1-14,8.7-21.3c-0.6-11.4-9.1-18.8-14.1-23.3
	c-0.7-0.6-1.3-1.1-1.8-1.6c-102.9-97.1-115.1-107.8-142-131.1c-9.1-7.9-20.4-17.7-37.6-32.9c-25.3-22.4-54.1-32.1-83.5-27.9
	c-28.3,4-48.9,19.3-56.4,25.7c-26,22-23.2,52.4-13,67c3.5,4.9,10.7,14.1,14.7,18.4c4.1,4.6,4.6,6.9,4.7,7.4c-0.4,0.7-2.1,2-3.1,2.7
	l-0.2,0.1c-1.8,1.3-4.3,3.2-6.9,5.2c-4.5,3.4-9.5,7.2-12.5,9.3c-6,4.3-13.1,9.4-21,15c-27.4,19.5-65,46.1-87.8,64.4
	c-25.8,20.6-53.3,32.7-70.4,37.3c-51.1,13.5-69.4,35.3-75.8,47c-10,18.5-12.4,37.3-7.1,55.7c4.9,16.9,15.2,29.5,23,37.1
	c22.7,22.1,67.3,58.4,93.5,76.1l31.3,21.1C513,675.1,672,782.4,759.7,839.7c25,16.4,31.2,27.5,36.3,39.4c1.1,2.5,2.3,5.7,3.7,9.1
	c5.6,13.9,12.5,31.1,19.4,40.4c19.9,26.7,38.6,29.9,48.7,31.6l0,0c2.4,0.4,4.9,0.6,7.6,0.6c13.1,0,28.4-4.6,36.4-8.5
	c10.1-4.9,23.9-14.5,37.3-23.8c7.4-5.1,14.4-10,19.5-13.1c25.4-15.6,42-29.5,53.8-45.2c12.4-16.4,9.4-34.9,8.1-42.9
	c-2.9-17.8,6.8-22.4,8.7-23.1c15.1-5.6,19.5-21,20.5-25.6c1.9-8.6,2.9-22.3,3.9-34.4c0.4-5.4,0.8-10.5,1.2-14.2
	C1068,699.8,1062.2,688.9,1056.5,678.4z M1044.8,727.9c-0.4,4-0.8,9.3-1.3,14.8c-0.8,10.9-1.9,24.5-3.5,31.7
	c-0.3,1.5-2.2,9-7.9,11.1c-12.5,4.6-25.7,19.2-21.5,45c1.5,9.4,2,19.2-4.3,27.7c-10.2,13.5-25.1,25.9-48.2,40.2
	c-5.6,3.4-12.8,8.4-20.4,13.7c-12.2,8.4-26,18-34.7,22.3c-7.3,3.6-22.9,7.7-31.8,6.1c-8.3-1.4-21-3.6-36-23.8
	c-5.3-7.2-12.3-24.5-16.9-35.9c-1.4-3.5-2.7-6.8-3.9-9.5c-5.9-13.8-14.1-28.9-43.7-48.3C683,765.7,524.1,658.5,418.9,587.6
	l-31.3-21.1c-25-16.9-69.1-52.8-90.8-73.9c-12.1-11.8-29.9-36.5-12.3-69c3-5.6,16.5-24.8,63.3-37.2c19-5,49.5-18.5,77.7-41
	c22.4-17.9,59.7-44.4,87-63.7c7.9-5.6,15.1-10.7,21.1-15c3.2-2.3,8.4-6.2,12.9-9.6c2.6-2,5-3.8,6.8-5.1l0.2-0.1
	c3.3-2.4,10.2-7.5,11.1-16.7c0.7-7.3-2.5-14.7-9.8-22.8c-3.4-3.8-10.2-12.3-13.2-16.5c-4.6-6.6-8.4-25.1,9.5-40.2
	c9.5-8.1,59.7-45.9,113.7,2c17.3,15.3,28.6,25.2,37.7,33.1c26.6,23.1,38.8,33.7,141.4,130.5c0.7,0.6,1.4,1.3,2.3,2
	c2.9,2.6,7.3,6.4,7.4,9.5c0.1,1.7-1.2,4.1-3.6,6.8c-11.6,12.9-15.2,34.2,3,52.4c5,5,10,9.4,15.2,14c17,15.1,36.4,32.1,60.4,75.3
	c27.9,50.1,81.4,151.2,108.8,203.7c0.5,0.9,1,1.8,1.4,2.7C1043.7,696.8,1047.4,703.8,1044.8,727.9z"/>
</svg>
