<?xml version="1.0" encoding="UTF-8"?><svg id="rudskogen_-_Config" xmlns="http://www.w3.org/2000/svg" viewBox="0 0 1920 1080"><defs><style>.cls-1{fill:#fff;}</style></defs><path class="cls-1" d="M341.56,948.4c-8.5,0-17.24-1.06-26.13-3.18-72.65-17.38-78.58-79.08-76.72-123.97,2.2-53.07,19.82-106.96,48.34-147.87,28.71-41.18,102.23-129.23,137.78-168.5,6.76-7.46,19.43-21.61,35.47-39.52,65.89-73.54,188.54-210.43,223.59-244.41l3.37-3.26c42.31-41.03,78.85-76.46,142.3-109.68l4.02-2.11c61.51-32.22,102.14-53.5,157.28-39.84,35.08,8.69,67.11,36.87,83.08,52.89,25.17,25.25,44.05,53.39,50.51,75.27,6.84,23.17,7.18,47.13,.95,67.47-7.24,23.64-22.93,41.99-45.37,53.09-26.8,13.25-76.67,28.19-120.67,41.38-26.82,8.04-52.16,15.63-64.96,20.8-30.72,12.41-43.55,28.77-44.31,56.49-.83,30.21-1.86,67.81-36.49,95.52-20.06,16.05-41.94,22.4-61.24,28-11.56,3.36-22.49,6.53-32,11.4-24.92,12.77-30.92,18.81-32.67,48.93-2.12,36.5-1.83,70.39,24.68,84.09,33.11,17.11,60.58,18.25,81.64,3.39,25.2-17.79,33.98-36.22,40.63-62.04,6.77-26.3,22.64-87.88,55.65-120.66,30.17-29.95,100.53-84.67,127.01-105.26l.86-.67c15.34-11.93,51.07-41.97,82.6-68.48,21.99-18.49,40.98-34.46,50.46-42.11,16.15-13.04,30.61-20.84,44.2-23.84,19.94-4.4,38.19,1.74,52.79,17.76,9.87,10.83,19.18,29.05,7.49,54.31-7.22,15.59-20.5,29.9-31.16,41.4-1.05,1.14-2.09,2.25-3.09,3.34-1.83,1.98-3.82,4.14-5.96,6.45-22.34,24.14-59.73,64.53-83.09,99.27-23.5,34.96-31.08,69.21-38.4,102.33-.45,2.04-.9,4.07-1.35,6.09-7.23,32.41-13.92,62.66-16.4,76.64-1.49,8.41-.98,21.06,5.39,29.01,4.55,5.69,11.67,8.68,21.76,9.15,39.5,1.83,177.75,5.77,201.61,5.34,3.15-.06,6.35-.03,9.45,0,21,.19,39.12,.34,51.13-22.88,1.93-3.74,3.89-7.62,5.96-11.73,16.13-32.04,36.2-71.91,68.06-83.71,37.63-13.95,88.27-12.41,116.6,22.45,28.61,35.21,34.61,69.6,19.46,111.5-15.83,43.77-48.64,67.54-94.9,68.74-96.62,2.51-264.92,1.78-443.1,1-207.16-.91-421.41-1.84-571.52,1.74h0c-8.44,.2-15.29,5.89-16.66,13.83-3.38,19.64-7.83,35.87-13.2,48.25-3.95,9.09-15.67,32.04-39.1,48.69-16.53,11.74-35.43,17.7-55.64,17.7ZM957.22,81.8c-34.51,0-65.83,16.41-114.35,41.83l-4.03,2.11c-60.88,31.87-96.46,66.37-137.65,106.32l-3.37,3.27c-34.55,33.49-156.89,170.03-222.62,243.39-16.06,17.93-28.75,32.09-35.54,39.59-34.39,37.99-108.38,126.61-136.2,166.52-26.4,37.86-42.72,87.89-44.77,137.26-2.56,61.77,15.8,92.78,61.39,103.69,24.58,5.88,46.62,2.05,65.53-11.38,19.33-13.73,29.06-32.8,32.34-40.35,4.67-10.76,8.77-25.86,11.84-43.67,2.97-17.21,18.06-30,35.89-30.43h0c150.4-3.59,364.77-2.65,572.09-1.75,178.02,.78,346.17,1.51,442.49-1,37.87-.98,63.64-19.67,76.62-55.55,12.83-35.48,8.14-62.16-16.18-92.09-21.97-27.03-64.19-27.4-94.13-16.31-24.48,9.07-42.59,45.05-57.15,73.95-2.09,4.16-4.07,8.09-6.05,11.92-17.65,34.15-46.17,33.9-69.07,33.7-3.1-.03-6.03-.05-8.91,0-24.1,.45-163.22-3.52-202.9-5.36-15.96-.74-28.22-6.33-36.46-16.63-13.25-16.57-10.59-38.63-9.46-45,2.56-14.4,9.02-43.62,16.57-77.5,.45-2.01,.89-4.03,1.34-6.05,7.36-33.31,15.71-71.07,41.33-109.17,24.23-36.03,62.27-77.14,85-101.7,2.13-2.3,4.11-4.44,5.93-6.42,1.02-1.11,2.07-2.24,3.14-3.39,24.61-26.52,41.97-48.42,23.55-68.64-11.75-12.89-30.28-23.61-69.63,8.17-9.32,7.53-29.16,24.21-50.16,41.86-31.67,26.62-67.56,56.8-83.19,68.96l-.86,.67c-26.22,20.4-95.88,74.57-125.2,103.67-29.11,28.9-44.01,86.75-50.38,111.45-7.62,29.56-18.38,52.15-48.47,73.39-27.64,19.51-62.08,18.86-102.35-1.96-17.43-9-28.67-24.84-33.42-47.05-3.84-17.96-3.11-37.5-2.04-55.96,2.2-37.86,13.31-50.09,43.51-65.57,11.22-5.75,23.59-9.34,35.55-12.81,18.37-5.33,37.36-10.85,54.32-24.41,25.43-20.34,28.06-46.18,29-80.45,.99-36.04,18.51-59.01,56.82-74.49,13.66-5.52,38.24-12.88,66.71-21.42,43.24-12.96,92.25-27.65,117.55-40.15,40.4-19.96,43.62-64.71,34.1-96.96-5.48-18.56-22.91-44.16-45.49-66.81-24.68-24.75-51.55-42.1-73.73-47.6-10.1-2.5-19.59-3.68-28.84-3.68Z"/></svg>