<?xml version="1.0" encoding="UTF-8"?><svg id="wheatland_-_active" xmlns="http://www.w3.org/2000/svg" viewBox="0 0 1920 1080"><defs><style>.cls-1{fill:#fff;}</style></defs><path class="cls-1" d="M963.78772,379.63715c43.0885,0,85.84229,.19269,127.18811,.37924,37.41077,.16885,72.74695,.32806,105.01111,.32806,8.47583,0,16.57849-.01154,24.07422-.03384l.51807-.00076h.00049c22.21729,0,43.32568,4.53925,62.7395,13.49191,18.12891,8.36002,34.81042,20.47192,49.58118,35.99887,32.32739,33.98306,46.13733,73.79614,48.28198,99.72385,.22656,2.73804,.5658,5.46576,1.01685,8.17615,.8916,5.35693,.70776,21.52191-6.37109,44.35693-7.42688,23.95807-20.10352,47.28577-35.69421,65.68573-13.34546,15.75079-28.73621,27.99731-45.7439,36.40002-19.28223,9.52612-41.3811,14.35614-65.68262,14.35614-.72388,0-1.44275-.00385-2.172-.01227-.38025-.00433-.76025-.00653-1.1405-.00653-1.95776,0-3.91528,.05731-5.86987,.1723-30.97192,1.82111-67.18884,2.70612-110.71924,2.70612-59.36426,0-123.88727-1.66229-186.28613-3.26959-62.30231-1.60504-121.1496-3.12115-175.45538-3.12158-15.49615-.00037-29.58423,.12231-43.08038,.37543-1.05151,.01996-2.12,.02997-3.17615,.02997-22.49384,0-43.65234-4.625-62.88849-13.74652-17.72998-8.40729-34.0473-20.61847-48.49847-36.29498-31.20807-33.85345-44.72186-73.61499-46.81189-97.37811-.19269-2.19226-.4577-4.37769-.79498-6.55267-.58618-3.78345-.52234-18.39691,6.71765-40.28653,7.52386-22.74847,20.20581-45.23962,35.70886-63.33038,14.14386-16.50385,30.44153-29.37692,48.4408-38.26077,20.28998-10.01422,43.30035-15.09192,68.39227-15.09192,.51807,0,1.02924,.00192,1.54962,.00613,.26306,.00211,.526,.00314,.78912,.00314,1.77771,0,3.55554-.04755,5.33087-.14236,78.19806-4.17807,183.00964-4.66116,255.04462-4.66116m-.00018-99.99994c-93.61609,0-187.54047,.91183-260.37939,4.80341-.784-.00629-1.5542-.00937-2.33453-.00937-190.03146,0-271.36249,186.57208-258.08011,272.2836,8.69354,98.84631,99.77426,238.65839,257.81406,238.65839,1.6767,0,3.37109-.01587,5.06287-.04761,13.22528-.24823,26.9726-.35791,41.1911-.35779,108.47601,.00085,243.10419,6.39142,361.74438,6.39142,41.40076,0,80.86926-.77869,116.58838-2.87866,1.11218,.01276,2.20874,.01904,3.31323,.01904,191.40393,0,266.49585-190.93768,252.1344-277.21826-8.8053-106.45697-105.73352-240.97586-260.26953-240.97159-.26453,.00003-.53674,.00043-.80164,.00122-7.69702,.02316-15.62793,.03348-23.78357,.03348-67.46521,0-149.71338-.70728-232.19965-.70728h0Z"/></svg>