<?xml version="1.0" encoding="UTF-8"?><svg id="B_-_active" xmlns="http://www.w3.org/2000/svg" viewBox="0 0 1920 1080"><defs><style>.cls-1{fill:#fff;}</style></defs><path class="cls-1" d="M1630.48047,881.77832c-8.06738,.00098-16.35742-1.46777-24.85254-4.41016-42.23145-14.62598-206.83594-67.51172-352.06348-114.17285-31.88477-10.24414-62.62695-20.12109-90.6084-29.12305-149.84277-48.20508-362.95947-118.58984-421.41162-138.38281-6.60645-2.2373-12.92725-4.47266-19.03955-6.63574-44.86475-15.87012-74.50293-26.35547-105.80371,.83691-37.62793,32.69043-69.44141,34.44434-89.5083,30.1543-25.5498-5.45898-46.69385-23.70703-59.53711-51.38184-13.42578-28.93115-9.51807-64.11377,9.95654-89.63281,21.08936-27.63525,56.85352-39.48389,98.12256-32.51172,34.48877,5.82861,319.14307,49.81445,355.74268,55.11914,46.22168,6.69873,62.05859-19.81201,67.20898-43.23242,3.20117-14.55762,1.10059-28.07129-6.07324-39.0791-8.52832-13.08545-24.14746-22.24414-45.16895-26.48682-25.43896-5.1333-77.03467-16.40576-124.15137-26.75586-.00049,0-.00098,0-.00195-.00049-32.83984-7.21973-48.43506-30.71045-42.78711-64.44824,2.47168-14.76416,9.19922-25.92188,19.99609-33.16406,17.17871-11.52295,39.47949-9.69775,55.16113-6.13672,16.52002,3.73633,35.3833,8.03906,55.49902,12.62744,57.88672,13.2041,123.49609,28.17041,175.82324,39.37842,89.07031,19.0791,93.18262,20.89746,109.99414,48.65283l1.54395,2.54395c13.34668,21.90723,17.5,35.21973,23.24902,53.64502,1.57422,5.04443,3.20117,10.26074,5.20117,16.2583,1.55273,4.66113,2.90332,9.33643,4.20898,13.85791,7.41016,25.6582,12.77246,40.38232,36.79297,44.63818,37.81445,6.69971,161.25586,25.89551,195.50586,31.03809,51.14648,7.68066,105.58691,16.26025,121.56543,21.65674,19.51465,6.5918,40.79395,17.77832,50.6543,50.77246,3.44141,11.51562,9.43164,30.82812,15.77246,51.27441,9.78711,31.55762,19.9082,64.18848,22.66113,74.58203,1.54199,5.82422,4.58594,15.33594,7.80762,25.40527,6.10156,19.07031,13.01758,40.68555,14.56836,51.9248,2.47559,17.94727-3.10156,50.21094-23.25391,65.74609-13.34277,10.28516-27.66113,15.44238-42.77441,15.44238Zm-971.6875-328.72559c1.92627,0,3.87354,.06055,5.85254,.18262,20.07715,1.23926,40.67676,8.52637,64.5293,16.96387,6.0498,2.14062,12.30615,4.35352,18.78418,6.54688,58.40088,19.77539,271.36426,90.10938,421.12207,138.28711,27.97949,9.00098,58.71875,18.87793,90.60059,29.12109,145.3291,46.69238,310.04688,99.61523,352.49121,114.31543,17.88477,6.19336,33.87305,3.58789,48.87109-7.97363,12.89746-9.94238,17.44141-34.2041,15.65234-47.17383-1.31445-9.52539-8.23926-31.16992-13.80469-48.5625-3.44434-10.76562-6.41992-20.06348-8.09277-26.37891-2.64551-9.98926-13.15625-43.87891-22.42969-73.77832-6.35645-20.49707-12.36133-39.85742-15.83203-51.47266-7.5918-25.40332-23.54004-32.70215-37.89258-37.5498-16.45508-5.55859-90.32617-16.65137-118.13574-20.82812-34.31641-5.15234-158.05273-24.39502-196.02344-31.12256-37.45996-6.63672-45.45996-34.34033-52.51953-58.78271-1.25-4.3291-2.54297-8.80615-3.96777-13.08154-2.06055-6.18164-3.79199-11.73096-5.32031-16.62646-5.52148-17.69775-9.16895-29.38965-21.23633-49.19629l-1.57031-2.58789c-12.74707-21.04492-12.99121-21.44727-97.07715-39.45801-52.45605-11.23633-118.13477-26.21777-176.08154-39.43555-20.10254-4.58594-38.95361-8.88574-55.47119-12.62109-9.70654-2.2041-27.74561-4.71143-39.60059,3.24023-6.13037,4.1123-9.86279,10.60742-11.41113,19.85645-3.86816,23.104,5.08008,36.71582,27.35645,41.61328,47.03223,10.33105,98.52344,21.58105,123.81445,26.68506,26.39941,5.32764,46.44434,17.48926,57.96777,35.1709,10.02539,15.38135,13.16895,34.66309,8.85156,54.29443-4.13281,18.79297-13.02246,34.20215-25.70898,44.56104-16.1709,13.2041-37.6709,17.97021-63.90137,14.16943-36.6416-5.31055-321.66406-49.354-356.20703-55.19141-34.19678-5.7793-62.21484,3.07275-78.89111,24.92432-15.02393,19.6875-18.05225,46.80273-7.71387,69.07959,10.13379,21.83691,26.31934,36.12891,45.57471,40.24316,22.39062,4.78223,47.35889-4.10156,72.2124-25.69336,16.97754-14.74902,34.65576-21.74023,55.2085-21.74023Z"/></svg>