<?xml version="1.0" encoding="UTF-8"?><svg id="C_-_active" xmlns="http://www.w3.org/2000/svg" viewBox="0 0 1920 1080"><defs><style>.cls-1{fill:#fff;}</style></defs><path class="cls-1" d="M281.79883,665.16699c-20.84229,0-40.53418-7.66602-55.55273-21.65137-16.31445-15.19141-25.46094-36.78125-25.75439-60.79102-.38086-31.13965,1.75635-68.57812,3.6416-101.60938,.91699-16.05908,1.78271-31.22705,2.29004-44.35254,.39258-10.14062,.66016-19.32227,.89648-27.42334,.729-25.00928,1.21094-41.53174,4.38281-52.91211,5.33203-19.13184,22.80322-31.76611,37.42871-40.63574,11.83252-7.17578,13.54492-14.92383,12.96582-36.12061-.57617-21.07666-1.29297-47.30713,31.77588-83.69482,15.12305-16.64111,33.68799-27.94775,55.17871-33.60596,22.06006-5.80811,41.79639-4.18896,54.46631-1.80664,18.99512,3.57031,58.76953,12.64062,97.23486,21.41211,22.01221,5.02002,42.8042,9.76123,58.00781,13.08057,8.79492,1.92041,23.43799,5.22754,46.08301,10.4082,49.67773,11.39697,53.97412,41.20459,48.83105,64.20361-7.45703,33.34717-40.17627,50.62842-79.56396,42.02441l-.04541-.01025c-18.34717-4.09766-32.71875-7.25049-43.22021-9.31787-2.64746-.521-5.19141-1.04834-7.65723-1.55957-22.62842-4.69336-36.28857-7.52686-65.28467,9.33643-24.1416,14.04053-46.36133,28.35449-62.58496,38.80566-7.72803,4.97852-14.40234,9.27783-19.64111,12.49805-13.25244,8.146-15.3125,11.70703-20.03809,34.6416-4.9292,23.92139-15.26611,78.58984-17.44824,97.79395-1.90381,16.75293-2.35645,20.7334,12.09717,40.14795,17.26953,23.19629,20.3833,51.67383,8.76758,80.18555-13.20605,32.41504-40.27441,50.50781-76.21924,50.94629-.34619,.00488-.69238,.00684-1.0376,.00684Zm98.1416-486.77051c-20.19385,0-48.1665,5.61182-71.2666,31.03076-27.65723,30.43311-27.11182,50.39355-26.58447,69.69727,.47998,17.56104,1.07715,39.4165-22.58691,53.76758-17.04346,10.33594-25.84375,19.25049-28.53418,28.9043-2.51709,9.03174-2.9707,24.58447-3.65723,48.12598-.2373,8.14551-.50635,17.37744-.90234,27.61328-.51465,13.30859-1.38574,28.56592-2.30762,44.71924-1.86719,32.70752-3.9834,69.77832-3.61133,100.22559,.5,40.8623,31.85449,62.68555,61.37354,62.68555,.24365,0,.48584-.00098,.729-.00391,35.10205-.42871,50.88379-21.16992,57.94189-38.49414,8.87158-21.77637,6.63867-43.33301-6.28809-60.69629-16.91943-22.72656-18.52344-31.50635-15.92725-54.34961,2.28076-20.07129,12.59717-74.65479,17.73145-99.57178,5.43359-26.36816,9.91895-35.8208,29.15381-47.64404,5.05859-3.10938,11.65039-7.35596,19.2832-12.27246,16.38525-10.55566,38.82568-25.01172,63.36133-39.28125,35.61377-20.71289,54.93799-16.70459,79.40137-11.63135,2.40137,.49805,4.87891,1.01221,7.45752,1.52002,10.70459,2.10693,25.21094,5.28857,43.69727,9.41748,28.81299,6.28564,50.69824-4.25391,55.75195-26.85498,3.42871-15.33154,2.09619-32.11377-33.7793-40.34473-22.57275-5.16357-37.1543-8.45703-45.8833-10.36279-15.29346-3.33936-36.12939-8.09082-58.18799-13.12109-38.28076-8.72949-77.86523-17.75635-96.48291-21.25586-4.78564-.8999-11.69629-1.82275-19.88281-1.82275Z"/></svg>