<svg id="Barber_Full_Config" data-name="Barber Full_Config" xmlns="http://www.w3.org/2000/svg" viewBox="0 0 1920 1080"><defs><style>.cls-1{fill:#fff;}</style></defs><title>active</title><path class="cls-1" d="M1662.49,928.8a164.24,164.24,0,0,1-32.37-3c-25.64-5.21-44.41-16.57-55.8-33.75-7.81-11.79-12-25.89-12.64-43.09-1.06-26.1.45-80.93,1.51-109.22,1.34-35.61-9.14-68.84-28-88.89-12-12.8-26.5-19.47-43-19.85-180.52-4.14-496.26-4.68-726.8-5.07-48.95-.08-94.22-.16-133.77-.26h-.41c-52.16,0-71.38,25.93-84.38,54-3.24,7-7.12,15.58-11.22,24.66C515.66,748.49,488.32,809,465.85,841c-30.85,43.9-64,52.82-92.26,55.75a128.59,128.59,0,0,1-13.51.71c-35.95,0-62.52-15.31-79.1-29-21.46-17.75-37.48-42.69-41.8-65.08-14.62-75.83,29.53-116.38,48.39-133.7,25.15-23.11,84.19-72.14,115.86-93.39,67.29-45.15,104.32-44.77,140.13-44.41l5.94,0c82.77.49,205.55-1.46,324.3-3.34,94.83-1.5,192.89-3.06,267.32-3.29,20.91-.07,35.51-4.78,43.38-14s7.37-21.1,6.4-27.39c-7.36-47.31-34.12-61.7-53.6-68.42-32.57-11.21-88.65-21.63-125.76-28.52-6.58-1.23-12.57-2.34-17.75-3.33-61.24-11.71-107.4-5.19-144.48,2.73C793.6,398.24,708,413.65,625.22,428.55c-77.93,14-158.51,28.54-211.5,39.68l-4.71,1C372.08,477,303.33,491.46,266.42,495.5c-37.91,4.14-57.05-4.85-69.49-13.14-20.56-13.71-33.37-31.92-43.76-47.91-11.17-17.19-25.7-18.26-39.76-19.3-7.12-.53-13.86-1-19.72-3.74-16.56-7.66-27.48-20.36-31.56-36.72-6.54-26.19,5.79-55.12,15.68-68.17,36.29-47.93,86.34-52.11,120.82-51.07,68.63,2.05,180,2.4,278.19,2.72,61.67.19,119.93.38,163.09.94,24.67.32,38.2-4.73,48.17-9.72s24-15.28,32.39-21.43L723.1,226c58.65-42.81,111.16-29.26,131-21.45C1014.35,267.65,1300,372.92,1496,443.89c18.82,6.82,29.14,5.54,40.6,1,22.9-9,81.67-29.58,107.09-31.88,33.54-3,61.57,2.38,83.32,16.12,19.23,12.14,30.35,28.54,37.89,41.47,29.05,49.8,107.74,190.18,108.53,191.59,24.59,43.74,23.5,92.64-3.18,141.39-20.89,38.18-53.54,68.81-75.16,83.45C1749.2,918.1,1700.18,928.8,1662.49,928.8ZM631.23,605.67h.46c39.54.1,84.81.18,133.76.26,230.63.39,546.48.93,727.22,5.07,21.71.5,41.44,9.54,57.07,26.14,22.47,23.87,35,62.51,33.44,103.35-1,28-2.55,82.18-1.52,107.66.83,20.51,7.17,48.85,52.44,58.05,34.41,7,94.28,1.85,149.74-35.7,34.52-23.37,121.86-110,72.11-198.49-.8-1.42-79.41-141.65-108.37-191.31-15.61-26.77-39.95-53.37-102.12-47.74-21.73,2-77.78,21.19-101.57,30.57-15.09,5.94-30.17,8.07-54.74-.83-196.06-71-481.94-176.36-642.37-239.51-16.77-6.6-61.25-18-111.88,19l-2.6,1.9c-9.47,6.94-23.78,17.44-35.27,23.19s-28.27,12.21-57.38,11.83c-43.07-.56-101.27-.75-162.9-.94-98.35-.32-209.82-.67-278.71-2.73-32.6-1-73.92,3.05-104.29,43.15-7.81,10.32-16.77,33-12.22,51.25,2.64,10.58,9.37,18.24,20.56,23.42,2.56,1.18,7.53,1.55,12.8,1.94,15.32,1.13,38.48,2.85,55.05,28.35,7.19,11.07,19.23,29.6,38.09,42.17,10.22,6.81,24.9,13.32,56.22,9.89l1.08,9.95-1.08-9.95c35.92-3.92,104.05-18.26,140.64-26l4.72-1c53.27-11.2,134-25.74,212.07-39.79C704.3,394,789.73,378.62,845.13,366.78c39-8.35,87.67-15.21,152.41-2.82,5.16,1,11.11,2.09,17.65,3.3,37.69,7,94.65,17.58,128.62,29.29,38.21,13.16,60.08,40.72,66.85,84.25,1.5,9.67,2.08,28.18-11,43.44-11.83,13.86-31.52,20.93-58.53,21-74.3.23-172.3,1.79-267.07,3.29-118.85,1.88-241.75,3.83-324.72,3.34l-6,0c-34.27-.35-66.64-.68-128.79,41-29.82,20-88.48,68.55-113.47,91.5-28.46,26.14-53.27,58.19-42.28,115.19C262.25,817.32,276,838.3,293.73,853c15.64,12.93,41.83,27.56,77.79,23.83,28.93-3,53.26-12.2,78-47.36,21.39-30.43,49.39-92.39,67.92-133.4,4.13-9.12,8-17.74,11.3-24.83C542.86,640.7,567.31,605.67,631.23,605.67Z"/></svg>