<?xml version="1.0" encoding="UTF-8"?><svg id="gp_-_Config" xmlns="http://www.w3.org/2000/svg" viewBox="0 0 1920 1080"><defs><style>.cls-1{fill:#fff;}</style></defs><path class="cls-1" d="M662.19,287.53c126.69-10.73,255.31-17.04,382.36-22.81,55.51-2.08,115.42-4.78,170.83-5.07,14.45-.07,30.26-.04,44.7,.67,111.4,5.37,206.68,44.85,271.66,138.9,17.14,24.04,33.8,49.08,44.69,76.73,14.78,37.17,17.07,78.98,7.47,117.76-6.92,28-19.77,54.27-35.23,78.47-22.98,35.5-52.14,67.52-87.94,90.43-25.49,16.32-53.84,27.91-83.12,35.31-65.94,16.33-134.27,15.1-201.53,16.9-141.71,2.13-283.35,3.5-425.12,.64,0,0-21.68-.69-21.68-.69,0,0-2.72-.09-2.72-.09,0,0-2.81-.14-2.81-.14,0,0-5.61-.28-5.61-.28-65.98-3.48-129.6-18.72-189.87-46.74-87.38-41.23-151.3-112.74-147.97-214.25,2.4-77.08,45.65-151.12,105.28-198.28,50.02-39.83,113.88-61.42,176.6-67.44h0Zm7.06,79.97s-9.4,1.26-9.4,1.26-4.7,.62-4.7,.62c-1.56,.22-3.13,.41-4.66,.75,0,0-9.21,1.8-9.21,1.8,0,0-4.59,.93-4.59,.93-1.52,.33-3,.77-4.51,1.15,0,0-8.97,2.39-8.97,2.39,0,0-2.24,.6-2.24,.6,0,0-2.18,.73-2.18,.73,0,0-4.35,1.48-4.35,1.48l-4.34,1.48s-2.17,.74-2.17,.74c0,0-1.08,.37-1.08,.37l-1.05,.43-8.39,3.43c-1.39,.57-2.8,1.12-4.16,1.75l-4.02,1.99s-8.02,3.93-8.02,3.93c0,0-7.68,4.37-7.68,4.37-14.97,8.51-28.56,19.37-40.9,30.95-28.92,28.39-49.63,65.73-55.9,105.93-4.55,31.05-1.64,61.76,13.27,88.63,30.05,49.33,91.26,77.77,146.53,94.24,24.64,7.16,50.69,11.95,76.09,14.09,27.11,1.67,55.39,2.44,82.54,2.99,83.46,1.51,169.41,.97,252.99-.23,55.12-.83,113.3-1.93,168.46-3.56,51.07-1.77,107.97-3.09,155.6-18.73,34.94-11.35,62.92-31.68,85.14-60.93,14.58-18.89,26.49-40.22,32.67-63.37,3.7-13.83,5.09-28.37,4.13-42.65-1.48-30.11-15.62-55.88-32.32-80.21-13.42-20.05-27.35-40.13-45.2-56.51-46.29-44.04-108.4-60.9-171.19-63.43-9.4-.28-20.84-.73-30.27-.71-125.59-.58-252.99,4.62-378.59,11.41-55.58,3.22-111.92,6.74-167.35,11.91h0Z"/></svg>