<?xml version="1.0" encoding="UTF-8"?><svg id="gp_-_Config" xmlns="http://www.w3.org/2000/svg" viewBox="0 0 1920 1080"><defs><style>.cls-1{fill:#fff;}</style></defs><path class="cls-1" d="M1169.24,987.83c-4.27,0-8.53-1-12.43-2.99-16.63-8.47-29.26-15.65-37.52-21.35-12.37-8.54-36.62-31.51-54.78-49.28-5.08-4.97-7.7-11.89-7.18-18.97,.51-7.09,4.11-13.56,9.86-17.75l3.28-2.39c1.45-1.05,1.83-2.48,1.93-3.24,.1-.76,.1-2.24-1.01-3.62-26.5-32.99-114.77-142.84-138.21-171.55-10.42-12.76-35.98-45.05-65.58-82.44-49.27-62.24-110.6-139.71-121.5-151.5l-1.9-2.06c-16.49-17.9-32.07-34.8-67.83-35.51-56.13-1.12-115.6-1.62-125.94-1.62-19.16,0-28.35,3.9-32.67,7.18-11.82,8.94-43.09,29.06-84.89,29.06-1.81,0-3.63-.04-5.47-.12-24.32-1.02-45.21-6.36-63.87-16.31-21.05-11.23-38.9-28.52-53.03-51.38-29.87-48.32-24.67-104.53-6.26-138.81,18.31-34.09,42.97-50.47,103.27-79.52,7.23-3.48,14.01-6.78,20.43-9.91,47.47-23.12,76.13-37.07,124.44-46.12,47.65-8.93,107.63-13.12,160.56-16.82,7.06-.49,13.98-.98,20.7-1.46,19.27-1.39,41.45-3.21,64.94-5.15,44.32-3.65,90.15-7.42,116.32-8.14,38.86-1.07,70.14,1.56,123.97,10.41,34.42,5.66,73.11,16.74,107.25,26.51,18.44,5.28,35.86,10.26,51.46,14.12,35.47,8.76,211.13,54.2,285.01,73.33,9.85,2.55,17.03,10.72,18.31,20.81,1.28,10.1-3.66,19.8-12.56,24.72-5.25,2.9-10.92,4.87-16.85,5.84l-108.8,17.86c-7.44,1.22-15.01,1.4-22.51,.54l-135.86-15.65c-3.81-.44-7.65-1.01-11.42-1.7l-18.99-3.47c-10.64-1.95-21.51-2.77-32.32-2.45l-318.37,9.49c-14.27,.43-27.73-5.58-36.91-16.49-8.73-10.37-22.07-24-36.04-30.07-23.55-10.23-41.5-16-110.75-6.31-71.7,10.04-124.26,30.35-139.13,45.21-11.63,11.63-29.12,34.92-15.58,60.21,3.87,7.22,9.74,11.75,17.46,13.44,11.53,2.53,26.58-1.58,38.34-10.47,23.53-17.79,61.08-40.75,115.27-34.71,28.19,3.14,51.45,11.09,73.94,18.77,19.56,6.69,39.8,13.6,64,17.71,45.31,7.7,109.39,4.94,160.88,2.72,7.95-.34,15.66-.68,23.01-.96,58.8-2.27,237.61-5.66,239.35-5.69,15.8-.29,34.15,1.83,50.59,19.75,1.89,2.06,3.77,4.17,5.76,6.41,11.83,13.3,25.23,28.38,42.51,33.53,19.98,5.96,72.24,4.75,111.85-2.58,30.65-5.67,94.44-26.31,121.68-35.12,6.1-1.97,10.5-3.4,12.83-4.11,.88-.27,1.75-.54,2.58-.81,7.63-2.4,15.52-4.89,23.48-.73,7.9,4.13,11.47,13.09,13.46,19.48,7.74,24.77-.48,56.18-23.15,88.45-24.22,34.48-72.21,75.43-119.28,114.42-6.03,5-12.49,10.28-19.32,15.87-47.61,38.96-112.81,92.31-149.22,143.3-34.57,48.39-45.45,89.14-53.39,118.89-1.55,5.81-3.02,11.31-4.53,16.38-6.67,22.38-26.45,82.37-37.64,116.13-2.52,7.59-8.2,13.69-15.6,16.73-3.35,1.38-6.88,2.06-10.41,2.06ZM676.75,405.17c44.28,.88,64.39,22.7,82.14,41.95l1.88,2.04c11.43,12.36,70.44,86.9,122.5,152.67,29.55,37.32,55.07,69.56,65.39,82.2,23.49,28.77,111.81,138.68,138.32,171.68,4.22,5.26,6.13,12.1,5.25,18.79-.89,6.69-4.53,12.8-9.98,16.77l-3.28,2.39c-1.34,.98-1.63,2.32-1.68,3.03-.05,.71,.04,2.07,1.22,3.23,24.53,23.99,43.54,41.16,52.16,47.11,7.43,5.13,19.61,12.04,35.24,19.99,2.64,1.34,5,.73,6.17,.25,1.17-.48,3.28-1.71,4.21-4.52,11.16-33.66,30.86-93.42,37.46-115.55,1.43-4.8,2.86-10.16,4.38-15.83,8.34-31.23,19.76-74.01,56.44-125.35,37.96-53.15,104.36-107.48,152.83-147.15,6.81-5.57,13.24-10.83,19.23-15.79,46.03-38.12,92.87-78.06,115.67-110.51,19.02-27.07,26.27-52.28,20.43-70.98-1.76-5.63-3.22-7.31-3.59-7.67-1.4-.12-5.51,1.16-8.25,2.02-.89,.28-1.81,.57-2.75,.86-2.16,.66-6.73,2.14-12.51,4.01-29.95,9.69-92.27,29.85-124.2,35.76-38.19,7.07-96.01,9.59-121.2,2.08-22.73-6.78-38.82-24.87-51.74-39.41-1.9-2.14-3.75-4.22-5.55-6.18-10.46-11.4-21.33-13.54-35.49-13.27-1.73,.03-180.32,3.42-238.94,5.68-7.33,.28-15,.61-22.92,.96-52.44,2.26-117.7,5.08-165.1-2.98-25.79-4.39-46.8-11.56-67.11-18.51-22.46-7.67-43.67-14.92-69.68-17.82-46.56-5.18-78.43,13.73-101,30.79-16.47,12.45-37.42,17.84-54.68,14.05-13.5-2.96-24.15-11.1-30.81-23.54-14.34-26.79-7.39-57.33,19.07-83.79,20.73-20.73,81.21-41.17,150.5-50.88,67.46-9.45,91.06-5.45,121.49,7.77,17.53,7.61,33.26,23.52,43.37,35.53,5.22,6.2,12.88,9.61,21.01,9.38l318.37-9.49c12.21-.36,24.5,.57,36.52,2.77l18.99,3.47c3.33,.61,6.73,1.12,10.11,1.5l135.86,15.65c5.65,.65,11.36,.51,16.98-.41l108.8-17.86c3.66-.6,7.17-1.82,10.42-3.61,2.52-1.39,2.51-3.75,2.39-4.71-.12-.95-.7-3.23-3.48-3.96-73.84-19.12-249.42-64.54-284.79-73.28-15.96-3.94-33.55-8.98-52.17-14.31-35.26-10.09-71.72-20.53-105-26-52.42-8.62-82.75-11.18-120.18-10.16-25.62,.7-71.18,4.45-115.23,8.08-23.54,1.94-45.77,3.77-65.14,5.16-6.74,.48-13.67,.97-20.74,1.46-52.38,3.66-111.75,7.81-158.27,16.53-45.66,8.55-73.41,22.06-119.37,44.45-6.45,3.14-13.25,6.45-20.51,9.95-60.95,29.37-79.47,43.3-94.33,70.97-15.69,29.22-20.03,77.29,5.65,118.83,23.06,37.3,56.01,56.34,100.73,58.22,38.07,1.61,66.85-16.89,77.46-24.92,9.99-7.56,24.62-11.23,44.74-11.23,10.38,0,70.07,.51,126.33,1.63Z"/></svg>