<svg id="Full_Course_-_Config" data-name="Full Course - Config" xmlns="http://www.w3.org/2000/svg" viewBox="0 0 1920 1080"><defs><style>.cls-1{fill:#fff;}</style></defs><title>active</title><path class="cls-1" d="M1863.41,406.09c-.61-13.5-16.35-37.22-27.12-48.59-11-11.61-23.32-16.79-40-16.79-14.4,0-71.95,9.7-91,13.09a347,347,0,0,0-46.54,11.8l-.17.06c-.75.28-75.83,28-96.54,35.51-2.77,1-5.43,2.08-8.57,3.38-29,12.07-51.47,1.65-52.38,1.22l-.15-.07c-5-2.29-121.35-56.09-142.07-64.69-34.59-15-68.68-9.62-71.92-9.06-2.33.31-29.3,3.88-40.76,5.28l-.35,0c-28.67,4.91-52.61-4.54-61.62-8.1l-1.61-.63c-29.88-12.11-60.46-7.42-61.7-7.22-1.86.29-45.58,7-58.18,10.16l-.15,0c-24.2,6.53-58.49,0-58.83-.12l-.23,0c-1.75-.29-175.81-28.91-186.51-30.93l-.29-.05C747,290,711.41,290.12,670.22,290.26c-14.09.05-28.66.1-45.47-.28h-.17c-8.64,0-23.09,0-32.71-6.41l-.32-.2c-31.16-18.57-55.74-16.69-66.44-15.8-27.5.43-39-8.13-45.93-13.25-1.1-.82-2.15-1.59-3.17-2.27-27.15-18.7-35.51-20.58-52.09-17.7l-.51.09-.5.16c-44,14.11-62.49,30-71.39,37.66-1,.88-1.9,1.64-2.7,2.28l-.2.18c-8.59,7.46-14.87,15.42-18.66,23.64a40.09,40.09,0,0,0-1.77,28.69c1.71,5.51,4.86,16.16,6.79,25.61l.11.47c3.34,12.28-2.44,21.46-17.19,27.27-41.34,14.31-97.75,25.08-116.3,28.62l-2.77.53c-36.23,6.14-43.29-4.73-49-13.46-.66-1-1.3-2-1.94-2.91-5.43-7.79-21.77-40.13-26.45-75.51-4.34-30.88,6.66-51.72,11.94-61.73.43-.8.81-1.54,1.16-2.21,5.24-10.16,25.08-57.58,29.92-71.49l.5-1.44c3.85-11,15.55-44.59,7.89-78.88a80.27,80.27,0,0,0-14.14-30.31C142.52,50,125.75,40.32,107.47,42l-.3,0C72.92,46.55,67.31,88.32,67.09,90.06c0,.36-4.72,36.28-5.87,43.77-.92,6-20.28,146.42-22.19,182.8-2,18.2-1.28,94.3-1.23,99.34C35.94,475.69,53,538.11,57.69,551.57c6.8,19.54,84.52,206.82,100.67,245.49,3,7.11,6.21,14.22,9.64,21.13h0l8.73,17.63a233,233,0,0,0,14,24.31c16.06,24.43,54.32,82.44,62.71,93.47l.35.43c18,20.41,52.86,32.35,103.57,35.5a80.59,80.59,0,0,0,8.95.51,69.12,69.12,0,0,0,14.14-1.42,51,51,0,0,0,30.19-19.44c5.65-7.54,16.12-21.59,22.81-31a56.93,56.93,0,0,1,15.38-15.09,66.65,66.65,0,0,1,12.84-6.54,630.29,630.29,0,0,1,98.08-28.65c13.16-2.5,27.43-4.89,44.54-4.17,27.77,1.24,42.27,22.35,50.93,34.95,1,1.52,2,2.91,2.88,4.12l.48.61c24.07,27,53.54,19.81,66.46,9,3.91-3.29,9.11-9.16,15.14-16,7.5-8.47,16.85-19,22.33-22.51l.38-.25c18.53-13.43,43.95-22.15,59.13-27.35l4.12-1.42c18.46-6.42,466.59-166.51,522.41-190.68C1508.21,611,1657.81,527.75,1662.75,525c63.34-32.73,160.85-82.5,170.18-85.61l.8-.32c1-.49,2.35-1,3.72-1.61C1847.21,433.35,1865.33,425.74,1863.41,406.09Zm-31.77,17.53c-1.38.58-2.7,1.13-3.92,1.69-15.94,5.85-155.9,78.11-172,86.41l-.23.12c-1.5.84-151.94,84.84-312.66,148.44l-.23.09c-55.05,23.88-503,183.91-521.48,190.32-1.24.44-2.6.9-4,1.4-15.94,5.46-42.57,14.59-62.9,29.27-7.24,4.68-16.42,15-25.31,25.09-5.4,6.09-10.49,11.84-13.56,14.42-6.17,5.18-26.28,13.94-45.36-7.17-.75-1.06-1.56-2.24-2.44-3.52-9.58-13.93-27.4-39.87-62.65-41.44-18.73-.79-34,1.75-48,4.41a633.74,633.74,0,0,0-100.69,29.39,82.38,82.38,0,0,0-15.73,8,72.34,72.34,0,0,0-19.33,18.92c-6.59,9.28-17,23.21-22.58,30.69a36,36,0,0,1-21.29,13.76,58.44,58.44,0,0,1-18.5.67l-.37,0c-57.84-3.56-82.64-18.38-93.27-30.27-8.45-11.21-46.07-68.27-61.94-92.41a214,214,0,0,1-13-22.73l-8.74-17.63h0c-3.28-6.62-6.39-13.43-9.24-20.25-22-52.7-94-226.47-100.34-244.64C67.64,534.51,51,473.18,52.8,416.28V416c0-.81-.82-80.83,1.16-97.86l0-.49c1.71-33.57,20.49-171.39,22-181.5C77.22,128.45,81.77,93.48,82,92c0-.32,4.25-31.91,27-35.06,4.81-.44,18.88-1.41,37.76,23.72a65.12,65.12,0,0,1,11.49,24.58c6.73,30.11-3.92,60.63-7.41,70.66l-.52,1.48c-4.58,13.17-24.14,59.95-29.07,69.52l-1.09,2.07c-6,11.41-18.55,35.14-13.54,70.77,4.93,37.34,22,72,29,82.05.55.79,1.1,1.64,1.67,2.51,6.77,10.43,18.11,27.89,64.14,20.06l3-.57c18.83-3.59,76.15-14.53,118.54-29.23l.28-.1c21.76-8.52,31.62-25.32,26.39-45-2.06-10-5.34-21.09-7.12-26.83a25.11,25.11,0,0,1,1.08-18c2.88-6.25,7.85-12.47,14.77-18.51.87-.7,1.83-1.53,2.93-2.48,8.13-7,25-21.46,65.72-34.6,10.27-1.78,14.95-2.24,40.54,15.39l.09.07c.73.48,1.6,1.13,2.61,1.87,7.9,5.86,22.58,16.76,55.36,16.2l.49,0c9.88-.82,30.42-2.53,57.62,13.63C597.06,305,614.86,305,624.5,305c17,.38,31.61.33,45.77.28,40.56-.13,75.59-.25,144.18,9.94,12.13,2.26,178,29.55,186.61,31,2.78.53,38.35,7.15,65.44-.13,12.06-3,56.32-9.8,56.8-9.88.28,0,27.89-4.2,53.81,6.33l.13,0,1.55.61c8,3.17,26.7,10.54,50.57,10.53a113.33,113.33,0,0,0,18.9-1.57c12.1-1.48,40.61-5.26,40.9-5.3l.35-.06c.32-.05,32.23-5.55,63.51,8.05l.12,0c20.09,8.33,138.2,62.91,141.52,64.45,2.08,1,29.78,13.63,64.65-.89,3-1.22,5.42-2.22,7.9-3.12,20.43-7.37,93.45-34.37,96.56-35.52A338.41,338.41,0,0,1,1708,368.57c29-5.19,77.21-12.86,88.34-12.86,12.33,0,21,3.62,29.07,12.11,11,11.59,22.81,31.64,23,39l0,.59C1849.26,414.85,1843.67,418.57,1831.64,423.62Z"/></svg>