<svg id="North_-_Config" data-name="North - Config" xmlns="http://www.w3.org/2000/svg" viewBox="0 0 1920 1080"><defs><style>.cls-1{fill:#fff;}</style></defs><title>active</title><path class="cls-1" d="M973.47,346c-16-23.55-48.69-27.81-52.23-28.21-63.55-10.49-99.56-16.5-104.15-17.36l-.29-.05C747,290,711.42,290.13,670.22,290.26c-14.09.05-28.66.1-45.47-.28h-.17c-8.64,0-23.09,0-32.71-6.41l-.32-.2c-31.16-18.57-55.75-16.69-66.44-15.8-27.48.44-39-8.13-45.93-13.25-1.11-.82-2.15-1.59-3.17-2.27-27.15-18.7-35.51-20.58-52.09-17.7l-.51.09-.5.16c-44,14.11-62.49,30-71.39,37.66-1,.88-1.9,1.64-2.7,2.28l-.2.18c-8.59,7.46-14.87,15.42-18.66,23.64a40.09,40.09,0,0,0-1.77,28.69c1.71,5.51,4.86,16.16,6.79,25.61l.11.47c3.34,12.28-2.44,21.46-17.18,27.27C276.56,394.71,220.15,405.48,201.6,409l-2.76.53c-36.25,6.14-43.3-4.72-49-13.46-.66-1-1.3-2-1.94-2.91-5.43-7.79-21.77-40.13-26.45-75.51-4.34-30.88,6.66-51.72,11.94-61.73l1.16-2.21c5.24-10.16,25.08-57.58,29.92-71.49l.5-1.44c3.85-11,15.55-44.59,7.89-78.88a80.27,80.27,0,0,0-14.14-30.31c-16.23-21.6-33-31.3-51.28-29.63l-.3,0C72.92,46.55,67.31,88.32,67.09,90.06c0,.36-4.72,36.28-5.87,43.77-.92,6-20.28,146.42-22.19,182.8-2,18.19-1.28,94.24-1.23,99.33C35.93,475.69,53,538.11,57.69,551.57c6.8,19.54,84.52,206.82,100.67,245.49,3,7.11,6.21,14.22,9.64,21.13l8.74,17.64a232.52,232.52,0,0,0,13.93,24.29c16.07,24.43,54.33,82.46,62.72,93.48l.35.43c18,20.41,52.86,32.35,103.58,35.5a80.41,80.41,0,0,0,8.94.51,68.67,68.67,0,0,0,14.18-1.43,50.92,50.92,0,0,0,30.13-19.4c5.66-7.56,16.16-21.65,22.83-31a56.93,56.93,0,0,1,15.38-15.09,66.65,66.65,0,0,1,12.84-6.54,630.29,630.29,0,0,1,98.08-28.65c13.16-2.5,27.43-4.88,44.54-4.17,27.77,1.24,42.27,22.35,50.93,34.95,1,1.52,2,2.91,2.88,4.12l.48.61c24.07,27,53.54,19.81,66.46,9,3.91-3.29,9.11-9.16,15.14-16,7.48-8.44,16.79-18.95,22.28-22.47,20.88-12.76,44-46.44,45-47.87l.08-.13c.11-.17,11.26-17.06,24-22.37,15.95-6.65,24.89-21.8,26.6-24.95,10.12-14.32,17.2-32.93,21.38-46.07a98.91,98.91,0,0,0,3-48.83A45.87,45.87,0,0,0,879,692.28c-10-26.32-11.09-39.48-10.81-48.87,1.25-26,9-36,17.1-46.57l2.22-2.89c1.59-2.1,3.84-4.93,6.44-8.2,12.9-16.19,32.37-40.62,36.74-57.32,2.25-7,2.9-13.67,3.73-22.07.67-6.83,1.51-15.32,3.49-26.54a86.6,86.6,0,0,1,13.23-33.61,177.65,177.65,0,0,0,10.21-17.56c2.23-4.35,5.17-9.4,8-14.28,4.13-7.1,7.69-13.23,9.39-17.58l.22-.68C984.52,376.4,982.68,359.55,973.47,346Zm-8.87,45.65c-1.37,3.33-4.86,9.34-8.25,15.16-2.94,5.06-6,10.28-8.39,15a162.09,162.09,0,0,1-9.34,16.09,101,101,0,0,0-15.52,39.32c-2.08,11.77-3,20.59-3.65,27.67-.78,7.88-1.34,13.58-3.14,19.13l-.14.48c-3.45,13.57-23.32,38.51-34,51.91-2.67,3.34-5,6.24-6.68,8.49-.7.93-1.42,1.86-2.14,2.79-8.78,11.41-18.73,24.35-20.2,55.07v.13c-.33,10.92.82,26,11.93,55.12l.17.45.22.41c.35.65,1.25,2.69,2.24,7.71A84,84,0,0,1,865.16,748c-3.89,12.24-10.44,29.52-19.57,42.3l-.32.46-.25.48c-.07.13-7,13.36-19.31,18.47C809.05,816.65,796.08,836,795,837.65c-1,1.43-22.62,32.66-40.42,43.5l-.13.08c-7.26,4.62-16.54,15.09-25.51,25.22-5.4,6.09-10.49,11.84-13.56,14.42-6.17,5.18-26.28,14-45.36-7.17-.75-1.06-1.56-2.24-2.44-3.52-9.58-13.93-27.4-39.87-62.65-41.44-18.73-.79-34,1.75-48,4.41a633.74,633.74,0,0,0-100.69,29.39,82.38,82.38,0,0,0-15.73,8,72.34,72.34,0,0,0-19.33,18.92c-6.58,9.25-17,23.22-22.61,30.73a35.92,35.92,0,0,1-21.22,13.71,58.38,58.38,0,0,1-18.54.68l-.37,0c-57.84-3.56-82.64-18.38-93.27-30.27-8.45-11.21-46.08-68.28-62-92.42a217.19,217.19,0,0,1-13-22.71l-8.74-17.64c-3.28-6.62-6.39-13.43-9.24-20.25-22-52.7-94-226.47-100.34-244.64C67.64,534.51,51,473.18,52.8,416.28V416c0-.81-.82-80.83,1.16-97.86l0-.49c1.71-33.57,20.49-171.39,22-181.5C77.22,128.45,81.77,93.48,82,92c0-.32,4.25-31.91,27-35.06,4.82-.43,18.88-1.41,37.77,23.72a65.19,65.19,0,0,1,11.49,24.58c6.73,30.11-3.92,60.63-7.41,70.66l-.52,1.48c-4.58,13.17-24.14,59.95-29.07,69.52l-1.09,2.08c-6,11.4-18.55,35.13-13.54,70.76,4.93,37.34,22,72,29,82.05.55.79,1.1,1.64,1.67,2.51,6.77,10.43,18.11,27.89,64.14,20.06l3-.57c18.83-3.59,76.15-14.53,118.54-29.23l.28-.1c21.77-8.52,31.62-25.32,26.39-45-2.06-10-5.34-21.09-7.12-26.83a25.06,25.06,0,0,1,1.08-18c2.88-6.25,7.85-12.47,14.77-18.51.87-.7,1.84-1.53,2.93-2.48,8.13-7,25-21.46,65.71-34.6,10.28-1.78,15-2.24,40.55,15.39l.09.07c.73.48,1.6,1.13,2.61,1.87,7.9,5.86,22.58,16.76,55.36,16.2l.49,0c9.88-.82,30.42-2.53,57.62,13.63C597.05,305,614.86,305,624.49,305c17,.38,31.62.33,45.78.28,40.56-.13,75.59-.25,144.18,9.94,5.32,1,40.48,6.86,104.55,17.43l.47.07c.28,0,29,3.21,41.64,21.81C967.62,364.11,968.79,376.61,964.6,391.66Z"/></svg>