<svg id="South_-_Config" data-name="South - Config" xmlns="http://www.w3.org/2000/svg" viewBox="0 0 1920 1080"><defs><style>.cls-1{fill:#fff;}</style></defs><title>active</title><path class="cls-1" d="M1863.41,406.08c-.61-13.5-16.35-37.21-27.12-48.58-11-11.61-23.32-16.79-40-16.79-14.4,0-71.95,9.7-91,13.09a347,347,0,0,0-46.54,11.8l-.17.06c-.75.28-75.83,28-96.54,35.51-2.76,1-5.42,2.08-8.57,3.38-29,12.07-51.47,1.65-52.38,1.22l-.15-.07c-5-2.29-121.38-56.1-142.08-64.69-34.59-15-68.67-9.62-71.91-9.06-1.61.21-15.12,2-27.08,3.55a112.1,112.1,0,0,0-35.75,10.76c-13.55,6.75-25,14.48-34,23-9.65,9.08-12.84,20.37-8.74,31,5.65,14.6,23.87,25,44.31,25.37,1.08,0,2.21,0,3.22.11,71.31,5.29,137.73,21.66,150.32,24.89l2.65.66c10.67,2.63,23.93,5.91,28.69,20,4.36,17.26-5.42,27-14.42,32.15a53.92,53.92,0,0,1-5.65,2.66c-6.65,2.83-14.93,6.36-22.7,18.48-7.54,11-7.64,36.57-7.57,42.18-.94,20.94-19.91,30.46-28,33.59-3.33,1.28-6.82,2.78-10.65,4.58-16.27,7.64-70.37,33-83.72,39.15-1.69.78-3.28,1.61-4.48,2.25A124.24,124.24,0,0,1,1196,658.65c-1.58.25-5.43.78-10.76,1.51-21,2.87-64.52,8.85-89.3,14.09-29.78,5.65-60.8,21.35-79.34,30.73l-.1,0c-1.41.74-13.93,7.51-20,18.16l0,.09c-.4.73-9.69,18.22,3,40.26,10.28,17.87,26.3,22.69,38.42,22.69a39.84,39.84,0,0,0,11-1.46l25.63-9c108.85-39.33,244.65-88.85,274-101.55C1508.19,611,1657.77,527.77,1662.75,525c63.34-32.73,160.85-82.5,170.18-85.61l.8-.32c1-.49,2.35-1,3.72-1.61C1847.21,433.35,1865.33,425.74,1863.41,406.08Zm-31.77,17.54c-1.38.58-2.7,1.13-3.92,1.69-15.94,5.85-155.9,78.11-172,86.41l-.23.12c-1.5.85-152,84.85-312.66,148.44l-.23.09c-22.74,9.87-117.22,44.88-273.16,101.23l-25,8.83c-2.06.56-20.85,5.06-32-14.37-8.09-14.07-3.3-24.61-2.81-25.6,3.28-5.69,11-10.66,13.75-12.13,17.86-9,47.7-24.12,75.38-29.36l.16,0c24.23-5.13,67.51-11.07,88.31-13.92,5.41-.74,9.32-1.28,11-1.55a140.14,140.14,0,0,0,42.15-13.94c1-.54,2.35-1.24,3.69-1.86,13.4-6.15,67.55-31.56,83.83-39.2,3.51-1.65,6.67-3,9.66-4.16,8.53-3.27,36.45-16.37,37.67-47.19v-.41c-.15-10.82,1.28-28.44,5-33.73l.17-.25c5.3-8.31,10-10.32,16-12.87a66.53,66.53,0,0,0,7.2-3.44c8.95-5.11,29-20.14,21.44-49.17l-.14-.46c-7.28-22.18-27.4-27.15-39.41-30.11l-2.53-.63c-12.8-3.29-80.35-19.94-152.92-25.32-1.45-.1-2.85-.13-4.09-.15-16-.26-27.68-8.33-30.57-15.78-1.86-4.83-.17-9.76,5-14.65,7.84-7.37,18.37-14.45,30.44-20.46a97.3,97.3,0,0,1,31-9.32c12.77-1.65,27.29-3.57,27.29-3.57l.35-.06c.32-.05,32.22-5.55,63.51,8.05l.12,0c20.1,8.33,138.37,63,141.53,64.45,2.13,1,29.8,13.61,64.64-.89,3-1.22,5.42-2.22,7.9-3.12,20.43-7.38,93.49-34.39,96.56-35.52A338.62,338.62,0,0,1,1708,368.57c29-5.19,77.21-12.86,88.34-12.86,12.33,0,21,3.62,29.07,12.11,11,11.59,22.81,31.64,23,39l0,.59C1849.26,414.85,1843.67,418.57,1831.64,423.62Z"/></svg>