<svg id="Patriot_-_Config" data-name="Patriot - Config" xmlns="http://www.w3.org/2000/svg" viewBox="0 0 1920 1080"><defs><style>.cls-1{fill:#fff;}</style></defs><title>active</title><path class="cls-1" d="M1425.08,467.25l-.14-.46c-7.28-22.18-27.4-27.15-39.41-30.11l-2.53-.63c-12.8-3.29-80.35-19.94-152.92-25.32l-1.48-.08v0c-3.42-.41-10.77-1-20.07-1.8-14.65-1.22-39.18-3.27-43.79-4.47l-.24-.05a58.53,58.53,0,0,1-19.86-8.41l-1.31-.81c-5.8-3.55-19.38-11.85-36.54-6.13-14.4,4.8-31,13-31.74,13.29l0-.18-.46.38c-1.11.34-6.43,1.52-16.62-3.67l-.49-.23c-1.27-.53-2.53-1.1-3.79-1.67-10.11-4.57-22.69-10.26-48-3.35l-.4.12c-.73.25-1.63.52-2.68.85-9.73,3-30,9.22-49.71,26.84a83.63,83.63,0,0,0-11.69,13l-2.38,3.25-.19.28a101,101,0,0,0-15.52,39.32c-2.08,11.77-3,20.59-3.65,27.67-.78,7.88-1.34,13.58-3.14,19.13l-.14.48c-3.45,13.57-23.32,38.51-34,51.91-2.67,3.34-5,6.24-6.68,8.49-.7.93-1.42,1.86-2.14,2.79-8.78,11.41-18.73,24.35-20.2,55.07v.13c-.33,10.92.82,26,11.93,55.12l.17.45.22.41c2.2,4.12,4.28,18.07,4.75,31.78.39,11.61,7.47,27.44,26.13,33.83a26.78,26.78,0,0,0,8.69,1.49c10.32,0,18.68-6.44,23.65-13.63a17.85,17.85,0,0,1,21.24-7.75,76.45,76.45,0,0,1,8,3.06c2.79,1.19,5.68,2.41,9,3.5a33,33,0,0,0,25.32-1.78c8-4.15,11.83-10.15,15.85-16.51l1.23-1.94.21-.35c3.24-5.73,11-10.76,13.82-12.24,17.85-9,47.7-24.12,75.38-29.36l.16,0c24.23-5.13,67.51-11.07,88.31-13.92,5.41-.74,9.32-1.28,11-1.55a140.14,140.14,0,0,0,42.15-13.94c1-.54,2.35-1.24,3.69-1.86,13.4-6.15,67.55-31.56,83.83-39.2,3.51-1.65,6.67-3,9.66-4.16,8.53-3.27,36.45-16.37,37.67-47.19v-.41c-.15-10.82,1.28-28.44,5-33.73l.17-.25c5.3-8.31,10-10.32,16-12.87a66.53,66.53,0,0,0,7.2-3.44C1412.59,511.31,1432.6,496.28,1425.08,467.25ZM1396.2,503.4a53.92,53.92,0,0,1-5.65,2.66c-6.65,2.83-14.93,6.36-22.7,18.48-7.54,11-7.64,36.56-7.57,42.18-.93,20.94-19.91,30.46-28,33.59-3.33,1.28-6.82,2.78-10.65,4.58-16.27,7.64-70.37,33-83.72,39.15-1.69.78-3.28,1.61-4.48,2.25A124.24,124.24,0,0,1,1196,658.65c-1.58.25-5.43.78-10.76,1.51-21,2.87-64.52,8.85-89.29,14.09-29.79,5.65-60.81,21.35-79.35,30.73l-.1,0c-1.4.73-13.78,7.43-19.84,18l-1.17,1.84c-3.81,6-5.83,9-10.05,11.2a18,18,0,0,1-13.76.86c-2.71-.89-5.19-1.94-7.82-3.06a88.77,88.77,0,0,0-9.65-3.64,32.76,32.76,0,0,0-37.87,13.69c-1.94,2.81-7.3,9.06-15.08,6.4-11.43-3.92-15.77-13-16-20.15-.1-2.82-1.07-27.44-6.26-37.86-10-26.32-11.09-39.48-10.81-48.87,1.25-26,9-36,17.1-46.57l2.22-2.89c1.59-2.1,3.84-4.93,6.44-8.2,12.9-16.19,32.37-40.62,36.74-57.32,2.25-7,2.9-13.67,3.73-22.07.67-6.83,1.51-15.32,3.49-26.54A86.62,86.62,0,0,1,951,446.34l2.28-3.11a68.69,68.69,0,0,1,9.59-10.7c17.27-15.44,35.41-21,44.12-23.7,1.08-.33,2-.62,2.81-.88,20-5.41,28.61-1.52,37.72,2.59,1.3.59,2.6,1.18,3.9,1.73,17.6,8.88,27.69,4.84,30.41,3.36,1.81-.88,17-8.21,29.69-12.44,10.55-3.52,19,1.62,24,4.7l1.28.78a73.16,73.16,0,0,0,24.33,10.25c5.58,1.4,23.44,3,46.17,4.86,7.92.66,14.87,1.24,18.46,1.63v.17c1.08,0,2.21,0,3.22.11,71.31,5.29,137.73,21.66,150.32,24.89l2.65.66c10.67,2.63,23.93,5.91,28.69,20C1415,488.51,1405.2,498.26,1396.2,503.4Z"/></svg>