<?xml version="1.0" encoding="utf-8"?>
<!-- Generator: Adobe Illustrator 24.0.1, SVG Export Plug-In . SVG Version: 6.00 Build 0)  -->
<svg version="1.1" id="Daytona_2008_Rally_Short_-_Config"
	 xmlns="http://www.w3.org/2000/svg" xmlns:xlink="http://www.w3.org/1999/xlink" x="0px" y="0px" viewBox="0 0 1920 1080"
	 style="enable-background:new 0 0 1920 1080;" xml:space="preserve">
<style type="text/css">
	.st0{fill:#FFFFFF;}
</style>
<path class="st0" d="M1454.9,611.1l-23.3-73.6l-0.1-0.3c-5.8-16.5-21.7-35.1-64.6-29.7c-25.2,3.1-37.6,16.9-45.5,28.6
	c-9.8,14.4-18.1,14.8-26,15.2c-46.9,2.4-114.9,4.7-163.8-2.3c-14-2-23.7-8.7-27.9-19.3c-10.8-26.8-44.8-24.1-46.3-24l-101.6,12.1
	l-0.6,0.1c-42.2,10.5-62.7,28.7-62.7,55.8c0,30.3,34.3,46.1,52.7,47.8c56.1,5.3,170.3,4.9,192.6,4.8c48.5-0.3,56,5.9,67.3,15.3
	c30.9,25.7,47.4,27.6,67.2,27.6c25.2,0,43.4,2.8,57.4,8.9c6.8,3,24.8,7.5,33.9,7.5c0.2,0,0.3,0,0.5,0c27.9-0.7,40.8-10.4,51.1-18.2
	c0.9-0.7,1.8-1.3,2.7-2c7-5.2,12.4-7.7,17.3-9.9c4.8-2.2,9.4-4.3,13.5-8.3C1460.1,636.2,1458,619.5,1454.9,611.1z M1434.5,633
	c-1.7,1.6-4.3,2.8-8,4.5c-5.1,2.3-12.1,5.6-20.8,12c-0.9,0.7-1.9,1.4-2.8,2.1c-9.2,7-18,13.6-39.4,14.1c-5.5,0.1-21.2-3.8-26-5.9
	l0,0c-16.6-7.2-37.4-10.6-65.4-10.6c-14.3,0-26.7,0-54.4-23c-16.2-13.5-29.3-20-77-20c-1,0-2.1,0-3.1,0
	c-61.2,0.4-147.8-0.7-190.6-4.7c-9.9-0.9-34.6-10.6-34.6-27.9c0-6.7,0-24.4,47-36.2l99.9-11.9c1.5-0.1,20.9-1,25.9,11.5
	c7,17.4,22.5,28.6,43.7,31.7c50.6,7.2,119.9,4.9,167.6,2.5c9.1-0.5,26.1-1.3,41.5-23.9c7.2-10.6,15.3-18,31.5-20
	c35.6-4.4,41.3,11,43.2,16.3l23.4,73.8l0.2,0.5C1436.1,618,1439.6,628,1434.5,633z"/>
</svg>
