<?xml version="1.0" encoding="utf-8"?>
<!-- Generator: Adobe Illustrator 24.0.1, SVG Export Plug-In . SVG Version: 6.00 Build 0)  -->
<svg version="1.1" id="Rallycross_-_Config" xmlns="http://www.w3.org/2000/svg" xmlns:xlink="http://www.w3.org/1999/xlink"
	 x="0px" y="0px" viewBox="0 0 1920 1080" style="enable-background:new 0 0 1920 1080;" xml:space="preserve">
<style type="text/css">
	.st0{fill:#FFFFFF;}
</style>
<title>active</title>
<path class="st0" d="M1536.5,430.6c-21.7-54.3-40.7-68.5-59.1-82.1c-2.1-1.5-4.2-3.1-6.3-4.7c-62.1-48-138.1-89.1-184.3-109.7
	c-52.3-23.4-125.6-3.1-165,7.8l-1.7,0.5c-36.6,10.1-80.4,21-131.1,33.7c-75.8,18.9-161.7,40.3-252.1,66.1
	c-20.1,5.7-50.2,24.1-64.9,34c-16,10.9-32.4,8.8-44.4,7.3l-0.5-0.1c-19.7-2.5-59.5-4.6-79.7-2.5c-87.3,9.5-139.2,57.1-144.9,62.5
	c-23.5,22.6-37.4,51-41.3,84.5c-3,25.6,0.2,53.8,9.1,79.4c16.5,47.8,55.7,66.1,85,66.1c4.7,0,9.2-0.5,13.3-1.4
	c52.3-11.7,78.7-61.6,97.5-108.8c35.1-87.9,73.5-88.4,98.8-88.7c20.2-0.3,46.5-0.9,74.2-1.5c65.9-1.5,147.9-3.3,198.8-2
	c51.1,1.3,61.6,12.9,73.8,26.4c0.8,0.9,1.6,1.8,2.5,2.7c44.1,47.9,70.6,71.9,97.8,88.4c66,40.2,96.2,43.5,131.2,47.3l2.7,0.3
	c46.3,5.1,98.7-19.9,108.7-24.9c33.9-17.1,42.4-36.4,46.1-53c12.5-54.8,41.7-52.7,69.9-50.7c5.2,0.4,10.1,0.7,14.8,0.7
	c23.5-0.4,40.1-7.6,49.3-21.4C1548.9,465.9,1539.7,438.5,1536.5,430.6z M1518.3,475.9c-5.3,8-16.4,12.2-33,12.5
	c-3.8,0.1-8.3-0.3-13-0.6c-27.9-2-74.5-5.4-90.8,66.2c-2.7,11.8-7.9,25.7-35.6,39.6c-25.2,12.7-65.9,26.3-97.5,22.9l-2.7-0.3
	c-33.9-3.7-60.7-6.7-123-44.5c-21.6-13.1-44.7-31.9-93.5-84.9c-0.8-0.9-1.6-1.7-2.4-2.6c-14-15.4-28.5-31.4-88.1-33
	c-51.4-1.3-133.7,0.5-199.8,2c-27.7,0.6-53.9,1.2-74.1,1.5c-37.3,0.5-80.2,8.8-117.2,101.3c-17.8,44.5-40.2,87.1-83.3,96.7
	c-9,2-24,1.1-39.3-7.3c-11.5-6.3-27-19.2-35.7-44.4c-7.1-20.6-26.1-91.8,27.1-143c5.1-4.9,52.5-48.3,133.2-57.1
	c5.2-0.6,11.9-0.8,19.4-0.8c19,0,42.5,1.6,55.6,3.2l0.5,0.1c13.4,1.7,35.9,4.5,58.1-10.6c14.8-10,42.7-26.6,59.1-31.3l0,0
	c90.1-25.8,175.8-47.1,251.5-66c37.4-9.3,71-17.7,100.9-25.5c-33.5,22.2-75.8,47.8-104.6,56.2c-55.2,16.2-251.1,68.1-253.1,68.6
	c-5.3,1.4-8.5,6.9-7.1,12.2c1.2,4.5,5.2,7.4,9.7,7.4c0.8,0,1.7-0.1,2.6-0.3c2-0.5,198.1-52.4,253.6-68.7
	c48.7-14.3,131-72.5,156-90.7c38.1-9.5,90-18.7,126.9-2.2c48.7,21.7,123.3,63.3,180.2,107.2c2.2,1.7,4.4,3.4,6.5,4.9
	c17.6,13.1,32.9,24.5,52.5,73.5C1522.4,449.1,1525.1,465.6,1518.3,475.9z"/>
</svg>
