<?xml version="1.0" encoding="UTF-8"?><svg id="gp_-_Active" xmlns="http://www.w3.org/2000/svg" viewBox="0 0 1920 1080"><defs><style>.cls-1{fill:#fff;}</style></defs><path class="cls-1" d="m985.84,972.43c-9.19,0-18.34-3.39-25.44-10.06-11.88-11.16-15.08-29.12-7.79-43.7l47.76-95.42,20.41-42.03c14.02-28.86,10.32-63.83-9.4-89.12l-97.26-120.51c-14.5-17.96-38.92-25.04-60.77-17.63l-2.64.89c-26.61,9.03-47.33,29.38-56.85,55.82l-49.84,141.57c-5.09,14.46-16.38,25.41-30.99,30.05-14.61,4.64-30.15,2.22-42.66-6.65l-51.03-36.19c-20.12-14.27-26.66-40.61-15.56-62.63l88.72-176.11c6.75-13.39,19.19-17.2,33.28-10.2,3.05,1.52,6.85,3.26,11.29,5.19,4.02,1.75,8.62.88,11.71-2.22l39.96-39.88c6.61-6.6,15.72-9.79,25-8.75l79.85,8.89c16.49,1.84,31.83,10.36,42.1,23.39l152.61,193.64c4.79,6.08,13.01,7.98,19.98,4.61,7.69-3.71,11.25-12.83,8.12-20.76l-51.99-131.67-72-177.79c-6.35-14.39-18.18-42.41-29.63-69.51-13.59-32.18-27.64-65.46-32.34-75.51-2.99-6.38-8.1-18.49-15.19-35.99-5.66-13.95-4.01-29.73,4.4-42.22,8.41-12.49,22.42-19.94,37.48-19.94h150.61c17.56,0,32.51,12.56,35.53,29.86,2.58,14.74-2.02,26.25-14.04,35.17l-31.76,23.57c-17.75,13.17-27.7,34.21-26.62,56.28l2.2,45.12c.31,5.15.59,10.02.85,14.64,1.98,34.92,3.06,54.16,12.28,72.16,7.86,15.35,26.56,42.08,63.51,48.71,13.53,2.43,83.06,12.11,144.4,20.66,39.64,5.52,73.88,10.29,88.36,12.45,37.54,5.6,67.92,33.62,73.88,68.14,5.34,30.91.91,56.72-13.55,78.9-12.57,19.28-30.99,33.41-48.81,47.07-5.71,4.38-11.62,8.91-17.18,13.5-39.25,32.42-365.44,294.15-368.73,296.79l-.37.28c-6.54,4.76-14.21,7.11-21.85,7.11Zm-114.88-441.37c22.38,0,44.21,9.98,58.73,27.97l97.41,120.7c12.08,15.46,19.55,33.94,21.62,53.45,2.07,19.51-1.37,39.15-9.94,56.79l-20.49,42.19-47.79,95.47c-3.37,6.73-1.89,15.02,3.59,20.17,5.95,5.58,15.02,6.19,21.65,1.48,9.74-7.82,329.56-264.45,368.31-296.45,5.84-4.82,11.89-9.46,17.75-13.95,34.71-26.62,64.69-49.6,54.83-106.69-4.51-26.14-28.01-47.42-57.12-51.77-14.39-2.15-50.23-7.14-88.17-12.42-61.53-8.57-131.26-18.28-145.17-20.78-45.44-8.16-68.24-40.65-77.78-59.29-11.14-21.76-12.38-43.74-14.44-80.14-.26-4.61-.54-9.48-.85-14.62v-.12s-2.21-45.17-2.21-45.17c-1.4-28.75,11.56-56.16,34.68-73.32l31.76-23.57c6.73-4.99,7.38-9.19,6.25-15.66-1.35-7.71-8-13.3-15.83-13.3h-150.61c-8.52,0-16.13,4.05-20.89,11.12-4.76,7.06-5.65,15.64-2.45,23.53,6.96,17.17,11.93,28.96,14.77,35.03,4.86,10.39,18.36,42.36,32.65,76.2,11.45,27.11,23.29,55.15,29.56,69.35l.12.29,72.09,178.02,52.02,131.75c6.96,17.63-.96,37.89-18.03,46.12-15.48,7.47-33.73,3.26-44.38-10.25l-152.61-193.64c-6.98-8.85-17.4-14.64-28.6-15.89l-79.85-8.89c-3.21-.36-6.37.75-8.66,3.03l-39.96,39.88c-8.95,8.93-22.22,11.44-33.81,6.41-4.75-2.06-8.86-3.95-12.21-5.62-3.34-1.66-4.59-1.37-4.6-1.37,0,0-.79.42-1.92,2.66l-88.73,176.11c-6.62,13.12-2.72,28.82,9.27,37.32l51.03,36.19c7.34,5.2,16.46,6.62,25.03,3.9,8.57-2.72,15.2-9.15,18.18-17.63l49.86-141.64c11.61-32.27,36.85-57.06,69.26-68.06l2.64-.89c7.87-2.67,15.99-3.96,24.04-3.96Z"/></svg>