<?xml version="1.0" encoding="UTF-8"?>
<svg id="West_-_active" data-name="West - active" xmlns="http://www.w3.org/2000/svg" viewBox="0 0 1920 1080">
  <defs>
    <style>
      .cls-1 {
        fill: #fff;
      }
    </style>
  </defs>
  <path class="cls-1" d="m496.72,774.35c-3.57,0-7.59-.64-12.13-2.19-25.23-8.23-50.2-18.71-74.2-31.17-61.41-31.88-113.07-77.42-140.93-109.42-23.1-26.53-82.55-115.06-90.82-129.63-31.56-55.61-5.87-93.2,5.11-109.25,15.22-22.26,49.26-42.01,84.7-49.14,23.04-4.64,65.44-1.89,78.9,7.39,9.38,6.47,14.82,14.9,15.33,23.75.35,6.04-1.46,15.19-12.09,24.51-13.88,12.16-20.42,22.18-20,30.63.39,7.87,6.37,16.34,15.89,27.46,15.78,18.42,55.6,73.42,68.88,93.69,12.17,18.58,53.27,72.23,63.22,84.98,3.25,4.17,8.34,6.65,13.96,6.81,6.15.19,12.03-2.42,16.16-7.13,11.03-12.57,38.22-45.83,52.52-83,11.97-31.12,15.31-57.02,10.52-81.49-3.05-15.58-11.81-41.62-18.2-60.64-2.57-7.65-4.79-14.26-6.22-18.91-4.02-13.11-1.51-26.91,6.7-36.94,8.17-9.97,21.07-14.87,35.41-13.44,23.56,2.34,54.71,5.85,68.65,8.01,20.97,3.25,38.76,13.95,54.37,32.71,17.97,21.58,36.29,50.96,51.01,74.56,5.71,9.16,10.65,17.07,14.86,23.42,3.48,5.24,6.89,10.88,10.5,16.84,6.18,10.22,12.58,20.79,19.55,29.65l.1.13c1.15,1.51,2.35,3.08,3.58,4.69,9.22,12.04,19.67,25.68,25.33,36.7,8.54,16.61,9.83,41.82-14.66,58.22-5.65,3.79-12.5,8.53-19.75,13.55-19.49,13.5-39.64,27.46-50.06,32.36-11.69,5.48-35.5,13.8-63.69,7.95-23.78-4.95-47-9.76-55.89-11.45-13.63-2.6-38.83-4.02-54.39,15.73-16.39,20.8-44.31,57.73-54.82,71.63-1.81,2.39-3.1,4.1-3.72,4.92-3.36,4.42-10.28,13.52-23.68,13.52Zm-5.76-21.15c8.03,2.76,9.86.34,13.52-4.47.62-.81,1.9-2.5,3.69-4.87,10.54-13.95,38.55-50.99,55.06-71.95,16.39-20.79,42.62-28.96,73.85-23,9.04,1.72,32.36,6.56,56.21,11.52,22.5,4.67,41.69-2.05,51.12-6.48,8.91-4.18,30.12-18.88,47.17-30.69,7.32-5.07,14.23-9.86,20.02-13.73,17.04-11.41,10.44-27.72,8-32.45-4.85-9.42-15.15-22.88-23.42-33.69-1.23-1.61-2.43-3.17-3.57-4.68-7.71-9.81-14.41-20.89-20.89-31.6-3.5-5.78-6.8-11.24-10.05-16.14-4.36-6.58-9.61-14.99-15.16-23.89-14.4-23.09-32.32-51.83-49.41-72.35-12.36-14.85-26.12-23.26-42.07-25.74-11.8-1.83-40.85-5.22-67.57-7.87-7.79-.78-13.99,1.37-17.96,6.21-3.96,4.83-5.1,11.71-3.05,18.4,1.35,4.4,3.53,10.88,6.05,18.4,6.57,19.54,15.56,46.3,18.87,63.16,5.55,28.32,1.9,57.72-11.48,92.51-15.45,40.17-44.41,75.63-56.15,89-8.07,9.2-19.66,14.27-31.77,13.93-11.6-.33-22.22-5.62-29.16-14.5-10.48-13.42-51.5-66.96-64.18-86.32-13.03-19.89-51.97-73.71-67.34-91.64-10.06-11.74-19.94-24.45-20.68-39.48-.75-15.15,7.77-29.97,26.79-46.65,2.06-1.8,5.48-5.28,5.3-8.31-.14-2.48-2.66-5.64-6.72-8.44-5.98-4.12-40.63-8.87-63.59-4.25-30.2,6.08-59.86,22.87-72.14,40.83-10.35,15.14-29.63,43.33-4.22,88.09,7.87,13.87,66.65,101.27,88.51,126.37,25.44,29.21,76.08,74.19,135.07,104.8,23.09,11.98,47.09,22.06,71.34,29.96l-.22.68.23-.68Z"/>
</svg>