<?xml version="1.0" encoding="UTF-8"?>
<svg id="Moto_Grand_Prix_-_active" data-name="Moto Grand Prix - active" xmlns="http://www.w3.org/2000/svg" viewBox="0 0 1920 1080">
  <defs>
    <style>
      .cls-1 {
        fill: #fff;
      }
    </style>
  </defs>
  <path class="cls-1" d="m794.33,780.65c-7.1,0-12.66-1.67-16.88-5.06-3.09-2.48-6.93-7.15-7.66-15.27-.25-2.79-.67-7.15-1.15-12.23-.45-4.66-.96-9.93-1.46-15.14-.95-9.8-1.88-19.43-2.35-24.58-.83-9.06-1.66-13.16-12.65-15.33-7.55-1.49-27.42-5.63-48.45-10.01-27.98-5.83-59.69-12.43-70.38-14.47-13.63-2.6-38.83-4.02-54.4,15.73-16.39,20.8-44.31,57.73-54.82,71.63-1.81,2.39-3.1,4.1-3.72,4.92-4.26,5.6-14.21,18.7-35.82,11.33-25.23-8.23-50.19-18.71-74.19-31.17-61.41-31.88-113.07-77.42-140.93-109.42-23.1-26.53-82.55-115.06-90.82-129.63-31.56-55.61-5.87-93.2,5.11-109.25,15.22-22.26,49.26-42.01,84.7-49.14,23.04-4.64,65.44-1.89,78.9,7.39,9.38,6.47,14.82,14.9,15.33,23.75.35,6.04-1.46,15.19-12.09,24.51-13.88,12.16-20.42,22.18-20,30.63.39,7.87,6.37,16.34,15.89,27.46,15.78,18.42,55.6,73.42,68.88,93.69,12.17,18.58,53.27,72.23,63.22,84.98,3.25,4.17,8.34,6.65,13.96,6.81,6.14.17,12.03-2.42,16.16-7.13,11.03-12.57,38.22-45.83,52.52-83,11.97-31.12,15.31-57.02,10.52-81.49-3.05-15.58-11.81-41.62-18.2-60.64-2.57-7.65-4.79-14.26-6.22-18.91-4.02-13.11-1.51-26.91,6.7-36.94,8.17-9.97,21.08-14.87,35.41-13.44,23.56,2.34,54.71,5.85,68.65,8.01,20.97,3.25,38.76,13.95,54.37,32.71,17.97,21.58,36.29,50.96,51.01,74.56,5.71,9.16,10.65,17.07,14.86,23.42,3.48,5.25,6.89,10.88,10.5,16.85,11.57,19.12,24.69,40.8,40.08,47.67,17.08,7.63,37.15,4.89,62.55,1.43,4.94-.67,10.04-1.37,15.32-2.01,1.84-.22,4.18-.5,6.17-.74l4.29-.5c29.42-3.44,78.67-9.19,94.91-22.51,21.27-17.46,29.63-30.44,37.22-72.86,6.41-35.85,8.66-45.56,10.3-52.64.2-.85.38-1.66.57-2.48,1.87-8.23,3.99-17.56,12.6-22.75,6.29-3.79,14.16-4.22,24.76-1.36,76.8,20.73,318.49,81.99,360.29,90.52,32.03,6.54,98.65,23.8,125.81,30.91,11.83,3.1,22.12,10.38,28.98,20.5l24.83,36.36.32.67c14.18,29.26,13.13,62.66-2.87,91.64-15.83,28.68-43.99,48.54-73.49,51.83l-16.89,1.79c-34.76,3.69-81.22,8.62-120.29,12.81-38.13,4.09-62.47,6.74-72.37,7.89-14.51,1.69-77.47,9.06-146.1,17.16-42.02,4.96-79.7,9.42-106.11,12.57-24.88,2.97-39.93,4.8-46.02,5.58-9.67,1.25-41.47,5.26-81.74,10.33-54.97,6.93-123.39,15.55-170.59,21.58-2.5.32-4.85.48-7.04.48Zm-4.3-20.63c.34.18,2.44,1.12,8.81.31,47.22-6.03,115.65-14.66,170.63-21.59,40.24-5.07,72.03-9.08,81.67-10.33,6.16-.79,21.28-2.63,46.22-5.61,26.41-3.15,64.11-7.62,106.14-12.58,68.64-8.1,131.62-15.48,146.13-17.16,9.95-1.16,34.36-3.82,72.54-7.91,39.08-4.19,85.54-9.12,120.31-12.81l16.84-1.79c23.1-2.57,45.4-18.52,58.14-41.61,12.7-23,13.67-49.42,2.69-72.6l-24-35.14c-4.16-6.14-10.38-10.53-17.52-12.41-27-7.07-93.2-24.22-124.74-30.66-42.04-8.59-284.51-70.03-361.49-90.81-7.22-1.95-9.21-.83-9.23-.82-1.31.79-2.68,6.81-3.41,10.04-.19.84-.38,1.68-.59,2.56-1.59,6.88-3.77,16.3-10.1,51.65-7.99,44.64-17.49,62.86-44.22,84.8-20.78,17.05-69.62,22.75-105.28,26.92l-4.28.5c-1.96.23-4.26.5-6.09.73-5.14.62-10.17,1.31-15.04,1.97-27.43,3.74-51.11,6.96-73.4-2.99-21.11-9.43-35.95-33.95-49.04-55.58-3.5-5.78-6.8-11.24-10.05-16.14-4.36-6.58-9.61-14.99-15.16-23.89-14.4-23.09-32.32-51.82-49.41-72.35-12.36-14.85-26.12-23.26-42.07-25.74-11.8-1.83-40.85-5.22-67.57-7.87-7.78-.77-13.99,1.37-17.96,6.22-3.96,4.83-5.1,11.71-3.05,18.4,1.35,4.4,3.53,10.88,6.05,18.4,6.57,19.54,15.56,46.3,18.87,63.16,5.55,28.32,1.9,57.72-11.48,92.51-15.45,40.17-44.41,75.63-56.15,89-8.07,9.2-19.63,14.27-31.77,13.93-11.6-.33-22.22-5.62-29.16-14.5-10.48-13.42-51.5-66.96-64.18-86.32-13.03-19.89-51.97-73.71-67.34-91.64-10.06-11.74-19.94-24.45-20.68-39.48-.75-15.15,7.77-29.97,26.79-46.65,2.06-1.8,5.48-5.28,5.3-8.31-.14-2.48-2.66-5.64-6.72-8.44-5.98-4.12-40.63-8.87-63.59-4.25-30.2,6.08-59.86,22.87-72.14,40.83-10.35,15.14-29.63,43.33-4.22,88.09,7.87,13.87,66.65,101.27,88.51,126.37,25.44,29.21,76.08,74.19,135.07,104.8,23.06,11.97,47.03,22.04,71.25,29.93h0s.15.05.15.05h0c7.98,2.74,9.94.17,13.48-4.49.62-.81,1.9-2.5,3.69-4.87,10.54-13.95,38.55-50.99,55.06-71.95,16.39-20.79,42.61-28.96,73.85-23,10.86,2.07,42.66,8.7,70.71,14.54,20.98,4.37,40.8,8.5,48.25,9.97,26.12,5.16,27.85,24.04,28.69,33.12.47,5.13,1.4,14.72,2.35,24.48.51,5.22,1.02,10.49,1.46,15.16.49,5.13.91,9.53,1.16,12.35.08.85.23,1.33.32,1.5Z"/>
</svg>