<?xml version="1.0" encoding="UTF-8"?>
<svg id="Moto_National_-_active" data-name="Moto National - active" xmlns="http://www.w3.org/2000/svg" viewBox="0 0 1920 1080">
  <defs>
    <style>
      .cls-1 {
        fill: #fff;
      }
    </style>
  </defs>
  <path class="cls-1" d="m1093.79,743.02c-18.67,0-33.85-10.63-39.8-22.23-4.07-7.94-9.22-22.26-13.36-33.77-.59-1.65-1.16-3.23-1.7-4.73-3.2-8.85-8.58-16.83-26.07-15.33-13.73,1.18-32.55,3.82-49.16,6.14-11.21,1.57-21.81,3.05-29.8,3.95-25.55,2.87-43.8-10.39-46.5-33.79-.5-4.3-1.12-9.59-1.79-15.3-2.2-18.68-4.95-41.92-5.47-50.09-1.33-20.57,9.4-31.94,32.79-34.74l4.32-.5c29.42-3.44,78.67-9.19,94.91-22.51,21.27-17.46,29.63-30.44,37.22-72.86,6.41-35.85,8.66-45.56,10.3-52.64.2-.85.38-1.66.57-2.48,1.87-8.23,3.99-17.56,12.6-22.75,6.29-3.79,14.16-4.22,24.76-1.36,76.8,20.73,318.49,81.99,360.29,90.52,32.03,6.54,98.65,23.8,125.81,30.91,11.83,3.1,22.12,10.38,28.98,20.5l24.83,36.36.32.67c14.18,29.26,13.13,62.66-2.87,91.64-15.83,28.68-43.99,48.54-73.49,51.83l-16.89,1.79c-34.76,3.69-81.22,8.63-120.29,12.81h-.1c-8.07.79-16.37-.23-24-2.94l-60.46-21.44c-10.69-3.79-22.29-5.12-33.57-3.83l-80.64,9.2c-.39.04-.71.22-.94.54-.24.31-.33.66-.26,1.05,1.61,10.26,2.61,17.22,2.97,20.69.99,9.58-3.97,14.75-7.01,16.97-4.48,3.28-10.07,4.29-14.44,4.81-42.02,4.96-79.7,9.42-106.11,12.57-2.01.24-3.99.36-5.93.36Zm-77.07-96.23c15.08,0,32.65,5.6,41.01,28.69.54,1.51,1.12,3.1,1.72,4.77,3.74,10.39,8.85,24.62,12.33,31.41,2.24,4.37,11.44,12.83,25.56,11.15,26.42-3.15,64.11-7.62,106.14-12.58,1.84-.22,3.04-.47,3.81-.67-.29-2.54-1.01-7.82-2.74-18.84-.9-5.73.6-11.66,4.11-16.27,3.51-4.61,8.83-7.63,14.59-8.29l80.64-9.2c14.28-1.63,28.98.05,42.52,4.85l60.46,21.44c4.88,1.73,10.18,2.39,15.34,1.9,39.07-4.19,85.5-9.12,120.25-12.81l16.84-1.79c23.1-2.57,45.4-18.52,58.14-41.61,12.7-23,13.67-49.42,2.69-72.6l-24-35.14c-4.16-6.14-10.38-10.53-17.52-12.41-27-7.07-93.2-24.22-124.74-30.66-42.04-8.59-284.51-70.03-361.49-90.81-7.23-1.95-9.21-.83-9.23-.82-1.31.79-2.68,6.81-3.41,10.04-.19.84-.38,1.68-.59,2.56-1.59,6.88-3.77,16.3-10.1,51.65-7.99,44.64-17.49,62.86-44.22,84.8-20.78,17.05-69.62,22.75-105.28,26.92l-4.28.5c-15.95,1.91-15.63,6.81-15.19,13.59.49,7.64,3.2,30.59,5.38,49.03.68,5.73,1.3,11.04,1.8,15.35,1.43,12.41,9.63,17.86,24.39,16.21,7.73-.87,18.19-2.33,29.26-3.88,16.86-2.36,35.96-5.03,50.22-6.26,1.8-.16,3.68-.25,5.58-.25Z"/>
</svg>