<?xml version="1.0" encoding="utf-8"?>
<!-- Generator: Adobe Illustrator 24.0.1, SVG Export Plug-In . SVG Version: 6.00 Build 0)  -->
<svg version="1.1" id="Cup_Historic_-_Config" xmlns="http://www.w3.org/2000/svg" xmlns:xlink="http://www.w3.org/1999/xlink"
	 x="0px" y="0px" viewBox="0 0 1920 1080" style="enable-background:new 0 0 1920 1080;" xml:space="preserve">
<style type="text/css">
	.st0{fill:#FFFFFF;}
</style>
<title>active</title>
<path class="st0" d="M1809.1,660.2c-0.3-7.2-0.5-13.9-0.6-19.4c-1.3-66-5-195.6-7.8-263.8c0-0.9-0.1-1.8-0.1-2.8
	c-0.3-12.7-0.7-34-37.7-44.6c-27.4-7.9-109.3-36.9-110.1-37.1l0,0c-31.7-11.1-80.2-26.7-127-41.8c-19.7-6.4-38.4-12.4-54.9-17.8
	c-44.9-14.6-68,4.4-83.3,16.9c-1.4,1.2-2.8,2.3-4.2,3.4c-6.5,5.1-16.7,14.2-24.8,21.5c-2.8,2.5-5.5,4.9-7.6,6.7
	c-43.1,37.9-72.1,25.3-102.7,12c-1.8-0.8-3.7-1.6-5.5-2.4c-26.8-11.5-51.6-15.7-68-18.5c-24.9-4.2-69-9.9-91.8-12.2
	c-45.1-4.5-64.3-3.2-86,1c-24.6,4.8-42.4,15.7-52.8,32.3c-18.3,29.2-8.1,68.1-4.3,82.7c11.8,44.9,4.4,71.4-2.1,94.9l-0.6,2.1
	c-7.4,26.6-19.4,47.5-36.7,63.6c-24.4,22.8-76.9,62.5-101.3,80.3c-37,27.1-56.5,27-73.6,27c-45.7-0.1-200.8-0.6-276.5-3.5
	c-49.9-1.9-72.4-17.1-94.1-31.7l-3-2c-42.9-28.9-124-84.3-167.9-114.5c-36.7-25.4-65.3-13-78.6,5.2c-8.8,12.1-10.2,26.7-3.8,41
	c4.9,11,13.5,20.1,20,24.9c50.2,37.4,141.7,104.1,188.3,137.2c39.9,28.4,122.9,87.4,168.8,111c31.5,16.2,57.9,22.1,80.2,22.1
	c29.4,0,51.7-10.3,69.6-21.3c56.4-34.6,87.7-44.5,117.3-52.3c77.2-20.4,143-16.5,185.7-11.7c41.9,4.7,97.2,29.1,133.8,45.3
	c4.3,1.9,8.4,3.7,12.2,5.4c53.1,23.2,80,26.9,111.1,25.7c60.6-2.4,82.1-22.7,101-40.6c3.9-3.7,7.5-7.1,11.5-10.4
	c28.7-23.9,61.5-33.5,97.4-28.6c6.6,0.9,16.1,2.4,26.1,4.1c11.8,1.9,24.1,3.9,32.2,4.9c55.6,7.1,73.2-4.5,91.9-16.6l1.5-1
	c18.8-12.2,31.3-11.6,43.5-11c1.2,0.1,2.4,0.1,3.5,0.2l0.3,0c0.4,0,43.5,0.3,62.3,2.6c10.8,1.3,19,3.1,41.4,17.6l1.8,1.1
	c12.6,8.2,28.3,18.3,38.3,24.3c9.4,5.6,29.3,11.3,45.5,3.8c7.9-3.6,18-11.8,21.1-30.2C1811.4,723.1,1810.1,688.2,1809.1,660.2z
	 M1787.9,742c-1.4,8-4.5,13-9.7,15.4c-8.2,3.8-20.8,0.8-26.8-2.8c-9.7-5.8-25.2-15.8-37.6-23.9l-1.8-1.1
	c-25.8-16.8-37-19.2-49.9-20.7c-19.5-2.4-60.9-2.7-64.4-2.7c-1,0-2.1-0.1-3.2-0.2c-13.2-0.7-31.2-1.6-55.4,14.2l-1.6,1
	c-16.8,11-30.1,19.7-78.4,13.6c-7.8-1-19.9-3-31.5-4.8c-10.2-1.7-19.8-3.2-26.6-4.1c-41.7-5.7-79.7,5.4-112.9,33
	c-4.4,3.7-8.5,7.5-12.4,11.3c-17.9,17-34.9,33-88,35.1c-24.5,0.9-47.7-0.2-102.3-24.1c-3.8-1.6-7.8-3.4-12.1-5.3
	c-37.7-16.7-94.6-41.9-139.6-46.9c-44.3-4.9-112.5-9-193,12.3c-31.2,8.2-64,18.6-122.7,54.6c-28.6,17.6-66.4,31.1-130.2-1.6
	c-44.6-22.9-129.9-83.6-166.3-109.5c-46.5-33.1-137.8-99.6-187.9-137c-0.3-0.2-25.4-19.7-12-38.1c2.6-3.5,9.7-11.3,22.4-11.3
	c7.5,0,17,2.8,28.7,10.8c43.9,30.3,125.1,85.7,168.1,114.6l2.9,2c21.8,14.7,48.8,33,104.5,35.2c76,2.9,231.4,3.5,277.2,3.6
	c23.6,0.1,46.3-2.2,85.5-30.8c24.7-18,78.1-58.4,103.2-81.9c20-18.7,33.8-42.6,42.2-72.8l0.6-2.1c6.9-24.6,15.4-55.2,2.2-105.4
	c-3.2-12.3-11.9-45.1,1.9-67c7.4-11.8,20.7-19.6,39.7-23.3c19.8-3.9,37.6-5.1,80.2-0.8c22.5,2.3,65.9,7.9,90.5,12
	c15.5,2.6,38.8,6.5,63.4,17.1c1.8,0.8,3.6,1.5,5.4,2.3c31.7,13.8,71.3,31,123.9-15.3c2.1-1.9,4.8-4.2,7.7-6.8
	c8-7.1,17.9-16,23.9-20.7c1.5-1.2,3-2.4,4.5-3.6c14.7-12.1,30-24.6,64.4-13.4c16.6,5.4,35.2,11.4,55,17.8
	c46.7,15.1,95,30.7,126.6,41.7c3.8,1.4,83.3,29.5,111.2,37.5c22.8,6.6,23,15.1,23.2,25.8c0,1.1,0,2.2,0.1,3.2
	c2.8,68.1,6.5,197.5,7.8,263.4c0.1,5.6,0.4,12.5,0.6,19.7C1790,686.6,1791.3,721.8,1787.9,742z"/>
</svg>
