<?xml version="1.0" encoding="UTF-8"?>
<svg id="willow_-_Active" data-name="willow - Active" xmlns="http://www.w3.org/2000/svg" viewBox="0 0 1920 1080">
  <defs>
    <style>
      .cls-1 {
        fill: #fff;
      }
    </style>
  </defs>
  <path class="cls-1" d="m1530.66,969.26c-26.4,0-50.79-6.97-72.67-20.81-51.28-32.42-382.33-231.74-439.78-265.92-32.34-19.24-105.08-64.58-163.53-101.01-37.46-23.34-69.81-43.5-79.47-49.27-14.33-8.55-43.26-22.28-76.09-18.22-19.93,2.47-46.93,13.24-62.93,36.04-23.71,33.78-44.68,64.82-68.96,100.77-18.9,27.98-40.33,59.7-65.65,96.49-13.68,19.87-32.84,34.84-56.96,44.47-21.71,8.68-46.93,12.56-72.93,11.25-63.33-3.21-120.82-35.5-146.45-82.25-25.71-46.89-32.78-92.5-20.44-131.89,11.81-37.69,41.46-69.28,85.75-91.35,94.17-46.93,157.84-80,219.76-114.15,20.94-11.55,32.89-29.04,32.79-47.97-.12-21.95-16.2-42.65-45.29-58.28-18.52-9.96-32.91-24.73-41.6-42.71-9.13-18.87-11.96-40.49-8.41-64.25,3.41-22.83,13.58-40.1,29.41-49.92,18.43-11.44,43.82-12.44,73.44-2.9,66.46,21.41,112.36,48.78,136.42,81.35,10.16,13.76,15.98,28.77,21.6,43.28,10.07,25.98,18.02,46.51,47.2,53.01,42.79,9.54,74.71-6.4,102.87-20.47,3.9-1.95,7.59-3.79,11.3-5.57,1.96-.94,3.95-1.91,5.99-2.9,31.09-15.16,73.66-35.92,144.22-9.09,43.89,16.69,96.36,37.12,142.65,55.14,28.04,10.92,54.53,21.23,74.39,28.87,49.68,19.11,102.95,33.48,214.86,46.06,48.89,5.5,92.13,17.54,128.53,35.79,31.23,15.66,51.2,32.71,63.5,44.16,6.61,6.16,29.82,28.87,51.06,62.62,21.83,34.68,33.75,68.38,35.44,100.17,3.51,66,7.48,140.81-8.42,193.11-16.32,53.69-49.94,95.27-97.23,120.26-27.58,14.58-54.63,23.14-80.4,25.45-4.71.42-9.36.63-13.94.63Zm-502.22-303.92c57.49,34.21,388.86,233.72,440.24,266.21,51,32.25,108.08,14.51,146.98-6.06,42.46-22.45,72.7-59.93,87.44-108.4,14.88-48.93,11-121.87,7.58-186.23-3.29-61.91-51.94-122.92-80.16-149.21-16.43-15.3-66.42-61.87-180.63-74.71-114.04-12.83-168.65-27.6-219.81-47.27-19.9-7.65-46.4-17.97-74.46-28.9-46.25-18.01-98.68-38.42-142.5-55.09-62.46-23.75-98.99-5.94-128.34,8.37-2.08,1.01-4.12,2.01-6.12,2.97-3.56,1.7-7.17,3.51-11,5.42-29.6,14.79-66.43,33.19-116.16,22.1-39.62-8.83-50.74-37.54-61.5-65.31-5.15-13.28-10.47-27.02-19.04-38.62-21.52-29.14-64.07-54.1-126.47-74.2-23.85-7.68-43.48-7.39-56.76.85-10.84,6.73-17.62,18.8-20.17,35.88-5.71,38.27,8.76,69.76,39.71,86.39,35.84,19.27,55.66,46.18,55.82,75.79.14,26.1-15.98,50.62-43.13,65.59-62.18,34.3-126.06,67.48-220.5,114.54-39.87,19.87-65.3,46.59-75.58,79.43-10.67,34.08-4.14,74.29,18.89,116.3,22.37,40.81,73.37,69.03,129.93,71.9,49.11,2.5,90.09-14.67,112.4-47.09,25.27-36.72,46.67-68.4,65.55-96.35,24.34-36.03,45.36-67.14,69.16-101.06,16.79-23.92,45.51-40.52,76.84-44.4,38.76-4.81,72.27,11.03,88.8,20.89,9.83,5.87,40.7,25.11,79.79,49.47,58.37,36.38,131.02,81.66,163.18,100.79Z"/>
</svg>