<?xml version="1.0" encoding="utf-8"?>
<!-- Generator: Adobe Illustrator 24.0.1, SVG Export Plug-In . SVG Version: 6.00 Build 0)  -->
<svg version="1.1" id="Chicane__Config" xmlns="http://www.w3.org/2000/svg" xmlns:xlink="http://www.w3.org/1999/xlink" x="0px"
	 y="0px" viewBox="0 0 1920 1080" style="enable-background:new 0 0 1920 1080;" xml:space="preserve">
<style type="text/css">
	.st0{fill:#FFFFFF;}
</style>
<title>active</title>
<path class="st0" d="M1596.3,624.5c-17.9-18.2-41.9-31.9-73.2-41.7c-25.8-8.1-64.6-18.6-118.5-32.2c-11-2.8-50.4-9.9-93,14.2
	c-17.1,9.7-36.9,21.2-56.5,35.4c-0.8,0.6-1.8,1.3-2.8,2.1c-12.6,9.8-14.2,7.7-16.3,5c-0.6-0.7-1.3-1.7-2-2.8
	c-5.3-7.8-16.4-24.1-41.5-19.5l0,0c-62.2,11.5-104.1-1.9-128.3-15.1c-74.9-40.9-93.6-45.5-129-51.9c-33.3-5.9-67.3-7.7-101.1-5.3
	c-18.8,1.4-47.4,4.7-75.2,7.8c-21.2,2.4-41.2,4.7-56.3,6.1c-28.2,2.6-35.3-17.4-37-26.1c-2.3-11.7-1.1-21.1,3.7-27.9
	c6.5-9.4,18.5-12.6,25.1-13.7c9.1-1.5,21.8-2.9,35.3-4.4c24-2.7,51.3-5.8,68.7-10.3c48.8-12.6,53-46.4,55.6-66.7
	c0.1-1.1,0.3-2.2,0.4-3.3c6.6-50,14-68.5,26-86.8c7.6-11.5,17.8-26.3,28.6-42c20.4-29.6,43.5-63.1,59.4-89.6
	c24.1-40,6.2-69-6.5-82.7c-11.8-12.7-27.6-19.1-44.4-17.9c-15.6,1.1-31.1,9-38.4,19.6c-18.1,26.2-37.8,54.7-58.6,84.7
	C693.2,343.4,519,595.1,408.7,761.7c-52.2,78.9-12.3,165,16.1,199.5c27.6,33.6,75.7,50.3,96.2,57.4c25.6,8.9,70.7,19,94.4,19.2
	c0.6,0,1.1,0,1.7,0c27.7,0,49-7.2,63.4-21.5c19.3-19.1,21.5-45.7,21.5-64.1c0-32.3,1.7-78.4,3.5-127.1c1.9-51.9,3.9-105.6,3.6-141.4
	c-0.3-38.8,16.8-42.9,24.9-44.8c22.9-5.5,36.5,7.8,39.7,17.5c2.2,6.7,6.1,19.4,7.4,25.6c2,9.4,7,14.2,10.8,16.6
	c9.6,6,21.1,3,27.2,1.4l0.9-0.2c62.4-15.9,102.6-25,134.3-30.4c95-16,138.7-15.9,190-14.1c74.3,2.7,99.1,7.7,127.9,13.6
	c5.5,1.1,11.2,2.3,17.3,3.4c57.5,10.9,92.4,19.2,123.6,34.7c22.7,11.2,33.3,32.3,33.6,43.7c0.8,30.4-26,48.6-45.3,51.8
	c-37.1,6.2-70.3,6-99.5,5.8c-4.7,0-9.3-0.1-13.8-0.1c-23.9,0-47.4,2.8-66.3,7.7c-23.1,6.1-37.9,16.6-43.8,31.1
	c-6.6,16.1,0.4,30.7,3.7,36.2c41.1,68.5,120.8,122,193.8,130.1c22.5,2.5,41.4-8.4,50.8-18.6c18.2-19.6,40-47.9,52.2-65.7
	c11.4-16.7,17.2-24.7,23.7-31.2c18-18,34.7-33.4,49.5-47.1c15.6-14.4,29.1-26.9,40-38.5c23.5-25.2,38.5-54.7,40.3-79
	C1635.3,688.5,1623.3,651.8,1596.3,624.5z M1612,732c-1.4,19.6-14.8,45.2-35,66.8c-10.3,11.1-23.6,23.3-38.9,37.5
	c-14.9,13.8-31.8,29.4-50,47.6c-7.6,7.6-13.9,16.3-26.1,34c-11.8,17.2-32.8,44.5-50.3,63.4c-5,5.4-17.8,14-33.9,12.3
	c-67.2-7.5-140.8-57-178.9-120.5c-1.7-2.9-5.5-10.6-2.3-18.4c3.4-8.3,13.9-14.9,30.4-19.3c10-2.6,31.2-7.1,61.1-7.1
	c4.5,0,9.1,0,13.7,0.1c30.1,0.2,64.1,0.4,102.9-6.1c15.3-2.6,30.6-10.6,42-22.1c13.6-13.8,20.5-31,20-49.9
	c-0.5-19.6-16-47-44.7-61.2c-33.4-16.5-69.5-25.2-128.8-36.4c-6-1.1-11.6-2.3-17-3.4c-28.4-5.8-55.2-11.2-131.1-14
	c-52.5-1.9-97.2-2-194,14.4c-32.7,5.5-72.1,14.4-135.9,30.7l-1,0.3c-2.8,0.7-9.3,2.4-11.6,1c-1-0.6-1.6-2.8-1.7-3.7
	c-1.5-7.3-5.7-20.9-8-27.7c-5.5-16.5-27.5-39.4-63.4-30.7c-27.3,6.6-40.5,27.7-40.3,64.4c0.3,35.4-1.7,88.8-3.6,140.5
	c-1.8,48.9-3.5,95.2-3.5,127.9c0,14.8-1.6,36.1-15.6,49.9c-10.7,10.6-27.8,15.9-50.8,15.7c-21.2-0.2-64-9.7-88.1-18.1
	c-18.9-6.6-63.2-22-87.3-51.3c-25.2-30.5-60.7-106.5-14.9-175.7c110.2-166.4,284.3-418,411.5-601.7c20.8-30.1,40.5-58.5,58.6-84.7
	c3.3-4.8,12.6-10.2,23.4-11c0.8-0.1,1.7-0.1,2.6-0.1c7.3,0,17,2.3,25.7,11.6c15.9,17.1,17.2,36.8,4,58.8
	c-15.6,26-38.5,59.3-58.7,88.6c-10.9,15.8-21.1,30.6-28.8,42.4c-13.7,20.9-21.9,41.3-29.1,95.2c-0.2,1.1-0.3,2.3-0.4,3.5
	c-2.4,19-5.1,40.6-40.7,49.8c-16.1,4.2-42.6,7.1-65.9,9.8c-13.7,1.5-26.7,3-36.3,4.6c-9.7,1.6-27.6,6.5-38.3,22
	c-7.9,11.4-10.3,25.9-6.9,43.2c1.3,6.4,4.9,18.7,15.1,28.6c7.5,7.3,21.1,15.6,43.4,13.5c15.3-1.4,35.4-3.7,56.7-6.2
	c27.5-3.2,56-6.4,74.3-7.7c32.1-2.2,64.5-0.5,96.2,5.1c31.8,5.8,47.7,8.6,122.9,49.7c38.8,21.2,87.8,27.1,141.6,17.2
	c11.4-2.1,15.7,2.8,21.3,11.1c0.9,1.4,1.8,2.7,2.8,3.9c6.9,8.8,16.5,11.9,26.9,8.7c7.2-2.2,13.4-7,17.5-10.2
	c0.8-0.7,1.6-1.2,2.3-1.7c18.7-13.6,38-24.8,54.6-34.2c36.1-20.5,69-14.5,78.3-12.2c53.5,13.4,91.9,23.8,117.4,31.8
	C1585.8,623.4,1616.9,666,1612,732z"/>
</svg>
