<?xml version="1.0" encoding="utf-8"?>
<!-- Generator: Adobe Illustrator 24.0.1, SVG Export Plug-In . SVG Version: 6.00 Build 0)  -->
<svg version="1.1" id="National__Config" xmlns="http://www.w3.org/2000/svg" xmlns:xlink="http://www.w3.org/1999/xlink" x="0px"
	 y="0px" viewBox="0 0 1920 1080" style="enable-background:new 0 0 1920 1080;" xml:space="preserve">
<style type="text/css">
	.st0{fill:#FFFFFF;}
</style>
<title>active</title>
<path class="st0" d="M1234.5,616.3c-1.7-13.7-8.1-21.3-13.3-25.2c-7.3-5.6-17.1-8-26.9-6.6c-9.1,1.3-35.9,4.4-36.2,4.4
	c-48.5,5.7-93.4-18.7-93.8-19l-0.1-0.1c-75.8-41.1-94.3-45.6-129-51.8c-33.3-5.9-67.3-7.7-101.1-5.3c-18.8,1.4-47.4,4.7-75.2,7.8
	c-21.2,2.4-41.2,4.7-56.3,6.1c-28.2,2.6-35.3-17.4-37-26.1c-2.3-11.7-1.1-21.1,3.6-27.9c6.5-9.4,18.6-12.6,25.2-13.7
	c9.1-1.5,21.8-2.9,35.3-4.4c24-2.7,51.3-5.8,68.7-10.3c48.8-12.6,53.1-46.5,55.6-66.7c0.1-1.1,0.3-2.2,0.4-3.3
	c6.6-50,14-68.4,26-86.8c7.5-11.3,17.5-25.9,28.1-41.3c20.5-29.8,43.8-63.5,59.8-90.3c24-40.1,6.2-69.1-6.6-82.8
	c-11.8-12.7-27.6-19.1-44.4-17.9c-15.6,1.1-31.1,9-38.4,19.6c-18.7,27-39,56.3-60.4,87.4c-126.7,183-300.1,433.7-409.9,599.5
	c-52.1,78.8-12.2,164.9,16.1,199.5c27.6,33.6,75.7,50.3,96.2,57.4c25.6,8.9,70.7,19,94.4,19.2c0.6,0,1.1,0,1.7,0
	c27.7,0,49-7.2,63.4-21.5c19.3-19.1,21.5-45.7,21.5-64.1c0-32.3,1.7-78.2,3.5-126.8c1.9-52,3.9-105.8,3.6-141.7
	c-0.3-38.8,16.8-42.9,24.9-44.8c22.9-5.5,36.5,7.8,39.7,17.5c2.2,6.7,6.1,19.4,7.4,25.6c2,9.4,7,14.2,10.8,16.6
	c9.6,6,21.1,3,27.2,1.4l0.9-0.2c63.3-16.1,102.2-24.9,134.3-30.3c99.7-16.8,143.3-16.4,189.8-14.1c2.2,0.1,4.9,0.3,7.7,0.4
	c14.6,0.8,34.5,2,46,1.5c15.5-0.6,24.1-7.1,28.7-12.5C1232.8,637.4,1235.8,626.8,1234.5,616.3z M1211.3,631.8
	c-2.8,3.3-7.6,5.2-14.2,5.4c-10.5,0.4-30.7-0.8-44-1.5c-2.9-0.2-5.6-0.3-7.8-0.4l0,0c-47.8-2.4-92.4-2.8-194.2,14.3
	c-32.7,5.5-72,14.4-135.9,30.7l-1,0.3c-2.8,0.7-9.3,2.4-11.6,1c-1-0.6-1.6-2.8-1.7-3.7c-1.5-7.3-5.7-20.9-8-27.7
	c-5.4-16.5-27.5-39.3-63.4-30.7c-27.3,6.6-40.5,27.7-40.3,64.4c0.3,35.4-1.7,89-3.6,140.8c-1.8,48.8-3.5,94.9-3.5,127.6
	c0,14.8-1.6,36.1-15.6,49.9c-10.7,10.6-27.8,15.9-50.8,15.7c-21.2-0.2-64-9.7-88.1-18.1c-18.9-6.6-63.2-22-87.3-51.2
	c-25.1-30.6-60.6-106.7-14.9-175.7C535,607.1,708.4,356.6,835,173.6c21.5-31,41.8-60.4,60.4-87.4c3.3-4.8,12.6-10.2,23.4-11
	c0.8-0.1,1.7-0.1,2.6-0.1c7.3,0,17,2.3,25.7,11.6c15.9,17.1,17.2,36.9,4.1,58.9c-15.7,26.2-38.8,59.7-59.1,89.3
	c-10.7,15.5-20.8,30.1-28.4,41.7c-13.7,20.9-22,41.4-29.1,95.2c-0.1,1.1-0.3,2.3-0.4,3.4c-2.4,19-5.1,40.6-40.7,49.8
	c-16.1,4.2-42.6,7.1-65.9,9.8c-13.7,1.5-26.7,3-36.3,4.6c-9.7,1.6-27.6,6.5-38.4,22c-7.9,11.4-10.2,25.9-6.8,43.2
	c1.3,6.4,4.9,18.7,15.1,28.6c7.5,7.3,21.1,15.6,43.4,13.5c15.3-1.4,35.4-3.7,56.7-6.2c27.5-3.2,56-6.4,74.3-7.7
	c32.1-2.2,64.5-0.5,96.2,5.1c31.1,5.6,46.7,8.4,122.9,49.7c2.5,1.4,41.2,22.3,88.2,22.3c5.8,0,11.7-0.3,17.6-1
	c1.1-0.1,27.4-3.1,36.7-4.5c1.7-0.2,7.5-0.8,11.9,2.7c3.1,2.3,4.9,6.3,5.6,11.8C1215.1,622.6,1214.5,628.1,1211.3,631.8z"/>
</svg>
