<?xml version="1.0" encoding="UTF-8"?>
<svg id="a" data-name="EXAMPLE - Active" xmlns="http://www.w3.org/2000/svg" viewBox="0 0 1920 1080">
  <defs>
    <style>
      .b {
        fill: #fff;
        stroke-width: 0px;
      }
    </style>
  </defs>
  <path class="b" d="m652.2,830.13h-.19c-3.3-.1-81.32-2.55-118.19-19.12-35.35-15.89-126.56-63.63-130.43-65.65l-.73-.38-.66-.49c-3.66-2.76-35.42-27.71-25.04-54.3,8.27-21.19,25.5-31.02,36.91-37.52,1.41-.8,2.75-1.57,4-2.31,8.52-5.08,37.12-23.21,47.77-43.47,4.55-8.66,16.27-33.06,28.67-58.89,24.3-50.62,41.93-87.12,47.38-95.64,11.18-17.46,33.12-35.15,48.51-44.99,6.51-4.16,30.55-18.67,58.39-35.48,44.85-27.07,106.27-64.14,114.86-70.39,13.13-9.54,27.16-22.25,27.32-52.5.19-35.01,3.26-82.34,3.29-82.82.07-1.16.91-11.89,7.48-22.75,6.37-10.52,19.23-22.97,44.29-22.55,20.81.35,38.08,5.96,51.33,16.68,11.83,9.57,19.92,22.99,23.39,38.79,5.67,25.84,14.07,105,14.42,108.35.08.68,2.13,19.18-2.75,41.42-6.64,30.25-22.94,53.05-47.13,65.94-50.52,26.92-269.57,144.94-284.33,152.9-9.63,7.69-32.56,29.9-32.61,48.26-.06,22.67,3.81,40.5,53.16,46.62,53.2,6.59,156.21,13.75,157.25,13.82l.5.05c1.49.17,37.98,3.7,62.94-32.61,28.58-41.58,176.86-261.38,178.36-263.6l.26-.37c.84-1.13,21.14-27.73,77.95-41.27,53.43-12.74,164.51-36.1,165.62-36.33l.14-.03c.5-.1,12.51-2.38,26.87-.18,19.98,3.06,35.12,13.17,43.79,29.25,16.91,31.38-6.5,61.74-21.23,73.41l-316.96,249.73c-3.47,3.81-29.5,33.45-16.45,51.53,15.74,21.82,31.14,36.73,73.49,14.2,44.62-23.74,202.36-118.78,209.49-123.07,1.28-.91,17.73-13.09,34.09-45.59,17.78-35.31,36.16-71.82,78.36-86.91,19.16-6.85,41.38-4.96,64.24,5.49,17.48,7.99,34.97,21.06,46.8,34.98,19.35,22.78,50.74,62.32,51.05,62.72l.61.77.45.88c1.81,3.52,43.86,86.89,4.38,138.43-35.82,46.77-93.44,101.41-96.91,104.69-2.54,2.49-31.02,29.08-89.64,32.4-56.62,3.21-269.68,4.34-279.1,4.39l-425.47,3.54Zm-238.75-102.08c9.14,4.78,95.46,49.84,128.57,64.72,32.46,14.59,106.24,17.22,110.4,17.36l425.12-3.54c2.21-.01,221.94-1.18,278.1-4.36,52.01-2.95,76.53-26.48,76.77-26.71l.19-.18c.59-.56,59.67-56.46,94.84-102.38,29.98-39.14-1.86-108-5.89-116.32-4.62-5.81-32.38-40.67-49.96-61.37-17.98-21.16-57.5-45.87-89.06-34.59-32.26,11.54-47.57,38.01-67.23,77.07-19.66,39.06-40.21,52.82-41.08,53.39l-.32.2c-6.71,4.04-164.76,99.32-210.66,123.74-18.03,9.59-32.9,13.55-45.44,13.55-24.83,0-40.56-15.53-53.67-33.71-23.91-33.15,16.97-75.79,18.72-77.59l.46-.47.52-.41,317.54-250.19c1.16-.93,29.19-23.8,16.02-48.23-13.52-25.09-47.69-19.2-49.17-18.93-3.81.8-112.5,23.67-165,36.19-47,11.21-64.93,31.81-66.48,33.69-6.41,9.5-150.11,222.51-178.25,263.43-31.02,45.13-76.9,41.64-81.5,41.17-5.1-.36-105.51-7.39-158.14-13.91-28-3.47-46.27-10.98-57.52-23.63-11.75-13.21-13.22-29.86-13.18-42.89.09-31.83,36.78-61.25,40.96-64.5l.66-.51.73-.4c2.33-1.25,233.12-125.61,285.18-153.35,18.98-10.11,31.39-27.62,36.88-52.02,4.29-19.07,2.55-35.35,2.53-35.51-.09-.89-8.64-81.49-14.07-106.24-3.19-14.56-14.65-39.08-55.52-39.76-12.44-.21-21.1,3.84-26.52,12.38-4.36,6.86-4.97,14.2-4.97,14.27-.03.43-3.06,47.17-3.25,81.58-.2,37.81-18.09,55.88-35.56,68.58-8.6,6.25-55.66,34.74-116.28,71.33-27.72,16.73-51.66,31.18-57.95,35.21-17.74,11.35-34.8,26.99-42.44,38.92-5.22,8.15-27.94,55.48-46.2,93.51-13.02,27.13-24.27,50.56-28.99,59.54-12.72,24.2-42.86,43.96-55.23,51.34-1.35.81-2.81,1.64-4.34,2.51-10.02,5.71-22.48,12.82-28.18,27.41-4.13,10.6,12.18,26.11,17.85,30.6Z"/>
</svg>