<?xml version="1.0" encoding="utf-8"?>
<!-- Generator: Adobe Illustrator 26.3.1, SVG Export Plug-In . SVG Version: 6.00 Build 0)  -->
<svg version="1.1" id="IRL_-_Config" xmlns="http://www.w3.org/2000/svg" xmlns:xlink="http://www.w3.org/1999/xlink" x="0px"
	 y="0px" viewBox="0 0 1920 1080" style="enable-background:new 0 0 1920 1080;" xml:space="preserve">
<style type="text/css">
	.st0{fill:#FFFFFF;}
</style>
<path class="st0" d="M560.1,833.4c-25.5,0-52.3-7.8-81.6-23.6c-32-17.3-73.4-41.8-98.3-58.2c-1.4-0.9-4.1-2.6-7.4-4.7
	c-47.6-30.2-103.5-67.8-114.1-89.5c-5.9-12.2-3-20.6,0.4-25.5c11.7-16.7,45.4-13.6,49.2-13.2c21.3,2.2,58.8,10.8,83.7,16.5
	c3.8,0.9,7.3,1.7,10.3,2.4c10.9,2.4,37.1,3.2,46.3,3.3l0.3,0c75.3,2.9,230.7,3.5,276.5,3.5c17.2,0,36.6,0.1,73.6-27
	c24.4-17.8,76.9-57.5,101.3-80.3c17.2-16.2,29.2-37,36.7-63.6l0.6-2.1c6.6-23.4,14-50,2.2-94.9c-3.9-14.6-14.1-53.4,4.3-82.7
	c10.4-16.6,28.2-27.5,52.8-32.3c21.7-4.2,41-5.6,86-1c22.7,2.3,66.8,8,91.8,12.2c15.3,2.6,40.9,6.9,67.9,18.4
	c1.8,0.8,3.7,1.6,5.5,2.4c30.7,13.3,59.6,25.9,102.7-12c2.1-1.8,4.7-4.1,7.5-6.6c8.2-7.3,18.4-16.5,24.9-21.6
	c1.4-1.1,2.8-2.2,4.2-3.4c15.3-12.6,38.5-31.6,83.3-16.9c16.5,5.4,35.1,11.4,54.8,17.7c46.9,15.1,95.4,30.8,127.1,41.9
	c10,3.5,23.7,13,29.7,28.5c3.6,9.4,5.8,24.7-4.8,44.4c-20.1,37.4-70.4,97.6-85.3,115.1c-15.7,18.4-43.5,42.7-87.1,54
	c-25.2,6.5-52.3,11.2-105.9-2.8c-36.4-9.5-95.1-31.9-142.2-49.8c-17.3-6.6-33.6-12.8-46.2-17.4c-17.8-6.5-47.3-7.3-73.2,5.4
	c-23.6,11.6-40.3,32.1-49.5,60.9c-8.1,25.3-1.9,58.3,15.7,84.1c14,20.5,41.1,45.7,90.6,49c85.6,5.6,189,6.5,257.3,2.2
	c7.9-0.5,17.9-2,34.6-5.3c4.5-1,134.9-29.2,178.6-38.4c8.2-1.7,19.4-4,31.3-6.3c21-4.2,44.9-8.9,59.1-12.3
	c8.2-1.9,23.7-3.8,36.1,5.1c9,6.5,14.3,17,15.7,31.3c1.3,13.6,1.4,40.6,1,54.6c-0.1,3.2,0,7.4,0,12c0.2,15,0.5,31.9-3,42.6
	c-4.1,12.6-12.5,21.5-24.2,25.8c-14.5,5.3-31.6,2.1-41-3.8c-1.3-0.8-2.7-1.7-4.3-2.7c-10.5-6.5-26.3-16.4-34.4-22.8
	c-17.4-13.4-25.9-16.4-34.2-16.9c-13.1-0.8-36.1-1.5-54.5-2.1c-6-0.2-11.4-0.4-15.8-0.5c-1.3,0-2.5-0.1-3.8-0.2
	c-12.1-0.6-24.6-1.2-43.3,11l-1.5,1c-18.7,12.2-36.3,23.7-91.8,16.6c-8.1-1-20.3-3-32.1-4.9c-10.1-1.6-19.6-3.2-26.2-4.1
	c-35.9-4.9-68.7,4.7-97.4,28.6c-3.9,3.3-7.6,6.7-11.5,10.4c-18.9,17.9-40.3,38.2-101,40.6l-0.3,0l-0.3,0c-2.3,0-226.6-3.6-301.1-6.1
	c-7-0.2-16.5-0.7-26.4-1.1c-21.3-0.9-45.4-2-59.8-2c0,0-0.1,0-0.1,0l-0.6,0c-7.5,0-30.1,0.1-30.9-30.8c0-1.5,0-3.1,0-4.7
	c0.1-6.6,0.2-15.6-3.9-19c-3.2-2.7-10.3-3-19.8-0.9c-31.4,6.9-60.6,17.6-116.9,52.2c-12.9,7.9-33.2,18.7-60.4,20.4
	C565.4,833.3,562.8,833.4,560.1,833.4z M298.6,638.1c-10.7,0-21,2.1-23.1,5.2c-0.5,0.7,0,2.8,1.2,5.3c4.3,8.9,26.4,30.1,106.8,81.3
	c3.5,2.3,6.1,3.9,7.7,4.9c24.5,16.2,65.2,40.3,96.8,57.3c64,34.6,103.1,20,130,3.5c58.7-36.1,89.6-47.4,123.1-54.7
	c16.3-3.6,28.3-2,36.7,4.9c11.6,9.5,11.4,25.3,11.3,34.8c0,1.5,0,2.8,0,3.9c0.3,11.3,3.4,11.3,10.9,11.3l0.6,0c0,0,0.1,0,0.1,0
	c14.9,0,39.2,1.1,60.7,2c9.9,0.4,19.3,0.9,26.2,1.1c73.1,2.5,291.4,6,300.4,6.1c52.9-2.1,69.8-18.1,87.7-35.1
	c3.9-3.7,8-7.6,12.4-11.3c33.2-27.6,71.2-38.7,112.9-33c6.8,0.9,16.5,2.5,26.7,4.2c11.6,1.9,23.7,3.8,31.5,4.8
	c48.3,6.1,61.6-2.6,78.4-13.5l1.6-1c24.1-15.7,42-14.8,55.1-14.2c1.2,0.1,2.4,0.1,3.6,0.2c4.3,0.2,9.8,0.3,15.7,0.5
	c18.6,0.6,41.7,1.4,55.1,2.2c14,0.8,26.7,6.7,45.2,21c7.4,5.7,22.7,15.3,32.8,21.6c1.6,1,3,1.9,4.3,2.7c4.3,2.7,14.7,5.1,23.5,1.9
	c5.9-2.2,9.9-6.5,12-13.2c2.4-7.5,2.2-24.1,2-36.1c-0.1-4.7-0.1-9.2,0-12.8l0,0c0.4-14,0.2-39.9-1-52.1c-0.8-8.3-3.3-14-7.4-16.9
	c-6.2-4.4-16-2.8-19.9-1.9c-14.6,3.4-38.6,8.2-59.8,12.4c-11.8,2.4-23,4.6-31.1,6.3c-44.2,9.3-177.3,38.1-178.6,38.4l-0.2,0
	c-17.9,3.5-28.3,5-37.3,5.6c-69,4.3-173.4,3.4-259.8-2.2c-44.9-2.9-82.5-23.4-105.9-57.7c-21-30.7-28.1-70.6-18.2-101.5
	c10.8-33.7,31.4-58.9,59.7-72.8c33.3-16.3,68.6-13.6,88.8-6.3c12.8,4.6,29.2,10.9,46.5,17.5c46.7,17.8,104.8,39.9,140.2,49.1
	c49,12.8,72.4,8.8,95.9,2.8c38.5-10,63.1-31.4,76.9-47.6c30.1-35.4,67.7-83.2,82.9-111.6c5.6-10.4,6.8-19.7,3.8-27.7
	c-3.8-9.7-13.2-15.3-17.7-16.8c-31.5-11-79.9-26.6-126.7-41.7c-19.7-6.4-38.4-12.4-54.9-17.8c-34.4-11.2-49.7,1.3-64.4,13.4
	c-1.5,1.3-3,2.5-4.5,3.6c-6,4.8-16,13.7-24,20.8c-2.9,2.6-5.5,4.9-7.6,6.7c-52.7,46.3-92.2,29.1-123.9,15.3
	c-1.8-0.8-3.6-1.6-5.4-2.3c-24.9-10.6-48-14.5-63.4-17.1c-24.6-4.1-68-9.8-90.5-12c-42.6-4.3-60.4-3.1-80.2,0.8
	c-19,3.7-32.3,11.6-39.7,23.3c-13.7,21.9-5.1,54.7-1.9,67c13.2,50.1,4.7,80.8-2.2,105.4l-0.6,2.1c-8.4,30.3-22.3,54.1-42.2,72.8
	c-25,23.5-78.4,63.8-103.2,81.9c-39.1,28.6-61.9,30.8-85.5,30.8c-45.9-0.1-201.5-0.6-277.1-3.6c-2.8,0-35.6-0.5-50.4-3.8
	c-3.1-0.7-6.6-1.5-10.4-2.4c-24.4-5.6-61.3-14-81.4-16.1C303.7,638.2,301.1,638.1,298.6,638.1z"/>
</svg>
