<?xml version="1.0" encoding="UTF-8"?>
<svg id="a" data-name="Oval - Active" xmlns="http://www.w3.org/2000/svg" viewBox="0 0 1920 1080">
  <defs>
    <style>
      .b {
        fill: #fff;
        stroke-width: 0px;
      }
    </style>
  </defs>
  <path class="b" d="m1067.62,658.32h-.26c-57.07-1.49-144.91-7.55-239.27-28.04-2.61-.57-5.38-1.16-8.3-1.77-35.58-7.55-89.36-18.95-132.85-49.79l-.55-.39-12.77-11.91c-43.07-40.17-65.87-96.93-62.55-155.74,3.32-58.8,32.36-112.64,79.68-147.71,34.09-25.27,74.54-38.7,116.97-38.86l259.91-.77,259.84.77c42.44.16,82.89,13.6,116.98,38.86,47.32,35.07,76.36,88.91,79.68,147.71,3.32,58.8-19.48,115.57-62.55,155.74l-12.77,11.91-.55.39c-43.49,30.83-97.26,42.24-132.84,49.78-2.92.62-5.69,1.21-8.3,1.77-94.35,20.49-182.19,26.56-239.27,28.03h-.26Zm-368.56-95.53c40.03,28.16,91.07,38.98,124.89,46.15,2.95.63,5.76,1.22,8.4,1.79,92.69,20.13,179.06,26.11,235.28,27.58,56.22-1.47,142.59-7.45,235.28-27.58,2.64-.57,5.45-1.17,8.4-1.79,33.82-7.17,84.85-18,124.89-46.15l11.78-10.99c38.71-36.11,59.21-87.13,56.22-139.98-2.98-52.85-29.09-101.25-71.62-132.77-30.64-22.71-67-34.79-105.14-34.93l-259.81-.77-259.81.77c-38.13.14-74.49,12.22-105.13,34.93-42.53,31.52-68.64,79.91-71.62,132.77-2.98,52.85,17.51,103.88,56.22,139.98l11.78,10.99Z"/>
</svg>