<?xml version="1.0" encoding="UTF-8"?>
<svg id="a" data-name="Dirt - Active" xmlns="http://www.w3.org/2000/svg" viewBox="0 0 1920 1080">
  <defs>
    <style>
      .b {
        fill: #fff;
        stroke-width: 0px;
      }
    </style>
  </defs>
  <path class="b" d="m288.85,818.4c-5.89,0-11.78-.49-17.66-1.49-33.75-3.99-63.83-19.61-84.72-44-21.16-24.7-32.08-57.55-30.76-92.5,2.55-67.29,10.19-188.09,32.76-241.16,39.03-91.77,109.73-117.22,158.42-111.12,33.53,3.9,60.16,20.91,76.92,49.18,14.99,25.29,20.99,58.66,16.91,93.98-.8,9.27-15.75,181.58-27.97,240.01-5.83,27.88-23.6,56.74-47.53,77.2-22.9,19.59-49.48,29.89-76.37,29.89Zm44.03-471.12c-40.92,0-94.42,25.54-126,99.8-22.11,51.99-29.17,181.02-31.18,234.09-2.32,61.25,38.01,108.92,98.08,115.91l.54.08c26.85,4.63,54.51-3.84,77.9-23.84,20.37-17.43,36.07-42.76,40.95-66.1,12.05-57.6,27.48-235.98,27.63-237.77l.03-.3c3.61-31.06-1.44-60.04-14.23-81.62-13.45-22.69-34.93-36.36-62.11-39.52-3.73-.47-7.61-.71-11.61-.71Z"/>
</svg>