<?xml version="1.0" encoding="UTF-8"?>
<svg id="a" data-name="Legends - Active" xmlns="http://www.w3.org/2000/svg" viewBox="0 0 1920 1080">
  <defs>
    <style>
      .b {
        fill: #fff;
        stroke-width: 0px;
      }
    </style>
  </defs>
  <path class="b" d="m1067.4,656.89c-11.14,0-22.29-.45-33.35-1.36l-78.15-6.4c-33.89-3-62.61-27.03-71.52-59.8-9.27-34.11,4.34-70.07,33.88-89.49l5.36-3.52c13.33-8.76,28.8-13.39,44.75-13.39h75.2l-.08-.08h123.28c15.95,0,31.43,4.63,44.75,13.39l5.36,3.52c29.54,19.41,43.16,55.38,33.88,89.49-8.91,32.77-37.62,56.8-71.45,59.79l-78.29,6.46c-11.16.92-22.4,1.38-33.63,1.38Zm-99.02-153.96c-12.04,0-23.71,3.49-33.77,10.1l-5.36,3.52c-22.29,14.65-32.57,41.78-25.57,67.52,6.72,24.73,28.39,42.86,53.92,45.12l78.08,6.39c21.13,1.73,42.57,1.72,63.7-.02l78.23-6.46c25.47-2.25,47.14-20.39,53.86-45.12,7-25.74-3.28-52.88-25.57-67.52l-5.36-3.52c-10.06-6.61-21.74-10.1-33.77-10.1h-75.2l.08.08h-123.28Z"/>
</svg>