<?xml version="1.0" encoding="UTF-8"?>
<svg id="a" data-name="Dirt Mini - Active" xmlns="http://www.w3.org/2000/svg" viewBox="0 0 1920 1080">
  <defs>
    <style>
      .b {
        fill: #fff;
        stroke-width: 0px;
      }
    </style>
  </defs>
  <path class="b" d="m323.31,705.04c-2.64,0-5.29-.15-7.95-.46h0l-7.99-.93c-17.94-2.09-34-11.04-45.22-25.21-11.21-14.17-16.24-31.85-14.15-49.8l11.69-100.44c4.31-37.05,37.96-63.67,75.01-59.37l7.99.93c17.95,2.09,34.01,11.04,45.22,25.21,11.21,14.17,16.24,31.85,14.15,49.8l-11.69,100.44c-2.09,17.95-11.04,34-25.21,45.22-12.07,9.55-26.69,14.61-41.85,14.61Zm-5.64-20.33c12.64,1.47,25.1-2.07,35.07-9.97,9.98-7.9,16.28-19.21,17.75-31.85l11.69-100.44c1.47-12.64-2.07-25.1-9.97-35.07-7.9-9.98-19.21-16.28-31.85-17.75l-7.99-.93c-26.09-3.03-49.79,15.72-52.83,41.81l-11.69,100.44c-1.47,12.64,2.07,25.1,9.97,35.07,7.9,9.98,19.21,16.28,31.85,17.75l7.99.93h0Z"/>
</svg>