<?xml version="1.0" encoding="utf-8"?>
<!-- Generator: Adobe Illustrator 28.0.0, SVG Export Plug-In . SVG Version: 6.00 Build 0)  -->
<svg version="1.1" id="a" xmlns="http://www.w3.org/2000/svg" xmlns:xlink="http://www.w3.org/1999/xlink" x="0px" y="0px"
	 viewBox="0 0 1920 1080" style="enable-background:new 0 0 1920 1080;" xml:space="preserve">
<style type="text/css">
	.st0{fill:#FFFFFF;}
</style>
<path id="active" class="st0" d="M1437.1,957.9c-3.2,0-6.1-0.1-8.6-0.2c-55.4-1.6-140.1-8.7-226.6-18.9c-16.2-0.1-29.8-5-39.3-14.2
	c-10.1-9.8-12.6-21.1-16.5-41.8c-3.1-16.4-5.1-28.5-6.6-37.3c-3.1-18.7-3.8-22.4-7-26.7c-7.1-9.5-20.9-15.1-41.1-16.7l-0.6-0.1
	c-23.8-3.3-47.9-6.9-71.8-10.6c-60.3-9.3-121.3-20-181.2-31.7c-19.7-3.1-37.7-12.2-50.6-25.6c-13-13.4-19.9-29.8-19.6-46.3
	c0.4-20.4,12-40.8,29.7-51.8c23.1-14.5,48.3-8.1,64.9-3.9c19.4,5,33.9,13.9,60.1,30.7c8.3,5.3,14.5,9.7,19.5,13.3
	c10.1,7.2,15.2,10.8,26,14.1c17,5.2,33,4.9,39.1,4.8c10.4-0.2,16.4-1.4,22.1-2.6c5.4-1.1,11.1-2.3,19.1-2.2
	c26.2,0.4,45.2,14.1,55.5,21.4l1.6,1.1c33.8,24,148.9,90.2,268.4,158.2c31.3,12.8,72.8,10.6,88.6-15.1c7.9-12.8,7.6-31.5-0.8-52.6
	c-9.6-24.2-30.7-36.8-49.8-46.7c-56.6-29.4-125-47-179.9-61.2c-10.5-2.7-20.3-5.2-29.4-7.7c0,0,0,0-0.1,0
	c-18.4-4.2-63.7-19.8-132.3-43.6c-42.9-14.8-96.3-33.3-156-53.4c-34.7-11.1-97.9-33.4-127.5-45.5c-19.9-8.1-34.2-14.5-49.5-21.3
	c-17.9-8-36.5-16.2-66-28.2c-47.2-19.1-70.8-28.8-94.9-36.1c-64-19.5-100.6-29.5-132.9-38.4c-20.7-5.7-40.2-11-64.8-18.2
	c-14.8-4.4-27.3-13.6-35.2-26.1c-8.3-13.1-10.7-28.7-6.8-43.7c4.5-17.5,17.4-31.5,36.2-39.4c19.3-8.1,43.4-9.2,69.8-3.1
	c13.9,2.1,28.1,4.1,42.2,5.8c27.3,3.5,30.8,3.2,33.1,2.4c13.6-4.6,22.3-20.5,33.3-40.8c3.5-6.4,5.5-10.8,7.4-14.7
	c3.2-6.8,5.5-11.6,11.4-19.1c6.1-7.6,16.7-18.4,37.8-23.3c27.6-6.4,41.7,1.7,55.4,9.4c2.2,1.3,4.5,2.6,6.9,3.8
	c38.1,20.1,76.6,40.9,113.8,61.1c37.1,20.1,75.5,40.9,113.6,61l0.2,0.1c15.7,8.7,23,9.6,25.9,9.3c14.6-1.3,24.6-6.7,27.2-8.6
	l0.5-0.4l32.7-18.7c7.6-4.5,20.1-9.9,36-9.9h0.1c18.9,0,33,7.7,39.8,12.3l199.2,132.6c0.4,0.3,0.8,0.6,1.2,0.9
	c5.6,3.9,15.1,10.4,22.4,29c5.1,13,8.6,27,10.5,41.8l0.1,0.5l3.9,50.1c1.4,9,5.7,25.9,19.3,40.9c17.8,19.5,40.6,23.9,49.5,24.9
	l0.2,0c32.7,4.2,64.8,11.1,95.7,20.6c47.6,14.6,63.9,26.3,74.4,36.7c18.8,18.7,27.5,39.7,31.6,54c10.3,36.7,1.1,68.2-5.5,84
	c-7.9,24.8-18.9,47.9-32.7,68.8c-9.3,14.1-16.6,25.2-29.8,34.7C1477.7,955.8,1453.1,957.9,1437.1,957.9L1437.1,957.9z M1203.1,918.9
	l0.6,0.1c86.2,10.2,170.4,17.2,225.4,18.8c13.3,0.4,38,1.1,58.9-13.9c10.2-7.3,16-16.1,24.7-29.5c12.8-19.5,23.1-41.2,30.5-64.3
	l0.3-0.8c5.6-13.2,13.6-40,4.9-71.2c-3.4-12-10.7-29.7-26.4-45.3c-5.4-5.4-16.8-16.7-66.2-31.8c-29.7-9.1-60.8-15.8-92.3-19.8
	c-11.3-1.3-39.7-6.8-62-31.3c-16.5-18.2-22.4-38.2-24.4-51.8l-0.1-0.7l-3.9-50.2c-1.7-13-4.8-25.4-9.2-36.8
	c-5.1-12.9-10.7-16.8-15.1-19.9c-0.5-0.3-0.9-0.6-1.3-0.9l-198.9-132.4c-4.9-3.4-15.1-8.9-28.6-8.9h-0.1c-11.5,0-20.4,3.9-25.9,7.2
	l-0.2,0.1l-31.9,18.2c-3,2.1-15.9,10.2-36.8,12.1c-9.5,0.9-21.3-2.9-37.3-11.7c-38.1-20.1-76.6-40.9-113.7-61.1
	c-37.1-20.1-75.5-40.9-113.6-61c-2.7-1.4-5.1-2.8-7.4-4.1c-12.7-7.2-21-12-41-7.3c-14.8,3.4-21.8,10.1-26.7,16.3
	c-4.5,5.6-6,8.9-8.9,15.1c-1.9,4-4.2,8.9-7.9,15.8c-12.5,23.1-23.4,43.1-44.5,50.2c-6.6,2.2-11.3,2.3-42-1.5
	c-14.4-1.8-28.9-3.8-43.1-6l-0.8-0.1c-22.4-5.2-42.4-4.5-57.9,2c-12.9,5.4-21.7,14.6-24.6,25.9c-5.1,19.8,7,39.4,28.3,45.6
	c24.3,7.1,43.8,12.5,64.4,18.1c32.4,8.9,69.2,19,133.4,38.6c25,7.6,48.9,17.3,96.6,36.7c29.9,12.1,48.6,20.5,66.7,28.5
	c15.1,6.7,29.3,13.1,48.9,21.1c28.7,11.7,92.4,34.2,126.1,44.9l0.1,0c59.8,20.1,113.3,38.6,156.2,53.5c46.5,16.1,83.9,29,107.8,36.6
	c14.5,4.5,32.1,9,52.4,14.2c55.9,14.4,125.5,32.4,184.2,62.8c16.1,8.3,46,23.9,59.2,57c10.8,27.1,10.5,52.1-0.8,70.4
	c-19.6,31.9-68.5,41.8-113.9,22.9l-0.6-0.2l-0.5-0.3c-120.1-68.4-236-135.1-270.6-159.6l-1.6-1.2c-9.1-6.5-24.2-17.3-44.2-17.7
	c-5.7-0.1-9.7,0.7-14.6,1.8c-6.1,1.3-13.6,2.8-25.9,3.1c-6.9,0.1-25.3,0.5-45.3-5.7c-13.9-4.3-21-9.3-31.7-17
	c-5-3.6-10.8-7.7-18.7-12.7c-25-16.1-37.8-24-54.2-28.2c-14.9-3.8-33.5-8.5-49.3,1.4c-11.9,7.5-20.1,21.7-20.3,35.3
	c-0.5,24.2,23,47,53.5,51.8l0.3,0.1c59.8,11.6,120.5,22.2,180.7,31.6c23.6,3.7,47.6,7.2,71.2,10.5c26,2,44.6,10.3,55.3,24.6
	c6.2,8.3,7.4,15.1,10.7,35.3c1.4,8.7,3.4,20.7,6.5,36.9c3.8,19.9,5.5,26,10.8,31.2c7.3,7.1,18.1,8.6,25.9,8.6L1203.1,918.9
	L1203.1,918.9z"/>
</svg>
