<?xml version="1.0" encoding="UTF-8"?>
<svg id="a" data-name="Short- Active" xmlns="http://www.w3.org/2000/svg" viewBox="0 0 1920 1080">
  <defs>
    <style>
      .b {
        fill: #fff;
        stroke-width: 0px;
      }
    </style>
  </defs>
  <path class="b" d="m1227.32,690.77c-7.98,0-16.41-1-25.23-3-18.43-4.17-63.72-19.85-132.27-43.57-42.93-14.86-96.35-33.34-156.01-53.4-34.72-11.1-97.94-33.35-127.5-45.46-19.86-8.13-34.24-14.53-49.47-21.31-17.93-7.98-36.47-16.23-66.03-28.23-47.16-19.15-70.82-28.76-94.92-36.1-63.99-19.51-100.6-29.55-132.89-38.41-20.7-5.68-40.24-11.04-64.75-18.25-14.79-4.35-27.29-13.63-35.19-26.14-8.3-13.13-10.72-28.66-6.81-43.72,4.54-17.48,17.41-31.46,36.24-39.36,19.29-8.09,43.41-9.18,69.77-3.15,13.9,2.09,28.1,4.06,42.23,5.84,27.32,3.45,30.75,3.22,33.14,2.42,13.64-4.57,22.3-20.54,33.27-40.77,3.45-6.35,5.54-10.8,7.38-14.73,3.17-6.76,5.47-11.64,11.39-19.05,6.12-7.64,16.69-18.37,37.85-23.27,27.59-6.38,41.74,1.66,55.42,9.44,2.22,1.26,4.52,2.57,6.89,3.83,38.14,20.12,76.59,40.94,113.76,61.09,37.13,20.12,75.53,40.92,113.6,61l.19.1c15.72,8.73,22.97,9.59,25.88,9.33,14.56-1.31,24.61-6.67,27.25-8.63l.47-.35,32.74-18.71c7.64-4.53,20.06-9.9,36-9.93h.11c18.88,0,33.03,7.68,39.79,12.27l199.24,132.61c.39.28.8.56,1.23.86,5.64,3.9,15.08,10.43,22.38,29.01,5.09,12.97,8.62,27.03,10.5,41.78l.03.24c1.75,17.1,2.9,34.69,4.01,51.69.73,11.19,1.42,21.77,2.27,32.05.62,7.19,2.59,44.24-20.02,63.19-7.16,6-15.05,10.65-23.45,13.82-8.71,3.29-18.24,4.94-28.5,4.94ZM410.04,306.83c-11.1,0-21.16,1.82-29.81,5.45-12.94,5.43-21.68,14.64-24.62,25.94-5.13,19.77,7.03,39.39,28.28,45.64,24.33,7.15,43.79,12.49,64.39,18.15,32.42,8.9,69.18,18.98,133.44,38.57,24.96,7.61,48.9,17.33,96.6,36.7,29.89,12.14,48.58,20.45,66.66,28.5,15.09,6.71,29.34,13.06,48.92,21.07,28.69,11.74,92.43,34.19,126.08,44.94l.14.05c59.77,20.1,113.27,38.61,156.24,53.48,65.49,22.66,112.8,39.04,130.15,42.97,16.26,3.68,30.47,3.3,42.24-1.15,6.3-2.38,12.25-5.89,17.68-10.44,12.46-10.44,13.99-33.94,12.94-46.18-.86-10.49-1.56-21.14-2.29-32.42-1.1-16.79-2.23-34.14-3.94-50.84-1.67-13.07-4.78-25.47-9.26-36.87-5.07-12.91-10.65-16.77-15.14-19.87-.46-.32-.9-.62-1.32-.92l-198.93-132.4c-4.93-3.35-15.11-8.87-28.64-8.87h-.08c-11.46.02-20.4,3.91-25.89,7.17l-.15.09-31.87,18.21c-3.03,2.1-15.9,10.18-36.78,12.06-9.49.86-21.35-2.86-37.29-11.71-38.14-20.12-76.56-40.93-113.71-61.06-37.13-20.12-75.52-40.92-113.59-60.99-2.65-1.41-5.08-2.79-7.42-4.12-12.67-7.21-21.04-11.97-41.02-7.34-14.84,3.43-21.84,10.15-26.74,16.28-4.45,5.56-6.03,8.93-8.91,15.06-1.86,3.96-4.18,8.9-7.9,15.76-12.55,23.14-23.4,43.12-44.5,50.19-6.62,2.22-11.29,2.34-42-1.54-14.41-1.82-28.9-3.83-43.08-5.96l-.76-.14c-9.89-2.29-19.32-3.42-28.1-3.42Z"/>
</svg>