<svg id="Bend_-_Config" data-name="Bend - Config" xmlns="http://www.w3.org/2000/svg" viewBox="0 0 1920 1080"><defs><style>.cls-1{fill:#fff;}</style></defs><path class="cls-1" d="M1447.36,1032.28c-57.45,0-135.75-1.78-206.06-3.38-47.75-1.09-92.86-2.11-125.74-2.46-130.93-1.35-387.41-4.85-525.19-6.72l-3.73-.05c-26.07-.36-77-2.19-102.1-3.35-27.87-1.28-74.52-3.44-90.18-71.75-10.68-46.62-23-126.84-27.31-169.67-3.2-31.55-3.91-93.48-3.61-125.11,0-1,0-2.18,0-3.37,0-13.27,0-35.49,15.59-49.75,10.75-9.81,26.82-13.8,47.78-11.85,26.11,2.43,78,10.06,104.64,14.3,34.23,5.46,80,12.9,103.83,17.39l.37.07c4.13.94,101.68,23.07,133.11,31.24,31.6,8.21,46.13,12.82,141.84,47.33l.38.14c22,8.94,60.45,23.73,91.37,35.61,9.95,3.83,19,7.3,26.25,10.11l8.35,3.24c33.5,13,60,23.24,126,42.94l3.33,1c36.85,11,78.61,23.45,127.53,34.27,2.52.56,5.08,1.21,7.79,1.91,11.06,2.83,23.6,6,30.17,1.18,4.72-3.5,7.52-12,8.1-24.75,0-6.71-.84-141.82-4-188l0-.65c-1-14.37-1.85-27.94-34.25-27.36-33,.58-91.76,3.23-123.21,4.87-21.55,1.13-43.37-.74-73.41-35.44-48-55.4-120.56-153.06-168.15-219.85-.86-1.22-1.71-2.5-2.6-3.86-4-6-8.5-12.88-14.75-13.91-5.3-.87-12.68,2.22-21.37,8.94-4.58,4.2-48.61,44.06-91.81,62.86-21.39,9.31-40.56,13-57.49,13-31,0-54.47-12.35-70.68-25.4C651.43,354.52,639,327.11,638.53,326l-.21-.51c-5.85-15.41-17.52-55.45.34-94.5,12.83-28.06,37.88-49.07,74.46-62.44,22.94-8.39,66.62-15.41,95.52-20.06l8.08-1.31.25,0c.67-.09,66.75-9.21,87.45-15.25,5.66-1.65,6.77-4.26,7.11-6.85,1.57-11.58,3.37-23.25,5.85-30.07,3.81-10.48,10-17.59,18.27-21.15,12.47-5.34,25.52-.87,34.25,3,14.29,6.27,52.25,22.91,69.78,31.65,15.81,7.88,46.49,25.6,60.88,35.79,30,21.24,83.83,66.67,108.1,87.72,17.79,15.42,43.55,39.76,61,59.34,25.25,28.3,51.93,50.4,79.31,65.71,9.63,5.38,18.35,10.44,26.78,15.34,32.59,18.91,60.73,35.25,119.39,57.13,20.78,7.75,56.08,18.89,87.22,28.72,14.25,4.5,27.7,8.74,37.74,12,30.45,10,44.06,36.25,36.41,70.25-4.74,21.07-17.26,49.47-29.36,76.94l-2.79,6.33c-7.52,17.1-26.73,40.56-45.67,55.77-24.41,19.61-46.61,43.73-43.73,87.1l.14,2.28c.54,8.43.56,8.76,8.91,41.7,2.49,9.86,6.29,24.06,10.31,39.11,4.47,16.73,9.09,34,11.92,45.37l.15.62c7.21,28.85,22.2,88.89-22.06,122.24-13.42,10.11-30.83,13.7-69,14.23C1466.76,1032.23,1457.38,1032.28,1447.36,1032.28ZM416.71,604.33c-10.89,0-19,2.38-24.19,7.11-9.1,8.3-9.08,23.71-9.07,35,0,1.26,0,2.46,0,3.58-.32,33.51.56,93.79,3.51,122.9,4.27,42.17,16.69,122.64,26.91,167.22,12.26,53.51,43.79,55,71.6,56.24,24.93,1.15,75.58,3,101.45,3.33l3.73.05c137.78,1.87,394.23,5.37,525.13,6.73,33,.34,78.17,1.37,126,2.45,82.39,1.88,175.78,4,233.32,3.21,37.22-.51,49.17-4.13,57.24-10.21,33.68-25.37,21.32-74.84,14.69-101.41l-.16-.62c-2.79-11.18-7.39-28.4-11.84-45.06-4-15.11-7.84-29.38-10.37-39.35-8.56-33.77-8.83-35-9.48-45.37l-.14-2.21c-4-59.73,34.67-90.76,51.16-104s33.61-34,39.89-48.23l2.8-6.35C1620,583.94,1632.71,555.21,1637,536c6.8-30.23-8.83-42.17-23.14-46.86-9.92-3.26-23.33-7.49-37.52-12-31.37-9.9-66.93-21.12-88.19-29.05-60.24-22.48-89.06-39.2-122.44-58.58-8.36-4.85-17-9.87-26.5-15.17-29.32-16.4-57.75-39.9-84.47-69.85-16.88-18.93-41.9-42.54-59.2-57.55-27.91-24.21-79.32-67.22-106.56-86.5-13.31-9.43-43.15-26.69-58.24-34.22-17.09-8.52-54.72-25-68.89-31.23-3.07-1.35-12.4-5.44-18.36-2.89-3,1.29-5.49,4.52-7.33,9.59-2.09,5.75-4.08,20.41-4.83,25.93C929.8,139.19,922.22,147.49,910,151c-21.85,6.38-86,15.27-90.2,15.85l-8,1.29c-26.43,4.26-70.68,11.37-91.82,19.1-31.37,11.47-52.62,29-63.15,52-14.59,31.93-4.93,65.49.06,78.77,1.12,2.39,12.27,25.32,34.32,42.83,30.13,23.93,66.17,27,107.12,9.19,41.51-18.07,86.09-59.09,86.53-59.5l.64-.54c13.72-10.71,25.89-15,37.22-13.16,14.89,2.44,22.91,14.6,28.21,22.64.8,1.2,1.55,2.34,2.21,3.26,51.06,71.69,122.49,167,167,218.37,26.13,30.18,42.66,29.32,57.25,28.56,31.59-1.65,90.65-4.31,123.9-4.9,51.39-.93,53.61,32,54.55,46l0,.64c3.24,47.77,4,183.75,4,189.52v.48c-.85,19.6-6.14,32.74-16.18,40.18-14.22,10.55-32.42,5.88-47,2.13-2.54-.65-4.94-1.27-7.14-1.75-49.62-11-93.6-24.1-128.93-34.64l-3.33-1c-66.82-19.93-93.61-30.32-127.52-43.47l-8.34-3.23c-7.24-2.8-16.27-6.27-26.21-10.09-30.91-11.88-69.35-26.65-91.54-35.67-94.75-34.16-109.07-38.71-139.9-46.72h0c-30.51-7.93-127.48-29.95-132.33-31-23.63-4.45-69.08-11.83-103.1-17.25C502,614.67,450.6,607.12,425,604.73,422.06,604.46,419.3,604.33,416.71,604.33Z"/></svg>