<?xml version="1.0" encoding="UTF-8"?>
<svg id="EXAMPLE_-_Active" data-name="EXAMPLE - Active" xmlns="http://www.w3.org/2000/svg" viewBox="0 0 1920 1080">
  <defs>
    <style>
      .cls-1 {
        fill: #fff;
        stroke-width: 0px;
      }
    </style>
  </defs>
  <path id="Grand_Prix" data-name="Grand Prix" class="cls-1" d="M1468.62,995.48c-9.94,0-26.46-7.14-33.97-21.6-5.84-11.24-8.24-30.29,13.54-57.25,54.7-67.72,99.31-124.1,99.75-124.67l.57-.66c1.37-1.55,20.35-24.18-.57-66.63-24.27-49.25-106.75-220.55-110.05-227.39-1.36-2.45-12.56-20.88-38.56-13.12-34.7,10.37-585.56,182.71-598.55,186.77-4.75,1.68-61.92,20.93-90.55-14.6l-51.88-63.7c-8.06-9.9-22.41-11.76-32.72-4.26l-71.41,55.71-.41.26c-1.36.86-2.66,1.73-3.94,2.59-8.47,5.65-18.05,12.07-35.46,11.41-17.11-.64-55.61-7.08-86.05-21.64-39-18.66-48.91-30.43-60.39-44.07l-2-2.41-124.85-171.36c-7.36-10.1-8.57-23.38-3.15-34.65s16.54-18.61,29.03-19.17l66.87-2.98c13.77-.6,26.19,7.68,30.9,20.64l30.98,85.3c4.5,12.39,15.91,20.83,29.07,21.51,81.32,4.16,276.5,13.61,332.32,11.45l.39,9.99-.39-9.99c92.67-3.58,148.55-8.98,161.1-10.61l235.04-37.91c25.4-3.66,42.63-11,49.84-21.22,3.76-5.34,4.86-11.53,3.36-18.91-7.42-36.54-75.98-74.69-136.71-92.05-41.91-11.97-179.93-59.26-237.33-79.03-22.28-7.68-42.15-21.21-57.48-39.14-12.43-14.54-19.96-23.51-22.37-26.65-16.05-20.93-16.58-48.26-1.31-68.02,13.65-17.66,42.38-30.56,82.07-13.81,73.73,31.12,475.16,221.14,596.44,278.63,23.14,10.97,42.5,28.28,55.98,50.05l149.03,240.65c10.29,16.61,16.09,35.71,16.78,55.23l5.28,149.31c.18,3.37,1.18,36.53-28.94,53.34-20.45,11.42-90.57,47.16-119.77,62-11.83,6.01-24.66,11.7-38.26,12.63-.41.03-.84.04-1.28.04ZM1563.44,804.61c-3.26,4.12-46.76,59.06-99.69,124.58-8.17,10.12-16.8,24.43-11.5,35.17,3.87,7.84,13.81,11.16,16.33,11.12,10.49-.71,21.25-5.79,30.52-10.5,29.09-14.79,98.93-50.39,119.08-61.63,19.84-11.08,18.78-33.81,18.72-34.78v-.28s-5.29-149.42-5.29-149.42c-.57-16.05-5.34-31.76-13.79-45.41l-149.03-240.65c-11.45-18.49-27.89-33.19-47.55-42.51-121.19-57.45-522.29-247.31-595.65-278.28-24.83-10.48-46.68-7.64-58.47,7.61-9.64,12.47-9.1,30,1.35,43.62,1.51,1.97,6.5,8.04,21.7,25.83,13.01,15.22,29.88,26.71,48.79,33.23,57.24,19.72,194.86,66.87,236.31,78.71,31.89,9.11,65.15,23.57,91.23,39.68,34.78,21.47,54.83,44.22,59.58,67.62,2.58,12.7.29,24.6-6.61,34.41-10.59,15.04-31.87,24.96-63.25,29.49l-235.24,37.94c-13.41,1.77-68.84,7.14-163.08,10.79-56.62,2.19-252.52-7.29-334.11-11.46-21.21-1.09-39.6-14.69-46.85-34.66l-30.98-85.29c-1.71-4.7-6.22-7.71-11.21-7.49l-66.87,2.98c-5.2.23-9.65,3.17-11.9,7.86-2.25,4.69-1.77,10,1.29,14.2l124.64,171.08,1.35,1.6c10.39,12.35,18.6,22.11,53.71,38.9,28.75,13.75,65.08,19.21,78.17,19.69,10.94.41,15.97-2.96,23.6-8.05,1.28-.85,2.57-1.72,3.91-2.58l71-55.38c18.92-13.91,45.36-10.54,60.19,7.67l51.92,63.74c20.31,25.21,67.96,8.47,68.44,8.3l.41-.14c5.64-1.76,563.92-176.42,598.98-186.9,34.27-10.24,55.59,10.65,62.08,23.13l.14.27c.85,1.77,85.46,177.51,110.06,227.42,26.25,53.27,1.27,84.58-2.44,88.78Z"/>
</svg>