<?xml version="1.0" encoding="UTF-8"?>
<svg id="EXAMPLE_-_Active" data-name="EXAMPLE - Active" xmlns="http://www.w3.org/2000/svg" viewBox="0 0 1920 1080">
  <defs>
    <style>
      .cls-1 {
        fill: #fff;
        stroke-width: 0px;
      }
    </style>
  </defs>
  <path class="cls-1" d="M1468.62,995.48c-9.94,0-26.46-7.15-33.97-21.6-5.84-11.24-8.24-30.29,13.54-57.25,54.7-67.72,99.31-124.1,99.75-124.67l.57-.66c1.38-1.55,20.35-24.19-.57-66.63-24.27-49.25-106.77-220.59-110.05-227.39-1.36-2.46-12.57-20.88-38.56-13.12-34.93,10.44-549.43,171.48-554.62,173.1l-.41.12-36.26,9.67c-6.68,1.78-13.67.42-19.19-3.73-5.52-4.15-8.77-10.5-8.91-17.4l-1.27-62.14c0-11.72,2.7-23.49,7.82-34.02,8.61-17.73,23.87-31.35,42.98-38.35l12.65-4.63c22.58-8.27,46.17-13.62,70.12-15.88l1.46-.14c3.13-.3,6.3-.7,9.41-1.2l230.18-37.12c25.4-3.66,42.63-11,49.84-21.22,3.76-5.34,4.86-11.53,3.36-18.91-7.42-36.54-75.98-74.69-136.71-92.05-41.93-11.98-179.96-59.27-237.36-79.04-22.26-7.67-42.11-21.19-57.43-39.1-12.45-14.56-19.98-23.54-22.39-26.68-16.05-20.93-16.58-48.26-1.31-68.02,13.65-17.66,42.38-30.56,82.07-13.81,73.73,31.12,475.16,221.14,596.44,278.63,23.14,10.97,42.5,28.28,55.98,50.05l149.03,240.65c10.29,16.61,16.09,35.71,16.78,55.23l5.28,149.31c.18,3.37,1.18,36.53-28.94,53.34-20.45,11.42-90.57,47.16-119.77,62-11.83,6.01-24.66,11.7-38.26,12.63-.41.03-.84.04-1.28.04ZM1563.44,804.61c-3.26,4.12-46.76,59.06-99.69,124.58-8.17,10.12-16.8,24.43-11.5,35.17,3.87,7.84,13.81,11.16,16.33,11.12,10.49-.71,21.25-5.79,30.52-10.5,29.09-14.79,98.93-50.39,119.08-61.63,19.84-11.08,18.78-33.81,18.72-34.78v-.28s-5.29-149.42-5.29-149.42c-.57-16.05-5.34-31.76-13.79-45.41l-149.03-240.65c-11.45-18.49-27.89-33.19-47.55-42.51-121.19-57.45-522.29-247.31-595.65-278.28-24.83-10.48-46.68-7.64-58.47,7.61-9.64,12.47-9.1,30,1.35,43.62,1.51,1.96,6.5,8.05,21.72,25.85,13,15.21,29.85,26.68,48.74,33.19,57.25,19.72,194.88,66.88,236.34,78.72,31.89,9.11,65.15,23.57,91.23,39.68,34.78,21.47,54.83,44.22,59.58,67.62,2.58,12.7.29,24.6-6.61,34.41-10.59,15.04-31.88,24.96-63.26,29.49l-229.93,37.09c-3.54.57-7.14,1.03-10.71,1.37l-1.46.14c-22.24,2.11-44.15,7.07-65.12,14.75l-12.65,4.63c-14.21,5.21-25.53,15.26-31.86,28.3-3.79,7.8-5.8,16.51-5.81,25.2l1.26,61.83c.02.94.52,1.52.94,1.83.42.31,1.1.64,2.02.39l36.05-9.61c12.75-3.99,519.88-162.71,554.67-173.11,34.27-10.24,55.59,10.65,62.08,23.13l.14.27c.85,1.77,85.46,177.51,110.06,227.42,26.25,53.27,1.26,84.59-2.44,88.78Z"/>
</svg>