<?xml version="1.0" encoding="UTF-8"?>
<svg id="EXAMPLE_-_Active" data-name="EXAMPLE - Active" xmlns="http://www.w3.org/2000/svg" viewBox="0 0 1920 1080">
  <defs>
    <style>
      .cls-1 {
        fill: #fff;
        stroke-width: 0px;
      }
    </style>
  </defs>
  <path class="cls-1" d="M516.82,658.37c-.79,0-1.6-.02-2.42-.05-17.11-.64-55.61-7.08-86.05-21.64-39-18.66-48.91-30.43-60.39-44.07l-2-2.41-124.85-171.36c-7.36-10.1-8.57-23.38-3.15-34.65s16.54-18.61,29.03-19.17l66.87-2.98c13.79-.61,26.19,7.68,30.9,20.64l30.98,85.3c4.5,12.39,15.91,20.83,29.08,21.51,13.65.7,28.11,1.46,42.97,2.25,66.15,3.5,141.12,7.46,187.42,7.82h.18s42.45,1.08,42.45,1.08c14.88.38,27.11,12.32,27.84,27.18v.29s.01.29.01.29c0,.77.02,1.61.07,2.58.38,7.12-.17,25.15-13.29,38.92-4.85,5.08-10.67,8.85-17.8,11.5-6.57,2.45-13.63,3.6-20.98,3.43l-27.77-.65-5.68,1.4c-10.73,2.65-20.59,7.44-29.3,14.23l-56.72,44.24-.41.26c-1.36.86-2.66,1.73-3.94,2.59-8.06,5.38-17.16,11.45-33.03,11.45ZM381.92,578.15l1.35,1.6c10.39,12.35,18.6,22.11,53.71,38.9,28.75,13.75,65.08,19.21,78.17,19.69,10.93.41,15.97-2.96,23.6-8.05,1.28-.85,2.57-1.72,3.91-2.57l55.96-43.65c10.95-8.54,23.33-14.55,36.81-17.88l8.27-2.04,30.43.71c4.8.1,9.35-.62,13.54-2.18,4.28-1.59,7.56-3.68,10.3-6.56,7.75-8.13,8.03-19.54,7.79-24.06-.07-1.24-.1-2.37-.09-3.44-.33-4.37-3.96-7.85-8.36-7.96l-42.35-1.08c-46.76-.36-121.92-4.34-188.24-7.85-14.85-.79-29.29-1.55-42.93-2.25-21.21-1.08-39.6-14.69-46.85-34.65l-30.98-85.3c-1.71-4.7-6.22-7.71-11.21-7.49l-66.87,2.98c-5.2.23-9.65,3.17-11.9,7.86-2.25,4.69-1.77,10,1.29,14.2l124.64,171.08Z"/>
</svg>