<?xml version="1.0" encoding="UTF-8"?>
<svg id="a" data-name="Figure 8 - Active" xmlns="http://www.w3.org/2000/svg" viewBox="0 0 1920 1080">
  <defs>
    <style>
      .b {
        fill: #fff;
        stroke-width: 0px;
      }
    </style>
  </defs>
  <path class="b" d="m779.8,721.35c-1.57,0-3.13-.07-4.67-.2l-.65-.06-13.34-2.96c-71.92-19.04-122.14-84.36-122.14-158.84s45.19-133.59,112.44-155.94l.15-.05,5.17-1.58c27.63-5.93,57.16,11.99,69.21,22.53l155.67,118.21,135.36-119.76c13.12-11.6,41.09-27.32,62.21-25.96l1.46.09,4.9.82c78.09,14.18,134.77,82.16,134.77,161.65,0,32.01-9.63,63.31-27.86,90.5-17.58,26.23-41.89,46.95-70.28,59.91l-.45.19c-13.04,5.19-30.34,1.93-42.55-1.71-14.42-4.31-28.12-11.13-35.88-17.86l-160.7-122.02-147.78,130.75c-12.58,11.13-34.58,22.3-55.02,22.3Zm-2.32-20.08c13.09.89,31.91-6.43,44.08-17.2l144.79-128.1-153.07-116.24-.28-.25c-10.25-9.07-33.24-21.97-51.63-18.29l-3.71,1.17c-59.02,19.66-98.67,74.68-98.67,136.94,0,65.35,44.01,122.66,107.06,139.45l11.43,2.52Zm440.55-.66h0,0Zm-220.16-145.82l158.09,120.05.28.25c12.05,10.66,45.03,21.18,57.88,16.32,24.92-11.43,46.25-29.66,61.72-52.74,16.01-23.89,24.48-51.34,24.48-79.37,0-69.79-49.74-129.48-118.27-141.96l-4.15-.64c-13.18-.85-35.67,10.37-47.66,20.98l-132.37,117.12Z"/>
</svg>