<?xml version="1.0" encoding="UTF-8"?>
<svg id="a" data-name="Lime Rock School - Config" xmlns="http://www.w3.org/2000/svg" viewBox="0 0 1920 1080">
  <defs>
    <style>
      .b {
        fill: #fff;
        stroke-width: 0px;
      }
    </style>
  </defs>
  <path class="b" d="M1243.21,1006.92c-14.05,0-29.76-.04-47.62-.08l-25.72-.06c-48.7-.1-116.73-.69-188.76-1.32-90.63-.79-184.34-1.6-244.98-1.46-21.24.05-47.63.15-76.68.26-92.2.35-206.94.8-273.23.07-16.47-.18-48.95-3.04-81.41-20.16-33.6-17.72-56.77-45.09-68.85-81.34-10.02-30.07-14.76-94.28,15.18-138.6,18.56-27.47,46.64-42.53,83.48-44.77,18.04-1.1,30.79.72,56.2,4.33,8.96,1.27,20.11,2.86,33.7,4.62,4.58.6,9.2,1.2,13.83,1.81,25.12,3.29,51.1,6.69,71.64,8.71,28.56,2.81,80.32-2.02,105.82-26.88l1.17-1.14c19.44-18.92,43.64-42.46,27.42-92.16-4.2-12.88-16.59-35.4-25.63-51.84-2.97-5.39-5.77-10.49-7.94-14.61-1.02-1.94-2.12-3.96-3.26-6.06-15.2-28.03-40.64-74.95,3.98-128.55,22.45-26.97,69.98-74.19,94.25-96.52,2.36-2.17,4.83-4.5,7.44-6.97,20.67-19.54,48.97-46.3,92.38-57.57,6.55-1.7,15.76-3.72,25.52-5.85,12.48-2.73,25.38-5.56,33.33-7.85,44.43-12.85,93.83-34.93,160.16-71.59,12.67-7,33.02-18.98,50.97-29.54,11.49-6.76,22.34-13.15,30.66-17.93,21.54-12.4,78.77-45.32,143.54-14.24,15.11,7.25,45.29,27.85,60.74,38.88,32.57,23.25,137.28,112.67,141.72,116.46l.16.14c36.65,32.68,151.18,128.12,152.34,129.08l.09.08c51.31,43.79,68.81,95.44,52,153.5-15.54,53.71-53.32,162.5-76.71,223.89-1.62,4.26-3.45,9.13-5.43,14.41-11.39,30.33-28.6,76.15-42.73,101.56-20.49,36.84-38.63,55.75-50.49,66.77-28.22,26.21-61.16,41.79-97.92,46.29-43.59,5.34-72.6,6.21-140.34,6.21ZM750.61,983.98c60.57,0,146.94.75,230.68,1.48,71.99.63,139.98,1.22,188.62,1.31l25.73.06c103,.24,134.09.32,185.48-5.98,54.97-6.74,98.6-40.41,133.37-102.93,13.41-24.1,30.3-69.09,41.48-98.87,2-5.32,3.83-10.21,5.47-14.5,23.25-61.03,60.77-169.08,76.18-222.33,8.52-29.43,6.76-57.14-5.22-82.37-8.45-17.79-21.7-34.25-40.52-50.32-3.03-2.52-116.04-96.71-152.71-129.4-3.37-2.88-108.76-92.84-140.27-115.33-13.9-9.92-43.87-30.45-57.78-37.12-48.98-23.51-92.48-5.11-124.91,13.54-8.23,4.73-19.04,11.09-30.49,17.83-18.95,11.15-38.54,22.68-51.44,29.81-67.7,37.41-118.36,60.02-164.28,73.3-8.58,2.48-21.81,5.38-34.61,8.18-9.56,2.09-18.59,4.07-24.77,5.67-38.42,9.98-63.51,33.69-83.66,52.74-2.66,2.52-5.18,4.89-7.64,7.16-27.62,25.41-72.37,70.51-92.42,94.59-15.92,19.13-22.43,38.39-19.9,58.88,2.22,17.97,11.05,34.26,18.14,47.34,1.18,2.18,2.32,4.27,3.37,6.28,2.08,3.95,4.84,8.97,7.76,14.28,9.95,18.09,22.33,40.61,27.12,55.27,20.09,61.54-12.82,93.56-32.48,112.69l-1.16,1.13c-14.4,14.03-35.21,23.85-61.85,29.18-27.72,5.55-51.12,4.14-59.89,3.27-20.86-2.05-47-5.48-72.28-8.79-4.62-.61-9.23-1.21-13.81-1.8-13.71-1.78-24.92-3.38-33.93-4.66-24.83-3.53-36.16-5.14-52.17-4.17-30.31,1.84-53.22,13.95-68.12,36-24.54,36.32-22.25,92.67-12.78,121.08,10.4,31.2,30.32,54.74,59.21,69.98,29.82,15.73,60.5,17.72,72.3,17.85,66.14.72,180.8.28,272.93-.07,29.06-.11,55.46-.21,76.71-.26,4.65-.01,9.5-.02,14.52-.02Z"/>
</svg>