<svg id="Road_Course_-_Config" data-name="Road Course - Config" xmlns="http://www.w3.org/2000/svg" viewBox="0 0 1920 1080"><defs><style>.cls-1{fill:#fff;}</style></defs><title>active</title><path class="cls-1" d="M1115.4,967.59h-.16L771,966.26l-.92-.18c-.7-.14-71.58-14-165.85-45.08-87.1-28.7-212.74-78.41-316.62-152.21-16.46-11.89-51.2-50.76-79.69-109.3C184.13,610.63,158.21,533.75,169.85,445c11-83.82,42.57-156,93.86-214.52,53.52-61.06,126.4-104.62,216.62-129.46l.3-.08c52.2-12.63,133.25-25.69,178.5-25.69,42.49,0,720.07,6.14,726.91,6.2l.83,0c5.85.54,144.27,13.8,218.05,69.42q5.34,4,11,8.27c37.46,27.95,84.09,62.73,122.35,116.82,45.26,64,67.74,139.21,68.71,230,.07,2.58.66,35.12-12.09,81.56-12,43.54-38.48,108.11-97,168.52-3,3.09-44.1,31.67-90.23,57.36-65.27,36.34-117,54.79-153.68,54.84h-.15c-20.44,0-36.44-5.79-47.56-17.2l-.14-.15c-24.3-26-32.29-56-22.5-84.37,9.61-27.91,36.55-51.3,64-55.61,36.78-5.77,110.68-24.23,121.83-27a73.22,73.22,0,0,0,32.84-61.88c0-43.13-60.06-78.31-60.67-78.66l-.09-.06c-1.67-1-40.5-24.52-47.21-79.17-5.29-8.88-25.33-29.06-67.47-35-1.52-.2-5.33-.79-11.65-1.78-141.86-22.21-268-36.69-375.06-43.06-35.44-.44-128.3-13.73-210.25-25.47C773.34,350.72,719.79,343.05,702,342.2c-15.07-.74-37.25,4.09-54.32,19.84-15.09,13.93-23.17,33.34-24,57.7.05,1.4.07,3.06.1,4.93.19,14.23.55,40.72,13.72,63.49,15.89,27.46,46.49,41.39,90.95,41.39,117.65,0,429.83.93,441.35,1,5.39-.29,55.53-1.73,101.11,38.26,42.63,37.4,66.85,97.93,72,179.88l0,.41v.42c-.44,22.28-5.37,79.62-41.57,130.71a192.64,192.64,0,0,1-69.4,60.21c-32.56,16.85-71.72,26-116.37,27.17ZM773,946.26l342.19,1.32c193.3-5.17,207-164.91,207.71-198.08-5.43-85.41-33.44-146.83-81-177.67-35.84-23.22-70.83-21.36-71.18-21.33l-.68,0c-3.21,0-322.35-1-441.59-1-52.11,0-88.54-17.29-108.26-51.38-15.79-27.28-16.21-58.32-16.41-73.23,0-1.86,0-3.47-.1-4.82v-.68c.93-29.65,11.46-54.58,30.43-72.09a96.64,96.64,0,0,1,68.86-25.13c18.75.9,70.27,8.28,129.93,16.82,81.53,11.68,173.94,24.91,207.87,25.27l.49,0c107.71,6.4,234.61,21,377.2,43.28,5.75.9,9.9,1.55,11.27,1.73,51.13,7.23,76.51,33.18,83.46,47.38l.77,1.58.19,1.75C1519,505.4,1550,525,1551.84,526.12c4.07,2.36,70.59,41.75,70.59,95.94,0,54.81-42.31,79-44.11,80l-1.14.64-1.26.31c-3.43.88-84.5,21.4-125.06,27.77-17.23,2.7-40,18.47-48.23,42.37-7.36,21.34-1.09,43.51,18.13,64.11,20.32,20.73,71.91,12.08,145.3-24.37,59.15-29.37,112.83-67.08,117.91-71,55.28-57.26,80.37-118.34,91.68-159.53,12.22-44.51,11.39-75.44,11.38-75.75v-.21c-2.06-196.08-111-277.32-183-331.08q-5.73-4.27-11.13-8.33c-67.39-50.8-199.29-64.63-207.46-65.44-20.55-.18-684.33-6.19-726.29-6.19-43.72,0-122.58,12.75-173.65,25.09C316.28,167,211.24,283.24,189.68,447.64c-11,83.79,13.63,156.69,36.22,203.1,26.69,54.84,59.16,91.54,73.36,101.79C401,824.84,524.69,873.73,610.49,902,697.84,930.79,764.54,944.57,773,946.26Zm910.75-204.19-.12.12Z"/></svg>