<?xml version="1.0" encoding="UTF-8"?>
<svg id="EXAMPLE_-_Active" data-name="EXAMPLE - Active" xmlns="http://www.w3.org/2000/svg" viewBox="0 0 1920 1080">
  <defs>
    <style>
      .cls-1 {
        fill: #fff;
        stroke-width: 0px;
      }
    </style>
  </defs>
  <path id="Moto_Chicanes" data-name="Moto Chicanes" class="cls-1" d="M738.42,870.15c-16.82,0-29.9-.14-30.81-.15-2.48,0-20.39-.5-33.42-13.47-8.31-8.27-12.52-19.44-12.52-33.2,0-9.22.13-20.36.27-33.27.68-59.38,1.82-158.77-10.2-188.3-6.71-16.48-17.16-31.59-31.07-44.91-8.78-8.41-18.98-15.19-30.31-20.15-33.47-14.65-62.55-27.32-85.92-37.51-25.95-11.31-44.71-19.49-53.5-23.4-1.74-.77-6.97-3.1-14.13-3.48-12.55-.67-19.73,3.18-23.54,6.53-7.53,6.61-15.02,20.83-8.86,29.25,3.18,4.34,15.87,23.12,33.43,49.1,24.3,35.96,54.55,80.71,74.36,109.07,16.42,23.5,8.05,44.01,4.9,51.73-.27.67-.52,1.26-.71,1.77-7.13,19.43-22.75,29.5-28.63,33.29-23.59,15.2-48.43,13.49-61.77,12.57-9.06-.62-18.12-2.23-26.93-4.76-22.06-6.34-41.77-20.36-55.51-39.46l-82.5-114.7c-18.86-23.37-35.11-48.45-48.3-74.56-8.46-16.73-14.57-28.82-19.4-46.93-11.28-42.27-4.66-77.5-2.17-90.76,6.57-34.93,20.14-60.56,27.65-72.74,21.04-34.12,45.83-52.25,63.94-65.49,14.57-10.66,44.87-32.81,89.52-42.64,2.4-.65,17.83-4.62,34.42-4.62.11,0,.23,0,.34,0,25.54.08,177.41.02,369.68-.06,309.26-.13,732.69-.31,848.03.06,3.31-.17,23.25-.69,39.58,9.88,14.65,9.48,19.09,28.74,10.11,43.85l-15.76,26.5-.31.42c-2.06,2.82-7.2,12.05-5.9,20.24.73,4.57,3.4,8.46,8.16,11.89l.46.35,60.3,48.88c17.74,14.38,26.02,37.9,21.11,59.91-1.39,6.23-3.64,12.23-6.7,17.86-5.26,9.69-13.3,24.22-21.82,39.6-14.68,26.52-31.31,56.58-34.24,62.86-6.68,14.3-12.6,24.76-23.11,35.95-3.12,3.32-14.55,14.08-30.74,12.79-15.18-1.19-28.58-13.19-34.98-31.31l-.27-.88-22.41-88.65c-.51-2.27-13.17-56.14-63.56-56.14h-538.99c-17.27.39-27.17,4.85-35.28,15.91-9.49,12.94-12.74,27.67-8.29,37.52,1.71,3.79,6.08,8.5,12.31,13.25,6.57,5.02,14.09,9.25,22.35,12.57l78.59,31.58.29.14c.42.2,44,20.48,97.29,12.5l185.96-37.52c6.78-1.99,67.01-18.19,96.7,25.42,17,24.98,61.74,92.79,66.15,100.79,4.13,7.48,9.46,24.41,3.24,40.45-8.55,22.04-25.63,32.76-49.39,31.02-45.11-3.31-318.46-44.02-330.08-45.75l-.31-.05c-.92-.17-92.73-16.21-130.84,21.59-41.7,41.37-140.71,148.29-141.7,149.36-.56.61-14.6,15.82-33.52,26.85-12.66,7.38-27.36,11.34-42.5,11.44-6.29.04-12.48.06-18.23.06ZM707.7,850h.08c.23,0,23.69.26,48.73.09,11.65-.08,22.91-3.09,32.56-8.72,16.23-9.46,28.77-23,28.9-23.13,1.02-1.11,100.32-108.33,142.32-150,45.04-44.69,142.29-28.18,148.34-27.1,7.95,1.18,284.49,42.34,328.44,45.56,14.91,1.1,23.94-4.55,29.28-18.31,3.67-9.47-.39-20.45-2.1-23.55-3.49-6.32-46.13-71.22-65.18-99.21-22.45-32.98-74.26-17.56-74.78-17.41l-.97.25-186.91,37.71-.24.04c-57.81,8.74-104.16-11.88-108.82-14.05l-78.03-31.35c-9.93-3.99-19.03-9.12-27.04-15.24-9.06-6.92-15.24-13.96-18.38-20.9-8.96-19.81-.51-42.74,10.38-57.59,11.85-16.15,27.6-23.58,51.09-24.08h.21s539.1,0,539.1,0c27.72,0,50.95,12.57,67.18,36.36,11.35,16.64,15.41,33.25,15.88,35.31l22.18,87.74c3.66,10.02,10.67,17.08,17.54,17.62,7.49.58,13.47-5.35,14.59-6.54,7.76-8.26,12.69-16.01,19.56-30.72,3.22-6.9,19.31-35.97,34.87-64.08,8.49-15.35,16.51-29.84,21.74-39.46,2.17-3.99,3.77-8.25,4.75-12.67,3.27-14.67-2.3-30.38-14.19-40.02l-60.08-48.71c-8.97-6.53-14.5-15.17-16.02-24.98-2.59-16.79,7.03-31.5,9.3-34.69l15.26-25.66c3.47-5.83,1.8-13.22-3.78-16.83-11.78-7.62-27.62-6.7-27.78-6.69l-.71.02c-114.87-.38-538.75-.2-848.25-.06-192.29.08-344.17.15-369.75.06-15.01-.06-29.47,3.93-29.61,3.96l-.55.14c-40.66,8.9-68.74,29.44-82.24,39.3-16.77,12.27-39.74,29.06-58.72,59.84-6.78,10.99-19.05,34.18-25.02,65.93-2.26,12.04-8.28,44.03,1.83,81.91,4.3,16.1,9.72,26.83,17.93,43.07,12.6,24.93,28.14,48.89,46.19,71.23l.34.45,82.66,114.92c11.13,15.47,27.04,26.8,44.8,31.91,7.45,2.14,15.11,3.5,22.77,4.03,12.57.87,31.56,2.17,49.56-9.43,4.75-3.06,15.87-10.23,20.69-23.37.26-.7.59-1.52.96-2.44,2.77-6.79,7.41-18.15-2.77-32.72-19.9-28.49-50.2-73.31-74.54-109.33-16.12-23.85-30.04-44.45-33-48.49-12.75-17.43-4.01-42.2,11.81-56.09,6.6-5.8,18.53-12.49,37.79-11.47,7.2.38,14.33,2.12,21.19,5.18,8.74,3.89,27.46,12.05,53.37,23.35,23.37,10.19,52.46,22.87,85.94,37.52,13.5,5.91,25.65,13.99,36.13,24.03,15.96,15.29,27.99,32.72,35.76,51.82,12.5,30.72,12.66,110.27,11.68,196.07-.15,12.84-.27,23.93-.27,33.04,0,8.36,2.17,14.58,6.63,19.03,7.39,7.36,19.21,7.64,19.33,7.64h.08Z"/>
</svg>