<?xml version="1.0" encoding="utf-8"?>
<!-- Generator: Adobe Illustrator 28.1.0, SVG Export Plug-In . SVG Version: 6.00 Build 0)  -->
<svg version="1.1" id="Layer_1" xmlns="http://www.w3.org/2000/svg" xmlns:xlink="http://www.w3.org/1999/xlink" x="0px" y="0px"
	 viewBox="0 0 1920 1080" style="enable-background:new 0 0 1920 1080;" xml:space="preserve">
<style type="text/css">
	.st0{fill:#FFFFFF;}
</style>
<g id="EXAMPLE_-_Active">
	<path class="st0" d="M1151.5,753h-247c-60.4,0-115.6-19.5-155.6-54.8c-21-18.6-37.3-40.9-48.5-66.5c-11.5-26.2-17.4-55.1-17.4-85.9
		v5.7c0-49.2,21.4-93.2,62-127c29.5-24.6,69.6-44.6,119.1-59.2c80.4-23.8,159.5-26.1,162.8-26.2h1.1c3.3,0,82.7,0.2,163.4,23.1
		c49.8,14.1,90.1,34,119.8,59.2c40.4,34.3,61.8,79.3,61.8,130.2v-5.7c0,30.4-5.5,58.9-16.2,84.7c-10.8,25.7-26.6,48.2-47,66.8
		C1269.8,733.7,1215,753,1151.5,753L1151.5,753z M1028.5,419c-6.8,0.2-75.8,3.2-142.9,23.3C804.2,466.6,763,503.4,763,551.5v-5.7
		c0,87.9,71.1,127.2,141.5,127.2h247c87.3,0,141.5-48.8,141.5-127.2v5.7c0-27.7-10.5-49.5-33.1-68.9c-20.7-17.7-50.6-32.2-88.9-43.2
		C1104.1,420.3,1035.3,419.1,1028.5,419L1028.5,419z"/>
</g>
</svg>
