<?xml version="1.0" encoding="UTF-8"?>
<svg id="EXAMPLE_-_Active" data-name="EXAMPLE - Active" xmlns="http://www.w3.org/2000/svg" viewBox="0 0 1920 1080">
  <defs>
    <style>
      .cls-1 {
        fill: #fff;
        stroke-width: 0px;
      }
    </style>
  </defs>
  <path id="Long" class="cls-1" d="M1694.43,856H547.4c-37.12,0-73.1-10.83-104.04-31.33l-160.05-106.01c-17.1-10.78-27.3-29.27-27.3-49.49v-97.11c0-14.7,8.82-28.17,22.53-33.45,14.28-5.49,29.93-1.42,39.7,10.27l129.64,155.05c14.06,16.81,34.65,27.51,56.48,29.34l352.24,29.56c34.6,2.9,68.38-4.38,97.67-21.05,29.75-16.94,50.74-40.95,62.39-71.35,20.75-54.18,2.86-122.57-15.81-170.4-3.64-9.34-11.23-16.38-20.82-19.31-9.6-2.94-19.85-1.36-28.11,4.35l-42.86,29.59-.68.33c-1.05.51-26.04,12.56-60.1,15.66-45.77,4.17-86.02-9.9-116.4-40.69-41.37-41.93-80.18-87.35-105.61-118.26-8.2-9.97-11.44-23.28-8.14-35.76s12.04-22.18,24.03-26.8L1300.22,56.05c11.75-4.52,25.07-2.18,34.64,6.38,7.52,6.72,11.44,16.59,11.17,26.67-1.48,54.51-9.66,125.38-40.05,155.06-37.92,37.04-65.73,41.33-97.94,46.3-6.46,1-13.15,2.03-20.18,3.37-24.03,4.58-58.39,11.82-82.99,17.08-4.5.96-6.08,4.46-6.55,5.91-.47,1.46-1.24,5.22,1.84,8.64l119.95,133.2c3.83,4.25,9.09,6.72,14.81,6.95,5.72.22,11.16-1.81,15.32-5.74l207.95-196.57c10.67-10.09,25.77-12.95,39.39-7.47,13.62,5.48,22.53,18,23.24,32.67l14.37,296.54c1.02,20.98,9.88,40.58,24.96,55.21l159.54,154.7c10.66,10.34,13.78,25.33,8.11,39.08-5.54,13.42-18.88,21.97-33.4,21.97ZM291.41,556.22c-1.93,0-3.77.36-5.38.94-4.85,1.76-10.02,6.44-10.02,14.3v97.71c0,13.33,6.74,25.53,18.04,32.62l.21.13,160.15,106.07c27.58,18.26,59.92,28,93,28h1147.31c6.27,0,12.08-3.62,14.54-9.38,2.64-6.17,1.34-12.67-3.45-17.32l-159.54-154.7c-18.73-18.17-29.75-42.53-31.01-68.59l-14.37-296.54c-.33-6.88-4.34-12.51-10.73-15.08-6.39-2.57-13.18-1.28-18.19,3.45l-207.95,196.57c-8.11,7.67-18.7,11.64-29.87,11.19-11.15-.45-21.4-5.26-28.87-13.55l-119.95-133.2c-6.97-7.74-9.21-18.28-6-28.19,3.21-9.91,11.21-17.12,21.39-19.3,24.69-5.29,59.21-12.56,83.43-17.17,7.38-1.41,14.24-2.46,20.87-3.49,31.17-4.81,53.68-8.29,87.01-40.84,19.77-19.31,32.18-71.05,34.05-141.95.12-4.67-1.99-8.89-5.8-11.58-3.81-2.69-8.49-3.27-12.85-1.6l-658.05,253.1c-6.01,2.31-10.37,7.24-11.94,13.5s.15,12.62,4.16,17.5c25.16,30.59,63.62,75.62,104.55,117.1,26.27,26.62,59.82,38.35,99.71,34.88,27.77-2.42,49.32-11.73,53.18-13.49l41.55-28.69c13.33-9.2,29.85-11.76,45.34-7.02,15.47,4.74,27.71,16.1,33.59,31.17,19.95,51.12,38.89,124.68,15.85,184.82-13.34,34.84-37.29,62.29-71.17,81.58-32.82,18.69-70.6,26.85-109.24,23.6l-352.24-29.56c-27.12-2.28-52.69-15.56-70.15-36.44l-129.64-155.05c-3.37-4.03-7.6-5.49-11.48-5.49Z"/>
</svg>