<?xml version="1.0" encoding="UTF-8"?>
<svg id="EXAMPLE_-_Active" data-name="EXAMPLE - Active" xmlns="http://www.w3.org/2000/svg" viewBox="0 0 1920 1080">
  <defs>
    <style>
      .cls-1 {
        fill: #fff;
        stroke-width: 0px;
      }
    </style>
  </defs>
  <path id="Medium" class="cls-1" d="M1694.97,856H547.4c-37.12,0-73.1-10.83-104.04-31.33l-160.05-106.01c-17.1-10.78-27.3-29.27-27.3-49.49v-97.71c0-14.99,9.11-27.99,23.2-33.1,14.09-5.12,29.41-.99,39.03,10.51l129.64,155.05c14.06,16.81,34.65,27.51,56.48,29.34l352.24,29.56c1.06.09,2.13.17,3.19.24,43.28,2.85,95.31-15.91,126.56-45.6l263.92-257.61,207.95-196.57c10.67-10.09,25.77-12.95,39.39-7.47,13.62,5.48,22.53,18,23.24,32.67l14.37,296.54c1.02,20.98,9.88,40.58,24.96,55.21l159.54,154.7c10.6,10.28,13.74,25.17,8.2,38.86-5.55,13.69-18.17,22.19-32.94,22.19ZM291.41,556.22c-1.93,0-3.77.36-5.38.94-4.85,1.76-10.02,6.44-10.02,14.3v97.71c0,13.33,6.74,25.53,18.04,32.62l.21.13,160.15,106.07c27.66,18.32,59.82,28,93,28h1147.58c6.56,0,11.94-3.63,14.4-9.71,2.46-6.08,1.12-12.43-3.58-16.99l-159.54-154.7c-18.73-18.17-29.75-42.53-31.01-68.59l-14.37-296.54c-.33-6.88-4.34-12.51-10.73-15.08-6.39-2.57-13.18-1.28-18.19,3.45l-207.89,196.51-263.89,257.58c-17.35,16.5-40.12,30.12-65.86,39.38-25.67,9.24-51.9,13.29-75.84,11.72-1.19-.08-2.37-.17-3.55-.26l-352.24-29.57c-27.12-2.28-52.69-15.56-70.15-36.44l-129.64-155.05c-3.37-4.03-7.6-5.49-11.48-5.49ZM993.28,724.68h0,0Z"/>
</svg>