<?xml version="1.0" encoding="UTF-8"?>
<svg id="EXAMPLE_-_Active" data-name="EXAMPLE - Active" xmlns="http://www.w3.org/2000/svg" viewBox="0 0 1920 1080">
  <defs>
    <style>
      .cls-1 {
        fill: #fff;
        stroke-width: 0px;
      }
    </style>
  </defs>
  <path id="Short" class="cls-1" d="M771.48,500.9c-13.23,0-26.54-4.22-37.6-12.62l-13.88-10.54-.54-.57c-37.3-38.87-71.5-79.11-93.62-106.03-8.16-9.93-10.97-22.76-7.69-35.19,3.28-12.43,12.04-22.2,24.03-26.81L1300.22,56.05c10.54-4.05,22.34-2.59,31.57,3.93s14.56,17.15,14.26,28.44c-1.44,54.6-9.55,125.93-40.07,155.74-37.92,37.03-65.73,41.33-97.94,46.3-6.46,1-13.15,2.03-20.18,3.37-24.03,4.58-58.39,11.82-82.99,17.08l-.55.1-260.1,40.65c-3.52,1.8-15.75,8.79-20.25,21.01-3.01,8.19-1.99,17.61,3.02,27.99,16.04,33.22,5.23,53.87-1.92,67.53l-.22.42c-4.4,8.42-10.54,15.51-18.23,21.07-10.35,7.5-22.72,11.22-35.15,11.22ZM745.97,472.35c14.51,11.01,34.63,11.48,48.93,1.12,5.16-3.74,9.28-8.5,12.24-14.15l.22-.43c6.54-12.48,13.3-25.39,1.63-49.55-7.5-15.54-8.75-30.28-3.7-43.8,8.32-22.32,31.02-32.31,31.98-32.73l1.16-.5,262.53-41.03c24.67-5.28,59.03-12.52,83.16-17.11,7.38-1.41,14.24-2.46,20.87-3.49,31.17-4.81,53.68-8.29,87.01-40.84,19.77-19.31,32.18-71.05,34.05-141.95.12-4.67-1.99-8.89-5.81-11.58-3.81-2.69-8.49-3.27-12.85-1.6l-658.05,253.1c-5.93,2.28-10.26,7.11-11.88,13.25-1.62,6.14-.23,12.48,3.8,17.39,21.79,26.52,55.41,66.08,92.06,104.31l12.63,9.59Z"/>
</svg>