<?xml version="1.0" encoding="UTF-8"?>
<svg id="EXAMPLE_-_Active" data-name="EXAMPLE - Active" xmlns="http://www.w3.org/2000/svg" viewBox="0 0 1920 1080">
  <defs>
    <style>
      .cls-1 {
        fill: #fff;
        stroke-width: 0px;
      }
    </style>
  </defs>
  <path id="Short_Oval" data-name="Short Oval" class="cls-1" d="M993,773.34c9.93-16.58,19-30.34,19-30.34,22-29,54-82,54-82l5.54-14.35c20.66-53.51,24.43-112.06,10.81-167.77h0c-5.97-35.24-19.39-99.38-41.35-124.88l-29.23-38.24c-12.93-16.92-27.33-32.66-43.02-47.06l-6.48-5.94s.1,0,.14,0c-9.91-8.34-19.1-17.48-28.82-26.04-2.63-2.31-5.31-4.55-8.01-6.77-.24-.2-.44-.37-.62-.51-.18-.13-.38-.27-.61-.44-1.43-1.03-2.84-2.06-4.3-3.05-5.83-3.96-11.91-7.56-18.11-10.91-6.35-3.43-12.85-6.58-19.45-9.5-.86-.38-2.28-.99-2.79-1.2-1.2-.49-2.4-.98-3.6-1.46-3.54-1.41-7.11-2.79-10.72-4-4.17-1.4-8.4-2.55-12.67-3.56-192.61-3.64-330.9.07-330.9.07-57.49-.44-114,16.32-161.23,49.11-42.67,29.62-83.3,75.4-92.92,144.52-22,158,30,318,115.33,377.33,85.33,59.34,142.67,76.67,268.67,86,51.54,3.82,113.13,9.42,191.69,12.29,27.44,1,54.61-5.78,78.32-19.64.54-.31,1.07-.63,1.61-.94,20.43-11.95,38.21-27.94,52.25-47l17.46-23.7ZM1011.67,670.33l-6.92,11c-9.42,14.98-20.77,28.65-33.75,40.67h0s-41.42,47.32-122.95,68.17c-98.09-2.2-194.36-9.35-271.05-16.5-178.67-16.67-225.33-142.67-225.33-142.67,0,0-58.67-95.33-2.67-226.67,56-131.33,197.33-144.66,197.33-144.66l216.67-2.67s20.4.6,51.92,1.51c27.83,5.24,61.12,12.5,75.08,19.49,26,13,42,24,42,24,0,0,72.67,85.67,95.33,179,22.67,93.33-15.67,189.33-15.67,189.33Z"/>
</svg>