<?xml version="1.0" encoding="UTF-8"?>
<svg id="EXAMPLE_-_Active" data-name="EXAMPLE - Active" xmlns="http://www.w3.org/2000/svg" viewBox="0 0 1920 1080">
  <defs>
    <style>
      .cls-1 {
        fill: #fff;
        stroke-width: 0px;
      }
    </style>
  </defs>
  <path id="Oval" class="cls-1" d="M1414.85,455.82s-42.85-239.82-347.85-253.82c-289.69-13.3-545.18-6.63-545.18-6.63-57.49-.44-114,16.32-161.23,49.11-42.67,29.62-83.3,75.4-92.92,144.52-22,158,30,318,115.33,377.33,85.33,59.34,142.67,76.67,268.67,86,126,9.34,394.66,29.34,562.66-6,66.5-13.98,113.89-54.81,146.87-99.05,62.18-83.38,80.94-191.09,53.65-291.46ZM1219.65,749.42c-7.59,4.03-15.58,7.91-23.98,11.58-105.34,46-440,29.33-618.67,12.67-178.67-16.67-225.33-142.67-225.33-142.67,0,0-58.67-95.33-2.67-226.67,56-131.33,197.33-144.66,197.33-144.66l216.67-2.67s324.58,9.15,374,10.67c57.78,1.77,138,50.33,177.33,110,25.29,38.35,43.91,75.75,46.96,116.3,7.95,105.58-48.15,205.78-141.64,255.45Z"/>
</svg>