<?xml version="1.0" encoding="UTF-8"?>
<svg id="EXAMPLE_-_Active" data-name="EXAMPLE - Active" xmlns="http://www.w3.org/2000/svg" viewBox="0 0 1920 1080">
  <defs>
    <style>
      .cls-1 {
        fill: #fff;
        stroke-width: 0px;
      }
    </style>
  </defs>
  <path id="Grand_Prix" data-name="Grand Prix" class="cls-1" d="M1089.08,953.63c-27.48,0-51.18-3.94-71.04-15.28-24.21-13.83-102.49-65.46-93.65-149.07,3.91-37.01,11.82-81.74,17.76-112.74,6.91-36.05,38.54-62.21,75.22-62.21h40.34c27.29,0,52.54,15.9,64.33,40.5l14.52,30.29c14.86,31,16.04,67.08,3.25,98.98l-11.6,28.93c-4.8,11.98-3.15,25.38,4.41,35.84s19.78,16.21,32.66,15.4c18.46-1.17,34.5-11.69,42.91-28.16,8.39-16.41,7.56-35.49-2.21-51.1l-21.75-31.64-.2-.34c-14.94-25.89-17.87-56.92-8.04-85.15s31.42-50.72,59.21-61.72l71.11-28.14c8.61-3.41,15.16-10.42,17.98-19.24,2.81-8.82,1.53-18.33-3.52-26.1-9.19-14.13-24.73-22.94-41.57-23.57l-91.74-3.45H467.15c-18,0-34.87-8.84-45.12-23.64-10.25-14.8-12.59-33.7-6.26-50.56l106.29-282.88c11.07-29.47,37.06-52.57,69.52-61.8,32-9.1,65.72-3.26,90.2,15.63l.1.08,393.47,311.66c21.75,16.77,47.76,26.16,75.21,27.15l176.49,6.37c26.59.96,50.82,13.86,66.47,35.38l56.57,77.83c18.32,25.2,27.62,56.21,26.19,87.33l-4.07,88.84c-1.29,28.15-6.36,56.01-15.06,82.81l-7.01,21.58c-.65,2.07-17.05,52.53-59.76,64.52-38.07,10.69-197.59,37.75-204.37,38.9l-.42.06-2.69.34c-34.98,4.42-66.29,8.37-93.82,8.37ZM1017.38,634.33c-27.1,0-50.48,19.33-55.58,45.97-5.87,30.63-13.67,74.76-17.52,111.08-7.57,71.56,62.14,117.29,83.68,129.6,33.94,19.4,86.23,12.79,152.43,4.43l2.48-.31c6.72-1.14,165.64-28.17,202.09-38.4,32.23-9.05,45.99-50.96,46.13-51.39l7.03-21.64c8.15-25.09,12.9-51.18,14.11-77.54l4.07-88.84c1.22-26.6-6.73-53.12-22.39-74.66l-56.57-77.83c-12.01-16.52-30.6-26.42-51.01-27.15l-176.49-6.37c-31.67-1.14-61.67-11.98-86.75-31.34l-.1-.08L669.51,118.21c-19.47-15-46.56-19.55-72.46-12.19-26.38,7.5-47.42,26.04-56.27,49.6l-106.29,282.88c-4.08,10.87-2.64,22.59,3.98,32.13,6.61,9.55,17.07,15.03,28.68,15.03h720.89s91.93,3.47,91.93,3.47c23.33.88,44.85,13.08,57.58,32.65,8.33,12.81,10.45,28.51,5.81,43.08-4.64,14.56-15.46,26.14-29.67,31.77l-71.11,28.14c-22.38,8.86-39.76,26.97-47.68,49.7-7.88,22.61-5.58,47.46,6.29,68.24l21.63,31.49c13.66,21.67,14.86,48.22,3.2,71.03-11.66,22.81-33.89,37.4-59.46,39.02-19.77,1.25-38.51-7.59-50.12-23.64-11.61-16.05-14.14-36.62-6.77-55l11.6-28.93c10.71-26.72,9.72-56.94-2.72-82.9l-14.52-30.29c-8.49-17.71-26.66-29.15-46.29-29.15h-40.34Z"/>
</svg>