<?xml version="1.0" encoding="UTF-8"?>
<svg id="EXAMPLE_-_Active" xmlns="http://www.w3.org/2000/svg" viewBox="0 0 1920 1080">
  <defs>
    <style>
      .cls-1 {
        fill: #fff;
      }
    </style>
  </defs>
  <path class="cls-1" d="M584.33,1016.19c-9.71,0-19.49-1-29.2-3.07l-34.47-5.25c-34.8-5.63-60.2-21.3-75.54-46.57-18.6-30.64-20.75-74.03-5.89-119.06l52.26-169,30.27-82.94c35.9-98.38,58-201.22,65.67-305.66l10.9-148.34c2.91-31.89,27.87-57.2,58.07-58.88l7.18-.4c60.17-3.4,117-6.62,147.54,22.53,46.73,44.61,58.19,102.89,36.05,183.41-21.13,76.87-48.08,122.57-84.81,143.84-29.8,17.25-45.25,19.63-48.77,19.95l-20.94,3.93c-24.72,4.86-38.8,16.13-51.86,41.58l-82.04,159.75c-4.4,8.57-4.42,18.41-.05,26.99,4.37,8.59,12.33,14.37,21.84,15.86l52.88,8.29c1.57.25,3.14.5,4.71.77,26.45,4.53,52.91,12.79,78.63,24.55l48.75,22.29c49.38,22.58,97.95,30.81,144.35,24.47l60.18-8.55,8.99-1.26c4.48-.63,9.05.67,12.53,3.56,3.48,2.89,5.6,7.14,5.81,11.66.41,8.95-5.96,16.71-14.82,18.05l-9.04,1.37-116.12,18.71c-39.1,6.3-73.78,27.17-97.66,58.77l-62.36,82.51c-26.98,35.7-69.27,56.12-113.04,56.12ZM505.71,678.04l-52.21,168.84c-13.3,40.27-11.64,80.14,4.45,106.63,12.96,21.34,34.84,34.65,65.05,39.53l35.07,5.36c47.85,10.26,97.84-8.33,127.35-47.38l62.36-82.51c26.22-34.69,64.31-57.61,107.24-64.53l116.22-18.73,9.08-1.38c1.24-.19,2.14-1.28,2.08-2.53-.02-.41-.23-.67-.4-.81-.17-.14-.46-.3-.87-.25l-8.98,1.26-60.21,8.55c-49.3,6.73-100.65-1.91-152.66-25.69l-48.75-22.29c-24.55-11.22-49.75-19.1-74.93-23.41-1.5-.26-3-.5-4.5-.74l-52.88-8.29c-14.33-2.25-26.32-10.95-32.89-23.88-6.57-12.93-6.54-27.74.08-40.64l82.04-159.76c15.29-29.77,32.78-43.64,62.38-49.46l22.02-4.13h.36c1.02-.11,14.62-1.78,42.64-18,32.65-18.9,58.12-63,77.86-134.83,20.51-74.63,10.36-128.2-31.95-168.59-25.83-24.65-79.51-21.62-136.34-18.4l-7.19.4c-22.8,1.27-41.69,20.7-43.96,45.2l-10.88,148.15c-7.77,105.82-30.16,210.02-66.54,309.7l-30.14,82.58Z"/>
</svg>