<?xml version="1.0" encoding="UTF-8"?>
<svg id="EXAMPLE_-_Active" xmlns="http://www.w3.org/2000/svg" viewBox="0 0 1920 1080">
  <defs>
    <style>
      .cls-1 {
        fill: #fff;
      }
    </style>
  </defs>
  <path class="cls-1" d="M584.33,1016.19c-9.71,0-19.49-1-29.2-3.07l-34.47-5.25c-34.8-5.63-60.2-21.3-75.54-46.57-18.6-30.64-20.75-74.03-5.89-119.06l52.25-168.99,30.27-82.94c35.9-98.38,58-201.22,65.67-305.66l10.9-148.34c2.91-31.89,27.87-57.2,58.07-58.88l7.18-.4c60.17-3.4,117-6.62,147.54,22.53,46.73,44.61,58.19,102.89,36.05,183.41-21.13,76.87-48.08,122.57-84.81,143.84-29.8,17.25-45.24,19.63-48.77,19.95l-20.94,3.93c-24.72,4.86-38.8,16.13-51.86,41.58l-82.04,159.75c-4.4,8.57-4.42,18.41-.05,26.99,4.37,8.59,12.33,14.37,21.84,15.86l52.88,8.29c1.57.25,3.14.5,4.71.77,26.45,4.53,52.91,12.79,78.63,24.55l33.21,15.19c12.11,5.54,20.33,16.72,22.01,29.93h0c.53,4.17,4.24,7.22,8.43,6.96h.2s108.07-3.99,108.07-3.99c15.4-.57,30.94-2.03,46.17-4.34l55.21-8.38c16.84-5.09,29.08-17.72,31.24-32.28l4.55-30.67c2.46-16.6,13.88-30.25,29.78-35.61l2.57-.87c23.99-8.08,48.92-13.41,74.12-15.81l124.9-11.94c14.11-1.35,28.18,1.44,40.7,8.06l14.91,7.88c10.04,5.31,21.34,7.87,32.7,7.45l.43-.02c8.46-.33,16.62-2.98,23.6-7.67,7.64-5.14,17.38-11.68,24.82-16.68,8.83-5.93,19.5-8.46,30.06-7.13l16.14,2.04c19.72,2.49,39.29-2.76,55.12-14.79l19.89-15.08c6.72-4.22,15.1-4.92,22.42-1.85,7.32,3.06,12.71,9.52,14.42,17.27l20.24,91.9c4.23,19.19-.41,38.98-12.72,54.3-12.31,15.32-30.64,24.1-50.29,24.1h-64.43c-16.13,0-32.45-.77-48.5-2.29l-17.44-1.65c-14.37-1.36-28.96-1.96-43.39-1.8l-240.55,2.82c-13.77.16-27.65,1.36-41.23,3.54l-196.69,31.69c-39.1,6.3-73.78,27.17-97.66,58.77l-62.36,82.51c-26.98,35.7-69.27,56.12-113.04,56.12ZM505.71,678.04l-52.21,168.85c-13.3,40.27-11.64,80.14,4.45,106.63,12.96,21.34,34.84,34.65,65.05,39.53l35.07,5.36c47.85,10.26,97.84-8.33,127.35-47.38l62.36-82.51c26.22-34.69,64.31-57.61,107.24-64.53l196.69-31.69c14.32-2.31,28.93-3.56,43.45-3.73l240.55-2.82c14.96-.18,30.09.45,44.98,1.86l17.44,1.65c15.59,1.48,31.43,2.23,47.09,2.23h64.43c15.08,0,29.15-6.74,38.6-18.5,9.45-11.76,13.01-26.95,9.77-41.68l-20.24-91.9c-.67-3.03-2.69-5.46-5.56-6.66-2.78-1.16-5.82-.95-8.4.57l-19.04,14.47c-18.97,14.42-42.44,20.72-66.08,17.73l-16.14-2.04c-6.96-.88-13.99.79-19.81,4.7-7.44,5-17.17,11.53-24.82,16.67-9.29,6.25-20.14,9.78-31.39,10.21l-.43.02c-13.98.54-27.91-2.63-40.29-9.17l-14.91-7.88c-9.93-5.25-21.08-7.46-32.26-6.39l-124.9,11.94c-24.05,2.3-47.86,7.38-70.76,15.1l-2.57.87c-10.54,3.55-18.1,12.59-19.74,23.59l-4.55,30.67c-3.04,20.46-19.65,37.97-42.33,44.61l-.48.14-56.22,8.53c-15.8,2.4-31.9,3.91-47.87,4.5l-107.98,3.98c-12.04.69-22.63-8.07-24.15-20.05l7.44-.95-7.44.95c-1.02-8.02-6.02-14.82-13.37-18.18l-33.21-15.19c-24.55-11.22-49.75-19.1-74.93-23.41-1.5-.26-3-.5-4.5-.74l-52.88-8.29c-14.33-2.25-26.32-10.95-32.89-23.88-6.57-12.93-6.54-27.74.08-40.64l82.04-159.75c15.29-29.77,32.78-43.64,62.38-49.46l22.02-4.13h.36c1.01-.11,14.61-1.77,42.64-18,32.65-18.9,58.12-63,77.86-134.83,20.51-74.63,10.36-128.2-31.95-168.59-25.83-24.65-79.51-21.62-136.34-18.4l-7.19.4c-22.81,1.27-41.69,20.7-43.96,45.21l-10.88,148.14c-7.77,105.82-30.16,210.02-66.54,309.7l-30.14,82.58Z"/>
</svg>