<?xml version="1.0" encoding="UTF-8"?>
<svg id="EXAMPLE_-_Active" xmlns="http://www.w3.org/2000/svg" viewBox="0 0 1920 1080">
  <defs>
    <style>
      .cls-1 {
        fill: #fff;
      }
    </style>
  </defs>
  <path class="cls-1" d="M864.19,817.46c-4.48,0-8.82-1.62-12.25-4.64-4.17-3.68-6.46-8.99-6.27-14.55h0c.41-11.95,10.1-21.42,22.05-21.55,22-.25,36.96-.77,42.12-1.47l80.98-11.5c14.91-1.75,28.01-15.58,30.47-32.17l4.55-30.67c2.46-16.6,13.88-30.25,29.78-35.61l2.57-.87c23.99-8.08,48.92-13.41,74.12-15.81l124.9-11.94c14.11-1.35,28.18,1.44,40.7,8.06l14.91,7.88c10.04,5.31,21.34,7.87,32.7,7.45l.43-.02c8.46-.33,16.62-2.98,23.6-7.67,7.64-5.14,17.38-11.68,24.82-16.68,8.83-5.93,19.51-8.46,30.06-7.13l16.14,2.04c19.72,2.49,39.29-2.76,55.12-14.79l19.89-15.08c6.72-4.22,15.1-4.92,22.42-1.85,7.32,3.06,12.71,9.52,14.42,17.27l20.24,91.9c4.23,19.19-.41,38.98-12.72,54.3-12.31,15.32-30.64,24.1-50.29,24.1h-64.43c-16.13,0-32.45-.77-48.5-2.29l-17.44-1.65c-14.37-1.36-28.96-1.97-43.39-1.8l-240.55,2.82c-13.77.16-27.65,1.35-41.23,3.54l-186.92,30.12c-.99.16-1.99.24-2.97.24ZM992.67,778.63l-80.74,11.47c-5.96.81-20.76,1.36-44.03,1.62-3.92.04-7.09,3.15-7.23,7.07h0c-.05,1.46.73,2.37,1.2,2.78.47.41,1.47,1.07,2.91.84l186.92-30.12c14.32-2.31,28.93-3.56,43.45-3.73l240.55-2.82c14.95-.18,30.09.45,44.98,1.86l17.44,1.65c15.59,1.48,31.43,2.23,47.09,2.23h64.43c15.08,0,29.15-6.74,38.6-18.5,9.45-11.76,13.01-26.95,9.76-41.68l-20.24-91.9c-.67-3.03-2.69-5.46-5.56-6.66-2.78-1.16-5.82-.95-8.4.57l-19.04,14.47c-18.97,14.42-42.44,20.72-66.08,17.73l-16.14-2.04c-6.96-.87-13.99.79-19.81,4.7-7.44,5-17.17,11.53-24.82,16.67-9.29,6.25-20.14,9.78-31.39,10.21l-.43.02c-14,.54-27.92-2.63-40.29-9.17l-14.91-7.88c-9.93-5.25-21.08-7.46-32.26-6.39l-124.9,11.94c-24.05,2.3-47.86,7.38-70.76,15.1l-2.57.87c-10.54,3.55-18.1,12.59-19.74,23.59l-4.55,30.67c-3.48,23.41-21.75,42.26-43.47,44.85Z"/>
</svg>