<svg id="Grand_East_-_Config" data-name="Grand East - Config" xmlns="http://www.w3.org/2000/svg" viewBox="0 0 1920 1080"><defs><style>.cls-1{fill:#fff;}</style></defs><title>active</title><path class="cls-1" d="M1863.41,406.09c-.61-13.5-16.35-37.22-27.12-48.59-11-11.61-23.32-16.79-40-16.79-14.4,0-71.95,9.7-91,13.09a347,347,0,0,0-46.54,11.8l-.17.06c-.75.28-75.83,28-96.54,35.51-2.76,1-5.42,2.08-8.57,3.38-29,12.07-51.47,1.65-52.38,1.22l-.15-.07c-5-2.29-121.35-56.09-142.07-64.69-34.59-15-68.68-9.62-71.92-9.06-1.61.21-15.12,2-27.08,3.55a112.1,112.1,0,0,0-35.75,10.76c-13.55,6.75-25,14.48-34,23-9.65,9.08-12.84,20.37-8.74,31,5.65,14.6,23.87,25,44.31,25.37,1.08,0,2.21,0,3.22.11,71.31,5.29,137.73,21.66,150.32,24.89l2.65.66c10.67,2.63,23.93,5.91,28.69,20,4.36,17.26-5.42,27-14.42,32.15a53.92,53.92,0,0,1-5.65,2.66c-6.65,2.83-14.93,6.36-22.7,18.48-7.54,11-7.64,36.57-7.57,42.18-.94,20.94-19.91,30.46-28,33.59-3.33,1.28-6.82,2.78-10.65,4.58-16.27,7.64-70.37,33-83.72,39.15-1.69.78-3.28,1.61-4.48,2.25A124.24,124.24,0,0,1,1196,658.65c-1.58.25-5.43.78-10.76,1.51-21,2.87-64.52,8.85-89.3,14.09-29.78,5.65-60.8,21.35-79.34,30.73l-.1,0c-1.4.73-13.78,7.44-19.84,18l-1.17,1.84c-3.38,5.35-5.42,8.57-9.36,10.82a17.87,17.87,0,0,1-14.47,1.23c-2.71-.89-5.18-1.94-7.8-3a88.77,88.77,0,0,0-9.65-3.64,32.76,32.76,0,0,0-37.87,13.69c-1.94,2.81-7.3,9.06-15.08,6.4-11.43-3.92-15.77-13-16-20.15-.1-2.81-1.07-27.44-6.26-37.85-10-26.34-11.09-39.5-10.81-48.89,1.25-26,9-36,17.1-46.56l2.22-2.89c1.59-2.1,3.84-4.93,6.44-8.2,12.9-16.19,32.37-40.62,36.74-57.32,2.25-7,2.9-13.67,3.73-22.07.67-6.83,1.51-15.32,3.49-26.54a86.6,86.6,0,0,1,13.23-33.61,176.51,176.51,0,0,0,10.21-17.56c2.23-4.35,5.17-9.4,8-14.28,4.13-7.1,7.69-13.23,9.39-17.58l.22-.68c5.59-19.71,3.75-36.56-5.46-50.1-16-23.55-48.68-27.81-52.23-28.21-63.55-10.49-99.56-16.5-104.15-17.36l-.29-.05C747,290,711.41,290.12,670.22,290.26c-14.09.05-28.66.1-45.47-.28h-.17c-8.64,0-23.09,0-32.71-6.41l-.32-.2c-31.16-18.57-55.74-16.69-66.44-15.8-27.5.43-39-8.13-45.93-13.25-1.1-.82-2.15-1.59-3.17-2.27-27.15-18.7-35.51-20.58-52.09-17.7l-.51.09-.5.16c-44,14.11-62.49,30-71.39,37.66-1,.88-1.9,1.64-2.7,2.28l-.2.18c-8.59,7.46-14.87,15.42-18.66,23.64a40.09,40.09,0,0,0-1.77,28.69c1.71,5.51,4.86,16.16,6.79,25.61l.11.47c3.34,12.28-2.44,21.46-17.19,27.27-41.34,14.31-97.75,25.08-116.3,28.62l-2.77.53c-36.23,6.14-43.29-4.73-49-13.46-.66-1-1.3-2-1.94-2.91-5.43-7.79-21.77-40.13-26.45-75.51-4.34-30.88,6.66-51.72,11.94-61.73.43-.8.81-1.54,1.16-2.21,5.24-10.16,25.08-57.58,29.92-71.49l.5-1.44c3.85-11,15.55-44.59,7.89-78.88a80.27,80.27,0,0,0-14.14-30.31c-16.23-21.6-33-31.3-51.28-29.63l-.3,0C72.92,46.55,67.31,88.32,67.09,90.06c0,.36-4.72,36.28-5.87,43.77-.92,6-20.28,146.42-22.19,182.8-2,18.2-1.28,94.3-1.23,99.34C35.94,475.69,53,538.11,57.69,551.57c6.8,19.54,84.52,206.82,100.67,245.49,3,7.11,6.21,14.22,9.64,21.13l8.74,17.64a230.82,230.82,0,0,0,13.94,24.29c19.95,30.36,54.64,82.87,62.71,93.48l.35.43c18,20.41,52.86,32.35,103.57,35.5a80.72,80.72,0,0,0,8.95.51,68.74,68.74,0,0,0,14.18-1.43,50.89,50.89,0,0,0,30.13-19.41c5.65-7.53,16.12-21.59,22.83-31a56.93,56.93,0,0,1,15.38-15.09,66.65,66.65,0,0,1,12.84-6.54,630.29,630.29,0,0,1,98.08-28.65c13.16-2.5,27.43-4.89,44.54-4.17,27.77,1.24,42.27,22.35,50.93,34.95,1,1.52,2,2.91,2.88,4.12l.48.61c24.07,27,53.54,19.81,66.46,9,3.91-3.29,9.11-9.16,15.14-16,7.5-8.47,16.85-19,22.33-22.51l.4-.27c.21-.15,21.79-15.75,47.88-24.23,27.42-8.91,230-81.65,238.52-84.73l25.26-8.92c108.84-39.33,244.64-88.85,274-101.55C1508.2,611,1657.81,527.75,1662.75,525c63.34-32.73,160.85-82.5,170.18-85.61l.8-.32c1-.49,2.35-1,3.72-1.61C1847.21,433.35,1865.33,425.74,1863.41,406.09Zm-31.77,17.53c-1.38.58-2.7,1.13-3.92,1.69-15.94,5.85-155.9,78.11-172,86.41l-.23.12c-1.5.85-151.94,84.84-312.66,148.44l-.23.09c-22.74,9.87-117.22,44.88-273.16,101.23l-25.25,8.92c-2.11.76-210.93,75.75-238.13,84.59-27.39,8.9-49.45,24.49-51.89,26.25-7.24,4.69-16.42,15.06-25.31,25.09-5.4,6.09-10.49,11.84-13.56,14.42-6.17,5.18-26.28,13.94-45.36-7.17-.75-1.06-1.56-2.24-2.44-3.52-9.58-13.93-27.4-39.87-62.65-41.44-18.73-.79-34,1.75-48,4.41a633.74,633.74,0,0,0-100.69,29.39,82.38,82.38,0,0,0-15.73,8,72.34,72.34,0,0,0-19.33,18.92c-6.61,9.3-17,23.24-22.6,30.72a35.89,35.89,0,0,1-21.24,13.72,58,58,0,0,1-18.53.68l-.37,0c-57.84-3.56-82.64-18.38-93.27-30.27-8.43-11.19-46.08-68.27-62-92.42a217.19,217.19,0,0,1-13-22.71l-8.74-17.64c-3.28-6.62-6.39-13.43-9.24-20.25-22-52.7-94-226.47-100.34-244.64C67.64,534.51,51,473.18,52.8,416.28V416c0-.81-.82-80.83,1.16-97.86l0-.49c1.71-33.57,20.49-171.39,22-181.5C77.22,128.45,81.77,93.48,82,92c0-.32,4.25-31.91,27-35.06,4.81-.44,18.88-1.41,37.77,23.72a65.19,65.19,0,0,1,11.49,24.58c6.73,30.11-3.92,60.63-7.41,70.66l-.52,1.48c-4.58,13.17-24.14,59.95-29.07,69.52l-1.09,2.08c-6,11.4-18.55,35.13-13.54,70.76,4.93,37.34,22,72,29,82.05.55.79,1.1,1.64,1.67,2.51,6.77,10.43,18.11,27.89,64.14,20.06l3-.57c18.83-3.59,76.15-14.53,118.54-29.23l.28-.1c21.76-8.52,31.62-25.32,26.39-45-2.06-10-5.34-21.09-7.12-26.83a25.11,25.11,0,0,1,1.08-18c2.88-6.25,7.85-12.47,14.77-18.51.87-.7,1.84-1.53,2.93-2.48,8.13-7,25-21.45,65.71-34.6,10.28-1.78,15-2.24,40.55,15.39l.09.07c.73.48,1.6,1.13,2.61,1.87,7.9,5.86,22.58,16.76,55.36,16.2l.49,0c9.88-.82,30.42-2.53,57.62,13.63C597.06,305,614.86,305,624.5,305c17,.38,31.61.33,45.77.28,40.56-.13,75.6-.25,144.19,9.94,5.33,1,40.5,6.86,104.54,17.43l.47.07c.28,0,29,3.21,41.64,21.81,6.51,9.6,7.68,22.1,3.49,37.15-1.37,3.33-4.86,9.34-8.25,15.16-2.94,5.06-6,10.28-8.39,15a162.09,162.09,0,0,1-9.34,16.09,101,101,0,0,0-15.52,39.32c-2.08,11.77-3,20.59-3.65,27.67-.78,7.88-1.34,13.58-3.14,19.13l-.14.48c-3.45,13.57-23.32,38.51-34,51.91-2.67,3.34-5,6.24-6.68,8.49-.7.93-1.42,1.86-2.14,2.79-8.78,11.41-18.73,24.35-20.2,55.07v.13c-.33,10.92.82,26,11.93,55.12l.17.45.22.41c2.2,4.12,4.28,18.07,4.75,31.78.39,11.61,7.47,27.44,26.13,33.83,14.28,4.89,26-3,32.34-12.14a17.85,17.85,0,0,1,21.24-7.75,76.45,76.45,0,0,1,8,3.06c2.78,1.18,5.66,2.4,9,3.49a33,33,0,0,0,26.6-2.45c7.19-4.11,10.79-9.8,14.6-15.83l1.23-1.94.21-.35c3.25-5.74,11-10.76,13.82-12.24,17.86-9,47.7-24.12,75.38-29.36l.16,0c24.23-5.13,67.51-11.07,88.31-13.92,5.41-.74,9.32-1.28,11-1.55a140.14,140.14,0,0,0,42.15-13.94c1-.54,2.35-1.24,3.69-1.86,13.4-6.15,67.55-31.56,83.83-39.2,3.51-1.65,6.67-3,9.66-4.16,8.53-3.27,36.45-16.37,37.67-47.19v-.41c-.15-10.51,1.32-28.5,5-33.73l.17-.25c5.3-8.31,10-10.32,16-12.87a66.53,66.53,0,0,0,7.2-3.44c8.95-5.11,29-20.14,21.44-49.17l-.14-.46c-7.28-22.18-27.4-27.15-39.41-30.11l-2.53-.63c-12.8-3.29-80.35-19.94-152.92-25.32-1.45-.1-2.85-.13-4.09-.15-16-.26-27.68-8.33-30.57-15.78-1.86-4.83-.17-9.76,5-14.65,7.84-7.37,18.37-14.45,30.44-20.46a97.3,97.3,0,0,1,31-9.32c12.77-1.65,27.29-3.57,27.29-3.57l.35-.06c.32-.05,32.23-5.55,63.51,8.05l.12,0c20.12,8.34,138.58,63.08,141.54,64.45,2.19,1,29.84,13.59,64.63-.89,3-1.22,5.42-2.22,7.9-3.12,20.43-7.37,93.45-34.37,96.56-35.52A338.41,338.41,0,0,1,1708,368.57c29-5.19,77.21-12.86,88.34-12.86,12.33,0,21,3.62,29.07,12.11,11,11.59,22.81,31.64,23,39l0,.59C1849.26,414.85,1843.67,418.57,1831.64,423.62Z"/></svg>