<?xml version="1.0" encoding="utf-8"?>
<!-- Generator: Adobe Illustrator 24.0.1, SVG Export Plug-In . SVG Version: 6.00 Build 0)  -->
<svg version="1.1" id="Jefferson___Config" xmlns="http://www.w3.org/2000/svg" xmlns:xlink="http://www.w3.org/1999/xlink" x="0px"
	 y="0px" viewBox="0 0 1920 1080" style="enable-background:new 0 0 1920 1080;" xml:space="preserve">
<style type="text/css">
	.st0{fill:#FFFFFF;}
</style>
<title>active</title>
<path class="st0" d="M920.5,641.2c-14.1-18.1-37.6-20.2-44.5-20.5c-133.3-4.4-387-9.3-531.3-11c-34.8-0.4-43.8-12.6-48-24.6
	c-7.5-21,15.6-47.7,28.9-56.6c30.3-20.2,40.6-51.2,37.3-71.5c-7-43.8,11.2-58,28.8-67.9c5.9-3.3,14.9-6.9,23.7-10.4
	c11.8-4.7,23-9.2,29.4-13.9c16.5-12.1,20.7-27.9,21.4-39.1c1-16.2-5.2-33.4-15.3-42.8c-36.5-34.1-99.9-22.4-114.9-17.5
	c-35.6,11.8-69.9,45.9-81.4,81c-10.8,32.8-28.7,86.4-45.9,138.3c-11.3,34-23,69.1-32.5,97.6v0c-6.2,18.6-4.5,35.5,5,50.2
	c19.8,30.6,68.3,41.6,89.8,45.1l0,0.3l9.9,1c85.2,8.5,243.6,23.3,348.4,33l34.4,3.2c45.1,4.2,62.1,10.1,82.9,18.6
	c29.2,12,54.4,22.4,72,24.4c4.3,0.5,8.6,0.7,12.8,0.7c22.1,0,43.5-6.6,61.5-19c18.6-12.9,31.9-30.9,35.7-48.2
	C933,670.8,930.3,653.9,920.5,641.2z M909,687.3c-4.7,21.4-38.1,56.7-88.2,50.9c-14.9-1.7-40-12.1-66.7-23
	c-22.5-9.2-40.8-15.5-88.6-20l-34.4-3.2c-104.8-9.8-263.1-24.5-348.2-33c-0.9-0.1-65.3-7.1-84.9-37.4c-6.1-9.4-7-20.2-2.8-33v0
	c9.4-28.4,21.1-63.6,32.5-97.5c17.3-51.9,35.2-105.5,46-138.3c9.6-29.1,39.1-58.5,68.7-68.3c15.9-5.3,68-12,94.9,13.1
	c4.8,4.5,9.6,15.5,8.9,27c-0.6,10-5,18.1-13.2,24.1c-4.4,3.3-15.4,7.6-25,11.5c-9.4,3.7-19,7.6-26.1,11.6
	c-22.6,12.7-47.4,34.3-38.8,88.5c2.3,14.3-7,37.3-28.7,51.7c-17.2,11.5-48.7,46.1-36.7,80c8.9,25.1,30.7,37.4,66.6,37.9
	c144.2,1.7,397.7,6.6,530.9,11c9.6,0.3,22.4,3.8,29.4,12.8C910.7,661.3,912.2,672.7,909,687.3z"/>
</svg>
