<?xml version="1.0" encoding="utf-8"?>
<!-- Generator: Adobe Illustrator 24.0.1, SVG Export Plug-In . SVG Version: 6.00 Build 0)  -->
<svg version="1.1" id="Milwaukee__Config" xmlns="http://www.w3.org/2000/svg" xmlns:xlink="http://www.w3.org/1999/xlink" x="0px"
	 y="0px" viewBox="0 0 1920 1080" style="enable-background:new 0 0 1920 1080;" xml:space="preserve">
<style type="text/css">
	.st0{fill:#FFFFFF;}
</style>
<title>active</title>
<path class="st0" d="M1618.7,236.1c-78.8-84.3-199.4-117.1-278.7-119.6c-133.9-4.1-336.8-7.7-523.4-7.7
	c-120.4,0-234.1,1.5-318.2,5.2c-130.4,5.8-206.2,72.6-246.8,127.5c-22.8,30.8-41,66.9-52.6,104.2c-10.2,32.7-15.1,66.1-13.9,93.9
	c2.5,56.6,15.7,107.5,39.3,151.2c20.5,38.1,49,71,84.6,97.7c78.1,58.6,165.2,70,199.1,72.2c164.8,10.7,449.3,13.1,670.9,13.1
	c59.9,0,115.3-0.2,162.4-0.4h0c50.9-0.2,135.9-16.2,207.8-60.3c42.1-25.8,75.9-58.5,100.2-97.2c28.8-45.6,44.5-99.7,46.8-160.7
	C1699.4,368.3,1673.3,294.6,1618.7,236.1z M1676.1,454.4c-4,106.9-50.3,188.2-137.5,241.7c-68.4,42-149.1,57.1-197.5,57.4h0
	c-221.1,1.1-623.2,0.9-832-12.6c-32-2.1-114.5-12.9-188.4-68.3c-72.4-54.3-111.4-133-115.9-233.7c-1.9-43.8,13.3-118.6,62.6-185.3
	c38-51.5,109.1-113.9,231.7-119.4c83.9-3.8,197.2-5.2,317.3-5.2c186.4,0,389.1,3.6,522.9,7.7c75.5,2.3,190.1,33.4,264.7,113.2
	C1654.9,304.2,1679.2,373.1,1676.1,454.4z"/>
</svg>
