<?xml version="1.0" encoding="utf-8"?>
<!-- Generator: Adobe Illustrator 24.0.1, SVG Export Plug-In . SVG Version: 6.00 Build 0)  -->
<svg version="1.1" id="International_-_Config" xmlns="http://www.w3.org/2000/svg" xmlns:xlink="http://www.w3.org/1999/xlink"
	 x="0px" y="0px" viewBox="0 0 1920 1080" style="enable-background:new 0 0 1920 1080;" xml:space="preserve">
<style type="text/css">
	.st0{fill:#FFFFFF;}
</style>
<title>active</title>
<path class="st0" d="M1616.3,804.3c-0.5-23.8-15.2-43.8-27.7-53.8c-23.2-18.4-65.4-60.7-83.7-83.7c-2.4-3-4.9-5.9-7.4-8.8
	c-4.7-5.4-10-11.5-11.6-15.4c-4.9-12.2-12.4-29.7-20.3-48.1c-8.3-19.3-16.8-39.2-21.9-52.3c-9.2-23.2-8.9-26.1-8.2-33.6
	c1-11.2,2.3-20,3.4-27.8c1.3-9.4,2.4-16.9,2.5-24.5c0.3-23.3,0.9-53.1,1.5-84.5c1.6-76.7,3.4-163.5,1.6-216.4
	c-1.8-54.2-38.9-59-54.7-58.6c-11.7,0.3-30.2,0.1-48-0.2c-13.7-0.2-26.7-0.4-35.8-0.3c-32.4,0.3-52.5,9-68.8,17
	c-13.8,6.9-34.2,14.7-52.1,21.6c-3.9,1.5-7.6,2.9-11.1,4.3c-26.3,10.2-44.6,12.3-59.5,6.7c-1.3-0.5-2.8-1.1-4.5-1.6
	c-10.5-3.9-26.4-9.7-35.9-15.1c-8.9-5.1-15-11-17.6-14.8c-2.8-4-7.2-10-11.4-15.8c-3.9-5.3-7.9-10.8-10.4-14.5
	c-12.1-17.3-25.5-26.4-39.7-27c-13.8-0.6-27.4,6.7-40.1,21.9c-27.2,32.3-83.1,88.3-123.9,129.2c-8.1,8.1-15.7,15.7-22.5,22.5
	c-21.3,21.4-50.4,41.4-67.1,49.2c-28.9,13.7-92.5,33.5-128.2,43.4c-21.7,6.1-41.8,16-59.8,29.6c-31.8,23.6-59.2,50.7-77.3,76.5
	c-12.8,18.3-18.8,38.2-16.4,54.7c1.1,7.6-1.8,11.6-3.1,13c-16.1,16.6-22.1,22.8-21.9,35.5c0.3,22.9,20.1,33.6,38.3,33.8
	c26.1,0.3,258.3,2.9,368.8,0h0c43.5-1.2,84.5-10.9,122-28.8c35.2-16.9,62-38.4,79.1-53.2c52.7-45.5,85.7-116.9,87.6-121.1
	c18.7-38.9,27.6-41.7,33.5-43.5l0.3-0.1c18-5.5,36.6,3.7,50.8,12.3c3.3,2,7.8,5.6,12.5,9.4c5,4,10.6,8.6,16.4,12.5
	c9.7,6.6,21.3,10.4,31.2,10.2c1.4,0,3.3,0,5.4,0c5.5,0,11.8,0,15.9-0.4c11.2-1.1,19.6,0.8,24.9,5.7c7.1,6.6,7.4,17,7.3,20.1
	c-0.2,9.2-0.2,22.4-0.3,36.4c0,14.2-0.1,28.8-0.3,38.2c-0.6,17.9,0.6,35.9,3.7,53.7c3.4,18.8,9.4,44,15.8,70.7
	c8.9,37.3,18.1,75.8,21.3,101.5c4.4,35.6-2.9,64.3-21.4,85.4c-22.5,25.5-57.4,34.6-80.5,34.6c-69,0.2-143.3-0.4-222-1.1
	c-148.4-1.3-301.9-2.6-444.3,1.5c-53.4,1.5-88.6,35.8-98.8,67c-12.4,38.1-3.1,61.9,7.7,80.1c10,16.9,36.1,35.4,53.4,47.6
	c2.8,1.9,5.3,3.7,7.4,5.3c27.7,20.1,46.7,19.9,58.1,19.7c0.9,0,1.7,0,2.5,0c293.6-0.9,646.4,1.6,865.8,4.4c0.4,0,0.9,0,1.3,0
	c20.1,0,35-6.2,44.5-18.4c8-10.4,10.4-23,12-32.3c0.4-2.3,0.8-4.5,1.3-6.3c1.9-7.8,3.5-18.9,5-29.6c1-6.7,1.8-13.1,2.7-17.6
	c11.1-59,12.7-60.4,25.2-71.2C1612,838.9,1616.5,818.1,1616.3,804.3z M1575.3,844.1c-18.3,15.8-20.8,24.2-31.7,82.6
	c-0.9,5-1.9,11.5-2.8,18.5c-1.4,9.7-2.9,20.8-4.6,27.7c-0.6,2.3-1,4.8-1.5,7.4c-3.1,16.9-6.3,34.3-36.8,34.3c-0.3,0-0.7,0-1.1,0
	c-188.8-2.5-476.3-4.6-739.9-4.6c-42.9,0-85.1,0.1-126.1,0.2c-0.9,0-1.8,0-2.7,0c-10,0.1-23.7,0.3-46.1-15.9
	c-2.2-1.6-4.8-3.4-7.6-5.4c-14.9-10.6-40-28.3-47.8-41.5c-10.3-17.4-15.2-34.9-5.9-63.7c4-12.3,13.3-24.8,25.6-34.3
	c15.2-11.8,34.2-18.4,54.8-19c142-4.1,295.3-2.7,443.5-1.5c78.8,0.7,153.1,1.3,222.2,1.1c27.2-0.1,68.6-11,95.4-41.4
	c22.5-25.5,31.4-59.5,26.3-101c-3.3-26.8-12.6-65.9-21.7-103.7c-6.3-26.4-12.3-51.3-15.5-69.5c-2.8-16.3-4-33-3.4-49.6
	c0.3-9.7,0.3-24.5,0.3-38.8c0-13.3,0.1-27,0.3-35.9c0.2-6.6-0.9-23.3-13.7-35.2c-9.7-9-23.4-12.7-40.5-11c-3.1,0.3-9.4,0.3-13.9,0.3
	c-2.2,0-4.2,0-5.7,0c-4.7,0.1-12.5-1.9-19.5-6.7c-5.1-3.5-10.2-7.6-15.1-11.5c-5.3-4.3-10.3-8.3-14.7-11
	c-17.8-10.8-41.4-22.2-67-14.4l-0.3,0.1c-12.7,3.9-24.9,10.6-45.7,54l-0.1,0.2c-0.3,0.7-32.7,71.3-82.5,114.3
	c-40.1,34.6-97.7,74.7-188.5,77.1c-110.1,2.9-342,0.3-368,0c-1.9,0-18.4-0.6-18.6-14.2c-0.1-4,1.6-6.2,16.3-21.4
	c7.1-7.3,10.1-18.2,8.5-29.7c-1.3-8.8,1.5-24,13-40.4c9.8-13.9,32.2-41.8,72.9-71.9l0.1-0.1c15.9-12.1,33.8-21,53.1-26.3
	c31.3-8.7,99-29.3,131.4-44.6c18.6-8.8,49.6-29.9,72.7-53.2c6.8-6.8,14.4-14.4,22.5-22.5C886,181.2,942.3,124.9,970,91.9
	c8.5-10.1,16.5-15.1,23.9-14.8c9.6,0.4,18.5,10.3,24.2,18.5c2.6,3.8,6.5,9.1,10.7,14.8c4.1,5.7,8.4,11.6,11.1,15.4
	c5.1,7.4,13.9,14.9,24.1,20.8c10.9,6.2,27.7,12.4,38.9,16.5c1.6,0.6,3,1.1,4.4,1.6c19.9,7.4,42.6,5.3,73.8-6.8
	c3.5-1.3,7.2-2.8,11-4.3c18.4-7.1,39.2-15.1,53.8-22.3c15-7.4,32-14.7,60.1-15c9-0.1,21.8,0.1,35.4,0.3c18,0.2,36.7,0.5,48.8,0.2
	c0.5,0,1,0,1.5,0c21.1,0,31.8,12.9,32.6,39.3c1.8,52.3,0,138.9-1.6,215.3c-0.6,31.5-1.3,61.3-1.5,84.7c-0.1,6.3-1,13.2-2.3,22
	c-1.1,8-2.4,17.1-3.5,28.8c-1.1,12.1-0.1,18.4,9.5,42.8c5.3,13.3,13.9,33.4,22.2,52.8c7.5,17.5,15.3,35.7,20.1,47.7
	c2.8,7,8.8,13.9,15.1,21.1c2.3,2.7,4.8,5.5,6.8,8.1c19,23.9,62.9,67.8,86.9,86.9c7.3,5.8,19.8,20.5,20.2,38.5
	C1596.6,818.6,1589.5,831.8,1575.3,844.1z"/>
</svg>
