<?xml version="1.0" encoding="utf-8"?>
<!-- Generator: Adobe Illustrator 24.0.1, SVG Export Plug-In . SVG Version: 6.00 Build 0)  -->
<svg version="1.1" id="Modified_-_Config" xmlns="http://www.w3.org/2000/svg" xmlns:xlink="http://www.w3.org/1999/xlink" x="0px"
	 y="0px" viewBox="0 0 1920 1080" style="enable-background:new 0 0 1920 1080;" xml:space="preserve">
<style type="text/css">
	.st0{fill:#FFFFFF;}
</style>
<title>active</title>
<path class="st0" d="M1616.3,804.2c-0.5-23.8-15.2-43.8-27.7-53.7c-23.2-18.4-65.4-60.7-83.7-83.7c-2.4-3-5-6-7.5-8.9
	c-4.7-5.4-9.9-11.4-11.5-15.3c-3.5-8.7-8.5-20.1-13.8-32.1c-10.4-23.7-22.3-50.6-27.1-67.4c-4.5-15.7-6.3-23.4-7.9-30.1
	c-0.6-2.6-1.2-5.1-1.9-7.8c-1.4-5.6-3.8-15-9.9-22.6c-5.4-6.6-15.4-14-32.8-11.4c-5.8,0.9-13.4,2.9-20.9,4.8
	c-4.6,1.2-8.9,2.3-12.1,3c-14.1,3-33.1,16.7-27.9,42.1c3.3,16,8.3,36.4,13.5,58.1c9.4,38.6,20,82.4,23.5,110.9
	c4.4,35.6-2.9,64.3-21.4,85.4c-22.5,25.5-57.4,34.6-80.5,34.6c-69,0.2-143.3-0.4-222-1.1c-148.4-1.3-301.9-2.6-444.3,1.5
	c-41.5,1.2-75.4,23.8-98.1,65.3c-11.2,20.5-30.8,61.3-39.5,81.4c-9.5,21.7-9.9,40.1-1.1,53.2c9,13.4,26.7,20,52.6,19.5
	c28.7-0.5,115.4,0.3,116.3,0.3h0.1c293.6-0.9,646.3,1.6,865.8,4.4c0.4,0,0.9,0,1.3,0c20.1,0,35-6.2,44.4-18.4
	c8-10.4,10.4-23,12.1-32.3c0.4-2.3,0.8-4.5,1.3-6.3c1.9-7.9,3.5-19,5-29.8c0.9-6.7,1.8-12.9,2.7-17.4c11.1-59,12.7-60.4,25.2-71.2
	C1612,838.9,1616.6,818.1,1616.3,804.2z M1575.3,844.1c-18.3,15.8-20.7,24.2-31.7,82.6c-0.9,4.9-1.8,11.4-2.8,18.3
	c-1.4,9.8-2.9,20.9-4.6,27.8c-0.6,2.3-1,4.8-1.5,7.4c-3.1,16.9-6.3,34.3-36.8,34.3c-0.4,0-0.7,0-1.1,0
	c-188.8-2.5-476.3-4.6-739.9-4.6c-42.8,0-85.1,0.1-126.1,0.2c-2.9,0-88.2-0.8-116.8-0.3c-12.8,0.2-29.4-1.4-35.6-10.6
	c-6.3-9.4-0.9-25.4,2.9-34.1c8.5-19.6,28.1-60.3,38.7-79.8c19.3-35.4,46.6-53.9,81.1-54.9c142-4.1,295.3-2.7,443.5-1.5
	c78.8,0.7,153.1,1.3,222.2,1.1c27.2-0.1,68.6-11,95.4-41.4c22.5-25.5,31.4-59.5,26.3-101c-3.6-29.6-14.4-74-23.9-113.2
	c-5.2-21.5-10.2-41.8-13.4-57.4c-3-14.7,10.8-18.1,12.4-18.5c3.7-0.8,8.2-2,13-3.2c6.6-1.7,14.1-3.7,18.8-4.4
	c12.7-1.9,16.6,4.6,20.3,19.1c0.6,2.6,1.2,4.9,1.8,7.5c1.6,7,3.5,14.9,8.2,31.1c5.2,18,17.3,45.6,28,69.9
	c5.2,11.9,10.2,23.2,13.5,31.5c2.8,7,8.7,13.8,15,21c2.4,2.7,4.8,5.5,6.9,8.2c19,23.9,62.9,67.8,86.9,86.9
	c7.3,5.8,19.8,20.4,20.1,38.5C1596.6,818.6,1589.5,831.8,1575.3,844.1z"/>
</svg>
