<?xml version="1.0" encoding="utf-8"?>
<!-- Generator: Adobe Illustrator 24.0.1, SVG Export Plug-In . SVG Version: 6.00 Build 0)  -->
<svg version="1.1" id="Club_-_Config" xmlns="http://www.w3.org/2000/svg" xmlns:xlink="http://www.w3.org/1999/xlink" x="0px"
	 y="0px" viewBox="0 0 1920 1080" style="enable-background:new 0 0 1920 1080;" xml:space="preserve">
<style type="text/css">
	.st0{fill:#FFFFFF;}
</style>
<title>active</title>
<path class="st0" d="M1444.3,209.1c0-13.5-0.1-28.9,0-53.4c0.1-19.9-5.2-35.2-15.7-45.4c-12.1-11.8-27.9-13.9-39-13.5
	c-11.7,0.3-30.2,0.1-48-0.2c-13.7-0.2-26.7-0.4-35.9-0.3c-32.4,0.3-52.5,9-68.8,17c-13.8,6.9-34.2,14.7-52.1,21.6
	c-3.9,1.5-7.6,2.9-11.1,4.3c-26.3,10.2-44.6,12.3-59.5,6.7c-1.3-0.5-2.8-1.1-4.5-1.6c-10.5-3.9-26.4-9.7-35.9-15.1
	c-8.9-5.1-15-11-17.6-14.8c-2.8-4-7.2-10-11.4-15.8c-3.9-5.3-7.9-10.8-10.4-14.5c-12.1-17.3-25.5-26.4-39.7-27
	c-13.8-0.6-27.4,6.7-40.1,21.9c-27.2,32.3-83.1,88.3-123.9,129.2c-8.1,8.1-15.7,15.7-22.5,22.6c-21.3,21.4-50.4,41.4-67.1,49.2
	c-28.9,13.7-92.5,33.5-128.2,43.4c-21.7,6.1-41.8,16-59.8,29.6c-31.8,23.6-59.3,50.8-77.3,76.5c-12.8,18.3-18.8,38.2-16.4,54.7
	c1.1,7.6-1.8,11.6-3.1,13c-16.1,16.6-22.1,22.8-21.9,35.5c0.3,22.9,20.1,33.6,38.3,33.8c16.9,0.2,120.6,1.4,221.4,1.4
	c54.7,0,108.6-0.3,147.4-1.4c43.5-1.2,84.5-10.9,122-28.8c35.2-16.9,62-38.4,79.1-53.2c52.7-45.5,85.6-116.8,87.6-121.1
	c18.7-38.9,27.6-41.7,33.5-43.5l0.3-0.1c18-5.5,36.6,3.7,50.8,12.3c3.3,2,7.8,5.6,12.5,9.4c5,4,10.6,8.6,16.4,12.5
	c9.7,6.6,21.3,10.4,31.2,10.2c2.2,0,5.9,0.1,9.4,0.3c4.2,0.2,8.1,0.4,11.1,0.3v0c16.3-0.4,36.2,0,55.4,0.3
	c18.3,0.3,35.6,0.6,48.4,0.3c23.6-0.6,34.1-13,38.8-23.3c5.2-11.4,5.2-24.2,5.3-32.7c0-1.3,0-2.4,0-3.5
	C1444.5,251.4,1444.4,234.5,1444.3,209.1z M1423.3,305.5c0,1.2,0,2.5,0,3.9c-0.1,23.5-3.9,35.6-24.6,36.1c-12.4,0.3-29.4,0-47.5-0.3
	c-19.4-0.4-39.5-0.7-56.2-0.3h0c-2.3,0-6.1-0.1-9.7-0.3c-4-0.2-7.9-0.3-10.7-0.3c-4.6,0.1-12.5-1.9-19.5-6.7
	c-5.1-3.5-10.2-7.6-15.1-11.5c-5.3-4.3-10.3-8.3-14.7-11c-17.8-10.8-41.4-22.2-67-14.4l-0.3,0.1c-12.7,3.9-24.9,10.6-45.7,54
	l-0.1,0.2c-0.3,0.7-32.7,71.3-82.5,114.3c-40.1,34.6-97.7,74.7-188.5,77.1c-110.1,2.9-342,0.3-368,0c-1.9,0-18.4-0.6-18.6-14.2
	c-0.1-4,1.6-6.2,16.3-21.4c7.1-7.3,10.1-18.2,8.5-29.7c-1.3-8.8,1.5-24,13-40.4c9.8-13.9,32.2-41.8,72.9-71.9l0.1-0.1
	c15.9-12.1,33.8-21,53.1-26.3c31.3-8.7,99-29.3,131.4-44.6c18.6-8.8,49.6-29.9,72.7-53.2c6.8-6.8,14.4-14.4,22.5-22.5
	C886,181.2,942.3,124.9,970,91.9c8.3-9.8,16.1-14.8,23.2-14.8c0.2,0,0.5,0,0.7,0c9.6,0.4,18.5,10.3,24.2,18.5
	c2.6,3.8,6.5,9.1,10.7,14.8c4.1,5.7,8.4,11.6,11.1,15.4c5.1,7.4,13.9,14.9,24.1,20.8c10.9,6.2,27.7,12.4,38.9,16.5
	c1.6,0.6,3,1.1,4.4,1.6c19.9,7.4,42.6,5.3,73.8-6.8c3.5-1.3,7.2-2.8,11-4.3c18.4-7.1,39.2-15.1,53.8-22.3c15-7.4,32-14.7,60.1-15
	c9-0.1,21.8,0.1,35.4,0.3c18,0.2,36.7,0.5,48.8,0.2c7.3-0.2,17.5,1,24.5,7.9c6.5,6.3,9.7,16.7,9.7,31c-0.1,24.6,0,40.6,0,53.5
	C1424.4,234.5,1424.5,251.2,1423.3,305.5z"/>
</svg>
