<?xml version="1.0" encoding="utf-8"?>
<!-- Generator: Adobe Illustrator 24.0.1, SVG Export Plug-In . SVG Version: 6.00 Build 0)  -->
<svg version="1.1" id="Cup_-_Config" xmlns="http://www.w3.org/2000/svg" xmlns:xlink="http://www.w3.org/1999/xlink" x="0px"
	 y="0px" viewBox="0 0 1920 1080" style="enable-background:new 0 0 1920 1080;" xml:space="preserve">
<style type="text/css">
	.st0{fill:#FFFFFF;}
</style>
<title>active</title>
<path class="st0" d="M1807.4,640c-1.4-14.3-6.7-24.8-15.7-31.3c-12.4-8.9-27.9-7-36.1-5.1c-14.2,3.3-38,8.1-59,12.3
	c-11.9,2.4-23.2,4.6-31.4,6.4c-43.7,9.2-174.3,37.5-178.6,38.4c-16.6,3.2-26.6,4.8-34.6,5.3c-68.3,4.3-171.7,3.4-257.3-2.2
	c-49.5-3.2-76.6-28.4-90.6-49c-17.6-25.9-23.8-58.9-15.7-84.1c9.2-28.8,25.8-49.3,49.5-60.9c25.8-12.7,55.4-11.9,73.1-5.4
	c12.7,4.6,29.1,10.8,46.4,17.5c47.1,17.9,105.6,40.2,142,49.7c53.6,14,80.7,9.3,105.9,2.8c34.1-8.6,64.2-27.3,87.2-54
	c14.9-17.6,65.3-77.7,85.3-115.1c10.6-19.7,8.4-35,4.8-44.4c-6-15.4-19.8-25-29.7-28.5c-31.7-11.1-80.2-26.7-127-41.8
	c-19.7-6.4-38.4-12.4-54.9-17.8c-44.9-14.6-68,4.4-83.3,16.9c-1.4,1.2-2.8,2.3-4.2,3.4c-6.5,5.1-16.7,14.2-24.9,21.5
	c-2.8,2.5-5.4,4.9-7.5,6.7c-43.1,37.9-72.1,25.3-102.7,12c-1.8-0.8-3.7-1.6-5.5-2.4c-27-11.5-52.6-15.9-67.9-18.4
	c-24.9-4.2-69-9.9-91.8-12.2c-45.1-4.5-64.3-3.2-86,1c-24.6,4.8-42.4,15.7-52.8,32.3c-18.3,29.2-8.1,68.1-4.3,82.7
	c11.8,44.9,4.4,71.4-2.1,94.9l-0.6,2.1c-7.4,26.6-19.4,47.5-36.7,63.6c-24.3,22.8-76.9,62.5-101.3,80.3c-36.9,27-56.4,27-73.6,27
	c-45.7-0.1-200.9-0.6-276.5-3.5c-49.9-1.9-72.3-17.1-94-31.7l-3-2c-43-28.9-124.1-84.3-167.9-114.5c-36.7-25.4-65.3-13-78.6,5.2
	c-8.8,12.1-10.2,26.7-3.8,41c4.9,11,13.5,20.1,20,24.9l0,0c46,34.2,138.3,101.7,188.3,137.2c39.9,28.4,122.9,87.4,168.8,111
	c31.5,16.2,57.9,22.1,80.2,22.1c29.4,0,51.7-10.3,69.6-21.3c56.2-34.5,86.4-44.1,117.3-52.3c77.2-20.4,143-16.5,185.7-11.7
	c41.9,4.7,97.2,29.1,133.8,45.3c4.3,1.9,8.4,3.7,12.2,5.4c53.1,23.2,80,26.9,111.1,25.7c60.7-2.4,82.1-22.7,101.1-40.6
	c3.9-3.7,7.5-7.1,11.4-10.4c28.7-23.9,61.5-33.5,97.4-28.6c6.6,0.9,16.1,2.4,26.1,4.1c11.8,1.9,24.1,3.9,32.2,4.9
	c55.6,7.1,73.2-4.5,91.9-16.6l1.5-1c18.8-12.2,31.3-11.6,43.5-11c1.2,0.1,2.4,0.1,3.5,0.2c10.9,0.4,23.5,1,36.9,1.6
	c41.2,1.9,87.9,4,117,3.7c37.3-0.4,54.7-11.6,56.5-36.4C1808.5,680.8,1808.7,653.6,1807.4,640z M1787.5,693.6
	c-0.5,7-1.3,17.5-36.8,17.9c-28.5,0.3-74.9-1.8-115.8-3.7c-13.4-0.6-26-1.2-37-1.6c-1.1,0-2.2-0.1-3.3-0.2
	c-13.2-0.7-31.2-1.6-55.4,14.2l-1.6,1c-16.8,11-30.1,19.7-78.4,13.6c-7.8-1-19.9-3-31.5-4.8c-10.2-1.7-19.8-3.2-26.6-4.1
	c-41.7-5.7-79.7,5.4-112.9,33c-4.4,3.7-8.5,7.5-12.4,11.2c-17.9,17-34.9,33.1-88.1,35.1c-24.5,0.9-47.7-0.2-102.3-24.1
	c-3.8-1.6-7.8-3.4-12.1-5.3c-37.7-16.7-94.6-41.9-139.6-46.9c-44.3-4.9-112.5-9-193,12.3c-31.3,8.3-64.2,18.7-122.7,54.6
	c-15.9,9.8-34.7,18.3-59.2,18.3c-19.5,0-42.7-5.4-71-19.9c-44.6-22.9-129.9-83.6-166.3-109.5c-49.9-35.5-142-102.8-187.9-137l0,0
	c-0.3-0.2-25.4-19.7-12-38.1c2.6-3.5,9.7-11.3,22.4-11.3c7.5,0,17,2.8,28.7,10.8c43.8,30.2,125,85.7,168.1,114.6l3,2
	c21.7,14.7,48.8,33,104.4,35.1c76,2.9,231.4,3.5,277.3,3.6c23.7,0,46.4-2.3,85.5-30.8c24.7-18.1,78.1-58.4,103.2-81.9
	c20-18.7,33.8-42.6,42.2-72.8l0.6-2.1c6.9-24.6,15.4-55.2,2.2-105.4c-3.2-12.3-11.9-45.1,1.9-67c7.4-11.8,20.7-19.6,39.7-23.3
	c19.8-3.9,37.6-5,80.2-0.8c22.5,2.3,65.9,7.9,90.5,12c15.4,2.6,38.6,6.5,63.4,17.1c1.8,0.8,3.6,1.5,5.4,2.3
	c31.7,13.8,71.3,31,123.9-15.3c2.1-1.9,4.8-4.2,7.6-6.8c8-7.1,17.9-16,23.9-20.8c1.5-1.2,3-2.4,4.5-3.6c14.8-12.1,30-24.6,64.4-13.4
	c16.6,5.4,35.3,11.4,55,17.8c46.7,15.1,95,30.6,126.6,41.7c4.5,1.6,13.9,7.1,17.7,16.8c3.1,7.9,1.8,17.3-3.8,27.7
	c-15.2,28.3-52.8,76.2-82.9,111.5c-20.2,23.5-46.8,40-76.9,47.6c-23.4,6.1-46.8,10-95.9-2.8c-35.3-9.2-93.3-31.3-139.9-49.1
	c-17.4-6.6-33.9-12.9-46.7-17.6c-20.2-7.3-55.5-10.1-88.8,6.2c-28.3,13.9-48.9,39.1-59.7,72.8c-9.9,30.9-2.7,70.7,18.2,101.5
	c23.3,34.3,60.9,54.7,105.9,57.7c86.4,5.6,190.8,6.5,259.8,2.2c8.9-0.6,19.7-2.2,37.3-5.6l0.2,0c1.3-0.3,134.5-29.1,178.6-38.4
	c8.1-1.7,19.3-3.9,31.2-6.3c21.2-4.2,45.1-9,59.7-12.4c3.9-0.9,13.7-2.6,19.9,1.9c4.1,3,6.6,8.7,7.4,16.9
	C1788.7,654.4,1788.5,680.3,1787.5,693.6z"/>
</svg>
