<svg id="Barber_ShortA_Config" data-name="Barber ShortA_Config" xmlns="http://www.w3.org/2000/svg" viewBox="0 0 1920 1080"><defs><style>.cls-1{fill:#fff;}</style></defs><title>active</title><path class="cls-1" d="M1662.49,928.8a164.24,164.24,0,0,1-32.37-3c-25.64-5.21-44.41-16.57-55.8-33.76-7.81-11.78-12-25.88-12.65-43.08-1.05-26.1.46-80.93,1.52-109.22,1.34-35.61-9.14-68.84-28-88.89-12-12.8-26.49-19.47-43-19.85-180.52-4.14-496.26-4.68-726.8-5.07-48.95-.08-94.22-.16-133.77-.26h-.41c-52.16,0-71.38,25.93-84.38,54-3.24,7-7.12,15.58-11.22,24.66C515.66,748.49,488.32,809,465.85,841c-30.85,43.9-64,52.82-92.26,55.75-42.86,4.45-74-12.93-92.61-28.3-21.46-17.75-37.48-42.69-41.8-65.08-14.62-75.83,29.53-116.38,48.39-133.7,25.15-23.11,84.19-72.14,115.86-93.39,67.29-45.15,104.32-44.78,140.13-44.41l5.94,0c73.68.44,173-1.27,278.16-3.09,108.08-1.86,219.84-3.79,313.51-3.54,1.31,0,2.69,0,4.14,0,13.36.17,31.68.41,41.86-10.82,7.9-8.71,10.71-23.94,8.34-45.26l-.11-1c-2.23-19.91-7.44-66.55,35.1-92.24,12.4-7.5,40.67-14.24,64.71-5.77,59.31,20.9,198,72.62,200.81,73.68,18.78,6.8,29.09,5.52,40.54,1,22.9-9,81.67-29.58,107.09-31.88,33.53-3,61.56,2.38,83.32,16.12,19.23,12.14,30.35,28.54,37.89,41.47,29.05,49.8,107.74,190.18,108.53,191.59,24.59,43.74,23.5,92.64-3.18,141.39-20.89,38.18-53.54,68.81-75.16,83.45C1749.2,918.1,1700.18,928.8,1662.49,928.8ZM631.23,605.67h.46c39.54.1,84.81.18,133.76.26,230.63.39,546.48.93,727.22,5.07,21.71.5,41.44,9.54,57.07,26.14,22.47,23.87,35,62.51,33.44,103.35-1,28-2.55,82.18-1.52,107.66.83,20.51,7.17,48.85,52.44,58.05,34.42,7,94.28,1.85,149.74-35.7,34.52-23.37,121.86-110,72.11-198.49-.8-1.42-79.41-141.65-108.37-191.31-15.61-26.77-39.94-53.37-102.12-47.74-21.73,2-77.78,21.19-101.57,30.57-15.09,5.94-30.17,8.07-54.74-.83l-.09,0c-1.4-.53-141-52.62-200.49-73.57-18.34-6.46-40.14-.57-47.73,4-31.58,19.08-27.67,54.1-25.57,72.91l.11,1c3,27.27-1.47,47.76-13.39,60.9-16.24,17.91-41.71,17.59-56.94,17.39-1.38,0-2.69,0-3.93,0C1047.66,545,936,546.94,828,548.8c-105.27,1.81-204.71,3.53-278.61,3.09l-6,0c-34.28-.35-66.64-.68-128.79,41-29.82,20-88.48,68.55-113.47,91.5-28.46,26.14-53.27,58.19-42.28,115.19C262.25,817.32,276,838.3,293.73,853c15.64,12.93,41.83,27.56,77.79,23.83,28.93-3,53.26-12.2,78-47.36,21.39-30.43,49.39-92.39,67.92-133.4,4.13-9.12,8-17.74,11.3-24.83C542.86,640.7,567.31,605.67,631.23,605.67Z"/></svg>