<?xml version="1.0" encoding="utf-8"?>
<!-- Generator: Adobe Illustrator 24.0.1, SVG Export Plug-In . SVG Version: 6.00 Build 0)  -->
<svg version="1.1" id="Road_Course_-_Turns" xmlns="http://www.w3.org/2000/svg" xmlns:xlink="http://www.w3.org/1999/xlink"
	 x="0px" y="0px" viewBox="0 0 1920 1080" style="enable-background:new 0 0 1920 1080;" xml:space="preserve">
<style type="text/css">
	.st0{fill:#FFFFFF;}
	.st1{font-family:'ArialMT';}
	.st2{font-size:36px;}
	.st3{letter-spacing:-2;}
</style>
<title>turns</title>
<text transform="matrix(1 0 0 1 1503.71 747.75)" class="st0 st1 st2">1</text>
<text transform="matrix(1 0 0 1 1451.04 549.12)" class="st0 st1 st2">2</text>
<text transform="matrix(1 0 0 1 1340.75 563.82)" class="st0 st1 st2">3</text>
<text transform="matrix(1 0 0 1 1235.83 603.3)" class="st0 st1 st2">4</text>
<text transform="matrix(1 0 0 1 962.77 520.52)" class="st0 st1 st2">5</text>
<text transform="matrix(1 0 0 1 628.62 522.04)" class="st0 st1 st2">6</text>
<text transform="matrix(1 0 0 1 444.92 631.07)" class="st0 st1 st2">7</text>
<text transform="matrix(1 0 0 1 421.21 496.56)" class="st0 st1 st2">8</text>
<text transform="matrix(1 0 0 1 541.81 441.87)" class="st0 st1 st2">9</text>
<text transform="matrix(1 0 0 1 628.09 363.54)" class="st0 st1 st2">10</text>
<text transform="matrix(1 0 0 1 1099.86 219.58)" class="st0 st1 st2 st3">11</text>
<text transform="matrix(1 0 0 1 324.63 347.1)" class="st0 st1 st2">12</text>
<text transform="matrix(1 0 0 1 416.52 801.65)" class="st0 st1 st2">13</text>
</svg>
