<?xml version="1.0" encoding="utf-8"?>
<!-- Generator: Adobe Illustrator 24.0.1, SVG Export Plug-In . SVG Version: 6.00 Build 0)  -->
<svg version="1.1" id="Road_Combined__Turns" xmlns="http://www.w3.org/2000/svg" xmlns:xlink="http://www.w3.org/1999/xlink"
	 x="0px" y="0px" viewBox="0 0 1920 1080" style="enable-background:new 0 0 1920 1080;" xml:space="preserve">
<style type="text/css">
	.st0{fill:#FFFFFF;}
	.st1{font-family:'ArialMT';}
	.st2{font-size:36px;}
	.st3{letter-spacing:-2;}
</style>
<title>turns</title>
<text transform="matrix(1 0 0 1 706.5 378.08)" class="st0 st1 st2">1</text>
<text transform="matrix(1 0 0 1 571.83 224.85)" class="st0 st1 st2">2</text>
<text transform="matrix(1 0 0 1 329.55 331.56)" class="st0 st1 st2">3</text>
<text transform="matrix(1 0 0 1 386.54 677.52)" class="st0 st1 st2">4</text>
<text transform="matrix(1 0 0 1 1380.92 763.63)" class="st0 st1 st2">5</text>
<text transform="matrix(1 0 0 1 1417.61 162.97)" class="st0 st1 st2">6</text>
<text transform="matrix(1 0 0 1 737.72 138.18)" class="st0 st1 st2">7</text>
<text transform="matrix(1 0 0 1 749.43 171.11)" class="st0 st1 st2">8</text>
<text transform="matrix(1 0 0 1 971.32 269.67)" class="st0 st1 st2">9</text>
<text transform="matrix(1 0 0 1 1154.65 240)" class="st0 st1 st2">10</text>
<text transform="matrix(1 0 0 1 1336.71 264.74)" class="st0 st1 st2 st3">11</text>
<text transform="matrix(1 0 0 1 1314.13 368.41)" class="st0 st1 st2">12</text>
</svg>
