<?xml version="1.0" encoding="utf-8"?>
<!-- Generator: Adobe Illustrator 24.0.1, SVG Export Plug-In . SVG Version: 6.00 Build 0)  -->
<svg version="1.1" id="Combined_Road_Course_-_Turns"
	 xmlns="http://www.w3.org/2000/svg" xmlns:xlink="http://www.w3.org/1999/xlink" x="0px" y="0px" viewBox="0 0 1920 1080"
	 style="enable-background:new 0 0 1920 1080;" xml:space="preserve">
<style type="text/css">
	.st0{fill:#FFFFFF;}
	.st1{font-family:'ArialMT';}
	.st2{font-size:36px;}
</style>
<title>turns</title>
<text transform="matrix(1 0 0 1 1558.37 718.04)" class="st0 st1 st2">1</text>
<text transform="matrix(1 0 0 1 1565.0699 231.5)" class="st0 st1 st2">2</text>
<text transform="matrix(1 0 0 1 1061.98 157.46)" class="st0 st1 st2">3</text>
<text transform="matrix(1 0 0 1 1424.2 311.04)" class="st0 st1 st2">4</text>
<text transform="matrix(1 0 0 1 1128.3199 401)" class="st0 st1 st2">5</text>
<text transform="matrix(1 0 0 1 1016.62 388.42)" class="st0 st1 st2">6</text>
<text transform="matrix(1 0 0 1 438.65 354.57)" class="st0 st1 st2">7</text>
<text transform="matrix(1 0 0 1 863.13 142.04)" class="st0 st1 st2">8</text>
<text transform="matrix(1 0 0 1 439.31 184.13)" class="st0 st1 st2">9</text>
<text transform="matrix(1 0 0 1 386.19 731.22)" class="st0 st1 st2">10</text>
</svg>
