<?xml version="1.0" encoding="utf-8"?>
<!-- Generator: Adobe Illustrator 24.0.1, SVG Export Plug-In . SVG Version: 6.00 Build 0)  -->
<svg version="1.1" id="Club_-_Turns" xmlns="http://www.w3.org/2000/svg" xmlns:xlink="http://www.w3.org/1999/xlink" x="0px"
	 y="0px" viewBox="0 0 1920 1080" style="enable-background:new 0 0 1920 1080;" xml:space="preserve">
<style type="text/css">
	.st0{fill:#FFFFFF;}
	.st1{font-family:'ArialMT';}
	.st2{font-size:36px;}
	.st3{letter-spacing:-2;}
</style>
<text transform="matrix(1 0 0 1 1629.9 815.03)" class="st0 st1 st2">1</text>
<text transform="matrix(1 0 0 1 1399.78 878.58)" class="st0 st1 st2">2</text>
<text transform="matrix(1 0 0 1 1305.74 819.14)" class="st0 st1 st2">3</text>
<text transform="matrix(1 0 0 1 1241.36 820.19)" class="st0 st1 st2">4</text>
<text transform="matrix(1 0 0 1 1063.8101 791.25)" class="st0 st1 st2">5</text>
<text transform="matrix(1 0 0 1 1005.39 838)" class="st0 st1 st2">6</text>
<text transform="matrix(1 0 0 1 788.64 736.19)" class="st0 st1 st2">7</text>
<text transform="matrix(1 0 0 1 881.17 369.71)" class="st0 st1 st2">8</text>
<text transform="matrix(1 0 0 1 1305.86 139.46)" class="st0 st1 st2">9</text>
<text transform="matrix(1 0 0 1 1370.75 125.24)" class="st0 st1 st2">10</text>
<text transform="matrix(1 0 0 1 1400.6 44.78)" class="st0 st1 st2 st3">11</text>
<text transform="matrix(1 0 0 1 1439.02 161.21)" class="st0 st1 st2">12</text>
<text transform="matrix(1 0 0 1 1469.3101 39.92)" class="st0 st1 st2">13</text>
<text transform="matrix(1 0 0 1 1681.36 152.57)" class="st0 st1 st2">14</text>
</svg>
