<?xml version="1.0" encoding="utf-8"?>
<!-- Generator: Adobe Illustrator 24.0.1, SVG Export Plug-In . SVG Version: 6.00 Build 0)  -->
<svg version="1.1" id="Full_Course_-_Turns" xmlns="http://www.w3.org/2000/svg" xmlns:xlink="http://www.w3.org/1999/xlink"
	 x="0px" y="0px" viewBox="0 0 1920 1080" style="enable-background:new 0 0 1920 1080;" xml:space="preserve">
<style type="text/css">
	.st0{fill:#FFFFFF;}
	.st1{font-family:'ArialMT';}
	.st2{font-size:38.34px;}
	.st3{letter-spacing:-2;}
</style>
<text transform="matrix(1 0 0 1 1629.25 815.03)" class="st0 st1 st2">1</text>
<text transform="matrix(1 0 0 1 1399.13 878.58)" class="st0 st1 st2">2</text>
<text transform="matrix(1 0 0 1 1305.09 819.14)" class="st0 st1 st2">3</text>
<text transform="matrix(1 0 0 1 1177.29 839.12)" class="st0 st1 st2">4</text>
<text transform="matrix(1 0 0 1 699.18 785.21)" class="st0 st1 st2">5</text>
<text transform="matrix(1 0 0 1 174.42 990.4)" class="st0 st1 st2">6</text>
<text transform="matrix(1 0 0 1 105.22 908.6)" class="st0 st1 st2">7</text>
<text transform="matrix(1 0 0 1 285.56 725.88)" class="st0 st1 st2">8</text>
<text transform="matrix(1 0 0 1 941.58 342.04)" class="st0 st1 st2">9</text>
<text transform="matrix(1 0 0 1 1256.78 136.25)" class="st0 st1 st2">10a</text>
<text transform="matrix(1 0 0 1 1381.8 125.64)" class="st0 st1 st2">10b</text>
<text transform="matrix(1 0 0 1 1500.65 125.29)" class="st0 st1 st2 st3">11</text>
<text transform="matrix(1 0 0 1 1663.97 230.57)" class="st0 st1 st2">12</text>
</svg>
