<?xml version="1.0" encoding="utf-8"?>
<!-- Generator: Adobe Illustrator 24.0.1, SVG Export Plug-In . SVG Version: 6.00 Build 0)  -->
<svg version="1.1" id="Short_Course_-_Turns" xmlns="http://www.w3.org/2000/svg" xmlns:xlink="http://www.w3.org/1999/xlink"
	 x="0px" y="0px" viewBox="0 0 1920 1080" style="enable-background:new 0 0 1920 1080;" xml:space="preserve">
<style type="text/css">
	.st0{fill:#FFFFFF;}
	.st1{font-family:'ArialMT';}
	.st2{font-size:38.34px;}
</style>
<text transform="matrix(1 0 0 1 1629.25 815.03)" class="st0 st1 st2">1</text>
<text transform="matrix(1 0 0 1 1399.13 878.58)" class="st0 st1 st2">2</text>
<text transform="matrix(1 0 0 1 1305.09 819.14)" class="st0 st1 st2">3</text>
<text transform="matrix(1 0 0 1 1177.29 839.12)" class="st0 st1 st2">4</text>
<text transform="matrix(1 0 0 1 783.67 727.7)" class="st0 st1 st2">5</text>
<text transform="matrix(1 0 0 1 829.73 411.06)" class="st0 st1 st2">6</text>
<text transform="matrix(1 0 0 1 1301.89 138.63)" class="st0 st1 st2">7</text>
<text transform="matrix(1 0 0 1 1380.34 121.69)" class="st0 st1 st2">8</text>
<text transform="matrix(1 0 0 1 1514.88 115.55)" class="st0 st1 st2">9</text>
<text transform="matrix(1 0 0 1 1665.51 221.32)" class="st0 st1 st2">10</text>
</svg>
