<?xml version="1.0" encoding="utf-8"?>
<!-- Generator: Adobe Illustrator 24.0.1, SVG Export Plug-In . SVG Version: 6.00 Build 0)  -->
<svg version="1.1" id="Road_Course_-_Turns" xmlns="http://www.w3.org/2000/svg" xmlns:xlink="http://www.w3.org/1999/xlink"
	 x="0px" y="0px" viewBox="0 0 1920 1080" style="enable-background:new 0 0 1920 1080;" xml:space="preserve">
<style type="text/css">
	.st0{fill:#FFFFFF;}
	.st1{font-family:'ArialMT';}
	.st2{font-size:36px;}
	.st3{letter-spacing:-2;}
</style>
<title>turns</title>
<text transform="matrix(1 0 0 1 1573.27 720.25)" class="st0 st1 st2">1</text>
<text transform="matrix(1 0 0 1 1531.04 626.65)" class="st0 st1 st2">2</text>
<text transform="matrix(1 0 0 1 1535.97 367.07)" class="st0 st1 st2">3</text>
<text transform="matrix(1 0 0 1 818.04 376.18)" class="st0 st1 st2">4</text>
<text transform="matrix(1 0 0 1 828.21 276.05)" class="st0 st1 st2">5</text>
<text transform="matrix(1 0 0 1 1544.5 214.23)" class="st0 st1 st2">6</text>
<text transform="matrix(1 0 0 1 1385.48 112.36)" class="st0 st1 st2">7</text>
<text transform="matrix(1 0 0 1 1035.63 113.51)" class="st0 st1 st2">8</text>
<text transform="matrix(1 0 0 1 761.75 112.63)" class="st0 st1 st2">9</text>
<text transform="matrix(1 0 0 1 640.27 354.08)" class="st0 st1 st2">10</text>
<text transform="matrix(1 0 0 1 356.06 512.15)" class="st0 st1 st2 st3">11</text>
<text transform="matrix(1 0 0 1 277.14 626.8)" class="st0 st1 st2">12</text>
<text transform="matrix(1 0 0 1 407.96 898.27)" class="st0 st1 st2">13</text>
</svg>
