<?xml version="1.0" encoding="utf-8"?>
<!-- Generator: Adobe Illustrator 24.0.1, SVG Export Plug-In . SVG Version: 6.00 Build 0)  -->
<svg version="1.1" id="Road_Course_South_Oval_-_Turns"
	 xmlns="http://www.w3.org/2000/svg" xmlns:xlink="http://www.w3.org/1999/xlink" x="0px" y="0px" viewBox="0 0 1920 1080"
	 style="enable-background:new 0 0 1920 1080;" xml:space="preserve">
<style type="text/css">
	.st0{fill:#FFFFFF;}
	.st1{font-family:'ArialMT';}
	.st2{font-size:36px;}
	.st3{letter-spacing:-2;}
</style>
<title>turns</title>
<text transform="matrix(1 0 0 1 1562.1 906.17)" class="st0 st1 st2">1</text>
<text transform="matrix(1 0 0 1 1545.26 368.9)" class="st0 st1 st2">2</text>
<text transform="matrix(1 0 0 1 817.39 377.21)" class="st0 st1 st2">3</text>
<text transform="matrix(1 0 0 1 830.95 269.61)" class="st0 st1 st2">4</text>
<text transform="matrix(1 0 0 1 1556.87 211.61)" class="st0 st1 st2">5</text>
<text transform="matrix(1 0 0 1 1384.21 102.39)" class="st0 st1 st2">6</text>
<text transform="matrix(1 0 0 1 1245.4 95.14)" class="st0 st1 st2">7</text>
<text transform="matrix(1 0 0 1 1021.85 113.51)" class="st0 st1 st2">8</text>
<text transform="matrix(1 0 0 1 871.98 147.08)" class="st0 st1 st2">9</text>
<text transform="matrix(1 0 0 1 677.33 191.75)" class="st0 st1 st2">10</text>
<text transform="matrix(1 0 0 1 636.49 354.07)" class="st0 st1 st2 st3">11</text>
<text transform="matrix(1 0 0 1 357.25 504.94)" class="st0 st1 st2">12</text>
<text transform="matrix(1 0 0 1 272.41 632.86)" class="st0 st1 st2">13</text>
<text transform="matrix(1 0 0 1 407.68 898.79)" class="st0 st1 st2">14</text>
</svg>
