<?xml version="1.0" encoding="utf-8"?>
<!-- Generator: Adobe Illustrator 24.0.1, SVG Export Plug-In . SVG Version: 6.00 Build 0)  -->
<svg version="1.1" id="Indianapolis_Road_-_Turns" xmlns="http://www.w3.org/2000/svg" xmlns:xlink="http://www.w3.org/1999/xlink"
	 x="0px" y="0px" viewBox="0 0 1920 1080" style="enable-background:new 0 0 1920 1080;" xml:space="preserve">
<style type="text/css">
	.st0{fill:#FFFFFF;}
	.st1{font-family:'ArialMT';}
	.st2{font-size:36px;}
	.st3{letter-spacing:-2;}
</style>
<text transform="matrix(1 0 0 1 480.26 884.49)" class="st0 st1 st2">1</text>
<text transform="matrix(1 0 0 1 399.62 854.94)" class="st0 st1 st2">2</text>
<text transform="matrix(1 0 0 1 293.31 762.79)" class="st0 st1 st2">3</text>
<text transform="matrix(1 0 0 1 240.65 649.51)" class="st0 st1 st2">4</text>
<text transform="matrix(1 0 0 1 388.26 647.82)" class="st0 st1 st2">5</text>
<text transform="matrix(1 0 0 1 570.96 740.27)" class="st0 st1 st2">6</text>
<text transform="matrix(1 0 0 1 638.65 609.79)" class="st0 st1 st2">7</text>
<text transform="matrix(1 0 0 1 1240.98 514.51)" class="st0 st1 st2">8</text>
<text transform="matrix(1 0 0 1 1330.71 425.82)" class="st0 st1 st2">9</text>
<text transform="matrix(1 0 0 1 1325.95 339.94)" class="st0 st1 st2">10</text>
<text transform="matrix(1 0 0 1 1406.86 247.57)" class="st0 st1 st2 st3">11</text>
<text transform="matrix(1 0 0 1 1674.3 306.95)" class="st0 st1 st2">12</text>
<text transform="matrix(1 0 0 1 1679.36 781.82)" class="st0 st1 st2">13</text>
</svg>
