<?xml version="1.0" encoding="utf-8"?>
<!-- Generator: Adobe Illustrator 24.0.1, SVG Export Plug-In . SVG Version: 6.00 Build 0)  -->
<svg version="1.1" id="East_-_Turns" xmlns="http://www.w3.org/2000/svg" xmlns:xlink="http://www.w3.org/1999/xlink" x="0px"
	 y="0px" viewBox="0 0 1920 1080" style="enable-background:new 0 0 1920 1080;" xml:space="preserve">
<style type="text/css">
	.st0{fill:#FFFFFF;}
	.st1{font-family:'ArialMT';}
	.st2{font-size:36px;}
	.st3{letter-spacing:-2;}
</style>
<title>turns</title>
<text transform="matrix(1 0 0 1 1135.9301 583.04)" class="st0 st1 st2">1</text>
<text transform="matrix(1 0 0 1 1211.0699 619.05)" class="st0 st1 st2">2</text>
<text transform="matrix(1 0 0 1 1271.54 571.91)" class="st0 st1 st2">3</text>
<text transform="matrix(1 0 0 1 1328.87 517.11)" class="st0 st1 st2">4</text>
<text transform="matrix(1 0 0 1 1311.8199 426.71)" class="st0 st1 st2">5</text>
<text transform="matrix(1 0 0 1 944.96 185.76)" class="st0 st1 st2">6</text>
<text transform="matrix(1 0 0 1 868.98 356.91)" class="st0 st1 st2">7</text>
<text transform="matrix(1 0 0 1 909.24 389.82)" class="st0 st1 st2">8</text>
<text transform="matrix(1 0 0 1 1072.87 452.33)" class="st0 st1 st2">9</text>
<text transform="matrix(1 0 0 1 1215.03 454.26)" class="st0 st1 st2">10</text>
<text transform="matrix(1 0 0 1 1185.17 543.53)" class="st0 st1 st2 st3">11</text>
<text transform="matrix(1 0 0 1 997.08 517.24)" class="st0 st1 st2">12</text>
<text transform="matrix(1 0 0 1 939.01 572.15)" class="st0 st1 st2">13</text>
</svg>
