<?xml version="1.0" encoding="utf-8"?>
<!-- Generator: Adobe Illustrator 24.0.1, SVG Export Plug-In . SVG Version: 6.00 Build 0)  -->
<svg version="1.1" id="International_-_Turns" xmlns="http://www.w3.org/2000/svg" xmlns:xlink="http://www.w3.org/1999/xlink"
	 x="0px" y="0px" viewBox="0 0 1920 1080" style="enable-background:new 0 0 1920 1080;" xml:space="preserve">
<style type="text/css">
	.st0{fill:#FFFFFF;}
	.st1{font-family:'ArialMT';}
	.st2{font-size:36px;}
</style>
<title>turns</title>
<text transform="matrix(1 0 0 1 542.48 844.71)" class="st0 st1 st2">1</text>
<text transform="matrix(1 0 0 1 593.74 666.61)" class="st0 st1 st2">2</text>
<text transform="matrix(1 0 0 1 512.43 577.46)" class="st0 st1 st2">3</text>
<text transform="matrix(1 0 0 1 607.98 325.22)" class="st0 st1 st2">4</text>
<text transform="matrix(1 0 0 1 524.15 261.71)" class="st0 st1 st2">5</text>
<text transform="matrix(1 0 0 1 756.96 112.31)" class="st0 st1 st2">6</text>
<text transform="matrix(1 0 0 1 1429.87 486.68)" class="st0 st1 st2">7</text>
<text transform="matrix(1 0 0 1 1496.46 478.04)" class="st0 st1 st2">8</text>
<text transform="matrix(1 0 0 1 1533.87 546.13)" class="st0 st1 st2">9</text>
<text transform="matrix(1 0 0 1 1690.58 791.38)" class="st0 st1 st2">10</text>
</svg>
