<?xml version="1.0" encoding="utf-8"?>
<!-- Generator: Adobe Illustrator 24.0.1, SVG Export Plug-In . SVG Version: 6.00 Build 0)  -->
<svg version="1.1" id="Mosport_-_Turns" xmlns="http://www.w3.org/2000/svg" xmlns:xlink="http://www.w3.org/1999/xlink" x="0px"
	 y="0px" viewBox="0 0 1920 1080" style="enable-background:new 0 0 1920 1080;" xml:space="preserve">
<style type="text/css">
	.st0{fill:#FFFFFF;}
	.st1{font-family:'ArialMT';}
	.st2{font-size:36px;}
	.st3{font-size:35.8996px;}
</style>
<title>turns</title>
<text transform="matrix(1 0 0 1 478.82 73.38)" class="st0 st1 st2">1</text>
<text transform="matrix(1 0 0 1 920.4 439.27)" class="st0 st1 st2">2</text>
<text transform="matrix(1 0 0 1 1275.76 213.13)" class="st0 st1 st2">3</text>
<text transform="matrix(1 0 0 1 1549.3101 623.89)" class="st0 st1 st2">4</text>
<text transform="matrix(1 0 0 1 1715.8199 806.38)" class="st0 st1 st2">5</text>
<text transform="matrix(1 0 0 1 1140.62 893.76)" class="st0 st1 st2">6</text>
<text transform="matrix(1 0 0 1 735.31 949.24)" class="st0 st1 st2">7</text>
<text transform="matrix(1 0 0 1 275.13 814.7)" class="st0 st1 st2">8</text>
<text transform="matrix(1 0 0 1 210.54 635.05)" class="st0 st1 st2">9</text>
<text transform="matrix(1 0 0 1 77.71 468.33)" class="st0 st1 st2">10</text>
<text transform="matrix(1 0 0 1 29.83 368.24)" class="st0 st1 st2">White’s</text>
<text transform="matrix(1 0 0 1 29.82 408.24)" class="st0 st1 st2">Corner</text>
<text transform="matrix(1 0 0 1 287.48 709.91)" class="st0 st1 st2">The Esses</text>
<text transform="matrix(1 0 0 1 820.79 531.57)" class="st0 st1 st2">Clayton Corner</text>
<text transform="matrix(1 0 0 1 1150.11 117.91)" class="st0 st1 st2">Quebec Corner</text>
<text transform="matrix(1 0 0 1 1502.15 781.91)" class="st0 st1 st2">Moss Corner</text>
<text transform="matrix(0.9927 -0.1203 0.1203 0.9927 756.1465 1048.4513)" class="st0 st1 st3">Mario Andretti Straightaway</text>
</svg>
