<?xml version="1.0" encoding="utf-8"?>
<!-- Generator: Adobe Illustrator 28.0.0, SVG Export Plug-In . SVG Version: 6.00 Build 0)  -->
<svg version="1.1" id="a" xmlns="http://www.w3.org/2000/svg" xmlns:xlink="http://www.w3.org/1999/xlink" x="0px" y="0px"
	 viewBox="0 0 1920 1080" style="enable-background:new 0 0 1920 1080;" xml:space="preserve">
<style type="text/css">
	.st0{fill:#FFFFFF;}
	.st1{font-family:'ArialMT';}
	.st2{font-size:30px;}
</style>
<text transform="matrix(1 0 0 1 959.06 57.85)" class="st0 st1 st2">1</text>
<text transform="matrix(1 0 0 1 862.66 427.67)" class="st0 st1 st2">2</text>
<text transform="matrix(1 0 0 1 685.1 496.49)" class="st0 st1 st2">3</text>
<text transform="matrix(1 0 0 1 933.88 604.78)" class="st0 st1 st2">4</text>
<text transform="matrix(1 0 0 1 813.94 663.77)" class="st0 st1 st2">5</text>
<text transform="matrix(1 0 0 1 735.95 683.39)" class="st0 st1 st2">6</text>
<text transform="matrix(1 0 0 1 629.47 993.46)" class="st0 st1 st2">7</text>
<text transform="matrix(1 0 0 1 434.27 891.67)" class="st0 st1 st2">8</text>
<text transform="matrix(1 0 0 1 104.07 906.3)" class="st0 st1 st2">Arie Luyendykbocht</text>
<text transform="matrix(1 0 0 1 680.46 1056.52)" class="st0 st1 st2">Bocht 13</text>
<text transform="matrix(1 0 0 1 733.46 748)" class="st0 st1 st2">Hans Ernst chicane</text>
<text transform="matrix(1 0 0 1 730.17 496.49)" class="st0 st1 st2">Hugenholtzbocht</text>
<text transform="matrix(1 0 0 1 914.09 427.67)" class="st0 st1 st2">Gerlachbocht</text>
<text transform="matrix(1 0 0 1 1019.1185 62.7)" class="st0 st1 st2">Tarzanbocht</text>
</svg>
