<?xml version="1.0" encoding="utf-8"?>
<!-- Generator: Adobe Illustrator 28.0.0, SVG Export Plug-In . SVG Version: 6.00 Build 0)  -->
<svg version="1.1" id="a" xmlns="http://www.w3.org/2000/svg" xmlns:xlink="http://www.w3.org/1999/xlink" x="0px" y="0px"
	 viewBox="0 0 1920 1080" style="enable-background:new 0 0 1920 1080;" xml:space="preserve">
<style type="text/css">
	.st0{fill:#FFFFFF;}
	.st1{font-family:'ArialMT';}
	.st2{font-size:30px;}
</style>
<text transform="matrix(1 0 0 1 959.06 57.85)" class="st0 st1 st2">1</text>
<text transform="matrix(1 0 0 1 862.66 427.67)" class="st0 st1 st2">2</text>
<text transform="matrix(1 0 0 1 685.1 496.49)" class="st0 st1 st2">3</text>
<text transform="matrix(0.9992 3.995740e-02 -3.995740e-02 0.9992 907.03 564.55)" class="st0 st1 st2">4</text>
<text transform="matrix(1 0 0 1 1131.72 576.85)" class="st0 st1 st2">5</text>
<text transform="matrix(1 0 0 1 1352.58 603.74)" class="st0 st1 st2">6</text>
<text transform="matrix(1 0 0 1 1571.1 697.56)" class="st0 st1 st2">7</text>
<text transform="matrix(1 0 0 1 1376.83 975.85)" class="st0 st1 st2">8</text>
<text transform="matrix(1 0 0 1 1221.09 876.23)" class="st0 st1 st2">9</text>
<g id="b">
	<text transform="matrix(1 0 0 1 1396.3199 767.44)" class="st0 st1 st2">10</text>
</g>
<text transform="matrix(1 0 0 1 806.72 663.77)" class="st0 st1 st2">1</text>
<text transform="matrix(1 0 0 1 821.18 663.77)" class="st0 st1 st2">1</text>
<text transform="matrix(1 0 0 1 727.61 683.39)" class="st0 st1 st2">12</text>
<text transform="matrix(1 0 0 1 621.13 993.46)" class="st0 st1 st2">13</text>
<text transform="matrix(1 0 0 1 425.93 891.67)" class="st0 st1 st2">14</text>
<text transform="matrix(1 0 0 1 104.07 906.3)" class="st0 st1 st2">Arie Luyendykbocht</text>
<text transform="matrix(1 0 0 1 680.46 1056.52)" class="st0 st1 st2">Bocht 13</text>
<text transform="matrix(1 0 0 1 733.46 748)" class="st0 st1 st2">Hans Ernst chicane</text>
<text transform="matrix(1 0 0 1 730.17 496.49)" class="st0 st1 st2">Hugenholtzbocht</text>
<text transform="matrix(1 0 0 1 914.09 427.67)" class="st0 st1 st2">Gerlachbocht</text>
<text transform="matrix(1 0 0 1 1018.242 62.7)" class="st0 st1 st2">Tarzanbocht</text>
<text transform="matrix(1 0 0 1 854.41 600.28)" class="st0 st1 st2">Hunserug</text>
<text transform="matrix(1 0 0 1 1020.43 530.37)" class="st0 st1 st2">Slotemakerbocht</text>
<text transform="matrix(1 0 0 1 1476.39 554.68)" class="st0 st1 st2">Scheivlak</text>
<text transform="matrix(1 0 0 1 1306.59 1056.52)" class="st0 st1 st2">Mastersbocht</text>
<text transform="matrix(1 0 0 1 1050.8 854.66)" class="st0 st1 st2">Bocht 9</text>
<text transform="matrix(1 0 0 1 1187.86 767.44)" class="st0 st1 st2">CM.com bocht</text>
</svg>
