<?xml version="1.0" encoding="utf-8"?>
<!-- Generator: Adobe Illustrator 24.0.1, SVG Export Plug-In . SVG Version: 6.00 Build 0)  -->
<svg version="1.1" id="Full_-_Turns" xmlns="http://www.w3.org/2000/svg" xmlns:xlink="http://www.w3.org/1999/xlink" x="0px"
	 y="0px" viewBox="0 0 1920 1080" style="enable-background:new 0 0 1920 1080;" xml:space="preserve">
<style type="text/css">
	.st0{fill:#FFFFFF;}
	.st1{font-family:'ArialMT';}
	.st2{font-size:36px;}
</style>
<title>turns</title>
<text transform="matrix(1 0 0 1 1392.24 747.8)" class="st0 st1 st2">1</text>
<text transform="matrix(1 0 0 1 1660.78 1016.1)" class="st0 st1 st2">2</text>
<text transform="matrix(1 0 0 1 1473.8 581.79)" class="st0 st1 st2">3</text>
<text transform="matrix(1 0 0 1 1169.89 457.77)" class="st0 st1 st2">4</text>
<text transform="matrix(1 0 0 1 1288.9399 427.85)" class="st0 st1 st2">5</text>
<text transform="matrix(1 0 0 1 1388.87 343.32)" class="st0 st1 st2">6</text>
<text transform="matrix(1 0 0 1 1183.45 192.27)" class="st0 st1 st2">7</text>
<text transform="matrix(1 0 0 1 965.53 201.69)" class="st0 st1 st2">8</text>
<text transform="matrix(1 0 0 1 650.88 85.19)" class="st0 st1 st2">9</text>
<text transform="matrix(1 0 0 1 470.52 290.72)" class="st0 st1 st2">10</text>
<text transform="matrix(1 0 0 1 349.56 275.25)" class="st0 st1 st2">11</text>
<text transform="matrix(1 0 0 1 285.3 609.69)" class="st0 st1 st2">12</text>
</svg>
