<?xml version="1.0" encoding="utf-8"?>
<!-- Generator: Adobe Illustrator 24.0.1, SVG Export Plug-In . SVG Version: 6.00 Build 0)  -->
<svg version="1.1" id="Mid_Ohio_Full_-_Turns" xmlns="http://www.w3.org/2000/svg" xmlns:xlink="http://www.w3.org/1999/xlink"
	 x="0px" y="0px" viewBox="0 0 1920 1080" style="enable-background:new 0 0 1920 1080;" xml:space="preserve">
<style type="text/css">
	.st0{fill:#FFFFFF;}
	.st1{font-family:'ArialMT';}
	.st2{font-size:36px;}
	.st3{letter-spacing:-2;}
</style>
<title>turns</title>
<text transform="matrix(1 0 0 1 1008.15 830.04)" class="st0 st1 st2">1</text>
<text transform="matrix(1 0 0 1 1631.74 934.61)" class="st0 st1 st2">2</text>
<text transform="matrix(1 0 0 1 1131.76 957.46)" class="st0 st1 st2">3</text>
<text transform="matrix(1 0 0 1 619.31 749.89)" class="st0 st1 st2">4</text>
<text transform="matrix(1 0 0 1 588.82 630.71)" class="st0 st1 st2">5</text>
<text transform="matrix(1 0 0 1 452.62 539.09)" class="st0 st1 st2">6</text>
<text transform="matrix(1 0 0 1 389.31 461.24)" class="st0 st1 st2">7</text>
<text transform="matrix(1 0 0 1 357.79 318.04)" class="st0 st1 st2">8</text>
<text transform="matrix(1 0 0 1 360.54 210.39)" class="st0 st1 st2">9</text>
<text transform="matrix(1 0 0 1 633.04 221)" class="st0 st1 st2">10</text>
<text transform="matrix(1 0 0 1 797.95 231.5)" class="st0 st1 st2 st3">11</text>
<text transform="matrix(1 0 0 1 1003.45 252.13)" class="st0 st1 st2">12</text>
<text transform="matrix(1 0 0 1 924.79 329.24)" class="st0 st1 st2">13</text>
<text transform="matrix(1 0 0 1 386.87 206.24)" class="st0 st1 st2">Thunder Valley</text>
<text transform="matrix(1 0 0 1 1095.9 218.68)" class="st0 st1 st2">The Carousel</text>
<text transform="matrix(1 0 0 1 1734.49 895.91)" class="st0 st1 st2">The</text>
<text transform="matrix(1 0 0 1 1707.46 938.02)" class="st0 st1 st2">Keyhole</text>
<text transform="matrix(1 0 0 1 196.25 430.35)" class="st0 st1 st2">The Esses</text>
</svg>
