<?xml version="1.0" encoding="utf-8"?>
<!-- Generator: Adobe Illustrator 24.0.1, SVG Export Plug-In . SVG Version: 6.00 Build 0)  -->
<svg version="1.1" id="Mid_Ohio_Chicane_-_Turns" xmlns="http://www.w3.org/2000/svg" xmlns:xlink="http://www.w3.org/1999/xlink"
	 x="0px" y="0px" viewBox="0 0 1920 1080" style="enable-background:new 0 0 1920 1080;" xml:space="preserve">
<style type="text/css">
	.st0{fill:#FFFFFF;}
	.st1{font-family:'ArialMT';}
	.st2{font-size:36px;}
	.st3{letter-spacing:-2;}
</style>
<title>turns</title>
<text transform="matrix(1 0 0 1 1008.15 830.04)" class="st0 st1 st2">1</text>
<text transform="matrix(1 0 0 1 1373.0699 929.61)" class="st0 st1 st2">2</text>
<text transform="matrix(1 0 0 1 1491.76 898.79)" class="st0 st1 st2">3</text>
<text transform="matrix(1 0 0 1 1626.65 939.56)" class="st0 st1 st2">4</text>
<text transform="matrix(1 0 0 1 1125.48 954.38)" class="st0 st1 st2">5</text>
<text transform="matrix(1 0 0 1 623.96 745.42)" class="st0 st1 st2">6</text>
<text transform="matrix(1 0 0 1 585.65 634.24)" class="st0 st1 st2">7</text>
<text transform="matrix(1 0 0 1 456.13 538.37)" class="st0 st1 st2">8</text>
<text transform="matrix(1 0 0 1 379.2 458.05)" class="st0 st1 st2">9</text>
<text transform="matrix(1 0 0 1 356.38 314)" class="st0 st1 st2">10</text>
<text transform="matrix(1 0 0 1 352.28 216.16)" class="st0 st1 st2 st3">11</text>
<text transform="matrix(1 0 0 1 643.45 227.46)" class="st0 st1 st2">12</text>
<text transform="matrix(1 0 0 1 800.79 227.57)" class="st0 st1 st2">13</text>
<text transform="matrix(1 0 0 1 997.45 262.13)" class="st0 st1 st2">14</text>
<text transform="matrix(1 0 0 1 919.45 329.24)" class="st0 st1 st2">15</text>
<text transform="matrix(1 0 0 1 386.87 206.24)" class="st0 st1 st2">Thunder Valley</text>
<text transform="matrix(1 0 0 1 1095.9 218.68)" class="st0 st1 st2">The Carousel</text>
<text transform="matrix(1 0 0 1 1734.49 895.91)" class="st0 st1 st2">The</text>
<text transform="matrix(1 0 0 1 1707.46 938.02)" class="st0 st1 st2">Keyhole</text>
<text transform="matrix(1 0 0 1 196.25 430.35)" class="st0 st1 st2">The Esses</text>
</svg>
