<?xml version="1.0" encoding="utf-8"?>
<!-- Generator: Adobe Illustrator 24.0.1, SVG Export Plug-In . SVG Version: 6.00 Build 0)  -->
<svg version="1.1" id="Mid_Ohio_Short_-_Turns" xmlns="http://www.w3.org/2000/svg" xmlns:xlink="http://www.w3.org/1999/xlink"
	 x="0px" y="0px" viewBox="0 0 1920 1080" style="enable-background:new 0 0 1920 1080;" xml:space="preserve">
<style type="text/css">
	.st0{fill:#FFFFFF;}
	.st1{font-family:'ArialMT';}
	.st2{font-size:36px;}
	.st3{letter-spacing:-2;}
</style>
<title>turns</title>
<text transform="matrix(1 0 0 1 1008.15 830.04)" class="st0 st1 st2">1</text>
<text transform="matrix(1 0 0 1 1121.74 933.61)" class="st0 st1 st2">2</text>
<text transform="matrix(1 0 0 1 625.76 745.46)" class="st0 st1 st2">3</text>
<text transform="matrix(1 0 0 1 586.31 633.22)" class="st0 st1 st2">4</text>
<text transform="matrix(1 0 0 1 456.82 539.71)" class="st0 st1 st2">5</text>
<text transform="matrix(1 0 0 1 379.96 458.09)" class="st0 st1 st2">6</text>
<text transform="matrix(1 0 0 1 365.65 314.57)" class="st0 st1 st2">7</text>
<text transform="matrix(1 0 0 1 361.13 214.04)" class="st0 st1 st2">8</text>
<text transform="matrix(1 0 0 1 655.54 227.39)" class="st0 st1 st2">9</text>
<text transform="matrix(1 0 0 1 799.04 227.33)" class="st0 st1 st2">10</text>
<text transform="matrix(1 0 0 1 998.95 261.83)" class="st0 st1 st2 st3">11</text>
<text transform="matrix(1 0 0 1 917.45 328.79)" class="st0 st1 st2">12</text>
<text transform="matrix(1 0 0 1 385.87 206.24)" class="st0 st1 st2">Thunder Valley</text>
<text transform="matrix(1 0 0 1 1095.9 218.68)" class="st0 st1 st2">The Carousel</text>
<text transform="matrix(1 0 0 1 196.25 430.35)" class="st0 st1 st2">The Esses</text>
</svg>
