<?xml version="1.0" encoding="utf-8"?>
<!-- Generator: Adobe Illustrator 24.0.1, SVG Export Plug-In . SVG Version: 6.00 Build 0)  -->
<svg version="1.1" id="Full_-_Turns" xmlns="http://www.w3.org/2000/svg" xmlns:xlink="http://www.w3.org/1999/xlink" x="0px"
	 y="0px" viewBox="0 0 1920 1080" style="enable-background:new 0 0 1920 1080;" xml:space="preserve">
<style type="text/css">
	.st0{fill:#FFFFFF;}
	.st1{font-family:'ArialMT';}
	.st2{font-size:30px;}
	.st3{font-size:36px;}
</style>
<title>turns</title>
<text transform="matrix(1 0 0 1 686.57 872.05)" class="st0 st1 st2">First</text>
<text transform="matrix(1 0 0 1 669.62 904.66)" class="st0 st1 st2">Corner</text>
<text transform="matrix(1 0 0 1 1366.26 521.67)" class="st0 st1 st2">Hair</text>
<text transform="matrix(1 0 0 1 1371.83 554.28)" class="st0 st1 st2">Pin</text>
<text transform="matrix(1 0 0 1 1827.54 979.98)" class="st0 st1 st2">Last</text>
<text transform="matrix(1 0 0 1 1809.79 1012.59)" class="st0 st1 st2">Corner</text>
<text transform="matrix(1 0 0 1 1823.71 590.42)" class="st0 st1 st2">Mike</text>
<text transform="matrix(1 0 0 1 1812.6 623.03)" class="st0 st1 st2">Knight</text>
<text transform="matrix(1 0 0 1 1809.28 657.39)" class="st0 st1 st2">Corner</text>
<text transform="matrix(1 0 0 1 110.69 171.8)" class="st0 st1 st2">Atwood</text>
<text transform="matrix(1 0 0 1 120.46 204.41)" class="st0 st1 st2">Curve</text>
<text transform="matrix(1 0 0 1 809.63 544.28)" class="st0 st1 st2">Williams</text>
<text transform="matrix(1 0 0 1 1104.48 610.27)" class="st0 st1 st2">Revolver</text>
<text transform="matrix(1 0 0 1 1501.6899 637.27)" class="st0 st1 st2">Hobbs</text>
<text transform="matrix(1 0 0 1 1409.9301 758.26)" class="st0 st1 st2">Redman</text>
<text transform="matrix(1 0 0 1 1122.13 741.26)" class="st0 st1 st2">Piper</text>
<text transform="matrix(1 0 0 1 447.65 301.99)" class="st0 st1 st2">Moss ‘S’</text>
<text transform="matrix(1 0 0 1 816.81 874)" class="st0 st1 st3">1</text>
<text transform="matrix(1 0 0 1 966.1 543.33)" class="st0 st1 st3">2</text>
<text transform="matrix(1 0 0 1 610.6 372.7)" class="st0 st1 st3">3</text>
<text transform="matrix(1 0 0 1 139.1 138.53)" class="st0 st1 st3">4</text>
<text transform="matrix(1 0 0 1 1301.96 529.82)" class="st0 st1 st3">5</text>
<text transform="matrix(1 0 0 1 1121.99 571.22)" class="st0 st1 st3">6</text>
<text transform="matrix(1 0 0 1 1088.41 740.7)" class="st0 st1 st3">7</text>
<text transform="matrix(1 0 0 1 1533.73 759.19)" class="st0 st1 st3">8</text>
<text transform="matrix(1 0 0 1 1473.3 622.85)" class="st0 st1 st3">9</text>
<text transform="matrix(1 0 0 1 1764.34 590.31)" class="st0 st1 st3">10</text>
<text transform="matrix(1 0 0 1 1842.27 949.32)" class="st0 st1 st3">11</text>
</svg>
