<?xml version="1.0" encoding="utf-8"?>
<!-- Generator: Adobe Illustrator 24.0.1, SVG Export Plug-In . SVG Version: 6.00 Build 0)  -->
<svg version="1.1" id="Moto_-_Turns" xmlns="http://www.w3.org/2000/svg" xmlns:xlink="http://www.w3.org/1999/xlink" x="0px"
	 y="0px" viewBox="0 0 1920 1080" style="enable-background:new 0 0 1920 1080;" xml:space="preserve">
<style type="text/css">
	.st0{fill:#FFFFFF;}
	.st1{font-family:'ArialMT';}
	.st2{font-size:36px;}
	.st3{letter-spacing:-2;}
</style>
<title>turns</title>
<text transform="matrix(1 0 0 1 1793.48 647.6)" class="st0 st1 st2">1</text>
<text transform="matrix(1 0 0 1 1777.96 710.39)" class="st0 st1 st2">2</text>
<text transform="matrix(1 0 0 1 1610.4301 679.79)" class="st0 st1 st2">3</text>
<text transform="matrix(1 0 0 1 1547.3101 623.89)" class="st0 st1 st2">4</text>
<text transform="matrix(1 0 0 1 1434.04 599.26)" class="st0 st1 st2">5</text>
<text transform="matrix(1 0 0 1 1328.1801 536.98)" class="st0 st1 st2">6</text>
<text transform="matrix(1 0 0 1 1238.54 441.68)" class="st0 st1 st2">7</text>
<text transform="matrix(1 0 0 1 942.57 596.93)" class="st0 st1 st2">8</text>
<text transform="matrix(1 0 0 1 852.31 635.61)" class="st0 st1 st2">9</text>
<text transform="matrix(1 0 0 1 738.15 439.89)" class="st0 st1 st2">10</text>
<text transform="matrix(1 0 0 1 687.73 301.2)" class="st0 st1 st2 st3">11</text>
<text transform="matrix(1 0 0 1 613.42 563.79)" class="st0 st1 st2">12</text>
<text transform="matrix(1 0 0 1 129.67 471.26)" class="st0 st1 st2">13</text>
<text transform="matrix(1 0 0 1 825.86 566.05)" class="st0 st1 st2">14</text>
<text transform="matrix(1 0 0 1 1075.04 362.45)" class="st0 st1 st2">15</text>
<text transform="matrix(1 0 0 1 1092.75 270.61)" class="st0 st1 st2">16</text>
<text transform="matrix(1 0 0 1 1188.8199 241.33)" class="st0 st1 st2">17</text>
</svg>
