<?xml version="1.0" encoding="utf-8"?>
<!-- Generator: Adobe Illustrator 24.0.1, SVG Export Plug-In . SVG Version: 6.00 Build 0)  -->
<svg version="1.1" id="West_Chicane_-_Turns" xmlns="http://www.w3.org/2000/svg" xmlns:xlink="http://www.w3.org/1999/xlink"
	 x="0px" y="0px" viewBox="0 0 1920 1080" style="enable-background:new 0 0 1920 1080;" xml:space="preserve">
<style type="text/css">
	.st0{fill:#FFFFFF;}
	.st1{font-family:'ArialMT';}
	.st2{font-size:36px;}
</style>
<title>turns</title>
<text transform="matrix(1 0 0 1 834.48 569.6)" class="st0 st1 st2">1</text>
<text transform="matrix(1 0 0 1 1039.8199 395.33)" class="st0 st1 st2">2</text>
<text transform="matrix(1 0 0 1 1089.09 443.13)" class="st0 st1 st2">3</text>
<text transform="matrix(1 0 0 1 941.98 594.78)" class="st0 st1 st2">4</text>
<text transform="matrix(1 0 0 1 857.6 635.6)" class="st0 st1 st2">5</text>
<text transform="matrix(1 0 0 1 743.51 435.87)" class="st0 st1 st2">6</text>
<text transform="matrix(1 0 0 1 703.31 302.46)" class="st0 st1 st2">7</text>
<text id="_8" transform="matrix(1 0 0 1 613.68 555.48)" class="st0 st1 st2">8</text>
<text transform="matrix(1 0 0 1 173.25 447.33)" class="st0 st1 st2">9</text>
<text transform="matrix(1 0 0 1 118.76 492.7)" class="st0 st1 st2">10</text>
</svg>
