<?xml version="1.0" encoding="utf-8"?>
<!-- Generator: Adobe Illustrator 24.0.1, SVG Export Plug-In . SVG Version: 6.00 Build 0)  -->
<svg version="1.1" id="LongBeach_-_Turns" xmlns="http://www.w3.org/2000/svg" xmlns:xlink="http://www.w3.org/1999/xlink" x="0px"
	 y="0px" viewBox="0 0 1920 1080" style="enable-background:new 0 0 1920 1080;" xml:space="preserve">
<style type="text/css">
	.st0{fill:#FFFFFF;}
	.st1{font-family:'ArialMT';}
	.st2{font-size:36px;}
	.st3{letter-spacing:-2;}
</style>
<title>turns</title>
<text transform="matrix(1 0 0 1 393.11 664.04)" class="st0 st1 st2">1</text>
<text transform="matrix(1 0 0 1 258.68 826.92)" class="st0 st1 st2">2</text>
<text transform="matrix(1 0 0 1 152.46 803.58)" class="st0 st1 st2">3</text>
<text transform="matrix(1 0 0 1 6.07 678.81)" class="st0 st1 st2">4</text>
<text transform="matrix(1 0 0 1 121.81 550.92)" class="st0 st1 st2">5</text>
<text transform="matrix(1 0 0 1 695.83 779.88)" class="st0 st1 st2">6</text>
<text transform="matrix(1 0 0 1 744.99 669)" class="st0 st1 st2">7</text>
<text transform="matrix(1 0 0 1 739.27 363.36)" class="st0 st1 st2">8</text>
<text transform="matrix(1 0 0 1 1624.25 375.57)" class="st0 st1 st2">9</text>
<text transform="matrix(1 0 0 1 1683.77 519.47)" class="st0 st1 st2">10</text>
<text transform="matrix(1 0 0 1 1858.3199 537.95)" class="st0 st1 st2 st3">11</text>
</svg>
