<?xml version="1.0" encoding="utf-8"?>
<!-- Generator: Adobe Illustrator 26.3.1, SVG Export Plug-In . SVG Version: 6.00 Build 0)  -->
<svg version="1.1" id="International_Brittens_-_Turns"
	 xmlns="http://www.w3.org/2000/svg" xmlns:xlink="http://www.w3.org/1999/xlink" x="0px" y="0px" viewBox="0 0 1920 1080"
	 style="enable-background:new 0 0 1920 1080;" xml:space="preserve">
<style type="text/css">
	.st0{fill:#FFFFFF;}
	.st1{font-family:'ArialMT';}
	.st2{font-size:36px;}
</style>
<text transform="matrix(1 0 0 1 838.6 108.85)" class="st0 st1 st2">1</text>
<text transform="matrix(1 0 0 1 972.92 513.57)" class="st0 st1 st2">2</text>
<text transform="matrix(1 0 0 1 1058.54 693.67)" class="st0 st1 st2">3</text>
<text transform="matrix(1 0 0 1 1845.53 155.4299)" class="st0 st1 st2">5</text>
<text transform="matrix(1 0 0 1 1832.15 410.42)" class="st0 st1 st2">6</text>
<text transform="matrix(1 0 0 1 1769.25 570.67)" class="st0 st1 st2">7</text>
<text transform="matrix(1 0 0 1 1744.6801 619.19)" class="st0 st1 st2">8</text>
<text transform="matrix(1 0 0 1 1661.05 635.71)" class="st0 st1 st2">9</text>
<text transform="matrix(1 0 0 1 945.24 967.81)" class="st0 st1 st2">10</text>
<text transform="matrix(1 0 0 1 368.3 847.37)" class="st0 st1 st2">12</text>
<text transform="matrix(1 0 0 1 147.66 768.42)" class="st0 st1 st2">13</text>
<text transform="matrix(1 0 0 1 58.18 151.51)" class="st0 st1 st2">14</text>
<text transform="matrix(1 0 0 1 277.62 129.64)" class="st0 st1 st2">15</text>
<text transform="matrix(1 0 0 1 1755.84 442.92)" class="st0 st1 st2">4</text>
<text transform="matrix(1 0 0 1 1058.55 649.87)" class="st0 st1 st2">Cascades</text>
<text transform="matrix(1 0 0 1 1331.34 583.7)" class="st0 st1 st2">Lakeside</text>
<text transform="matrix(1 0 0 1 1551.99 442.92)" class="st0 st1 st2">Island Bend</text>
<text transform="matrix(1 0 0 1 1452.77 818.81)" class="st0 st1 st2">Hilltop</text>
<text transform="matrix(1 0 0 1 1723.609 667.3159)" class="st0 st1 st2">Britten’s</text>
<text transform="matrix(1 0 0 1 863.05 1038.33)" class="st0 st1 st2">Knickerbrook</text>
<text transform="matrix(1 0 0 1 583.2 931.89)" class="st0 st1 st2">Clay Hill</text>
<text transform="matrix(1 0 0 1 635.9595 886.6702)" class="st0 st1 st2">11</text>
<text transform="matrix(1 0 0 1 47.1 827.75)" class="st0 st1 st2">Druids</text>
<text transform="matrix(1 0 0 1 108.7419 509.8603)" class="st0 st1 st2">Warwick Bridge</text>
<text transform="matrix(1 0 0 1 286.2715 768.8154)" class="st0 st1 st2">Water Tower</text>
<text transform="matrix(1 0 0 1 808.5734 513.9655)" class="st0 st1 st2">Denton’s</text>
<text transform="matrix(1 0 0 1 945.2402 274.7196)" class="st0 st1 st2">The Avenue</text>
<text transform="matrix(1 0 0 1 1633.9301 126.52)" class="st0 st1 st2">Shell Oils</text>
<text transform="matrix(1 0 0 1 1654.6899 163.1899)" class="st0 st1 st2">Corner</text>
<text transform="matrix(1 0 0 1 43.84 866.99)" class="st0 st1 st2">Corner</text>
<text transform="matrix(1 0 0 1 94.81 198.8101)" class="st0 st1 st2">Lodge</text>
<text transform="matrix(1 0 0 1 216.26 80.4)" class="st0 st1 st2">Deer Leap</text>
<text transform="matrix(1 0 0 1 876.96 108.85)" class="st0 st1 st2">Old Hall Corner</text>
<text transform="matrix(1 0 0 1 89.59 238.05)" class="st0 st1 st2">Corner</text>
</svg>
