<?xml version="1.0" encoding="utf-8"?>
<!-- Generator: Adobe Illustrator 26.3.1, SVG Export Plug-In . SVG Version: 6.00 Build 0)  -->
<svg version="1.1" id="Island_Historic_-_Turns" xmlns="http://www.w3.org/2000/svg" xmlns:xlink="http://www.w3.org/1999/xlink"
	 x="0px" y="0px" viewBox="0 0 1920 1080" style="enable-background:new 0 0 1920 1080;" xml:space="preserve">
<style type="text/css">
	.st0{fill:#FFFFFF;}
	.st1{font-family:'ArialMT';}
	.st2{font-size:36px;}
</style>
<g>
	<text transform="matrix(1 0 0 1 838.6 108.85)" class="st0 st1 st2">1</text>
</g>
<g>
	<text transform="matrix(1 0 0 1 972.92 513.57)" class="st0 st1 st2">2</text>
</g>
<g>
	<text transform="matrix(1 0 0 1 1058.54 693.67)" class="st0 st1 st2">3</text>
</g>
<g>
	<text transform="matrix(1 0 0 1 955.26 967.81)" class="st0 st1 st2">5</text>
</g>
<g>
	<text transform="matrix(1 0 0 1 644.66 886.67)" class="st0 st1 st2">6</text>
</g>
<g>
	<text transform="matrix(1 0 0 1 378.31 847.37)" class="st0 st1 st2">7</text>
</g>
<g>
	<text transform="matrix(1 0 0 1 157.67 768.42)" class="st0 st1 st2">8</text>
</g>
<g>
	<text transform="matrix(1 0 0 1 68.19 151.51)" class="st0 st1 st2">9</text>
</g>
<g>
	<text transform="matrix(1 0 0 1 277.62 129.64)" class="st0 st1 st2">10</text>
</g>
<g>
	<text transform="matrix(1 0 0 1 1686.14 557.25)" class="st0 st1 st2">4</text>
</g>
<g>
	<text transform="matrix(1 0 0 1 1058.55 649.87)" class="st0 st1 st2">Cascades</text>
</g>
<g>
	<text transform="matrix(1 0 0 1 1331.34 583.7)" class="st0 st1 st2">Lakeside</text>
</g>
<g>
	<text transform="matrix(1 0 0 1 1452.77 818.81)" class="st0 st1 st2">Hilltop</text>
</g>
<g>
	<text transform="matrix(1 0 0 1 863.05 1038.33)" class="st0 st1 st2">Knickerbrook</text>
</g>
<g>
	<text transform="matrix(1 0 0 1 583.2 931.89)" class="st0 st1 st2">Clay Hill</text>
</g>
<g>
	<text transform="matrix(1 0 0 1 47.1 827.75)" class="st0 st1 st2">Druids</text>
</g>
<g>
	<text transform="matrix(1 0 0 1 43.84 866.99)" class="st0 st1 st2">Corner</text>
</g>
<g>
	<text transform="matrix(1 0 0 1 94.81 198.8101)" class="st0 st1 st2">Lodge</text>
</g>
<g>
	<text transform="matrix(1 0 0 1 216.26 80.4)" class="st0 st1 st2">Deer Leap</text>
</g>
<g>
	<text transform="matrix(1 0 0 1 876.96 108.85)" class="st0 st1 st2">Old Hall Corner</text>
</g>
<g>
	<text transform="matrix(1 0 0 1 89.59 238.05)" class="st0 st1 st2">Corner</text>
</g>
<g>
	<g>
		<text transform="matrix(1 0 0 1 108.7416 509.8599)" class="st0 st1 st2">Warwick Bridge</text>
	</g>
</g>
<g>
	<text transform="matrix(1 0 0 1 286.2716 768.4199)" class="st0 st1 st2">Water Tower</text>
</g>
<g>
	<text transform="matrix(1 0 0 1 808.4444 513.57)" class="st0 st1 st2">Denton’s</text>
</g>
<g>
	<text transform="matrix(1 0 0 1 945.4276 275.1155)" class="st0 st1 st2">The Avenue</text>
</g>
</svg>
