<?xml version="1.0" encoding="utf-8"?>
<!-- Generator: Adobe Illustrator 24.0.1, SVG Export Plug-In . SVG Version: 6.00 Build 0)  -->
<svg version="1.1" id="Daytona_Road_-_Turns" xmlns="http://www.w3.org/2000/svg" xmlns:xlink="http://www.w3.org/1999/xlink"
	 x="0px" y="0px" viewBox="0 0 1920 1080" style="enable-background:new 0 0 1920 1080;" xml:space="preserve">
<style type="text/css">
	.st0{fill:#FFFFFF;}
	.st1{font-family:'ArialMT';}
	.st2{font-size:36px;}
	.st3{letter-spacing:-2;}
</style>
<text transform="matrix(1 0 0 1 1423.9301 732.49)" class="st0 st1 st2">1</text>
<text transform="matrix(1 0 0 1 1256.29 630.61)" class="st0 st1 st2">2</text>
<text transform="matrix(1 0 0 1 1186.65 596.13)" class="st0 st1 st2">3</text>
<text transform="matrix(1 0 0 1 928.65 583.84)" class="st0 st1 st2">4</text>
<text transform="matrix(1 0 0 1 1388.6 483.82)" class="st0 st1 st2">5</text>
<text transform="matrix(1 0 0 1 1667.96 382.27)" class="st0 st1 st2">6</text>
<text transform="matrix(1 0 0 1 1498.65 678.46)" class="st0 st1 st2">7</text>
<text transform="matrix(1 0 0 1 1804.98 330.84)" class="st0 st1 st2">8</text>
<text transform="matrix(1 0 0 1 834.71 111.15)" class="st0 st1 st2">9</text>
<text transform="matrix(1 0 0 1 739.61 75.61)" class="st0 st1 st2">10</text>
<text transform="matrix(1 0 0 1 612.86 114.57)" class="st0 st1 st2 st3">11</text>
<text transform="matrix(1 0 0 1 96.3 392.28)" class="st0 st1 st2">12</text>
</svg>
