<?xml version="1.0" encoding="utf-8"?>
<!-- Generator: Adobe Illustrator 26.3.1, SVG Export Plug-In . SVG Version: 6.00 Build 0)  -->
<svg version="1.1" id="Grand_Prix__Turns" xmlns="http://www.w3.org/2000/svg" xmlns:xlink="http://www.w3.org/1999/xlink" x="0px"
	 y="0px" viewBox="0 0 1920 1080" style="enable-background:new 0 0 1920 1080;" xml:space="preserve">
<style type="text/css">
	.st0{fill:#FFFFFF;}
	.st1{font-family:'ArialMT';}
	.st2{font-size:32px;}
	.st3{letter-spacing:-2;}
</style>
<text transform="matrix(1 0 0 1 622.1 806.22)" class="st0 st1 st2">1</text>
<text transform="matrix(1 0 0 1 637.92 760.07)" class="st0 st1 st2">2</text>
<text transform="matrix(1 0 0 1 1182.66 771.89)" class="st0 st1 st2">3</text>
<text transform="matrix(1 0 0 1 1163.1 692)" class="st0 st1 st2">4</text>
<text transform="matrix(1 0 0 1 648.32 623.67)" class="st0 st1 st2">5</text>
<text transform="matrix(1 0 0 1 809.14 446.52)" class="st0 st1 st2">6</text>
<text transform="matrix(1 0 0 1 1116.88 425.56)" class="st0 st1 st2">7</text>
<text transform="matrix(1 0 0 1 1227.99 382.22)" class="st0 st1 st2">8</text>
<text transform="matrix(1 0 0 1 1439.21 477.11)" class="st0 st1 st2">9</text>
<text transform="matrix(1 0 0 1 1506.02 60.52)" class="st0 st1 st2">10</text>
<text transform="matrix(1 0 0 1 1499.0601 864.56)" class="st0 st1 st2 st3">11</text>
<text transform="matrix(1 0 0 1 1324.4301 897)" class="st0 st1 st2">12</text>
<text transform="matrix(1 0 0 1 1257.54 934.56)" class="st0 st1 st2">13</text>
<text transform="matrix(1 0 0 1 1184.3101 948.44)" class="st0 st1 st2">14</text>
</svg>
