<?xml version="1.0" encoding="utf-8"?>
<!-- Generator: Adobe Illustrator 24.0.1, SVG Export Plug-In . SVG Version: 6.00 Build 0)  -->
<svg version="1.1" id="East__Turns" xmlns="http://www.w3.org/2000/svg" xmlns:xlink="http://www.w3.org/1999/xlink" x="0px"
	 y="0px" viewBox="0 0 1920 1080" style="enable-background:new 0 0 1920 1080;" xml:space="preserve">
<style type="text/css">
	.st0{fill:#FFFFFF;}
	.st1{font-family:'ArialMT';}
	.st2{font-size:32px;}
	.st3{letter-spacing:-2;}
</style>
<title>turns</title>
<text transform="matrix(1 0 0 1 1506.77 864.56)" class="st0 st1 st2">1</text>
<text transform="matrix(1 0 0 1 1381.14 835.07)" class="st0 st1 st2">2</text>
<text transform="matrix(1 0 0 1 1307.4399 772.33)" class="st0 st1 st2">3</text>
<text transform="matrix(1 0 0 1 1231.99 686)" class="st0 st1 st2">4</text>
<text transform="matrix(1 0 0 1 1163.1 692)" class="st0 st1 st2">5</text>
<text transform="matrix(1 0 0 1 648.32 623.67)" class="st0 st1 st2">6</text>
<text transform="matrix(1 0 0 1 809.14 446.52)" class="st0 st1 st2">7</text>
<text transform="matrix(1 0 0 1 1116.88 425.56)" class="st0 st1 st2">8</text>
<text transform="matrix(1 0 0 1 1227.99 382.22)" class="st0 st1 st2">9</text>
<text transform="matrix(1 0 0 1 1427.3101 477.11)" class="st0 st1 st2">10</text>
<text transform="matrix(1 0 0 1 1507.21 60.52)" class="st0 st1 st2 st3">11</text>
</svg>
