<?xml version="1.0" encoding="utf-8"?>
<!-- Generator: Adobe Illustrator 24.0.1, SVG Export Plug-In . SVG Version: 6.00 Build 0)  -->
<svg version="1.1" id="Grand_Prix__Turns" xmlns="http://www.w3.org/2000/svg" xmlns:xlink="http://www.w3.org/1999/xlink" x="0px"
	 y="0px" viewBox="0 0 1920 1080" style="enable-background:new 0 0 1920 1080;" xml:space="preserve">
<style type="text/css">
	.st0{fill:#FFFFFF;}
	.st1{font-family:'ArialMT';}
	.st2{font-size:36px;}
	.st3{font-size:32px;}
</style>
<title>turns</title>
<text transform="matrix(1 0 0 1 421.66 705.33)" class="st0 st1 st2">1</text>
<text transform="matrix(1 0 0 1 322.25 989.52)" class="st0 st1 st2">2</text>
<text transform="matrix(1 0 0 1 173.43 902.56)" class="st0 st1 st2">3</text>
<text transform="matrix(1 0 0 1 210.21 626.11)" class="st0 st1 st2">4</text>
<text transform="matrix(1 0 0 1 916.06 575.85)" class="st0 st1 st2">5</text>
<text transform="matrix(1 0 0 1 1238.92 395.07)" class="st0 st1 st2">6</text>
<text transform="matrix(1 0 0 1 1434.77 125.89)" class="st0 st1 st2">7</text>
<text transform="matrix(1 0 0 1 1698.83 550.85)" class="st0 st1 st2">8</text>
<text transform="matrix(1 0 0 1 1576.8 567.52)" class="st0 st1 st2">9</text>
<text transform="matrix(1 0 0 1 1142.2 658.86)" class="st0 st1 st2">10</text>
<text transform="matrix(1 0 0 1 110.53 530.37)" class="st0 st1 st3">Lucien Bianchibocht</text>
<text transform="matrix(1 0 0 1 768.6 476.7)" class="st0 st1 st3">Kleine</text>
<text transform="matrix(1 0 0 1 765.04 517.37)" class="st0 st1 st3">Chicane</text>
<text transform="matrix(1 0 0 1 1108.38 362.04)" class="st0 st1 st3">Butte</text>
<text transform="matrix(1 0 0 1 1329.46 190.7)" class="st0 st1 st3">Terlamenbocht</text>
<text transform="matrix(1 0 0 1 1419.39 494.7)" class="st0 st1 st3">Bolderberghaarspeldbocht</text>
<text transform="matrix(1 0 0 1 1542.15 643.37)" class="st0 st1 st3">Jochen</text>
<text transform="matrix(1 0 0 1 1544.58 682.04)" class="st0 st1 st3">Rindtbocht</text>
<text transform="matrix(1 0 0 1 1026.8101 711.37)" class="st0 st1 st3">Jacky Ickxbocht</text>
<text transform="matrix(1 0 0 1 456.5 693.04)" class="st0 st1 st3">Earste</text>
<text transform="matrix(1 0 0 1 255.67 1064.7)" class="st0 st1 st3">Sterrenwachtbocht</text>
<text transform="matrix(1 0 0 1 190.45 931.7)" class="st0 st1 st3">Kanaalbocht</text>
</svg>
