<svg id="Full_Course_-_Turns" data-name="Full Course - Turns" xmlns="http://www.w3.org/2000/svg" viewBox="0 0 1920 1080"><defs><style>.cls-1{font-size:25px;}.cls-1,.cls-2{fill:#fff;font-family:ArialMT, Arial;}.cls-2{font-size:36px;}.cls-3{letter-spacing:-0.07em;}.cls-4{letter-spacing:-0.02em;}.cls-5{letter-spacing:-0.04em;}.cls-6{letter-spacing:0em;}</style></defs><text class="cls-1" transform="translate(160.24 63.09)">Horse Shoe</text><text class="cls-1" transform="translate(359.86 391.66)">Left Hook</text><text class="cls-1" transform="translate(511.38 319.08)">Snake</text><text class="cls-1" transform="translate(1478.5 452.69)">South Bend</text><text class="cls-1" transform="translate(254.98 1024.66)">Hog Pen</text><text class="cls-1" transform="translate(112.22 451.93)">NASCAR</text><text class="cls-1" transform="translate(112.22 481.84)">Bend</text><text class="cls-1" transform="translate(681 971.13)">Roller</text><text class="cls-1" transform="translate(681 1001.03)">Coaster</text><text class="cls-2" transform="translate(110.45 98.25)">1</text><text class="cls-2" transform="translate(132.38 300.63)">2</text><text class="cls-2" transform="translate(166.41 400.98)">3</text><text class="cls-2" transform="translate(307.56 366.65)">4</text><text class="cls-2" transform="translate(348.28 321.65)">5</text><text class="cls-2" transform="translate(412.24 290.61)">5a</text><text class="cls-2" transform="translate(497 258.88)">6</text><text class="cls-2" transform="translate(597.63 281.47)">6a</text><text class="cls-2" transform="translate(1130.79 367.74)">7</text><text class="cls-2" transform="translate(1215.72 332.93)">8</text><text class="cls-2" transform="translate(1309.18 377.69)">9</text><text class="cls-2" transform="translate(1494.49 397.33)">10</text><text class="cls-2" transform="translate(1765.41 386.57)"><tspan class="cls-3">1</tspan><tspan x="17.35" y="0">1</tspan></text><text class="cls-2" transform="translate(1800.43 415.92)">12</text><text class="cls-2" transform="translate(759.86 921.48)">14</text><text class="cls-2" transform="translate(661.61 907.84)">14a</text><text class="cls-2" transform="translate(579.14 914.77)">15</text><text class="cls-2" transform="translate(441.08 954.82)">16</text><text class="cls-2" transform="translate(355.99 964.41)">17</text><text class="cls-2" transform="translate(259.23 938.13)">17a</text><text class="cls-1" transform="translate(1781.44 497.78) rotate(-28.74)">Oak<tspan class="cls-4" x="45.85" y="0"> </tspan><tspan class="cls-5" x="52.34" y="0">T</tspan><tspan class="cls-6" x="66.69" y="0">ree</tspan></text></svg>