<?xml version="1.0" encoding="utf-8"?>
<!-- Generator: Adobe Illustrator 25.3.1, SVG Export Plug-In . SVG Version: 6.00 Build 0)  -->
<svg version="1.1" id="Grand_Prix_Turns" xmlns="http://www.w3.org/2000/svg" xmlns:xlink="http://www.w3.org/1999/xlink" x="0px"
	 y="0px" viewBox="0 0 1920 1080" style="enable-background:new 0 0 1920 1080;" xml:space="preserve">
<style type="text/css">
	.st0{fill:#FFFFFF;}
	.st1{font-family:'ArialMT';}
	.st2{font-size:25px;}
	.st3{letter-spacing:-2;}
	.st4{font-size:36px;}
</style>
<text transform="matrix(1 0 0 1 1651.35 858.38)" class="st0 st1 st2">The Sweeper</text>
<text transform="matrix(1 0 0 1 1663.9 629.31)" class="st0 st1 st2">Coca-cola</text>
<text transform="matrix(1 0 0 1 1681.79 658.45)" class="st0 st1 st2">Corner</text>
<text transform="matrix(1 0 0 1 1645.29 480.88)" class="st0 st1 st2 st3">Yokohama</text>
<text transform="matrix(1 0 0 1 1645.29 510.01)" class="st0 st1 st2">Bridge</text>
<text transform="matrix(1 0 0 1 1481.36 122.03)" class="st0 st1 st2">Champion</text>
<text transform="matrix(1 0 0 1 1505 151.16)" class="st0 st1 st2">Curve</text>
<text transform="matrix(1 0 0 1 1144.26 336.49)" class="st0 st1 st2">Shell</text>
<text transform="matrix(1 0 0 1 1133.67 365.63)" class="st0 st1 st2">Corner</text>
<text transform="matrix(1 0 0 1 814.05 117.84)" class="st0 st1 st2">Momo</text>
<text transform="matrix(1 0 0 1 810.4 146.97)" class="st0 st1 st2">Corner</text>
<text transform="matrix(1 0 0 1 983.76 566.66)" class="st0 st1 st2">Foster’s</text>
<text transform="matrix(1 0 0 1 407.07 502.04)" class="st0 st1 st2">O’Brien Aluminium</text>
<text transform="matrix(1 0 0 1 155.1 764.39)" class="st0 st1 st2">Recaro Corner</text>
<text transform="matrix(1 0 0 1 1009.69 595.8)" class="st0 st1 st2">Dip</text>
<text transform="matrix(1 0 0 1 1587.89 818.35)" class="st0 st1 st4">1</text>
<text transform="matrix(1 0 0 1 1784.11 652.05)" class="st0 st1 st4">2</text>
<text transform="matrix(1 0 0 1 1249.66 429.4)" class="st0 st1 st4">3</text>
<text transform="matrix(1 0 0 1 1527.0699 220.13)" class="st0 st1 st4">4</text>
<text transform="matrix(1 0 0 1 1660.66 321.26)" class="st0 st1 st4">5</text>
<text transform="matrix(1 0 0 1 1548.36 584.71)" class="st0 st1 st4">6</text>
<text transform="matrix(1 0 0 1 1138.24 541.06)" class="st0 st1 st4">7</text>
<text transform="matrix(1 0 0 1 1041.8 408.33)" class="st0 st1 st4">8</text>
<text transform="matrix(1 0 0 1 832.13 226.03)" class="st0 st1 st4">9</text>
<text transform="matrix(1 0 0 1 444.29 420.39)" class="st0 st1 st4">10</text>
<text transform="matrix(1 0 0 1 337.22 511.68)" class="st0 st1 st4 st3">11</text>
<text transform="matrix(1 0 0 1 79.31 767.55)" class="st0 st1 st4">12</text>
<text transform="matrix(1 0 0 1 470.27 530.08)" class="st0 st1 st2">Dogleg</text>
</svg>
