<?xml version="1.0" encoding="utf-8"?>
<!-- Generator: Adobe Illustrator 25.3.1, SVG Export Plug-In . SVG Version: 6.00 Build 0)  -->
<svg version="1.1" id="South_Turns" xmlns="http://www.w3.org/2000/svg" xmlns:xlink="http://www.w3.org/1999/xlink" x="0px"
	 y="0px" viewBox="0 0 1920 1080" style="enable-background:new 0 0 1920 1080;" xml:space="preserve">
<style type="text/css">
	.st0{fill:#FFFFFF;}
	.st1{font-family:'ArialMT';}
	.st2{font-size:25px;}
	.st3{font-size:36px;}
</style>
<text transform="matrix(1 0 0 1 814.05 117.84)" class="st0 st1 st2">Momo</text>
<text transform="matrix(1 0 0 1 810.4 146.97)" class="st0 st1 st2">Corner</text>
<text transform="matrix(1 0 0 1 983.79 566.66)" class="st0 st1 st2">Foster’s</text>
<text transform="matrix(1 0 0 1 155.1 764.39)" class="st0 st1 st2">Recaro Corner</text>
<text transform="matrix(1 0 0 1 1009.69 595.8)" class="st0 st1 st2">Dip</text>
<text transform="matrix(1 0 0 1 1407.46 768.85)" class="st0 st1 st3">1</text>
<text transform="matrix(1 0 0 1 1137.45 549.86)" class="st0 st1 st3">2</text>
<text transform="matrix(1 0 0 1 1045.28 416.62)" class="st0 st1 st3">3</text>
<text transform="matrix(1 0 0 1 832.51 223.33)" class="st0 st1 st3">4</text>
<text transform="matrix(1 0 0 1 443.99 426.64)" class="st0 st1 st3">5</text>
<text transform="matrix(1 0 0 1 346.06 511.26)" class="st0 st1 st3">6</text>
<text transform="matrix(1 0 0 1 82.83 764.59)" class="st0 st1 st3">7</text>
<text transform="matrix(1 0 0 1 407.07 502.04)" class="st0 st1 st2">O’Brien Aluminium</text>
<text transform="matrix(1 0 0 1 470.27 530.08)" class="st0 st1 st2">Dogleg</text>
</svg>
