<?xml version="1.0" encoding="utf-8"?>
<!-- Generator: Adobe Illustrator 25.3.1, SVG Export Plug-In . SVG Version: 6.00 Build 0)  -->
<svg version="1.1" id="North_B_Turns" xmlns="http://www.w3.org/2000/svg" xmlns:xlink="http://www.w3.org/1999/xlink" x="0px"
	 y="0px" viewBox="0 0 1920 1080" style="enable-background:new 0 0 1920 1080;" xml:space="preserve">
<style type="text/css">
	.st0{fill:#FFFFFF;}
	.st1{font-family:'ArialMT';}
	.st2{font-size:25px;}
	.st3{letter-spacing:-2;}
	.st4{font-size:36px;}
</style>
<text transform="matrix(1 0 0 1 1645.29 480.88)" class="st0 st1 st2 st3">Yokohama</text>
<text transform="matrix(1 0 0 1 1645.29 510.01)" class="st0 st1 st2">Bridge</text>
<text transform="matrix(1 0 0 1 1481.36 122.03)" class="st0 st1 st2">Champion</text>
<text transform="matrix(1 0 0 1 1505 151.16)" class="st0 st1 st2">Curve</text>
<text transform="matrix(1 0 0 1 1144.25 336.49)" class="st0 st1 st2">Shell</text>
<text transform="matrix(1 0 0 1 1133.67 365.62)" class="st0 st1 st2">Corner</text>
<text transform="matrix(1 0 0 1 1524.51 222.78)" class="st0 st1 st4">1</text>
<text transform="matrix(1 0 0 1 1658.92 326.66)" class="st0 st1 st4">2</text>
<text transform="matrix(1 0 0 1 1537.65 602.47)" class="st0 st1 st4">3</text>
<text transform="matrix(1 0 0 1 1513.11 590.82)" class="st0 st1 st4">4</text>
<text transform="matrix(1 0 0 1 1556.2 540.69)" class="st0 st1 st4">5</text>
<text transform="matrix(1 0 0 1 1243.79 425.93)" class="st0 st1 st4">6</text>
<text transform="matrix(1 0 0 1 1335.71 382.88)" class="st0 st1 st4">7</text>
<text transform="matrix(1 0 0 1 1403.99 404.47)" class="st0 st1 st4">8</text>
<text transform="matrix(1 0 0 1 1445.37 371.35)" class="st0 st1 st4">9</text>
<text transform="matrix(1 0 0 1 1456.77 316.92)" class="st0 st1 st4">10</text>
</svg>
