<?xml version="1.0" encoding="utf-8"?>
<!-- Generator: Adobe Illustrator 24.0.1, SVG Export Plug-In . SVG Version: 6.00 Build 0)  -->
<svg version="1.1" id="Grand_Prix_-_Turns" xmlns="http://www.w3.org/2000/svg" xmlns:xlink="http://www.w3.org/1999/xlink" x="0px"
	 y="0px" viewBox="0 0 1920 1080" style="enable-background:new 0 0 1920 1080;" xml:space="preserve">
<style type="text/css">
	.st0{fill:#FFFFFF;}
	.st1{font-family:'ArialMT';}
	.st2{font-size:36px;}
	.st3{letter-spacing:-2;}
	.st4{font-size:30px;}
</style>
<title>turns</title>
<text transform="matrix(1 0 0 1 1733.6 578.82)" class="st0 st1 st2">1</text>
<text transform="matrix(1 0 0 1 1641.29 475.72)" class="st0 st1 st2">2</text>
<text transform="matrix(1 0 0 1 1628.65 243.79)" class="st0 st1 st2">3</text>
<text transform="matrix(1 0 0 1 648.98 211.84)" class="st0 st1 st2">4</text>
<text transform="matrix(1 0 0 1 668.26 384.82)" class="st0 st1 st2">5</text>
<text transform="matrix(1 0 0 1 1088.62 680.39)" class="st0 st1 st2">6</text>
<text transform="matrix(1 0 0 1 1091.3101 782.46)" class="st0 st1 st2">7</text>
<text transform="matrix(1 0 0 1 939.98 848.17)" class="st0 st1 st2">8</text>
<text transform="matrix(1 0 0 1 871.6 770.15)" class="st0 st1 st2">9</text>
<text transform="matrix(1 0 0 1 632.95 875.39)" class="st0 st1 st2">10</text>
<text transform="matrix(1 0 0 1 638.31 697.46)" class="st0 st1 st2 st3">11</text>
<text transform="matrix(1 0 0 1 393.97 552.84)" class="st0 st1 st2">12</text>
<text transform="matrix(1 0 0 1 379.25 671.49)" class="st0 st1 st2">13</text>
<text transform="matrix(1 0 0 1 508.5 996.05)" class="st0 st1 st2">14</text>
<text transform="matrix(1 0 0 1 1027.1899 1014.02)" class="st0 st1 st2">15</text>
<text transform="matrix(1 0 0 1 938.22 132.17)" class="st0 st1 st4">Reta Oposta</text>
<text transform="matrix(1 0 0 1 1362.72 284.51)" class="st0 st1 st4">Curva do Sol</text>
<text transform="matrix(1 0 0 1 1698.95 491.51)" class="st0 st1 st4">Senna’S’</text>
<text transform="matrix(1 0 0 1 1177.91 659.51)" class="st0 st1 st4">Ferradura</text>
<text transform="matrix(1 0 0 1 1188.62 727.06)" class="st0 st1 st4">Curva</text>
<text transform="matrix(1 0 0 1 1219.9 758.28)" class="st0 st1 st4">do          </text>
<text transform="matrix(1 0 0 1 1147.76 791.62)" class="st0 st1 st4">  Laranjinha</text>
<text transform="matrix(1 0 0 1 833.44 679.95)" class="st0 st1 st4">Pinheirinho</text>
<text transform="matrix(1 0 0 1 535.81 645.95)" class="st0 st1 st4">Mergulho</text>
<text transform="matrix(1 0 0 1 372.14 458.62)" class="st0 st1 st4">Juncao</text>
<text transform="matrix(1 0 0 1 712.18 736.95)" class="st0 st1 st4">Bico</text>
<text transform="matrix(1 0 0 1 721.84 772.28)" class="st0 st1 st4">de  </text>
<text transform="matrix(1 0 0 1 722.5 806.28)" class="st0 st1 st4">Pato</text>
<text transform="matrix(1 0 0 1 463.83 253.28)" class="st0 st1 st4">Descida</text>
<text transform="matrix(1 0 0 1 494.17 288.62)" class="st0 st1 st4">do</text>
<text transform="matrix(1 0 0 1 487.14 322.62)" class="st0 st1 st4">Lago</text>
<text transform="matrix(1 0 0 1 418.05 1040.22)" class="st0 st1 st4">Subida dos Boxes</text>
</svg>
