<?xml version="1.0" encoding="utf-8"?>
<!-- Generator: Adobe Illustrator 24.2.3, SVG Export Plug-In . SVG Version: 6.00 Build 0)  -->
<svg version="1.1" id="GP_-_Turns" xmlns="http://www.w3.org/2000/svg" xmlns:xlink="http://www.w3.org/1999/xlink" x="0px" y="0px"
	 viewBox="0 0 1920 1080" style="enable-background:new 0 0 1920 1080;" xml:space="preserve">
<style type="text/css">
	.st0{fill:#FFFFFF;}
	.st1{font-family:'ArialMT';}
	.st2{font-size:36px;}
	.st3{letter-spacing:-1;}
</style>
<text transform="matrix(1 0 0 1 1738.36 580.02)" class="st0 st1 st2">1</text>
<text transform="matrix(1 0 0 1 905.75 481.55)" class="st0 st1 st2">2</text>
<text transform="matrix(1 0 0 1 970.24 239.89)" class="st0 st1 st2">3</text>
<text transform="matrix(1 0 0 1 883.32 106.45)" class="st0 st1 st2">4</text>
<text transform="matrix(1 0 0 1 786.44 185.1899)" class="st0 st1 st2">5</text>
<text transform="matrix(1 0 0 1 681.78 184.9299)" class="st0 st1 st2">6</text>
<text transform="matrix(1 0 0 1 615.98 118.37)" class="st0 st1 st2">7</text>
<text transform="matrix(1 0 0 1 518.95 62.23)" class="st0 st1 st2">8</text>
<text transform="matrix(1 0 0 1 381.24 58.5699)" class="st0 st1 st2">9</text>
<text transform="matrix(1 0 0 1 174.8 226.28)" class="st0 st1 st2">10</text>
<text transform="matrix(1 0 0 1 196.49 484.1)" class="st0 st1 st2 st3">1</text>
<text transform="matrix(1 0 0 1 213.84 484.1)" class="st0 st1 st2">1</text>
<text transform="matrix(1 0 0 1 178.04 544.97)" class="st0 st1 st2">12</text>
<text transform="matrix(1 0 0 1 180.46 599.67)" class="st0 st1 st2">13</text>
<text transform="matrix(1 0 0 1 268.95 647.45)" class="st0 st1 st2">14</text>
<text transform="matrix(1 0 0 1 151.4 681.18)" class="st0 st1 st2">15</text>
<text transform="matrix(1 0 0 1 201.6 782.2)" class="st0 st1 st2">16</text>
<text transform="matrix(1 0 0 1 96.69 801.76)" class="st0 st1 st2">17</text>
<text transform="matrix(1 0 0 1 31.56 909.34)" class="st0 st1 st2">18</text>
<text transform="matrix(1 0 0 1 238.56 1021.06)" class="st0 st1 st2">19</text>
<text transform="matrix(1 0 0 1 1127.34 916.59)" class="st0 st1 st2">20</text>
<text transform="matrix(1 0 0 1 1339.4 1060.17)" class="st0 st1 st2">21</text>
<text transform="matrix(1 0 0 1 1386.62 914.99)" class="st0 st1 st2">22</text>
<text transform="matrix(1 0 0 1 1731.84 899.02)" class="st0 st1 st2">23</text>
<text transform="matrix(1 0 0 1 1792.8 452.2)" class="st0 st1 st2">Hell</text>
<text transform="matrix(1 0 0 1 1768.79 495.4)" class="st0 st1 st2">Corner</text>
<text transform="matrix(1 0 0 1 1741.5699 989.8)" class="st0 st1 st2">Murrays</text>
<text transform="matrix(1 0 0 1 1751.5499 1033)" class="st0 st1 st2">Corner</text>
<text transform="matrix(1 0 0 1 1187.24 1020.36)" class="st0 st1 st2">The</text>
<text transform="matrix(1 0 0 1 1161.22 1063.5601)" class="st0 st1 st2"> Chase</text>
<text transform="matrix(1 0 0 1 971.17 129.47)" class="st0 st1 st2">The</text>
<text transform="matrix(1 0 0 1 940.15 172.67)" class="st0 st1 st2"> Cutting</text>
<text transform="matrix(1 0 0 1 692.16 282.83)" class="st0 st1 st2">Quarry</text>
<text transform="matrix(1 0 0 1 692.15 326.03)" class="st0 st1 st2">Corner</text>
<text transform="matrix(1 0 0 1 725.81 518.57)" class="st0 st1 st2">Griffins</text>
<text transform="matrix(1 0 0 1 740.45 561.77)" class="st0 st1 st2">Bend</text>
<text id="Skyline" transform="matrix(1 0 0 1 295.63 466.87)" class="st0 st1 st2">Skyline</text>
<text transform="matrix(1 0 0 1 77.8211 589.97)" class="st0 st1 st2">The</text>
<text transform="matrix(1 0 0 1 58.36 1000.06)" class="st0 st1 st2">Forrest’s</text>
<text transform="matrix(1 0 0 1 58.36 1040.1479)" class="st0 st1 st2">Elbow</text>
<text transform="matrix(1 0 0 1 77.8211 630.0579)" class="st0 st1 st2">Dipper</text>
</svg>
