<?xml version="1.0" encoding="utf-8"?>
<!-- Generator: Adobe Illustrator 24.0.1, SVG Export Plug-In . SVG Version: 6.00 Build 0)  -->
<svg version="1.1" id="Full_-_Turns" xmlns="http://www.w3.org/2000/svg" xmlns:xlink="http://www.w3.org/1999/xlink" x="0px"
	 y="0px" viewBox="0 0 1920 1080" style="enable-background:new 0 0 1920 1080;" xml:space="preserve">
<style type="text/css">
	.st0{fill:#FFFFFF;}
	.st1{font-family:'ArialMT';}
	.st2{font-size:36px;}
	.st3{letter-spacing:-2;}
</style>
<title>turns</title>
<text transform="matrix(1 0 0 1 1784.09 302.14)" class="st0 st1 st2">1</text>
<text transform="matrix(1 0 0 1 1841.08 534.16)" class="st0 st1 st2">2</text>
<text transform="matrix(1 0 0 1 1464.8 858.55)" class="st0 st1 st2">3</text>
<text transform="matrix(1 0 0 1 890.35 707.44)" class="st0 st1 st2">4</text>
<text transform="matrix(1 0 0 1 764.27 503.1)" class="st0 st1 st2">5</text>
<text transform="matrix(1 0 0 1 373.13 759.55)" class="st0 st1 st2">6</text>
<text transform="matrix(1 0 0 1 66.35 504.32)" class="st0 st1 st2">7</text>
<text transform="matrix(1 0 0 1 306.54 325.16)" class="st0 st1 st2">8</text>
<text transform="matrix(1 0 0 1 430.91 442.6)" class="st0 st1 st2">9</text>
<text transform="matrix(1 0 0 1 350.91 586.09)" class="st0 st1 st2">10</text>
<text transform="matrix(1 0 0 1 506.35 478.49)" class="st0 st1 st2 st3">11</text>
<text transform="matrix(1 0 0 1 794.93 263.51)" class="st0 st1 st2">12</text>
</svg>
