<?xml version="1.0" encoding="utf-8"?>
<!-- Generator: Adobe Illustrator 24.0.1, SVG Export Plug-In . SVG Version: 6.00 Build 0)  -->
<svg version="1.1" id="Chicane_-_Turns" xmlns="http://www.w3.org/2000/svg" xmlns:xlink="http://www.w3.org/1999/xlink" x="0px"
	 y="0px" viewBox="0 0 1920 1080" style="enable-background:new 0 0 1920 1080;" xml:space="preserve">
<style type="text/css">
	.st0{fill:#FFFFFF;}
	.st1{font-family:'ArialMT';}
	.st2{font-size:36px;}
	.st3{letter-spacing:-2;}
</style>
<title>turns</title>
<text transform="matrix(1 0 0 1 1784.09 302.14)" class="st0 st1 st2">1</text>
<text transform="matrix(1 0 0 1 1728.04 377.33)" class="st0 st1 st2">2</text>
<text transform="matrix(1 0 0 1 1767.64 465.67)" class="st0 st1 st2">3</text>
<text transform="matrix(1 0 0 1 1747.08 560.37)" class="st0 st1 st2">4</text>
<text transform="matrix(1 0 0 1 1589.87 668.84)" class="st0 st1 st2">5</text>
<text transform="matrix(1 0 0 1 1487.8199 737.38)" class="st0 st1 st2">6</text>
<text transform="matrix(1 0 0 1 1315.0601 821.19)" class="st0 st1 st2">7</text>
<text transform="matrix(1 0 0 1 873.91 687.77)" class="st0 st1 st2">8</text>
<text transform="matrix(1 0 0 1 767.26 445.52)" class="st0 st1 st2">9</text>
<text transform="matrix(1 0 0 1 352.08 768.17)" class="st0 st1 st2">10</text>
<text transform="matrix(1 0 0 1 61.64 499.5)" class="st0 st1 st2 st3">11</text>
<text transform="matrix(1 0 0 1 265.94 320.08)" class="st0 st1 st2">12</text>
<text transform="matrix(1 0 0 1 426.19 433.63)" class="st0 st1 st2">13</text>
<text transform="matrix(1 0 0 1 356.43 580.26)" class="st0 st1 st2">14</text>
<text transform="matrix(1 0 0 1 508.62 475.46)" class="st0 st1 st2">15</text>
<text transform="matrix(1 0 0 1 815.77 253.47)" class="st0 st1 st2">16</text>
</svg>
