<?xml version="1.0" encoding="utf-8"?>
<!-- Generator: Adobe Illustrator 24.0.1, SVG Export Plug-In . SVG Version: 6.00 Build 0)  -->
<svg version="1.1" id="First_Chicane_-_Turns" xmlns="http://www.w3.org/2000/svg" xmlns:xlink="http://www.w3.org/1999/xlink"
	 x="0px" y="0px" viewBox="0 0 1920 1080" style="enable-background:new 0 0 1920 1080;" xml:space="preserve">
<style type="text/css">
	.st0{fill:#FFFFFF;}
	.st1{font-family:'ArialMT';}
	.st2{font-size:36px;}
	.st3{letter-spacing:-2;}
</style>
<title>turns</title>
<text transform="matrix(1 0 0 1 1784.09 302.14)" class="st0 st1 st2">1</text>
<text transform="matrix(1 0 0 1 1809.11 386.51)" class="st0 st1 st2">2</text>
<text transform="matrix(1 0 0 1 1767.64 465.67)" class="st0 st1 st2">3</text>
<text transform="matrix(1 0 0 1 1747.08 560.37)" class="st0 st1 st2">4</text>
<text transform="matrix(1 0 0 1 1453.37 780.43)" class="st0 st1 st2">5</text>
<text transform="matrix(1 0 0 1 878.79 691.35)" class="st0 st1 st2">6</text>
<text transform="matrix(1 0 0 1 762.48 502.87)" class="st0 st1 st2">7</text>
<text transform="matrix(1 0 0 1 386.5 762.28)" class="st0 st1 st2">8</text>
<text transform="matrix(1 0 0 1 72.51 489.11)" class="st0 st1 st2">9</text>
<text transform="matrix(1 0 0 1 276.58 323.49)" class="st0 st1 st2">10</text>
<text transform="matrix(1 0 0 1 429.84 434.21)" class="st0 st1 st2 st3">11</text>
<text transform="matrix(1 0 0 1 357.99 590.88)" class="st0 st1 st2">12</text>
<text transform="matrix(1 0 0 1 505.01 477.51)" class="st0 st1 st2">13</text>
<text transform="matrix(1 0 0 1 809.33 257.6)" class="st0 st1 st2">14</text>
</svg>
