<?xml version="1.0" encoding="utf-8"?>
<!-- Generator: Adobe Illustrator 24.2.3, SVG Export Plug-In . SVG Version: 6.00 Build 0)  -->
<svg version="1.1" id="cota_grand_prix_-_Turns" xmlns="http://www.w3.org/2000/svg" xmlns:xlink="http://www.w3.org/1999/xlink"
	 x="0px" y="0px" viewBox="0 0 1920 1080" style="enable-background:new 0 0 1920 1080;" xml:space="preserve">
<style type="text/css">
	.st0{fill:#FFFFFF;}
	.st1{font-family:'ArialMT';}
	.st2{font-size:36px;}
	.st3{letter-spacing:-2;}
</style>
<text transform="matrix(1 0 0 1 1517.3199 286.33)" class="st0 st1 st2">1</text>
<text transform="matrix(1 0 0 1 1426.3199 391.33)" class="st0 st1 st2">2</text>
<text transform="matrix(1 0 0 1 1224.3199 509)" class="st0 st1 st2">3</text>
<text transform="matrix(1 0 0 1 1120.3199 483)" class="st0 st1 st2">4</text>
<text transform="matrix(1 0 0 1 1065.99 568)" class="st0 st1 st2">5</text>
<text transform="matrix(1 0 0 1 923.66 571)" class="st0 st1 st2">6</text>
<text transform="matrix(1 0 0 1 773.32 541.67)" class="st0 st1 st2">7</text>
<text transform="matrix(1 0 0 1 662.32 486)" class="st0 st1 st2">8</text>
<text transform="matrix(1 0 0 1 577.66 479.67)" class="st0 st1 st2">9</text>
<text transform="matrix(1 0 0 1 422.65 441.33)" class="st0 st1 st2">10</text>
<text transform="matrix(1 0 0 1 166.98 538.67)" class="st0 st1 st2 st3">1</text>
<text transform="matrix(1 0 0 1 184.33 538.67)" class="st0 st1 st2">1</text>
<text transform="matrix(1 0 0 1 1094.3101 815.67)" class="st0 st1 st2">12</text>
<text transform="matrix(1 0 0 1 1100.3101 638.33)" class="st0 st1 st2">13</text>
<text transform="matrix(1 0 0 1 1161.3101 729.33)" class="st0 st1 st2">14</text>
<text transform="matrix(1 0 0 1 1233.65 800.33)" class="st0 st1 st2">15</text>
<text transform="matrix(1 0 0 1 1288.64 871)" class="st0 st1 st2">16</text>
<text transform="matrix(1 0 0 1 1323.98 645.67)" class="st0 st1 st2">17</text>
<text transform="matrix(1 0 0 1 1423.65 657)" class="st0 st1 st2">18</text>
<text transform="matrix(1 0 0 1 1563.98 842)" class="st0 st1 st2">19</text>
<text transform="matrix(1 0 0 1 1830.3101 930.33)" class="st0 st1 st2">20</text>
</svg>
