<?xml version="1.0" encoding="utf-8"?>
<!-- Generator: Adobe Illustrator 24.2.3, SVG Export Plug-In . SVG Version: 6.00 Build 0)  -->
<svg version="1.1" id="cota_west_-_Turns" xmlns="http://www.w3.org/2000/svg" xmlns:xlink="http://www.w3.org/1999/xlink" x="0px"
	 y="0px" viewBox="0 0 1920 1080" style="enable-background:new 0 0 1920 1080;" xml:space="preserve">
<style type="text/css">
	.st0{fill:#FFFFFF;}
	.st1{font-family:'ArialMT';}
	.st2{font-size:36px;}
	.st3{letter-spacing:-2;}
</style>
<text transform="matrix(1 0 0 1 1517.3199 286.33)" class="st0 st1 st2">1</text>
<text transform="matrix(1 0 0 1 1426.3199 391.33)" class="st0 st1 st2">2</text>
<text transform="matrix(1 0 0 1 1224.3199 509)" class="st0 st1 st2">3</text>
<text transform="matrix(1 0 0 1 1120.3199 483)" class="st0 st1 st2">4</text>
<text transform="matrix(1 0 0 1 1065.99 568)" class="st0 st1 st2">5</text>
<text transform="matrix(1 0 0 1 941.32 643)" class="st0 st1 st2">6</text>
<text transform="matrix(1 0 0 1 931.66 693)" class="st0 st1 st2">7</text>
<text transform="matrix(1 0 0 1 870.32 739)" class="st0 st1 st2">8</text>
<text transform="matrix(1 0 0 1 936.88 753)" class="st0 st1 st2">9</text>
<text transform="matrix(1 0 0 1 1096.87 819)" class="st0 st1 st2">10</text>
<text transform="matrix(1 0 0 1 1112.76 635.33)" class="st0 st1 st2 st3">1</text>
<text transform="matrix(1 0 0 1 1130.11 635.33)" class="st0 st1 st2">1</text>
<text transform="matrix(1 0 0 1 1161.87 726.78)" class="st0 st1 st2">12</text>
<text transform="matrix(1 0 0 1 1232.65 791.22)" class="st0 st1 st2">13</text>
<text transform="matrix(1 0 0 1 1334.2 633.89)" class="st0 st1 st2">14</text>
<text transform="matrix(1 0 0 1 1443.42 670.56)" class="st0 st1 st2">15</text>
<text transform="matrix(1 0 0 1 1560.64 845.11)" class="st0 st1 st2">16</text>
<text transform="matrix(1 0 0 1 1839.53 913.33)" class="st0 st1 st2">17</text>
</svg>
