<?xml version="1.0" encoding="utf-8"?>
<!-- Generator: Adobe Illustrator 24.0.1, SVG Export Plug-In . SVG Version: 6.00 Build 0)  -->
<svg version="1.1" id="Donnington_National__Turns" xmlns="http://www.w3.org/2000/svg" xmlns:xlink="http://www.w3.org/1999/xlink"
	 x="0px" y="0px" viewBox="0 0 1920 1080" style="enable-background:new 0 0 1920 1080;" xml:space="preserve">
<style type="text/css">
	.st0{fill:#FFFFFF;}
	.st1{font-family:'ArialMT';}
	.st2{font-size:36px;}
</style>
<title>turns</title>
<text transform="matrix(1 0 0 1 1762.72 621.85)" class="st0 st1 st2">1</text>
<text transform="matrix(1 0 0 1 1569.25 826.85)" class="st0 st1 st2">2</text>
<text transform="matrix(1 0 0 1 1319.4301 903.56)" class="st0 st1 st2">3</text>
<text transform="matrix(1 0 0 1 1052.54 933.11)" class="st0 st1 st2">4</text>
<text transform="matrix(1 0 0 1 804.72 838.19)" class="st0 st1 st2">5</text>
<text transform="matrix(1 0 0 1 518.92 833.07)" class="st0 st1 st2">6</text>
<text transform="matrix(1 0 0 1 350.77 840.56)" class="st0 st1 st2">7</text>
<text transform="matrix(1 0 0 1 159.17 489.19)" class="st0 st1 st2">8</text>
<text transform="matrix(1 0 0 1 915.14 377.85)" class="st0 st1 st2">9</text>
<text transform="matrix(1 0 0 1 995.09 442.67)" class="st0 st1 st2">10</text>
<text transform="matrix(1 0 0 1 135.03 534.04)" class="st0 st1 st2">Coppice</text>
<text transform="matrix(1 0 0 1 1636.35 659.37)" class="st0 st1 st2">Redgate</text>
<text transform="matrix(1 0 0 1 1219.37 944.7)" class="st0 st1 st2">Craner Curves</text>
<text transform="matrix(1 0 0 1 992.71 888.37)" class="st0 st1 st2">Old Hairpin</text>
<text transform="matrix(1 0 0 1 737.38 877.7)" class="st0 st1 st2">Starkey’s</text>
<text transform="matrix(1 0 0 1 759.71 923.04)" class="st0 st1 st2">Bridge</text>
<text transform="matrix(1 0 0 1 302.7 795.7)" class="st0 st1 st2">McLean’s</text>
</svg>
