<?xml version="1.0" encoding="utf-8"?>
<!-- Generator: Adobe Illustrator 24.0.1, SVG Export Plug-In . SVG Version: 6.00 Build 0)  -->
<svg version="1.1" id="Grand_Prix_-_Turns" xmlns="http://www.w3.org/2000/svg" xmlns:xlink="http://www.w3.org/1999/xlink" x="0px"
	 y="0px" viewBox="0 0 1920 1080" style="enable-background:new 0 0 1920 1080;" xml:space="preserve">
<style type="text/css">
	.st0{fill:#FFFFFF;}
	.st1{font-family:'ArialMT';}
	.st2{font-size:36px;}
	.st3{font-size:28px;}
</style>
<title>turns</title>
<text transform="matrix(1 0 0 1 708.26 936.04)" class="st0 st1 st2">1</text>
<text transform="matrix(1 0 0 1 650.99 966.33)" class="st0 st1 st2">2</text>
<text transform="matrix(1 0 0 1 353.21 900.22)" class="st0 st1 st2">3</text>
<text transform="matrix(1 0 0 1 158.09 505.62)" class="st0 st1 st2">4</text>
<text transform="matrix(1 0 0 1 173.26 435.6)" class="st0 st1 st2">5</text>
<text transform="matrix(1 0 0 1 106.43 240.78)" class="st0 st1 st2">6</text>
<text transform="matrix(1 0 0 1 271.32 206.22)" class="st0 st1 st2">7</text>
<text transform="matrix(1 0 0 1 816.43 690.11)" class="st0 st1 st2">8</text>
<text transform="matrix(1 0 0 1 875.99 754.89)" class="st0 st1 st2">9</text>
<text transform="matrix(1 0 0 1 940.65 725)" class="st0 st1 st2">10</text>
<text transform="matrix(1 0 0 1 1619.98 834.89)" class="st0 st1 st2">11</text>
<text transform="matrix(1 0 0 1 15 162.33)" class="st0 st1 st3">di Lesmo</text>
<text transform="matrix(1 0 0 1 15 126.99)" class="st0 st1 st3">1ยบ Curva</text>
<text transform="matrix(1 0 0 1 266 118.61)" class="st0 st1 st3">di Lesmo</text>
<text transform="matrix(1 0 0 1 266 84.27)" class="st0 st1 st3">2ยบ Curva</text>
<text transform="matrix(1 0 0 1 518.33 357.94)" class="st0 st1 st3">Curva del</text>
<text transform="matrix(1 0 0 1 518.33 392.2804)" class="st0 st1 st3">Serraglio</text>
<text transform="matrix(1 0 0 1 33.88 529.94)" class="st0 st1 st3">Seconda</text>
<text transform="matrix(1 0 0 1 38.93 564.2798)" class="st0 st1 st3">Variante</text>
<text transform="matrix(1 0 0 1 190.67 948.1301)" class="st0 st1 st3">Biassono</text>
<text transform="matrix(1 0 0 1 190.67 913.79)" class="st0 st1 st3">Curva</text>
<text transform="matrix(1 0 0 1 854.38 637.46)" class="st0 st1 st3">Variante</text>
<text transform="matrix(1 0 0 1 853.82 671.8001)" class="st0 st1 st3">Ascari</text>
<text transform="matrix(1 0 0 1 649.8199 1036.4302)" class="st0 st1 st3">Variante</text>
<text transform="matrix(1 0 0 1 652.22 1002.09)" class="st0 st1 st3">Prima</text>
<text transform="matrix(1 0 0 1 1676.04 747.9101)" class="st0 st1 st3">Parabolica</text>
<text transform="matrix(1 0 0 1 1676.04 713.57)" class="st0 st1 st3">Curva</text>
</svg>
