<?xml version="1.0" encoding="utf-8"?>
<!-- Generator: Adobe Illustrator 24.0.1, SVG Export Plug-In . SVG Version: 6.00 Build 0)  -->
<svg version="1.1" id="Combined_-_Turns" xmlns="http://www.w3.org/2000/svg" xmlns:xlink="http://www.w3.org/1999/xlink" x="0px"
	 y="0px" viewBox="0 0 1920 1080" style="enable-background:new 0 0 1920 1080;" xml:space="preserve">
<style type="text/css">
	.st0{fill:#FFFFFF;}
	.st1{font-family:'ArialMT';}
	.st2{font-size:36px;}
	.st3{font-size:28px;}
</style>
<title>turns</title>
<text transform="matrix(1 0 0 1 591.93 714.04)" class="st0 st1 st2">1</text>
<text transform="matrix(1 0 0 1 1792.62 705.27)" class="st0 st1 st2">2</text>
<text transform="matrix(1 0 0 1 702.88 983.22)" class="st0 st1 st2">3</text>
<text transform="matrix(1 0 0 1 616.76 916.28)" class="st0 st1 st2">4</text>
<text transform="matrix(1 0 0 1 359.93 916.93)" class="st0 st1 st2">5</text>
<text transform="matrix(1 0 0 1 157.1 508.78)" class="st0 st1 st2">6</text>
<text transform="matrix(1 0 0 1 175.32 439.56)" class="st0 st1 st2">7</text>
<text transform="matrix(1 0 0 1 104.2 233.95)" class="st0 st1 st2">8</text>
<text transform="matrix(1 0 0 1 273.31 198.84)" class="st0 st1 st2">9</text>
<text transform="matrix(1 0 0 1 802.86 688.73)" class="st0 st1 st2">10</text>
<text transform="matrix(1 0 0 1 856.08 755.4)" class="st0 st1 st2">11</text>
<text transform="matrix(1 0 0 1 941.52 731.4)" class="st0 st1 st2">12</text>
<text transform="matrix(1 0 0 1 1626.3 840.73)" class="st0 st1 st2">13</text>
<text transform="matrix(1 0 0 1 15 162.33)" class="st0 st1 st3">di Lesmo</text>
<text transform="matrix(1 0 0 1 15 126.99)" class="st0 st1 st3">1ยบ Curva</text>
<text transform="matrix(1 0 0 1 266 118.61)" class="st0 st1 st3">di Lesmo</text>
<text transform="matrix(1 0 0 1 266 84.27)" class="st0 st1 st3">2ยบ Curva</text>
<text transform="matrix(1 0 0 1 518.33 357.94)" class="st0 st1 st3">Curva del</text>
<text transform="matrix(1 0 0 1 518.33 392.2804)" class="st0 st1 st3">Serraglio</text>
<text transform="matrix(1 0 0 1 33.88 529.94)" class="st0 st1 st3">Seconda</text>
<text transform="matrix(1 0 0 1 38.93 564.2798)" class="st0 st1 st3">Variante</text>
<text transform="matrix(1 0 0 1 190.67 948.1301)" class="st0 st1 st3">Biassono</text>
<text transform="matrix(1 0 0 1 190.67 913.79)" class="st0 st1 st3">Curva</text>
<text transform="matrix(1 0 0 1 854.38 637.46)" class="st0 st1 st3">Variante</text>
<text transform="matrix(1 0 0 1 853.82 671.8001)" class="st0 st1 st3">Ascari</text>
<text transform="matrix(1 0 0 1 649.8199 1036.4302)" class="st0 st1 st3">Variante</text>
<text transform="matrix(1 0 0 1 652.22 1002.09)" class="st0 st1 st3">Prima</text>
<text transform="matrix(1 0 0 1 1676.04 747.9101)" class="st0 st1 st3">Parabolica</text>
<text transform="matrix(1 0 0 1 1676.04 713.57)" class="st0 st1 st3">Curva</text>
</svg>
