<svg id="Industriefahrten_Turns" data-name="Industriefahrten Turns" xmlns="http://www.w3.org/2000/svg" viewBox="0 0 1920 1080"><defs><style>.cls-1{font-size:23.98px;fill:#fff;font-family:ArialMT, Arial;}.cls-2{letter-spacing:-0.04em;}.cls-3{letter-spacing:-0.02em;}.cls-4{letter-spacing:-0.06em;}</style></defs><text class="cls-1" transform="translate(1100.46 890.28)">Einfahrt Nordschleife</text><text class="cls-1" transform="translate(520.93 726.83)">Kottenborn</text><text class="cls-1" transform="translate(696.32 256.5)">Metzgesfeld</text><text class="cls-1" transform="translate(870.33 145.5)">Breidscheid</text><text class="cls-1" transform="translate(915.6 90.93)">Extal</text><text class="cls-1" transform="translate(1065.09 36.22)">Bergwerk</text><text class="cls-1" transform="translate(954.16 967.67)"><tspan class="cls-2">T</tspan><tspan x="13.76" y="0">iergarten</tspan></text><text class="cls-1" transform="translate(761.78 941.57)">Nordkehre</text><text class="cls-1" transform="translate(921.93 1012.95)">Hohenrain</text><text class="cls-1" transform="translate(840.97 993.05)">T13</text><text class="cls-1" transform="translate(529.69 1018.29)">Hatzenbach</text><text class="cls-1" transform="translate(311.56 901.99)">Quiddelbacher Höhe</text><text class="cls-1" transform="translate(399.67 457.95)">Fuchsröhre</text><text class="cls-1" transform="translate(571.6 446.67)">Kompression</text><text class="cls-1" transform="translate(408.94 359.22)">Adenauer Forst</text><text class="cls-1" transform="translate(511.88 200.08)">Kallenhard</text><text class="cls-1" transform="translate(504.41 138.12)">Spiegelkurve</text><text class="cls-1" transform="translate(800.17 57.28)">Exmühle</text><text class="cls-1" transform="translate(1692.53 315.91)">Brünnchen</text><text class="cls-1" transform="translate(1289.92 744.63)">Döttinger Höhe</text><text class="cls-1" transform="translate(1624.25 363.93)">Eiskurve</text><text class="cls-1" transform="translate(1539.85 502.18)">großer Sprunghügel</text><text class="cls-1" transform="translate(1376.88 704.07)">Galgenkopf</text><text class="cls-1" transform="translate(613.54 74.32)">Dreifach-Rechts</text><text class="cls-1" transform="translate(706.69 154.56)"><tspan class="cls-3">W</tspan><tspan x="22.2" y="0">ehrseifen</tspan></text><text class="cls-1" transform="translate(1098.71 164.06)">Kesselchen</text><text class="cls-1" transform="translate(1243.31 254.49)">Mutkurve</text><text class="cls-1" transform="translate(1434.32 240.67)">Posten 147</text><text class="cls-1" transform="translate(386.35 794.03)">Flugplatz</text><text class="cls-1" transform="translate(280.16 597.8)">Schwedenkreuz</text><text class="cls-1" transform="translate(298.28 542.06)">Aremberg</text><text class="cls-1" transform="translate(866.94 836.18)">Antoniusbuche</text><text class="cls-1" transform="translate(474.26 529.79)">Postbrücke</text><text class="cls-1" transform="translate(1227.74 185.59)">Klostertal</text><text class="cls-1" transform="translate(1314.71 138.12)">Steilstrecke</text><text class="cls-1" transform="translate(1327.44 502.47)">Stefan-Bellof-S</text><text class="cls-1" transform="translate(1419.82 97.53)">Hohe<tspan class="cls-4" x="57.32" y="0"> </tspan><tspan x="62.66" y="0">Acht</tspan></text><text class="cls-1" transform="translate(1553.64 127.78)">Hedwigshöhe</text><text class="cls-1" transform="translate(1656.01 192.44)">Wippermann</text><text class="cls-1" transform="translate(1661.02 260.54)">Eschbach</text><text class="cls-1" transform="translate(1356.92 272.34)">Caracciola-</text><text class="cls-1" transform="translate(1447.44 381.51)">Pflanzgarten</text><text class="cls-1" transform="translate(1125.68 538.79)">Schwalbenschwanz</text><text class="cls-1" transform="translate(1125.77 574.75)">Kleines Karussell</text><text class="cls-1" transform="translate(857.28 28.81)">Lauda Links</text><text class="cls-1" transform="translate(469.72 962.1)">Hocheichen</text><text class="cls-1" transform="translate(1367.56 295.34)">Karussell</text><text class="cls-1" transform="translate(1100.46 860.28)">Nordschleife Entrance</text></svg>