<?xml version="1.0" encoding="utf-8"?>
<!-- Generator: Adobe Illustrator 26.3.1, SVG Export Plug-In . SVG Version: 6.00 Build 0)  -->
<svg version="1.1" id="GP_w__out_arena_Turns" xmlns="http://www.w3.org/2000/svg" xmlns:xlink="http://www.w3.org/1999/xlink"
	 x="0px" y="0px" viewBox="0 0 1920 1080" style="enable-background:new 0 0 1920 1080;" xml:space="preserve">
<style type="text/css">
	.st0{fill:#FFFFFF;}
	.st1{font-family:'ArialMT';}
	.st2{font-size:23.9771px;}
</style>
<text transform="matrix(1 0 0 1 912.8385 488.1496)" class="st0 st1 st2">1</text>
<text transform="matrix(1 0 0 1 933.9374 347.7509)" class="st0 st1 st2">2</text>
<text transform="matrix(1 0 0 1 788.2343 393.9694)" class="st0 st1 st2">3</text>
<text transform="matrix(1 0 0 1 872.9675 396.701)" class="st0 st1 st2">4</text>
<text transform="matrix(1 0 0 1 858.4173 532.2107)" class="st0 st1 st2">5</text>
<text transform="matrix(1 0 0 1 825.5756 678.9346)" class="st0 st1 st2">6</text>
<text transform="matrix(1 0 0 1 848.595 737.0115)" class="st0 st1 st2">7</text>
<text transform="matrix(1 0 0 1 606.2789 964.6866)" class="st0 st1 st2">8</text>
<text transform="matrix(1 0 0 1 724.9603 778.361)" class="st0 st1 st2">9</text>
<text transform="matrix(1 0 0 1 709.4703 694.6)" class="st0 st1 st2">10</text>
<text transform="matrix(1 0 0 1 784.7335 486.502)" class="st0 st1 st2">11</text>
<text transform="matrix(1 0 0 1 682.8292 412.0296)" class="st0 st1 st2">12</text>
<text transform="matrix(1 0 0 1 875.7978 234.0158)" class="st0 st1 st2">13</text>
<text transform="matrix(1 0 0 1 1109.1384 179.4539)" class="st0 st1 st2">14</text>
<text transform="matrix(1 0 0 1 1111.1732 120.2211)" class="st0 st1 st2">15</text>
<text transform="matrix(1 0 0 1 1270.4318 95.9393)" class="st0 st1 st2">16</text>
<g>
	<text transform="matrix(1 0 0 1 928.9578 515.259)" class="st0 st1 st2">YOKOHAMA-Kurve</text>
</g>
<g>
	<text transform="matrix(1 0 0 1 1260.761 280.11)" class="st0 st1 st2">Start / Ziel</text>
</g>
<g>
	<text transform="matrix(1 0 0 1 859.8922 316.7183)" class="st0 st1 st2">AMG Arena</text>
</g>
<g>
	<text transform="matrix(1 0 0 1 697.8862 203.6858)" class="st0 st1 st2">ADVAN-Bogen</text>
</g>
<g>
	<text transform="matrix(1 0 0 1 639.7629 984.5334)" class="st0 st1 st2">Goodyear-Kehre</text>
</g>
<g>
	<text transform="matrix(1 0 0 1 472.747 745.3762)" class="st0 st1 st2">Michael-Schumacher-S</text>
</g>
<g>
	<text transform="matrix(1 0 0 1 526.7547 376.6209)" class="st0 st1 st2">BILSTEIN-Kurve</text>
</g>
<g>
	<text transform="matrix(1 0 0 1 588.2633 486.5017)" class="st0 st1 st2">RAVENOL-Kurve</text>
</g>
<g>
	<text transform="matrix(1 0 0 1 948.9551 91.7572)" class="st0 st1 st2">Veedol-Schikane</text>
</g>
<g>
	<text transform="matrix(1 0 0 1 1300.3788 120.2208)" class="st0 st1 st2">Hyundai N Kurve</text>
</g>
</svg>
