<?xml version="1.0" encoding="utf-8"?>
<!-- Generator: Adobe Illustrator 26.3.1, SVG Export Plug-In . SVG Version: 6.00 Build 0)  -->
<svg version="1.1" id="Sprintstrecke_Turns" xmlns="http://www.w3.org/2000/svg" xmlns:xlink="http://www.w3.org/1999/xlink"
	 x="0px" y="0px" viewBox="0 0 1920 1080" style="enable-background:new 0 0 1920 1080;" xml:space="preserve">
<style type="text/css">
	.st0{fill:#FFFFFF;}
	.st1{font-family:'ArialMT';}
	.st2{font-size:23.9771px;}
</style>
<text transform="matrix(1 0 0 1 912.8385 488.1496)" class="st0 st1 st2">1</text>
<text transform="matrix(1 0 0 1 933.9374 347.7509)" class="st0 st1 st2">2</text>
<text transform="matrix(1 0 0 1 788.2343 393.9694)" class="st0 st1 st2">3</text>
<text transform="matrix(1 0 0 1 874.3076 403.4412)" class="st0 st1 st2">4</text>
<text transform="matrix(1 0 0 1 780.8095 639.3091)" class="st0 st1 st2">5</text>
<text transform="matrix(1 0 0 1 791.4014 486.502)" class="st0 st1 st2">6</text>
<text transform="matrix(1 0 0 1 689.4971 412.0296)" class="st0 st1 st2">7</text>
<text transform="matrix(1 0 0 1 882.4658 234.0158)" class="st0 st1 st2">8</text>
<text transform="matrix(1 0 0 1 1115.8064 179.4539)" class="st0 st1 st2">9</text>
<text transform="matrix(1 0 0 1 1100.7773 120.2208)" class="st0 st1 st2">10</text>
<text transform="matrix(1 0 0 1 1270.4318 95.9393)" class="st0 st1 st2">11</text>
<g>
	<text transform="matrix(1 0 0 1 878.8896 515.259)" class="st0 st1 st2">YOKOHAMA-Kurve</text>
</g>
<g>
	<text transform="matrix(1 0 0 1 1260.761 280.11)" class="st0 st1 st2">Start / Ziel</text>
</g>
<g>
	<text transform="matrix(1 0 0 1 859.8922 316.7183)" class="st0 st1 st2">AMG Arena</text>
</g>
<g>
	<text transform="matrix(1 0 0 1 697.8862 203.6858)" class="st0 st1 st2">ADVAN-Bogen</text>
</g>
<g>
	<text transform="matrix(1 0 0 1 526.7547 376.6209)" class="st0 st1 st2">BILSTEIN-Kurve</text>
</g>
<g>
	<text transform="matrix(1 0 0 1 588.2633 486.5017)" class="st0 st1 st2">RAVENOL-Kurve</text>
</g>
<g>
	<text transform="matrix(1 0 0 1 948.9551 91.7572)" class="st0 st1 st2">Veedol-Schikane</text>
</g>
<g>
	<text transform="matrix(1 0 0 1 1300.3788 120.2208)" class="st0 st1 st2">Hyundai N Kurve</text>
</g>
</svg>
