<svg id="Turn_Names" data-name="Turn Names" xmlns="http://www.w3.org/2000/svg" viewBox="0 0 1920 1080"><defs><style>.cls-1,.cls-3{font-size:18.54px;fill:#fff;font-family:ArialMT, Arial;}.cls-2{letter-spacing:-0.04em;}.cls-3{letter-spacing:-0.02em;}.cls-4{letter-spacing:0em;}.cls-5{letter-spacing:-0.06em;}</style></defs><text class="cls-1" transform="translate(1000.84 696.11)">Einfahrt Nordschleife</text><text class="cls-1" transform="translate(552.63 569.71)">Kottenborn</text><text class="cls-1" transform="translate(688.28 205.95)">Metzgesfeld</text><text class="cls-1" transform="translate(822.85 120.1)">Breidscheid</text><text class="cls-1" transform="translate(857.87 77.89)">Extal</text><text class="cls-1" transform="translate(973.49 35.58)">Bergwerk</text><text class="cls-1" transform="translate(887.69 755.97)"><tspan class="cls-2">T</tspan><tspan x="10.64" y="0">iergarten</tspan></text><text class="cls-1" transform="translate(738.9 735.78)">Nordkehre</text><text class="cls-1" transform="translate(862.77 790.99)">Hohenrain</text><text class="cls-1" transform="translate(800.15 775.6)">T13</text><text class="cls-1" transform="translate(539.4 795.12)">Hatzenbach</text><text class="cls-1" transform="translate(370.7 705.17)">Quiddelbacher Höhe</text><text class="cls-1" transform="translate(448.84 361.75)">Fuchsröhre</text><text class="cls-1" transform="translate(591.82 353.02)">Kompression</text><text class="cls-1" transform="translate(466.01 285.39)">Adenauer Forst</text><text class="cls-1" transform="translate(545.63 162.31)">Kallenhard</text><text class="cls-1" transform="translate(539.85 114.39)">Spiegelkurve</text><text class="cls-1" transform="translate(768.6 51.86)">Exmühle</text><text class="cls-1" transform="translate(1458.75 251.9)">Brünnchen</text><text class="cls-1" transform="translate(1147.37 583.47)">Döttinger Höhe</text><text class="cls-1" transform="translate(1405.95 289.03)">Eiskurve</text><text class="cls-1" transform="translate(1340.67 395.95)">großer Sprunghügel</text><text class="cls-1" transform="translate(1214.63 552.1)">Galgenkopf</text><text class="cls-1" transform="translate(624.25 65.04)">Dreifach-Rechts</text><text class="cls-3" transform="translate(696.3 127.1)">W<tspan class="cls-4" x="17.17" y="0">ehrseifen</tspan></text><text class="cls-1" transform="translate(999.48 134.45)">Kesselchen</text><text class="cls-1" transform="translate(1111.33 204.39)">Mutkurve</text><text class="cls-1" transform="translate(1266.05 193.7)">Posten 147</text><text class="cls-1" transform="translate(438.54 621.67)">Flugplatz</text><text class="cls-1" transform="translate(346.41 469.91)">Schwedenkreuz</text><text class="cls-1" transform="translate(360.43 426.8)">Aremberg</text><text class="cls-1" transform="translate(820.24 654.27)">Antoniusbuche</text><text class="cls-1" transform="translate(526.53 417.31)">Postbrücke</text><text class="cls-1" transform="translate(1099.28 151.1)">Klostertal</text><text class="cls-1" transform="translate(1175.54 127.39)">Steilstrecke</text><text class="cls-1" transform="translate(1176.39 396.18)">Stefan-Bellof-S</text><text class="cls-1" transform="translate(1247.84 89.99)">Hohe<tspan class="cls-5" x="44.33" y="0"> </tspan><tspan x="48.46" y="0">Acht</tspan></text><text class="cls-1" transform="translate(1351.33 106.39)">Hedwigshöhe</text><text class="cls-1" transform="translate(1430.51 156.4)">Wippermann</text><text class="cls-1" transform="translate(1434.38 209.07)">Eschbach</text><text class="cls-1" transform="translate(1199.19 222.19)">Caracciola-</text><text class="cls-1" transform="translate(1269.2 302.62)">Pflanzgarten</text><text class="cls-1" transform="translate(1011.34 424.27)">Schwalbenschwanz</text><text class="cls-1" transform="translate(1011.42 452.08)">Kleines Karussell</text><text class="cls-1" transform="translate(812.76 29.84)">Lauda Links</text><text class="cls-1" transform="translate(493.02 751.66)">Hocheichen</text><text class="cls-1" transform="translate(1207.42 239.98)">Karussell</text><text class="cls-1" transform="translate(1000.84 672.91)">Nordschleife Entrance</text><text class="cls-1" transform="translate(835.52 866.5)">Start / Ziel</text><text class="cls-1" transform="translate(712.54 931.55)">YOKOHAMA-S</text><text class="cls-1" transform="translate(490.64 891.33)">BILSTEIN-Kurve</text></svg>