<?xml version="1.0" encoding="utf-8"?>
<!-- Generator: Adobe Illustrator 25.0.0, SVG Export Plug-In . SVG Version: 6.00 Build 0)  -->
<svg version="1.1" id="Imola_Moto_-_Turns" xmlns="http://www.w3.org/2000/svg" xmlns:xlink="http://www.w3.org/1999/xlink" x="0px"
	 y="0px" viewBox="0 0 1920 1080" style="enable-background:new 0 0 1920 1080;" xml:space="preserve">
<style type="text/css">
	.st0{fill:#FFFFFF;}
	.st1{font-family:'ArialMT';}
	.st2{font-size:36px;}
	.st3{letter-spacing:-1;}
	.st4{font-size:32px;}
</style>
<text transform="matrix(1 0 0 1 975.48 915.2598)" class="st0 st1 st2">1</text>
<text transform="matrix(1 0 0 1 1281.0698 908.6104)" class="st0 st1 st2">2</text>
<text transform="matrix(1 0 0 1 1352.98 919.6797)" class="st0 st1 st2">3</text>
<text transform="matrix(1 0 0 1 1419.4199 815.4502)" class="st0 st1 st2">4</text>
<text transform="matrix(1 0 0 1 1591.3701 494.2598)" class="st0 st1 st2">5</text>
<text transform="matrix(1 0 0 1 1662.29 435.9404)" class="st0 st1 st2">6</text>
<text transform="matrix(1 0 0 1 1789.4302 267.1299)" class="st0 st1 st2">7</text>
<text transform="matrix(1 0 0 1 1290.4199 225)" class="st0 st1 st2">8</text>
<text transform="matrix(1 0 0 1 1181.6001 509.71)" class="st0 st1 st2">9</text>
<text transform="matrix(1 0 0 1 1128.6099 556.5)" class="st0 st1 st2">10</text>
<text transform="matrix(1 0 0 1 722.0801 499.1299)" class="st0 st1 st2 st3">11</text>
<text transform="matrix(1 0 0 1 649.0801 548.4502)" class="st0 st1 st2">12</text>
<text transform="matrix(1 0 0 1 210.8599 699.7803)" class="st0 st1 st2">13</text>
<text transform="matrix(1 0 0 1 115.1401 811.5996)" class="st0 st1 st2">14</text>
<text transform="matrix(1 0 0 1 131.0601 865.5)" class="st0 st1 st2">15</text>
<text transform="matrix(1 0 0 1 422.1899 804.3496)" class="st0 st1 st2">16</text>
<text transform="matrix(1 0 0 1 559.1899 820.3301)" class="st0 st1 st2">17</text>
<text transform="matrix(1 0 0 1 617.2998 876)" class="st0 st1 st2">18</text>
<text transform="matrix(1 0 0 1 177.3101 819.8896)" class="st0 st1 st4">Rivazza</text>
<text transform="matrix(1 0 0 1 688.3101 445.2197)" class="st0 st1 st4">Variante Alta</text>
<text transform="matrix(1 0 0 1 1046.8501 459.6699)" class="st0 st1 st4">Acque</text>
<text transform="matrix(1 0 0 1 1053.0898 507.3301)" class="st0 st1 st4">Minerali</text>
<text transform="matrix(1 0 0 1 1283.6299 272.5596)" class="st0 st1 st4">Piratella</text>
<text transform="matrix(1 0 0 1 1694.8599 274.7803)" class="st0 st1 st4">Tosa</text>
<text transform="matrix(1 0 0 1 1692.3301 470.4502)" class="st0 st1 st4">Villeneuve</text>
<text transform="matrix(1 0 0 1 1419.6299 902.4502)" class="st0 st1 st4">Tamburello</text>
<text transform="matrix(1 0 0 1 513.8501 905.7803)" class="st0 st1 st4">Variante Bassa</text>
</svg>
