<?xml version="1.0" encoding="utf-8"?>
<!-- Generator: Adobe Illustrator 24.0.1, SVG Export Plug-In . SVG Version: 6.00 Build 0)  -->
<svg version="1.1" id="_24_Heures_du_Mans_-_Turns" xmlns="http://www.w3.org/2000/svg" xmlns:xlink="http://www.w3.org/1999/xlink"
	 x="0px" y="0px" viewBox="0 0 1920 1080" style="enable-background:new 0 0 1920 1080;" xml:space="preserve">
<style type="text/css">
	.st0{fill:#FFFFFF;}
	.st1{font-family:'ArialMT';}
	.st2{font-size:24px;}
</style>
<title>turns</title>
<text transform="matrix(1 0 0 1 292.19 889.26)" class="st0 st1 st2">1</text>
<text transform="matrix(1 0 0 1 234.67 876.83)" class="st0 st1 st2">2</text>
<text transform="matrix(1 0 0 1 229.87 828.13)" class="st0 st1 st2">3</text>
<text transform="matrix(1 0 0 1 177.13 823.17)" class="st0 st1 st2">4</text>
<text transform="matrix(1 0 0 1 169.15 757.3)" class="st0 st1 st2">5</text>
<text transform="matrix(1 0 0 1 125.41 709.68)" class="st0 st1 st2">6</text>
<text transform="matrix(1 0 0 1 115.87 664.35)" class="st0 st1 st2">7</text>
<text transform="matrix(1 0 0 1 80.24 593.17)" class="st0 st1 st2">8</text>
<text transform="matrix(1 0 0 1 120.46 539.95)" class="st0 st1 st2">9</text>
<text transform="matrix(1 0 0 1 227.26 474.64)" class="st0 st1 st2">10</text>
<text transform="matrix(1 0 0 1 699.18 311.68)" class="st0 st1 st2">11</text>
<text transform="matrix(1 0 0 1 1311.76 156.35)" class="st0 st1 st2">12</text>
<text transform="matrix(1 0 0 1 1429.5699 140.4)" class="st0 st1 st2">13</text>
<text transform="matrix(1 0 0 1 1769.42 132.91)" class="st0 st1 st2">14</text>
<text transform="matrix(1 0 0 1 1804.6801 140.73)" class="st0 st1 st2">15</text>
<text transform="matrix(1 0 0 1 1734.98 343.57)" class="st0 st1 st2">16</text>
<text transform="matrix(1 0 0 1 1653.5699 499.84)" class="st0 st1 st2">17</text>
<text transform="matrix(1 0 0 1 1527.42 652.91)" class="st0 st1 st2">18</text>
<text transform="matrix(1 0 0 1 1512.01 706.84)" class="st0 st1 st2">19</text>
<text transform="matrix(1 0 0 1 1483.2 778.24)" class="st0 st1 st2">20</text>
<text transform="matrix(1 0 0 1 1338.01 852.73)" class="st0 st1 st2">21</text>
<text transform="matrix(1 0 0 1 1202.53 913.35)" class="st0 st1 st2">22</text>
<text transform="matrix(1 0 0 1 1097.35 916.73)" class="st0 st1 st2">23</text>
<text transform="matrix(1 0 0 1 1022.53 913.46)" class="st0 st1 st2">24</text>
<text transform="matrix(1 0 0 1 975.12 913.62)" class="st0 st1 st2">25</text>
<text transform="matrix(1 0 0 1 903.35 909.17)" class="st0 st1 st2">26</text>
<text transform="matrix(1 0 0 1 829.2 911.46)" class="st0 st1 st2">27</text>
<text transform="matrix(1 0 0 1 771.01 872.17)" class="st0 st1 st2">28</text>
<text transform="matrix(1 0 0 1 725.98 910.46)" class="st0 st1 st2">29</text>
<text transform="matrix(1 0 0 1 600.35 937.62)" class="st0 st1 st2">30</text>
<text transform="matrix(1 0 0 1 556.35 916.62)" class="st0 st1 st2">31</text>
<text transform="matrix(1 0 0 1 555.76 961.24)" class="st0 st1 st2">32</text>
<text transform="matrix(1 0 0 1 516.35 927.06)" class="st0 st1 st2">33</text>
<text transform="matrix(1 0 0 1 101.65 602.95)" class="st0 st1 st2">Tertre Rouge</text>
<text transform="matrix(1 0 0 1 68.79 730.62)" class="st0 st1 st2">Esses</text>
<text transform="matrix(1 0 0 1 87.3 901.28)" class="st0 st1 st2">Dunlop Chicane</text>
<text transform="matrix(1 0 0 1 195.32 948.95)" class="st0 st1 st2">Dunlop Curve</text>
<text transform="matrix(1 0 0 1 515.1 988.4)" class="st0 st1 st2">Ford Chicanes</text>
<text transform="matrix(1 0 0 1 697.44 845.95)" class="st0 st1 st2">Corvette Curves</text>
<text transform="matrix(1 0 0 1 927.66 950.28)" class="st0 st1 st2">Porsche Curves</text>
<text transform="matrix(1 0 0 1 1528.55 811.17)" class="st0 st1 st2">Arnage</text>
<text transform="matrix(1 0 0 1 1544.98 717.51)" class="st0 st1 st2">Indianapolis</text>
<text transform="matrix(1 0 0 1 1793.22 89.62)" class="st0 st1 st2">Mulsanne</text>
<text transform="matrix(1 0 0 1 918.97 286.4)" class="st0 st1 st2">Mulsanne Straight</text>
</svg>
