<?xml version="1.0" encoding="utf-8"?>
<!-- Generator: Adobe Illustrator 24.0.1, SVG Export Plug-In . SVG Version: 6.00 Build 0)  -->
<svg version="1.1" id="Daytona_2008_Moto_-_Turns" xmlns="http://www.w3.org/2000/svg" xmlns:xlink="http://www.w3.org/1999/xlink"
	 x="0px" y="0px" viewBox="0 0 1920 1080" style="enable-background:new 0 0 1920 1080;" xml:space="preserve">
<style type="text/css">
	.st0{fill:#FFFFFF;}
	.st1{font-family:'ArialMT';}
	.st2{font-size:36px;}
	.st3{letter-spacing:-2;}
</style>
<title>turns</title>
<text transform="matrix(1 0 0 1 1423.9301 732.49)" class="st0 st1 st2">1</text>
<text transform="matrix(1 0 0 1 1256.29 630.61)" class="st0 st1 st2">2</text>
<text transform="matrix(1 0 0 1 1186.65 596.13)" class="st0 st1 st2">3</text>
<text transform="matrix(1 0 0 1 928.65 583.84)" class="st0 st1 st2">4</text>
<text transform="matrix(1 0 0 1 1382.9301 571.38)" class="st0 st1 st2">5</text>
<text transform="matrix(1 0 0 1 1459.96 588.27)" class="st0 st1 st2">6</text>
<text transform="matrix(1 0 0 1 1630.65 409.13)" class="st0 st1 st2">7</text>
<text transform="matrix(1 0 0 1 1551.65 356.17)" class="st0 st1 st2">8</text>
<text transform="matrix(1 0 0 1 1498.71 211.15)" class="st0 st1 st2">9</text>
<text transform="matrix(1 0 0 1 828.28 115.61)" class="st0 st1 st2">10</text>
<text transform="matrix(1 0 0 1 580.2 87.24)" class="st0 st1 st2 st3">11</text>
<text transform="matrix(1 0 0 1 96.3 392.28)" class="st0 st1 st2">12</text>
</svg>
