<?xml version="1.0" encoding="utf-8"?>
<!-- Generator: Adobe Illustrator 24.0.1, SVG Export Plug-In . SVG Version: 6.00 Build 0)  -->
<svg version="1.1" id="_300__Turns" xmlns="http://www.w3.org/2000/svg" xmlns:xlink="http://www.w3.org/1999/xlink" x="0px"
	 y="0px" viewBox="0 0 1920 1080" style="enable-background:new 0 0 1920 1080;" xml:space="preserve">
<style type="text/css">
	.st0{fill:#FFFFFF;}
	.st1{font-family:'ArialMT';}
	.st2{font-size:36px;}
	.st3{letter-spacing:-2;}
	.st4{font-size:34px;}
</style>
<title>turns</title>
<text transform="matrix(1 0 0 1 145.39 708.52)" class="st0 st1 st2">1</text>
<text transform="matrix(1 0 0 1 118.58 250.18)" class="st0 st1 st2">2</text>
<text transform="matrix(1 0 0 1 221.43 644.89)" class="st0 st1 st2">3</text>
<text transform="matrix(1 0 0 1 871.88 485.78)" class="st0 st1 st2">4</text>
<text transform="matrix(1 0 0 1 523.39 418.85)" class="st0 st1 st2">5</text>
<text transform="matrix(1 0 0 1 280.92 586.07)" class="st0 st1 st2">6</text>
<text transform="matrix(1 0 0 1 235.1 542.89)" class="st0 st1 st2">7</text>
<text transform="matrix(1 0 0 1 260.5 349.52)" class="st0 st1 st2">8</text>
<text transform="matrix(1 0 0 1 1438.47 394.52)" class="st0 st1 st2">9</text>
<text transform="matrix(1 0 0 1 1554.76 397.56)" class="st0 st1 st2">10</text>
<text transform="matrix(1 0 0 1 1855.98 524.33)" class="st0 st1 st2 st3">11</text>
<text transform="matrix(1 0 0 1 1578.6 898.85)" class="st0 st1 st2">12</text>
<text transform="matrix(1 0 0 1 1322.6 797.52)" class="st0 st1 st2">13</text>
<text transform="matrix(1 0 0 1 129.6 171.04)" class="st0 st1 st4">Montreal</text>
<text transform="matrix(1 0 0 1 244.81 385.04)" class="st0 st1 st4">Williams</text>
<text transform="matrix(0.638 -0.7701 0.7701 0.638 298.34 556.5696)" class="st0 st1 st4">Oggies</text>
<text transform="matrix(1 0 0 1 515 453.7)" class="st0 st1 st4">Hamilton</text>
<text transform="matrix(1 0 0 1 741.15 492.15)" class="st0 st1 st4">Agostini</text>
<text transform="matrix(1 0 0 1 788.17 310.48)" class="st0 st1 st4">Bentley Straight</text>
<text transform="matrix(1 0 0 1 1388.49 478.7)" class="st0 st1 st4">Brundle</text>
<text transform="matrix(1 0 0 1 1565.38 308.04)" class="st0 st1 st4">Nelson</text>
<text transform="matrix(1 0 0 1 1633.87 547.26)" class="st0 st1 st4">Bomb Hole</text>
<text transform="matrix(1 0 0 1 1581.51 855.7)" class="st0 st1 st4">Coram</text>
<text transform="matrix(1 0 0 1 1329.6801 707.81)" class="st0 st1 st4">Murrays</text>
<text transform="matrix(1 0 0 1 236.78 729.26)" class="st0 st1 st4">Palmer</text>
<text transform="matrix(1 0 0 1 21.44 765.81)" class="st0 st1 st4">Riches</text>
</svg>
