<?xml version="1.0" encoding="utf-8"?>
<!-- Generator: Adobe Illustrator 24.0.1, SVG Export Plug-In . SVG Version: 6.00 Build 0)  -->
<svg version="1.1" id="_100__Turns" xmlns="http://www.w3.org/2000/svg" xmlns:xlink="http://www.w3.org/1999/xlink" x="0px"
	 y="0px" viewBox="0 0 1920 1080" style="enable-background:new 0 0 1920 1080;" xml:space="preserve">
<style type="text/css">
	.st0{fill:#FFFFFF;}
	.st1{font-family:'ArialMT';}
	.st2{font-size:36px;}
	.st3{font-size:34px;}
</style>
<title>turns</title>
<text transform="matrix(1 0 0 1 871.88 485.78)" class="st0 st1 st2">1</text>
<text transform="matrix(1 0 0 1 523.39 418.85)" class="st0 st1 st2">2</text>
<text transform="matrix(1 0 0 1 280.92 586.07)" class="st0 st1 st2">3</text>
<text transform="matrix(1 0 0 1 232.77 541.82)" class="st0 st1 st2">4</text>
<text transform="matrix(1 0 0 1 175.77 394.52)" class="st0 st1 st2">5</text>
<text transform="matrix(1 0 0 1 221.43 644.89)" class="st0 st1 st2">6</text>
<text transform="matrix(1 0 0 1 515 453.7)" class="st0 st1 st3">Hamilton</text>
<text transform="matrix(1 0 0 1 741.15 492.15)" class="st0 st1 st3">Agostini</text>
<text transform="matrix(1 0 0 1 204.78 731.04)" class="st0 st1 st3">Palmer</text>
<text transform="matrix(0.638 -0.7701 0.7701 0.638 298.34 556.5696)" class="st0 st1 st3">Oggies</text>
</svg>
