<?xml version="1.0" encoding="utf-8"?>
<!-- Generator: Adobe Illustrator 24.0.1, SVG Export Plug-In . SVG Version: 6.00 Build 0)  -->
<svg version="1.1" id="Rallycross_-_Turns" xmlns="http://www.w3.org/2000/svg" xmlns:xlink="http://www.w3.org/1999/xlink" x="0px"
	 y="0px" viewBox="0 0 1920 1080" style="enable-background:new 0 0 1920 1080;" xml:space="preserve">
<style type="text/css">
	.st0{fill:#FFFFFF;}
	.st1{font-family:'ArialMT';}
	.st2{font-size:36px;}
	.st3{font-size:36.1527px;}
</style>
<title>turns</title>
<text transform="matrix(1 0 0 1 1237.48 283.04)" class="st0 st1 st2">1</text>
<text transform="matrix(1 0 0 1 1469.74 471.53)" class="st0 st1 st2">2</text>
<text transform="matrix(1 0 0 1 1451.87 548.91)" class="st0 st1 st2">3</text>
<text transform="matrix(1 0 0 1 1315.98 581.89)" class="st0 st1 st2">4</text>
<text transform="matrix(1 0 0 1 962.82 520.38)" class="st0 st1 st2">5</text>
<text transform="matrix(1 0 0 1 628.77 522.04)" class="st0 st1 st2">6</text>
<text transform="matrix(1 0 0 1 444.76 631.13)" class="st0 st1 st2">7</text>
<text transform="matrix(1 0 0 1 421.31 496.56)" class="st0 st1 st2">8</text>
<text transform="matrix(1 0 0 1 638.99 363)" class="st0 st1 st2">9</text>
<text transform="matrix(1 0 0 1 748.87 548.33)" class="st0 st1 st2">Joker</text>
<text transform="matrix(0.9659 -0.2589 0.2589 0.9659 919.2194 402.0701)" class="st0 st1 st3">Start</text>
<text transform="matrix(0.9692 -0.2463 0.2463 0.9692 928.89 279.3)" class="st0 st1 st2">Finish</text>
</svg>
