<?xml version="1.0" encoding="utf-8"?>
<!-- Generator: Adobe Illustrator 24.2.3, SVG Export Plug-In . SVG Version: 6.00 Build 0)  -->
<svg version="1.1" id="GP_-_Turns" xmlns="http://www.w3.org/2000/svg" xmlns:xlink="http://www.w3.org/1999/xlink" x="0px" y="0px"
	 viewBox="0 0 1920 1080" style="enable-background:new 0 0 1920 1080;" xml:space="preserve">
<style type="text/css">
	.st0{fill:#FFFFFF;}
	.st1{font-family:'ArialMT';}
	.st2{font-size:36px;}
	.st3{letter-spacing:-2;}
</style>
<text transform="matrix(1 0 0 1 803.53 235.85)" class="st0 st1 st2">1</text>
<text transform="matrix(1 0 0 1 913.38 385.48)" class="st0 st1 st2">2</text>
<text transform="matrix(1 0 0 1 1821.25 262.37)" class="st0 st1 st2">3</text>
<text transform="matrix(1 0 0 1 1869.79 551.25)" class="st0 st1 st2">4</text>
<text transform="matrix(1 0 0 1 1605.61 677.82)" class="st0 st1 st2">5</text>
<text transform="matrix(1 0 0 1 1701.08 935.44)" class="st0 st1 st2">6</text>
<text transform="matrix(1 0 0 1 721.07 839.21)" class="st0 st1 st2">7</text>
<text transform="matrix(1 0 0 1 761.41 614.96)" class="st0 st1 st2">8</text>
<text transform="matrix(1 0 0 1 571.66 524.4)" class="st0 st1 st2">9</text>
<text transform="matrix(1 0 0 1 433.33 638.11)" class="st0 st1 st2">10</text>
<text transform="matrix(1 0 0 1 464.88 788.66)" class="st0 st1 st2 st3">1</text>
<text transform="matrix(1 0 0 1 482.23 788.66)" class="st0 st1 st2">1</text>
<text transform="matrix(1 0 0 1 47.78 685.57)" class="st0 st1 st2">12</text>
<text transform="matrix(1 0 0 1 10.72 491.34)" class="st0 st1 st2">13</text>
<text transform="matrix(1 0 0 1 379.35 236.64)" class="st0 st1 st2">14</text>
</svg>
