<?xml version="1.0" encoding="utf-8"?>
<!-- Generator: Adobe Illustrator 24.0.1, SVG Export Plug-In . SVG Version: 6.00 Build 0)  -->
<svg version="1.1" id="_2000_Moto_-_Turns" xmlns="http://www.w3.org/2000/svg" xmlns:xlink="http://www.w3.org/1999/xlink" x="0px"
	 y="0px" viewBox="0 0 1920 1080" style="enable-background:new 0 0 1920 1080;" xml:space="preserve">
<style type="text/css">
	.st0{fill:#FFFFFF;}
	.st1{font-family:'ArialMT';}
	.st2{font-size:36px;}
</style>
<title>turns</title>
<text transform="matrix(1 0 0 1 1055.48 153.71)" class="st0 st1 st2">1</text>
<text transform="matrix(1 0 0 1 795.74 359.27)" class="st0 st1 st2">2</text>
<text transform="matrix(1 0 0 1 619.09 402.79)" class="st0 st1 st2">3</text>
<text transform="matrix(1 0 0 1 510.31 519.22)" class="st0 st1 st2">4</text>
<text transform="matrix(1 0 0 1 826.15 481.71)" class="st0 st1 st2">5</text>
<text transform="matrix(1 0 0 1 875.96 550.09)" class="st0 st1 st2">6</text>
<text transform="matrix(1 0 0 1 944.99 586.67)" class="st0 st1 st2">7</text>
<text transform="matrix(1 0 0 1 1276.46 618.04)" class="st0 st1 st2">8</text>
<text transform="matrix(1 0 0 1 1492.42 640.48)" class="st0 st1 st2">9</text>
<text transform="matrix(1 0 0 1 371.41 494.48)" class="st0 st1 st2">10</text>
</svg>
