<?xml version="1.0" encoding="utf-8"?>
<!-- Generator: Adobe Illustrator 24.0.1, SVG Export Plug-In . SVG Version: 6.00 Build 0)  -->
<svg version="1.1" id="_1000_Full_-_Turns" xmlns="http://www.w3.org/2000/svg" xmlns:xlink="http://www.w3.org/1999/xlink" x="0px"
	 y="0px" viewBox="0 0 1920 1080" style="enable-background:new 0 0 1920 1080;" xml:space="preserve">
<style type="text/css">
	.st0{fill:#FFFFFF;}
	.st1{font-family:'ArialMT';}
	.st2{font-size:36px;}
</style>
<title>turns</title>
<text transform="matrix(1 0 0 1 990.74 974.23)" class="st0 st1 st2">1</text>
<text transform="matrix(1 0 0 1 990.33 822.83)" class="st0 st1 st2">2</text>
<text transform="matrix(1 0 0 1 1231.5699 800.24)" class="st0 st1 st2">3</text>
<text transform="matrix(1 0 0 1 1154.87 822)" class="st0 st1 st2">4</text>
<text transform="matrix(1 0 0 1 1044.37 880.26)" class="st0 st1 st2">5</text>
<text transform="matrix(1 0 0 1 1040.62 917.42)" class="st0 st1 st2">6</text>
<text transform="matrix(1 0 0 1 1289.3101 845.24)" class="st0 st1 st2">7</text>
<text transform="matrix(1 0 0 1 1396.79 805.7)" class="st0 st1 st2">8</text>
<text transform="matrix(1 0 0 1 1442.54 809.39)" class="st0 st1 st2">9</text>
<text transform="matrix(1 0 0 1 1449.71 849.33)" class="st0 st1 st2">10</text>
</svg>
