<?xml version="1.0" encoding="utf-8"?>
<!-- Generator: Adobe Illustrator 24.0.1, SVG Export Plug-In . SVG Version: 6.00 Build 0)  -->
<svg version="1.1" id="_1000_Chicane_-_Turns" xmlns="http://www.w3.org/2000/svg" xmlns:xlink="http://www.w3.org/1999/xlink"
	 x="0px" y="0px" viewBox="0 0 1920 1080" style="enable-background:new 0 0 1920 1080;" xml:space="preserve">
<style type="text/css">
	.st0{fill:#FFFFFF;}
	.st1{font-family:'ArialMT';}
	.st2{font-size:36px;}
	.st3{letter-spacing:-2;}
</style>
<title>turns</title>
<text transform="matrix(1 0 0 1 1132.1899 999.19)" class="st0 st1 st2">1</text>
<text transform="matrix(1 0 0 1 993.96 973.68)" class="st0 st1 st2">2</text>
<text transform="matrix(1 0 0 1 982.76 828.98)" class="st0 st1 st2">3</text>
<text transform="matrix(1 0 0 1 1234.24 798.67)" class="st0 st1 st2">4</text>
<text transform="matrix(1 0 0 1 1159.23 821.49)" class="st0 st1 st2">5</text>
<text transform="matrix(1 0 0 1 1043.29 877.09)" class="st0 st1 st2">6</text>
<text transform="matrix(1 0 0 1 1040.35 916.83)" class="st0 st1 st2">7</text>
<text transform="matrix(1 0 0 1 1295.79 839)" class="st0 st1 st2">8</text>
<text transform="matrix(1 0 0 1 1392.09 802.46)" class="st0 st1 st2">9</text>
<text transform="matrix(1 0 0 1 1424.41 803.22)" class="st0 st1 st2">10</text>
<text transform="matrix(1 0 0 1 1456.5601 846.07)" class="st0 st1 st2 st3">11</text>
</svg>
