<?xml version="1.0" encoding="utf-8"?>
<!-- Generator: Adobe Illustrator 24.2.3, SVG Export Plug-In . SVG Version: 6.00 Build 0)  -->
<svg version="1.1" id="Charlotte_Roval_2018_Turns" xmlns="http://www.w3.org/2000/svg" xmlns:xlink="http://www.w3.org/1999/xlink"
	 x="0px" y="0px" viewBox="0 0 1920 1080" style="enable-background:new 0 0 1920 1080;" xml:space="preserve">
<style type="text/css">
	.st0{fill:#FFFFFF;}
	.st1{font-family:'ArialMT';}
	.st2{font-size:36px;}
	.st3{letter-spacing:-2;}
</style>
<text transform="matrix(1 0 0 1 1310.5 875.97)" class="st0 st1 st2">1</text>
<text transform="matrix(1 0 0 1 1310.47 529.63)" class="st0 st1 st2">2</text>
<text transform="matrix(1 0 0 1 923.11 402.8201)" class="st0 st1 st2">3</text>
<text transform="matrix(1 0 0 1 918.32 234.33)" class="st0 st1 st2">4</text>
<text transform="matrix(1 0 0 1 1456.17 228.63)" class="st0 st1 st2">5</text>
<text transform="matrix(1 0 0 1 1553.47 396.3)" class="st0 st1 st2">6</text>
<text transform="matrix(1 0 0 1 1418.89 573.93)" class="st0 st1 st2">7</text>
<text transform="matrix(1 0 0 1 1475.4301 802.11)" class="st0 st1 st2">8</text>
<text transform="matrix(1 0 0 1 1791.83 428.63)" class="st0 st1 st2">9</text>
<text transform="matrix(1 0 0 1 878.79 122.96)" class="st0 st1 st2">10</text>
<text transform="matrix(1 0 0 1 809.77 72.15)" class="st0 st1 st2 st3">1</text>
<text transform="matrix(1 0 0 1 827.12 72.15)" class="st0 st1 st2">1</text>
<text transform="matrix(1 0 0 1 736.31 73.67)" class="st0 st1 st2">12</text>
<text transform="matrix(1 0 0 1 660.82 139.3)" class="st0 st1 st2">13</text>
<text transform="matrix(1 0 0 1 5.13 485.63)" class="st0 st1 st2">14</text>
<text transform="matrix(1 0 0 1 679.1 933.82)" class="st0 st1 st2">15</text>
<text transform="matrix(1 0 0 1 779.31 928.33)" class="st0 st1 st2">16</text>
</svg>
