<?xml version="1.0" encoding="utf-8"?>
<!-- Generator: Adobe Illustrator 24.0.1, SVG Export Plug-In . SVG Version: 6.00 Build 0)  -->
<svg version="1.1" id="_1000_Full_Reverse_-_Turns" xmlns="http://www.w3.org/2000/svg" xmlns:xlink="http://www.w3.org/1999/xlink"
	 x="0px" y="0px" viewBox="0 0 1920 1080" style="enable-background:new 0 0 1920 1080;" xml:space="preserve">
<style type="text/css">
	.st0{fill:#FFFFFF;}
	.st1{font-family:'ArialMT';}
	.st2{font-size:36px;}
</style>
<title>turns</title>
<text transform="matrix(1 0 0 1 1466.41 848.67)" class="st0 st1 st2">1</text>
<text transform="matrix(1 0 0 1 1438.99 809.16)" class="st0 st1 st2">2</text>
<text transform="matrix(1 0 0 1 1396.8 805.68)" class="st0 st1 st2">3</text>
<text transform="matrix(1 0 0 1 1285.98 844.11)" class="st0 st1 st2">4</text>
<text transform="matrix(1 0 0 1 1040.71 917.71)" class="st0 st1 st2">5</text>
<text transform="matrix(1 0 0 1 1043.29 880.09)" class="st0 st1 st2">6</text>
<text transform="matrix(1 0 0 1 1156.87 821.24)" class="st0 st1 st2">7</text>
<text transform="matrix(1 0 0 1 1230.5699 800.37)" class="st0 st1 st2">8</text>
<text transform="matrix(1 0 0 1 989.2 821.61)" class="st0 st1 st2">9</text>
<text transform="matrix(1 0 0 1 989.26 972.89)" class="st0 st1 st2">10</text>
</svg>
