<?xml version="1.0" encoding="utf-8"?>
<!-- Generator: Adobe Illustrator 24.2.3, SVG Export Plug-In . SVG Version: 6.00 Build 0)  -->
<svg version="1.1" id="Charlotte_Legends_RC_Long_Turns"
	 xmlns="http://www.w3.org/2000/svg" xmlns:xlink="http://www.w3.org/1999/xlink" x="0px" y="0px" viewBox="0 0 1920 1080"
	 style="enable-background:new 0 0 1920 1080;" xml:space="preserve">
<style type="text/css">
	.st0{fill:#FFFFFF;}
	.st1{font-family:'ArialMT';}
	.st2{font-size:36px;}
	.st3{letter-spacing:-2;}
</style>
<text transform="matrix(1 0 0 1 739.5 900.63)" class="st0 st1 st2">1</text>
<text transform="matrix(1 0 0 1 1270.14 801.63)" class="st0 st1 st2">2</text>
<text transform="matrix(1 0 0 1 935.11 418.82)" class="st0 st1 st2">3</text>
<text transform="matrix(1 0 0 1 918.32 231.67)" class="st0 st1 st2">4</text>
<text transform="matrix(1 0 0 1 1229.5 219.3)" class="st0 st1 st2">5</text>
<text transform="matrix(1 0 0 1 1362.8 412.3)" class="st0 st1 st2">6</text>
<text transform="matrix(1 0 0 1 1430 371.8201)" class="st0 st1 st2">7</text>
<text transform="matrix(1 0 0 1 1413.1 243.11)" class="st0 st1 st2">8</text>
<text transform="matrix(1 0 0 1 1463.39 217.63)" class="st0 st1 st2">9</text>
<text transform="matrix(1 0 0 1 1542.9 393.74)" class="st0 st1 st2">10</text>
<text transform="matrix(1 0 0 1 1413.11 596.37)" class="st0 st1 st2 st3">1</text>
<text transform="matrix(1 0 0 1 1430.46 596.37)" class="st0 st1 st2">1</text>
<text transform="matrix(1 0 0 1 1653.87 569.33)" class="st0 st1 st2">12</text>
<text transform="matrix(1 0 0 1 1492.53 826)" class="st0 st1 st2">13</text>
</svg>
