<?xml version="1.0" encoding="utf-8"?>
<!-- Generator: Adobe Illustrator 24.2.3, SVG Export Plug-In . SVG Version: 6.00 Build 0)  -->
<svg version="1.1" id="Charlotte_Legends_RC_Medium_Turns"
	 xmlns="http://www.w3.org/2000/svg" xmlns:xlink="http://www.w3.org/1999/xlink" x="0px" y="0px" viewBox="0 0 1920 1080"
	 style="enable-background:new 0 0 1920 1080;" xml:space="preserve">
<style type="text/css">
	.st0{fill:#FFFFFF;}
	.st1{font-family:'ArialMT';}
	.st2{font-size:36px;}
	.st3{letter-spacing:-2;}
</style>
<text transform="matrix(1 0 0 1 905.17 230.63)" class="st0 st1 st2">1</text>
<text transform="matrix(1 0 0 1 1230.47 216.3)" class="st0 st1 st2">2</text>
<text transform="matrix(1 0 0 1 1369.78 413.48)" class="st0 st1 st2">3</text>
<text transform="matrix(1 0 0 1 1427.66 375.67)" class="st0 st1 st2">4</text>
<text transform="matrix(1 0 0 1 1416.17 249.97)" class="st0 st1 st2">5</text>
<text transform="matrix(1 0 0 1 1468.14 222.96)" class="st0 st1 st2">6</text>
<text transform="matrix(1 0 0 1 1558 398.48)" class="st0 st1 st2">7</text>
<text transform="matrix(1 0 0 1 1429.1 565.78)" class="st0 st1 st2">8</text>
<text transform="matrix(1 0 0 1 1467.72 635.63)" class="st0 st1 st2">9</text>
<text transform="matrix(1 0 0 1 1654.9 572.07)" class="st0 st1 st2">10</text>
<text transform="matrix(1 0 0 1 1343.77 800.37)" class="st0 st1 st2 st3">1</text>
<text transform="matrix(1 0 0 1 1361.12 800.37)" class="st0 st1 st2">1</text>
<text transform="matrix(1 0 0 1 929.87 425)" class="st0 st1 st2">12</text>
</svg>
