<?xml version="1.0" encoding="utf-8"?>
<!-- Generator: Adobe Illustrator 25.2.1, SVG Export Plug-In . SVG Version: 6.00 Build 0)  -->
<svg version="1.1" id="Grand_Prix_-_Turns" xmlns="http://www.w3.org/2000/svg" xmlns:xlink="http://www.w3.org/1999/xlink" x="0px"
	 y="0px" viewBox="0 0 1920 1080" style="enable-background:new 0 0 1920 1080;" xml:space="preserve">
<style type="text/css">
	.st0{fill:#FFFFFF;}
	.st1{font-family:'ArialMT';}
	.st2{font-size:36px;}
	.st3{font-size:25px;}
</style>
<text transform="matrix(1 0 0 1 1006.01 711.86)" class="st0 st1 st2">1</text>
<text transform="matrix(1 0 0 1 890.49 717.94)" class="st0 st1 st3">Abbey</text>
<text transform="matrix(1 0 0 1 961.11 498.05)" class="st0 st1 st3">Farm Curve</text>
<text transform="matrix(1 0 0 1 885.14 300.78)" class="st0 st1 st3">The Loop</text>
<text transform="matrix(1 0 0 1 551.57 299.84)" class="st0 st1 st3">Aintree</text>
<text transform="matrix(1 0 0 1 445.69 864.22)" class="st0 st1 st3">Brooklands</text>
<text transform="matrix(1 0 0 1 550.6409 1047.6941)" class="st0 st1 st3">Luffield</text>
<text transform="matrix(1 0 0 1 77.94 376.35)" class="st0 st1 st3">Copse</text>
<text transform="matrix(1 0 0 1 560.77 136.09)" class="st0 st1 st3">Maggotts</text>
<text transform="matrix(1 0 0 1 843.69 50.4301)" class="st0 st1 st3">Becketts</text>
<text transform="matrix(1 0 0 1 1031.73 133.74)" class="st0 st1 st3">Chapel</text>
<text transform="matrix(1 0 0 1 1293.63 199.72)" class="st0 st1 st3">Hangar Straight</text>
<text transform="matrix(1 0 0 1 1651.71 437.08)" class="st0 st1 st3">Stowe</text>
<text transform="matrix(1 0 0 1 1451.34 948.34)" class="st0 st1 st3">Club</text>
<text transform="matrix(1 0 0 1 918.16 557.53)" class="st0 st1 st2">2</text>
<text transform="matrix(1 0 0 1 784.2 382.59)" class="st0 st1 st2">3</text>
<text transform="matrix(1 0 0 1 814.19 299)" class="st0 st1 st2">4</text>
<text transform="matrix(1 0 0 1 682.88 313.33)" class="st0 st1 st2">5</text>
<text transform="matrix(1 0 0 1 440.93 906.39)" class="st0 st1 st2">6</text>
<text transform="matrix(1 0 0 1 540.92 975.93)" class="st0 st1 st2">7</text>
<text transform="matrix(1 0 0 1 309.5 912.75)" class="st0 st1 st2">8</text>
<text transform="matrix(1 0 0 1 67.91 436.23)" class="st0 st1 st2">9</text>
<text transform="matrix(1 0 0 1 478.27 195.7)" class="st0 st1 st2">10</text>
<text transform="matrix(1 0 0 1 707.71 145.8201)" class="st0 st1 st2">12</text>
<text transform="matrix(1 0 0 1 843.42 121.22)" class="st0 st1 st2">13</text>
<text transform="matrix(1 0 0 1 970.17 130.85)" class="st0 st1 st2">14</text>
<text transform="matrix(1 0 0 1 1678.08 397.09)" class="st0 st1 st2">15</text>
<text transform="matrix(1 0 0 1 1575.09 734.97)" class="st0 st1 st2">16</text>
<text transform="matrix(1 0 0 1 1514.25 807.42)" class="st0 st1 st2">17</text>
<text transform="matrix(1 0 0 1 1452.45 882.84)" class="st0 st1 st2">18</text>
<g>
	<text transform="matrix(1 0 0 1 560.77 603.44)" class="st0 st1 st3">Wellington Straight</text>
</g>
<g>
	<text transform="matrix(1 0 0 1 665.9196 385.3898)" class="st0 st1 st3">Village</text>
</g>
<g>
	<text transform="matrix(1 0 0 1 604.889 211.5701)" class="st0 st1 st2">11</text>
</g>
<g>
	<text transform="matrix(1 0 0 1 116.7798 918.0444)" class="st0 st1 st3">Woodcote</text>
</g>
<g>
	<text transform="matrix(1 0 0 1 1658.2494 595.0898)" class="st0 st1 st3">Vale</text>
</g>
</svg>
