<?xml version="1.0" encoding="utf-8"?>
<!-- Generator: Adobe Illustrator 25.2.1, SVG Export Plug-In . SVG Version: 6.00 Build 0)  -->
<svg version="1.1" id="International_-_Turns" xmlns="http://www.w3.org/2000/svg" xmlns:xlink="http://www.w3.org/1999/xlink"
	 x="0px" y="0px" viewBox="0 0 1920 1080" style="enable-background:new 0 0 1920 1080;" xml:space="preserve">
<style type="text/css">
	.st0{fill:#FFFFFF;}
	.st1{font-family:'ArialMT';}
	.st2{font-size:36px;}
	.st3{font-size:25px;}
</style>
<text transform="matrix(1 0 0 1 1006.01 711.86)" class="st0 st1 st2">1</text>
<text transform="matrix(1 0 0 1 900.49 717.94)" class="st0 st1 st3">Abbey</text>
<text transform="matrix(1 0 0 1 961.11 498.05)" class="st0 st1 st3">Farm Curve</text>
<text transform="matrix(1 0 0 1 885.14 300.78)" class="st0 st1 st3">The Loop</text>
<text transform="matrix(1 0 0 1 1031.73 133.74)" class="st0 st1 st3">Chapel</text>
<text transform="matrix(1 0 0 1 1293.63 199.72)" class="st0 st1 st3">Hangar Straight</text>
<text transform="matrix(1 0 0 1 1651.71 437.08)" class="st0 st1 st3">Stowe</text>
<text transform="matrix(1 0 0 1 1451.34 948.34)" class="st0 st1 st3">Club</text>
<text transform="matrix(1 0 0 1 922.86 554.37)" class="st0 st1 st2">2</text>
<text transform="matrix(1 0 0 1 784.23 382.7)" class="st0 st1 st2">3</text>
<text transform="matrix(1 0 0 1 814.68 299.05)" class="st0 st1 st2">4</text>
<text transform="matrix(1 0 0 1 910.03 186.84)" class="st0 st1 st2">5</text>
<text transform="matrix(1 0 0 1 1700.65 399.82)" class="st0 st1 st2">6</text>
<text transform="matrix(1 0 0 1 1584.59 735.49)" class="st0 st1 st2">7</text>
<text transform="matrix(1 0 0 1 1532.01 808.14)" class="st0 st1 st2">8</text>
<text transform="matrix(1 0 0 1 1461.91 883.45)" class="st0 st1 st2">9</text>
<g>
	<text transform="matrix(1 0 0 1 660.9194 380.39)" class="st0 st1 st3">Village</text>
</g>
<g>
	<text transform="matrix(1 0 0 1 1658.2494 595.0898)" class="st0 st1 st3">Vale</text>
</g>
</svg>
