<?xml version="1.0" encoding="utf-8"?>
<!-- Generator: Adobe Illustrator 25.2.1, SVG Export Plug-In . SVG Version: 6.00 Build 0)  -->
<svg version="1.1" id="National_-_Turns" xmlns="http://www.w3.org/2000/svg" xmlns:xlink="http://www.w3.org/1999/xlink" x="0px"
	 y="0px" viewBox="0 0 1920 1080" style="enable-background:new 0 0 1920 1080;" xml:space="preserve">
<style type="text/css">
	.st0{fill:#FFFFFF;}
	.st1{font-family:'ArialMT';}
	.st2{font-size:25px;}
	.st3{font-size:36px;}
</style>
<text transform="matrix(1 0 0 1 551.57 299.84)" class="st0 st1 st2">Aintree</text>
<text transform="matrix(1 0 0 1 445.69 864.22)" class="st0 st1 st2">Brooklands</text>
<text transform="matrix(1 0 0 1 78.94 377.35)" class="st0 st1 st2">Copse</text>
<text transform="matrix(1 0 0 1 560.77 136.09)" class="st0 st1 st2">Maggotts</text>
<text transform="matrix(1 0 0 1 440.93 906.39)" class="st0 st1 st3">4</text>
<text transform="matrix(1 0 0 1 540.92 975.93)" class="st0 st1 st3">5</text>
<text transform="matrix(1 0 0 1 309.5 912.75)" class="st0 st1 st3">6</text>
<text transform="matrix(1 0 0 1 80.9 430.59)" class="st0 st1 st3">1</text>
<text transform="matrix(1 0 0 1 502.63 188.3)" class="st0 st1 st3">2</text>
<text transform="matrix(1 0 0 1 613.08 211.5701)" class="st0 st1 st3">3</text>
<g>
	<text transform="matrix(1 0 0 1 561.0298 603.4404)" class="st0 st1 st2">Wellington Straight</text>
</g>
<g>
	<text transform="matrix(1 0 0 1 116.7798 927.77)" class="st0 st1 st2">Woodcote</text>
</g>
<text transform="matrix(1 0 0 1 551.1111 1047.6945)" class="st1 st2">Luffield</text>
</svg>
