<?xml version="1.0" encoding="utf-8"?>
<!-- Generator: Adobe Illustrator 25.3.1, SVG Export Plug-In . SVG Version: 6.00 Build 0)  -->
<svg version="1.1" id="Barcelona_Grand_Prix_-_Turns"
	 xmlns="http://www.w3.org/2000/svg" xmlns:xlink="http://www.w3.org/1999/xlink" x="0px" y="0px" viewBox="0 0 1920 1080"
	 style="enable-background:new 0 0 1920 1080;" xml:space="preserve">
<style type="text/css">
	.st0{fill:#FFFFFF;}
	.st1{font-family:'ArialMT';}
	.st2{font-size:36px;}
	.st3{letter-spacing:-2;}
</style>
<text transform="matrix(1 0 0 1 355.26 807.15)" class="st0 st1 st2">1</text>
<text transform="matrix(1 0 0 1 283.85 743.72)" class="st0 st1 st2">2</text>
<text transform="matrix(1 0 0 1 141.43 510.02)" class="st0 st1 st2">3</text>
<text transform="matrix(1 0 0 1 646.09 423)" class="st0 st1 st2">4</text>
<text transform="matrix(1 0 0 1 333.04 574.82)" class="st0 st1 st2">5</text>
<text transform="matrix(1 0 0 1 514.29 701.27)" class="st0 st1 st2">6</text>
<text transform="matrix(1 0 0 1 720.43 708.46)" class="st0 st1 st2">7</text>
<text transform="matrix(1 0 0 1 788.42 647.78)" class="st0 st1 st2">8</text>
<text transform="matrix(1 0 0 1 970.37 421.26)" class="st0 st1 st2">9</text>
<text transform="matrix(1 0 0 1 1546.5 670.38)" class="st0 st1 st2">10</text>
<text transform="matrix(1 0 0 1 1514.42 580.13)" class="st0 st1 st2 st3">1</text>
<text transform="matrix(1 0 0 1 1531.77 580.13)" class="st0 st1 st2">1</text>
<text transform="matrix(1 0 0 1 1483.97 452.22)" class="st0 st1 st2">12</text>
<text transform="matrix(1 0 0 1 1677.08 489.78)" class="st0 st1 st2">13</text>
<text transform="matrix(1 0 0 1 1749.25 603.6)" class="st0 st1 st2">14</text>
<text transform="matrix(1 0 0 1 1725.17 672.5)" class="st0 st1 st2">15</text>
<text transform="matrix(1 0 0 1 1760.53 848.24)" class="st0 st1 st2">16</text>
<text transform="matrix(1 0 0 1 773.84 757.8)" class="st0 st1 st2">TV3</text>
<text transform="matrix(1 0 0 1 1605.28 894.78)" class="st0 st1 st2">Catalunya</text>
<text transform="matrix(1 0 0 1 1693.73 397.23)" class="st0 st1 st2">Europcar</text>
<text transform="matrix(1 0 0 1 1389.88 735.74)" class="st0 st1 st2">La Caixa</text>
<text transform="matrix(1 0 0 1 1798.3 604.03)" class="st0 st1 st2">RACC</text>
<text transform="matrix(1 0 0 1 673.86 334.78)" class="st0 st1 st2">Repsol</text>
</svg>
