<?xml version="1.0" encoding="utf-8"?>
<!-- Generator: Adobe Illustrator 26.3.1, SVG Export Plug-In . SVG Version: 6.00 Build 0)  -->
<svg version="1.1" id="Barcelona_National_-_Turns" xmlns="http://www.w3.org/2000/svg" xmlns:xlink="http://www.w3.org/1999/xlink"
	 x="0px" y="0px" viewBox="0 0 1920 1080" style="enable-background:new 0 0 1920 1080;" xml:space="preserve">
<style type="text/css">
	.st0{fill:#FFFFFF;}
	.st1{font-family:'ArialMT';}
	.st2{font-size:36px;}
	.st3{enable-background:new    ;}
	.st4{letter-spacing:-3;}
	.st5{letter-spacing:-2;}
</style>
<text transform="matrix(1 0 0 1 586.99 796.67)" class="st0 st1 st2">1</text>
<text transform="matrix(1 0 0 1 720.43 708.46)" class="st0 st1 st2">2</text>
<text transform="matrix(1 0 0 1 788.42 647.78)" class="st0 st1 st2">3</text>
<text transform="matrix(1 0 0 1 970.37 421.26)" class="st0 st1 st2">4</text>
<g id="_5">
	<text transform="matrix(1 0 0 1 1556.51 670.38)" class="st0 st1 st2">5</text>
</g>
<text transform="matrix(1 0 0 1 1523.09 580.13)" class="st0 st1 st2">6</text>
<text transform="matrix(1 0 0 1 1493.98 452.22)" class="st0 st1 st2">7</text>
<text transform="matrix(1 0 0 1 1687.09 489.78)" class="st0 st1 st2">8</text>
<g id="_9">
	<text transform="matrix(1 0 0 1 1759.26 603.6)" class="st0 st1 st2">9</text>
</g>
<text transform="matrix(1 0 0 1 1725.17 672.5)" class="st0 st1 st2">10</text>
<text transform="matrix(1 0 0 1 1761.86 848.24)" class="st3"><tspan x="0" y="0" class="st0 st1 st2 st4">1</tspan><tspan x="17" y="0" class="st0 st1 st2 st5">1</tspan></text>
<text transform="matrix(1 0 0 1 773.84 757.8)" class="st0 st1 st2">TV3</text>
<text transform="matrix(1 0 0 1 1605.28 894.78)" class="st0 st1 st2">Catalunya</text>
<text transform="matrix(1 0 0 1 1693.73 397.23)" class="st0 st1 st2">Europcar</text>
<text transform="matrix(1 0 0 1 1389.88 735.74)" class="st0 st1 st2">La Caixa</text>
<text transform="matrix(1 0 0 1 1789.3 604.03)" class="st0 st1 st2">RACC</text>
</svg>
