<?xml version="1.0" encoding="utf-8"?>
<!-- Generator: Adobe Illustrator 24.0.1, SVG Export Plug-In . SVG Version: 6.00 Build 0)  -->
<svg version="1.1" id="Lime_Rock_Classic_-_Turns" xmlns="http://www.w3.org/2000/svg" xmlns:xlink="http://www.w3.org/1999/xlink"
	 x="0px" y="0px" viewBox="0 0 1920 1080" style="enable-background:new 0 0 1920 1080;" xml:space="preserve">
<style type="text/css">
	.st0{fill:#FFFFFF;}
	.st1{font-family:'ArialMT';}
	.st2{font-size:36px;}
</style>
<title>turns</title>
<text transform="matrix(1 0 0 1 317.15 948.04)" class="st0 st1 st2">1</text>
<text transform="matrix(1 0 0 1 288.4 798.61)" class="st0 st1 st2">2</text>
<text transform="matrix(1 0 0 1 591.09 692.79)" class="st0 st1 st2">3</text>
<text transform="matrix(1 0 0 1 626.65 482.56)" class="st0 st1 st2">4</text>
<text transform="matrix(1 0 0 1 1189.48 147.71)" class="st0 st1 st2">5</text>
<text transform="matrix(1 0 0 1 1603.96 496.98)" class="st0 st1 st2">6</text>
<text transform="matrix(1 0 0 1 1415.54 957)" class="st0 st1 st2">7</text>
<text transform="matrix(1 0 0 1 1112.72 70.79)" class="st0 st1 st2">Uphill</text>
<text transform="matrix(1 0 0 1 1436.8999 533.13)" class="st0 st1 st2">West Bend</text>
<text transform="matrix(1 0 0 1 1367.8199 834.79)" class="st0 st1 st2">Downhill</text>
<text transform="matrix(1 0 0 1 906.88 1047.13)" class="st0 st1 st2">Sam Posey Straight</text>
<text transform="matrix(1 0 0 1 142.16 846.13)" class="st0 st1 st2">Big</text>
<text transform="matrix(1 0 0 1 127.14 885.91)" class="st0 st1 st2">Bend</text>
<text transform="matrix(1 0 0 1 673.33 727.68)" class="st0 st1 st2">Lefthander</text>
<text transform="matrix(1 0 0 1 639.78 519.35)" class="st0 st1 st2">Righthander</text>
<text transform="matrix(1 0 0 1 674.9 178.68)" class="st0 st1 st2">No Name Straight</text>
</svg>
