<?xml version="1.0" encoding="utf-8"?>
<!-- Generator: Adobe Illustrator 24.2.3, SVG Export Plug-In . SVG Version: 6.00 Build 0)  -->
<svg version="1.1" id="Road_Turns" xmlns="http://www.w3.org/2000/svg" xmlns:xlink="http://www.w3.org/1999/xlink" x="0px" y="0px"
	 viewBox="0 0 1920 1080" style="enable-background:new 0 0 1920 1080;" xml:space="preserve">
<style type="text/css">
	.st0{fill:#FFFFFF;}
	.st1{font-family:'ArialMT';}
	.st2{font-size:36px;}
	.st3{letter-spacing:-2;}
</style>
<text transform="matrix(1 0 0 1 1227.38 912.49)" class="st0 st1 st2">1</text>
<text transform="matrix(1 0 0 1 1207.99 648.67)" class="st0 st1 st2">2</text>
<text transform="matrix(1 0 0 1 937.32 466.33)" class="st0 st1 st2">3</text>
<text transform="matrix(1 0 0 1 933.99 301)" class="st0 st1 st2">4</text>
<text transform="matrix(1 0 0 1 1417.71 295.49)" class="st0 st1 st2">5</text>
<text transform="matrix(1 0 0 1 1506.66 447)" class="st0 st1 st2">6</text>
<text transform="matrix(1 0 0 1 1366.66 659)" class="st0 st1 st2">7</text>
<text transform="matrix(1 0 0 1 1526.66 773.67)" class="st0 st1 st2">8</text>
<text transform="matrix(1 0 0 1 1697.3199 645.33)" class="st0 st1 st2">9</text>
<text transform="matrix(1 0 0 1 1617.64 287)" class="st0 st1 st2">10</text>
<text transform="matrix(1 0 0 1 267.98 310.33)" class="st0 st1 st2 st3">1</text>
<text transform="matrix(1 0 0 1 285.33 310.33)" class="st0 st1 st2">1</text>
<text transform="matrix(1 0 0 1 257.98 715)" class="st0 st1 st2">12</text>
</svg>
