<?xml version="1.0" encoding="utf-8"?>
<!-- Generator: Adobe Illustrator 24.2.3, SVG Export Plug-In . SVG Version: 6.00 Build 0)  -->
<svg version="1.1" id="Infield_RC_Turns" xmlns="http://www.w3.org/2000/svg" xmlns:xlink="http://www.w3.org/1999/xlink" x="0px"
	 y="0px" viewBox="0 0 1920 1080" style="enable-background:new 0 0 1920 1080;" xml:space="preserve">
<style type="text/css">
	.st0{fill:#FFFFFF;}
	.st1{font-family:'ArialMT';}
	.st2{font-size:36px;}
	.st3{letter-spacing:-2;}
</style>
<text transform="matrix(1 0 0 1 916.71 297.8201)" class="st0 st1 st2">1</text>
<text transform="matrix(1 0 0 1 1007.99 294.33)" class="st0 st1 st2">2</text>
<text transform="matrix(1 0 0 1 1086.66 387.33)" class="st0 st1 st2">3</text>
<text transform="matrix(1 0 0 1 1161.3199 284.67)" class="st0 st1 st2">4</text>
<text transform="matrix(1 0 0 1 1195.71 283.49)" class="st0 st1 st2">5</text>
<text transform="matrix(1 0 0 1 1273.3199 270.33)" class="st0 st1 st2">6</text>
<text transform="matrix(1 0 0 1 1421.99 291)" class="st0 st1 st2">7</text>
<text transform="matrix(1 0 0 1 1510.66 456.33)" class="st0 st1 st2">8</text>
<text transform="matrix(1 0 0 1 1168.3199 499.67)" class="st0 st1 st2">9</text>
<text transform="matrix(1 0 0 1 1079.65 534.33)" class="st0 st1 st2">10</text>
<text transform="matrix(1 0 0 1 1001.31 491.67)" class="st0 st1 st2 st3">1</text>
<text transform="matrix(1 0 0 1 1018.66 491.67)" class="st0 st1 st2">1</text>
<text transform="matrix(1 0 0 1 921.98 466.33)" class="st0 st1 st2">12</text>
</svg>
