<?xml version="1.0" encoding="utf-8"?>
<!-- Generator: Adobe Illustrator 25.4.1, SVG Export Plug-In . SVG Version: 6.00 Build 0)  -->
<svg version="1.1" id="Hillclimb_-_turns" xmlns="http://www.w3.org/2000/svg" xmlns:xlink="http://www.w3.org/1999/xlink" x="0px"
	 y="0px" viewBox="0 0 1920 1080" style="enable-background:new 0 0 1920 1080;" xml:space="preserve">
<style type="text/css">
	.st0{fill:#FFFFFF;}
	.st1{font-family:'ArialMT';}
	.st2{font-size:30px;}
	.st3{letter-spacing:-1;}
</style>
<text transform="matrix(1 0 0 1 1655.61 244.25)" class="st0 st1 st2">The Clouds</text>
<text transform="matrix(1 0 0 1 1655.61 211.85)" class="st0 st1 st2">Climb To</text>
<text transform="matrix(1 0 0 1 1655.61 276.87)" class="st0 st1 st2">Start Line</text>
<text transform="matrix(1 0 0 1 309.92 891.59)" class="st0 st1 st2">The Clouds</text>
<text transform="matrix(1 0 0 1 309.92 859.41)" class="st0 st1 st2">Climb To</text>
<text transform="matrix(1 0 0 1 309.92 923.99)" class="st0 st1 st2">Finish Line</text>
<text transform="matrix(1 0 0 1 1674.74 497.65)" class="st0 st1 st2">NH Route 16</text>
<text transform="matrix(1 0 0 1 1435.13 443.18)" class="st0 st1 st2">Gravel</text>
<text transform="matrix(1 0 0 1 1465.97 475.58)" class="st0 st1 st2">Pit</text>
<text transform="matrix(1 0 0 1 727.39 198.97)" class="st0 st1 st2">Halfway</text>
<text transform="matrix(1 0 0 1 727.39 231.37)" class="st0 st1 st2">House Site</text>
<text transform="matrix(1 0 0 1 561.98 143.0601)" class="st0 st1 st2">The Horn 3921ft</text>
<text transform="matrix(1 0 0 1 664.74 293.37)" class="st0 st1 st2">Signal</text>
<text transform="matrix(1 0 0 1 1015.46 640.03)" class="st0 st1 st2 st3">Two Mile</text>
<text transform="matrix(1 0 0 1 1015.46 672.43)" class="st0 st1 st2">Spring</text>
<text transform="matrix(1 0 0 1 1015.72 498.01)" class="st0 st1 st2">Mycko’s Bridge</text>
<text transform="matrix(1 0 0 1 943.5 407.28)" class="st0 st1 st2">Jenny Lind Bridge</text>
<text transform="matrix(1 0 0 1 796.4399 327.42)" class="st0 st1 st2">The Twin Bridges</text>
<text transform="matrix(1 0 0 1 445.66 316.14)" class="st0 st1 st2">The “S” Turns</text>
<text transform="matrix(0.5229 0.8524 -0.8524 0.5229 677.2103 371.79)" class="st0 st1 st2">Five Mile Grade</text>
<text transform="matrix(0.8763 -0.4818 0.4818 0.8763 370.85 564.7501)" class="st0 st1 st2">Six Mile Grade</text>
<text transform="matrix(1 0 0 1 518.56 546.06)" class="st0 st1 st2">Green Pipe</text>
<text transform="matrix(1 0 0 1 599.73 611.4)" class="st0 st1 st2">Cragway Spring</text>
<text transform="matrix(1 0 0 1 664.74 643.8)" class="st0 st1 st2">4809ft</text>
<text transform="matrix(1 0 0 1 135.57 583.68)" class="st0 st1 st2">Hair Pin 5536ft</text>
<text transform="matrix(1 0 0 1 1774.73 364.1899)" class="st0 st1 st2">The Glen</text>
<text transform="matrix(1 0 0 1 93.94 651.09)" class="st0 st1 st2">Mother In</text>
<text transform="matrix(1 0 0 1 93.94 683.49)" class="st0 st1 st2">Law’s Drop</text>
<text transform="matrix(1 0 0 1 235.43 785.45)" class="st0 st1 st2">Home Stretch</text>
<text transform="matrix(1 0 0 1 104.23 860.18)" class="st0 st1 st2">Summit</text>
<text transform="matrix(1 0 0 1 104.23 892.75)" class="st0 st1 st2">6288’</text>
<text transform="matrix(0.4307 -0.9025 0.9025 0.4307 1589.7599 573.0102)" class="st0 st1 st2">Peabody River</text>
<text transform="matrix(1 0 0 1 664.74 325.77)" class="st0 st1 st2">Corps</text>
<text transform="matrix(1 0 0 1 1774.73 396.59)" class="st0 st1 st2">House</text>
</svg>
