<?xml version="1.0" encoding="utf-8"?>
<!-- Generator: Adobe Illustrator 25.3.1, SVG Export Plug-In . SVG Version: 6.00 Build 0)  -->
<svg version="1.1" id="gp_-_turns" xmlns="http://www.w3.org/2000/svg" xmlns:xlink="http://www.w3.org/1999/xlink" x="0px" y="0px"
	 viewBox="0 0 1920 1080" style="enable-background:new 0 0 1920 1080;" xml:space="preserve">
<style type="text/css">
	.st0{fill:#FFFFFF;}
	.st1{font-family:'ArialMT';}
	.st2{font-size:36px;}
</style>
<text transform="matrix(1 0 0 1 871.43 934.96)" class="st0 st1 st2">1</text>
<text transform="matrix(1 0 0 1 326.75 177.5)" class="st0 st1 st2">3</text>
<text transform="matrix(1 0 0 1 442.31 407.99)" class="st0 st1 st2">2</text>
<text transform="matrix(1 0 0 1 1179.65 227.53)" class="st0 st1 st2">4</text>
<text transform="matrix(1 0 0 1 1009.99 399.87)" class="st0 st1 st2">5</text>
<text transform="matrix(1 0 0 1 690.03 411.4)" class="st0 st1 st2">6</text>
<text transform="matrix(1 0 0 1 804.98 604.01)" class="st0 st1 st2">7</text>
<text transform="matrix(1 0 0 1 981.56 580.05)" class="st0 st1 st2">8</text>
<text transform="matrix(1 0 0 1 1539.88 549.3)" class="st0 st1 st2">9</text>
<text transform="matrix(1 0 0 1 1675.78 733.6)" class="st0 st1 st2">10</text>
<text transform="matrix(1 0 0 1 733.58 393.9)" class="st0 st1 st2">Power</text>
<text transform="matrix(1 0 0 1 736.59 428.91)" class="st0 st1 st2">Horse</text>
<text transform="matrix(1 0 0 1 654.45 994.04)" class="st0 st1 st2">Niki Lauda</text>
<text transform="matrix(1 0 0 1 1472.9399 451.52)" class="st0 st1 st2">Jochen Rindt</text>
<text transform="matrix(1 0 0 1 1166.6801 271.39)" class="st0 st1 st2">Rauch</text>
<text transform="matrix(1 0 0 1 109.18 192.87)" class="st0 st1 st2">AMS AG</text>
</svg>
