<?xml version="1.0" encoding="utf-8"?>
<!-- Generator: Adobe Illustrator 25.4.1, SVG Export Plug-In . SVG Version: 6.00 Build 0)  -->
<svg version="1.1" id="gp_-_turns" xmlns="http://www.w3.org/2000/svg" xmlns:xlink="http://www.w3.org/1999/xlink" x="0px" y="0px"
	 viewBox="0 0 1920 1080" style="enable-background:new 0 0 1920 1080;" xml:space="preserve">
<style type="text/css">
	.st0{fill:#FFFFFF;}
	.st1{font-family:'ArialMT';}
	.st2{font-size:36px;}
	.st3{letter-spacing:-2;}
</style>
<text transform="matrix(1 0 0 1 463.19 982.61)" class="st0 st1 st2">1</text>
<text transform="matrix(1 0 0 1 960.43 838.38)" class="st0 st1 st2">2</text>
<text transform="matrix(1 0 0 1 762.42 773.68)" class="st0 st1 st2">3</text>
<text transform="matrix(1 0 0 1 748.06 291.1)" class="st0 st1 st2">4</text>
<text transform="matrix(1 0 0 1 523.19 121.82)" class="st0 st1 st2">5</text>
<text transform="matrix(1 0 0 1 874.67 109.66)" class="st0 st1 st2">6</text>
<text transform="matrix(1 0 0 1 812.46 173.61)" class="st0 st1 st2">7</text>
<text transform="matrix(1 0 0 1 965.62 287.33)" class="st0 st1 st2">8</text>
<text transform="matrix(1 0 0 1 1110.15 173.61)" class="st0 st1 st2">9</text>
<text transform="matrix(1 0 0 1 1173.8 399.37)" class="st0 st1 st2">10</text>
<text transform="matrix(1 0 0 1 1389.54 425.21)" class="st0 st1 st2 st3">11</text>
<text transform="matrix(1 0 0 1 1354.87 849.63)" class="st0 st1 st2">12</text>
<text transform="matrix(1 0 0 1 1054.51 841.51)" class="st0 st1 st2">13</text>
<text transform="matrix(1 0 0 1 1358.3101 938.19)" class="st0 st1 st2">14</text>
</svg>
