<?xml version="1.0" encoding="utf-8"?>
<!-- Generator: Adobe Illustrator 24.0.1, SVG Export Plug-In . SVG Version: 6.00 Build 0)  -->
<svg version="1.1" id="Historic_Grand_Prix_-_Turns"
	 xmlns="http://www.w3.org/2000/svg" xmlns:xlink="http://www.w3.org/1999/xlink" x="0px" y="0px" viewBox="0 0 1920 1080"
	 style="enable-background:new 0 0 1920 1080;" xml:space="preserve">
<style type="text/css">
	.st0{fill:#FFFFFF;}
	.st1{font-family:'ArialMT';}
	.st2{font-size:30px;}
	.st3{letter-spacing:-2;}
	.st4{font-size:25px;}
</style>
<title>turns</title>
<text transform="matrix(1 0 0 1 1505.9301 882.26)" class="st0 st1 st2">1</text>
<text transform="matrix(1 0 0 1 1157.85 981.94)" class="st0 st1 st2">2</text>
<text transform="matrix(1 0 0 1 1076.55 932.89)" class="st0 st1 st2">3</text>
<text transform="matrix(1 0 0 1 952.54 965.67)" class="st0 st1 st2">4</text>
<text transform="matrix(1 0 0 1 869.15 928.49)" class="st0 st1 st2">5</text>
<text transform="matrix(1 0 0 1 754.96 889.31)" class="st0 st1 st2">6</text>
<text transform="matrix(1 0 0 1 300.32 460.35)" class="st0 st1 st2">7</text>
<text transform="matrix(1 0 0 1 543.68 252.15)" class="st0 st1 st2">8</text>
<text transform="matrix(1 0 0 1 557.76 194.16)" class="st0 st1 st2">9</text>
<text transform="matrix(1 0 0 1 599.27 171.89)" class="st0 st1 st2">10</text>
<text transform="matrix(1 0 0 1 909.29 343.39)" class="st0 st1 st2 st3">11</text>
<text transform="matrix(1 0 0 1 1172.79 420.79)" class="st0 st1 st2">12</text>
<text transform="matrix(1 0 0 1 1304.97 569.05)" class="st0 st1 st2">13</text>
<text transform="matrix(1 0 0 1 1392.71 474.67)" class="st0 st1 st2">14</text>
<text transform="matrix(1 0 0 1 1360.39 386.94)" class="st0 st1 st2">15</text>
<text transform="matrix(1 0 0 1 1564.46 450.57)" class="st0 st1 st2">16</text>
<text transform="matrix(1 0 0 1 615.69 210.13)" class="st0 st1 st4">Club</text>
<text transform="matrix(1 0 0 1 1031.91 341.46)" class="st0 st1 st4">Farm Straight</text>
<text transform="matrix(1 0 0 1 975.96 460.57)" class="st0 st1 st4">Abbey</text>
<text transform="matrix(1 0 0 1 1230.04 360.02)" class="st0 st1 st4">Bridge</text>
<text transform="matrix(1 0 0 1 1306.09 500.57)" class="st0 st1 st4">Priory</text>
<text transform="matrix(1 0 0 1 1276.97 453.46)" class="st0 st1 st4">Brooklands</text>
<text transform="matrix(1 0 0 1 1332.4301 309.79)" class="st0 st1 st4">Luffield</text>
<text transform="matrix(1 0 0 1 1545.8201 411.57)" class="st0 st1 st4">Woodcote</text>
<text transform="matrix(1 0 0 1 1484.38 964.13)" class="st0 st1 st4">Copse</text>
<text transform="matrix(1 0 0 1 1032.25 1000.67)" class="st0 st1 st4">Maggotts</text>
<text transform="matrix(1 0 0 1 844.46 887.13)" class="st0 st1 st4">Becketts</text>
<text transform="matrix(1 0 0 1 766.68 809.24)" class="st0 st1 st4">Chapel</text>
<text transform="matrix(1 0 0 1 539.07 653.02)" class="st0 st1 st4">Hangar Straight</text>
<text transform="matrix(1 0 0 1 320.99 488.79)" class="st0 st1 st4">Stowe</text>
<text transform="matrix(1 0 0 1 348.8 325.35)" class="st0 st1 st4">Vale</text>
</svg>
