<?xml version="1.0" encoding="utf-8"?>
<!-- Generator: Adobe Illustrator 26.0.1, SVG Export Plug-In . SVG Version: 6.00 Build 0)  -->
<svg version="1.1" id="National_Reverse_-_Turns" xmlns="http://www.w3.org/2000/svg" xmlns:xlink="http://www.w3.org/1999/xlink"
	 x="0px" y="0px" viewBox="0 0 1920 1080" style="enable-background:new 0 0 1920 1080;" xml:space="preserve">
<style type="text/css">
	.st0{fill:#FFFFFF;}
	.st1{font-family:'ArialMT';}
	.st2{font-size:36px;}
</style>
<text transform="matrix(1 0 0 1 1254.17 297.26)" class="st0 st1 st2">10</text>
<text transform="matrix(1 0 0 1 1262.66 212.25)" class="st0 st1 st2">Duffus Dip</text>
<text transform="matrix(1 0 0 1 1615.59 434.87)" class="st0 st1 st2">McIntyre</text>
<text transform="matrix(1 0 0 1 1602.5699 577.01)" class="st0 st1 st2">Butcher’s</text>
<text transform="matrix(1 0 0 1 1468.03 782.74)" class="st0 st1 st2">Chicane</text>
<text transform="matrix(1 0 0 1 1015.8 822.95)" class="st0 st1 st2">Clark</text>
<text transform="matrix(1 0 0 1 391.71 598.51)" class="st0 st1 st2">Railway Straight</text>
<text transform="matrix(1 0 0 1 1412.21 327.88)" class="st0 st1 st2">9</text>
<text transform="matrix(1 0 0 1 1537.71 434.87)" class="st0 st1 st2">8</text>
<text transform="matrix(1 0 0 1 1535.0601 577.01)" class="st0 st1 st2">7</text>
<text transform="matrix(1 0 0 1 1478.98 728.03)" class="st0 st1 st2">6</text>
<text transform="matrix(1 0 0 1 1399.25 734.74)" class="st0 st1 st2">5</text>
<text transform="matrix(1 0 0 1 979.55 822.95)" class="st0 st1 st2">4</text>
<text transform="matrix(1 0 0 1 675.51 598.51)" class="st0 st1 st2">3</text>
<text transform="matrix(1 0 0 1 492.13 401.63)" class="st0 st1 st2">2</text>
<text transform="matrix(1 0 0 1 510.5 313.56)" class="st0 st1 st2">1</text>
</svg>
