<?xml version="1.0" encoding="utf-8"?>
<!-- Generator: Adobe Illustrator 26.0.1, SVG Export Plug-In . SVG Version: 6.00 Build 0)  -->
<svg version="1.1" id="PEC_Handling_-_Turns" xmlns="http://www.w3.org/2000/svg" xmlns:xlink="http://www.w3.org/1999/xlink"
	 x="0px" y="0px" viewBox="0 0 1920 1080" style="enable-background:new 0 0 1920 1080;" xml:space="preserve">
<style type="text/css">
	.st0{fill:#FFFFFF;}
	.st1{font-family:'ArialMT';}
	.st2{font-size:36px;}
	.st3{letter-spacing:-2;}
</style>
<text transform="matrix(1 0 0 1 1222.62 831.05)" class="st0 st1 st2">1</text>
<text transform="matrix(1 0 0 1 1139.1801 810.86)" class="st0 st1 st2">2</text>
<text transform="matrix(1 0 0 1 1068.52 842.49)" class="st0 st1 st2">3</text>
<text transform="matrix(1 0 0 1 1126.39 913.82)" class="st0 st1 st2">4</text>
<text transform="matrix(1 0 0 1 1330.28 889.59)" class="st0 st1 st2">5</text>
<text transform="matrix(1 0 0 1 868 291.05)" class="st0 st1 st2">6</text>
<text transform="matrix(1 0 0 1 783.22 295.09)" class="st0 st1 st2">7</text>
<text transform="matrix(1 0 0 1 704.15 132.25)" class="st0 st1 st2">8</text>
<text transform="matrix(1 0 0 1 549.84 286.88)" class="st0 st1 st2">9</text>
<text transform="matrix(1 0 0 1 565.49 387.37)" class="st0 st1 st2 st3">11</text>
<text transform="matrix(1 0 0 1 598.97 549.05)" class="st0 st1 st2 st3">11</text>
<text transform="matrix(1 0 0 1 933.63 894.92)" class="st0 st1 st2">12</text>
<text transform="matrix(1 0 0 1 881.11 767.05)" class="st0 st1 st2">13</text>
<text transform="matrix(1 0 0 1 839.39 635.61)" class="st0 st1 st2">14</text>
<text transform="matrix(1 0 0 1 754.16 585.82)" class="st0 st1 st2">15</text>
<text transform="matrix(1 0 0 1 741.6 519.42)" class="st0 st1 st2">16</text>
<text transform="matrix(1 0 0 1 687.7 477.32)" class="st0 st1 st2">17</text>
<text transform="matrix(1 0 0 1 619.35 297.86)" class="st0 st1 st2">18</text>
<text transform="matrix(1 0 0 1 683.98 284.23)" class="st0 st1 st2">19</text>
<text transform="matrix(1 0 0 1 740.64 377.96)" class="st0 st1 st2">20</text>
<text transform="matrix(1 0 0 1 823.52 389.4)" class="st0 st1 st2">21</text>
</svg>
