<?xml version="1.0" encoding="utf-8"?>
<!-- Generator: Adobe Illustrator 24.0.1, SVG Export Plug-In . SVG Version: 6.00 Build 0)  -->
<svg version="1.1" id="Boot_-_Turns" xmlns="http://www.w3.org/2000/svg" xmlns:xlink="http://www.w3.org/1999/xlink" x="0px"
	 y="0px" viewBox="0 0 1920 1080" style="enable-background:new 0 0 1920 1080;" xml:space="preserve">
<style type="text/css">
	.st0{fill:#FFFFFF;}
	.st1{font-family:'ArialMT';}
	.st2{font-size:36px;}
	.st3{letter-spacing:-2;}
</style>
<title>turns</title>
<text transform="matrix(1 0 0 1 35.71 975.26)" class="st0 st1 st2">1</text>
<text transform="matrix(1 0 0 1 149.85 594.05)" class="st0 st1 st2">2</text>
<text transform="matrix(1 0 0 1 319.31 457.13)" class="st0 st1 st2">3</text>
<text transform="matrix(1 0 0 1 554.42 320.67)" class="st0 st1 st2">4</text>
<text transform="matrix(1 0 0 1 1598.26 237.15)" class="st0 st1 st2">5</text>
<text transform="matrix(1 0 0 1 1429.29 612.38)" class="st0 st1 st2">6</text>
<text transform="matrix(1 0 0 1 1836.4301 705.13)" class="st0 st1 st2">7</text>
<text transform="matrix(1 0 0 1 1231.65 816)" class="st0 st1 st2">8</text>
<text transform="matrix(1 0 0 1 1239.48 540.04)" class="st0 st1 st2">9</text>
<text transform="matrix(1 0 0 1 897.5 640.83)" class="st0 st1 st2">10</text>
<text transform="matrix(1 0 0 1 792.75 914.79)" class="st0 st1 st2 st3">11</text>
<text transform="matrix(1 0 0 1 1190.25 136.02)" class="st0 st1 st2">Inner Loop</text>
<text transform="matrix(1 0 0 1 1673.49 202.68)" class="st0 st1 st2">Outer Loop</text>
<text transform="matrix(1 0 0 1 1482.0601 532.59)" class="st0 st1 st2">Chute</text>
<text transform="matrix(1 0 0 1 1854.64 607.24)" class="st0 st1 st2">Toe</text>
<text transform="matrix(1 0 0 1 1405.72 743.35)" class="st0 st1 st2">The Boot</text>
<text transform="matrix(1 0 0 1 1092.86 834.02)" class="st0 st1 st2">Heel</text>
<text transform="matrix(1 0 0 1 314.31 386.02)" class="st0 st1 st2">Esses</text>
</svg>
