<?xml version="1.0" encoding="utf-8"?>
<!-- Generator: Adobe Illustrator 26.0.3, SVG Export Plug-In . SVG Version: 6.00 Build 0)  -->
<svg version="1.1" id="National_-_Turns" xmlns="http://www.w3.org/2000/svg" xmlns:xlink="http://www.w3.org/1999/xlink" x="0px"
	 y="0px" viewBox="0 0 1920 1080" style="enable-background:new 0 0 1920 1080;" xml:space="preserve">
<style type="text/css">
	.st0{fill:#FFFFFF;}
	.st1{font-family:'ArialMT';}
	.st2{font-size:36px;}
	.st3{letter-spacing:-2;}
</style>
<text transform="matrix(1 0 0 1 835.18 777.51)" class="st0 st1 st2">1</text>
<text transform="matrix(1 0 0 1 726.37 794)" class="st0 st1 st2">2</text>
<text transform="matrix(1 0 0 1 397.68 822.92)" class="st0 st1 st2">3</text>
<text transform="matrix(1 0 0 1 414.05 695.55)" class="st0 st1 st2">4</text>
<text transform="matrix(1 0 0 1 736.53 506.21)" class="st0 st1 st2">5</text>
<text transform="matrix(1 0 0 1 737.08 324.49)" class="st0 st1 st2">6</text>
<text transform="matrix(1 0 0 1 857.66 264.27)" class="st0 st1 st2">8</text>
<text transform="matrix(1 0 0 1 943.26 202.36)" class="st0 st1 st2">9</text>
<text transform="matrix(1 0 0 1 991.74 576.13)" class="st0 st1 st2">10</text>
<text transform="matrix(1 0 0 1 1003.9 481.95)" class="st0 st1 st2">Northern</text>
<text transform="matrix(1 0 0 1 1003.9 521.95)" class="st0 st1 st2">BM Corner</text>
<text transform="matrix(1 0 0 1 808.64 820.21)" class="st0 st1 st2">Motorsport</text>
<text transform="matrix(1 0 0 1 808.64 860.21)" class="st0 st1 st2">News Esses</text>
<text transform="matrix(1 0 0 1 1577.01 440.02)" class="st0 st1 st2">Advanced</text>
<text transform="matrix(1 0 0 1 1577.01 480.02)" class="st0 st1 st2">Petroleum</text>
<text transform="matrix(1 0 0 1 871.8 121.1)" class="st0 st1 st2">Kitome Corner</text>
<text transform="matrix(1 0 0 1 443.92 177.13)" class="st0 st1 st2">Penrite Corner</text>
<text transform="matrix(1 0 0 1 526.68 343.52)" class="st0 st1 st2">Roll-Over</text>
<text transform="matrix(1 0 0 1 258.56 597.05)" class="st0 st1 st2">Nissan Corner</text>
<text transform="matrix(1 0 0 1 102.62 821.77)" class="st0 st1 st2">Honda Corner</text>
<text transform="matrix(0.9947 -0.1031 0.1031 0.9947 417.68 920.53)" class="st0 st1 st2">BP Ultimate Straight</text>
<text transform="matrix(0.9968 -8.002496e-02 8.002496e-02 0.9968 465.31 682.39)" class="st0 st1 st2">Foott Waste Straight </text>
<text transform="matrix(1 0 0 1 1487.5601 534.05)" class="st0 st1 st2 st3">11</text>
<text transform="matrix(1 0 0 1 1497.05 609.88)" class="st0 st1 st2">12</text>
<text transform="matrix(0.9936 -0.1134 0.1134 0.9936 1159.17 657.98)" class="st0 st1 st2">Kitome Straight</text>
<text transform="matrix(0.9674 -0.2531 0.2531 0.9674 1229.36 524.4199)" class="st0 st1 st2">Falken Straight</text>
<text transform="matrix(6.261627e-02 -0.998 0.998 6.261627e-02 942.53 583.5699)" class="st0 st1 st2">Shannon’s Straight</text>
<text transform="matrix(1 0 0 1 730.55 230.44)" class="st0 st1 st2">7</text>
<text transform="matrix(1 0 0 1 526.68 383.52)" class="st0 st1 st2">Corner</text>
<text transform="matrix(1 0 0 1 1577.01 520.02)" class="st0 st1 st2">Corner</text>
</svg>
