<?xml version="1.0" encoding="utf-8"?>
<!-- Generator: Adobe Illustrator 24.0.1, SVG Export Plug-In . SVG Version: 6.00 Build 0)  -->
<svg version="1.1" id="National_-_Turns" xmlns="http://www.w3.org/2000/svg" xmlns:xlink="http://www.w3.org/1999/xlink" x="0px"
	 y="0px" viewBox="0 0 1920 1080" style="enable-background:new 0 0 1920 1080;" xml:space="preserve">
<style type="text/css">
	.st0{fill:#FFFFFF;}
	.st1{font-family:'ArialMT';}
	.st2{font-size:30px;}
	.st3{font-size:25px;}
</style>
<title>turns</title>
<text transform="matrix(1 0 0 1 1505.9301 882.26)" class="st0 st1 st2">1</text>
<text transform="matrix(1 0 0 1 1157.85 981.94)" class="st0 st1 st2">2</text>
<text transform="matrix(1 0 0 1 1076.55 932.89)" class="st0 st1 st2">3</text>
<text transform="matrix(1 0 0 1 1402.76 474.11)" class="st0 st1 st2">4</text>
<text transform="matrix(1 0 0 1 1368.74 386.94)" class="st0 st1 st2">5</text>
<text transform="matrix(1 0 0 1 1572.8 450.57)" class="st0 st1 st2">6</text>
<text transform="matrix(1 0 0 1 1276.97 453.46)" class="st0 st1 st3">Brooklands</text>
<text transform="matrix(1 0 0 1 1332.4301 309.79)" class="st0 st1 st3">Luffield</text>
<text transform="matrix(1 0 0 1 1544.8201 411.57)" class="st0 st1 st3">Woodcote</text>
<text transform="matrix(1 0 0 1 1484.38 964.13)" class="st0 st1 st3">Copse</text>
<text transform="matrix(1 0 0 1 1032.25 1000.67)" class="st0 st1 st3">Maggotts</text>
</svg>
