<?xml version="1.0" encoding="utf-8"?>
<!-- Generator: Adobe Illustrator 26.0.3, SVG Export Plug-In . SVG Version: 6.00 Build 0)  -->
<svg version="1.1" id="Club_-_Turns" xmlns="http://www.w3.org/2000/svg" xmlns:xlink="http://www.w3.org/1999/xlink" x="0px"
	 y="0px" viewBox="0 0 1920 1080" style="enable-background:new 0 0 1920 1080;" xml:space="preserve">
<style type="text/css">
	.st0{fill:#FFFFFF;}
	.st1{font-family:'ArialMT';}
	.st2{font-size:36px;}
	.st3{font-size:35.9986px;}
</style>
<text transform="matrix(1 0 0 1 830.18 772.51)" class="st0 st1 st2">9</text>
<text transform="matrix(1 0 0 1 721.37 789)" class="st0 st1 st2">10</text>
<text transform="matrix(1 0 0 1 397.68 822.92)" class="st0 st1 st2">1</text>
<text transform="matrix(1 0 0 1 414.05 695.55)" class="st0 st1 st2">2</text>
<text transform="matrix(1 0 0 1 736.53 506.21)" class="st0 st1 st2">3</text>
<text transform="matrix(1 0 0 1 737.08 324.49)" class="st0 st1 st2">4</text>
<text transform="matrix(1 0 0 1 857.66 264.27)" class="st0 st1 st2">6</text>
<text transform="matrix(1 0 0 1 943.26 202.36)" class="st0 st1 st2">7</text>
<text transform="matrix(1 0 0 1 916.05 669.67)" class="st0 st1 st2">8</text>
<text transform="matrix(1 0 0 1 808.64 820.21)" class="st0 st1 st2">Motorsport</text>
<text transform="matrix(1 0 0 1 808.64 860.21)" class="st0 st1 st2">News Esses</text>
<text transform="matrix(1 0 0 1 871.8 121.1)" class="st0 st1 st2">Kitome Corner</text>
<text transform="matrix(1 0 0 1 443.92 177.13)" class="st0 st1 st2">Penrite Corner</text>
<text transform="matrix(1 0 0 1 526.68 343.52)" class="st0 st1 st2">Roll-Over</text>
<text transform="matrix(1 0 0 1 258.56 597.05)" class="st0 st1 st2">Nissan Corner</text>
<text transform="matrix(1 0 0 1 102.62 821.77)" class="st0 st1 st2">Honda Corner</text>
<text transform="matrix(1 0 0 1 730.55 230.44)" class="st0 st1 st2">5</text>
<text transform="matrix(1 0 0 1 526.68 383.52)" class="st0 st1 st2">Corner</text>
<text transform="matrix(0.9947 -0.1031 0.1031 0.9947 417.68 920.53)" class="st0 st1 st2">BP Ultimate Straight</text>
<text transform="matrix(0.9968 -8.002496e-02 8.002496e-02 0.9968 465.31 682.39)" class="st0 st1 st2">Foott Waste Straight </text>
<text transform="matrix(6.261862e-02 -0.998 0.998 6.261862e-02 942.5297 583.569)" class="st0 st1 st3">Shannon’s Straight</text>
</svg>
