<?xml version="1.0" encoding="utf-8"?>
<!-- Generator: Adobe Illustrator 26.3.1, SVG Export Plug-In . SVG Version: 6.00 Build 0)  -->
<svg version="1.1" id="Sandown_-_Turns" xmlns="http://www.w3.org/2000/svg" xmlns:xlink="http://www.w3.org/1999/xlink" x="0px"
	 y="0px" viewBox="0 0 1920 1080" style="enable-background:new 0 0 1920 1080;" xml:space="preserve">
<style type="text/css">
	.st0{fill:#FFFFFF;}
	.st1{font-family:'ArialMT';}
	.st2{font-size:36px;}
	.st3{letter-spacing:-2;}
</style>
<text transform="matrix(1 0 0 1 1655.3199 435.61)" class="st0 st1 st2">3</text>
<text transform="matrix(1 0 0 1 1664.25 378.5)" class="st0 st1 st2">4</text>
<text transform="matrix(1 0 0 1 1376.25 316.59)" class="st0 st1 st2">5</text>
<text transform="matrix(1 0 0 1 460.01 204.93)" class="st0 st1 st2">6</text>
<text transform="matrix(1 0 0 1 318.2 199.48)" class="st0 st1 st2">7</text>
<text transform="matrix(1 0 0 1 287.7 279.33)" class="st0 st1 st2">8</text>
<text transform="matrix(1 0 0 1 224 313.43)" class="st0 st1 st2">9</text>
<text transform="matrix(1 0 0 1 275.14 487.48)" class="st0 st1 st2">10</text>
<text transform="matrix(1 0 0 1 393.57 665.8)" class="st0 st1 st2 st3">11</text>
<text transform="matrix(1 0 0 1 466.46 714.02)" class="st0 st1 st2">12</text>
<text transform="matrix(1 0 0 1 580.86 759.33)" class="st0 st1 st2">13</text>
<text transform="matrix(1 0 0 1 1659.4301 514.65)" class="st0 st1 st2">2</text>
<text transform="matrix(1 0 0 1 1533.5 716.29)" class="st0 st1 st2">1</text>
</svg>
