<?xml version="1.0" encoding="utf-8"?>
<!-- Generator: Adobe Illustrator 26.3.1, SVG Export Plug-In . SVG Version: 6.00 Build 0)  -->
<svg version="1.1" id="NoChicane_-_Turns" xmlns="http://www.w3.org/2000/svg" xmlns:xlink="http://www.w3.org/1999/xlink" x="0px"
	 y="0px" viewBox="0 0 1920 1080" style="enable-background:new 0 0 1920 1080;" xml:space="preserve">
<style type="text/css">
	.st0{fill:#FFFFFF;}
	.st1{font-family:'ArialMT';}
	.st2{font-size:36px;}
	.st3{letter-spacing:-2;}
</style>
<text transform="matrix(1 0 0 1 1302.72 525.11)" class="st0 st1 st2">3</text>
<text transform="matrix(1 0 0 1 1352.39 525.11)" class="st0 st1 st2">Coca-Cola Corner</text>
<text transform="matrix(1 0 0 1 1094.7 855.73)" class="st0 st1 st2">100R</text>
<text transform="matrix(1 0 0 1 910.39 503.18)" class="st0 st1 st2">Hairpin</text>
<text transform="matrix(1 0 0 1 661.35 970.79)" class="st0 st1 st2">300R</text>
<text transform="matrix(1 0 0 1 424.85 638.55)" class="st0 st1 st2">Netz</text>
<text transform="matrix(1 0 0 1 21.59 478.77)" class="st0 st1 st2">Panasonic</text>
<text transform="matrix(1 0 0 1 293.88 1050.46)" class="st0 st1 st2">Dunlop Corner</text>
<text transform="matrix(1 0 0 1 1257.86 759.33)" class="st0 st1 st2">4</text>
<text transform="matrix(1 0 0 1 1003 807.93)" class="st0 st1 st2">5</text>
<text transform="matrix(1 0 0 1 939.66 598.64)" class="st0 st1 st2">6</text>
<text transform="matrix(1 0 0 1 894.55 639.92)" class="st0 st1 st2">7</text>
<text transform="matrix(1 0 0 1 782.32 768)" class="st0 st1 st2">8</text>
<text transform="matrix(1 0 0 1 638.09 895.4)" class="st0 st1 st2">9</text>
<text transform="matrix(1 0 0 1 363.66 959.88)" class="st0 st1 st2">10</text>
<text transform="matrix(1 0 0 1 249.79 780.87)" class="st0 st1 st2 st3">11</text>
<text transform="matrix(1 0 0 1 308.86 691.03)" class="st0 st1 st2">12</text>
<text transform="matrix(1 0 0 1 329.72 638.55)" class="st0 st1 st2">13</text>
<text transform="matrix(1 0 0 1 157.79 586.4)" class="st0 st1 st2">14</text>
<text transform="matrix(1 0 0 1 1600.9 260)" class="st0 st1 st2">2</text>
<text transform="matrix(1 0 0 1 1656.83 181.31)" class="st0 st1 st2">1</text>
<text transform="matrix(1 0 0 1 21.59 518.77)" class="st0 st1 st2">Corner</text>
</svg>
