<?xml version="1.0" encoding="UTF-8"?><svg id="Moto_-_turns" xmlns="http://www.w3.org/2000/svg" viewBox="0 0 1920 1080"><defs><style>.cls-1{letter-spacing:-.07422em;}.cls-2{letter-spacing:-.01807em;}.cls-3{letter-spacing:-.03711em;}.cls-4{fill:#fff;font-family:ArialMT, Arial;font-size:30px;}</style></defs><text class="cls-4" transform="translate(586.59081 564.90118)"><tspan x="0" y="0">1</tspan></text><text class="cls-4" transform="translate(508.76558 514.41876)"><tspan x="0" y="0">Hotel</tspan></text><text class="cls-4" transform="translate(953.35275 462.83026)"><tspan x="0" y="0">3</tspan></text><text class="cls-4" transform="translate(1026.38989 462.83026)"><tspan x="0" y="0">Hasseröder</tspan></text><text class="cls-4" transform="translate(407.34567 406.58032)"><tspan class="cls-3" x="0" y="0">T</tspan><tspan x="17.21191" y="0">riple</tspan></text><text class="cls-4" transform="translate(181.39041 155.95056)"><tspan x="0" y="0">McDonald</tspan><tspan class="cls-2" x="135.05859" y="0">’</tspan><tspan x="141.18164" y="0">s</tspan></text><text class="cls-4" transform="translate(1194.59326 335.67212)"><tspan x="0" y="0">Shell Kurve</tspan></text><text class="cls-4" transform="translate(1301.32617 475.09216)"><tspan x="0" y="0">Amman Kurve</tspan></text><text class="cls-4" transform="translate(1658.63135 610.56433)"><tspan x="0" y="0">Bauer Kurve</tspan></text><text class="cls-4" transform="translate(1753.68909 812.27536)"><tspan x="0" y="0">Zeppelin</tspan></text><text class="cls-4" transform="translate(489.62065 343.90424)"><tspan x="0" y="0">4</tspan></text><text class="cls-4" transform="translate(373.79457 406.58002)"><tspan x="0" y="0">5</tspan></text><text class="cls-4" transform="translate(353.3642 513.98694)"><tspan x="0" y="0">6</tspan></text><text class="cls-4" transform="translate(273.76172 603.20435)"><tspan x="0" y="0">7</tspan></text><text class="cls-4" transform="translate(246.26707 386.55585)"><tspan x="0" y="0">8</tspan></text><text class="cls-4" transform="translate(224.1041 296.42175)"><tspan x="0" y="0">9</tspan></text><text class="cls-4" transform="translate(328.22741 233.09686)"><tspan x="0" y="0">10</tspan></text><text class="cls-4" transform="translate(1123.20081 400.85626)"><tspan class="cls-1" x="0" y="0">1</tspan><tspan x="14.45801" y="0">1</tspan></text><text class="cls-4" transform="translate(1249.90887 475.09229)"><tspan x="0" y="0">12</tspan></text><text class="cls-4" transform="translate(1555.90601 610.56403)"><tspan x="0" y="0">13</tspan></text><text class="cls-4" transform="translate(1617.37573 830.79584)"><tspan x="0" y="0">14</tspan></text><text class="cls-4" transform="translate(508.76558 554.41876)"><tspan x="0" y="0">2</tspan></text><text class="cls-4" transform="translate(1753.68909 852.27536)"><tspan x="0" y="0">Kurve</tspan></text></svg>