<?xml version="1.0" encoding="utf-8"?>
<!-- Generator: Adobe Illustrator 24.0.1, SVG Export Plug-In . SVG Version: 6.00 Build 0)  -->
<svg version="1.1" id="South_-_Turns" xmlns="http://www.w3.org/2000/svg" xmlns:xlink="http://www.w3.org/1999/xlink" x="0px"
	 y="0px" viewBox="0 0 1920 1080" style="enable-background:new 0 0 1920 1080;" xml:space="preserve">
<style type="text/css">
	.st0{fill:#FFFFFF;}
	.st1{font-family:'ArialMT';}
	.st2{font-size:30px;}
	.st3{font-size:25px;}
</style>
<title>turns</title>
<text transform="matrix(1 0 0 1 500.99 239.67)" class="st0 st1 st2">1</text>
<text transform="matrix(1 0 0 1 557.76 194.16)" class="st0 st1 st2">2</text>
<text transform="matrix(1 0 0 1 607.61 171.89)" class="st0 st1 st2">3</text>
<text transform="matrix(1 0 0 1 817.87 346.46)" class="st0 st1 st2">4</text>
<text transform="matrix(1 0 0 1 875.15 374.82)" class="st0 st1 st2">5</text>
<text transform="matrix(1 0 0 1 1012.29 777.98)" class="st0 st1 st2">6</text>
<text transform="matrix(1 0 0 1 1045.65 838.68)" class="st0 st1 st2">7</text>
<text transform="matrix(1 0 0 1 869.15 928.49)" class="st0 st1 st2">8</text>
<text transform="matrix(1 0 0 1 754.96 887.13)" class="st0 st1 st2">9</text>
<text transform="matrix(1 0 0 1 291.97 460.57)" class="st0 st1 st2">10</text>
<text transform="matrix(1 0 0 1 615.69 210.13)" class="st0 st1 st3">Club</text>
<text transform="matrix(1 0 0 1 844.46 887.13)" class="st0 st1 st3">Becketts</text>
<text transform="matrix(1 0 0 1 766.68 809.24)" class="st0 st1 st3">Chapel</text>
<text transform="matrix(1 0 0 1 539.07 653.02)" class="st0 st1 st3">Hangar Straight</text>
<text transform="matrix(1 0 0 1 320.99 488.79)" class="st0 st1 st3">Stowe</text>
<text transform="matrix(1 0 0 1 348.8 325.35)" class="st0 st1 st3">Vale</text>
</svg>
