<?xml version="1.0" encoding="UTF-8"?><svg id="B_-_turns" xmlns="http://www.w3.org/2000/svg" viewBox="0 0 1920 1080"><defs><style>.cls-1{fill:#fff;font-family:ArialMT, Arial;font-size:30px;}</style></defs><text class="cls-1" transform="translate(650.1796 627.14417)"><tspan x="0" y="0">1</tspan></text><text class="cls-1" transform="translate(508.76558 514.41876)"><tspan x="0" y="0">Hotel</tspan></text><text class="cls-1" transform="translate(954.61273 453.61285)"><tspan x="0" y="0">3</tspan></text><text class="cls-1" transform="translate(788.37958 453.61285)"><tspan x="0" y="0">Hasseröder</tspan></text><text class="cls-1" transform="translate(1194.59326 335.67212)"><tspan x="0" y="0">Shell Kurve</tspan></text><text class="cls-1" transform="translate(1319.88281 466.11273)"><tspan x="0" y="0">Amman Kurve</tspan></text><text class="cls-1" transform="translate(1658.63135 610.56433)"><tspan x="0" y="0">Bauer Kurve</tspan></text><text class="cls-1" transform="translate(1753.68909 812.27536)"><tspan x="0" y="0">Zeppelin</tspan></text><text class="cls-1" transform="translate(821.40457 322.42468)"><tspan x="0" y="0">4</tspan></text><text class="cls-1" transform="translate(1123.20081 400.85626)"><tspan x="0" y="0">5</tspan></text><text class="cls-1" transform="translate(1268.46552 466.11285)"><tspan x="0" y="0">6</tspan></text><text class="cls-1" transform="translate(1555.90601 610.56403)"><tspan x="0" y="0">7</tspan></text><text class="cls-1" transform="translate(1617.37573 830.79584)"><tspan x="0" y="0">8</tspan></text><text class="cls-1" transform="translate(508.76558 554.41876)"><tspan x="0" y="0">2</tspan></text><text class="cls-1" transform="translate(1753.68909 852.27536)"><tspan x="0" y="0">Kurve</tspan></text></svg>