<?xml version="1.0" encoding="utf-8"?>
<!-- Generator: Adobe Illustrator 24.2.3, SVG Export Plug-In . SVG Version: 6.00 Build 0)  -->
<svg version="1.1" id="Barber_Full_Turns" xmlns="http://www.w3.org/2000/svg" xmlns:xlink="http://www.w3.org/1999/xlink" x="0px"
	 y="0px" viewBox="0 0 1920 1080" style="enable-background:new 0 0 1920 1080;" xml:space="preserve">
<style type="text/css">
	.st0{fill:#FFFFFF;}
	.st1{font-family:'ArialMT';}
	.st2{font-size:36px;}
	.st3{letter-spacing:-2;}
</style>
<text transform="matrix(1 0 0 1 580.17 598.08)" class="st0 st1 st2">1</text>
<text transform="matrix(1 0 0 1 360.58 862.74)" class="st0 st1 st2">2</text>
<text transform="matrix(1 0 0 1 269.08 786.68)" class="st0 st1 st2">3</text>
<text transform="matrix(1 0 0 1 488.52 592.76)" class="st0 st1 st2">4</text>
<text transform="matrix(1 0 0 1 1149.86 490.09)" class="st0 st1 st2">5</text>
<text transform="matrix(1 0 0 1 908.83 419.08)" class="st0 st1 st2">6</text>
<text transform="matrix(1 0 0 1 229.92 459.74)" class="st0 st1 st2">7</text>
<text transform="matrix(1 0 0 1 118.41 465.35)" class="st0 st1 st2">8</text>
<text transform="matrix(1 0 0 1 98.83 348.74)" class="st0 st1 st2">9</text>
<text transform="matrix(1 0 0 1 638.24 238.41)" class="st0 st1 st2">10</text>
<text transform="matrix(1 0 0 1 776.4 262.6799)" class="st0 st1 st2 st3">1</text>
<text transform="matrix(1 0 0 1 793.75 262.6799)" class="st0 st1 st2">1</text>
<text transform="matrix(1 0 0 1 1498.85 431.42)" class="st0 st1 st2">12</text>
<text transform="matrix(1 0 0 1 1811.51 744.09)" class="st0 st1 st2">14</text>
<text transform="matrix(1 0 0 1 908.83 419.08)" class="st0 st1 st2">6</text>
<text transform="matrix(1 0 0 1 1606.35 881.63)" class="st0 st1 st2">15</text>
<text transform="matrix(1 0 0 1 1568.29 654.9)" class="st0 st1 st2">16</text>
</svg>
