<?xml version="1.0" encoding="utf-8"?>
<!-- Generator: Adobe Illustrator 27.0.1, SVG Export Plug-In . SVG Version: 6.00 Build 0)  -->
<svg version="1.1" id="gp_-_Turns" xmlns="http://www.w3.org/2000/svg" xmlns:xlink="http://www.w3.org/1999/xlink" x="0px" y="0px"
	 viewBox="0 0 1920 1080" style="enable-background:new 0 0 1920 1080;" xml:space="preserve">
<style type="text/css">
	.st0{fill:#FFFFFF;}
	.st1{font-family:'ArialMT';}
	.st2{font-size:36px;}
	.st3{letter-spacing:-1;}
</style>
<text transform="matrix(1 0 0 1 688.15 484)" class="st0 st1 st2">1</text>
<text transform="matrix(1 0 0 1 629.3 533.96)" class="st0 st1 st2">Grande</text>
<text transform="matrix(1 0 0 1 533.12 474.48)" class="st0 st1 st2">2</text>
<text transform="matrix(1 0 0 1 341.07 362.44)" class="st0 st1 st2">3</text>
<text transform="matrix(1 0 0 1 903.53 148.21)" class="st0 st1 st2">4</text>
<text transform="matrix(1 0 0 1 933.45 148.21)" class="st0 st1 st2">Golf</text>
<text transform="matrix(1 0 0 1 1516.1899 246.72)" class="st0 st1 st2">5</text>
<text transform="matrix(1 0 0 1 1143.52 291.4)" class="st0 st1 st2">6</text>
<text transform="matrix(1 0 0 1 818.71 226.61)" class="st0 st1 st2">7</text>
<text transform="matrix(1 0 0 1 852.26 226.61)" class="st0 st1 st2">Nürburgring</text>
<text transform="matrix(1 0 0 1 711.85 248.16)" class="st0 st1 st2">8</text>
<text transform="matrix(1 0 0 1 498.67 314.81)" class="st0 st1 st2">9</text>
<text transform="matrix(1 0 0 1 378.3 314.81)" class="st0 st1 st2">180º</text>
<text transform="matrix(1 0 0 1 159.2 375.54)" class="st0 st1 st2">Estoril</text>
<text transform="matrix(1 0 0 1 615.52 345.1)" class="st0 st1 st2">10</text>
<text transform="matrix(1 0 0 1 792.14 315.99)" class="st0 st1 st2 st3">11</text>
<text transform="matrix(1 0 0 1 1207.46 382.49)" class="st0 st1 st2">12</text>
<text transform="matrix(1 0 0 1 1104.6 382.49)" class="st0 st1 st2">Imola</text>
<text transform="matrix(1 0 0 1 1314.23 368.76)" class="st0 st1 st2">13</text>
<text transform="matrix(1 0 0 1 1527.3 403.09)" class="st0 st1 st2">14</text>
<text transform="matrix(1 0 0 1 1135.46 936.89)" class="st0 st1 st2">15</text>
<text transform="matrix(1 0 0 1 1086.78 1030.59)" class="st0 st1 st2">Complexe du Lycée </text>
<text transform="matrix(1 0 0 1 1236.7 936.93)" class="st0 st1 st2">L</text>
<text transform="matrix(1 0 0 1 1255.2999 936.93)" class="st0 st1 st2">ycée</text>
<text transform="matrix(1 0 0 1 1312.7 731.7)" class="st0 st1 st2">Chicane</text>
<text transform="matrix(1 0 0 1 1619.47 403.42)" class="st0 st1 st2">Chateaux</text>
<text transform="matrix(1 0 0 1 1551.26 247.47)" class="st0 st1 st2">Adelaide</text>
<text transform="matrix(1 0 0 1 1619.47 443.42)" class="st0 st1 st2">d’Eau</text>
<text transform="matrix(1 0 0 1 1090.24 911.31)" class="st0 st1 st2">16</text>
<text transform="matrix(1 0 0 1 1089.0699 862.81)" class="st0 st1 st2">17</text>
<text transform="matrix(1 0 0 1 629.3 573.96)" class="st0 st1 st2">Courbe</text>
</svg>
