<?xml version="1.0" encoding="utf-8"?>
<!-- Generator: Adobe Illustrator 27.0.1, SVG Export Plug-In . SVG Version: 6.00 Build 0)  -->
<svg version="1.1" id="South_-_Turns" xmlns="http://www.w3.org/2000/svg" xmlns:xlink="http://www.w3.org/1999/xlink" x="0px"
	 y="0px" viewBox="0 0 1920 1080" style="enable-background:new 0 0 1920 1080;" xml:space="preserve">
<style type="text/css">
	.st0{fill:#FFFFFF;}
	.st1{font-family:'ArialMT';}
	.st2{font-size:25px;}
	.st3{font-size:36px;}
</style>
<text transform="matrix(1 0 0 1 1478.5 452.69)" class="st0 st1 st2">South Bend</text>
<text transform="matrix(1 0 0 1 158.3325 52.4307)" class="st0 st1 st2">Horse Shoe</text>
<text transform="matrix(1 0 0 1 169.5418 464.9131)" class="st0 st1 st2">NASCAR Bend</text>
<text transform="matrix(1 0 0 1 358.2599 385.6803)" class="st0 st1 st2">Left Hook</text>
<text transform="matrix(1 0 0 1 546.3329 201.955)" class="st0 st1 st2">Snake</text>
<text transform="matrix(1 0 0 1 1392.11 552.61)" class="st0 st1 st2">Spiral</text>
<text transform="matrix(1 0 0 1 1021.03 750.99)" class="st0 st1 st2">Bitch</text>
<text transform="matrix(1 0 0 1 679.4348 975.0203)" class="st0 st1 st2">Roller</text>
<text transform="matrix(1 0 0 1 277.3138 1024.8119)" class="st0 st1 st2">Hog Pen</text>
<text transform="matrix(1 0 0 1 679.4348 1002.174)" class="st0 st1 st2">Coaster</text>
<text transform="matrix(1 0 0 1 106.3158 118.3157)" class="st0 st1 st3">1</text>
<text transform="matrix(1 0 0 1 141.9775 318.2985)" class="st0 st1 st3">2</text>
<text transform="matrix(1 0 0 1 168.0302 385.6803)" class="st0 st1 st3">3</text>
<text transform="matrix(1 0 0 1 276.8823 363.1815)" class="st0 st1 st3">4a</text>
<text transform="matrix(1 0 0 1 355.821 323.6866)" class="st0 st1 st3">4b</text>
<text transform="matrix(1 0 0 1 412.0347 288.9802)" class="st0 st1 st3">5a</text>
<text transform="matrix(1 0 0 1 492.9388 244.7963)" class="st0 st1 st3">5b</text>
<text transform="matrix(1 0 0 1 525.3311 328.7014)" class="st0 st1 st3">6a</text>
<text transform="matrix(1 0 0 1 600.3239 273.4673)" class="st0 st1 st3">6b</text>
<text transform="matrix(1 0 0 1 1017.6459 315.5931)" class="st0 st1 st3">7</text>
<text transform="matrix(1 0 0 1 1123.3754 302.8175)" class="st0 st1 st3">8a</text>
<text transform="matrix(1 0 0 1 1202.5245 323.6868)" class="st0 st1 st3">8b</text>
<text transform="matrix(1 0 0 1 1308.3577 315.5935)" class="st0 st1 st3">9</text>
<text transform="matrix(1 0 0 1 1503.2588 390.1903)" class="st0 st1 st3">10</text>
<text transform="matrix(1 0 0 1 1793.6362 328.7013)" class="st0 st1 st3">11</text>
<text transform="matrix(1 0 0 1 1869.4451 416.4487)" class="st0 st1 st3">12</text>
<text transform="matrix(1 0 0 1 965.1727 823.2756)" class="st0 st1 st3">13</text>
<text transform="matrix(1 0 0 1 1170.4032 640.2344)" class="st0 st1 st3">14</text>
<text transform="matrix(1 0 0 1 1282.5902 578.7998)" class="st0 st1 st3">15a</text>
<text transform="matrix(1 0 0 1 1295.3512 534.8413)" class="st0 st1 st3">15b</text>
<text transform="matrix(1 0 0 1 1341.1375 490.797)" class="st0 st1 st3">16</text>
<text transform="matrix(1 0 0 1 1036.0061 387.1814)" class="st0 st1 st3">17c</text>
<text transform="matrix(1 0 0 1 960.0002 464.913)" class="st0 st1 st3">17d</text>
<text transform="matrix(1 0 0 1 848.1149 525.5286)" class="st0 st1 st3">18a</text>
<text transform="matrix(1 0 0 1 876.3383 647.662)" class="st0 st1 st3">18b</text>
<text transform="matrix(1 0 0 1 800.1818 743.1982)" class="st0 st1 st3">19a</text>
<text transform="matrix(1 0 0 1 818.1983 876.8287)" class="st0 st1 st3">19b</text>
<text transform="matrix(1 0 0 1 678.394 897.5817)" class="st0 st1 st3">20</text>
<text transform="matrix(1 0 0 1 586.8133 934.1703)" class="st0 st1 st3">21</text>
<text transform="matrix(1 0 0 1 450.5599 963.1963)" class="st0 st1 st3">22a</text>
<text transform="matrix(1 0 0 1 335.7533 950.2034)" class="st0 st1 st3">22b</text>
<text transform="matrix(1 0 0 1 271.5674 934.6021)" class="st0 st1 st3">23</text>
<text transform="matrix(1 0 0 1 1141.4403 390.1907)" class="st0 st1 st3">17a</text>
<text transform="matrix(1 0 0 1 1082.8571 445.7281)" class="st0 st1 st3">17b</text>
<text transform="matrix(0.8768 -0.4808 0.4808 0.8768 1781.4399 497.78)" class="st0 st1 st2">Oak Tree</text>
<text transform="matrix(0.8768 -0.4808 0.4808 0.8768 1821.6417 475.7336)" class="st0 st1 st2"> </text>
<text transform="matrix(0.8768 -0.4808 0.4808 0.8768 1458.6907 675.0269)" class="st0 st1 st2">Back straight</text>
<text transform="matrix(0.8768 -0.4808 0.4808 0.8768 1490.6149 695.2686)" class="st0 st1 st2"> </text>
</svg>
