<?xml version="1.0" encoding="utf-8"?>
<!-- Generator: Adobe Illustrator 24.0.1, SVG Export Plug-In . SVG Version: 6.00 Build 0)  -->
<svg version="1.1" id="North_-_Turns" xmlns="http://www.w3.org/2000/svg" xmlns:xlink="http://www.w3.org/1999/xlink" x="0px"
	 y="0px" viewBox="0 0 1920 1080" style="enable-background:new 0 0 1920 1080;" xml:space="preserve">
<style type="text/css">
	.st0{fill:#FFFFFF;}
	.st1{font-family:'ArialMT';}
	.st2{font-size:25px;}
	.st3{font-size:36px;}
</style>
<title>turns</title>
<text transform="matrix(1 0 0 1 160.24 63.09)" class="st0 st1 st2">Horse Shoe</text>
<text transform="matrix(1 0 0 1 359.86 391.66)" class="st0 st1 st2">Left Hook</text>
<text transform="matrix(1 0 0 1 511.38 319.08)" class="st0 st1 st2">Snake</text>
<text transform="matrix(1 0 0 1 881.75 392.15)" class="st0 st1 st2">Up Hill</text>
<text transform="matrix(1 0 0 1 254.98 1024.66)" class="st0 st1 st2">Hog Pen</text>
<text transform="matrix(1 0 0 1 112.14 451.98)" class="st0 st1 st2">NASCAR</text>
<text transform="matrix(1 0 0 1 112.14 481.88)" class="st0 st1 st2">Bend</text>
<text transform="matrix(1 0 0 1 681 971.13)" class="st0 st1 st2">Roller</text>
<text transform="matrix(1 0 0 1 681 1001.03)" class="st0 st1 st2">Coaster</text>
<text transform="matrix(1 0 0 1 110.45 98.25)" class="st0 st1 st3">1</text>
<text transform="matrix(1 0 0 1 132.38 300.63)" class="st0 st1 st3">2</text>
<text transform="matrix(1 0 0 1 166.41 400.98)" class="st0 st1 st3">3</text>
<text transform="matrix(1 0 0 1 307.56 366.65)" class="st0 st1 st3">4</text>
<text transform="matrix(1 0 0 1 348.28 321.65)" class="st0 st1 st3">5</text>
<text transform="matrix(1 0 0 1 412.24 290.61)" class="st0 st1 st3">5a</text>
<text transform="matrix(1 0 0 1 497 258.88)" class="st0 st1 st3">6</text>
<text transform="matrix(1 0 0 1 597.63 281.47)" class="st0 st1 st3">6a</text>
<text transform="matrix(1 0 0 1 989.69 383.64)" class="st0 st1 st3">7</text>
<text transform="matrix(1 0 0 1 946.84 484.98)" class="st0 st1 st3">8</text>
<text transform="matrix(1 0 0 1 884.76 537.55)" class="st0 st1 st3">9</text>
<text transform="matrix(1 0 0 1 871.93 656.26)" class="st0 st1 st3">10</text>
<text transform="matrix(1 0 0 1 824.62 734.64)" class="st0 st1 st3">11</text>
<text transform="matrix(1 0 0 1 797.01 793.57)" class="st0 st1 st3">12</text>
<text transform="matrix(1 0 0 1 732.18 834.25)" class="st0 st1 st3">12a</text>
<text transform="matrix(1 0 0 1 760.17 917.78)" class="st0 st1 st3">14</text>
<text transform="matrix(1 0 0 1 662.51 908.05)" class="st0 st1 st3">14a</text>
<text transform="matrix(1 0 0 1 575.5 917.03)" class="st0 st1 st3">15</text>
<text transform="matrix(1 0 0 1 439.91 953.37)" class="st0 st1 st3">16</text>
<text transform="matrix(1 0 0 1 357.12 965.73)" class="st0 st1 st3">17</text>
<text transform="matrix(1 0 0 1 265.08 943.63)" class="st0 st1 st3">17a</text>
</svg>
