<?xml version="1.0" encoding="utf-8"?>
<!-- Generator: Adobe Illustrator 27.2.0, SVG Export Plug-In . SVG Version: 6.00 Build 0)  -->
<svg version="1.1" id="moto_-_Turns" xmlns="http://www.w3.org/2000/svg" xmlns:xlink="http://www.w3.org/1999/xlink" x="0px"
	 y="0px" viewBox="0 0 1920 1080" style="enable-background:new 0 0 1920 1080;" xml:space="preserve">
<style type="text/css">
	.st0{fill:#FFFFFF;}
	.st1{font-family:'ArialMT';}
	.st2{font-size:36px;}
	.st3{letter-spacing:-2;}
</style>
<text transform="matrix(1 0 0 1 955.84 162.47)" class="st0 st1 st2">1</text>
<text transform="matrix(1 0 0 1 1477.47 557.72)" class="st0 st1 st2">Sito Pons</text>
<text transform="matrix(1 0 0 1 1152.1801 662.04)" class="st0 st1 st2">Lorenzo</text>
<text transform="matrix(1 0 0 1 1067.76 160.13)" class="st0 st1 st2">2</text>
<text transform="matrix(1 0 0 1 1086.05 246.97)" class="st0 st1 st2">3</text>
<text transform="matrix(1 0 0 1 1105.41 385.31)" class="st0 st1 st2">4</text>
<text transform="matrix(1 0 0 1 1398.12 556.62)" class="st0 st1 st2">5</text>
<text transform="matrix(1 0 0 1 992.11 927.48)" class="st0 st1 st2">6</text>
<text transform="matrix(1 0 0 1 993.48 748.44)" class="st0 st1 st2">7</text>
<text transform="matrix(1 0 0 1 844.12 596.48)" class="st0 st1 st2">8</text>
<text transform="matrix(1 0 0 1 690.47 748.44)" class="st0 st1 st2">9</text>
<text transform="matrix(1 0 0 1 631.75 706.67)" class="st0 st1 st2">10</text>
<text transform="matrix(1 0 0 1 742.73 506.6)" class="st0 st1 st2 st3">11</text>
<text transform="matrix(1 0 0 1 876.15 518.13)" class="st0 st1 st2">12</text>
<text transform="matrix(1 0 0 1 1123.7 727.31)" class="st0 st1 st2">13</text>
<text transform="matrix(1 0 0 1 817.39 646.9)" class="st0 st1 st2">Aspar</text>
<text transform="matrix(1 0 0 1 623.83 837.92)" class="st0 st1 st2">Ángel Nieto</text>
<text transform="matrix(1 0 0 1 562.15 430.31)" class="st0 st1 st2">Àlex Crivillé</text>
<text transform="matrix(1 0 0 1 876.6 443.83)" class="st0 st1 st2">Ferrari</text>
<text transform="matrix(1 0 0 1 460.73 732.28)" class="st0 st1 st2">Peluqui</text>
<text transform="matrix(1 0 0 1 765.77 109.46)" class="st0 st1 st2">Expo ‘92</text>
<text transform="matrix(1 0 0 1 858.47 1009.3)" class="st0 st1 st2">Dry Sack</text>
</svg>
