<?xml version="1.0" encoding="utf-8"?>
<!-- Generator: Adobe Illustrator 27.4.1, SVG Export Plug-In . SVG Version: 6.00 Build 0)  -->
<svg version="1.1" id="West_-_turns" xmlns="http://www.w3.org/2000/svg" xmlns:xlink="http://www.w3.org/1999/xlink" x="0px"
	 y="0px" viewBox="0 0 1920 1080" style="enable-background:new 0 0 1920 1080;" xml:space="preserve">
<style type="text/css">
	.st0{fill:#FFFFFF;}
	.st1{font-family:'ArialMT';}
	.st2{font-size:36px;}
	.st3{letter-spacing:-2;}
</style>
<text transform="matrix(1 0 0 1 657.5 412.41)" class="st0 st1 st2">1</text>
<text transform="matrix(1 0 0 1 585.16 404.88)" class="st0 st1 st2">2</text>
<text transform="matrix(1 0 0 1 540.23 509.6)" class="st0 st1 st2">3</text>
<text transform="matrix(1 0 0 1 484.8 614.75)" class="st0 st1 st2">4</text>
<text transform="matrix(1 0 0 1 350.92 443.44)" class="st0 st1 st2">5</text>
<text transform="matrix(1 0 0 1 291.02 396.82)" class="st0 st1 st2">6</text>
<text transform="matrix(1 0 0 1 200.15 459.34)" class="st0 st1 st2">7</text>
<text transform="matrix(1 0 0 1 294.62 609.68)" class="st0 st1 st2">8</text>
<text transform="matrix(1 0 0 1 482.29 735.73)" class="st0 st1 st2">9</text>
<text transform="matrix(1 0 0 1 590.78 711.95)" class="st0 st1 st2">10</text>
<text transform="matrix(1 0 0 1 691.3 649.38)" class="st0 st1 st2 st3">11</text>
<text transform="matrix(1 0 0 1 764.41 601.36)" class="st0 st1 st2">12</text>
<text transform="matrix(1 0 0 1 265.15 323.07)" class="st0 st1 st2">Sacacorchos</text>
<text transform="matrix(1 0 0 1 15.13 383.89)" class="st0 st1 st2">Marc</text>
<text transform="matrix(1 0 0 1 15.13 424.04)" class="st0 st1 st2">Márquez</text>
</svg>
