<?xml version="1.0" encoding="utf-8"?>
<!-- Generator: Adobe Illustrator 27.4.1, SVG Export Plug-In . SVG Version: 6.00 Build 0)  -->
<svg version="1.1" id="Moto_Grand_Prix_-_turns" xmlns="http://www.w3.org/2000/svg" xmlns:xlink="http://www.w3.org/1999/xlink"
	 x="0px" y="0px" viewBox="0 0 1920 1080" style="enable-background:new 0 0 1920 1080;" xml:space="preserve">
<style type="text/css">
	.st0{fill:#FFFFFF;}
	.st1{font-family:'ArialMT';}
	.st2{font-size:36px;}
	.st3{letter-spacing:-2;}
</style>
<text transform="matrix(1 0 0 1 1095.11 442.78)" class="st0 st1 st2">1</text>
<text transform="matrix(1 0 0 1 984.89 497)" class="st0 st1 st2">2</text>
<text transform="matrix(1 0 0 1 826.67 521.39)" class="st0 st1 st2">3</text>
<text transform="matrix(1 0 0 1 669.24 419.77)" class="st0 st1 st2">4</text>
<text transform="matrix(1 0 0 1 581.24 401.55)" class="st0 st1 st2">5</text>
<text transform="matrix(1 0 0 1 543.76 514)" class="st0 st1 st2">6</text>
<text transform="matrix(1 0 0 1 482.57 618)" class="st0 st1 st2">7</text>
<text transform="matrix(1 0 0 1 347.13 441.85)" class="st0 st1 st2">8</text>
<text transform="matrix(1 0 0 1 265.15 323.07)" class="st0 st1 st2">Sacacorchos</text>
<text transform="matrix(1 0 0 1 15.13 383.89)" class="st0 st1 st2">Marc</text>
<text transform="matrix(1 0 0 1 15.13 424.04)" class="st0 st1 st2">Márquez</text>
<text transform="matrix(1 0 0 1 294.9 397.89)" class="st0 st1 st2">9</text>
<text transform="matrix(1 0 0 1 189.24 453.89)" class="st0 st1 st2">10</text>
<text transform="matrix(1 0 0 1 287.02 617.99)" class="st0 st1 st2 st3">11</text>
<text transform="matrix(1 0 0 1 463.9 728.22)" class="st0 st1 st2">12</text>
<text transform="matrix(1 0 0 1 592.79 710.68)" class="st0 st1 st2">13</text>
<text transform="matrix(1 0 0 1 711.9 732.74)" class="st0 st1 st2">14</text>
<text transform="matrix(1 0 0 1 800.1 740.9)" class="st0 st1 st2">15</text>
<text transform="matrix(1 0 0 1 1541.58 646.89)" class="st0 st1 st2">16</text>
<text transform="matrix(1 0 0 1 1549.4399 553.05)" class="st0 st1 st2">17</text>
</svg>
