<?xml version="1.0" encoding="utf-8"?>
<!-- Generator: Adobe Illustrator 27.4.1, SVG Export Plug-In . SVG Version: 6.00 Build 0)  -->
<svg version="1.1" id="Moto_National_-_turns" xmlns="http://www.w3.org/2000/svg" xmlns:xlink="http://www.w3.org/1999/xlink"
	 x="0px" y="0px" viewBox="0 0 1920 1080" style="enable-background:new 0 0 1920 1080;" xml:space="preserve">
<style type="text/css">
	.st0{fill:#FFFFFF;}
	.st1{font-family:'ArialMT';}
	.st2{font-size:36px;}
	.st3{letter-spacing:-2;}
</style>
<text transform="matrix(1 0 0 1 1095.11 442.78)" class="st0 st1 st2">1</text>
<text transform="matrix(1 0 0 1 984.89 497)" class="st0 st1 st2">2</text>
<text transform="matrix(1 0 0 1 914.73 602.27)" class="st0 st1 st2">3</text>
<text transform="matrix(1 0 0 1 919.55 644.74)" class="st0 st1 st2">4</text>
<text transform="matrix(1 0 0 1 1006.67 707.26)" class="st0 st1 st2">5</text>
<text transform="matrix(1 0 0 1 1086.4301 710.94)" class="st0 st1 st2">6</text>
<text transform="matrix(1 0 0 1 1169.49 701.37)" class="st0 st1 st2">7</text>
<text transform="matrix(1 0 0 1 1239.14 720.77)" class="st0 st1 st2">8</text>
<text transform="matrix(1 0 0 1 1309.25 715.98)" class="st0 st1 st2">9</text>
<text transform="matrix(1 0 0 1 1404.11 671.92)" class="st0 st1 st2">10</text>
<text transform="matrix(1 0 0 1 1554.26 646.2)" class="st0 st1 st2 st3">11</text>
<text transform="matrix(1 0 0 1 1549.4399 553.05)" class="st0 st1 st2">12</text>
</svg>
