<?xml version="1.0" encoding="utf-8"?>
<!-- Generator: Adobe Illustrator 24.0.1, SVG Export Plug-In . SVG Version: 6.00 Build 0)  -->
<svg version="1.1" id="Cup_Historic_-_Turns" xmlns="http://www.w3.org/2000/svg" xmlns:xlink="http://www.w3.org/1999/xlink"
	 x="0px" y="0px" viewBox="0 0 1920 1080" style="enable-background:new 0 0 1920 1080;" xml:space="preserve">
<style type="text/css">
	.st0{fill:#FFFFFF;}
	.st1{font-family:'ArialMT';}
	.st2{font-size:36px;}
	.st3{letter-spacing:-2;}
</style>
<title>turns</title>
<text transform="matrix(1 0 0 1 789.48 588.04)" class="st0 st1 st2">1</text>
<text transform="matrix(1 0 0 1 980.4 331.61)" class="st0 st1 st2">2</text>
<text transform="matrix(1 0 0 1 1292.4301 288.46)" class="st0 st1 st2">3</text>
<text transform="matrix(1 0 0 1 1430.09 293.79)" class="st0 st1 st2">4</text>
<text transform="matrix(1 0 0 1 1743.15 391.71)" class="st0 st1 st2">5</text>
<text transform="matrix(1 0 0 1 1754.62 739.76)" class="st0 st1 st2">6</text>
<text transform="matrix(1 0 0 1 1656.98 777.24)" class="st0 st1 st2">7</text>
<text transform="matrix(1 0 0 1 1348.46 791.04)" class="st0 st1 st2">8</text>
<text transform="matrix(1 0 0 1 1168.12 789.04)" class="st0 st1 st2">8a</text>
<text transform="matrix(1 0 0 1 799.2 782.15)" class="st0 st1 st2">9</text>
<text transform="matrix(1 0 0 1 534.04 798.33)" class="st0 st1 st2">10</text>
<text transform="matrix(1 0 0 1 137.38 543.67)" class="st0 st1 st2 st3">11</text>
<text transform="matrix(1 0 0 1 391.04 611.67)" class="st0 st1 st2">12</text>
</svg>
