<?xml version="1.0" encoding="utf-8"?>
<!-- Generator: Adobe Illustrator 27.4.1, SVG Export Plug-In . SVG Version: 6.00 Build 0)  -->
<svg version="1.1" id="willow_-_Turns" xmlns="http://www.w3.org/2000/svg" xmlns:xlink="http://www.w3.org/1999/xlink" x="0px"
	 y="0px" viewBox="0 0 1920 1080" style="enable-background:new 0 0 1920 1080;" xml:space="preserve">
<style type="text/css">
	.st0{fill:#FFFFFF;}
	.st1{font-family:'ArialMT';}
	.st2{font-size:36px;}
	.st3{font-size:24px;}
</style>
<text transform="matrix(1 0 0 1 697.75 563.83)" class="st0 st1 st2">1</text>
<text transform="matrix(1 0 0 1 276.75 717.83)" class="st0 st1 st2">2</text>
<text transform="matrix(1 0 0 1 262.52 854)" class="st0 st1 st3">Rabbit’s Ear</text>
<text transform="matrix(1 0 0 1 633.2 467.03)" class="st0 st1 st3">Castrol Corner</text>
<text transform="matrix(1 0 0 1 400.07 88.04)" class="st0 st1 st3">Budweiser Balcony</text>
<text transform="matrix(1 0 0 1 878.99 218.92)" class="st0 st1 st3">Monroe Ridge</text>
<text transform="matrix(1 0 0 1 1253.85 292.46)" class="st0 st1 st3">Wing’s Leg</text>
<text transform="matrix(1 0 0 1 1651.01 450.84)" class="st0 st1 st3">The Sweeper</text>
<text transform="matrix(1 0 0 1 493.75 346.16)" class="st0 st1 st2">3</text>
<text transform="matrix(1 0 0 1 492.75 185.16)" class="st0 st1 st2">4</text>
<text transform="matrix(1 0 0 1 751.75 274.16)" class="st0 st1 st2">5</text>
<text transform="matrix(1 0 0 1 944.75 314.16)" class="st0 st1 st2">6</text>
<text transform="matrix(1 0 0 1 1305.75 346.16)" class="st0 st1 st2">7</text>
<text transform="matrix(1 0 0 1 1569.75 506.16)" class="st0 st1 st2">8</text>
<text transform="matrix(1 0 0 1 1519.75 919.16)" class="st0 st1 st2">9</text>
</svg>
