<?xml version="1.0" encoding="utf-8"?>
<!-- Generator: Adobe Illustrator 25.2.3, SVG Export Plug-In . SVG Version: 6.00 Build 0)  -->
<svg version="1.1" id="chicago_-_turns" xmlns="http://www.w3.org/2000/svg" xmlns:xlink="http://www.w3.org/1999/xlink" x="0px"
	 y="0px" viewBox="0 0 1920 1080" style="enable-background:new 0 0 1920 1080;" xml:space="preserve">
<style type="text/css">
	.st0{fill:#FFFFFF;}
	.st1{font-family:'ArialMT';}
	.st2{font-size:36px;}
	.st3{letter-spacing:-2;}
</style>
<text transform="matrix(1 0 0 1 983.18 595.23)" class="st0 st1 st2">1</text>
<text transform="matrix(1 0 0 1 886.83 820.44)" class="st0 st1 st2">2</text>
<text transform="matrix(1 0 0 1 492.72 809.61)" class="st0 st1 st2">3</text>
<text transform="matrix(1 0 0 1 269.03 674.2)" class="st0 st1 st2">4</text>
<text transform="matrix(1 0 0 1 269.03 591.89)" class="st0 st1 st2">5</text>
<text transform="matrix(1 0 0 1 886.83 500.59)" class="st0 st1 st2">6</text>
<text transform="matrix(1 0 0 1 983.17 254.41)" class="st0 st1 st2">7</text>
<text transform="matrix(1 0 0 1 1061.91 254.41)" class="st0 st1 st2">8</text>
<text transform="matrix(1 0 0 1 1420.4 254.42)" class="st0 st1 st2">10</text>
<text transform="matrix(1 0 0 1 1511.25 254.41)" class="st0 st1 st2 st3">11</text>
<text transform="matrix(1 0 0 1 1509.91 495.59)" class="st0 st1 st2">12</text>
<text transform="matrix(1 0 0 1 1256.7 254.41)" class="st0 st1 st2">9</text>
</svg>
