<?xml version="1.0" encoding="utf-8"?>
<!-- Generator: Adobe Illustrator 27.8.1, SVG Export Plug-In . SVG Version: 6.00 Build 0)  -->
<svg version="1.1" id="turns" xmlns="http://www.w3.org/2000/svg" xmlns:xlink="http://www.w3.org/1999/xlink" x="0px" y="0px"
	 viewBox="0 0 1920 1080" style="enable-background:new 0 0 1920 1080;" xml:space="preserve">
<style type="text/css">
	.st0{fill:#FFFFFF;}
	.st1{font-family:'ArialMT';}
	.st2{font-size:36px;}
	.st3{font-size:24px;}
</style>
<text transform="matrix(1 0 0 1 1420.85 848.86)" class="st0 st1 st2">1</text>
<text transform="matrix(1 0 0 1 1289.83 614.86)" class="st0 st1 st2">4</text>
<text transform="matrix(1 0 0 1 939.6 734.88)" class="st0 st1 st2">5</text>
<text transform="matrix(1 0 0 1 1339.4399 302.1)" class="st0 st1 st2">6</text>
<text transform="matrix(1 0 0 1 1015.8 331.8)" class="st0 st1 st2">7</text>
<text transform="matrix(1 0 0 1 802.42 711.07)" class="st0 st1 st2">8</text>
<text transform="matrix(1 0 0 1 1609.1 629.68)" class="st0 st1 st3">Triple Gauche</text>
<text transform="matrix(1 0 0 1 853.84 765.79)" class="st0 st1 st3">Virage du Pont</text>
<text transform="matrix(1 0 0 1 564.08 709.43)" class="st0 st1 st3">Virage du Camion</text>
<text transform="matrix(1 0 0 1 625.31 612.3538)" class="st0 st1 st3">Le Cavalet</text>
<text transform="matrix(1 0 0 1 235.67 755.59)" class="st0 st1 st3">La cuvette</text>
<text transform="matrix(1 0 0 1 881.75 108.24)" class="st0 st1 st3">La servie</text>
<text transform="matrix(1 0 0 1 1065.15 381.54)" class="st0 st1 st3">La Courmelle</text>
<text transform="matrix(1 0 0 1 1372.24 301.1)" class="st0 st1 st3">La Carrierasse</text>
<text transform="matrix(1 0 0 1 594.08 612.21)" class="st0 st1 st2">9</text>
<text transform="matrix(1 0 0 1 852.9 347.63)" class="st0 st1 st2">10</text>
<text transform="matrix(1 0 0 1 838.1 108.24)" class="st0 st1 st2">11</text>
<text transform="matrix(1 0 0 1 722 276.21)" class="st0 st1 st2">12</text>
<text transform="matrix(1 0 0 1 507.27 407.43)" class="st0 st1 st2">13</text>
<text transform="matrix(1 0 0 1 320.93 717.22)" class="st0 st1 st2">14</text>
<text transform="matrix(1 0 0 1 563.75 793.9)" class="st0 st1 st2">15</text>
<text transform="matrix(1 0 0 1 1578.8101 632.51)" class="st0 st1 st2">2</text>
<text transform="matrix(1 0 0 1 1393.29 422.78)" class="st0 st1 st2">3</text>
</svg>
