<?xml version="1.0" encoding="utf-8"?>
<!-- Generator: Adobe Illustrator 28.0.0, SVG Export Plug-In . SVG Version: 6.00 Build 0)  -->
<svg version="1.1" id="a" xmlns="http://www.w3.org/2000/svg" xmlns:xlink="http://www.w3.org/1999/xlink" x="0px" y="0px"
	 viewBox="0 0 1920 1080" style="enable-background:new 0 0 1920 1080;" xml:space="preserve">
<style type="text/css">
	.st0{fill:#FFFFFF;}
	.st1{font-family:'ArialMT';}
	.st2{font-size:36px;}
	.st3{font-size:24px;}
	.st4{letter-spacing:-2;}
</style>
<text transform="matrix(1 0 0 1 299.59 348.81)" class="st0 st1 st2">1</text>
<text transform="matrix(1 0 0 1 201.95 375.23)" class="st0 st1 st3">San Donato</text>
<text transform="matrix(1 0 0 1 490.46 257.5)" class="st0 st1 st2">2</text>
<text transform="matrix(1 0 0 1 474.09 284.19)" class="st0 st1 st3">Luco</text>
<text transform="matrix(1 0 0 1 611.8 258.39)" class="st0 st1 st2">3</text>
<text transform="matrix(1 0 0 1 584.45 285.07)" class="st0 st1 st3">Poggio</text>
<text transform="matrix(1 0 0 1 588.46 313.87)" class="st0 st1 st3">Secco</text>
<text transform="matrix(1 0 0 1 909.84 329.9)" class="st0 st1 st2">4</text>
<text transform="matrix(1 0 0 1 1009.48 364.3)" class="st0 st1 st2">5</text>
<text transform="matrix(1 0 0 1 1230.48 512.35)" class="st0 st1 st2">6</text>
<text transform="matrix(1 0 0 1 1324.02 604.34)" class="st0 st1 st2">7</text>
<text transform="matrix(1 0 0 1 871.42 391.47)" class="st0 st1 st3">Materassi</text>
<text transform="matrix(1 0 0 1 1153.65 540)" class="st0 st1 st3">Casanova</text>
<text transform="matrix(1 0 0 1 1351.36 604.34)" class="st0 st1 st3">Savelli</text>
<text transform="matrix(1 0 0 1 1564.97 723.99)" class="st0 st1 st2">8</text>
<text transform="matrix(1 0 0 1 1591.4301 723.99)" class="st0 st1 st3">Arrabbiata 1</text>
<text transform="matrix(1 0 0 1 1507.5699 970.37)" class="st0 st1 st2">9</text>
<text transform="matrix(1 0 0 1 1534.03 970.37)" class="st0 st1 st3">Arrabbiata 2</text>
<text transform="matrix(1 0 0 1 1108.35 946.39)" class="st0 st1 st2">10</text>
<text transform="matrix(1 0 0 1 1079.46 977.02)" class="st0 st1 st3">Scarperia</text>
<text transform="matrix(1 0 0 1 1090.33 848.89)" class="st0 st1 st2 st4">11</text>
<text transform="matrix(1 0 0 1 1054.1801 875.26)" class="st0 st1 st3">Palagio</text>
<text transform="matrix(1 0 0 1 804.4 702.87)" class="st0 st1 st2">12</text>
<text transform="matrix(1 0 0 1 971.85 689.6)" class="st0 st1 st2">13</text>
<text transform="matrix(1 0 0 1 1053.71 686.52)" class="st0 st1 st2">14</text>
<text transform="matrix(1 0 0 1 1396.72 836.12)" class="st0 st1 st2">15</text>
<text transform="matrix(1 0 0 1 642.41 694.64)" class="st0 st1 st3">Correntaio</text>
<text transform="matrix(1 0 0 1 936.17 736.77)" class="st0 st1 st3">Biondetti 1</text>
<text transform="matrix(1 0 0 1 1380.65 858.7)" class="st0 st1 st3">Bucine</text>
<text transform="matrix(1 0 0 1 1103.54 710.38)" class="st0 st1 st3">Biondetti 2</text>
<text transform="matrix(1 0 0 1 996.04 270.44)" class="st0 st1 st3">Borgo</text>
<text transform="matrix(1 0 0 1 953.34 299.24)" class="st0 st1 st3">San Loreenzo</text>
</svg>
