<?xml version="1.0" encoding="utf-8"?>
<!-- Generator: Adobe Illustrator 24.0.1, SVG Export Plug-In . SVG Version: 6.00 Build 0)  -->
<svg version="1.1" id="Bend_-_Turns" xmlns="http://www.w3.org/2000/svg" xmlns:xlink="http://www.w3.org/1999/xlink" x="0px"
	 y="0px" viewBox="0 0 1920 1080" style="enable-background:new 0 0 1920 1080;" xml:space="preserve">
<style type="text/css">
	.st0{fill:#FFFFFF;}
	.st1{font-family:'ArialMT';}
	.st2{font-size:36px;}
	.st3{letter-spacing:-2;}
</style>
<title>turns</title>
<text transform="matrix(1 0 0 1 441.48 972.04)" class="st0 st1 st2">1</text>
<text transform="matrix(1 0 0 1 403.74 788.61)" class="st0 st1 st2">2</text>
<text transform="matrix(1 0 0 1 401.76 648.46)" class="st0 st1 st2">3</text>
<text transform="matrix(1 0 0 1 686.08 693.46)" class="st0 st1 st2">3a</text>
<text transform="matrix(1 0 0 1 1083.98 749.89)" class="st0 st1 st2">4</text>
<text transform="matrix(1 0 0 1 1307.15 809.71)" class="st0 st1 st2">5</text>
<text transform="matrix(1 0 0 1 1301.62 627.31)" class="st0 st1 st2">6</text>
<text transform="matrix(1 0 0 1 1151.3101 551.57)" class="st0 st1 st2">7</text>
<text transform="matrix(1 0 0 1 903.98 364.22)" class="st0 st1 st2">8</text>
<text transform="matrix(1 0 0 1 743.82 363.71)" class="st0 st1 st2">9</text>
<text transform="matrix(1 0 0 1 681.64 245.33)" class="st0 st1 st2">10</text>
<text transform="matrix(1 0 0 1 1019.97 181.91)" class="st0 st1 st2 st3">11</text>
<text transform="matrix(1 0 0 1 1281.29 284.56)" class="st0 st1 st2 st3">11a</text>
<text transform="matrix(1 0 0 1 1428.13 385.38)" class="st0 st1 st2 st3">11b</text>
<text transform="matrix(1 0 0 1 1579.3101 537.33)" class="st0 st1 st2">12</text>
<text transform="matrix(1 0 0 1 1528.64 646.24)" class="st0 st1 st2">13</text>
<text transform="matrix(1 0 0 1 1551.97 759)" class="st0 st1 st2">13a</text>
<text transform="matrix(1 0 0 1 1489.3 985.24)" class="st0 st1 st2">14</text>
<text transform="matrix(1 0 0 1 887.03 62.13)" class="st0 st1 st2">Bend</text>
<text transform="matrix(1 0 0 1 1662.35 434.79)" class="st0 st1 st2">Canada</text>
<text transform="matrix(1 0 0 1 1664.05 479.79)" class="st0 st1 st2">Corner</text>
<text transform="matrix(1 0 0 1 1142.35 427.46)" class="st0 st1 st2">Kettle Bottoms</text>
<text transform="matrix(1 0 0 1 933.71 613.13)" class="st0 st1 st2">Hurry Downs</text>
<text transform="matrix(1 0 0 1 881.33 832.13)" class="st0 st1 st2">Moraine Sweep</text>
<text transform="matrix(1 0 0 1 463.7 281.46)" class="st0 st1 st2">Carousel</text>
</svg>
