<?xml version="1.0" encoding="utf-8"?>
<!-- Generator: Adobe Illustrator 28.1.0, SVG Export Plug-In . SVG Version: 6.00 Build 0)  -->
<svg version="1.1" id="EXAMPLE_-_Turns" xmlns="http://www.w3.org/2000/svg" xmlns:xlink="http://www.w3.org/1999/xlink" x="0px"
	 y="0px" viewBox="0 0 1920 1080" style="enable-background:new 0 0 1920 1080;" xml:space="preserve">
<style type="text/css">
	.st0{fill:#FFFFFF;}
	.st1{font-family:'ArialMT';}
	.st2{font-size:36px;}
	.st3{font-size:24px;}
	.st4{letter-spacing:-2;}
</style>
<text transform="matrix(1 0 0 1 808.67 632.6699)" class="st0 st1 st2">1</text>
<text transform="matrix(1 0 0 1 836.75 560.63)" class="st0 st1 st2">2</text>
<text transform="matrix(1 0 0 1 1098.38 399.46)" class="st0 st1 st3">Quercia</text>
<text transform="matrix(1 0 0 1 1129.67 437.4)" class="st0 st1 st2">3</text>
<text transform="matrix(1 0 0 1 768.5 152.11)" class="st0 st1 st3">T</text>
<text transform="matrix(1 0 0 1 782.27 152.11)" class="st0 st1 st3">ramonto</text>
<text transform="matrix(1 0 0 1 797.76 186.41)" class="st0 st1 st2">5</text>
<text transform="matrix(1 0 0 1 784.14 264.6)" class="st0 st1 st2">4</text>
<text transform="matrix(1 0 0 1 1440.34 355.22)" class="st0 st1 st3">Curvone</text>
<text transform="matrix(1 0 0 1 1468.97 389.16)" class="st0 st1 st2">6</text>
<text transform="matrix(1 0 0 1 1653.0601 686.8301)" class="st0 st1 st2">7</text>
<text transform="matrix(1 0 0 1 1658.7 923.42)" class="st0 st1 st2">8</text>
<text transform="matrix(1 0 0 1 1378.35 999.81)" class="st0 st1 st3">Carro</text>
<text transform="matrix(1 0 0 1 1398.41 1032.83)" class="st0 st1 st2">9</text>
<text transform="matrix(1 0 0 1 1508.76 774.5)" class="st0 st1 st2">10</text>
<text transform="matrix(1 0 0 1 1342.88 426.14)" class="st0 st1 st3">Misano</text>
<text transform="matrix(1 0 0 1 1360.16 459.1899)" class="st0 st1 st2 st4">1</text>
<text transform="matrix(1 0 0 1 1377.51 459.1899)" class="st0 st1 st2">1</text>
</svg>
