<?xml version="1.0" encoding="utf-8"?>
<!-- Generator: Adobe Illustrator 28.1.0, SVG Export Plug-In . SVG Version: 6.00 Build 0)  -->
<svg version="1.1" id="EXAMPLE_-_Turns" xmlns="http://www.w3.org/2000/svg" xmlns:xlink="http://www.w3.org/1999/xlink" x="0px"
	 y="0px" viewBox="0 0 1920 1080" style="enable-background:new 0 0 1920 1080;" xml:space="preserve">
<style type="text/css">
	.st0{fill:#FFFFFF;}
	.st1{font-family:'ArialMT';}
	.st2{font-size:24px;}
	.st3{font-size:36px;}
	.st4{letter-spacing:-1;}
</style>
<text transform="matrix(1 0 0 1 195.58 373.1)" class="st0 st1 st2">Rio</text>
<text transform="matrix(1 0 0 1 202.85 406.04)" class="st0 st1 st3">1</text>
<text transform="matrix(1 0 0 1 729.21 560.63)" class="st0 st1 st3">4</text>
<text transform="matrix(1 0 0 1 630.33 620.61)" class="st0 st1 st3">5</text>
<text transform="matrix(1 0 0 1 351.3 360.7)" class="st0 st1 st3">2</text>
<text transform="matrix(1 0 0 1 410.37 478.9399)" class="st0 st1 st3">3</text>
<text transform="matrix(1 0 0 1 379.97 672.6699)" class="st0 st1 st2 st4">V</text>
<text transform="matrix(1 0 0 1 394.2 672.6699)" class="st0 st1 st2">ariante</text>
<text transform="matrix(1 0 0 1 371.09 701.47)" class="st0 st1 st2">Del Parco</text>
<text transform="matrix(1 0 0 1 482.54 690.15)" class="st0 st1 st3">6</text>
</svg>
