<?xml version="1.0" encoding="utf-8"?>
<!-- Generator: Adobe Illustrator 28.1.0, SVG Export Plug-In . SVG Version: 6.00 Build 0)  -->
<svg version="1.1" id="EXAMPLE_-_Turns" xmlns="http://www.w3.org/2000/svg" xmlns:xlink="http://www.w3.org/1999/xlink" x="0px"
	 y="0px" viewBox="0 0 1920 1080" style="enable-background:new 0 0 1920 1080;" xml:space="preserve">
<style type="text/css">
	.st0{fill:#FFFFFF;}
	.st1{font-family:'ArialMT';}
	.st2{font-size:24px;}
	.st3{font-size:36px;}
	.st4{letter-spacing:-2;}
	.st5{letter-spacing:-1;}
</style>
<text transform="matrix(1 0 0 1 195.58 373.1)" class="st0 st1 st2">Rio</text>
<text transform="matrix(1 0 0 1 202.85 406.04)" class="st0 st1 st3">4</text>
<text transform="matrix(1 0 0 1 693.44 692.0701)" class="st0 st1 st3">1</text>
<text transform="matrix(1 0 0 1 630.33 620.61)" class="st0 st1 st3">2</text>
<text transform="matrix(1 0 0 1 351.3 360.7)" class="st0 st1 st3">5</text>
<text transform="matrix(1 0 0 1 410.37 478.9399)" class="st0 st1 st3">6</text>
<text transform="matrix(1 0 0 1 866 485.4399)" class="st0 st1 st3">7</text>
<text transform="matrix(1 0 0 1 1098.38 399.46)" class="st0 st1 st2">Quercia</text>
<text transform="matrix(1 0 0 1 1129.67 437.4)" class="st0 st1 st3">8</text>
<text transform="matrix(1 0 0 1 768.5 152.11)" class="st0 st1 st2">T</text>
<text transform="matrix(1 0 0 1 782.27 152.11)" class="st0 st1 st2">ramonto</text>
<text transform="matrix(1 0 0 1 797.76 186.41)" class="st0 st1 st3">10</text>
<text transform="matrix(1 0 0 1 784.14 264.6)" class="st0 st1 st3">9</text>
<text transform="matrix(1 0 0 1 1440.34 355.22)" class="st0 st1 st2">Curvone</text>
<text transform="matrix(1 0 0 1 1468.97 389.16)" class="st0 st1 st3 st4">1</text>
<text transform="matrix(1 0 0 1 1486.3199 389.16)" class="st0 st1 st3">1</text>
<text transform="matrix(1 0 0 1 1653.0601 686.8301)" class="st0 st1 st3">12</text>
<text transform="matrix(1 0 0 1 1663.67 865.67)" class="st0 st1 st3">13</text>
<text transform="matrix(1 0 0 1 1477.34 934.83)" class="st0 st1 st3">14</text>
<text transform="matrix(1 0 0 1 1508.76 774.5)" class="st0 st1 st3">15</text>
<text transform="matrix(1 0 0 1 1342.88 426.14)" class="st0 st1 st2">Misano</text>
<text transform="matrix(1 0 0 1 1360.16 459.1899)" class="st0 st1 st3">16</text>
<text transform="matrix(1 0 0 1 379.97 672.6699)" class="st0 st1 st2 st5">V</text>
<text transform="matrix(1 0 0 1 394.2 672.6699)" class="st0 st1 st2">ariante</text>
<text transform="matrix(1 0 0 1 371.09 701.47)" class="st0 st1 st2">Del Parco</text>
<text transform="matrix(1 0 0 1 482.54 690.15)" class="st0 st1 st3">3</text>
</svg>
