<?xml version="1.0" encoding="utf-8"?>
<!-- Generator: Adobe Illustrator 28.1.0, SVG Export Plug-In . SVG Version: 6.00 Build 0)  -->
<svg version="1.1" id="EXAMPLE_-_Turns" xmlns="http://www.w3.org/2000/svg" xmlns:xlink="http://www.w3.org/1999/xlink" x="0px"
	 y="0px" viewBox="0 0 1920 1080" style="enable-background:new 0 0 1920 1080;" xml:space="preserve">
<style type="text/css">
	.st0{fill:#FFFFFF;}
	.st1{font-family:'ArialMT';}
	.st2{font-size:36px;}
	.st3{letter-spacing:-2;}
	.st4{font-size:24px;}
</style>
<text transform="matrix(1 0 0 1 147.73 379.67)" class="st0 st1 st2">15</text>
<text transform="matrix(1 0 0 1 469.52 796.88)" class="st0 st1 st2">14</text>
<text transform="matrix(1 0 0 1 361.15 454.8101)" class="st0 st1 st2">13</text>
<text transform="matrix(1 0 0 1 598.12 613.4099)" class="st0 st1 st2">12</text>
<text transform="matrix(1 0 0 1 622.33 859)" class="st0 st1 st2 st3">1</text>
<text transform="matrix(1 0 0 1 639.68 859)" class="st0 st1 st2">1</text>
<text transform="matrix(1 0 0 1 778.23 895.18)" class="st0 st1 st2">10</text>
<text transform="matrix(1 0 0 1 960 646.27)" class="st0 st1 st2">9</text>
<text transform="matrix(1 0 0 1 1494.33 706.46)" class="st0 st1 st2">8</text>
<text transform="matrix(1 0 0 1 1361.96 496.49)" class="st0 st1 st2">7</text>
<text transform="matrix(1 0 0 1 1089.36 602.1899)" class="st0 st1 st2">6</text>
<text transform="matrix(1 0 0 1 868.78 458.67)" class="st0 st1 st2">5</text>
<text transform="matrix(1 0 0 1 1541.46 403.6)" class="st0 st1 st2">4</text>
<text transform="matrix(1 0 0 1 1622.1801 635.89)" class="st0 st1 st2">3</text>
<text transform="matrix(1 0 0 1 1754.5699 419.67)" class="st0 st1 st2">2</text>
<text transform="matrix(1 0 0 1 1642.62 194.04)" class="st0 st1 st4">Primeira</text>
<text transform="matrix(1 0 0 1 1676.5601 231.98)" class="st0 st1 st2">1</text>
<text transform="matrix(1 0 0 1 1599.97 659.6699)" class="st0 st1 st4">Lagos</text>
<text transform="matrix(1 0 0 1 1519.86 706.46)" class="st0 st1 st4">Samsung</text>
<text transform="matrix(1 0 0 1 666.09 895.18)" class="st0 st1 st4">Portimão</text>
<text transform="matrix(1 0 0 1 128.67 403.6)" class="st0 st1 st4">Galp</text>
<text transform="matrix(1 0 0 1 453.65 823.3)" class="st0 st1 st4">Sagres</text>
<text transform="matrix(1 0 0 1 767.07 454.8101)" class="st0 st1 st4 st3">T</text>
<text transform="matrix(1 0 0 1 779.07 454.8101)" class="st0 st1 st4">orre </text>
<text transform="matrix(1 0 0 1 828.42 454.8101)" class="st0 st1 st4">V</text>
<text transform="matrix(1 0 0 1 843.99 454.8101)" class="st0 st1 st4">ip</text>
</svg>
