<?xml version="1.0" encoding="utf-8"?>
<!-- Generator: Adobe Illustrator 24.0.1, SVG Export Plug-In . SVG Version: 6.00 Build 0)  -->
<svg version="1.1" id="GP_Pits_-_Turns" xmlns="http://www.w3.org/2000/svg" xmlns:xlink="http://www.w3.org/1999/xlink" x="0px"
	 y="0px" viewBox="0 0 1920 1080" style="enable-background:new 0 0 1920 1080;" xml:space="preserve">
<style type="text/css">
	.st0{fill:#FFFFFF;}
	.st1{font-family:'ArialMT';}
	.st2{font-size:36px;}
	.st3{letter-spacing:-2;}
</style>
<title>turns</title>
<text transform="matrix(1 0 0 1 334.71 274.15)" class="st0 st1 st2">1</text>
<text transform="matrix(1 0 0 1 645.85 97.16)" class="st0 st1 st2">2</text>
<text transform="matrix(1 0 0 1 728.2 136.13)" class="st0 st1 st2">3</text>
<text transform="matrix(1 0 0 1 814.87 86)" class="st0 st1 st2">4</text>
<text transform="matrix(1 0 0 1 1521.8199 242.49)" class="st0 st1 st2">5</text>
<text transform="matrix(1 0 0 1 1590.1801 244.72)" class="st0 st1 st2">6</text>
<text transform="matrix(1 0 0 1 1641.87 333.57)" class="st0 st1 st2">7</text>
<text transform="matrix(1 0 0 1 1661.98 521.33)" class="st0 st1 st2">8</text>
<text transform="matrix(1 0 0 1 1591.48 447.71)" class="st0 st1 st2">9</text>
<text transform="matrix(1 0 0 1 1269.84 377.94)" class="st0 st1 st2">10</text>
<text transform="matrix(1 0 0 1 1225.86 451.68)" class="st0 st1 st2 st3">11</text>
<text transform="matrix(1 0 0 1 1324.41 700.33)" class="st0 st1 st2">12</text>
<text transform="matrix(1 0 0 1 1348.92 792.04)" class="st0 st1 st2">13</text>
<text transform="matrix(1 0 0 1 1332.73 944.05)" class="st0 st1 st2">14</text>
<text transform="matrix(1 0 0 1 1246.75 980.13)" class="st0 st1 st2">15</text>
<text transform="matrix(1 0 0 1 1058.75 586.67)" class="st0 st1 st2">16</text>
<text transform="matrix(1 0 0 1 952.92 467.6)" class="st0 st1 st2">17</text>
<text transform="matrix(1 0 0 1 678.95 318.38)" class="st0 st1 st2">18</text>
<text transform="matrix(1 0 0 1 594.42 321.91)" class="st0 st1 st2">19</text>
<text transform="matrix(1 0 0 1 564.48 55.91)" class="st0 st1 st2">Eau Rouge</text>
<text transform="matrix(1 0 0 1 762.95 155.35)" class="st0 st1 st2">Raidillon</text>
<text transform="matrix(1 0 0 1 1236.61 109.02)" class="st0 st1 st2">Kemmel Straight</text>
<text transform="matrix(1 0 0 1 1586.39 203.57)" class="st0 st1 st2">Les Combes</text>
<text transform="matrix(1 0 0 1 1450.42 306.57)" class="st0 st1 st2">Malmedy</text>
<text transform="matrix(1 0 0 1 1502.96 365.48)" class="st0 st1 st2">No Name</text>
<text transform="matrix(1 0 0 1 1661.41 594.35)" class="st0 st1 st2">Rivage</text>
<text transform="matrix(1 0 0 1 1246.9301 412.35)" class="st0 st1 st2">Pouhon</text>
<text transform="matrix(1 0 0 1 1205.62 740.02)" class="st0 st1 st2">Fagnes</text>
<text transform="matrix(1 0 0 1 1144.39 1062.46)" class="st0 st1 st2">Curve Paul Frere</text>
<text transform="matrix(1 0 0 1 913.49 371.68)" class="st0 st1 st2">Blanchimont</text>
<text transform="matrix(1 0 0 1 691.51 284.68)" class="st0 st1 st2">Chicane</text>
<text transform="matrix(1 0 0 1 213.6 339.68)" class="st0 st1 st2">La Source</text>
</svg>
