<?xml version="1.0" encoding="UTF-8"?>
<svg id="EXAMPLE_-_Turns" xmlns="http://www.w3.org/2000/svg" viewBox="0 0 1920 1080">
  <defs>
    <style>
      .cls-1 {
        letter-spacing: -.07em;
      }

      .cls-2 {
        fill: #fff;
        font-family: ArialMT, Arial;
        font-size: 36px;
      }
    </style>
  </defs>
  <g id="Bike_Circuit">
    <text class="cls-2" transform="translate(1316.15 712.76)"><tspan x="0" y="0">15</tspan></text>
    <text class="cls-2" transform="translate(1450.95 680.17)"><tspan x="0" y="0">17</tspan></text>
    <text class="cls-2" transform="translate(1388.49 617.64)"><tspan x="0" y="0">16</tspan></text>
    <text class="cls-2" transform="translate(1552.65 603.35)"><tspan x="0" y="0">18</tspan></text>
    <text class="cls-2" transform="translate(1559.19 801.35)"><tspan x="0" y="0">19</tspan></text>
    <text class="cls-2" transform="translate(1239.26 690.6)"><tspan x="0" y="0">14</tspan></text>
    <text class="cls-2" transform="translate(1049.15 712.76)"><tspan x="0" y="0">13</tspan></text>
    <text class="cls-2" transform="translate(965.26 747.2)"><tspan x="0" y="0">12</tspan></text>
    <text class="cls-2" transform="translate(724.63 824.46)"><tspan class="cls-1" x="0" y="0">1</tspan><tspan x="17.35" y="0">1</tspan></text>
    <text class="cls-2" transform="translate(764.4 747.2)"><tspan x="0" y="0">10</tspan></text>
    <text class="cls-2" transform="translate(638.9 760.86)"><tspan x="0" y="0">9</tspan></text>
    <text class="cls-2" transform="translate(532.49 733.86)"><tspan x="0" y="0">8</tspan></text>
    <text class="cls-2" transform="translate(630.6 439.76)"><tspan x="0" y="0">7</tspan></text>
    <text class="cls-2" transform="translate(753.67 468.57)"><tspan x="0" y="0">6</tspan></text>
    <text class="cls-2" transform="translate(835.37 103.71)"><tspan x="0" y="0">5</tspan></text>
    <text class="cls-2" transform="translate(603.97 74.86)"><tspan x="0" y="0">4</tspan></text>
    <text class="cls-2" transform="translate(411.36 1007.37)"><tspan x="0" y="0">3</tspan></text>
    <text class="cls-2" transform="translate(658.06 1038.14)"><tspan x="0" y="0">2</tspan></text>
    <text class="cls-2" transform="translate(812.52 868.44)"><tspan x="0" y="0">1</tspan></text>
    <text class="cls-2" transform="translate(1060.91 814.93)"><tspan x="0" y="0">1</tspan></text>
  </g>
</svg>