<svg id="Grand_East_-_Turns" data-name="Grand East - Turns" xmlns="http://www.w3.org/2000/svg" viewBox="0 0 1920 1080"><defs><style>.cls-1{font-size:25px;}.cls-1,.cls-2{fill:#fff;font-family:ArialMT, Arial;}.cls-2{font-size:36px;}.cls-3{letter-spacing:-0.07em;}.cls-4{letter-spacing:-0.02em;}.cls-5{letter-spacing:-0.04em;}.cls-6{letter-spacing:0em;}</style></defs><text class="cls-1" transform="translate(160.24 63.09)">Horse Shoe</text><text class="cls-1" transform="translate(359.86 391.66)">Left Hook</text><text class="cls-1" transform="translate(511.38 319.08)">Snake</text><text class="cls-1" transform="translate(881.75 392.15)">Up Hill</text><text class="cls-1" transform="translate(1478.5 452.69)">South Bend</text><text class="cls-1" transform="translate(1392.11 552.61)">Spiral</text><text class="cls-1" transform="translate(254.98 1024.66)">Hog Pen</text><text class="cls-1" transform="translate(112.22 451.93)">NASCAR</text><text class="cls-1" transform="translate(112.22 481.84)">Bend</text><text class="cls-1" transform="translate(681 971.13)">Roller</text><text class="cls-1" transform="translate(681 1001.03)">Coaster</text><text class="cls-1" transform="translate(1237.09 378.18)">Fish</text><text class="cls-1" transform="translate(1237.09 408.09)">Hook</text><text class="cls-2" transform="translate(110.45 98.25)">1</text><text class="cls-2" transform="translate(132.38 300.63)">2</text><text class="cls-2" transform="translate(166.41 400.98)">3</text><text class="cls-2" transform="translate(307.56 366.65)">4</text><text class="cls-2" transform="translate(348.28 321.65)">5</text><text class="cls-2" transform="translate(412.24 290.61)">5a</text><text class="cls-2" transform="translate(497 258.88)">6</text><text class="cls-2" transform="translate(597.63 281.47)">6a</text><text class="cls-2" transform="translate(989.69 383.64)">7</text><text class="cls-2" transform="translate(946.84 484.98)">8</text><text class="cls-2" transform="translate(884.76 537.55)">9</text><text class="cls-2" transform="translate(871.93 656.26)">10</text><text class="cls-2" transform="translate(892.93 725.43)"><tspan class="cls-3">1</tspan><tspan x="17.35" y="0">1</tspan></text><text class="cls-2" transform="translate(914.44 787.43)">12</text><text class="cls-2" transform="translate(950.9 720.45)">14</text><text class="cls-2" transform="translate(1311.67 585.01)">15</text><text class="cls-2" transform="translate(1320.67 538.61)">16</text><text class="cls-2" transform="translate(1363.95 491.82)">17</text><text class="cls-2" transform="translate(1242.12 461.59)">17a</text><text class="cls-2" transform="translate(1136.76 390.23)">18</text><text class="cls-2" transform="translate(1298.02 378.24)">19</text><text class="cls-2" transform="translate(1499.3 397.28)">20</text><text class="cls-2" transform="translate(1772.26 385.88)">21</text><text class="cls-2" transform="translate(1800.04 415.88)">22</text><text class="cls-2" transform="translate(763.83 920.18)">23</text><text class="cls-2" transform="translate(667.28 903.75)">23a</text><text class="cls-2" transform="translate(584 916.62)">24</text><text class="cls-2" transform="translate(450.5 952.83)">25</text><text class="cls-2" transform="translate(350.59 965.48)">26</text><text class="cls-2" transform="translate(277.32 949.34)">26a</text><text class="cls-1" transform="translate(1781.44 497.78) rotate(-28.74)">Oak<tspan class="cls-4" x="45.85" y="0"> </tspan><tspan class="cls-5" x="52.34" y="0">T</tspan><tspan class="cls-6" x="66.69" y="0">ree</tspan></text></svg>