<?xml version="1.0" encoding="utf-8"?>
<!-- Generator: Adobe Illustrator 24.0.1, SVG Export Plug-In . SVG Version: 6.00 Build 0)  -->
<svg version="1.1" id="International_-_Turns" xmlns="http://www.w3.org/2000/svg" xmlns:xlink="http://www.w3.org/1999/xlink"
	 x="0px" y="0px" viewBox="0 0 1920 1080" style="enable-background:new 0 0 1920 1080;" xml:space="preserve">
<style type="text/css">
	.st0{fill:#FFFFFF;}
	.st1{font-family:'ArialMT';}
	.st2{font-size:36px;}
	.st3{letter-spacing:-2;}
</style>
<title>turns</title>
<text transform="matrix(1 0 0 1 1313.71 778.26)" class="st0 st1 st2">1</text>
<text transform="matrix(1 0 0 1 1361.62 527.27)" class="st0 st1 st2">2</text>
<text transform="matrix(1 0 0 1 1298.65 402.13)" class="st0 st1 st2">3</text>
<text transform="matrix(1 0 0 1 1250.65 324.89)" class="st0 st1 st2">4</text>
<text transform="matrix(1 0 0 1 1167.04 359.6)" class="st0 st1 st2">5</text>
<text transform="matrix(1 0 0 1 960.96 496.27)" class="st0 st1 st2">6</text>
<text transform="matrix(1 0 0 1 482.65 539.46)" class="st0 st1 st2">7</text>
<text transform="matrix(1 0 0 1 590.65 391.89)" class="st0 st1 st2">8</text>
<text transform="matrix(1 0 0 1 749.31 255.79)" class="st0 st1 st2">9</text>
<text transform="matrix(1 0 0 1 970.64 123.56)" class="st0 st1 st2">10</text>
<text transform="matrix(1 0 0 1 1111.62 137.27)" class="st0 st1 st2 st3">11</text>
<text transform="matrix(1 0 0 1 1268.97 160.13)" class="st0 st1 st2">12</text>
<text transform="matrix(1 0 0 1 1367.3 160.13)" class="st0 st1 st2">13</text>
<text transform="matrix(1 0 0 1 1445.3 522.22)" class="st0 st1 st2">14</text>
<text transform="matrix(1 0 0 1 1540.95 818.27)" class="st0 st1 st2">15</text>
<text transform="matrix(1 0 0 1 1477.64 996.13)" class="st0 st1 st2">16</text>
<text transform="matrix(1 0 0 1 534.3 927.13)" class="st0 st1 st2">17</text>
<text transform="matrix(1 0 0 1 745.59 64.79)" class="st0 st1 st2">Cunningham</text>
<text transform="matrix(1 0 0 1 1080.65 94.13)" class="st0 st1 st2">Collier</text>
<text transform="matrix(1 0 0 1 1338.3101 82.13)" class="st0 st1 st2">Tower</text>
<text transform="matrix(1 0 0 1 1488.29 570.46)" class="st0 st1 st2">Bishop</text>
<text transform="matrix(1 0 0 1 1363.58 831.13)" class="st0 st1 st2">Gendebien</text>
<text transform="matrix(1 0 0 1 1555.29 1053.79)" class="st0 st1 st2">Le Mans</text>
<text transform="matrix(1 0 0 1 967.95 995.13)" class="st0 st1 st2">Ullman Straight</text>
<text transform="matrix(1 0 0 1 356.62 908.46)" class="st0 st1 st2">Sunset</text>
<text transform="matrix(1 0 0 1 357.29 952.46)" class="st0 st1 st2">Bend</text>
<text transform="matrix(1 0 0 1 305.97 540.79)" class="st0 st1 st2">Hairpin</text>
<text transform="matrix(1 0 0 1 590.62 270.13)" class="st0 st1 st2">Fangio</text>
<text transform="matrix(1 0 0 1 1038.6 534.46)" class="st0 st1 st2">Big Bend</text>
</svg>
