<?xml version="1.0" encoding="utf-8"?>
<!-- Generator: Adobe Illustrator 24.0.1, SVG Export Plug-In . SVG Version: 6.00 Build 0)  -->
<svg version="1.1" id="Club_-_Turns" xmlns="http://www.w3.org/2000/svg" xmlns:xlink="http://www.w3.org/1999/xlink" x="0px"
	 y="0px" viewBox="0 0 1920 1080" style="enable-background:new 0 0 1920 1080;" xml:space="preserve">
<style type="text/css">
	.st0{fill:#FFFFFF;}
	.st1{font-family:'ArialMT';}
	.st2{font-size:36px;}
	.st3{letter-spacing:-1;}
</style>
<title>turns</title>
<text transform="matrix(1 0 0 1 760.71 243.93)" class="st0 st1 st2">1</text>
<text transform="matrix(1 0 0 1 981.62 118.27)" class="st0 st1 st2">2</text>
<text transform="matrix(1 0 0 1 1125.3101 134.46)" class="st0 st1 st2">3</text>
<text transform="matrix(1 0 0 1 1275.98 156.89)" class="st0 st1 st2">4</text>
<text transform="matrix(1 0 0 1 1387.71 158.93)" class="st0 st1 st2">5</text>
<text transform="matrix(1 0 0 1 1388.62 331.94)" class="st0 st1 st2">6</text>
<text transform="matrix(1 0 0 1 1264.98 328.13)" class="st0 st1 st2">7</text>
<text transform="matrix(1 0 0 1 1163.98 359.22)" class="st0 st1 st2">8</text>
<text transform="matrix(1 0 0 1 994.31 466.13)" class="st0 st1 st2">9</text>
<text transform="matrix(1 0 0 1 474.08 536.11)" class="st0 st1 st2">10</text>
<text transform="matrix(1 0 0 1 593.42 388.11)" class="st0 st1 st2 st3">11</text>
<text transform="matrix(1 0 0 1 745.59 64.79)" class="st0 st1 st2">Cunningham</text>
<text transform="matrix(1 0 0 1 1080.65 94.13)" class="st0 st1 st2">Collier</text>
<text transform="matrix(1 0 0 1 1338.3101 82.13)" class="st0 st1 st2">Tower</text>
<text transform="matrix(1 0 0 1 305.97 540.79)" class="st0 st1 st2">Hairpin</text>
<text transform="matrix(1 0 0 1 590.62 270.13)" class="st0 st1 st2">Fangio</text>
<text transform="matrix(1 0 0 1 1038.6 534.46)" class="st0 st1 st2">Big Bend</text>
</svg>
