<?xml version="1.0" encoding="utf-8"?>
<!-- Generator: Adobe Illustrator 24.2.3, SVG Export Plug-In . SVG Version: 6.00 Build 0)  -->
<svg version="1.1" id="Barber_ShortA_Turns" xmlns="http://www.w3.org/2000/svg" xmlns:xlink="http://www.w3.org/1999/xlink"
	 x="0px" y="0px" viewBox="0 0 1920 1080" style="enable-background:new 0 0 1920 1080;" xml:space="preserve">
<style type="text/css">
	.st0{fill:#FFFFFF;}
	.st1{font-family:'ArialMT';}
	.st2{font-size:36px;}
	.st3{letter-spacing:-2;}
</style>
<text transform="matrix(1 0 0 1 580.17 598.08)" class="st0 st1 st2">1</text>
<text transform="matrix(1 0 0 1 360.58 862.74)" class="st0 st1 st2">2</text>
<text transform="matrix(1 0 0 1 269.08 786.68)" class="st0 st1 st2">3</text>
<text transform="matrix(1 0 0 1 488.52 592.76)" class="st0 st1 st2">4</text>
<text transform="matrix(1 0 0 1 1149.86 490.09)" class="st0 st1 st2">5</text>
<text transform="matrix(1 0 0 1 1256.3199 422.33)" class="st0 st1 st2">6</text>
<text transform="matrix(1 0 0 1 1512.58 430.41)" class="st0 st1 st2">7</text>
<text transform="matrix(1 0 0 1 1681.66 479.67)" class="st0 st1 st2">8</text>
<text transform="matrix(1 0 0 1 1832.3199 762.33)" class="st0 st1 st2">9</text>
<text transform="matrix(1 0 0 1 1601.24 878.41)" class="st0 st1 st2">10</text>
<text transform="matrix(1 0 0 1 1569.74 665.35)" class="st0 st1 st2 st3">1</text>
<text transform="matrix(1 0 0 1 1587.09 665.35)" class="st0 st1 st2">1</text>
</svg>
