<?xml version="1.0" encoding="utf-8"?>
<!-- Generator: Adobe Illustrator 24.2.0, SVG Export Plug-In . SVG Version: 6.00 Build 0)  -->
<svg version="1.1" id="Layer_1" xmlns="http://www.w3.org/2000/svg" xmlns:xlink="http://www.w3.org/1999/xlink" x="0px" y="0px"
	 viewBox="0 0 1920 1080" style="enable-background:new 0 0 1920 1080;" xml:space="preserve">
<style type="text/css">
	.st0{fill:#D82520;}
</style>
<g id="Pitroad">
	<path class="st0" d="M387.6,218.3l-22.4,20c-1,0.9-1.1,2.5-0.2,3.5s2.5,1.1,3.5,0.2l22.4-20c1-0.9,1.1-2.5,0.1-3.5
		C390.1,217.5,388.6,217.4,387.6,218.3L387.6,218.3z"/>
	<path class="st0" d="M342.9,258.3l-4.4,4c-1,0.9-1.1,2.5-0.2,3.5c0.5,0.5,1.2,0.8,1.9,0.8c0.6,0,1.2-0.2,1.7-0.6l4.4-4
		c1.1-0.9,1.2-2.4,0.4-3.5s-2.4-1.2-3.5-0.4C343,258.2,342.9,258.2,342.9,258.3L342.9,258.3z"/>
	<path class="st0" d="M448.6,217.2l-30-0.7h-0.1c-1.4,0-2.5,1.1-2.5,2.5s1.1,2.5,2.5,2.5l30,0.7h0.1c1.4,0,2.5-1.1,2.5-2.5
		S450,217.3,448.6,217.2z"/>
	<path class="st0" d="M508.6,218.7l-30-0.7h-0.1c-1.4,0-2.5,1.1-2.5,2.5s1.1,2.5,2.5,2.5l30,0.7h0.1c1.4,0,2.5-1.1,2.5-2.5
		S510,218.7,508.6,218.7z"/>
	<path class="st0" d="M578.8,267.2l-16.6-44.6l-7,15.9l-15.6-16.6c-1-1-2.6-0.9-3.5,0.1c-0.9,0.9-0.9,2.4-0.1,3.4l15.6,16.6l-16.3,6
		L578.8,267.2z"/>
	<g id="Layer_2_1_">
	</g>
</g>
</svg>
