<?xml version="1.0" encoding="utf-8"?>
<!-- Generator: Adobe Illustrator 24.2.3, SVG Export Plug-In . SVG Version: 6.00 Build 0)  -->
<svg version="1.1" id="Dual_pit_road_Pit_Road" xmlns="http://www.w3.org/2000/svg" xmlns:xlink="http://www.w3.org/1999/xlink"
	 x="0px" y="0px" viewBox="0 0 1920 1080" style="enable-background:new 0 0 1920 1080;" xml:space="preserve">
<style type="text/css">
	.st0{fill:#0089BA;}
	.st1{fill:#D82520;}
</style>
<g id="Mergeline">
	<g>
		<path class="st0" d="M1363.7,732.4c-8.8,3.3-18.3,6.3-28.1,8.7c-2.7,0.7-4.3,3.4-3.7,6.1c0.6,2.3,2.6,3.8,4.8,3.8
			c0.4,0,0.8,0,1.2-0.1c10.2-2.5,20-5.6,29.2-9c2.6-1,3.9-3.9,2.9-6.4S1366.3,731.5,1363.7,732.4z"/>
		<path class="st0" d="M1306.7,746.7c-17.3,2.5-29.1,2.6-29.3,2.6c-2.8,0-5,2.3-5,5c0,2.7,2.3,5,5,5c0,0,0,0,0,0
			c0.5,0,12.6-0.1,30.6-2.7c2.7-0.4,4.6-2.9,4.2-5.7C1311.9,748.3,1309.4,746.4,1306.7,746.7z"/>
		<path class="st0" d="M1475.3,516.4c0.5,2.4,2.6,4.1,4.9,4.1c0.3,0,0.6,0,0.9-0.1c2.7-0.5,4.5-3.1,4-5.8
			c-1.8-9.8-4.3-19.8-7.4-29.7c-0.8-2.6-3.6-4.1-6.3-3.3c-2.6,0.8-4.1,3.6-3.3,6.3C1471.2,497.4,1473.6,507,1475.3,516.4z"/>
		<path class="st0" d="M1391.6,369.6c1.6-2.2,1.1-5.4-1.1-7c-8-5.9-16.6-11.5-25.4-16.8c-2.4-1.4-5.4-0.7-6.9,1.7
			c-1.4,2.4-0.7,5.4,1.7,6.9c8.5,5.2,16.8,10.7,24.7,16.3c0.9,0.6,1.9,1,2.9,1C1389.1,371.6,1390.6,370.9,1391.6,369.6z"/>
		<path class="st0" d="M1307,328.5c8.4,3,17.5,7,27,11.7c0.7,0.4,1.5,0.5,2.2,0.5c1.8,0,3.6-1,4.5-2.8c1.2-2.5,0.2-5.5-2.3-6.7
			c-9.9-4.9-19.3-8.9-28.1-12.1c-2.6-0.9-5.5,0.4-6.4,3C1303,324.7,1304.4,327.5,1307,328.5z"/>
		<path class="st0" d="M1435.2,410.6c2.1-1.8,2.3-5,0.5-7c-6.3-7.3-13.5-14.7-21.5-21.8c-2.1-1.8-5.2-1.7-7.1,0.4
			c-1.8,2.1-1.7,5.2,0.4,7.1c7.7,6.9,14.6,13.9,20.6,20.9c1,1.2,2.4,1.7,3.8,1.7C1433.1,411.8,1434.3,411.4,1435.2,410.6z"/>
		<path class="st0" d="M1488.9,544.9c-0.2-2.8-2.5-4.9-5.3-4.7c-2.8,0.2-4.9,2.5-4.7,5.3c0.2,3.9,0.3,7.7,0.3,11.5
			c0,6-0.3,11.9-0.8,17.7c-0.3,2.8,1.8,5.2,4.5,5.4c0.2,0,0.3,0,0.5,0c2.6,0,4.7-1.9,5-4.5c0.6-6.1,0.8-12.4,0.8-18.6
			C1489.3,553,1489.1,549,1488.9,544.9z"/>
		<path class="st0" d="M1479.6,599.9c-2.7-0.7-5.4,0.9-6.1,3.6c-2.4,9.4-5.6,18.6-9.6,27.5c-1.1,2.5,0,5.5,2.5,6.6
			c0.7,0.3,1.4,0.4,2,0.4c1.9,0,3.7-1.1,4.6-3c4.2-9.4,7.6-19.2,10.1-29.1C1483.9,603.3,1482.3,600.6,1479.6,599.9z"/>
		<path class="st0" d="M1456.2,654.9c-2.3-1.5-5.4-0.8-6.9,1.5c-5.5,8.6-11.2,16.7-17,24.1c-1.7,2.2-1.3,5.3,0.9,7
			c0.9,0.7,2,1.1,3.1,1.1c1.5,0,3-0.7,3.9-1.9c6-7.7,11.9-16,17.6-24.9C1459.3,659.5,1458.6,656.4,1456.2,654.9z"/>
		<path class="st0" d="M1412.8,702.4c-7.6,7.4-15.3,13.4-22.7,17.7c-2.4,1.4-3.2,4.5-1.8,6.9c0.9,1.6,2.6,2.5,4.3,2.5
			c0.9,0,1.7-0.2,2.5-0.7c8.1-4.8,16.3-11.2,24.5-19.2c2-1.9,2-5.1,0.1-7.1C1417.9,700.6,1414.8,700.5,1412.8,702.4z"/>
		<path class="st0" d="M1467.2,456.2c-5.2-12.1-10.2-21.6-13.5-27.4c-1.4-2.4-4.4-3.2-6.8-1.9c-2.4,1.4-3.2,4.4-1.9,6.8
			c3.2,5.6,8.1,14.8,13.1,26.4c0.8,1.9,2.7,3,4.6,3c0.7,0,1.3-0.1,2-0.4C1467.1,461.7,1468.3,458.8,1467.2,456.2z"/>
		
			<rect x="1259.7" y="313.9" transform="matrix(0.2035 -0.9791 0.9791 0.2035 717.011 1519.231)" class="st0" width="65" height="10"/>
	</g>
	<g>
		<path class="st0" d="M514,644.3c-1.8-9.6-3.1-19.4-4-29.3c-0.2-2.8-2.7-4.8-5.4-4.5c-2.8,0.2-4.8,2.7-4.5,5.4
			c0.9,10.1,2.3,20.3,4.1,30.2c0.4,2.4,2.5,4.1,4.9,4.1c0.3,0,0.6,0,0.9-0.1C512.7,649.6,514.5,647,514,644.3z"/>
		<path class="st0" d="M520.7,673c-0.8-2.7-3.5-4.2-6.2-3.4c-2.7,0.8-4.2,3.5-3.4,6.2c2.9,10.1,6.3,19.8,10.1,28.9
			c0.8,1.9,2.7,3.1,4.6,3.1c0.6,0,1.3-0.1,1.9-0.4c2.5-1.1,3.8-4,2.7-6.5C526.8,692.1,523.5,682.8,520.7,673z"/>
		<path class="st0" d="M508.3,530.8c0.3,0.1,0.6,0.1,0.9,0.1c2.4,0,4.5-1.7,4.9-4.1c1.8-9.7,4.2-19.3,6.9-28.7
			c0.8-2.6-0.7-5.4-3.4-6.2c-2.6-0.8-5.4,0.7-6.2,3.4c-2.8,9.7-5.3,19.6-7.2,29.6C503.8,527.6,505.6,530.3,508.3,530.8z"/>
		<path class="st0" d="M542.5,437.5c-2.4-1.4-5.4-0.6-6.9,1.7c-5.1,8.6-9.8,17.8-13.9,27.3c-1.1,2.5,0.1,5.5,2.6,6.6
			c0.6,0.3,1.3,0.4,2,0.4c1.9,0,3.8-1.1,4.6-3c3.9-9.1,8.4-17.9,13.3-26.1C545.7,442,544.9,438.9,542.5,437.5z"/>
		<path class="st0" d="M503.7,590.5C503.7,590.5,503.7,590.5,503.7,590.5c2.8,0,5-2.2,5-5c0-9.9,0.5-19.8,1.4-29.5
			c0.3-2.8-1.8-5.2-4.5-5.4c-2.8-0.3-5.2,1.8-5.4,4.5c-0.9,10-1.4,20.3-1.4,30.4C498.7,588.3,500.9,590.5,503.7,590.5z"/>
		<path class="st0" d="M553.3,740.2c-3.3-3.8-6.5-8.3-9.7-13.4c-1.5-2.3-4.5-3.1-6.9-1.6c-2.3,1.5-3.1,4.5-1.6,6.9
			c3.4,5.5,7,10.4,10.5,14.6c2.7,3.2,5.9,6.4,9.3,9.6c1,0.9,2.2,1.3,3.4,1.3c1.4,0,2.7-0.5,3.7-1.6c1.9-2,1.7-5.2-0.3-7.1
			C558.6,746,555.7,743.1,553.3,740.2z"/>
		<path class="st0" d="M581.1,391.8c-1.9-2-5-2.1-7.1-0.3c-7.4,6.9-14.5,14.5-20.9,22.5c-1.7,2.2-1.4,5.3,0.8,7
			c0.9,0.7,2,1.1,3.1,1.1c1.5,0,2.9-0.6,3.9-1.9c6.1-7.6,12.8-14.8,19.9-21.4C582.9,397,583,393.8,581.1,391.8z"/>
		<path class="st0" d="M632.1,360.7c-0.9-2.6-3.8-4-6.4-3c-0.5,0.2-11.8,4.2-27.5,14.8c-2.3,1.5-2.9,4.6-1.4,6.9
			c1,1.4,2.5,2.2,4.2,2.2c1,0,1.9-0.3,2.8-0.8c14.5-9.7,25-13.6,25.3-13.7C631.6,366.2,633,363.3,632.1,360.7z"/>
		<path class="st0" d="M662.3,804l9.3-31.2l-9.6-2.9l-7.9,26.5c-4.2-1.3-9.5-3.1-15.7-5.3c-2.6-0.9-5.5,0.4-6.4,3s0.4,5.5,3,6.4
			c6.3,2.3,11.9,4.1,16.2,5.5l-7.9,26.2l9.6,2.9l9.3-30.9C662.2,804.1,662.2,804.1,662.3,804C662.3,804,662.3,804,662.3,804z"/>
		<path class="st0" d="M611.1,779.9c-9.5-4.4-18.2-9-26-13.8c-2.4-1.4-5.4-0.7-6.9,1.7c-1.4,2.4-0.7,5.4,1.7,6.9
			c8.1,5,17.2,9.8,27,14.3c0.7,0.3,1.4,0.5,2.1,0.5c1.9,0,3.7-1.1,4.5-2.9C614.7,784,613.6,781,611.1,779.9z"/>
	</g>
</g>
<g id="Pitroad">
	<path class="st1" d="M823.2,752.9C823.2,752.9,823.2,752.9,823.2,752.9c-4,0-8,0-12,0c-6,0-12,0-18-0.1c0,0,0,0,0,0
		c-1.4,0-2.5,1.1-2.5,2.5c0,1.4,1.1,2.5,2.5,2.5c5.9,0,11.8,0.1,17.6,0.1c4.2,0,8.3,0,12.4,0c1.4,0,2.5-1.1,2.5-2.5
		C825.7,754,824.6,752.9,823.2,752.9z"/>
	<path class="st1" d="M883.2,752.6C883.2,752.6,883.2,752.6,883.2,752.6l-30,0.1c-1.4,0-2.5,1.1-2.5,2.5c0,1.4,1.1,2.5,2.5,2.5
		c0,0,0,0,0,0l30-0.1c1.4,0,2.5-1.1,2.5-2.5C885.7,753.7,884.6,752.6,883.2,752.6z"/>
	<path class="st1" d="M763.2,752.6c-10.4-0.2-20.5-0.4-30-0.6c-1.4,0-2.5,1.1-2.6,2.4c0,1.4,1.1,2.5,2.4,2.6
		c9.5,0.2,19.6,0.4,30,0.6c0,0,0,0,0,0c1.4,0,2.5-1.1,2.5-2.5C765.7,753.7,764.6,752.6,763.2,752.6z"/>
	<path class="st1" d="M1003.2,752.4C1003.2,752.4,1003.2,752.4,1003.2,752.4l-30,0.1c-1.4,0-2.5,1.1-2.5,2.5c0,1.4,1.1,2.5,2.5,2.5
		c0,0,0,0,0,0l30-0.1c1.4,0,2.5-1.1,2.5-2.5C1005.7,753.5,1004.6,752.4,1003.2,752.4z"/>
	<path class="st1" d="M943.2,752.5C943.2,752.5,943.2,752.5,943.2,752.5l-30,0.1c-1.4,0-2.5,1.1-2.5,2.5c0,1.4,1.1,2.5,2.5,2.5
		c0,0,0,0,0,0l30-0.1c1.4,0,2.5-1.1,2.5-2.5C945.7,753.6,944.6,752.5,943.2,752.5z"/>
	<path class="st1" d="M703.3,751c-7-0.3-12.3-0.6-15.8-0.9c-0.1,0-5.3-0.7-13.7-2.4c-1.4-0.3-2.7,0.6-3,1.9s0.6,2.7,1.9,3
		c8.6,1.8,13.9,2.4,14.2,2.5c3.6,0.3,9,0.6,16.1,0.9c0,0,0.1,0,0.1,0c1.3,0,2.4-1,2.5-2.4C705.7,752.2,704.7,751,703.3,751z"/>
	<path class="st1" d="M496,600.3c-0.8-1.1-2.3-1.4-3.5-0.6c-1.1,0.8-1.4,2.3-0.6,3.5c5.1,7.3,11,15.2,18,24.2c0.5,0.6,1.2,1,2,1
		c0.5,0,1.1-0.2,1.5-0.5c1.1-0.8,1.3-2.4,0.4-3.5C506.8,615.4,501,607.6,496,600.3z"/>
	<path class="st1" d="M471.5,548c0-1.4-1.1-2.5-2.5-2.5s-2.5,1.1-2.5,2.5c0,7.9,3.1,17.5,9.4,29.5c0.4,0.8,1.3,1.3,2.2,1.3
		c0.4,0,0.8-0.1,1.2-0.3c1.2-0.6,1.7-2.2,1-3.4C474.5,564.1,471.5,554.9,471.5,548z"/>
	<path class="st1" d="M1123.2,752.1C1123.2,752.1,1123.2,752.1,1123.2,752.1l-30,0.1c-1.4,0-2.5,1.1-2.5,2.5c0,1.4,1.1,2.5,2.5,2.5
		c0,0,0,0,0,0l30-0.1c1.4,0,2.5-1.1,2.5-2.5C1125.7,753.2,1124.6,752.1,1123.2,752.1z"/>
	<path class="st1" d="M532.5,647.7c-0.9-1.1-2.4-1.2-3.5-0.4c-1.1,0.9-1.2,2.4-0.4,3.5c5.9,7.3,12,14.5,19.2,23.1
		c0.5,0.6,1.2,0.9,1.9,0.9c0.6,0,1.1-0.2,1.6-0.6c1.1-0.9,1.2-2.5,0.3-3.5C544.4,662.2,538.4,655,532.5,647.7z"/>
	<path class="st1" d="M645.1,740c-9.8-3.2-19.1-6.9-27.6-11c-1.2-0.6-2.7-0.1-3.3,1.2c-0.6,1.2-0.1,2.7,1.2,3.3
		c8.7,4.2,18.2,8,28.2,11.2c0.3,0.1,0.5,0.1,0.8,0.1c1.1,0,2-0.7,2.4-1.7C647.1,741.9,646.4,740.5,645.1,740z"/>
	<path class="st1" d="M592.1,714c-7.4-5.4-13.9-11.3-19.2-17.5l-2.1-2.6c-0.9-1.1-2.5-1.2-3.5-0.3c-1.1,0.9-1.2,2.5-0.3,3.5l2.1,2.6
		c5.6,6.5,12.4,12.7,20.1,18.4c0.4,0.3,1,0.5,1.5,0.5c0.8,0,1.5-0.4,2-1C593.5,716.4,593.2,714.8,592.1,714z"/>
	<path class="st1" d="M1063.2,752.2C1063.2,752.2,1063.2,752.2,1063.2,752.2l-30,0.1c-1.4,0-2.5,1.1-2.5,2.5c0,1.4,1.1,2.5,2.5,2.5
		c0,0,0,0,0,0l30-0.1c1.4,0,2.5-1.1,2.5-2.5C1065.7,753.4,1064.6,752.2,1063.2,752.2z"/>
	<path class="st1" d="M1183.2,752C1183.2,752,1183.2,752,1183.2,752l-30,0.1c-1.4,0-2.5,1.1-2.5,2.5c0,1.4,1.1,2.5,2.5,2.5
		c0,0,0,0,0,0l30-0.1c1.4,0,2.5-1.1,2.5-2.5C1185.7,753.1,1184.6,752,1183.2,752z"/>
	<path class="st1" d="M1303,750.7c-8.5,0.7-17,1.1-25.5,1.1l-4.2,0c-1.4,0-2.5,1.1-2.5,2.5c0,1.4,1.1,2.5,2.5,2.5c0,0,0,0,0,0l4.2,0
		c8.6,0,17.4-0.4,25.9-1.1c1.4-0.1,2.4-1.3,2.3-2.7S1304.4,750.6,1303,750.7z"/>
	<path class="st1" d="M1243.2,751.9C1243.2,751.9,1243.2,751.9,1243.2,751.9l-30,0.1c-1.4,0-2.5,1.1-2.5,2.5c0,1.4,1.1,2.5,2.5,2.5
		c0,0,0,0,0,0l30-0.1c1.4,0,2.5-1.1,2.5-2.5C1245.7,753,1244.6,751.9,1243.2,751.9z"/>
	<polygon class="st1" points="1329.5,750 1326,769.9 1364.6,741.9 1317.6,733.8 	"/>
	<path class="st1" d="M1444.9,728.9c-1.1-0.9-2.7-0.7-3.5,0.4c-5.9,7.5-12.6,14.9-19.9,22c-1,1-1,2.5-0.1,3.5
		c0.5,0.5,1.1,0.8,1.8,0.8c0.6,0,1.3-0.2,1.7-0.7c7.4-7.2,14.3-14.8,20.4-22.5C1446.2,731.3,1446,729.7,1444.9,728.9z"/>
	<path class="st1" d="M1462,532.8c0.4,1,1.3,1.7,2.4,1.7c0.3,0,0.6,0,0.8-0.1c1.3-0.5,2-1.9,1.5-3.2c-1-2.7-1.9-5.3-2.8-7.7
		c-1.6-4.4-3-8.1-4-11.1c-1-3.1-2.1-6.2-3.4-9.5c-0.5-1.3-2-1.9-3.2-1.4c-1.3,0.5-1.9,2-1.4,3.2c1.2,3.1,2.3,6.2,3.3,9.2
		c1,3.1,2.4,6.9,4,11.3C1460.1,527.5,1461,530.1,1462,532.8z"/>
	<path class="st1" d="M1473.2,676.3c-1.3-0.5-2.7,0.2-3.2,1.5c-3.2,9.2-7.3,18.2-12.2,26.9c-0.7,1.2-0.2,2.7,1,3.4
		c0.4,0.2,0.8,0.3,1.2,0.3c0.9,0,1.7-0.5,2.2-1.3c5-8.9,9.2-18.2,12.5-27.7C1475.2,678.2,1474.5,676.8,1473.2,676.3z"/>
	<path class="st1" d="M1383.7,408c-1.2-0.7-2.7-0.3-3.4,0.8c-0.7,1.2-0.3,2.7,0.8,3.4c8.8,5.3,16.7,11.3,23.6,17.7
		c0.5,0.4,1.1,0.7,1.7,0.7c0.7,0,1.3-0.3,1.8-0.8c0.9-1,0.9-2.6-0.1-3.5C1400.9,419.7,1392.7,413.5,1383.7,408z"/>
	<path class="st1" d="M701.1,347.9c0-1.4-1.2-2.5-2.5-2.5c-10.1,0.2-20.3,1.1-30.2,2.8c-1.4,0.2-2.3,1.5-2.1,2.9
		c0.2,1.2,1.3,2.1,2.5,2.1c0.1,0,0.3,0,0.4,0c9.7-1.6,19.6-2.5,29.5-2.7C700,350.5,701.1,349.3,701.1,347.9z"/>
	<path class="st1" d="M1439.2,477.8c0.5,0.8,1.3,1.3,2.2,1.3c0.4,0,0.8-0.1,1.2-0.3c1.2-0.7,1.7-2.2,1-3.4
		c-6.5-11.7-12.7-21.2-15.9-25.8c-0.8-1.1-2.3-1.4-3.5-0.6c-1.1,0.8-1.4,2.3-0.6,3.5C1426.7,457,1432.8,466.2,1439.2,477.8z"/>
	<path class="st1" d="M1326.5,389.5c9.8,2.7,19.3,5.9,28.1,9.5c0.3,0.1,0.6,0.2,0.9,0.2c1,0,1.9-0.6,2.3-1.6
		c0.5-1.3-0.1-2.7-1.4-3.3c-9.1-3.7-18.7-7-28.7-9.7c-1.3-0.4-2.7,0.4-3.1,1.8C1324.4,387.8,1325.1,389.2,1326.5,389.5z"/>
	<path class="st1" d="M1479.7,592.4c0.1,0,0.2,0,0.4,0c1.4-0.2,2.3-1.5,2.1-2.8c-1.4-9.6-3.5-19.5-6.3-29.6
		c-0.4-1.3-1.7-2.1-3.1-1.8c-1.3,0.4-2.1,1.7-1.8,3.1c2.7,9.9,4.7,19.7,6.1,29.1C1477.4,591.5,1478.5,592.4,1479.7,592.4z"/>
	<path class="st1" d="M1484.5,619.7c0-1.4-1.1-2.5-2.5-2.5c0,0,0,0,0,0c-1.4,0-2.5,1.1-2.5,2.5l0,0.8c0,9.7-0.8,19.4-2.3,28.7
		c-0.2,1.4,0.7,2.6,2.1,2.9c0.1,0,0.3,0,0.4,0c1.2,0,2.3-0.9,2.5-2.1c1.5-9.6,2.3-19.5,2.3-29.5L1484.5,619.7z"/>
	<path class="st1" d="M938.3,363.2c1.3,0,2.4-1,2.5-2.4c0.1-1.4-1-2.6-2.4-2.6l-30-1.6c-1.4-0.1-2.6,1-2.6,2.4
		c-0.1,1.4,1,2.6,2.4,2.6l30,1.6C938.2,363.2,938.2,363.2,938.3,363.2z"/>
	<path class="st1" d="M998.2,366.5c1.3,0,2.4-1,2.5-2.4c0.1-1.4-1-2.6-2.4-2.6l-30-1.6c-1.4-0.1-2.6,1-2.6,2.4
		c-0.1,1.4,1,2.6,2.4,2.6l30,1.6C998.1,366.5,998.1,366.5,998.2,366.5z"/>
	<path class="st1" d="M1177.9,376.4c1.3,0,2.4-1,2.5-2.4c0.1-1.4-1-2.6-2.4-2.6l-30-1.6c-1.4-0.1-2.6,1-2.6,2.4s1,2.6,2.4,2.6
		l30,1.6C1177.8,376.4,1177.9,376.4,1177.9,376.4z"/>
	<path class="st1" d="M1237.8,379.7c1.3,0,2.4-1,2.5-2.4c0.1-1.4-1-2.6-2.4-2.6l-30-1.6c-1.4-0.1-2.6,1-2.6,2.4
		c-0.1,1.4,1,2.6,2.4,2.6l30,1.6C1237.7,379.7,1237.8,379.7,1237.8,379.7z"/>
	<path class="st1" d="M1058.1,369.8c1.3,0,2.4-1,2.5-2.4c0.1-1.4-1-2.6-2.4-2.6l-30-1.6c-1.4-0.1-2.6,1-2.6,2.4
		c-0.1,1.4,1,2.6,2.4,2.6l30,1.6C1058,369.8,1058,369.8,1058.1,369.8z"/>
	<path class="st1" d="M1118,373.1c1.3,0,2.4-1,2.5-2.4c0.1-1.4-1-2.6-2.4-2.6l-30-1.6c-1.4-0.1-2.6,1-2.6,2.4s1,2.6,2.4,2.6l30,1.6
		C1117.9,373.1,1117.9,373.1,1118,373.1z"/>
	<path class="st1" d="M1297.4,383.4c0.1,0,0.2,0,0.4,0c1.2,0,2.3-0.9,2.5-2.1c0.2-1.4-0.7-2.6-2.1-2.8c-4.4-0.6-6.9-0.9-7.1-0.9
		l-23.1-1.3c-1.4-0.1-2.6,1-2.6,2.4c-0.1,1.4,1,2.6,2.4,2.6l23,1.3C1290.6,382.6,1293.1,382.8,1297.4,383.4z"/>
	<path class="st1" d="M758.5,353.3c1.3,0,2.4-1,2.5-2.4c0.1-1.4-1-2.6-2.4-2.6l-30-1.6c-1.4-0.1-2.6,1-2.6,2.4
		c-0.1,1.4,1,2.6,2.4,2.6l30,1.6C758.4,353.3,758.5,353.3,758.5,353.3z"/>
	<path class="st1" d="M818.4,356.6c1.3,0,2.4-1,2.5-2.4c0.1-1.4-1-2.6-2.4-2.6l-30-1.6c-1.4-0.1-2.6,1-2.6,2.4s1,2.6,2.4,2.6l30,1.6
		C818.4,356.6,818.4,356.6,818.4,356.6z"/>
	<path class="st1" d="M878.4,359.9c1.3,0,2.4-1,2.5-2.4c0.1-1.4-1-2.6-2.4-2.6l-30-1.6c-1.4-0.1-2.6,1-2.6,2.4
		c-0.1,1.4,1,2.6,2.4,2.6l30,1.6C878.3,359.9,878.3,359.9,878.4,359.9z"/>
	<path class="st1" d="M620,368.3c6.7-3.1,13.5-5.8,20.5-8.1c1.3-0.4,2-1.8,1.6-3.2c-0.4-1.3-1.8-2-3.2-1.6
		c-7.4,2.4-14.7,5.3-21.8,8.6l-2.6-17.5l-27.7,38.8l47.1-7.2L620,368.3z"/>
</g>
</svg>
