<?xml version="1.0" encoding="utf-8"?>
<!-- Generator: Adobe Illustrator 24.0.1, SVG Export Plug-In . SVG Version: 6.00 Build 0)  -->
<svg version="1.1" id="Oval__Pit_Road" xmlns="http://www.w3.org/2000/svg" xmlns:xlink="http://www.w3.org/1999/xlink" x="0px"
	 y="0px" viewBox="0 0 1920 1080" style="enable-background:new 0 0 1920 1080;" xml:space="preserve">
<style type="text/css">
	.st0{fill:#016699;}
	.st1{fill:#D82520;}
</style>
<title>pitroad</title>
<g id="Mergeline">
	<path class="st0" d="M1563.8,182.9c-7.9-6.1-16.3-12-24.8-17.5c-2.3-1.5-5.4-0.8-6.9,1.5c-1.5,2.3-0.8,5.4,1.5,6.9
		c8.3,5.4,16.4,11.1,24.1,17c0.9,0.7,2,1,3,1c1.5,0,3-0.7,4-2C1566.4,187.7,1565.9,184.5,1563.8,182.9z"/>
	<path class="st0" d="M1512.8,149.9c-8.8-4.7-17.9-9.3-27.2-13.4c-2.5-1.1-5.5,0-6.6,2.5c-1.1,2.5,0,5.5,2.5,6.6
		c9.1,4.1,18,8.5,26.5,13.1c0.8,0.4,1.6,0.6,2.4,0.6c1.8,0,3.5-0.9,4.4-2.6C1516.1,154.2,1515.2,151.2,1512.8,149.9z"/>
	<path class="st0" d="M1399.5,107.8c-1.8-0.4-3.6-0.8-5.4-1.2l-24.1-4.7c-2.7-0.5-5.3,1.2-5.9,3.9c-0.5,2.7,1.2,5.3,3.9,5.9l24,4.7
		c1.8,0.4,3.5,0.8,5.3,1.2c0.4,0.1,0.8,0.1,1.1,0.1c2.3,0,4.3-1.6,4.9-3.9C1403.9,111.1,1402.2,108.4,1399.5,107.8z"/>
	<path class="st0" d="M1340.5,96l-29.4-5.8c-2.7-0.5-5.3,1.2-5.9,3.9c-0.5,2.7,1.2,5.3,3.9,5.9l29.4,5.8c0.3,0.1,0.6,0.1,1,0.1
		c2.3,0,4.4-1.7,4.9-4C1345,99.2,1343.2,96.6,1340.5,96z"/>
	<path class="st0" d="M1679.2,377.7l0,0.1c0.5,2.8,1,5.7,1.4,8.6c0.4,2.5,2.5,4.2,4.9,4.2c0.3,0,0.5,0,0.8-0.1
		c2.7-0.4,4.6-3,4.2-5.7c-0.5-2.9-1-5.9-1.5-8.8c-0.1-0.8-1.4-8.6-5.2-21.2c-0.8-2.6-3.6-4.2-6.2-3.4c-2.6,0.8-4.2,3.6-3.4,6.2
		C1678,370.1,1679.2,377.6,1679.2,377.7z"/>
	<path class="st0" d="M1664.5,329.9c0.8,1.9,2.7,3.1,4.6,3.1c0.6,0,1.3-0.1,1.9-0.4c2.6-1,3.8-4,2.7-6.5
		c-3.8-9.3-8.1-18.6-12.8-27.6c-1.3-2.4-4.3-3.4-6.7-2.1c-2.5,1.3-3.4,4.3-2.1,6.7C1656.6,311.8,1660.8,320.9,1664.5,329.9z"/>
	<path class="st0" d="M1457.5,125c-9.3-3.4-19-6.6-28.7-9.5c-2.6-0.8-5.4,0.7-6.2,3.4c-0.8,2.6,0.7,5.4,3.4,6.2
		c9.6,2.8,19,6,28.1,9.3c0.6,0.2,1.2,0.3,1.7,0.3c2,0,3.9-1.3,4.7-3.3C1461.5,128.9,1460.1,126,1457.5,125z"/>
	<path class="st0" d="M1680.8,529.8c-2.7-0.6-5.4,1.1-6,3.8c-2.2,9.5-4.7,19.2-7.5,28.7c-0.8,2.6,0.7,5.4,3.4,6.2
		c0.5,0.1,1,0.2,1.4,0.2c2.2,0,4.1-1.4,4.8-3.6c2.9-9.7,5.4-19.6,7.6-29.4C1685.2,533.1,1683.5,530.4,1680.8,529.8z"/>
	<path class="st0" d="M1689.2,470.4c-2.8-0.2-5.2,1.8-5.4,4.6c-0.8,9.7-2,19.6-3.5,29.4c-0.4,2.7,1.5,5.3,4.2,5.7
		c0.3,0,0.5,0.1,0.8,0.1c2.4,0,4.6-1.8,4.9-4.2c1.5-10,2.7-20.2,3.5-30.2C1694,473.1,1691.9,470.6,1689.2,470.4z"/>
	<path class="st0" d="M1587,202.4c-2-1.9-5.2-1.7-7.1,0.3c-1.9,2-1.7,5.2,0.3,7.1c7.3,6.6,14.3,13.7,20.9,20.9
		c1,1.1,2.3,1.6,3.7,1.6c1.2,0,2.4-0.4,3.4-1.3c2-1.9,2.2-5,0.3-7.1C1601.8,216.5,1594.5,209.2,1587,202.4z"/>
	<path class="st0" d="M1694,415.1c-0.2-2.8-2.6-4.8-5.4-4.6c-2.8,0.2-4.8,2.6-4.6,5.4c0.7,9.1,1,18.4,1,27.7l0,1.9c0,2.8,2.2,5,5,5
		c0,0,0,0,0,0c2.8,0,5-2.2,5-5l0-1.9C1695.1,434,1694.7,424.5,1694,415.1z"/>
	<path class="st0" d="M1640.8,642.7c-2.4-1.3-5.5-0.3-6.7,2.1c-8.5,16.2-14.7,25.5-14.7,25.5c-1.5,2.3-0.9,5.4,1.3,6.9
		c0.9,0.6,1.8,0.9,2.8,0.9c1.6,0,3.2-0.8,4.1-2.2c0.3-0.4,6.6-9.7,15.3-26.5C1644.2,647,1643.3,644,1640.8,642.7z"/>
	<path class="st0" d="M1628.2,247.2c-1.7-2.2-4.8-2.6-7-0.9c-2.2,1.7-2.6,4.8-0.9,7c6,7.8,11.7,15.9,17,24.2c1,1.5,2.6,2.3,4.2,2.3
		c0.9,0,1.9-0.3,2.7-0.8c2.3-1.5,3-4.6,1.5-6.9C1640.2,263.6,1634.3,255.2,1628.2,247.2z"/>
	<path class="st0" d="M1664.4,587.5c-2.6-0.9-5.5,0.4-6.4,3c-3.4,9.3-7.1,18.5-11.1,27.6c-1.1,2.5,0,5.5,2.6,6.6
		c0.7,0.3,1.3,0.4,2,0.4c1.9,0,3.8-1.1,4.6-3c4-9.2,7.9-18.7,11.3-28.1C1668.3,591.3,1667,588.5,1664.4,587.5z"/>
	
		<rect x="1266.3" y="87.9" transform="matrix(0.1923 -0.9813 0.9813 0.1923 957.814 1349.6548)" class="st0" width="65" height="10"/>
</g>
<g id="Pitroad">
	<path class="st1" d="M751.1,819.8c-10.3-1.1-20.3-2.4-29.7-3.7c-1.4-0.2-2.6,0.8-2.8,2.1c-0.2,1.4,0.8,2.6,2.1,2.8
		c9.4,1.3,19.5,2.6,29.8,3.7c0.1,0,0.2,0,0.3,0c1.3,0,2.3-0.9,2.5-2.2C753.5,821.1,752.5,819.9,751.1,819.8z"/>
	<path class="st1" d="M692,811.2c-10-1.9-19.6-3.9-29.2-6.2c-1.3-0.3-2.7,0.5-3,1.9c-0.3,1.3,0.5,2.7,1.9,3
		c9.7,2.3,19.3,4.3,29.4,6.2c0.2,0,0.3,0,0.5,0c1.2,0,2.2-0.8,2.5-2C694.2,812.8,693.3,811.5,692,811.2z"/>
	<path class="st1" d="M633.9,797.5c-8.4-2.4-16.3-4.8-24.7-7.3l-4-1.2c-1.3-0.4-2.7,0.3-3.1,1.7s0.3,2.7,1.7,3.1l4,1.2
		c8,2.4,16.4,4.9,24.8,7.3c0.2,0.1,0.5,0.1,0.7,0.1c1.1,0,2.1-0.7,2.4-1.8C636,799.2,635.3,797.8,633.9,797.5z"/>
	<path class="st1" d="M930.5,828.7c-10.8-0.1-20.9-0.2-30-0.3c0,0,0,0,0,0c-1.4,0-2.5,1.1-2.5,2.5c0,1.4,1.1,2.5,2.5,2.5
		c9.1,0.1,19.2,0.2,30,0.3c0,0,0,0,0,0c1.4,0,2.5-1.1,2.5-2.5C933,829.9,931.9,828.7,930.5,828.7z"/>
	<path class="st1" d="M810.7,824.8c-10.3-0.7-20.4-1.4-29.8-2.2c-1.4-0.1-2.6,0.9-2.7,2.3c-0.1,1.4,0.9,2.6,2.3,2.7
		c9.5,0.8,19.6,1.6,29.9,2.2c0.1,0,0.1,0,0.2,0c1.3,0,2.4-1,2.5-2.3C813.2,826.1,812.1,824.9,810.7,824.8z"/>
	<path class="st1" d="M990.5,828.8C990.5,828.8,990.5,828.8,990.5,828.8c-10,0-20,0-30,0c0,0,0,0,0,0c-1.4,0-2.5,1.1-2.5,2.5
		c0,1.4,1.1,2.5,2.5,2.5c4.9,0,9.9,0,14.8,0c5.1,0,10.1,0,15.2,0c1.4,0,2.5-1.1,2.5-2.5C993,830,991.9,828.8,990.5,828.8z"/>
	<path class="st1" d="M363.9,673c-15.1-11-23.6-18.2-23.6-18.3c-1.1-0.9-2.6-0.8-3.5,0.3c-0.9,1.1-0.8,2.6,0.3,3.5
		c0.1,0.1,8.7,7.4,23.9,18.5c0.4,0.3,1,0.5,1.5,0.5c0.8,0,1.5-0.4,2-1C365.3,675.4,365.1,673.9,363.9,673z"/>
	<path class="st1" d="M413.7,706.3c-8.5-5.2-17-10.6-25.2-16.1c-1.1-0.8-2.7-0.5-3.5,0.7c-0.8,1.1-0.5,2.7,0.7,3.5
		c8.3,5.5,16.8,11,25.4,16.2c0.4,0.3,0.9,0.4,1.3,0.4c0.8,0,1.7-0.4,2.1-1.2C415.2,708.6,414.9,707,413.7,706.3z"/>
	<path class="st1" d="M520.2,760.6c-9.1-3.7-18.3-7.7-27.4-11.9c-1.3-0.6-2.7,0-3.3,1.2c-0.6,1.3,0,2.7,1.2,3.3
		c9.2,4.2,18.5,8.3,27.6,12c0.3,0.1,0.6,0.2,0.9,0.2c1,0,1.9-0.6,2.3-1.6C522.1,762.5,521.5,761.1,520.2,760.6z"/>
	<path class="st1" d="M576.5,780.5c-9.4-2.8-18.9-5.9-28.4-9.3c-1.3-0.5-2.7,0.2-3.2,1.5c-0.5,1.3,0.2,2.7,1.5,3.2
		c9.5,3.4,19.2,6.5,28.6,9.3c0.2,0.1,0.5,0.1,0.7,0.1c1.1,0,2.1-0.7,2.4-1.8C578.6,782.3,577.8,780.9,576.5,780.5z"/>
	<path class="st1" d="M465.8,735.6c-8.8-4.5-17.7-9.2-26.4-14.1c-1.2-0.7-2.7-0.2-3.4,1c-0.7,1.2-0.2,2.7,1,3.4
		c8.8,4.9,17.7,9.7,26.5,14.2c0.4,0.2,0.8,0.3,1.1,0.3c0.9,0,1.8-0.5,2.2-1.4C467.6,737.7,467.1,736.2,465.8,735.6z"/>
	<path class="st1" d="M870.6,827.8c-6.5-0.2-12.5-0.4-17.9-0.6c-4.1-0.2-8.1-0.4-12-0.6c-1.4-0.1-2.6,1-2.6,2.4s1,2.6,2.4,2.6
		c3.9,0.2,8,0.4,12.1,0.6c5.4,0.2,11.4,0.5,18,0.6c0,0,0,0,0.1,0c1.3,0,2.5-1.1,2.5-2.4C873,829,871.9,827.8,870.6,827.8z"/>
	<path class="st1" d="M1460.5,757.5c-9,3.5-18.4,7.1-28,10.6c-1.3,0.5-2,1.9-1.5,3.2c0.4,1,1.3,1.6,2.3,1.6c0.3,0,0.6,0,0.9-0.2
		c9.7-3.5,19.1-7.1,28.1-10.7c1.3-0.5,1.9-2,1.4-3.2C1463.2,757.6,1461.7,757,1460.5,757.5z"/>
	<path class="st1" d="M1347.2,796.2c-9.3,2.5-19.1,5-29,7.3c-1.3,0.3-2.2,1.7-1.9,3c0.3,1.2,1.3,1.9,2.4,1.9c0.2,0,0.4,0,0.6-0.1
		c10-2.3,19.8-4.8,29.2-7.3c1.3-0.4,2.1-1.7,1.8-3.1C1349.9,796.6,1348.5,795.8,1347.2,796.2z"/>
	<path class="st1" d="M1404.2,778.1c-8.6,3-17.7,6-26.8,9l-1.6,0.5c-1.3,0.4-2,1.8-1.6,3.1c0.3,1.1,1.3,1.7,2.4,1.7
		c0.3,0,0.5,0,0.8-0.1l1.6-0.5c9.2-3,18.3-6.1,26.9-9c1.3-0.5,2-1.9,1.5-3.2C1407,778.4,1405.6,777.7,1404.2,778.1z"/>
	<path class="st1" d="M1568.5,706.5c-8.4,4.9-17.2,9.7-26.2,14.4c-1.2,0.6-1.7,2.1-1.1,3.4c0.4,0.9,1.3,1.4,2.2,1.4
		c0.4,0,0.8-0.1,1.1-0.3c9.1-4.7,18-9.6,26.4-14.5c1.2-0.7,1.6-2.2,0.9-3.4C1571.2,706.2,1569.7,705.8,1568.5,706.5z"/>
	<path class="st1" d="M1515.5,734c-8.7,4.1-17.9,8.1-27.3,12.2c-1.3,0.5-1.9,2-1.3,3.3c0.4,1,1.3,1.5,2.3,1.5c0.3,0,0.7-0.1,1-0.2
		c9.5-4,18.7-8.2,27.5-12.2c1.3-0.6,1.8-2.1,1.2-3.3C1518.2,733.9,1516.7,733.4,1515.5,734z"/>
	<path class="st1" d="M1229.8,819.3c-9.8,1.3-19.8,2.5-29.7,3.5c-1.4,0.1-2.4,1.4-2.2,2.7c0.1,1.3,1.2,2.2,2.5,2.2
		c0.1,0,0.2,0,0.3,0c10-1.1,20-2.3,29.9-3.6c1.4-0.2,2.3-1.4,2.1-2.8C1232.5,820.1,1231.2,819.1,1229.8,819.3z"/>
	<path class="st1" d="M1170.3,825.6c-10.1,0.8-20.1,1.4-29.9,1.9c-1.4,0.1-2.4,1.2-2.4,2.6c0.1,1.3,1.2,2.4,2.5,2.4c0,0,0.1,0,0.1,0
		c9.8-0.5,19.9-1.1,30-1.9c1.4-0.1,2.4-1.3,2.3-2.7C1172.9,826.5,1171.7,825.5,1170.3,825.6z"/>
	<path class="st1" d="M1110.5,828.4C1110.5,828.4,1110.5,828.4,1110.5,828.4c-3.9,0.1-7.8,0.1-11.5,0.1c-5.7,0-11.9,0-18.6,0
		c-1.4,0-2.5,1.1-2.5,2.5c0,1.4,1.1,2.5,2.5,2.5c0,0,0,0,0,0c6.6,0,12.9,0,18.5,0c3.7,0,7.6,0,11.5-0.1c1.4,0,2.5-1.2,2.5-2.5
		C1113,829.5,1111.9,828.4,1110.5,828.4z"/>
	<path class="st1" d="M1288.9,809.6c-9.6,1.9-19.5,3.6-29.5,5.3c-1.4,0.2-2.3,1.5-2.1,2.9c0.2,1.2,1.3,2.1,2.5,2.1
		c0.1,0,0.3,0,0.4,0c10-1.6,20-3.4,29.6-5.3c1.4-0.3,2.2-1.6,2-2.9C1291.6,810.3,1290.3,809.4,1288.9,809.6z"/>
	<path class="st1" d="M1050.4,828.6c-9.6,0-19.6,0.1-29.9,0.1c-1.4,0-2.5,1.1-2.5,2.5c0,1.4,1.1,2.5,2.5,2.5c0,0,0,0,0,0
		c10.3,0,20.3-0.1,30-0.1l0-2.5L1050.4,828.6z"/>
	<path class="st1" d="M1625.9,671.4l-46.6,10l14.8,9.3c-0.1,0.1-0.2,0.1-0.2,0.2c-1.2,0.8-1.5,2.3-0.7,3.5c0.5,0.7,1.3,1.1,2.1,1.1
		c0.5,0,0.9-0.1,1.4-0.4c0.1-0.1,0.2-0.1,0.3-0.2l3.6,17L1625.9,671.4z"/>
</g>
</svg>
