<?xml version="1.0" encoding="utf-8"?>
<!-- Generator: Adobe Illustrator 24.0.1, SVG Export Plug-In . SVG Version: 6.00 Build 0)  -->
<svg version="1.1" id="Oval_-_Pit_Road" xmlns="http://www.w3.org/2000/svg" xmlns:xlink="http://www.w3.org/1999/xlink" x="0px"
	 y="0px" viewBox="0 0 1920 1080" style="enable-background:new 0 0 1920 1080;" xml:space="preserve">
<style type="text/css">
	.st0{fill:#016699;}
	.st1{fill:#D82520;}
</style>
<title>pitroad</title>
<g id="Mergeline">
	<path class="st0" d="M1525.6,414c-1.4-2.4-4.5-3.1-6.9-1.7c-2.4,1.4-3.1,4.5-1.7,6.9c4.9,8.1,10,16.8,15.1,25.8
		c0.9,1.6,2.6,2.5,4.4,2.5c0.8,0,1.7-0.2,2.4-0.6c2.4-1.4,3.3-4.4,1.9-6.8C1535.7,431,1530.5,422.2,1525.6,414z"/>
	<path class="st0" d="M1465.6,345.5c-7.1-5.7-15.1-11.9-23.7-18.5c-2.2-1.7-5.3-1.3-7,0.9c-1.7,2.2-1.3,5.3,0.9,7
		c8.6,6.6,16.5,12.8,23.6,18.4c0.9,0.7,2,1.1,3.1,1.1c1.5,0,2.9-0.6,3.9-1.9C1468.2,350.3,1467.8,347.2,1465.6,345.5z"/>
	<path class="st0" d="M1494.8,370.3c-1.7-1.6-3.7-3.4-5.9-5.4c-2.1-1.8-5.2-1.6-7.1,0.4c-1.8,2.1-1.6,5.2,0.4,7.1
		c2.2,1.9,4,3.6,5.6,5.2c2.2,2.1,6.2,6.7,13.1,16.7c1,1.4,2.5,2.2,4.1,2.2c1,0,2-0.3,2.8-0.9c2.3-1.6,2.8-4.7,1.3-7
		C1503.3,379.9,1498.4,373.8,1494.8,370.3z"/>
	<path class="st0" d="M1417.9,308.8c-8-6-16.2-12-24.3-17.8c-2.2-1.6-5.4-1.1-7,1.1c-1.6,2.2-1.1,5.4,1.1,7
		c8,5.8,16.2,11.8,24.2,17.7c0.9,0.7,1.9,1,3,1c1.5,0,3-0.7,4-2C1420.6,313.6,1420.1,310.5,1417.9,308.8z"/>
	<path class="st0" d="M1599,635.3c-2.8-0.1-5.1,2-5.2,4.8c-0.5,10.3-1.8,19.9-4,28.7c-0.7,2.7,1,5.4,3.7,6c0.4,0.1,0.8,0.1,1.2,0.1
		c2.3,0,4.3-1.5,4.9-3.8c2.3-9.4,3.7-19.7,4.3-30.6C1603.9,637.7,1601.8,635.4,1599,635.3z"/>
	<path class="st0" d="M1598.1,615.3c0.2,0,0.3,0,0.5,0c2.8-0.3,4.8-2.7,4.5-5.4c-0.9-9.8-2.4-19.9-4.5-30.2
		c-0.5-2.7-3.2-4.4-5.9-3.9c-2.7,0.5-4.5,3.2-3.9,5.9c2,9.9,3.5,19.7,4.3,29.1C1593.3,613.3,1595.5,615.3,1598.1,615.3z"/>
	<path class="st0" d="M1555.2,466.6c-1.3-2.4-4.3-3.4-6.8-2.1c-2.4,1.3-3.4,4.3-2.1,6.8c4.9,9.3,9.4,18.3,13.4,26.7
		c0.9,1.8,2.6,2.8,4.5,2.8c0.7,0,1.5-0.2,2.2-0.5c2.5-1.2,3.5-4.2,2.3-6.7C1564.7,485.1,1560.2,476.1,1555.2,466.6z"/>
	<path class="st0" d="M1591.1,550.1c-2.8-9.3-6.1-18.8-9.8-28.1l-0.2-0.6c-1-2.6-3.9-3.8-6.5-2.8c-2.6,1-3.8,3.9-2.8,6.5l0.2,0.6
		c3.6,9.1,6.8,18.3,9.5,27.4c0.7,2.2,2.6,3.6,4.8,3.6c0.5,0,1-0.1,1.4-0.2C1590.4,555.5,1591.9,552.8,1591.1,550.1z"/>
	
		<rect x="1347.3" y="282.3" transform="matrix(0.5871 -0.8095 0.8095 0.5871 337.1979 1235.5829)" class="st0" width="65" height="10"/>
</g>
<g id="Pitroad">
	<path class="st1" d="M762.7,860.4c-9.1-0.1-19-0.2-29.9-0.3c-1.4,0-2.5,1.1-2.5,2.5s1.1,2.5,2.5,2.5c10.9,0.1,20.8,0.2,29.9,0.3
		c0,0,0,0,0,0c1.4,0,2.5-1.1,2.5-2.5C765.2,861.5,764.1,860.4,762.7,860.4z"/>
	<path class="st1" d="M642.8,859.1c-10.5-0.2-20.3-0.5-30-0.9c-1.4-0.1-2.5,1-2.6,2.4c-0.1,1.4,1,2.5,2.4,2.6
		c9.7,0.4,19.5,0.7,30.1,0.9c0,0,0,0,0.1,0c1.4,0,2.5-1.1,2.5-2.4C645.3,860.3,644.2,859.1,642.8,859.1z"/>
	<path class="st1" d="M702.9,859.7c-4.4,0-9.2-0.1-14.3-0.1c-5,0-10.2-0.1-15.8-0.1c0,0,0,0,0,0c-1.4,0-2.5,1.1-2.5,2.5
		c0,1.4,1.1,2.5,2.5,2.5c5.5,0,10.8,0.1,15.8,0.1c5.1,0,9.9,0.1,14.3,0.1c0,0,0,0,0,0c1.4,0,2.5-1.1,2.5-2.5
		C705.4,860.9,704.3,859.7,702.9,859.7z"/>
	<path class="st1" d="M941.8,861.9c-10.8-0.1-20.7-0.1-29.9-0.2c0,0,0,0,0,0c-1.4,0-2.5,1.1-2.5,2.5c0,1.4,1.1,2.5,2.5,2.5
		c9.2,0.1,19.1,0.1,29.9,0.2c0,0,0,0,0,0c1.4,0,2.5-1.1,2.5-2.5C944.3,863.1,943.2,861.9,941.8,861.9z"/>
	<path class="st1" d="M882,861.6c-10.9-0.1-20.7-0.1-29.9-0.2c0,0,0,0,0,0c-1.4,0-2.5,1.1-2.5,2.5c0,1.4,1.1,2.5,2.5,2.5
		c9.2,0.1,19,0.2,29.9,0.2c0,0,0,0,0,0c1.4,0,2.5-1.1,2.5-2.5C884.5,862.7,883.4,861.6,882,861.6z"/>
	<path class="st1" d="M822.3,861.1c-9.8-0.1-19.5-0.2-29.8-0.3c-1.4,0-2.5,1.1-2.5,2.5c0,1.4,1.1,2.5,2.5,2.5
		c10.3,0.1,20,0.2,29.8,0.3c0,0,0,0,0,0c1.4,0,2.5-1.1,2.5-2.5C824.8,862.2,823.7,861.1,822.3,861.1z"/>
	<path class="st1" d="M350.7,805.4c-9.2-4.4-18-9.1-26.2-14.1c-1.2-0.7-2.7-0.3-3.4,0.9s-0.3,2.7,0.9,3.4c8.4,5,17.3,9.8,26.6,14.3
		c0.3,0.2,0.7,0.2,1.1,0.2c0.9,0,1.8-0.5,2.3-1.4C352.5,807.5,352,806,350.7,805.4z"/>
	<path class="st1" d="M299.9,774.7c-8-6.1-15.6-12.6-22.4-19.4c-1-1-2.6-1-3.5,0s-1,2.6,0,3.5c7,6.9,14.7,13.6,22.9,19.8
		c0.5,0.3,1,0.5,1.5,0.5c0.8,0,1.5-0.3,2-1C301.2,777.1,301,775.5,299.9,774.7z"/>
	<path class="st1" d="M582.9,856.7c-10.2-0.6-20.2-1.4-29.9-2.3c-1.4-0.1-2.6,0.9-2.7,2.3c-0.1,1.4,0.9,2.6,2.3,2.7
		c9.7,0.9,19.8,1.7,30,2.3c0.1,0,0.1,0,0.2,0c1.3,0,2.4-1,2.5-2.3C585.4,857.9,584.3,856.7,582.9,856.7z"/>
	<path class="st1" d="M406.3,827c-9.7-3-19.2-6.3-28.2-9.8c-1.3-0.5-2.7,0.1-3.2,1.4c-0.5,1.3,0.1,2.7,1.4,3.2
		c9.1,3.5,18.7,6.9,28.5,9.9c0.2,0.1,0.5,0.1,0.7,0.1c1.1,0,2.1-0.7,2.4-1.8C408.3,828.8,407.6,827.4,406.3,827z"/>
	<path class="st1" d="M523.3,851.2c-10.1-1.2-20.1-2.6-29.6-4.2c-1.4-0.2-2.6,0.7-2.9,2.1s0.7,2.6,2.1,2.9c9.7,1.5,19.7,3,29.8,4.2
		c0.1,0,0.2,0,0.3,0c1.2,0,2.3-0.9,2.5-2.2C525.6,852.6,524.6,851.3,523.3,851.2z"/>
	<path class="st1" d="M464.2,841.7c-10-2-19.8-4.2-29.2-6.6c-1.3-0.3-2.7,0.5-3,1.8c-0.3,1.3,0.5,2.7,1.8,3
		c9.5,2.4,19.3,4.6,29.4,6.7c0.2,0,0.3,0.1,0.5,0.1c1.2,0,2.2-0.8,2.4-2C466.4,843.3,465.5,842,464.2,841.7z"/>
	<path class="st1" d="M1121.4,862.6l-30-0.1c0,0,0,0,0,0c-1.4,0-2.5,1.1-2.5,2.5c0,1.4,1.1,2.5,2.5,2.5l30,0.1c0,0,0,0,0,0
		c1.4,0,2.5-1.1,2.5-2.5C1123.9,863.7,1122.8,862.6,1121.4,862.6z"/>
	<path class="st1" d="M1361,861.9c-12.3,1.4-19.9,1.4-20,1.4l-9.8,0c0,0,0,0,0,0c-1.4,0-2.5,1.1-2.5,2.5c0,1.4,1.1,2.5,2.5,2.5
		l9.8,0c0.3,0,7.9,0,20.5-1.4c1.4-0.2,2.4-1.4,2.2-2.8S1362.3,861.7,1361,861.9z"/>
	<path class="st1" d="M1474.1,826.7c-8.5,4.7-17.5,9.1-26.8,12.9c-1.3,0.5-1.9,2-1.3,3.3c0.4,1,1.3,1.5,2.3,1.5c0.3,0,0.7-0.1,1-0.2
		c9.4-3.9,18.6-8.4,27.3-13.2c1.2-0.7,1.6-2.2,1-3.4C1476.8,826.5,1475.3,826,1474.1,826.7z"/>
	<path class="st1" d="M1419.3,849.7c-9.4,2.9-19.1,5.4-28.9,7.4c-1.4,0.3-2.2,1.6-1.9,3c0.2,1.2,1.3,2,2.4,2c0.2,0,0.3,0,0.5-0.1
		c9.9-2.1,19.8-4.6,29.3-7.5c1.3-0.4,2.1-1.8,1.7-3.1C1422,850.1,1420.6,849.3,1419.3,849.7z"/>
	<path class="st1" d="M1563.5,745.9c-1.2-0.7-2.7-0.4-3.4,0.8c-5.3,8.3-11.2,16.4-17.4,23.9c-0.9,1.1-0.7,2.6,0.3,3.5
		c0.5,0.4,1,0.6,1.6,0.6c0.7,0,1.4-0.3,1.9-0.9c6.4-7.7,12.4-15.9,17.8-24.5C1565,748.2,1564.7,746.7,1563.5,745.9z"/>
	<path class="st1" d="M1522.2,792.1c-7.2,6.6-14.9,12.9-23,18.7c-1.1,0.8-1.4,2.4-0.6,3.5c0.5,0.7,1.3,1,2,1c0.5,0,1-0.2,1.5-0.5
		c8.3-5.9,16.2-12.3,23.5-19.1c1-0.9,1.1-2.5,0.1-3.5C1524.8,791.3,1523.2,791.2,1522.2,792.1z"/>
	<path class="st1" d="M1181.3,862.8l-30-0.1c0,0,0,0,0,0c-1.4,0-2.5,1.1-2.5,2.5c0,1.4,1.1,2.5,2.5,2.5l30,0.1c0,0,0,0,0,0
		c1.4,0,2.5-1.1,2.5-2.5C1183.8,863.9,1182.7,862.8,1181.3,862.8z"/>
	<path class="st1" d="M1001.6,862.2l-29.9-0.1c0,0,0,0,0,0c-1.4,0-2.5,1.1-2.5,2.5c0,1.4,1.1,2.5,2.5,2.5l29.9,0.1c0,0,0,0,0,0
		c1.4,0,2.5-1.1,2.5-2.5C1004.1,863.3,1003,862.2,1001.6,862.2z"/>
	<path class="st1" d="M1301.2,863.2l-30-0.1c0,0,0,0,0,0c-1.4,0-2.5,1.1-2.5,2.5c0,1.4,1.1,2.5,2.5,2.5l30,0.1c0,0,0,0,0,0
		c1.4,0,2.5-1.1,2.5-2.5C1303.7,864.3,1302.6,863.2,1301.2,863.2z"/>
	<path class="st1" d="M1061.5,862.4l-29.9-0.1c0,0,0,0,0,0c-1.4,0-2.5,1.1-2.5,2.5c0,1.4,1.1,2.5,2.5,2.5l29.9,0.1c0,0,0,0,0,0
		c1.4,0,2.5-1.1,2.5-2.5C1064,863.5,1062.9,862.4,1061.5,862.4z"/>
	<path class="st1" d="M1241.3,863l-30-0.1c0,0,0,0,0,0c-1.4,0-2.5,1.1-2.5,2.5c0,1.4,1.1,2.5,2.5,2.5l30,0.1c0,0,0,0,0,0
		c1.4,0,2.5-1.1,2.5-2.5C1243.8,864.1,1242.6,863,1241.3,863z"/>
	<path class="st1" d="M1594.7,669.9l-30.6,36.5l17.2-1.8c-2.1,5.5-4.5,10.9-6.9,16.1c-0.6,1.2-0.1,2.7,1.2,3.3
		c0.3,0.2,0.7,0.2,1.1,0.2c0.9,0,1.8-0.5,2.3-1.4c2.6-5.5,5-11.1,7.2-16.8l13.4,11.3L1594.7,669.9z"/>
</g>
</svg>
