<?xml version="1.0" encoding="utf-8"?>
<!-- Generator: Adobe Illustrator 24.0.1, SVG Export Plug-In . SVG Version: 6.00 Build 0)  -->
<svg version="1.1" id="Road_Course_-_Pit_Road" xmlns="http://www.w3.org/2000/svg" xmlns:xlink="http://www.w3.org/1999/xlink"
	 x="0px" y="0px" viewBox="0 0 1920 1080" style="enable-background:new 0 0 1920 1080;" xml:space="preserve">
<style type="text/css">
	.st0{fill:#D82520;}
</style>
<title>pitroad</title>
<g id="Pitroad">
	<path class="st0" d="M299.9,774.7c-8-6.1-15.6-12.6-22.4-19.4c-1-1-2.6-1-3.5,0c-1,1-1,2.6,0,3.5c7,6.9,14.7,13.6,22.9,19.8
		c0.5,0.3,1,0.5,1.5,0.5c0.8,0,1.5-0.3,2-1C301.2,777.1,301,775.5,299.9,774.7z"/>
	<path class="st0" d="M881.9,861.7c-11.1-0.1-20.9-0.2-29.9-0.2c0,0,0,0,0,0c-1.4,0-2.5,1.1-2.5,2.5c0,1.4,1.1,2.5,2.5,2.5
		c9,0.1,18.7,0.2,29.9,0.2c0,0,0,0,0,0c1.4,0,2.5-1.1,2.5-2.5C884.4,862.8,883.3,861.7,881.9,861.7z"/>
	<path class="st0" d="M702.9,859.7c-4.4,0-9.2-0.1-14.3-0.1c-5,0-10.2-0.1-15.8-0.1c-1.4,0-2.5,1.1-2.5,2.5s1.1,2.5,2.5,2.5
		c5.5,0,10.8,0.1,15.8,0.1c5.1,0,9.9,0.1,14.3,0.1c0,0,0,0,0,0c1.4,0,2.5-1.1,2.5-2.5C705.4,860.9,704.3,859.7,702.9,859.7z"/>
	<path class="st0" d="M762.7,860.4c-9-0.1-18.8-0.2-29.9-0.4c0,0,0,0,0,0c-1.4,0-2.5,1.1-2.5,2.5c0,1.4,1.1,2.5,2.5,2.5
		c11.1,0.1,20.9,0.2,29.9,0.4c0,0,0,0,0,0c1.4,0,2.5-1.1,2.5-2.5C765.1,861.6,764,860.4,762.7,860.4z"/>
	<path class="st0" d="M822.3,861.1c-9.8-0.1-19.3-0.2-29.8-0.4c0,0,0,0,0,0c-1.4,0-2.5,1.1-2.5,2.5c0,1.4,1.1,2.5,2.5,2.5
		c10.4,0.1,20,0.3,29.8,0.4c0,0,0,0,0,0c1.4,0,2.5-1.1,2.5-2.5C824.8,862.3,823.7,861.2,822.3,861.1z"/>
	<path class="st0" d="M642.8,859.1c-10.5-0.2-20.3-0.5-30-0.9c-1.4-0.1-2.5,1-2.6,2.4c-0.1,1.4,1,2.5,2.4,2.6
		c9.7,0.4,19.5,0.7,30.1,0.9c0,0,0,0,0.1,0c1.4,0,2.5-1.1,2.5-2.4C645.3,860.3,644.2,859.1,642.8,859.1z"/>
	<path class="st0" d="M350.7,805.4c-9.2-4.4-18-9.1-26.2-14.1c-1.2-0.7-2.7-0.3-3.4,0.9c-0.7,1.2-0.3,2.7,0.9,3.4
		c8.4,5,17.3,9.8,26.6,14.3c0.3,0.2,0.7,0.2,1.1,0.2c0.9,0,1.8-0.5,2.3-1.4C352.5,807.5,352,806,350.7,805.4z"/>
	<path class="st0" d="M406.3,827c-9.7-3-19.2-6.3-28.2-9.8c-1.3-0.5-2.7,0.1-3.2,1.4c-0.5,1.3,0.1,2.7,1.4,3.2
		c9.1,3.5,18.7,6.9,28.5,9.9c0.2,0.1,0.5,0.1,0.7,0.1c1.1,0,2.1-0.7,2.4-1.8C408.3,828.8,407.6,827.4,406.3,827z"/>
	<path class="st0" d="M464.2,841.7c-10-2-19.8-4.2-29.2-6.6c-1.3-0.3-2.7,0.5-3,1.8c-0.3,1.3,0.5,2.7,1.8,3
		c9.5,2.4,19.3,4.6,29.4,6.7c0.2,0,0.3,0.1,0.5,0.1c1.2,0,2.2-0.8,2.4-2C466.4,843.3,465.5,842,464.2,841.7z"/>
	<path class="st0" d="M523.3,851.2c-10.1-1.2-20.1-2.6-29.6-4.2c-1.4-0.2-2.6,0.7-2.9,2.1c-0.2,1.4,0.7,2.6,2.1,2.9
		c9.7,1.5,19.7,3,29.8,4.2c0.1,0,0.2,0,0.3,0c1.2,0,2.3-0.9,2.5-2.2C525.6,852.6,524.6,851.3,523.3,851.2z"/>
	<path class="st0" d="M582.9,856.7c-10.2-0.6-20.2-1.4-29.9-2.3c-1.4-0.1-2.6,0.9-2.7,2.3c-0.1,1.4,0.9,2.6,2.3,2.7
		c9.7,0.9,19.8,1.7,30,2.3c0.1,0,0.1,0,0.2,0c1.3,0,2.4-1,2.5-2.3C585.4,857.9,584.3,856.7,582.9,856.7z"/>
	<path class="st0" d="M1241.1,863.1l-30-0.1c0,0,0,0,0,0c-1.4,0-2.5,1.1-2.5,2.5c0,1.4,1.1,2.5,2.5,2.5l30,0.1c0,0,0,0,0,0
		c1.4,0,2.5-1.1,2.5-2.5C1243.6,864.2,1242.5,863.1,1241.1,863.1z"/>
	<path class="st0" d="M1301.1,863.3l-30-0.1c0,0,0,0,0,0c-1.4,0-2.5,1.1-2.5,2.5c0,1.4,1.1,2.5,2.5,2.5l30,0.1c0,0,0,0,0,0
		c1.4,0,2.5-1.1,2.5-2.5C1303.6,864.4,1302.5,863.3,1301.1,863.3z"/>
	<path class="st0" d="M1360.1,856.2c-9.9,1.9-19.8,3.6-29.5,5.1c-1.4,0.2-2.3,1.5-2.1,2.9c0.2,1.2,1.3,2.1,2.5,2.1
		c0.1,0,0.3,0,0.4,0c9.7-1.5,19.7-3.2,29.7-5.2c1.4-0.3,2.2-1.6,2-2.9C1362.8,856.9,1361.5,856,1360.1,856.2z"/>
	<path class="st0" d="M941.7,862c-10.9-0.1-20.8-0.1-29.9-0.2c0,0,0,0,0,0c-1.4,0-2.5,1.1-2.5,2.5c0,1.4,1.1,2.5,2.5,2.5
		c9.1,0,19,0.1,29.9,0.2c0,0,0,0,0,0c1.4,0,2.5-1.1,2.5-2.5C944.2,863.1,943.1,862,941.7,862z"/>
	<path class="st0" d="M1418.3,842.4c-9.1,2.7-18.8,5.2-28.9,7.6c-1.3,0.3-2.2,1.7-1.9,3c0.3,1.1,1.3,1.9,2.4,1.9
		c0.2,0,0.4,0,0.6-0.1c10.1-2.4,19.9-5,29.1-7.7c1.3-0.4,2.1-1.8,1.7-3.1C1421,842.7,1419.6,842,1418.3,842.4z"/>
	<path class="st0" d="M1181.2,862.9l-30-0.1c-1.4,0-2.5,1.1-2.5,2.5s1.1,2.5,2.5,2.5l30,0.1c0,0,0,0,0,0c1.4,0,2.5-1.1,2.5-2.5
		C1183.7,864,1182.6,862.9,1181.2,862.9z"/>
	<path class="st0" d="M1001.5,862.3l-29.9-0.1c0,0,0,0,0,0c-1.4,0-2.5,1.1-2.5,2.5c0,1.4,1.1,2.5,2.5,2.5l29.9,0.1c0,0,0,0,0,0
		c1.4,0,2.5-1.1,2.5-2.5C1004,863.4,1002.9,862.3,1001.5,862.3z"/>
	<path class="st0" d="M1061.4,862.5l-29.9-0.1c0,0,0,0,0,0c-1.4,0-2.5,1.1-2.5,2.5c0,1.4,1.1,2.5,2.5,2.5l29.9,0.1c0,0,0,0,0,0
		c1.4,0,2.5-1.1,2.5-2.5C1063.9,863.6,1062.8,862.5,1061.4,862.5z"/>
	<path class="st0" d="M1121.3,862.7l-30-0.1c0,0,0,0,0,0c-1.4,0-2.5,1.1-2.5,2.5c0,1.4,1.1,2.5,2.5,2.5l30,0.1c0,0,0,0,0,0
		c1.4,0,2.5-1.1,2.5-2.5C1123.8,863.8,1122.7,862.7,1121.3,862.7z"/>
	<path class="st0" d="M1440.2,819.2l13,11.4c-2.1,0.8-4.3,1.7-6.5,2.5c-1.3,0.5-2,1.9-1.5,3.2c0.4,1,1.3,1.6,2.3,1.6
		c0.3,0,0.6,0,0.9-0.2c2.4-0.9,4.7-1.8,7-2.7l0.8,17.5l31.6-35.6L1440.2,819.2z"/>
</g>
</svg>
