<?xml version="1.0" encoding="utf-8"?>
<!-- Generator: Adobe Illustrator 24.0.1, SVG Export Plug-In . SVG Version: 6.00 Build 0)  -->
<svg version="1.1" id="Classic_Boot_-_Pit_Road" xmlns="http://www.w3.org/2000/svg" xmlns:xlink="http://www.w3.org/1999/xlink"
	 x="0px" y="0px" viewBox="0 0 1920 1080" style="enable-background:new 0 0 1920 1080;" xml:space="preserve">
<style type="text/css">
	.st0{fill:#016699;}
	.st1{fill:#D82520;}
</style>
<title>pitroad</title>
<g id="Mergeline">
	<path class="st0" d="M77.2,882.5c-1.3-2.4-4.3-3.4-6.8-2.1c-2.4,1.3-3.4,4.3-2.1,6.8c4.9,9.3,11.2,17.8,18.8,25.2
		c1,1,2.2,1.4,3.5,1.4c1.3,0,2.6-0.5,3.6-1.5c1.9-2,1.9-5.1-0.1-7.1C87.3,898.5,81.6,890.8,77.2,882.5z"/>
	<path class="st0" d="M68.1,855.6c-0.9-5.1-1.4-10.5-1.6-16l27.4,0.6l0.2-10l-65-1.3l-0.2,10l27.5,0.6c0.2,6.2,0.8,12.2,1.8,18
		c0.4,2.4,2.5,4.1,4.9,4.1c0.3,0,0.6,0,0.9-0.1C66.8,860.9,68.6,858.3,68.1,855.6z"/>
	<path class="st0" d="M145.4,925.4c-11.2-1.1-20.9-2.7-28.9-4.7c-2.7-0.7-5.4,1-6.1,3.6c-0.7,2.7,1,5.4,3.6,6.1
		c8.4,2.1,18.7,3.8,30.3,5c0.2,0,0.3,0,0.5,0c2.5,0,4.7-1.9,5-4.5C150.1,928.2,148.1,925.7,145.4,925.4z"/>
	<path class="st0" d="M204.6,927.1c-0.1,0-6.5,0.3-16.1,0.3c-4.5,0-9.1-0.1-13.5-0.2c-2.8,0-5.1,2.1-5.1,4.9
		c-0.1,2.8,2.1,5.1,4.9,5.1c4.5,0.1,9.2,0.2,13.8,0.2c9.9,0,16.3-0.3,16.6-0.3c2.8-0.1,4.9-2.5,4.8-5.2
		C209.7,929.1,207.4,927,204.6,927.1z"/>
</g>
<g id="Pitroad">
	<path class="st1" d="M384.7,930l-30-0.1c0,0,0,0,0,0c-1.4,0-2.5,1.1-2.5,2.5c0,1.4,1.1,2.5,2.5,2.5l30,0.1c0,0,0,0,0,0
		c1.4,0,2.5-1.1,2.5-2.5C387.2,931.1,386.1,930,384.7,930z"/>
	<path class="st1" d="M444.7,930.1l-30-0.1c0,0,0,0,0,0c-1.4,0-2.5,1.1-2.5,2.5c0,1.4,1.1,2.5,2.5,2.5l30,0.1c0,0,0,0,0,0
		c1.4,0,2.5-1.1,2.5-2.5C447.2,931.2,446.1,930.1,444.7,930.1z"/>
	<path class="st1" d="M324.7,929.8l-30-0.1c0,0,0,0,0,0c-1.4,0-2.5,1.1-2.5,2.5c0,1.4,1.1,2.5,2.5,2.5l30,0.1c0,0,0,0,0,0
		c1.4,0,2.5-1.1,2.5-2.5C327.2,931,326.1,929.8,324.7,929.8z"/>
	<path class="st1" d="M264.7,929.7l-22.8,0l6.8-16l-43.9,18.4l43.9,18.6l-6.8-16l22.8,0c0,0,0,0,0,0c1.4,0,2.5-1.1,2.5-2.5
		C267.2,930.9,266.1,929.7,264.7,929.7z"/>
	<path class="st1" d="M504.7,930.2l-30-0.1c0,0,0,0,0,0c-1.4,0-2.5,1.1-2.5,2.5c0,1.4,1.1,2.5,2.5,2.5l30,0.1c0,0,0,0,0,0
		c1.4,0,2.5-1.1,2.5-2.5C507.2,931.3,506.1,930.2,504.7,930.2z"/>
	<path class="st1" d="M684.7,930.5l-30-0.1c0,0,0,0,0,0c-1.4,0-2.5,1.1-2.5,2.5c0,1.4,1.1,2.5,2.5,2.5l30,0.1c0,0,0,0,0,0
		c1.4,0,2.5-1.1,2.5-2.5C687.2,931.7,686.1,930.5,684.7,930.5z"/>
	<path class="st1" d="M804.4,928c-8.9,1-19,1.8-29.8,2.3c-1.4,0.1-2.4,1.2-2.4,2.6c0.1,1.3,1.2,2.4,2.5,2.4c0,0,0.1,0,0.1,0
		c10.9-0.5,21.1-1.3,30.1-2.3c1.4-0.2,2.4-1.4,2.2-2.8C807,928.8,805.8,927.8,804.4,928z"/>
	<path class="st1" d="M744.7,931C744.7,931,744.7,931,744.7,931l-2.9,0c-13.9,0-23.4-0.4-23.6-0.4l-3.5,0c0,0,0,0,0,0
		c-1.4,0-2.5,1.1-2.5,2.5c0,1.4,1.1,2.5,2.5,2.5l3.4,0c0.1,0,9.7,0.4,23.7,0.4l2.9,0c1.4,0,2.5-1.1,2.5-2.5
		C747.2,932.1,746.1,931,744.7,931z"/>
	<path class="st1" d="M564.7,930.3l-30-0.1c0,0,0,0,0,0c-1.4,0-2.5,1.1-2.5,2.5c0,1.4,1.1,2.5,2.5,2.5l30,0.1c0,0,0,0,0,0
		c1.4,0,2.5-1.1,2.5-2.5C567.2,931.4,566.1,930.3,564.7,930.3z"/>
	<path class="st1" d="M624.7,930.4l-30-0.1c0,0,0,0,0,0c-1.4,0-2.5,1.1-2.5,2.5c0,1.4,1.1,2.5,2.5,2.5l30,0.1c0,0,0,0,0,0
		c1.4,0,2.5-1.1,2.5-2.5C627.2,931.6,626.1,930.4,624.7,930.4z"/>
	<path class="st1" d="M856.3,915.2c-0.8-1.1-2.4-1.3-3.5-0.4c-4,3.1-10.5,5.9-19.2,8.2c-1.3,0.4-2.1,1.7-1.8,3.1
		c0.3,1.1,1.3,1.9,2.4,1.9c0.2,0,0.4,0,0.6-0.1c9.4-2.5,16.4-5.5,21-9.1C857,917.8,857.2,916.3,856.3,915.2z"/>
</g>
</svg>
