<?xml version="1.0" encoding="utf-8"?>
<!-- Generator: Adobe Illustrator 24.0.1, SVG Export Plug-In . SVG Version: 6.00 Build 0)  -->
<svg version="1.1" id="Oval__Pit_Road" xmlns="http://www.w3.org/2000/svg" xmlns:xlink="http://www.w3.org/1999/xlink" x="0px"
	 y="0px" viewBox="0 0 1920 1080" style="enable-background:new 0 0 1920 1080;" xml:space="preserve">
<style type="text/css">
	.st0{fill:#D82520;}
</style>
<title>pitroad</title>
<g id="Pitroad">
	<path class="st0" d="M412.6,189.1c-0.7-1.2-2.3-1.5-3.4-0.8c-4.2,2.6-8.5,5.4-13,8.4c-3.9,2.5-7.8,5.3-11.8,8.1
		c-1.1,0.8-1.4,2.4-0.5,3.5c0.5,0.7,1.2,1,2,1c0.5,0,1-0.2,1.5-0.5c3.8-2.8,7.7-5.5,11.5-8c4.5-2.9,8.8-5.7,13-8.3
		C412.9,191.8,413.3,190.3,412.6,189.1z"/>
	<path class="st0" d="M376.3,540c-9.2-3.6-18-7.9-26.1-12.9c-1.2-0.7-2.7-0.4-3.4,0.8c-0.7,1.2-0.4,2.7,0.8,3.4
		c8.4,5.1,17.4,9.6,26.9,13.3c0.3,0.1,0.6,0.2,0.9,0.2c1,0,1.9-0.6,2.3-1.6C378.2,541.9,377.5,540.5,376.3,540z"/>
	<path class="st0" d="M364.6,227.5c1-0.9,1.1-2.5,0.2-3.5c-0.9-1-2.5-1.1-3.5-0.2c-7.3,6.7-14.4,13.8-21.1,21.2
		c-0.9,1-0.8,2.6,0.2,3.5c0.5,0.4,1.1,0.6,1.7,0.6c0.7,0,1.4-0.3,1.9-0.8C350.4,241.1,357.4,234.1,364.6,227.5z"/>
	<path class="st0" d="M465.9,163.8c-0.5-1.3-1.9-2-3.2-1.5c-10.3,3.7-19.4,7.4-27.6,11.4c-1.2,0.6-1.8,2.1-1.2,3.3
		c0.4,0.9,1.3,1.4,2.3,1.4c0.4,0,0.7-0.1,1.1-0.2c8.1-3.9,16.9-7.5,27.1-11.2C465.7,166.5,466.4,165.1,465.9,163.8z"/>
	<path class="st0" d="M549.6,568.7l-2,0c-9.7-0.1-19-0.3-27.6-0.7c-1.4,0-2.5,1-2.6,2.4c-0.1,1.4,1,2.5,2.4,2.6
		c8.6,0.4,17.9,0.6,27.7,0.7l2,0c0,0,0,0,0,0c1.4,0,2.5-1.1,2.5-2.5C552.1,569.9,551,568.8,549.6,568.7z"/>
	<path class="st0" d="M668.2,569.8c-10-0.1-19.9-0.2-29.7-0.2c0,0,0,0,0,0c-1.4,0-2.5,1.1-2.5,2.5c0,1.4,1.1,2.5,2.5,2.5
		c9.7,0.1,19.6,0.2,29.7,0.2c0,0,0,0,0,0c1.4,0,2.5-1.1,2.5-2.5C670.7,571,669.6,569.8,668.2,569.8z"/>
	<path class="st0" d="M608.9,569.3c-10.1-0.1-20-0.2-29.7-0.3c-1.4,0-2.5,1.1-2.5,2.5s1.1,2.5,2.5,2.5c9.7,0.1,19.6,0.2,29.7,0.3
		c0,0,0,0,0,0c1.4,0,2.5-1.1,2.5-2.5C611.4,570.5,610.3,569.3,608.9,569.3z"/>
	<path class="st0" d="M307.6,487.8c-0.8-1.1-2.4-1.4-3.5-0.5c-1.1,0.8-1.4,2.4-0.5,3.5c5.9,8.1,12.6,15.7,20,22.5
		c0.5,0.4,1.1,0.7,1.7,0.7c0.7,0,1.3-0.3,1.8-0.8c0.9-1,0.9-2.6-0.1-3.5C319.9,503,313.4,495.6,307.6,487.8z"/>
	<path class="st0" d="M490.7,566.2c-10.3-0.9-19.9-2.1-29.2-3.6c-1.4-0.2-2.6,0.7-2.9,2.1c-0.2,1.4,0.7,2.6,2.1,2.9
		c9.4,1.5,19.1,2.7,29.6,3.6c0.1,0,0.2,0,0.2,0c1.3,0,2.4-1,2.5-2.3C493.1,567.5,492.1,566.3,490.7,566.2z"/>
	<path class="st0" d="M727.5,570.3l-29.7-0.2c0,0,0,0,0,0c-1.4,0-2.5,1.1-2.5,2.5c0,1.4,1.1,2.5,2.5,2.5l29.7,0.2c0,0,0,0,0,0
		c1.4,0,2.5-1.1,2.5-2.5C730,571.4,728.9,570.3,727.5,570.3z"/>
	<path class="st0" d="M1551,280.7c0.5,0.6,1.2,0.9,1.9,0.9c0.6,0,1.2-0.2,1.6-0.6c1-0.9,1.1-2.5,0.2-3.5
		c-6.5-7.4-13.4-14.7-20.5-21.7c-1-1-2.6-1-3.5,0c-1,1-1,2.6,0,3.5C1537.8,266.2,1544.6,273.4,1551,280.7z"/>
	<path class="st0" d="M1379.5,173.2c10.5,2.9,19.7,5.6,28.2,8.5c0.3,0.1,0.5,0.1,0.8,0.1c1,0,2-0.7,2.4-1.7c0.4-1.3-0.3-2.7-1.6-3.2
		c-8.6-2.8-17.9-5.6-28.5-8.5c-1.3-0.4-2.7,0.4-3.1,1.8C1377.4,171.5,1378.1,172.8,1379.5,173.2z"/>
	<path class="st0" d="M1322.1,159c10.8,2.5,20.2,4.7,28.8,6.8c0.2,0,0.4,0.1,0.6,0.1c1.1,0,2.1-0.8,2.4-1.9c0.3-1.3-0.5-2.7-1.8-3
		c-8.6-2.1-18-4.3-28.9-6.8c-1.3-0.3-2.7,0.5-3,1.9C1319.9,157.4,1320.7,158.7,1322.1,159z"/>
	<path class="st0" d="M1626.2,437.2c0.1,1.3,1.2,2.2,2.5,2.2c0.1,0,0.2,0,0.3,0c1.4-0.2,2.4-1.4,2.2-2.8c-1-9.6-2.9-19.5-5.4-29.5
		c-0.3-1.3-1.7-2.1-3-1.8c-1.3,0.3-2.1,1.7-1.8,3C1623.4,418.2,1625.2,427.9,1626.2,437.2z"/>
	<path class="st0" d="M491.7,158.1c0.2,0,0.5,0,0.7-0.1c8.6-2.5,17.9-5.1,28.4-8c1.3-0.4,2.1-1.7,1.8-3.1c-0.4-1.3-1.7-2.1-3.1-1.8
		c-10.6,2.8-20,5.4-28.6,8c-1.3,0.4-2.1,1.8-1.7,3.1C489.6,157.4,490.6,158.1,491.7,158.1z"/>
	<path class="st0" d="M294.4,318.4c-1.3-0.6-2.7,0-3.3,1.3c-4.1,9.2-7.6,18.6-10.4,28.1c-0.4,1.3,0.4,2.7,1.7,3.1
		c0.2,0.1,0.5,0.1,0.7,0.1c1.1,0,2.1-0.7,2.4-1.8c2.8-9.2,6.2-18.5,10.2-27.5C296.3,320.4,295.7,318.9,294.4,318.4z"/>
	<path class="st0" d="M282.8,435.3c-0.4-1.3-1.7-2.1-3.1-1.8c-1.3,0.4-2.1,1.7-1.8,3.1c2.6,9.7,6,19.2,10.3,28.2
		c0.4,0.9,1.3,1.4,2.3,1.4c0.4,0,0.7-0.1,1.1-0.2c1.2-0.6,1.8-2.1,1.2-3.3C288.7,454,285.3,444.8,282.8,435.3z"/>
	<path class="st0" d="M277.5,396.1c0-6.5,0.5-12.7,1.4-18.4c0.2-1.4-0.7-2.6-2.1-2.9c-1.4-0.2-2.6,0.7-2.9,2.1
		c-1,6-1.4,12.5-1.4,19.2c0,3.6,0.1,7.2,0.4,10.9c0.1,1.3,1.2,2.3,2.5,2.3c0.1,0,0.1,0,0.2,0c1.4-0.1,2.4-1.3,2.3-2.7
		C277.7,403.1,277.5,399.5,277.5,396.1z"/>
	<path class="st0" d="M305.7,296.5c0.4,0.2,0.8,0.3,1.3,0.3c0.9,0,1.7-0.4,2.2-1.2c4.9-8.3,10.3-16.6,16.2-24.5
		c0.8-1.1,0.6-2.7-0.5-3.5c-1.1-0.8-2.7-0.6-3.5,0.5c-6,8.1-11.5,16.5-16.5,24.9C304.1,294.2,304.5,295.8,305.7,296.5z"/>
	<path class="st0" d="M432.6,556.8c-8.7-2.1-17.7-4.5-28.4-7.7c-1.3-0.4-2.7,0.4-3.1,1.7s0.4,2.7,1.7,3.1
		c10.8,3.2,19.9,5.7,28.7,7.8c0.2,0,0.4,0.1,0.6,0.1c1.1,0,2.2-0.8,2.4-1.9C434.8,558.5,434,557.2,432.6,556.8z"/>
	<path class="st0" d="M1488.8,217.3c-1.1-0.8-2.7-0.6-3.5,0.5c-0.8,1.1-0.6,2.7,0.5,3.5c7.9,5.8,15.7,11.9,23.1,18.2
		c0.5,0.4,1,0.6,1.6,0.6c0.7,0,1.4-0.3,1.9-0.9c0.9-1.1,0.8-2.6-0.3-3.5C1504.7,229.3,1496.9,223.1,1488.8,217.3z"/>
	<path class="st0" d="M1497.6,569.8c-9.9,2.2-19,3.3-26.4,3.3h-2.4c-1.4,0-2.5,1.1-2.5,2.5s1.1,2.5,2.5,2.5h2.4
		c7.8,0,17.3-1.2,27.5-3.4c1.3-0.3,2.2-1.6,1.9-3S1499,569.5,1497.6,569.8z"/>
	<path class="st0" d="M1463.9,200.8c-8.5-5-17.3-9.3-26.7-13.4c-1.3-0.5-2.7,0-3.3,1.3c-0.5,1.3,0,2.7,1.3,3.3
		c9.2,4,17.8,8.3,26.2,13.2c0.4,0.2,0.8,0.3,1.3,0.3c0.9,0,1.7-0.4,2.2-1.2C1465.5,203.1,1465.1,201.5,1463.9,200.8z"/>
	<path class="st0" d="M1552.7,549.8c-8.6,4.4-17.7,8.3-26.9,11.7c-1.3,0.5-2,1.9-1.5,3.2c0.4,1,1.3,1.6,2.3,1.6c0.3,0,0.6,0,0.9-0.2
		c9.4-3.4,18.6-7.5,27.5-12c1.2-0.6,1.7-2.1,1.1-3.4C1555.4,549.7,1553.9,549.2,1552.7,549.8z"/>
	<path class="st0" d="M1439.1,573.2c-9.7,0-19.6,0-29.7,0c0,0,0,0,0,0c-1.4,0-2.5,1.1-2.5,2.5c0,1.4,1.1,2.5,2.5,2.5
		c10.1,0,20,0,29.7,0h0c1.4,0,2.5-1.1,2.5-2.5S1440.5,573.2,1439.1,573.2z"/>
	<path class="st0" d="M1604.8,351.4c-0.6-1.2-2.1-1.7-3.4-1.1c-1.2,0.6-1.7,2.1-1.1,3.4c4.4,8.9,8.4,17.9,11.8,26.9
		c0.4,1,1.3,1.6,2.3,1.6c0.3,0,0.6-0.1,0.9-0.2c1.3-0.5,1.9-1.9,1.5-3.2C1613.3,369.6,1609.3,360.4,1604.8,351.4z"/>
	<path class="st0" d="M1629.5,464c-1.4-0.2-2.6,0.8-2.8,2.2c-1.2,9.2-4.2,18.2-9.1,27c-0.7,1.2-0.2,2.7,1,3.4
		c0.4,0.2,0.8,0.3,1.2,0.3c0.9,0,1.7-0.5,2.2-1.3c5.2-9.3,8.4-19,9.7-28.8C1631.9,465.5,1630.9,464.2,1629.5,464z"/>
	<path class="st0" d="M1588.1,329.1c0.4,0,0.9-0.1,1.3-0.4c1.2-0.7,1.5-2.3,0.8-3.4c-5.2-8.3-10.8-16.6-16.8-24.7
		c-0.8-1.1-2.4-1.3-3.5-0.5c-1.1,0.8-1.3,2.4-0.5,3.5c5.9,7.9,11.4,16.1,16.5,24.3C1586.5,328.7,1587.3,329.1,1588.1,329.1z"/>
	<path class="st0" d="M1379.8,573.1l-29.7,0c0,0,0,0,0,0c-1.4,0-2.5,1.1-2.5,2.5c0,1.4,1.1,2.5,2.5,2.5l29.7,0c0,0,0,0,0,0
		c1.4,0,2.5-1.1,2.5-2.5C1382.3,574.2,1381.2,573.1,1379.8,573.1z"/>
	<path class="st0" d="M1600.2,516.1c-6.4,6.5-13.9,12.8-22.4,18.7c-1.1,0.8-1.4,2.3-0.6,3.5c0.5,0.7,1.3,1.1,2.1,1.1
		c0.5,0,1-0.1,1.4-0.5c8.7-6.1,16.4-12.6,23.1-19.3c1-1,1-2.6,0-3.5C1602.7,515.1,1601.1,515.1,1600.2,516.1z"/>
	<path class="st0" d="M1142.6,572.5l-29.6-0.1c0,0,0,0,0,0c-1.4,0-2.5,1.1-2.5,2.5c0,1.4,1.1,2.5,2.5,2.5l29.7,0.1c0,0,0,0,0,0
		c1.4,0,2.5-1.1,2.5-2.5C1145.1,573.6,1144,572.5,1142.6,572.5z"/>
	<path class="st0" d="M1024.2,572l-29.7-0.1c0,0,0,0,0,0c-1.4,0-2.5,1.1-2.5,2.5c0,1.4,1.1,2.5,2.5,2.5l29.7,0.1c0,0,0,0,0,0
		c1.4,0,2.5-1.1,2.5-2.5C1026.6,573.1,1025.5,572,1024.2,572z"/>
	<path class="st0" d="M964.8,571.7l-29.7-0.2c0,0,0,0,0,0c-1.4,0-2.5,1.1-2.5,2.5c0,1.4,1.1,2.5,2.5,2.5l29.7,0.2c0,0,0,0,0,0
		c1.4,0,2.5-1.1,2.5-2.5C967.3,572.9,966.2,571.7,964.8,571.7z"/>
	<path class="st0" d="M1320.5,573c-9.8,0-19.7,0-29.7-0.1c0,0,0,0,0,0c-1.4,0-2.5,1.1-2.5,2.5c0,1.4,1.1,2.5,2.5,2.5
		c10,0,19.9,0,29.7,0.1c0,0,0,0,0,0c1.4,0,2.5-1.1,2.5-2.5C1323,574.1,1321.9,573,1320.5,573z"/>
	<path class="st0" d="M846.1,571.1c-9.9-0.1-19.8-0.1-29.6-0.2c0,0,0,0,0,0c-1.4,0-2.5,1.1-2.5,2.5c0,1.4,1.1,2.5,2.5,2.5
		c9.8,0.1,19.7,0.1,29.6,0.2c0,0,0,0,0,0c1.4,0,2.5-1.1,2.5-2.5C848.6,572.2,847.5,571.1,846.1,571.1z"/>
	<path class="st0" d="M905.4,571.4l-29.6-0.2c0,0,0,0,0,0c-1.4,0-2.5,1.1-2.5,2.5c0,1.4,1.1,2.5,2.5,2.5l29.6,0.2c0,0,0,0,0,0
		c1.4,0,2.5-1.1,2.5-2.5C907.9,572.5,906.8,571.4,905.4,571.4z"/>
	<path class="st0" d="M1261.2,572.9c-9.8,0-19.7-0.1-29.6-0.1c0,0,0,0,0,0c-1.4,0-2.5,1.1-2.5,2.5c0,1.4,1.1,2.5,2.5,2.5
		c10,0,19.8,0.1,29.7,0.1c0,0,0,0,0,0c1.4,0,2.5-1.1,2.5-2.5C1263.7,574,1262.6,572.9,1261.2,572.9z"/>
	<path class="st0" d="M1201.9,572.7l-29.6-0.1c0,0,0,0,0,0c-1.4,0-2.5,1.1-2.5,2.5c0,1.4,1.1,2.5,2.5,2.5l29.6,0.1c0,0,0,0,0,0
		c1.4,0,2.5-1.1,2.5-2.5C1204.4,573.8,1203.3,572.7,1201.9,572.7z"/>
	<path class="st0" d="M786.8,570.7l-29.6-0.2c0,0,0,0,0,0c-1.4,0-2.5,1.1-2.5,2.5c0,1.4,1.1,2.5,2.5,2.5l29.6,0.2c0,0,0,0,0,0
		c1.4,0,2.5-1.1,2.5-2.5C789.3,571.8,788.2,570.7,786.8,570.7z"/>
	<path class="st0" d="M1083.4,572.3l-29.6-0.1c0,0,0,0,0,0c-1.4,0-2.5,1.1-2.5,2.5c0,1.4,1.1,2.5,2.5,2.5l29.6,0.1c0,0,0,0,0,0
		c1.4,0,2.5-1.1,2.5-2.5C1085.9,573.4,1084.8,572.3,1083.4,572.3z"/>
	<path class="st0" d="M563.1,134.1c-5,1.2-9.9,2.4-14.6,3.6c-1.3,0.3-2.2,1.7-1.8,3c0.3,1.1,1.3,1.9,2.4,1.9c0.2,0,0.4,0,0.6-0.1
		c4.7-1.2,9.6-2.4,14.5-3.6c1.3-0.3,2.2-1.7,1.8-3C565.8,134.6,564.4,133.8,563.1,134.1z"/>
	<path class="st0" d="M1285.5,150.9l7.7,1.7c0.2,0,0.4,0.1,0.5,0.1c1.1,0,2.2-0.8,2.4-2c0.3-1.3-0.6-2.7-1.9-3l-7.5-1.7l10-14
		l-46.9,8.5l38.8,27.6L1285.5,150.9z"/>
</g>
</svg>
