<?xml version="1.0" encoding="utf-8"?>
<!-- Generator: Adobe Illustrator 24.0.1, SVG Export Plug-In . SVG Version: 6.00 Build 0)  -->
<svg version="1.1" id="Legends_Oval__Pit_Road" xmlns="http://www.w3.org/2000/svg" xmlns:xlink="http://www.w3.org/1999/xlink"
	 x="0px" y="0px" viewBox="0 0 1920 1080" style="enable-background:new 0 0 1920 1080;" xml:space="preserve">
<style type="text/css">
	.st0{fill:#D82520;}
</style>
<title>pitroad</title>
<g id="Pitroad">
	<path class="st0" d="M730.1,902.2c-9.2-3.9-18.3-8.1-27-12.6c-1.2-0.6-2.7-0.2-3.4,1.1c-0.6,1.2-0.2,2.7,1.1,3.4
		c8.8,4.6,18,8.9,27.4,12.8c0.3,0.1,0.6,0.2,1,0.2c1,0,1.9-0.6,2.3-1.5C732,904.2,731.4,902.8,730.1,902.2z"/>
	<path class="st0" d="M722.9,817.5c1.2,0,2.3-0.9,2.5-2.1c0.2-1.4-0.7-2.6-2.1-2.8c-10-1.5-20-3.2-29.5-4.9c-1.4-0.3-2.7,0.7-2.9,2
		c-0.2,1.4,0.7,2.7,2,2.9c9.6,1.8,19.6,3.4,29.7,5C722.6,817.5,722.7,817.5,722.9,817.5z"/>
	<path class="st0" d="M677.3,874.7c-2.7-1.8-4.2-2.8-4.2-2.8l-0.3-0.2c-7.8-4.3-14-9.2-18.5-14.8c-0.9-1.1-2.4-1.3-3.5-0.4
		c-1.1,0.9-1.3,2.4-0.4,3.5c4.8,6.1,11.5,11.5,19.9,16c0.4,0.3,1.9,1.3,4.2,2.9c0.4,0.3,0.9,0.4,1.4,0.4c0.8,0,1.6-0.4,2.1-1.1
		C678.8,877,678.5,875.4,677.3,874.7z"/>
	<path class="st0" d="M664.5,812.4c1.3-0.4,2-1.8,1.6-3.1s-1.8-2.1-3.1-1.6c-11.1,3.5-18.3,10.3-20.8,19.7c0,0.1-0.3,1.1-0.6,2.7
		c-0.2,1.4,0.7,2.6,2.1,2.8c0.1,0,0.2,0,0.4,0c1.2,0,2.3-0.9,2.5-2.1c0.2-1.3,0.4-2,0.4-2.1C649.1,820.9,654.9,815.4,664.5,812.4z"
		/>
	<path class="st0" d="M782.4,825.1c1.3,0,2.4-1,2.5-2.2c0.1-1.4-0.9-2.6-2.2-2.7c-10.1-1-20.1-2.2-29.8-3.4
		c-1.4-0.2-2.6,0.8-2.8,2.2c-0.2,1.4,0.8,2.6,2.2,2.8c9.7,1.2,19.8,2.4,29.9,3.4C782.3,825.1,782.3,825.1,782.4,825.1z"/>
	<path class="st0" d="M904.9,929.7c-11.3,1-20.5,1.5-29.7,1.5c-1.4,0-2.5,1.1-2.5,2.5c0,1.4,1.1,2.5,2.5,2.5c0,0,0,0,0,0
		c9.4-0.1,18.7-0.5,30.1-1.5c1.4-0.1,2.4-1.3,2.3-2.7C907.5,930.6,906.3,929.6,904.9,929.7z"/>
	<path class="st0" d="M845.4,930.2c-9.8-0.7-19.8-1.8-29.6-3.4c-1.4-0.2-2.6,0.7-2.9,2.1c-0.2,1.4,0.7,2.6,2.1,2.9
		c10,1.6,20.1,2.7,30,3.4c0.1,0,0.1,0,0.2,0c1.3,0,2.4-1,2.5-2.3C847.8,931.5,846.8,930.3,845.4,930.2z"/>
	<path class="st0" d="M786.6,921c-9.6-2.3-19.2-5.1-28.6-8.3c-1.3-0.4-2.7,0.3-3.2,1.6s0.3,2.7,1.6,3.2c9.6,3.2,19.3,6,29,8.4
		c0.2,0,0.4,0.1,0.6,0.1c1.1,0,2.1-0.8,2.4-1.9C788.8,922.7,788,921.3,786.6,921z"/>
	<path class="st0" d="M902.3,832.1c1.4,0,2.5-1.1,2.5-2.5c0-1.4-1.1-2.5-2.5-2.5c-0.1,0-11.4,0-30-0.7c-1.4-0.1-2.5,1-2.6,2.4
		c-0.1,1.4,1,2.5,2.4,2.6C890.8,832,902.2,832.1,902.3,832.1C902.3,832.1,902.3,832.1,902.3,832.1z"/>
	<path class="st0" d="M842.3,829.9c1.3,0,2.4-1,2.5-2.4c0.1-1.4-1-2.6-2.3-2.6c-10-0.6-20-1.3-29.9-2.1c-1.4-0.1-2.6,0.9-2.7,2.3
		c-0.1,1.4,0.9,2.6,2.3,2.7c9.9,0.8,20,1.5,30,2.1C842.2,829.9,842.2,829.9,842.3,829.9z"/>
	<path class="st0" d="M987.7,922.9l-45.8-13.3l8.6,15.1c-5.7,0.7-11,1.3-15.9,1.8c-1.4,0.2-2.4,1.4-2.2,2.8c0.1,1.3,1.2,2.2,2.5,2.2
		c0.1,0,0.2,0,0.3,0c4.9-0.6,10.2-1.2,15.9-1.9l-4.9,16.7L987.7,922.9z"/>
</g>
</svg>
