<?xml version="1.0" encoding="utf-8"?>
<!-- Generator: Adobe Illustrator 24.0.1, SVG Export Plug-In . SVG Version: 6.00 Build 0)  -->
<svg version="1.1" id="Road_Short__Pit_Road" xmlns="http://www.w3.org/2000/svg" xmlns:xlink="http://www.w3.org/1999/xlink"
	 x="0px" y="0px" viewBox="0 0 1920 1080" style="enable-background:new 0 0 1920 1080;" xml:space="preserve">
<style type="text/css">
	.st0{fill:#D82520;}
</style>
<title>pitroad</title>
<g id="Pitroad">
	<path class="st0" d="M703.4,434.8C703.4,434.8,703.4,434.8,703.4,434.8l-7.3,0c-8.2,0-15.8,0.5-23,1.4c-1.4,0.2-2.3,1.4-2.2,2.8
		c0.2,1.3,1.2,2.2,2.5,2.2c0.1,0,0.2,0,0.3,0c7-0.9,14.3-1.3,22.4-1.3l7.3,0c1.4,0,2.5-1.1,2.5-2.5
		C705.9,435.9,704.8,434.8,703.4,434.8z"/>
	<path class="st0" d="M763.4,434.7c-10.3,0-20.3,0-30,0c-1.4,0-2.5,1.1-2.5,2.5c0,1.4,1.1,2.5,2.5,2.5c0,0,0,0,0,0
		c9.7,0,19.7,0,30,0c1.4,0,2.5-1.1,2.5-2.5S764.8,434.7,763.4,434.7z"/>
	<path class="st0" d="M823.5,434.7c-10.2,0-20.2,0-30,0c0,0,0,0,0,0c-1.4,0-2.5,1.1-2.5,2.5c0,1.4,1.1,2.5,2.5,2.5
		c9.8,0,19.8,0,30,0c0,0,0,0,0,0c1.4,0,2.5-1.1,2.5-2.5C826,435.9,824.8,434.7,823.5,434.7z"/>
	<path class="st0" d="M583.5,366.8c0.7,5,1.1,11.3,1.1,19.3c0,3.1-0.1,6.4-0.2,10.2c0,1.4,1,2.5,2.4,2.6c0,0,0,0,0.1,0
		c1.3,0,2.5-1.1,2.5-2.4c0.1-3.8,0.2-7.2,0.2-10.3c0-8.2-0.4-14.8-1.2-20c-0.2-1.4-1.5-2.3-2.8-2.1
		C584.2,364.2,583.3,365.5,583.5,366.8z"/>
	<path class="st0" d="M883.5,434.9l-30-0.1c0,0,0,0,0,0c-1.4,0-2.5,1.1-2.5,2.5c0,1.4,1.1,2.5,2.5,2.5l30,0.1c0,0,0,0,0,0
		c1.4,0,2.5-1.1,2.5-2.5C886,436,884.9,434.9,883.5,434.9z"/>
	<path class="st0" d="M580.6,316c0.1-0.3,1-1.9,4.1-4.2c1.1-0.8,1.3-2.4,0.5-3.5c-0.8-1.1-2.4-1.3-3.5-0.5c-4.4,3.2-5.6,5.8-5.8,6.6
		c-1.1,2.8-1.7,6-1.7,9.8c0,3.9,0.6,8.4,1.8,13.8c0.3,1.2,1.3,2,2.4,2c0.2,0,0.4,0,0.5-0.1c1.3-0.3,2.2-1.6,1.9-3
		c-1.1-5-1.6-9.2-1.6-12.7c0-3.2,0.4-5.9,1.3-8L580.6,316z"/>
	<path class="st0" d="M587.8,444.9c-0.1-1.4-0.1-3-0.1-4.8c0-3.6,0.1-7.9,0.4-13.6c0.1-1.4-1-2.5-2.4-2.6c-1.4-0.1-2.5,1-2.6,2.4
		c-0.2,5.8-0.4,10.1-0.4,13.8c0,1.8,0,3.5,0.1,5c0.2,5.1,1.5,9.2,3.8,12.2c0.5,0.6,1.2,1,2,1c0.5,0,1.1-0.2,1.5-0.5
		c1.1-0.9,1.3-2.4,0.4-3.5C588.9,452,588,448.9,587.8,444.9z"/>
	<path class="st0" d="M643.5,442.7c-7.7,2.5-15.3,5.7-22.5,9.5c-1.5,0.8-3.3,1.6-5.2,2.3c-1.3,0.5-1.9,2-1.4,3.2
		c0.4,1,1.3,1.6,2.3,1.6c0.3,0,0.6-0.1,0.9-0.2c2.5-1,4.4-1.9,5.6-2.6c7-3.7,14.3-6.8,21.8-9.2c1.3-0.4,2-1.8,1.6-3.2
		C646.2,443,644.8,442.3,643.5,442.7z"/>
	<path class="st0" d="M943.5,435l-30-0.1c0,0,0,0,0,0c-1.4,0-2.5,1.1-2.5,2.5c0,1.4,1.1,2.5,2.5,2.5l30,0.1c0,0,0,0,0,0
		c1.4,0,2.5-1.1,2.5-2.5C946,436.1,944.9,435,943.5,435z"/>
	<path class="st0" d="M1361.1,426.4c-7.3,3.8-16.7,6.3-27.9,7.5c-1.4,0.1-2.4,1.4-2.2,2.8c0.1,1.3,1.2,2.2,2.5,2.2
		c0.1,0,0.2,0,0.3,0c11.8-1.3,21.8-4,29.6-8c1.2-0.6,1.7-2.1,1.1-3.4C1363.8,426.2,1362.3,425.8,1361.1,426.4z"/>
	<path class="st0" d="M1003.5,435.2l-30-0.1c0,0,0,0,0,0c-1.4,0-2.5,1.1-2.5,2.5c0,1.4,1.1,2.5,2.5,2.5l30,0.1c0,0,0,0,0,0
		c1.4,0,2.5-1.1,2.5-2.5C1006,436.3,1004.9,435.2,1003.5,435.2z"/>
	<path class="st0" d="M1389.7,375.7c-1.4-0.2-2.6,0.8-2.8,2.1c-0.3,2.4-0.7,4.6-1,6.3c-0.2,1-0.4,2-0.6,3.1
		c-1.2,6.3-2.5,12.8-5.2,19.1c-0.5,1.3,0,2.7,1.3,3.3c0.3,0.1,0.7,0.2,1,0.2c1,0,1.9-0.6,2.3-1.5c2.9-6.8,4.3-13.9,5.5-20.1
		c0.2-1,0.4-2.1,0.6-3.1c0.4-1.8,0.7-4,1.1-6.6C1392,377.1,1391,375.8,1389.7,375.7z"/>
	<path class="st0" d="M1394.1,315.7c-1.4-0.1-2.5,1-2.6,2.4c0,0.1-0.7,14.3-1.8,30c-0.1,1.4,0.9,2.6,2.3,2.7c0.1,0,0.1,0,0.2,0
		c1.3,0,2.4-1,2.5-2.3c1.1-15.7,1.8-30,1.8-30.1C1396.6,316.9,1395.5,315.8,1394.1,315.7z"/>
	<path class="st0" d="M1303.5,434.9c-9.7,0.1-19.7,0.1-30,0.2c-1.4,0-2.5,1.1-2.5,2.5c0,1.4,1.1,2.5,2.5,2.5c0,0,0,0,0,0
		c10.3-0.1,20.3-0.1,30-0.2c1.4,0,2.5-1.1,2.5-2.5C1306,436,1304.9,434.9,1303.5,434.9z"/>
	<path class="st0" d="M1243.5,435.2C1243.5,435.2,1243.5,435.2,1243.5,435.2c-9.8,0-19.8,0.1-30,0.1c-1.4,0-2.5,1.1-2.5,2.5
		c0,1.4,1.1,2.5,2.5,2.5c0,0,0,0,0,0c10.2,0,20.2,0,30-0.1c1.4,0,2.5-1.1,2.5-2.5C1246,436.4,1244.9,435.2,1243.5,435.2z"/>
	<path class="st0" d="M1123.5,435.4c-9.9,0-19.9,0-30,0c0,0,0,0,0,0c-1.4,0-2.5,1.1-2.5,2.5c0,1.4,1.1,2.5,2.5,2.5
		c10.1,0,20.1,0,30,0c0,0,0,0,0,0c1.4,0,2.5-1.1,2.5-2.5C1126,436.5,1124.9,435.4,1123.5,435.4z"/>
	<path class="st0" d="M1063.5,435.3c-10,0-20,0-30-0.1c-1.4,0-2.5,1.1-2.5,2.5s1.1,2.5,2.5,2.5c10,0,20,0,30,0.1c0,0,0,0,0,0
		c1.4,0,2.5-1.1,2.5-2.5C1066,436.4,1064.9,435.3,1063.5,435.3z"/>
	<path class="st0" d="M1183.5,435.4C1183.5,435.4,1183.5,435.4,1183.5,435.4c-9.8,0-19.6,0-29.6,0h-0.4c-1.4,0-2.5,1.1-2.5,2.5
		s1.1,2.5,2.5,2.5h0.4c10,0,19.9,0,29.6,0c1.4,0,2.5-1.1,2.5-2.5C1186,436.5,1184.9,435.4,1183.5,435.4z"/>
	<path class="st0" d="M633.4,298.3l-10.6-46.4l-25.9,40l15.6-3.6c-1.4,2.2-3,4.2-4.8,5.9c-1,1-1,2.6,0,3.5c0.5,0.5,1.1,0.7,1.8,0.7
		c0.6,0,1.3-0.2,1.8-0.7c2.7-2.7,5.1-5.8,7-9.3L633.4,298.3z"/>
</g>
</svg>
