<?xml version="1.0" encoding="utf-8"?>
<!-- Generator: Adobe Illustrator 24.0.1, SVG Export Plug-In . SVG Version: 6.00 Build 0)  -->
<svg version="1.1" id="Infield_Legends__Pit_Road" xmlns="http://www.w3.org/2000/svg" xmlns:xlink="http://www.w3.org/1999/xlink"
	 x="0px" y="0px" viewBox="0 0 1920 1080" style="enable-background:new 0 0 1920 1080;" xml:space="preserve">
<style type="text/css">
	.st0{fill:#D82520;}
</style>
<title>pitroad</title>
<g id="Pitroad">
	<path class="st0" d="M568.2,310.6c-6.5-2.6-14.3-4.2-23.4-4.9l5.9-16.7l-42.6,21.3l45,15.6l-7.6-15.2c8.1,0.7,15.1,2.1,20.9,4.5
		c0.3,0.1,0.6,0.2,0.9,0.2c1,0,1.9-0.6,2.3-1.6C570.1,312.6,569.5,311.1,568.2,310.6z"/>
	<path class="st0" d="M605.1,417.5c-7.8,5.3-13.5,14-17,26c-0.4,1.3,0.4,2.7,1.7,3.1c0.2,0.1,0.5,0.1,0.7,0.1c1.1,0,2.1-0.7,2.4-1.8
		c3.1-10.8,8.2-18.7,15-23.3c1.1-0.8,1.4-2.3,0.7-3.5C607.8,417.1,606.3,416.8,605.1,417.5z"/>
	<path class="st0" d="M634.3,400.3c-0.1-0.3-0.1-0.5-0.2-0.7c-1.8-8.1-3.8-15.3-6.1-21.8c-0.5-1.3-1.9-2-3.2-1.5
		c-1.3,0.5-2,1.9-1.5,3.2c2.3,6.3,4.2,13.3,6,21.2c0.1,0.2,0.1,0.5,0.2,0.8c0.3,1.2,0.7,2.8,0.7,4.4c0,0.5,0,1-0.1,1.4
		c-0.2,1.4,0.6,2.7,2,2.9c0.2,0,0.3,0,0.5,0c1.2,0,2.2-0.8,2.5-2c0.1-0.7,0.2-1.5,0.2-2.3C635.1,403.7,634.6,401.6,634.3,400.3z"/>
	<path class="st0" d="M607.8,342.4c-4.2-5-8.9-9.9-14.2-14.5c-1-0.9-2.6-0.8-3.5,0.2c-0.9,1-0.8,2.6,0.2,3.5
		c5,4.4,9.6,9.1,13.6,13.9c2.3,2.8,4.3,5.3,6,7.8c0.5,0.7,1.3,1.1,2,1.1c0.5,0,1-0.1,1.4-0.5c1.1-0.8,1.4-2.4,0.6-3.5
		C612.2,347.9,610.2,345.3,607.8,342.4z"/>
</g>
</svg>
