<?xml version="1.0" encoding="utf-8"?>
<!-- Generator: Adobe Illustrator 24.0.1, SVG Export Plug-In . SVG Version: 6.00 Build 0)  -->
<svg version="1.1" id="darlington_-_Pit_Road" xmlns="http://www.w3.org/2000/svg" xmlns:xlink="http://www.w3.org/1999/xlink"
	 x="0px" y="0px" viewBox="0 0 1920 1080" style="enable-background:new 0 0 1920 1080;" xml:space="preserve">
<style type="text/css">
	.st0{fill:#016699;}
	.st1{fill:#D82520;}
</style>
<g id="Mergeline">
	<path class="st0" d="M1570.8,170.2c-6.2-4-12.6-8-19.1-11.7l13.8-23.6l-8.6-5l-32.8,56.1l8.6,5l13.9-23.8
		c6.3,3.7,12.6,7.5,18.7,11.5c0.8,0.5,1.8,0.8,2.7,0.8c1.6,0,3.2-0.8,4.2-2.3C1573.7,174.8,1573.1,171.7,1570.8,170.2z"/>
	<path class="st0" d="M1561.9,833.4c-9.2,3.5-18.6,6.6-28,9.2c-2.7,0.7-4.2,3.5-3.5,6.1c0.6,2.2,2.6,3.7,4.8,3.7
		c0.4,0,0.9-0.1,1.3-0.2c9.7-2.7,19.5-5.9,29-9.5c2.6-1,3.9-3.9,2.9-6.5C1567.4,833.7,1564.5,832.4,1561.9,833.4z"/>
	<path class="st0" d="M1614.5,806.8c-8.2,5.3-16.8,10.2-25.6,14.6c-2.5,1.2-3.5,4.3-2.2,6.7c0.9,1.7,2.6,2.7,4.5,2.7
		c0.8,0,1.5-0.2,2.3-0.5c9.1-4.6,18-9.7,26.5-15.1c2.3-1.5,3-4.6,1.5-6.9C1619.9,806,1616.8,805.3,1614.5,806.8z"/>
	<path class="st0" d="M1746.8,439.9c2.3,10.1,4.2,19.9,5.5,29.1c0.4,2.5,2.5,4.3,4.9,4.3c0.2,0,0.5,0,0.7-0.1
		c2.7-0.4,4.6-2.9,4.2-5.7c-1.4-9.5-3.3-19.6-5.7-29.9c-0.6-2.7-3.3-4.4-6-3.7C1747.8,434.6,1746.2,437.2,1746.8,439.9z"/>
	<path class="st0" d="M1589.6,195.6c7.9,5.9,15.6,12.2,23,18.6c0.9,0.8,2.1,1.2,3.3,1.2c1.4,0,2.8-0.6,3.8-1.7
		c1.8-2.1,1.6-5.2-0.5-7.1c-7.6-6.6-15.5-13-23.6-19.1c-2.2-1.7-5.3-1.2-7,1C1586.9,190.8,1587.4,193.9,1589.6,195.6z"/>
	<path class="st0" d="M1739.1,411.3c0.7,2.2,2.6,3.5,4.8,3.5c0.5,0,1-0.1,1.5-0.2c2.6-0.8,4.1-3.6,3.3-6.2
		c-2.9-9.6-6.2-19.3-9.8-28.7c-1-2.6-3.9-3.9-6.5-2.9c-2.6,1-3.9,3.9-2.9,6.5C1733,392.4,1736.2,401.9,1739.1,411.3z"/>
	<path class="st0" d="M1718,355.8c0.8,1.8,2.7,2.9,4.5,2.9c0.7,0,1.4-0.1,2.1-0.5c2.5-1.2,3.6-4.1,2.5-6.6
		c-4.2-9.2-8.8-18.3-13.6-27.1c-1.3-2.4-4.4-3.3-6.8-2c-2.4,1.3-3.3,4.4-2,6.8C1709.4,337.9,1713.9,346.8,1718,355.8z"/>
	<path class="st0" d="M1660.4,770.1c-7,6.9-14.4,13.5-22,19.6c-2.2,1.7-2.5,4.9-0.8,7c1,1.2,2.4,1.9,3.9,1.9c1.1,0,2.2-0.4,3.1-1.1
		c7.9-6.3,15.6-13.1,22.8-20.3c2-1.9,2-5.1,0-7.1C1665.6,768.2,1662.4,768.1,1660.4,770.1z"/>
	<path class="st0" d="M1757.9,553.2c-2.8-0.2-5.2,1.8-5.4,4.5c-0.9,10-2.1,19.9-3.6,29.4c-0.4,2.7,1.4,5.3,4.2,5.7
		c0.3,0,0.5,0.1,0.8,0.1c2.4,0,4.5-1.8,4.9-4.2c1.5-9.8,2.8-19.9,3.7-30.1C1762.7,555.9,1760.7,553.5,1757.9,553.2z"/>
	<path class="st0" d="M1764.5,498.2c-0.1-2.7-2.3-4.9-5-4.9c0,0-0.1,0-0.1,0c-2.8,0.1-5,2.3-4.9,5.1c0.1,3.9,0.1,7.9,0.1,11.8
		c0,6-0.1,12.1-0.3,17.9c-0.1,2.8,2.1,5.1,4.8,5.2c0.1,0,0.1,0,0.2,0c2.7,0,4.9-2.1,5-4.8c0.2-6,0.3-12.1,0.3-18.3
		C1764.6,506.2,1764.6,502.2,1764.5,498.2z"/>
	<path class="st0" d="M1749.2,612.5c-2.7-0.6-5.4,1.1-6,3.7c-2.3,9.7-4.9,19.3-7.8,28.5c-0.8,2.6,0.6,5.4,3.3,6.3
		c0.5,0.2,1,0.2,1.5,0.2c2.1,0,4.1-1.4,4.8-3.5c3-9.5,5.7-19.3,8-29.3C1753.6,615.8,1751.9,613.1,1749.2,612.5z"/>
	<path class="st0" d="M1731.9,669.8c-2.5-1.1-5.5,0.2-6.5,2.7c-3.8,9.2-8,18.1-12.5,26.7c-1.3,2.4-0.4,5.5,2.1,6.8
		c0.7,0.4,1.5,0.6,2.3,0.6c1.8,0,3.5-1,4.4-2.7c4.7-8.8,9-18.1,12.9-27.5C1735.6,673.8,1734.4,670.9,1731.9,669.8z"/>
	<path class="st0" d="M1693.9,306c0.9,0,1.9-0.3,2.7-0.8c2.3-1.5,3-4.6,1.5-6.9c-5.4-8.5-11.2-16.9-17.2-25c-1.6-2.2-4.8-2.7-7-1
		c-2.2,1.6-2.7,4.8-1,7c5.9,7.9,11.5,16.1,16.8,24.4C1690.6,305.2,1692.2,306,1693.9,306z"/>
	<path class="st0" d="M1658.1,257.9c1.2,0,2.3-0.4,3.3-1.2c2.1-1.8,2.3-5,0.5-7.1c-6.6-7.6-13.5-15.1-20.6-22.3c-1.9-2-5.1-2-7.1,0
		c-2,1.9-2,5.1,0,7.1c6.9,7,13.7,14.3,20.1,21.7C1655.3,257.3,1656.7,257.9,1658.1,257.9z"/>
	<path class="st0" d="M1704.7,723.2c-2.3-1.5-5.4-0.9-6.9,1.4c-5.4,8.2-11.3,16.2-17.5,23.7c-1.8,2.1-1.4,5.3,0.7,7
		c0.9,0.8,2.1,1.1,3.2,1.1c1.4,0,2.9-0.6,3.9-1.8c6.4-7.8,12.5-16,18.1-24.5C1707.6,727.8,1707,724.7,1704.7,723.2z"/>
</g>
<g id="Pitroad">
	<path class="st1" d="M468.4,853.9c-9.7-1.7-19-3.6-29.2-6.1c-1.3-0.3-2.7,0.5-3,1.9s0.5,2.7,1.9,3c10.3,2.4,19.7,4.4,29.5,6.1
		c0.1,0,0.3,0,0.4,0c1.2,0,2.2-0.9,2.5-2.1C470.6,855.4,469.7,854.1,468.4,853.9z"/>
	<path class="st1" d="M527.6,861.6c-11.1-1.1-20.8-2.2-29.7-3.3c-1.4-0.2-2.6,0.8-2.8,2.2c-0.2,1.4,0.8,2.6,2.2,2.8
		c8.9,1.1,18.7,2.2,29.9,3.3c0.1,0,0.2,0,0.3,0c1.3,0,2.4-1,2.5-2.3C530,863,529,861.8,527.6,861.6z"/>
	<path class="st1" d="M587.3,866.8c-11-0.9-20.8-1.6-29.9-2.4c-1.4-0.1-2.6,0.9-2.7,2.3c-0.1,1.4,0.9,2.6,2.3,2.7
		c9.1,0.8,18.9,1.6,29.9,2.4c0.1,0,0.1,0,0.2,0c1.3,0,2.4-1,2.5-2.3C589.7,868.1,588.7,866.9,587.3,866.8z"/>
	<path class="st1" d="M767,868.5C767,868.5,767,868.5,767,868.5l-30,0c-1.4,0-2.5,1.1-2.5,2.5s1.1,2.5,2.5,2.5c0,0,0,0,0,0l30,0
		c1.4,0,2.5-1.1,2.5-2.5S768.4,868.5,767,868.5z"/>
	<path class="st1" d="M410.2,840.3c-9.6-2.7-19.2-5.6-28.6-8.6c-1.3-0.4-2.7,0.3-3.1,1.6c-0.4,1.3,0.3,2.7,1.6,3.1
		c9.5,3.1,19.2,6,28.8,8.7c0.2,0.1,0.5,0.1,0.7,0.1c1.1,0,2.1-0.7,2.4-1.8C412.3,842.1,411.6,840.7,410.2,840.3z"/>
	<path class="st1" d="M647,868.7C647,868.7,647,868.7,647,868.7l-30,0c-1.4,0-2.5,1.1-2.5,2.5c0,1.4,1.1,2.5,2.5,2.5c0,0,0,0,0,0
		l30,0c1.4,0,2.5-1.1,2.5-2.5S648.4,868.7,647,868.7z"/>
	<path class="st1" d="M707,868.6C707,868.6,707,868.6,707,868.6l-30,0c-1.4,0-2.5,1.1-2.5,2.5s1.1,2.5,2.5,2.5c0,0,0,0,0,0l30,0
		c1.4,0,2.5-1.1,2.5-2.5C709.5,869.7,708.4,868.6,707,868.6z"/>
	<path class="st1" d="M127.9,679.8c-0.9-1.1-2.5-1.2-3.5-0.3c-1.1,0.9-1.2,2.5-0.3,3.5c0.3,0.3,7.2,8.5,21.4,21.6
		c0.5,0.4,1.1,0.7,1.7,0.7c0.7,0,1.3-0.3,1.8-0.8c0.9-1,0.9-2.6-0.1-3.5C135,688.1,128,679.9,127.9,679.8z"/>
	<path class="st1" d="M195.2,738.6c-8.2-5.9-16.2-12-23.7-18.2c-1.1-0.9-2.6-0.7-3.5,0.4c-0.9,1.1-0.7,2.6,0.4,3.5
		c7.6,6.2,15.7,12.4,23.9,18.3c0.4,0.3,1,0.5,1.5,0.5c0.8,0,1.5-0.4,2-1C196.6,741,196.3,739.4,195.2,738.6z"/>
	<path class="st1" d="M245.3,771.2c-8.6-5-17.2-10.3-25.4-15.7c-1.2-0.8-2.7-0.4-3.5,0.7c-0.8,1.2-0.4,2.7,0.7,3.5
		c8.3,5.4,17,10.7,25.6,15.8c0.4,0.2,0.8,0.3,1.3,0.3c0.9,0,1.7-0.4,2.2-1.2C246.9,773.4,246.5,771.8,245.3,771.2z"/>
	<path class="st1" d="M298.2,798.9c-9-4.2-18-8.7-26.8-13.3c-1.2-0.6-2.7-0.2-3.4,1.1c-0.6,1.2-0.2,2.7,1.1,3.4
		c8.8,4.6,17.9,9.1,27,13.4c0.3,0.2,0.7,0.2,1.1,0.2c0.9,0,1.8-0.5,2.3-1.4C300,801,299.5,799.5,298.2,798.9z"/>
	<path class="st1" d="M353.4,821.9c-9.3-3.4-18.7-7.1-27.8-10.9c-1.3-0.5-2.7,0.1-3.3,1.3s0.1,2.7,1.3,3.3c9.2,3.8,18.6,7.5,28,11
		c0.3,0.1,0.6,0.2,0.9,0.2c1,0,2-0.6,2.3-1.6C355.3,823.9,354.7,822.4,353.4,821.9z"/>
	<path class="st1" d="M1307,867.8C1307,867.8,1307,867.8,1307,867.8l-30,0c-1.4,0-2.5,1.1-2.5,2.5s1.1,2.5,2.5,2.5c0,0,0,0,0,0l30,0
		c1.4,0,2.5-1.1,2.5-2.5S1308.4,867.8,1307,867.8z"/>
	<path class="st1" d="M1247,867.9C1247,867.9,1247,867.9,1247,867.9l-30,0c-1.4,0-2.5,1.1-2.5,2.5s1.1,2.5,2.5,2.5c0,0,0,0,0,0l30,0
		c1.4,0,2.5-1.1,2.5-2.5S1248.4,867.9,1247,867.9z"/>
	<path class="st1" d="M1366.9,867.5c-4.4,0.2-6.9,0.2-6.8,0.2l-23.1,0c-1.4,0-2.5,1.1-2.5,2.5s1.1,2.5,2.5,2.5c0,0,0,0,0,0l23.2,0
		c0,0,2.5-0.1,7-0.3c1.4-0.1,2.5-1.2,2.4-2.6C1369.5,868.5,1368.4,867.4,1366.9,867.5z"/>
	<path class="st1" d="M1426.7,863.2c-9.8,1-19.8,1.8-29.9,2.5c-1.4,0.1-2.4,1.3-2.3,2.7c0.1,1.3,1.2,2.3,2.5,2.3c0.1,0,0.1,0,0.2,0
		c10.1-0.7,20.2-1.6,30-2.5c1.4-0.1,2.4-1.4,2.2-2.7C1429.3,864.1,1428.1,863.1,1426.7,863.2z"/>
	<path class="st1" d="M1486.1,855.4c-9.4,1.6-19.3,3.1-29.6,4.4c-1.4,0.2-2.3,1.4-2.2,2.8c0.2,1.3,1.2,2.2,2.5,2.2
		c0.1,0,0.2,0,0.3,0c10.3-1.3,20.3-2.8,29.8-4.4c1.4-0.2,2.3-1.5,2-2.9C1488.7,856.1,1487.4,855.2,1486.1,855.4z"/>
	<path class="st1" d="M827,868.4C827,868.4,827,868.4,827,868.4l-30,0c-1.4,0-2.5,1.1-2.5,2.5s1.1,2.5,2.5,2.5c0,0,0,0,0,0l30,0
		c1.4,0,2.5-1.1,2.5-2.5S828.4,868.4,827,868.4z"/>
	<path class="st1" d="M1187,868C1187,868,1187,868,1187,868l-30,0c-1.4,0-2.5,1.1-2.5,2.5c0,1.4,1.1,2.5,2.5,2.5c0,0,0,0,0,0l30,0
		c1.4,0,2.5-1.1,2.5-2.5S1188.4,868,1187,868z"/>
	<path class="st1" d="M947,868.3C947,868.3,947,868.3,947,868.3l-30,0c-1.4,0-2.5,1.1-2.5,2.5s1.1,2.5,2.5,2.5c0,0,0,0,0,0l30,0
		c1.4,0,2.5-1.1,2.5-2.5C949.5,869.4,948.4,868.3,947,868.3z"/>
	<path class="st1" d="M887,868.4C887,868.4,887,868.4,887,868.4l-30,0c-1.4,0-2.5,1.1-2.5,2.5s1.1,2.5,2.5,2.5c0,0,0,0,0,0l30,0
		c1.4,0,2.5-1.1,2.5-2.5S888.4,868.4,887,868.4z"/>
	<path class="st1" d="M1067,868.1C1067,868.1,1067,868.1,1067,868.1l-30,0c-1.4,0-2.5,1.1-2.5,2.5s1.1,2.5,2.5,2.5c0,0,0,0,0,0l30,0
		c1.4,0,2.5-1.1,2.5-2.5C1069.5,869.2,1068.4,868.1,1067,868.1z"/>
	<path class="st1" d="M1127,868C1127,868,1127,868,1127,868l-30,0c-1.4,0-2.5,1.1-2.5,2.5s1.1,2.5,2.5,2.5c0,0,0,0,0,0l30,0
		c1.4,0,2.5-1.1,2.5-2.5S1128.4,868,1127,868z"/>
	<path class="st1" d="M1007,868.2C1007,868.2,1007,868.2,1007,868.2l-30,0c-1.4,0-2.5,1.1-2.5,2.5s1.1,2.5,2.5,2.5c0,0,0,0,0,0l30,0
		c1.4,0,2.5-1.1,2.5-2.5S1008.4,868.2,1007,868.2z"/>
	<polygon class="st1" points="1535.2,847.4 1488.3,839.2 1500.1,855.5 1496.6,875.3 	"/>
</g>
</svg>
