<?xml version="1.0" encoding="utf-8"?>
<!-- Generator: Adobe Illustrator 24.0.1, SVG Export Plug-In . SVG Version: 6.00 Build 0)  -->
<svg version="1.1" id="Oval_-_Pit_Road" xmlns="http://www.w3.org/2000/svg" xmlns:xlink="http://www.w3.org/1999/xlink" x="0px"
	 y="0px" viewBox="0 0 1920 1080" style="enable-background:new 0 0 1920 1080;" xml:space="preserve">
<style type="text/css">
	.st0{fill:#016699;}
	.st1{fill:#D82520;}
</style>
<title>pitroad</title>
<g id="Mergeline">
	<path class="st0" d="M1478.8,799.6c-9.6,5.5-17.9,10-26.1,14.4c-2.4,1.3-3.4,4.3-2.1,6.8c0.9,1.7,2.6,2.7,4.4,2.7
		c0.8,0,1.6-0.2,2.3-0.6c8.3-4.4,16.7-9,26.3-14.5c2.4-1.4,3.2-4.4,1.9-6.8C1484.2,799.1,1481.2,798.3,1478.8,799.6z"/>
	<path class="st0" d="M1494.6,103c-8-1.9-18.7-4.5-29.2-7c-2.7-0.6-5.4,1-6,3.7c-0.6,2.7,1,5.4,3.7,6c10.5,2.5,21.2,5,29.2,7
		c0.4,0.1,0.8,0.1,1.2,0.1c2.3,0,4.3-1.5,4.9-3.8C1498.9,106.3,1497.2,103.6,1494.6,103z"/>
	<path class="st0" d="M1530.5,769.6c-5.7,3.3-11,6.4-16.2,9.4l-9.7,5.7c-2.4,1.4-3.2,4.5-1.8,6.8c0.9,1.6,2.6,2.5,4.3,2.5
		c0.9,0,1.7-0.2,2.5-0.7l9.7-5.7c5.1-3,10.5-6.1,16.2-9.4c2.4-1.4,3.2-4.4,1.8-6.8C1536,769,1532.9,768.2,1530.5,769.6z"/>
	<path class="st0" d="M1556.9,121.6c0.6-2.7-1-5.4-3.7-6c-9.5-2.3-19.4-4.4-29.5-6.4c-2.7-0.5-5.3,1.2-5.9,3.9
		c-0.5,2.7,1.2,5.3,3.9,5.9c9.9,2,19.7,4.1,29.1,6.3c0.4,0.1,0.8,0.1,1.2,0.1C1554.3,125.4,1556.4,123.9,1556.9,121.6z"/>
	<path class="st0" d="M1426.1,827.6c-8.5,4.2-17.4,8.3-27,12.7c-2.5,1.1-3.6,4.1-2.5,6.6c0.8,1.8,2.7,2.9,4.6,2.9
		c0.7,0,1.4-0.1,2.1-0.5c9.7-4.4,18.6-8.6,27.2-12.9c2.5-1.2,3.5-4.2,2.3-6.7C1431.6,827.4,1428.6,826.4,1426.1,827.6z"/>
	<path class="st0" d="M1814.8,369.2c2.1,9.8,3.7,19.6,4.9,29.1c0.3,2.5,2.5,4.4,5,4.4c0.2,0,0.4,0,0.6,0c2.7-0.3,4.7-2.8,4.4-5.6
		c-1.2-9.8-2.9-19.9-5-30c-0.6-2.7-3.2-4.4-5.9-3.8C1815.9,363.9,1814.2,366.5,1814.8,369.2z"/>
	<path class="st0" d="M1579.7,132.8c9.7,2.8,19.2,5.8,28.3,8.9c0.5,0.2,1.1,0.3,1.6,0.3c2.1,0,4-1.3,4.7-3.4
		c0.9-2.6-0.5-5.5-3.1-6.4c-9.2-3.2-18.9-6.2-28.8-9.1c-2.7-0.8-5.4,0.8-6.2,3.4C1575.5,129.3,1577,132.1,1579.7,132.8z"/>
	<path class="st0" d="M1787.2,285.1c0.9,1.8,2.6,2.8,4.5,2.8c0.7,0,1.5-0.2,2.2-0.5c2.5-1.2,3.5-4.2,2.3-6.7
		c-4.5-9.2-9.6-18.2-15-26.6c-1.5-2.3-4.6-3-6.9-1.5c-2.3,1.5-3,4.6-1.5,6.9C1778,267.6,1782.9,276.2,1787.2,285.1z"/>
	<path class="st0" d="M1635.7,152.3c9.3,3.9,18.4,8,26.9,12.3c0.7,0.4,1.5,0.5,2.2,0.5c1.8,0,3.6-1,4.5-2.8c1.2-2.5,0.2-5.5-2.2-6.7
		c-8.8-4.4-18-8.6-27.6-12.6c-2.6-1.1-5.5,0.1-6.5,2.7C1632,148.3,1633.2,151.2,1635.7,152.3z"/>
	<path class="st0" d="M1688.5,178.9c8.5,5.2,16.7,10.8,24.4,16.6c0.9,0.7,2,1,3,1c1.5,0,3-0.7,4-2c1.7-2.2,1.2-5.3-1-7
		c-7.9-6-16.4-11.7-25.2-17.1c-2.4-1.4-5.4-0.7-6.9,1.7C1685.4,174.4,1686.1,177.5,1688.5,178.9z"/>
	<path class="st0" d="M1804,539.4c-2.5-1.2-5.5-0.1-6.7,2.4c-4.1,8.7-8.8,17.5-13.9,25.9c-1.4,2.4-0.7,5.4,1.7,6.9
		c0.8,0.5,1.7,0.7,2.6,0.7c1.7,0,3.3-0.9,4.3-2.4c5.3-8.8,10.2-17.8,14.4-26.9C1807.6,543.5,1806.5,540.6,1804,539.4z"/>
	<path class="st0" d="M1812.6,344c0.4,0,0.9-0.1,1.3-0.2c2.7-0.7,4.2-3.5,3.5-6.1c-2.8-10.3-5.9-19.8-9.2-29c-1-2.6-3.8-3.9-6.4-3
		c-2.6,1-3.9,3.8-3,6.4c3.3,8.9,6.2,18.1,9,28.2C1808.4,342.6,1810.4,344,1812.6,344z"/>
	<path class="st0" d="M1773.9,591.2c-2.2-1.7-5.3-1.2-7,1c-5.7,7.7-12,15.4-18.7,22.9c-1.8,2.1-1.6,5.2,0.4,7.1
		c1,0.8,2.1,1.3,3.3,1.3c1.4,0,2.8-0.6,3.7-1.7c6.8-7.7,13.3-15.7,19.2-23.6C1776.6,596,1776.1,592.8,1773.9,591.2z"/>
	<path class="st0" d="M1831.7,427.6c0-2.8-2.3-4.9-5.1-4.9c-2.8,0-5,2.3-4.9,5.1c0,1.6,0,3.2,0,4.8c0,8.3-0.4,16.5-1.1,24.6
		c-0.3,2.7,1.8,5.2,4.5,5.4c0.2,0,0.3,0,0.5,0c2.6,0,4.7-1.9,5-4.5c0.8-8.4,1.2-17,1.2-25.5C1831.7,430.9,1831.7,429.3,1831.7,427.6
		z"/>
	<path class="st0" d="M1822.1,482.4c-2.7-0.6-5.4,1.2-5.9,3.9c-2,9.5-4.6,19.1-7.8,28.3c-0.9,2.6,0.5,5.5,3.1,6.3
		c0.5,0.2,1.1,0.3,1.6,0.3c2.1,0,4-1.3,4.7-3.4c3.3-9.6,6-19.5,8.1-29.5C1826.5,485.6,1824.8,482.9,1822.1,482.4z"/>
	<path class="st0" d="M1682.9,675.4c-7.6,5.9-15.7,11.8-24,17.6c-2.3,1.6-2.8,4.7-1.2,7c1,1.4,2.5,2.1,4.1,2.1c1,0,2-0.3,2.9-0.9
		c8.4-5.9,16.6-11.9,24.4-17.8c2.2-1.7,2.6-4.8,0.9-7C1688.2,674.1,1685.1,673.7,1682.9,675.4z"/>
	<path class="st0" d="M1759.3,237.6c1.1,0,2.3-0.4,3.2-1.2c2.1-1.8,2.4-4.9,0.6-7c-6.4-7.7-13.5-15.2-20.9-22.2
		c-2-1.9-5.2-1.8-7.1,0.2c-1.9,2-1.8,5.2,0.2,7.1c7.2,6.8,13.9,14,20.1,21.4C1756.4,237,1757.9,237.6,1759.3,237.6z"/>
	<path class="st0" d="M1582.6,739.7c-8.7,4.9-17.3,9.8-26.1,14.8c-2.4,1.4-3.2,4.4-1.8,6.8c0.9,1.6,2.6,2.5,4.3,2.5
		c0.8,0,1.7-0.2,2.5-0.7c8.8-5,17.3-9.9,26-14.8c2.4-1.4,3.3-4.4,1.9-6.8C1588.1,739.2,1585,738.4,1582.6,739.7z"/>
	<path class="st0" d="M1634.1,709.4c-8.2,5.2-16.7,10.4-25.5,15.5c-2.4,1.4-3.2,4.5-1.8,6.8c0.9,1.6,2.6,2.5,4.3,2.5
		c0.9,0,1.7-0.2,2.5-0.7c8.8-5.2,17.5-10.5,25.8-15.7c2.3-1.5,3-4.6,1.5-6.9C1639.5,708.6,1636.4,707.9,1634.1,709.4z"/>
	<path class="st0" d="M1727.8,636.6c-6.9,6.7-14.2,13.5-21.9,20c-2.1,1.8-2.3,5-0.5,7.1c1,1.1,2.4,1.7,3.8,1.7
		c1.2,0,2.3-0.4,3.3-1.2c7.8-6.7,15.3-13.6,22.4-20.5c2-1.9,2-5.1,0.1-7.1C1733,634.7,1729.8,634.6,1727.8,636.6z"/>
	
		<rect x="1415.2" y="92.1" transform="matrix(0.2309 -0.973 0.973 0.2309 1019.0049 1483.2383)" class="st0" width="65" height="10"/>
</g>
<g id="Pitroad">
	<path class="st1" d="M845.1,892.2h-30c-1.4,0-2.5,1.1-2.5,2.5s1.1,2.5,2.5,2.5h30c1.4,0,2.5-1.1,2.5-2.5S846.5,892.2,845.1,892.2z"
		/>
	<path class="st1" d="M905.1,892.2h-30c-1.4,0-2.5,1.1-2.5,2.5s1.1,2.5,2.5,2.5h30c1.4,0,2.5-1.1,2.5-2.5S906.5,892.2,905.1,892.2z"
		/>
	<path class="st1" d="M785.1,892.2h-30c-1.4,0-2.5,1.1-2.5,2.5s1.1,2.5,2.5,2.5h30c1.4,0,2.5-1.1,2.5-2.5S786.5,892.2,785.1,892.2z"
		/>
	<path class="st1" d="M608.1,869.6c-9.5-2.6-19.2-5.4-28.7-8.4c-1.3-0.4-2.7,0.3-3.1,1.6c-0.4,1.3,0.3,2.7,1.6,3.1
		c9.6,3,19.3,5.8,28.9,8.4c0.2,0.1,0.4,0.1,0.7,0.1c1.1,0,2.1-0.7,2.4-1.8C610.2,871.3,609.4,870,608.1,869.6z"/>
	<path class="st1" d="M725.1,892.2L725.1,892.2c-1.1-0.1-11.6-0.9-29.4-3.6c-1.4-0.2-2.6,0.7-2.8,2.1c-0.2,1.4,0.7,2.6,2.1,2.9
		c19.4,3,30,3.6,30,3.6h0.1c1.4,0,2.5-1.1,2.5-2.5S726.5,892.2,725.1,892.2z"/>
	<path class="st1" d="M550.9,851.9c-9.4-3.2-18.8-6.7-28.1-10.2c-1.3-0.5-2.7,0.2-3.2,1.4c-0.5,1.3,0.2,2.7,1.4,3.2
		c9.3,3.6,18.9,7,28.3,10.3c0.3,0.1,0.5,0.1,0.8,0.1c1,0,2-0.6,2.4-1.7C552.9,853.8,552.2,852.3,550.9,851.9z"/>
	<path class="st1" d="M965.1,892.2h-30c-1.4,0-2.5,1.1-2.5,2.5s1.1,2.5,2.5,2.5h30c1.4,0,2.5-1.1,2.5-2.5S966.5,892.2,965.1,892.2z"
		/>
	<path class="st1" d="M666.3,883.4c-9.6-1.9-19.4-4-29.2-6.4c-1.3-0.3-2.7,0.5-3,1.9c-0.3,1.3,0.5,2.7,1.9,3
		c9.9,2.3,19.8,4.5,29.4,6.4c0.2,0,0.3,0,0.5,0c1.2,0,2.2-0.8,2.4-2C668.5,885,667.6,883.7,666.3,883.4z"/>
	<path class="st1" d="M1263.9,882.7c-10,2-19.9,3.8-29.4,5.3c-1.4,0.2-2.3,1.5-2.1,2.9c0.2,1.2,1.3,2.1,2.5,2.1c0.1,0,0.3,0,0.4,0
		c9.6-1.5,19.5-3.3,29.6-5.4c1.4-0.3,2.2-1.6,2-2.9S1265.3,882.4,1263.9,882.7z"/>
	<path class="st1" d="M1322.1,868.7c-9.7,2.7-19.4,5.2-29,7.5c-1.3,0.3-2.2,1.7-1.8,3c0.3,1.1,1.3,1.9,2.4,1.9c0.2,0,0.4,0,0.6-0.1
		c9.6-2.3,19.4-4.9,29.1-7.6c1.3-0.4,2.1-1.7,1.7-3.1C1324.8,869.1,1323.4,868.3,1322.1,868.7z"/>
	<path class="st1" d="M1204.9,891.9c-1.9,0.2-3,0.3-3.3,0.3h-26.4c-1.4,0-2.5,1.1-2.5,2.5s1.1,2.5,2.5,2.5h26.5l0.2,0
		c0,0,1.2-0.1,3.5-0.3c1.4-0.1,2.4-1.3,2.3-2.7C1207.5,892.8,1206.3,891.8,1204.9,891.9z"/>
	<path class="st1" d="M1085.1,892.2h-30c-1.4,0-2.5,1.1-2.5,2.5s1.1,2.5,2.5,2.5h30c1.4,0,2.5-1.1,2.5-2.5
		S1086.5,892.2,1085.1,892.2z"/>
	<path class="st1" d="M1145.1,892.2h-30c-1.4,0-2.5,1.1-2.5,2.5s1.1,2.5,2.5,2.5h30c1.4,0,2.5-1.1,2.5-2.5
		S1146.5,892.2,1145.1,892.2z"/>
	<path class="st1" d="M1025.1,892.2h-30c-1.4,0-2.5,1.1-2.5,2.5s1.1,2.5,2.5,2.5h30c1.4,0,2.5-1.1,2.5-2.5
		S1026.5,892.2,1025.1,892.2z"/>
	<path class="st1" d="M1404.8,844l-47.6-2.6l11.8,12.8c-6.1,2.1-12.2,4-18.3,6c-1.3,0.4-2,1.8-1.6,3.1c0.3,1.1,1.3,1.8,2.4,1.8
		c0.2,0,0.5,0,0.8-0.1c6.1-1.9,12.3-3.9,18.4-6l-1,17.4L1404.8,844z"/>
</g>
</svg>
