<?xml version="1.0" encoding="utf-8"?>
<!-- Generator: Adobe Illustrator 24.0.1, SVG Export Plug-In . SVG Version: 6.00 Build 0)  -->
<svg version="1.1" id="Infield_RC_Short_A_-_Pit_Road"
	 xmlns="http://www.w3.org/2000/svg" xmlns:xlink="http://www.w3.org/1999/xlink" x="0px" y="0px" viewBox="0 0 1920 1080"
	 style="enable-background:new 0 0 1920 1080;" xml:space="preserve">
<style type="text/css">
	.st0{fill:#D82520;}
</style>
<title>pitroad</title>
<g id="Pitroad">
	<path class="st0" d="M868.2,411.8l-30-0.2c-1.4,0-2.5,1.1-2.5,2.5c0,1.4,1.1,2.5,2.5,2.5l30,0.2c0,0,0,0,0,0c1.4,0,2.5-1.1,2.5-2.5
		C870.6,412.9,869.5,411.8,868.2,411.8z"/>
	<path class="st0" d="M854.4,185.5c-0.8-1.1-2.4-1.4-3.5-0.5c-1.1,0.8-1.4,2.4-0.5,3.5c0.3,0.4,7.1,9.6,21.5,21.7
		c0.5,0.4,1,0.6,1.6,0.6c0.7,0,1.4-0.3,1.9-0.9c0.9-1.1,0.7-2.6-0.3-3.5C861.1,194.7,854.4,185.6,854.4,185.5z"/>
	<path class="st0" d="M688.2,410.6l-30-0.2c0,0,0,0,0,0c-1.4,0-2.5,1.1-2.5,2.5c0,1.4,1.1,2.5,2.5,2.5l30,0.2c0,0,0,0,0,0
		c1.4,0,2.5-1.1,2.5-2.5C690.6,411.8,689.5,410.7,688.2,410.6z"/>
	<path class="st0" d="M748.2,411l-30-0.2c0,0,0,0,0,0c-1.4,0-2.5,1.1-2.5,2.5c0,1.4,1.1,2.5,2.5,2.5l30,0.2c0,0,0,0,0,0
		c1.4,0,2.5-1.1,2.5-2.5C750.6,412.2,749.5,411,748.2,411z"/>
	<path class="st0" d="M808.2,411.4l-30-0.2c0,0,0,0,0,0c-1.4,0-2.5,1.1-2.5,2.5c0,1.4,1.1,2.5,2.5,2.5l30,0.2c0,0,0,0,0,0
		c1.4,0,2.5-1.1,2.5-2.5C810.6,412.5,809.5,411.4,808.2,411.4z"/>
	<path class="st0" d="M899.3,349.9c-1.4-0.2-2.6,0.8-2.8,2.2c-0.2,1.8-0.3,3.6-0.3,5.4c0,8.3,2.5,16.7,7.5,24.9
		c0.5,0.8,1.3,1.2,2.1,1.2c0.4,0,0.9-0.1,1.3-0.4c1.2-0.7,1.6-2.3,0.8-3.4c-4.5-7.4-6.8-14.9-6.8-22.3c0-1.6,0.1-3.1,0.3-4.7
		C901.6,351.3,900.7,350,899.3,349.9z"/>
	<path class="st0" d="M988.8,275.9c-0.8-1.1-2.4-1.4-3.5-0.6c-0.2,0.1-0.3,0.2-0.5,0.4c-2.4,0.8-13,4.9-26.5,11.9
		c-1.2,0.6-1.7,2.1-1.1,3.4c0.4,0.9,1.3,1.3,2.2,1.3c0.4,0,0.8-0.1,1.2-0.3c14-7.3,25.2-11.4,26-11.7l0.4-0.1l0.3-0.2
		c0.3-0.2,0.6-0.4,0.9-0.6C989.3,278.5,989.6,277,988.8,275.9z"/>
	<path class="st0" d="M972.5,258.9c0,0,3.9,0.5,8.2,1.6c0.2,0.1,0.4,0.1,0.6,0.1c1.1,0,2.1-0.7,2.4-1.9c0.4-1.3-0.4-2.7-1.8-3.1
		c-4.2-1.1-7.9-1.6-8.7-1.7c-6.9-1.6-13.7-3.5-20.3-5.6c-1.3-0.4-2.7,0.3-3.1,1.6c-0.4,1.3,0.3,2.7,1.6,3.1
		c6.7,2.2,13.7,4.1,20.8,5.7L972.5,258.9z"/>
	<path class="st0" d="M923.3,402.2C923.3,402.2,923.3,402.2,923.3,402.2c-1.4,0-2.5,1.2-2.5,2.6c0,4.8-6.5,6.6-12,7.3l-10.6-0.1
		c0,0,0,0,0,0c-1.4,0-2.5,1.1-2.5,2.5c0,1.4,1.1,2.5,2.5,2.5l10.9,0.1l0.1,0c13.7-1.6,16.6-7.5,16.6-12.3l0-0.2
		C925.8,403.3,924.7,402.2,923.3,402.2z"/>
	<path class="st0" d="M896.5,228c8.4,5.2,17.4,10,26.7,14.3c0.3,0.2,0.7,0.2,1,0.2c0.9,0,1.9-0.5,2.3-1.5c0.6-1.3,0-2.7-1.2-3.3
		c-9.1-4.1-17.9-8.8-26.2-14c-1.2-0.7-2.7-0.4-3.4,0.8C894.9,225.7,895.3,227.2,896.5,228z"/>
	<path class="st0" d="M932.3,303.4c-9.3,6.7-16.9,13.6-22.6,20.6c-0.9,1.1-0.7,2.6,0.3,3.5c0.5,0.4,1,0.6,1.6,0.6
		c0.7,0,1.4-0.3,1.9-0.9c5.5-6.7,12.8-13.3,21.7-19.7c1.1-0.8,1.4-2.4,0.6-3.5C935,302.9,933.4,302.6,932.3,303.4z"/>
	<polygon class="st0" points="599.5,412.5 643.3,431.3 635.5,412.8 643.5,394.3 	"/>
</g>
</svg>
