<?xml version="1.0" encoding="utf-8"?>
<!-- Generator: Adobe Illustrator 24.0.1, SVG Export Plug-In . SVG Version: 6.00 Build 0)  -->
<svg version="1.1" id="Infield_RC_Short_B_-_Pit_Road"
	 xmlns="http://www.w3.org/2000/svg" xmlns:xlink="http://www.w3.org/1999/xlink" x="0px" y="0px" viewBox="0 0 1920 1080"
	 style="enable-background:new 0 0 1920 1080;" xml:space="preserve">
<style type="text/css">
	.st0{fill:#D82520;}
</style>
<title>pitroad</title>
<g id="Pitroad">
	<path class="st0" d="M1188.3,415.5l-30-0.2c0,0,0,0,0,0c-1.4,0-2.5,1.1-2.5,2.5c0,1.4,1.1,2.5,2.5,2.5l30,0.2c0,0,0,0,0,0
		c1.4,0,2.5-1.1,2.5-2.5C1190.8,416.6,1189.7,415.5,1188.3,415.5z"/>
	<path class="st0" d="M1068.3,414.8l-22.8-0.1l6.9-16l-44,18.3l43.8,18.8l-6.7-16l22.8,0.1c0,0,0,0,0,0c1.4,0,2.5-1.1,2.5-2.5
		C1070.8,415.9,1069.7,414.8,1068.3,414.8z"/>
	<path class="st0" d="M1128.3,415.2l-30-0.2c0,0,0,0,0,0c-1.4,0-2.5,1.1-2.5,2.5c0,1.4,1.1,2.5,2.5,2.5l30,0.2c0,0,0,0,0,0
		c1.4,0,2.5-1.1,2.5-2.5C1130.8,416.3,1129.7,415.2,1128.3,415.2z"/>
	<path class="st0" d="M1248.3,415.9l-30-0.2c0,0,0,0,0,0c-1.4,0-2.5,1.1-2.5,2.5c0,1.4,1.1,2.5,2.5,2.5l30,0.2c0,0,0,0,0,0
		c1.4,0,2.5-1.1,2.5-2.5C1250.8,417,1249.7,415.9,1248.3,415.9z"/>
	<path class="st0" d="M1308.3,416.2C1308.3,416.2,1308.3,416.2,1308.3,416.2l-0.6,0l-29.4-0.2c0,0,0,0,0,0c-1.4,0-2.5,1.1-2.5,2.5
		c0,1.4,1.1,2.5,2.5,2.5l29.4,0.2l0.6,0c1.4,0,2.5-1.1,2.5-2.5C1310.8,417.3,1309.6,416.2,1308.3,416.2z"/>
	<path class="st0" d="M1459.8,345.3c-1.3-0.5-2.7,0.1-3.3,1.3c-3.1,7.4-7.3,14.3-12.7,20.6c-0.9,1.1-0.8,2.6,0.3,3.5
		c0.5,0.4,1,0.6,1.6,0.6c0.7,0,1.4-0.3,1.9-0.9c5.7-6.7,10.2-14.1,13.5-21.9C1461.7,347.3,1461.1,345.8,1459.8,345.3z"/>
	<path class="st0" d="M1421.8,386.3c-7.7,5-16.5,9.5-26.3,13.3c-1.3,0.5-1.9,2-1.4,3.2c0.4,1,1.3,1.6,2.3,1.6c0.3,0,0.6-0.1,0.9-0.2
		c10.1-4,19.2-8.6,27.2-13.8c1.2-0.8,1.5-2.3,0.7-3.5C1424.5,385.9,1423,385.5,1421.8,386.3z"/>
	<path class="st0" d="M1367.2,408.5c-9.3,2.3-19.2,4.1-29.3,5.4c-1.4,0.2-2.3,1.4-2.2,2.8c0.2,1.3,1.2,2.2,2.5,2.2
		c0.1,0,0.2,0,0.3,0c10.3-1.3,20.3-3.2,29.8-5.5c1.3-0.3,2.2-1.7,1.8-3C1369.9,409,1368.6,408.1,1367.2,408.5z"/>
</g>
</svg>
