<svg id="Oval_-_Pit_Road" data-name="Oval - Pit Road" xmlns="http://www.w3.org/2000/svg" viewBox="0 0 1920 1080"><defs><style>.cls-1{fill:#0089ba;}.cls-2{fill:#d82520;}</style></defs><title>pitroad</title><g id="Mergeline"><path class="cls-1" d="M1342.18,578.52a237.46,237.46,0,0,1-26.36-13.59,2.5,2.5,0,0,0-2.54,4.3,240.8,240.8,0,0,0,26.93,13.88,2.43,2.43,0,0,0,1,.21,2.5,2.5,0,0,0,1-4.8Z"/><path class="cls-1" d="M1239.62,210.64c-8.58-5.54-16.89-10.71-25.43-15.85l-.18-.1a2.5,2.5,0,1,0-2.5,4.33l.14.08c8.46,5.08,16.73,10.23,25.26,15.74a2.5,2.5,0,1,0,2.71-4.2Z"/><path class="cls-1" d="M1289.12,245c-7.72-5.78-15.95-11.7-24.45-17.58a2.5,2.5,0,0,0-2.85,4.11c8.45,5.85,16.63,11.73,24.3,17.47a2.5,2.5,0,0,0,3-4Z"/><path class="cls-1" d="M1188,179.67l-26-15a2.5,2.5,0,1,0-2.5,4.33l26,15a2.54,2.54,0,0,0,1.25.33,2.5,2.5,0,0,0,1.25-4.66Z"/><path class="cls-1" d="M1332,287.2a2.52,2.52,0,0,0,1.73.69,2.5,2.5,0,0,0,1.72-4.31c-6.77-6.45-14.38-13.18-22.62-20a2.5,2.5,0,1,0-3.19,3.85C1317.78,274.18,1325.3,280.83,1332,287.2Z"/><path class="cls-1" d="M1136.1,149.63l-26-15a2.5,2.5,0,0,0-2.5,4.33l26,15a2.54,2.54,0,0,0,1.25.33,2.5,2.5,0,0,0,1.25-4.66Z"/><path class="cls-1" d="M1397.41,582.71c-4.92,3.25-11.22,4.9-18.72,4.9h0a61,61,0,0,1-8.49-.64,2.5,2.5,0,0,0-.71,4.95,65.07,65.07,0,0,0,9.2.69h0c8.5,0,15.72-1.93,21.47-5.73a2.5,2.5,0,1,0-2.75-4.17Z"/><path class="cls-1" d="M1418.56,443.48a2.12,2.12,0,0,0,.5-.05,2.5,2.5,0,0,0,2-2.94c-2-9.82-4.49-19.68-7.43-29.32a2.51,2.51,0,0,0-4.79,1.47c2.9,9.48,5.36,19.18,7.32,28.84A2.49,2.49,0,0,0,1418.56,443.48Z"/><path class="cls-1" d="M1372.56,333.49a2.56,2.56,0,0,0,1.41-.43,2.5,2.5,0,0,0,.65-3.48,289.86,289.86,0,0,0-18.33-24.05,2.5,2.5,0,1,0-3.82,3.24,279.94,279.94,0,0,1,18,23.63A2.51,2.51,0,0,0,1372.56,333.49Z"/><path class="cls-1" d="M1421.61,528a2.5,2.5,0,0,0-2.87,2.07,165.67,165.67,0,0,1-7.2,28.62,2.5,2.5,0,0,0,1.53,3.19,2.63,2.63,0,0,0,.83.14,2.51,2.51,0,0,0,2.36-1.67,171.28,171.28,0,0,0,7.42-29.48A2.51,2.51,0,0,0,1421.61,528Z"/><path class="cls-1" d="M1390.35,355.42a2.5,2.5,0,0,0-4.4,2.37c4.66,8.65,9,17.68,12.78,26.85a2.5,2.5,0,1,0,4.62-1.92C1399.47,373.4,1395.09,364.21,1390.35,355.42Z"/><path class="cls-1" d="M1425.78,473.82c-.09-1.1-.19-2.24-.3-3.4a2.5,2.5,0,1,0-5,.47c.11,1.13.21,2.25.29,3.3.47,6.76.71,13.44.71,19.85,0,2.17,0,4.36-.09,6.52a2.5,2.5,0,0,0,2.44,2.56h.06a2.49,2.49,0,0,0,2.5-2.43c.06-2.21.09-4.44.09-6.65C1426.5,487.51,1426.25,480.72,1425.78,473.82Z"/><rect class="cls-1" x="1068.5" y="120.32" width="32.5" height="5" transform="translate(435.34 1000.33) rotate(-59.96)"/><path class="cls-1" d="M1328.55,630.68l-27.72,11.5a2.5,2.5,0,0,0,1.92,4.62l27.72-11.5a2.5,2.5,0,1,0-1.92-4.62Z"/><path class="cls-1" d="M1381.68,605.19a56.73,56.73,0,0,1-11.8,8.34l0,.07c-1.08.36-2.79,1.07-5.74,2.29l-7.9,3.28a2.5,2.5,0,0,0,1,4.81,2.53,2.53,0,0,0,1-.19l7.9-3.28,4.55-1.89,0,0,1.28-.58c.22-.11,5.64-2.64,13-9.13a2.5,2.5,0,1,0-3.3-3.75Z"/></g><g id="Pitroad"><path class="cls-2" d="M776.59,162.79c9.15-3.31,18.67-6.7,28.29-10.06a2.5,2.5,0,0,0-1.65-4.72c-9.64,3.37-19.17,6.76-28.34,10.08a2.5,2.5,0,0,0,.85,4.85A2.54,2.54,0,0,0,776.59,162.79Z"/><path class="cls-2" d="M812.08,547.19c-7.94-4.39-16.24-9.48-25.38-15.55a2.5,2.5,0,1,0-2.76,4.16c9.24,6.15,17.66,11.31,25.73,15.77a2.5,2.5,0,0,0,3.39-1A2.5,2.5,0,0,0,812.08,547.19Z"/><path class="cls-2" d="M761.1,515.61a205.83,205.83,0,0,0-27.7-12.39,2.5,2.5,0,0,0-1.7,4.7,202,202,0,0,1,27,12.09,2.38,2.38,0,0,0,1.18.3,2.5,2.5,0,0,0,1.19-4.7Z"/><path class="cls-2" d="M925.68,582.55h.15a2.5,2.5,0,0,0,.15-5,287.33,287.33,0,0,1-29.54-3.31,2.5,2.5,0,1,0-.81,4.93A291.7,291.7,0,0,0,925.68,582.55Z"/><path class="cls-2" d="M918.9,114.94l.15,0a2.45,2.45,0,0,0,1.21-.82,2.51,2.51,0,0,0,.44-2.3,2.36,2.36,0,0,0-.38-.74,2.53,2.53,0,0,0-2.25-1,3.16,3.16,0,0,0-.5.1l-.83.26c-2.77.86-12.3,3.83-26.32,8.35l-1.64.53a2.51,2.51,0,0,0-1.72,2.65,3,3,0,0,0,.11.5,2.51,2.51,0,0,0,2.38,1.73,2.63,2.63,0,0,0,.77-.12C906.86,118.67,917.54,115.36,918.9,114.94Z"/><path class="cls-2" d="M956,582.62A242.35,242.35,0,0,0,986,579.07a2.5,2.5,0,0,0-.9-4.92,236.24,236.24,0,0,1-29.46,3.48,2.5,2.5,0,0,0,.13,5Z"/><path class="cls-2" d="M835.63,561.27a2.49,2.49,0,0,0,1.43,3.23,208.17,208.17,0,0,0,29,8.65,2.15,2.15,0,0,0,.56.07,2.5,2.5,0,0,0,.56-4.94,204.58,204.58,0,0,1-28.36-8.45A2.49,2.49,0,0,0,835.63,561.27Z"/><path class="cls-2" d="M704.14,495.15a172.67,172.67,0,0,0-30.23-3.25,2.5,2.5,0,0,0-.08,5,168.3,168.3,0,0,1,29.35,3.16,2.74,2.74,0,0,0,.48,0,2.5,2.5,0,0,0,.48-5Z"/><path class="cls-2" d="M466.68,421a2.67,2.67,0,0,0,.89.45,2.57,2.57,0,0,0,.67.09,2.52,2.52,0,0,0,2.41-1.83,258.41,258.41,0,0,1,9.64-28.1,2.5,2.5,0,0,0-4.63-1.88q-2.21,5.42-4.14,10.82c-2.16,6-4.06,12-5.69,17.82A2.5,2.5,0,0,0,466.68,421Z"/><path class="cls-2" d="M529.7,533.42c-4.67,2.28-9.38,4.66-14,7.07a40,40,0,0,1-12.87,3.68,2.5,2.5,0,0,0,.24,5h.26A45,45,0,0,0,517.86,545l.1,0c4.6-2.4,9.29-4.77,13.93-7a2.5,2.5,0,0,0-2.19-4.5Z"/><path class="cls-2" d="M585.25,510c-9.16,3.23-18.61,6.91-28.11,10.94a2.5,2.5,0,0,0,1,4.8,2.6,2.6,0,0,0,1-.2c9.4-4,18.76-7.63,27.82-10.83a2.5,2.5,0,1,0-1.66-4.71Z"/><path class="cls-2" d="M643.63,494.52A300,300,0,0,0,614.07,501a2.5,2.5,0,1,0,1.3,4.83,293.47,293.47,0,0,1,29.06-6.35,2.5,2.5,0,1,0-.8-4.93Z"/><path class="cls-2" d="M1096.13,525.77a2.51,2.51,0,0,0-3.26-1.38,247.89,247.89,0,0,0-27.3,13.17,2.5,2.5,0,0,0,1.22,4.68,2.57,2.57,0,0,0,1.22-.31,241.35,241.35,0,0,1,26.74-12.9A2.5,2.5,0,0,0,1096.13,525.77Z"/><path class="cls-2" d="M1211.13,524.42a2.5,2.5,0,0,0,.7-4.9,243.62,243.62,0,0,0-29.52-6.82,2.5,2.5,0,1,0-.8,4.93,237.48,237.48,0,0,1,28.91,6.69A3,3,0,0,0,1211.13,524.42Z"/><path class="cls-2" d="M1034.45,563.15c1.32-.71,3.36-2.1,6.4-4.18l1.87-1.27a2.5,2.5,0,0,0-2.81-4.14l-1.87,1.28c-2.77,1.88-5,3.38-6,3.95l-.18.1c-1.87,1.21-8.06,4.4-18,7.84a2.5,2.5,0,0,0,.82,4.86,2.6,2.6,0,0,0,.82-.13C1025.7,567.91,1032.17,564.6,1034.45,563.15Z"/><path class="cls-2" d="M1154.51,513.24a2.46,2.46,0,0,0-2.6-2.39,161.13,161.13,0,0,0-30.13,4.24,2.5,2.5,0,0,0,.57,4.93,2.22,2.22,0,0,0,.57-.07,155.43,155.43,0,0,1,29.2-4.1A2.5,2.5,0,0,0,1154.51,513.24Z"/><path class="cls-2" d="M1267.23,545.65a2.5,2.5,0,0,0,1-4.78c-9.51-4.3-18.87-8.22-27.83-11.64a2.5,2.5,0,0,0-1.78,4.67c8.86,3.39,18.13,7.27,27.55,11.52A2.49,2.49,0,0,0,1267.23,545.65Z"/><polygon class="cls-2" points="1314.55 567.08 1284.21 530.35 1282.61 550.41 1267.07 563.18 1314.55 567.08"/><path class="cls-2" d="M1220.73,675.4,1193,686.88a2.5,2.5,0,0,0,1,4.81,2.44,2.44,0,0,0,1-.19L1222.65,680a2.5,2.5,0,1,0-1.92-4.62Z"/><path class="cls-2" d="M573.57,668.21c-9.63-4-18.67-8.29-26.9-12.73a2.5,2.5,0,0,0-2.37,4.4c8.37,4.52,17.57,8.87,27.35,13a2.5,2.5,0,0,0,1.92-4.62Z"/><path class="cls-2" d="M630.18,687.11c-9.88-2.62-19.52-5.48-28.65-8.51a2.5,2.5,0,0,0-1.57,4.75c9.23,3,19,5.94,28.93,8.59a2.43,2.43,0,0,0,.65.09,2.5,2.5,0,0,0,.64-4.92Z"/><path class="cls-2" d="M461.38,480.91h0a2.52,2.52,0,0,0,2.47-2.54c0-2-.05-4-.05-5.84,0-13.16.61-21.24.8-23.47l0-.32a2.5,2.5,0,0,0-4.84-1.13,2.7,2.7,0,0,0-.12.49l0,.37a184,184,0,0,0-1.15,21.8c0,2.74.05,5.5.15,8.21a2.49,2.49,0,0,0,2.2,2.37A2.07,2.07,0,0,0,461.38,480.91Z"/><path class="cls-2" d="M521.6,639.68a136.93,136.93,0,0,1-21.73-19.8,2.5,2.5,0,0,0-3.77,3.29,142.35,142.35,0,0,0,22.52,20.53,2.5,2.5,0,0,0,3-4Z"/><path class="cls-2" d="M466.79,522.69a55.47,55.47,0,0,0,8,14.24,2.49,2.49,0,0,0,3.51.39,2.51,2.51,0,0,0,.39-3.52c-4.93-6.14-8.75-15-11.34-26.27a2.5,2.5,0,0,0-3-1.87,2.3,2.3,0,0,0-.8.35,2.48,2.48,0,0,0-3.23,2.59c.86,10.36,2.09,20.45,3.65,30a2.5,2.5,0,0,0,2.46,2.1,2.83,2.83,0,0,0,.41,0,2.5,2.5,0,0,0,2.06-2.87C468.11,532.89,467.4,527.84,466.79,522.69Z"/><path class="cls-2" d="M475.18,566.85a2.5,2.5,0,1,0-4.82,1.32,201.48,201.48,0,0,0,10.1,28.64,2.5,2.5,0,1,0,4.57-2A194.15,194.15,0,0,1,475.18,566.85Z"/><path class="cls-2" d="M688.69,699.92l-5-1c-3.7-.74-7.32-1.47-11-2.17-2.64-.51-7.56-1.46-13.44-2.71a2.5,2.5,0,0,0-1,4.9c5.93,1.25,10.87,2.2,13.53,2.72,3.63.7,7.24,1.42,10.92,2.17l5,1a2,2,0,0,0,.49,0,2.5,2.5,0,0,0,.49-5Z"/><path class="cls-2" d="M807.34,711.52H784.43l-6.93-.39a2.47,2.47,0,0,0-2.64,2.34,2.51,2.51,0,0,0,2.34,2.65c2.29.13,4.64.27,7,.39h23.1a2.5,2.5,0,1,0,0-5Z"/><path class="cls-2" d="M1047.34,711.52h-30a2.5,2.5,0,0,0,0,5h30a2.5,2.5,0,0,0,0-5Z"/><path class="cls-2" d="M867.34,711.52h-30a2.5,2.5,0,0,0,0,5h30a2.5,2.5,0,1,0,0-5Z"/><path class="cls-2" d="M987.34,711.52h-30a2.5,2.5,0,0,0,0,5h30a2.5,2.5,0,1,0,0-5Z"/><path class="cls-2" d="M747.7,708.81c-10.46-1-20.15-2.21-29.62-3.64a2.5,2.5,0,1,0-.75,4.94c9.56,1.44,19.34,2.65,29.89,3.68h.24a2.5,2.5,0,0,0,.24-5Z"/><path class="cls-2" d="M927.34,711.52h-30a2.5,2.5,0,0,0,0,5h30a2.5,2.5,0,1,0,0-5Z"/><path class="cls-2" d="M1165.34,697.93c-1.87.57-4.16,1.21-6.81,1.91-7.26,1.93-14.69,3.64-22.1,5.09a2.5,2.5,0,0,0,.48,5,2.09,2.09,0,0,0,.49,0c7.51-1.47,15-3.2,22.41-5.15,2.71-.72,5.06-1.38,7-2a2.5,2.5,0,0,0-1.45-4.79Z"/><path class="cls-2" d="M1107,709.41c-9.8,1.07-19.8,1.74-29.71,2a2.5,2.5,0,0,0,.06,5h.07c10-.26,20.19-.94,30.13-2a2.5,2.5,0,0,0-.55-5Z"/><path class="cls-2" d="M719.46,184.06a2.42,2.42,0,0,0,.91-.18c8.92-3.48,18.35-7.09,28-10.73a2.5,2.5,0,0,0-1.76-4.68c-9.71,3.64-19.16,7.26-28.1,10.76a2.5,2.5,0,0,0,.91,4.83Z"/><path class="cls-2" d="M664,207.09a2.47,2.47,0,0,0,1-.22l3.23-1.42c7.61-3.36,15.78-6.84,24.33-10.38a2.5,2.5,0,0,0-.93-4.81,2.83,2.83,0,0,0-.65.09l-.33.1c-6.13,2.54-12.08,5.05-17.76,7.5-3.4,1.48-6.72,2.93-9.92,4.36a2.5,2.5,0,0,0,1,4.78Z"/><path class="cls-2" d="M610.3,234.14a2.52,2.52,0,0,0,1.29-.36c7.33-4.42,16.16-9.2,26.25-14.21a2.5,2.5,0,1,0-2.22-4.48C625.4,220.16,616.45,225,609,229.5a2.5,2.5,0,0,0,1.29,4.64Z"/><path class="cls-2" d="M863.33,130.2a2.49,2.49,0,0,0-3.16-1.59c-9.55,3.16-19.14,6.39-28.51,9.58a2.5,2.5,0,0,0,.8,4.87,2.56,2.56,0,0,0,.81-.14c9.36-3.18,18.94-6.4,28.48-9.57A2.48,2.48,0,0,0,863.33,130.2Z"/><path class="cls-2" d="M561.17,270.1a2.49,2.49,0,0,0,1.83.79,2.46,2.46,0,0,0,1.71-.68c7.31-6.89,14.9-13.42,22.55-19.42a2.5,2.5,0,1,0-3.08-3.93c-7.77,6.09-15.47,12.72-22.9,19.71a2.5,2.5,0,0,0-.41,3.13A2.32,2.32,0,0,0,561.17,270.1Z"/><path class="cls-2" d="M507.05,335.46a2.38,2.38,0,0,0-1.4-.39,2.48,2.48,0,0,0-2,1.15c-5.48,8.56-10.59,17.35-15.19,26.12a2.5,2.5,0,0,0,2.21,3.66,2.51,2.51,0,0,0,2.22-1.34c4.53-8.64,9.57-17.3,15-25.75A2.49,2.49,0,0,0,507.05,335.46Z"/><path class="cls-2" d="M521.4,315a2.44,2.44,0,0,0,1.51.51,2.51,2.51,0,0,0,2-1c6-7.89,12.4-15.62,19-23a2.5,2.5,0,1,0-3.72-3.34c-6.68,7.44-13.16,15.27-19.26,23.27A2.5,2.5,0,0,0,521.4,315Z"/><path class="cls-2" d="M1266.59,656.39l-18.13,7.52a2.5,2.5,0,1,0,1.92,4.61l18.1-7.5-.16,17.37,33.47-33.9-47.64-.32Z"/></g></svg>