<?xml version="1.0" encoding="utf-8"?>
<!-- Generator: Adobe Illustrator 24.0.1, SVG Export Plug-In . SVG Version: 6.00 Build 0)  -->
<svg version="1.1" id="Oval_-_Pit_Road" xmlns="http://www.w3.org/2000/svg" xmlns:xlink="http://www.w3.org/1999/xlink" x="0px"
	 y="0px" viewBox="0 0 1920 1080" style="enable-background:new 0 0 1920 1080;" xml:space="preserve">
<style type="text/css">
	.st0{fill:#016699;}
	.st1{fill:#D82520;}
</style>
<title>pitroad</title>
<g id="Mergeline">
	<path class="st0" d="M1337.6,93.8l-29.8-3.4c-2.7-0.3-5.2,1.7-5.5,4.4c-0.3,2.7,1.7,5.2,4.4,5.5l29.8,3.4c0.2,0,0.4,0,0.6,0
		c2.5,0,4.7-1.9,5-4.4C1342.3,96.6,1340.4,94.2,1337.6,93.8z"/>
	<path class="st0" d="M1278,87l-29.8-3.4c-1.1-0.1-2.2,0.1-3.1,0.7l3.3-28.3l-9.9-1.1l-7.4,64.6l9.9,1.1l3.3-28.4
		c0.8,0.7,1.7,1.2,2.9,1.4l29.8,3.4c0.2,0,0.4,0,0.6,0c2.5,0,4.7-1.9,5-4.4C1282.7,89.8,1280.7,87.3,1278,87z"/>
	<path class="st0" d="M1397.3,101.6c-9.7-1.6-19.8-3.1-29.9-4.3c-2.7-0.3-5.2,1.6-5.6,4.4c-0.3,2.7,1.6,5.2,4.4,5.6
		c10,1.2,19.9,2.6,29.4,4.2c0.3,0,0.6,0.1,0.8,0.1c2.4,0,4.5-1.7,4.9-4.2C1401.9,104.6,1400.1,102.1,1397.3,101.6z"/>
	<path class="st0" d="M1456.3,114.7c-9.5-2.7-19.4-5.2-29.3-7.4c-2.7-0.6-5.4,1.1-6,3.8c-0.6,2.7,1.1,5.4,3.8,6
		c9.8,2.2,19.4,4.6,28.8,7.2c0.5,0.1,0.9,0.2,1.4,0.2c2.2,0,4.2-1.4,4.8-3.6C1460.5,118.3,1459,115.5,1456.3,114.7z"/>
	<path class="st0" d="M1511.4,144.4c1.9,0,3.8-1.1,4.6-3c1.1-2.5-0.1-5.5-2.6-6.6c-9.1-3.9-18.6-7.6-28.2-11
		c-2.6-0.9-5.5,0.5-6.4,3.1s0.5,5.5,3.1,6.4c9.4,3.3,18.7,6.9,27.6,10.7C1510.1,144.3,1510.8,144.4,1511.4,144.4z"/>
	<path class="st0" d="M1681.6,299.1c0.9,1.7,2.6,2.7,4.4,2.7c0.8,0,1.6-0.2,2.3-0.6c2.4-1.3,3.4-4.3,2.1-6.8
		c-4.7-9-9.9-17.8-15.4-26.3c-1.5-2.3-4.6-3-6.9-1.5c-2.3,1.5-3,4.6-1.5,6.9C1672,281.8,1677,290.4,1681.6,299.1z"/>
	<path class="st0" d="M1721.8,440.5c0.2,4.5,0.3,7.4,0.3,8.5l0,0.6l0,0.2c0.5,6.9,0.9,13.8,1,20.5c0,2.7,2.3,4.9,5,4.9
		c0,0,0.1,0,0.1,0c2.8-0.1,5-2.3,4.9-5.1c-0.1-6.9-0.5-13.9-1-20.9l0-0.3c0-1.1,0-4.3-0.3-9c-0.2-2.8-2.5-4.9-5.3-4.7
		C1723.8,435.4,1721.6,437.8,1721.8,440.5z"/>
	<path class="st0" d="M1712.8,382c2.3,9.7,4.3,19.4,5.8,29.1c0.4,2.5,2.5,4.2,4.9,4.2c0.3,0,0.5,0,0.8-0.1c2.7-0.4,4.6-3,4.2-5.7
		c-1.5-9.9-3.5-20-5.9-29.9c-0.6-2.7-3.4-4.3-6-3.7C1713.8,376.6,1712.2,379.3,1712.8,382z"/>
	<path class="st0" d="M1704.7,353.5c0.7,2.1,2.6,3.4,4.7,3.4c0.5,0,1-0.1,1.6-0.3c2.6-0.9,4-3.7,3.2-6.3
		c-3.2-9.6-6.8-19.2-10.7-28.5c-1.1-2.5-4-3.7-6.6-2.7c-2.5,1.1-3.7,4-2.7,6.6C1698.1,334.8,1701.6,344.2,1704.7,353.5z"/>
	<path class="st0" d="M1564.5,172c1.7,0,3.3-0.8,4.2-2.4c1.5-2.3,0.7-5.4-1.6-6.9c-8.5-5.3-17.3-10.3-26.4-15
		c-2.5-1.3-5.5-0.3-6.7,2.1c-1.3,2.5-0.3,5.5,2.1,6.7c8.8,4.6,17.4,9.5,25.7,14.6C1562.7,171.8,1563.6,172,1564.5,172z"/>
	<path class="st0" d="M1667.5,662.1c-2.2-1.7-5.3-1.2-7,1c-5.8,7.8-12.1,15.5-18.8,22.9c-1.8,2.1-1.7,5.2,0.4,7.1
		c1,0.9,2.1,1.3,3.3,1.3c1.4,0,2.7-0.6,3.7-1.7c6.8-7.6,13.3-15.5,19.3-23.5C1670.2,666.9,1669.7,663.8,1667.5,662.1z"/>
	<path class="st0" d="M1718.6,554.4c-2.7-0.7-5.4,0.9-6.1,3.5c-2.6,9.4-5.6,18.9-9.1,28c-1,2.6,0.3,5.5,2.9,6.5
		c0.6,0.2,1.2,0.3,1.8,0.3c2,0,3.9-1.2,4.7-3.2c3.6-9.5,6.8-19.2,9.4-29C1722.9,557.9,1721.3,555.2,1718.6,554.4z"/>
	<path class="st0" d="M1698.3,610.7c-2.5-1.2-5.5-0.2-6.7,2.3c-4.3,8.7-9.2,17.4-14.4,25.8c-1.5,2.3-0.7,5.4,1.6,6.9
		c0.8,0.5,1.7,0.8,2.6,0.8c1.7,0,3.3-0.8,4.3-2.4c5.4-8.7,10.4-17.6,14.8-26.6C1701.8,614.9,1700.8,611.9,1698.3,610.7z"/>
	<path class="st0" d="M1727.6,495.3c-2.8-0.2-5.1,1.9-5.3,4.6c-0.7,9.8-1.9,19.7-3.5,29.3c-0.5,2.7,1.4,5.3,4.1,5.8
		c0.3,0,0.6,0.1,0.8,0.1c2.4,0,4.5-1.7,4.9-4.2c1.7-9.9,2.9-20.1,3.6-30.2C1732.5,497.9,1730.4,495.5,1727.6,495.3z"/>
	<path class="st0" d="M1621.2,707.3c-7,6.7-14.5,13.4-22.1,19.7c-2.1,1.8-2.4,4.9-0.7,7c1,1.2,2.4,1.8,3.9,1.8
		c1.1,0,2.3-0.4,3.2-1.2c7.9-6.5,15.5-13.3,22.7-20.2c2-1.9,2.1-5.1,0.1-7.1C1626.3,705.4,1623.2,705.4,1621.2,707.3z"/>
	<path class="st0" d="M1653.5,251.5c1.1,0,2.2-0.3,3.1-1.1c2.2-1.7,2.6-4.8,0.9-7c-6.2-8-12.9-15.7-19.8-23.1
		c-1.9-2-5.1-2.1-7.1-0.2c-2,1.9-2.1,5.1-0.2,7.1c6.7,7.1,13.2,14.7,19.2,22.4C1650.5,250.8,1652,251.5,1653.5,251.5z"/>
	<path class="st0" d="M1612.5,207.8c1.4,0,2.7-0.6,3.7-1.7c1.8-2.1,1.7-5.2-0.4-7.1c-7.5-6.7-15.4-13.1-23.6-19.2
		c-2.2-1.7-5.3-1.2-7,1c-1.7,2.2-1.2,5.3,1,7c7.9,5.9,15.6,12.2,22.9,18.6C1610.1,207.4,1611.3,207.8,1612.5,207.8z"/>
	<path class="st0" d="M1575.5,745.2c-8,5.7-16.3,11.3-24.7,16.5c-2.3,1.5-3.1,4.5-1.6,6.9c0.9,1.5,2.6,2.4,4.2,2.4
		c0.9,0,1.8-0.2,2.6-0.8c8.6-5.3,17.1-11,25.2-16.9c2.2-1.6,2.8-4.7,1.1-7C1580.9,744.1,1577.8,743.5,1575.5,745.2z"/>
	<path class="st0" d="M1525.1,776.6c-16.1,8.6-26.6,12.7-26.7,12.8c-2.6,1-3.8,3.9-2.8,6.5c0.8,2,2.7,3.2,4.7,3.2
		c0.6,0,1.2-0.1,1.8-0.4c0.4-0.2,11-4.4,27.7-13.3c2.4-1.3,3.4-4.3,2.1-6.8C1530.6,776.2,1527.5,775.3,1525.1,776.6z"/>
</g>
<g id="Pitroad">
	<path class="st1" d="M408.6,786.2c-17.6-6-27.9-10.4-28-10.5c-1.3-0.5-2.7,0-3.3,1.3c-0.5,1.3,0,2.7,1.3,3.3
		c0.1,0,10.6,4.5,28.3,10.6c0.3,0.1,0.5,0.1,0.8,0.1c1,0,2-0.7,2.4-1.7C410.6,788,409.9,786.6,408.6,786.2z"/>
	<path class="st1" d="M824,819.3l-30-0.1c0,0,0,0,0,0c-1.4,0-2.5,1.1-2.5,2.5c0,1.4,1.1,2.5,2.5,2.5l30,0.1c0,0,0,0,0,0
		c1.4,0,2.5-1.1,2.5-2.5C826.5,820.5,825.4,819.3,824,819.3z"/>
	<path class="st1" d="M944,819.6l-30-0.1c0,0,0,0,0,0c-1.4,0-2.5,1.1-2.5,2.5c0,1.4,1.1,2.5,2.5,2.5l30,0.1c0,0,0,0,0,0
		c1.4,0,2.5-1.1,2.5-2.5C946.5,820.7,945.4,819.6,944,819.6z"/>
	<path class="st1" d="M884,819.5l-30-0.1c0,0,0,0,0,0c-1.4,0-2.5,1.1-2.5,2.5c0,1.4,1.1,2.5,2.5,2.5l30,0.1c0,0,0,0,0,0
		c1.4,0,2.5-1.1,2.5-2.5C886.5,820.6,885.4,819.5,884,819.5z"/>
	<path class="st1" d="M764,819.2l-30-0.1c0,0,0,0,0,0c-1.4,0-2.5,1.1-2.5,2.5c0,1.4,1.1,2.5,2.5,2.5l30,0.1c0,0,0,0,0,0
		c1.4,0,2.5-1.1,2.5-2.5C766.5,820.3,765.4,819.2,764,819.2z"/>
	<path class="st1" d="M466,802.9c-9.7-2.4-19.4-5-28.9-7.7c-1.3-0.4-2.7,0.4-3.1,1.7c-0.4,1.3,0.4,2.7,1.7,3.1
		c9.6,2.8,19.4,5.4,29.1,7.8c0.2,0,0.4,0.1,0.6,0.1c1.1,0,2.1-0.8,2.4-1.9C468.2,804.6,467.4,803.2,466,802.9z"/>
	<path class="st1" d="M524.7,814.5c-9.7-1.5-19.6-3.2-29.4-5.2c-1.4-0.3-2.7,0.6-2.9,2c-0.3,1.4,0.6,2.7,2,2.9
		c9.9,2,19.9,3.7,29.7,5.2c0.1,0,0.3,0,0.4,0c1.2,0,2.3-0.9,2.5-2.1C527,816,526,814.8,524.7,814.5z"/>
	<path class="st1" d="M644,818.9l-30-0.1c0,0,0,0,0,0c-1.4,0-2.5,1.1-2.5,2.5c0,1.4,1.1,2.5,2.5,2.5l30,0.1c0,0,0,0,0,0
		c1.4,0,2.5-1.1,2.5-2.5C646.5,820.1,645.4,818.9,644,818.9z"/>
	<path class="st1" d="M584,818.8l-25.2-0.1c-1.5-0.1-3-0.3-4.5-0.4c-1.4-0.1-2.6,0.9-2.7,2.2c-0.1,1.4,0.9,2.6,2.2,2.7
		c1.5,0.2,3.1,0.3,4.6,0.5l25.6,0.1c0,0,0,0,0,0c1.4,0,2.5-1.1,2.5-2.5C586.5,819.9,585.4,818.8,584,818.8z"/>
	<path class="st1" d="M704,819.1l-30-0.1c0,0,0,0,0,0c-1.4,0-2.5,1.1-2.5,2.5c0,1.4,1.1,2.5,2.5,2.5l30,0.1c0,0,0,0,0,0
		c1.4,0,2.5-1.1,2.5-2.5C706.5,820.2,705.4,819.1,704,819.1z"/>
	<path class="st1" d="M1364,820.5l-30-0.1c0,0,0,0,0,0c-1.4,0-2.5,1.1-2.5,2.5c0,1.4,1.1,2.5,2.5,2.5l30,0.1c0,0,0,0,0,0
		c1.4,0,2.5-1.1,2.5-2.5C1366.5,821.6,1365.4,820.5,1364,820.5z"/>
	<path class="st1" d="M1304,820.4l-30-0.1c0,0,0,0,0,0c-1.4,0-2.5,1.1-2.5,2.5c0,1.4,1.1,2.5,2.5,2.5l30,0.1c0,0,0,0,0,0
		c1.4,0,2.5-1.1,2.5-2.5C1306.5,821.5,1305.4,820.4,1304,820.4z"/>
	<path class="st1" d="M1244,820.2l-30-0.1c0,0,0,0,0,0c-1.4,0-2.5,1.1-2.5,2.5c0,1.4,1.1,2.5,2.5,2.5l30,0.1c0,0,0,0,0,0
		c1.4,0,2.5-1.1,2.5-2.5S1245.4,820.2,1244,820.2z"/>
	<path class="st1" d="M1423,813.6c-10,2.1-19.9,3.8-29.4,5.2c-1.4,0.2-2.3,1.5-2.1,2.8c0.2,1.2,1.2,2.1,2.5,2.1c0.1,0,0.2,0,0.4,0
		c9.6-1.4,19.6-3.2,29.7-5.2c1.4-0.3,2.2-1.6,1.9-3C1425.7,814.2,1424.3,813.3,1423,813.6z"/>
	<path class="st1" d="M1064,819.8l-30-0.1c0,0,0,0,0,0c-1.4,0-2.5,1.1-2.5,2.5c0,1.4,1.1,2.5,2.5,2.5l30,0.1c0,0,0,0,0,0
		c1.4,0,2.5-1.1,2.5-2.5C1066.5,821,1065.4,819.9,1064,819.8z"/>
	<path class="st1" d="M1004,819.7l-30-0.1c0,0,0,0,0,0c-1.4,0-2.5,1.1-2.5,2.5s1.1,2.5,2.5,2.5l30,0.1c0,0,0,0,0,0
		c1.4,0,2.5-1.1,2.5-2.5S1005.4,819.7,1004,819.7z"/>
	<path class="st1" d="M1184,820.1l-30-0.1c0,0,0,0,0,0c-1.4,0-2.5,1.1-2.5,2.5c0,1.4,1.1,2.5,2.5,2.5l30,0.1c0,0,0,0,0,0
		c1.4,0,2.5-1.1,2.5-2.5C1186.5,821.2,1185.4,820.1,1184,820.1z"/>
	<path class="st1" d="M1124,820l-30-0.1c0,0,0,0,0,0c-1.4,0-2.5,1.1-2.5,2.5c0,1.4,1.1,2.5,2.5,2.5l30,0.1c0,0,0,0,0,0
		c1.4,0,2.5-1.1,2.5-2.5C1126.5,821.1,1125.4,820,1124,820z"/>
	<path class="st1" d="M1500.3,794l-47.5-3.7l11.5,13c-4,1.2-8.1,2.3-12.2,3.4c-1.3,0.4-2.1,1.7-1.8,3.1c0.3,1.1,1.3,1.9,2.4,1.9
		c0.2,0,0.4,0,0.6-0.1c4.2-1.1,8.4-2.3,12.5-3.5l-1.4,17.3L1500.3,794z"/>
</g>
</svg>
