<?xml version="1.0" encoding="utf-8"?>
<!-- Generator: Adobe Illustrator 24.0.1, SVG Export Plug-In . SVG Version: 6.00 Build 0)  -->
<svg version="1.1" id="Chicagoland_Pit_Road" xmlns="http://www.w3.org/2000/svg" xmlns:xlink="http://www.w3.org/1999/xlink"
	 x="0px" y="0px" viewBox="0 0 1920 1080" style="enable-background:new 0 0 1920 1080;" xml:space="preserve">
<style type="text/css">
	.st0{fill:#0089BA;}
	.st1{fill:#D82520;}
</style>
<title>pitroad</title>
<g id="Mergeline">
	<path class="st0" d="M1435.1,82.4c0.6,0.2,1.2,0.3,1.8,0.3c2,0,3.9-1.2,4.7-3.2c1-2.6-0.2-5.5-2.8-6.5c-2.1-0.8-4.3-1.7-6.5-2.5
		l9.9-25.5l-9.3-3.6l-11.4,29.4c-0.2,0.3-0.3,0.6-0.4,0.9c-0.1,0.3-0.2,0.5-0.2,0.8l-11.5,29.5l9.3,3.6l10-25.7
		C1430.8,80.7,1432.9,81.6,1435.1,82.4z"/>
	<path class="st0" d="M1459.5,817c-14.4,3-23.7,4.1-25.1,4.3l-3.8,0.1c-2.8,0.1-4.9,2.4-4.9,5.1c0.1,2.7,2.3,4.9,5,4.9
		c0,0,0.1,0,0.1,0l4-0.1l0.4,0c0.4,0,10.2-1.1,26.3-4.5c2.7-0.6,4.4-3.2,3.9-5.9S1462.3,816.5,1459.5,817z"/>
	<path class="st0" d="M1516.7,800.8c-9.3,3.3-18.8,6.4-28.3,9.1c-2.7,0.8-4.2,3.5-3.4,6.2c0.6,2.2,2.6,3.6,4.8,3.6
		c0.5,0,0.9-0.1,1.4-0.2c9.7-2.8,19.4-5.9,28.9-9.3c2.6-0.9,4-3.8,3-6.4C1522.2,801.2,1519.3,799.9,1516.7,800.8z"/>
	<path class="st0" d="M1571.1,777c-8.6,4.5-17.6,8.8-26.8,12.8c-2.5,1.1-3.7,4.1-2.6,6.6c0.8,1.9,2.7,3,4.6,3c0.7,0,1.3-0.1,2-0.4
		c9.3-4.1,18.6-8.5,27.4-13.1c2.4-1.3,3.4-4.3,2.1-6.8C1576.5,776.7,1573.5,775.7,1571.1,777z"/>
	<path class="st0" d="M1400.8,822.3c0,0-0.1,0-0.1,0l-30,0.8c-2.8,0.1-4.9,2.4-4.9,5.1c0.1,2.7,2.3,4.9,5,4.9c0,0,0.1,0,0.1,0
		l30-0.8c2.8-0.1,4.9-2.4,4.9-5.1C1405.7,824.4,1403.5,822.3,1400.8,822.3z"/>
	<path class="st0" d="M1747.2,375c2.3,9.5,4.1,19.3,5.4,29c0.3,2.5,2.5,4.3,4.9,4.3c0.2,0,0.5,0,0.7,0c2.7-0.4,4.7-2.9,4.3-5.6
		c-1.4-10-3.3-20.1-5.6-30c-0.6-2.7-3.3-4.3-6-3.7C1748.2,369.6,1746.5,372.3,1747.2,375z"/>
	<path class="st0" d="M1738.9,346.7c0.7,2.1,2.7,3.4,4.7,3.4c0.5,0,1.1-0.1,1.6-0.3c2.6-0.9,4-3.8,3.1-6.4
		c-3.3-9.5-7.1-19-11.4-28.3c-1.2-2.5-4.1-3.6-6.6-2.5c-2.5,1.2-3.6,4.1-2.5,6.6C1732,328.3,1735.7,337.5,1738.9,346.7z"/>
	<path class="st0" d="M1516.5,119.2c8.9,4.6,17.7,9.4,26.2,14.2c0.8,0.4,1.6,0.7,2.5,0.7c1.7,0,3.4-0.9,4.3-2.5
		c1.4-2.4,0.5-5.5-1.9-6.8c-8.6-4.9-17.5-9.7-26.5-14.4c-2.5-1.3-5.5-0.3-6.7,2.1C1513.1,114.9,1514.1,117.9,1516.5,119.2z"/>
	<path class="st0" d="M1599.9,164.1c1.6-2.3,1.1-5.4-1.2-7c-8.1-5.7-16.5-11.3-25.1-16.8c-2.3-1.5-5.4-0.8-6.9,1.6
		c-1.5,2.3-0.8,5.4,1.6,6.9c8.5,5.4,16.8,10.9,24.7,16.5c0.9,0.6,1.9,0.9,2.9,0.9C1597.4,166.2,1598.9,165.5,1599.9,164.1z"/>
	<path class="st0" d="M1462.6,93.8c9.2,4,18.4,8.1,27.2,12.2c0.7,0.3,1.4,0.5,2.1,0.5c1.9,0,3.7-1.1,4.5-2.9
		c1.2-2.5,0.1-5.5-2.4-6.7c-8.9-4.2-18.2-8.4-27.5-12.4c-2.5-1.1-5.5,0.1-6.6,2.6C1458.9,89.8,1460.1,92.7,1462.6,93.8z"/>
	<path class="st0" d="M1752,547.5c-2.7-0.6-5.4,1.1-6,3.8c-2.1,9.7-4.7,19.3-7.5,28.6c-0.8,2.6,0.7,5.4,3.3,6.2
		c0.5,0.1,1,0.2,1.5,0.2c2.1,0,4.1-1.4,4.8-3.5c2.9-9.5,5.5-19.4,7.7-29.3C1756.4,550.7,1754.7,548,1752,547.5z"/>
	<path class="st0" d="M1721.2,294.9c2.4-1.4,3.2-4.4,1.8-6.8c-5-8.7-10.5-17.3-16.4-25.6c-1.6-2.3-4.7-2.8-7-1.2
		c-2.3,1.6-2.8,4.7-1.2,7c5.7,8.1,11,16.5,15.9,24.9c0.9,1.6,2.6,2.5,4.3,2.5C1719.6,295.6,1720.4,295.4,1721.2,294.9z"/>
	<path class="st0" d="M1735.2,604.9c-2.6-1-5.5,0.2-6.5,2.8c-3.7,9.1-7.8,18.1-12.3,26.8c-1.3,2.5-0.3,5.5,2.2,6.7
		c0.7,0.4,1.5,0.6,2.3,0.6c1.8,0,3.6-1,4.4-2.7c4.6-8.9,8.9-18.2,12.7-27.6C1739,608.8,1737.7,605.9,1735.2,604.9z"/>
	<path class="st0" d="M1765.2,433c-0.1-2.8-2.5-4.9-5.2-4.8c-2.8,0.1-4.9,2.5-4.8,5.2c0.4,8,0.5,16,0.5,23.9c0,2,0,3.9,0,5.9
		c0,2.8,2.2,5,4.9,5.1c0,0,0,0,0.1,0c2.7,0,5-2.2,5-4.9c0-2,0-4,0-6C1765.7,449.3,1765.5,441.1,1765.2,433z"/>
	<path class="st0" d="M1621.3,745.6c-7.8,5.8-16,11.4-24.5,16.7c-2.3,1.5-3.1,4.5-1.6,6.9c0.9,1.5,2.6,2.4,4.2,2.4
		c0.9,0,1.8-0.2,2.6-0.8c8.6-5.4,17.1-11.2,25.1-17.1c2.2-1.6,2.7-4.8,1-7C1626.6,744.4,1623.5,743.9,1621.3,745.6z"/>
	<path class="st0" d="M1759.8,488.1c-2.8-0.2-5.2,1.9-5.4,4.6c-0.7,10-1.8,19.9-3.2,29.4c-0.4,2.7,1.5,5.3,4.2,5.7
		c0.2,0,0.5,0.1,0.7,0.1c2.4,0,4.6-1.8,4.9-4.3c1.4-9.8,2.5-19.9,3.2-30.1C1764.6,490.7,1762.6,488.3,1759.8,488.1z"/>
	<path class="st0" d="M1708.6,658.5c-2.3-1.5-5.4-0.8-6.9,1.5c-5.3,8.2-11,16.3-17,24.1c-1.7,2.2-1.3,5.3,0.9,7
		c0.9,0.7,2,1.1,3.1,1.1c1.5,0,3-0.7,3.9-1.9c6.2-8,12.1-16.3,17.6-24.8C1711.6,663,1710.9,659.9,1708.6,658.5z"/>
	<path class="st0" d="M1646.4,201.8c1.8-2.1,1.7-5.2-0.4-7.1c-7.4-6.6-15.1-13.2-23.1-19.5c-2.2-1.7-5.3-1.4-7,0.8
		c-1.7,2.2-1.4,5.3,0.8,7c7.8,6.2,15.5,12.7,22.7,19.1c1,0.9,2.2,1.3,3.3,1.3C1644.1,203.5,1645.4,202.9,1646.4,201.8z"/>
	<path class="st0" d="M1665.4,706.4c-6.7,7.1-13.8,14-21.2,20.5c-2.1,1.8-2.3,5-0.4,7.1c1,1.1,2.4,1.7,3.7,1.7
		c1.2,0,2.4-0.4,3.3-1.3c7.6-6.8,15-13.9,21.9-21.2c1.9-2,1.8-5.2-0.2-7.1C1670.5,704.3,1667.3,704.4,1665.4,706.4z"/>
	<path class="st0" d="M1687.6,245.4c2.1-1.8,2.4-4.9,0.6-7c-6.4-7.6-13.2-15.2-20.3-22.6c-1.9-2-5.1-2-7.1-0.1c-2,1.9-2,5.1-0.1,7.1
		c6.9,7.2,13.6,14.6,19.8,22c1,1.2,2.4,1.8,3.8,1.8C1685.5,246.6,1686.6,246.2,1687.6,245.4z"/>
</g>
<g id="Pitroad">
	<path class="st1" d="M680.9,828C680.9,828,680.9,828,680.9,828l-30,0.1c-1.4,0-2.5,1.1-2.5,2.5c0,1.4,1.1,2.5,2.5,2.5c0,0,0,0,0,0
		l30-0.1c1.4,0,2.5-1.1,2.5-2.5C683.4,829.1,682.3,828,680.9,828z"/>
	<path class="st1" d="M620.9,828.2C620.9,828.2,620.9,828.2,620.9,828.2l-28.8,0.1l-1.2,0c0,0,0,0,0,0c-1.4,0-2.5,1.1-2.5,2.5
		c0,1.4,1.1,2.5,2.5,2.5l1.2,0l28.8-0.1c1.4,0,2.5-1.1,2.5-2.5C623.4,829.3,622.3,828.2,620.9,828.2z"/>
	<path class="st1" d="M740.9,827.8C740.9,827.8,740.9,827.8,740.9,827.8l-30,0.1c-1.4,0-2.5,1.1-2.5,2.5c0,1.4,1.1,2.5,2.5,2.5
		c0,0,0,0,0,0l30-0.1c1.4,0,2.5-1.1,2.5-2.5C743.4,828.9,742.3,827.8,740.9,827.8z"/>
	<path class="st1" d="M800.9,827.6C800.9,827.6,800.9,827.6,800.9,827.6l-30,0.1c-1.4,0-2.5,1.1-2.5,2.5c0,1.4,1.1,2.5,2.5,2.5
		c0,0,0,0,0,0l30-0.1c1.4,0,2.5-1.1,2.5-2.5C803.4,828.7,802.3,827.6,800.9,827.6z"/>
	<path class="st1" d="M561.1,827.4c-9.9-0.5-20-1.2-29.8-2.1c-1.4-0.1-2.6,0.9-2.7,2.3c-0.1,1.4,0.9,2.6,2.3,2.7
		c9.9,0.9,20,1.6,30,2.1c0,0,0.1,0,0.1,0c1.3,0,2.4-1,2.5-2.4C563.5,828.7,562.4,827.5,561.1,827.4z"/>
	<path class="st1" d="M501.5,822c-9.9-1.3-19.9-2.9-29.5-4.6c-1.4-0.2-2.7,0.7-2.9,2c-0.2,1.4,0.7,2.7,2,2.9
		c9.8,1.7,19.8,3.3,29.8,4.6c0.1,0,0.2,0,0.3,0c1.2,0,2.3-0.9,2.5-2.2C503.9,823.4,502.9,822.2,501.5,822z"/>
	<path class="st1" d="M385.2,795.2c-4.5-1.6-7.6-2.8-9.3-3.5v-0.1l-1.7-0.6c-0.1,0-6.5-2.1-16.8-6.6c-1.3-0.6-2.7,0-3.3,1.3
		c-0.6,1.3,0,2.7,1.3,3.3c10.6,4.6,17,6.7,17.3,6.8l0,0c0.6,0.3,1.5,0.6,2.6,1.1c1.7,0.7,4.5,1.7,8.2,3c0.3,0.1,0.6,0.1,0.8,0.1
		c1,0,2-0.6,2.4-1.7C387.2,797.1,386.5,795.7,385.2,795.2z"/>
	<path class="st1" d="M442.7,811.5c-9.9-2.2-19.7-4.7-29-7.3c-1.3-0.4-2.7,0.4-3.1,1.7c-0.4,1.3,0.4,2.7,1.7,3.1
		c9.4,2.6,19.2,5.1,29.2,7.4c0.2,0,0.4,0.1,0.6,0.1c1.1,0,2.2-0.8,2.4-1.9C444.9,813.1,444,811.8,442.7,811.5z"/>
	<path class="st1" d="M330.7,771.2c-8.7-4.8-17.2-10.1-25.4-15.6c-1.1-0.8-2.7-0.5-3.5,0.7c-0.8,1.1-0.5,2.7,0.7,3.5
		c8.3,5.6,16.9,11,25.7,15.9c0.4,0.2,0.8,0.3,1.2,0.3c0.9,0,1.7-0.5,2.2-1.3C332.4,773.4,331.9,771.9,330.7,771.2z"/>
	<path class="st1" d="M1220.9,826.1C1220.9,826.1,1220.9,826.1,1220.9,826.1l-30,0.1c-1.4,0-2.5,1.1-2.5,2.5c0,1.4,1.1,2.5,2.5,2.5
		c0,0,0,0,0,0l30-0.1c1.4,0,2.5-1.1,2.5-2.5C1223.4,827.2,1222.3,826.1,1220.9,826.1z"/>
	<path class="st1" d="M1160.9,826.3C1160.9,826.3,1160.9,826.3,1160.9,826.3l-30,0.1c-1.4,0-2.5,1.1-2.5,2.5c0,1.4,1.1,2.5,2.5,2.5
		c0,0,0,0,0,0l30-0.1c1.4,0,2.5-1.1,2.5-2.5C1163.4,827.4,1162.3,826.3,1160.9,826.3z"/>
	<path class="st1" d="M860.9,827.4C860.9,827.4,860.9,827.4,860.9,827.4l-30,0.1c-1.4,0-2.5,1.1-2.5,2.5c0,1.4,1.1,2.5,2.5,2.5
		c0,0,0,0,0,0l30-0.1c1.4,0,2.5-1.1,2.5-2.5C863.4,828.5,862.3,827.4,860.9,827.4z"/>
	<path class="st1" d="M1100.9,826.5C1100.9,826.5,1100.9,826.5,1100.9,826.5l-30,0.1c-1.4,0-2.5,1.1-2.5,2.5c0,1.4,1.1,2.5,2.5,2.5
		c0,0,0,0,0,0l30-0.1c1.4,0,2.5-1.1,2.5-2.5C1103.4,827.6,1102.3,826.5,1100.9,826.5z"/>
	<path class="st1" d="M1280.9,825.9C1280.9,825.9,1280.9,825.9,1280.9,825.9l-30,0.1c-1.4,0-2.5,1.1-2.5,2.5c0,1.4,1.1,2.5,2.5,2.5
		c0,0,0,0,0,0l30-0.1c1.4,0,2.5-1.1,2.5-2.5C1283.4,827,1282.3,825.9,1280.9,825.9z"/>
	<path class="st1" d="M920.9,827.2l-30,0.1c-1.4,0-2.5,1.1-2.5,2.5c0,1.4,1.1,2.5,2.5,2.5c0,0,0,0,0,0l30-0.1c1.4,0,2.5-1.1,2.5-2.5
		S922.3,827.1,920.9,827.2z"/>
	<path class="st1" d="M1040.9,826.7C1040.9,826.7,1040.9,826.7,1040.9,826.7l-30,0.1c-1.4,0-2.5,1.1-2.5,2.5c0,1.4,1.1,2.5,2.5,2.5
		c0,0,0,0,0,0l30-0.1c1.4,0,2.5-1.1,2.5-2.5C1043.4,827.9,1042.3,826.7,1040.9,826.7z"/>
	<path class="st1" d="M980.9,826.9C980.9,826.9,980.9,826.9,980.9,826.9l-30,0.1c-1.4,0-2.5,1.1-2.5,2.5c0,1.4,1.1,2.5,2.5,2.5
		c0,0,0,0,0,0l30-0.1c1.4,0,2.5-1.1,2.5-2.5C983.4,828.1,982.3,826.9,980.9,826.9z"/>
	<path class="st1" d="M1370.8,828.1l-44-18.4l6.9,16l-22.8,0.1c-1.4,0-2.5,1.1-2.5,2.5c0,1.4,1.1,2.5,2.5,2.5c0,0,0,0,0,0l22.8-0.1
		l-6.7,16L1370.8,828.1z"/>
</g>
</svg>
