<?xml version="1.0" encoding="utf-8"?>
<!-- Generator: Adobe Illustrator 24.0.1, SVG Export Plug-In . SVG Version: 6.00 Build 0)  -->
<svg version="1.1" id="Michigan_2009_-_Pit_Road" xmlns="http://www.w3.org/2000/svg" xmlns:xlink="http://www.w3.org/1999/xlink"
	 x="0px" y="0px" viewBox="0 0 1920 1080" style="enable-background:new 0 0 1920 1080;" xml:space="preserve">
<style type="text/css">
	.st0{fill:#016699;}
	.st1{fill:#D82520;}
</style>
<title>pitroad</title>
<g id="Mergeline">
	<path class="st0" d="M1395.8,166.5c-9.6-1.7-19.6-3.3-29.7-4.9c-2.7-0.4-5.3,1.5-5.7,4.2c-0.4,2.7,1.5,5.3,4.2,5.7
		c10.1,1.5,20,3.2,29.5,4.8c0.3,0.1,0.6,0.1,0.9,0.1c2.4,0,4.5-1.7,4.9-4.1C1400.4,169.6,1398.5,167,1395.8,166.5z"/>
	<path class="st0" d="M1454.9,178.3c-5.1-1.1-10.3-2.1-15.5-3.1c-0.9-0.2-5.6-1.3-13.9-3.1c-2.7-0.6-5.3,1.2-5.9,3.9
		c-0.6,2.7,1.2,5.4,3.9,5.9c8.9,1.8,13.7,3,13.7,3l0.3,0.1c5.2,0.9,10.3,2,15.3,3c0.4,0.1,0.7,0.1,1,0.1c2.3,0,4.4-1.6,4.9-4
		C1459.3,181.5,1457.6,178.9,1454.9,178.3z"/>
	<path class="st0" d="M1513.2,194.6c-9.3-3.3-19-6.3-28.9-9.1c-2.7-0.7-5.4,0.8-6.2,3.5s0.8,5.4,3.5,6.2c9.6,2.7,19.2,5.7,28.2,8.9
		c0.6,0.2,1.1,0.3,1.7,0.3c2.1,0,4-1.3,4.7-3.3C1517.1,198.3,1515.8,195.5,1513.2,194.6z"/>
	<path class="st0" d="M1501.2,758.9c-8.9,3.8-18.2,7.4-27.7,10.6c-2.6,0.9-4,3.7-3.1,6.4c0.7,2.1,2.7,3.4,4.7,3.4
		c0.5,0,1.1-0.1,1.6-0.3c9.7-3.3,19.2-7,28.3-10.9c2.5-1.1,3.7-4,2.6-6.6C1506.6,759,1503.7,757.8,1501.2,758.9z"/>
	<path class="st0" d="M1553.3,731.2c-8.1,5.3-16.7,10.3-25.5,15c-2.4,1.3-3.4,4.3-2.1,6.8c0.9,1.7,2.6,2.7,4.4,2.7
		c0.8,0,1.6-0.2,2.3-0.6c9.1-4.8,17.9-10,26.3-15.4c2.3-1.5,3-4.6,1.5-6.9C1558.7,730.3,1555.6,729.7,1553.3,731.2z"/>
	<path class="st0" d="M1704.6,408.4c0.6,2.3,2.6,3.8,4.8,3.8c0.4,0,0.8,0,1.2-0.1c2.7-0.7,4.3-3.4,3.7-6.1
		c-2.4-9.9-5.4-19.7-8.8-29.2c-0.9-2.6-3.8-3.9-6.4-3c-2.6,0.9-3.9,3.8-3,6.4C1699.3,389.3,1702.2,398.8,1704.6,408.4z"/>
	<path class="st0" d="M1327.7,795.6c-5.3,0.2-10.6,0.3-15.5,0.3c-8.9,0-14-0.3-14-0.3c-2.7-0.2-5.1,1.9-5.3,4.7
		c-0.2,2.8,1.9,5.1,4.7,5.3c0.2,0,5.4,0.3,14.6,0.3c5.1,0,10.4-0.1,15.9-0.3c2.8-0.1,4.9-2.4,4.8-5.2
		C1332.8,797.7,1330.5,795.5,1327.7,795.6z"/>
	<path class="st0" d="M1336.3,157.4c-9.1-1.2-18.5-2.4-27.8-3.5l3.3-27.2l-9.9-1.2l-7.7,64.5l9.9,1.2l3.3-27.4
		c9.3,1.1,18.6,2.2,27.7,3.4c0.2,0,0.4,0,0.7,0c2.5,0,4.6-1.8,5-4.3C1341,160.3,1339,157.8,1336.3,157.4z"/>
	<path class="st0" d="M1387,790.2c-9.7,1.4-19.7,2.6-29.5,3.5c-2.8,0.3-4.8,2.7-4.5,5.4c0.2,2.6,2.4,4.5,5,4.5c0.2,0,0.3,0,0.5,0
		c10-0.9,20.2-2.1,30.1-3.6c2.7-0.4,4.6-2.9,4.2-5.7C1392.2,791.7,1389.7,789.8,1387,790.2z"/>
	<path class="st0" d="M1445.1,778.2c-9.4,2.5-19.1,4.8-28.9,6.9c-2.7,0.6-4.4,3.2-3.9,5.9c0.5,2.4,2.6,4,4.9,4c0.3,0,0.7,0,1-0.1
		c10-2.1,19.9-4.4,29.5-7c2.7-0.7,4.2-3.5,3.5-6.1C1450.5,779.1,1447.8,777.5,1445.1,778.2z"/>
	<path class="st0" d="M1706.3,550.7c-2.7-0.7-5.4,0.9-6.1,3.5c-2.6,9.6-5.7,19.1-9.1,28c-1,2.6,0.3,5.5,2.9,6.5
		c0.6,0.2,1.2,0.3,1.8,0.3c2,0,3.9-1.2,4.7-3.2c3.6-9.2,6.8-19,9.5-29C1710.6,554.2,1709,551.4,1706.3,550.7z"/>
	<path class="st0" d="M1693.6,348.6c-4.4-9.2-9.4-18.2-14.7-26.7c-1.5-2.3-4.5-3.1-6.9-1.6c-2.3,1.5-3.1,4.5-1.6,6.9
		c5.1,8.3,9.9,17,14.2,25.8c0.9,1.8,2.6,2.8,4.5,2.8c0.7,0,1.5-0.2,2.2-0.5C1693.8,354.1,1694.8,351.1,1693.6,348.6z"/>
	<path class="st0" d="M1716.1,491.6c-2.8-0.3-5.2,1.7-5.5,4.5c-1,10-2.3,19.9-4,29.3c-0.5,2.7,1.3,5.3,4.1,5.8
		c0.3,0.1,0.6,0.1,0.9,0.1c2.4,0,4.5-1.7,4.9-4.1c1.7-9.7,3.1-19.8,4.1-30.1C1720.8,494.3,1718.8,491.9,1716.1,491.6z"/>
	<path class="st0" d="M1685.7,606.9c-2.4-1.3-5.5-0.3-6.8,2.1c-4.6,8.7-9.7,17.1-15.2,25.1c-1.6,2.3-1,5.4,1.3,7
		c0.9,0.6,1.9,0.9,2.8,0.9c1.6,0,3.1-0.8,4.1-2.2c5.8-8.3,11.1-17.1,15.8-26.1C1689.1,611.2,1688.1,608.2,1685.7,606.9z"/>
	<path class="st0" d="M1720.1,436c-0.4-2.7-2.9-4.6-5.6-4.3c-2.7,0.4-4.6,2.9-4.3,5.6c2.1,14.8,2.3,25.4,2.3,29.3c0,2.8,2.2,5,5,5
		s5-2.2,5-5C1722.5,461.6,1722.2,450.8,1720.1,436z"/>
	<path class="st0" d="M1602.2,697c-7,5.4-14.7,10.9-24.1,17.4c-2.3,1.6-2.8,4.7-1.3,7c1,1.4,2.5,2.2,4.1,2.2c1,0,2-0.3,2.8-0.9
		c9.6-6.6,17.3-12.2,24.5-17.7c2.2-1.7,2.6-4.8,0.9-7C1607.5,695.8,1604.4,695.3,1602.2,697z"/>
	<path class="st0" d="M1641.4,273.9c-1.9-2-5.1-2-7.1-0.1c-2,1.9-2,5.1-0.1,7.1c6.8,7,13.4,14.5,19.4,22.1c1,1.3,2.5,1.9,3.9,1.9
		c1.1,0,2.2-0.3,3.1-1.1c2.2-1.7,2.6-4.8,0.8-7C1655.2,288.9,1648.5,281.2,1641.4,273.9z"/>
	<path class="st0" d="M1594.6,235c-2.3-1.5-5.4-0.9-6.9,1.3c-1.5,2.3-0.9,5.4,1.3,6.9c8.2,5.5,16.1,11.5,23.6,17.7
		c0.9,0.8,2.1,1.2,3.2,1.2c1.4,0,2.9-0.6,3.8-1.8c1.8-2.1,1.5-5.3-0.7-7C1611.3,246.8,1603,240.7,1594.6,235z"/>
	<path class="st0" d="M1568.6,219.2c-8.7-4.8-17.9-9.3-27.2-13.4c-2.5-1.1-5.5,0-6.6,2.6c-1.1,2.5,0,5.5,2.6,6.6
		c9.1,4,18,8.4,26.5,13.1c0.8,0.4,1.6,0.6,2.4,0.6c1.8,0,3.5-0.9,4.4-2.6C1571.9,223.5,1571,220.5,1568.6,219.2z"/>
	<path class="st0" d="M1645.6,657.2c-6.3,7.1-13.3,14.2-20.7,20.9c-2,1.9-2.2,5-0.3,7.1c1,1.1,2.3,1.6,3.7,1.6
		c1.2,0,2.4-0.4,3.4-1.3c7.7-7,14.9-14.3,21.5-21.7c1.8-2.1,1.6-5.2-0.4-7.1C1650.6,654.9,1647.4,655.1,1645.6,657.2z"/>
</g>
<g id="Pitroad">
	<path class="st1" d="M796.7,795.6l-30-0.2c0,0,0,0,0,0c-1.4,0-2.5,1.1-2.5,2.5c0,1.4,1.1,2.5,2.5,2.5l30,0.2c0,0,0,0,0,0
		c1.4,0,2.5-1.1,2.5-2.5C799.2,796.7,798.1,795.6,796.7,795.6z"/>
	<path class="st1" d="M676.7,795l-30-0.2c0,0,0,0,0,0c-1.4,0-2.5,1.1-2.5,2.5c0,1.4,1.1,2.5,2.5,2.5l30,0.2c0,0,0,0,0,0
		c1.4,0,2.5-1.1,2.5-2.5C679.2,796.1,678.1,795,676.7,795z"/>
	<path class="st1" d="M736.7,795.3l-30-0.2c0,0,0,0,0,0c-1.4,0-2.5,1.1-2.5,2.5c0,1.4,1.1,2.5,2.5,2.5l30,0.2c0,0,0,0,0,0
		c1.4,0,2.5-1.1,2.5-2.5C739.2,796.4,738.1,795.3,736.7,795.3z"/>
	<path class="st1" d="M616.7,794.7l-30-0.2c0,0,0,0,0,0c-1.4,0-2.5,1.1-2.5,2.5c0,1.4,1.1,2.5,2.5,2.5l30,0.2c0,0,0,0,0,0
		c1.4,0,2.5-1.1,2.5-2.5C619.2,795.8,618.1,794.7,616.7,794.7z"/>
	<path class="st1" d="M439.2,773.3c-17.8-4.8-28.4-8.7-28.6-8.7c-1.3-0.5-2.7,0.2-3.2,1.5c-0.5,1.3,0.2,2.7,1.5,3.2
		c0.1,0,10.9,3.9,28.9,8.8c0.2,0.1,0.4,0.1,0.7,0.1c1.1,0,2.1-0.7,2.4-1.8C441.3,775,440.5,773.6,439.2,773.3z"/>
	<path class="st1" d="M556.9,793.4c-9.7-0.7-19.7-1.6-29.7-2.8c-1.4-0.2-2.6,0.8-2.8,2.2c-0.2,1.4,0.8,2.6,2.2,2.8
		c10.1,1.2,20.2,2.2,30,2.8c0.1,0,0.1,0,0.2,0c1.3,0,2.4-1,2.5-2.3C559.3,794.7,558.2,793.5,556.9,793.4z"/>
	<path class="st1" d="M497.5,786.2c-9.7-1.7-19.6-3.6-29.3-5.8c-1.3-0.3-2.7,0.6-3,1.9s0.6,2.7,1.9,3c9.8,2.2,19.7,4.1,29.6,5.8
		c0.1,0,0.3,0,0.4,0c1.2,0,2.3-0.9,2.5-2.1C499.8,787.7,498.9,786.4,497.5,786.2z"/>
	<path class="st1" d="M1216.7,797.7l-30-0.1c0,0,0,0,0,0c-1.4,0-2.5,1.1-2.5,2.5c0,1.4,1.1,2.5,2.5,2.5l30,0.1c0,0,0,0,0,0
		c1.4,0,2.5-1.1,2.5-2.5C1219.2,798.8,1218.1,797.7,1216.7,797.7z"/>
	<path class="st1" d="M1096.7,797.1l-30-0.2c0,0,0,0,0,0c-1.4,0-2.5,1.1-2.5,2.5c0,1.4,1.1,2.5,2.5,2.5l30,0.2c0,0,0,0,0,0
		c1.4,0,2.5-1.1,2.5-2.5C1099.2,798.2,1098.1,797.1,1096.7,797.1z"/>
	<path class="st1" d="M1036.7,796.8l-30-0.2c0,0,0,0,0,0c-1.4,0-2.5,1.1-2.5,2.5c0,1.4,1.1,2.5,2.5,2.5l30,0.2c0,0,0,0,0,0
		c1.4,0,2.5-1.1,2.5-2.5C1039.2,797.9,1038.1,796.8,1036.7,796.8z"/>
	<path class="st1" d="M856.7,795.9l-30-0.1c0,0,0,0,0,0c-1.4,0-2.5,1.1-2.5,2.5c0,1.4,1.1,2.5,2.5,2.5l30,0.1c0,0,0,0,0,0
		c1.4,0,2.5-1.1,2.5-2.5C859.2,797,858.1,795.9,856.7,795.9z"/>
	<path class="st1" d="M1156.7,797.4l-30-0.2c0,0,0,0,0,0c-1.4,0-2.5,1.1-2.5,2.5c0,1.4,1.1,2.5,2.5,2.5l30,0.2c0,0,0,0,0,0
		c1.4,0,2.5-1.1,2.5-2.5C1159.2,798.5,1158.1,797.4,1156.7,797.4z"/>
	<path class="st1" d="M916.7,796.2l-30-0.1c0,0,0,0,0,0c-1.4,0-2.5,1.1-2.5,2.5c0,1.4,1.1,2.5,2.5,2.5l30,0.1c0,0,0,0,0,0
		c1.4,0,2.5-1.1,2.5-2.5C919.2,797.3,918.1,796.2,916.7,796.2z"/>
	<path class="st1" d="M976.7,796.5l-30-0.2c0,0,0,0,0,0c-1.4,0-2.5,1.1-2.5,2.5c0,1.4,1.1,2.5,2.5,2.5l30,0.2c0,0,0,0,0,0
		c1.4,0,2.5-1.1,2.5-2.5C979.2,797.6,978.1,796.5,976.7,796.5z"/>
	<path class="st1" d="M1297.9,800.6l-43.8-18.7l6.7,16.1l-14.1-0.1c0,0,0,0,0,0c-1.4,0-2.5,1.1-2.5,2.5c0,1.4,1.1,2.5,2.5,2.5
		l14.1,0.1l-6.9,16L1297.9,800.6z"/>
</g>
</svg>
