<?xml version="1.0" encoding="utf-8"?>
<!-- Generator: Adobe Illustrator 24.0.1, SVG Export Plug-In . SVG Version: 6.00 Build 0)  -->
<svg version="1.1" id="Club_-_Pit_Road" xmlns="http://www.w3.org/2000/svg" xmlns:xlink="http://www.w3.org/1999/xlink" x="0px"
	 y="0px" viewBox="0 0 1920 1080" style="enable-background:new 0 0 1920 1080;" xml:space="preserve">
<style type="text/css">
	.st0{fill:#016699;}
	.st1{fill:#D82520;}
</style>
<title>pitroad</title>
<g id="Mergeline">
	<path class="st0" d="M1715.3,821.9c-7.8,5.1-16.4,9.6-25.6,13.4c-2.6,1-3.8,4-2.8,6.5c0.8,1.9,2.7,3.1,4.6,3.1
		c0.6,0,1.3-0.1,1.9-0.4c9.8-4,19-8.8,27.4-14.3c2.3-1.5,2.9-4.6,1.4-6.9C1720.7,821,1717.6,820.4,1715.3,821.9z"/>
	<path class="st0" d="M1661.9,843.9c-8.9,2-18.5,3.6-28.4,4.6L1631,821l-10,0.9l5.7,64.8l10-0.9l-2.4-27.3c10.4-1,20.4-2.6,29.8-4.8
		c2.7-0.6,4.4-3.3,3.8-6C1667.2,845,1664.5,843.3,1661.9,843.9z"/>
	<path class="st0" d="M1776.9,721.1c-2.8,0-5,2.1-5.1,4.9c0,0.1-0.3,12-5.4,28.1c-0.8,2.6,0.6,5.4,3.3,6.3c0.5,0.2,1,0.2,1.5,0.2
		c2.1,0,4.1-1.4,4.8-3.5c5.6-17.6,5.9-30.4,5.9-30.9C1781.8,723.5,1779.6,721.2,1776.9,721.1z"/>
	<path class="st0" d="M1761.5,778.7c-2.4-1.4-5.4-0.6-6.8,1.8c-4.9,8.3-10.7,16.1-17.3,23c-1.9,2-1.8,5.2,0.2,7.1
		c1,0.9,2.2,1.4,3.5,1.4c1.3,0,2.6-0.5,3.6-1.5c7.1-7.5,13.4-15.8,18.7-24.8C1764.7,783.2,1763.9,780.1,1761.5,778.7z"/>
</g>
<g id="Pitroad">
	<path class="st1" d="M1775.1,400.9C1775.1,400.9,1775.1,400.9,1775.1,400.9c1.4,0,2.5-1.1,2.5-2.5l-0.2-30c0-1.4-1.1-2.5-2.5-2.5
		c0,0,0,0,0,0c-1.4,0-2.5,1.1-2.5,2.5l0.2,30C1772.6,399.8,1773.7,400.9,1775.1,400.9z"/>
	<path class="st1" d="M1775.7,520.9C1775.7,520.9,1775.7,520.9,1775.7,520.9c1.4,0,2.5-1.1,2.5-2.5l-0.2-30c0-1.4-1.1-2.5-2.5-2.5
		c0,0,0,0,0,0c-1.4,0-2.5,1.1-2.5,2.5l0.2,30C1773.2,519.8,1774.3,520.9,1775.7,520.9z"/>
	<path class="st1" d="M1775.4,460.9C1775.4,460.9,1775.4,460.9,1775.4,460.9c1.4,0,2.5-1.1,2.5-2.5l-0.2-30c0-1.4-1.1-2.5-2.5-2.5
		c0,0,0,0,0,0c-1.4,0-2.5,1.1-2.5,2.5l0.2,30C1772.9,459.8,1774,460.9,1775.4,460.9z"/>
	<path class="st1" d="M1774.5,280.9c1.4,0,2.5-1.1,2.5-2.5l-0.2-30c0-1.4-1.1-2.5-2.5-2.5c0,0,0,0,0,0c-1.4,0-2.5,1.1-2.5,2.5
		l0.2,30C1772,279.8,1773.1,280.9,1774.5,280.9C1774.5,280.9,1774.5,280.9,1774.5,280.9z"/>
	<path class="st1" d="M1774.8,340.9C1774.8,340.9,1774.8,340.9,1774.8,340.9c1.4,0,2.5-1.1,2.5-2.5l-0.2-30c0-1.4-1.1-2.5-2.5-2.5
		c0,0,0,0,0,0c-1.4,0-2.5,1.1-2.5,2.5l0.2,30C1772.3,339.8,1773.4,340.9,1774.8,340.9z"/>
	<path class="st1" d="M1779,668.4c0-1.4-1.1-2.5-2.5-2.5c0,0,0,0,0,0c-1.4,0-2.5,1.1-2.5,2.5l0.1,22.8l-16.1-6.7l18.7,43.8l18.3-44
		l-16,6.9L1779,668.4z"/>
	<path class="st1" d="M1776.3,640.9C1776.3,640.9,1776.3,640.9,1776.3,640.9c1.4,0,2.5-1.1,2.5-2.5l-0.2-30c0-1.4-1.1-2.5-2.5-2.5
		c0,0,0,0,0,0c-1.4,0-2.5,1.1-2.5,2.5l0.2,30C1773.8,639.8,1774.9,640.9,1776.3,640.9z"/>
	<path class="st1" d="M1776,580.9C1776,580.9,1776,580.9,1776,580.9c1.4,0,2.5-1.1,2.5-2.5l-0.2-30c0-1.4-1.1-2.5-2.5-2.5
		c0,0,0,0,0,0c-1.4,0-2.5,1.1-2.5,2.5l0.2,30C1773.5,579.8,1774.6,580.9,1776,580.9z"/>
	<path class="st1" d="M1777.4,206.8c-1.3-0.4-2.7,0.4-3.1,1.7c-2.8,9.6-2.6,15.3-2.6,15.5c0,1.3,1.2,2.4,2.5,2.4c0,0,0.1,0,0.1,0
		c1.4,0,2.5-1.2,2.4-2.6c0-0.1-0.1-5.2,2.4-14C1779.5,208.5,1778.7,207.2,1777.4,206.8z"/>
	<path class="st1" d="M1786.7,119.4c0.3,0.1,0.6,0.1,0.8,0.1c1,0,2-0.6,2.4-1.7c0.5-1.3-0.2-2.7-1.5-3.2c-1.2-0.5-2.6-0.9-4-1.2
		c-6.6-1.6-17.6-4.2-29.3-7c-1.3-0.3-2.7,0.5-3,1.9c-0.3,1.3,0.5,2.7,1.9,3c11.7,2.8,22.7,5.4,29.3,7
		C1784.4,118.7,1785.6,119,1786.7,119.4z"/>
	<path class="st1" d="M1799.3,142.7c-1.3-0.3-2.7,0.6-2.9,2l-0.1,0.7c-1.3,6.4-3.2,16.1-4.8,21.1c-1.3,4.3-2.5,7.8-3.6,10.7
		c-0.5,1.3,0.2,2.7,1.4,3.2c0.3,0.1,0.6,0.2,0.9,0.2c1,0,2-0.6,2.3-1.6c1.2-3.1,2.4-6.7,3.7-11.1c1.6-5.2,3.6-15.1,4.9-21.6l0.1-0.7
		C1801.5,144.3,1800.6,143,1799.3,142.7z"/>
	<path class="st1" d="M1721.9,98.7l-14.6-3.5c-1.3-0.3-2.7,0.5-3,1.9c-0.3,1.3,0.5,2.7,1.9,3l14.6,3.5c0.2,0,0.4,0.1,0.6,0.1
		c1.1,0,2.2-0.8,2.4-1.9C1724.1,100.4,1723.3,99.1,1721.9,98.7z"/>
</g>
</svg>
