<?xml version="1.0" encoding="utf-8"?>
<!-- Generator: Adobe Illustrator 24.0.1, SVG Export Plug-In . SVG Version: 6.00 Build 0)  -->
<svg version="1.1" id="Short_Course_-_Pit_Road" xmlns="http://www.w3.org/2000/svg" xmlns:xlink="http://www.w3.org/1999/xlink"
	 x="0px" y="0px" viewBox="0 0 1920 1080" style="enable-background:new 0 0 1920 1080;" xml:space="preserve">
<style type="text/css">
	.st0{fill:#016699;}
	.st1{fill:#D82520;}
</style>
<title>pitroad</title>
<g id="Mergeline">
	<path class="st0" d="M1614.7,844.8c-9.1,2.1-18.8,3.7-28.9,4.7c-0.1,0-0.2,0-0.3,0.1l-2.4-27.5l-10,0.9l5.7,64.8l10-0.9l-2.4-27.4
		c0.2,0,0.3,0,0.5,0c10.5-1.1,20.7-2.7,30.2-4.9c2.7-0.6,4.4-3.3,3.7-6C1620.1,845.9,1617.4,844.2,1614.7,844.8z"/>
	<path class="st0" d="M1668,822.4c-7.8,5.2-16.3,9.8-25.5,13.6c-2.6,1.1-3.8,4-2.7,6.5c0.8,1.9,2.7,3.1,4.6,3.1
		c0.6,0,1.3-0.1,1.9-0.4c9.8-4,19-8.9,27.3-14.5c2.3-1.5,2.9-4.6,1.4-6.9C1673.4,821.5,1670.3,820.9,1668,822.4z"/>
	<path class="st0" d="M1728.9,721.1c0,0-0.1,0-0.1,0c-2.7,0-4.9,2.2-5,4.9c0,0.1-0.3,12-5.3,28.1c-0.8,2.6,0.7,5.4,3.3,6.3
		c0.5,0.2,1,0.2,1.5,0.2c2.1,0,4.1-1.4,4.8-3.5c5.5-17.6,5.8-30.4,5.8-30.9C1733.9,723.5,1731.7,721.2,1728.9,721.1z"/>
	<path class="st0" d="M1713.8,778.8c-2.4-1.4-5.5-0.5-6.8,1.8c-4.8,8.4-10.6,16.2-17.1,23.1c-1.9,2-1.8,5.2,0.2,7.1
		c1,0.9,2.2,1.3,3.4,1.3c1.3,0,2.7-0.5,3.7-1.6c7.1-7.5,13.3-16,18.5-25C1717.1,783.2,1716.2,780.2,1713.8,778.8z"/>
</g>
<g id="Pitroad">
	<path class="st1" d="M1726.9,384C1726.9,384,1726.9,384,1726.9,384c-1.4,0-2.5,1.1-2.5,2.5l0.2,30c0,1.4,1.1,2.5,2.5,2.5
		c0,0,0,0,0,0c1.4,0,2.5-1.1,2.5-2.5l-0.2-30C1729.4,385.1,1728.3,384,1726.9,384z"/>
	<path class="st1" d="M1727.6,504C1727.6,504,1727.6,504,1727.6,504c-1.4,0-2.5,1.1-2.5,2.5l0.2,30c0,1.4,1.1,2.5,2.5,2.5
		c0,0,0,0,0,0c1.4,0,2.5-1.1,2.5-2.5l-0.2-30C1730.1,505.1,1729,504,1727.6,504z"/>
	<path class="st1" d="M1727.9,564C1727.9,564,1727.9,564,1727.9,564c-1.4,0-2.5,1.1-2.5,2.5l0.2,30c0,1.4,1.1,2.5,2.5,2.5
		c0,0,0,0,0,0c1.4,0,2.5-1.1,2.5-2.5l-0.2-30C1730.4,565.1,1729.3,564,1727.9,564z"/>
	<path class="st1" d="M1728.3,624C1728.3,624,1728.3,624,1728.3,624c-1.4,0-2.5,1.1-2.5,2.5l0.2,30c0,1.4,1.1,2.5,2.5,2.5
		c0,0,0,0,0,0c1.4,0,2.5-1.1,2.5-2.5l-0.2-30C1730.8,625.1,1729.6,624,1728.3,624z"/>
	<path class="st1" d="M1726.6,324C1726.6,324,1726.6,324,1726.6,324c-1.4,0-2.5,1.1-2.5,2.5l0.2,30c0,1.4,1.1,2.5,2.5,2.5
		c0,0,0,0,0,0c1.4,0,2.5-1.1,2.5-2.5l-0.2-30C1729.1,325.1,1728,324,1726.6,324z"/>
	<path class="st1" d="M1727.3,444C1727.3,444,1727.2,444,1727.3,444c-1.4,0-2.5,1.1-2.5,2.5l0.2,30c0,1.4,1.1,2.5,2.5,2.5
		c0,0,0,0,0,0c1.4,0,2.5-1.1,2.5-2.5l-0.2-30C1729.7,445.1,1728.6,444,1727.3,444z"/>
	<path class="st1" d="M1731.1,691.1l0-4.6c0-1.4-1.1-2.5-2.5-2.5c0,0,0,0,0,0c-1.4,0-2.5,1.1-2.5,2.5l0,4.6l-16.1-6.7l18.8,43.8
		l18.3-44L1731.1,691.1z"/>
	<path class="st1" d="M1723.7,266.7l0.2,29.9c0,1.4,1.1,2.5,2.5,2.5c0,0,0,0,0,0c1.4,0,2.5-1.1,2.5-2.5l-0.2-30c0,0,0-0.1,0-0.1
		c0,0,0-0.1,0-0.1c-0.5-5.4-2.2-10.5-4.9-15.2c-0.7-1.2-2.2-1.6-3.4-0.9c-1.2,0.7-1.6,2.2-0.9,3.4
		C1721.8,257.7,1723.3,262.1,1723.7,266.7z"/>
	<path class="st1" d="M1699.3,231.5c-8.3-4.5-15.3-11-21.3-19.8c-0.8-1.1-2.3-1.4-3.5-0.6c-1.1,0.8-1.4,2.3-0.6,3.5
		c6.5,9.5,14,16.5,23.1,21.4c0.4,0.2,0.8,0.3,1.2,0.3c0.9,0,1.7-0.5,2.2-1.3C1701,233.7,1700.6,232.2,1699.3,231.5z"/>
	<path class="st1" d="M1654.9,161.4l-2.2-4.8c-0.6-1.3-2.1-1.8-3.3-1.2c-1.3,0.6-1.8,2.1-1.2,3.3l2.2,4.8c2.5,5.5,6.8,16,9.7,23.3
		c0.4,1,1.3,1.6,2.3,1.6c0.3,0,0.6-0.1,0.9-0.2c1.3-0.5,1.9-2,1.4-3.2C1661.8,177.5,1657.5,167,1654.9,161.4z"/>
	<path class="st1" d="M1616.7,106.6c-1-0.9-2.6-0.8-3.5,0.3c-0.9,1-0.8,2.6,0.3,3.5c8.2,7,14.8,14.2,20.3,21.9
		c0.5,0.7,1.3,1.1,2,1.1c0.5,0,1-0.1,1.4-0.5c1.1-0.8,1.4-2.4,0.6-3.5C1632.1,121.3,1625.2,113.8,1616.7,106.6z"/>
	<path class="st1" d="M1591.6,88.4c-4-2.5-8.4-5.1-13-7.7c-1.2-0.7-2.7-0.2-3.4,1c-0.7,1.2-0.2,2.7,1,3.4c4.6,2.6,8.9,5.1,12.8,7.6
		c0.4,0.3,0.9,0.4,1.3,0.4c0.8,0,1.6-0.4,2.1-1.2C1593.1,90.7,1592.8,89.1,1591.6,88.4z"/>
</g>
</svg>
