<svg id="Road_Course_-_Pit_Road" data-name="Road Course - Pit Road" xmlns="http://www.w3.org/2000/svg" viewBox="0 0 1920 1080"><defs><style>.cls-1{fill:#d82520;}</style></defs><title>pitroad</title><g id="Pitroad"><path class="cls-1" d="M742.54,853.06l-30-.12a2.5,2.5,0,1,0,0,5l30,.12h0a2.5,2.5,0,0,0,0-5Z"/><path class="cls-1" d="M682.45,852.81l-30.06-.14h0a2.5,2.5,0,0,0,0,5l30,.14h0a2.5,2.5,0,0,0,0-5Z"/><path class="cls-1" d="M802.63,853.29l-30-.12h0a2.5,2.5,0,0,0,0,5l30,.12h0a2.5,2.5,0,0,0,0-5Z"/><path class="cls-1" d="M982.88,853.88l-30-.09h0a2.5,2.5,0,0,0,0,5l30,.09h0a2.5,2.5,0,0,0,0-5Z"/><path class="cls-1" d="M862.72,853.5l-30.05-.11h0a2.5,2.5,0,0,0,0,5l30,.11h0a2.5,2.5,0,0,0,0-5Z"/><path class="cls-1" d="M922.8,853.69l-30.08-.09h0a2.5,2.5,0,1,0,0,5l30.07.09h0a2.5,2.5,0,0,0,0-5Z"/><path class="cls-1" d="M622.34,852.52l-30.06-.15h0a2.5,2.5,0,0,0,0,5l30.06.15h0a2.5,2.5,0,0,0,0-5Z"/><path class="cls-1" d="M1489.68,643.68h.17a2.5,2.5,0,0,0,2.33-2.66c-.54-8.29-.81-16.34-.81-23.94,0-2,0-3.91.05-5.84a2.49,2.49,0,0,0-2.45-2.54h0a2.5,2.5,0,0,0-2.5,2.45c0,2-.05,3.94-.05,5.93,0,7.7.27,15.87.82,24.26A2.5,2.5,0,0,0,1489.68,643.68Z"/><path class="cls-1" d="M1490.8,583.79a2.64,2.64,0,0,0,.55.06,2.51,2.51,0,0,0,2.44-2,114.11,114.11,0,0,1,10.38-27.38,2.5,2.5,0,0,0-4.44-2.3,118.79,118.79,0,0,0-10.82,28.59A2.51,2.51,0,0,0,1490.8,583.79Z"/><path class="cls-1" d="M397.5,798.57c-7.56-5.86-15.31-12.24-23-19a2.5,2.5,0,1,0-3.29,3.76c7.78,6.81,15.61,13.26,23.25,19.17a2.47,2.47,0,0,0,1.53.53,2.5,2.5,0,0,0,1.53-4.48Z"/><path class="cls-1" d="M562.22,852.19,532.15,852h0a2.5,2.5,0,0,0,0,5l30.08.19h0a2.5,2.5,0,0,0,0-5Z"/><path class="cls-1" d="M447.23,831.2c-8.31-4.42-16.9-9.55-25.52-15.25a2.5,2.5,0,1,0-2.76,4.17c8.75,5.79,17.48,11,25.94,15.5a2.44,2.44,0,0,0,1.17.29,2.5,2.5,0,0,0,1.17-4.71Z"/><path class="cls-1" d="M502.62,851.26a150.23,150.23,0,0,1-28.4-7.78,2.5,2.5,0,0,0-1.76,4.68,155.66,155.66,0,0,0,29.36,8,2.69,2.69,0,0,0,.4,0,2.5,2.5,0,0,0,.4-5Z"/><path class="cls-1" d="M1503.16,727.56a2.49,2.49,0,0,0-2.14,2.81,41,41,0,0,1,.38,5.53,39.82,39.82,0,0,1-.21,4.08c-.12,1.2-.2,2.45-.23,3.82a154.8,154.8,0,0,1-1.11,15.83,2.5,2.5,0,0,0,2.18,2.78,1.56,1.56,0,0,0,.31,0,2.51,2.51,0,0,0,2.48-2.19A162,162,0,0,0,1506,743.9c0-1.23.09-2.34.2-3.41a44.1,44.1,0,0,0,.24-4.59,46.28,46.28,0,0,0-.42-6.21A2.5,2.5,0,0,0,1503.16,727.56Z"/><path class="cls-1" d="M1496.19,786.64a2.5,2.5,0,0,0-3.22,1.45,100.13,100.13,0,0,1-14.13,25.48,2.5,2.5,0,0,0,4,3,105.1,105.1,0,0,0,14.84-26.75A2.51,2.51,0,0,0,1496.19,786.64Z"/><path class="cls-1" d="M1457.83,833.77A116.08,116.08,0,0,1,1432,847.56a2.5,2.5,0,0,0,.9,4.83,2.34,2.34,0,0,0,.89-.17,120.69,120.69,0,0,0,27-14.39,2.5,2.5,0,1,0-2.91-4.06Z"/><path class="cls-1" d="M1043,854.05l-30.05-.09h0a2.5,2.5,0,0,0,0,5l30,.09h0a2.5,2.5,0,0,0,0-5Z"/><path class="cls-1" d="M1535.75,500.75a2.5,2.5,0,0,0-3.45.76c-6.5,10.15-12,18.64-16.25,25.22a2.49,2.49,0,0,0,.73,3.46,2.43,2.43,0,0,0,1.36.41,2.49,2.49,0,0,0,2.1-1.14c4.29-6.6,9.76-15.09,16.27-25.26A2.5,2.5,0,0,0,1535.75,500.75Z"/><path class="cls-1" d="M1499.8,700.21c-1.84-9.81-3.42-19.73-4.69-29.49a2.5,2.5,0,0,0-5,.64c1.28,9.85,2.87,19.87,4.74,29.77a2.49,2.49,0,0,0,2.45,2,2.38,2.38,0,0,0,.46,0A2.51,2.51,0,0,0,1499.8,700.21Z"/><path class="cls-1" d="M1403.58,854.75c-1.15.1-2.33.16-3.6.16l-26.3-.06h0a2.5,2.5,0,0,0,0,5l26.39.06c1.33,0,2.66-.06,4-.18a2.5,2.5,0,0,0-.44-5Z"/><path class="cls-1" d="M1103.06,854.21l-30-.08h0a2.5,2.5,0,0,0,0,5l30,.08h0a2.5,2.5,0,0,0,0-5Z"/><path class="cls-1" d="M1163.16,854.37l-30.05-.08h0a2.5,2.5,0,0,0,0,5l30.05.08h0a2.5,2.5,0,0,0,0-5Z"/><path class="cls-1" d="M1223.27,854.52l-30.06-.08h0a2.5,2.5,0,0,0,0,5l30.06.08h0a2.5,2.5,0,0,0,0-5Z"/><path class="cls-1" d="M1343.58,854.79l-30.1-.07h0a2.5,2.5,0,0,0,0,5l30.1.07h0a2.5,2.5,0,0,0,0-5Z"/><path class="cls-1" d="M1283.4,854.66l-30.07-.07h0a2.5,2.5,0,0,0,0,5l30.07.07h0a2.5,2.5,0,0,0,0-5Z"/><polygon class="cls-1" points="1526.61 480.64 1546.46 483.93 1557.87 500.5 1565.78 453.52 1526.61 480.64"/></g></svg>