<svg id="Road_Course_North_Oval_-_Pit_Road" data-name="Road Course North Oval - Pit Road" xmlns="http://www.w3.org/2000/svg" viewBox="0 0 1920 1080"><defs><style>.cls-1{fill:#d82520;}</style></defs><title>pitroad</title><path class="cls-1" d="M564.17,852.21,534.1,852h0a2.5,2.5,0,0,0,0,5l30.08.2h0a2.5,2.5,0,0,0,0-5Z"/><path class="cls-1" d="M624.29,852.53l-30.06-.15h0a2.5,2.5,0,0,0,0,5l30.06.15h0a2.5,2.5,0,0,0,0-5Z"/><path class="cls-1" d="M504.1,851.69l-30-.36a2.53,2.53,0,0,0-2.53,2.47,2.5,2.5,0,0,0,2.47,2.53l30,.36h0a2.5,2.5,0,0,0,0-5Z"/><path class="cls-1" d="M864.66,853.5l-30-.1h0a2.5,2.5,0,0,0,0,5l30,.1h0a2.5,2.5,0,0,0,0-5Z"/><path class="cls-1" d="M684.39,852.81l-30-.13h0a2.5,2.5,0,0,0,0,5l30,.13h0a2.5,2.5,0,0,0,0-5Z"/><path class="cls-1" d="M744.49,853.06l-30-.12h0a2.5,2.5,0,0,0,0,5l30.05.12h0a2.5,2.5,0,0,0,0-5Z"/><path class="cls-1" d="M804.58,853.29l-30.05-.11h0a2.5,2.5,0,0,0,0,5l30,.11h0a2.5,2.5,0,0,0,0-5Z"/><path class="cls-1" d="M1489.56,641.73h.16a2.5,2.5,0,0,0,2.34-2.64c-.46-7.6-.69-15-.69-22,0-2.64,0-5.26.1-7.78a2.51,2.51,0,0,0-2.44-2.56,2.46,2.46,0,0,0-2.56,2.43c-.07,2.56-.1,5.22-.1,7.91,0,7.1.23,14.61.7,22.3A2.5,2.5,0,0,0,1489.56,641.73Z"/><path class="cls-1" d="M1491.19,581.87a2.58,2.58,0,0,0,.6.07,2.5,2.5,0,0,0,2.43-1.9,119.61,119.61,0,0,1,10.84-27.24,2.5,2.5,0,1,0-4.41-2.35,124.32,124.32,0,0,0-11.29,28.39A2.51,2.51,0,0,0,1491.19,581.87Z"/><path class="cls-1" d="M230.92,756.9c-14.07-11.48-22.68-19.41-22.77-19.49a2.5,2.5,0,1,0-3.39,3.67c.08.08,8.8,8.11,23,19.7a2.5,2.5,0,0,0,1.58.56,2.47,2.47,0,0,0,1.94-.92A2.51,2.51,0,0,0,230.92,756.9Z"/><path class="cls-1" d="M278.89,792.75c-8-5.47-16.24-11.32-24.36-17.4a2.5,2.5,0,0,0-3,4c8.18,6.13,16.44,12,24.55,17.54a2.5,2.5,0,0,0,2.81-4.14Z"/><path class="cls-1" d="M385.21,845.69a234.8,234.8,0,0,1-28.1-9.56,2.5,2.5,0,1,0-1.89,4.62,239.71,239.71,0,0,0,28.7,9.78,3,3,0,0,0,.65.08,2.5,2.5,0,0,0,.64-4.92Z"/><path class="cls-1" d="M330.08,823.57c-8.42-4.35-17.18-9.28-26-14.64a2.5,2.5,0,0,0-2.59,4.28c8.95,5.42,17.81,10.4,26.34,14.8a2.46,2.46,0,0,0,1.14.28,2.5,2.5,0,0,0,1.15-4.72Z"/><path class="cls-1" d="M444.11,851l-16.3-.2h-.09c-1.94.11-3.94.17-5.94.17h0c-2.43,0-4.95-.09-7.49-.26a2.5,2.5,0,0,0-.33,5c2.65.18,5.28.27,7.82.27,2.1,0,4.16-.06,6.18-.18l16.13.2h0a2.5,2.5,0,0,0,0-5Z"/><path class="cls-1" d="M1345.54,854.79l-30.1-.06h0a2.5,2.5,0,0,0,0,5l30.09.06h0a2.5,2.5,0,0,0,0-5Z"/><path class="cls-1" d="M1494.86,668.79a2.5,2.5,0,0,0-5,.62c1.24,9.83,2.8,19.85,4.63,29.79a2.5,2.5,0,0,0,2.45,2,3.57,3.57,0,0,0,.46,0,2.5,2.5,0,0,0,2-2.92C1497.63,688.45,1496.09,678.52,1494.86,668.79Z"/><path class="cls-1" d="M924.75,853.7l-30.08-.1h0a2.5,2.5,0,1,0,0,5l30.08.1h0a2.5,2.5,0,0,0,0-5Z"/><path class="cls-1" d="M1405.41,854.55a39.51,39.51,0,0,1-5.43.36l-24.34,0h0a2.5,2.5,0,0,0,0,5l24.43,0a45.76,45.76,0,0,0,6-.4,2.5,2.5,0,0,0-.67-5Z"/><path class="cls-1" d="M1459.37,832.64a114.24,114.24,0,0,1-25.62,14.21,2.5,2.5,0,0,0,.94,4.82,2.37,2.37,0,0,0,.93-.18,119.47,119.47,0,0,0,26.73-14.83,2.5,2.5,0,0,0-3-4Z"/><path class="cls-1" d="M1502.74,725.64a2.5,2.5,0,0,0-2,2.91,41.35,41.35,0,0,1,.67,7.35,39.82,39.82,0,0,1-.21,4.08c-.12,1.2-.2,2.45-.22,3.82-.1,4.75-.4,9.44-.89,13.92a2.5,2.5,0,0,0,2.21,2.76h.27a2.51,2.51,0,0,0,2.49-2.22c.5-4.63.81-9.47.91-14.37,0-1.23.09-2.34.2-3.41a44.1,44.1,0,0,0,.24-4.59,45.78,45.78,0,0,0-.75-8.25A2.5,2.5,0,0,0,1502.74,725.64Z"/><path class="cls-1" d="M1536.81,499.1a2.5,2.5,0,0,0-3.46.76c-6.36,9.95-11.83,18.44-16.24,25.23a2.5,2.5,0,0,0,4.2,2.73c4.41-6.81,9.88-15.31,16.26-25.27A2.5,2.5,0,0,0,1536.81,499.1Z"/><path class="cls-1" d="M1496.83,784.8a2.49,2.49,0,0,0-3.2,1.5A100.62,100.62,0,0,1,1480,812.05a2.5,2.5,0,0,0,4,3,105.93,105.93,0,0,0,14.32-27A2.5,2.5,0,0,0,1496.83,784.8Z"/><path class="cls-1" d="M1105,854.22l-30-.08h0a2.5,2.5,0,0,0,0,5l30,.08h0a2.5,2.5,0,0,0,0-5Z"/><path class="cls-1" d="M1044.92,854.05l-30-.08h0a2.5,2.5,0,1,0,0,5l30,.08h0a2.5,2.5,0,1,0,0-5Z"/><path class="cls-1" d="M984.84,853.88l-30.05-.09h0a2.5,2.5,0,0,0,0,5l30,.09h0a2.5,2.5,0,0,0,0-5Z"/><path class="cls-1" d="M1225.23,854.52l-30.06-.07h0a2.5,2.5,0,1,0,0,5l30,.07h0a2.5,2.5,0,0,0,0-5Z"/><path class="cls-1" d="M1165.12,854.37l-30.06-.07h0a2.5,2.5,0,0,0,0,5l30,.07h0a2.5,2.5,0,0,0,0-5Z"/><path class="cls-1" d="M1285.36,854.66l-30.07-.07h0a2.5,2.5,0,0,0,0,5l30.07.07h0a2.5,2.5,0,0,0,0-5Z"/><polygon class="cls-1" points="1526.61 480.64 1546.46 483.93 1557.87 500.5 1565.78 453.52 1526.61 480.64"/></svg>