<svg id="Oval_-_Pit_Road" data-name="Oval - Pit Road" xmlns="http://www.w3.org/2000/svg" viewBox="0 0 1920 1080"><defs><style>.cls-1{fill:#0089ba;}.cls-2{fill:#d82520;}</style></defs><title>pitroad</title><g id="Mergeline"><path class="cls-1" d="M1449.83,357.52c-9.6-3.36-19.24-6.57-28.65-9.55a5,5,0,0,0-3,9.54c9.31,2.94,18.85,6.12,28.35,9.45a5.08,5.08,0,0,0,1.66.28,5,5,0,0,0,1.65-9.72Z"/><path class="cls-1" d="M1506.13,380.7l-1.36-.75c-6-3.57-17.73-8.46-26.58-11.94a5,5,0,0,0-3.66,9.31c12.07,4.75,21,8.75,25.18,11.26l.19.11,1.4.76a4.88,4.88,0,0,0,2.41.63,5,5,0,0,0,2.42-9.38Z"/><path class="cls-1" d="M1488.25,833.54a276,276,0,0,1-27.93,9.43,5,5,0,0,0,1.35,9.82,5.28,5.28,0,0,0,1.35-.18,287.51,287.51,0,0,0,28.93-9.78,5,5,0,1,0-3.7-9.29Z"/><path class="cls-1" d="M1431.54,849.41a199.06,199.06,0,0,1-29.11,3,5,5,0,0,0,0,10c.49,0,12.23,0,30.75-3.14a5,5,0,1,0-1.65-9.86Z"/><path class="cls-1" d="M1627,545.86a265.49,265.49,0,0,1,6.25,28.75,5,5,0,0,0,4.93,4.21,5.25,5.25,0,0,0,.79-.06,5,5,0,0,0,4.15-5.73,273.22,273.22,0,0,0-6.49-29.84,5,5,0,1,0-9.63,2.67Z"/><path class="cls-1" d="M1392.15,339.42c-10.21-2.73-18.67-4.65-25.27-5.73l2.58-27.47-10-.93L1353.43,370l10,.94,2.56-27.27c6.14,1,14,2.85,23.61,5.41a4.84,4.84,0,0,0,1.29.18,5,5,0,0,0,1.3-9.84Z"/><path class="cls-1" d="M1617.72,517.94a5,5,0,0,0,9.24-3.81,251.43,251.43,0,0,0-13.44-27.52,5,5,0,0,0-8.71,4.91A243.15,243.15,0,0,1,1617.72,517.94Z"/><path class="cls-1" d="M1583.85,766.84a245.13,245.13,0,0,1-20.72,20.81,5,5,0,1,0,6.65,7.47,253.4,253.4,0,0,0,21.57-21.66,5,5,0,1,0-7.5-6.62Z"/><path class="cls-1" d="M1638.83,658.52a5,5,0,0,0-5.72,4.16A281.78,281.78,0,0,1,1627,691.5a5,5,0,0,0,3.53,6.13,4.84,4.84,0,0,0,1.3.17,5,5,0,0,0,4.82-3.7,290.27,290.27,0,0,0,6.35-29.86A5,5,0,0,0,1638.83,658.52Z"/><path class="cls-1" d="M1624.08,716.6a5,5,0,0,0-6.77,2A268.18,268.18,0,0,1,1602,743.71a5,5,0,0,0,1.27,7,5,5,0,0,0,7-1.27,275.12,275.12,0,0,0,15.94-26A5,5,0,0,0,1624.08,716.6Z"/><path class="cls-1" d="M1646.32,603.4a5,5,0,1,0-10,.5c.23,4.56.34,9.22.34,13.83,0,5.17-.14,10.43-.43,15.63a5,5,0,0,0,4.72,5.27h.28a5,5,0,0,0,5-4.72c.3-5.38.45-10.83.45-16.18C1646.67,613,1646.55,608.13,1646.32,603.4Z"/><path class="cls-1" d="M1577.77,437.17a5,5,0,0,0-7.4,6.72,267.88,267.88,0,0,1,18.55,22.86,5,5,0,0,0,8.1-5.86A275.68,275.68,0,0,0,1577.77,437.17Z"/><path class="cls-1" d="M1540.05,805.82A256.49,256.49,0,0,1,1515,821.15a5,5,0,1,0,4.71,8.82A263.52,263.52,0,0,0,1545.75,814a5,5,0,1,0-5.7-8.21Z"/><path class="cls-1" d="M1532,396.85a5,5,0,0,0-5.74,8.19,268.09,268.09,0,0,1,23.12,18.2,5,5,0,0,0,6.61-7.51A276.2,276.2,0,0,0,1532,396.85Z"/></g><g id="Pitroad"><path class="cls-2" d="M624.86,852.54l-30.07-.16h0a2.5,2.5,0,0,0,0,5l30.08.16h0a2.5,2.5,0,0,0,0-5Z"/><path class="cls-2" d="M564.71,852.21,534.63,852h0a2.5,2.5,0,0,0,0,5l30.09.19h0a2.5,2.5,0,0,0,0-5Z"/><path class="cls-2" d="M685,852.82l-30.06-.14h0a2.5,2.5,0,0,0,0,5l30.06.14h0a2.5,2.5,0,0,0,0-5Z"/><path class="cls-2" d="M745.1,853.07,715,853h0a2.5,2.5,0,0,0,0,5l30.06.12h0a2.5,2.5,0,0,0,0-5Z"/><path class="cls-2" d="M504.53,851.8l-30.12-.27h0a2.5,2.5,0,0,0,0,5l30.13.27h0a2.5,2.5,0,0,0,0-5Z"/><path class="cls-2" d="M444.27,851.16c-8-.13-13.51-.26-16.29-.38h-.26c-1.94.11-3.94.17-5.94.17h0c-2.43,0-4.95-.09-7.49-.26a2.5,2.5,0,0,0-.33,5c2.65.18,5.27.27,7.82.27h0c2.05,0,4.1-.06,6.1-.17,2.86.13,8.35.25,16.31.38h0a2.5,2.5,0,0,0,0-5Z"/><path class="cls-2" d="M330.08,823.57c-8.42-4.35-17.18-9.28-26-14.64a2.5,2.5,0,0,0-2.59,4.28c8.95,5.42,17.81,10.4,26.34,14.8a2.46,2.46,0,0,0,1.14.28,2.5,2.5,0,0,0,1.15-4.72Z"/><path class="cls-2" d="M278.89,792.75c-8-5.47-16.24-11.32-24.36-17.4a2.5,2.5,0,0,0-3,4c8.18,6.13,16.44,12,24.55,17.54a2.5,2.5,0,0,0,2.81-4.14Z"/><path class="cls-2" d="M805.2,853.29l-30.05-.11h0a2.5,2.5,0,0,0,0,5l30.06.11h0a2.5,2.5,0,1,0,0-5Z"/><path class="cls-2" d="M385.21,845.69a234.8,234.8,0,0,1-28.1-9.56,2.5,2.5,0,1,0-1.89,4.62,239.71,239.71,0,0,0,28.7,9.78,3,3,0,0,0,.65.08,2.5,2.5,0,0,0,.64-4.92Z"/><path class="cls-2" d="M865.31,853.5l-30.06-.1h0a2.5,2.5,0,0,0,0,5l30,.1h0a2.5,2.5,0,0,0,0-5Z"/><path class="cls-2" d="M1226,854.52l-30.07-.07h0a2.5,2.5,0,0,0,0,5l30.07.07h0a2.5,2.5,0,1,0,0-5Z"/><path class="cls-2" d="M1286.16,854.66l-30-.07h-.12a2.5,2.5,0,0,0,0,5l30.08.07h0a2.5,2.5,0,1,0,0-5Z"/><path class="cls-2" d="M1346.38,854.79l-30.12-.06h0a2.5,2.5,0,0,0,0,5l30.12.06h0a2.5,2.5,0,1,0,0-5Z"/><path class="cls-2" d="M230.92,756.9c-14.07-11.48-22.68-19.41-22.77-19.49a2.5,2.5,0,1,0-3.39,3.67c.08.08,8.8,8.11,23,19.7a2.5,2.5,0,0,0,1.58.56,2.47,2.47,0,0,0,1.94-.92A2.51,2.51,0,0,0,230.92,756.9Z"/><path class="cls-2" d="M1165.87,854.38l-30.06-.08h0a2.5,2.5,0,0,0,0,5l30.06.08h0a2.5,2.5,0,0,0,0-5Z"/><path class="cls-2" d="M985.54,853.88l-30-.09h0a2.5,2.5,0,0,0,0,5l30,.09h0a2.5,2.5,0,0,0,0-5Z"/><path class="cls-2" d="M925.44,853.7l-30.11-.1h0a2.5,2.5,0,0,0,0,5l30.11.1h0a2.5,2.5,0,0,0,0-5Z"/><path class="cls-2" d="M1045.64,854.06l-30.05-.09h0a2.5,2.5,0,0,0,0,5l30.06.09h0a2.5,2.5,0,0,0,0-5Z"/><path class="cls-2" d="M1105.75,854.22l-30.06-.08h0a2.5,2.5,0,0,0,0,5l30.06.08h0a2.5,2.5,0,0,0,0-5Z"/><polygon class="cls-2" points="1402.44 857.41 1358.59 838.78 1366.41 857.32 1358.5 875.82 1402.44 857.41"/></g></svg>