<svg id="Road_Course_South_Oval_-_Pit_Road" data-name="Road Course South Oval - Pit Road" xmlns="http://www.w3.org/2000/svg" viewBox="0 0 1920 1080"><defs><style>.cls-1{fill:#0089ba;}.cls-2{fill:#d82520;}</style></defs><title>pitroad</title><g id="Mergeline"><path class="cls-1" d="M1449.83,357.52c-9.6-3.36-19.24-6.57-28.65-9.55a5,5,0,0,0-3,9.54c9.31,2.94,18.85,6.12,28.35,9.45a5.08,5.08,0,0,0,1.66.28,5,5,0,0,0,1.65-9.72Z"/><path class="cls-1" d="M1431.54,849.41a199.06,199.06,0,0,1-29.11,3,5,5,0,0,0,0,10c.49,0,12.23,0,30.75-3.14a5,5,0,1,0-1.65-9.86Z"/><path class="cls-1" d="M1488.25,833.54a276,276,0,0,1-27.93,9.43,5,5,0,0,0,1.35,9.82,5.28,5.28,0,0,0,1.35-.18,287.51,287.51,0,0,0,28.93-9.78,5,5,0,1,0-3.7-9.29Z"/><path class="cls-1" d="M1617.72,517.94a5,5,0,0,0,9.24-3.81,251.43,251.43,0,0,0-13.44-27.52,5,5,0,0,0-8.71,4.91A243.15,243.15,0,0,1,1617.72,517.94Z"/><path class="cls-1" d="M1627,545.86a265.49,265.49,0,0,1,6.25,28.75,5,5,0,0,0,4.93,4.21,5.25,5.25,0,0,0,.79-.06,5,5,0,0,0,4.15-5.73,273.22,273.22,0,0,0-6.49-29.84,5,5,0,1,0-9.63,2.67Z"/><path class="cls-1" d="M1392.15,339.42c-10.21-2.73-18.67-4.65-25.27-5.73l2.58-27.47-10-.93L1353.43,370l10,.94,2.56-27.27c6.14,1,14,2.85,23.61,5.41a4.84,4.84,0,0,0,1.29.18,5,5,0,0,0,1.3-9.84Z"/><path class="cls-1" d="M1506.13,380.7l-1.36-.75c-6-3.57-17.73-8.46-26.58-11.94a5,5,0,0,0-3.66,9.31c12.07,4.75,21,8.75,25.18,11.26l.19.11,1.4.76a4.88,4.88,0,0,0,2.41.63,5,5,0,0,0,2.42-9.38Z"/><path class="cls-1" d="M1646.32,603.4a5,5,0,1,0-10,.5c.23,4.56.34,9.22.34,13.83,0,5.17-.14,10.43-.43,15.63a5,5,0,0,0,4.72,5.27h.28a5,5,0,0,0,5-4.72c.3-5.38.45-10.83.45-16.18C1646.67,613,1646.55,608.13,1646.32,603.4Z"/><path class="cls-1" d="M1624.08,716.6a5,5,0,0,0-6.77,2A268.18,268.18,0,0,1,1602,743.71a5,5,0,0,0,1.27,7,5,5,0,0,0,7-1.27,275.12,275.12,0,0,0,15.94-26A5,5,0,0,0,1624.08,716.6Z"/><path class="cls-1" d="M1577.77,437.17a5,5,0,0,0-7.4,6.72,267.88,267.88,0,0,1,18.55,22.86,5,5,0,0,0,8.1-5.86A275.68,275.68,0,0,0,1577.77,437.17Z"/><path class="cls-1" d="M1540.05,805.82A256.49,256.49,0,0,1,1515,821.15a5,5,0,1,0,4.71,8.82A263.52,263.52,0,0,0,1545.75,814a5,5,0,1,0-5.7-8.21Z"/><path class="cls-1" d="M1638.83,658.52a5,5,0,0,0-5.72,4.16A281.78,281.78,0,0,1,1627,691.5a5,5,0,0,0,3.53,6.13,4.84,4.84,0,0,0,1.3.17,5,5,0,0,0,4.82-3.7,290.27,290.27,0,0,0,6.35-29.86A5,5,0,0,0,1638.83,658.52Z"/><path class="cls-1" d="M1583.85,766.84a245.13,245.13,0,0,1-20.72,20.81,5,5,0,1,0,6.65,7.47,253.4,253.4,0,0,0,21.57-21.66,5,5,0,1,0-7.5-6.62Z"/><path class="cls-1" d="M1532,396.85a5,5,0,0,0-5.74,8.19,268.09,268.09,0,0,1,23.12,18.2,5,5,0,0,0,6.61-7.51A276.2,276.2,0,0,0,1532,396.85Z"/></g><g id="Pitroad"><path class="cls-2" d="M862.53,853.49l-30-.1h0a2.5,2.5,0,0,0,0,5l30,.1h0a2.5,2.5,0,0,0,0-5Z"/><path class="cls-2" d="M742.39,853.06l-30-.13h0a2.5,2.5,0,0,0,0,5l30,.13h0a2.5,2.5,0,0,0,0-5Z"/><path class="cls-2" d="M682.32,852.8l-30.05-.13h0a2.5,2.5,0,0,0,0,5l30,.13h0a2.5,2.5,0,0,0,0-5Z"/><path class="cls-2" d="M622.23,852.52l-30-.16h0a2.5,2.5,0,0,0,0,5l30.05.16h0a2.5,2.5,0,0,0,0-5Z"/><path class="cls-2" d="M802.46,853.28l-30-.11h0a2.5,2.5,0,0,0,0,5l30,.11h0a2.5,2.5,0,0,0,0-5Z"/><path class="cls-2" d="M447.23,831.2c-8.31-4.42-16.9-9.55-25.52-15.25a2.5,2.5,0,1,0-2.76,4.17c8.75,5.79,17.48,11,25.94,15.5a2.44,2.44,0,0,0,1.17.29,2.5,2.5,0,0,0,1.17-4.71Z"/><path class="cls-2" d="M397.5,798.57c-7.56-5.86-15.31-12.24-23-19a2.5,2.5,0,1,0-3.29,3.76c7.78,6.81,15.61,13.26,23.25,19.17a2.47,2.47,0,0,0,1.53.53,2.5,2.5,0,0,0,1.53-4.48Z"/><path class="cls-2" d="M502.62,851.26a150.23,150.23,0,0,1-28.4-7.78,2.5,2.5,0,0,0-1.76,4.68,155.66,155.66,0,0,0,29.36,8,2.69,2.69,0,0,0,.4,0,2.5,2.5,0,0,0,.4-5Z"/><path class="cls-2" d="M562.14,852.19l-30-.19h0a2.5,2.5,0,0,0,0,5l30,.19h0a2.5,2.5,0,0,0,0-5Z"/><path class="cls-2" d="M1343.24,854.79l-30.06-.07h0a2.5,2.5,0,0,0,0,5l30.06.07h0a2.5,2.5,0,0,0,0-5Z"/><path class="cls-2" d="M1223,854.52l-30-.08h0a2.5,2.5,0,0,0,0,5l30,.08h0a2.5,2.5,0,0,0,0-5Z"/><path class="cls-2" d="M922.57,853.69l-30-.1h0a2.5,2.5,0,0,0,0,5l30,.1h0a2.5,2.5,0,1,0,0-5Z"/><path class="cls-2" d="M1283.12,854.66l-30.06-.07h0a2.5,2.5,0,0,0,0,5l30.06.07h0a2.5,2.5,0,0,0,0-5Z"/><path class="cls-2" d="M1162.93,854.37l-30-.08h0a2.5,2.5,0,0,0,0,5l30.05.08h0a2.5,2.5,0,0,0,0-5Z"/><path class="cls-2" d="M982.71,853.88l-30-.09a2.47,2.47,0,0,0-2.5,2.49,2.5,2.5,0,0,0,2.49,2.51l30,.09h0a2.5,2.5,0,0,0,0-5Z"/><path class="cls-2" d="M1042.78,854.05l-30-.09h0a2.5,2.5,0,0,0,0,5l30,.09h0a2.5,2.5,0,0,0,0-5Z"/><path class="cls-2" d="M1102.85,854.21l-30-.08h0a2.5,2.5,0,0,0,0,5l30,.08h0a2.5,2.5,0,0,0,0-5Z"/><polygon class="cls-2" points="1402.44 857.41 1358.61 838.75 1366.41 857.29 1358.49 875.78 1402.44 857.41"/></g></svg>