<?xml version="1.0" encoding="utf-8"?>
<!-- Generator: Adobe Illustrator 24.0.1, SVG Export Plug-In . SVG Version: 6.00 Build 0)  -->
<svg version="1.1" id="Indianapolis_Road_-_Pit_Road"
	 xmlns="http://www.w3.org/2000/svg" xmlns:xlink="http://www.w3.org/1999/xlink" x="0px" y="0px" viewBox="0 0 1920 1080"
	 style="enable-background:new 0 0 1920 1080;" xml:space="preserve">
<style type="text/css">
	.st0{fill:#D82520;}
</style>
<title>pitroad</title>
<g id="Pitroad">
	<path class="st0" d="M938.2,898.5l-30,0c-1.4,0-2.5,1.1-2.5,2.5s1.1,2.5,2.5,2.5l30,0c0,0,0,0,0,0c1.4,0,2.5-1.1,2.5-2.5
		C940.7,899.6,939.6,898.5,938.2,898.5z"/>
	<path class="st0" d="M1058.2,898.6l-30,0c0,0,0,0,0,0c-1.4,0-2.5,1.1-2.5,2.5c0,1.4,1.1,2.5,2.5,2.5l30,0c0,0,0,0,0,0
		c1.4,0,2.5-1.1,2.5-2.5C1060.7,899.7,1059.6,898.6,1058.2,898.6z"/>
	<path class="st0" d="M878.2,898.5l-30,0c-1.4,0-2.5,1.1-2.5,2.5s1.1,2.5,2.5,2.5l30,0c1.4,0,2.5-1.1,2.5-2.5
		S879.6,898.5,878.2,898.5z"/>
	<path class="st0" d="M1118.3,898.7c-10,0-20,0-30-0.1c0,0,0,0,0,0c-1.4,0-2.5,1.1-2.5,2.5c0,1.4,1.1,2.5,2.5,2.5
		c10,0,20.1,0,30,0.1c0,0,0,0,0,0c1.4,0,2.5-1.1,2.5-2.5C1120.8,899.8,1119.7,898.7,1118.3,898.7z"/>
	<path class="st0" d="M1238.4,899c-9.9,0-19.9-0.1-30-0.1c0,0,0,0,0,0c-1.4,0-2.5,1.1-2.5,2.5c0,1.4,1.1,2.5,2.5,2.5
		c10.1,0,20.1,0.1,30,0.1c0,0,0,0,0,0c1.4,0,2.5-1.1,2.5-2.5C1240.9,900.1,1239.7,899,1238.4,899z"/>
	<path class="st0" d="M1178.3,898.8c-10,0-20-0.1-30-0.1c0,0,0,0,0,0c-1.4,0-2.5,1.1-2.5,2.5c0,1.4,1.1,2.5,2.5,2.5
		c10.1,0,20.1,0,30,0.1c0,0,0,0,0,0c1.4,0,2.5-1.1,2.5-2.5C1180.8,900,1179.7,898.8,1178.3,898.8z"/>
	<path class="st0" d="M578.1,898.9C578.1,898.9,578.1,898.9,578.1,898.9l-30,0.1c-1.4,0-2.5,1.1-2.5,2.5c0,1.4,1.1,2.5,2.5,2.5
		c0,0,0,0,0,0l30-0.1c1.4,0,2.5-1.1,2.5-2.5C580.6,900,579.5,898.9,578.1,898.9z"/>
	<path class="st0" d="M518.1,899C518.1,899,518.1,899,518.1,899l-22.8,0.1l6.8-16l-43.9,18.6l43.9,18.5l-6.8-16.1l22.8-0.1
		c1.4,0,2.5-1.1,2.5-2.5C520.6,900.1,519.5,899,518.1,899z"/>
	<path class="st0" d="M638.1,898.8C638.1,898.8,638.1,898.8,638.1,898.8l-30,0.1c-1.4,0-2.5,1.1-2.5,2.5c0,1.4,1.1,2.5,2.5,2.5
		c0,0,0,0,0,0l30-0.1c1.4,0,2.5-1.1,2.5-2.5C640.6,899.9,639.5,898.8,638.1,898.8z"/>
	<path class="st0" d="M758.2,898.6C758.2,898.6,758.2,898.6,758.2,898.6l-30,0c-1.4,0-2.5,1.1-2.5,2.5c0,1.4,1.1,2.5,2.5,2.5
		c0,0,0,0,0,0l30,0c1.4,0,2.5-1.1,2.5-2.5C760.7,899.7,759.6,898.6,758.2,898.6z"/>
	<path class="st0" d="M698.2,898.7C698.2,898.7,698.2,898.7,698.2,898.7l-30,0c-1.4,0-2.5,1.1-2.5,2.5c0,1.4,1.1,2.5,2.5,2.5
		c0,0,0,0,0,0l30,0c1.4,0,2.5-1.1,2.5-2.5C700.7,899.8,699.5,898.7,698.2,898.7z"/>
	<path class="st0" d="M818.2,898.5l-30,0c-1.4,0-2.5,1.1-2.5,2.5c0,1.4,1.1,2.5,2.5,2.5c0,0,0,0,0,0l30,0c1.4,0,2.5-1.1,2.5-2.5
		C820.7,899.7,819.6,898.5,818.2,898.5z"/>
	<path class="st0" d="M998.2,898.5l-30,0h0c-1.4,0-2.5,1.1-2.5,2.5s1.1,2.5,2.5,2.5l30,0c0,0,0,0,0,0c1.4,0,2.5-1.1,2.5-2.5
		C1000.7,899.7,999.6,898.5,998.2,898.5z"/>
	<path class="st0" d="M1738.3,777.2c-1.1-0.8-2.7-0.5-3.5,0.7c-5.6,8.2-11.7,16.1-18,23.6c-0.9,1.1-0.8,2.6,0.3,3.5
		c0.5,0.4,1,0.6,1.6,0.6c0.7,0,1.4-0.3,1.9-0.9c6.5-7.6,12.6-15.7,18.3-24C1739.8,779.6,1739.5,778,1738.3,777.2z"/>
	<path class="st0" d="M1649.3,859.1c-8.4,5.1-17.2,9.9-26.1,14.2c-1.2,0.6-1.8,2.1-1.2,3.3c0.4,0.9,1.3,1.4,2.3,1.4
		c0.4,0,0.7-0.1,1.1-0.2c9.1-4.4,18-9.3,26.6-14.5c1.2-0.7,1.5-2.3,0.8-3.4C1652,858.8,1650.5,858.4,1649.3,859.1z"/>
	<path class="st0" d="M1766.6,724.5c-1.3-0.5-2.7,0-3.3,1.3c-3.9,9.2-8.3,18.2-13,26.7c-0.7,1.2-0.2,2.7,1,3.4
		c0.4,0.2,0.8,0.3,1.2,0.3c0.9,0,1.7-0.5,2.2-1.3c4.7-8.7,9.2-17.8,13.2-27.2C1768.4,726.5,1767.9,725,1766.6,724.5z"/>
	<path class="st0" d="M1696.4,823c-7.1,6.8-14.7,13.3-22.6,19.3c-1.1,0.8-1.3,2.4-0.5,3.5c0.5,0.6,1.2,1,2,1c0.5,0,1.1-0.2,1.5-0.5
		c8-6.1,15.7-12.7,23-19.6c1-1,1-2.5,0.1-3.5C1699,822.1,1697.4,822.1,1696.4,823z"/>
	<path class="st0" d="M1794.7,608.5c-1.4-0.2-2.6,0.9-2.7,2.2c-1,10-2.4,20-4,29.5c-0.2,1.4,0.7,2.7,2,2.9c0.1,0,0.3,0,0.4,0
		c1.2,0,2.3-0.9,2.5-2.1c1.6-9.7,3-19.7,4.1-29.9C1797.1,609.8,1796.1,608.6,1794.7,608.5z"/>
	<path class="st0" d="M1785,667.5c-1.3-0.3-2.7,0.5-3,1.8c-2.4,9.8-5.1,19.4-8.2,28.6c-0.4,1.3,0.3,2.7,1.6,3.2
		c0.3,0.1,0.5,0.1,0.8,0.1c1,0,2-0.7,2.4-1.7c3.1-9.3,5.9-19.1,8.3-29C1787.1,669.2,1786.3,667.9,1785,667.5z"/>
	<path class="st0" d="M1595.7,885c-9.3,3.4-18.9,6.4-28.4,9c-1.3,0.4-2.1,1.7-1.8,3.1c0.3,1.1,1.3,1.9,2.4,1.9c0.2,0,0.4,0,0.6-0.1
		c9.7-2.5,19.4-5.6,28.9-9.1c1.3-0.5,2-1.9,1.5-3.2C1598.5,885.2,1597,884.5,1595.7,885z"/>
	<path class="st0" d="M1418.5,900c-9.8-0.1-19.8-0.2-30-0.2c0,0,0,0,0,0c-1.4,0-2.5,1.1-2.5,2.5c0,1.4,1.1,2.5,2.5,2.5
		c10.2,0.1,20.2,0.2,30,0.2c0,0,0,0,0,0c1.4,0,2.5-1.1,2.5-2.5C1421,901.2,1419.8,900,1418.5,900z"/>
	<path class="st0" d="M1298.4,899.3c-9.9,0-19.9-0.1-30-0.1c0,0,0,0,0,0c-1.4,0-2.5,1.1-2.5,2.5c0,1.4,1.1,2.5,2.5,2.5
		c10.1,0,20.1,0.1,30,0.1c0,0,0,0,0,0c1.4,0,2.5-1.1,2.5-2.5C1300.9,900.4,1299.8,899.3,1298.4,899.3z"/>
	<path class="st0" d="M1358.4,899.6c-9.8-0.1-19.9-0.1-30-0.2c0,0,0,0,0,0c-1.4,0-2.5,1.1-2.5,2.5c0,1.4,1.1,2.5,2.5,2.5
		c10.2,0.1,20.2,0.1,30,0.2c0,0,0,0,0,0c1.4,0,2.5-1.1,2.5-2.5C1360.9,900.7,1359.8,899.6,1358.4,899.6z"/>
	<path class="st0" d="M1478.5,900.6c-9.7-0.1-19.7-0.2-30-0.3c0,0,0,0,0,0c-1.4,0-2.5,1.1-2.5,2.5c0,1.4,1.1,2.5,2.5,2.5
		c10.3,0.1,20.4,0.2,30,0.3c0,0,0,0,0,0c1.4,0,2.5-1.1,2.5-2.5C1481,901.8,1479.9,900.6,1478.5,900.6z"/>
	<path class="st0" d="M1538.1,900c-6.3,0.9-10.1,1.2-10.8,1.3c-6.1-0.1-12.4-0.2-18.9-0.3c0,0,0,0,0,0c-1.4,0-2.5,1.1-2.5,2.5
		c0,1.4,1.1,2.5,2.5,2.5c6.5,0.1,12.9,0.2,18.9,0.3l0.1,0l0.1,0c0.2,0,4.2-0.3,11.3-1.3c1.4-0.2,2.3-1.5,2.1-2.8
		S1539.5,899.8,1538.1,900z"/>
</g>
</svg>
