<svg id="Indianapolis_Bike_-_Pit_Road" data-name="Indianapolis Bike - Pit Road" xmlns="http://www.w3.org/2000/svg" viewBox="0 0 1920 1080"><defs><style>.cls-1{fill:#d82520;}</style></defs><path id="pitroad" class="cls-1" d="M791,901.05a2.5,2.5,0,0,1-2.5,2.5l-30,0h0a2.5,2.5,0,0,1,0-5l30,0h0A2.5,2.5,0,0,1,791,901.05Zm-62.53-2.44h0l-30,0a2.5,2.5,0,0,0,0,5h0l30,0a2.5,2.5,0,0,0,0-5Zm-60,.08h0l-30,0a2.5,2.5,0,1,0,0,5h0l30,0a2.5,2.5,0,0,0,0-5Zm300.12-.15-30,0h0a2.5,2.5,0,1,0,0,5l30,0h0a2.5,2.5,0,0,0,0-5Zm-120,0h-30a2.5,2.5,0,1,0,0,5h30a2.5,2.5,0,0,0,0-5Zm750.57-215c.23,2.26.51,4.9.83,7.83a2.49,2.49,0,0,0,2.48,2.24l.27,0a2.5,2.5,0,0,0,2.22-2.75l-.83-7.82c-.23-2.18-.58-4.7-.94-7.37-.6-4.37-1.28-9.32-1.72-14.57a2.5,2.5,0,0,0-5,.41c.44,5.38,1.13,10.41,1.74,14.84C1598.54,678.9,1598.89,681.38,1599.11,683.48ZM608.4,898.8h0l-30,.06a2.5,2.5,0,0,0,0,5h0l30-.06a2.5,2.5,0,1,0,0-5Zm991.92-264.93a2.55,2.55,0,0,0,.72.1,2.5,2.5,0,0,0,2.39-1.79,36.23,36.23,0,0,1,10.77-17.4L1612,630.36l37.57-29.29-47.19-6.47,11.19,14.28a40.9,40.9,0,0,0-14.95,21.87A2.51,2.51,0,0,0,1600.32,633.87ZM1028.56,898.59l-30,0h0a2.5,2.5,0,0,0,0,5l30,0h0a2.5,2.5,0,1,0,0-5Zm-540.26.49h0l-30.08.09a2.5,2.5,0,0,0,0,5h0l30.08-.09a2.5,2.5,0,0,0,0-5Zm60.06-.15h0l-30,.07a2.5,2.5,0,1,0,0,5h0l30-.07a2.5,2.5,0,1,0,0-5Zm360.21-.42h-30a2.5,2.5,0,0,0,0,5h30a2.5,2.5,0,0,0,0-5Zm654.8-19a159.07,159.07,0,0,1-26.53,12.95,2.5,2.5,0,1,0,1.77,4.67A164.44,164.44,0,0,0,1566,883.73a2.5,2.5,0,1,0-2.61-4.27Zm-114.51,21.19q-14.5-.17-30-.32h0a2.5,2.5,0,0,0,0,5q15.49.15,30,.32h0a2.5,2.5,0,0,0,0-5ZM1607.25,837a2.49,2.49,0,0,0-3.36,1.09,91.45,91.45,0,0,1-17.31,23.34,2.51,2.51,0,0,0,1.76,4.28,2.45,2.45,0,0,0,1.76-.73,96.36,96.36,0,0,0,18.25-24.62A2.5,2.5,0,0,0,1607.25,837Zm-98.84,63.12a83.81,83.81,0,0,1-13.93,1.12l-15.6-.24a2.5,2.5,0,0,0-.08,5l15.61.24h1a90.52,90.52,0,0,0,13.79-1.18,2.5,2.5,0,0,0-.78-4.94Zm102.93-149.6c-1.07-9.92-2.18-20.2-3.23-29.89a2.5,2.5,0,0,0-5,.54c1,9.69,2.16,20,3.23,29.88a2.5,2.5,0,0,0,2.48,2.23h.27A2.49,2.49,0,0,0,1611.34,750.56Zm.48,27.66a2.52,2.52,0,0,0-2.22,2.76l2.53,23.26c0,2.07-.11,4.16-.29,6.2a2.52,2.52,0,0,0,2.28,2.71h.22a2.52,2.52,0,0,0,2.49-2.29c.19-2.22.29-4.49.3-6.75V804l-2.55-23.54A2.51,2.51,0,0,0,1611.82,778.22Zm-223,121.83-30-.24h0a2.5,2.5,0,0,0,0,5l30,.24h0a2.5,2.5,0,0,0,0-5Zm-240.13-1.22-30-.08h0a2.5,2.5,0,0,0,0,5l30,.08h0a2.5,2.5,0,0,0,0-5Zm-60.07-.14-30-.06h0a2.5,2.5,0,0,0,0,5l30,.06h0a2.5,2.5,0,0,0,0-5Zm120.1.33-30-.11h0a2.5,2.5,0,0,0,0,5l30,.11h0a2.5,2.5,0,0,0,0-5Zm60,.25-30-.14h0a2.5,2.5,0,0,0,0,5l30,.14h0a2.5,2.5,0,0,0,0-5Zm60,.34q-14.77-.11-30-.18h0a2.5,2.5,0,0,0,0,5q15.23.08,30,.18h0a2.5,2.5,0,0,0,0-5Z"/></svg>