<?xml version="1.0" encoding="utf-8"?>
<!-- Generator: Adobe Illustrator 24.0.1, SVG Export Plug-In . SVG Version: 6.00 Build 0)  -->
<svg version="1.1" id="Oval_-_Pit_Road" xmlns="http://www.w3.org/2000/svg" xmlns:xlink="http://www.w3.org/1999/xlink" x="0px"
	 y="0px" viewBox="0 0 1920 1080" style="enable-background:new 0 0 1920 1080;" xml:space="preserve">
<style type="text/css">
	.st0{fill:#016699;}
	.st1{fill:#D82520;}
</style>
<title>pitroad</title>
<g id="Mergeline">
	<path class="st0" d="M1318.5,914.6l-30-1.4c-2.8-0.1-5.1,2-5.2,4.8c-0.1,2.8,2,5.1,4.8,5.2l30,1.4c0.1,0,0.2,0,0.2,0
		c2.7,0,4.9-2.1,5-4.8C1323.4,917.1,1321.2,914.8,1318.5,914.6z"/>
	<path class="st0" d="M1378.4,917.5l-30-1.4c-2.8-0.1-5.1,2-5.2,4.8c-0.1,2.8,2,5.1,4.8,5.2l30,1.4c0.1,0,0.2,0,0.2,0
		c2.7,0,4.9-2.1,5-4.8C1383.3,920,1381.2,917.6,1378.4,917.5z"/>
	<path class="st0" d="M1258.5,911.8l-30-1.4c-2.8-0.1-5.1,2-5.2,4.8c-0.1,2.8,2,5.1,4.8,5.2l30,1.4c0.1,0,0.2,0,0.2,0
		c2.7,0,4.9-2.1,5-4.8C1263.4,914.3,1261.3,911.9,1258.5,911.8z"/>
	<path class="st0" d="M1198.6,909l-30-1.4c-2.8-0.1-5.1,2-5.2,4.8c-0.1,2.8,2,5.1,4.8,5.2l30,1.4c0.1,0,0.2,0,0.2,0
		c2.7,0,4.9-2.1,5-4.8C1203.5,911.5,1201.4,909.1,1198.6,909z"/>
	<path class="st0" d="M1558.2,926l-30-1.4c-2.8-0.1-5.1,2-5.2,4.8c-0.1,2.8,2,5.1,4.8,5.2l30,1.4c0.1,0,0.2,0,0.2,0
		c2.7,0,4.9-2.1,5-4.8C1563.1,928.5,1561,926.1,1558.2,926z"/>
	<path class="st0" d="M1498.3,923.2l-30-1.4c-2.8-0.1-5.1,2-5.2,4.8c-0.1,2.8,2,5.1,4.8,5.2l30,1.4c0.1,0,0.2,0,0.2,0
		c2.7,0,4.9-2.1,5-4.8C1503.2,925.6,1501,923.3,1498.3,923.2z"/>
	<path class="st0" d="M1438.3,920.3l-30-1.4c-2.8-0.1-5.1,2-5.2,4.8c-0.1,2.8,2,5.1,4.8,5.2l30,1.4c0.1,0,0.2,0,0.2,0
		c2.7,0,4.9-2.1,5-4.8C1443.2,922.8,1441.1,920.4,1438.3,920.3z"/>
	<path class="st0" d="M1599.4,900.9l-1.4,27c-0.2,0-0.3-0.1-0.5-0.1l-9.4-0.4c-2.8-0.1-5.1,2-5.2,4.8c-0.1,2.8,2,5.1,4.8,5.2
		l9.4,0.4c0.1,0,0.2,0,0.2,0c0.1,0,0.2,0,0.2,0l-1.4,28.1l10,0.5l3.3-65L1599.4,900.9z"/>
</g>
<g id="Pitroad">
	<path class="st1" d="M752.6,906.9l-30-0.2c0,0,0,0,0,0c-1.4,0-2.5,1.1-2.5,2.5c0,1.4,1.1,2.5,2.5,2.5l30,0.2c0,0,0,0,0,0
		c1.4,0,2.5-1.1,2.5-2.5C755.1,908,754,906.9,752.6,906.9z"/>
	<path class="st1" d="M572.8,919.5c-9.8,1.1-19.9,2.2-29.9,3.3c-1.4,0.1-2.4,1.4-2.2,2.8c0.1,1.3,1.2,2.2,2.5,2.2c0.1,0,0.2,0,0.3,0
		c10-1.1,20.1-2.2,29.9-3.3c1.4-0.2,2.4-1.4,2.2-2.8S574.1,919.4,572.8,919.5z"/>
	<path class="st1" d="M692.4,906.5c-0.2,0-15.9,1.2-30,2.7c-1.4,0.1-2.4,1.4-2.2,2.7c0.1,1.3,1.2,2.2,2.5,2.2c0.1,0,0.2,0,0.3,0
		c13.8-1.4,29.7-2.7,29.9-2.7c1.4-0.1,2.4-1.3,2.3-2.7C694.9,907.4,693.8,906.4,692.4,906.5z"/>
	<path class="st1" d="M632.5,912.7c-8.4,1-18.4,2.2-29.9,3.4c-1.4,0.2-2.4,1.4-2.2,2.8c0.1,1.3,1.2,2.2,2.5,2.2c0.1,0,0.2,0,0.3,0
		c11.4-1.3,21.5-2.5,29.9-3.5c1.4-0.2,2.4-1.4,2.2-2.8C635.1,913.5,633.9,912.6,632.5,912.7z"/>
	<path class="st1" d="M513,926c-10.4,1.1-20.5,2.2-29.9,3.2c-1.4,0.1-2.4,1.4-2.2,2.8c0.1,1.3,1.2,2.2,2.5,2.2c0.1,0,0.2,0,0.3,0
		c9.4-1,19.5-2.1,29.9-3.2c1.4-0.1,2.4-1.4,2.2-2.8C515.6,926.9,514.4,925.9,513,926z"/>
	<path class="st1" d="M453.2,932.4c-18.3,1.9-30,3.1-30,3.1c-1.4,0.1-2.4,1.4-2.2,2.7c0.1,1.3,1.2,2.2,2.5,2.2c0.1,0,0.2,0,0.3,0
		c0,0,11.7-1.2,30-3.1c1.4-0.1,2.4-1.4,2.2-2.7C455.8,933.2,454.6,932.2,453.2,932.4z"/>
	<path class="st1" d="M1112.6,909.6l-30-0.2c0,0,0,0,0,0c-1.4,0-2.5,1.1-2.5,2.5c0,1.4,1.1,2.5,2.5,2.5l30,0.2c0,0,0,0,0,0
		c1.4,0,2.5-1.1,2.5-2.5C1115.1,910.7,1113.9,909.6,1112.6,909.6z"/>
	<path class="st1" d="M812.6,907.4l-30-0.2c0,0,0,0,0,0c-1.4,0-2.5,1.1-2.5,2.5c0,1.4,1.1,2.5,2.5,2.5l30,0.2c0,0,0,0,0,0
		c1.4,0,2.5-1.1,2.5-2.5C815.1,908.5,814,907.4,812.6,907.4z"/>
	<path class="st1" d="M992.6,908.7l-30-0.2c0,0,0,0,0,0c-1.4,0-2.5,1.1-2.5,2.5c0,1.4,1.1,2.5,2.5,2.5l30,0.2c0,0,0,0,0,0
		c1.4,0,2.5-1.1,2.5-2.5C995.1,909.8,993.9,908.7,992.6,908.7z"/>
	<path class="st1" d="M1052.6,909.1l-30-0.2c0,0,0,0,0,0c-1.4,0-2.5,1.1-2.5,2.5c0,1.4,1.1,2.5,2.5,2.5l30,0.2c0,0,0,0,0,0
		c1.4,0,2.5-1.1,2.5-2.5C1055.1,910.3,1053.9,909.2,1052.6,909.1z"/>
	<path class="st1" d="M932.6,908.3l-30-0.2c0,0,0,0,0,0c-1.4,0-2.5,1.1-2.5,2.5c0,1.4,1.1,2.5,2.5,2.5l30,0.2c0,0,0,0,0,0
		c1.4,0,2.5-1.1,2.5-2.5C935.1,909.4,933.9,908.3,932.6,908.3z"/>
	<path class="st1" d="M872.6,907.8l-30-0.2c0,0,0,0,0,0c-1.4,0-2.5,1.1-2.5,2.5c0,1.4,1.1,2.5,2.5,2.5l30,0.2c0,0,0,0,0,0
		c1.4,0,2.5-1.1,2.5-2.5C875.1,908.9,874,907.8,872.6,907.8z"/>
	<polygon class="st1" points="1168.4,912.6 1124.7,893.7 1132.4,912.3 1124.4,930.7 	"/>
</g>
</svg>
