<?xml version="1.0" encoding="utf-8"?>
<!-- Generator: Adobe Illustrator 24.0.1, SVG Export Plug-In . SVG Version: 6.00 Build 0)  -->
<svg version="1.1" id="East_-_Pit_Road" xmlns="http://www.w3.org/2000/svg" xmlns:xlink="http://www.w3.org/1999/xlink" x="0px"
	 y="0px" viewBox="0 0 1920 1080" style="enable-background:new 0 0 1920 1080;" xml:space="preserve">
<style type="text/css">
	.st0{fill:#D82520;}
</style>
<title>pitroad</title>
<g id="Pitroad">
	<path class="st0" d="M941.6,593.2c-0.7-1.2-2.3-1.5-3.4-0.8c-1.2,0.7-1.5,2.3-0.8,3.5c0.2,0.3,5.3,8.3,20.6,22.6
		c0.5,0.5,1.1,0.7,1.7,0.7c0.7,0,1.3-0.3,1.8-0.8c0.9-1,0.9-2.6-0.1-3.5C946.7,601,941.6,593.3,941.6,593.2z"/>
	<path class="st0" d="M1013.6,633.5c-1.9,0-3.7,0-5.4,0c-3.8,0-6.9,0-9,0.1c-0.6,0-1.2,0-1.7,0c-4.5,0-8.9-0.6-12.9-1.9
		c-1.3-0.4-2.7,0.3-3.1,1.6c-0.4,1.3,0.3,2.7,1.6,3.1c4.5,1.4,9.3,2.2,14.4,2.2c0.6,0,1.3,0,1.9,0c2.1-0.1,5.1-0.1,8.9-0.1
		c1.7,0,3.5,0,5.4,0c0,0,0,0,0,0c1.4,0,2.5-1.1,2.5-2.5C1016.1,634.7,1014.9,633.5,1013.6,633.5z"/>
	<path class="st0" d="M1072.8,630.7c-16.6,3.8-28.2,3.4-28.6,3.4l-0.5,0c-1.4-0.1-2.5,1.1-2.6,2.4s1.1,2.5,2.4,2.6l0.5,0
		c0,0,0.6,0,1.7,0c3.9,0,14.4-0.3,28.2-3.5c1.3-0.3,2.2-1.7,1.9-3C1075.4,631.2,1074.1,630.4,1072.8,630.7z"/>
	<path class="st0" d="M1152.6,609l-47.4-4.8l11.2,13.3l-15,4.6c-1.3,0.4-2.1,1.8-1.7,3.1c0.3,1.1,1.3,1.8,2.4,1.8
		c0.2,0,0.5,0,0.7-0.1l15-4.6l-1.8,17.3L1152.6,609z"/>
</g>
</svg>
