<?xml version="1.0" encoding="utf-8"?>
<!-- Generator: Adobe Illustrator 24.0.1, SVG Export Plug-In . SVG Version: 6.00 Build 0)  -->
<svg version="1.1" id="South_-_Pit_Road" xmlns="http://www.w3.org/2000/svg" xmlns:xlink="http://www.w3.org/1999/xlink" x="0px"
	 y="0px" viewBox="0 0 1920 1080" style="enable-background:new 0 0 1920 1080;" xml:space="preserve">
<style type="text/css">
	.st0{fill:#D82520;}
</style>
<title>pitroad</title>
<g id="Pitroad">
	<path class="st0" d="M1400,638.2c0.6-1.2,0.1-2.7-1.1-3.3c-1.2-0.6-2.7-0.1-3.3,1.1l-7.2,14.6l-11.4-13.2l-2.8,47.5l36-31.2
		l-17.4-1L1400,638.2z"/>
	<path class="st0" d="M1425.3,581c-1.2-0.6-2.7-0.1-3.3,1.1l-13.2,26.9c-0.6,1.2-0.1,2.7,1.1,3.3c0.4,0.2,0.7,0.3,1.1,0.3
		c0.9,0,1.8-0.5,2.2-1.4l13.2-26.9C1427.1,583.1,1426.6,581.6,1425.3,581z"/>
</g>
</svg>
