<?xml version="1.0" encoding="utf-8"?>
<!-- Generator: Adobe Illustrator 24.0.1, SVG Export Plug-In . SVG Version: 6.00 Build 0)  -->
<svg version="1.1" id="North_-_Pit_Road" xmlns="http://www.w3.org/2000/svg" xmlns:xlink="http://www.w3.org/1999/xlink" x="0px"
	 y="0px" viewBox="0 0 1920 1080" style="enable-background:new 0 0 1920 1080;" xml:space="preserve">
<style type="text/css">
	.st0{fill:#D82520;}
</style>
<title>pitroad</title>
<g id="Pitroad">
	<path class="st0" d="M234.4,773.9c-0.5-1.3-1.9-1.9-3.2-1.4c-1.3,0.5-1.9,1.9-1.4,3.2c3.7,9.5,8.1,18.7,13.2,27.3
		c0.5,0.8,1.3,1.2,2.2,1.2c0.4,0,0.9-0.1,1.3-0.3c1.2-0.7,1.6-2.2,0.9-3.4C242.3,792.1,238,783.2,234.4,773.9z"/>
	<path class="st0" d="M221.6,716.3c-0.1-1.4-1.3-2.4-2.7-2.3c-1.4,0.1-2.4,1.3-2.3,2.7c0.8,10.3,2.3,20.4,4.4,30
		c0.3,1.2,1.3,2,2.4,2c0.2,0,0.4,0,0.5-0.1c1.3-0.3,2.2-1.6,1.9-3C223.9,736.2,222.4,726.3,221.6,716.3z"/>
	<path class="st0" d="M271,516.1l-36.6,30.5l17.4,1.3c-3.2,7-6.2,14.1-9,21.2c-0.5,1.3,0.1,2.7,1.4,3.2c0.3,0.1,0.6,0.2,0.9,0.2
		c1,0,1.9-0.6,2.3-1.6c2.8-7,5.7-13.9,8.8-20.7l11.1,13.3L271,516.1z"/>
	<path class="st0" d="M218.5,689c0,0,0.1,0,0.1,0c1.3,0,2.4-1.1,2.5-2.4c0.4-9.6,1.3-19.6,2.8-29.6c0.2-1.4-0.8-2.6-2.1-2.8
		c-1.4-0.2-2.6,0.8-2.8,2.1c-1.5,10.2-2.4,20.3-2.8,30.1C216.1,687.8,217.1,689,218.5,689z"/>
	<path class="st0" d="M235.8,595.9c-1.3-0.4-2.7,0.3-3.1,1.6c-3.1,9.7-5.8,19.5-8.1,29.1c-0.3,1.3,0.5,2.7,1.9,3
		c0.2,0,0.4,0.1,0.6,0.1c1.1,0,2.2-0.8,2.4-1.9c2.2-9.4,4.9-19.1,8-28.7C237.9,597.7,237.1,596.3,235.8,595.9z"/>
	<path class="st0" d="M484.3,932.6c-4.6-0.5-9.3-1.2-13.8-1.8c-1.4-0.2-2.6,0.7-2.8,2.1c-0.2,1.4,0.7,2.6,2.1,2.8
		c4.6,0.7,9.3,1.3,14,1.8c0.1,0,0.2,0,0.3,0c1.2,0,2.3-0.9,2.5-2.2C486.6,934,485.6,932.7,484.3,932.6z"/>
	<path class="st0" d="M441,925.6c-9.9-2.1-19.6-4.5-28.9-7.1c-1.3-0.4-2.7,0.4-3.1,1.7c-0.4,1.3,0.4,2.7,1.7,3.1
		c9.5,2.7,19.3,5.1,29.3,7.2c0.2,0,0.3,0.1,0.5,0.1c1.2,0,2.2-0.8,2.4-2C443.3,927.2,442.4,925.9,441,925.6z"/>
	<path class="st0" d="M263.3,825.6c-0.8-1.1-2.4-1.3-3.5-0.5c-1.1,0.8-1.3,2.4-0.5,3.5c5.9,7.7,12.7,15.3,20.2,22.6
		c0.5,0.5,1.1,0.7,1.7,0.7c0.7,0,1.3-0.3,1.8-0.8c1-1,0.9-2.6,0-3.5C275.6,840.6,269,833.1,263.3,825.6z"/>
	<path class="st0" d="M383.8,909.2c-9.4-3.5-18.7-7.4-27.4-11.5c-1.2-0.6-2.7-0.1-3.3,1.2c-0.6,1.2-0.1,2.7,1.2,3.3
		c8.9,4.2,18.3,8.2,27.8,11.7c0.3,0.1,0.6,0.2,0.9,0.2c1,0,2-0.6,2.3-1.6C385.8,911.1,385.1,909.7,383.8,909.2z"/>
	<path class="st0" d="M330.1,883.7c-8.6-5.2-16.9-10.8-24.6-16.6c-1.1-0.8-2.7-0.6-3.5,0.5c-0.8,1.1-0.6,2.7,0.5,3.5
		c7.9,6,16.3,11.7,25.1,16.9c0.4,0.2,0.8,0.4,1.3,0.4c0.8,0,1.7-0.4,2.1-1.2C331.7,885.9,331.3,884.4,330.1,883.7z"/>
</g>
</svg>
