<?xml version="1.0" encoding="utf-8"?>
<!-- Generator: Adobe Illustrator 24.0.1, SVG Export Plug-In . SVG Version: 6.00 Build 0)  -->
<svg version="1.1" id="Oval__Pit_Road" xmlns="http://www.w3.org/2000/svg" xmlns:xlink="http://www.w3.org/1999/xlink" x="0px"
	 y="0px" viewBox="0 0 1920 1080" style="enable-background:new 0 0 1920 1080;" xml:space="preserve">
<style type="text/css">
	.st0{fill:#D82520;}
</style>
<title>pitroad</title>
<g id="Pitroad">
	<path class="st0" d="M425.9,686.4c-3.2-9.3-6.2-18.9-8.9-28.5c-0.4-1.3-1.7-2.1-3.1-1.7c-1.3,0.4-2.1,1.7-1.7,3.1
		c2.7,9.7,5.7,19.4,9,28.8c0.4,1,1.3,1.7,2.4,1.7c0.3,0,0.6,0,0.8-0.1C425.7,689.1,426.4,687.7,425.9,686.4z"/>
	<path class="st0" d="M437.3,715.3c2.8,2.8,5.5,5.5,8.3,8.2c0.5,0.5,1.1,0.7,1.7,0.7c0.7,0,1.3-0.3,1.8-0.8c1-1,0.9-2.6-0.1-3.5
		c-7.1-6.9-14.2-14.1-21-21.3c-1-1-2.5-1-3.5-0.1c-1,1-1,2.5-0.1,3.5c3.3,3.5,6.8,7,10.2,10.5c-0.4,0-0.8,0-1.2,0.2
		c-1.3,0.5-1.8,2-1.3,3.3c4.1,9.5,8.6,18.7,13.2,27.2c0.5,0.8,1.3,1.3,2.2,1.3c0.4,0,0.8-0.1,1.2-0.3c1.2-0.7,1.7-2.2,1-3.4
		C445.4,732.9,441.2,724.3,437.3,715.3z"/>
	<path class="st0" d="M421.4,423.2c0.5-1.3-0.2-2.7-1.5-3.2c-1.3-0.5-2.7,0.2-3.2,1.5c-3.4,9.4-6.4,19.1-9,28.9
		c-0.3,1.3,0.5,2.7,1.8,3.1c0.2,0.1,0.4,0.1,0.6,0.1c1.1,0,2.1-0.7,2.4-1.9C415,441.9,418,432.4,421.4,423.2z"/>
	<path class="st0" d="M1350.7,254.1c1.1,0,2.1-0.7,2.4-1.9c0.4-1.3-0.4-2.7-1.8-3.1c-9.5-2.5-19.4-4.9-29.3-7.1
		c-1.3-0.3-2.7,0.6-3,1.9c-0.3,1.3,0.6,2.7,1.9,3c9.8,2.2,19.6,4.5,29.1,7C1350.3,254,1350.5,254.1,1350.7,254.1z"/>
	<path class="st0" d="M1112.1,227.5c1.4,0,2.5-1.1,2.5-2.4c0-1.4-1.1-2.5-2.4-2.6l-30.1-0.8c-1.4-0.1-2.5,1.1-2.6,2.4
		c0,1.4,1.1,2.5,2.4,2.6L1112.1,227.5C1112.1,227.5,1112.1,227.5,1112.1,227.5z"/>
	<path class="st0" d="M405.1,599.5c-0.2-1.4-1.4-2.3-2.8-2.1c-1.4,0.2-2.3,1.4-2.1,2.8c1.3,9.9,3,19.9,5.1,29.7c0.2,1.2,1.3,2,2.4,2
		c0.2,0,0.3,0,0.5-0.1c1.4-0.3,2.2-1.6,1.9-3C408.1,619.2,406.4,609.3,405.1,599.5z"/>
	<path class="st0" d="M1232.5,232.8c1.3,0,2.4-1,2.5-2.2c0.1-1.4-0.9-2.6-2.2-2.7c-10.1-1-20.2-1.9-30.1-2.6c-1.4-0.1-2.6,1-2.7,2.3
		c-0.1,1.4,1,2.6,2.3,2.7c9.8,0.7,19.9,1.5,29.9,2.5C1232.3,232.8,1232.4,232.8,1232.5,232.8z"/>
	<path class="st0" d="M1292,241.2c1.2,0,2.2-0.9,2.5-2.1c0.2-1.4-0.7-2.7-2-2.9c-9.8-1.7-19.8-3.3-29.8-4.7
		c-1.4-0.2-2.6,0.8-2.8,2.1c-0.2,1.4,0.8,2.6,2.1,2.8c9.9,1.4,19.9,3,29.6,4.7C1291.7,241.2,1291.9,241.2,1292,241.2z"/>
	<path class="st0" d="M1164.2,228.8c1.6,0,4.4,0,8.2,0.1c0,0,0,0,0.1,0c1.4,0,2.5-1.1,2.5-2.4c0-1.4-1.1-2.5-2.4-2.6
		c-3.8-0.1-6.6-0.1-8.3-0.1c-0.9,0-1.4,0-1.4,0l-20.6-0.6c0,0,0,0-0.1,0c-1.3,0-2.5,1.1-2.5,2.4c0,1.4,1.1,2.5,2.4,2.6l20.7,0.6
		C1162.8,228.8,1163.3,228.8,1164.2,228.8z"/>
	<path class="st0" d="M1052,225.9c1.4,0,2.5-1.1,2.5-2.4c0-1.4-1.1-2.5-2.4-2.6l-30.1-0.8c-1.4-0.1-2.5,1.1-2.6,2.4
		c0,1.4,1.1,2.5,2.4,2.6L1052,225.9C1052,225.9,1052,225.9,1052,225.9z"/>
	<path class="st0" d="M751.5,218.8c1.4,0,2.5-1.1,2.5-2.5c0-1.4-1.1-2.5-2.5-2.5c-10.9-0.2-21-0.4-30.1-0.5c-1.4,0-2.5,1.1-2.5,2.5
		c0,1.4,1.1,2.5,2.5,2.5C730.5,218.4,740.6,218.6,751.5,218.8C751.5,218.8,751.5,218.8,751.5,218.8z"/>
	<path class="st0" d="M500.6,814.3c-0.9-1-2.5-1.1-3.5-0.2c-1,0.9-1.1,2.5-0.2,3.5c6.3,7.2,13,14.4,20.6,22c0.5,0.5,1.1,0.7,1.8,0.7
		c0.6,0,1.3-0.2,1.8-0.7c1-1,1-2.6,0-3.5C513.4,828.5,506.8,821.4,500.6,814.3z"/>
	<path class="st0" d="M693.9,216.2c-0.1-1.4-1.3-2.4-2.7-2.3c-10,0.7-20.1,2-30,3.8c-1.4,0.2-2.3,1.5-2,2.9c0.2,1.2,1.3,2.1,2.5,2.1
		c0.1,0,0.3,0,0.4,0c9.8-1.8,19.7-3,29.5-3.7C693,218.8,694,217.6,693.9,216.2z"/>
	<path class="st0" d="M634.9,226.3c-0.4-1.3-1.8-2.1-3.1-1.7c-9.6,2.8-19.2,6-28.6,9.8c-1.3,0.5-1.9,2-1.4,3.2
		c0.4,1,1.3,1.6,2.3,1.6c0.3,0,0.6-0.1,0.9-0.2c9.3-3.7,18.7-6.9,28.1-9.6C634.5,229,635.3,227.6,634.9,226.3z"/>
	<path class="st0" d="M931.8,222.8c1.4,0,2.5-1.1,2.5-2.4c0-1.4-1.1-2.5-2.4-2.6c-10-0.2-20-0.5-30.1-0.7c-1.4,0-2.5,1.1-2.6,2.4
		c0,1.4,1.1,2.5,2.4,2.6C911.7,222.3,921.7,222.6,931.8,222.8C931.8,222.8,931.8,222.8,931.8,222.8z"/>
	<path class="st0" d="M463.7,345c5.8-7.6,12.3-15.2,19.3-22.7c0.9-1,0.9-2.6-0.1-3.5c-1-0.9-2.6-0.9-3.5,0.1
		c-7.1,7.6-13.7,15.3-19.6,23.1c-0.8,1.1-0.6,2.7,0.5,3.5c0.5,0.3,1,0.5,1.5,0.5C462.5,346,463.2,345.6,463.7,345z"/>
	<path class="st0" d="M871.7,221.4c1.4,0,2.5-1.1,2.5-2.4c0-1.4-1.1-2.5-2.4-2.6c-10.1-0.2-20.2-0.5-30.1-0.7c0,0,0,0-0.1,0
		c-1.4,0-2.5,1.1-2.5,2.4c0,1.4,1.1,2.5,2.4,2.6C851.5,220.9,861.5,221.1,871.7,221.4C871.7,221.4,871.7,221.4,871.7,221.4z"/>
	<path class="st0" d="M465,766.6c-0.7-1.2-2.3-1.5-3.4-0.8c-1.2,0.7-1.5,2.3-0.8,3.4c5.8,9.2,11.2,17.1,17,24.9c0.5,0.7,1.2,1,2,1
		c0.5,0,1-0.2,1.5-0.5c1.1-0.8,1.3-2.4,0.5-3.5C476,783.5,470.7,775.6,465,766.6z"/>
	<path class="st0" d="M811.6,220c1.4,0,2.5-1.1,2.5-2.4c0-1.4-1.1-2.5-2.4-2.6c-10.4-0.2-20.4-0.4-30.1-0.6
		c-1.4-0.1-2.5,1.1-2.6,2.4c0,1.4,1.1,2.5,2.4,2.6C791.1,219.6,801.2,219.8,811.6,220C811.6,220,811.6,220,811.6,220z"/>
	<path class="st0" d="M991.9,224.3c1.4,0,2.5-1.1,2.5-2.4c0-1.4-1.1-2.5-2.4-2.6l-30.1-0.8c-1.4,0-2.5,1.1-2.6,2.4
		c0,1.4,1.1,2.5,2.4,2.6L991.9,224.3C991.9,224.3,991.9,224.3,991.9,224.3z"/>
	<path class="st0" d="M1579.4,387.2c-0.8-1.1-2.4-1.4-3.5-0.6c-1.1,0.8-1.4,2.4-0.6,3.5c5.8,8,11.2,16.4,16,25
		c0.5,0.8,1.3,1.3,2.2,1.3c0.4,0,0.8-0.1,1.2-0.3c1.2-0.7,1.6-2.2,1-3.4C1590.8,403.9,1585.3,395.4,1579.4,387.2z"/>
	<path class="st0" d="M429.5,396.9c0.3,0.2,0.7,0.2,1.1,0.2c0.9,0,1.8-0.5,2.3-1.4c4.3-8.9,9-17.7,14.2-26.2
		c0.7-1.2,0.3-2.7-0.8-3.4c-1.2-0.7-2.7-0.3-3.4,0.8c-5.2,8.6-10,17.5-14.4,26.6C427.8,394.8,428.3,396.3,429.5,396.9z"/>
	<path class="st0" d="M1627.9,497.1c-0.4-1.3-1.7-2.1-3.1-1.7c-1.3,0.4-2.1,1.7-1.7,3.1c2.7,9.6,5.1,19.4,7.3,29
		c0.3,1.2,1.3,1.9,2.4,1.9c0.2,0,0.4,0,0.6-0.1c1.3-0.3,2.2-1.7,1.9-3C1633.1,516.6,1630.6,506.8,1627.9,497.1z"/>
	<path class="st0" d="M399.8,512.5c0.1,0,0.1,0,0.2,0c1.3,0,2.4-1,2.5-2.3c0.8-10,2.1-19.9,3.7-29.6c0.2-1.4-0.7-2.7-2-2.9
		c-1.4-0.2-2.7,0.7-2.9,2c-1.7,9.8-2.9,19.9-3.8,30C397.4,511.2,398.5,512.4,399.8,512.5z"/>
	<path class="st0" d="M550.7,266.3c0.5,0,0.9-0.1,1.3-0.4c8.5-5.3,17.2-10.2,25.9-14.6c1.2-0.6,1.7-2.1,1.1-3.4
		c-0.6-1.2-2.1-1.7-3.4-1.1c-8.9,4.5-17.7,9.5-26.3,14.9c-1.2,0.7-1.5,2.3-0.8,3.4C549,265.8,549.9,266.3,550.7,266.3z"/>
	<path class="st0" d="M1614.9,455.8L1614.9,455.8c-1.8-5.4-3.8-10.7-6-15.9c-0.5-1.3-2-1.9-3.3-1.3c-1.3,0.5-1.9,2-1.3,3.3
		c2.1,5.1,4.1,10.3,5.9,15.6l0.4,1.1l0,0c0.6,1.7,2,5.7,3.9,11.3c0.3,1.1,1.3,1.7,2.4,1.7c0.3,0,0.5,0,0.8-0.1
		c1.3-0.4,2-1.8,1.6-3.2C1616.7,460.6,1615.6,457.3,1614.9,455.8z"/>
	<path class="st0" d="M1560.2,367.3c1-0.9,1.1-2.5,0.2-3.5c-6.7-7.3-13.9-14.5-21.5-21.3c-1-0.9-2.6-0.8-3.5,0.2
		c-0.9,1-0.8,2.6,0.2,3.5c7.5,6.7,14.6,13.7,21.1,20.9c0.5,0.5,1.2,0.8,1.8,0.8C1559.1,368,1559.7,367.8,1560.2,367.3z"/>
	<path class="st0" d="M502.7,302.2c0.6,0,1.2-0.2,1.7-0.6c7.4-6.6,15.1-12.9,23.1-18.8c1.1-0.8,1.3-2.4,0.5-3.5
		c-0.8-1.1-2.4-1.3-3.5-0.5c-8.1,6-15.9,12.5-23.4,19.1c-1,0.9-1.1,2.5-0.2,3.5C501.3,301.9,502,302.2,502.7,302.2z"/>
	<path class="st0" d="M1643.6,588.5c1.4-0.2,2.4-1.4,2.2-2.8c-1.1-9.6-2.6-19.7-4.4-29.8c-0.2-1.4-1.5-2.3-2.9-2
		c-1.4,0.2-2.3,1.5-2,2.9c1.8,10.1,3.3,20,4.4,29.5c0.2,1.3,1.2,2.2,2.5,2.2C1643.4,588.5,1643.5,588.5,1643.6,588.5z"/>
	<path class="st0" d="M1408,272.1c1,0,2-0.6,2.3-1.6c0.5-1.3-0.2-2.7-1.5-3.2c-9.2-3.4-18.8-6.7-28.5-9.8c-1.3-0.4-2.7,0.3-3.1,1.6
		c-0.4,1.3,0.3,2.7,1.6,3.1c9.6,3,19.2,6.3,28.3,9.7C1407.4,272.1,1407.7,272.1,1408,272.1z"/>
	<path class="st0" d="M1513.9,328c0.8,0,1.5-0.4,2-1c0.8-1.1,0.6-2.7-0.5-3.5c-7.9-5.8-16.3-11.5-25-16.9c-1.2-0.7-2.7-0.4-3.4,0.8
		c-0.7,1.2-0.4,2.7,0.8,3.4c8.6,5.3,16.9,10.9,24.7,16.7C1512.9,327.8,1513.4,328,1513.9,328z"/>
	<path class="st0" d="M1462.9,296.4c0.9,0,1.8-0.5,2.2-1.3c0.6-1.2,0.2-2.7-1.1-3.4c-8.7-4.5-17.9-8.9-27.3-13
		c-1.3-0.6-2.7,0-3.3,1.3c-0.6,1.3,0,2.7,1.3,3.3c9.3,4.1,18.3,8.4,27,12.9C1462.1,296.3,1462.5,296.4,1462.9,296.4z"/>
	<path class="st0" d="M1648.3,615.8c-0.1-1.4-1.2-2.5-2.6-2.4c-1.4,0.1-2.4,1.2-2.4,2.6c0.2,5.1,0.3,10.2,0.3,15.1
		c0,5-0.1,9.9-0.4,14.7c-0.1,1.4,1,2.6,2.4,2.6c0,0,0.1,0,0.1,0c1.3,0,2.4-1,2.5-2.4c0.2-4.8,0.4-9.8,0.4-14.9
		C1648.6,626.1,1648.5,621,1648.3,615.8z"/>
	<path class="st0" d="M399.6,572.5c0.1,0,0.1,0,0.2,0c1.4-0.1,2.4-1.3,2.3-2.7c-0.6-9-0.9-18.1-0.9-27c0-0.9,0-1.9,0-2.8
		c0-1.4-1.1-2.5-2.5-2.5c0,0,0,0,0,0c-1.4,0-2.5,1.1-2.5,2.5c0,1,0,1.9,0,2.8c0,9,0.3,18.2,0.9,27.3
		C397.2,571.5,398.3,572.5,399.6,572.5z"/>
	<path class="st0" d="M550,863.9c-2.6-2.4-5.2-4.7-7.6-7c-1-0.9-2.6-0.9-3.5,0.1c-0.9,1-0.9,2.6,0.1,3.5c2.5,2.3,5.1,4.7,7.7,7.1
		l-15.7,7.5l45.1,15.2l-20.6-42.9L550,863.9z"/>
	<path class="st0" d="M493.8,759.7c-7.6-6.2-15.3-12.7-22.8-19.4c-1-0.9-2.6-0.8-3.5,0.2c-0.9,1-0.8,2.6,0.2,3.5
		c7.6,6.7,15.3,13.3,23,19.5c0.5,0.4,1,0.6,1.6,0.6c0.7,0,1.5-0.3,1.9-0.9C495,762.1,494.9,760.6,493.8,759.7z"/>
	<path class="st0" d="M335.9,547.6c-0.4-1.3-1.8-2.1-3.1-1.7c-1.3,0.4-2.1,1.8-1.7,3.1c3.1,10.1,6.3,19.7,9.6,28.6
		c0.4,1,1.3,1.6,2.3,1.6c0.3,0,0.6-0.1,0.9-0.2c1.3-0.5,2-1.9,1.5-3.2C342.2,567.1,339,557.6,335.9,547.6z"/>
	<path class="st0" d="M363.9,616.9c-2.3-4-4.6-8.5-7-13.5c-0.6-1.2-2.1-1.8-3.3-1.2c-1.2,0.6-1.8,2.1-1.2,3.3
		c2.4,5.1,4.8,9.7,7.1,13.8c2.2,3.9,4.9,8.2,7.8,12.6c0.5,0.7,1.3,1.1,2.1,1.1c0.5,0,0.9-0.1,1.4-0.4c1.2-0.8,1.5-2.3,0.7-3.5
		C368.6,624.9,366.1,620.8,363.9,616.9z"/>
	<path class="st0" d="M388.9,653.4c-0.8-1.1-2.4-1.3-3.5-0.4c-1.1,0.8-1.3,2.4-0.4,3.5c5.9,7.6,12.3,15.4,19.2,23.3
		c0.5,0.6,1.2,0.9,1.9,0.9c0.6,0,1.2-0.2,1.6-0.6c1-0.9,1.2-2.5,0.3-3.5C401.2,668.7,394.8,661,388.9,653.4z"/>
	<path class="st0" d="M320.8,489.8c-0.3-1.3-1.6-2.2-3-1.9c-1.3,0.3-2.2,1.6-1.9,3c2.2,9.9,4.5,19.7,7,29.3c0.3,1.1,1.3,1.9,2.4,1.9
		c0.2,0,0.4,0,0.6-0.1c1.3-0.3,2.1-1.7,1.8-3.1C325.3,509.4,322.9,499.6,320.8,489.8z"/>
	<path class="st0" d="M1568.2,441.8c1.3,10.1,2.5,20.1,3.4,29.7c0.1,1.3,1.2,2.3,2.5,2.3c0.1,0,0.2,0,0.2,0c1.4-0.1,2.4-1.4,2.3-2.7
		c-0.9-9.6-2.1-19.7-3.4-29.9c-0.2-1.4-1.4-2.3-2.8-2.1C1568.9,439.1,1568,440.4,1568.2,441.8z"/>
	<path class="st0" d="M1560.5,379.8c-1.4,0.3-2.2,1.6-2,2.9c1.9,10,3.7,19.9,5.3,29.5c0.2,1.2,1.3,2.1,2.5,2.1c0.1,0,0.3,0,0.4,0
		c1.4-0.2,2.3-1.5,2.1-2.9c-1.6-9.6-3.4-19.5-5.3-29.6C1563.1,380.4,1561.8,379.5,1560.5,379.8z"/>
	<path class="st0" d="M594.7,822.8c-8.7-3.7-17.7-8-26.8-12.9c-1.2-0.7-2.7-0.2-3.4,1s-0.2,2.7,1,3.4c9.2,5,18.4,9.4,27.2,13.1
		c0.3,0.1,0.6,0.2,1,0.2c1,0,1.9-0.6,2.3-1.5C596.6,824.8,596,823.3,594.7,822.8z"/>
	<path class="st0" d="M514,778.5c-0.8,1.1-0.6,2.7,0.6,3.5c8.3,6.1,16.7,11.8,24.9,17c0.4,0.3,0.9,0.4,1.3,0.4
		c0.8,0,1.6-0.4,2.1-1.2c0.7-1.2,0.4-2.7-0.8-3.5c-8.1-5.2-16.4-10.8-24.7-16.8C516.4,777.1,514.8,777.3,514,778.5z"/>
	<path class="st0" d="M1473.1,768.1c-7.6,5.9-15.9,11.6-24.4,17.1c-1.2,0.7-1.5,2.3-0.8,3.4c0.5,0.8,1.3,1.2,2.1,1.2
		c0.5,0,0.9-0.1,1.3-0.4c8.7-5.5,17-11.3,24.8-17.3c1.1-0.8,1.3-2.4,0.5-3.5S1474.2,767.3,1473.1,768.1z"/>
	<path class="st0" d="M1540.5,297.1c0.2,0,0.4,0,0.6-0.1c0.9-0.2,1.5-0.9,1.8-1.7l17.6,2.7l-28.8-38l-7.1,47.1l14.2-10.8
		C1539.2,296.8,1539.9,297.1,1540.5,297.1z"/>
	<path class="st0" d="M1519.2,726.5c-1.1-0.9-2.6-0.7-3.5,0.4c-6,7.5-12.8,14.8-20.1,21.9c-1,1-1,2.5-0.1,3.5
		c0.5,0.5,1.1,0.8,1.8,0.8c0.6,0,1.2-0.2,1.7-0.7c7.5-7.2,14.4-14.7,20.5-22.3C1520.5,729,1520.3,727.4,1519.2,726.5z"/>
	<path class="st0" d="M1368.2,823.8c-9.4,3.3-19,6.3-28.5,8.8c-1.3,0.4-2.1,1.7-1.8,3.1c0.3,1.1,1.3,1.8,2.4,1.8
		c0.2,0,0.4,0,0.7-0.1c9.6-2.6,19.3-5.6,28.8-9c1.3-0.5,2-1.9,1.5-3.2C1370.9,824,1369.5,823.4,1368.2,823.8z"/>
	<path class="st0" d="M1550.3,323.1c-0.3-1.3-1.7-2.1-3-1.8c-1.3,0.3-2.1,1.7-1.8,3l3.9,15.2c1.1,4.7,2.1,9.4,3.1,13.9
		c0.3,1.2,1.3,2,2.4,2c0.2,0,0.4,0,0.5-0.1c1.3-0.3,2.2-1.6,1.9-3c-1-4.6-2-9.3-3.1-14L1550.3,323.1z"/>
	<path class="st0" d="M1422.8,800.1c-8.7,4.5-17.7,8.9-26.9,12.8c-1.3,0.5-1.8,2-1.3,3.3c0.4,0.9,1.3,1.5,2.3,1.5
		c0.3,0,0.7-0.1,1-0.2c9.3-4,18.5-8.4,27.2-13c1.2-0.6,1.7-2.2,1.1-3.4C1425.6,799.9,1424.1,799.5,1422.8,800.1z"/>
	<path class="st0" d="M651.6,838.4c-9.3-1-19-2.9-29-5.7c-1.3-0.4-2.7,0.4-3.1,1.7c-0.4,1.3,0.4,2.7,1.7,3.1
		c10.2,2.9,20.3,4.8,29.8,5.8c0.1,0,0.2,0,0.3,0c1.3,0,2.4-1,2.5-2.2C654,839.7,653,838.5,651.6,838.4z"/>
	<path class="st0" d="M1576.2,558.6c-1.4-0.1-2.6,1-2.7,2.3c-0.7,10.1-1.7,20.1-3,29.6c-0.2,1.4,0.8,2.6,2.1,2.8c0.1,0,0.2,0,0.4,0
		c1.2,0,2.3-0.9,2.5-2.2c1.4-9.7,2.4-19.8,3.1-30C1578.6,559.9,1577.6,558.7,1576.2,558.6z"/>
	<path class="st0" d="M1576.1,498.6c-1.4,0.1-2.4,1.2-2.4,2.6c0.5,9.8,0.8,19.5,0.8,28.8v1c0,1.4,1.1,2.5,2.5,2.5c0,0,0,0,0,0
		c1.4,0,2.5-1.1,2.5-2.5v-1c0-9.4-0.3-19.2-0.8-29.1C1578.7,499.6,1577.5,498.6,1576.1,498.6z"/>
	<path class="st0" d="M1310.6,839.3c-10.2,1.9-20.1,3.3-29.5,4.1c-1.4,0.1-2.4,1.3-2.3,2.7c0.1,1.3,1.2,2.3,2.5,2.3
		c0.1,0,0.1,0,0.2,0c9.5-0.8,19.6-2.2,30-4.2c1.4-0.3,2.3-1.6,2-2.9S1312,839.1,1310.6,839.3z"/>
	<path class="st0" d="M1568.1,618c-1.4-0.3-2.7,0.5-3,1.9c-2.3,9.7-5,19.4-8.1,28.6c-0.4,1.3,0.3,2.7,1.6,3.2
		c0.3,0.1,0.5,0.1,0.8,0.1c1,0,2-0.7,2.4-1.7c3.2-9.4,5.9-19.2,8.2-29.1C1570.3,619.6,1569.4,618.3,1568.1,618z"/>
	<path class="st0" d="M1549.4,674.9c-1.3-0.6-2.7,0-3.3,1.2c-3.4,7.4-7.2,15-11.3,22.5c-0.7,1.3-1.5,2.7-2.3,4
		c-0.7,1.2-0.3,2.7,0.9,3.4c0.4,0.2,0.8,0.3,1.3,0.3c0.9,0,1.7-0.4,2.2-1.2c0.8-1.4,1.6-2.7,2.3-4.1c4.2-7.6,8-15.2,11.4-22.8
		C1551.2,676.9,1550.7,675.4,1549.4,674.9z"/>
	<path class="st0" d="M891.3,844.8c-10-0.1-20-0.2-30-0.3c-1.3,0-2.5,1.1-2.5,2.5c0,1.4,1.1,2.5,2.5,2.5c10,0.1,20,0.2,30,0.3
		c0,0,0,0,0,0c1.4,0,2.5-1.1,2.5-2.5C893.8,845.9,892.7,844.8,891.3,844.8z"/>
	<path class="st0" d="M1251.4,844.2c-8.7,0-17.8,0-27.1,0l-2.9,0c-1.4,0-2.5,1.1-2.5,2.5s1.1,2.5,2.5,2.5l2.9,0c9.3,0,18.4,0,27.1,0
		c0,0,0,0,0,0c1.4,0,2.5-1.1,2.5-2.5C1253.9,845.4,1252.7,844.2,1251.4,844.2z"/>
	<path class="st0" d="M711.4,841.3c-10.2-0.4-20.3-0.8-30-1.2c-1.4-0.1-2.5,1-2.6,2.4s1,2.5,2.4,2.6c9.7,0.4,19.8,0.8,30,1.2
		c0,0,0.1,0,0.1,0c1.3,0,2.4-1.1,2.5-2.4C713.9,842.5,712.8,841.3,711.4,841.3z"/>
	<path class="st0" d="M951.3,845c-10,0-20,0-30-0.1c0,0,0,0,0,0c-1.4,0-2.5,1.1-2.5,2.5c0,1.4,1.1,2.5,2.5,2.5c10,0,20,0.1,30,0.1
		c0,0,0,0,0,0c1.4,0,2.5-1.1,2.5-2.5C953.8,846.2,952.7,845,951.3,845z"/>
	<path class="st0" d="M771.4,843.1c-10.2-0.2-20.3-0.5-30-0.8c-1.4-0.1-2.5,1-2.6,2.4c0,1.4,1,2.5,2.4,2.6c9.7,0.3,19.8,0.6,30,0.8
		c0,0,0,0,0.1,0c1.4,0,2.5-1.1,2.5-2.4C773.8,844.2,772.7,843.1,771.4,843.1z"/>
	<path class="st0" d="M831.3,844.2c-10.1-0.1-20.2-0.3-30-0.5c-1.4,0-2.5,1.1-2.5,2.5c0,1.4,1.1,2.5,2.5,2.5
		c9.8,0.2,19.9,0.3,30,0.5c0,0,0,0,0,0c1.4,0,2.5-1.1,2.5-2.5C833.8,845.3,832.7,844.2,831.3,844.2z"/>
	<path class="st0" d="M1191.3,844.2C1191.3,844.2,1191.3,844.2,1191.3,844.2c-9.8,0-19.8,0.1-30,0.1c-1.4,0-2.5,1.1-2.5,2.5
		c0,1.4,1.1,2.5,2.5,2.5c0,0,0,0,0,0c10.2,0,20.2-0.1,30-0.1c1.4,0,2.5-1.1,2.5-2.5C1193.8,845.4,1192.7,844.2,1191.3,844.2z"/>
	<path class="st0" d="M1131.3,844.5C1131.3,844.5,1131.3,844.5,1131.3,844.5l-30,0.2c-1.4,0-2.5,1.1-2.5,2.5c0,1.4,1.1,2.5,2.5,2.5
		c0,0,0,0,0,0l30-0.2c1.4,0,2.5-1.1,2.5-2.5C1133.8,845.6,1132.7,844.5,1131.3,844.5z"/>
	<path class="st0" d="M1011.3,845C1011.3,845,1011.3,845,1011.3,845c-9.9,0-20,0-30,0c-1.4,0-2.5,1.1-2.5,2.5c0,1.4,1.1,2.5,2.5,2.5
		c0,0,0,0,0,0c10.1,0,20.1,0,30,0c1.4,0,2.5-1.1,2.5-2.5C1013.8,846.1,1012.7,845,1011.3,845z"/>
	<path class="st0" d="M1071.3,844.8C1071.3,844.8,1071.3,844.8,1071.3,844.8c-9.9,0-19.9,0.1-30,0.1c-1.4,0-2.5,1.1-2.5,2.5
		c0,1.4,1.1,2.5,2.5,2.5c0,0,0,0,0,0c10.1,0,20.1-0.1,30-0.1c1.4,0,2.5-1.1,2.5-2.5C1073.8,845.9,1072.7,844.8,1071.3,844.8z"/>
</g>
</svg>
