<?xml version="1.0" encoding="utf-8"?>
<!-- Generator: Adobe Illustrator 24.0.1, SVG Export Plug-In . SVG Version: 6.00 Build 0)  -->
<svg version="1.1" id="International_-_Pit_Road" xmlns="http://www.w3.org/2000/svg" xmlns:xlink="http://www.w3.org/1999/xlink"
	 x="0px" y="0px" viewBox="0 0 1920 1080" style="enable-background:new 0 0 1920 1080;" xml:space="preserve">
<style type="text/css">
	.st0{fill:#D82520;}
</style>
<title>pitroad</title>
<g id="Pitroad">
	<path class="st0" d="M1068.9,909.3l-30-0.3c0,0,0,0,0,0c-1.4,0-2.5,1.1-2.5,2.5c0,1.4,1.1,2.5,2.5,2.5l30,0.3c0,0,0,0,0,0
		c1.4,0,2.5-1.1,2.5-2.5C1071.4,910.4,1070.3,909.3,1068.9,909.3z"/>
	<path class="st0" d="M888.8,907.5l-30-0.3c0,0,0,0,0,0c-1.4,0-2.5,1.1-2.5,2.5c0,1.4,1.1,2.5,2.5,2.5l30,0.3c0,0,0,0,0,0
		c1.4,0,2.5-1.1,2.5-2.5C891.3,908.7,890.2,907.5,888.8,907.5z"/>
	<path class="st0" d="M1008.9,908.7l-30-0.3c0,0,0,0,0,0c-1.4,0-2.5,1.1-2.5,2.5c0,1.4,1.1,2.5,2.5,2.5l30,0.3c0,0,0,0,0,0
		c1.4,0,2.5-1.1,2.5-2.5C1011.4,909.9,1010.3,908.7,1008.9,908.7z"/>
	<path class="st0" d="M828.8,906.9c-10.1-0.1-20.1-0.2-30-0.3c0,0,0,0,0,0c-1.4,0-2.5,1.1-2.5,2.5c0,1.4,1.1,2.5,2.5,2.5
		c9.9,0.1,19.9,0.2,30,0.3c0,0,0,0,0,0c1.4,0,2.5-1.1,2.5-2.5C831.3,908,830.2,906.9,828.8,906.9z"/>
	<path class="st0" d="M589.3,917.9c-7.4,0.5-12.8,0.4-17.3-0.1c-0.6-0.1-1.2-0.2-1.8-0.3l13.9-6.1l-44.6-16.8l19.1,43.6l6.4-17.1
		c2.1,0.7,4.2,1.2,6.3,1.5c2.6,0.3,5.5,0.5,8.9,0.5c2.8,0,5.8-0.1,9.3-0.3c1.4-0.1,2.4-1.3,2.3-2.7
		C591.8,918.9,590.7,917.8,589.3,917.9z"/>
	<path class="st0" d="M648.7,911.2c-6.9,0.8-13.3,1.6-19.2,2.3c-3.7,0.5-7.2,0.9-10.6,1.3c-1.4,0.2-2.3,1.4-2.2,2.8
		c0.2,1.3,1.2,2.2,2.5,2.2c0.1,0,0.2,0,0.3,0c3.4-0.4,6.9-0.8,10.6-1.3c5.9-0.7,12.3-1.5,19.2-2.3c1.4-0.2,2.4-1.4,2.2-2.8
		C651.4,912.1,650.1,911.1,648.7,911.2z"/>
	<path class="st0" d="M768.8,906.4c-10.3-0.1-20.3-0.1-30-0.1c0,0,0,0,0,0c-1.4,0-2.5,1.1-2.5,2.5c0,1.4,1.1,2.5,2.5,2.5
		c9.7,0,19.7,0,30,0.1c0,0,0,0,0,0c1.4,0,2.5-1.1,2.5-2.5C771.3,907.6,770.2,906.4,768.8,906.4z"/>
	<path class="st0" d="M708.8,906.4C708.8,906.4,708.8,906.4,708.8,906.4c-5.6,0-11,0.1-16.2,0.1l-0.2,0c-4.7,0.5-9.3,0.9-13.7,1.4
		c-1.4,0.1-2.4,1.4-2.2,2.7c0.1,1.3,1.2,2.2,2.5,2.2c0.1,0,0.2,0,0.3,0c4.4-0.5,8.9-0.9,13.6-1.4c5.2-0.1,10.6-0.1,16.1-0.1
		c1.4,0,2.5-1.1,2.5-2.5C711.3,907.5,710.2,906.4,708.8,906.4z"/>
	<path class="st0" d="M948.8,908.2l-30-0.3c0,0,0,0,0,0c-1.4,0-2.5,1.1-2.5,2.5c0,1.4,1.1,2.5,2.5,2.5l30,0.3c0,0,0,0,0,0
		c1.4,0,2.5-1.1,2.5-2.5C951.3,909.3,950.2,908.2,948.8,908.2z"/>
	<path class="st0" d="M1488.7,927.9l-30-1.7c-1.4-0.1-2.6,1-2.6,2.4c-0.1,1.4,1,2.6,2.4,2.6l30,1.7c0,0,0.1,0,0.1,0
		c1.3,0,2.4-1,2.5-2.4C1491.1,929.2,1490,928,1488.7,927.9z"/>
	<path class="st0" d="M1129,909.8l-30-0.2c0,0,0,0,0,0c-1.4,0-2.5,1.1-2.5,2.5c0,1.4,1.1,2.5,2.5,2.5l30,0.2c0,0,0,0,0,0
		c1.4,0,2.5-1.1,2.5-2.5C1131.5,910.9,1130.3,909.8,1129,909.8z"/>
	<path class="st0" d="M1428.7,924.6l-30-1.7c-1.4-0.1-2.6,1-2.6,2.4s1,2.6,2.4,2.6l30,1.7c0,0,0.1,0,0.1,0c1.3,0,2.4-1,2.5-2.4
		C1431.2,925.9,1430.1,924.7,1428.7,924.6z"/>
	<path class="st0" d="M1592.2,933.7l-13.7-0.8c-1.4-0.1-2.6,1-2.6,2.4s1,2.6,2.4,2.6l13.7,0.8c0,0,0.1,0,0.1,0c1.3,0,2.4-1,2.5-2.4
		C1594.7,935,1593.6,933.8,1592.2,933.7z"/>
	<path class="st0" d="M1548.6,931.3l-30-1.7c-1.4-0.1-2.6,1-2.6,2.4s1,2.6,2.4,2.6l30,1.7c0,0,0.1,0,0.1,0c1.3,0,2.4-1,2.5-2.4
		C1551,932.5,1549.9,931.4,1548.6,931.3z"/>
	<path class="st0" d="M1189.1,911.2l-20.6-1.1l-9.5-0.1c0,0,0,0,0,0c-1.4,0-2.5,1.1-2.5,2.5c0,1.4,1.1,2.5,2.5,2.5l9.4,0.1l20.5,1.1
		c0,0,0.1,0,0.1,0c1.3,0,2.4-1,2.5-2.4C1191.6,912.5,1190.5,911.3,1189.1,911.2z"/>
	<path class="st0" d="M1368.8,921.2l-30-1.7c-1.4-0.1-2.6,1-2.6,2.4s1,2.6,2.4,2.6l30,1.7c0,0,0.1,0,0.1,0c1.3,0,2.4-1,2.5-2.4
		C1371.3,922.5,1370.2,921.3,1368.8,921.2z"/>
	<path class="st0" d="M1249,914.6l-30-1.7c-1.4-0.1-2.6,1-2.6,2.4s1,2.6,2.4,2.6l30,1.7c0,0,0.1,0,0.1,0c1.3,0,2.4-1,2.5-2.4
		C1251.5,915.8,1250.4,914.6,1249,914.6z"/>
	<path class="st0" d="M1308.9,917.9l-30-1.7c-1.4-0.1-2.6,1-2.6,2.4c-0.1,1.4,1,2.6,2.4,2.6l30,1.7c0,0,0.1,0,0.1,0
		c1.3,0,2.4-1,2.5-2.4C1311.4,919.2,1310.3,918,1308.9,917.9z"/>
</g>
</svg>
