<svg id="Patriot_Reverse_-_Pit_Road" data-name="Patriot Reverse - Pit Road" xmlns="http://www.w3.org/2000/svg" viewBox="0 0 1920 1080"><defs><style>.cls-1{fill:#d82520;}</style></defs><title>pitroad</title><g id="Pitroad"><path class="cls-1" d="M922.81,495.11a2.5,2.5,0,1,0-5,.42,274,274,0,0,0,4,28.29,2.53,2.53,0,0,0,1.39,1.77,2.63,2.63,0,0,0,1.06.23,2.5,2.5,0,0,0,2.45-3A267.69,267.69,0,0,1,922.81,495.11Z"/><path class="cls-1" d="M960.84,424.39l-47.11,7,14.89,10.68c-3.93,6.56-7.56,16.23-9.35,22.75A2.5,2.5,0,0,0,921,467.9a2.63,2.63,0,0,0,.67.09,2.51,2.51,0,0,0,2.41-1.84,107.33,107.33,0,0,1,6.75-17.71L933,463Z"/></g></svg>