<?xml version="1.0" encoding="utf-8"?>
<!-- Generator: Adobe Illustrator 24.0.1, SVG Export Plug-In . SVG Version: 6.00 Build 0)  -->
<svg version="1.1" id="Jefferson_Reverse___Pit_Road"
	 xmlns="http://www.w3.org/2000/svg" xmlns:xlink="http://www.w3.org/1999/xlink" x="0px" y="0px" viewBox="0 0 1920 1080"
	 style="enable-background:new 0 0 1920 1080;" xml:space="preserve">
<style type="text/css">
	.st0{fill:#D82520;}
</style>
<title>pitroad</title>
<g id="Pitroad">
	<path class="st0" d="M671.1,599.8l-17.3-0.3c-4.3-0.1-8.7,0.1-13,0.6c-1.4,0.2-2.4,1.4-2.2,2.8c0.2,1.3,1.2,2.2,2.5,2.2
		c0.1,0,0.2,0,0.3,0c3.5-0.4,7-0.6,10.4-0.6c0.6,0,1.2,0,1.9,0l17.3,0.3c1.3,0,2.5-1.1,2.5-2.5C673.6,600.9,672.5,599.8,671.1,599.8
		z"/>
	<path class="st0" d="M552.6,618.3c-7,1-13.8,1.5-20.3,1.5c-5.7,0-9-0.4-9-0.4c-1.4-0.2-2.6,0.8-2.8,2.2c-0.2,1.4,0.8,2.6,2.2,2.8
		c0.1,0,3.6,0.4,9.6,0.4c6.7,0,13.7-0.5,21-1.5c1.4-0.2,2.3-1.5,2.1-2.8S554,618.1,552.6,618.3z"/>
	<path class="st0" d="M611.2,606.1l-29.4,6.2c-1.4,0.3-2.2,1.6-1.9,3c0.2,1.2,1.3,2,2.4,2c0.2,0,0.3,0,0.5-0.1l29.4-6.2
		c1.4-0.3,2.2-1.6,1.9-3C613.9,606.7,612.5,605.8,611.2,606.1z"/>
	<path class="st0" d="M731.1,600.7l-30-0.5c0,0,0,0,0,0c-1.4,0-2.5,1.1-2.5,2.5c0,1.4,1.1,2.5,2.5,2.5l30,0.5c0,0,0,0,0,0
		c1.4,0,2.5-1.1,2.5-2.5C733.6,601.9,732.5,600.7,731.1,600.7z"/>
	<path class="st0" d="M791.2,607.5c-7.7-3-15.7-5.1-23.9-6.2l-6.2-0.1c0,0,0,0,0,0c-1.4,0-2.5,1.1-2.5,2.5c0,1.4,1.1,2.5,2.5,2.5
		l5.7,0.1c7.7,1,15.3,3,22.6,5.9c0.3,0.1,0.6,0.2,0.9,0.2c1,0,1.9-0.6,2.3-1.6C793.1,609.4,792.4,608,791.2,607.5z"/>
	<path class="st0" d="M858.8,630.5l-39.2-27l3.3,16.7c-1.4-0.4-2.8-0.9-4.1-1.3c-1.3-0.4-2.7,0.3-3.2,1.6c-0.4,1.3,0.3,2.7,1.6,3.2
		c1.6,0.6,3.3,1.1,4.9,1.6L812,639.7L858.8,630.5z"/>
</g>
</svg>
