<?xml version="1.0" encoding="utf-8"?>
<!-- Generator: Adobe Illustrator 24.0.1, SVG Export Plug-In . SVG Version: 6.00 Build 0)  -->
<svg version="1.1" id="Mosport_-_Pit_Road" xmlns="http://www.w3.org/2000/svg" xmlns:xlink="http://www.w3.org/1999/xlink" x="0px"
	 y="0px" viewBox="0 0 1920 1080" style="enable-background:new 0 0 1920 1080;" xml:space="preserve">
<style type="text/css">
	.st0{fill:#016699;}
	.st1{fill:#D82520;}
</style>
<title>pitroad</title>
<g id="Mergeline">
	<path class="st0" d="M495.8,115.4c-1,0-2,0-3,0c-9.2,0-18.6,1-28,3c-2.7,0.6-4.4,3.2-3.8,5.9c0.5,2.3,2.6,4,4.9,4
		c0.3,0,0.7,0,1.1-0.1c8.6-1.8,17.3-2.8,25.9-2.8c0.9,0,1.8,0,2.8,0c2.7,0,5.1-2.1,5.1-4.9C500.8,117.7,498.6,115.4,495.8,115.4z"/>
	<path class="st0" d="M435.4,128c-16.6,7.4-26.6,15.3-27.1,15.6c-2.2,1.7-2.5,4.9-0.8,7c1,1.2,2.4,1.9,3.9,1.9
		c1.1,0,2.2-0.4,3.1-1.1c0.1-0.1,9.4-7.4,24.9-14.3c2.5-1.1,3.7-4.1,2.5-6.6S437.9,126.9,435.4,128z"/>
	<path class="st0" d="M555.4,131.7c-9.3-5.1-19-9-28.8-11.7c-2.7-0.7-5.4,0.8-6.2,3.5c-0.7,2.7,0.8,5.4,3.5,6.2
		c9,2.5,18,6.2,26.6,10.9c0.8,0.4,1.6,0.6,2.4,0.6c1.8,0,3.5-0.9,4.4-2.6C558.7,136.1,557.8,133,555.4,131.7z"/>
	<path class="st0" d="M640.4,222.6c1.2,0,2.4-0.4,3.4-1.3c2-1.9,2.1-5,0.2-7.1l-20.5-22c-1.9-2-5-2.1-7.1-0.2c-2,1.9-2.1,5-0.2,7.1
		l20.5,22C637.7,222.1,639.1,222.6,640.4,222.6z"/>
	<path class="st0" d="M600.4,167.5c-6.3-6.8-12.9-12.9-19.5-18.4c-2.1-1.8-5.3-1.4-7,0.7c-1.8,2.1-1.4,5.3,0.7,7
		c6.3,5.2,12.5,11.1,18.6,17.5l2.6,2.8c1,1.1,2.3,1.6,3.7,1.6c1.2,0,2.4-0.4,3.4-1.3c2-1.9,2.1-5,0.2-7.1L600.4,167.5z"/>
	<path class="st0" d="M682.8,215.4l-20.7,19.3c-1.6-0.4-3.4,0-4.7,1.2c-1.3,1.2-1.8,3-1.5,4.6l-20.7,19.3l6.8,7.3l47.5-44.4
		L682.8,215.4z"/>
</g>
<g id="Pitroad">
	<path class="st1" d="M233.7,350.6l-19.6,22.8c-0.9,1-0.8,2.6,0.3,3.5c0.5,0.4,1.1,0.6,1.6,0.6c0.7,0,1.4-0.3,1.9-0.9l19.6-22.8
		c0.9-1,0.8-2.6-0.3-3.5C236.2,349.4,234.6,349.5,233.7,350.6z"/>
	<path class="st1" d="M191.9,501.3c-0.8-1.1-2.4-1.3-3.5-0.5c-1.1,0.8-1.3,2.4-0.5,3.5c4.2,5.5,10.1,13.6,17.8,24.2
		c0.5,0.7,1.3,1,2,1c0.5,0,1-0.2,1.5-0.5c1.1-0.8,1.4-2.4,0.6-3.5C202.1,514.9,196.1,506.8,191.9,501.3z"/>
	<path class="st1" d="M198.4,399.3c0.9-1,0.8-2.6-0.3-3.5c-1-0.9-2.6-0.8-3.5,0.3l-10.5,12.2c-0.9,0.8-5,4.5-9.2,10.9
		c-0.8,1.2-0.4,2.7,0.7,3.5c0.4,0.3,0.9,0.4,1.4,0.4c0.8,0,1.6-0.4,2.1-1.1c4.2-6.4,8.3-10,8.4-10L198.4,399.3z"/>
	<path class="st1" d="M311.9,259.5l-19.6,22.8c-0.9,1-0.8,2.6,0.3,3.5c0.5,0.4,1.1,0.6,1.6,0.6c0.7,0,1.4-0.3,1.9-0.9l19.6-22.8
		c0.9-1,0.8-2.6-0.3-3.5C314.4,258.4,312.8,258.5,311.9,259.5z"/>
	<path class="st1" d="M351,214l-19.6,22.8c-0.9,1-0.8,2.6,0.3,3.5c0.5,0.4,1.1,0.6,1.6,0.6c0.7,0,1.4-0.3,1.9-0.9l19.6-22.8
		c0.9-1,0.8-2.6-0.3-3.5C353.5,212.9,351.9,213,351,214z"/>
	<path class="st1" d="M272.8,305l-19.6,22.8c-0.9,1-0.8,2.6,0.3,3.5c0.5,0.4,1.1,0.6,1.6,0.6c0.7,0,1.4-0.3,1.9-0.9l19.6-22.8
		c0.9-1,0.8-2.6-0.3-3.5C275.3,303.9,273.7,304,272.8,305z"/>
	<path class="st1" d="M170,451.6c0-0.9,0-1.9,0.1-2.8c0.1-1.4-1-2.6-2.4-2.6c-1.4-0.1-2.6,1-2.6,2.4c-0.1,1-0.1,2-0.1,3.1
		c0,8.9,2.1,18.1,6.2,27.2c0.4,0.9,1.3,1.5,2.3,1.5c0.3,0,0.7-0.1,1-0.2c1.3-0.6,1.8-2.1,1.2-3.3C172,468.3,170,459.8,170,451.6z"/>
	<path class="st1" d="M411.4,147.5l-42.6,21.2l16.6,5.3l-14.8,17.3c-0.9,1-0.8,2.6,0.3,3.5c0.5,0.4,1.1,0.6,1.6,0.6
		c0.7,0,1.4-0.3,1.9-0.9l14.8-17.3l7.7,15.6L411.4,147.5z"/>
</g>
</svg>
