<svg id="Pit_Road" data-name="Pit Road" xmlns="http://www.w3.org/2000/svg" viewBox="0 0 1920 1080"><defs><style>.cls-1{fill:#d82520;}</style></defs><title>pitroad</title><path class="cls-1" d="M430.31,561.83h-.09a2.51,2.51,0,0,0-2.5,2.42c-.35,10.25-.63,20.35-.83,30a2.49,2.49,0,0,0,2.44,2.55h.06a2.49,2.49,0,0,0,2.49-2.45c.21-9.65.49-19.72.84-30A2.5,2.5,0,0,0,430.31,561.83Z"/><path class="cls-1" d="M440.67,477.47a2.51,2.51,0,0,0,2.48,2.16l.34,0a2.5,2.5,0,0,0,2.14-2.82c-.68-4.9-1.54-9.71-2.45-14.81-.82-4.61-1.67-9.38-2.49-14.77a2.5,2.5,0,1,0-4.94.75c.83,5.45,1.69,10.25,2.51,14.9C439.16,467.9,440,472.67,440.67,477.47Z"/><path class="cls-1" d="M429.15,656.81a2.49,2.49,0,0,0,2.46-2.53c-.09-7-.15-14.23-.14-21.52,0-2.78,0-5.59,0-8.43a2.5,2.5,0,0,0-5,0c0,2.85,0,5.67,0,8.46,0,7.32,0,14.58.15,21.59a2.48,2.48,0,0,0,2.49,2.46Z"/><path class="cls-1" d="M433.92,714.09c-.64-9.58-1.16-19.63-1.54-29.88a2.5,2.5,0,1,0-5,.19c.39,10.29.91,20.39,1.55,30a2.5,2.5,0,0,0,2.49,2.34h.17A2.5,2.5,0,0,0,433.92,714.09Z"/><path class="cls-1" d="M433.76,537.26a2.4,2.4,0,0,0,1.07.25,2.51,2.51,0,0,0,2.26-1.43c1.07-2.25,2.26-4.43,3.41-6.54,2.68-4.93,5.22-9.59,5.65-14.08.28-2.85.5-5.64.65-8.29a2.5,2.5,0,0,0-5-.29c-.15,2.58-.36,5.31-.63,8.1-.34,3.48-2.64,7.7-5.07,12.17-1.18,2.17-2.41,4.41-3.53,6.78A2.49,2.49,0,0,0,433.76,537.26Z"/><path class="cls-1" d="M540.43,984.45a203.41,203.41,0,0,1-20.55-21.34,2.5,2.5,0,1,0-3.81,3.23,207.55,207.55,0,0,0,21.06,21.87,2.46,2.46,0,0,0,1.65.62,2.5,2.5,0,0,0,1.65-4.38Z"/><path class="cls-1" d="M485.5,914.5a2.5,2.5,0,0,0-4.32,2.52c4.78,8.18,10.45,17,16.42,25.39a2.5,2.5,0,1,0,4.08-2.89C495.8,931.21,490.2,922.55,485.5,914.5Z"/><path class="cls-1" d="M460.45,860.58a2.5,2.5,0,0,0-4.72,1.65,225.77,225.77,0,0,0,11.66,28,2.49,2.49,0,0,0,2.23,1.36,2.41,2.41,0,0,0,1.13-.27,2.5,2.5,0,0,0,1.09-3.36A223.45,223.45,0,0,1,460.45,860.58Z"/><path class="cls-1" d="M437.71,755.82c-.47-3.91-.9-7.92-1.31-11.92a2.5,2.5,0,0,0-5,.51c.4,4,.85,8.05,1.31,12,.71,6,1.5,12,2.35,17.89a2.49,2.49,0,0,0,2.47,2.13,2.17,2.17,0,0,0,.36,0,2.51,2.51,0,0,0,2.12-2.84C439.19,767.76,438.41,761.79,437.71,755.82Z"/><path class="cls-1" d="M445.08,803a2.5,2.5,0,0,0-4.9,1c2,10.15,4.29,20,6.76,29.39a2.49,2.49,0,0,0,2.41,1.86,2.35,2.35,0,0,0,.64-.09,2.49,2.49,0,0,0,1.78-3C449.33,822.82,447.08,813,445.08,803Z"/><path class="cls-1" d="M415.84,412.52l16.05-6.89c.16,4.24.36,8.38.62,12.33a2.5,2.5,0,0,0,2.49,2.33h.17a2.5,2.5,0,0,0,2.33-2.66c-.25-3.84-.45-7.85-.61-12l16,6.71-18.68-43.81Z"/></svg>