<?xml version="1.0" encoding="utf-8"?>
<!-- Generator: Adobe Illustrator 24.0.1, SVG Export Plug-In . SVG Version: 6.00 Build 0)  -->
<svg version="1.1" id="Concord_Half_Pit_Road" xmlns="http://www.w3.org/2000/svg" xmlns:xlink="http://www.w3.org/1999/xlink"
	 x="0px" y="0px" viewBox="0 0 1920 1080" style="enable-background:new 0 0 1920 1080;" xml:space="preserve">
<style type="text/css">
	.st0{fill:#D82520;}
</style>
<title>pitroad</title>
<g id="Pitroad">
	<path class="st0" d="M934.1,928.6c-9-3.1-17.8-7.4-26.4-12.9c-1.2-0.7-2.7-0.4-3.5,0.8s-0.4,2.7,0.8,3.5
		c8.9,5.6,18.1,10.1,27.4,13.4c0.3,0.1,0.5,0.1,0.8,0.1c1,0,2-0.6,2.4-1.7C936,930.5,935.4,929.1,934.1,928.6z"/>
	<path class="st0" d="M833.8,825c-0.6-1.2-2.1-1.8-3.3-1.2c-1.2,0.6-1.8,2.1-1.2,3.3c4.5,9.4,9.3,18.3,14.3,26.6
		c0.5,0.8,1.3,1.2,2.1,1.2c0.4,0,0.9-0.1,1.3-0.4c1.2-0.7,1.6-2.3,0.8-3.4C843,843,838.3,834.2,833.8,825z"/>
	<path class="st0" d="M864.7,875.6c-0.8-1.1-2.4-1.3-3.5-0.4c-1.1,0.8-1.3,2.4-0.4,3.5c6.4,8.3,13.3,15.8,20.3,22.5
		c0.5,0.5,1.1,0.7,1.7,0.7c0.7,0,1.3-0.3,1.8-0.8c0.9-1,0.9-2.6-0.1-3.5C877.7,891.1,871,883.7,864.7,875.6z"/>
	<path class="st0" d="M1047.1,912.8c-8.3,5.3-17.2,9.6-26.4,12.9c-1.3,0.5-2,1.9-1.5,3.2c0.4,1,1.3,1.7,2.4,1.7c0.3,0,0.6,0,0.8-0.1
		c9.5-3.4,18.7-7.9,27.3-13.4c1.2-0.7,1.5-2.3,0.8-3.5C1049.8,912.4,1048.2,912.1,1047.1,912.8z"/>
	<path class="st0" d="M1093,871.7c-1.1-0.8-2.7-0.6-3.5,0.5c-6,8.2-12.5,15.7-19.4,22.3c-1,1-1,2.5-0.1,3.5c0.5,0.5,1.1,0.8,1.8,0.8
		c0.6,0,1.3-0.2,1.7-0.7c7.1-6.8,13.8-14.5,19.9-23C1094.4,874.1,1094.1,872.5,1093,871.7z"/>
	<path class="st0" d="M992.2,932.6c-5.5,0.7-11.2,1.1-17,1.2l-0.4,0c0,0-3.1,0.5-8.2,0.5c-1.3,0-2.5,0-3.8-0.1
		c-1.4-0.1-2.5,1-2.6,2.4s1,2.6,2.4,2.6c1.4,0.1,2.7,0.1,4.1,0.1c4.9,0,8.1-0.4,8.9-0.6c5.9-0.1,11.7-0.5,17.3-1.2
		c1.4-0.2,2.3-1.4,2.2-2.8C994.8,933.4,993.5,932.4,992.2,932.6z"/>
	<path class="st0" d="M776.9,719.6c-0.9-1.1-2.5-1.2-3.5-0.3c-1.1,0.9-1.2,2.5-0.3,3.5c7,8.3,13.2,16.2,18.3,23.5c0.5,0.7,1.3,1,2,1
		c0.5,0,1-0.2,1.4-0.5c1.1-0.8,1.4-2.4,0.6-3.5C790.2,736,784,728,776.9,719.6z"/>
	<path class="st0" d="M1189.4,259.7c0.3,1.1,1.3,1.8,2.4,1.8c0.2,0,0.5,0,0.7-0.1c1.3-0.4,2.1-1.8,1.6-3.1
		c-3.1-9.7-6.9-19.2-11.5-28.1c-0.6-1.2-2.1-1.7-3.4-1.1c-1.2,0.6-1.7,2.1-1.1,3.4C1182.7,241,1186.4,250.2,1189.4,259.7z"/>
	<path class="st0" d="M1162.6,207.3c0.5,0.7,1.2,1,2,1c0.5,0,1-0.2,1.5-0.5c1.1-0.8,1.3-2.4,0.5-3.5c-6-8-12.8-15.6-20.2-22.7
		c-1-0.9-2.6-0.9-3.5,0.1c-1,1-0.9,2.6,0.1,3.5C1150.1,192.1,1156.8,199.5,1162.6,207.3z"/>
	<path class="st0" d="M744.5,684.1l-1.8,1.8l-2.3-1c-0.4,0.9-0.2,2,0.6,2.7c0.5,0.5,5.3,5.3,12.2,12.7c0.5,0.5,1.2,0.8,1.8,0.8
		c0.6,0,1.2-0.2,1.7-0.7c1-0.9,1.1-2.5,0.1-3.5C749.9,689.5,745.1,684.7,744.5,684.1z"/>
	<path class="st0" d="M814.6,777.5c-0.9-2.5-2-5.2-3.3-8.1c-0.6-1.2-2.1-1.8-3.3-1.2c-1.2,0.6-1.8,2.1-1.2,3.3
		c1.3,2.7,2.3,5.2,3.1,7.6c2.4,7,4.9,13.8,7.4,20.3c0.4,1,1.3,1.6,2.3,1.6c0.3,0,0.6-0.1,0.9-0.2c1.3-0.5,1.9-2,1.4-3.2
		C819.4,791.2,816.9,784.4,814.6,777.5z"/>
	<path class="st0" d="M1195.6,405.5c-1.4-0.1-2.6,0.9-2.7,2.3c-0.9,9.9-1.8,19.9-2.9,29.9c-0.1,1.4,0.9,2.6,2.2,2.7
		c0.1,0,0.2,0,0.3,0c1.3,0,2.4-1,2.5-2.2c1-10,2-20,2.9-29.9C1198,406.8,1197,405.6,1195.6,405.5z"/>
	<path class="st0" d="M1189.6,465.3c-1.4-0.2-2.6,0.8-2.8,2.2c-1.1,9.9-2.3,19.9-3.5,29.8c-0.2,1.4,0.8,2.6,2.2,2.8
		c0.1,0,0.2,0,0.3,0c1.2,0,2.3-0.9,2.5-2.2c1.2-9.9,2.4-19.9,3.5-29.9C1191.9,466.7,1191,465.4,1189.6,465.3z"/>
	<path class="st0" d="M1200.9,287.8c-0.2-1.4-1.5-2.3-2.8-2.1c-1.4,0.2-2.3,1.5-2.1,2.8c1.4,9.5,2.3,19.4,2.4,29.5
		c0,1.4,1.1,2.5,2.5,2.5c0,0,0,0,0,0c1.4,0,2.5-1.2,2.5-2.5C1203.2,307.6,1202.4,297.5,1200.9,287.8z"/>
	<path class="st0" d="M1200.1,345.6c-1.4-0.1-2.6,1-2.6,2.3c-0.4,6.4-1.1,16.7-2.1,30c-0.1,1.4,0.9,2.6,2.3,2.7c0.1,0,0.1,0,0.2,0
		c1.3,0,2.4-1,2.5-2.3c0.8-10.5,1.5-20.9,2.1-30C1202.5,346.8,1201.5,345.7,1200.1,345.6z"/>
	<path class="st0" d="M1120.5,818.5c-1.3-0.5-2.7,0.2-3.2,1.5c-2.3,6.2-6.2,16-12.1,27.1c-0.6,1.2-0.2,2.7,1,3.4
		c0.4,0.2,0.8,0.3,1.2,0.3c0.9,0,1.8-0.5,2.2-1.3c6-11.4,10-21.4,12.4-27.8C1122.5,820.4,1121.8,818.9,1120.5,818.5z"/>
	<path class="st0" d="M1182.2,524.9c-1.4-0.2-2.6,0.8-2.8,2.1c-1.4,9.9-2.8,19.9-4.2,29.7c-0.2,1.4,0.7,2.6,2.1,2.8
		c0.1,0,0.2,0,0.4,0c1.2,0,2.3-0.9,2.5-2.1c1.5-9.8,2.9-19.8,4.2-29.8C1184.6,526.3,1183.6,525.1,1182.2,524.9z"/>
	<path class="st0" d="M1122.7,162.6c-6.4-4.4-13.1-8.5-20-12.1l12.5-12.4l-47.6,0.5l33.6,33.7l-0.2-17.1c6.5,3.5,12.8,7.4,18.9,11.5
		c0.4,0.3,0.9,0.4,1.4,0.4c0.8,0,1.6-0.4,2.1-1.1C1124.2,164.9,1123.9,163.4,1122.7,162.6z"/>
	<path class="st0" d="M1137,760.7c-1.3-0.3-2.7,0.4-3.1,1.8c-2.6,9.8-5.3,19.6-8,28.9c-0.4,1.3,0.4,2.7,1.7,3.1
		c0.2,0.1,0.5,0.1,0.7,0.1c1.1,0,2.1-0.7,2.4-1.8c2.7-9.4,5.4-19.2,8-29C1139.2,762.4,1138.4,761,1137,760.7z"/>
	<path class="st0" d="M1151.1,702.3c-1.3-0.3-2.7,0.5-3,1.9c-2.2,9.8-4.5,19.7-6.8,29.2c-0.3,1.3,0.5,2.7,1.8,3
		c0.2,0,0.4,0.1,0.6,0.1c1.1,0,2.2-0.8,2.4-1.9c2.3-9.5,4.6-19.4,6.8-29.3C1153.3,703.9,1152.5,702.6,1151.1,702.3z"/>
	<path class="st0" d="M1163.2,643.5c-1.4-0.3-2.7,0.6-2.9,2c-1.9,9.9-3.8,19.8-5.8,29.4c-0.3,1.4,0.6,2.7,1.9,3
		c0.2,0,0.3,0.1,0.5,0.1c1.2,0,2.2-0.8,2.4-2c2-9.6,4-19.6,5.8-29.5C1165.4,645,1164.5,643.7,1163.2,643.5z"/>
	<path class="st0" d="M1173.5,584.3c-1.4-0.2-2.6,0.7-2.9,2.1c-1.6,9.9-3.3,19.8-5,29.6c-0.2,1.4,0.7,2.7,2,2.9c0.1,0,0.3,0,0.4,0
		c1.2,0,2.2-0.9,2.5-2.1c1.7-9.8,3.4-19.7,5-29.6C1175.8,585.8,1174.8,584.5,1173.5,584.3z"/>
</g>
</svg>
