<?xml version="1.0" encoding="utf-8"?>
<!-- Generator: Adobe Illustrator 24.0.1, SVG Export Plug-In . SVG Version: 6.00 Build 0)  -->
<svg version="1.1" id="National__Pit_Road" xmlns="http://www.w3.org/2000/svg" xmlns:xlink="http://www.w3.org/1999/xlink" x="0px"
	 y="0px" viewBox="0 0 1920 1080" style="enable-background:new 0 0 1920 1080;" xml:space="preserve">
<style type="text/css">
	.st0{fill:#D82520;}
</style>
<title>pitroad</title>
<g id="Pitroad">
	<path class="st0" d="M642.4,463.7c-1.2-0.7-2.7-0.2-3.4,1c-5.2,9.2-9.9,18.2-14.2,26.6c-0.6,1.2-0.1,2.7,1.1,3.4
		c0.4,0.2,0.7,0.3,1.1,0.3c0.9,0,1.8-0.5,2.2-1.4c4.2-8.3,8.9-17.2,14.1-26.4C644,465.9,643.6,464.4,642.4,463.7z"/>
	<path class="st0" d="M674.7,412.9c-1.1-0.8-2.7-0.5-3.5,0.7c-8.8,12.9-14.2,20.9-16.9,25c-0.8,1.2-0.4,2.7,0.7,3.5
		c0.4,0.3,0.9,0.4,1.4,0.4c0.8,0,1.6-0.4,2.1-1.1c2.7-4.1,8-12,16.8-24.9C676.1,415.2,675.8,413.7,674.7,412.9z"/>
	<path class="st0" d="M565.3,555.1c-7.1,6.5-13.7,13.5-20.8,22c-0.9,1.1-0.8,2.6,0.3,3.5c0.5,0.4,1,0.6,1.6,0.6
		c0.7,0,1.4-0.3,1.9-0.9c7-8.3,13.4-15.1,20.4-21.5c1-0.9,1.1-2.5,0.1-3.5C567.9,554.2,566.3,554.1,565.3,555.1z"/>
	<path class="st0" d="M529.5,600.3c-1.1-0.8-2.7-0.6-3.5,0.5c-2.2,3-4.4,6.1-6.7,9.4c-0.8,1.1-0.5,2.7,0.6,3.5
		c0.4,0.3,0.9,0.5,1.4,0.5c0.8,0,1.6-0.4,2-1.1c2.3-3.2,4.5-6.4,6.7-9.3C530.9,602.7,530.6,601.1,529.5,600.3z"/>
	<path class="st0" d="M611.4,517.3c-2.5,2.8-6.3,6.1-12.8,11.1c-1.9,1.4-3.7,2.8-5.5,4.2c-1.5,1.1-3,2.3-4.5,3.4
		c-1.1,0.8-1.3,2.4-0.5,3.5c0.5,0.6,1.2,1,2,1c0.5,0,1.1-0.2,1.5-0.5c1.5-1.1,2.9-2.2,4.4-3.4c1.8-1.4,3.6-2.8,5.5-4.2
		c6.9-5.2,10.8-8.6,13.5-11.8c0.9-1,0.8-2.6-0.2-3.5C613.9,516.1,612.3,516.2,611.4,517.3z"/>
	<path class="st0" d="M775.9,263.6c-1.1-0.8-2.7-0.5-3.5,0.7c-4.6,6.9-10.2,15.3-16.7,25c-0.8,1.1-0.5,2.7,0.7,3.5
		c0.4,0.3,0.9,0.4,1.4,0.4c0.8,0,1.6-0.4,2.1-1.1c6.5-9.7,12.2-18.1,16.8-25C777.4,265.9,777,264.4,775.9,263.6z"/>
	<path class="st0" d="M708.5,363.2c-1.1-0.8-2.7-0.5-3.5,0.7l-16.9,24.8c-0.8,1.1-0.5,2.7,0.7,3.5c0.4,0.3,0.9,0.4,1.4,0.4
		c0.8,0,1.6-0.4,2.1-1.1l16.9-24.8C709.9,365.5,709.7,364,708.5,363.2z"/>
	<path class="st0" d="M807.1,212.3c-1.2-0.7-2.7-0.3-3.4,0.9c-6,10.3-11.1,19-15.2,25.9c-0.7,1.2-0.3,2.7,0.9,3.4
		c0.4,0.2,0.8,0.4,1.3,0.4c0.8,0,1.7-0.4,2.1-1.2c4.1-6.9,9.2-15.6,15.2-25.9C808.8,214.5,808.3,213,807.1,212.3z"/>
	<path class="st0" d="M742.3,313.5c-1.1-0.8-2.7-0.5-3.5,0.7c-5.5,8.1-11.2,16.5-16.9,24.9c-0.8,1.1-0.5,2.7,0.7,3.5
		c0.4,0.3,0.9,0.4,1.4,0.4c0.8,0,1.6-0.4,2.1-1.1c5.7-8.4,11.4-16.7,16.9-24.9C743.8,315.8,743.5,314.3,742.3,313.5z"/>
	<path class="st0" d="M850.2,136.3l-37.6,29.2l17.3,1.9c-3.5,6.2-7.3,12.9-11.2,19.8c-0.7,1.2-0.3,2.7,0.9,3.4
		c0.4,0.2,0.8,0.3,1.2,0.3c0.9,0,1.7-0.5,2.2-1.3c3.9-6.9,7.7-13.6,11.2-19.8l10.6,13.7L850.2,136.3z"/>
</g>
</svg>
