<svg id="Full_-_Pit_Road" data-name="Full - Pit Road" xmlns="http://www.w3.org/2000/svg" viewBox="0 0 1920 1080"><defs><style>.cls-1{fill:#d82520;}</style></defs><title>pitroad</title><path class="cls-1" d="M338.35,578.14s-3.72-3.24-9.4-8.22a2.5,2.5,0,0,0-3.3,3.76c5.65,5,9.36,8.18,9.36,8.18s5.51,5.09,13,11.93a2.5,2.5,0,1,0,3.37-3.69C343.86,583.23,338.41,578.19,338.35,578.14Z"/><path class="cls-1" d="M451.23,651.31a195.81,195.81,0,0,1-28.17-9.09,2.5,2.5,0,0,0-1.89,4.63,201.14,201.14,0,0,0,28.88,9.32,2.46,2.46,0,0,0,.59.08,2.51,2.51,0,0,0,.59-4.94Z"/><path class="cls-1" d="M510.3,657.18c-10-.09-15.87-.13-17.82-.13-4-.17-8.08-.45-12-.84a2.5,2.5,0,1,0-.48,5c4.06.39,8.22.68,12.36.86h.1c1.89,0,7.72,0,17.84.13h0a2.5,2.5,0,0,0,0-5Z"/><path class="cls-1" d="M284,530.07a2.5,2.5,0,1,0-3.36,3.7c5.62,5.11,13.16,11.85,22.42,20a2.5,2.5,0,0,0,3.53-.21,2.5,2.5,0,0,0-.21-3.53C297.16,541.89,289.63,535.16,284,530.07Z"/><path class="cls-1" d="M249.87,393.15a2.17,2.17,0,0,0,.36,0A2.49,2.49,0,0,0,252.7,391c2.48-17,5.57-29.11,5.6-29.23a2.5,2.5,0,1,0-4.84-1.24c0,.12-3.19,12.45-5.71,29.75A2.51,2.51,0,0,0,249.87,393.15Z"/><path class="cls-1" d="M249.58,431.15c0-3.39.08-6.92.24-10.5a2.5,2.5,0,0,0-5-.22c-.16,3.65-.25,7.26-.24,10.72a186.74,186.74,0,0,0,1,19.62A2.5,2.5,0,0,0,248,453h.26a2.49,2.49,0,0,0,2.22-2.75A182.43,182.43,0,0,1,249.58,431.15Z"/><path class="cls-1" d="M256.42,479.22a2.5,2.5,0,0,0-4.81,1.37,166.8,166.8,0,0,0,10.78,28.48,2.5,2.5,0,1,0,4.47-2.23A161.9,161.9,0,0,1,256.42,479.22Z"/><path class="cls-1" d="M396.61,628.86c-1.05-.62-1.82-1.05-2.38-1.32-.71-.34-4.14-2.7-20.55-17.31a2.5,2.5,0,1,0-3.32,3.74c18.73,16.67,20.83,17.66,21.73,18.09.42.2,1.21.65,2,1.11a2.45,2.45,0,0,0,1.26.35,2.5,2.5,0,0,0,1.27-4.66Z"/><path class="cls-1" d="M810.77,659.76l-30-.21h0a2.5,2.5,0,0,0,0,5l30,.21h0a2.5,2.5,0,0,0,0-5Z"/><path class="cls-1" d="M870.81,662l-30-1.32a2.54,2.54,0,0,0-2.61,2.39,2.5,2.5,0,0,0,2.39,2.61l30,1.32h.12a2.5,2.5,0,0,0,.1-5Z"/><path class="cls-1" d="M570.47,657.77l-30.08-.3h0a2.5,2.5,0,0,0,0,5l30.07.3h0a2.5,2.5,0,0,0,0-5Z"/><path class="cls-1" d="M930.83,665.05l-9.26-.77-20.79-.91a2.5,2.5,0,0,0-.22,5l20.7.91,9.16.76h.21a2.5,2.5,0,0,0,.2-5Z"/><path class="cls-1" d="M750.77,659.34l-30-.21h0a2.5,2.5,0,0,0,0,5l30,.21h0a2.5,2.5,0,0,0,0-5Z"/><path class="cls-1" d="M630.61,658.38l-30.07-.31h0a2.5,2.5,0,0,0,0,5l30.07.31h0a2.5,2.5,0,0,0,0-5Z"/><path class="cls-1" d="M690.77,658.92l-27.88-.2h-.16l-2,0h0a2.5,2.5,0,0,0,0,5l30,.22h0a2.5,2.5,0,0,0,0-5Z"/><path class="cls-1" d="M1006,673.81l-42.2-22.09,5.45,16.53-8.51-.71a2.5,2.5,0,0,0-.42,5l8.52.71-8.11,15.39Z"/></svg>