<?xml version="1.0" encoding="utf-8"?>
<!-- Generator: Adobe Illustrator 24.0.1, SVG Export Plug-In . SVG Version: 6.00 Build 0)  -->
<svg version="1.1" id="Mid_Ohio_Short_-_Pit_Road" xmlns="http://www.w3.org/2000/svg" xmlns:xlink="http://www.w3.org/1999/xlink"
	 x="0px" y="0px" viewBox="0 0 1920 1080" style="enable-background:new 0 0 1920 1080;" xml:space="preserve">
<style type="text/css">
	.st0{fill:#016699;}
	.st1{fill:#D82520;}
</style>
<title>pitroad</title>
<g id="Mergeline">
	<path class="st0" d="M1022.2,840.4c-7.9-5.3-14.9-11.8-20.8-19.2c-1.7-2.2-4.9-2.5-7-0.8c-2.2,1.7-2.5,4.9-0.8,7
		c6.5,8.3,14.3,15.5,23,21.3c0.9,0.6,1.8,0.9,2.8,0.9c1.6,0,3.2-0.8,4.2-2.2C1025.1,845,1024.5,841.9,1022.2,840.4z"/>
	<path class="st0" d="M971.2,744.8c2.8-0.1,5-2.3,4.9-5.1c0-1.4,0-2.8,0-4.2c0-14.6,1.6-24.6,1.7-24.8c0.5-2.7-1.4-5.3-4.1-5.8
		c-2.7-0.5-5.3,1.4-5.8,4.1c-0.1,0.4-1.8,10.9-1.8,26.5c0,1.4,0,2.9,0,4.4c0.1,2.7,2.3,4.9,5,4.9
		C971.1,744.8,971.2,744.8,971.2,744.8z"/>
	<path class="st0" d="M979,768.8c-0.5-2.7-3.1-4.5-5.8-4c-2.7,0.5-4.5,3.1-4,5.8c2,10.6,4.9,20.7,8.7,29.8c0.8,1.9,2.7,3.1,4.6,3.1
		c0.6,0,1.3-0.1,1.9-0.4c2.5-1.1,3.8-4,2.7-6.5C983.6,788,980.9,778.7,979,768.8z"/>
	<path class="st0" d="M1076.4,859l-2.2-0.4c-2-0.3-4.1-0.7-6.6-1.1c-6.9-1.1-13.5-2.7-19.7-4.7c-2.6-0.9-5.4,0.6-6.3,3.2
		s0.6,5.4,3.2,6.3c6.6,2.2,13.8,3.9,21.2,5.1c2.5,0.4,4.6,0.8,6.6,1.1l2.2,0.4c0.3,0,0.6,0.1,0.8,0.1c2.4,0,4.5-1.7,4.9-4.2
		C1081,862,1079.1,859.4,1076.4,859z"/>
	<path class="st0" d="M1135.5,867c-13.1-1.6-22.6-2.8-29.7-3.8c-2.7-0.4-5.2,1.6-5.6,4.3c-0.4,2.7,1.6,5.2,4.3,5.6
		c7.1,0.9,16.6,2.1,29.7,3.8c0.2,0,0.4,0,0.6,0c2.5,0,4.6-1.9,5-4.4C1140.2,869.9,1138.2,867.4,1135.5,867z"/>
	
		<rect x="1123.5" y="869.6" transform="matrix(0.1257 -0.9921 0.9921 0.1257 143.0883 1911.5078)" class="st0" width="65" height="10"/>
</g>
<g id="Pitroad">
	<path class="st1" d="M980.7,590.1c0.1,0,0.1,0,0.2,0c1.3,0,2.4-1,2.5-2.3c0.7-10.6,1.4-20.6,2-29.9c0.1-1.4-0.9-2.6-2.3-2.7
		c-1.4-0.1-2.6,0.9-2.7,2.3c-0.6,9.3-1.3,19.3-2,29.9C978.3,588.9,979.3,590.1,980.7,590.1z"/>
	<path class="st1" d="M988.9,470.6c0.1,0,0.1,0,0.2,0c1.3,0,2.4-1,2.5-2.3c0.8-10.8,1.5-20.5,2.3-29.8c0.1-1.4-0.9-2.6-2.3-2.7
		c-1.4-0.1-2.6,0.9-2.7,2.3c-0.7,9.3-1.5,19.1-2.3,29.9C986.5,469.3,987.5,470.5,988.9,470.6z"/>
	<path class="st1" d="M976.8,649.9c0.1,0,0.1,0,0.2,0c1.3,0,2.4-1,2.5-2.3l2-29.9c0.1-1.4-1-2.6-2.3-2.7c-1.4-0.1-2.6,0.9-2.7,2.3
		l-2,29.9C974.3,648.7,975.4,649.9,976.8,649.9z"/>
	<path class="st1" d="M984.7,530.4c0.1,0,0.1,0,0.2,0c1.3,0,2.4-1,2.5-2.3c0.7-10.9,1.4-20.7,2.1-29.9c0.1-1.4-0.9-2.6-2.3-2.7
		c-1.4-0.1-2.6,0.9-2.7,2.3c-0.6,9.1-1.3,19-2.1,29.9C982.3,529.1,983.4,530.3,984.7,530.4z"/>
	<path class="st1" d="M1019.2,325.6c-10.9,5.4-17.9,12.7-21.4,22.6c-0.5,1.3,0.2,2.7,1.5,3.2c0.3,0.1,0.6,0.1,0.8,0.1
		c1,0,2-0.6,2.4-1.7c3-8.5,9.2-15,18.8-19.7c1.2-0.6,1.8-2.1,1.1-3.3C1022,325.5,1020.5,325,1019.2,325.6z"/>
	<path class="st1" d="M1073.3,236.6c-0.1-1.4-1.2-2.5-2.6-2.4c-1.4,0.1-2.5,1.2-2.4,2.6c0,0.1,0.4,10.2,0.4,22c0,2.6,0,5.2-0.1,7.9
		c0,1.4,1.1,2.5,2.5,2.5c0,0,0,0,0,0c1.4,0,2.5-1.1,2.5-2.5c0-2.7,0.1-5.4,0.1-8C1073.7,246.9,1073.3,236.7,1073.3,236.6z"/>
	<path class="st1" d="M1068.8,294.1c-1.3-0.4-2.7,0.4-3.1,1.7c-2,6.7-5.7,14.2-18.1,19.8c-1.3,0.6-1.8,2-1.3,3.3
		c0.4,0.9,1.3,1.5,2.3,1.5c0.3,0,0.7-0.1,1-0.2c14.4-6.5,18.7-15.7,20.8-23C1070.9,295.9,1070.1,294.5,1068.8,294.1z"/>
	<path class="st1" d="M996.6,376.1c-1.4-0.1-2.6,0.9-2.7,2.3c-1,10.6-1.8,20.4-2.6,29.8c-0.1,1.4,0.9,2.6,2.3,2.7c0.1,0,0.1,0,0.2,0
		c1.3,0,2.4-1,2.5-2.3c0.8-9.5,1.7-19.2,2.6-29.8C999,377.5,998,376.3,996.6,376.1z"/>
	<polygon class="st1" points="957.3,664.8 972.8,709.9 994.2,667.3 975.2,674 	"/>
</g>
</svg>
