<?xml version="1.0" encoding="utf-8"?>
<!-- Generator: Adobe Illustrator 24.0.1, SVG Export Plug-In . SVG Version: 6.00 Build 0)  -->
<svg version="1.1" id="Mid_Ohio_Oval_-_Pit_Road" xmlns="http://www.w3.org/2000/svg" xmlns:xlink="http://www.w3.org/1999/xlink"
	 x="0px" y="0px" viewBox="0 0 1920 1080" style="enable-background:new 0 0 1920 1080;" xml:space="preserve">
<style type="text/css">
	.st0{fill:#D82520;}
</style>
<title>pitroad</title>
<g id="Pitroad">
	<path class="st0" d="M1401.1,876.7c-6.4-3.1-11.4-4.4-13.9-4.9c-12.1-2.5-15.9-2.2-16.7-2c-1.3,0.3-2.2,1.6-1.9,3
		c0.3,1.3,1.6,2.2,2.9,1.9c0.1,0,0.3,0,0.7,0c1.6,0,5.5,0.3,14,2c2.2,0.5,6.8,1.7,12.7,4.5c0.4,0.2,0.7,0.3,1.1,0.3
		c0.9,0,1.8-0.5,2.3-1.4C1402.9,878.8,1402.4,877.3,1401.1,876.7z"/>
	<path class="st0" d="M1447.8,914.5c-6.3-4-12.3-10-18.1-15.8c-1.3-1.3-2.6-2.6-3.8-3.8c-1-1-2.6-0.9-3.5,0c-1,1-0.9,2.6,0,3.5
		c1.3,1.2,2.5,2.5,3.8,3.8c6,6,12.2,12.2,19,16.5c0.4,0.3,0.9,0.4,1.3,0.4c0.8,0,1.6-0.4,2.1-1.2
		C1449.3,916.8,1449,915.2,1447.8,914.5z"/>
	<path class="st0" d="M1558.3,904.6c-7.2,7.5-14.2,12-22.3,14.3c-0.5,0.1-1,0.3-1.7,0.4c-1.3,0.3-2.2,1.6-1.9,3c0.3,1.2,1.3,2,2.4,2
		c0.2,0,0.4,0,0.5-0.1c0.7-0.2,1.4-0.3,2-0.5c8.9-2.5,16.7-7.5,24.5-15.6c1-1,0.9-2.6-0.1-3.5
		C1560.9,903.6,1559.3,903.6,1558.3,904.6z"/>
	<path class="st0" d="M1505,922.4c-4,0.2-8,0.3-11.9,0.3c0,0,0,0,0,0c-6.4,0-12.3-0.2-17.7-0.7c-1.4-0.1-2.6,0.9-2.7,2.3
		c-0.1,1.4,0.9,2.6,2.3,2.7c5.5,0.5,11.6,0.7,18.1,0.7c0,0,0,0,0,0c3.9,0,8-0.1,12.1-0.3c1.4-0.1,2.5-1.2,2.4-2.6
		C1507.5,923.4,1506.4,922.3,1505,922.4z"/>
	<path class="st0" d="M1617.8,867.3l-47.6-2.3l12.3,13.1c-1,0.8-2.1,1.6-3.1,2.4c-0.5,0.4-0.9,0.8-1.4,1.3c-1,1-1,2.5-0.1,3.5
		c0.5,0.5,1.2,0.8,1.8,0.8c0.6,0,1.2-0.2,1.7-0.7c0.4-0.4,0.8-0.8,1.3-1.1c0.3-0.3,0.7-0.6,1-0.8l-0.8,16.3L1617.8,867.3z"/>
</g>
</svg>
