<?xml version="1.0" encoding="utf-8"?>
<!-- Generator: Adobe Illustrator 24.0.1, SVG Export Plug-In . SVG Version: 6.00 Build 0)  -->
<svg version="1.1" id="Mid_Ohio_Alt_Oval_-_Pit_Road"
	 xmlns="http://www.w3.org/2000/svg" xmlns:xlink="http://www.w3.org/1999/xlink" x="0px" y="0px" viewBox="0 0 1920 1080"
	 style="enable-background:new 0 0 1920 1080;" xml:space="preserve">
<style type="text/css">
	.st0{fill:#D82520;}
</style>
<title>pitroad</title>
<g id="Pitroad">
	<path class="st0" d="M1502.2,866.9C1502.2,866.9,1502.1,866.9,1502.2,866.9l-30,0.5c-1.4,0-2.5,1.2-2.5,2.5c0,1.4,1.1,2.5,2.5,2.5
		c0,0,0,0,0,0l30-0.5c1.4,0,2.5-1.2,2.5-2.5C1504.6,868,1503.5,866.9,1502.2,866.9z"/>
	<path class="st0" d="M1442.1,868l-30,0.5c-1.4,0-2.5,1.2-2.5,2.5c0,1.4,1.1,2.5,2.5,2.5c0,0,0,0,0,0l30-0.5c1.4,0,2.5-1.2,2.5-2.5
		S1443.5,868,1442.1,868z"/>
	<path class="st0" d="M1382.2,869C1382.2,869,1382.2,869,1382.2,869l-30,0.5c-1.4,0-2.5,1.2-2.5,2.5c0,1.4,1.1,2.5,2.5,2.5
		c0,0,0,0,0,0l30-0.5c1.4,0,2.5-1.2,2.5-2.5C1384.7,870.1,1383.5,869,1382.2,869z"/>
	<path class="st0" d="M1562.1,865.8l-30,0.5c-1.4,0-2.5,1.2-2.5,2.5c0,1.4,1.1,2.5,2.5,2.5c0,0,0,0,0,0l30-0.5
		c1.4,0,2.5-1.2,2.5-2.5S1563.5,865.8,1562.1,865.8z"/>
	<polygon class="st0" points="1617.8,867.3 1573.6,849.6 1581.8,868 1574.3,886.6 	"/>
</g>
</svg>
