<svg id="Laguna_Seca_-_Pit_Road" data-name="Laguna Seca - Pit Road" xmlns="http://www.w3.org/2000/svg" viewBox="0 0 1920 1080"><defs><style>.cls-1{fill:#0089ba;}.cls-2{fill:#d82520;}</style></defs><title>pitroad</title><g id="Mergeline"><path class="cls-1" d="M1202.21,921.76a217.89,217.89,0,0,1-26.1,14.07,2.51,2.51,0,0,0,1,4.78,2.57,2.57,0,0,0,1-.23,222.9,222.9,0,0,0,26.7-14.4,2.5,2.5,0,0,0-2.68-4.22Z"/><path class="cls-1" d="M1248.89,884.42c-8.76,7.32-16.76,14-23.08,19.25a2.5,2.5,0,0,0,1.6,4.42,2.45,2.45,0,0,0,1.59-.57c6.33-5.27,14.33-11.94,23.1-19.27a2.5,2.5,0,1,0-3.21-3.83Z"/><path class="cls-1" d="M1148.18,944.69l-29.43,5.84a2.5,2.5,0,0,0,.48,5,2.63,2.63,0,0,0,.49-.05l29.43-5.84a2.5,2.5,0,1,0-1-4.9Z"/><path class="cls-1" d="M1089.33,956.37l-29.43,5.84a2.5,2.5,0,0,0,.48,4.95,2,2,0,0,0,.49,0l29.43-5.84a2.5,2.5,0,0,0-1-4.9Z"/><path class="cls-1" d="M1030.47,968.05l-29.42,5.84a2.5,2.5,0,0,0,.48,5,2.7,2.7,0,0,0,.49,0l29.43-5.84a2.5,2.5,0,0,0-1-4.91Z"/><path class="cls-1" d="M1326.3,783.47a2.5,2.5,0,0,0-1.79-3.05,39.44,39.44,0,0,0-10-1.2c-1.48,0-3,.07-4.45.2a68.7,68.7,0,0,0-16.48,3.71,2.5,2.5,0,1,0,1.67,4.71,64.11,64.11,0,0,1,15.28-3.44c1.32-.12,2.66-.18,4-.18a34.9,34.9,0,0,1,8.73,1A2.5,2.5,0,0,0,1326.3,783.47Z"/><path class="cls-1" d="M1338.61,803.28a2.5,2.5,0,0,0-2.93,2,23.07,23.07,0,0,1-7.83,13.13l-9.78,8.18a2.51,2.51,0,0,0-.31,3.53,2.51,2.51,0,0,0,3.52.31l9.78-8.19a28,28,0,0,0,9.52-16A2.5,2.5,0,0,0,1338.61,803.28Z"/><path class="cls-1" d="M1295,845.86l-23,19.28a2.5,2.5,0,0,0,1.6,4.42,2.46,2.46,0,0,0,1.6-.58l23.06-19.28a2.5,2.5,0,0,0-3.21-3.84Z"/><rect class="cls-1" x="1270.2" y="781.27" width="5" height="32.5" transform="translate(-221.41 950.6) rotate(-37.92)"/></g><g id="Pitroad"><path class="cls-2" d="M664.51,953.25a2.48,2.48,0,0,0,1.56-.55l.36-.28.76-.62a20.79,20.79,0,0,0,2.88-3.14,21.1,21.1,0,0,0,3.38-6.26l5.94-17.6a2.5,2.5,0,1,0-4.74-1.6l-5.94,17.6A18.23,18.23,0,0,1,664,948l-.68.54-.36.3a2.5,2.5,0,0,0,1.56,4.45Z"/><path class="cls-2" d="M697,864.79a2.5,2.5,0,0,0-3.17,1.57l-9.6,28.42a2.5,2.5,0,0,0,4.74,1.6l9.6-28.42A2.5,2.5,0,0,0,697,864.79Z"/><path class="cls-2" d="M692.24,972.64c-13.87-.12-21.53-.18-22.79-.18a18.41,18.41,0,0,1-6.38-1,2.5,2.5,0,0,0-1.74,4.69,23.56,23.56,0,0,0,8.12,1.33c1.24,0,8.89.06,22.75.18h0a2.5,2.5,0,0,0,0-5Z"/><path class="cls-2" d="M716.22,807.94a2.5,2.5,0,0,0-3.17,1.57l-9.6,28.42a2.5,2.5,0,0,0,4.74,1.6l9.6-28.42A2.5,2.5,0,0,0,716.22,807.94Z"/><path class="cls-2" d="M932.76,974.71l-30.07-.27a2.53,2.53,0,0,0-2.52,2.48,2.49,2.49,0,0,0,2.47,2.52l30.08.27h0a2.5,2.5,0,0,0,0-5Z"/><path class="cls-2" d="M872.63,974.18l-30.06-.26a2.5,2.5,0,0,0,0,5l30.05.26h0a2.5,2.5,0,0,0,0-5Z"/><path class="cls-2" d="M752.4,973.14l-30.07-.25h0a2.5,2.5,0,0,0,0,5l30.07.25h0a2.5,2.5,0,0,0,0-5Z"/><path class="cls-2" d="M812.51,973.66l-30-.26h0a2.5,2.5,0,0,0,0,5l30.05.26h0a2.5,2.5,0,0,0,0-5Z"/><path class="cls-2" d="M1001.53,976.34l-44.49-17L964.33,975h-1.49a2.5,2.5,0,0,0,0,5h1.78l-6.3,16.36Z"/></g></svg>