<?xml version="1.0" encoding="utf-8"?>
<!-- Generator: Adobe Illustrator 24.0.1, SVG Export Plug-In . SVG Version: 6.00 Build 0)  -->
<svg version="1.1" id="Lakeland_Oval__Pit_Road" xmlns="http://www.w3.org/2000/svg" xmlns:xlink="http://www.w3.org/1999/xlink"
	 x="0px" y="0px" viewBox="0 0 1920 1080" style="enable-background:new 0 0 1920 1080;" xml:space="preserve">
<style type="text/css">
	.st0{fill:#016699;}
	.st1{fill:#D82520;}
</style>
<title>pitroad</title>
<g id="Mergeline">
	<path class="st0" d="M1440.6,301.2c-9.8-1.9-19.9-3.4-30.1-4.4c-2.8-0.3-5.2,1.7-5.5,4.5c-0.3,2.7,1.7,5.2,4.5,5.5
		c9.9,1,19.7,2.5,29.2,4.3c0.3,0.1,0.6,0.1,1,0.1c2.3,0,4.4-1.7,4.9-4.1C1445.1,304.4,1443.3,301.8,1440.6,301.2z"/>
	<path class="st0" d="M1477.9,785.8c-17.4,2.5-29.2,2.6-29.3,2.6c-2.8,0-5,2.3-5,5c0,2.8,2.3,5,5,5c0,0,0,0,0,0
		c0.5,0,12.6-0.1,30.6-2.7c2.7-0.4,4.6-2.9,4.2-5.7C1483.2,787.3,1480.7,785.4,1477.9,785.8z"/>
	<path class="st0" d="M1380.2,294.9c-1.7,0-3.5-0.1-5.2-0.1c-1.8-0.3-10.9-1.6-24-3.6c-2.7-0.4-5.3,1.5-5.7,4.2s1.5,5.3,4.2,5.7
		c14.7,2.2,24.4,3.7,24.4,3.7l0.7,0.1c1.8,0,3.6,0,5.4,0.1c0,0,0.1,0,0.1,0c2.7,0,4.9-2.2,5-4.9C1385.2,297.3,1383,295,1380.2,294.9
		z"/>
	<path class="st0" d="M1646.4,496.9c0.6,2.3,2.6,3.8,4.9,3.8c0.4,0,0.8,0,1.2-0.1c2.7-0.6,4.3-3.3,3.7-6c-2.3-9.7-5.2-19.6-8.5-29.2
		c-0.9-2.6-3.7-4-6.3-3.1c-2.6,0.9-4,3.7-3.1,6.3C1641.3,477.9,1644.1,487.5,1646.4,496.9z"/>
	<path class="st0" d="M1321.3,286.7c-9.5-1.5-19.6-3-29.7-4.6c-2.7-0.4-5.3,1.4-5.7,4.2c-0.4,2.7,1.4,5.3,4.2,5.7
		c10.1,1.6,20.2,3.1,29.7,4.6c0.3,0,0.5,0.1,0.8,0.1c2.4,0,4.6-1.8,4.9-4.2C1325.9,289.7,1324,287.1,1321.3,286.7z"/>
	<path class="st0" d="M1651.8,525.9c1.3,9.8,2.2,19.6,2.5,29.4c0.1,2.7,2.3,4.8,5,4.8c0.1,0,0.1,0,0.2,0c2.8-0.1,4.9-2.4,4.8-5.2
		c-0.3-10.1-1.2-20.3-2.6-30.4c-0.4-2.7-2.9-4.7-5.6-4.3C1653.4,520.6,1651.4,523.1,1651.8,525.9z"/>
	<path class="st0" d="M1261.9,277.4c-11.9-1.9-21.9-3.5-29.6-4.9c-2.7-0.5-5.3,1.4-5.8,4.1c-0.5,2.7,1.4,5.3,4.1,5.8
		c7.8,1.3,17.8,3,29.7,4.9c0.3,0,0.5,0.1,0.8,0.1c2.4,0,4.5-1.8,4.9-4.2C1266.5,280.4,1264.7,277.8,1261.9,277.4z"/>
	<path class="st0" d="M1498.9,318.6c-9.3-3.8-18.9-7.2-28.7-10.1c-2.7-0.8-5.4,0.7-6.2,3.4c-0.8,2.6,0.7,5.4,3.4,6.2
		c9.5,2.8,18.8,6.1,27.8,9.8c0.6,0.3,1.3,0.4,1.9,0.4c2,0,3.8-1.2,4.6-3.1C1502.7,322.6,1501.5,319.6,1498.9,318.6z"/>
	<path class="st0" d="M1627.5,695c-2.4-1.3-5.5-0.4-6.8,2c-6.1,11.3-11.8,19.8-15.5,25c-1.6,2.2-1.1,5.4,1.2,7
		c0.9,0.6,1.9,0.9,2.9,0.9c1.6,0,3.1-0.7,4.1-2.1c3.9-5.4,9.8-14.3,16.1-26C1630.8,699.3,1629.9,696.3,1627.5,695z"/>
	<path class="st0" d="M1535,771.4c-8.8,3.4-18.3,6.3-28.1,8.8c-2.7,0.7-4.3,3.4-3.6,6.1c0.6,2.3,2.6,3.8,4.8,3.8
		c0.4,0,0.8,0,1.2-0.2c10.2-2.5,20-5.6,29.2-9.1c2.6-1,3.9-3.9,2.9-6.5C1540.5,771.7,1537.6,770.4,1535,771.4z"/>
	<path class="st0" d="M1634.3,437.3c-5-8.7-10.6-17.3-16.7-25.7c-1.6-2.2-4.8-2.7-7-1.1c-2.2,1.6-2.7,4.8-1.1,7
		c5.9,8,11.3,16.3,16,24.7c0.9,1.6,2.6,2.5,4.3,2.5c0.8,0,1.7-0.2,2.5-0.7C1634.9,442.7,1635.7,439.7,1634.3,437.3z"/>
	<path class="st0" d="M1659,580c-2.8-0.2-5.2,1.9-5.4,4.6c-0.7,9.7-2,19.6-3.7,29.2c-0.5,2.7,1.3,5.3,4,5.8c0.3,0.1,0.6,0.1,0.9,0.1
		c2.4,0,4.5-1.7,4.9-4.1c1.8-10,3.1-20.2,3.9-30.3C1663.9,582.6,1661.8,580.3,1659,580z"/>
	<path class="st0" d="M1649.3,639.2c-2.7-0.8-5.4,0.7-6.2,3.4c-2.8,9.4-6.1,18.7-9.8,27.8c-1.1,2.6,0.2,5.5,2.7,6.5
		c0.6,0.3,1.3,0.4,1.9,0.4c2,0,3.8-1.2,4.6-3.1c3.9-9.4,7.3-19.1,10.1-28.8C1653.5,642.7,1652,639.9,1649.3,639.2z"/>
	<path class="st0" d="M1552.4,347.8c-8.3-5.8-17-11.2-26-16.1c-2.4-1.3-5.5-0.4-6.8,2c-1.3,2.4-0.4,5.5,2,6.8
		c8.6,4.7,17,9.9,25,15.5c0.9,0.6,1.9,0.9,2.9,0.9c1.6,0,3.1-0.7,4.1-2.1C1555.3,352.5,1554.7,349.3,1552.4,347.8z"/>
	<path class="st0" d="M1585.6,742.8c-7.2,5.9-15.3,11.4-24,16.3c-2.4,1.3-3.3,4.4-1.9,6.8c0.9,1.6,2.6,2.6,4.4,2.6
		c0.8,0,1.7-0.2,2.4-0.6c9.3-5.2,17.9-11,25.5-17.3c2.1-1.8,2.4-4.9,0.7-7C1590.9,741.3,1587.7,741,1585.6,742.8z"/>
	<path class="st0" d="M1576.5,366.6c-2.1-1.8-5.2-1.6-7.1,0.5c-1.8,2.1-1.6,5.2,0.5,7.1c7.3,6.4,14.4,13.4,21,20.6
		c1,1.1,2.3,1.6,3.7,1.6c1.2,0,2.4-0.4,3.4-1.3c2-1.9,2.2-5,0.3-7.1C1591.4,380.5,1584.1,373.3,1576.5,366.6z"/>
	
		<rect x="1187" y="270.2" transform="matrix(0.1704 -0.9854 0.9854 0.1704 740.5604 1430.009)" class="st0" width="65" height="10"/>
</g>
<g id="Pitroad">
	<path class="st1" d="M399.8,783.2c-9.7-2.2-19.3-4.9-28.6-8.1c-1.3-0.5-2.7,0.2-3.2,1.5c-0.5,1.3,0.2,2.7,1.5,3.2
		c9.4,3.3,19.2,6,29.1,8.3c0.2,0,0.4,0.1,0.5,0.1c1.1,0,2.2-0.8,2.4-2C402,784.9,401.1,783.5,399.8,783.2z"/>
	<path class="st1" d="M343.8,763.8c-8.9-4.3-17.6-9.1-26-14.4c-1.2-0.7-2.7-0.4-3.5,0.8c-0.7,1.2-0.4,2.7,0.8,3.5
		c8.5,5.4,17.4,10.3,26.5,14.7c0.4,0.2,0.7,0.2,1.1,0.2c0.9,0,1.8-0.5,2.3-1.4C345.5,765.9,345,764.4,343.8,763.8z"/>
	<path class="st1" d="M458.9,787l-30-0.1c0,0,0,0,0,0c-1.4,0-2.5,1.1-2.5,2.5c0,1.4,1.1,2.5,2.5,2.5l30,0.1c0,0,0,0,0,0
		c1.4,0,2.5-1.1,2.5-2.5C461.4,788.1,460.3,787,458.9,787z"/>
	<path class="st1" d="M638.9,787.7l-30-0.1c0,0,0,0,0,0c-1.4,0-2.5,1.1-2.5,2.5c0,1.4,1.1,2.5,2.5,2.5l30,0.1c0,0,0,0,0,0
		c1.4,0,2.5-1.1,2.5-2.5C641.4,788.8,640.3,787.7,638.9,787.7z"/>
	<path class="st1" d="M578.9,787.5l-30-0.1c0,0,0,0,0,0c-1.4,0-2.5,1.1-2.5,2.5c0,1.4,1.1,2.5,2.5,2.5l30,0.1c0,0,0,0,0,0
		c1.4,0,2.5-1.1,2.5-2.5C581.4,788.6,580.3,787.5,578.9,787.5z"/>
	<path class="st1" d="M518.9,787.2l-30-0.1c0,0,0,0,0,0c-1.4,0-2.5,1.1-2.5,2.5c0,1.4,1.1,2.5,2.5,2.5l30,0.1c0,0,0,0,0,0
		c1.4,0,2.5-1.1,2.5-2.5C521.4,788.3,520.3,787.2,518.9,787.2z"/>
	<path class="st1" d="M698.9,787.9l-30-0.1c0,0,0,0,0,0c-1.4,0-2.5,1.1-2.5,2.5c0,1.4,1.1,2.5,2.5,2.5l30,0.1c0,0,0,0,0,0
		c1.4,0,2.5-1.1,2.5-2.5C701.4,789.1,700.3,787.9,698.9,787.9z"/>
	<path class="st1" d="M167.6,508.4c-0.3-1.3-1.7-2.1-3-1.8c-1.3,0.3-2.1,1.7-1.8,3c1.7,6.8,3.8,13.9,6.1,21.2
		c0.3,1.1,1.3,1.7,2.4,1.7c0.2,0,0.5,0,0.8-0.1c1.3-0.4,2-1.8,1.6-3.1C171.3,522.1,169.3,515.1,167.6,508.4z"/>
	<path class="st1" d="M183.4,557.5c-0.5-1.3-1.9-1.9-3.2-1.4c-1.3,0.5-1.9,1.9-1.4,3.2c3.4,9,7.3,18.4,11.4,27.9
		c0.4,0.9,1.3,1.5,2.3,1.5c0.3,0,0.7-0.1,1-0.2c1.3-0.6,1.8-2,1.3-3.3C190.6,575.8,186.8,566.5,183.4,557.5z"/>
	<path class="st1" d="M293.7,732.1c-7.7-6.2-15.1-12.9-22.1-19.9c-1-1-2.6-1-3.5,0c-1,1-1,2.6,0,3.5c7.1,7.2,14.6,14,22.5,20.3
		c0.5,0.4,1,0.6,1.6,0.6c0.7,0,1.5-0.3,1.9-0.9C294.9,734.5,294.7,732.9,293.7,732.1z"/>
	<path class="st1" d="M207.2,612.4c-0.6-1.2-2.1-1.8-3.3-1.2c-1.2,0.6-1.8,2.1-1.2,3.3c4.3,9,8.9,18,13.6,26.9
		c0.4,0.9,1.3,1.3,2.2,1.3c0.4,0,0.8-0.1,1.2-0.3c1.2-0.6,1.7-2.2,1-3.4C216.1,630.3,211.5,621.3,207.2,612.4z"/>
	<path class="st1" d="M235.2,665.4c-0.7-1.2-2.2-1.6-3.4-1c-1.2,0.7-1.6,2.2-1,3.4c1.5,2.6,7,12.3,17.2,25.2c0.5,0.6,1.2,1,2,1
		c0.5,0,1.1-0.2,1.5-0.5c1.1-0.9,1.3-2.4,0.4-3.5C242,677.3,236.6,668,235.2,665.4z"/>
	<path class="st1" d="M1118.9,789.6l-30-0.1c0,0,0,0,0,0c-1.4,0-2.5,1.1-2.5,2.5c0,1.4,1.1,2.5,2.5,2.5l30,0.1c0,0,0,0,0,0
		c1.4,0,2.5-1.1,2.5-2.5C1121.4,790.7,1120.3,789.6,1118.9,789.6z"/>
	<path class="st1" d="M1178.9,789.9l-30-0.1c0,0,0,0,0,0c-1.4,0-2.5,1.1-2.5,2.5c0,1.4,1.1,2.5,2.5,2.5l30,0.1c0,0,0,0,0,0
		c1.4,0,2.5-1.1,2.5-2.5C1181.4,791,1180.3,789.9,1178.9,789.9z"/>
	<path class="st1" d="M1058.9,789.4l-30-0.1c0,0,0,0,0,0c-1.4,0-2.5,1.1-2.5,2.5c0,1.4,1.1,2.5,2.5,2.5l30,0.1c0,0,0,0,0,0
		c1.4,0,2.5-1.1,2.5-2.5C1061.4,790.5,1060.3,789.4,1058.9,789.4z"/>
	<path class="st1" d="M1238.9,790.1l-30-0.1c0,0,0,0,0,0c-1.4,0-2.5,1.1-2.5,2.5c0,1.4,1.1,2.5,2.5,2.5l30,0.1c0,0,0,0,0,0
		c1.4,0,2.5-1.1,2.5-2.5C1241.4,791.2,1240.3,790.1,1238.9,790.1z"/>
	<path class="st1" d="M1298.9,790.3l-30-0.1c0,0,0,0,0,0c-1.4,0-2.5,1.1-2.5,2.5c0,1.4,1.1,2.5,2.5,2.5l30,0.1c0,0,0,0,0,0
		c1.4,0,2.5-1.1,2.5-2.5C1301.4,791.5,1300.3,790.3,1298.9,790.3z"/>
	<path class="st1" d="M1358.9,790.6l-30-0.1c0,0,0,0,0,0c-1.4,0-2.5,1.1-2.5,2.5c0,1.4,1.1,2.5,2.5,2.5l30,0.1c0,0,0,0,0,0
		c1.4,0,2.5-1.1,2.5-2.5C1361.4,791.7,1360.3,790.6,1358.9,790.6z"/>
	<path class="st1" d="M758.9,788.2l-30-0.1c0,0,0,0,0,0c-1.4,0-2.5,1.1-2.5,2.5c0,1.4,1.1,2.5,2.5,2.5l30,0.1c0,0,0,0,0,0
		c1.4,0,2.5-1.1,2.5-2.5C761.4,789.3,760.3,788.2,758.9,788.2z"/>
	<path class="st1" d="M998.9,789.1l-30-0.1c0,0,0,0,0,0c-1.4,0-2.5,1.1-2.5,2.5c0,1.4,1.1,2.5,2.5,2.5l30,0.1c0,0,0,0,0,0
		c1.4,0,2.5-1.1,2.5-2.5C1001.4,790.3,1000.3,789.1,998.9,789.1z"/>
	<path class="st1" d="M878.9,788.7l-30-0.1c0,0,0,0,0,0c-1.4,0-2.5,1.1-2.5,2.5c0,1.4,1.1,2.5,2.5,2.5l30,0.1c0,0,0,0,0,0
		c1.4,0,2.5-1.1,2.5-2.5C881.4,789.8,880.3,788.7,878.9,788.7z"/>
	<path class="st1" d="M818.9,788.4l-30-0.1c0,0,0,0,0,0c-1.4,0-2.5,1.1-2.5,2.5c0,1.4,1.1,2.5,2.5,2.5l30,0.1c0,0,0,0,0,0
		c1.4,0,2.5-1.1,2.5-2.5C821.4,789.5,820.3,788.4,818.9,788.4z"/>
	<path class="st1" d="M938.9,788.9l-30-0.1c0,0,0,0,0,0c-1.4,0-2.5,1.1-2.5,2.5c0,1.4,1.1,2.5,2.5,2.5l30,0.1c0,0,0,0,0,0
		c1.4,0,2.5-1.1,2.5-2.5C941.4,790,940.3,788.9,938.9,788.9z"/>
	<path class="st1" d="M1448.7,793.4l-43.8-18.7l6.7,16l-22.8-0.1c0,0,0,0,0,0c-1.4,0-2.5,1.1-2.5,2.5c0,1.4,1.1,2.5,2.5,2.5
		l22.8,0.1l-6.9,16L1448.7,793.4z"/>
</g>
</svg>
