<?xml version="1.0" encoding="utf-8"?>
<!-- Generator: Adobe Illustrator 24.0.1, SVG Export Plug-In . SVG Version: 6.00 Build 0)  -->
<svg version="1.1" id="Oval__Pit_Road" xmlns="http://www.w3.org/2000/svg" xmlns:xlink="http://www.w3.org/1999/xlink" x="0px"
	 y="0px" viewBox="0 0 1920 1080" style="enable-background:new 0 0 1920 1080;" xml:space="preserve">
<style type="text/css">
	.st0{fill:#D82520;}
</style>
<title>pitroad</title>
<g id="Pitroad">
	<path class="st0" d="M636.6,621.2C636.6,621.2,636.6,621.2,636.6,621.2c-10.7,0-20.7,0-30,0.1c-1.4,0-2.5,1.1-2.5,2.5
		c0,1.4,1.1,2.5,2.5,2.5c0,0,0,0,0,0c9.3,0,19.3-0.1,30-0.1c1.4,0,2.5-1.1,2.5-2.5C639.1,622.3,638,621.2,636.6,621.2z"/>
	<path class="st0" d="M696.9,622c-12.5-0.2-22.7-0.4-30.1-0.5c-1.4,0-2.5,1.1-2.5,2.5c0,1.4,1.1,2.5,2.5,2.5
		c7.4,0.1,17.6,0.3,30.1,0.5c0,0,0,0,0,0c1.4,0,2.5-1.1,2.5-2.5C699.4,623.2,698.3,622,696.9,622z"/>
	<path class="st0" d="M516.7,621.8C516.7,621.8,516.7,621.8,516.7,621.8l-3.7,0c-10.9,0-19.2-0.1-26.2-0.3c-1.4-0.1-2.5,1-2.6,2.4
		c0,1.4,1,2.5,2.4,2.6c7.1,0.2,15.4,0.3,26.3,0.3l3.7,0c1.4,0,2.5-1.1,2.5-2.5C519.2,622.9,518,621.8,516.7,621.8z"/>
	<path class="st0" d="M757,623.1c-10.7-0.2-20.7-0.3-30.1-0.5c0,0,0,0,0,0c-1.4,0-2.5,1.1-2.5,2.5c0,1.4,1.1,2.5,2.5,2.5
		c9.3,0.2,19.4,0.3,30.1,0.5c0,0,0,0,0,0c1.4,0,2.5-1.1,2.5-2.5C759.5,624.2,758.4,623.1,757,623.1z"/>
	<path class="st0" d="M576.6,621.5c-8.3,0.1-15.9,0.1-23,0.2l-7,0c-1.4,0-2.5,1.1-2.5,2.5c0,1.4,1.1,2.5,2.5,2.5c0,0,0,0,0,0l7,0
		c7.1-0.1,14.7-0.1,23-0.2c1.4,0,2.5-1.1,2.5-2.5S578,621.4,576.6,621.5z"/>
	<path class="st0" d="M937.3,625.8c-10.1-0.1-20.2-0.3-30-0.4c0,0,0,0,0,0c-1.4,0-2.5,1.1-2.5,2.5c0,1.4,1.1,2.5,2.5,2.5
		c9.9,0.1,19.9,0.3,30,0.4c0,0,0,0,0,0c1.4,0,2.5-1.1,2.5-2.5C939.7,626.9,938.6,625.8,937.3,625.8z"/>
	<path class="st0" d="M997.3,626.5c-10.1-0.1-20.1-0.2-30-0.4c0,0,0,0,0,0c-1.4,0-2.5,1.1-2.5,2.5c0,1.4,1.1,2.5,2.5,2.5
		c9.9,0.1,20,0.3,30,0.4c0,0,0,0,0,0c1.4,0,2.5-1.1,2.5-2.5C999.8,627.7,998.7,626.6,997.3,626.5z"/>
	<path class="st0" d="M877.2,624.9c-10.2-0.1-20.2-0.3-30-0.4c-1.4,0-2.5,1.1-2.5,2.5c0,1.4,1.1,2.5,2.5,2.5
		c9.8,0.1,19.8,0.3,30,0.4c0,0,0,0,0,0c1.4,0,2.5-1.1,2.5-2.5C879.7,626.1,878.6,625,877.2,624.9z"/>
	<path class="st0" d="M817.1,624c-10.4-0.2-20.4-0.3-30-0.5c-1.4,0-2.5,1.1-2.5,2.5c0,1.4,1.1,2.5,2.5,2.5c9.7,0.2,19.7,0.3,30,0.5
		c0,0,0,0,0,0c1.4,0,2.5-1.1,2.5-2.5C819.6,625.2,818.5,624,817.1,624z"/>
	<path class="st0" d="M1057.4,627.2c-10-0.1-20.1-0.2-30.1-0.3c0,0,0,0,0,0c-1.4,0-2.5,1.1-2.5,2.5c0,1.4,1.1,2.5,2.5,2.5
		c10,0.1,20,0.2,30.1,0.3c0,0,0,0,0,0c1.4,0,2.5-1.1,2.5-2.5C1059.9,628.4,1058.8,627.2,1057.4,627.2z"/>
	<path class="st0" d="M171.8,433l-0.1-0.5c0-0.1-2.3-9.4-3.5-23.4c-0.1-1.4-1.3-2.4-2.7-2.3c-1.4,0.1-2.4,1.3-2.3,2.7
		c1.1,13.3,3.2,22.4,3.6,23.9c0,0.7,0.2,2.8,0.8,6c0.2,1.2,1.3,2.1,2.5,2.1c0.1,0,0.3,0,0.4,0c1.4-0.2,2.3-1.5,2-2.9
		C171.9,435,171.8,433,171.8,433z"/>
	<path class="st0" d="M171.5,347.5c-1.3-0.4-2.7,0.4-3.1,1.7c-2.7,9.3-4.5,19.4-5.3,30c-0.1,1.4,0.9,2.6,2.3,2.7c0.1,0,0.1,0,0.2,0
		c1.3,0,2.4-1,2.5-2.3c0.8-10.3,2.5-20,5.1-29C173.6,349.3,172.9,347.9,171.5,347.5z"/>
	<path class="st0" d="M181.6,466.5c-0.6-1.3-2.1-1.8-3.3-1.2c-1.3,0.6-1.8,2.1-1.2,3.3c4.1,8.9,9.2,17.8,15.2,26.3
		c0.5,0.7,1.3,1.1,2,1.1c0.5,0,1-0.1,1.4-0.5c1.1-0.8,1.4-2.4,0.6-3.5C190.5,483.8,185.6,475.2,181.6,466.5z"/>
	<path class="st0" d="M1328.4,282.1c9.4,4,18.6,8.1,27.4,12.1c0.3,0.2,0.7,0.2,1,0.2c1,0,1.9-0.5,2.3-1.5c0.6-1.3,0-2.7-1.2-3.3
		c-8.8-4-18.1-8.1-27.5-12.1c-1.3-0.5-2.7,0-3.3,1.3C1326.5,280.1,1327.1,281.6,1328.4,282.1z"/>
	<path class="st0" d="M457.1,619.4c-8.3-1-16.8-2.5-29.3-5.1c-1.4-0.3-2.7,0.6-3,1.9c-0.3,1.4,0.6,2.7,1.9,3
		c12.6,2.6,21.2,4.1,29.7,5.2c0.1,0,0.2,0,0.3,0c1.2,0,2.3-0.9,2.5-2.2C459.5,620.9,458.5,619.6,457.1,619.4z"/>
	<path class="st0" d="M237,534.9c-7.9-6.4-15.2-13.1-21.9-20c-1-1-2.5-1-3.5-0.1c-1,1-1,2.5-0.1,3.5c6.8,7.1,14.3,13.9,22.3,20.4
		c0.5,0.4,1,0.6,1.6,0.6c0.7,0,1.5-0.3,1.9-0.9C238.3,537.3,238.1,535.8,237,534.9z"/>
	<path class="st0" d="M341.5,590.9c-9.6-3.4-18.9-7.1-27.7-10.9c-1.3-0.5-2.7,0-3.3,1.3c-0.5,1.3,0,2.7,1.3,3.3
		c8.9,3.9,18.4,7.6,28,11c0.3,0.1,0.6,0.1,0.8,0.1c1,0,2-0.6,2.4-1.7C343.4,592.8,342.8,591.3,341.5,590.9z"/>
	<path class="st0" d="M398.7,607.8c-9.8-2.4-19.5-5-28.8-7.7c-1.3-0.4-2.7,0.4-3.1,1.7c-0.4,1.3,0.4,2.7,1.7,3.1
		c9.4,2.8,19.1,5.4,29.1,7.8c0.2,0,0.4,0.1,0.6,0.1c1.1,0,2.1-0.8,2.4-1.9C400.8,609.5,400,608.2,398.7,607.8z"/>
	<path class="st0" d="M286.8,567.2c-9-4.7-17.7-9.7-25.7-14.9c-1.2-0.7-2.7-0.4-3.5,0.7c-0.7,1.2-0.4,2.7,0.7,3.5
		c8.2,5.3,17,10.4,26.1,15.2c0.4,0.2,0.8,0.3,1.2,0.3c0.9,0,1.8-0.5,2.2-1.3C288.5,569.4,288.1,567.8,286.8,567.2z"/>
	<path class="st0" d="M1417.3,625.3c-8.4,1.2-16.5,1.9-24.3,2.1c-1.7,0-3.5,0.1-5.3,0.1c-1.4,0-2.5,1.2-2.4,2.6
		c0,1.4,1.1,2.4,2.5,2.4c0,0,0,0,0.1,0c1.8,0,3.6-0.1,5.3-0.1c8-0.2,16.4-0.9,24.9-2.2c1.4-0.2,2.3-1.5,2.1-2.8
		C1419.9,626.1,1418.6,625.1,1417.3,625.3z"/>
	<path class="st0" d="M1474,608.9c-8.7,4-18,7.4-27.8,10.2c-1.3,0.4-2.1,1.8-1.7,3.1c0.3,1.1,1.3,1.8,2.4,1.8c0.2,0,0.5,0,0.7-0.1
		c10-2.9,19.6-6.4,28.5-10.5c1.3-0.6,1.8-2.1,1.2-3.3C1476.8,608.9,1475.3,608.3,1474,608.9z"/>
	<path class="st0" d="M1462.1,351.6c0.8,0,1.6-0.4,2.1-1.1c0.8-1.1,0.5-2.7-0.7-3.5c-7.9-5.3-16.5-10.7-25.5-16.1
		c-1.2-0.7-2.7-0.3-3.4,0.9c-0.7,1.2-0.3,2.7,0.9,3.4c8.9,5.3,17.4,10.6,25.2,15.9C1461.1,351.5,1461.6,351.6,1462.1,351.6z"/>
	<path class="st0" d="M1410.6,320.9c0.9,0,1.8-0.5,2.2-1.3c0.7-1.2,0.2-2.7-1-3.4c-8.5-4.5-17.5-9.2-26.8-13.7
		c-1.2-0.6-2.7-0.1-3.3,1.1c-0.6,1.2-0.1,2.7,1.1,3.3c9.2,4.5,18.2,9.1,26.6,13.6C1409.8,320.8,1410.2,320.9,1410.6,320.9z"/>
	<path class="st0" d="M1508.9,388.9c0.6,0,1.3-0.3,1.8-0.8c1-1,0.9-2.6,0-3.5c-6.7-6.6-14.4-13.3-22.8-19.9
		c-1.1-0.9-2.7-0.7-3.5,0.4c-0.9,1.1-0.7,2.7,0.4,3.5c8.2,6.5,15.7,13.1,22.4,19.5C1507.6,388.7,1508.3,388.9,1508.9,388.9z"/>
	<path class="st0" d="M1521.4,574.5c-6.3,7.2-13.6,13.8-21.8,19.6c-1.1,0.8-1.4,2.4-0.6,3.5c0.5,0.7,1.3,1,2,1c0.5,0,1-0.2,1.5-0.5
		c8.5-6.1,16.1-13,22.7-20.4c0.9-1,0.8-2.6-0.2-3.5C1523.9,573.4,1522.3,573.5,1521.4,574.5z"/>
	<path class="st0" d="M1553.9,463.3c-0.2-1.4-1.4-2.3-2.8-2.1c-1.4,0.2-2.3,1.5-2.1,2.8c1.3,9.1,1.9,18.1,1.9,26.5c0,1,0,2,0,3
		c0,1.4,1.1,2.5,2.5,2.5c0,0,0,0,0,0c1.4,0,2.5-1.1,2.5-2.5c0-1,0-2,0-3.1C1555.8,481.8,1555.2,472.6,1553.9,463.3z"/>
	<path class="st0" d="M1550.4,520.8c-1.4-0.3-2.7,0.5-3,1.9c-2.2,9.8-5.4,19-9.7,27.6c-0.6,1.2-0.1,2.7,1.1,3.4
		c0.4,0.2,0.7,0.3,1.1,0.3c0.9,0,1.8-0.5,2.2-1.4c4.5-8.9,7.9-18.6,10.1-28.8C1552.6,522.4,1551.8,521.1,1550.4,520.8z"/>
	<path class="st0" d="M1357.7,628.1c-9.2,0.1-19.3,0.2-30,0.3c-1.4,0-2.5,1.1-2.5,2.5c0,1.4,1.1,2.5,2.5,2.5c0,0,0,0,0,0
		c10.7-0.1,20.8-0.2,30-0.3c1.4,0,2.5-1.2,2.5-2.5S1359.1,628,1357.7,628.1z"/>
	<path class="st0" d="M1543.8,437.2c0.3,0,0.7-0.1,1-0.2c1.3-0.5,1.9-2,1.3-3.3c-3.8-8.8-8.9-17.6-15.4-26.3
		c-0.8-1.1-2.4-1.3-3.5-0.5s-1.3,2.4-0.5,3.5c6.2,8.4,11.2,16.9,14.8,25.3C1541.9,436.6,1542.8,437.2,1543.8,437.2z"/>
	<path class="st0" d="M1187.6,230.7c-9.6-2.4-19.4-4.8-29.2-7.1c-1.3-0.3-2.7,0.5-3,1.9c-0.3,1.3,0.5,2.7,1.9,3
		c9.8,2.3,19.6,4.7,29.1,7.1c0.2,0.1,0.4,0.1,0.6,0.1c1.1,0,2.1-0.8,2.4-1.9C1189.7,232.4,1188.9,231.1,1187.6,230.7z"/>
	<path class="st0" d="M1177.6,628.2c-9.9-0.1-19.9-0.1-30-0.2c0,0,0,0,0,0c-1.4,0-2.5,1.1-2.5,2.5c0,1.4,1.1,2.5,2.5,2.5
		c10.1,0.1,20.1,0.1,30,0.2c0,0,0,0,0,0c1.4,0,2.5-1.1,2.5-2.5C1180.1,629.4,1178.9,628.2,1177.6,628.2z"/>
	<path class="st0" d="M1070,205.4c-7.6-1.3-15.1-2.6-22.5-3.8l9-14.8l-46.1,12l40.8,24.6l-4.4-16.9c7.3,1.2,14.8,2.4,22.4,3.8
		c0.1,0,0.3,0,0.4,0c1.2,0,2.2-0.9,2.5-2.1C1072.3,206.9,1071.4,205.6,1070,205.4z"/>
	<path class="st0" d="M1129,217c-9.9-2.1-19.8-4.2-29.5-6.1c-1.4-0.3-2.7,0.6-2.9,2c-0.3,1.4,0.6,2.7,2,2.9c9.7,1.9,19.5,4,29.4,6.1
		c0.2,0,0.4,0.1,0.5,0.1c1.2,0,2.2-0.8,2.4-2C1131.2,218.6,1130.4,217.3,1129,217z"/>
	<path class="st0" d="M1117.5,627.8c-10-0.1-20-0.2-30-0.3c0,0,0,0,0,0c-1.4,0-2.5,1.1-2.5,2.5c0,1.4,1.1,2.5,2.5,2.5
		c10.1,0.1,20.1,0.2,30,0.3c0,0,0,0,0,0c1.4,0,2.5-1.1,2.5-2.5C1120,628.9,1118.9,627.8,1117.5,627.8z"/>
	<path class="st0" d="M1245.5,246.7c-9.2-2.7-18.9-5.5-28.9-8.3c-1.3-0.4-2.7,0.4-3.1,1.8c-0.4,1.3,0.4,2.7,1.8,3.1
		c10,2.7,19.7,5.5,28.8,8.2c0.2,0.1,0.5,0.1,0.7,0.1c1.1,0,2.1-0.7,2.4-1.8C1247.6,248.5,1246.9,247.1,1245.5,246.7z"/>
	<path class="st0" d="M1297.7,628.5C1297.7,628.5,1297.7,628.5,1297.7,628.5c-9.3,0-18.9,0-28.8,0h-1.2c-1.4,0-2.5,1.1-2.5,2.5
		s1.1,2.5,2.5,2.5h1.2c9.9,0,19.5,0,28.8,0c1.4,0,2.5-1.1,2.5-2.5C1300.2,629.6,1299.1,628.5,1297.7,628.5z"/>
	<path class="st0" d="M1302.6,266c-8.1-3.2-17.6-6.7-28.4-10.3c-1.3-0.4-2.7,0.3-3.2,1.6c-0.4,1.3,0.3,2.7,1.6,3.2
		c10.7,3.6,20.1,7,28.1,10.2c0.3,0.1,0.6,0.2,0.9,0.2c1,0,1.9-0.6,2.3-1.6C1304.5,268,1303.9,266.5,1302.6,266z"/>
	<path class="st0" d="M1237.6,628.5c-9.8,0-19.9-0.1-30-0.1c0,0,0,0,0,0c-1.4,0-2.5,1.1-2.5,2.5c0,1.4,1.1,2.5,2.5,2.5
		c10.2,0,20.2,0.1,30,0.1c0,0,0,0,0,0c1.4,0,2.5-1.1,2.5-2.5C1240.1,629.6,1239,628.5,1237.6,628.5z"/>
</g>
</svg>
