<?xml version="1.0" encoding="utf-8"?>
<!-- Generator: Adobe Illustrator 24.0.1, SVG Export Plug-In . SVG Version: 6.00 Build 0)  -->
<svg version="1.1" id="dover_-_Pit_Road" xmlns="http://www.w3.org/2000/svg" xmlns:xlink="http://www.w3.org/1999/xlink" x="0px"
	 y="0px" viewBox="0 0 1920 1080" style="enable-background:new 0 0 1920 1080;" xml:space="preserve">
<style type="text/css">
	.st0{fill:#016699;}
	.st1{fill:#D82520;}
</style>
<title>pitroad</title>
<g id="Mergeline">
	<path class="st0" d="M1458.9,308.4c8.2,5.6,16.2,11.5,23.8,17.5c0.9,0.7,2,1.1,3.1,1.1c1.5,0,2.9-0.6,3.9-1.9
		c1.7-2.2,1.4-5.3-0.8-7c-7.8-6.2-16-12.3-24.4-18c-2.3-1.6-5.4-1-6.9,1.3C1456,303.7,1456.6,306.8,1458.9,308.4z"/>
	<path class="st0" d="M1396,858.9c-17.5,3.6-28.8,4.2-29.1,4.2c-2.8,0.1-4.9,2.5-4.8,5.2c0.1,2.7,2.3,4.8,5,4.8c0.1,0,0.2,0,0.2,0
		c0.5,0,12.2-0.6,30.6-4.4c2.7-0.6,4.4-3.2,3.9-5.9C1401.4,860.1,1398.7,858.3,1396,858.9z"/>
	<path class="st0" d="M1452.3,841.1c-8.9,3.9-18.3,7.3-27.7,10.3c-2.6,0.8-4.1,3.6-3.3,6.3c0.7,2.1,2.6,3.5,4.8,3.5
		c0.5,0,1-0.1,1.5-0.2c9.7-3.1,19.4-6.7,28.6-10.7c2.5-1.1,3.7-4,2.6-6.6C1457.8,841.2,1454.8,840,1452.3,841.1z"/>
	<path class="st0" d="M1525.7,366.4c1,1.1,2.4,1.7,3.7,1.7c1.2,0,2.4-0.4,3.3-1.3c2.1-1.8,2.2-5,0.4-7.1
		c-6.7-7.5-13.9-14.8-21.2-21.8c-2-1.9-5.2-1.8-7.1,0.2c-1.9,2-1.8,5.2,0.2,7.1C1512.2,352.1,1519.2,359.2,1525.7,366.4z"/>
	<path class="st0" d="M1605.4,522.8c0.5,2.3,2.6,3.9,4.9,3.9c0.4,0,0.7,0,1.1-0.1c2.7-0.6,4.4-3.3,3.8-6c-2.2-9.8-4.8-19.7-7.8-29.4
		c-0.8-2.6-3.6-4.1-6.3-3.3c-2.6,0.8-4.1,3.6-3.3,6.3C1600.8,503.6,1603.3,513.2,1605.4,522.8z"/>
	<path class="st0" d="M1503.5,812.1c-7.8,5.7-16.2,11-24.8,15.9c-2.4,1.4-3.3,4.4-1.9,6.8c0.9,1.6,2.6,2.5,4.4,2.5
		c0.8,0,1.7-0.2,2.5-0.6c8.9-5,17.6-10.6,25.7-16.5c2.2-1.6,2.7-4.7,1.1-7C1508.8,811,1505.7,810.5,1503.5,812.1z"/>
	<path class="st0" d="M1616.4,606.2c-2.7-0.3-5.2,1.7-5.5,4.4c-1.1,10-2.5,19.8-4.2,29.3c-0.5,2.7,1.3,5.3,4,5.8
		c0.3,0.1,0.6,0.1,0.9,0.1c2.4,0,4.5-1.7,4.9-4.1c1.8-9.7,3.3-19.8,4.4-30C1621.2,609,1619.2,606.5,1616.4,606.2z"/>
	<path class="st0" d="M1594.4,469.1c2.6-1,3.8-4,2.8-6.5c-3.8-9.4-8-18.7-12.6-27.7c-1.3-2.5-4.3-3.4-6.7-2.2
		c-2.5,1.3-3.4,4.3-2.2,6.7c4.4,8.7,8.6,17.8,12.3,26.9c0.8,1.9,2.7,3.1,4.6,3.1C1593.2,469.4,1593.8,469.3,1594.4,469.1z"/>
	<path class="st0" d="M1606.2,665.2c-2.7-0.7-5.4,0.8-6.2,3.5c-2.6,9.6-5.7,19-9.2,28c-1,2.6,0.3,5.5,2.9,6.5
		c0.6,0.2,1.2,0.3,1.8,0.3c2,0,3.9-1.2,4.7-3.2c3.5-9.3,6.7-19,9.5-28.9C1610.5,668.7,1608.9,665.9,1606.2,665.2z"/>
	<path class="st0" d="M1620.5,550.6c-0.4-2.7-2.9-4.7-5.6-4.3c-2.7,0.4-4.7,2.9-4.3,5.6c1.7,13.2,2.2,23.3,2.3,29.4
		c0,2.7,2.3,4.9,5,4.9c0,0,0.1,0,0.1,0c2.8,0,5-2.3,4.9-5.1C1622.8,574.8,1622.3,564.3,1620.5,550.6z"/>
	<path class="st0" d="M1546.5,772.3c-6.3,7.4-13.2,14.5-20.3,21.2c-2,1.9-2.2,5-0.3,7.1c1,1.1,2.3,1.6,3.7,1.6
		c1.2,0,2.4-0.4,3.4-1.3c7.5-6.9,14.6-14.3,21.2-22c1.8-2.1,1.5-5.3-0.6-7S1548.3,770.2,1546.5,772.3z"/>
	<path class="st0" d="M1585.7,721.3c-2.5-1.3-5.5-0.3-6.7,2.2c-4.5,8.8-9.5,17.3-14.8,25.4c-1.5,2.3-0.9,5.4,1.4,6.9
		c0.9,0.6,1.8,0.8,2.8,0.8c1.6,0,3.2-0.8,4.2-2.2c5.6-8.4,10.7-17.2,15.4-26.3C1589.2,725.6,1588.2,722.6,1585.7,721.3z"/>
	<path class="st0" d="M1568,415.3c2.3-1.5,3.1-4.5,1.6-6.9c-5.3-8.6-11.1-17-17.2-25.1c-1.7-2.2-4.8-2.7-7-1c-2.2,1.7-2.7,4.8-1,7
		c5.9,7.8,11.5,16.1,16.7,24.4c0.9,1.5,2.6,2.4,4.2,2.4C1566.3,416,1567.2,415.8,1568,415.3z"/>
	<path class="st0" d="M1422.6,318.1l14.6-24.9c1.4-0.3,2.7-1.1,3.4-2.4c0.7-1.3,0.8-2.8,0.4-4.1l14.5-24.7l-8.6-5.1l-15.9,27.1
		c-0.2,0.3-0.4,0.5-0.6,0.8c-0.1,0.2-0.2,0.5-0.3,0.8l-16,27.3L1422.6,318.1z"/>
</g>
<g id="Pitroad">
	<path class="st1" d="M572.8,860c-9.5-2.4-19.1-5.4-28.4-8.8c-1.3-0.5-2.7,0.2-3.2,1.5c-0.5,1.3,0.2,2.7,1.5,3.2
		c9.5,3.5,19.2,6.5,28.9,8.9c0.2,0.1,0.4,0.1,0.6,0.1c1.1,0,2.1-0.8,2.4-1.9C574.9,861.7,574.1,860.3,572.8,860z"/>
	<path class="st1" d="M517,839.5c-8.8-4.3-17.6-9.1-26.1-14.3c-1.2-0.7-2.7-0.3-3.4,0.8c-0.7,1.2-0.3,2.7,0.8,3.4
		c8.7,5.3,17.6,10.2,26.5,14.5c0.4,0.2,0.7,0.3,1.1,0.3c0.9,0,1.8-0.5,2.3-1.4C518.8,841.6,518.3,840.1,517,839.5z"/>
	<path class="st1" d="M631.4,868.5c-9.9-0.4-19.9-1.3-29.6-2.7c-1.4-0.2-2.6,0.8-2.8,2.1c-0.2,1.4,0.8,2.6,2.1,2.8
		c9.9,1.4,20,2.4,30.1,2.7c0,0,0.1,0,0.1,0c1.3,0,2.4-1.1,2.5-2.4C633.9,869.7,632.8,868.5,631.4,868.5z"/>
	<path class="st1" d="M691.3,868.3C691.3,868.3,691.3,868.3,691.3,868.3l-30,0.1c-1.4,0-2.5,1.1-2.5,2.5c0,1.4,1.1,2.5,2.5,2.5
		c0,0,0,0,0,0l30-0.1c1.4,0,2.5-1.1,2.5-2.5C693.8,869.5,692.7,868.3,691.3,868.3z"/>
	<path class="st1" d="M364.4,700.5c-0.8-1.1-2.3-1.4-3.5-0.7c-1.1,0.8-1.4,2.3-0.7,3.5c5.6,8.3,11.5,16.6,17.6,24.5
		c0.5,0.6,1.2,1,2,1c0.5,0,1.1-0.2,1.5-0.5c1.1-0.8,1.3-2.4,0.5-3.5C375.9,716.9,370,708.7,364.4,700.5z"/>
	<path class="st1" d="M334.4,648.8c-0.6-1.3-2.1-1.8-3.3-1.2c-1.3,0.6-1.8,2.1-1.2,3.3c0.2,0.4,4.9,10.7,14.3,26.8
		c0.5,0.8,1.3,1.2,2.2,1.2c0.4,0,0.9-0.1,1.3-0.3c1.2-0.7,1.6-2.2,0.9-3.4C339.2,659.2,334.5,648.9,334.4,648.8z"/>
	<path class="st1" d="M751.3,868.1C751.3,868.1,751.3,868.1,751.3,868.1l-30,0.1c-1.4,0-2.5,1.1-2.5,2.5c0,1.4,1.1,2.5,2.5,2.5
		c0,0,0,0,0,0l30-0.1c1.4,0,2.5-1.1,2.5-2.5C753.8,869.2,752.7,868.1,751.3,868.1z"/>
	<path class="st1" d="M466.2,808.7c-7.9-5.8-15.7-12-23.3-18.6c-1-0.9-2.6-0.8-3.5,0.3c-0.9,1-0.8,2.6,0.3,3.5
		c7.7,6.7,15.6,13,23.6,18.9c0.4,0.3,1,0.5,1.5,0.5c0.8,0,1.5-0.4,2-1C467.6,811.1,467.3,809.5,466.2,808.7z"/>
	<path class="st1" d="M400.8,747.9c-0.9-1-2.5-1.2-3.5-0.2c-1,0.9-1.2,2.5-0.2,3.5c6.7,7.7,13.6,15.1,20.6,22.1
		c0.5,0.5,1.1,0.7,1.8,0.7c0.6,0,1.3-0.2,1.8-0.7c1-1,1-2.6,0-3.5C414.2,762.8,407.4,755.5,400.8,747.9z"/>
	<path class="st1" d="M811.3,867.9C811.3,867.9,811.3,867.9,811.3,867.9l-30,0.1c-1.4,0-2.5,1.1-2.5,2.5c0,1.4,1.1,2.5,2.5,2.5
		c0,0,0,0,0,0l30-0.1c1.4,0,2.5-1.1,2.5-2.5C813.8,869,812.7,867.9,811.3,867.9z"/>
	<path class="st1" d="M1231.3,866.2C1231.3,866.2,1231.3,866.2,1231.3,866.2l-30,0.1c-1.4,0-2.5,1.1-2.5,2.5c0,1.4,1.1,2.5,2.5,2.5
		c0,0,0,0,0,0l30-0.1c1.4,0,2.5-1.1,2.5-2.5C1233.8,867.3,1232.7,866.2,1231.3,866.2z"/>
	<path class="st1" d="M1111.3,866.6C1111.3,866.6,1111.3,866.6,1111.3,866.6l-30,0.1c-1.4,0-2.5,1.1-2.5,2.5c0,1.4,1.1,2.5,2.5,2.5
		c0,0,0,0,0,0l30-0.1c1.4,0,2.5-1.1,2.5-2.5C1113.8,867.8,1112.7,866.6,1111.3,866.6z"/>
	<path class="st1" d="M1051.3,866.9C1051.3,866.9,1051.3,866.9,1051.3,866.9l-30,0.1c-1.4,0-2.5,1.1-2.5,2.5c0,1.4,1.1,2.5,2.5,2.5
		c0,0,0,0,0,0l30-0.1c1.4,0,2.5-1.1,2.5-2.5C1053.8,868,1052.7,866.9,1051.3,866.9z"/>
	<path class="st1" d="M1291.3,865.9C1291.3,865.9,1291.3,865.9,1291.3,865.9l-30,0.1c-1.4,0-2.5,1.1-2.5,2.5c0,1.4,1.1,2.5,2.5,2.5
		c0,0,0,0,0,0l30-0.1c1.4,0,2.5-1.1,2.5-2.5C1293.8,867,1292.7,865.9,1291.3,865.9z"/>
	<path class="st1" d="M1171.3,866.4C1171.3,866.4,1171.3,866.4,1171.3,866.4l-30,0.1c-1.4,0-2.5,1.1-2.5,2.5c0,1.4,1.1,2.5,2.5,2.5
		c0,0,0,0,0,0l30-0.1c1.4,0,2.5-1.1,2.5-2.5C1173.8,867.5,1172.7,866.4,1171.3,866.4z"/>
	<path class="st1" d="M931.3,867.4C931.3,867.4,931.3,867.4,931.3,867.4l-30,0.1c-1.4,0-2.5,1.1-2.5,2.5c0,1.4,1.1,2.5,2.5,2.5
		c0,0,0,0,0,0l30-0.1c1.4,0,2.5-1.1,2.5-2.5C933.8,868.5,932.7,867.4,931.3,867.4z"/>
	<path class="st1" d="M871.3,867.6C871.3,867.6,871.3,867.6,871.3,867.6l-30,0.1c-1.4,0-2.5,1.1-2.5,2.5c0,1.4,1.1,2.5,2.5,2.5
		c0,0,0,0,0,0l30-0.1c1.4,0,2.5-1.1,2.5-2.5C873.8,868.7,872.7,867.6,871.3,867.6z"/>
	<path class="st1" d="M991.3,867.1C991.3,867.1,991.3,867.1,991.3,867.1l-30,0.1c-1.4,0-2.5,1.1-2.5,2.5c0,1.4,1.1,2.5,2.5,2.5
		c0,0,0,0,0,0l30-0.1c1.4,0,2.5-1.1,2.5-2.5C993.8,868.2,992.7,867.1,991.3,867.1z"/>
	<path class="st1" d="M1367.2,868.1l-44-18.3l6.9,16l-8.8,0c-1.4,0-2.5,1.1-2.5,2.5c0,1.4,1.1,2.5,2.5,2.5c0,0,0,0,0,0l8.8,0
		l-6.7,16L1367.2,868.1z"/>
</g>
</svg>
