<?xml version="1.0" encoding="utf-8"?>
<!-- Generator: Adobe Illustrator 24.0.1, SVG Export Plug-In . SVG Version: 6.00 Build 0)  -->
<svg version="1.1" id="GP_Pits_-_Pit_Road" xmlns="http://www.w3.org/2000/svg" xmlns:xlink="http://www.w3.org/1999/xlink" x="0px"
	 y="0px" viewBox="0 0 1920 1080" style="enable-background:new 0 0 1920 1080;" xml:space="preserve">
<style type="text/css">
	.st0{fill:#D82520;}
</style>
<title>pitroad</title>
<g id="Pitroad">
	<path class="st0" d="M667.9,300.9c-3.5,3.2-7.4,5.7-11.8,7.5c-1.3,0.5-1.9,2-1.4,3.3c0.4,1,1.3,1.6,2.3,1.6c0.3,0,0.6-0.1,0.9-0.2
		c4.9-2,9.4-4.9,13.3-8.5c1-0.9,1.1-2.5,0.1-3.5C670.5,300.1,668.9,300,667.9,300.9z"/>
	<path class="st0" d="M395.6,274.5l-28.8,1.3c-1.4,0.1-2.4,1.2-2.4,2.6c0.1,1.3,1.2,2.4,2.5,2.4c0,0,0.1,0,0.1,0l28.8-1.3
		c1.4-0.1,2.4-1.2,2.4-2.6C398.1,275.6,396.9,274.5,395.6,274.5z"/>
	<path class="st0" d="M338,277.2l-3.8,0.2l-0.2,0c0,0-2,0.2-4.7,0.2c-4,0-13.6-0.5-15.2-5.4c-0.4-1.3-1.9-2-3.2-1.6
		c-1.3,0.4-2,1.9-1.6,3.2c2.4,7.3,12.2,8.8,20,8.8c2.7,0,4.7-0.2,5.1-0.2l3.7-0.2c1.4-0.1,2.4-1.2,2.4-2.6
		C340.5,278.2,339.3,277.1,338,277.2z"/>
	<path class="st0" d="M679.5,275.7c-3.9-15.3-23.3-16.3-24.2-16.3l-0.1,0l-1,0c-1.4,0-2.5,1.1-2.5,2.5c0,1.4,1.1,2.5,2.5,2.5
		c0,0,0,0,0,0l0.8,0c1,0.1,16.6,1.2,19.5,12.5c0.3,1.1,1.3,1.9,2.4,1.9c0.2,0,0.4,0,0.6-0.1C679,278.4,679.8,277,679.5,275.7z"/>
	<path class="st0" d="M453.2,271.9l-28.8,1.3c-1.4,0.1-2.4,1.2-2.4,2.6c0.1,1.3,1.2,2.4,2.5,2.4c0,0,0.1,0,0.1,0l28.8-1.3
		c1.4-0.1,2.4-1.2,2.4-2.6C455.7,272.9,454.6,271.9,453.2,271.9z"/>
	<path class="st0" d="M625.5,259.6C625.5,259.6,625.5,259.6,625.5,259.6l-28.9,0.2c-1.4,0-2.5,1.1-2.5,2.5c0,1.4,1.1,2.5,2.5,2.5
		c0,0,0,0,0,0l28.8-0.2c1.4,0,2.5-1.1,2.5-2.5C628,260.7,626.9,259.6,625.5,259.6z"/>
	<path class="st0" d="M567.9,265.5L561,267l-21.4,1c-1.4,0.1-2.4,1.2-2.4,2.6c0.1,1.3,1.2,2.4,2.5,2.4c0,0,0.1,0,0.1,0l21.6-1
		l7.5-1.5c1.4-0.3,2.2-1.6,1.9-3C570.6,266.1,569.2,265.3,567.9,265.5z"/>
	<path class="st0" d="M510.8,269.3l-28.8,1.3c-1.4,0.1-2.4,1.2-2.4,2.6c0.1,1.3,1.2,2.4,2.5,2.4c0,0,0.1,0,0.1,0l28.8-1.3
		c1.4-0.1,2.4-1.2,2.4-2.6C513.4,270.3,512.2,269.2,510.8,269.3z"/>
	<path class="st0" d="M329.9,242.2l-6,4.9c-1.1,0.9-1.2,2.5-0.3,3.5c0.5,0.6,1.2,0.9,1.9,0.9c0.6,0,1.1-0.2,1.6-0.6l6-4.9l4.9,16.7
		l22.1-42.2l-45.6,13.6L329.9,242.2z"/>
</g>
</svg>
