<svg id="Short_-_Pit_Road" data-name="Short - Pit Road" xmlns="http://www.w3.org/2000/svg" viewBox="0 0 1920 1080"><defs><style>.cls-1{fill:#0089ba;}.cls-2{fill:#d82520;}</style></defs><title>pitroad</title><g id="Mergeline"><path class="cls-1" d="M967.3,924.93c-9.39.46-19.57.94-30,1.43a5,5,0,0,0,.23,10h.24c10.44-.49,20.63-1,30-1.43a5,5,0,0,0-.48-10Z"/><path class="cls-1" d="M907.29,927.76l-30,1.39a5,5,0,0,0,.22,10h.24l30-1.39a5,5,0,1,0-.46-10Z"/><path class="cls-1" d="M847.26,930.53l-6.38.29-1.29-27.49-10,.47,1.52,32.42v0a.43.43,0,0,1,0,.05l1.52,32.41,10-.47-1.29-27.45,6.36-.29a5,5,0,1,0-.45-10Z"/><path class="cls-1" d="M1027.23,922c-9.07.56-18,1-26.54,1.29l-3.39.18a5,5,0,0,0,.25,10h.26l3.31-.17c8.58-.29,17.57-.73,26.73-1.3a5,5,0,1,0-.62-10Z"/><path class="cls-1" d="M1086.79,916.76c-10,1.12-20,2.12-29.76,3a5,5,0,0,0,.44,10h.44c9.8-.87,19.89-1.88,30-3a5,5,0,1,0-1.11-9.94Z"/><path class="cls-1" d="M1151.83,913a5,5,0,0,0-5.75-4.11c-.12,0-11.54,1.9-29.59,4.29a5,5,0,0,0,1.32,9.92c18.22-2.42,29.79-4.33,29.9-4.35A5,5,0,0,0,1151.83,913Z"/></g><g id="Pitroad"><path class="cls-2" d="M1485.47,914.78l-30-.31a2.55,2.55,0,0,0-2.53,2.48,2.5,2.5,0,0,0,2.48,2.52l30,.31h0a2.5,2.5,0,0,0,0-5Z"/><path class="cls-2" d="M1545.46,915.41l-30-.32h0a2.5,2.5,0,0,0,0,5l30,.32h0a2.5,2.5,0,0,0,0-5Z"/><path class="cls-2" d="M1670.41,603.42c-16.7-5.21-28.87-8.52-29-8.55a2.5,2.5,0,1,0-1.31,4.82c.12,0,12.21,3.32,28.81,8.5a2.45,2.45,0,0,0,.75.12,2.5,2.5,0,0,0,.74-4.89Z"/><path class="cls-2" d="M1605.46,916l-30-.32h0a2.5,2.5,0,0,0,0,5l30,.32h0a2.5,2.5,0,0,0,0-5Z"/><path class="cls-2" d="M1665.46,916.65l-30-.31h0a2.5,2.5,0,0,0,0,5l30,.31h0a2.5,2.5,0,0,0,0-5Z"/><path class="cls-2" d="M1365.47,913.54l-30-.31h0a2.5,2.5,0,0,0,0,5l30,.31h0a2.5,2.5,0,0,0,0-5Z"/><path class="cls-2" d="M1245.48,912.3l-30-.31h0a2.5,2.5,0,0,0,0,5l30,.31h0a2.5,2.5,0,0,0,0-5Z"/><path class="cls-2" d="M1305.48,912.92l-30-.31a2.5,2.5,0,1,0,0,5l30,.31h0a2.5,2.5,0,0,0,0-5Z"/><path class="cls-2" d="M1425.47,914.16l-30-.31h0a2.5,2.5,0,0,0,0,5l30,.31h0a2.5,2.5,0,0,0,0-5Z"/><path class="cls-2" d="M1809.3,776.27a2.62,2.62,0,0,0,.62-.07,2.5,2.5,0,0,0,1.81-3L1804.31,744a2.5,2.5,0,1,0-4.84,1.23l7.41,29.14A2.5,2.5,0,0,0,1809.3,776.27Z"/><path class="cls-2" d="M1791.53,693.85c-.7-2.72-1.49-5.48-2.34-8.22a2.5,2.5,0,1,0-4.77,1.48c.83,2.66,1.59,5.35,2.27,8l5.36,21a2.49,2.49,0,0,0,2.42,1.88,2.25,2.25,0,0,0,.62-.08,2.5,2.5,0,0,0,1.8-3C1794.2,704.29,1792.22,696.55,1791.53,693.85Z"/><path class="cls-2" d="M1725.4,917.24h-1.25l-28.69-.29h0a2.5,2.5,0,0,0,0,5l27.63.28h2.42a2.5,2.5,0,0,0-.06-5Z"/><path class="cls-2" d="M1826.56,831.47l-7.42-29.17a2.5,2.5,0,0,0-4.84,1.23l7.42,29.18a2.49,2.49,0,0,0,2.42,1.88,2.13,2.13,0,0,0,.61-.08A2.5,2.5,0,0,0,1826.56,831.47Z"/><path class="cls-2" d="M1824.19,859.28a2.51,2.51,0,0,0-3.14,1.63,56.85,56.85,0,0,1-15.21,24,2.5,2.5,0,1,0,3.46,3.61,62,62,0,0,0,16.52-26.13A2.5,2.5,0,0,0,1824.19,859.28Z"/><path class="cls-2" d="M1780.89,900.4l-6.22,3.53a102.72,102.72,0,0,1-20.44,8.81,2.5,2.5,0,0,0,.74,4.89,2.33,2.33,0,0,0,.73-.12,107.29,107.29,0,0,0,21.44-9.23l6.23-3.54a2.5,2.5,0,1,0-2.48-4.34Z"/><path class="cls-2" d="M1727.28,623.56c-8.37-3.45-17.87-7-28.24-10.68a2.5,2.5,0,0,0-1.65,4.72c10.28,3.6,19.69,7.16,28,10.59a2.64,2.64,0,0,0,.95.19,2.5,2.5,0,0,0,1-4.82Z"/><path class="cls-2" d="M1769.5,654.45c1.18,1.72,2.36,3.59,3.49,5.57a2.49,2.49,0,0,0,2.17,1.26,2.53,2.53,0,0,0,1.24-.33,2.51,2.51,0,0,0,.93-3.41c-1.2-2.1-2.45-4.09-3.67-5.87-3.08-4.72-9.27-9.67-18.94-15.13a2.5,2.5,0,0,0-2.46,4.36C1761.09,645.88,1766.88,650.42,1769.5,654.45Z"/><path class="cls-2" d="M1146.89,913.78l43.7,19L1184,916.66l1.48,0h0a2.5,2.5,0,0,0,0-5l-1.47,0,7-15.94Z"/></g></svg>