<?xml version="1.0" encoding="utf-8"?>
<!-- Generator: Adobe Illustrator 24.0.1, SVG Export Plug-In . SVG Version: 6.00 Build 0)  -->
<svg version="1.1" id="Grand_Prix_-_Pit_Road" xmlns="http://www.w3.org/2000/svg" xmlns:xlink="http://www.w3.org/1999/xlink"
	 x="0px" y="0px" viewBox="0 0 1920 1080" style="enable-background:new 0 0 1920 1080;" xml:space="preserve">
<style type="text/css">
	.st0{fill:#016699;}
	.st1{fill:#D82520;}
</style>
<title>pitroad</title>
<g id="Mergeline">
	<path class="st0" d="M1676.2,517.3l-26.8-13.6c-2.5-1.2-5.5-0.3-6.7,2.2c-1.2,2.5-0.3,5.5,2.2,6.7l26.8,13.6
		c0.7,0.4,1.5,0.5,2.3,0.5c1.8,0,3.6-1,4.5-2.7C1679.7,521.5,1678.7,518.5,1676.2,517.3z"/>
	<path class="st0" d="M1729.8,544.4c-8.3-4.2-17.4-8.8-26.8-13.6c-2.5-1.2-5.5-0.3-6.7,2.2c-1.2,2.5-0.3,5.5,2.2,6.7
		c9.4,4.8,18.5,9.4,26.8,13.6c0.7,0.4,1.5,0.5,2.3,0.5c1.8,0,3.6-1,4.5-2.7C1733.3,548.7,1732.3,545.7,1729.8,544.4z"/>
	<path class="st0" d="M1622.6,490.1l-26.9-13.6c-2.5-1.2-5.5-0.3-6.7,2.2c-1.2,2.5-0.3,5.5,2.2,6.7l26.9,13.6
		c0.7,0.4,1.5,0.5,2.3,0.5c1.8,0,3.6-1,4.5-2.7C1626,494.4,1625,491.4,1622.6,490.1z"/>
	<rect x="1721.3" y="557.2" transform="matrix(0.452 -0.892 0.892 0.452 459.6162 1872.5577)" class="st0" width="65" height="10"/>
</g>
<g id="Pitroad">
	<path class="st1" d="M1311.5,309.8l-8.7-5.2c-0.8-0.6-7-4.8-17.5-10c-1.2-0.6-2.7-0.1-3.3,1.1c-0.6,1.2-0.1,2.7,1.1,3.3
		c10.6,5.2,16.8,9.6,16.9,9.6l8.9,5.3c0.4,0.2,0.8,0.4,1.3,0.4c0.9,0,1.7-0.4,2.1-1.2C1313,312.1,1312.6,310.6,1311.5,309.8z"/>
	<path class="st1" d="M1257.1,283.4c-9.8-3.1-19.8-5.3-29.6-6.7c-1.4-0.2-2.6,0.8-2.8,2.1c-0.2,1.4,0.8,2.6,2.1,2.8
		c9.6,1.4,19.3,3.6,28.8,6.6c0.2,0.1,0.5,0.1,0.7,0.1c1.1,0,2-0.7,2.4-1.8C1259.1,285.3,1258.4,283.9,1257.1,283.4z"/>
	<path class="st1" d="M1363,340.6l-25.8-15.4c-1.2-0.7-2.7-0.3-3.4,0.9c-0.7,1.2-0.3,2.7,0.9,3.4l25.8,15.4c0.4,0.2,0.8,0.4,1.3,0.4
		c0.9,0,1.7-0.4,2.1-1.2C1364.6,342.8,1364.2,341.3,1363,340.6z"/>
	<path class="st1" d="M1138.2,289.6c-6.5,4.1-12.4,9-16.4,13.8c-0.9,1.1-0.8,2.6,0.3,3.5c0.5,0.4,1,0.6,1.6,0.6
		c0.7,0,1.4-0.3,1.9-0.9c3.7-4.4,9.1-9,15.2-12.7c1.2-0.7,1.5-2.3,0.8-3.4C1140.9,289.2,1139.3,288.9,1138.2,289.6z"/>
	<path class="st1" d="M1197.2,275C1197.2,275,1197.1,275,1197.2,275c-10.3,0.4-20.4,1.7-30.3,3.9c-1.3,0.3-2.2,1.6-1.9,3
		c0.3,1.2,1.3,1.9,2.4,1.9c0.2,0,0.4,0,0.6-0.1c9.5-2.2,19.4-3.4,29.2-3.8c1.4,0,2.5-1.2,2.4-2.6
		C1199.7,276.1,1198.5,275,1197.2,275z"/>
	<path class="st1" d="M1517.6,432.8l-25.8-15.4c-1.2-0.7-2.7-0.3-3.4,0.9c-0.7,1.2-0.3,2.7,0.9,3.4l25.8,15.4
		c0.4,0.2,0.8,0.4,1.3,0.4c0.9,0,1.7-0.4,2.1-1.2C1519.1,435.1,1518.8,433.5,1517.6,432.8z"/>
	<path class="st1" d="M1466,402.1l-25.8-15.4c-1.2-0.7-2.7-0.3-3.4,0.9c-0.7,1.2-0.3,2.7,0.9,3.4l25.8,15.4c0.4,0.2,0.8,0.4,1.3,0.4
		c0.9,0,1.7-0.4,2.1-1.2C1467.6,404.3,1467.2,402.8,1466,402.1z"/>
	<path class="st1" d="M1414.5,371.3l-25.8-15.4c-1.2-0.7-2.7-0.3-3.4,0.9c-0.7,1.2-0.3,2.7,0.9,3.4l25.8,15.4
		c0.4,0.2,0.8,0.4,1.3,0.4c0.9,0,1.7-0.4,2.1-1.2C1416.1,373.6,1415.7,372,1414.5,371.3z"/>
	<path class="st1" d="M1593.4,481l-28.2-38.4l-2.4,17.2l-19.5-11.7c-1.2-0.7-2.7-0.3-3.4,0.9c-0.7,1.2-0.3,2.7,0.9,3.4l19.5,11.7
		l-14,10.3L1593.4,481z"/>
</g>
</svg>
