<?xml version="1.0" encoding="utf-8"?>
<!-- Generator: Adobe Illustrator 24.0.1, SVG Export Plug-In . SVG Version: 6.00 Build 0)  -->
<svg version="1.1" id="Iowa_Oval__Pit_Road" xmlns="http://www.w3.org/2000/svg" xmlns:xlink="http://www.w3.org/1999/xlink"
	 x="0px" y="0px" viewBox="0 0 1920 1080" style="enable-background:new 0 0 1920 1080;" xml:space="preserve">
<style type="text/css">
	.st0{fill:#016699;}
	.st1{fill:#D82520;}
</style>
<title>pitroad</title>
<g id="Mergeline">
	<path class="st0" d="M1328.4,133.8c-9.7-1.7-19.7-3.3-29.9-4.6c-2.7-0.4-5.2,1.6-5.6,4.3c-0.4,2.7,1.6,5.2,4.3,5.6
		c10,1.3,19.9,2.8,29.4,4.5c0.3,0.1,0.6,0.1,0.9,0.1c2.4,0,4.5-1.7,4.9-4.1C1333,136.9,1331.2,134.3,1328.4,133.8z"/>
	<path class="st0" d="M1387.3,147.8c-9.4-2.8-19.3-5.5-29.2-7.8c-2.7-0.6-5.4,1-6,3.7c-0.6,2.7,1,5.4,3.7,6
		c9.8,2.3,19.4,4.9,28.6,7.7c0.5,0.1,1,0.2,1.4,0.2c2.1,0,4.1-1.4,4.8-3.6C1391.4,151.4,1389.9,148.6,1387.3,147.8z"/>
	<path class="st0" d="M1443.9,169.2c-9-4.2-18.4-8.1-28-11.7c-2.6-1-5.5,0.3-6.4,2.9c-1,2.6,0.3,5.5,2.9,6.4
		c9.3,3.5,18.5,7.4,27.3,11.4c0.7,0.3,1.4,0.5,2.1,0.5c1.9,0,3.7-1.1,4.5-2.9C1447.5,173.3,1446.4,170.3,1443.9,169.2z"/>
	<path class="st0" d="M1149.2,113.9L1149.2,113.9l2.7-27.3l-9.9-1l-6.5,64.7l9.9,1l2.8-27.4l0,0c0.2,0,0.3,0,0.5,0
		c2.5,0,4.7-1.9,5-4.5C1154,116.6,1152,114.2,1149.2,113.9z"/>
	<path class="st0" d="M1268.6,126l-29.8-3c-2.8-0.3-5.2,1.7-5.5,4.5c-0.3,2.7,1.7,5.2,4.5,5.5l29.8,3c0.2,0,0.3,0,0.5,0
		c2.5,0,4.7-1.9,5-4.5C1273.4,128.7,1271.4,126.2,1268.6,126z"/>
	<path class="st0" d="M1208.9,119.9l-29.8-3c-2.8-0.3-5.2,1.7-5.5,4.5c-0.3,2.7,1.7,5.2,4.5,5.5l29.8,3c0.2,0,0.3,0,0.5,0
		c2.5,0,4.7-1.9,5-4.5C1213.7,122.7,1211.7,120.2,1208.9,119.9z"/>
	<path class="st0" d="M1608.6,340.3c-3.8-9.5-8-18.8-12.5-27.8c-1.3-2.5-4.3-3.4-6.7-2.2c-2.5,1.3-3.4,4.3-2.2,6.7
		c4.4,8.7,8.5,17.7,12.1,26.9c0.8,2,2.7,3.2,4.6,3.2c0.6,0,1.2-0.1,1.8-0.4C1608.4,345.8,1609.6,342.9,1608.6,340.3z"/>
	<path class="st0" d="M1628.8,464.1c0.1,0,0.2,0,0.3,0c2.8-0.1,4.9-2.5,4.7-5.3c-0.5-10.1-1.5-20.3-2.7-30.3
		c-0.4-2.7-2.9-4.7-5.6-4.3c-2.7,0.4-4.7,2.9-4.3,5.6c1.3,9.7,2.2,19.7,2.7,29.5C1624,462.1,1626.2,464.1,1628.8,464.1z"/>
	<path class="st0" d="M1626,398.6c-2.1-10-4.6-19.9-7.5-29.5c-0.8-2.6-3.6-4.2-6.2-3.4c-2.6,0.8-4.2,3.6-3.4,6.2
		c2.8,9.3,5.2,19,7.3,28.7c0.5,2.4,2.6,4,4.9,4c0.3,0,0.7,0,1-0.1C1624.8,403.9,1626.6,401.3,1626,398.6z"/>
	<path class="st0" d="M1629.4,484.2c-2.7-0.1-5.1,2.1-5.1,4.9c-0.5,18.1-2.1,29.2-2.1,29.3c-0.4,2.7,1.5,5.3,4.2,5.7
		c0.3,0,0.5,0.1,0.8,0.1c2.4,0,4.6-1.8,4.9-4.2c0.1-0.5,1.8-11.8,2.2-30.5C1634.3,486.5,1632.1,484.2,1629.4,484.2z"/>
	<path class="st0" d="M1496.7,199.2c-8.2-5.7-16.9-11.1-25.7-16.2c-2.4-1.4-5.5-0.5-6.8,1.9c-1.4,2.4-0.5,5.5,1.9,6.8
		c8.6,4.9,17,10.2,25,15.7c0.9,0.6,1.9,0.9,2.8,0.9c1.6,0,3.1-0.8,4.1-2.2C1499.5,203.9,1499,200.8,1496.7,199.2z"/>
	<path class="st0" d="M1563.2,261.3c-1.7-2.2-4.9-2.5-7-0.8c-2.2,1.7-2.5,4.9-0.8,7c6.1,7.6,11.8,15.7,17.1,24
		c1,1.5,2.6,2.3,4.2,2.3c0.9,0,1.9-0.3,2.7-0.8c2.3-1.5,3-4.6,1.5-6.9C1575.5,277.6,1569.5,269.2,1563.2,261.3z"/>
	<path class="st0" d="M1520.9,217.7c-2.1-1.8-5.3-1.5-7,0.6c-1.8,2.1-1.5,5.3,0.6,7c7.5,6.3,14.8,13.1,21.6,20.1
		c1,1,2.3,1.5,3.6,1.5c1.3,0,2.5-0.5,3.5-1.4c2-1.9,2-5.1,0.1-7.1C1536.1,231.2,1528.6,224.2,1520.9,217.7z"/>
</g>
<g id="Pitroad">
	<path class="st1" d="M780.3,680.2c-10.2-0.2-20.3-0.3-30.1-0.5c-1.4,0-2.5,1.1-2.5,2.5c0,1.4,1.1,2.5,2.5,2.5
		c9.8,0.2,19.9,0.4,30.1,0.5c0,0,0,0,0,0c1.4,0,2.5-1.1,2.5-2.5C782.8,681.4,781.7,680.3,780.3,680.2z"/>
	<path class="st1" d="M720.1,679.1c-10.4-0.2-20.4-0.4-30.1-0.7c-1.4-0.1-2.5,1.1-2.6,2.4c0,1.4,1.1,2.5,2.4,2.6
		c9.7,0.2,19.8,0.5,30.1,0.7c0,0,0,0,0.1,0c1.4,0,2.5-1.1,2.5-2.4C722.6,680.3,721.5,679.1,720.1,679.1z"/>
	<path class="st1" d="M961.2,682.4c-10.1-0.1-20.1-0.2-30.2-0.3c0,0,0,0,0,0c-1.4,0-2.5,1.1-2.5,2.5c0,1.4,1.1,2.5,2.5,2.5
		c10.1,0.1,20.1,0.2,30.2,0.3c0,0,0,0,0,0c1.4,0,2.5-1.1,2.5-2.5C963.7,683.6,962.6,682.4,961.2,682.4z"/>
	<path class="st1" d="M900.8,681.8c-10.1-0.1-20.1-0.2-30.1-0.3c-1.4,0-2.5,1.1-2.5,2.5c0,1.4,1.1,2.5,2.5,2.5
		c10,0.1,20,0.2,30.1,0.3c0,0,0,0,0,0c1.4,0,2.5-1.1,2.5-2.5C903.3,683,902.2,681.9,900.8,681.8z"/>
	<path class="st1" d="M840.6,681.1c-10.2-0.1-20.2-0.3-30.1-0.4c0,0,0,0,0,0c-1.4,0-2.5,1.1-2.5,2.5c0,1.4,1.1,2.5,2.5,2.5
		c9.9,0.1,20,0.3,30.1,0.4c0,0,0,0,0,0c1.4,0,2.5-1.1,2.5-2.5C843.1,682.3,842,681.1,840.6,681.1z"/>
	<path class="st1" d="M659.8,677.6c-9.9-0.3-19.3-0.6-28.1-0.9c0,0-0.7,0-2-0.1c-1.4-0.1-2.5,1-2.6,2.4c-0.1,1.4,1,2.5,2.4,2.6
		c1.3,0.1,2,0.1,2.1,0.1h0c8.8,0.3,18.2,0.6,28.1,0.9c0,0,0,0,0.1,0c1.3,0,2.5-1.1,2.5-2.4C662.3,678.8,661.2,677.7,659.8,677.6z"/>
	<path class="st1" d="M1021.3,682.9c-10-0.1-20-0.2-30-0.2c-1.4,0-2.5,1.1-2.5,2.5c0,1.4,1.1,2.5,2.5,2.5
		c10.1,0.1,20.1,0.2,30.1,0.2c0,0,0,0,0,0c1.4,0,2.5-1.1,2.5-2.5C1023.8,684.1,1022.7,682.9,1021.3,682.9z"/>
	<path class="st1" d="M436.6,604.5c-7.9-6.1-15.5-12.6-22.7-19.4c-1-0.9-2.6-0.9-3.5,0.1c-0.9,1-0.9,2.6,0.1,3.5
		c7.3,6.9,15.1,13.5,23,19.7c0.5,0.4,1,0.5,1.5,0.5c0.7,0,1.5-0.3,2-1C437.9,606.9,437.7,605.3,436.6,604.5z"/>
	<path class="st1" d="M486.8,636.5c-8.9-4.6-17.6-9.6-25.9-14.9c-1.2-0.7-2.7-0.4-3.5,0.8s-0.4,2.7,0.8,3.5
		c8.4,5.4,17.3,10.5,26.3,15.1c0.4,0.2,0.8,0.3,1.1,0.3c0.9,0,1.8-0.5,2.2-1.3C488.5,638.7,488.1,637.2,486.8,636.5z"/>
	<path class="st1" d="M541.9,659.5c-9.5-3.1-18.9-6.6-28-10.4c-1.3-0.5-2.7,0.1-3.3,1.3c-0.5,1.3,0.1,2.7,1.3,3.3
		c9.2,3.8,18.8,7.4,28.4,10.5c0.3,0.1,0.5,0.1,0.8,0.1c1.1,0,2-0.7,2.4-1.7C544,661.4,543.3,659.9,541.9,659.5z"/>
	<path class="st1" d="M600.1,673.5c-9.7-1.5-19.5-3.5-29.3-5.8c-1.3-0.3-2.7,0.5-3,1.8s0.5,2.7,1.8,3c9.9,2.4,19.9,4.4,29.7,5.9
		c0.1,0,0.3,0,0.4,0c1.2,0,2.3-0.9,2.5-2.1C602.4,674.9,601.4,673.7,600.1,673.5z"/>
	<path class="st1" d="M1442.3,676.4c-9.7,2.2-19.5,4-29.4,5.3c-1.4,0.2-2.3,1.4-2.1,2.8c0.2,1.3,1.2,2.2,2.5,2.2c0.1,0,0.2,0,0.3,0
		c10-1.3,20-3.2,29.8-5.4c1.3-0.3,2.2-1.7,1.9-3S1443.7,676.1,1442.3,676.4z"/>
	<path class="st1" d="M1383.3,684.2C1383.2,684.2,1383.2,684.2,1383.3,684.2c-4.3,0.1-6.7,0-6.9,0c0,0-8.4,0-23.5,0c0,0,0,0,0,0
		c-1.4,0-2.5,1.1-2.5,2.5s1.1,2.5,2.5,2.5c15,0,23.3,0,23.4,0c0,0,0.8,0,2.3,0c1.2,0,2.7,0,4.7-0.1c1.4,0,2.5-1.2,2.4-2.6
		C1385.7,685.3,1384.6,684.2,1383.3,684.2z"/>
	<path class="st1" d="M1498.8,657.4c-8.9,4.1-18.2,7.7-27.7,10.9c-1.3,0.4-2,1.9-1.6,3.2c0.3,1,1.3,1.7,2.4,1.7c0.3,0,0.5,0,0.8-0.1
		c9.7-3.3,19.2-7,28.2-11.1c1.3-0.6,1.8-2.1,1.2-3.3C1501.6,657.4,1500.1,656.9,1498.8,657.4z"/>
	<path class="st1" d="M1594.3,583.4c-1.1-0.8-2.7-0.6-3.5,0.5c-5.9,8-12.3,15.6-19.2,22.7c-1,1-0.9,2.6,0.1,3.5
		c0.5,0.5,1.1,0.7,1.7,0.7c0.7,0,1.3-0.3,1.8-0.8c7-7.3,13.6-15.1,19.6-23.2C1595.6,585.8,1595.4,584.2,1594.3,583.4z"/>
	<path class="st1" d="M1549.6,626.6c-7.7,6.1-15.9,11.8-24.4,17c-1.2,0.7-1.6,2.3-0.8,3.4c0.5,0.8,1.3,1.2,2.1,1.2
		c0.4,0,0.9-0.1,1.3-0.4c8.7-5.3,17.1-11.1,25-17.3c1.1-0.9,1.3-2.4,0.4-3.5C1552.2,625.9,1550.7,625.7,1549.6,626.6z"/>
	<path class="st1" d="M1202.1,683.9c-9.8,0-19.8-0.1-30.1-0.1c0,0,0,0,0,0c-1.4,0-2.5,1.1-2.5,2.5c0,1.4,1.1,2.5,2.5,2.5
		c10.3,0,20.4,0.1,30.1,0.1c0,0,0,0,0,0c1.4,0,2.5-1.1,2.5-2.5C1204.6,685,1203.5,683.9,1202.1,683.9z"/>
	<path class="st1" d="M1141.9,683.6c-9.9,0-19.9-0.1-30.1-0.2c0,0,0,0,0,0c-1.4,0-2.5,1.1-2.5,2.5c0,1.4,1.1,2.5,2.5,2.5
		c10.2,0.1,20.3,0.1,30.1,0.2c0,0,0,0,0,0c1.4,0,2.5-1.1,2.5-2.5C1144.4,684.8,1143.2,683.6,1141.9,683.6z"/>
	<path class="st1" d="M1081.6,683.3c-9.9-0.1-20-0.1-30.1-0.2c0,0,0,0,0,0c-1.4,0-2.5,1.1-2.5,2.5c0,1.4,1.1,2.5,2.5,2.5
		c10.1,0.1,20.2,0.1,30.1,0.2c0,0,0,0,0,0c1.4,0,2.5-1.1,2.5-2.5C1084.1,684.5,1083,683.3,1081.6,683.3z"/>
	<path class="st1" d="M1262.4,684.1c-9.6,0-19.7-0.1-30.2-0.1c0,0,0,0,0,0c-1.4,0-2.5,1.1-2.5,2.5c0,1.4,1.1,2.5,2.5,2.5
		c10.5,0,20.6,0.1,30.2,0.1c0,0,0,0,0,0c1.4,0,2.5-1.1,2.5-2.5C1264.9,685.2,1263.8,684.1,1262.4,684.1z"/>
	<path class="st1" d="M1322.8,684.2c-9.1,0-19.2,0-30.2-0.1c0,0,0,0,0,0c-1.4,0-2.5,1.1-2.5,2.5c0,1.4,1.1,2.5,2.5,2.5
		c11,0,21.1,0,30.2,0.1c0,0,0,0,0,0c1.4,0,2.5-1.1,2.5-2.5C1325.3,685.3,1324.2,684.2,1322.8,684.2z"/>
	<path class="st1" d="M384.8,553.6c-0.9-1.1-2.4-1.2-3.5-0.4c-1.1,0.9-1.2,2.4-0.4,3.5c3.2,4,6.5,7.8,9.7,11.5
		c0.5,0.6,1.2,0.8,1.9,0.8c0.6,0,1.2-0.2,1.7-0.6c1-0.9,1.1-2.5,0.2-3.5C391.2,561.4,387.9,557.5,384.8,553.6z"/>
	<path class="st1" d="M1627.3,566.7l-0.2-47.6l-34,33.4l17.2-0.1c-1.1,2.2-2.3,4.4-3.5,6.5c-0.7,1.2-0.2,2.7,1,3.4
		c0.4,0.2,0.8,0.3,1.2,0.3c0.9,0,1.7-0.5,2.2-1.3c1.3-2.3,2.6-4.7,3.8-7.2L1627.3,566.7z"/>
</g>
</svg>
