<?xml version="1.0" encoding="utf-8"?>
<!-- Generator: Adobe Illustrator 24.0.1, SVG Export Plug-In . SVG Version: 6.00 Build 0)  -->
<svg version="1.1" id="Lanier_Oval_Pit_Road" xmlns="http://www.w3.org/2000/svg" xmlns:xlink="http://www.w3.org/1999/xlink"
	 x="0px" y="0px" viewBox="0 0 1920 1080" style="enable-background:new 0 0 1920 1080;" xml:space="preserve">
<style type="text/css">
	.st0{fill:#D82520;}
</style>
<title>pitroad</title>
<g id="Pitroad">
	<path class="st0" d="M913.5,673.6c-10.1-0.2-20.2-0.4-30-0.6c-1.4-0.1-2.5,1.1-2.6,2.4s1.1,2.5,2.4,2.6c9.8,0.3,19.9,0.5,30,0.6
		c0,0,0,0,0,0c1.4,0,2.5-1.1,2.5-2.5C916,674.7,914.9,673.6,913.5,673.6z"/>
	<path class="st0" d="M674.8,655.5c-10.4-1.9-20.3-4-29.2-6.1c-1.3-0.3-2.7,0.5-3,1.8c-0.3,1.3,0.5,2.7,1.8,3
		c9.1,2.2,19,4.3,29.5,6.2c0.2,0,0.3,0,0.4,0c1.2,0,2.2-0.8,2.5-2.1C677,657,676.1,655.7,674.8,655.5z"/>
	<path class="st0" d="M853.6,672c-10.2-0.4-20.3-0.8-29.9-1.3c-1.4-0.1-2.6,1-2.6,2.4c-0.1,1.4,1,2.6,2.4,2.6
		c9.7,0.5,19.8,0.9,30,1.3c0,0,0.1,0,0.1,0c1.3,0,2.4-1.1,2.5-2.4C856,673.2,854.9,672.1,853.6,672z"/>
	<path class="st0" d="M793.7,669c-10.2-0.7-20.3-1.4-29.9-2.3c-1.4-0.1-2.6,0.9-2.7,2.3c-0.1,1.4,0.9,2.6,2.3,2.7
		c9.6,0.8,19.7,1.6,30,2.3c0.1,0,0.1,0,0.2,0c1.3,0,2.4-1,2.5-2.3C796.1,670.2,795.1,669.1,793.7,669z"/>
	<path class="st0" d="M734,663.8c-10.3-1.1-20.3-2.4-29.7-3.7c-1.4-0.2-2.6,0.8-2.8,2.1c-0.2,1.4,0.8,2.6,2.1,2.8
		c9.4,1.3,19.5,2.6,29.9,3.7c0.1,0,0.2,0,0.3,0c1.3,0,2.3-0.9,2.5-2.2C736.4,665.2,735.4,664,734,663.8z"/>
	<path class="st0" d="M436.1,450.7c-0.6-1.2-2.2-1.7-3.4-1.1c-1.2,0.6-1.7,2.1-1.1,3.4c0.1,0.1,5.7,10.9,14.6,26.4
		c0.5,0.8,1.3,1.3,2.2,1.3c0.4,0,0.9-0.1,1.2-0.3c1.2-0.7,1.6-2.2,0.9-3.4C441.8,461.6,436.2,450.8,436.1,450.7z"/>
	<path class="st0" d="M466,502.7c-0.7-1.2-2.3-1.5-3.4-0.8c-1.2,0.7-1.5,2.3-0.8,3.4c5.5,8.9,11,17.5,16.3,25.3
		c0.5,0.7,1.3,1.1,2.1,1.1c0.5,0,1-0.1,1.4-0.4c1.1-0.8,1.4-2.3,0.7-3.5C476.9,520.1,471.5,511.6,466,502.7z"/>
	<path class="st0" d="M617.4,640.2c-8.6-3.5-17.6-7.8-26.8-12.8c-1.2-0.7-2.7-0.2-3.4,1c-0.7,1.2-0.2,2.7,1,3.4
		c9.4,5.1,18.5,9.4,27.3,13c0.3,0.1,0.6,0.2,0.9,0.2c1,0,1.9-0.6,2.3-1.6C619.3,642.2,618.7,640.7,617.4,640.2z"/>
	<path class="st0" d="M565,612.1c-8.5-5.5-16.9-11.5-24.3-17.2c-1.1-0.8-2.7-0.6-3.5,0.4c-0.8,1.1-0.6,2.7,0.4,3.5
		c7.6,5.8,16.1,11.9,24.7,17.5c0.4,0.3,0.9,0.4,1.4,0.4c0.8,0,1.6-0.4,2.1-1.1C566.4,614.4,566.1,612.9,565,612.1z"/>
	<path class="st0" d="M499.5,552.2c-0.8-1.1-2.4-1.3-3.5-0.5c-1.1,0.8-1.3,2.4-0.5,3.5c6.8,8.9,13.3,16.8,19.4,23.3
		c0.5,0.5,1.2,0.8,1.8,0.8c0.6,0,1.2-0.2,1.7-0.7c1-0.9,1.1-2.5,0.1-3.5C512.6,568.7,506.2,561,499.5,552.2z"/>
	<path class="st0" d="M1385.6,624.3c-8.6,4.4-17.7,8.7-27,12.5c-1.3,0.5-1.9,2-1.4,3.3c0.4,1,1.3,1.5,2.3,1.5c0.3,0,0.6-0.1,1-0.2
		c9.5-3.9,18.7-8.2,27.4-12.7c1.2-0.6,1.7-2.1,1.1-3.4C1388.3,624.1,1386.8,623.6,1385.6,624.3z"/>
	<path class="st0" d="M1330.6,647.1c-9.3,3.1-19,5.9-28.7,8.3c-1.3,0.3-2.1,1.7-1.8,3c0.3,1.1,1.3,1.9,2.4,1.9c0.2,0,0.4,0,0.6-0.1
		c9.8-2.5,19.6-5.3,29-8.4c1.3-0.4,2-1.8,1.6-3.2C1333.3,647.4,1331.9,646.7,1330.6,647.1z"/>
	<path class="st0" d="M1435.5,592c-7.5,6.1-15.6,11.9-24.1,17.4c-1.2,0.7-1.5,2.3-0.8,3.5c0.5,0.7,1.3,1.1,2.1,1.1
		c0.5,0,0.9-0.1,1.3-0.4c8.6-5.5,16.9-11.5,24.6-17.7c1.1-0.9,1.2-2.4,0.4-3.5C1438.2,591.3,1436.6,591.2,1435.5,592z"/>
	<path class="st0" d="M1272.7,661.8c-13.1,2.4-23.3,3.7-29.5,4.3c-1.4,0.1-2.4,1.4-2.2,2.7c0.1,1.3,1.2,2.2,2.5,2.2
		c0.1,0,0.2,0,0.3,0c6.3-0.6,16.6-1.9,29.9-4.4c1.4-0.3,2.3-1.6,2-2.9C1275.4,662.5,1274.1,661.6,1272.7,661.8z"/>
	<path class="st0" d="M1153.4,670.3c-10.1,0.4-20.2,0.7-30,1c-1.4,0-2.5,1.2-2.4,2.6c0,1.4,1.2,2.4,2.5,2.4c0,0,0.1,0,0.1,0
		c9.8-0.3,19.9-0.7,30-1c1.4-0.1,2.5-1.2,2.4-2.6C1155.9,671.3,1154.8,670.3,1153.4,670.3z"/>
	<path class="st0" d="M1213.3,667.8c-9.5,0.4-19.5,0.9-30,1.3c-1.4,0.1-2.5,1.2-2.4,2.6c0.1,1.3,1.2,2.4,2.5,2.4c0,0,0.1,0,0.1,0
		c10.5-0.4,20.5-0.9,30-1.3c1.4-0.1,2.4-1.2,2.4-2.6C1215.9,668.8,1214.7,667.7,1213.3,667.8z"/>
	<path class="st0" d="M1093.5,672.2C1093.5,672.2,1093.4,672.2,1093.5,672.2c-10.1,0.3-20.2,0.5-30.1,0.7c-1.4,0-2.5,1.2-2.4,2.6
		c0,1.4,1.1,2.4,2.5,2.4c0,0,0,0,0.1,0c9.9-0.2,20-0.5,30-0.7c1.4,0,2.5-1.2,2.4-2.6C1096,673.3,1094.8,672.2,1093.5,672.2z"/>
	<path class="st0" d="M1033.5,673.5C1033.5,673.5,1033.5,673.5,1033.5,673.5c-10.1,0.2-20.2,0.3-30,0.4c-1.4,0-2.5,1.1-2.5,2.5
		c0,1.4,1.1,2.5,2.5,2.5c0,0,0,0,0,0c9.8-0.1,19.9-0.2,30-0.4c1.4,0,2.5-1.2,2.5-2.5C1036,674.6,1034.9,673.5,1033.5,673.5z"/>
	<path class="st0" d="M973.5,674C973.5,674,973.5,674,973.5,674l-4.8,0c-8.4,0-16.9,0-25.2-0.1c0,0,0,0,0,0c-1.4,0-2.5,1.1-2.5,2.5
		c0,1.4,1.1,2.5,2.5,2.5c8.3,0.1,16.8,0.1,25.2,0.1l4.8,0c1.4,0,2.5-1.1,2.5-2.5C976,675.1,974.8,674,973.5,674z"/>
	<path class="st0" d="M1485.3,541.6l-41.7,23l16.6,4.5c-0.9,1-1.9,2-2.8,3c-1,1-0.9,2.6,0.1,3.5c0.5,0.5,1.1,0.7,1.7,0.7
		c0.7,0,1.3-0.3,1.8-0.8c1.1-1.1,2.2-2.3,3.2-3.4l8.5,15.4L1485.3,541.6z"/>
</g>
</svg>
