<?xml version="1.0" encoding="utf-8"?>
<!-- Generator: Adobe Illustrator 24.0.1, SVG Export Plug-In . SVG Version: 6.00 Build 0)  -->
<svg version="1.1" id="Iowa_Road__Pit_Road" xmlns="http://www.w3.org/2000/svg" xmlns:xlink="http://www.w3.org/1999/xlink"
	 x="0px" y="0px" viewBox="0 0 1920 1080" style="enable-background:new 0 0 1920 1080;" xml:space="preserve">
<style type="text/css">
	.st0{fill:#016699;}
	.st1{fill:#D82520;}
</style>
<title>pitroad</title>
<g id="Mergeline">
	<path class="st0" d="M1328.4,133.8c-9.7-1.7-19.7-3.3-29.9-4.6c-2.7-0.4-5.2,1.6-5.6,4.3c-0.4,2.7,1.6,5.2,4.3,5.6
		c10,1.3,19.9,2.8,29.4,4.5c0.3,0.1,0.6,0.1,0.9,0.1c2.4,0,4.5-1.7,4.9-4.1C1333,136.9,1331.2,134.3,1328.4,133.8z"/>
	<path class="st0" d="M1387.3,147.8c-9.4-2.8-19.3-5.5-29.2-7.8c-2.7-0.6-5.4,1-6,3.7c-0.6,2.7,1,5.4,3.7,6
		c9.8,2.3,19.4,4.9,28.6,7.7c0.5,0.1,1,0.2,1.4,0.2c2.1,0,4.1-1.4,4.8-3.6C1391.4,151.4,1389.9,148.6,1387.3,147.8z"/>
	<path class="st0" d="M1443.9,169.2c-9-4.2-18.4-8.1-28-11.7c-2.6-1-5.5,0.3-6.4,2.9c-1,2.6,0.3,5.5,2.9,6.4
		c9.3,3.5,18.5,7.4,27.3,11.4c0.7,0.3,1.4,0.5,2.1,0.5c1.9,0,3.7-1.1,4.5-2.9C1447.5,173.3,1446.4,170.3,1443.9,169.2z"/>
	<path class="st0" d="M1149.2,113.9L1149.2,113.9l2.7-27.3l-9.9-1l-6.5,64.7l9.9,1l2.8-27.4l0,0c0.2,0,0.3,0,0.5,0
		c2.5,0,4.7-1.9,5-4.5C1154,116.6,1152,114.2,1149.2,113.9z"/>
	<path class="st0" d="M1208.9,119.9l-29.8-3c-2.8-0.3-5.2,1.7-5.5,4.5c-0.3,2.7,1.7,5.2,4.5,5.5l29.8,3c0.2,0,0.3,0,0.5,0
		c2.5,0,4.7-1.9,5-4.5C1213.7,122.7,1211.7,120.2,1208.9,119.9z"/>
	<path class="st0" d="M1268.6,126l-29.8-3c-2.8-0.3-5.2,1.7-5.5,4.5c-0.3,2.7,1.7,5.2,4.5,5.5l29.8,3c0.2,0,0.3,0,0.5,0
		c2.5,0,4.7-1.9,5-4.5C1273.4,128.7,1271.4,126.2,1268.6,126z"/>
	<path class="st0" d="M1608.6,340.3c-3.8-9.5-8-18.8-12.5-27.8c-1.3-2.5-4.3-3.4-6.7-2.2c-2.5,1.3-3.4,4.3-2.2,6.7
		c4.4,8.7,8.5,17.7,12.1,26.9c0.8,2,2.7,3.2,4.6,3.2c0.6,0,1.2-0.1,1.8-0.4C1608.4,345.8,1609.6,342.9,1608.6,340.3z"/>
	<path class="st0" d="M1628.8,464.1c0.1,0,0.2,0,0.3,0c2.8-0.1,4.9-2.5,4.7-5.3c-0.5-10.1-1.5-20.3-2.7-30.3
		c-0.4-2.7-2.9-4.7-5.6-4.3c-2.7,0.4-4.7,2.9-4.3,5.6c1.3,9.7,2.2,19.7,2.7,29.5C1624,462.1,1626.2,464.1,1628.8,464.1z"/>
	<path class="st0" d="M1629.4,484.2c-2.7-0.1-5.1,2.1-5.1,4.9c-0.5,18.1-2.1,29.2-2.1,29.3c-0.4,2.7,1.5,5.3,4.2,5.7
		c0.3,0,0.5,0.1,0.8,0.1c2.4,0,4.6-1.8,4.9-4.2c0.1-0.5,1.8-11.8,2.2-30.5C1634.3,486.5,1632.1,484.2,1629.4,484.2z"/>
	<path class="st0" d="M1626,398.6c-2.1-10-4.6-19.9-7.5-29.5c-0.8-2.6-3.6-4.2-6.2-3.4c-2.6,0.8-4.2,3.6-3.4,6.2
		c2.8,9.3,5.2,19,7.3,28.7c0.5,2.4,2.6,4,4.9,4c0.3,0,0.7,0,1-0.1C1624.8,403.9,1626.6,401.3,1626,398.6z"/>
	<path class="st0" d="M1520.9,217.7c-2.1-1.8-5.3-1.5-7,0.6c-1.8,2.1-1.5,5.3,0.6,7c7.5,6.3,14.8,13.1,21.6,20.1
		c1,1,2.3,1.5,3.6,1.5c1.3,0,2.5-0.5,3.5-1.4c2-1.9,2-5.1,0.1-7.1C1536.1,231.2,1528.6,224.2,1520.9,217.7z"/>
	<path class="st0" d="M1496.7,199.2c-8.2-5.7-16.9-11.1-25.7-16.2c-2.4-1.4-5.5-0.5-6.8,1.9c-1.4,2.4-0.5,5.5,1.9,6.8
		c8.6,4.9,17,10.2,25,15.7c0.9,0.6,1.9,0.9,2.8,0.9c1.6,0,3.1-0.8,4.1-2.2C1499.5,203.9,1499,200.8,1496.7,199.2z"/>
	<path class="st0" d="M1563.2,261.3c-1.7-2.2-4.9-2.5-7-0.8c-2.2,1.7-2.5,4.9-0.8,7c6.1,7.6,11.8,15.7,17.1,24
		c1,1.5,2.6,2.3,4.2,2.3c0.9,0,1.9-0.3,2.7-0.8c2.3-1.5,3-4.6,1.5-6.9C1575.5,277.6,1569.5,269.2,1563.2,261.3z"/>
</g>
<g id="Pitroad">
	<path class="st1" d="M803.6,680.6c-10.2-0.2-20.2-0.3-30-0.5c0,0,0,0,0,0c-1.4,0-2.5,1.1-2.5,2.5c0,1.4,1.1,2.5,2.5,2.5
		c9.9,0.2,19.9,0.3,30.1,0.5c0,0,0,0,0,0c1.4,0,2.5-1.1,2.5-2.5C806.1,681.8,805,680.6,803.6,680.6z"/>
	<path class="st1" d="M863.7,681.4c-10.1-0.1-20.1-0.3-30-0.4c0,0,0,0,0,0c-1.4,0-2.5,1.1-2.5,2.5c0,1.4,1.1,2.5,2.5,2.5
		c9.9,0.1,19.9,0.3,30.1,0.4c0,0,0,0,0,0c1.4,0,2.5-1.1,2.5-2.5C866.2,682.6,865.1,681.4,863.7,681.4z"/>
	<path class="st1" d="M743.5,679.6c-10.3-0.2-20.3-0.4-30-0.6c-1.4,0-2.5,1.1-2.6,2.4c0,1.4,1.1,2.5,2.4,2.6
		c9.8,0.2,19.8,0.4,30.1,0.6c0,0,0,0,0,0c1.4,0,2.5-1.1,2.5-2.5C746,680.7,744.9,679.6,743.5,679.6z"/>
	<path class="st1" d="M984,682.6c-10-0.1-20.1-0.2-30.1-0.3c0,0,0,0,0,0c-1.4,0-2.5,1.1-2.5,2.5c0,1.4,1.1,2.5,2.5,2.5
		c10,0.1,20.1,0.2,30.1,0.3c0,0,0,0,0,0c1.4,0,2.5-1.1,2.5-2.5C986.4,683.8,985.3,682.6,984,682.6z"/>
	<path class="st1" d="M1044,683.1c-10-0.1-20-0.1-30-0.2c0,0,0,0,0,0c-1.4,0-2.5,1.1-2.5,2.5c0,1.4,1.1,2.5,2.5,2.5
		c10.1,0.1,20.1,0.1,30,0.2c0,0,0,0,0,0c1.4,0,2.5-1.1,2.5-2.5C1046.5,684.2,1045.4,683.1,1044,683.1z"/>
	<path class="st1" d="M923.8,682.1c-10.1-0.1-20.1-0.2-30-0.3c0,0,0,0,0,0c-1.4,0-2.5,1.1-2.5,2.5c0,1.4,1.1,2.5,2.5,2.5
		c10,0.1,20,0.2,30.1,0.3c0,0,0,0,0,0c1.4,0,2.5-1.1,2.5-2.5C926.3,683.2,925.2,682.1,923.8,682.1z"/>
	<path class="st1" d="M578.8,614.4c-1.3-0.4-2.7,0.3-3.1,1.6c-2.1,6.5-3.2,13-3.2,19.5c0,1.7,0.1,3.5,0.2,5.2
		c0.2,2.1,0.6,4.2,1.3,6.3c0.3,1.1,1.3,1.8,2.4,1.8c0.2,0,0.5,0,0.7-0.1c1.3-0.4,2.1-1.8,1.6-3.1c-0.6-1.8-0.9-3.5-1.1-5.3
		c-0.1-1.6-0.2-3.2-0.2-4.8c0-5.9,1-12,2.9-18C580.8,616.3,580.1,614.9,578.8,614.4z"/>
	<path class="st1" d="M594.3,592.1c5.5-7.2,12.3-14.3,20.4-21.3c1-0.9,1.1-2.5,0.2-3.5c-0.9-1-2.5-1.1-3.5-0.2
		c-8.3,7.2-15.4,14.6-21.1,22.1c-0.8,1.1-0.6,2.7,0.5,3.5c0.5,0.3,1,0.5,1.5,0.5C593.1,593.1,593.8,592.8,594.3,592.1z"/>
	<path class="st1" d="M665.3,534.6c-0.6-1.2-2.1-1.8-3.3-1.2c-0.5,0.2-11.7,5.6-26.3,15.3c-1.2,0.8-1.5,2.3-0.7,3.5
		c0.5,0.7,1.3,1.1,2.1,1.1c0.5,0,1-0.1,1.4-0.4c14.3-9.5,25.6-14.9,25.7-15C665.3,537.3,665.9,535.8,665.3,534.6z"/>
	<path class="st1" d="M683.4,678.3c-10.7-0.3-20.8-0.6-30.1-0.8c-1.4-0.1-2.5,1-2.6,2.4c0,1.4,1,2.5,2.4,2.6
		c9.2,0.3,19.3,0.6,30.1,0.8c0,0,0,0,0.1,0c1.4,0,2.5-1.1,2.5-2.4C685.9,679.4,684.8,678.3,683.4,678.3z"/>
	<path class="st1" d="M623.6,676.1c-10.4-1.3-19.5-4.4-27.2-9.2c-1.2-0.7-2.7-0.4-3.4,0.8c-0.7,1.2-0.4,2.7,0.8,3.4
		c8.3,5.2,18.1,8.5,29.2,9.9c0.1,0,0.2,0,0.3,0c1.2,0,2.3-0.9,2.5-2.2C626,677.5,625,676.2,623.6,676.1z"/>
	<path class="st1" d="M1344.7,684.3c-8.5,0-18.6,0-30.1,0c0,0,0,0,0,0c-1.4,0-2.5,1.1-2.5,2.5c0,1.4,1.1,2.5,2.5,2.5
		c11.5,0,21.6,0,30.1,0c0,0,0,0,0,0c1.4,0,2.5-1.1,2.5-2.5C1347.2,685.4,1346.1,684.3,1344.7,684.3z"/>
	<path class="st1" d="M1565.4,612.8c-7.1,6.8-14.7,13.2-22.7,19c-1.1,0.8-1.4,2.4-0.5,3.5c0.5,0.7,1.2,1,2,1c0.5,0,1-0.2,1.5-0.5
		c8.2-6,16-12.5,23.2-19.4c1-1,1-2.5,0.1-3.5C1568,611.9,1566.4,611.8,1565.4,612.8z"/>
	<path class="st1" d="M1463,670.9c-9.4,2.8-19.1,5.3-28.9,7.3c-1.4,0.3-2.2,1.6-2,2.9c0.2,1.2,1.3,2,2.4,2c0.2,0,0.3,0,0.5-0.1
		c9.9-2,19.8-4.5,29.3-7.4c1.3-0.4,2.1-1.8,1.7-3.1C1465.7,671.3,1464.3,670.5,1463,670.9z"/>
	<path class="st1" d="M1517.7,647.8c-8.5,4.7-17.5,9.1-26.7,13c-1.3,0.5-1.9,2-1.3,3.3c0.4,1,1.3,1.5,2.3,1.5c0.3,0,0.7-0.1,1-0.2
		c9.4-4,18.6-8.4,27.2-13.3c1.2-0.7,1.6-2.2,1-3.4C1520.5,647.6,1518.9,647.2,1517.7,647.8z"/>
	<path class="st1" d="M1605.8,565.8c-1.2-0.7-2.7-0.3-3.4,0.8c-5.1,8.5-10.8,16.7-16.9,24.3c-0.9,1.1-0.7,2.7,0.4,3.5
		c0.5,0.4,1,0.5,1.6,0.5c0.7,0,1.5-0.3,2-0.9c6.2-7.8,12.1-16.2,17.3-24.8C1607.4,568,1607,566.5,1605.8,565.8z"/>
	<path class="st1" d="M1164.3,683.7c-9.8,0-19.9-0.1-30.1-0.1c0,0,0,0,0,0c-1.4,0-2.5,1.1-2.5,2.5c0,1.4,1.1,2.5,2.5,2.5
		c10.2,0.1,20.2,0.1,30.1,0.1c0,0,0,0,0,0c1.4,0,2.5-1.1,2.5-2.5C1166.8,684.9,1165.6,683.7,1164.3,683.7z"/>
	<path class="st1" d="M1224.4,684c-9.7,0-19.7-0.1-30.1-0.1c0,0,0,0,0,0c-1.4,0-2.5,1.1-2.5,2.5c0,1.4,1.1,2.5,2.5,2.5
		c10.3,0,20.4,0.1,30.1,0.1c0,0,0,0,0,0c1.4,0,2.5-1.1,2.5-2.5C1226.9,685.1,1225.8,684,1224.4,684z"/>
	<path class="st1" d="M1104.1,683.4c-9.9-0.1-19.9-0.1-30-0.2c0,0,0,0,0,0c-1.4,0-2.5,1.1-2.5,2.5c0,1.4,1.1,2.5,2.5,2.5
		c10.1,0.1,20.2,0.1,30.1,0.2c0,0,0,0,0,0c1.4,0,2.5-1.1,2.5-2.5C1106.6,684.6,1105.5,683.5,1104.1,683.4z"/>
	<path class="st1" d="M1404.7,682.8c-12.6,1.3-21.7,1.5-26,1.5c-1.4,0-2.2,0-2.3,0h-1.5c-1.4,0-2.5,1.1-2.5,2.5s1.1,2.5,2.5,2.5
		l1.4,0c0,0,0.8,0,2.3,0c4.4,0,13.7-0.2,26.5-1.6c1.4-0.1,2.4-1.4,2.2-2.8C1407.3,683.6,1406.1,682.6,1404.7,682.8z"/>
	<path class="st1" d="M1284.5,684.1c-9.5,0-19.5,0-30.1-0.1c0,0,0,0,0,0c-1.4,0-2.5,1.1-2.5,2.5c0,1.4,1.1,2.5,2.5,2.5
		c10.6,0,20.6,0.1,30.1,0.1c0,0,0,0,0,0c1.4,0,2.5-1.1,2.5-2.5C1287,685.3,1285.9,684.2,1284.5,684.1z"/>
	<polygon class="st1" points="1627.1,519.1 1593.1,552.5 1613.2,552.3 1627.3,566.7 	"/>
</g>
</svg>
