<?xml version="1.0" encoding="utf-8"?>
<!-- Generator: Adobe Illustrator 24.0.1, SVG Export Plug-In . SVG Version: 6.00 Build 0)  -->
<svg version="1.1" id="Iowa_Legends_Oval__Pit_Road"
	 xmlns="http://www.w3.org/2000/svg" xmlns:xlink="http://www.w3.org/1999/xlink" x="0px" y="0px" viewBox="0 0 1920 1080"
	 style="enable-background:new 0 0 1920 1080;" xml:space="preserve">
<style type="text/css">
	.st0{fill:#D82520;}
</style>
<title>pitroad</title>
<g id="Pitroad">
	<path class="st0" d="M699.1,708.5C699.1,708.5,699.1,708.5,699.1,708.5c9.2-0.3,19.2-0.5,30-0.6c1.4,0,2.5-1.2,2.5-2.5
		c0-1.4-1.2-2.5-2.5-2.5c-10.8,0.1-20.9,0.4-30,0.6c-1.4,0-2.5,1.2-2.4,2.6C696.6,707.4,697.7,708.5,699.1,708.5z"/>
	<path class="st0" d="M647.8,756.6c-13.7-7.7-17-13.4-17.7-19.7c-0.2-1.4-1.4-2.4-2.8-2.2c-1.4,0.2-2.4,1.4-2.2,2.8
		c1.1,9.2,6.9,16,20.3,23.5c0.4,0.2,0.8,0.3,1.2,0.3c0.9,0,1.7-0.5,2.2-1.3C649.4,758.8,649,757.3,647.8,756.6z"/>
	<path class="st0" d="M819.1,707.9c9.7,0.1,19.8,0.2,30,0.4c0,0,0,0,0,0c1.4,0,2.5-1.1,2.5-2.5c0-1.4-1.1-2.5-2.5-2.5
		c-10.2-0.1-20.3-0.3-30-0.4c0,0,0,0,0,0c-1.4,0-2.5,1.1-2.5,2.5C816.6,706.7,817.7,707.9,819.1,707.9z"/>
	<path class="st0" d="M939.2,710c18.4,0.5,29.9,0.8,30,0.8c0,0,0.1,0,0.1,0c1.3,0,2.5-1.1,2.5-2.4c0-1.4-1-2.5-2.4-2.6
		c-0.1,0-11.6-0.4-30.1-0.8c-1.4-0.1-2.5,1.1-2.6,2.4C936.7,708.8,937.8,710,939.2,710z"/>
	<path class="st0" d="M669,704.8c-5.1,0.3-9.8,0.7-14,1c-6.3,0.6-11.9,2-16.4,4.2c-1.2,0.6-1.8,2.1-1.2,3.3c0.4,0.9,1.3,1.4,2.3,1.4
		c0.4,0,0.7-0.1,1.1-0.3c4-1.9,8.9-3.2,14.7-3.7c4.1-0.4,8.7-0.7,13.8-1c1.4-0.1,2.4-1.3,2.3-2.6C671.5,705.8,670.3,704.7,669,704.8
		z"/>
	<path class="st0" d="M879.1,708.7c10.6,0.2,20.7,0.4,30,0.6c0,0,0,0,0.1,0c1.4,0,2.5-1.1,2.5-2.4c0-1.4-1.1-2.5-2.4-2.6
		c-9.3-0.2-19.4-0.4-30-0.6c-1.4,0-2.5,1.1-2.5,2.5S877.8,708.7,879.1,708.7z"/>
	<path class="st0" d="M879.1,806.8C879.1,806.8,879.1,806.8,879.1,806.8c-0.8,0-1.6,0-2.3,0c-9.5,0-18.7-0.4-27.4-1.3
		c-1.4-0.1-2.6,0.9-2.7,2.3c-0.1,1.4,0.9,2.6,2.3,2.7c8.8,0.8,18.2,1.3,27.9,1.3c0.8,0,1.6,0,2.4,0c1.4,0,2.5-1.1,2.5-2.5
		C881.6,807.9,880.5,806.8,879.1,806.8z"/>
	<path class="st0" d="M819.8,801.5c-11.1-1.7-20.8-3.2-29.6-4.6c-1.4-0.2-2.6,0.7-2.9,2.1c-0.2,1.4,0.7,2.6,2.1,2.9
		c8.9,1.4,18.6,2.9,29.6,4.6c0.1,0,0.3,0,0.4,0c1.2,0,2.3-0.9,2.5-2.1C822.1,803,821.2,801.7,819.8,801.5z"/>
	<path class="st0" d="M938.5,801.8c-10.1,1.5-20.1,2.7-29.6,3.6c-1.4,0.1-2.4,1.3-2.3,2.7c0.1,1.3,1.2,2.3,2.5,2.3
		c0.1,0,0.1,0,0.2,0c9.6-0.8,19.7-2,29.9-3.6c1.4-0.2,2.3-1.5,2.1-2.8C941.1,802.6,939.8,801.6,938.5,801.8z"/>
	<path class="st0" d="M789.1,707.7c1.4,0,2.5-1.1,2.5-2.5c0-1.4-1.1-2.5-2.5-2.5c-10.1,0-20.2,0-30,0c-1.4,0-2.5,1.1-2.5,2.5
		c0,1.4,1.1,2.5,2.5,2.5c0,0,0,0,0,0C769,707.6,779,707.6,789.1,707.7C789.1,707.7,789.1,707.7,789.1,707.7z"/>
	<path class="st0" d="M702.5,779.3c-8.8-2.7-16.9-5.7-27.8-10.3c-1.3-0.5-2.7,0.1-3.3,1.3c-0.5,1.3,0.1,2.7,1.3,3.3
		c11.1,4.7,19.3,7.7,28.3,10.5c0.2,0.1,0.5,0.1,0.7,0.1c1.1,0,2.1-0.7,2.4-1.8C704.6,781.1,703.8,779.7,702.5,779.3z"/>
	<path class="st0" d="M760.7,792c-11.5-2-21.1-3.8-29.4-5.5c-1.4-0.3-2.7,0.6-3,1.9c-0.3,1.4,0.6,2.7,1.9,3c8.3,1.7,18,3.6,29.5,5.6
		c0.1,0,0.3,0,0.4,0c1.2,0,2.3-0.9,2.5-2.1C762.9,793.6,762,792.3,760.7,792z"/>
	<polygon class="st0" points="984.7,795.4 938,785.9 949.3,802.5 945.3,822.2 	"/>
</g>
</svg>
