<?xml version="1.0" encoding="utf-8"?>
<!-- Generator: Adobe Illustrator 24.0.1, SVG Export Plug-In . SVG Version: 6.00 Build 0)  -->
<svg version="1.1" id="Iowa_Infield_Legends__Pit_Road"
	 xmlns="http://www.w3.org/2000/svg" xmlns:xlink="http://www.w3.org/1999/xlink" x="0px" y="0px" viewBox="0 0 1920 1080"
	 style="enable-background:new 0 0 1920 1080;" xml:space="preserve">
<style type="text/css">
	.st0{fill:#D82520;}
</style>
<title>pitroad</title>
<g id="Pitroad">
	<path class="st0" d="M836.7,236.4l-30,0.7c-1.4,0-2.5,1.2-2.4,2.6c0,1.4,1.1,2.4,2.5,2.4c0,0,0,0,0.1,0l30-0.7
		c1.4,0,2.5-1.2,2.4-2.6C839.2,237.4,838.1,236.3,836.7,236.4z"/>
	<path class="st0" d="M775.6,480.5L748.3,493c-1.3,0.6-1.8,2.1-1.2,3.3c0.4,0.9,1.3,1.5,2.3,1.5c0.3,0,0.7-0.1,1-0.2l27.3-12.5
		c1.3-0.6,1.8-2.1,1.2-3.3C778.3,480.5,776.9,480,775.6,480.5z"/>
	<path class="st0" d="M830.2,455.6l-27.3,12.5c-1.3,0.6-1.8,2.1-1.2,3.3c0.4,0.9,1.3,1.5,2.3,1.5c0.3,0,0.7-0.1,1-0.2l27.3-12.5
		c1.3-0.6,1.8-2.1,1.2-3.3C832.9,455.6,831.5,455.1,830.2,455.6z"/>
	<path class="st0" d="M675.2,303.5l1,14.7c0.1,1.3,1.2,2.3,2.5,2.3c0.1,0,0.1,0,0.2,0c1.4-0.1,2.4-1.3,2.3-2.7l-1-14.8
		c0,0-0.1-0.9-0.1-2.3c0-2.7,0.2-7,1.4-12.1c0.3-1.3-0.6-2.7-1.9-3c-1.3-0.3-2.7,0.6-3,1.9c-1.2,5.6-1.5,10.2-1.5,13.1
		C675.2,302.5,675.2,303.5,675.2,303.5C675.2,303.5,675.2,303.5,675.2,303.5z"/>
	<path class="st0" d="M716.5,243.2c-10.5,3.9-19.2,9.6-25.8,16.9c-0.9,1-0.9,2.6,0.2,3.5c0.5,0.4,1.1,0.7,1.7,0.7
		c0.7,0,1.4-0.3,1.8-0.8c6.1-6.7,14.2-11.9,23.9-15.6c1.3-0.5,2-1.9,1.5-3.2C719.3,243.4,717.8,242.7,716.5,243.2z"/>
	<path class="st0" d="M682.6,348.1c0.1-1.4-1-2.5-2.4-2.6c-1.4-0.1-2.5,1-2.6,2.4c-0.3,7.2-1.3,13.9-3,19.9l-7.9-13.9L654.6,400
		l41.4-23.5l-17.5-4.5C680.9,364.8,682.3,356.8,682.6,348.1z"/>
	<path class="st0" d="M776.7,237.7l-30,0.7c-1.4,0-2.5,1.2-2.4,2.6c0,1.4,1.1,2.4,2.5,2.4c0,0,0,0,0.1,0l30-0.7
		c1.4,0,2.5-1.2,2.4-2.6S778.1,237.7,776.7,237.7z"/>
	<path class="st0" d="M962,327.8c0.1,0,0.3,0,0.4,0c1.4-0.2,2.3-1.5,2-2.9l-5.1-29.6c-0.2-1.4-1.5-2.3-2.9-2c-1.4,0.2-2.3,1.5-2,2.9
		l5.1,29.6C959.8,326.9,960.8,327.8,962,327.8z"/>
	<path class="st0" d="M966.1,352.4c-1.4,0-2.5,1.1-2.5,2.5c-0.2,9.9-2.5,19.3-7,27.7c-0.6,1.2-0.2,2.7,1.1,3.4
		c0.4,0.2,0.8,0.3,1.2,0.3c0.9,0,1.8-0.5,2.2-1.3c4.8-9.2,7.3-19.2,7.5-30C968.5,353.6,967.5,352.5,966.1,352.4z"/>
	<path class="st0" d="M926.3,245.1c-1.2-0.7-2.7-0.3-3.4,0.9c-0.7,1.2-0.3,2.7,0.9,3.4c8.4,5,15.3,11.7,20.5,19.9
		c0.5,0.7,1.3,1.2,2.1,1.2c0.5,0,0.9-0.1,1.3-0.4c1.2-0.7,1.5-2.3,0.8-3.5C942.8,257.7,935.4,250.4,926.3,245.1z"/>
	<path class="st0" d="M897,235.2c-1.1-0.1-1.7-0.1-1.7-0.1l-0.1,0l-28.5,0.6c-1.4,0-2.5,1.2-2.4,2.6c0,1.4,1.1,2.4,2.5,2.4
		c0,0,0,0,0.1,0l28.4-0.6c0.2,0,0.6,0,1.4,0.1c1.4,0.1,2.6-0.9,2.7-2.2C899.4,236.6,898.4,235.4,897,235.2z"/>
	<path class="st0" d="M937.9,404.4c-3.3,2.5-6.9,4.8-10.7,7l-15.1,6.9c-1.3,0.6-1.8,2.1-1.2,3.3c0.4,0.9,1.3,1.5,2.3,1.5
		c0.3,0,0.7-0.1,1-0.2l15.2-6.9l0.2-0.1c4.1-2.3,7.9-4.8,11.4-7.4c1.1-0.8,1.3-2.4,0.5-3.5C940.6,403.7,939,403.5,937.9,404.4z"/>
	<path class="st0" d="M884.8,430.7l-27.3,12.5c-1.3,0.6-1.8,2.1-1.2,3.3c0.4,0.9,1.3,1.5,2.3,1.5c0.3,0,0.7-0.1,1-0.2l27.3-12.5
		c1.3-0.6,1.8-2.1,1.2-3.3C887.5,430.7,886,430.1,884.8,430.7z"/>
</g>
</svg>
