<?xml version="1.0" encoding="utf-8"?>
<!-- Generator: Adobe Illustrator 24.0.1, SVG Export Plug-In . SVG Version: 6.00 Build 0)  -->
<svg version="1.1" id="East_-_Pit_Road" xmlns="http://www.w3.org/2000/svg" xmlns:xlink="http://www.w3.org/1999/xlink" x="0px"
	 y="0px" viewBox="0 0 1920 1080" style="enable-background:new 0 0 1920 1080;" xml:space="preserve">
<style type="text/css">
	.st0{fill:#016699;}
	.st1{fill:#D82520;}
</style>
<title>pitroad</title>
<g id="Mergeline">
	<path class="st0" d="M1676.2,517.3l-26.8-13.6c-2.5-1.2-5.5-0.3-6.7,2.2c-1.2,2.5-0.3,5.5,2.2,6.7l26.8,13.6
		c0.7,0.4,1.5,0.5,2.3,0.5c1.8,0,3.6-1,4.5-2.7C1679.7,521.5,1678.7,518.5,1676.2,517.3z"/>
	<path class="st0" d="M1622.6,490.1l-26.9-13.6c-2.5-1.2-5.5-0.3-6.7,2.2c-1.2,2.5-0.3,5.5,2.2,6.7l26.9,13.6
		c0.7,0.4,1.5,0.5,2.3,0.5c1.8,0,3.6-1,4.5-2.7C1626,494.4,1625,491.4,1622.6,490.1z"/>
	<path class="st0" d="M1729.8,544.4c-8.3-4.2-17.4-8.8-26.8-13.6c-2.5-1.2-5.5-0.3-6.7,2.2c-1.2,2.5-0.3,5.5,2.2,6.7
		c9.4,4.8,18.5,9.4,26.8,13.6c0.7,0.4,1.5,0.5,2.3,0.5c1.8,0,3.6-1,4.5-2.7C1733.3,548.7,1732.3,545.7,1729.8,544.4z"/>
	<rect x="1721.3" y="557.2" transform="matrix(0.452 -0.892 0.892 0.452 459.6162 1872.5577)" class="st0" width="65" height="10"/>
</g>
<g id="Pitroad">
	<path class="st1" d="M1311.5,309.8l-8.6-5.1c-1-0.7-7.1-5.3-16.8-10.9c-1.2-0.7-2.7-0.3-3.4,0.9c-0.7,1.2-0.3,2.7,0.9,3.4
		c10,5.8,16.3,10.6,16.4,10.6l9,5.4c0.4,0.2,0.8,0.4,1.3,0.4c0.9,0,1.7-0.4,2.1-1.2C1313,312.1,1312.6,310.6,1311.5,309.8z"/>
	<path class="st1" d="M1363,340.6l-25.8-15.4c-1.2-0.7-2.7-0.3-3.4,0.9c-0.7,1.2-0.3,2.7,0.9,3.4l25.8,15.4c0.4,0.2,0.8,0.4,1.3,0.4
		c0.9,0,1.7-0.4,2.1-1.2C1364.6,342.8,1364.2,341.3,1363,340.6z"/>
	<path class="st1" d="M1258.6,280.8c-10.2-3.8-20.2-6.4-29.6-7.6c-1.4-0.2-2.6,0.8-2.8,2.2s0.8,2.6,2.2,2.8c9,1.1,18.6,3.6,28.4,7.3
		c0.3,0.1,0.6,0.2,0.9,0.2c1,0,2-0.6,2.3-1.6C1260.5,282.7,1259.9,281.2,1258.6,280.8z"/>
	<path class="st1" d="M1198.3,274.5c-10.1,2.4-19.5,6.9-27.7,13.5c-1.1,0.9-1.3,2.4-0.4,3.5c0.5,0.6,1.2,1,2,1
		c0.5,0,1.1-0.2,1.5-0.5c7.7-6.1,16.4-10.3,25.8-12.5c1.3-0.3,2.2-1.7,1.9-3C1201,275,1199.6,274.2,1198.3,274.5z"/>
	<path class="st1" d="M1517.6,432.8l-25.8-15.4c-1.2-0.7-2.7-0.3-3.4,0.9c-0.7,1.2-0.3,2.7,0.9,3.4l25.8,15.4
		c0.4,0.2,0.8,0.4,1.3,0.4c0.9,0,1.7-0.4,2.1-1.2C1519.1,435.1,1518.8,433.5,1517.6,432.8z"/>
	<path class="st1" d="M1414.5,371.3l-25.8-15.4c-1.2-0.7-2.7-0.3-3.4,0.9c-0.7,1.2-0.3,2.7,0.9,3.4l25.8,15.4
		c0.4,0.2,0.8,0.4,1.3,0.4c0.9,0,1.7-0.4,2.1-1.2C1416.1,373.6,1415.7,372,1414.5,371.3z"/>
	<path class="st1" d="M1466,402.1l-25.8-15.4c-1.2-0.7-2.7-0.3-3.4,0.9c-0.7,1.2-0.3,2.7,0.9,3.4l25.8,15.4c0.4,0.2,0.8,0.4,1.3,0.4
		c0.9,0,1.7-0.4,2.1-1.2C1467.6,404.3,1467.2,402.8,1466,402.1z"/>
	<path class="st1" d="M1593.4,481l-28.2-38.4l-2.4,17.2l-19.5-11.7c-1.2-0.7-2.7-0.3-3.4,0.9c-0.7,1.2-0.3,2.7,0.9,3.4l19.5,11.7
		l-14,10.3L1593.4,481z"/>
</g>
</svg>
