<?xml version="1.0" encoding="utf-8"?>
<!-- Generator: Adobe Illustrator 24.0.1, SVG Export Plug-In . SVG Version: 6.00 Build 0)  -->
<svg version="1.1" id="West_-_Pit_Road" xmlns="http://www.w3.org/2000/svg" xmlns:xlink="http://www.w3.org/1999/xlink" x="0px"
	 y="0px" viewBox="0 0 1920 1080" style="enable-background:new 0 0 1920 1080;" xml:space="preserve">
<style type="text/css">
	.st0{fill:#D82520;}
</style>
<title>pitroad</title>
<g id="Pitroad">
	<path class="st0" d="M460.2,610.1c-2.3,0-4.4,0-6.5-0.1c-9.5-0.5-16.8-1.1-23-1.9c-1.4-0.2-2.6,0.8-2.8,2.2s0.8,2.6,2.2,2.8
		c6.3,0.8,13.8,1.4,23.4,1.9c1.6,0.1,3.2,0.1,4.9,0.1c0.7,0,1.3,0,2,0c1.4,0,2.5-1.2,2.5-2.5S461.6,610.1,460.2,610.1z"/>
	<path class="st0" d="M401.9,601.7c-5-1.5-10.2-3.3-16.8-5.6c-3.5-1.2-7.3-2.5-11.6-4c-1.3-0.4-2.7,0.3-3.2,1.6
		c-0.4,1.3,0.3,2.7,1.6,3.2c4.3,1.4,8.1,2.8,11.5,4c6.6,2.3,11.8,4.1,16.9,5.7c0.2,0.1,0.5,0.1,0.7,0.1c1.1,0,2.1-0.7,2.4-1.8
		C404,603.5,403.2,602.1,401.9,601.7z"/>
	<path class="st0" d="M548.6,596.9l-46.8-9.1l10.1,14.4c-4.1,1.1-7.8,2.1-10.9,2.7c-4.1,0.8-7.8,1.4-11.3,2
		c-1.4,0.2-2.3,1.5-2.1,2.9c0.2,1.2,1.3,2.1,2.5,2.1c0.1,0,0.3,0,0.4,0c3.5-0.6,7.3-1.2,11.4-2c3.1-0.6,6.8-1.6,10.8-2.7l-3.3,16.9
		L548.6,596.9z"/>
</g>
</svg>
