<?xml version="1.0" encoding="utf-8"?>
<!-- Generator: Adobe Illustrator 25.0.1, SVG Export Plug-In . SVG Version: 6.00 Build 0)  -->
<svg version="1.1" id="LongBeach_-_Pit_Road_GP_" xmlns="http://www.w3.org/2000/svg" xmlns:xlink="http://www.w3.org/1999/xlink"
	 x="0px" y="0px" viewBox="0 0 1920 1080" style="enable-background:new 0 0 1920 1080;" xml:space="preserve">
<style type="text/css">
	.st0{fill:#D82520;}
</style>
<g id="Pitroad">
	<path class="st0" d="M988,903.8c-8.9-3.6-18.3-7.5-27.7-11.5c-1.3-0.5-2.7,0.1-3.3,1.3s0.1,2.7,1.3,3.3c9.5,4,18.8,7.9,27.8,11.5
		c0.3,0.1,0.6,0.2,0.9,0.2c1,0,1.9-0.6,2.3-1.6C989.9,905.7,989.3,904.3,988,903.8z"/>
	<path class="st0" d="M876,859.9l-0.6-0.2c-9.3-2.4-18.5-5.5-27.4-9.4l0,0c-1.3-0.5-2.7,0.1-3.3,1.3s0.1,2.7,1.3,3.3
		c9.1,3.9,18.5,7.1,28.1,9.6l0.6,0.1c0.2,0.1,0.4,0.1,0.6,0.1c1.1,0,2.1-0.7,2.4-1.9C878.1,861.6,877.3,860.3,876,859.9z"/>
	<path class="st0" d="M932.8,880.3c-10.9-4.9-17.9-8.2-19.8-9.1c-1.7-0.8-4.3-1.8-8-3c-1.3-0.4-2.7,0.3-3.2,1.6
		c-0.4,1.3,0.3,2.7,1.6,3.2c3.4,1.1,5.8,2,7.3,2.8c2,1,9,4.3,20,9.2c0.3,0.1,0.7,0.2,1,0.2c1,0,1.9-0.6,2.3-1.5
		C934.6,882.3,934.1,880.9,932.8,880.3z"/>
	<path class="st0" d="M1044.2,924.6c-8.6-2.8-18.1-6.2-28.2-9.9c-1.3-0.5-2.7,0.2-3.2,1.5c-0.5,1.3,0.2,2.7,1.5,3.2
		c10.2,3.8,19.7,7.2,28.4,10c0.3,0.1,0.5,0.1,0.8,0.1c1,0,2-0.7,2.4-1.7C1046.2,926.4,1045.5,925,1044.2,924.6z"/>
	<path class="st0" d="M1161.2,946.1c-9.7-0.4-19.4-1.2-29.7-2.4c-1.4-0.2-2.6,0.8-2.8,2.2c-0.2,1.4,0.8,2.6,2.2,2.8
		c10.5,1.3,20.3,2.1,30.1,2.5c0,0,0.1,0,0.1,0c1.3,0,2.4-1.1,2.5-2.4C1163.7,947.3,1162.6,946.1,1161.2,946.1z"/>
	<path class="st0" d="M1102.1,939c-6.4-1.2-13.4-2.6-21.4-4.2c-2.5-0.5-5.1-1.1-7.8-1.8c-1.3-0.3-2.7,0.5-3,1.8
		c-0.3,1.3,0.5,2.7,1.8,3c2.8,0.7,5.5,1.3,8,1.8c8.1,1.7,15.1,3.1,21.5,4.3c0.2,0,0.3,0,0.5,0c1.2,0,2.2-0.8,2.5-2
		C1104.4,940.5,1103.5,939.2,1102.1,939z"/>
	<path class="st0" d="M653.9,770.2l-27.9-10.9c-1.3-0.5-2.7,0.1-3.2,1.4c-0.5,1.3,0.1,2.7,1.4,3.2l27.9,10.9
		c0.3,0.1,0.6,0.2,0.9,0.2c1,0,1.9-0.6,2.3-1.6C655.8,772.1,655.1,770.7,653.9,770.2z"/>
	<path class="st0" d="M598,748.3l-21.2-8.3l12.2-12.4l-47.6,1.2l34.1,33.3l-0.5-17.4l21.2,8.3c0.3,0.1,0.6,0.2,0.9,0.2
		c1,0,1.9-0.6,2.3-1.6C599.9,750.3,599.3,748.8,598,748.3z"/>
	<path class="st0" d="M820.4,838.5l-27.6-11.9c-1.3-0.5-2.7,0-3.3,1.3c-0.5,1.3,0,2.7,1.3,3.3l27.6,11.9c0.3,0.1,0.7,0.2,1,0.2
		c1,0,1.9-0.6,2.3-1.5C822.3,840.6,821.7,839.1,820.4,838.5z"/>
	<path class="st0" d="M709.7,792.1l-27.9-10.9c-1.3-0.5-2.7,0.1-3.2,1.4c-0.5,1.3,0.1,2.7,1.4,3.2l27.9,10.9
		c0.3,0.1,0.6,0.2,0.9,0.2c1,0,1.9-0.6,2.3-1.6C711.6,794,711,792.6,709.7,792.1z"/>
	<path class="st0" d="M765.3,814.8l-24.7-10.6l-3-1.2c-1.3-0.5-2.7,0.1-3.2,1.4c-0.5,1.3,0.1,2.7,1.4,3.2l2.9,1.1l24.6,10.6
		c0.3,0.1,0.7,0.2,1,0.2c1,0,1.9-0.6,2.3-1.5C767.2,816.8,766.6,815.4,765.3,814.8z"/>
	<path class="st0" d="M1585.9,750.7c-2.2,1.6-4.5,3.2-6.8,4.9l-17.6,12.7c-1.1,0.8-1.4,2.4-0.6,3.5c0.5,0.7,1.3,1,2,1
		c0.5,0,1-0.2,1.5-0.5l17.6-12.7c2.3-1.7,4.5-3.3,6.7-4.9c1.1-0.8,1.4-2.4,0.6-3.5C1588.6,750.1,1587,749.9,1585.9,750.7z"/>
	<path class="st0" d="M1635.8,717c-7.4,4.5-15.7,9.8-25.3,16.4c-1.1,0.8-1.4,2.3-0.7,3.5c0.5,0.7,1.3,1.1,2.1,1.1
		c0.5,0,1-0.1,1.4-0.4c9.5-6.5,17.7-11.8,25-16.3c1.2-0.7,1.6-2.3,0.8-3.4C1638.5,716.6,1636.9,716.3,1635.8,717z"/>
	<path class="st0" d="M1537.3,785.9c-8.1,5.9-16.3,11.8-24.3,17.6c-1.1,0.8-1.4,2.4-0.6,3.5c0.5,0.7,1.3,1,2,1c0.5,0,1-0.2,1.5-0.5
		c8-5.8,16.2-11.7,24.3-17.6c1.1-0.8,1.4-2.4,0.6-3.5C1540,785.4,1538.4,785.1,1537.3,785.9z"/>
	<path class="st0" d="M1747,666.7c-0.8-1.1-2.3-1.4-3.5-0.6c-7.9,5.5-16.6,10.9-25.2,15.8c-1.2,0.7-1.6,2.2-1,3.4
		c0.5,0.8,1.3,1.3,2.2,1.3c0.4,0,0.8-0.1,1.2-0.3c8.8-4.9,17.6-10.5,25.6-16C1747.5,669.4,1747.8,667.9,1747,666.7z"/>
	<path class="st0" d="M1691.6,694.8c-5.5,2.1-10.4,3.5-14.3,4.1c-4.4,0.7-9.1,2-14.5,4.2c-1.3,0.5-1.9,2-1.4,3.2
		c0.4,1,1.3,1.6,2.3,1.6c0.3,0,0.6-0.1,0.9-0.2c5-2,9.4-3.3,13.4-3.9c4.3-0.6,9.5-2.1,15.3-4.4c1.3-0.5,1.9-1.9,1.4-3.2
		C1694.3,694.9,1692.9,694.3,1691.6,694.8z"/>
	<path class="st0" d="M1336.5,914.5c-8.9,3.1-18.4,6.2-28.4,9.1c-1.3,0.4-2.1,1.8-1.7,3.1c0.3,1.1,1.3,1.8,2.4,1.8
		c0.2,0,0.5,0,0.7-0.1c10.1-2.9,19.8-6,28.7-9.2c1.3-0.5,2-1.9,1.5-3.2C1339.2,914.7,1337.8,914,1336.5,914.5z"/>
	<path class="st0" d="M1279.2,931.3c-9.2,2.2-19,4.5-29.2,6.6c-1.4,0.3-2.2,1.6-1.9,3c0.3,1.2,1.3,2,2.4,2c0.2,0,0.3,0,0.5-0.1
		c10.2-2.2,20.1-4.4,29.3-6.7c1.3-0.3,2.2-1.7,1.8-3C1281.9,931.8,1280.5,931,1279.2,931.3z"/>
	<path class="st0" d="M1220.7,943c-10.5,1.3-20.2,2.3-29.7,2.8c-1.4,0.1-2.4,1.3-2.4,2.6c0.1,1.3,1.2,2.4,2.5,2.4c0,0,0.1,0,0.1,0
		c9.6-0.5,19.5-1.4,30-2.8c1.4-0.2,2.3-1.4,2.2-2.8C1223.3,943.8,1222,942.9,1220.7,943z"/>
	<path class="st0" d="M1488.6,821.1c-8.5,6.1-16.6,12-24.3,17.6c-1.1,0.8-1.4,2.4-0.6,3.5c0.5,0.7,1.3,1,2,1c0.5,0,1-0.2,1.5-0.5
		c7.7-5.6,15.9-11.5,24.3-17.6c1.1-0.8,1.4-2.4,0.6-3.5S1489.8,820.3,1488.6,821.1z"/>
	<path class="st0" d="M1439.9,856.2c-10.1,7.2-18.3,13.1-24.4,17.5c-1.1,0.8-1.4,2.4-0.6,3.5c0.5,0.7,1.3,1.1,2,1.1
		c0.5,0,1-0.2,1.4-0.5c6.1-4.4,14.4-10.2,24.4-17.5c1.1-0.8,1.4-2.4,0.6-3.5C1442.6,855.7,1441.1,855.4,1439.9,856.2z"/>
	<path class="st0" d="M1390.7,890.1c-8.1,4.7-17,9.2-26.5,13.4c-1.3,0.6-1.8,2-1.3,3.3c0.4,0.9,1.3,1.5,2.3,1.5c0.3,0,0.7-0.1,1-0.2
		c9.6-4.3,18.7-8.9,27-13.7c1.2-0.7,1.6-2.2,0.9-3.4C1393.4,889.8,1391.9,889.4,1390.7,890.1z"/>
</g>
</svg>
