<svg id="Island_Historic_-_Pit_Road" data-name="Island Historic - Pit Road" xmlns="http://www.w3.org/2000/svg" viewBox="0 0 1920 1080"><defs><style>.cls-1{fill:#d82520;}</style></defs><title>pitroad</title><g id="Pitroad"><path class="cls-1" d="M589.87,149.4l-29.78,4.21a2.5,2.5,0,0,0,.34,5,2,2,0,0,0,.35,0l29.79-4.21a2.5,2.5,0,1,0-.7-4.95Z"/><path class="cls-1" d="M470.65,166.7c-9.51,1.68-20.57,3.68-29.61,5.34a2.5,2.5,0,0,0,.45,5,2.45,2.45,0,0,0,.46,0c9-1.66,20.08-3.66,29.56-5.33a2.5,2.5,0,0,0-.86-4.93Z"/><path class="cls-1" d="M530.31,157.82,500.51,162a2.5,2.5,0,0,0,.35,5l.36,0L531,162.77a2.5,2.5,0,0,0-.7-5Z"/><path class="cls-1" d="M296.61,153.55c-14.88-6.37-27.18-12.28-27.31-12.34a2.5,2.5,0,0,0-2.16,4.5c.12.06,12.52,6,27.51,12.44a2.42,2.42,0,0,0,1,.2,2.5,2.5,0,0,0,1-4.8Z"/><path class="cls-1" d="M411.58,177.86c-7.32,1.21-18.93,1.31-20.72,1.32l-8.24-1.6a2.5,2.5,0,1,0-1,4.9l6.2,1.21a27.89,27.89,0,0,0,2.77.47v0c.54,0,13.45,0,21.76-1.38a2.5,2.5,0,0,0-.81-4.94Z"/><path class="cls-1" d="M353.18,171.73c-4.47-.9-9-1.81-13.24-2.7a129.94,129.94,0,0,1-15.54-4.53,2.5,2.5,0,1,0-1.64,4.72,135.3,135.3,0,0,0,16.16,4.71c4.3.89,8.8,1.8,13.27,2.71a2.72,2.72,0,0,0,.49.05,2.51,2.51,0,0,0,.5-5Z"/><path class="cls-1" d="M816.56,143.34a89.3,89.3,0,0,0-17.68-9.56,2.5,2.5,0,1,0-1.87,4.64,83.59,83.59,0,0,1,16.75,9.07,58,58,0,0,1,7.79,6.25,2.5,2.5,0,1,0,3.41-3.67A63.65,63.65,0,0,0,816.56,143.34Z"/><path class="cls-1" d="M862.85,199.56a2.5,2.5,0,0,0,1.9-4.12c-8-9.36-15.27-18-19.46-22.88a2.5,2.5,0,1,0-3.8,3.24c4.19,4.91,11.51,13.52,19.45,22.88A2.51,2.51,0,0,0,862.85,199.56Z"/><path class="cls-1" d="M649.45,141.09l-28.88,4-.86.13a2.5,2.5,0,0,0,.34,5l.35,0L650.13,146a2.5,2.5,0,0,0-.68-4.95Z"/><path class="cls-1" d="M708.88,132.88,679.16,137a2.5,2.5,0,0,0,.34,5,2.06,2.06,0,0,0,.35,0l29.72-4.1a2.5,2.5,0,0,0-.69-5Z"/><path class="cls-1" d="M769,126.92c-2.73-.21-5.5-.32-8.22-.32a79.56,79.56,0,0,0-12.3.82l-9.88,1.36a2.5,2.5,0,0,0,.34,5,2,2,0,0,0,.34,0l10-1.37a76,76,0,0,1,11.54-.76c2.59,0,5.23.11,7.84.31a2.5,2.5,0,0,0,.38-5Z"/><polygon class="cls-1" points="883.8 193.18 874.79 211.16 855.59 217.16 898.12 238.61 883.8 193.18"/></g></svg>