<svg id="Oval_-_Pit_Road" data-name="Oval - Pit Road" xmlns="http://www.w3.org/2000/svg" viewBox="0 0 1920 1080"><defs><style>.cls-1{fill:#d82520;}</style></defs><path class="cls-1" d="M806.1,306.21c-10,.81-20.11,1.7-29.91,2.64a2.5,2.5,0,0,0,.24,5h.25c9.77-.94,19.8-1.83,29.83-2.64a2.5,2.5,0,1,0-.41-5Z"/><path class="cls-1" d="M746.33,312c-10,1.14-20.05,2.38-29.81,3.68a2.5,2.5,0,0,0,.33,5,1.83,1.83,0,0,0,.33,0c9.73-1.29,19.73-2.53,29.72-3.67a2.5,2.5,0,1,0-.57-5Z"/><path class="cls-1" d="M686.79,319.93c-10,1.53-20,3.17-29.64,4.88a2.5,2.5,0,0,0,.43,5,2.18,2.18,0,0,0,.44,0c9.64-1.69,19.58-3.33,29.53-4.86a2.5,2.5,0,0,0-.76-4.94Z"/><path class="cls-1" d="M986.07,299.3h0c-10.05,0-20.15.08-30,.2a2.5,2.5,0,0,0,0,5h0c9.86-.12,19.94-.19,30-.2a2.5,2.5,0,0,0,0-5Z"/><path class="cls-1" d="M866,302.3c-10,.51-20.13,1.1-30,1.74a2.5,2.5,0,0,0,.16,5h.17c9.82-.64,19.88-1.23,29.9-1.73a2.5,2.5,0,0,0-.25-5Z"/><path class="cls-1" d="M926,300.06c-10,.24-20.15.56-30,.92a2.5,2.5,0,0,0,.09,5h.1c9.84-.37,19.91-.68,29.94-.92a2.5,2.5,0,1,0-.12-5Z"/><path class="cls-1" d="M455.18,382.21c-9.54,4.2-18.69,8.57-27.2,13a2.5,2.5,0,0,0,2.3,4.44c8.42-4.36,17.48-8.68,26.91-12.84a2.5,2.5,0,0,0-2-4.58Z"/><path class="cls-1" d="M627.63,330.35c-9.94,2-19.83,4.11-29.38,6.29a2.5,2.5,0,0,0,.55,4.94,2.2,2.2,0,0,0,.56-.07c9.51-2.16,19.35-4.27,29.25-6.25a2.5,2.5,0,0,0-1-4.91Z"/><path class="cls-1" d="M401.76,410.14a210.79,210.79,0,0,0-19.18,13.51L375.94,407l-18.13,44.05L402,433.3,386.47,427a209.79,209.79,0,0,1,18-12.58,2.5,2.5,0,1,0-2.67-4.23Z"/><path class="cls-1" d="M511.36,360.69c-9.72,3.24-19.25,6.64-28.33,10.11a2.5,2.5,0,0,0,1.78,4.67c9-3.44,18.48-6.82,28.14-10a2.5,2.5,0,1,0-1.59-4.74Z"/><path class="cls-1" d="M569,343.73c-9.85,2.54-19.6,5.23-29,8a2.5,2.5,0,0,0,.7,4.9,2.9,2.9,0,0,0,.71-.1c9.33-2.74,19-5.41,28.82-7.94a2.5,2.5,0,1,0-1.25-4.84Z"/><path class="cls-1" d="M1106.15,301.5c-9.89-.61-20-1.12-30-1.52a2.5,2.5,0,0,0-.19,5c10,.39,20,.9,29.89,1.51h.16a2.5,2.5,0,0,0,.15-5Z"/><path class="cls-1" d="M1400.28,358.92c-9.34-3.31-18.93-6.54-28.52-9.59a2.5,2.5,0,1,0-1.51,4.76c9.53,3,19.07,6.25,28.35,9.54a2.5,2.5,0,0,0,1.68-4.71Z"/><path class="cls-1" d="M1510.38,407.33c-8.67-4.67-17.69-9.28-26.81-13.7a2.5,2.5,0,0,0-2.18,4.5c9,4.39,18,9,26.62,13.6a2.5,2.5,0,0,0,3.39-1A2.49,2.49,0,0,0,1510.38,407.33Z"/><path class="cls-1" d="M1456.23,381c-9.06-4-18.41-7.86-27.78-11.56a2.5,2.5,0,0,0-1.84,4.65c9.32,3.68,18.61,7.55,27.62,11.49a2.5,2.5,0,0,0,2-4.58Z"/><path class="cls-1" d="M1562,438.35c-8.07-5.44-16.63-10.87-25.45-16.15a2.5,2.5,0,0,0-2.57,4.29c8.74,5.23,17.23,10.62,25.23,16a2.5,2.5,0,1,0,2.79-4.15Z"/><path class="cls-1" d="M1603,470a2.48,2.48,0,0,0-.57-.74c-.72-.69-6-5.59-15.9-13.3a2.5,2.5,0,0,0-3.07,3.95c9.92,7.7,15,12.49,15.57,13a2.55,2.55,0,0,0,1.74.69,2.41,2.41,0,0,0,1.11-.26A2.51,2.51,0,0,0,1603,470Z"/><path class="cls-1" d="M1284.64,326c-9.69-2.13-19.6-4.16-29.45-6a2.5,2.5,0,0,0-.94,4.91c9.81,1.87,19.67,3.89,29.32,6a2.49,2.49,0,0,0,3-1.91A2.51,2.51,0,0,0,1284.64,326Z"/><path class="cls-1" d="M1225.59,314.75c-9.79-1.59-19.79-3.08-29.73-4.43a2.5,2.5,0,1,0-.67,4.95c9.89,1.34,19.85,2.83,29.6,4.42a2.69,2.69,0,0,0,.4,0,2.5,2.5,0,0,0,.4-5Z"/><path class="cls-1" d="M1166,306.65c-9.85-1.09-19.91-2.08-29.91-2.93a2.5,2.5,0,0,0-.43,5c10,.85,20,1.83,29.79,2.91a1.37,1.37,0,0,0,.28,0,2.5,2.5,0,0,0,.27-5Z"/><path class="cls-1" d="M1343,340.67c-9.53-2.7-19.31-5.31-29-7.76a2.5,2.5,0,0,0-1.22,4.85c9.7,2.43,19.42,5,28.91,7.72a2.73,2.73,0,0,0,.68.1,2.5,2.5,0,0,0,.68-4.91Z"/><path class="cls-1" d="M1046.11,299.14c-8-.14-16.25-.21-24.37-.21h-5.68a2.5,2.5,0,0,0,0,5h5.67c8.09,0,16.26.07,24.28.21h0a2.5,2.5,0,0,0,0-5Z"/></svg>