<svg id="Legends_-_Pit_Road" data-name="Legends - Pit Road" xmlns="http://www.w3.org/2000/svg" viewBox="0 0 1920 1080"><defs><style>.cls-1{fill:#d82520;}</style></defs><path class="cls-1" d="M1156.62,205.8c-9.37-2.3-19.25-4.55-29.37-6.7a2.5,2.5,0,0,0-1,4.9c10.06,2.13,19.89,4.37,29.21,6.65a2.47,2.47,0,0,0,.6.08,2.5,2.5,0,0,0,.59-4.93Z"/><path class="cls-1" d="M1144.3,305.73c-9.71-.86-19.79-1.69-30-2.48a2.5,2.5,0,0,0-.39,5c10.17.78,20.24,1.61,29.93,2.47h.23a2.5,2.5,0,0,0,.21-5Z"/><path class="cls-1" d="M1204.17,311.87c-9.47-1.13-19.53-2.24-29.92-3.3a2.5,2.5,0,1,0-.5,5c10.35,1.06,20.39,2.17,29.82,3.3h.3a2.5,2.5,0,0,0,.3-5Z"/><path class="cls-1" d="M1084.29,301.11c-18.28-1.21-30-1.8-30.13-1.81a2.5,2.5,0,0,0-.25,5c.11,0,11.81.59,30,1.8h.17a2.5,2.5,0,0,0,.16-5Z"/><path class="cls-1" d="M1097.71,193.26c-10.85-2-19.64-3.45-25.43-4.37l9-15L1035.25,186l40.83,24.55-4.45-16.74c5.76.91,14.46,2.36,25.17,4.33a2.45,2.45,0,0,0,.46,0,2.5,2.5,0,0,0,.45-5Z"/><path class="cls-1" d="M1269.76,246.65l-.47-.21c-7.51-3.23-14-6-18.79-8.38-2.5-1.32-5.17-2.66-7.94-4a2.5,2.5,0,1,0-2.13,4.52q4,1.9,7.8,3.89c5,2.44,11.51,5.26,19.08,8.52l.47.21a2.5,2.5,0,1,0,2-4.59Z"/><path class="cls-1" d="M1324,273.39A251.91,251.91,0,0,0,1297.28,259a2.5,2.5,0,1,0-2.16,4.51,247.78,247.78,0,0,1,26.15,14.15,2.5,2.5,0,0,0,2.68-4.22Z"/><path class="cls-1" d="M1350.44,305a23.58,23.58,0,0,0-3.6-10.8,2.5,2.5,0,0,0-4.28,2.59,18.58,18.58,0,0,1,2.89,8.5c.09,1.53.13,3,.13,4.46a41.62,41.62,0,0,1-2,14,2.48,2.48,0,0,0,2.35,3.34,2.48,2.48,0,0,0,2.35-1.65,46.36,46.36,0,0,0,2.33-15.66C1350.58,308.18,1350.53,306.58,1350.44,305Z"/><path class="cls-1" d="M1322,334.67a68.05,68.05,0,0,1-12.76-3.25c-4.61-1.56-10-3.11-15.9-4.62a2.5,2.5,0,0,0-1.23,4.85c5.82,1.47,11,3,15.53,4.51a73.26,73.26,0,0,0,13.69,3.46,2,2,0,0,0,.34,0,2.5,2.5,0,0,0,.33-5Z"/><path class="cls-1" d="M1214.51,222.71c-8.77-3.11-18.45-6.19-28.76-9.17a2.5,2.5,0,0,0-1.39,4.8c10.22,3,19.8,6,28.48,9.08a2.43,2.43,0,0,0,.83.15,2.5,2.5,0,0,0,.84-4.86Z"/><path class="cls-1" d="M1263.78,320.54c-9-1.63-19-3.23-29.76-4.77a2.5,2.5,0,1,0-.71,5c10.67,1.53,20.63,3.13,29.58,4.74a2.28,2.28,0,0,0,.45,0,2.5,2.5,0,0,0,.44-5Z"/></svg>