<?xml version="1.0" encoding="utf-8"?>
<!-- Generator: Adobe Illustrator 24.0.1, SVG Export Plug-In . SVG Version: 6.00 Build 0)  -->
<svg version="1.1" id="Irwindale_Inner_Oval__Pit_Road"
	 xmlns="http://www.w3.org/2000/svg" xmlns:xlink="http://www.w3.org/1999/xlink" x="0px" y="0px" viewBox="0 0 1920 1080"
	 style="enable-background:new 0 0 1920 1080;" xml:space="preserve">
<style type="text/css">
	.st0{fill:#D82520;}
</style>
<title>pitroad</title>
<g id="Pitroad">
	<path class="st0" d="M1584.7,509.5c0.1,1.3,1.2,2.4,2.5,2.4c0,0,0.1,0,0.1,0c1.4-0.1,2.4-1.2,2.4-2.6c-0.4-9.8-1.3-19.9-2.6-30.1
		c-0.2-1.4-1.4-2.3-2.8-2.2c-1.4,0.2-2.3,1.4-2.2,2.8C1583.5,489.9,1584.3,499.9,1584.7,509.5z"/>
	<path class="st0" d="M1075.3,208.2C1075.3,208.2,1075.3,208.2,1075.3,208.2c-10,0.2-20,0.5-30.1,0.7c-1.4,0-2.5,1.2-2.4,2.6
		c0,1.4,1.1,2.4,2.5,2.4c0,0,0,0,0.1,0c10-0.2,20.1-0.5,30-0.7c1.4,0,2.5-1.2,2.4-2.6C1077.8,209.3,1076.7,208.2,1075.3,208.2z"/>
	<path class="st0" d="M1015.2,209.6c-11.7,0.3-21.2,0.5-30,0.6c-1.4,0-2.5,1.2-2.5,2.5c0,1.4,1.1,2.5,2.5,2.5c0,0,0,0,0,0
		c8.8-0.2,18.3-0.3,30-0.6c1.4,0,2.5-1.2,2.4-2.6S1016.6,209.6,1015.2,209.6z"/>
	<path class="st0" d="M1010.4,786.8c-9.6-2.2-19.4-4.5-29.1-7c-1.3-0.3-2.7,0.5-3,1.8c-0.3,1.3,0.5,2.7,1.8,3
		c9.8,2.4,19.6,4.8,29.2,7c0.2,0,0.4,0.1,0.6,0.1c1.1,0,2.2-0.8,2.4-1.9C1012.6,788.5,1011.8,787.1,1010.4,786.8z"/>
	<path class="st0" d="M1135.3,207.4c-9.2,0-19,0.1-30,0.2c-1.4,0-2.5,1.2-2.5,2.5c0,1.4,1.1,2.5,2.5,2.5c0,0,0,0,0,0
		c11-0.2,20.8-0.2,30-0.2c1.4,0,2.5-1.1,2.5-2.5S1136.7,207.4,1135.3,207.4z"/>
	<path class="st0" d="M1187.9,812.6c-9.7-0.5-19.8-1.2-29.8-2.1c-1.4-0.1-2.6,0.9-2.7,2.3c-0.1,1.4,0.9,2.6,2.3,2.7
		c10.1,0.9,20.2,1.6,30,2.1c0,0,0.1,0,0.1,0c1.3,0,2.4-1,2.5-2.4C1190.3,813.9,1189.3,812.7,1187.9,812.6z"/>
	<path class="st0" d="M955.3,210.6C955.3,210.6,955.3,210.6,955.3,210.6c-5.6,0-11.1,0-16.5,0l-0.3,0c0,0,0,0,0,0
		c-4.2,0-8.7,0.3-13.4,0.9c-1.4,0.2-2.3,1.4-2.2,2.8c0.2,1.3,1.2,2.2,2.5,2.2c0.1,0,0.2,0,0.3,0c4.5-0.6,8.8-0.9,12.8-0.9
		c0,0,0,0,0,0l0.3,0c5.4,0,10.9,0,16.5,0c1.4,0,2.5-1.1,2.5-2.5C957.8,211.7,956.7,210.6,955.3,210.6z"/>
	<path class="st0" d="M1128.3,807.5c-9.7-1.2-19.7-2.5-29.7-4c-1.4-0.2-2.6,0.7-2.8,2.1c-0.2,1.4,0.7,2.6,2.1,2.8
		c10,1.5,20,2.8,29.8,4c0.1,0,0.2,0,0.3,0c1.2,0,2.3-0.9,2.5-2.2C1130.7,808.9,1129.7,807.7,1128.3,807.5z"/>
	<path class="st0" d="M1069.1,798.7c-9.7-1.7-19.5-3.6-29.4-5.6c-1.4-0.3-2.7,0.6-2.9,2s0.6,2.7,2,2.9c9.9,2,19.8,3.9,29.5,5.6
		c0.1,0,0.3,0,0.4,0c1.2,0,2.2-0.9,2.5-2.1C1071.4,800.2,1070.5,799,1069.1,798.7z"/>
	<path class="st0" d="M787.8,272.5c-8.3,5.6-16.6,11.4-24.6,17.4c-1.1,0.8-1.3,2.4-0.5,3.5c0.5,0.7,1.2,1,2,1c0.5,0,1-0.2,1.5-0.5
		c8-5.9,16.2-11.8,24.4-17.3c1.1-0.8,1.5-2.3,0.7-3.5C790.5,272,789,271.7,787.8,272.5z"/>
	<path class="st0" d="M739.6,308.6c-7.8,6.5-15.4,13.2-22.6,19.9c-1,0.9-1.1,2.5-0.1,3.5c0.5,0.5,1.2,0.8,1.8,0.8
		c0.6,0,1.2-0.2,1.7-0.7c7.1-6.6,14.6-13.3,22.4-19.7c1.1-0.9,1.2-2.5,0.3-3.5C742.2,307.8,740.6,307.7,739.6,308.6z"/>
	<path class="st0" d="M699.3,353.3c0.9-1,0.9-2.6-0.1-3.5c-1-0.9-2.6-0.9-3.5,0.1c-5.4,5.8-10.5,11.6-15.3,17.4l-9.2-15l-10.4,46.5
		l40.6-25l-16.8-3.7C689.1,364.5,694,358.9,699.3,353.3z"/>
	<path class="st0" d="M952.3,772.3c-9.5-2.6-19.2-5.3-28.8-8.1c-1.3-0.4-2.7,0.4-3.1,1.7c-0.4,1.3,0.4,2.7,1.7,3.1
		c9.6,2.8,19.4,5.6,28.9,8.2c0.2,0.1,0.4,0.1,0.7,0.1c1.1,0,2.1-0.7,2.4-1.8C954.5,774,953.7,772.7,952.3,772.3z"/>
	<path class="st0" d="M838,736.6c-9.3-3.3-18.8-6.7-28.2-10.1c-1.3-0.5-2.7,0.2-3.2,1.5c-0.5,1.3,0.2,2.7,1.5,3.2
		c9.4,3.5,18.9,6.9,28.3,10.2c0.3,0.1,0.6,0.1,0.8,0.1c1,0,2-0.6,2.4-1.7C840,738.5,839.3,737.1,838,736.6z"/>
	<path class="st0" d="M895.4,218.3c-9,2.8-18.5,6.3-28.4,10.5c-1.3,0.5-1.9,2-1.3,3.3c0.4,1,1.3,1.5,2.3,1.5c0.3,0,0.7-0.1,1-0.2
		c9.7-4.1,19.1-7.6,27.9-10.4c1.3-0.4,2.1-1.8,1.6-3.1C898.1,218.6,896.7,217.9,895.4,218.3z"/>
	<path class="st0" d="M839.7,241.7c-8.7,4.5-17.5,9.4-26.4,14.7c-1.2,0.7-1.6,2.2-0.9,3.4c0.5,0.8,1.3,1.2,2.2,1.2
		c0.4,0,0.9-0.1,1.3-0.4c8.7-5.2,17.5-10.1,26.1-14.5c1.2-0.6,1.7-2.1,1.1-3.4C842.4,241.6,840.9,241.1,839.7,241.7z"/>
	<path class="st0" d="M1195.5,209c-8.9-0.6-19-1.1-30.1-1.3c0,0,0,0-0.1,0c-1.4,0-2.5,1.1-2.5,2.4c0,1.4,1.1,2.5,2.4,2.6
		c11,0.3,21.1,0.7,29.9,1.3c0.1,0,0.1,0,0.2,0c1.3,0,2.4-1,2.5-2.3C1197.9,210.3,1196.8,209.1,1195.5,209z"/>
	<path class="st0" d="M894.8,755.5c-9.4-2.9-19-6-28.5-9.2c-1.3-0.4-2.7,0.3-3.2,1.6s0.3,2.7,1.6,3.2c9.6,3.2,19.2,6.3,28.6,9.2
		c0.2,0.1,0.5,0.1,0.7,0.1c1.1,0,2.1-0.7,2.4-1.8C896.9,757.3,896.2,755.9,894.8,755.5z"/>
	<path class="st0" d="M1554.5,651c-1.2-0.7-2.7-0.3-3.4,0.9c-5,8.4-10.6,16.7-16.6,24.6c-0.8,1.1-0.6,2.7,0.5,3.5
		c0.5,0.3,1,0.5,1.5,0.5c0.8,0,1.5-0.3,2-1c6.2-8.1,11.9-16.5,16.9-25.1C1556.1,653.3,1555.7,651.7,1554.5,651z"/>
	<path class="st0" d="M1247.7,813.2c-7.4,0.3-15.1,0.4-22.9,0.4c-2.3,0-4.7,0-7,0c0,0,0,0,0,0c-1.4,0-2.5,1.1-2.5,2.5
		c0,1.4,1.1,2.5,2.5,2.5c2.4,0,4.7,0,7.1,0c7.8,0,15.5-0.1,23-0.4c1.4,0,2.5-1.2,2.4-2.6C1250.2,814.2,1249,813.1,1247.7,813.2z"/>
	<path class="st0" d="M1541.2,368.5c-0.8-1.1-2.4-1.3-3.5-0.5c-1.1,0.8-1.3,2.4-0.5,3.5c6,8,11.5,16.4,16.3,24.8
		c0.5,0.8,1.3,1.2,2.2,1.2c0.4,0,0.9-0.1,1.3-0.3c1.2-0.7,1.6-2.2,0.9-3.4C1552.9,385.2,1547.3,376.7,1541.2,368.5z"/>
	<path class="st0" d="M1515.1,699.1c-6.7,7-14,13.9-21.6,20.4c-1,0.9-1.2,2.5-0.3,3.5c0.5,0.6,1.2,0.9,1.9,0.9
		c0.6,0,1.2-0.2,1.6-0.6c7.8-6.7,15.2-13.7,22-20.8c1-1,0.9-2.6-0.1-3.5S1516.1,698.1,1515.1,699.1z"/>
	<path class="st0" d="M1477.1,304.7c-7.9-5.9-16.2-11.7-24.8-17.2c-1.2-0.7-2.7-0.4-3.5,0.8c-0.7,1.2-0.4,2.7,0.8,3.5
		c8.5,5.4,16.7,11.1,24.5,16.9c0.5,0.3,1,0.5,1.5,0.5c0.8,0,1.5-0.3,2-1C1478.5,307.1,1478.2,305.5,1477.1,304.7z"/>
	<path class="st0" d="M1577.7,595.9c-1.3-0.4-2.7,0.4-3.1,1.7c-2.8,9.5-6.2,18.9-10.1,27.9c-0.5,1.3,0,2.7,1.3,3.3
		c0.3,0.1,0.7,0.2,1,0.2c1,0,1.9-0.6,2.3-1.5c4-9.2,7.5-18.8,10.3-28.5C1579.8,597.7,1579.1,596.3,1577.7,595.9z"/>
	<path class="st0" d="M1587.2,536.9c-1.4-0.1-2.6,1-2.6,2.4c-0.6,10-1.7,19.9-3.3,29.5c-0.2,1.4,0.7,2.7,2,2.9c0.1,0,0.3,0,0.4,0
		c1.2,0,2.3-0.9,2.5-2.1c1.6-9.8,2.8-19.9,3.3-30C1589.6,538.1,1588.6,537,1587.2,536.9z"/>
	<path class="st0" d="M1581.4,449.4c-2.6-9.5-5.9-19.2-10-28.6c-0.5-1.3-2-1.9-3.3-1.3c-1.3,0.5-1.9,2-1.3,3.3
		c3.9,9.3,7.2,18.7,9.7,28c0.3,1.1,1.3,1.8,2.4,1.8c0.2,0,0.4,0,0.7-0.1C1581,452.1,1581.7,450.8,1581.4,449.4z"/>
	<path class="st0" d="M1500.4,323.9c-1-0.9-2.6-0.8-3.5,0.2c-0.9,1-0.8,2.6,0.2,3.5c7.4,6.7,14.5,13.7,21.1,20.9
		c0.5,0.5,1.2,0.8,1.8,0.8c0.6,0,1.2-0.2,1.7-0.7c1-0.9,1.1-2.5,0.2-3.5C1515.2,337.9,1508,330.7,1500.4,323.9z"/>
	<path class="st0" d="M1314,229.2c-9.5-2.5-19.4-4.8-29.3-7c-1.3-0.3-2.7,0.6-3,1.9c-0.3,1.4,0.6,2.7,1.9,3
		c9.8,2.1,19.6,4.4,29.1,6.9c0.2,0.1,0.4,0.1,0.6,0.1c1.1,0,2.1-0.7,2.4-1.9C1316.2,230.9,1315.4,229.6,1314,229.2z"/>
	<path class="st0" d="M1364.9,793.9c-8.9,3.1-18.5,5.9-28.6,8.2c-1.3,0.3-2.2,1.7-1.9,3c0.3,1.2,1.3,1.9,2.4,1.9
		c0.2,0,0.4,0,0.6-0.1c10.2-2.4,20-5.2,29.1-8.4c1.3-0.5,2-1.9,1.5-3.2C1367.6,794.1,1366.2,793.4,1364.9,793.9z"/>
	<path class="st0" d="M1307.1,807.8c-9.5,1.5-19.4,2.7-29.6,3.6c-1.4,0.1-2.4,1.3-2.3,2.7c0.1,1.3,1.2,2.3,2.5,2.3
		c0.1,0,0.1,0,0.2,0c10.3-0.9,20.4-2.1,29.9-3.6c1.4-0.2,2.3-1.5,2.1-2.9C1309.7,808.5,1308.5,807.6,1307.1,807.8z"/>
	<path class="st0" d="M1255.2,216.6c-9.7-1.6-19.7-3.1-29.8-4.4c-1.4-0.2-2.6,0.8-2.8,2.2c-0.2,1.4,0.8,2.6,2.2,2.8
		c10,1.3,19.9,2.8,29.6,4.4c0.1,0,0.3,0,0.4,0c1.2,0,2.3-0.9,2.5-2.1C1257.5,218.1,1256.6,216.8,1255.2,216.6z"/>
	<path class="st0" d="M1419,768.8c-6.9,3.6-13,6.6-18.4,9.3c-3.2,1.6-6,3-8.4,4.2c-1.2,0.6-1.7,2.1-1.1,3.4c0.4,0.9,1.3,1.4,2.2,1.4
		c0.4,0,0.8-0.1,1.1-0.3c2.4-1.2,5.2-2.6,8.3-4.2c5.4-2.7,11.6-5.7,18.5-9.3c1.2-0.6,1.7-2.1,1.1-3.4S1420.2,768.2,1419,768.8z"/>
	<path class="st0" d="M1426.3,272.4c-8.7-4.7-17.8-9.1-27-13.3c-1.3-0.6-2.7,0-3.3,1.2c-0.6,1.3,0,2.7,1.2,3.3
		c9.2,4.1,18.2,8.6,26.7,13.2c0.4,0.2,0.8,0.3,1.2,0.3c0.9,0,1.8-0.5,2.2-1.3C1427.9,274.5,1427.5,273,1426.3,272.4z"/>
	<path class="st0" d="M1371.4,247.5c-9.2-3.5-18.8-6.8-28.4-9.9c-1.3-0.4-2.7,0.3-3.1,1.6c-0.4,1.3,0.3,2.7,1.6,3.1
		c9.6,3,19.1,6.3,28.2,9.8c0.3,0.1,0.6,0.2,0.9,0.2c1,0,2-0.6,2.3-1.6C1373.3,249.4,1372.7,248,1371.4,247.5z"/>
	<path class="st0" d="M1470,737.8c-7.8,5.6-16.2,11.1-24.9,16.4c-1.2,0.7-1.6,2.3-0.8,3.4c0.5,0.8,1.3,1.2,2.1,1.2
		c0.4,0,0.9-0.1,1.3-0.4c8.8-5.3,17.3-10.9,25.3-16.6c1.1-0.8,1.4-2.4,0.6-3.5C1472.7,737.3,1471.2,737,1470,737.8z"/>
</g>
</svg>
