<svg id="New_Smyrna_-_Pit_Road" data-name="New Smyrna - Pit Road" xmlns="http://www.w3.org/2000/svg" viewBox="0 0 1920 1080"><defs><style>.cls-1{fill:#0089ba;}.cls-2{fill:#d82520;}</style></defs><title>pitroad</title><g id="Mergeline"><path class="cls-1" d="M1310.7,200.49c-8.07-.57-14.84-1-20-1.3l1.61-27.41-10-.58-1.89,32.39s0,0,0,0,0,0,0,0l-1.89,32.43,10,.58,1.61-27.49c5.1.3,11.83.72,19.86,1.29h.36a5,5,0,0,0,.34-10Z"/><path class="cls-1" d="M1721.85,507.54a5,5,0,0,0-10,.35c.17,4.69.25,9.34.25,13.82,0,5.34-.12,10.65-.35,15.77a5,5,0,0,0,4.76,5.22h.24a5,5,0,0,0,5-4.77c.24-5.28.36-10.74.36-16.23C1722.1,517.11,1722,512.34,1721.85,507.54Z"/><path class="cls-1" d="M1370.71,205.76c-9.66-1-19.75-2-30-2.89a5,5,0,1,0-.87,10c10.17.89,20.2,1.86,29.8,2.88l.53,0a5,5,0,0,0,.52-10Z"/><path class="cls-1" d="M1489.78,226c-2.82-.77-5.71-1.54-8.7-2.33-6.35-1.63-13.35-3.23-20.79-4.76a5,5,0,0,0-2,9.79c7.28,1.5,14.11,3.06,20.28,4.65q4.41,1.15,8.59,2.3a5.5,5.5,0,0,0,1.32.17,5,5,0,0,0,1.31-9.82Z"/><path class="cls-1" d="M1545.48,254.31a5,5,0,0,0,1.85-9.64c-8.73-3.48-18.08-6.79-28.58-10.15a5,5,0,0,0-3,9.53c10.28,3.28,19.41,6.52,27.92,9.91A5.05,5.05,0,0,0,1545.48,254.31Z"/><path class="cls-1" d="M1706.63,448.72c.63,4,.81,6.34.81,6.36l0,.22c1,8.42,1.81,15.93,2.45,22.94a5,5,0,0,0,5,4.55l.46,0a5,5,0,0,0,4.52-5.43c-.65-7.08-1.46-14.64-2.46-23.12-.05-.57-.27-3-.91-7a5,5,0,1,0-9.87,1.56Z"/><path class="cls-1" d="M1570.38,266.21a239,239,0,0,1,25,15.37,5,5,0,1,0,5.7-8.22,245.64,245.64,0,0,0-26-16,5,5,0,1,0-4.68,8.83Z"/><path class="cls-1" d="M1699.76,420.27a5,5,0,0,0,9.53-3,257.56,257.56,0,0,0-11-28.57,5,5,0,0,0-9.11,4.13A246.89,246.89,0,0,1,1699.76,420.27Z"/><path class="cls-1" d="M1430.52,213.54c-9.33-1.49-19.38-2.93-29.87-4.28a5,5,0,1,0-1.27,9.92c10.38,1.34,20.34,2.76,29.57,4.24a5.35,5.35,0,0,0,.79.06,5,5,0,0,0,.78-9.94Z"/><path class="cls-1" d="M1700.53,620.81a5,5,0,0,0-6.46,2.89c-.29.76-.59,1.53-.89,2.3l-.06.15a177.93,177.93,0,0,1-10.8,24.39,5,5,0,1,0,8.8,4.74,186.81,186.81,0,0,0,11.39-25.69c.31-.78.61-1.55.9-2.32A5,5,0,0,0,1700.53,620.81Z"/><path class="cls-1" d="M1684.13,361.63A275.79,275.79,0,0,0,1667,336.34a5,5,0,0,0-8,6.06,266.59,266.59,0,0,1,16.5,24.37,5,5,0,1,0,8.58-5.14Z"/><path class="cls-1" d="M1714.64,562.61a5,5,0,0,0-5.68,4.22,266.94,266.94,0,0,1-5.86,28.85,5,5,0,0,0,3.57,6.1,5.1,5.1,0,0,0,1.27.17,5,5,0,0,0,4.83-3.74,277.11,277.11,0,0,0,6.09-29.92A5,5,0,0,0,1714.64,562.61Z"/><path class="cls-1" d="M1568.14,733.53a160.46,160.46,0,0,1-28.78,4,5,5,0,0,0,.09,10h.08c.52,0,12.78-.26,30.79-4.28a5,5,0,0,0-2.18-9.76Z"/><path class="cls-1" d="M1673.35,674a5,5,0,0,0-7,.78,155.74,155.74,0,0,1-20.18,20.83,5,5,0,0,0,6.51,7.6A166.65,166.65,0,0,0,1674.12,681,5,5,0,0,0,1673.35,674Z"/><path class="cls-1" d="M1622.45,712.43a181.69,181.69,0,0,1-26.3,12.64,5,5,0,1,0,3.61,9.32,190.32,190.32,0,0,0,27.75-13.34,5,5,0,0,0-5.06-8.62Z"/><path class="cls-1" d="M1647.26,313.08a301.41,301.41,0,0,0-22.06-21,5,5,0,0,0-6.53,7.57A289.65,289.65,0,0,1,1640,320a5,5,0,0,0,3.64,1.57,5,5,0,0,0,3.63-8.44Z"/></g><g id="Pitroad"><path class="cls-2" d="M466.51,737.51h-.06c-3.28.08-6.84.19-10.63.3-5.82.18-12.42.37-19.35.5a2.5,2.5,0,0,0,0,5h0c7-.13,13.57-.33,19.41-.5,3.78-.12,7.33-.22,10.6-.3a2.5,2.5,0,0,0-.06-5Z"/><path class="cls-2" d="M526.89,737.49l-30.17-.07h0a2.5,2.5,0,1,0,0,5l30.17.07h0a2.5,2.5,0,0,0,0-5Z"/><path class="cls-2" d="M587.13,737.63,557,737.56h0a2.5,2.5,0,0,0,0,5l30.11.07h0a2.5,2.5,0,0,0,0-5Z"/><path class="cls-2" d="M707.44,737.93l-30.07-.07h0a2.5,2.5,0,1,0,0,5l30.06.07h0a2.5,2.5,0,0,0,0-5Z"/><path class="cls-2" d="M647.3,737.78l-30.08-.07h0a2.5,2.5,0,1,0,0,5l30.08.07h0a2.5,2.5,0,0,0,0-5Z"/><path class="cls-2" d="M406.58,738.28c-10.63-.27-20.37-.82-29.79-1.68a2.5,2.5,0,1,0-.46,5c9.53.87,19.38,1.43,30.12,1.7h.07a2.5,2.5,0,0,0,.06-5Z"/><path class="cls-2" d="M767.56,738.08,737.5,738h0a2.5,2.5,0,1,0,0,5l30,.07h0a2.5,2.5,0,0,0,0-5Z"/><path class="cls-2" d="M165.69,549.85a2.5,2.5,0,1,0-4.52,2.13c.05.11,5.11,10.82,14,26.83a2.5,2.5,0,1,0,4.37-2.42C170.74,560.53,165.74,550,165.69,549.85Z"/><path class="cls-2" d="M228.39,651.55a2.5,2.5,0,1,0-4,3.06c6.37,8.28,12.85,16.11,19.24,23.28a2.5,2.5,0,0,0,3.73-3.33C241.09,667.48,234.69,659.74,228.39,651.55Z"/><path class="cls-2" d="M194.61,602.24a2.5,2.5,0,0,0-4.26,2.61c5.35,8.72,10.86,17.23,16.38,25.32a2.51,2.51,0,0,0,2.07,1.09,2.5,2.5,0,0,0,2.06-3.91C205.39,619.33,199.92,610.88,194.61,602.24Z"/><path class="cls-2" d="M347.3,732.56a225.88,225.88,0,0,1-28.75-7.25,2.5,2.5,0,1,0-1.56,4.75,232.56,232.56,0,0,0,29.39,7.42,2.38,2.38,0,0,0,.46,0,2.5,2.5,0,0,0,.46-5Z"/><path class="cls-2" d="M291.45,713.69c-2.78-1.53-5.49-3.16-8.06-4.85-5-3.91-10.13-8.28-15.2-13a2.5,2.5,0,0,0-3.4,3.67c5.2,4.81,10.45,9.29,15.6,13.31l.17.12c2.71,1.77,5.56,3.49,8.48,5.1a2.5,2.5,0,0,0,2.41-4.38Z"/><path class="cls-2" d="M1188.26,739.16l-30-.08h0a2.5,2.5,0,0,0,0,5l30.06.08h0a2.5,2.5,0,0,0,0-5Z"/><path class="cls-2" d="M1308.49,739.47l-30.06-.08h0a2.5,2.5,0,0,0,0,5l30.07.08h0a2.5,2.5,0,0,0,0-5Z"/><path class="cls-2" d="M1368.63,739.63l-30.07-.08h0a2.5,2.5,0,0,0,0,5l30.08.08h0a2.5,2.5,0,0,0,0-5Z"/><path class="cls-2" d="M1489,739.94l-30.13-.08h0a2.5,2.5,0,0,0,0,5l30.14.08h0a2.5,2.5,0,0,0,0-5Z"/><path class="cls-2" d="M1248.37,739.32l-30.06-.08h0a2.5,2.5,0,0,0,0,5l30.06.08h0a2.5,2.5,0,0,0,0-5Z"/><path class="cls-2" d="M1428.8,739.78l-30.09-.07h0a2.5,2.5,0,1,0,0,5l30.09.07h0a2.5,2.5,0,0,0,0-5Z"/><path class="cls-2" d="M887.77,738.39l-30-.08h0a2.5,2.5,0,0,0,0,5l30,.08h0a2.5,2.5,0,0,0,0-5Z"/><path class="cls-2" d="M947.87,738.54l-30-.08h0a2.5,2.5,0,0,0,0,5l30,.08h0a2.5,2.5,0,0,0,0-5Z"/><path class="cls-2" d="M1128.16,739l-30.05-.07h0a2.5,2.5,0,0,0,0,5l30.05.07h0a2.5,2.5,0,0,0,0-5Z"/><path class="cls-2" d="M827.67,738.23l-30.06-.07h0a2.5,2.5,0,0,0,0,5l30,.07h0a2.5,2.5,0,0,0,0-5Z"/><path class="cls-2" d="M1008,738.7l-30.09-.08h0a2.5,2.5,0,0,0,0,5l30.09.08h0a2.5,2.5,0,0,0,0-5Z"/><path class="cls-2" d="M1068.06,738.85l-30-.08h0a2.5,2.5,0,0,0,0,5l30,.08h0a2.5,2.5,0,0,0,0-5Z"/><polygon class="cls-2" points="1539.45 742.57 1495.6 723.95 1503.42 742.48 1495.51 760.98 1539.45 742.57"/></g></svg>