<?xml version="1.0" encoding="utf-8"?>
<!-- Generator: Adobe Illustrator 24.3.0, SVG Export Plug-In . SVG Version: 6.00 Build 0)  -->
<svg version="1.1" id="Daytona_Road_-_Pit_Road" xmlns="http://www.w3.org/2000/svg" xmlns:xlink="http://www.w3.org/1999/xlink"
	 x="0px" y="0px" viewBox="0 0 1920 1080" style="enable-background:new 0 0 1920 1080;" xml:space="preserve">
<style type="text/css">
	.st0{fill:#016699;}
	.st1{fill:#D82520;}
</style>
<g id="Mergeline">
	<path class="st0" d="M1219,653.5c-4.5-3-8.6-6.4-12.2-10.2c-3.2-3.3-7-6-12.2-8.3c-2.5-1.1-5.5,0-6.6,2.5s0,5.5,2.5,6.6
		c3.9,1.8,6.8,3.7,9,6.1c4.1,4.3,8.8,8.3,13.9,11.7c0.9,0.6,1.8,0.8,2.8,0.8c1.6,0,3.2-0.8,4.2-2.2
		C1221.9,658.1,1221.3,655,1219,653.5z"/>
	<path class="st0" d="M1273.4,668.5c-2-0.1-3.9-0.1-6-0.1c-0.1,0-9.9-0.1-22.5-3.5c-2.7-0.7-5.4,0.9-6.1,3.5s0.9,5.4,3.5,6.1
		c13.9,3.8,24.6,3.8,25.1,3.8l0,0c2,0,3.9,0.1,5.8,0.1h0.1c2.7,0,4.9-2.2,5-4.9C1278.3,670.9,1276.2,668.6,1273.4,668.5z"/>
	<path class="st0" d="M1269.1,847.2c-13.1,3.4-23,5.1-27.3,5.9c-0.8,0.1-1.4,0.3-1.8,0.3c-2.7,0.5-4.5,3.2-4,5.9
		c0.5,2.4,2.6,4,4.9,4c0.3,0,0.6,0,1-0.1c0.3-0.1,0.9-0.2,1.6-0.3c4.4-0.8,14.6-2.5,28.1-6c2.7-0.7,4.3-3.4,3.6-6.1
		C1274.5,848.1,1271.8,846.5,1269.1,847.2z"/>
	<path class="st0" d="M1105.1,617c-8.5-1.1-16.4-2.1-22.4-2.9l3.1-23.5l-9.9-1.3l-3.2,24.2c-1.6,0.7-2.8,2.1-3,4
		c-0.2,1.8,0.6,3.5,1.9,4.6l-4.2,31.6l9.9,1.3l4.1-31c6,0.8,13.9,1.8,22.4,2.9c0.2,0,0.4,0,0.7,0c2.5,0,4.6-1.8,5-4.3
		C1109.8,619.8,1107.9,617.3,1105.1,617z"/>
	<path class="st0" d="M1164.8,626.4c-3.3-0.7-6.8-1.4-10.9-2.2c-4.3-0.8-10.7-1.9-19-3.1c-2.7-0.4-5.3,1.5-5.7,4.2
		c-0.4,2.7,1.5,5.3,4.2,5.7c8.2,1.2,14.4,2.2,18.6,3c4,0.8,7.5,1.5,10.7,2.1c0.3,0.1,0.7,0.1,1,0.1c2.3,0,4.4-1.6,4.9-4
		C1169.2,629.6,1167.5,626.9,1164.8,626.4z"/>
	<path class="st0" d="M1386.7,714.8c2.2-1.7,2.5-4.9,0.8-7c-6-7.6-14.4-14.3-24.7-20c-2.4-1.3-5.5-0.4-6.8,2s-0.4,5.5,2,6.8
		c9.2,5,16.5,10.8,21.7,17.4c1,1.2,2.4,1.9,3.9,1.9C1384.7,715.9,1385.8,715.6,1386.7,714.8z"/>
	<path class="st0" d="M1393.3,733.7c-2.8,0-5,2.3-5,5c0,8.5-1.9,17.7-5.8,27.3c-1,2.6,0.2,5.5,2.8,6.5c0.6,0.2,1.2,0.4,1.8,0.4
		c2,0,3.9-1.2,4.6-3.2c4.3-10.8,6.5-21.2,6.5-31C1398.3,735.9,1396.1,733.7,1393.3,733.7z"/>
	<path class="st0" d="M1324.3,826.8c-8.4,4.2-17.5,8.1-27,11.6c-2.6,0.9-3.9,3.8-3,6.4c0.7,2,2.7,3.3,4.7,3.3c0.6,0,1.2-0.1,1.7-0.3
		c9.9-3.6,19.4-7.7,28.1-12.1c2.5-1.2,3.5-4.3,2.2-6.7C1329.8,826.6,1326.8,825.6,1324.3,826.8z"/>
	<path class="st0" d="M1375.6,790c-2.2-1.6-5.4-1.1-7,1.2c-6.3,8.8-13.5,16.6-19.3,20.7c-2.2,1.6-2.8,4.7-1.2,7
		c1,1.4,2.5,2.1,4.1,2.1c1,0,2-0.3,2.9-0.9c6.6-4.7,14.7-13.3,21.6-23C1378.4,794.7,1377.9,791.6,1375.6,790z"/>
	<path class="st0" d="M1333.9,676.6c-9.2-2.5-19.3-4.5-30.1-5.9c-2.7-0.3-5.2,1.6-5.6,4.3c-0.3,2.7,1.6,5.2,4.3,5.6
		c10.3,1.3,20,3.2,28.7,5.6c0.4,0.1,0.9,0.2,1.3,0.2c2.2,0,4.2-1.5,4.8-3.7C1338.1,680,1336.5,677.3,1333.9,676.6z"/>
</g>
<g id="Pitroad">
	<path class="st1" d="M893.2,854.2l-30-0.1l0,0c-1.4,0-2.5,1.1-2.5,2.5s1.1,2.5,2.5,2.5l30,0.1l0,0c1.4,0,2.5-1.1,2.5-2.5
		S894.6,854.2,893.2,854.2z"/>
	<path class="st1" d="M773.2,853.6l-30-0.1l0,0c-1.4,0-2.5,1.1-2.5,2.5s1.1,2.5,2.5,2.5l30,0.1l0,0c1.4,0,2.5-1.1,2.5-2.5
		C775.7,854.8,774.6,853.6,773.2,853.6z"/>
	<path class="st1" d="M833.2,853.9l-30-0.1l0,0c-1.4,0-2.5,1.1-2.5,2.5s1.1,2.5,2.5,2.5l30,0.1l0,0c1.4,0,2.5-1.1,2.5-2.5
		C835.7,855.1,834.6,853.9,833.2,853.9z"/>
	<path class="st1" d="M953.2,854.5l-30-0.1l0,0c-1.4,0-2.5,1.1-2.5,2.5s1.1,2.5,2.5,2.5l30,0.1l0,0c1.4,0,2.5-1.1,2.5-2.5
		S954.6,854.5,953.2,854.5z"/>
	<path class="st1" d="M653.3,852c-7.6-0.2-15.4-0.2-20.7-0.2c-5.6,0-9.5,0-9.5,0c-1.4,0-2.5,1.2-2.5,2.5c0,1.4,1.1,2.5,2.5,2.5l0,0
		c0,0,3.8,0,9.4,0c5.2,0,12.9,0,20.5,0.2c0,0,0,0,0.1,0c1.3,0,2.5-1.1,2.5-2.4C655.8,853.2,654.7,852.1,653.3,852z"/>
	<path class="st1" d="M713.2,853.4l-30-0.1l0,0c-1.4,0-2.5,1.1-2.5,2.5s1.1,2.5,2.5,2.5l30,0.1l0,0c1.4,0,2.5-1.1,2.5-2.5
		S714.6,853.4,713.2,853.4z"/>
	<path class="st1" d="M1193.2,855.6l-30-0.1l0,0c-1.4,0-2.5,1.1-2.5,2.5s1.1,2.5,2.5,2.5l30,0.1l0,0c1.4,0,2.5-1.1,2.5-2.5
		C1195.7,856.7,1194.6,855.6,1193.2,855.6z"/>
	<path class="st1" d="M1133.2,855.3l-30-0.1c-1.4,0-2.5,1.1-2.5,2.5s1.1,2.5,2.5,2.5l30,0.1l0,0c1.4,0,2.5-1.1,2.5-2.5
		C1135.7,856.5,1134.6,855.3,1133.2,855.3z"/>
	<path class="st1" d="M1013.2,854.8l-30-0.1l0,0c-1.4,0-2.5,1.1-2.5,2.5s1.1,2.5,2.5,2.5l30,0.1l0,0c1.4,0,2.5-1.1,2.5-2.5
		C1015.7,855.9,1014.6,854.8,1013.2,854.8z"/>
	<path class="st1" d="M1073.2,855l-30-0.1l0,0c-1.4,0-2.5,1.1-2.5,2.5s1.1,2.5,2.5,2.5l30,0.1l0,0c1.4,0,2.5-1.1,2.5-2.5
		C1075.7,856.2,1074.6,855.1,1073.2,855z"/>
	<polygon class="st1" points="1241,858.3 1197.2,839.6 1205,858.2 1197,876.6 	"/>
</g>
</svg>
