<?xml version="1.0" encoding="utf-8"?>
<!-- Generator: Adobe Illustrator 24.0.1, SVG Export Plug-In . SVG Version: 6.00 Build 0)  -->
<svg version="1.1" id="Daytona_Short_-_Pit_Road" xmlns="http://www.w3.org/2000/svg" xmlns:xlink="http://www.w3.org/1999/xlink"
	 x="0px" y="0px" viewBox="0 0 1920 1080" style="enable-background:new 0 0 1920 1080;" xml:space="preserve">
<style type="text/css">
	.st0{fill:#D82520;}
</style>
<g id="Pitroad">
	<path class="st0" d="M1348.1,617.8l-30-0.8c-1.3-0.1-2.5,1.1-2.6,2.4s1.1,2.5,2.4,2.6l30,0.8c0,0,0,0,0.1,0c1.4,0,2.5-1.1,2.5-2.4
		C1350.5,619,1349.5,617.8,1348.1,617.8z"/>
	<path class="st0" d="M1288.1,616.3l-30-0.8c-1.4,0-2.5,1.1-2.6,2.4c0,1.4,1.1,2.5,2.4,2.6l30,0.8c0,0,0,0,0.1,0
		c1.4,0,2.5-1.1,2.5-2.4C1290.6,617.4,1289.5,616.3,1288.1,616.3z"/>
	<path class="st0" d="M1228.1,614.7l-22.7-0.6l7.2-15.8l-44.4,17.4l43.4,19.6l-6.4-16.2l22.8,0.6c0,0,0,0,0.1,0
		c1.4,0,2.5-1.1,2.5-2.4C1230.6,615.9,1229.5,614.7,1228.1,614.7z"/>
	<path class="st0" d="M1561.4,561.3c-0.4-1.3-1.8-2-3.1-1.6l-9.2,3c-1.3,0.4-2,1.8-1.6,3.1c0.3,1.1,1.3,1.7,2.4,1.7
		c0.3,0,0.5,0,0.8-0.1l9.2-3C1561.1,564.1,1561.8,562.7,1561.4,561.3z"/>
	<path class="st0" d="M1520.4,571.9l-28.6,9.2c-1.3,0.4-2,1.8-1.6,3.1c0.3,1.1,1.3,1.7,2.4,1.7c0.3,0,0.5,0,0.8-0.1l28.6-9.2
		c1.3-0.4,2-1.8,1.6-3.1C1523.1,572.2,1521.7,571.4,1520.4,571.9z"/>
	<path class="st0" d="M1406.2,608.5l-2.1,0.7c-8.6,3-17.5,5.2-26.5,6.7c-1.4,0.2-2.3,1.5-2.1,2.9c0.2,1.2,1.3,2.1,2.5,2.1
		c0.1,0,0.3,0,0.4,0c9.3-1.5,18.5-3.8,27.3-6.9l2.1-0.7c1.3-0.4,2-1.8,1.6-3.1C1408.9,608.8,1407.5,608.1,1406.2,608.5z"/>
	<path class="st0" d="M1463.3,590.2l-28.6,9.2c-1.3,0.4-2,1.8-1.6,3.1c0.3,1.1,1.3,1.7,2.4,1.7c0.3,0,0.5,0,0.8-0.1l28.6-9.2
		c1.3-0.4,2-1.8,1.6-3.1C1466,590.5,1464.6,589.8,1463.3,590.2z"/>
</g>
</svg>
