<?xml version="1.0" encoding="utf-8"?>
<!-- Generator: Adobe Illustrator 24.0.1, SVG Export Plug-In . SVG Version: 6.00 Build 0)  -->
<svg version="1.1" id="Grand_Prix__Pit_Road" xmlns="http://www.w3.org/2000/svg" xmlns:xlink="http://www.w3.org/1999/xlink"
	 x="0px" y="0px" viewBox="0 0 1920 1080" style="enable-background:new 0 0 1920 1080;" xml:space="preserve">
<style type="text/css">
	.st0{fill:#D82520;}
</style>
<title>pitroad</title>
<g id="Pitroad">
	<path class="st0" d="M1008.2,900.8l-29.1-7.2c-1.3-0.3-2.7,0.5-3,1.8c-0.3,1.3,0.5,2.7,1.8,3l29.1,7.2c0.2,0,0.4,0.1,0.6,0.1
		c1.1,0,2.1-0.8,2.4-1.9C1010.4,902.5,1009.6,901.1,1008.2,900.8z"/>
	<path class="st0" d="M950,886.4l-29.1-7.2c-1.3-0.3-2.7,0.5-3,1.8c-0.3,1.3,0.5,2.7,1.8,3l29.1,7.2c0.2,0,0.4,0.1,0.6,0.1
		c1.1,0,2.1-0.8,2.4-1.9C952.1,888.1,951.3,886.7,950,886.4z"/>
	<path class="st0" d="M833,857.8l-29.9-2.1c-1.4-0.1-2.6,0.9-2.7,2.3c-0.1,1.4,0.9,2.6,2.3,2.7l29.9,2.1c0.1,0,0.1,0,0.2,0
		c1.3,0,2.4-1,2.5-2.3C835.4,859.1,834.4,857.9,833,857.8z"/>
	<path class="st0" d="M773.2,853.6l-22.7-1.6l7.9-15.5l-45.1,15.4l42.5,21.5l-5.7-16.5l22.7,1.6c0.1,0,0.1,0,0.2,0
		c1.3,0,2.4-1,2.5-2.3C775.6,854.9,774.5,853.7,773.2,853.6z"/>
	<path class="st0" d="M891.7,872l-29.1-7.2c-1.3-0.3-2.7,0.5-3,1.8c-0.3,1.3,0.5,2.7,1.8,3l29.1,7.2c0.2,0,0.4,0.1,0.6,0.1
		c1.1,0,2.1-0.8,2.4-1.9C893.9,873.7,893.1,872.4,891.7,872z"/>
	<path class="st0" d="M1066.5,915.2l-29.1-7.2c-1.3-0.3-2.7,0.5-3,1.8c-0.3,1.3,0.5,2.7,1.8,3l29.1,7.2c0.2,0,0.4,0.1,0.6,0.1
		c1.1,0,2.1-0.8,2.4-1.9C1068.6,916.9,1067.8,915.5,1066.5,915.2z"/>
	<path class="st0" d="M1281.5,868.6l-25.7,9.6l-2.5,1.2c-1.3,0.6-1.8,2.1-1.2,3.3c0.4,0.9,1.3,1.4,2.3,1.4c0.4,0,0.7-0.1,1.1-0.2
		l2.2-1l25.6-9.6c1.3-0.5,2-1.9,1.5-3.2C1284.3,868.8,1282.8,868.2,1281.5,868.6z"/>
	<path class="st0" d="M1319.5,857.1c-0.5-1.3-1.9-1.9-3.2-1.5l-6.6,2.5c-1.3,0.5-2,1.9-1.5,3.2c0.4,1,1.3,1.6,2.3,1.6
		c0.3,0,0.6-0.1,0.9-0.2l6.6-2.5C1319.3,859.9,1320,858.4,1319.5,857.1z"/>
	<path class="st0" d="M1124.7,929.6l-29.1-7.2c-1.3-0.3-2.7,0.5-3,1.8c-0.3,1.3,0.5,2.7,1.8,3l29.1,7.2c0.2,0,0.4,0.1,0.6,0.1
		c1.1,0,2.1-0.8,2.4-1.9C1126.9,931.3,1126.1,929.9,1124.7,929.6z"/>
	<path class="st0" d="M1226.2,892.1l-27.2,12.7c-1.3,0.6-1.8,2.1-1.2,3.3c0.4,0.9,1.3,1.4,2.3,1.4c0.4,0,0.7-0.1,1.1-0.2l27.2-12.7
		c1.3-0.6,1.8-2.1,1.2-3.3C1228.9,892.1,1227.4,891.5,1226.2,892.1z"/>
	<path class="st0" d="M1173.6,900.2c-7.1,0.5-11.5,5.5-12.4,6.5l-12.7,11.8c-1,0.9-1.1,2.5-0.1,3.5c0.5,0.5,1.2,0.8,1.8,0.8
		c0.6,0,1.2-0.2,1.7-0.7l12.9-11.9l0.3-0.3c0,0,3.4-4.4,8.9-4.8c1.4-0.1,2.4-1.3,2.3-2.7S1175,900.1,1173.6,900.2z"/>
</g>
</svg>
