<?xml version="1.0" encoding="utf-8"?>
<!-- Generator: Adobe Illustrator 24.0.1, SVG Export Plug-In . SVG Version: 6.00 Build 0)  -->
<svg version="1.1" id="East__Pit_Road" xmlns="http://www.w3.org/2000/svg" xmlns:xlink="http://www.w3.org/1999/xlink" x="0px"
	 y="0px" viewBox="0 0 1920 1080" style="enable-background:new 0 0 1920 1080;" xml:space="preserve">
<style type="text/css">
	.st0{fill:#D82520;}
</style>
<title>pitroad</title>
<g id="Pitroad">
	<path class="st0" d="M1540.3,289.2C1540.3,289.2,1540.4,289.2,1540.3,289.2c1.4,0,2.5-1.1,2.5-2.5l0.2-30c0-1.4-1.1-2.5-2.5-2.5
		c0,0,0,0,0,0c-1.4,0-2.5,1.1-2.5,2.5l-0.2,30C1537.8,288.1,1539,289.2,1540.3,289.2z"/>
	<path class="st0" d="M1540,349.2C1540,349.2,1540,349.2,1540,349.2c1.4,0,2.5-1.1,2.5-2.5l0.2-30c0-1.4-1.1-2.5-2.5-2.5
		c0,0,0,0,0,0c-1.4,0-2.5,1.1-2.5,2.5l-0.2,30C1537.5,348.1,1538.6,349.2,1540,349.2z"/>
	<path class="st0" d="M1540.7,229.2C1540.7,229.2,1540.7,229.2,1540.7,229.2c1.4,0,2.5-1.1,2.5-2.5l0.2-30c0-1.4-1.1-2.5-2.5-2.5
		c-1.4-0.1-2.5,1.1-2.5,2.5l-0.2,30C1538.2,228.1,1539.3,229.2,1540.7,229.2z"/>
	<path class="st0" d="M1538.8,143.5c0,1.6-0.1,3.3-0.2,5l-0.1,18.2c0,1.4,1.1,2.5,2.5,2.5c0,0,0,0,0,0c1.4,0,2.5-1.1,2.5-2.5
		l0.1-17.9c0.1-1.8,0.2-3.6,0.2-5.3c0-2.5-0.1-4.9-0.4-7.1c-0.2-1.4-1.4-2.3-2.8-2.2c-1.4,0.2-2.3,1.4-2.2,2.8
		C1538.7,139,1538.8,141.2,1538.8,143.5z"/>
	<path class="st0" d="M1495.5,158.9c-1.4-0.1-2.6,1-2.6,2.3l-1.9,29.9c-0.1,1.4,1,2.6,2.3,2.6c0.1,0,0.1,0,0.2,0
		c1.3,0,2.4-1,2.5-2.3l1.9-29.9C1497.9,160.2,1496.9,159,1495.5,158.9z"/>
	<path class="st0" d="M1522.8,114c-11.9-1-20.8,4.9-25.6,16.9c-0.5,1.3,0.1,2.7,1.4,3.2c0.3,0.1,0.6,0.2,0.9,0.2
		c1,0,1.9-0.6,2.3-1.6c4-9.9,10.9-14.5,20.5-13.7c1.4,0.1,2.6-0.9,2.7-2.3C1525.2,115.4,1524.1,114.1,1522.8,114z"/>
	<path class="st0" d="M1491.8,218.8c-1.4-0.1-2.6,1-2.7,2.3l-1.9,29.9c-0.1,1.4,1,2.6,2.3,2.6c0.1,0,0.1,0,0.2,0
		c1.3,0,2.4-1,2.5-2.3l1.9-29.9C1494.2,220.1,1493.2,218.9,1491.8,218.8z"/>
	<path class="st0" d="M1549.6,407.9c0.5-0.5,0.8-1.3,0.7-2.1c-1.4-9.7-2.8-19.7-4.1-29.7c-0.2-1.4-1.5-2.3-2.8-2.1
		c-1.4,0.2-2.3,1.4-2.1,2.8c1.4,10.1,2.8,20.1,4.1,29.7c0.1,0.7,0.5,1.3,1.1,1.7l-17.6-4.7l24.6,40.8l12.1-46.1L1549.6,407.9z
		 M1548,408.7c0,0,0.1,0,0.1,0c0.1,0,0.2-0.1,0.4-0.1l-0.3,0.2L1548,408.7z"/>
</g>
</svg>
