<?xml version="1.0" encoding="utf-8"?>
<!-- Generator: Adobe Illustrator 24.0.1, SVG Export Plug-In . SVG Version: 6.00 Build 0)  -->
<svg version="1.1" id="West__Pit_Road" xmlns="http://www.w3.org/2000/svg" xmlns:xlink="http://www.w3.org/1999/xlink" x="0px"
	 y="0px" viewBox="0 0 1920 1080" style="enable-background:new 0 0 1920 1080;" xml:space="preserve">
<style type="text/css">
	.st0{fill:#D82520;}
</style>
<title>pitroad</title>
<g id="Pitroad">
	<path class="st0" d="M1008.2,900.8l-29.1-7.2c-1.3-0.3-2.7,0.5-3,1.8c-0.3,1.3,0.5,2.7,1.8,3l29.1,7.2c0.2,0,0.4,0.1,0.6,0.1
		c1.1,0,2.1-0.8,2.4-1.9C1010.4,902.5,1009.6,901.1,1008.2,900.8z"/>
	<path class="st0" d="M891.7,872l-29.1-7.2c-1.3-0.3-2.7,0.5-3,1.8c-0.3,1.3,0.5,2.7,1.8,3l29.1,7.2c0.2,0,0.4,0.1,0.6,0.1
		c1.1,0,2.1-0.8,2.4-1.9C893.9,873.7,893.1,872.4,891.7,872z"/>
	<path class="st0" d="M833,857.8l-29.9-2.1c-1.4-0.1-2.6,0.9-2.7,2.3c-0.1,1.4,0.9,2.6,2.3,2.7l29.9,2.1c0.1,0,0.1,0,0.2,0
		c1.3,0,2.4-1,2.5-2.3C835.4,859.1,834.4,857.9,833,857.8z"/>
	<path class="st0" d="M773.2,853.6l-22.7-1.6l7.9-15.5l-45.1,15.4l42.5,21.5l-5.7-16.5l22.7,1.6c0.1,0,0.1,0,0.2,0
		c1.3,0,2.4-1,2.5-2.3C775.6,854.9,774.5,853.7,773.2,853.6z"/>
	<path class="st0" d="M950,886.4l-29.1-7.2c-1.3-0.3-2.7,0.5-3,1.8c-0.3,1.3,0.5,2.7,1.8,3l29.1,7.2c0.2,0,0.4,0.1,0.6,0.1
		c1.1,0,2.1-0.8,2.4-1.9C952.1,888.1,951.3,886.8,950,886.4z"/>
	<path class="st0" d="M1217.5,966.7l-8.9-3.6c-1.3-0.5-2.7,0.1-3.3,1.4c-0.5,1.3,0.1,2.7,1.4,3.3l8.9,3.6c0.3,0.1,0.6,0.2,0.9,0.2
		c1,0,1.9-0.6,2.3-1.6C1219.4,968.6,1218.8,967.2,1217.5,966.7z"/>
	<path class="st0" d="M1180.8,952l-27.8-11.2c-1.3-0.5-2.7,0.1-3.3,1.4s0.1,2.7,1.4,3.3l27.8,11.2c0.3,0.1,0.6,0.2,0.9,0.2
		c1,0,1.9-0.6,2.3-1.6C1182.7,953.9,1182.1,952.5,1180.8,952z"/>
	<path class="st0" d="M1124.7,929.6l-29.1-7.2c-1.3-0.3-2.7,0.5-3,1.8c-0.3,1.3,0.5,2.7,1.8,3l29.1,7.2c0.2,0,0.4,0.1,0.6,0.1
		c1.1,0,2.1-0.8,2.4-1.9C1126.9,931.3,1126.1,929.9,1124.7,929.6z"/>
	<path class="st0" d="M1066.5,915.2l-29.1-7.2c-1.3-0.3-2.7,0.5-3,1.8c-0.3,1.3,0.5,2.7,1.8,3l29.1,7.2c0.2,0,0.4,0.1,0.6,0.1
		c1.1,0,2.1-0.8,2.4-1.9C1068.6,916.9,1067.8,915.5,1066.5,915.2z"/>
</g>
</svg>
