<?xml version="1.0" encoding="utf-8"?>
<!-- Generator: Adobe Illustrator 24.0.1, SVG Export Plug-In . SVG Version: 6.00 Build 0)  -->
<svg version="1.1" id="Oval__Pit_Road" xmlns="http://www.w3.org/2000/svg" xmlns:xlink="http://www.w3.org/1999/xlink" x="0px"
	 y="0px" viewBox="0 0 1920 1080" style="enable-background:new 0 0 1920 1080;" xml:space="preserve">
<style type="text/css">
	.st0{fill:#016699;}
	.st1{fill:#D82520;}
</style>
<title>pitroad</title>
<g id="Mergeline">
	<path class="st0" d="M1162.9,567.4l-29.5-5.4c-2.7-0.5-5.3,1.3-5.8,4c-0.5,2.7,1.3,5.3,4,5.8l29.5,5.4c0.3,0.1,0.6,0.1,0.9,0.1
		c2.4,0,4.5-1.7,4.9-4.1C1167.4,570.5,1165.6,567.9,1162.9,567.4z"/>
	<path class="st0" d="M1215.7,998.9c-9.3,0.3-19.2,0-29.3-1c-2.8-0.3-5.2,1.8-5.5,4.5c-0.3,2.7,1.8,5.2,4.5,5.5
		c7.9,0.8,15.8,1.1,23.3,1.1c2.5,0,4.9,0,7.3-0.1c2.8-0.1,4.9-2.4,4.8-5.2S1218.5,998.8,1215.7,998.9z"/>
	<path class="st0" d="M1397.2,724.1c0.7,2.1,2.6,3.5,4.8,3.5c0.5,0,1-0.1,1.5-0.2c2.6-0.9,4.1-3.7,3.2-6.3
		c-3.2-9.8-7.2-19.4-11.8-28.4c-1.3-2.5-4.3-3.4-6.7-2.1c-2.5,1.3-3.4,4.3-2.1,6.7C1390.4,705.7,1394.2,714.8,1397.2,724.1z"/>
	<path class="st0" d="M1404,752.5c1.6,9.4,2.5,19.2,2.8,29.2c0.1,2.7,2.3,4.8,5,4.8c0.1,0,0.1,0,0.2,0c2.8-0.1,4.9-2.4,4.8-5.2
		c-0.3-10.4-1.3-20.7-2.9-30.5c-0.4-2.7-3-4.6-5.7-4.1C1405.4,747.2,1403.6,749.8,1404,752.5z"/>
	<path class="st0" d="M1272.7,987.4c-9.6,3.6-19,6.4-28,8.3c-2.7,0.6-4.4,3.2-3.9,5.9c0.5,2.4,2.6,4,4.9,4c0.3,0,0.7,0,1-0.1
		c9.5-2,19.5-4.9,29.5-8.7c2.6-1,3.9-3.9,2.9-6.4C1278.1,987.7,1275.2,986.4,1272.7,987.4z"/>
	<path class="st0" d="M1157.3,993.5c-17-3.5-28.3-7.4-28.4-7.5c-2.6-0.9-5.5,0.4-6.4,3c-0.9,2.6,0.4,5.5,3,6.4
		c0.5,0.2,11.9,4.2,29.7,7.8c0.3,0.1,0.7,0.1,1,0.1c2.3,0,4.4-1.6,4.9-4C1161.7,996.7,1160,994.1,1157.3,993.5z"/>
	<path class="st0" d="M1222,578.4c-3.7-0.8-7.6-1.6-11.4-2.3l-18.2-3.3c-2.7-0.5-5.3,1.3-5.8,4c-0.5,2.7,1.3,5.3,4,5.8l18.2,3.3
		c3.7,0.7,7.5,1.5,11.1,2.3c0.4,0.1,0.7,0.1,1.1,0.1c2.3,0,4.4-1.6,4.9-3.9C1226.4,581.7,1224.7,579,1222,578.4z"/>
	<path class="st0" d="M1400.9,865.5c-2.6-0.9-5.5,0.5-6.4,3.1c-3.2,9.1-7.2,18.1-11.9,26.6c-1.3,2.4-0.5,5.5,2,6.8
		c0.8,0.4,1.6,0.6,2.4,0.6c1.8,0,3.5-0.9,4.4-2.6c5-9,9.2-18.4,12.6-28.1C1404.9,869.3,1403.5,866.4,1400.9,865.5z"/>
	<path class="st0" d="M1411.4,806.5c-2.8-0.2-5.2,1.8-5.4,4.6c-0.8,9.6-2.2,19.5-4,29.2c-0.5,2.7,1.3,5.3,4,5.9
		c0.3,0.1,0.6,0.1,0.9,0.1c2.3,0,4.4-1.7,4.9-4.1c1.9-10.1,3.3-20.2,4.2-30.2C1416.2,809.2,1414.2,806.8,1411.4,806.5z"/>
	<path class="st0" d="M1357.9,643.7c-2-1.9-5.2-1.8-7.1,0.2s-1.8,5.2,0.2,7.1c7.1,6.8,13.7,14,19.5,21.7c1,1.3,2.5,2,4,2
		c1.1,0,2.1-0.3,3-1c2.2-1.7,2.6-4.8,1-7C1372.3,658.5,1365.4,650.8,1357.9,643.7z"/>
	<path class="st0" d="M1373.6,918.6c-2.2-1.7-5.3-1.3-7,0.9c-5.9,7.5-12.5,14.8-19.7,21.6c-2,1.9-2.1,5.1-0.2,7.1
		c1,1,2.3,1.6,3.6,1.6c1.2,0,2.5-0.5,3.4-1.4c7.5-7.1,14.5-14.8,20.7-22.7C1376.1,923.4,1375.8,920.3,1373.6,918.6z"/>
	<path class="st0" d="M1324.2,959.7c-7.9,5.7-16.3,10.9-24.9,15.5c-2.4,1.3-3.3,4.3-2,6.8c0.9,1.7,2.6,2.6,4.4,2.6
		c0.8,0,1.6-0.2,2.4-0.6c9-4.8,17.8-10.3,26-16.2c2.2-1.6,2.8-4.7,1.2-7S1326.5,958.1,1324.2,959.7z"/>
	<path class="st0" d="M1334.1,624.3c-8.1-5.7-16.9-11-26.2-15.9c-2.4-1.3-5.5-0.3-6.8,2.1c-1.3,2.4-0.3,5.5,2.1,6.8
		c8.9,4.7,17.3,9.8,25.1,15.2c0.9,0.6,1.9,0.9,2.9,0.9c1.6,0,3.1-0.7,4.1-2.1C1336.9,629,1336.3,625.9,1334.1,624.3z"/>
	<path class="st0" d="M1280.2,595.8c-9.1-3.6-18.8-6.9-28.8-9.9c-2.6-0.8-5.4,0.7-6.2,3.4c-0.8,2.6,0.7,5.4,3.4,6.2
		c9.7,2.9,19.1,6.1,27.9,9.6c0.6,0.2,1.2,0.4,1.8,0.4c2,0,3.9-1.2,4.7-3.2C1284,599.7,1282.7,596.8,1280.2,595.8z"/>
	<path class="st0" d="M1102.8,528.5l-5.8,31.9c0,0,0,0.1,0,0.1c0,0,0,0.1,0,0.1l-5.8,31.9l9.8,1.8l5.3-29c0.8-0.7,1.3-1.7,1.5-2.8
		c0.2-1.1,0-2.2-0.5-3.1l5.3-29L1102.8,528.5z"/>
</g>
<g id="Pitroad">
	<path class="st1" d="M672,863l-28.9-7.9c-1.3-0.4-2.7,0.4-3.1,1.8c-0.4,1.3,0.4,2.7,1.7,3.1l28.9,7.9c0.2,0.1,0.4,0.1,0.7,0.1
		c1.1,0,2.1-0.7,2.4-1.8C674.1,864.7,673.3,863.4,672,863z"/>
	<path class="st1" d="M787.7,894.8l-28.9-7.9c-1.3-0.4-2.7,0.4-3.1,1.8c-0.4,1.3,0.4,2.7,1.7,3.1l28.9,7.9c0.2,0.1,0.4,0.1,0.7,0.1
		c1.1,0,2.1-0.7,2.4-1.8C789.8,896.5,789,895.1,787.7,894.8z"/>
	<path class="st1" d="M729.8,878.9l-28.9-7.9c-1.3-0.4-2.7,0.4-3.1,1.8c-0.4,1.3,0.4,2.7,1.7,3.1l28.9,7.9c0.2,0.1,0.4,0.1,0.7,0.1
		c1.1,0,2.1-0.7,2.4-1.8C731.9,880.6,731.2,879.3,729.8,878.9z"/>
	<path class="st1" d="M614.1,847.1l-28.9-7.9c-1.3-0.4-2.7,0.4-3.1,1.8c-0.4,1.3,0.4,2.7,1.7,3.1l28.9,7.9c0.2,0.1,0.4,0.1,0.7,0.1
		c1.1,0,2.1-0.7,2.4-1.8C616.2,848.9,615.4,847.5,614.1,847.1z"/>
	<path class="st1" d="M501.7,808.7c-14.7-8.9-24.4-16.7-24.5-16.8c-1.1-0.9-2.6-0.7-3.5,0.4c-0.9,1.1-0.7,2.6,0.4,3.5
		c0.4,0.3,10,8,25,17.1c0.4,0.2,0.9,0.4,1.3,0.4c0.8,0,1.7-0.4,2.1-1.2C503.3,811,502.9,809.4,501.7,808.7z"/>
	<path class="st1" d="M556.2,831.2l-23.3-6.4c-1.6-0.7-3.3-1.4-5-2.2c-1.3-0.6-2.7,0-3.3,1.2c-0.6,1.3,0,2.7,1.2,3.3
		c1.8,0.8,3.5,1.6,5.3,2.3l23.8,6.5c0.2,0.1,0.4,0.1,0.7,0.1c1.1,0,2.1-0.7,2.4-1.8C558.4,833,557.6,831.6,556.2,831.2z"/>
	<path class="st1" d="M1077,974.2l-28.9-7.9c-1.3-0.4-2.7,0.4-3.1,1.8s0.4,2.7,1.8,3.1l28.9,7.9c0.2,0.1,0.4,0.1,0.7,0.1
		c1.1,0,2.1-0.7,2.4-1.8C1079.1,975.9,1078.3,974.5,1077,974.2z"/>
	<path class="st1" d="M1019.1,958.3l-28.9-7.9c-1.3-0.4-2.7,0.4-3.1,1.8c-0.4,1.3,0.4,2.7,1.7,3.1l28.9,7.9c0.2,0.1,0.4,0.1,0.7,0.1
		c1.1,0,2.1-0.7,2.4-1.8C1021.2,960,1020.5,958.6,1019.1,958.3z"/>
	<path class="st1" d="M845.5,910.6l-28.9-7.9c-1.3-0.4-2.7,0.4-3.1,1.8c-0.4,1.3,0.4,2.7,1.7,3.1l28.9,7.9c0.2,0.1,0.4,0.1,0.7,0.1
		c1.1,0,2.1-0.7,2.4-1.8C847.7,912.4,846.9,911,845.5,910.6z"/>
	<path class="st1" d="M903.4,926.5l-28.9-7.9c-1.3-0.4-2.7,0.4-3.1,1.8c-0.4,1.3,0.4,2.7,1.7,3.1l28.9,7.9c0.2,0.1,0.4,0.1,0.7,0.1
		c1.1,0,2.1-0.7,2.4-1.8C905.5,928.3,904.7,926.9,903.4,926.5z"/>
	<path class="st1" d="M961.3,942.4l-28.9-7.9c-1.3-0.4-2.7,0.4-3.1,1.8c-0.4,1.3,0.4,2.7,1.7,3.1l28.9,7.9c0.2,0.1,0.4,0.1,0.7,0.1
		c1.1,0,2.1-0.7,2.4-1.8C963.4,944.1,962.6,942.8,961.3,942.4z"/>
	<polygon class="st1" points="1128.1,990.8 1090.7,961.3 1093.4,981.2 1080.9,997 	"/>
</g>
</svg>
