<?xml version="1.0" encoding="utf-8"?>
<!-- Generator: Adobe Illustrator 24.0.1, SVG Export Plug-In . SVG Version: 6.00 Build 0)  -->
<svg version="1.1" id="Homestead_Oval__Pit_Road" xmlns="http://www.w3.org/2000/svg" xmlns:xlink="http://www.w3.org/1999/xlink"
	 x="0px" y="0px" viewBox="0 0 1920 1080" style="enable-background:new 0 0 1920 1080;" xml:space="preserve">
<style type="text/css">
	.st0{fill:#016699;}
	.st1{fill:#D82520;}
</style>
<title>pitroad</title>
<g id="Mergeline">
	<path class="st0" d="M1529.3,877.4c-13.3,3.1-22.1,4.5-23.6,4.7l-5.1,0.3c-2.8,0.1-4.9,2.5-4.7,5.2c0.1,2.7,2.3,4.8,5,4.8
		c0.1,0,0.2,0,0.3,0l5.4-0.3l0.5,0c0.4-0.1,9.7-1.4,24.6-4.9c2.7-0.6,4.4-3.3,3.7-6C1534.6,878.5,1532,876.8,1529.3,877.4z"/>
	<path class="st0" d="M1605.8,223.4c-8.8-4.1-18.2-8-27.9-11.8c-2.6-1-5.5,0.3-6.5,2.8c-1,2.6,0.3,5.5,2.8,6.5
		c9.5,3.7,18.7,7.6,27.4,11.6c0.7,0.3,1.4,0.5,2.1,0.5c1.9,0,3.7-1.1,4.5-2.9C1609.5,227.5,1608.4,224.5,1605.8,223.4z"/>
	<path class="st0" d="M1549.5,201.3c-9.4-3.1-19.1-6.1-28.9-8.8c-2.7-0.7-5.4,0.8-6.2,3.5c-0.7,2.7,0.8,5.4,3.5,6.2
		c9.6,2.7,19.2,5.6,28.5,8.7c0.5,0.2,1.1,0.3,1.6,0.3c2.1,0,4-1.3,4.7-3.4C1553.5,205,1552.1,202.2,1549.5,201.3z"/>
	<path class="st0" d="M1470.6,883.8l-30,1.5c-2.8,0.1-4.9,2.5-4.7,5.2c0.1,2.7,2.3,4.8,5,4.8c0.1,0,0.2,0,0.3,0l30-1.5
		c2.8-0.1,4.9-2.5,4.7-5.2C1475.7,885.8,1473.4,883.7,1470.6,883.8z"/>
	<path class="st0" d="M1491.3,185c-9.7-2.3-19.6-4.4-29.5-6.3c-2.7-0.5-5.3,1.3-5.9,4c-0.5,2.7,1.3,5.3,4,5.9
		c9.8,1.9,19.6,4,29.1,6.2c0.4,0.1,0.8,0.1,1.1,0.1c2.3,0,4.3-1.6,4.9-3.9C1495.7,188.3,1494,185.6,1491.3,185z"/>
	<path class="st0" d="M1794.7,478.7c1.9,9.6,3.4,19.5,4.6,29.3c0.3,2.5,2.5,4.4,5,4.4c0.2,0,0.4,0,0.6,0c2.7-0.3,4.7-2.8,4.4-5.5
		c-1.2-10.1-2.8-20.2-4.7-30c-0.5-2.7-3.2-4.5-5.9-3.9C1795.9,473.4,1794.2,476,1794.7,478.7z"/>
	<path class="st0" d="M1787.9,449.9c0.6,2.2,2.6,3.6,4.8,3.6c0.4,0,0.9-0.1,1.4-0.2c2.7-0.7,4.2-3.5,3.5-6.2
		c-2.7-9.8-5.9-19.5-9.4-28.9c-1-2.6-3.8-3.9-6.4-2.9c-2.6,1-3.9,3.8-2.9,6.4C1782.1,430.9,1785.2,440.4,1787.9,449.9z"/>
	<path class="st0" d="M1432.1,173.4l-29.6-5c-2.7-0.5-5.3,1.4-5.8,4.1c-0.5,2.7,1.4,5.3,4.1,5.8l29.6,5c0.3,0,0.6,0.1,0.8,0.1
		c2.4,0,4.5-1.7,4.9-4.2C1436.7,176.5,1434.8,173.9,1432.1,173.4z"/>
	<path class="st0" d="M1372.9,163.4l-29.6-5c-2.7-0.5-5.3,1.4-5.8,4.1c-0.5,2.7,1.4,5.3,4.1,5.8l29.6,5c0.3,0,0.6,0.1,0.8,0.1
		c2.4,0,4.5-1.7,4.9-4.2C1377.5,166.5,1375.7,163.9,1372.9,163.4z"/>
	<path class="st0" d="M1313.8,153.4l-29.6-5c-2.7-0.5-5.3,1.4-5.8,4.1c-0.5,2.7,1.4,5.3,4.1,5.8l29.6,5c0.3,0,0.6,0.1,0.8,0.1
		c2.4,0,4.5-1.7,4.9-4.2C1318.3,156.5,1316.5,153.9,1313.8,153.4z"/>
	<path class="st0" d="M1586,860.1c-9.1,3.4-18.5,6.7-28.1,9.6c-2.6,0.8-4.1,3.6-3.3,6.2c0.7,2.2,2.6,3.5,4.8,3.5
		c0.5,0,1-0.1,1.5-0.2c9.8-3,19.4-6.3,28.7-9.8c2.6-1,3.9-3.9,2.9-6.4C1591.5,860.5,1588.6,859.2,1586,860.1z"/>
	<path class="st0" d="M1776.3,390.2c-4.3-9.2-9.1-18.2-14.2-26.9c-1.4-2.4-4.5-3.2-6.8-1.8c-2.4,1.4-3.2,4.5-1.8,6.8
		c4.9,8.4,9.6,17.2,13.8,26.1c0.9,1.8,2.7,2.9,4.5,2.9c0.7,0,1.4-0.2,2.1-0.5C1776.4,395.7,1777.4,392.7,1776.3,390.2z"/>
	<path class="st0" d="M1766.6,705.7c-2.4-1.3-5.5-0.4-6.8,2c-4.7,8.6-9.8,17.2-15.2,25.4c-1.5,2.3-0.9,5.4,1.5,6.9
		c0.8,0.5,1.8,0.8,2.7,0.8c1.6,0,3.2-0.8,4.2-2.3c5.5-8.5,10.8-17.3,15.6-26.1C1770,710,1769.1,707,1766.6,705.7z"/>
	<path class="st0" d="M1790,650.5c-2.6-0.9-5.5,0.5-6.4,3.1c-3.2,9.3-6.8,18.5-10.8,27.5c-1.1,2.5,0,5.5,2.6,6.6
		c0.7,0.3,1.3,0.4,2,0.4c1.9,0,3.8-1.1,4.6-3c4.1-9.3,7.8-18.8,11.1-28.3C1794,654.2,1792.6,651.4,1790,650.5z"/>
	<path class="st0" d="M1811.6,537.1c-0.1-2.8-2.4-4.9-5.2-4.8c-2.8,0.1-4.9,2.4-4.8,5.2c0.2,4.7,0.3,9.3,0.3,13.9
		c0,5.4-0.1,10.7-0.4,15.7c-0.1,2.8,2,5.1,4.7,5.2c0.1,0,0.2,0,0.3,0c2.6,0,4.9-2.1,5-4.8c0.3-5.2,0.4-10.6,0.4-16.2
		C1811.9,546.7,1811.8,541.9,1811.6,537.1z"/>
	<path class="st0" d="M1803.9,592.2c-2.7-0.5-5.3,1.4-5.8,4.1c-1.6,9.7-3.7,19.4-6.1,28.9c-0.7,2.7,0.9,5.4,3.6,6.1
		c0.4,0.1,0.8,0.2,1.2,0.2c2.2,0,4.3-1.5,4.8-3.8c2.5-9.8,4.6-19.8,6.2-29.8C1808.5,595.2,1806.6,592.6,1803.9,592.2z"/>
	<path class="st0" d="M1687.5,800.7c-6.9,6.2-11.2,9.4-11.3,9.5l-0.2,0.1c-3.7,3-7.6,5.9-11.6,8.8c-2.2,1.6-2.8,4.7-1.2,7
		c1,1.4,2.5,2.1,4.1,2.1c1,0,2-0.3,2.9-0.9c4.1-2.9,8.1-6,12-9.1c0.7-0.5,5.1-3.9,11.9-10c2.1-1.8,2.2-5,0.4-7.1
		C1692.7,799,1689.6,798.8,1687.5,800.7z"/>
	<path class="st0" d="M1658.8,253.3c-4.9-3.4-10-6.7-15.1-9.9c-0.6-0.4-4.1-2.7-10.7-6.4c-2.4-1.4-5.5-0.5-6.8,1.9
		c-1.4,2.4-0.5,5.5,1.9,6.8c6.6,3.7,10,6,10.1,6l0.1,0.1c5,3.1,10,6.4,14.8,9.7c0.9,0.6,1.9,0.9,2.8,0.9c1.6,0,3.2-0.8,4.1-2.2
		C1661.6,258,1661,254.9,1658.8,253.3z"/>
	<path class="st0" d="M1745.5,337.8c-5.9-8.2-12.2-16.3-18.8-23.9c-1.8-2.1-5-2.3-7.1-0.5c-2.1,1.8-2.3,5-0.5,7.1
		c6.4,7.4,12.5,15.2,18.3,23.2c1,1.4,2.5,2.1,4.1,2.1c1,0,2-0.3,2.9-0.9C1746.5,343.2,1747.1,340.1,1745.5,337.8z"/>
	<path class="st0" d="M1639.6,835c-8.3,4.8-17.1,9.3-26.3,13.6c-2.5,1.2-3.6,4.1-2.4,6.6c0.8,1.8,2.7,2.9,4.5,2.9
		c0.7,0,1.4-0.2,2.1-0.5c9.4-4.4,18.5-9.1,27-14c2.4-1.4,3.2-4.4,1.8-6.8C1645.1,834.5,1642,833.6,1639.6,835z"/>
	<path class="st0" d="M1734.5,756.3c-2.2-1.7-5.3-1.3-7,0.9c-6.1,7.8-12.5,15.5-19.1,22.6c-1.9,2-1.7,5.2,0.3,7.1
		c1,0.9,2.2,1.3,3.4,1.3c1.4,0,2.7-0.5,3.7-1.6c6.8-7.4,13.4-15.2,19.6-23.3C1737.1,761.2,1736.7,758,1734.5,756.3z"/>
	<path class="st0" d="M1705.8,291.8c-7.2-7-14.8-13.8-22.7-20.2c-2.1-1.7-5.3-1.4-7,0.7c-1.7,2.1-1.4,5.3,0.7,7
		c7.7,6.3,15.1,12.9,22.1,19.6c1,0.9,2.2,1.4,3.5,1.4c1.3,0,2.6-0.5,3.6-1.5C1707.8,296.9,1707.8,293.7,1705.8,291.8z"/>
	
		<rect x="1224.4" y="143.9" transform="matrix(0.1666 -0.986 0.986 0.1666 900.6763 1363.3972)" class="st0" width="65" height="10"/>
</g>
<g id="Pitroad">
	<path class="st1" d="M537.1,885.4l-9.8,0c-6.7-0.2-13.5-0.6-20.1-0.9c-1.4-0.1-2.6,1-2.6,2.4c-0.1,1.4,1,2.6,2.4,2.6
		c6.6,0.4,13.4,0.7,20.2,0.9l9.9,0c0,0,0,0,0,0c1.4,0,2.5-1.1,2.5-2.5C539.6,886.5,538.5,885.4,537.1,885.4z"/>
	<path class="st1" d="M597.1,885.6l-30-0.1c0,0,0,0,0,0c-1.4,0-2.5,1.1-2.5,2.5c0,1.4,1.1,2.5,2.5,2.5l30,0.1c0,0,0,0,0,0
		c1.4,0,2.5-1.1,2.5-2.5C599.6,886.7,598.5,885.6,597.1,885.6z"/>
	<path class="st1" d="M477.4,882.4c-10-0.8-20-1.8-29.8-2.9c-1.4-0.2-2.6,0.8-2.8,2.2c-0.2,1.4,0.8,2.6,2.2,2.8
		c9.8,1.1,19.8,2.1,29.9,2.9c0.1,0,0.1,0,0.2,0c1.3,0,2.4-1,2.5-2.3C479.8,883.7,478.8,882.5,477.4,882.4z"/>
	<path class="st1" d="M717.1,885.8l-30-0.1c0,0,0,0,0,0c-1.4,0-2.5,1.1-2.5,2.5c0,1.4,1.1,2.5,2.5,2.5l30,0.1c0,0,0,0,0,0
		c1.4,0,2.5-1.1,2.5-2.5C719.6,887,718.5,885.8,717.1,885.8z"/>
	<path class="st1" d="M777.1,886l-30-0.1c0,0,0,0,0,0c-1.4,0-2.5,1.1-2.5,2.5c0,1.4,1.1,2.5,2.5,2.5l30,0.1c0,0,0,0,0,0
		c1.4,0,2.5-1.1,2.5-2.5C779.6,887.1,778.5,886,777.1,886z"/>
	<path class="st1" d="M657.1,885.7l-30-0.1c0,0,0,0,0,0c-1.4,0-2.5,1.1-2.5,2.5c0,1.4,1.1,2.5,2.5,2.5l30,0.1c0,0,0,0,0,0
		c1.4,0,2.5-1.1,2.5-2.5C659.6,886.8,658.5,885.7,657.1,885.7z"/>
	<path class="st1" d="M124.8,744c-0.8-1.1-2.3-1.4-3.5-0.6c-1.1,0.8-1.4,2.4-0.6,3.5c0.3,0.4,6.4,9.1,20.9,22.3
		c0.5,0.4,1.1,0.7,1.7,0.7c0.7,0,1.4-0.3,1.8-0.8c0.9-1,0.9-2.6-0.2-3.5C131,752.7,124.9,744.1,124.8,744z"/>
	<path class="st1" d="M192.8,800.8c-8.7-5.3-17-10.9-24.7-16.6c-1.1-0.8-2.7-0.6-3.5,0.5c-0.8,1.1-0.6,2.7,0.5,3.5
		c7.8,5.8,16.3,11.4,25.1,16.8c0.4,0.3,0.9,0.4,1.3,0.4c0.8,0,1.7-0.4,2.1-1.2C194.3,803.1,194,801.5,192.8,800.8z"/>
	<path class="st1" d="M359.2,864.8c-9.8-2.2-19.6-4.6-29-7.1c-1.3-0.4-2.7,0.4-3.1,1.8c-0.4,1.3,0.4,2.7,1.8,3.1
		c9.5,2.5,19.3,5,29.2,7.2c0.2,0,0.4,0.1,0.5,0.1c1.1,0,2.2-0.8,2.4-2C361.4,866.4,360.6,865.1,359.2,864.8z"/>
	<path class="st1" d="M418,875.6c-10-1.5-19.9-3.1-29.5-4.9c-1.4-0.3-2.7,0.6-2.9,2c-0.2,1.4,0.6,2.7,2,2.9
		c9.7,1.8,19.7,3.4,29.7,4.9c0.1,0,0.2,0,0.4,0c1.2,0,2.3-0.9,2.5-2.1C420.3,877.1,419.4,875.8,418,875.6z"/>
	<path class="st1" d="M245.7,828.3c-9.2-4.1-18.3-8.4-26.9-12.9c-1.2-0.6-2.7-0.2-3.4,1.1c-0.6,1.2-0.2,2.7,1.1,3.4
		c8.7,4.5,17.9,8.9,27.2,13c0.3,0.1,0.7,0.2,1,0.2c1,0,1.9-0.6,2.3-1.5C247.5,830.3,246.9,828.8,245.7,828.3z"/>
	<path class="st1" d="M301.5,849.3c-9.6-3.1-19.1-6.3-28.2-9.8c-1.3-0.5-2.7,0.2-3.2,1.5c-0.5,1.3,0.2,2.7,1.5,3.2
		c9.2,3.4,18.8,6.8,28.5,9.8c0.3,0.1,0.5,0.1,0.8,0.1c1.1,0,2-0.7,2.4-1.7C303.6,851.1,302.9,849.7,301.5,849.3z"/>
	<path class="st1" d="M1137.1,886.8l-30-0.1c0,0,0,0,0,0c-1.4,0-2.5,1.1-2.5,2.5c0,1.4,1.1,2.5,2.5,2.5l30,0.1c0,0,0,0,0,0
		c1.4,0,2.5-1.1,2.5-2.5C1139.6,887.9,1138.5,886.8,1137.1,886.8z"/>
	<path class="st1" d="M1257.1,887.1l-30-0.1c0,0,0,0,0,0c-1.4,0-2.5,1.1-2.5,2.5c0,1.4,1.1,2.5,2.5,2.5l30,0.1c0,0,0,0,0,0
		c1.4,0,2.5-1.1,2.5-2.5C1259.6,888.2,1258.5,887.1,1257.1,887.1z"/>
	<path class="st1" d="M1197.1,887l-30-0.1c0,0,0,0,0,0c-1.4,0-2.5,1.1-2.5,2.5c0,1.4,1.1,2.5,2.5,2.5l30,0.1c0,0,0,0,0,0
		c1.4,0,2.5-1.1,2.5-2.5C1199.6,888.1,1198.5,887,1197.1,887z"/>
	<path class="st1" d="M1317.1,887.2l-30-0.1c0,0,0,0,0,0c-1.4,0-2.5,1.1-2.5,2.5c0,1.4,1.1,2.5,2.5,2.5l30,0.1c0,0,0,0,0,0
		c1.4,0,2.5-1.1,2.5-2.5C1319.6,888.4,1318.5,887.2,1317.1,887.2z"/>
	<path class="st1" d="M1377.1,887.4l-30-0.1c0,0,0,0,0,0c-1.4,0-2.5,1.1-2.5,2.5c0,1.4,1.1,2.5,2.5,2.5l30,0.1c0,0,0,0,0,0
		c1.4,0,2.5-1.1,2.5-2.5C1379.6,888.5,1378.5,887.4,1377.1,887.4z"/>
	<path class="st1" d="M957.1,886.4l-30-0.1c0,0,0,0,0,0c-1.4,0-2.5,1.1-2.5,2.5c0,1.4,1.1,2.5,2.5,2.5l30,0.1c0,0,0,0,0,0
		c1.4,0,2.5-1.1,2.5-2.5C959.6,887.5,958.5,886.4,957.1,886.4z"/>
	<path class="st1" d="M897.1,886.3l-30-0.1c0,0,0,0,0,0c-1.4,0-2.5,1.1-2.5,2.5c0,1.4,1.1,2.5,2.5,2.5l30,0.1c0,0,0,0,0,0
		c1.4,0,2.5-1.1,2.5-2.5C899.6,887.4,898.5,886.3,897.1,886.3z"/>
	<path class="st1" d="M837.1,886.1l-30-0.1c0,0,0,0,0,0c-1.4,0-2.5,1.1-2.5,2.5c0,1.4,1.1,2.5,2.5,2.5l30,0.1c0,0,0,0,0,0
		c1.4,0,2.5-1.1,2.5-2.5C839.6,887.2,838.5,886.1,837.1,886.1z"/>
	<path class="st1" d="M1017.1,886.5l-30-0.1c0,0,0,0,0,0c-1.4,0-2.5,1.1-2.5,2.5c0,1.4,1.1,2.5,2.5,2.5l30,0.1c0,0,0,0,0,0
		c1.4,0,2.5-1.1,2.5-2.5C1019.6,887.7,1018.5,886.5,1017.1,886.5z"/>
	<path class="st1" d="M1077.1,886.7l-30-0.1c0,0,0,0,0,0c-1.4,0-2.5,1.1-2.5,2.5c0,1.4,1.1,2.5,2.5,2.5l30,0.1c0,0,0,0,0,0
		c1.4,0,2.5-1.1,2.5-2.5C1079.6,887.8,1078.5,886.7,1077.1,886.7z"/>
	<path class="st1" d="M1446.7,890l-43.9-18.6l6.8,16l-2.5,0c0,0,0,0,0,0c-1.4,0-2.5,1.1-2.5,2.5c0,1.4,1.1,2.5,2.5,2.5l2.5,0
		l-6.8,16L1446.7,890z"/>
</g>
</svg>
