<?xml version="1.0" encoding="utf-8"?>
<!-- Generator: Adobe Illustrator 24.0.1, SVG Export Plug-In . SVG Version: 6.00 Build 0)  -->
<svg version="1.1" id="Alternate__Pit_Road" xmlns="http://www.w3.org/2000/svg" xmlns:xlink="http://www.w3.org/1999/xlink"
	 x="0px" y="0px" viewBox="0 0 1920 1080" style="enable-background:new 0 0 1920 1080;" xml:space="preserve">
<style type="text/css">
	.st0{fill:#D82520;}
</style>
<title>pitroad</title>
<g id="Pitroad">
	<path class="st0" d="M384.1,923.4c0-1.4-1.2-2.5-2.6-2.4c-1.4,0-2.5,1.2-2.4,2.6c0.1,2.4,0,4.8,0,7.4l-15.1-8.3l14,45.5l22.8-41.8
		l-16.8,5.2C384.2,928.7,384.2,926,384.1,923.4z"/>
	<path class="st0" d="M478.8,623.6c-10.2-0.3-20.4-0.5-30.5-0.7c0,0,0,0-0.1,0c-1.4,0-2.5,1.1-2.5,2.4c0,1.4,1.1,2.5,2.4,2.6
		c10.2,0.2,20.3,0.5,30.5,0.7c0,0,0,0,0.1,0c1.4,0,2.5-1.1,2.5-2.4C481.3,624.8,480.2,623.6,478.8,623.6z"/>
	<path class="st0" d="M417.7,622.2c-10.3-0.2-20.5-0.4-30.5-0.5c0,0,0,0,0,0c-1.4,0-2.5,1.1-2.5,2.5c0,1.4,1.1,2.5,2.5,2.5
		c10.1,0.2,20.2,0.3,30.5,0.5c0,0,0,0,0,0c1.4,0,2.5-1.1,2.5-2.5C420.2,623.4,419.1,622.3,417.7,622.2z"/>
	<path class="st0" d="M539.9,625.3c-10.1-0.3-20.3-0.6-30.5-0.9c-1.4-0.1-2.5,1-2.6,2.4c0,1.4,1.1,2.5,2.4,2.6
		c10.3,0.3,20.4,0.6,30.5,0.9c0,0,0.1,0,0.1,0c1.3,0,2.5-1.1,2.5-2.4C542.3,626.5,541.2,625.3,539.9,625.3z"/>
	<path class="st0" d="M291.4,699.7c-0.2-1.4-1.4-2.3-2.8-2.2c-1.4,0.2-2.3,1.4-2.2,2.8c1.9,15.2,5.8,26.2,7.3,30.2
		c0.4,1,1.3,1.6,2.3,1.6c0.3,0,0.6-0.1,0.9-0.2c1.3-0.5,1.9-2,1.4-3.2C295.3,720.6,292.6,709.8,291.4,699.7z"/>
	<path class="st0" d="M322.7,779.5c-5.1-9.9-8.9-17-12-23.2c-0.6-1.2-2.1-1.7-3.4-1.1c-1.2,0.6-1.7,2.1-1.1,3.3
		c3.1,6.3,6.9,13.4,12,23.3l2,3.8c0.4,0.9,1.3,1.3,2.2,1.3c0.4,0,0.8-0.1,1.2-0.3c1.2-0.6,1.7-2.1,1.1-3.4L322.7,779.5z"/>
	<path class="st0" d="M298.9,640.2c-6.3,7.6-10.4,17.3-12.3,28.9c-0.2,1.4,0.7,2.6,2.1,2.9c0.1,0,0.3,0,0.4,0c1.2,0,2.3-0.9,2.5-2.1
		c1.8-10.7,5.5-19.7,11.2-26.5c0.9-1.1,0.7-2.6-0.3-3.5C301.3,639,299.8,639.2,298.9,640.2z"/>
	<path class="st0" d="M338.7,810.2c-0.6-1.2-2.1-1.7-3.4-1.1c-1.2,0.6-1.7,2.1-1.1,3.4c4.5,8.8,9.1,17.6,13.9,27.1
		c0.4,0.9,1.3,1.4,2.2,1.4c0.4,0,0.8-0.1,1.1-0.3c1.2-0.6,1.7-2.1,1.1-3.4C347.7,827.9,343.2,819,338.7,810.2z"/>
	<path class="st0" d="M376.2,896.2c0.3,0,0.6,0,0.8-0.1c1.3-0.5,2-1.9,1.5-3.2c-3.4-9.6-7.4-19.2-11.8-28.4
		c-0.6-1.2-2.1-1.8-3.3-1.2c-1.2,0.6-1.8,2.1-1.2,3.3c4.3,9.1,8.3,18.4,11.6,27.9C374.2,895.5,375.2,896.2,376.2,896.2z"/>
	<path class="st0" d="M356.7,621.3c-2.7,0-5.4-0.1-8.1-0.1c-0.4,0-0.8,0-1.2,0c-7.9,0-15.2,0.9-21.7,2.6c-1.3,0.4-2.1,1.7-1.8,3.1
		c0.3,1.1,1.3,1.9,2.4,1.9c0.2,0,0.4,0,0.6-0.1c6.1-1.6,12.9-2.4,20.4-2.4c0,0,0,0,0,0c0.4,0,0.7,0,1.1,0c2.7,0,5.4,0.1,8.1,0.1
		c1.4,0,2.5-1.1,2.5-2.5C359.1,622.4,358,621.3,356.7,621.3z"/>
	<path class="st0" d="M600.9,627.2c-9.9-0.3-20.1-0.7-30.5-1c-1.4,0-2.5,1-2.6,2.4c0,1.4,1,2.5,2.4,2.6c10.4,0.3,20.6,0.7,30.5,1
		c0,0,0.1,0,0.1,0c1.3,0,2.5-1.1,2.5-2.4C603.4,628.4,602.3,627.3,600.9,627.2z"/>
	<path class="st0" d="M1060.6,584.5l-30.2-0.7l-0.1,0l-0.4,0c-1.4,0.1-2.4,1.3-2.4,2.6c0.1,1.4,1.3,2.4,2.6,2.4l0.2,0l30.1,0.7
		c0,0,0,0,0.1,0c1.4,0,2.5-1.1,2.5-2.4C1063,585.7,1061.9,584.6,1060.6,584.5z"/>
	<path class="st0" d="M966.7,640c-3.3,0.3-6.8,0.4-10.4,0.4c-9.8,0-17.5-1-17.6-1l-2.2-0.1c-1.4-0.1-2.5,1-2.6,2.4s1,2.5,2.4,2.6
		l1.8,0.1c1.1,0.1,8.6,1,18.1,1c3.8,0,7.4-0.1,10.8-0.4c1.4-0.1,2.4-1.3,2.3-2.7S968,639.9,966.7,640z"/>
	<path class="st0" d="M1010.7,603.8c-1.2-0.6-2.7-0.1-3.3,1.1l-10.8,22c-0.7,1.5-1.8,2.8-3,4.1c-1,1-1,2.5-0.1,3.5
		c0.5,0.5,1.1,0.8,1.8,0.8c0.6,0,1.3-0.2,1.7-0.7c1.7-1.6,3-3.5,4-5.5l10.8-22C1012.4,606,1011.9,604.5,1010.7,603.8z"/>
	<path class="st0" d="M1121.5,586l-30.5-0.7c-1.4-0.1-2.5,1.1-2.6,2.4c0,1.4,1.1,2.5,2.4,2.6l30.5,0.7c0,0,0,0,0.1,0
		c1.4,0,2.5-1.1,2.5-2.4C1124,587.2,1122.9,586,1121.5,586z"/>
	<path class="st0" d="M723,631.6c-8.9-0.4-19.2-0.7-30.5-1.2c-1.4-0.1-2.5,1-2.6,2.4c-0.1,1.4,1,2.5,2.4,2.6
		c11.4,0.4,21.6,0.8,30.5,1.2c0,0,0.1,0,0.1,0c1.3,0,2.4-1.1,2.5-2.4C725.5,632.8,724.4,631.7,723,631.6z"/>
	<path class="st0" d="M906,638.3l-30.5-1.1c-1.4,0-2.5,1-2.6,2.4c0,1.4,1,2.5,2.4,2.6l30.5,1.1c0,0,0.1,0,0.1,0
		c1.3,0,2.4-1.1,2.5-2.4C908.5,639.5,907.4,638.3,906,638.3z"/>
	<path class="st0" d="M662,629.3c-9.7-0.4-19.9-0.7-30.5-1.1c-1.4-0.1-2.5,1-2.6,2.4c0,1.4,1,2.5,2.4,2.6
		c10.6,0.4,20.8,0.7,30.5,1.1c0,0,0.1,0,0.1,0c1.3,0,2.4-1.1,2.5-2.4C664.4,630.5,663.3,629.4,662,629.3z"/>
	<path class="st0" d="M784.1,634l-23-0.8l-7.5-0.3c-1.4-0.1-2.5,1-2.6,2.4c-0.1,1.4,1,2.5,2.4,2.6l6.5,0.3c0.4,0,0.7,0,1,0l0,0
		l23,0.8c0,0,0.1,0,0.1,0c1.3,0,2.4-1.1,2.5-2.4C786.6,635.2,785.5,634,784.1,634z"/>
	<path class="st0" d="M845.1,636.1l-30.5-1.1c-1.4,0-2.5,1-2.6,2.4c0,1.4,1,2.5,2.4,2.6l30.5,1.1c0,0,0.1,0,0.1,0
		c1.3,0,2.4-1.1,2.5-2.4C847.5,637.3,846.4,636.2,845.1,636.1z"/>
	<path class="st0" d="M1166.8,587.1l-15-0.4c-1.4-0.1-2.5,1.1-2.6,2.4c0,1.4,1.1,2.5,2.4,2.6l15,0.4c0,0,0,0,0.1,0
		c1.4,0,2.5-1.1,2.5-2.4C1169.3,588.2,1168.2,587.1,1166.8,587.1z"/>
</g>
</svg>
