<?xml version="1.0" encoding="utf-8"?>
<!-- Generator: Adobe Illustrator 24.0.1, SVG Export Plug-In . SVG Version: 6.00 Build 0)  -->
<svg version="1.1" id="Langley_Oval__Pit_Road" xmlns="http://www.w3.org/2000/svg" xmlns:xlink="http://www.w3.org/1999/xlink"
	 x="0px" y="0px" viewBox="0 0 1920 1080" style="enable-background:new 0 0 1920 1080;" xml:space="preserve">
<style type="text/css">
	.st0{fill:#016699;}
	.st1{fill:#D82520;}
</style>
<title>pitroad</title>
<g id="Mergeline">
	<path class="st0" d="M1234.5,153.5c-9.6-2-19.6-3.8-29.7-5.4c-2.7-0.4-5.3,1.4-5.7,4.2s1.4,5.3,4.2,5.7c9.9,1.5,19.8,3.3,29.3,5.3
		c0.3,0.1,0.7,0.1,1,0.1c2.3,0,4.4-1.6,4.9-4C1239,156.7,1237.3,154.1,1234.5,153.5z"/>
	<path class="st0" d="M1174.9,144.2c-6.7-0.8-16.7-2.2-29.5-4.3c-2.7-0.5-5.3,1.4-5.7,4.1c-0.4,2.7,1.4,5.3,4.1,5.7
		c13,2.1,23.1,3.6,30,4.4c0.2,0,0.4,0,0.6,0c2.5,0,4.7-1.9,5-4.4C1179.6,147,1177.7,144.5,1174.9,144.2z"/>
	<path class="st0" d="M1115.9,134.8c-9-1.6-19-3.4-29.5-5.3c-2.7-0.5-5.3,1.3-5.8,4s1.3,5.3,4,5.8c10.6,1.9,20.5,3.7,29.6,5.3
		c0.3,0.1,0.6,0.1,0.9,0.1c2.4,0,4.5-1.7,4.9-4.1C1120.4,137.9,1118.6,135.3,1115.9,134.8z"/>
	<path class="st0" d="M1346.9,201.4c1.8,0,3.6-1,4.5-2.8c1.2-2.5,0.2-5.5-2.2-6.7c-8.9-4.4-18.2-8.6-27.6-12.5
		c-2.6-1-5.5,0.2-6.5,2.7c-1,2.6,0.2,5.5,2.7,6.5c9.3,3.8,18.3,7.9,26.9,12.2C1345.3,201.2,1346.1,201.4,1346.9,201.4z"/>
	<path class="st0" d="M1293,169c-9.4-3.1-19.1-6-29-8.6c-2.7-0.7-5.4,0.9-6.1,3.6c-0.7,2.7,0.9,5.4,3.6,6.1
		c9.7,2.6,19.3,5.4,28.4,8.4c0.5,0.2,1,0.3,1.6,0.3c2.1,0,4.1-1.3,4.7-3.4C1297.1,172.7,1295.6,169.9,1293,169z"/>
	<path class="st0" d="M1056.8,124c-10-1.9-18.6-3.5-24.6-4.7l5.1-27.1l-9.8-1.9l-12.1,63.9l9.8,1.9l5.1-27
		c6.1,1.2,14.6,2.8,24.6,4.7c0.3,0.1,0.6,0.1,0.9,0.1c2.4,0,4.5-1.7,4.9-4.1C1061.3,127.1,1059.5,124.5,1056.8,124z"/>
	<path class="st0" d="M1502.1,402.3c1.9,9.6,3.4,19.4,4.5,29.2c0.3,2.6,2.4,4.5,5,4.5c0.2,0,0.4,0,0.5,0c2.7-0.3,4.7-2.8,4.4-5.5
		c-1.1-10.1-2.6-20.3-4.6-30.1c-0.5-2.7-3.2-4.5-5.9-3.9C1503.3,396.9,1501.6,399.6,1502.1,402.3z"/>
	<path class="st0" d="M1370.5,215.1c8.5,5.2,16.7,10.7,24.4,16.5c0.9,0.7,1.9,1,3,1c1.5,0,3-0.7,4-2c1.7-2.2,1.2-5.3-1-7
		c-8-6-16.5-11.7-25.2-17c-2.4-1.4-5.4-0.7-6.9,1.7C1367.4,210.6,1368.1,213.7,1370.5,215.1z"/>
	<path class="st0" d="M1494.9,373.7c0.7,2.2,2.6,3.5,4.8,3.5c0.5,0,1-0.1,1.5-0.2c2.6-0.8,4.1-3.6,3.3-6.2
		c-3-9.8-6.5-19.4-10.4-28.7c-1.1-2.5-4-3.7-6.5-2.7c-2.5,1.1-3.7,4-2.7,6.5C1488.7,354.9,1492,364.2,1494.9,373.7z"/>
	<path class="st0" d="M1509.4,515.7c-2.7-0.4-5.3,1.4-5.7,4.1c-1.6,9.8-3.7,19.5-6.3,28.7c-0.7,2.7,0.8,5.4,3.5,6.2
		c0.4,0.1,0.9,0.2,1.3,0.2c2.2,0,4.2-1.5,4.8-3.7c2.7-9.6,4.9-19.6,6.5-29.8C1514,518.8,1512.1,516.2,1509.4,515.7z"/>
	<path class="st0" d="M1494.4,573.7c-2.6-1.1-5.5,0.2-6.5,2.7c-3.8,9.1-8.1,18-12.9,26.3c-1.4,2.4-0.6,5.4,1.8,6.8
		c0.8,0.5,1.6,0.7,2.5,0.7c1.7,0,3.4-0.9,4.3-2.5c5-8.7,9.6-18,13.5-27.5C1498.1,577.7,1496.9,574.7,1494.4,573.7z"/>
	<path class="st0" d="M1518.4,460.9c0-2.7-2.3-4.9-5-4.9c0,0,0,0-0.1,0c-2.8,0-5,2.3-4.9,5.1c0,1.4,0,2.8,0,4.1
		c0,11.1-0.6,19.9-1.1,25.3c-0.3,2.7,1.8,5.2,4.5,5.5c0.2,0,0.3,0,0.5,0c2.5,0,4.7-1.9,5-4.5c0.5-5.6,1.2-14.7,1.2-26.3
		C1518.4,463.7,1518.4,462.3,1518.4,460.9z"/>
	<path class="st0" d="M1478.8,321.4c2.4-1.3,3.3-4.4,2-6.8c-4.9-8.9-10.4-17.6-16.2-25.9c-1.6-2.3-4.7-2.8-7-1.2
		c-2.3,1.6-2.8,4.7-1.2,7c5.6,8,10.9,16.4,15.6,24.9c0.9,1.7,2.6,2.6,4.4,2.6C1477.3,322,1478.1,321.8,1478.8,321.4z"/>
	<path class="st0" d="M1364.4,693.8c-9.4,3.2-19,5.5-28.3,7.1c-2.7,0.4-4.6,3-4.1,5.7c0.4,2.5,2.5,4.2,4.9,4.2c0.3,0,0.5,0,0.8-0.1
		c9.9-1.6,19.9-4.1,29.9-7.4c2.6-0.9,4-3.7,3.1-6.3S1367.1,693,1364.4,693.8z"/>
	<path class="st0" d="M1416.4,667.3c-7.9,5.7-16.3,10.8-25,15.2c-2.5,1.3-3.4,4.3-2.2,6.7c0.9,1.7,2.6,2.7,4.5,2.7
		c0.8,0,1.5-0.2,2.3-0.6c9.1-4.7,17.9-10,26.2-16c2.2-1.6,2.8-4.7,1.2-7C1421.7,666.2,1418.6,665.6,1416.4,667.3z"/>
	<path class="st0" d="M1442,273.1c1.2,0,2.4-0.4,3.3-1.3c2.1-1.8,2.3-5,0.4-7.1c-6.7-7.5-13.8-14.9-21.4-21.8
		c-2-1.9-5.2-1.7-7.1,0.3c-1.9,2-1.7,5.2,0.3,7.1c7.3,6.7,14.2,13.7,20.6,21C1439.2,272.5,1440.6,273.1,1442,273.1z"/>
	<path class="st0" d="M1465.5,626.1c-2.2-1.7-5.3-1.3-7,0.9c-6,7.7-12.6,15-19.6,21.7c-2,1.9-2.1,5.1-0.2,7.1c1,1,2.3,1.5,3.6,1.5
		c1.2,0,2.5-0.5,3.5-1.4c7.4-7,14.3-14.7,20.6-22.8C1468.1,630.9,1467.7,627.8,1465.5,626.1z"/>
</g>
<g id="Pitroad">
	<path class="st1" d="M579.7,636.6c-7.8-4.7-15.9-10.5-23.9-17.4c-1-0.9-2.6-0.8-3.5,0.3c-0.9,1-0.8,2.6,0.3,3.5
		c8.2,7.1,16.5,13.1,24.6,17.9c0.4,0.2,0.8,0.4,1.3,0.4c0.9,0,1.7-0.4,2.1-1.2C581.3,638.9,580.9,637.3,579.7,636.6z"/>
	<path class="st1" d="M815.1,668.9l-29.9-2.8c-1.4-0.1-2.6,0.9-2.7,2.3s0.9,2.6,2.3,2.7l29.9,2.8c0.1,0,0.2,0,0.2,0
		c1.3,0,2.4-1,2.5-2.3C817.5,670.2,816.5,669,815.1,668.9z"/>
	<path class="st1" d="M695.5,657.7c-10.3-0.9-20.3-1.8-29.9-2.7c-1.4-0.1-2.6,0.9-2.7,2.3c-0.1,1.4,0.9,2.6,2.3,2.7
		c9.7,0.8,19.6,1.7,29.9,2.7c0.1,0,0.2,0,0.2,0c1.3,0,2.4-1,2.5-2.3C697.9,659,696.9,657.8,695.5,657.7z"/>
	<path class="st1" d="M755.3,663.2c-10.2-1-20.1-1.9-29.9-2.8c-1.4-0.1-2.6,0.9-2.7,2.3c-0.1,1.4,0.9,2.6,2.3,2.7
		c9.8,0.9,19.7,1.8,29.9,2.8c0.1,0,0.2,0,0.2,0c1.3,0,2.4-1,2.5-2.3C757.7,664.6,756.7,663.3,755.3,663.2z"/>
	<path class="st1" d="M635.7,652.5c-4.4-0.4-8.7-0.7-12.9-1.1c-5.3-0.4-10.8-1.4-16.3-3c-1.3-0.4-2.7,0.4-3.1,1.7
		c-0.4,1.3,0.4,2.7,1.7,3.1c5.8,1.6,11.5,2.7,17.2,3.1c4.2,0.3,8.5,0.7,12.9,1.1c0.1,0,0.1,0,0.2,0c1.3,0,2.4-1,2.5-2.3
		C638.1,653.8,637,652.6,635.7,652.5z"/>
	<path class="st1" d="M460,469.7c-0.6-1.3-2-1.8-3.3-1.3c-1.3,0.6-1.8,2-1.3,3.3c2.8,6.2,7.3,16,12.6,27.3c0.4,0.9,1.3,1.4,2.3,1.4
		c0.4,0,0.7-0.1,1.1-0.2c1.2-0.6,1.8-2.1,1.2-3.3C467.2,485.7,462.8,475.9,460,469.7z"/>
	<path class="st1" d="M528.8,592.4l-0.3-0.4c-3.9-4.2-8.1-9.7-12.7-16.5c-0.8-1.1-2.3-1.4-3.5-0.7c-1.1,0.8-1.4,2.3-0.7,3.5
		c4.7,6.9,9.2,12.7,13.2,17l0.3,0.4c1.7,1.8,3.6,3.9,5.7,6.2c0.5,0.5,1.2,0.8,1.8,0.8c0.6,0,1.2-0.2,1.7-0.7c1-0.9,1.1-2.5,0.1-3.5
		C532.4,596.3,530.5,594.2,528.8,592.4z"/>
	<path class="st1" d="M485.9,523.8c-0.6-1.2-2.1-1.7-3.4-1.1c-1.2,0.6-1.7,2.1-1.1,3.4c4.9,9.6,9.7,18.5,14.3,26.5
		c0.5,0.8,1.3,1.3,2.2,1.3c0.4,0,0.8-0.1,1.2-0.3c1.2-0.7,1.6-2.2,0.9-3.4C495.6,542.2,490.8,533.4,485.9,523.8z"/>
	<path class="st1" d="M1174,699.7c-9.7-0.6-19.7-1.3-29.9-2.1c-1.4-0.1-2.6,0.9-2.7,2.3c-0.1,1.4,0.9,2.6,2.3,2.7
		c10.2,0.7,20.3,1.4,30,2.1c0.1,0,0.1,0,0.2,0c1.3,0,2.4-1,2.5-2.3C1176.4,701,1175.4,699.8,1174,699.7z"/>
	<path class="st1" d="M1054.3,690.6c-9.9-0.8-19.9-1.7-29.9-2.5c-1.4-0.1-2.6,0.9-2.7,2.3s0.9,2.6,2.3,2.7c10,0.9,20,1.7,29.9,2.5
		c0.1,0,0.1,0,0.2,0c1.3,0,2.4-1,2.5-2.3C1056.7,691.9,1055.7,690.7,1054.3,690.6z"/>
	<path class="st1" d="M874.9,674.5c-9.7-0.9-19.4-1.8-29-2.7l-0.8-0.1c-1.4-0.1-2.6,0.9-2.7,2.3c-0.1,1.4,0.9,2.6,2.3,2.7l0.8,0.1
		c9.6,0.9,19.3,1.8,29,2.7c0.1,0,0.2,0,0.2,0c1.3,0,2.4-1,2.5-2.3C877.3,675.9,876.3,674.6,874.9,674.5z"/>
	<path class="st1" d="M1233.9,703.3c-9.5-0.5-19.6-1.1-30-1.7c-1.4-0.1-2.6,1-2.6,2.3c-0.1,1.4,1,2.6,2.3,2.6
		c10.3,0.6,20.4,1.2,30,1.7c0,0,0.1,0,0.1,0c1.3,0,2.4-1,2.5-2.4C1236.4,704.5,1235.3,703.3,1233.9,703.3z"/>
	<path class="st1" d="M1114.1,695.4c-9.9-0.8-19.9-1.5-29.9-2.3c-1.4-0.1-2.6,0.9-2.7,2.3c-0.1,1.4,0.9,2.6,2.3,2.7
		c10.1,0.8,20.1,1.6,29.9,2.3c0.1,0,0.1,0,0.2,0c1.3,0,2.4-1,2.5-2.3C1116.6,696.7,1115.5,695.5,1114.1,695.4z"/>
	<path class="st1" d="M934.7,680.1c-10-0.9-20-1.8-29.9-2.8c-1.4-0.1-2.6,0.9-2.7,2.3c-0.1,1.4,0.9,2.6,2.3,2.7
		c9.9,0.9,19.9,1.8,29.9,2.8c0.1,0,0.2,0,0.2,0c1.3,0,2.4-1,2.5-2.3C937.1,681.4,936.1,680.2,934.7,680.1z"/>
	<path class="st1" d="M994.5,685.5c-10-0.9-19.9-1.8-29.9-2.7c-1.4-0.1-2.6,0.9-2.7,2.3s0.9,2.6,2.3,2.7c10,0.9,19.9,1.8,29.9,2.7
		c0.1,0,0.1,0,0.2,0c1.3,0,2.4-1,2.5-2.3C996.9,686.8,995.9,685.6,994.5,685.5z"/>
	<path class="st1" d="M1323.7,708.7l-43.5-19.4l6.5,16.1c-7.3-0.2-14.9-0.5-22.7-0.8c0,0-0.1,0-0.1,0c-1.3,0-2.4,1.1-2.5,2.4
		c-0.1,1.4,1,2.5,2.4,2.6c7.9,0.3,15.5,0.6,22.8,0.8l-7.1,15.9L1323.7,708.7z"/>
</g>
</svg>
