<svg id="Grand_Prix_Pit_Road" data-name="Grand Prix_Pit Road" xmlns="http://www.w3.org/2000/svg" viewBox="0 0 1920 1080"><defs><style>.cls-1{fill:#d82520;}</style></defs><title>pitroad</title><g id="Pitroad"><path class="cls-1" d="M786.16,864.53l-30.08-.1h0a2.5,2.5,0,0,0,0,5l30.07.1h0a2.5,2.5,0,0,0,0-5Z"/><path class="cls-1" d="M605.66,863.94c-5.1-.11-15.19-.59-30-1.43a2.5,2.5,0,0,0-.29,5c14.85.84,25,1.33,30.15,1.44h.06a2.5,2.5,0,0,0,0-5Z"/><path class="cls-1" d="M665.88,864.13l-30.1-.1h0a2.5,2.5,0,0,0,0,5l30.1.1h0a2.5,2.5,0,1,0,0-5Z"/><path class="cls-1" d="M726,864.33l-30.06-.1h0a2.5,2.5,0,1,0,0,5l30,.1h0a2.5,2.5,0,0,0,0-5Z"/><path class="cls-1" d="M846.35,864.74l-30.11-.11h0a2.5,2.5,0,0,0,0,5l30.11.11h0a2.5,2.5,0,0,0,0-5Z"/><path class="cls-1" d="M906.47,864.63h0l-30,.12a2.5,2.5,0,0,0,0,5h0l30-.12a2.5,2.5,0,0,0,0-5Z"/><path class="cls-1" d="M545.68,860.71c-10.45-.65-20.85-1.32-30-1.92a2.51,2.51,0,0,0-.33,5c9.16.59,19.56,1.26,30,1.91h.16a2.5,2.5,0,0,0,.15-5Z"/><path class="cls-1" d="M305.67,851.6c-9.58-.94-19.62-2-29.82-3.21a2.5,2.5,0,1,0-.57,5c10.23,1.18,20.29,2.27,29.9,3.22h.25a2.5,2.5,0,0,0,.24-5Z"/><path class="cls-1" d="M365.44,856.08c-9.24-.42-19.3-1-29.9-1.85a2.5,2.5,0,1,0-.38,5c10.65.81,20.76,1.44,30,1.86h.12a2.5,2.5,0,0,0,.11-5Z"/><path class="cls-1" d="M485.63,856.81l-.65,0v.07c-.7-.09-1.55-.11-2.53-.14l-6.49-.15c-5.43-.13-12.79-.3-20.53-.45h-.05a2.5,2.5,0,0,0-.05,5c15.07.3,28.49.64,29.36.66l.61,0h.17a2.5,2.5,0,0,0,.17-5Z"/><path class="cls-1" d="M425.34,855.63l-4,0h-.23c-7.35.7-16,1.08-25.77,1.13a2.5,2.5,0,0,0,0,5h0c9.84,0,18.62-.43,26.09-1.14l3.86,0h0a2.5,2.5,0,0,0,0-5Z"/><path class="cls-1" d="M246.07,844.7c-17.91-2.35-29.63-4.14-29.74-4.16a2.5,2.5,0,1,0-.76,4.94c.11,0,11.88,1.82,29.85,4.18l.33,0a2.5,2.5,0,0,0,.32-5Z"/><path class="cls-1" d="M1026.47,864.13h0l-30,.13a2.5,2.5,0,0,0,0,5h0l30-.13a2.5,2.5,0,0,0,0-5Z"/><path class="cls-1" d="M1326.47,863.54h-30a2.5,2.5,0,0,0,0,5h30a2.5,2.5,0,1,0,0-5Z"/><path class="cls-1" d="M1386.47,863.54h-30a2.5,2.5,0,0,0,0,5h30a2.5,2.5,0,1,0,0-5Z"/><path class="cls-1" d="M1446.47,863.54h-30a2.5,2.5,0,0,0,0,5h30a2.5,2.5,0,1,0,0-5Z"/><path class="cls-1" d="M1506.47,863.54h-30a2.5,2.5,0,0,0,0,5h30a2.5,2.5,0,1,0,0-5Z"/><path class="cls-1" d="M1565.76,861.36c-15.67,3.41-26.24,2.21-26.28,2.2l-3,0a2.5,2.5,0,0,0,0,5h2.58a53.86,53.86,0,0,0,5.54.24,106,106,0,0,0,22.24-2.53,2.5,2.5,0,0,0-1.07-4.89Z"/><path class="cls-1" d="M1266.47,863.54h-30a2.5,2.5,0,0,0,0,5h30a2.5,2.5,0,1,0,0-5Z"/><path class="cls-1" d="M1086.47,863.89h0l-30,.12a2.5,2.5,0,0,0,0,5h0l30-.12a2.5,2.5,0,0,0,0-5Z"/><path class="cls-1" d="M966.47,864.38h0l-30,.12a2.5,2.5,0,0,0,0,5h0l30-.12a2.5,2.5,0,0,0,0-5Z"/><path class="cls-1" d="M1146.47,863.64h0l-30,.13a2.5,2.5,0,0,0,0,5h0l30-.13a2.5,2.5,0,0,0,0-5Z"/><path class="cls-1" d="M1206.47,863.54h-30a2.5,2.5,0,0,0,0,5h30a2.5,2.5,0,1,0,0-5Z"/><path class="cls-1" d="M1643.47,814.28l-44.28,17.56,15.74,6.51a134.44,134.44,0,0,1-21.5,13.29,2.5,2.5,0,0,0,2.2,4.49,139.45,139.45,0,0,0,23-14.34l6.48,16.46Z"/></g></svg>