<svg id="Oval_-_Pit_Road" data-name="Oval - Pit Road" xmlns="http://www.w3.org/2000/svg" viewBox="0 0 1920 1080"><defs><style>.cls-1{fill:#0089ba;}.cls-2{fill:#d82520;}</style></defs><title>pitroad</title><g id="Mergeline"><path class="cls-1" d="M1443.51,171.68c-9.35-2.06-19.27-4.13-29.51-6.17a5,5,0,1,0-2,9.81c10.17,2,20,4.08,29.3,6.13a5.1,5.1,0,0,0,1.08.12,5,5,0,0,0,1.08-9.89Z"/><path class="cls-1" d="M1384.41,159.89c-9.54-1.74-19.52-3.48-29.66-5.18a5,5,0,0,0-1.66,9.86c10.1,1.69,20,3.43,29.53,5.16a5.47,5.47,0,0,0,.9.08,5,5,0,0,0,.89-9.92Z"/><path class="cls-1" d="M1502.09,186.44c-9-2.63-18.79-5.27-29.2-7.87a5,5,0,0,0-2.42,9.7c10.28,2.57,20,5.18,28.81,7.77a5.28,5.28,0,0,0,1.41.2,5,5,0,0,0,1.4-9.8Z"/><path class="cls-1" d="M1696.73,423.23c.48,9.26.73,19,.76,29.76a5,5,0,0,0,5,5h0a5,5,0,0,0,5-5c0-10.93-.29-20.82-.78-30.25a5,5,0,1,0-10,.52Z"/><path class="cls-1" d="M1325,149.9c-9.7-1.52-19.71-3-29.76-4.48a5,5,0,1,0-1.44,9.89c10,1.46,20,3,29.66,4.47a5.12,5.12,0,0,0,.78.06,5,5,0,0,0,.76-9.94Z"/><path class="cls-1" d="M1265.46,141.23c-10-1.36-20.07-2.67-29.87-3.9a5,5,0,1,0-1.24,9.92c9.76,1.22,19.78,2.53,29.77,3.89a5,5,0,0,0,1.34-9.91Z"/><path class="cls-1" d="M1689.57,333.08A144.92,144.92,0,0,0,1675,305.71a5,5,0,0,0-8.24,5.67,135.3,135.3,0,0,1,13.56,25.47,5,5,0,1,0,9.26-3.77Z"/><path class="cls-1" d="M1699.77,398.05a5,5,0,0,0,4.34-5.59,286.17,286.17,0,0,0-5.32-30,5,5,0,1,0-9.73,2.29,277.33,277.33,0,0,1,5.12,29,5,5,0,0,0,5,4.38C1699.35,398.09,1699.56,398.07,1699.77,398.05Z"/><path class="cls-1" d="M1702.25,478h-.13a5,5,0,0,0-5,4.87c-.25,9.75-.58,19.32-1,29.93A5,5,0,0,0,1701,518h.18a5,5,0,0,0,5-4.82c.37-10.64.71-20.24.95-30A5,5,0,0,0,1702.25,478Z"/><path class="cls-1" d="M1609.63,242c-7.93-6.07-16.23-12-24.66-17.64a5,5,0,1,0-5.56,8.31c8.26,5.52,16.38,11.33,24.14,17.27a5,5,0,1,0,6.08-7.94Z"/><path class="cls-1" d="M1633.09,261.2a5,5,0,1,0-6.6,7.5c7.83,6.89,15,13.76,21.41,20.41a5,5,0,0,0,7.22-6.92C1648.55,275.34,1641.14,268.27,1633.09,261.2Z"/><path class="cls-1" d="M1559.26,208.26l-1.09-.63a223.64,223.64,0,0,0-27.2-11.79,5,5,0,0,0-3.44,9.39,213.18,213.18,0,0,1,25.87,11.19l.83.49a5,5,0,1,0,5-8.65Z"/><rect class="cls-1" x="1176.91" y="134.24" width="65" height="10" transform="translate(924.8 1322.91) rotate(-83.05)"/></g><g id="Pitroad"><path class="cls-2" d="M731.08,813.31l-30.16-.13h0a2.5,2.5,0,0,0,0,5l30.15.13h0a2.5,2.5,0,0,0,0-5Z"/><path class="cls-2" d="M971.8,814.43l-30.07-.14a2.53,2.53,0,0,0-2.51,2.49,2.49,2.49,0,0,0,2.48,2.51l30.08.14h0a2.5,2.5,0,0,0,0-5Z"/><path class="cls-2" d="M670.73,813.06l-9.09,0h-.13c-2.87.14-6,.21-9.15.21-3.69,0-7.59-.09-11.68-.27a2.5,2.5,0,1,0-.22,5c4.13.19,8.12.28,11.84.28,3.31,0,6.45-.07,9.4-.21l9,0a2.5,2.5,0,1,0,0-5Z"/><path class="cls-2" d="M851.5,813.87l-30.09-.14h0a2.5,2.5,0,0,0,0,5l30.08.14h0a2.5,2.5,0,0,0,0-5Z"/><path class="cls-2" d="M791.31,813.59l-30.11-.14a2.5,2.5,0,0,0,0,5l30.11.14h0a2.5,2.5,0,0,0,0-5Z"/><path class="cls-2" d="M911.65,814.15,881.58,814a2.46,2.46,0,0,0-2.51,2.48,2.49,2.49,0,0,0,2.48,2.52l30.08.14h0a2.5,2.5,0,0,0,0-5Z"/><path class="cls-2" d="M552.2,799.75c-7.12-1.87-17.06-4.5-29-7.7a2.5,2.5,0,0,0-1.29,4.83c12,3.2,21.92,5.83,29,7.7a2.28,2.28,0,0,0,.63.09,2.5,2.5,0,0,0,.64-4.92Z"/><path class="cls-2" d="M611,810.42c-9.5-1.14-19.45-2.6-29.59-4.33a2.5,2.5,0,0,0-.84,4.93c10.21,1.74,20.25,3.21,29.84,4.36l.3,0a2.5,2.5,0,0,0,.29-5Z"/><path class="cls-2" d="M494.18,784.25c-9.13-2.48-18.85-5.13-28.95-7.91a2.5,2.5,0,0,0-1.33,4.82c10.11,2.78,19.83,5.44,29,7.92a2.37,2.37,0,0,0,.65.09,2.5,2.5,0,0,0,.65-4.92Z"/><path class="cls-2" d="M217.89,674.48c-8.18-5.83-16.17-11.91-23.77-18.06A2.5,2.5,0,1,0,191,660.3c7.68,6.22,15.76,12.36,24,18.25a2.52,2.52,0,0,0,1.45.46,2.5,2.5,0,0,0,1.45-4.53Z"/><path class="cls-2" d="M150.83,615.57a2.5,2.5,0,0,0-3.85,3.19c.29.35,7.26,8.74,21.19,21.75a2.52,2.52,0,0,0,1.71.67,2.48,2.48,0,0,0,1.83-.79,2.51,2.51,0,0,0-.12-3.54A257.32,257.32,0,0,1,150.83,615.57Z"/><path class="cls-2" d="M268.45,706.21c-8.71-4.79-17.37-9.89-25.74-15.14a2.5,2.5,0,0,0-2.65,4.24c8.45,5.3,17.19,10.44,26,15.28a2.5,2.5,0,1,0,2.41-4.38Z"/><path class="cls-2" d="M436.32,768.3c-10-2.82-19.75-5.57-28.88-8.18a2.5,2.5,0,1,0-1.37,4.81c9.13,2.61,18.85,5.37,28.89,8.18a2.33,2.33,0,0,0,.68.1,2.5,2.5,0,0,0,.68-4.91Z"/><path class="cls-2" d="M322.27,732c-9.17-3.79-18.35-7.88-27.27-12.16a2.5,2.5,0,0,0-2.16,4.51c9,4.32,18.26,8.45,27.52,12.28a2.69,2.69,0,0,0,1,.19,2.5,2.5,0,0,0,.95-4.82Z"/><path class="cls-2" d="M378.6,751.82c-9.52-2.77-19.09-5.84-28.43-9.12a2.5,2.5,0,1,0-1.66,4.72c9.43,3.3,19.08,6.4,28.69,9.2a2.42,2.42,0,0,0,.7.1,2.5,2.5,0,0,0,.7-4.9Z"/><path class="cls-2" d="M1650,681.76a2.5,2.5,0,0,0-3.48.65A268.82,268.82,0,0,1,1628.37,706a2.5,2.5,0,0,0,1.89,4.13,2.53,2.53,0,0,0,1.9-.87,275.91,275.91,0,0,0,18.47-24A2.49,2.49,0,0,0,1650,681.76Z"/><path class="cls-2" d="M1561.21,764.48c-8.53,5.65-17.12,10.82-25.53,15.36a2.49,2.49,0,0,0-1,3.38,2.5,2.5,0,0,0,3.39,1c8.55-4.61,17.27-9.86,25.92-15.59a2.5,2.5,0,1,0-2.76-4.17Z"/><path class="cls-2" d="M1607.84,727.47c-7.07,6.72-14.63,13.28-22.5,19.51a2.5,2.5,0,0,0,1.55,4.46,2.44,2.44,0,0,0,1.55-.54c8-6.32,15.67-13,22.84-19.8a2.5,2.5,0,0,0-3.44-3.63Z"/><path class="cls-2" d="M1508.82,792.7c-9.22,4-18.59,7.52-27.84,10.6a2.5,2.5,0,0,0,.79,4.87,2.42,2.42,0,0,0,.79-.13c9.38-3.12,18.88-6.73,28.23-10.74a2.5,2.5,0,0,0-2-4.6Z"/><path class="cls-2" d="M1677.74,628.67a2.49,2.49,0,0,0-3.26,1.36c-3.35,8.1-6.13,13.54-7.8,16.8l-.26.51c-1.47,3.22-3,6.45-4.68,9.61a2.51,2.51,0,0,0,1.08,3.37,2.43,2.43,0,0,0,1.14.28,2.49,2.49,0,0,0,2.22-1.36c1.66-3.21,3.27-6.5,4.77-9.77l.19-.37c1.58-3.1,4.53-8.88,8-17.16A2.51,2.51,0,0,0,1677.74,628.67Z"/><path class="cls-2" d="M1452.34,811.36a224.68,224.68,0,0,1-29.26,4.89,2.5,2.5,0,0,0,.23,5h.23a229.9,229.9,0,0,0,29.92-5,2.5,2.5,0,0,0-1.12-4.87Z"/><path class="cls-2" d="M1694.14,571.05a2.51,2.51,0,0,0-2.94,2c-2,10-4.33,19.76-7,28.94a2.51,2.51,0,0,0,1.71,3.1,2.74,2.74,0,0,0,.69.1,2.5,2.5,0,0,0,2.4-1.81c2.7-9.32,5.09-19.2,7.09-29.36A2.5,2.5,0,0,0,1694.14,571.05Z"/><path class="cls-2" d="M1332.76,816.16l-30.12-.15h0a2.5,2.5,0,0,0,0,5l30.12.15h0a2.5,2.5,0,0,0,0-5Z"/><path class="cls-2" d="M1152.21,815.29l-30.07-.14h0a2.5,2.5,0,0,0,0,5l30.08.14h0a2.5,2.5,0,0,0,0-5Z"/><path class="cls-2" d="M1212.36,815.58l-30.07-.15h0a2.5,2.5,0,0,0,0,5l30.08.15h0a2.5,2.5,0,0,0,0-5Z"/><path class="cls-2" d="M1092.07,815l-30.07-.14h0a2.5,2.5,0,0,0,0,5L1092,820h0a2.5,2.5,0,0,0,0-5Z"/><path class="cls-2" d="M1272.54,815.87l-30.09-.15h0a2.5,2.5,0,0,0,0,5l30.09.15h0a2.5,2.5,0,0,0,0-5Z"/><path class="cls-2" d="M1031.93,814.72l-30.06-.15h0a2.5,2.5,0,0,0,0,5l30.05.15h0a2.5,2.5,0,0,0,0-5Z"/><path class="cls-2" d="M1393.07,816.45l-30.17-.15h0a2.5,2.5,0,0,0,0,5l30.17.15h0a2.5,2.5,0,0,0,0-5Z"/><polygon class="cls-2" points="1701.17 512.96 1678.57 554.9 1697.75 548.83 1715.43 558.41 1701.17 512.96"/></g></svg>