<svg id="Infield_Road_Course_-_Pit_Road" data-name="Infield Road Course - Pit Road" xmlns="http://www.w3.org/2000/svg" viewBox="0 0 1920 1080"><defs><style>.cls-1{fill:#d82520;}</style></defs><title>pitroad</title><g id="Pitroad"><path class="cls-1" d="M1070.72,437a2.49,2.49,0,0,0-2.44,2.55c.24,10.38.47,20.6.68,30.07a2.5,2.5,0,0,0,2.5,2.44h0a2.5,2.5,0,0,0,2.45-2.55c-.21-9.47-.44-19.7-.68-30.07A2.49,2.49,0,0,0,1070.72,437Z"/><path class="cls-1" d="M1072.12,497.11h-.06a2.5,2.5,0,0,0-2.44,2.56L1070,515c0,1,0,1.88.13,2.6H1070v.15a42.73,42.73,0,0,1-1.76,11.12A2.5,2.5,0,0,0,1070,532a2.35,2.35,0,0,0,.69.1,2.5,2.5,0,0,0,2.4-1.81,47.69,47.69,0,0,0,2-12.5v-.29c0-.1,0-1-.06-2.57l-.32-15.32A2.51,2.51,0,0,0,1072.12,497.11Z"/><path class="cls-1" d="M1052.74,326.66a26.64,26.64,0,0,1,13.13,21.87l0,.83a2.5,2.5,0,0,0,2.5,2.37h.13a2.51,2.51,0,0,0,2.37-2.63l-.05-.84A31.68,31.68,0,0,0,1055,322.21a2.5,2.5,0,0,0-2.29,4.45Z"/><path class="cls-1" d="M1069.26,376.84a2.5,2.5,0,0,0-2.43,2.57c.24,9,.49,19.26.75,30.06a2.5,2.5,0,0,0,2.5,2.44h.06a2.51,2.51,0,0,0,2.44-2.56c-.26-10.81-.52-21.09-.75-30.07a2.51,2.51,0,0,0-2.5-2.44Z"/><polygon class="cls-1" points="1064.62 543.88 1060.28 524.23 1035.28 564.78 1081.77 554.39 1064.62 543.88"/></g></svg>