<svg id="Short_Road_Course_-_Pit_Road" data-name="Short Road Course - Pit Road" xmlns="http://www.w3.org/2000/svg" viewBox="0 0 1920 1080"><defs><style>.cls-1{fill:#d82520;}</style></defs><title>pitroad</title><g id="Pitroad"><path class="cls-1" d="M1070.77,439a2.49,2.49,0,0,0-2.44,2.55c.24,10.42.47,20.65.68,30.06a2.49,2.49,0,0,0,2.49,2.45h.06a2.5,2.5,0,0,0,2.44-2.56c-.21-9.41-.43-19.64-.67-30.06A2.49,2.49,0,0,0,1070.77,439Z"/><path class="cls-1" d="M1066.88,381.46c.24,9.07.49,19.33.75,30.06a2.5,2.5,0,0,0,2.5,2.44h.06a2.5,2.5,0,0,0,2.44-2.56c-.26-10.73-.51-21-.75-30.07a2.5,2.5,0,0,0-5,.13Z"/><path class="cls-1" d="M1072.11,499.17a2.51,2.51,0,0,0-2.45,2.56c.21,9.77.34,15.8.34,15.86v.15a44.12,44.12,0,0,1-2.33,13,2.49,2.49,0,0,0,1.59,3.15,2.36,2.36,0,0,0,.78.13,2.49,2.49,0,0,0,2.37-1.72,48.43,48.43,0,0,0,2.59-14.56v-.21c0-.07-.2-9.4-.34-15.91A2.49,2.49,0,0,0,1072.11,499.17Z"/><path class="cls-1" d="M1054.56,328c.11.05,10.48,5.19,11.31,20.54,0,.72.08,1.68.13,2.87a2.49,2.49,0,0,0,2.49,2.4h.11a2.5,2.5,0,0,0,2.39-2.6c0-1.22-.09-2.2-.13-2.94-1-18.28-13.6-24.52-14.14-24.78a2.5,2.5,0,0,0-2.16,4.51Z"/><polygon class="cls-1" points="1064.62 543.88 1060.28 524.23 1035.28 564.78 1081.77 554.39 1064.62 543.88"/></g></svg>