<svg id="South_Pit_Road" data-name="South_Pit Road" xmlns="http://www.w3.org/2000/svg" viewBox="0 0 1920 1080"><defs><style>.cls-1{fill:#d82520;}</style></defs><title>pitroad</title><g id="Pitroad"><path class="cls-1" d="M726.64,864.33l-30-.1h0a2.5,2.5,0,0,0,0,5l30.06.1h0a2.5,2.5,0,0,0,0-5Z"/><path class="cls-1" d="M666.51,864.13l-30.1-.09h0a2.5,2.5,0,1,0,0,5l30.09.09h0a2.5,2.5,0,0,0,0-5Z"/><path class="cls-1" d="M786.78,864.53l-30.07-.1h0a2.5,2.5,0,0,0,0,5l30.08.1h0a2.5,2.5,0,0,0,0-5Z"/><path class="cls-1" d="M907.1,864.62h0l-30,.13a2.5,2.5,0,0,0,0,5h0l30-.13a2.5,2.5,0,0,0,0-5Z"/><path class="cls-1" d="M967.1,864.38h0l-30,.12a2.5,2.5,0,0,0,0,5h0l30-.12a2.5,2.5,0,0,0,0-5Z"/><path class="cls-1" d="M606.17,864c-6.42.16-16.53,0-29.92-.44a2.5,2.5,0,0,0-.17,5c9.94.33,18.11.5,24.29.5,2.21,0,4.2,0,5.93-.06a2.5,2.5,0,0,0-.13-5Z"/><path class="cls-1" d="M847,864.74l-30.11-.11h0a2.5,2.5,0,0,0,0,5l30.11.11h0a2.5,2.5,0,0,0,0-5Z"/><path class="cls-1" d="M486.22,859c-9.78-.58-19.82-1.2-30-1.83a2.5,2.5,0,0,0-.31,5c10.19.63,20.24,1.25,30,1.83h.15a2.5,2.5,0,0,0,.15-5Z"/><path class="cls-1" d="M546.24,862.3c-9.15-.43-19.25-1-30-1.55a2.5,2.5,0,0,0-.27,5c10.78.59,20.89,1.11,30,1.55h.12a2.5,2.5,0,0,0,.12-5Z"/><path class="cls-1" d="M366.23,851.29l-30-2.07a2.5,2.5,0,1,0-.35,5l30,2.08h.17a2.5,2.5,0,0,0,.17-5Z"/><path class="cls-1" d="M246.25,842.76l-30.11-2.24a2.5,2.5,0,1,0-.38,5s11.31.86,30.12,2.24h.19a2.5,2.5,0,0,0,.18-5Z"/><path class="cls-1" d="M306.25,847.1l-30-2.15a2.5,2.5,0,1,0-.36,5l30,2.16h.18a2.5,2.5,0,0,0,.18-5Z"/><path class="cls-1" d="M426.21,855.29c-10-.64-20-1.3-30-2a2.5,2.5,0,0,0-.33,5l30,2h.17a2.5,2.5,0,0,0,.15-5Z"/><path class="cls-1" d="M1027.1,864.13h0l-30,.12a2.5,2.5,0,0,0,0,5h0l30-.12a2.5,2.5,0,0,0,0-5Z"/><path class="cls-1" d="M1577.78,767.49l.36,0a2.51,2.51,0,0,0,2.12-2.83c-1.63-11.3-4.7-20.87-9.37-29.25a2.5,2.5,0,0,0-4.37,2.43c4.37,7.84,7.25,16.84,8.79,27.53A2.5,2.5,0,0,0,1577.78,767.49Z"/><path class="cls-1" d="M1447.1,863.54h-30a2.5,2.5,0,0,0,0,5h30a2.5,2.5,0,0,0,0-5Z"/><path class="cls-1" d="M1447.86,652.47c-9-2-18.64-4-29.58-5.83a2.5,2.5,0,1,0-.85,4.93c10.85,1.87,20.44,3.76,29.32,5.77a2.13,2.13,0,0,0,.55.07,2.5,2.5,0,0,0,.56-4.94Z"/><path class="cls-1" d="M1507.1,863.54h-30a2.5,2.5,0,0,0,0,5h30a2.5,2.5,0,0,0,0-5Z"/><path class="cls-1" d="M1491,671.38c3.33,1.72,7,3.88,10.93,6.41a2.41,2.41,0,0,0,1.35.4,2.5,2.5,0,0,0,1.36-4.6q-6.09-3.92-11.42-6.69a151.32,151.32,0,0,0-16.15-6.42,2.5,2.5,0,0,0-1.6,4.74A146.56,146.56,0,0,1,1491,671.38Z"/><path class="cls-1" d="M1579.1,792.41a2.52,2.52,0,0,0-2.6,2.4c-.21,5.47-.64,11.35-1.26,17.45A93.62,93.62,0,0,1,1573.1,824a2.5,2.5,0,0,0,1.81,3,2.6,2.6,0,0,0,.61.07,2.51,2.51,0,0,0,2.43-1.89,99.35,99.35,0,0,0,2.26-12.44c.63-6.25,1.07-12.23,1.29-17.8A2.51,2.51,0,0,0,1579.1,792.41Z"/><path class="cls-1" d="M1560.47,849.65c-9.4,10.94-20,13.57-21.53,13.89h-1.84a2.5,2.5,0,0,0,0,5h2.3l.21,0c.54-.09,13.34-2.43,24.65-15.61a2.5,2.5,0,1,0-3.79-3.25Z"/><path class="cls-1" d="M1549.81,715.94a2.5,2.5,0,0,0,1.75-4.28c-6.73-6.61-14.53-13.57-22.57-20.12a2.5,2.5,0,1,0-3.16,3.87c7.92,6.46,15.61,13.32,22.23,19.82A2.47,2.47,0,0,0,1549.81,715.94Z"/><path class="cls-1" d="M1087.1,863.89h0l-30,.12a2.5,2.5,0,0,0,0,5h0l30-.12a2.5,2.5,0,0,0,0-5Z"/><path class="cls-1" d="M1267.1,863.54h-30a2.5,2.5,0,0,0,0,5h30a2.5,2.5,0,0,0,0-5Z"/><path class="cls-1" d="M1207.1,863.54h-30a2.5,2.5,0,0,0,0,5h30a2.5,2.5,0,0,0,0-5Z"/><path class="cls-1" d="M1387.1,863.54h-30a2.5,2.5,0,0,0,0,5h30a2.5,2.5,0,0,0,0-5Z"/><path class="cls-1" d="M1327.1,863.54h-30a2.5,2.5,0,0,0,0,5h30a2.5,2.5,0,0,0,0-5Z"/><path class="cls-1" d="M1147.1,863.64h0l-30,.12a2.5,2.5,0,0,0,0,5h0l30-.12a2.5,2.5,0,0,0,0-5Z"/><polygon class="cls-1" points="1356.75 639.9 1397.41 664.7 1392.38 645.23 1402.89 628.08 1356.75 639.9"/></g></svg>