<svg id="North_A_Pit_Road" data-name="North A_Pit Road" xmlns="http://www.w3.org/2000/svg" viewBox="0 0 1920 1080"><defs><style>.cls-1{fill:#d82520;}</style></defs><title>pitroad</title><g id="Pitroad"><path class="cls-1" d="M1378,326.21c-4.4,1.52-8.88,2.85-13.35,4-2.81.77-7.7,2-15.39,3.87a2.5,2.5,0,0,0,.59,4.92,2.46,2.46,0,0,0,.6-.07c7.73-1.88,12.66-3.12,15.47-3.88,4.56-1.15,9.17-2.53,13.71-4.1a2.5,2.5,0,1,0-1.63-4.72Z"/><path class="cls-1" d="M1261.59,355.46a45.68,45.68,0,0,0-25.46,17.87,2.51,2.51,0,0,0,.63,3.48,2.45,2.45,0,0,0,1.43.45,2.48,2.48,0,0,0,2-1.07,40.67,40.67,0,0,1,22.67-15.91,2.5,2.5,0,1,0-1.32-4.82Z"/><path class="cls-1" d="M1429.86,298.21a199,199,0,0,1-24.88,16,2.5,2.5,0,0,0,1.19,4.7,2.53,2.53,0,0,0,1.19-.3,204.2,204.2,0,0,0,25.51-16.45,2.5,2.5,0,1,0-3-4Z"/><path class="cls-1" d="M1320,341.07c-9.69,2.32-19.8,4.74-29.22,7a2.5,2.5,0,0,0,.59,4.93,3.07,3.07,0,0,0,.6-.07c9.4-2.3,19.51-4.72,29.19-7a2.5,2.5,0,1,0-1.16-4.86Z"/><path class="cls-1" d="M1470.76,252.36a2.5,2.5,0,0,0-3.41.94c-1.44,2.52-2.83,4.94-4.14,7.2a129.15,129.15,0,0,1-12.14,17.43,2.5,2.5,0,0,0,.34,3.52,2.45,2.45,0,0,0,1.59.57,2.49,2.49,0,0,0,1.93-.9,134.24,134.24,0,0,0,12.6-18.11c1.32-2.27,2.72-4.7,4.17-7.24A2.5,2.5,0,0,0,1470.76,252.36Z"/><path class="cls-1" d="M1496.73,198.32a2.5,2.5,0,0,0-3.35,1.13,53,53,0,0,0-2.78,6.71,169.76,169.76,0,0,1-9.07,20.83,2.5,2.5,0,1,0,4.47,2.24,176.41,176.41,0,0,0,9.35-21.48,47.22,47.22,0,0,1,2.5-6.07A2.51,2.51,0,0,0,1496.73,198.32Z"/><polygon class="cls-1" points="1540.93 176.35 1493.74 169.88 1506.14 185.72 1503.36 205.64 1540.93 176.35"/></g></svg>