<?xml version="1.0" encoding="utf-8"?>
<!-- Generator: Adobe Illustrator 24.0.1, SVG Export Plug-In . SVG Version: 6.00 Build 0)  -->
<svg version="1.1" id="Homestead_Road_A__Pit_Road" xmlns="http://www.w3.org/2000/svg" xmlns:xlink="http://www.w3.org/1999/xlink"
	 x="0px" y="0px" viewBox="0 0 1920 1080" style="enable-background:new 0 0 1920 1080;" xml:space="preserve">
<style type="text/css">
	.st0{fill:#D82520;}
</style>
<title>pitroad</title>
<g id="Pitroad">
	<path class="st0" d="M819.6,885.5l-30-0.1c0,0,0,0,0,0c-1.4,0-2.5,1.1-2.5,2.5c0,1.4,1.1,2.5,2.5,2.5l30,0.1c0,0,0,0,0,0
		c1.4,0,2.5-1.1,2.5-2.5C822.1,886.6,821,885.5,819.6,885.5z"/>
	<path class="st0" d="M519.8,883.2c-11.5-0.8-21.5-1.5-29.9-2.1c-1.4-0.1-2.6,0.9-2.7,2.3c-0.1,1.4,0.9,2.6,2.3,2.7
		c8.4,0.6,18.4,1.3,29.9,2.1c0.1,0,0.1,0,0.2,0c1.3,0,2.4-1,2.5-2.3C522.2,884.5,521.2,883.3,519.8,883.2z"/>
	<path class="st0" d="M579.6,884.5l-30-0.1c0,0,0,0,0,0c-1.4,0-2.5,1.1-2.5,2.5c0,1.4,1.1,2.5,2.5,2.5l30,0.1c0,0,0,0,0,0
		c1.4,0,2.5-1.1,2.5-2.5C582.1,885.6,581,884.5,579.6,884.5z"/>
	<path class="st0" d="M759.6,885.3l-30-0.1c0,0,0,0,0,0c-1.4,0-2.5,1.1-2.5,2.5c0,1.4,1.1,2.5,2.5,2.5l30,0.1c0,0,0,0,0,0
		c1.4,0,2.5-1.1,2.5-2.5C762.1,886.4,761,885.3,759.6,885.3z"/>
	<path class="st0" d="M699.6,885l-30-0.1c0,0,0,0,0,0c-1.4,0-2.5,1.1-2.5,2.5c0,1.4,1.1,2.5,2.5,2.5l30,0.1c0,0,0,0,0,0
		c1.4,0,2.5-1.1,2.5-2.5C702.1,886.1,701,885,699.6,885z"/>
	<path class="st0" d="M460.9,876.5c-10.8-3.1-19.3-7.5-25.5-13c-1-0.9-2.6-0.8-3.5,0.2c-0.9,1-0.8,2.6,0.2,3.5
		c6.7,6,15.9,10.8,27.4,14.1c0.2,0.1,0.5,0.1,0.7,0.1c1.1,0,2.1-0.7,2.4-1.8C463,878.3,462.2,876.9,460.9,876.5z"/>
	<path class="st0" d="M332.1,685.9L332.1,685.9c-0.8-1-2.2-2.5-4.8-5.2c-2.8-2.9-7.2-7.5-12.7-12.8c-1-1-2.6-0.9-3.5,0.1
		c-1,1-0.9,2.6,0.1,3.5c10.2,9.9,16.7,17.2,17.1,17.6l3.4,4c0.5,0.6,1.2,0.9,1.9,0.9c0.6,0,1.1-0.2,1.6-0.6c1.1-0.9,1.2-2.5,0.3-3.5
		L332.1,685.9z"/>
	<path class="st0" d="M267.6,630c-1.2-0.7-2.7-0.4-3.4,0.8s-0.4,2.7,0.8,3.4c7.5,4.7,15.6,10.6,24,17.4c0.5,0.4,1,0.6,1.6,0.6
		c0.7,0,1.4-0.3,1.9-0.9c0.9-1.1,0.7-2.6-0.3-3.5C283.6,640.8,275.4,634.8,267.6,630z"/>
	<path class="st0" d="M354.8,712.9c-0.9-1.1-2.5-1.2-3.5-0.3c-1.1,0.9-1.2,2.5-0.3,3.5l19.3,23c0.5,0.6,1.2,0.9,1.9,0.9
		c0.6,0,1.1-0.2,1.6-0.6c1.1-0.9,1.2-2.5,0.3-3.5L354.8,712.9z"/>
	<path class="st0" d="M424.4,807c-1.4,0.2-2.3,1.5-2.1,2.8c0.2,1.6,0.3,3.1,0.3,4.7c0,2.5-0.3,5.1-0.9,7.5
		c-0.5,1.2-2.9,7.5-2.9,15.8c0,0.4,0,0.8,0,1.3c0,1.4,1.2,2.4,2.5,2.4c0,0,0,0,0.1,0c1.4,0,2.5-1.2,2.4-2.6c0-0.4,0-0.7,0-1.1
		c0-8,2.5-14,2.6-14l0.1-0.4c0.7-2.9,1.1-5.9,1.1-8.9c0-1.8-0.1-3.6-0.4-5.4C427.1,807.7,425.8,806.8,424.4,807z"/>
	<path class="st0" d="M393.4,758.8c-0.9-1.1-2.5-1.2-3.5-0.3c-1.1,0.9-1.2,2.5-0.3,3.5l19.3,23c0.5,0.6,1.2,0.9,1.9,0.9
		c0.6,0,1.1-0.2,1.6-0.6c1.1-0.9,1.2-2.5,0.3-3.5L393.4,758.8z"/>
	<path class="st0" d="M639.6,884.7l-30-0.1c0,0,0,0,0,0c-1.4,0-2.5,1.1-2.5,2.5c0,1.4,1.1,2.5,2.5,2.5l30,0.1c0,0,0,0,0,0
		c1.4,0,2.5-1.1,2.5-2.5C642.1,885.9,641,884.7,639.6,884.7z"/>
	<path class="st0" d="M1299.6,887.6l-30-0.1c0,0,0,0,0,0c-1.4,0-2.5,1.1-2.5,2.5c0,1.4,1.1,2.5,2.5,2.5l30,0.1c0,0,0,0,0,0
		c1.4,0,2.5-1.1,2.5-2.5C1302.1,888.7,1301,887.6,1299.6,887.6z"/>
	<path class="st0" d="M1359.6,887.8l-30-0.1c0,0,0,0,0,0c-1.4,0-2.5,1.1-2.5,2.5c0,1.4,1.1,2.5,2.5,2.5l19.8,0.1h10.2
		c1.4,0,2.5-1.1,2.5-2.5S1361,887.8,1359.6,887.8z"/>
	<path class="st0" d="M1239.6,887.4l-30-0.1c0,0,0,0,0,0c-1.4,0-2.5,1.1-2.5,2.5c0,1.4,1.1,2.5,2.5,2.5l30,0.1c0,0,0,0,0,0
		c1.4,0,2.5-1.1,2.5-2.5C1242.1,888.5,1241,887.4,1239.6,887.4z"/>
	<path class="st0" d="M1470.6,865l-24.2,17.7c-1.1,0.8-1.4,2.4-0.5,3.5c0.5,0.7,1.3,1,2,1c0.5,0,1-0.2,1.5-0.5l24.2-17.7
		c1.1-0.8,1.4-2.4,0.5-3.5C1473.2,864.5,1471.7,864.2,1470.6,865z"/>
	<path class="st0" d="M1419.6,887.8h-30c-1.4,0-2.5,1.1-2.5,2.5s1.1,2.5,2.5,2.5h30c1.4,0,2.5-1.1,2.5-2.5S1421,887.8,1419.6,887.8z
		"/>
	<path class="st0" d="M1119.6,886.8l-30-0.1c0,0,0,0,0,0c-1.4,0-2.5,1.1-2.5,2.5c0,1.4,1.1,2.5,2.5,2.5l30,0.1c0,0,0,0,0,0
		c1.4,0,2.5-1.1,2.5-2.5C1122.1,888,1121,886.8,1119.6,886.8z"/>
	<path class="st0" d="M999.6,886.3l-30-0.1c0,0,0,0,0,0c-1.4,0-2.5,1.1-2.5,2.5c0,1.4,1.1,2.5,2.5,2.5l30,0.1c0,0,0,0,0,0
		c1.4,0,2.5-1.1,2.5-2.5C1002.1,887.4,1001,886.3,999.6,886.3z"/>
	<path class="st0" d="M939.6,886l-30-0.1c0,0,0,0,0,0c-1.4,0-2.5,1.1-2.5,2.5c0,1.4,1.1,2.5,2.5,2.5l30,0.1c0,0,0,0,0,0
		c1.4,0,2.5-1.1,2.5-2.5C942.1,887.2,941,886,939.6,886z"/>
	<path class="st0" d="M879.6,885.8l-30-0.1c-1.4,0-2.5,1.1-2.5,2.5c0,1.4,1.1,2.5,2.5,2.5l30,0.1c0,0,0,0,0,0c1.4,0,2.5-1.1,2.5-2.5
		C882.1,886.9,881,885.8,879.6,885.8z"/>
	<path class="st0" d="M1059.6,886.6l-30-0.1c0,0,0,0,0,0c-1.4,0-2.5,1.1-2.5,2.5c0,1.4,1.1,2.5,2.5,2.5l30,0.1c0,0,0,0,0,0
		c1.4,0,2.5-1.1,2.5-2.5C1062.1,887.7,1061,886.6,1059.6,886.6z"/>
	<path class="st0" d="M1179.6,887.1l-30-0.1c0,0,0,0,0,0c-1.4,0-2.5,1.1-2.5,2.5c0,1.4,1.1,2.5,2.5,2.5l30,0.1c0,0,0,0,0,0
		c1.4,0,2.5-1.1,2.5-2.5C1182.1,888.2,1181,887.1,1179.6,887.1z"/>
	<path class="st0" d="M1547.9,811.7l-46.4,10.9l14.9,8.9l-21.7,15.8c-1.1,0.8-1.4,2.4-0.5,3.5c0.5,0.7,1.3,1,2,1
		c0.5,0,1-0.2,1.5-0.5l21.7-15.8l3.9,16.9L1547.9,811.7z"/>
</g>
</svg>
