<svg id="North_B_Pit_Road" data-name="North B_Pit Road" xmlns="http://www.w3.org/2000/svg" viewBox="0 0 1920 1080"><defs><style>.cls-1{fill:#d82520;}</style></defs><title>pitroad</title><path class="cls-1" d="M1322.74,305.84l-24.19,17.74a2.5,2.5,0,0,0,1.48,4.51,2.44,2.44,0,0,0,1.47-.48l24.2-17.74a2.5,2.5,0,0,0-3-4Z"/><path class="cls-1" d="M1371.12,270.35l-24.19,17.75a2.5,2.5,0,0,0,1.48,4.51,2.56,2.56,0,0,0,1.48-.48l24.19-17.74a2.5,2.5,0,1,0-3-4Z"/><path class="cls-1" d="M1274.35,341.32l-24.19,17.74a2.5,2.5,0,1,0,3,4l24.19-17.74a2.5,2.5,0,1,0-3-4Z"/><path class="cls-1" d="M1467.89,199.39l-24.19,17.74a2.5,2.5,0,1,0,3,4l24.19-17.74a2.5,2.5,0,1,0-3-4Z"/><path class="cls-1" d="M1419.51,234.87l-24.2,17.74a2.5,2.5,0,0,0,3,4l24.19-17.75a2.5,2.5,0,0,0-3-4Z"/><polygon class="cls-1" points="1520.58 176.35 1473.03 173.46 1486.6 188.31 1485.33 208.39 1520.58 176.35"/></svg>