<?xml version="1.0" encoding="utf-8"?>
<!-- Generator: Adobe Illustrator 24.0.1, SVG Export Plug-In . SVG Version: 6.00 Build 0)  -->
<svg version="1.1" id="Grand_Prix_-_Pit_Road" xmlns="http://www.w3.org/2000/svg" xmlns:xlink="http://www.w3.org/1999/xlink"
	 x="0px" y="0px" viewBox="0 0 1920 1080" style="enable-background:new 0 0 1920 1080;" xml:space="preserve">
<style type="text/css">
	.st0{fill:#016699;}
	.st1{fill:#D82520;}
</style>
<title>pitroad</title>
<g id="Mergeline">
	<path class="st0" d="M1397,182.8c-9.4-1.3-19.4-2.7-29.8-4.1c-2.7-0.4-5.2,1.6-5.6,4.3c-0.4,2.7,1.6,5.2,4.3,5.6
		c10.4,1.4,20.4,2.7,29.7,4c0.2,0,0.5,0,0.7,0c2.5,0,4.6-1.8,4.9-4.3C1401.6,185.7,1399.7,183.2,1397,182.8z"/>
	<path class="st0" d="M1456.5,192.3c-8.8-1.6-18.8-3.3-29.8-5.1c-2.7-0.4-5.3,1.4-5.7,4.2c-0.4,2.7,1.4,5.3,4.2,5.7
		c10.9,1.7,20.8,3.4,29.5,5c0.3,0.1,0.6,0.1,0.9,0.1c2.4,0,4.5-1.7,4.9-4.1C1461.1,195.5,1459.3,192.8,1456.5,192.3z"/>
	<path class="st0" d="M1609.3,380.1c-1.3,8.7-3.3,17.8-6.4,28.6c-0.8,2.7,0.8,5.4,3.4,6.2c0.5,0.1,0.9,0.2,1.4,0.2
		c2.2,0,4.2-1.4,4.8-3.6c3.3-11.2,5.4-20.8,6.7-29.9c0.4-2.7-1.5-5.3-4.2-5.7C1612.2,375.5,1609.7,377.4,1609.3,380.1z"/>
	<path class="st0" d="M1610.5,351.3c0.2,2.6,2.4,4.7,5,4.7c0.1,0,0.2,0,0.3,0c2.8-0.2,4.8-2.6,4.7-5.3c-0.7-10.2-2.5-20.5-5.5-30.6
		c-0.8-2.6-3.6-4.2-6.2-3.4c-2.6,0.8-4.2,3.6-3.4,6.2C1608.2,332.2,1609.9,341.8,1610.5,351.3z"/>
	<path class="st0" d="M1277.5,168.1c-4.6-0.5-8.5-0.9-11.8-1.3l2.9-27.3l-9.9-1.1l-3.4,31.6c-0.1,0.2-0.1,0.4-0.1,0.7
		c0,0.2,0,0.4,0,0.6l-3.4,31.7l9.9,1.1l2.9-27.4c3.2,0.3,7.2,0.8,11.8,1.3c0.2,0,0.4,0,0.5,0c2.5,0,4.7-1.9,5-4.5
		C1282.3,170.9,1280.3,168.4,1277.5,168.1z"/>
	<path class="st0" d="M1515.3,208.7c-8.1-3.5-16.6-6.5-25.4-9c-1.2-0.3-2.4-0.7-3.6-1c-2.7-0.7-5.4,0.9-6.1,3.6
		c-0.7,2.7,0.9,5.4,3.6,6.1c1.2,0.3,2.4,0.6,3.5,0.9c8.4,2.4,16.5,5.2,24.2,8.5c0.6,0.3,1.3,0.4,2,0.4c1.9,0,3.8-1.1,4.6-3
		C1519,212.8,1517.9,209.8,1515.3,208.7z"/>
	<path class="st0" d="M1337.3,175c-9.7-1.2-19.7-2.4-29.9-3.5c-2.7-0.3-5.2,1.7-5.5,4.4c-0.3,2.7,1.7,5.2,4.4,5.5
		c10.1,1.2,20.2,2.4,29.8,3.5c0.2,0,0.4,0,0.6,0c2.5,0,4.6-1.9,5-4.4C1342,177.8,1340.1,175.3,1337.3,175z"/>
	<path class="st0" d="M1662.4,562.9c1,1.2,2.4,1.8,3.8,1.8c1.1,0,2.3-0.4,3.2-1.2c2.1-1.8,2.4-4.9,0.6-7c-5.1-6.1-12.2-13.5-21.2-22
		c-2-1.9-5.2-1.8-7.1,0.2c-1.9,2-1.8,5.2,0.2,7.1C1650.7,550,1657.6,557.1,1662.4,562.9z"/>
	<path class="st0" d="M1615.1,504.8c-3.6-3-6.6-6.4-8.9-10.3c-1.4-2.4-4.5-3.1-6.9-1.7s-3.1,4.5-1.7,6.9c2.9,4.8,6.7,9.1,11.1,12.8
		c3.7,3.1,7.4,6.2,11.1,9.4c0.9,0.8,2.1,1.2,3.3,1.2c1.4,0,2.8-0.6,3.8-1.7c1.8-2.1,1.6-5.3-0.5-7.1
		C1622.6,511.1,1618.8,507.9,1615.1,504.8z"/>
	<path class="st0" d="M1675.3,582.4c-2.6-1-5.5,0.3-6.5,2.8c-4.3,11.1-18,18.8-18.1,18.9c-2.4,1.3-3.3,4.4-1.9,6.8
		c0.9,1.6,2.6,2.6,4.4,2.6c0.8,0,1.7-0.2,2.4-0.6c0.7-0.4,16.9-9.5,22.5-24C1679.1,586.3,1677.9,583.4,1675.3,582.4z"/>
	<path class="st0" d="M1599.5,468.4l0-0.4c0-7.7,1.2-16.3,3.7-25.7c0.2-0.7,0.4-1.4,0.6-2.1c0.7-2.7-0.8-5.4-3.5-6.1
		c-2.7-0.7-5.4,0.8-6.1,3.5c-0.2,0.8-0.4,1.5-0.6,2.3c-2.7,10.1-4,19.6-4,28.2l0,0.5c0,2.8,2.3,5,5,5c0,0,0,0,0,0
		C1597.3,473.4,1599.5,471.1,1599.5,468.4z"/>
	<path class="st0" d="M1542.5,223.2c-2.3-1.5-5.4-0.8-6.9,1.5c-1.5,2.3-0.8,5.4,1.5,6.9c8.2,5.3,15.9,11.3,22.9,17.9
		c1,0.9,2.2,1.3,3.4,1.3c1.3,0,2.7-0.5,3.7-1.6c1.9-2,1.8-5.2-0.2-7.1C1559.3,235.2,1551.2,228.8,1542.5,223.2z"/>
	<path class="st0" d="M1599.2,298.6c0.8,0,1.5-0.2,2.3-0.5c2.5-1.2,3.5-4.3,2.2-6.7c-4.6-9.2-10.1-18-16.2-26.2
		c-1.7-2.2-4.8-2.7-7-1c-2.2,1.7-2.7,4.8-1,7c5.8,7.7,10.9,16.1,15.3,24.7C1595.6,297.6,1597.3,298.6,1599.2,298.6z"/>
</g>
<g id="Pitroad">
	<path class="st1" d="M1093.8,895.6c-9.2,4.5-18.8,9.2-26.9,13.1c-1.2,0.6-1.8,2.1-1.2,3.3c0.4,0.9,1.3,1.4,2.3,1.4
		c0.4,0,0.7-0.1,1.1-0.2c8.2-3.9,17.8-8.7,27-13.2c1.2-0.6,1.8-2.1,1.1-3.3C1096.5,895.5,1095,894.9,1093.8,895.6z"/>
	<path class="st1" d="M983.3,939.9c-9.4,2.4-18.4,4.2-29.1,5.6c-1.4,0.2-2.3,1.4-2.2,2.8c0.2,1.3,1.2,2.2,2.5,2.2c0.1,0,0.2,0,0.3,0
		c10.9-1.4,20-3.2,29.7-5.7c1.3-0.3,2.1-1.7,1.8-3C986,940.3,984.6,939.5,983.3,939.9z"/>
	<path class="st1" d="M1147.5,869.1c-8.5,4.2-17.4,8.6-26.8,13.3c-1.2,0.6-1.7,2.1-1.1,3.3c0.4,0.9,1.3,1.4,2.2,1.4
		c0.4,0,0.7-0.1,1.1-0.3c9.5-4.7,18.3-9.1,26.8-13.3c1.2-0.6,1.7-2.1,1.1-3.4C1150.2,868.9,1148.7,868.4,1147.5,869.1z"/>
	<path class="st1" d="M864.8,951.4c-2.3,0.1-4.6,0.2-7,0.3c-5.7,0.2-13.7,0.5-23.1,0.9c-1.4,0.1-2.5,1.2-2.4,2.6
		c0.1,1.3,1.2,2.4,2.5,2.4c0,0,0.1,0,0.1,0c9.4-0.4,17.4-0.7,23-0.9c2.4-0.1,4.7-0.2,7-0.3c1.4-0.1,2.5-1.2,2.4-2.6
		S866.2,951.4,864.8,951.4z"/>
	<path class="st1" d="M924.6,948.3c-8.7,0.6-18.4,1.2-29.9,1.8c-1.4,0.1-2.4,1.2-2.4,2.6c0.1,1.3,1.2,2.4,2.5,2.4c0,0,0.1,0,0.1,0
		c11.5-0.6,21.3-1.2,30-1.8c1.4-0.1,2.4-1.3,2.3-2.7C927.1,949.3,925.9,948.2,924.6,948.3z"/>
	<path class="st1" d="M744.6,956.4l-23,1l-0.1,0c-1.4,0.1-2.4,1.2-2.4,2.6c0,1.4,1.1,2.4,2.5,2.4l23.2-1c1.4-0.1,2.5-1.2,2.4-2.6
		C747.2,957.4,746,956.3,744.6,956.4z"/>
	<path class="st1" d="M804.7,953.8c-10,0.4-20.3,0.8-30,1.3c-1.4,0.1-2.5,1.2-2.4,2.6c0.1,1.3,1.2,2.4,2.5,2.4c0,0,0.1,0,0.1,0
		c9.8-0.4,20-0.8,30-1.3c1.4-0.1,2.5-1.2,2.4-2.6C807.2,954.9,806.1,953.8,804.7,953.8z"/>
	<path class="st1" d="M1201,842.3c-8.8,4.4-17.6,8.9-26.7,13.4c-1.2,0.6-1.7,2.1-1.1,3.4c0.4,0.9,1.3,1.4,2.2,1.4
		c0.4,0,0.8-0.1,1.1-0.3c9.1-4.6,18-9,26.7-13.4c1.2-0.6,1.7-2.1,1.1-3.4C1203.7,842.2,1202.2,841.7,1201,842.3z"/>
	<path class="st1" d="M1039.8,921.2c-9.3,3.9-17.3,6.9-27.9,10.2c-1.3,0.4-2,1.8-1.6,3.1c0.3,1.1,1.3,1.7,2.4,1.7
		c0.3,0,0.5,0,0.8-0.1c10.7-3.4,18.9-6.4,28.3-10.4c1.3-0.5,1.9-2,1.3-3.3C1042.5,921.2,1041,920.6,1039.8,921.2z"/>
	<path class="st1" d="M1519.5,676l-26.5,14c-1.2,0.6-1.7,2.2-1,3.4c0.4,0.9,1.3,1.3,2.2,1.3c0.4,0,0.8-0.1,1.2-0.3l26.5-14
		c1.2-0.6,1.7-2.2,1-3.4C1522.2,675.8,1520.7,675.4,1519.5,676z"/>
	<path class="st1" d="M1572.5,648.1l-26.5,14c-1.2,0.6-1.7,2.2-1,3.4c0.4,0.9,1.3,1.3,2.2,1.3c0.4,0,0.8-0.1,1.2-0.3l26.5-14
		c1.2-0.6,1.7-2.2,1-3.4C1575.2,647.9,1573.7,647.5,1572.5,648.1z"/>
	<path class="st1" d="M1466.4,703.9l-26.5,14c-1.2,0.6-1.7,2.2-1,3.4c0.4,0.9,1.3,1.3,2.2,1.3c0.4,0,0.8-0.1,1.2-0.3l26.5-14
		c1.2-0.6,1.7-2.2,1-3.4C1469.2,703.8,1467.7,703.3,1466.4,703.9z"/>
	<path class="st1" d="M1413.4,731.8l-26.5,13.9c-1.2,0.6-1.7,2.2-1,3.4c0.4,0.9,1.3,1.3,2.2,1.3c0.4,0,0.8-0.1,1.2-0.3l26.5-13.9
		c1.2-0.6,1.7-2.2,1-3.4C1416.1,731.7,1414.6,731.2,1413.4,731.8z"/>
	<path class="st1" d="M1307.4,787.5c-9.4,4.9-18.2,9.5-26.5,13.8c-1.2,0.6-1.7,2.1-1.1,3.4c0.4,0.9,1.3,1.3,2.2,1.3
		c0.4,0,0.8-0.1,1.2-0.3c8.4-4.4,17.2-8.9,26.5-13.8c1.2-0.6,1.7-2.2,1.1-3.4C1310.1,787.3,1308.6,786.9,1307.4,787.5z"/>
	<path class="st1" d="M1254.3,815.1c-9.2,4.8-18,9.3-26.6,13.7c-1.2,0.6-1.7,2.1-1.1,3.4c0.4,0.9,1.3,1.4,2.2,1.4
		c0.4,0,0.8-0.1,1.1-0.3c8.6-4.4,17.4-8.9,26.6-13.7c1.2-0.6,1.7-2.1,1.1-3.4S1255.5,814.5,1254.3,815.1z"/>
	<path class="st1" d="M1360.4,759.7c-9.3,4.9-18.1,9.5-26.5,13.9c-1.2,0.6-1.7,2.2-1.1,3.4c0.4,0.9,1.3,1.3,2.2,1.3
		c0.4,0,0.8-0.1,1.2-0.3c8.4-4.4,17.2-9,26.5-13.9c1.2-0.6,1.7-2.2,1.1-3.4C1363.1,759.5,1361.6,759.1,1360.4,759.7z"/>
	<path class="st1" d="M1653.2,608.5l-47.5,4l13.5,11l-20.1,10.6c-1.2,0.6-1.7,2.2-1,3.4c0.4,0.9,1.3,1.3,2.2,1.3
		c0.4,0,0.8-0.1,1.2-0.3l20.1-10.6l1.4,17.3L1653.2,608.5z"/>
</g>
</svg>
