<?xml version="1.0" encoding="utf-8"?>
<!-- Generator: Adobe Illustrator 24.0.1, SVG Export Plug-In . SVG Version: 6.00 Build 0)  -->
<svg version="1.1" id="Oval_-_Pit_Road" xmlns="http://www.w3.org/2000/svg" xmlns:xlink="http://www.w3.org/1999/xlink" x="0px"
	 y="0px" viewBox="0 0 1920 1080" style="enable-background:new 0 0 1920 1080;" xml:space="preserve">
<style type="text/css">
	.st0{fill:#D82520;}
</style>
<title>oval_pitroad</title>
<g>
	<path class="st0" d="M810.4,784.8h-30.1c-1.4,0-2.5,1.1-2.5,2.5s1.1,2.5,2.5,2.5h30.1h0c1.4,0,2.5-1.1,2.5-2.5
		S811.8,784.8,810.4,784.8z"/>
	<path class="st0" d="M750.2,784.8h-30.1c-1.4,0-2.5,1.1-2.5,2.5s1.1,2.5,2.5,2.5h30.1h0c1.4,0,2.5-1.1,2.5-2.5
		S751.6,784.8,750.2,784.8z"/>
	<path class="st0" d="M930.6,784.8h-30.1c-1.4,0-2.5,1.1-2.5,2.5s1.1,2.5,2.5,2.5h30.1h0c1.4,0,2.5-1.1,2.5-2.5
		S932,784.8,930.6,784.8z"/>
	<path class="st0" d="M690.1,784.8H660c-1.4,0-2.5,1.1-2.5,2.5s1.1,2.5,2.5,2.5h30.1h0c1.4,0,2.5-1.1,2.5-2.5
		S691.5,784.8,690.1,784.8z"/>
	<path class="st0" d="M990.8,784.8h-30.1c-1.4,0-2.5,1.1-2.5,2.5s1.1,2.5,2.5,2.5h30.1c1.4,0,2.5-1.1,2.5-2.5
		S992.2,784.8,990.8,784.8z"/>
	<path class="st0" d="M870.5,784.8h-30.1c-1.4,0-2.5,1.1-2.5,2.5s1.1,2.5,2.5,2.5h30.1h0c1.4,0,2.5-1.1,2.5-2.5
		S871.9,784.8,870.5,784.8z"/>
	<path class="st0" d="M402.8,726.6c-8.3-5.3-16.6-11-24.6-16.9c-1.1-0.8-2.7-0.6-3.5,0.5s-0.6,2.7,0.5,3.5
		c8.1,6,16.4,11.7,24.9,17.1c0.4,0.3,0.9,0.4,1.3,0.4l0,0c0.9,0,1.7-0.4,2.1-1.2C404.3,728.9,404,727.4,402.8,726.6z"/>
	<path class="st0" d="M455.2,755.1c-9-4.1-18-8.6-26.7-13.3c-1.2-0.7-2.7-0.2-3.4,1s-0.2,2.7,1,3.4c8.8,4.8,17.9,9.3,27,13.5
		c0.3,0.1,0.7,0.2,1,0.2l0.1,0c1,0,1.8-0.6,2.2-1.5C457,757.2,456.5,755.7,455.2,755.1z"/>
	<path class="st0" d="M629.9,784.8h-30.1c-1.4,0-2.5,1.1-2.5,2.5s1.1,2.5,2.5,2.5h30.1h0c1.4,0,2.5-1.1,2.5-2.5
		S631.3,784.8,629.9,784.8z"/>
	<path class="st0" d="M333,671c-1-1-2.6-1-3.5,0c-1,1-1,2.6,0,3.5c7.2,7,14.6,13.9,22.2,20.4c0.5,0.4,1,0.6,1.6,0.6h0
		c0.7,0,1.4-0.3,1.9-0.9c0.9-1,0.8-2.6-0.3-3.5C347.4,684.7,340.1,677.9,333,671z"/>
	<path class="st0" d="M511.1,775.9c-9.3-2.7-18.9-5.8-28.3-9.3c-1.3-0.5-2.7,0.2-3.2,1.5c-0.5,1.3,0.2,2.7,1.5,3.2
		c9.5,3.6,19.2,6.7,28.7,9.5c0.2,0.1,0.5,0.1,0.7,0.1c1.1,0,2.1-0.7,2.4-1.8C513.1,777.6,512.4,776.2,511.1,775.9z"/>
	<path class="st0" d="M569.6,784.7h-17.7c-0.8-0.1-5-0.6-11.9-1.9c-0.1,0-0.1,0-0.2,0c-1.4-0.2-2.6,0.7-2.9,2.1
		c-0.2,1.4,0.7,2.6,2.1,2.9c7.8,1.5,12.2,2,12.4,2h18.1l0,0c1.4,0,2.5-1.1,2.5-2.5S571,784.7,569.6,784.7z"/>
	<path class="st0" d="M1171.1,784.8H1141c-1.4,0-2.5,1.1-2.5,2.5s1.1,2.5,2.5,2.5h30.1c1.4,0,2.5-1.1,2.5-2.5
		S1172.5,784.8,1171.1,784.8z"/>
	<path class="st0" d="M1469.5,770.8c-9.4,3-19.1,5.6-28.7,7.7c-1.4,0.1-2.4,1.4-2.2,2.8s1.4,2.4,2.8,2.2l0,0c0.2,0,0.4,0,0.5-0.1
		c9.8-2.1,19.6-4.7,29.2-7.8c0,0,0,0,0,0c1.3-0.4,2-1.8,1.6-3.2C1472.2,771,1470.8,770.3,1469.5,770.8z"/>
	<path class="st0" d="M1411.4,783.2c-9.8,1.1-19.8,1.7-29.7,1.8c-1.4,0-2.5,1.1-2.5,2.5s1.1,2.5,2.5,2.5l0.1,0
		c10.1-0.1,20.2-0.7,30.2-1.8c1.4-0.2,2.4-1.4,2.2-2.8S1412.8,783.1,1411.4,783.2z"/>
	<path class="st0" d="M1524.2,747.4c-8.8,4.8-17.8,9.1-26.8,13c-0.9,0.4-1.5,1.3-1.5,2.3c0,1.4,1.1,2.5,2.5,2.5l0,0
		c0.3,0,0.7,0,1-0.2c9.1-3.9,18.3-8.4,27.2-13.2c1.1-0.7,1.5-2.1,1-3.2C1526.9,747.3,1525.4,746.8,1524.2,747.4z"/>
	<path class="st0" d="M1573.9,714.7c-7.9,6.1-16,12-24.2,17.4c-0.7,0.5-1.1,1.3-1.1,2.1c0,1.4,1.1,2.5,2.5,2.5l0,0
		c0.5,0,1-0.1,1.4-0.4c8.3-5.5,16.5-11.4,24.5-17.6c0.1,0,0.1-0.1,0.2-0.1c1-0.9,1.2-2.5,0.3-3.5
		C1576.6,714,1575,713.8,1573.9,714.7z"/>
	<polygon class="st0" points="1598.3,699.8 1598.3,699.8 1598.3,699.8 	"/>
	<path class="st0" d="M1111,784.8h-30.1c-1.4,0-2.5,1.1-2.5,2.5s1.1,2.5,2.5,2.5h30.1h0c1.4,0,2.5-1.1,2.5-2.5
		S1112.4,784.8,1111,784.8z"/>
	<path class="st0" d="M1231.3,784.8h-30.1c-1.4,0-2.5,1.1-2.5,2.5s1.1,2.5,2.5,2.5h30.1c1.4,0,2.5-1.1,2.5-2.5
		S1232.6,784.8,1231.3,784.8z"/>
	<path class="st0" d="M1050.9,784.8h-30.1c-1.4,0-2.5,1.1-2.5,2.5s1.1,2.5,2.5,2.5h30.1h0c1.4,0,2.5-1.1,2.5-2.5
		S1052.2,784.8,1050.9,784.8z"/>
	<path class="st0" d="M1351.7,784.8h-30.1c-1.4,0-2.5,1.1-2.5,2.5s1.1,2.5,2.5,2.5h30.1c1.4,0,2.5-1.1,2.5-2.5
		S1353.1,784.8,1351.7,784.8z"/>
	<path class="st0" d="M1291.4,784.8h-30.1c-1.4,0-2.5,1.1-2.5,2.5s1.1,2.5,2.5,2.5h30.1c1.4,0,2.5-1.1,2.5-2.5
		S1292.8,784.8,1291.4,784.8z"/>
	<path class="st0" d="M1638.8,653.3l-42.6,21.3l16.5,5.2c-5.2,5.3-10.5,10.6-16.1,15.6c-0.5,0.5-0.8,1.1-0.8,1.8
		c0,1.4,1.1,2.5,2.5,2.5c0.6,0,1.2-0.2,1.7-0.7c5.7-5.2,11.2-10.6,16.5-16.1l7.8,15.7L1638.8,653.3z"/>
</g>
</svg>
