<?xml version="1.0" encoding="utf-8"?>
<!-- Generator: Adobe Illustrator 24.0.1, SVG Export Plug-In . SVG Version: 6.00 Build 0)  -->
<svg version="1.1" id="Road_Course_short_-_Pit_Road"
	 xmlns="http://www.w3.org/2000/svg" xmlns:xlink="http://www.w3.org/1999/xlink" x="0px" y="0px" viewBox="0 0 1920 1080"
	 style="enable-background:new 0 0 1920 1080;" xml:space="preserve">
<style type="text/css">
	.st0{fill:#D82520;}
</style>
<title>road course short_pitroad</title>
<g>
	<path class="st0" d="M1570.2,568.5l-27.1-13c-0.1,0-0.1-0.1-0.2-0.1c-1.3-0.5-2.7,0-3.3,1.3c-0.5,1.3,0,2.7,1.3,3.3l27,13
		c0.3,0.2,0.7,0.3,1.1,0.3l0.1,0c1,0,1.8-0.6,2.2-1.4C1572,570.6,1571.5,569.1,1570.2,568.5z"/>
	<path class="st0" d="M1553.9,366.8c0.5,0.6,1.2,1,2,1h0c0.6,0,1.1-0.2,1.5-0.5c1.1-0.8,1.3-2.4,0.5-3.5c-4.5-6-8.4-11.1-11.1-14.7
		l-3.2-4.1c-1.5-2-2.2-2.9-3.9-2.3l0.8,2.4l-2,1.5C1538.6,346.6,1544.8,354.8,1553.9,366.8z"/>
	<path class="st0" d="M1516,542.6l-20.5-9.8l13-11.5l-47.6-2.3l31.6,35.6l0.8-17.4l20.5,9.9c0.3,0.2,0.7,0.2,1,0.2
		c0.9,0,1.8-0.6,2.2-1.4C1517.7,544.7,1517.2,543.2,1516,542.6z"/>
	<path class="st0" d="M1514.9,547.4C1514.9,547.4,1514.9,547.4,1514.9,547.4C1514.9,547.4,1514.9,547.4,1514.9,547.4L1514.9,547.4z"
		/>
	<path class="st0" d="M1614,550.7c-1.3-0.4-2.7,0.3-3.2,1.6c-4.9,14.7-11,20.6-15.2,22.9c-0.8,0.4-1.3,1.3-1.3,2.2
		c0,1.4,1.1,2.5,2.5,2.5c0.4,0,0.8-0.1,1.2-0.3c7.3-4,13.2-12.6,17.6-25.7C1616,552.6,1615.3,551.2,1614,550.7z"/>
	<path class="st0" d="M1624,491.8c-1.4-0.1-2.6,1-2.6,2.4c-0.5,9.9-1.6,19.7-3.4,29.5c0,0,0,0,0,0c-0.2,1.4,0.6,2.7,2,2.9
		c0.1,0,0.3,0,0.4,0c1.2,0,2.2-0.8,2.5-2c1.8-10,3-20,3.5-30.1C1626.5,493,1625.4,491.8,1624,491.8z"/>
	<path class="st0" d="M1593.8,412c-5.3-7.2-11.3-15.3-17.9-24.2c-0.8-1.1-2.4-1.3-3.5-0.5s-1.3,2.4-0.5,3.5
		c6.6,8.8,12.6,16.9,17.9,24.1c0.5,0.6,1.2,1,2,1c0.5,0,1.1-0.2,1.5-0.5C1594.4,414.7,1594.7,413.1,1593.8,412z"/>
	<path class="st0" d="M1622.6,466.8l0.4,0c1.4-0.2,2.3-1.5,2.1-2.9c-0.6-3.9-1.5-7.7-2.7-11.5l-0.1-0.3l-0.2-0.3
		c-2.3-3.6-5.9-8.8-10.6-15.5c-0.8-1.1-2.3-1.4-3.5-0.6c-1.1,0.8-1.4,2.3-0.6,3.5c4.6,6.4,8,11.5,10.3,15c1,3.4,1.8,6.9,2.4,10.5
		C1620.3,465.9,1621.3,466.8,1622.6,466.8z"/>
</g>
</svg>
