<?xml version="1.0" encoding="utf-8"?>
<!-- Generator: Adobe Illustrator 25.0.0, SVG Export Plug-In . SVG Version: 6.00 Build 0)  -->
<svg version="1.1" id="Montreal__Pit_Road" xmlns="http://www.w3.org/2000/svg" xmlns:xlink="http://www.w3.org/1999/xlink" x="0px"
	 y="0px" viewBox="0 0 1920 1080" style="enable-background:new 0 0 1920 1080;" xml:space="preserve">
<style type="text/css">
	.st0{fill:#016699;}
	.st1{fill:#D82520;}
</style>
<g id="Mergeline">
	<path class="st0" d="M114.5,665.8c-4.4,0.5-8.3,0.8-11.9,0.8c0,0,0,0,0,0c-6,0-11.3-0.7-15.8-2.1c-2.6-0.8-5.4,0.6-6.3,3.3
		c-0.8,2.6,0.6,5.4,3.3,6.3c5.5,1.7,11.6,2.6,18.8,2.6c0,0,0,0,0,0c4,0,8.2-0.3,13-0.8c2.7-0.3,4.7-2.8,4.4-5.5
		C119.7,667.4,117.3,665.5,114.5,665.8z"/>
	<path class="st0" d="M65.7,628.8l0-0.4c0-2.4,0.3-4.8,0.9-7.1c0.7-2.7-0.9-5.4-3.6-6.1c-2.7-0.7-5.4,0.9-6.1,3.6
		c-0.8,3.1-1.2,6.3-1.2,9.6l0,0.6c0.1,8.6,1.4,16.1,3.9,22.4c0.8,2,2.7,3.2,4.7,3.2c0.6,0,1.2-0.1,1.8-0.3c2.6-1,3.8-3.9,2.8-6.5
		C66.8,642.5,65.8,636.1,65.7,628.8z"/>
	<path class="st0" d="M83.6,600.9l12.1,24.5l9-4.4l-14.4-29c0-0.1-0.1-0.2-0.1-0.3c0-0.1-0.1-0.1-0.1-0.2l-14.3-28.8l-9,4.4
		l12.3,24.7c-0.6,0.3-1.2,0.7-1.8,1.1c-2.3,1.5-3,4.6-1.6,6.9c1,1.5,2.6,2.3,4.2,2.3c0.9,0,1.8-0.2,2.7-0.8
		C83,601.3,83.3,601.1,83.6,600.9z"/>
	<path class="st0" d="M234.8,658.4C234.8,658.4,234.8,658.4,234.8,658.4c-10,0-20.2,0.2-30.1,0.4c-2.8,0.1-4.9,2.4-4.9,5.1
		c0.1,2.7,2.3,4.9,5,4.9c0,0,0.1,0,0.1,0c9.9-0.3,19.9-0.4,29.9-0.4c2.8,0,5-2.2,5-5C239.8,660.6,237.5,658.4,234.8,658.4z"/>
	<path class="st0" d="M174.5,660.2c-10,0.6-20.1,1.3-30.1,2.2c-2.8,0.2-4.8,2.7-4.5,5.4c0.2,2.6,2.4,4.6,5,4.6c0.1,0,0.3,0,0.4,0
		c9.9-0.9,19.9-1.6,29.8-2.2c2.8-0.2,4.9-2.5,4.7-5.3C179.6,662.1,177.3,660,174.5,660.2z"/>
</g>
<g id="Pitroad">
	<path class="st1" d="M559.4,674.7h-30c-1.4,0-2.5,1.1-2.5,2.5s1.1,2.5,2.5,2.5h30c1.4,0,2.5-1.1,2.5-2.5S560.8,674.7,559.4,674.7z"
		/>
	<path class="st1" d="M499.4,674.7h-30c-1.4,0-2.5,1.1-2.5,2.5s1.1,2.5,2.5,2.5h30c1.4,0,2.5-1.1,2.5-2.5S500.8,674.7,499.4,674.7z"
		/>
	<path class="st1" d="M439.4,674.7h-30c-1.4,0-2.5,1.1-2.5,2.5s1.1,2.5,2.5,2.5h30c1.4,0,2.5-1.1,2.5-2.5S440.8,674.7,439.4,674.7z"
		/>
	<path class="st1" d="M319.4,674.7L319.4,674.7c-1.4-0.2-10.9-1.5-26.3-4.4l-2.6-0.6c-1.3-0.3-2.7,0.5-3,1.8c-0.3,1.3,0.5,2.7,1.8,3
		l2.7,0.6l0.1,0c16.7,3.1,26.7,4.4,26.8,4.5l0.5,0c1.4,0,2.5-1.1,2.5-2.5S320.8,674.7,319.4,674.7z"/>
	<path class="st1" d="M379.4,674.7h-30c-1.4,0-2.5,1.1-2.5,2.5s1.1,2.5,2.5,2.5h30c1.4,0,2.5-1.1,2.5-2.5S380.8,674.7,379.4,674.7z"
		/>
	<path class="st1" d="M796.9,690.4l-30-0.2c0,0,0,0,0,0c-1.4,0-2.5,1.1-2.5,2.5c0,1.4,1.1,2.5,2.5,2.5l30,0.2c0,0,0,0,0,0
		c1.4,0,2.5-1.1,2.5-2.5C799.4,691.5,798.2,690.4,796.9,690.4z"/>
	<path class="st1" d="M619.4,674.7h-30c-1.4,0-2.5,1.1-2.5,2.5s1.1,2.5,2.5,2.5h30c1.4,0,2.5-1.1,2.5-2.5S620.8,674.7,619.4,674.7z"
		/>
	<path class="st1" d="M736.9,690.1l-30-0.2c0,0,0,0,0,0c-1.4,0-2.5,1.1-2.5,2.5c0,1.4,1.1,2.5,2.5,2.5l30,0.2c0,0,0,0,0,0
		c1.4,0,2.5-1.1,2.5-2.5C739.4,691.2,738.2,690.1,736.9,690.1z"/>
	<path class="st1" d="M677.5,688.6c-4.1-0.9-8.4-2.1-12.9-3.5c-1.2-0.6-8.2-4-14.8-6.7c-1.3-0.5-2.7,0.1-3.3,1.4
		c-0.5,1.3,0.1,2.7,1.4,3.3c7,2.9,14.5,6.6,14.6,6.7l0.4,0.1c4.7,1.5,9.2,2.8,13.5,3.7c0.2,0,0.4,0.1,0.5,0.1c1.1,0,2.2-0.8,2.4-2
		C679.7,690.2,678.9,688.9,677.5,688.6z"/>
	<polygon class="st1" points="234.8,663.4 276.4,686.5 270.6,667.3 280.4,649.7 	"/>
</g>
</svg>
