<?xml version="1.0" encoding="utf-8"?>
<!-- Generator: Adobe Illustrator 24.0.1, SVG Export Plug-In . SVG Version: 6.00 Build 0)  -->
<svg version="1.1" id="Pit_Road" xmlns="http://www.w3.org/2000/svg" xmlns:xlink="http://www.w3.org/1999/xlink" x="0px" y="0px"
	 viewBox="0 0 1920 1080" style="enable-background:new 0 0 1920 1080;" xml:space="preserve">
<style type="text/css">
	.st0{fill:#D82520;}
</style>
<title>pitroad</title>
<g>
	<path class="st0" d="M1782,885.5c-0.2-1.3-0.3-2.5-0.3-3.7c0-0.9,0.1-1.8,0.3-2.7c0.3-1.3-0.6-2.7-1.9-3c-1.3-0.3-2.7,0.6-3,1.9
		c-0.3,1.2-0.4,2.4-0.4,3.7c0,1.5,0.2,3,0.4,4.4c0.1,1,0.2,2,0.3,3c0,0.1,0,0.3,0,0.4c0,3.2-1.4,6.1-3.9,8.1c-2.7,1.9-4.5,3.3-6,4.5
		c-1.1,0.9-1.2,2.5-0.3,3.5c0.5,0.6,1.2,0.9,1.9,0.9c0.6,0,1.1-0.2,1.6-0.6c1.3-1.1,3.1-2.5,5.7-4.3l0.1-0.1c3.7-2.9,5.8-7.3,5.8-12
		c0-0.2,0-0.5,0-0.7C1782.3,887.7,1782.2,886.6,1782,885.5z"/>
	<path class="st0" d="M1748.7,920.8c-3.5,0.4-8.2,0.8-12.5,1.3c-2.6,0.3-5,0.5-6.8,0.7c-2.9,0.3-6.5,0.6-10.6,1
		c-1.4,0.1-2.4,1.3-2.3,2.7c0.1,1.3,1.2,2.3,2.5,2.3c0.1,0,0.2,0,0.2,0c4.2-0.4,7.8-0.7,10.7-1c1.8-0.2,4.2-0.4,6.7-0.7
		c4.2-0.4,9-0.9,12.5-1.3c1.4-0.1,2.4-1.4,2.2-2.7C1751.3,921.6,1750.1,920.6,1748.7,920.8z"/>
	<path class="st0" d="M1629,931.5c-17.5,1.4-30,2.5-30,2.5c-1.4,0.1-2.4,1.3-2.3,2.7c0.1,1.3,1.2,2.3,2.5,2.3c0.1,0,0.1,0,0.2,0
		c0,0,12.5-1,30-2.5c1.4-0.1,2.4-1.3,2.3-2.7C1631.6,932.4,1630.4,931.3,1629,931.5z"/>
	<path class="st0" d="M1688.9,926.4c-9.7,0.8-19.9,1.7-29.9,2.5c-1.4,0.1-2.4,1.3-2.3,2.7c0.1,1.3,1.2,2.3,2.5,2.3
		c0.1,0,0.1,0,0.2,0c10-0.8,20.3-1.7,30-2.6c1.4-0.1,2.4-1.3,2.3-2.7C1691.5,927.3,1690.3,926.3,1688.9,926.4z"/>
	<path class="st0" d="M1790.7,555.6c1.4-0.2,2.3-1.4,2.2-2.8c-1-7.8-4-18.8-17.7-25.4c-1.2-0.6-2.7-0.1-3.3,1.2
		c-0.6,1.2-0.1,2.7,1.2,3.3c11.4,5.4,14,14.3,14.9,21.5c0.2,1.3,1.2,2.2,2.5,2.2C1790.5,555.6,1790.6,555.6,1790.7,555.6z"/>
	<path class="st0" d="M1794.9,796C1794.9,796,1794.9,796,1794.9,796c1.4,0,2.5-1.1,2.5-2.5c-0.1-9.3-0.1-19.5-0.2-30.1
		c0-1.4-1.1-2.5-2.5-2.5c0,0,0,0,0,0c-1.4,0-2.5,1.1-2.5,2.5c0.1,10.6,0.2,20.7,0.2,30.1C1792.4,794.9,1793.5,796,1794.9,796z"/>
	<path class="st0" d="M1797.5,823.5c0-1.4-1.1-2.5-2.5-2.5c-1.4,0-2.5,1.1-2.5,2.5c0.1,18.3,0.1,29.6,0.1,29.6c0,0.2,0,0.3,0,0.5
		c-0.1,1.4,1,2.6,2.4,2.6c0,0,0.1,0,0.1,0c1.3,0,2.4-1,2.5-2.4c0-0.2,0-0.5,0-0.7C1797.7,853.1,1797.6,841.8,1797.5,823.5z"/>
	<path class="st0" d="M1792.6,615.7C1792.7,615.7,1792.7,615.7,1792.6,615.7c1.4,0,2.5-1.2,2.5-2.6c-0.3-11.3-0.5-21.4-0.8-30.1
		c0-1.4-1.2-2.5-2.6-2.4c-1.4,0-2.5,1.2-2.4,2.6c0.3,8.7,0.5,18.8,0.8,30C1790.2,614.6,1791.3,615.7,1792.6,615.7z"/>
	<path class="st0" d="M1793.7,675.8C1793.7,675.8,1793.7,675.8,1793.7,675.8c1.4,0,2.5-1.2,2.5-2.5c-0.1-10.2-0.3-20.3-0.5-30.1
		c0-1.4-1.1-2.5-2.5-2.5c0,0,0,0,0,0c-1.4,0-2.5,1.2-2.5,2.5c0.2,9.8,0.3,19.8,0.5,30C1791.2,674.7,1792.3,675.8,1793.7,675.8z"/>
	<path class="st0" d="M1794.4,735.9C1794.4,735.9,1794.4,735.9,1794.4,735.9c1.4,0,2.5-1.1,2.5-2.5c-0.1-9.9-0.2-19.9-0.3-30.1
		c0-1.4-1.1-2.5-2.5-2.5c0,0,0,0,0,0c-1.4,0-2.5,1.1-2.5,2.5c0.1,10.1,0.2,20.2,0.3,30C1791.9,734.7,1793,735.9,1794.4,735.9z"/>
	<path class="st0" d="M1712.9,523c0.4,0.5,1.1,0.9,1.8,0.9c11.9,0.8,22,1.6,29.9,2.3c0.1,0,0.2,0,0.2,0c1.3,0,2.4-1,2.5-2.3
		c0.1-1.4-0.9-2.6-2.3-2.7c-7.9-0.7-18-1.5-30-2.3c-0.8,0-1.5,0.3-2,0.8l8.2-16.5l-44.9,15.9l42.8,21L1712.9,523z M1712.4,521.1
		c0,0.1,0,0.2,0,0.2c0,0.1,0,0.1,0,0.2l-0.1-0.2L1712.4,521.1z"/>
</g>
</svg>
