<?xml version="1.0" encoding="utf-8"?>
<!-- Generator: Adobe Illustrator 24.0.1, SVG Export Plug-In . SVG Version: 6.00 Build 0)  -->
<svg version="1.1" id="Homestead_Road_B__Pit_Road" xmlns="http://www.w3.org/2000/svg" xmlns:xlink="http://www.w3.org/1999/xlink"
	 x="0px" y="0px" viewBox="0 0 1920 1080" style="enable-background:new 0 0 1920 1080;" xml:space="preserve">
<style type="text/css">
	.st0{fill:#D82520;}
</style>
<title>pitroad</title>
<g id="Pitroad">
	<path class="st0" d="M296.9,223.3c-8.9,4.8-17.7,9.9-26.1,15.1c-1.2,0.7-1.5,2.3-0.8,3.4c0.5,0.8,1.3,1.2,2.1,1.2
		c0.5,0,0.9-0.1,1.3-0.4c8.3-5.2,17-10.2,25.8-15c1.2-0.7,1.7-2.2,1-3.4C299.6,223.1,298.1,222.6,296.9,223.3z"/>
	<path class="st0" d="M294.4,830.4c-8.3-5.6-16.5-11.4-24.3-17.3c-1.1-0.8-2.7-0.6-3.5,0.5c-0.8,1.1-0.6,2.7,0.5,3.5
		c7.9,5.9,16.1,11.8,24.6,17.4c0.4,0.3,0.9,0.4,1.4,0.4c0.8,0,1.6-0.4,2.1-1.1C295.9,832.7,295.6,831.1,294.4,830.4z"/>
	<path class="st0" d="M347,857.6c-13-4.7-22-8.9-27.3-11.6c-1.2-0.6-2.7-0.1-3.4,1.1c-0.6,1.2-0.1,2.7,1.1,3.4
		c5.4,2.7,14.6,7,27.9,11.8c0.3,0.1,0.6,0.2,0.9,0.2c1,0,2-0.6,2.3-1.6C348.9,859.5,348.3,858.1,347,857.6z"/>
	<path class="st0" d="M245.7,255.3c-8.2,6-16.2,12.2-23.8,18.6c-1.1,0.9-1.2,2.5-0.3,3.5c0.5,0.6,1.2,0.9,1.9,0.9
		c0.6,0,1.1-0.2,1.6-0.6c7.5-6.3,15.4-12.5,23.5-18.4c1.1-0.8,1.4-2.4,0.6-3.5C248.4,254.7,246.8,254.4,245.7,255.3z"/>
	<path class="st0" d="M224.7,774.4c-1-1-2.6-0.9-3.5,0.1c-1,1-0.9,2.6,0.1,3.5c7.1,6.9,14.6,13.7,22.3,20.2c0.5,0.4,1,0.6,1.6,0.6
		c0.7,0,1.4-0.3,1.9-0.9c0.9-1.1,0.8-2.6-0.3-3.5C239.2,788,231.7,781.2,224.7,774.4z"/>
	<path class="st0" d="M463.4,882.8c-10-1-20-2.3-29.6-3.8c-1.4-0.2-2.6,0.7-2.8,2.1c-0.2,1.4,0.7,2.6,2.1,2.8
		c9.7,1.5,19.8,2.8,29.9,3.8c0.1,0,0.2,0,0.3,0c1.3,0,2.4-1,2.5-2.2C465.7,884.2,464.7,883,463.4,882.8z"/>
	<path class="st0" d="M409.3,179.7c-12.3,3.5-18.7,5.7-19.6,6c-0.8,0.2-4,1-9.2,2.6c-1.3,0.4-2.1,1.8-1.7,3.1
		c0.3,1.1,1.3,1.8,2.4,1.8c0.2,0,0.5,0,0.7-0.1c5.5-1.6,8.7-2.4,9.1-2.5l1.9-0.5v-0.2c2.7-0.9,8.7-2.8,17.8-5.4
		c1.3-0.4,2.1-1.8,1.7-3.1S410.6,179.3,409.3,179.7z"/>
	<path class="st0" d="M404.4,873.8c-9.9-2.1-19.7-4.5-29-7.1c-1.3-0.4-2.7,0.4-3.1,1.7s0.4,2.7,1.7,3.1c9.4,2.6,19.3,5,29.3,7.1
		c0.2,0,0.3,0.1,0.5,0.1c1.2,0,2.2-0.8,2.4-2C406.6,875.4,405.7,874,404.4,873.8z"/>
	<path class="st0" d="M351.8,198.1c-9.3,3.6-18.7,7.5-27.8,11.7c-1.3,0.6-1.8,2.1-1.2,3.3c0.4,0.9,1.3,1.5,2.3,1.5
		c0.3,0,0.7-0.1,1-0.2c9.1-4.2,18.4-8.1,27.6-11.6c1.3-0.5,1.9-1.9,1.4-3.2C354.5,198.3,353.1,197.6,351.8,198.1z"/>
	<path class="st0" d="M467.5,164.9c-10.1,2.3-19.9,4.6-29.2,7c-1.3,0.3-2.2,1.7-1.8,3c0.3,1.1,1.3,1.9,2.4,1.9c0.2,0,0.4,0,0.6-0.1
		c9.3-2.3,19.1-4.7,29.1-7c1.3-0.3,2.2-1.6,1.9-3C470.2,165.5,468.9,164.6,467.5,164.9z"/>
	<path class="st0" d="M108.6,539.3c-0.7-8.3-1-16.7-1-24.7c0-1.7,0-3.4,0-5c0-1.4-1.1-2.5-2.5-2.5c-1.4,0-2.5,1.1-2.5,2.5
		c0,1.6,0,3.3,0,5.1c0,8.2,0.3,16.7,1,25.1c0.1,1.3,1.2,2.3,2.5,2.3c0.1,0,0.1,0,0.2,0C107.7,541.8,108.8,540.6,108.6,539.3z"/>
	<path class="st0" d="M124.1,422.3c3.2-9.4,6.9-18.6,11-27.6c0.6-1.3,0-2.7-1.2-3.3c-1.3-0.6-2.7,0-3.3,1.2
		c-4.1,9.1-7.9,18.5-11.2,28.1c-0.4,1.3,0.2,2.7,1.6,3.2c0.3,0.1,0.5,0.1,0.8,0.1C122.8,424,123.7,423.3,124.1,422.3z"/>
	<path class="st0" d="M112.3,568.8c-0.2-1.4-1.5-2.3-2.9-2c-1.4,0.2-2.3,1.5-2,2.9c1.7,9.9,3.8,19.8,6.4,29.5
		c0.3,1.1,1.3,1.9,2.4,1.9c0.2,0,0.4,0,0.6-0.1c1.3-0.3,2.1-1.7,1.8-3.1C116.1,588.3,114,578.5,112.3,568.8z"/>
	<path class="st0" d="M556.4,152.3c0.1,0,0.3,0,0.4,0c8.7-1.5,17.6-3,26.5-4.4c1.4-0.2,2.3-1.5,2.1-2.9c-0.2-1.4-1.5-2.3-2.9-2.1
		c-8.9,1.4-17.9,2.9-26.6,4.4c-1.4,0.2-2.3,1.5-2,2.9C554.1,151.5,555.2,152.3,556.4,152.3z"/>
	<path class="st0" d="M148.6,368.2c4.9-8.5,10.3-17,16-25.1c0.8-1.1,0.5-2.7-0.6-3.5c-1.1-0.8-2.7-0.5-3.5,0.6
		c-5.8,8.2-11.3,16.8-16.3,25.5c-0.7,1.2-0.3,2.7,0.9,3.4c0.4,0.2,0.8,0.3,1.2,0.3C147.3,369.5,148.2,369,148.6,368.2z"/>
	<path class="st0" d="M151.9,680.6c-0.7-1.2-2.2-1.6-3.4-1c-1.2,0.7-1.6,2.2-1,3.4c4.8,8.7,10.1,17.4,15.7,25.8
		c0.5,0.7,1.3,1.1,2.1,1.1c0.5,0,1-0.1,1.4-0.4c1.2-0.8,1.5-2.3,0.7-3.5C161.8,697.8,156.6,689.2,151.9,680.6z"/>
	<path class="st0" d="M182.9,319.6c6.3-7.5,13.2-14.8,20.2-21.8c1-1,1-2.6,0-3.5c-1-1-2.6-1-3.5,0c-7.2,7.1-14.1,14.6-20.5,22.2
		c-0.9,1.1-0.8,2.6,0.3,3.5c0.5,0.4,1,0.6,1.6,0.6C181.7,320.5,182.4,320.2,182.9,319.6z"/>
	<path class="st0" d="M184.8,730.2c-0.8-1.1-2.4-1.3-3.5-0.4c-1.1,0.8-1.3,2.4-0.4,3.5c6.1,7.8,12.6,15.6,19.4,23.1
		c0.5,0.5,1.2,0.8,1.9,0.8c0.6,0,1.2-0.2,1.7-0.6c1-0.9,1.1-2.5,0.2-3.5C197.3,745.6,190.8,738,184.8,730.2z"/>
	<path class="st0" d="M127.4,626.4c-0.5-1.3-1.9-2-3.2-1.5c-1.3,0.5-2,1.9-1.5,3.2c3.3,9.4,7.1,18.8,11.3,28
		c0.4,0.9,1.3,1.5,2.3,1.5c0.3,0,0.7-0.1,1-0.2c1.3-0.6,1.8-2.1,1.2-3.3C134.4,645,130.7,635.7,127.4,626.4z"/>
	<path class="st0" d="M107.1,482c0.1,0,0.3,0,0.4,0c0.9,0,1.8-0.5,2.2-1.3l0.2-0.1l0.2-1.5c1.5-9.6,3.4-19.1,5.6-28.4
		c0.3-1.3-0.5-2.7-1.8-3c-1.3-0.3-2.7,0.5-3,1.8c-2.3,9.4-4.2,19.1-5.7,28.8l0,0c-0.1,0.3-0.1,0.5-0.1,0.8
		C104.8,480.5,105.8,481.8,107.1,482z"/>
	<path class="st0" d="M1123,886.9l-30-0.1c0,0,0,0,0,0c-1.4,0-2.5,1.1-2.5,2.5c0,1.4,1.1,2.5,2.5,2.5l30,0.1c0,0,0,0,0,0
		c1.4,0,2.5-1.1,2.5-2.5C1125.5,888,1124.4,886.9,1123,886.9z"/>
	<path class="st0" d="M1183,887.1l-30-0.1c0,0,0,0,0,0c-1.4,0-2.5,1.1-2.5,2.5c0,1.4,1.1,2.5,2.5,2.5l30,0.1c0,0,0,0,0,0
		c1.4,0,2.5-1.1,2.5-2.5C1185.5,888.3,1184.4,887.1,1183,887.1z"/>
	<path class="st0" d="M1003,886.4l-30-0.1c0,0,0,0,0,0c-1.4,0-2.5,1.1-2.5,2.5c0,1.4,1.1,2.5,2.5,2.5l30,0.1c0,0,0,0,0,0
		c1.4,0,2.5-1.1,2.5-2.5C1005.5,887.6,1004.4,886.4,1003,886.4z"/>
	<path class="st0" d="M1243,887.4l-30-0.1c0,0,0,0,0,0c-1.4,0-2.5,1.1-2.5,2.5c0,1.4,1.1,2.5,2.5,2.5l30,0.1c0,0,0,0,0,0
		c1.4,0,2.5-1.1,2.5-2.5C1245.5,888.5,1244.4,887.4,1243,887.4z"/>
	<path class="st0" d="M1063,886.7l-30-0.1c0,0,0,0,0,0c-1.4,0-2.5,1.1-2.5,2.5c0,1.4,1.1,2.5,2.5,2.5l30,0.1c0,0,0,0,0,0
		c1.4,0,2.5-1.1,2.5-2.5C1065.5,887.8,1064.4,886.7,1063,886.7z"/>
	<path class="st0" d="M1473.8,862.7l-24.2,17.7c-1.1,0.8-1.4,2.4-0.5,3.5c0.5,0.7,1.3,1,2,1c0.5,0,1-0.2,1.5-0.5l24.2-17.7
		c1.1-0.8,1.4-2.4,0.5-3.5C1476.5,862.1,1474.9,861.9,1473.8,862.7z"/>
	<path class="st0" d="M1423,886.2C1423,886.2,1423,886.2,1423,886.2l-30,0.6c-1.4,0-2.5,1.2-2.4,2.5c0,1.4,1.1,2.4,2.5,2.4
		c0,0,0,0,0.1,0l30-0.6c1.4,0,2.5-1.2,2.4-2.5C1425.5,887.3,1424.4,886.2,1423,886.2z"/>
	<path class="st0" d="M1363,887.5C1363,887.5,1363,887.5,1363,887.5l-16.2,0.3l-13.8-0.1c0,0,0,0,0,0c-1.4,0-2.5,1.1-2.5,2.5
		c0,1.4,1.1,2.5,2.5,2.5l13.8,0.1l16.2-0.3c1.4,0,2.5-1.2,2.4-2.5C1365.5,888.5,1364.4,887.5,1363,887.5z"/>
	<path class="st0" d="M523,884.6l-30-0.1c0,0,0,0,0,0c-1.4,0-2.5,1.1-2.5,2.5c0,1.4,1.1,2.5,2.5,2.5l30,0.1c0,0,0,0,0,0
		c1.4,0,2.5-1.1,2.5-2.5C525.5,885.7,524.4,884.6,523,884.6z"/>
	<path class="st0" d="M1303,887.6l-30-0.1c-1.4,0-2.5,1.1-2.5,2.5c0,1.4,1.1,2.5,2.5,2.5l30,0.1c0,0,0,0,0,0c1.4,0,2.5-1.1,2.5-2.5
		C1305.5,888.7,1304.4,887.6,1303,887.6z"/>
	<path class="st0" d="M643,885l-30-0.1c0,0,0,0,0,0c-1.4,0-2.5,1.1-2.5,2.5c0,1.4,1.1,2.5,2.5,2.5l30,0.1c0,0,0,0,0,0
		c1.4,0,2.5-1.1,2.5-2.5C645.5,886.2,644.4,885,643,885z"/>
	<path class="st0" d="M703,885.3l-30-0.1c0,0,0,0,0,0c-1.4,0-2.5,1.1-2.5,2.5c0,1.4,1.1,2.5,2.5,2.5l30,0.1c0,0,0,0,0,0
		c1.4,0,2.5-1.1,2.5-2.5C705.5,886.4,704.4,885.3,703,885.3z"/>
	<path class="st0" d="M583,884.8l-30-0.1c0,0,0,0,0,0c-1.4,0-2.5,1.1-2.5,2.5c0,1.4,1.1,2.5,2.5,2.5l30,0.1c0,0,0,0,0,0
		c1.4,0,2.5-1.1,2.5-2.5C585.5,885.9,584.4,884.8,583,884.8z"/>
	<path class="st0" d="M526.4,152.7c-10,1.9-19.9,3.8-29.5,5.8c-1.4,0.3-2.2,1.6-1.9,3c0.2,1.2,1.3,2,2.4,2c0.2,0,0.3,0,0.5-0.1
		c9.6-2,19.4-3.9,29.4-5.8c1.4-0.3,2.2-1.6,2-2.9C529.1,153.4,527.7,152.5,526.4,152.7z"/>
	<path class="st0" d="M943,886.2l-30-0.1c0,0,0,0,0,0c-1.4,0-2.5,1.1-2.5,2.5c0,1.4,1.1,2.5,2.5,2.5l30,0.1c0,0,0,0,0,0
		c1.4,0,2.5-1.1,2.5-2.5C945.5,887.3,944.4,886.2,943,886.2z"/>
	<path class="st0" d="M883,886l-30-0.1c0,0,0,0,0,0c-1.4,0-2.5,1.1-2.5,2.5c0,1.4,1.1,2.5,2.5,2.5l30,0.1c0,0,0,0,0,0
		c1.4,0,2.5-1.1,2.5-2.5C885.5,887.1,884.4,886,883,886z"/>
	<path class="st0" d="M763,885.5l-30-0.1c0,0,0,0,0,0c-1.4,0-2.5,1.1-2.5,2.5c0,1.4,1.1,2.5,2.5,2.5l30,0.1c0,0,0,0,0,0
		c1.4,0,2.5-1.1,2.5-2.5C765.5,886.6,764.4,885.5,763,885.5z"/>
	<path class="st0" d="M823,885.7l-30-0.1c-1.4,0-2.5,1.1-2.5,2.5c0,1.4,1.1,2.5,2.5,2.5l30,0.1c0,0,0,0,0,0c1.4,0,2.5-1.1,2.5-2.5
		C825.5,886.9,824.4,885.7,823,885.7z"/>
	<path class="st0" d="M1547.9,811.7l-46.4,10.9l14.9,8.9l-18.4,13.4c-1.1,0.8-1.4,2.4-0.5,3.5c0.5,0.7,1.3,1,2,1
		c0.5,0,1-0.2,1.5-0.5l18.4-13.4l4,16.9L1547.9,811.7z"/>
</g>
</svg>
