<svg id="Legends_Oval_-_Pit_Road" data-name="Legends Oval - Pit Road" xmlns="http://www.w3.org/2000/svg" viewBox="0 0 1920 1080"><defs><style>.cls-1{fill:#d82520;}</style></defs><title>pitroad</title><g id="Pitroad"><path class="cls-1" d="M1511.28,616.54a90.23,90.23,0,0,1,.93-12.77,2.5,2.5,0,0,0-4.94-.73,94.62,94.62,0,0,0-1,13.5c0,7,.83,12.87,2.45,17.43a2.5,2.5,0,0,0,2.36,1.66,2.41,2.41,0,0,0,.83-.14,2.51,2.51,0,0,0,1.52-3.2C1512,628.33,1511.28,622.88,1511.28,616.54Z"/><path class="cls-1" d="M1549.14,522.66c3.27-8.53,6-16.62,8.21-23.12.64-1.9,1.24-3.67,1.79-5.28a2.5,2.5,0,1,0-4.72-1.63c-.56,1.62-1.16,3.4-1.81,5.31-2.18,6.46-4.9,14.49-8.14,22.93a2.51,2.51,0,0,0,1.44,3.23,2.59,2.59,0,0,0,.9.16A2.5,2.5,0,0,0,1549.14,522.66Z"/><path class="cls-1" d="M1536.75,550.32a2.5,2.5,0,1,0-4.4-2.37c-1.26,2.34-2.55,4.58-3.83,6.66-4,6.49-7.65,13.07-10.89,19.57a2.51,2.51,0,0,0,1.13,3.36,2.61,2.61,0,0,0,1.11.26,2.5,2.5,0,0,0,2.24-1.39c3.17-6.37,6.76-12.82,10.67-19.18C1534.11,555.07,1535.44,552.75,1536.75,550.32Z"/><path class="cls-1" d="M1529,662.32l-2.11-3.7a2.5,2.5,0,0,0-4.35,2.48l2.12,3.71c4.15,7.26,8.45,14.76,12.44,22.44a2.5,2.5,0,0,0,4.44-2.31C1537.49,677.18,1533.17,669.63,1529,662.32Z"/><path class="cls-1" d="M1553.62,712.84a2.5,2.5,0,0,0-4.76,1.52,66.27,66.27,0,0,1,3.57,20c0,1.26-.06,2.52-.17,3.72l0,.3,0,.28a23.92,23.92,0,0,1,.13,2.8c0,.49,0,1.05,0,1.66a2.49,2.49,0,0,0,2.4,2.59h.1a2.49,2.49,0,0,0,2.49-2.4c0-.68,0-1.3,0-1.85,0-1.61-.09-2.68-.14-3.18.11-1.28.17-2.59.17-3.92A71.13,71.13,0,0,0,1553.62,712.84Z"/><path class="cls-1" d="M1571,778.85l-2.27,1.64a9.21,9.21,0,0,1-5.23,1.5,13.87,13.87,0,0,1-7.84-2.76c-2-1.37-3.14-3.7-3.48-6.94a2.5,2.5,0,1,0-5,.53c.49,4.68,2.43,8.31,5.61,10.52a18.71,18.71,0,0,0,10.68,3.65,14.09,14.09,0,0,0,8.24-2.51l2.18-1.57a2.5,2.5,0,1,0-2.92-4.06Z"/><path class="cls-1" d="M1631.27,738.57l-46.44,10.6,14.87,9-4.35,3.13a2.5,2.5,0,0,0,1.46,4.53,2.47,2.47,0,0,0,1.46-.47l4.35-3.13,3.83,17Z"/></g></svg>