<svg id="First_Chicane_-_Pit_Road" data-name="First Chicane - Pit Road" xmlns="http://www.w3.org/2000/svg" viewBox="0 0 1920 1080"><defs><style>.cls-1{fill:#0089ba;}.cls-2{fill:#d82520;}</style></defs><title>pitroad</title><g id="Mergeline"><path class="cls-1" d="M1613.48,302.54c-15,1.15-29.71,1.8-29.86,1.81a5,5,0,0,0,.22,10h.23c.15,0,15-.67,30.17-1.83a5,5,0,0,0-.76-10Z"/><path class="cls-1" d="M1673.5,297.53c-5.8.17-11.45.45-16.44.69l-3,.14c-3.75.17-7.44.48-11,.91a5,5,0,0,0,.6,10c.19,0,.4,0,.6,0,3.3-.4,6.76-.69,10.27-.85l3-.15c5-.23,10.55-.5,16.27-.68a5,5,0,0,0-.31-10Z"/><path class="cls-1" d="M1771.75,356.08a5,5,0,0,0,8-6c-4.37-5.79-7.46-9.81-9.2-11.95a87.75,87.75,0,0,0-11.41-11.27,5,5,0,0,0-6.46,7.63,79,79,0,0,1,10.1,9.93C1764.44,346.46,1767.46,350.38,1771.75,356.08Z"/><path class="cls-1" d="M1734.12,308.93c-4.22-2.58-8.21-4.8-11.56-6.43-4.37-2.13-10.39-3.55-18.42-4.37a5,5,0,1,0-1,9.95c6.75.69,11.81,1.83,15,3.41,3.07,1.49,6.77,3.56,10.72,6a5,5,0,1,0,5.22-8.53Z"/><rect class="cls-1" x="1755.26" y="364.22" width="65" height="10" transform="translate(138.42 1151.57) rotate(-37.05)"/></g><g id="Pitroad"><path class="cls-2" d="M1156.26,305.86l-30-.64a2.5,2.5,0,1,0-.11,5l30,.65h.06a2.5,2.5,0,0,0,0-5Z"/><path class="cls-2" d="M977,292.62l-30,.59a2.5,2.5,0,0,0,0,5h.06l30-.59a2.5,2.5,0,1,0-.09-5Z"/><path class="cls-2" d="M1096.41,304.11c-9.87-.68-19.85-1.71-29.66-3.08a2.5,2.5,0,1,0-.69,5c9.92,1.39,20,2.43,30,3.12h.17a2.5,2.5,0,0,0,.17-5Z"/><path class="cls-2" d="M1037.21,296.09a300.21,300.21,0,0,0-30.07-3.2,2.48,2.48,0,0,0-2.64,2.35,2.51,2.51,0,0,0,2.36,2.64,296.43,296.43,0,0,1,29.57,3.15,2.56,2.56,0,0,0,.39,0,2.5,2.5,0,0,0,.39-5Z"/><path class="cls-2" d="M917,293.85c-9.83.22-19.91.46-30,.71a2.5,2.5,0,0,0,.06,5h.06c10.09-.25,20.17-.49,30-.71a2.5,2.5,0,0,0-.11-5Z"/><path class="cls-2" d="M803.2,329.38c-8.16,4.91-16.73,10.34-25.47,16.14a2.5,2.5,0,1,0,2.76,4.17c8.69-5.76,17.2-11.15,25.29-16a2.5,2.5,0,0,0-2.58-4.29Z"/><path class="cls-2" d="M857.11,302a272.77,272.77,0,0,0-27.58,12.57,2.5,2.5,0,0,0,2.3,4.44,265,265,0,0,1,27.07-12.34,2.5,2.5,0,0,0-1.79-4.67Z"/><path class="cls-2" d="M752.91,362.63c-14.58,10.43-24.18,18-24.27,18a2.5,2.5,0,0,0,3.09,3.93c.09-.08,9.61-7.54,24.09-17.9a2.5,2.5,0,0,0-2.91-4.07Z"/><path class="cls-2" d="M1396.21,306.42l-30-.06h0a2.5,2.5,0,1,0,0,5l30,.06h0a2.5,2.5,0,0,0,0-5Z"/><path class="cls-2" d="M1456.21,306.56l-30-.07h0a2.5,2.5,0,0,0,0,5l30,.07h0a2.5,2.5,0,0,0,0-5Z"/><path class="cls-2" d="M1516.21,306.69l-30-.06h0a2.5,2.5,0,1,0,0,5l30,.06h0a2.5,2.5,0,0,0,0-5Z"/><path class="cls-2" d="M1276.21,306.22l-30,0h0a2.5,2.5,0,1,0,0,5l30,0h0a2.5,2.5,0,0,0,0-5Z"/><path class="cls-2" d="M1336.21,306.3l-30,0h0a2.5,2.5,0,0,0,0,5l30,0h0a2.5,2.5,0,0,0,0-5Z"/><path class="cls-2" d="M1216.21,306.13l-30,0h0a2.5,2.5,0,0,0,0,5l30,0h0a2.5,2.5,0,0,0,0-5Z"/><path class="cls-2" d="M1583.85,309.35,1540,290.73l6.76,16h-.56a2.5,2.5,0,0,0,0,5h.55l-6.84,16Z"/></g></svg>