<?xml version="1.0" encoding="utf-8"?>
<!-- Generator: Adobe Illustrator 24.0.1, SVG Export Plug-In . SVG Version: 6.00 Build 0)  -->
<svg version="1.1" id="Oval_-_Pit_Road" xmlns="http://www.w3.org/2000/svg" xmlns:xlink="http://www.w3.org/1999/xlink" x="0px"
	 y="0px" viewBox="0 0 1920 1080" style="enable-background:new 0 0 1920 1080;" xml:space="preserve">
<style type="text/css">
	.st0{fill:#016699;}
	.st1{fill:#D82520;}
</style>
<title>pitroad</title>
<g id="Mergeline">
	<path class="st0" d="M1593.1,82.5c-9.3-3.2-19-6.3-28.8-9.1c-2.7-0.8-5.4,0.8-6.2,3.4c-0.8,2.7,0.8,5.4,3.4,6.2
		c9.6,2.8,19.2,5.8,28.3,9c0.5,0.2,1.1,0.3,1.6,0.3c2.1,0,4-1.3,4.7-3.4C1597.1,86.2,1595.7,83.4,1593.1,82.5z"/>
	<path class="st0" d="M1585.5,772.3c-9.1,3.7-18.5,7.2-27.9,10.6c-2.6,0.9-4,3.8-3,6.4c0.7,2.1,2.7,3.3,4.7,3.3
		c0.6,0,1.1-0.1,1.7-0.3c9.6-3.4,19.1-7,28.3-10.7c2.6-1,3.8-4,2.8-6.5C1591,772.5,1588,771.3,1585.5,772.3z"/>
	<path class="st0" d="M1690.5,716.6c-8,5.5-16.4,10.9-25,16.1c-2.4,1.4-3.1,4.5-1.7,6.9c0.9,1.6,2.6,2.4,4.3,2.4
		c0.9,0,1.8-0.2,2.6-0.7c8.7-5.3,17.3-10.8,25.5-16.4c2.3-1.6,2.9-4.7,1.3-7C1695.8,715.6,1692.7,715,1690.5,716.6z"/>
	<path class="st0" d="M1649.1,105.5c-8.9-4.3-18.2-8.5-27.7-12.3c-2.6-1-5.5,0.2-6.5,2.7c-1,2.6,0.2,5.5,2.7,6.5
		c9.2,3.8,18.4,7.9,27.1,12.1c0.7,0.3,1.4,0.5,2.2,0.5c1.9,0,3.6-1,4.5-2.8C1652.6,109.7,1651.5,106.7,1649.1,105.5z"/>
	<path class="st0" d="M1639.5,747.3c-8.6,4.6-17.6,9-26.7,13.2c-2.5,1.2-3.6,4.1-2.4,6.6c0.8,1.8,2.7,2.9,4.5,2.9
		c0.7,0,1.4-0.1,2.1-0.5c9.2-4.3,18.4-8.8,27.2-13.4c2.4-1.3,3.4-4.3,2.1-6.8C1645,746.9,1642,746,1639.5,747.3z"/>
	<path class="st0" d="M1842,358c2,9.6,3.6,19.4,4.7,29.2c0.3,2.5,2.5,4.4,5,4.4c0.2,0,0.4,0,0.6,0c2.7-0.3,4.7-2.8,4.4-5.6
		c-1.2-10-2.8-20.1-4.9-30c-0.6-2.7-3.2-4.4-5.9-3.9S1841.4,355.3,1842,358z"/>
	<path class="st0" d="M1834.8,329.4c0.6,2.2,2.6,3.6,4.8,3.6c0.5,0,1-0.1,1.4-0.2c2.6-0.8,4.2-3.6,3.4-6.2
		c-2.9-9.7-6.2-19.4-9.9-28.8c-1-2.6-3.9-3.8-6.5-2.8c-2.6,1-3.8,3.9-2.8,6.5C1828.7,310.5,1832,319.9,1834.8,329.4z"/>
	<path class="st0" d="M1471.4,807.1c-15.8,3.3-25,4.5-25.1,4.5l0.6,5l-3.2,3.9c1,0.8,1.9,1.1,3,1.1c0.7,0,1.6-0.1,2.6-0.3
		c1.2-0.2,2.9-0.4,5.1-0.8c4-0.7,10.6-1.8,18.9-3.6c2.7-0.6,4.4-3.2,3.9-5.9C1476.8,808.3,1474.1,806.5,1471.4,807.1z"/>
	<path class="st0" d="M1535,65.7c-8-1.9-16.2-3.7-24.5-5.3l5.5-26.8l-9.8-2l-6.4,31.2c-0.1,0.2-0.1,0.4-0.2,0.6c0,0.2,0,0.3,0,0.5
		l-6.5,31.4l9.8,2l5.6-27.1c8.2,1.6,16.3,3.4,24.2,5.3c0.4,0.1,0.8,0.1,1.2,0.1c2.3,0,4.3-1.5,4.9-3.8
		C1539.4,69,1537.7,66.3,1535,65.7z"/>
	<path class="st0" d="M1529.2,792.2c-9.5,2.9-19.2,5.6-28.7,8.1c-2.7,0.7-4.3,3.4-3.6,6.1c0.6,2.3,2.6,3.8,4.8,3.8
		c0.4,0,0.8-0.1,1.3-0.2c9.7-2.5,19.5-5.3,29.2-8.2c2.6-0.8,4.1-3.6,3.3-6.2C1534.7,792.9,1531.9,791.4,1529.2,792.2z"/>
	<path class="st0" d="M1770.6,194.9c-1.8-2-5-2.2-7.1-0.4c-2,1.9-2.2,5-0.4,7.1c6.6,7.3,12.9,15,18.8,22.8c1,1.3,2.5,2,4,2
		c1,0,2.1-0.3,3-1c2.2-1.7,2.6-4.8,1-7C1783.9,210.3,1777.4,202.4,1770.6,194.9z"/>
	<path class="st0" d="M1822,270c-4.5-9-9.5-18-14.9-26.5c-1.5-2.3-4.5-3.1-6.9-1.6c-2.3,1.5-3.1,4.5-1.6,6.9
		c5.2,8.3,10,17,14.4,25.8c0.9,1.7,2.6,2.8,4.5,2.8c0.8,0,1.5-0.2,2.2-0.5C1822.2,275.4,1823.2,272.4,1822,270z"/>
	<path class="st0" d="M1851.4,471.4c-2.7-0.4-5.3,1.5-5.6,4.3c-1.4,9.8-3.1,19.6-5.3,29c-0.6,2.7,1.1,5.4,3.8,6
		c0.4,0.1,0.7,0.1,1.1,0.1c2.3,0,4.3-1.6,4.9-3.9c2.2-9.7,4-19.8,5.4-29.9C1856,474.3,1854.1,471.8,1851.4,471.4z"/>
	<path class="st0" d="M1839,529.9c-2.6-0.8-5.4,0.6-6.3,3.2c-3,9.4-6.4,18.7-10.2,27.6c-1.1,2.5,0.1,5.5,2.7,6.6
		c0.6,0.3,1.3,0.4,1.9,0.4c1.9,0,3.8-1.1,4.6-3.1c3.9-9.3,7.5-18.8,10.6-28.5C1843.1,533.6,1841.6,530.7,1839,529.9z"/>
	<path class="st0" d="M1858.9,416.4c-0.1-2.7-2.3-4.8-5-4.8c-0.1,0-0.1,0-0.2,0c-2.8,0.1-4.9,2.4-4.8,5.2c0.1,3.7,0.2,7.4,0.2,11.1
		c0,6.2-0.2,12.4-0.5,18.5c-0.2,2.8,2,5.1,4.7,5.3c0.1,0,0.2,0,0.3,0c2.6,0,4.8-2.1,5-4.7c0.4-6.3,0.5-12.7,0.5-19.1
		C1859.1,424,1859.1,420.1,1858.9,416.4z"/>
	<path class="st0" d="M1737,679.8c-7.2,6.6-14.8,13-22.6,19.2c-2.2,1.7-2.5,4.9-0.8,7c1,1.3,2.4,1.9,3.9,1.9c1.1,0,2.2-0.4,3.1-1.1
		c8-6.3,15.8-12.9,23.1-19.6c2-1.9,2.2-5,0.3-7.1C1742.2,678.1,1739,677.9,1737,679.8z"/>
	<path class="st0" d="M1701.7,135.5c-8.3-5.5-16.9-10.9-25.8-16c-2.4-1.4-5.5-0.5-6.8,1.9c-1.4,2.4-0.5,5.5,1.9,6.8
		c8.6,4.9,17.1,10.2,25.2,15.6c0.9,0.6,1.8,0.8,2.8,0.8c1.6,0,3.2-0.8,4.2-2.2C1704.6,140.2,1704,137.1,1701.7,135.5z"/>
	<path class="st0" d="M1726.2,153.4c-2.2-1.7-5.3-1.3-7,0.8c-1.7,2.2-1.3,5.3,0.8,7c7.8,6.1,15.3,12.6,22.4,19.3
		c1,0.9,2.2,1.3,3.4,1.3c1.3,0,2.7-0.5,3.7-1.6c1.9-2,1.8-5.2-0.2-7.1C1741.9,166.4,1734.2,159.7,1726.2,153.4z"/>
	<path class="st0" d="M1784.4,635.8c-2.2-1.7-5.3-1.4-7,0.8c-6,7.6-12.5,15.1-19.3,22.4c-1.9,2-1.8,5.2,0.2,7.1
		c1,0.9,2.2,1.4,3.4,1.4c1.3,0,2.7-0.5,3.6-1.6c7-7.4,13.6-15.2,19.9-23C1786.9,640.7,1786.5,637.5,1784.4,635.8z"/>
	<path class="st0" d="M1816.5,585.3c-2.4-1.3-5.5-0.4-6.8,2c-4.6,8.6-9.7,17.1-15.1,25.3c-1.5,2.3-0.9,5.4,1.4,6.9
		c0.8,0.6,1.8,0.8,2.7,0.8c1.6,0,3.2-0.8,4.2-2.3c5.6-8.5,10.8-17.3,15.6-26.1C1819.9,589.7,1819,586.6,1816.5,585.3z"/>
</g>
<g id="Pitroad">
	<path class="st1" d="M639.2,809.7l-30-0.2c0,0,0,0,0,0c-1.4,0-2.5,1.1-2.5,2.5c0,1.4,1.1,2.5,2.5,2.5l30,0.2c0,0,0,0,0,0
		c1.4,0,2.5-1.1,2.5-2.5C641.7,810.8,640.6,809.7,639.2,809.7z"/>
	<path class="st1" d="M759.2,810.3l-30-0.2c0,0,0,0,0,0c-1.4,0-2.5,1.1-2.5,2.5c0,1.4,1.1,2.5,2.5,2.5l30,0.2c0,0,0,0,0,0
		c1.4,0,2.5-1.1,2.5-2.5C761.7,811.5,760.6,810.3,759.2,810.3z"/>
	<path class="st1" d="M879.2,811l-30-0.2c0,0,0,0,0,0c-1.4,0-2.5,1.1-2.5,2.5c0,1.4,1.1,2.5,2.5,2.5l30,0.2c0,0,0,0,0,0
		c1.4,0,2.5-1.1,2.5-2.5C881.7,812.1,880.6,811,879.2,811z"/>
	<path class="st1" d="M819.2,810.6l-30-0.2c0,0,0,0,0,0c-1.4,0-2.5,1.1-2.5,2.5c0,1.4,1.1,2.5,2.5,2.5l30,0.2c0,0,0,0,0,0
		c1.4,0,2.5-1.1,2.5-2.5C821.7,811.8,820.6,810.7,819.2,810.6z"/>
	<path class="st1" d="M579.2,809.3l-30-0.2c0,0,0,0,0,0c-1.4,0-2.5,1.1-2.5,2.5c0,1.4,1.1,2.5,2.5,2.5l30,0.2c0,0,0,0,0,0
		c1.4,0,2.5-1.1,2.5-2.5C581.7,810.5,580.6,809.4,579.2,809.3z"/>
	<path class="st1" d="M459.2,808.7c-5.1,0-15.7-0.3-29.7-1.8c-1.4-0.2-2.6,0.9-2.7,2.2s0.9,2.6,2.2,2.7c14.2,1.5,25,1.8,30.2,1.8
		c0,0,0,0,0,0c1.4,0,2.5-1.1,2.5-2.5C461.7,809.9,460.6,808.8,459.2,808.7z"/>
	<path class="st1" d="M519.2,809l-30-0.2c0,0,0,0,0,0c-1.4,0-2.5,1.1-2.5,2.5c0,1.4,1.1,2.5,2.5,2.5l30,0.2c0,0,0,0,0,0
		c1.4,0,2.5-1.1,2.5-2.5C521.7,810.2,520.6,809,519.2,809z"/>
	<path class="st1" d="M400,802.6c-9.9-1.9-19.6-4.2-29-6.9c-1.3-0.4-2.7,0.4-3.1,1.7c-0.4,1.3,0.4,2.7,1.7,3.1
		c9.5,2.7,19.4,5.1,29.4,7c0.2,0,0.3,0,0.5,0c1.2,0,2.2-0.8,2.5-2C402.2,804.2,401.3,802.9,400,802.6z"/>
	<path class="st1" d="M699.2,810l-30-0.2c-1.4,0-2.5,1.1-2.5,2.5s1.1,2.5,2.5,2.5l30,0.2c0,0,0,0,0,0c1.4,0,2.5-1.1,2.5-2.5
		C701.7,811.1,700.6,810,699.2,810z"/>
	<path class="st1" d="M1299.2,813.2l-30-0.2c0,0,0,0,0,0c-1.4,0-2.5,1.1-2.5,2.5c0,1.4,1.1,2.5,2.5,2.5l30,0.2c0,0,0,0,0,0
		c1.4,0,2.5-1.1,2.5-2.5C1301.7,814.4,1300.5,813.2,1299.2,813.2z"/>
	<path class="st1" d="M1239.2,812.9l-30-0.2c0,0,0,0,0,0c-1.4,0-2.5,1.1-2.5,2.5c0,1.4,1.1,2.5,2.5,2.5l30,0.2c0,0,0,0,0,0
		c1.4,0,2.5-1.1,2.5-2.5C1241.7,814,1240.5,812.9,1239.2,812.9z"/>
	<path class="st1" d="M1359.2,813.6l-30-0.2c0,0,0,0,0,0c-1.4,0-2.5,1.1-2.5,2.5c0,1.4,1.1,2.5,2.5,2.5l30,0.2c0,0,0,0,0,0
		c1.4,0,2.5-1.1,2.5-2.5C1361.7,814.7,1360.5,813.6,1359.2,813.6z"/>
	<path class="st1" d="M939.2,811.3l-30-0.2c0,0,0,0,0,0c-1.4,0-2.5,1.1-2.5,2.5c0,1.4,1.1,2.5,2.5,2.5l30,0.2c0,0,0,0,0,0
		c1.4,0,2.5-1.1,2.5-2.5C941.7,812.4,940.6,811.3,939.2,811.3z"/>
	<path class="st1" d="M1179.2,812.6l-30-0.2c0,0,0,0,0,0c-1.4,0-2.5,1.1-2.5,2.5c0,1.4,1.1,2.5,2.5,2.5l30,0.2c0,0,0,0,0,0
		c1.4,0,2.5-1.1,2.5-2.5C1181.7,813.7,1180.5,812.6,1179.2,812.6z"/>
	<path class="st1" d="M1119.2,812.3l-30-0.2c0,0,0,0,0,0c-1.4,0-2.5,1.1-2.5,2.5c0,1.4,1.1,2.5,2.5,2.5l30,0.2c0,0,0,0,0,0
		c1.4,0,2.5-1.1,2.5-2.5C1121.7,813.4,1120.5,812.3,1119.2,812.3z"/>
	<path class="st1" d="M999.2,811.6l-30-0.2c0,0,0,0,0,0c-1.4,0-2.5,1.1-2.5,2.5c0,1.4,1.1,2.5,2.5,2.5l30,0.2c0,0,0,0,0,0
		c1.4,0,2.5-1.1,2.5-2.5C1001.7,812.8,1000.6,811.6,999.2,811.6z"/>
	<path class="st1" d="M1059.2,811.9l-30-0.2c0,0,0,0,0,0c-1.4,0-2.5,1.1-2.5,2.5c0,1.4,1.1,2.5,2.5,2.5l30,0.2c0,0,0,0,0,0
		c1.4,0,2.5-1.1,2.5-2.5C1061.7,813.1,1060.5,812,1059.2,811.9z"/>
	<path class="st1" d="M1449,816.6l-43.8-18.8l6.7,16.1l-22.8-0.1c0,0,0,0,0,0c-1.4,0-2.5,1.1-2.5,2.5c0,1.4,1.1,2.5,2.5,2.5
		l22.8,0.1l-6.9,16L1449,816.6z"/>
</g>
</svg>
