<?xml version="1.0" encoding="utf-8"?>
<!-- Generator: Adobe Illustrator 24.0.1, SVG Export Plug-In . SVG Version: 6.00 Build 0)  -->
<svg version="1.1" id="Competition-_Pit_Road" xmlns="http://www.w3.org/2000/svg" xmlns:xlink="http://www.w3.org/1999/xlink"
	 x="0px" y="0px" viewBox="0 0 1920 1080" style="enable-background:new 0 0 1920 1080;" xml:space="preserve">
<style type="text/css">
	.st0{fill:#D82520;}
</style>
<title>pitroad</title>
<g id="Pitroad">
	<path class="st0" d="M834.5,810.7l-30-0.1c0,0,0,0,0,0c-1.4,0-2.5,1.1-2.5,2.5c0,1.4,1.1,2.5,2.5,2.5l30,0.1c0,0,0,0,0,0
		c1.4,0,2.5-1.1,2.5-2.5C837,811.9,835.9,810.7,834.5,810.7z"/>
	<path class="st0" d="M714.5,810.3l-30-0.1c0,0,0,0,0,0c-1.4,0-2.5,1.1-2.5,2.5c0,1.4,1.1,2.5,2.5,2.5l30,0.1c0,0,0,0,0,0
		c1.4,0,2.5-1.1,2.5-2.5C717,811.4,715.9,810.3,714.5,810.3z"/>
	<path class="st0" d="M774.5,810.5l-30-0.1c0,0,0,0,0,0c-1.4,0-2.5,1.1-2.5,2.5c0,1.4,1.1,2.5,2.5,2.5l30,0.1c0,0,0,0,0,0
		c1.4,0,2.5-1.1,2.5-2.5C777,811.7,775.9,810.5,774.5,810.5z"/>
	<path class="st0" d="M894.5,811l-30-0.1c-1.4,0-2.5,1.1-2.5,2.5s1.1,2.5,2.5,2.5l30,0.1c0,0,0,0,0,0c1.4,0,2.5-1.1,2.5-2.5
		C897,812.1,895.9,811,894.5,811z"/>
	<path class="st0" d="M474.5,809.5l-30-0.1c0,0,0,0,0,0c-1.4,0-2.5,1.1-2.5,2.5c0,1.4,1.1,2.5,2.5,2.5l30,0.1c0,0,0,0,0,0
		c1.4,0,2.5-1.1,2.5-2.5C477,810.6,475.9,809.5,474.5,809.5z"/>
	<path class="st0" d="M654.5,810.1l-30-0.1c0,0,0,0,0,0c-1.4,0-2.5,1.1-2.5,2.5c0,1.4,1.1,2.5,2.5,2.5l30,0.1c0,0,0,0,0,0
		c1.4,0,2.5-1.1,2.5-2.5C657,811.2,655.9,810.1,654.5,810.1z"/>
	<path class="st0" d="M954.5,811.2l-30-0.1c0,0,0,0,0,0c-1.4,0-2.5,1.1-2.5,2.5c0,1.4,1.1,2.5,2.5,2.5l30,0.1c0,0,0,0,0,0
		c1.4,0,2.5-1.1,2.5-2.5C957,812.3,955.9,811.2,954.5,811.2z"/>
	<path class="st0" d="M534.5,809.7l-30-0.1c0,0,0,0,0,0c-1.4,0-2.5,1.1-2.5,2.5c0,1.4,1.1,2.5,2.5,2.5l30,0.1c0,0,0,0,0,0
		c1.4,0,2.5-1.1,2.5-2.5C537,810.8,535.9,809.7,534.5,809.7z"/>
	<path class="st0" d="M594.5,809.9l-30-0.1c0,0,0,0,0,0c-1.4,0-2.5,1.1-2.5,2.5c0,1.4,1.1,2.5,2.5,2.5l30,0.1c0,0,0,0,0,0
		c1.4,0,2.5-1.1,2.5-2.5C597,811,595.9,809.9,594.5,809.9z"/>
	<path class="st0" d="M1254.5,812.2l-30-0.1c0,0,0,0,0,0c-1.4,0-2.5,1.1-2.5,2.5c0,1.4,1.1,2.5,2.5,2.5l30,0.1c0,0,0,0,0,0
		c1.4,0,2.5-1.1,2.5-2.5C1257,813.3,1255.9,812.2,1254.5,812.2z"/>
	<path class="st0" d="M1314.5,812.4l-30-0.1c0,0,0,0,0,0c-1.4,0-2.5,1.1-2.5,2.5c0,1.4,1.1,2.5,2.5,2.5l30,0.1c0,0,0,0,0,0
		c1.4,0,2.5-1.1,2.5-2.5C1317,813.6,1315.9,812.4,1314.5,812.4z"/>
	<path class="st0" d="M1374.5,812.6l-30-0.1c0,0,0,0,0,0c-1.4,0-2.5,1.1-2.5,2.5c0,1.4,1.1,2.5,2.5,2.5l30,0.1c0,0,0,0,0,0
		c1.4,0,2.5-1.1,2.5-2.5C1377,813.8,1375.9,812.6,1374.5,812.6z"/>
	<path class="st0" d="M1434.5,812.8l-30-0.1c0,0,0,0,0,0c-1.4,0-2.5,1.1-2.5,2.5c0,1.4,1.1,2.5,2.5,2.5l30,0.1c0,0,0,0,0,0
		c1.4,0,2.5-1.1,2.5-2.5C1437,814,1435.9,812.9,1434.5,812.8z"/>
	<path class="st0" d="M1014.5,811.4l-30-0.1c0,0,0,0,0,0c-1.4,0-2.5,1.1-2.5,2.5c0,1.4,1.1,2.5,2.5,2.5l30,0.1c0,0,0,0,0,0
		c1.4,0,2.5-1.1,2.5-2.5C1017,812.5,1015.9,811.4,1014.5,811.4z"/>
	<path class="st0" d="M414.5,809.3l-26.8-0.1c0,0,0,0,0,0c-1.4,0-2.5,1.1-2.5,2.5c0,1.4,1.1,2.5,2.5,2.5l26.8,0.1c0,0,0,0,0,0
		c1.4,0,2.5-1.1,2.5-2.5C417,810.4,415.9,809.3,414.5,809.3z"/>
	<path class="st0" d="M1074.5,811.6l-30-0.1c0,0,0,0,0,0c-1.4,0-2.5,1.1-2.5,2.5c0,1.4,1.1,2.5,2.5,2.5l30,0.1c0,0,0,0,0,0
		c1.4,0,2.5-1.1,2.5-2.5C1077,812.7,1075.9,811.6,1074.5,811.6z"/>
	<path class="st0" d="M1194.5,812l-30-0.1c0,0,0,0,0,0c-1.4,0-2.5,1.1-2.5,2.5c0,1.4,1.1,2.5,2.5,2.5l30,0.1c0,0,0,0,0,0
		c1.4,0,2.5-1.1,2.5-2.5C1197,813.1,1195.9,812,1194.5,812z"/>
	<path class="st0" d="M1134.5,811.8l-30-0.1c0,0,0,0,0,0c-1.4,0-2.5,1.1-2.5,2.5c0,1.4,1.1,2.5,2.5,2.5l30,0.1c0,0,0,0,0,0
		c1.4,0,2.5-1.1,2.5-2.5C1137,812.9,1135.9,811.8,1134.5,811.8z"/>
	<path class="st0" d="M1524.3,815.7l-43.8-18.7l6.7,16l-22.8-0.1c0,0,0,0,0,0c-1.4,0-2.5,1.1-2.5,2.5c0,1.4,1.1,2.5,2.5,2.5
		l22.8,0.1l-6.9,16L1524.3,815.7z"/>
</g>
</svg>
