<?xml version="1.0" encoding="utf-8"?>
<!-- Generator: Adobe Illustrator 24.0.1, SVG Export Plug-In . SVG Version: 6.00 Build 0)  -->
<svg version="1.1" id="Interior_-_Pit_Road" xmlns="http://www.w3.org/2000/svg" xmlns:xlink="http://www.w3.org/1999/xlink"
	 x="0px" y="0px" viewBox="0 0 1920 1080" style="enable-background:new 0 0 1920 1080;" xml:space="preserve">
<style type="text/css">
	.st0{fill:#D82520;}
</style>
<title>pitroad</title>
<g id="Pitroad">
	<path class="st0" d="M1460.3,488.8c-10.1-0.1-20.1-0.3-30-0.4c-1.4,0-2.5,1.1-2.5,2.5s1.1,2.5,2.5,2.5c9.9,0.1,19.9,0.3,30,0.4
		c0,0,0,0,0,0c1.4,0,2.5-1.1,2.5-2.5C1462.8,489.9,1461.7,488.8,1460.3,488.8z"/>
	<path class="st0" d="M1400.3,487.9c-10.3-0.2-20.3-0.3-30-0.4c0,0,0,0,0,0c-1.4,0-2.5,1.1-2.5,2.5c0,1.4,1.1,2.5,2.5,2.5
		c9.7,0.1,19.7,0.3,30,0.4c0,0,0,0,0,0c1.4,0,2.5-1.1,2.5-2.5C1402.8,489.1,1401.7,488,1400.3,487.9z"/>
	<path class="st0" d="M1520.3,489.4c-9.9-0.1-19.9-0.2-30-0.3c-1.4-0.1-2.5,1.1-2.5,2.5c0,1.4,1.1,2.5,2.5,2.5
		c10.1,0.1,20.1,0.2,30,0.3c0,0,0,0,0,0c1.4,0,2.5-1.1,2.5-2.5C1522.8,490.6,1521.7,489.4,1520.3,489.4z"/>
	<path class="st0" d="M1340.3,487.1c-4.8-0.1-9.4-0.1-13.9-0.2c-6.3-0.1-11.1-0.5-15.6-1.3c-1.4-0.2-2.7,0.7-2.9,2
		c-0.2,1.4,0.7,2.7,2,2.9c4.7,0.9,9.8,1.3,16.4,1.3c4.5,0,9.1,0.1,13.9,0.2c0,0,0,0,0,0c1.4,0,2.5-1.1,2.5-2.5
		C1342.8,488.2,1341.7,487.1,1340.3,487.1z"/>
	<path class="st0" d="M1219.3,413.3c-0.9-1-2.5-1-3.5-0.1c-1,0.9-1,2.5-0.1,3.5c7.8,8.2,14.6,15.3,20.8,21.6
		c0.5,0.5,1.1,0.7,1.8,0.7c0.6,0,1.3-0.2,1.8-0.7c1-1,1-2.6,0-3.5C1233.8,428.6,1227.1,421.6,1219.3,413.3z"/>
	<path class="st0" d="M1284.5,474.2c-6.7-4.5-14.2-10.6-23-18.6c-1-0.9-2.6-0.9-3.5,0.2c-0.9,1-0.9,2.6,0.2,3.5
		c9,8.2,16.7,14.4,23.6,19.1c0.4,0.3,0.9,0.4,1.4,0.4c0.8,0,1.6-0.4,2.1-1.1C1285.9,476.6,1285.6,475,1284.5,474.2z"/>
	<path class="st0" d="M1693.7,466c-1.2-0.7-2.7-0.2-3.4,1c-0.2,0.4-0.5,0.9-0.7,1.3c-4.2,7.3-11.1,12.7-20.6,16.1
		c-1.3,0.5-2,1.9-1.5,3.2c0.4,1,1.3,1.7,2.4,1.7c0.3,0,0.6,0,0.8-0.1c10.7-3.8,18.5-10,23.3-18.3c0.3-0.5,0.5-0.9,0.8-1.4
		C1695.4,468.2,1694.9,466.7,1693.7,466z"/>
	<path class="st0" d="M1681.9,353c-0.7-1.2-2.2-1.6-3.4-0.9c-1.2,0.7-1.6,2.2-0.9,3.4c5.2,9,9.5,18,12.9,26.7c0.4,1,1.3,1.6,2.3,1.6
		c0.3,0,0.6-0.1,0.9-0.2c1.3-0.5,1.9-2,1.4-3.2C1691.6,371.4,1687.2,362.2,1681.9,353z"/>
	<path class="st0" d="M1703.5,409.6c-0.2-1.4-1.5-2.3-2.9-2c-1.4,0.2-2.3,1.5-2,2.9c1,6,1.5,11.8,1.5,17.4c0,4-0.3,7.9-0.8,11.7
		c-0.2,1.4,0.8,2.6,2.1,2.8c0.1,0,0.2,0,0.3,0c1.2,0,2.3-0.9,2.5-2.2c0.5-4,0.8-8.2,0.8-12.3C1705.1,422,1704.6,415.8,1703.5,409.6z
		"/>
	<path class="st0" d="M1640.2,488.7c-8.9,0.3-19,0.5-30,0.7c-1.4,0-2.5,1.2-2.5,2.5c0,1.4,1.1,2.5,2.5,2.5c0,0,0,0,0,0
		c11-0.2,21.1-0.4,30-0.7c1.4,0,2.5-1.2,2.4-2.6C1642.8,489.7,1641.6,488.6,1640.2,488.7z"/>
	<path class="st0" d="M1580.3,489.6C1580.3,489.6,1580.3,489.6,1580.3,489.6c-9.7,0-19.7,0-30,0c0,0,0,0,0,0c-1.4,0-2.5,1.1-2.5,2.5
		c0,1.4,1.1,2.5,2.5,2.5c4.8,0,9.5,0,14.1,0c5.4,0,10.7,0,15.9,0c1.4,0,2.5-1.1,2.5-2.5C1582.8,490.7,1581.7,489.6,1580.3,489.6z"/>
	<path class="st0" d="M1646.3,303.9c-1-1-2.5-1-3.5-0.1c-1,1-1,2.5-0.1,3.5c0.1,0.1,8.5,9,18.8,23.1c0.5,0.7,1.3,1,2,1
		c0.5,0,1-0.2,1.5-0.5c1.1-0.8,1.4-2.4,0.6-3.5C1655,313.1,1646.6,304.3,1646.3,303.9z"/>
	<polygon class="st0" points="1190.1,385.7 1206.5,430.4 1214.7,412 1233.6,405.2 	"/>
</g>
</svg>
