<?xml version="1.0" encoding="utf-8"?>
<!-- Generator: Adobe Illustrator 24.0.1, SVG Export Plug-In . SVG Version: 6.00 Build 0)  -->
<svg version="1.1" id="Irwindale_Outer_Oval__Pit_Road"
	 xmlns="http://www.w3.org/2000/svg" xmlns:xlink="http://www.w3.org/1999/xlink" x="0px" y="0px" viewBox="0 0 1920 1080"
	 style="enable-background:new 0 0 1920 1080;" xml:space="preserve">
<style type="text/css">
	.st0{fill:#D82520;}
</style>
<title>pitroad</title>
<g id="Pitroad">
	<path class="st0" d="M717.8,689.2c-8.1-5.6-16-11.7-23.3-18.3c-1-0.9-2.6-0.8-3.5,0.2c-0.9,1-0.8,2.6,0.2,3.5
		c7.5,6.8,15.5,13.1,23.8,18.7c0.4,0.3,0.9,0.4,1.4,0.4c0.8,0,1.6-0.4,2.1-1.1C719.2,691.6,718.9,690,717.8,689.2z"/>
	<path class="st0" d="M770.6,715.7c-9.3-3.2-18.5-7.1-27.3-11.5c-1.2-0.6-2.7-0.1-3.4,1.1s-0.1,2.7,1.1,3.4
		c9,4.5,18.4,8.5,27.9,11.7c0.3,0.1,0.5,0.1,0.8,0.1c1,0,2-0.7,2.4-1.7C772.6,717.6,771.9,716.2,770.6,715.7z"/>
	<path class="st0" d="M742,310.3c-0.9-1.1-2.5-1.2-3.5-0.3c-6.6,5.5-14.6,12.2-22.8,19.7c-1,0.9-1.1,2.5-0.2,3.5
		c0.5,0.5,1.2,0.8,1.9,0.8c0.6,0,1.2-0.2,1.7-0.6c8.2-7.4,16.1-14,22.7-19.5C742.7,312.9,742.8,311.4,742,310.3z"/>
	<path class="st0" d="M785.8,272.6c-9.8,6-16.9,11-20.9,14.8c-1.1,1-2.3,2.2-3.6,3.3c-1,0.9-1.1,2.5-0.2,3.5
		c0.5,0.5,1.2,0.8,1.9,0.8c0.6,0,1.2-0.2,1.7-0.6c1.3-1.2,2.6-2.4,3.7-3.4c3.7-3.6,10.5-8.3,20-14.2c1.2-0.7,1.6-2.3,0.8-3.4
		C788.5,272.2,787,271.9,785.8,272.6z"/>
	<path class="st0" d="M888.4,727.9C888.4,727.9,888.4,727.9,888.4,727.9c-11.4,0-21.3,0.1-30,0.2c-1.4,0-2.5,1.2-2.5,2.5
		c0,1.4,1.1,2.5,2.5,2.5c0,0,0,0,0,0c8.7-0.1,18.6-0.2,30-0.2c1.4,0,2.5-1.1,2.5-2.5C890.9,729,889.8,727.9,888.4,727.9z"/>
	<path class="st0" d="M838.8,243.8c-9.7,4.9-18.7,9.6-26.7,13.9c-1.2,0.7-1.7,2.2-1,3.4c0.5,0.8,1.3,1.3,2.2,1.3
		c0.4,0,0.8-0.1,1.2-0.3c8-4.3,16.9-8.9,26.6-13.8c1.2-0.6,1.7-2.1,1.1-3.4C841.5,243.7,840,243.2,838.8,243.8z"/>
	<path class="st0" d="M893,217.5c-9.5,4.5-18.4,8.7-27.2,12.9c-1.2,0.6-1.8,2.1-1.2,3.3c0.4,0.9,1.3,1.4,2.3,1.4
		c0.4,0,0.7-0.1,1.1-0.3c8.8-4.2,17.6-8.5,27.1-12.9c1.3-0.6,1.8-2.1,1.2-3.3S894.2,216.9,893,217.5z"/>
	<path class="st0" d="M828.6,727.5c-9.9-0.7-19.8-2.1-29.4-4c-1.3-0.3-2.7,0.6-2.9,2c-0.3,1.4,0.6,2.7,2,2.9c9.8,2,19.9,3.4,30,4.1
		c0.1,0,0.1,0,0.2,0c1.3,0,2.4-1,2.5-2.3C831,728.9,830,727.7,828.6,727.5z"/>
	<path class="st0" d="M627.1,485.9c0.1,0,0.3,0,0.4,0c1.2,0,2.2-0.9,2.5-2.1c1.7-9.8,4.1-19.5,6.9-28.8c0.4-1.3-0.3-2.7-1.7-3.1
		c-1.3-0.4-2.7,0.3-3.1,1.7c-2.9,9.5-5.3,19.4-7.1,29.4C624.9,484.4,625.8,485.7,627.1,485.9z"/>
	<path class="st0" d="M626.1,529.6c0-5.5,0.2-10.9,0.5-16.3c0.1-1.4-1-2.6-2.3-2.6c-1.4-0.1-2.6,1-2.6,2.3c-0.3,5.4-0.5,11-0.5,16.5
		c0,1.4,0,2.9,0,4.3c0,3.1,0.2,6.3,0.5,9.4c0.1,1.3,1.2,2.3,2.5,2.3c0.1,0,0.1,0,0.2,0c1.4-0.1,2.4-1.3,2.3-2.7
		c-0.3-3.1-0.4-6.1-0.4-9.1C626.1,532.5,626.1,531,626.1,529.6z"/>
	<path class="st0" d="M1359.6,492.4l0.1,1.9c0.1,1.3,1.2,2.4,2.5,2.4c0,0,0.1,0,0.1,0c1.4-0.1,2.4-1.2,2.4-2.6l-0.1-1.9
		c-0.4-9.1-2.1-18.6-5-28.2c-0.4-1.3-1.8-2.1-3.1-1.7c-1.3,0.4-2.1,1.8-1.7,3.1C1357.6,474.6,1359.2,483.6,1359.6,492.4z"/>
	<path class="st0" d="M656.2,625.8c-0.7-1.2-2.3-1.5-3.5-0.8c-1.2,0.7-1.5,2.3-0.8,3.5c5.4,8.5,11.5,16.7,18,24.4
		c0.5,0.6,1.2,0.9,1.9,0.9c0.6,0,1.1-0.2,1.6-0.6c1.1-0.9,1.2-2.5,0.3-3.5C667.4,642.1,661.5,634.1,656.2,625.8z"/>
	<path class="st0" d="M697.5,350.6c-1-0.9-2.6-0.9-3.5,0.1c-7.1,7.5-13.7,15.2-19.7,22.9c-0.8,1.1-0.6,2.7,0.4,3.5
		c0.5,0.4,1,0.5,1.5,0.5c0.7,0,1.5-0.3,2-1c5.9-7.6,12.4-15.2,19.4-22.6C698.6,353.2,698.5,351.6,697.5,350.6z"/>
	<path class="st0" d="M660.5,397.7c-1.2-0.7-2.7-0.3-3.4,0.8c-5.3,8.7-10.1,17.7-14.2,26.8c-0.6,1.3,0,2.7,1.2,3.3
		c0.3,0.2,0.7,0.2,1,0.2c1,0,1.9-0.5,2.3-1.5c4-8.9,8.7-17.7,13.9-26.2C662,400,661.7,398.4,660.5,397.7z"/>
	<path class="st0" d="M631.9,572c-0.4-1.3-1.7-2.1-3.1-1.7c-1.3,0.4-2.1,1.7-1.7,3.1c2.6,9.5,6.1,19.1,10.4,28.5
		c0.4,0.9,1.3,1.5,2.3,1.5c0.3,0,0.7-0.1,1-0.2c1.3-0.6,1.8-2.1,1.2-3.3C637.8,590.6,634.4,581.3,631.9,572z"/>
	<path class="st0" d="M1008.4,728.5c-10,0-20.1-0.1-30-0.2c0,0,0,0,0,0c-1.4,0-2.5,1.1-2.5,2.5c0,1.4,1.1,2.5,2.5,2.5
		c9.9,0.1,20,0.1,30,0.2c0,0,0,0,0,0c1.4,0,2.5-1.1,2.5-2.5C1010.9,729.6,1009.8,728.5,1008.4,728.5z"/>
	<path class="st0" d="M1292.6,364.4c-1-1-2.6-0.9-3.5,0.1c-1,1-0.9,2.6,0.1,3.5c7.4,7.1,14.3,14.4,20.6,21.5
		c0.5,0.6,1.2,0.9,1.9,0.9c0.6,0,1.2-0.2,1.6-0.6c1-0.9,1.1-2.5,0.2-3.5C1307.1,379,1300.1,371.6,1292.6,364.4z"/>
	<path class="st0" d="M1297.6,684.4c-7.4,6.1-15.6,11.7-24.4,16.5c-1.2,0.7-1.7,2.2-1,3.4c0.5,0.8,1.3,1.3,2.2,1.3
		c0.4,0,0.8-0.1,1.2-0.3c9.1-4.9,17.5-10.7,25.2-17c1.1-0.9,1.2-2.5,0.3-3.5C1300.2,683.6,1298.6,683.5,1297.6,684.4z"/>
	<path class="st0" d="M1246.5,325.5c-1.1-0.8-2.7-0.6-3.5,0.5c-0.8,1.1-0.6,2.7,0.5,3.5c8.1,6.1,16,12.3,23.4,18.5
		c0.5,0.4,1,0.6,1.6,0.6c0.7,0,1.4-0.3,1.9-0.9c0.9-1.1,0.8-2.6-0.3-3.5C1262.7,337.9,1254.7,331.6,1246.5,325.5z"/>
	<path class="st0" d="M1337.8,637.8c-1.2-0.6-2.7-0.2-3.4,1c-4.7,8.8-10.2,17.1-16.2,24.6c-0.9,1.1-0.7,2.6,0.4,3.5
		c0.5,0.4,1,0.6,1.6,0.6c0.7,0,1.5-0.3,2-0.9c6.2-7.7,11.8-16.3,16.7-25.4C1339.4,640,1339,638.4,1337.8,637.8z"/>
	<path class="st0" d="M1362.6,521.6c-1.3,0-2.5,1.1-2.6,2.4c-0.2,10.2-0.8,20.2-1.8,29.7c-0.1,1.4,0.9,2.6,2.2,2.7
		c0.1,0,0.2,0,0.3,0c1.3,0,2.4-1,2.5-2.2c1-9.6,1.6-19.7,1.8-30.1C1365.1,522.8,1364,521.6,1362.6,521.6z"/>
	<path class="st0" d="M1356.8,581.2c-1.3-0.3-2.7,0.6-3,1.9c-2.1,10-4.7,19.6-7.8,28.6c-0.5,1.3,0.2,2.7,1.5,3.2
		c0.3,0.1,0.5,0.1,0.8,0.1c1,0,2-0.7,2.4-1.7c3.2-9.2,5.8-19,7.9-29.2C1359,582.8,1358.2,581.5,1356.8,581.2z"/>
	<path class="st0" d="M1348.1,435.8c-4.4-8.5-9.7-17.2-15.9-25.8c-0.8-1.1-2.4-1.4-3.5-0.6c-1.1,0.8-1.4,2.4-0.6,3.5
		c6,8.5,11.2,16.9,15.5,25.2c0.4,0.9,1.3,1.3,2.2,1.3c0.4,0,0.8-0.1,1.1-0.3C1348.3,438.5,1348.8,437,1348.1,435.8z"/>
	<path class="st0" d="M1188.1,725c-6.7,0.7-13.6,1.2-21,1.6c-2.8,0.1-5.8,0.3-8.8,0.4c-1.4,0.1-2.5,1.2-2.4,2.6
		c0.1,1.3,1.2,2.4,2.5,2.4c0,0,0.1,0,0.1,0c3-0.1,6-0.3,8.9-0.4c7.5-0.4,14.5-0.9,21.2-1.6c1.4-0.1,2.4-1.4,2.2-2.7
		C1190.7,725.9,1189.5,724.9,1188.1,725z"/>
	<path class="st0" d="M1115,255.8c1,0,1.9-0.6,2.3-1.5c0.5-1.3,0-2.7-1.3-3.3c-9.2-4-18.6-7.8-27.9-11.3c-1.3-0.5-2.7,0.2-3.2,1.4
		c-0.5,1.3,0.2,2.7,1.4,3.2c9.3,3.5,18.6,7.3,27.7,11.2C1114.3,255.7,1114.7,255.8,1115,255.8z"/>
	<path class="st0" d="M1068.4,728.6C1068.4,728.6,1068.4,728.6,1068.4,728.6c-9.8,0-19.9,0-30,0c0,0,0,0,0,0c-1.4,0-2.5,1.1-2.5,2.5
		c0,1.4,1.1,2.5,2.5,2.5c5.4,0,10.8,0,16.1,0c4.7,0,9.3,0,13.9,0c1.4,0,2.5-1.1,2.5-2.5C1070.9,729.7,1069.8,728.6,1068.4,728.6z"/>
	<path class="st0" d="M1128.3,728c-9.1,0.2-19.2,0.3-30,0.4c-1.4,0-2.5,1.1-2.5,2.5c0,1.4,1.1,2.5,2.5,2.5c0,0,0,0,0,0
		c10.8-0.1,20.9-0.3,30-0.4c1.4,0,2.5-1.2,2.4-2.6S1129.7,727.9,1128.3,728z"/>
	<path class="st0" d="M1220.5,312.8c0.8,0,1.6-0.4,2.1-1.1c0.8-1.1,0.5-2.7-0.7-3.5c-8.2-5.5-16.8-10.9-25.5-16.1
		c-1.2-0.7-2.7-0.3-3.4,0.9s-0.3,2.7,0.9,3.4c8.6,5.2,17.1,10.5,25.3,16C1219.5,312.6,1220,312.8,1220.5,312.8z"/>
	<path class="st0" d="M1246.1,712.7c-8.9,3.1-18.5,5.7-28.6,7.8c-1.4,0.3-2.2,1.6-1.9,3c0.2,1.2,1.3,2,2.4,2c0.2,0,0.3,0,0.5-0.1
		c10.3-2.1,20.1-4.8,29.2-8c1.3-0.5,2-1.9,1.5-3.2C1248.8,713,1247.4,712.3,1246.1,712.7z"/>
	<path class="st0" d="M948.4,728.1c-10.3-0.1-20.3-0.1-30-0.1c-1.3,0-2.5,1.1-2.5,2.5c0,1.4,1.1,2.5,2.5,2.5c9.7,0,19.7,0.1,30,0.1
		c0,0,0,0,0,0c1.4,0,2.5-1.1,2.5-2.5C950.9,729.3,949.8,728.1,948.4,728.1z"/>
	<path class="st0" d="M1169,281.9c0.9,0,1.8-0.5,2.2-1.3c0.7-1.2,0.2-2.7-1-3.4c-8.8-4.7-17.8-9.3-26.8-13.7
		c-1.2-0.6-2.7-0.1-3.3,1.2c-0.6,1.2-0.1,2.7,1.2,3.3c9,4.3,17.9,8.9,26.6,13.6C1168.2,281.8,1168.6,281.9,1169,281.9z"/>
	<path class="st0" d="M1036.6,227.7c7.2,2.1,14.4,4.3,21.6,6.7c0.3,0.1,0.5,0.1,0.8,0.1c1.1,0,2-0.7,2.4-1.7
		c0.4-1.3-0.3-2.7-1.6-3.2c-7.3-2.4-14.7-4.7-22-6.8l10.6-13.9l-47.1,7.1l38,28.8L1036.6,227.7z"/>
</g>
</svg>
