<?xml version="1.0" encoding="utf-8"?>
<!-- Generator: Adobe Illustrator 24.0.1, SVG Export Plug-In . SVG Version: 6.00 Build 0)  -->
<svg version="1.1" id="cota_east_-_Pit_Road" xmlns="http://www.w3.org/2000/svg" xmlns:xlink="http://www.w3.org/1999/xlink"
	 x="0px" y="0px" viewBox="0 0 1920 1080" style="enable-background:new 0 0 1920 1080;" xml:space="preserve">
<style type="text/css">
	.st0{fill:#D82520;}
</style>
<title>pitroad</title>
<g id="Pitroad">
	<path class="st0" d="M909.7,747.9c-1.3-0.4-2.7,0.4-3.1,1.8l-2,7.2l-16.1-5.9c-1.3-0.5-2.7,0.2-3.2,1.5c-0.5,1.3,0.2,2.7,1.5,3.2
		l21.2,7.8l3.4-12.4C911.8,749.7,911,748.3,909.7,747.9z"/>
	<path class="st0" d="M912.9,590.2l-0.3-0.1l-0.3,0c-3.8-0.4-7.7-1.2-11.5-2.4c-1.3-0.4-2.7,0.3-3.1,1.6c-0.4,1.3,0.3,2.7,1.6,3.1
		c4,1.3,8.1,2.2,12.2,2.6c1.2,0.5,6.2,3.3,6.2,12.1c0,1.4,1.1,2.5,2.5,2.5c0,0,0,0,0,0c1.4,0,2.5-1.1,2.5-2.5
		C922.7,593.7,913.3,590.3,912.9,590.2z"/>
	<path class="st0" d="M916,704.9l-0.4-0.3c-3.8-2.4-6.4-5.7-7.7-10c-0.4-1.3-1.8-2-3.1-1.6c-1.3,0.4-2,1.8-1.6,3.1
		c1.7,5.3,4.9,9.6,9.5,12.6c0.5,0.6,2.1,2.9,2.1,7.6c0,1.4-0.2,3-0.5,4.6c-0.3,1.4,0.6,2.7,2,2.9c0.2,0,0.3,0,0.5,0
		c1.2,0,2.2-0.8,2.5-2c0.4-1.9,0.6-3.8,0.6-5.5C919.8,708.7,916.4,705.3,916,704.9z"/>
	<path class="st0" d="M860.4,740.6L837,732c-1.3-0.5-2.7,0.2-3.2,1.5c-0.5,1.3,0.2,2.7,1.5,3.2l23.4,8.6c0.3,0.1,0.6,0.2,0.9,0.2
		c1,0,2-0.6,2.3-1.6C862.3,742.5,861.7,741.1,860.4,740.6z"/>
	<path class="st0" d="M908.6,668.4c1.2,0,2.2-0.8,2.4-2l6.2-29.4c0.3-1.4-0.6-2.7-1.9-3c-1.4-0.3-2.7,0.6-3,1.9l-6.2,29.4
		c-0.3,1.4,0.6,2.7,1.9,3C908.2,668.4,908.4,668.4,908.6,668.4z"/>
	<path class="st0" d="M836.6,528.6l13.4,45.7l8.1-15.4l14.3,17.5l0.3,0.3c0.5,0.5,1.1,0.7,1.7,0.7c0.6,0,1.3-0.3,1.8-0.8
		c0.9-1,0.9-2.5,0-3.5L862,555.7l16.7-4.9L836.6,528.6z"/>
</g>
</svg>
