<?xml version="1.0" encoding="utf-8"?>
<!-- Generator: Adobe Illustrator 24.0.1, SVG Export Plug-In . SVG Version: 6.00 Build 0)  -->
<svg version="1.1" id="cota_west_-_Pit_Road" xmlns="http://www.w3.org/2000/svg" xmlns:xlink="http://www.w3.org/1999/xlink"
	 x="0px" y="0px" viewBox="0 0 1920 1080" style="enable-background:new 0 0 1920 1080;" xml:space="preserve">
<style type="text/css">
	.st0{fill:#016699;}
	.st1{fill:#D82520;}
</style>
<title>pitroad</title>
<g id="Mergeline">
	<path class="st0" d="M1573.2,292.3l25.4-10.5l-3.8-9.2l-60,24.9l3.8,9.2l25.4-10.5l10.2,24.5c0.8,1.9,2.7,3.1,4.6,3.1
		c0.6,0,1.3-0.1,1.9-0.4c2.6-1.1,3.8-4,2.7-6.5L1573.2,292.3z"/>
	<path class="st0" d="M1594.9,344.6c-1.1-2.6-4-3.8-6.5-2.7c-2.6,1.1-3.8,4-2.7,6.5l11.5,27.7c0.8,1.9,2.7,3.1,4.6,3.1
		c0.6,0,1.3-0.1,1.9-0.4c2.6-1.1,3.8-4,2.7-6.5L1594.9,344.6z"/>
	<path class="st0" d="M1629.4,427.7l-11.5-27.7c-1.1-2.6-4-3.8-6.5-2.7c-2.6,1.1-3.8,4-2.7,6.5l11.5,27.7c0.8,1.9,2.7,3.1,4.6,3.1
		c0.6,0,1.3-0.1,1.9-0.4C1629.3,433.1,1630.5,430.2,1629.4,427.7z"/>
</g>
<g id="Pitroad">
	<path class="st1" d="M1686.7,872C1686.7,872,1686.7,872,1686.7,872l-30,0.2c-1.4,0-2.5,1.1-2.5,2.5c0,1.4,1.1,2.5,2.5,2.5
		c0,0,0,0,0,0l30-0.2c1.4,0,2.5-1.1,2.5-2.5C1689.2,873.1,1688.1,872,1686.7,872z"/>
	<path class="st1" d="M1656.8,502c1.3-0.6,1.8-2,1.3-3.3l-12.1-27.4c-0.6-1.3-2-1.8-3.3-1.3c-1.3,0.6-1.8,2-1.3,3.3l12.1,27.4
		c0.4,0.9,1.3,1.5,2.3,1.5C1656.1,502.2,1656.5,502.1,1656.8,502z"/>
	<path class="st1" d="M1799,830c0.4,0.9,1.3,1.5,2.3,1.5c0.3,0,0.7-0.1,1-0.2c1.3-0.6,1.8-2,1.3-3.3l-12.1-27.4
		c-0.6-1.3-2-1.8-3.3-1.3c-1.3,0.6-1.8,2-1.3,3.3L1799,830z"/>
	<path class="st1" d="M1677.8,555.6c0.4,0.9,1.3,1.5,2.3,1.5c0.3,0,0.7-0.1,1-0.2c1.3-0.6,1.8-2,1.3-3.3l-12.1-27.4
		c-0.6-1.3-2-1.8-3.3-1.3c-1.3,0.6-1.8,2-1.3,3.3L1677.8,555.6z"/>
	<path class="st1" d="M1694.5,581c-0.6-1.3-2-1.8-3.3-1.3c-1.3,0.6-1.8,2-1.3,3.3l12.1,27.4c0.4,0.9,1.3,1.5,2.3,1.5
		c0.3,0,0.7-0.1,1-0.2c1.3-0.6,1.8-2,1.3-3.3L1694.5,581z"/>
	<path class="st1" d="M1777.1,776.6c0.3,0,0.7-0.1,1-0.2c1.3-0.6,1.8-2,1.3-3.3l-12.1-27.4c-0.6-1.3-2-1.8-3.3-1.3
		c-1.3,0.6-1.8,2-1.3,3.3l12.1,27.4C1775.2,776.1,1776.1,776.6,1777.1,776.6z"/>
	<path class="st1" d="M1728.6,666.9c0.3,0,0.7-0.1,1-0.2c1.3-0.6,1.8-2,1.3-3.3l-12.1-27.4c-0.6-1.3-2-1.8-3.3-1.3
		c-1.3,0.6-1.8,2-1.3,3.3l12.1,27.4C1726.7,666.3,1727.6,666.9,1728.6,666.9z"/>
	<path class="st1" d="M1802.1,855.9c-1.2-0.6-2.7-0.2-3.4,1.1c-5.7,11-18.6,13.8-22.5,14.4c-1.4,0.2-2.3,1.5-2.1,2.9
		c0.2,1.2,1.3,2.1,2.5,2.1c0.1,0,0.3,0,0.4,0c4.4-0.7,19.3-4,26.1-17.1C1803.8,858,1803.4,856.5,1802.1,855.9z"/>
	<path class="st1" d="M1743,690.8c-0.6-1.3-2-1.8-3.3-1.3c-1.3,0.6-1.8,2-1.3,3.3l12.1,27.4c0.4,0.9,1.3,1.5,2.3,1.5
		c0.3,0,0.7-0.1,1-0.2c1.3-0.6,1.8-2,1.3-3.3L1743,690.8z"/>
	<path class="st1" d="M1746.7,871.7C1746.7,871.7,1746.7,871.7,1746.7,871.7l-30,0.2c-1.4,0-2.5,1.1-2.5,2.5c0,1.4,1.1,2.5,2.5,2.5
		c0,0,0,0,0,0l30-0.2c1.4,0,2.5-1.1,2.5-2.5C1749.2,872.8,1748.1,871.7,1746.7,871.7z"/>
	<polygon class="st1" points="1624.8,429.6 1625.6,477.2 1639.4,462.5 1659.5,462.3 	"/>
</g>
</svg>
