<svg id="Asphalt_-_Pit_Road" data-name="Asphalt - Pit Road" xmlns="http://www.w3.org/2000/svg" viewBox="0 0 1920 1080"><defs><style>.cls-1{fill:#0089ba;}.cls-2{fill:#d82520;}</style></defs><title>pitroad</title><g id="Mergeline"><path class="cls-1" d="M1270.48,796.23a239.84,239.84,0,0,1-29.3,2.57,5,5,0,0,0,0,10h0a244.39,244.39,0,0,0,30.67-2.66,5,5,0,0,0-1.38-9.91Z"/><path class="cls-1" d="M1383,760.9c-8.69,4.42-17.74,8.55-26.9,12.27a5,5,0,1,0,3.76,9.27c9.42-3.83,18.74-8.08,27.68-12.63a5,5,0,1,0-4.54-8.91Z"/><path class="cls-1" d="M1328.21,783.17c-9.39,2.94-19,5.54-28.6,7.71a5,5,0,0,0,1.1,9.88,4.67,4.67,0,0,0,1.11-.13c9.85-2.23,19.73-4.89,29.38-7.92a5,5,0,0,0-3-9.54Z"/><path class="cls-1" d="M1371,266.11a5,5,0,0,0,2.3-9.44c-8.91-4.61-18.22-8.89-27.65-12.72a5,5,0,0,0-3.76,9.27c9.15,3.71,18.17,7.86,26.82,12.33A5,5,0,0,0,1371,266.11Z"/><path class="cls-1" d="M1315.54,243.57a5,5,0,0,0,1.46-9.79c-9.58-2.93-19.48-5.5-29.42-7.65a5,5,0,1,0-2.11,9.78c9.67,2.09,19.29,4.59,28.61,7.44A5,5,0,0,0,1315.54,243.57Z"/><path class="cls-1" d="M1524.61,469.94c2.18,9.46,4,19.24,5.46,29.06a5,5,0,0,0,4.94,4.27,4.68,4.68,0,0,0,.74,0,5,5,0,0,0,4.22-5.67c-1.49-10.09-3.37-20.14-5.61-29.86a5,5,0,0,0-9.75,2.25Z"/><path class="cls-1" d="M1257,230.89a5,5,0,0,0,.66-10c-9.91-1.31-20.09-2.27-30.24-2.83a5,5,0,0,0-.56,10c9.9.55,19.82,1.48,29.48,2.77A5,5,0,0,0,1257,230.89Z"/><path class="cls-1" d="M1138.52,206.68l-29.74-3.93a5,5,0,0,0-1.31,9.92l29.74,3.92a5,5,0,1,0,1.31-9.91Z"/><path class="cls-1" d="M1198,214.53l-29.75-3.93a5,5,0,0,0-1.3,9.92l29.74,3.92a4.89,4.89,0,0,0,.66.05,5,5,0,0,0,.65-10Z"/><path class="cls-1" d="M1518.45,640.73a5.05,5.05,0,0,0-6.9,1.73c-5.15,8.37-10.71,16.55-16.5,24.32a5,5,0,0,0,8,6c6-8,11.68-16.42,17-25l.11-.17A5,5,0,0,0,1518.45,640.73Z"/><path class="cls-1" d="M1534.16,583a5,5,0,0,0-5.69,4.19c-1.28,8.48-2.77,16.25-4.31,22.5-.56,2.26-1.1,4.32-1.64,6.29a5,5,0,0,0,3.48,6.16,5.2,5.2,0,0,0,1.34.18,5,5,0,0,0,4.81-3.67c.58-2.06,1.14-4.21,1.72-6.57,2-8.26,3.56-17.28,4.49-23.39A5,5,0,0,0,1534.16,583Z"/><path class="cls-1" d="M1498,389.87a5,5,0,0,0,4.38-7.4c-4.87-8.93-10.21-17.67-15.87-26a5,5,0,0,0-8.27,5.63c5.48,8,10.65,16.52,15.36,25.16A5,5,0,0,0,1498,389.87Z"/><path class="cls-1" d="M1526.27,438.38c-3.14-9.7-6.73-19.29-10.66-28.5a5,5,0,1,0-9.2,3.93c3.82,8.93,7.3,18.23,10.34,27.65a5,5,0,0,0,4.76,3.46,4.87,4.87,0,0,0,1.54-.25A5,5,0,0,0,1526.27,438.38Z"/><path class="cls-1" d="M1421.33,298.61a5,5,0,0,0,3.11-8.91c-7.89-6.28-16.22-12.25-24.75-17.76a5,5,0,1,0-5.42,8.4c8.26,5.33,16.32,11.11,24,17.18A5,5,0,0,0,1421.33,298.61Z"/><path class="cls-1" d="M1537.26,523.12a5,5,0,0,0-5.15,4.84l-.92,30a5,5,0,0,0,4.84,5.15h.16a5,5,0,0,0,5-4.85l.92-30A5,5,0,0,0,1537.26,523.12Z"/><path class="cls-1" d="M1476.34,689.6c-6.56,7.29-13.54,14.35-20.74,21a5,5,0,0,0,6.78,7.36c7.42-6.85,14.62-14.13,21.39-21.65a5,5,0,1,0-7.43-6.69Z"/><path class="cls-1" d="M1433,729.54c-7.76,5.92-15.93,11.57-24.29,16.8a5,5,0,0,0,2.66,9.24,4.94,4.94,0,0,0,2.65-.77c8.61-5.39,17-11.21,25-17.32a5,5,0,1,0-6.06-8Z"/><path class="cls-1" d="M1464.24,340.37a5,5,0,0,0,3.83-8.21,302.1,302.1,0,0,0-20.75-22.33,5,5,0,1,0-7,7.16,294.56,294.56,0,0,1,20.05,21.6A5,5,0,0,0,1464.24,340.37Z"/><rect class="cls-1" x="1060.04" y="200.65" width="65" height="10" transform="translate(745.69 1261.89) rotate(-82.48)"/></g><g id="Pitroad"><path class="cls-2" d="M504.45,753.88a219,219,0,0,1-24-17.36,2.5,2.5,0,0,0-3.2,3.85,225,225,0,0,0,24.57,17.75,2.46,2.46,0,0,0,1.32.38,2.5,2.5,0,0,0,1.33-4.62Z"/><path class="cls-2" d="M616.76,788.89a247.11,247.11,0,0,1-29.45-3.75,2.5,2.5,0,1,0-.92,4.91,250.87,250.87,0,0,0,30,3.83h.16a2.5,2.5,0,0,0,.17-5Z"/><path class="cls-2" d="M546.37,287.2a2.5,2.5,0,0,0-3.07-3.95c-1.58,1.24-3.17,2.51-4.72,3.78-6,5-12.2,10.26-18.29,15.73a2.5,2.5,0,1,0,3.34,3.72c6-5.42,12.14-10.67,18.13-15.59C543.27,289.65,544.82,288.4,546.37,287.2Z"/><path class="cls-2" d="M558.47,778c-4-1.22-7.88-2.53-11.67-3.9-5.45-1.89-10.89-4-16.18-6.38a2.5,2.5,0,0,0-2,4.57c5.42,2.4,11,4.6,16.54,6.52,3.83,1.39,7.82,2.73,11.87,4a2.31,2.31,0,0,0,.73.11,2.5,2.5,0,0,0,.74-4.89Z"/><path class="cls-2" d="M598.8,254.09a2.5,2.5,0,0,0-3.27-1.34,231.62,231.62,0,0,0-27.13,13.52,2.5,2.5,0,0,0,2.52,4.32,227.06,227.06,0,0,1,26.54-13.23A2.5,2.5,0,0,0,598.8,254.09Z"/><path class="cls-2" d="M440,693.23a2.5,2.5,0,1,0-4,2.95,255.94,255.94,0,0,0,19.25,23.36,2.5,2.5,0,0,0,3.66-3.4A252,252,0,0,1,440,693.23Z"/><path class="cls-2" d="M457.33,367.45c-6.44,7.48-12.9,15.27-19.2,23.16a2.5,2.5,0,0,0,3.91,3.12c6.26-7.84,12.68-15.58,19.08-23a2.5,2.5,0,1,0-3.79-3.26Z"/><path class="cls-2" d="M382.44,524.65a2.48,2.48,0,0,0-2.63,2.36c-.29,5.28-.43,10.75-.43,16.25,0,4.55.1,9.25.29,14a2.51,2.51,0,0,0,2.5,2.4h.1a2.5,2.5,0,0,0,2.4-2.6c-.19-4.66-.29-9.29-.29-13.77,0-5.41.14-10.79.42-16A2.5,2.5,0,0,0,382.44,524.65Z"/><path class="cls-2" d="M479.23,349.22a2.49,2.49,0,0,0,1.83-.8c6.86-7.37,13.87-14.59,20.82-21.45a2.5,2.5,0,0,0-3.52-3.56c-7,6.91-14.05,14.18-21,21.6a2.5,2.5,0,0,0,1.83,4.21Z"/><path class="cls-2" d="M388.15,497.81a194.72,194.72,0,0,1,7.35-28.64,2.5,2.5,0,0,0-4.73-1.63,199.89,199.89,0,0,0-7.54,29.39,2.5,2.5,0,0,0,2,2.9,2.28,2.28,0,0,0,.45,0A2.49,2.49,0,0,0,388.15,497.81Z"/><path class="cls-2" d="M423.25,413.92a2.5,2.5,0,0,0-3.49.57l-1.51,2.11a227.14,227.14,0,0,0-15.11,23.18,2.5,2.5,0,0,0,1,3.4,2.56,2.56,0,0,0,1.22.32,2.5,2.5,0,0,0,2.18-1.29,224.44,224.44,0,0,1,14.81-22.69l1.52-2.12A2.5,2.5,0,0,0,423.25,413.92Z"/><path class="cls-2" d="M390.23,585.81a2.5,2.5,0,1,0-4.82,1.32c2.7,9.87,5.74,19.56,9,28.79a2.49,2.49,0,0,0,2.35,1.66,2.43,2.43,0,0,0,.84-.14,2.51,2.51,0,0,0,1.52-3.2C395.9,605.13,392.9,595.56,390.23,585.81Z"/><path class="cls-2" d="M410.29,641.85a2.5,2.5,0,1,0-4.55,2.07c4.24,9.32,8.87,18.36,13.79,26.89a2.5,2.5,0,0,0,2.17,1.25,2.53,2.53,0,0,0,1.24-.33,2.5,2.5,0,0,0,.92-3.42C419,659.92,414.46,651,410.29,641.85Z"/><path class="cls-2" d="M676.91,790.07c-12.22-.22-22.41-.39-30.14-.51a2.5,2.5,0,0,0-.08,5c7.73.12,17.92.29,30.14.51h0a2.5,2.5,0,0,0,0-5Z"/><path class="cls-2" d="M656.15,236.57a2.5,2.5,0,0,0-3.08-1.74l-28.9,8.07a2.49,2.49,0,0,0,.67,4.9,2.57,2.57,0,0,0,.67-.09l28.9-8.06A2.5,2.5,0,0,0,656.15,236.57Z"/><path class="cls-2" d="M1098.12,798.37l-30.08-.61a2.5,2.5,0,1,0-.1,5l30.08.62h0a2.5,2.5,0,0,0,0-5Z"/><path class="cls-2" d="M977.81,795.93l-30.07-.61a2.48,2.48,0,0,0-2.55,2.45,2.5,2.5,0,0,0,2.45,2.55l30.07.61h0a2.5,2.5,0,0,0,0-5Z"/><path class="cls-2" d="M1158.32,799.6l-30.11-.62h0a2.5,2.5,0,0,0-.05,5l30.11.61h0a2.5,2.5,0,0,0,0-5Z"/><path class="cls-2" d="M1218.57,800.83l-30.13-.62h0a2.5,2.5,0,0,0-.05,5l30.13.62h0a2.5,2.5,0,0,0,0-5Z"/><path class="cls-2" d="M917.63,794.72l-30.07-.6h0a2.5,2.5,0,0,0,0,5l30.07.6h.05a2.5,2.5,0,0,0,0-5Z"/><path class="cls-2" d="M1038,797.15l-30.08-.61a2.47,2.47,0,0,0-2.55,2.44,2.5,2.5,0,0,0,2.45,2.55l30.08.61h.05a2.5,2.5,0,0,0,0-5Z"/><path class="cls-2" d="M713.94,220.45a2.5,2.5,0,0,0-3.08-1.74L682,226.77a2.5,2.5,0,0,0,.67,4.91,2.65,2.65,0,0,0,.68-.09l28.89-8.06A2.5,2.5,0,0,0,713.94,220.45Z"/><path class="cls-2" d="M737.15,791.18,707,790.61h0a2.5,2.5,0,0,0,0,5l30.1.57h.05a2.5,2.5,0,0,0,0-5Z"/><path class="cls-2" d="M797.33,792.34l-30.08-.58h0a2.5,2.5,0,0,0-.05,5l30.08.58h0a2.5,2.5,0,0,0,.05-5Z"/><path class="cls-2" d="M771.73,204.33a2.5,2.5,0,0,0-3.08-1.74l-28.89,8.06a2.5,2.5,0,0,0,.67,4.91,2.57,2.57,0,0,0,.67-.09l28.9-8.06A2.49,2.49,0,0,0,771.73,204.33Z"/><path class="cls-2" d="M857.49,793.52l-30.08-.59a2.5,2.5,0,1,0-.1,5l30.08.59h.05a2.5,2.5,0,0,0,0-5Z"/><polygon class="cls-2" points="1271.03 804.42 1227.53 785 1235.01 803.67 1226.76 822.02 1271.03 804.42"/></g></svg>