<?xml version="1.0" encoding="utf-8"?>
<!-- Generator: Adobe Illustrator 24.0.1, SVG Export Plug-In . SVG Version: 6.00 Build 0)  -->
<svg version="1.1" id="Donnington_National__Pit_Road"
	 xmlns="http://www.w3.org/2000/svg" xmlns:xlink="http://www.w3.org/1999/xlink" x="0px" y="0px" viewBox="0 0 1920 1080"
	 style="enable-background:new 0 0 1920 1080;" xml:space="preserve">
<style type="text/css">
	.st0{fill:#D82520;}
</style>
<title>pitroad</title>
<g id="Pitroad">
	<path class="st0" d="M1144.9,481.9l-14.8,2.5c-1.4,0.2-2.3,1.5-2,2.9c0.2,1.2,1.3,2.1,2.5,2.1c0.1,0,0.3,0,0.4,0l14.8-2.5
		c1.4-0.2,2.3-1.5,2-2.9C1147.5,482.6,1146.2,481.7,1144.9,481.9z"/>
	<path class="st0" d="M1326.6,481.6l-30.2-3.2c-1.4-0.1-2.6,0.8-2.8,2.2c-0.1,1.4,0.8,2.6,2.2,2.8l30.2,3.2c0.1,0,0.2,0,0.3,0
		c1.3,0,2.3-1,2.5-2.2C1329,483,1328,481.8,1326.6,481.6z"/>
	<path class="st0" d="M1266.1,475.2l-22.9-2.4c-2.7-0.2-5.1-0.3-7.5-0.5c-1.4-0.1-2.6,1-2.6,2.3c-0.1,1.4,1,2.6,2.3,2.6
		c2.3,0.1,4.8,0.3,7.3,0.5l22.8,2.4c0.1,0,0.2,0,0.3,0c1.3,0,2.3-1,2.5-2.2C1268.5,476.6,1267.5,475.3,1266.1,475.2z"/>
	<path class="st0" d="M1204.8,471.9l-30,5c-1.4,0.2-2.3,1.5-2.1,2.9c0.2,1.2,1.3,2.1,2.5,2.1c0.1,0,0.3,0,0.4,0l30-5
		c1.4-0.2,2.3-1.5,2.1-2.9S1206.2,471.6,1204.8,471.9z"/>
	<path class="st0" d="M1387.1,488.1l-30.2-3.2c-1.4-0.2-2.6,0.8-2.8,2.2c-0.1,1.4,0.8,2.6,2.2,2.8l30.2,3.2c0.1,0,0.2,0,0.3,0
		c1.3,0,2.3-1,2.5-2.2C1389.5,489.5,1388.5,488.3,1387.1,488.1z"/>
	<path class="st0" d="M1568.6,508.5c-13.8-2.5-25.9-3.8-26-3.8l-4.3-0.5c-1.4-0.1-2.6,0.8-2.8,2.2c-0.1,1.4,0.8,2.6,2.2,2.8l4.3,0.5
		c0.1,0,12,1.3,25.7,3.7c0.1,0,0.3,0,0.4,0c1.2,0,2.2-0.8,2.5-2.1C1570.9,510.1,1570,508.8,1568.6,508.5z"/>
	<path class="st0" d="M1627.8,523.2l-29.4-7.7c-1.3-0.4-2.7,0.5-3,1.8c-0.3,1.3,0.5,2.7,1.8,3.1l29.4,7.7c0.2,0.1,0.4,0.1,0.6,0.1
		c1.1,0,2.1-0.7,2.4-1.9C1630,524.9,1629.2,523.5,1627.8,523.2z"/>
	<path class="st0" d="M1447.6,494.6l-30.2-3.2c-1.4-0.1-2.6,0.8-2.8,2.2c-0.1,1.4,0.8,2.6,2.2,2.8l30.2,3.2c0.1,0,0.2,0,0.3,0
		c1.3,0,2.3-1,2.5-2.2C1449.9,496,1448.9,494.7,1447.6,494.6z"/>
	<path class="st0" d="M1508,501l-30.2-3.2c-1.4-0.1-2.6,0.8-2.8,2.2c-0.1,1.4,0.8,2.6,2.2,2.8l30.2,3.2c0.1,0,0.2,0,0.3,0
		c1.3,0,2.3-1,2.5-2.2C1510.4,502.4,1509.4,501.2,1508,501z"/>
	<path class="st0" d="M1700,544.6l-37.8-29l2.5,17.2l-7.5-2c-1.3-0.3-2.7,0.5-3.1,1.8c-0.3,1.3,0.5,2.7,1.8,3.1l7.5,2l-10.6,13.8
		L1700,544.6z"/>
</g>
</svg>
