<svg id="Open_Dogleg_-_Pit_Road" data-name="Open Dogleg - Pit Road" xmlns="http://www.w3.org/2000/svg" viewBox="0 0 1920 1080"><defs><style>.cls-1{fill:#0089ba;}.cls-2{fill:#d82520;}</style></defs><title>pitroad</title><g id="Mergeline"><path class="cls-1" d="M1403.66,198.06c-7.49-5.34-15.75-11.21-24.52-17.43a5,5,0,1,0-5.78,8.15c8.76,6.22,17,12.09,24.5,17.43a5,5,0,0,0,5.8-8.15Z"/><path class="cls-1" d="M1354.61,163.24c-8-5.69-16.3-11.5-24.58-17.33a5,5,0,1,0-5.75,8.18c8.27,5.82,16.51,11.63,24.55,17.32a5,5,0,0,0,5.78-8.17Z"/><path class="cls-1" d="M1452.66,233.48c-6.29-4.78-8.4-6.38-9.23-7h0l-15.27-10.94a5,5,0,0,0-5.82,8.14c9.07,6.48,14.64,10.48,15.21,10.89l9.06,6.86a5,5,0,0,0,7-1A5,5,0,0,0,1452.66,233.48Z"/><path class="cls-1" d="M1255.89,94.43c-9.69-6.6-18.12-12.26-25.06-16.81a5,5,0,0,0-5.49,8.36c6.89,4.52,15.28,10.14,24.92,16.71a5,5,0,1,0,5.63-8.26Z"/><path class="cls-1" d="M1305.41,128.65c-8.72-6.09-17-11.87-24.7-17.18a5,5,0,0,0-5.69,8.23c7.66,5.3,16,11.07,24.66,17.15a5,5,0,0,0,5.73-8.2Z"/><path class="cls-1" d="M1500.5,270c-7.93-6.1-16.2-12.43-23.89-18.3a5,5,0,0,0-6.06,7.95c7.67,5.86,15.92,12.18,23.84,18.28a5,5,0,0,0,6.11-7.93Z"/><path class="cls-1" d="M1713,581.62a5,5,0,1,0-10,.23c.06,2.73.09,5.5.09,8.23,0,7.08-.21,14.26-.63,21.34a5,5,0,0,0,4.69,5.29h.3a5,5,0,0,0,5-4.7c.43-7.28.65-14.66.65-21.94C1713,587.27,1713,584.43,1713,581.62Z"/><path class="cls-1" d="M1547.86,307c-3.24-2.45-6.54-4.91-9.82-7.31-2.48-2.18-7-5.84-13.76-11.18a5,5,0,1,0-6.2,7.85c6.7,5.28,11.25,9,13.51,11l.36.28c3.3,2.41,6.62,4.89,9.86,7.35a5,5,0,0,0,6-8Z"/><path class="cls-1" d="M1668.1,423.08c-.58-.78-4-5.32-10.31-12.76a5,5,0,0,0-7.64,6.45c6.54,7.76,10,12.36,10,12.4l.17.22a84.87,84.87,0,0,1,7.33,10.7,5,5,0,1,0,8.6-5.09A93.66,93.66,0,0,0,1668.1,423.08Z"/><path class="cls-1" d="M1706,556.8l.54,0a5,5,0,0,0,4.44-5.5c-1.07-10.09-2.57-20.21-4.47-30.08a5,5,0,1,0-9.82,1.89c1.84,9.59,3.31,19.43,4.35,29.25A5,5,0,0,0,1706,556.8Z"/><path class="cls-1" d="M1699.46,491.57a299.57,299.57,0,0,0-9.83-28.87,5,5,0,0,0-9.29,3.72,287.87,287.87,0,0,1,9.51,27.91,5,5,0,1,0,9.61-2.76Z"/><path class="cls-1" d="M1616.48,366.14a5,5,0,0,0-7,7.15c7.18,7,14.19,14.17,20.85,21.27a5,5,0,0,0,3.65,1.59,5,5,0,0,0,3.65-8.42C1630.88,380.51,1623.76,373.25,1616.48,366.14Z"/><path class="cls-1" d="M1571.54,325.75a5,5,0,0,0-6.37,7.71c7.62,6.3,15.22,12.84,22.58,19.45a5,5,0,0,0,7.06-.37,5,5,0,0,0-.38-7.06C1587,338.77,1579.27,332.14,1571.54,325.75Z"/><rect class="cls-1" x="1178.99" y="66.36" width="65" height="10" transform="translate(537.68 1080.7) rotate(-59.64)"/></g><g id="Pitroad"><path class="cls-2" d="M778.54,901.8l-30,0h0a2.5,2.5,0,0,0,0,5l30,0h0a2.5,2.5,0,0,0,0-5Z"/><path class="cls-2" d="M718.61,901.41c-9.15-.26-19.22-.65-29.93-1.14a2.5,2.5,0,1,0-.23,5c10.74.5,20.84.88,30,1.14h.07a2.5,2.5,0,0,0,.07-5Z"/><path class="cls-2" d="M838.54,901.89l-30,0h0a2.5,2.5,0,1,0,0,5l30,0h0a2.5,2.5,0,1,0,0-5Z"/><path class="cls-2" d="M1018.54,902.17l-30,0h0a2.5,2.5,0,0,0,0,5l30,0h0a2.5,2.5,0,0,0,0-5Z"/><path class="cls-2" d="M958.54,902.07l-30,0h0a2.5,2.5,0,0,0,0,5l30,0h0a2.5,2.5,0,1,0,0-5Z"/><path class="cls-2" d="M898.54,902l-30,0h0a2.5,2.5,0,1,0,0,5l30,0h0a2.5,2.5,0,1,0,0-5Z"/><path class="cls-2" d="M658.75,898.68c-9.7-.58-19.76-1.23-29.91-1.94a2.5,2.5,0,0,0-.35,5c10.16.71,20.24,1.36,30,1.94h.15a2.5,2.5,0,0,0,.14-5Z"/><path class="cls-2" d="M363.87,853.84c-9.32-3.26-18.75-6.78-28-10.47A2.5,2.5,0,0,0,334,848c9.33,3.71,18.82,7.26,28.21,10.54a2.43,2.43,0,0,0,.83.15,2.5,2.5,0,0,0,.82-4.87Z"/><path class="cls-2" d="M308.3,831.74c-9.13-4.09-18.23-8.39-27.05-12.79a2.5,2.5,0,0,0-2.23,4.48c8.88,4.43,18.05,8.76,27.24,12.87a2.5,2.5,0,1,0,2-4.56Z"/><path class="cls-2" d="M599,894.51c-9.74-.78-19.79-1.62-29.87-2.5a2.5,2.5,0,0,0-.44,5c10.09.89,20.16,1.73,29.92,2.5h.2a2.5,2.5,0,0,0,.19-5Z"/><path class="cls-2" d="M421.12,871.06c-9.52-2.4-19.22-5.07-28.81-8a2.5,2.5,0,1,0-1.44,4.78c9.67,2.91,19.44,5.61,29,8a2.6,2.6,0,0,0,.61.07,2.5,2.5,0,0,0,.61-4.92Z"/><path class="cls-2" d="M539.22,889.29c-9.83-.94-19.87-1.93-29.84-2.95a2.5,2.5,0,1,0-.51,5c10,1,20,2,29.88,3H539a2.5,2.5,0,0,0,.24-5Z"/><path class="cls-2" d="M479.71,882.76c-9.72-1.43-19.62-3.15-29.44-5.12a2.5,2.5,0,1,0-1,4.9c9.9,2,19.89,3.72,29.69,5.17l.37,0a2.5,2.5,0,0,0,.36-5Z"/><path class="cls-2" d="M254.78,805c-16.31-9.09-25.55-15.25-25.65-15.31a2.5,2.5,0,0,0-2.78,4.16c.1.06,9.49,6.32,26,15.52a2.5,2.5,0,1,0,2.43-4.37Z"/><path class="cls-2" d="M1648.33,796.11a2.5,2.5,0,0,0-3.46.74A165.72,165.72,0,0,1,1626.63,820a2.5,2.5,0,0,0,.11,3.53,2.5,2.5,0,0,0,3.53-.1,170,170,0,0,0,18.8-23.87A2.5,2.5,0,0,0,1648.33,796.11Z"/><path class="cls-2" d="M1604.68,839.8A221.92,221.92,0,0,1,1580,856.23a2.5,2.5,0,0,0,1.25,4.67,2.44,2.44,0,0,0,1.24-.34,226.08,226.08,0,0,0,25.23-16.8,2.5,2.5,0,0,0-3.06-4Z"/><path class="cls-2" d="M1553.46,869.58c-8.78,3.83-18.13,7.41-27.8,10.63a2.5,2.5,0,0,0,.79,4.87,2.42,2.42,0,0,0,.79-.13c9.81-3.26,19.31-6.89,28.22-10.79a2.5,2.5,0,1,0-2-4.58Z"/><path class="cls-2" d="M1678,744a2.49,2.49,0,0,0-3.35,1.13c-4.05,8.21-8.59,16.52-14.28,26.15a2.51,2.51,0,0,0,.88,3.43,2.55,2.55,0,0,0,1.27.34,2.5,2.5,0,0,0,2.16-1.22c5.75-9.75,10.34-18.16,14.45-26.49A2.48,2.48,0,0,0,1678,744Z"/><path class="cls-2" d="M1698.23,687.66a2.5,2.5,0,0,0-3,1.82,274.34,274.34,0,0,1-8.77,28.37,2.51,2.51,0,0,0,1.47,3.22,2.65,2.65,0,0,0,.87.15,2.51,2.51,0,0,0,2.35-1.63,278.93,278.93,0,0,0,8.93-28.9A2.5,2.5,0,0,0,1698.23,687.66Z"/><path class="cls-2" d="M1078.54,902.26l-30,0h0a2.5,2.5,0,0,0,0,5l30,0h0a2.5,2.5,0,0,0,0-5Z"/><path class="cls-2" d="M1497,888.5c-9.4,2.34-19.23,4.44-29.21,6.24a2.5,2.5,0,0,0,.44,5,3.42,3.42,0,0,0,.45,0c10.09-1.82,20-3.94,29.53-6.31a2.5,2.5,0,1,0-1.21-4.85Z"/><path class="cls-2" d="M1198.54,902.44l-30,0h0a2.5,2.5,0,1,0,0,5l30,0h0a2.5,2.5,0,1,0,0-5Z"/><path class="cls-2" d="M1438.24,899.15c-9.89,1.18-19.91,2.09-29.79,2.71a2.5,2.5,0,0,0,.15,5h.16c10-.63,20.09-1.55,30.07-2.74a2.5,2.5,0,1,0-.59-5Z"/><path class="cls-2" d="M1138.54,902.35l-30-.05h0a2.5,2.5,0,0,0,0,5l30,.05h0a2.5,2.5,0,0,0,0-5Z"/><path class="cls-2" d="M1258.54,902.53l-30,0h0a2.5,2.5,0,1,0,0,5l30,0h0a2.5,2.5,0,1,0,0-5Z"/><path class="cls-2" d="M1378.57,902.75c-1.56,0-2.38,0-2.47,0l-27.56,0h0a2.5,2.5,0,0,0,0,5l27.47,0s.87,0,2.5,0h0a2.5,2.5,0,0,0,0-5Z"/><path class="cls-2" d="M1318.54,902.62l-30,0h0a2.5,2.5,0,1,0,0,5l30,0h0a2.5,2.5,0,1,0,0-5Z"/><path class="cls-2" d="M1723.14,656.68l-15.74-45-21.22,42.65,16.32-5.76c-.45,4-1,7.88-1.52,11.7a2.48,2.48,0,0,0,2.1,2.84l.37,0a2.49,2.49,0,0,0,2.47-2.13c.59-4,1.12-8.07,1.58-12.2Z"/></g></svg>