<?xml version="1.0" encoding="utf-8"?>
<!-- Generator: Adobe Illustrator 24.0.1, SVG Export Plug-In . SVG Version: 6.00 Build 0)  -->
<svg version="1.1" id="Gateway_Oval_-_Pit_Road" xmlns="http://www.w3.org/2000/svg" xmlns:xlink="http://www.w3.org/1999/xlink"
	 x="0px" y="0px" viewBox="0 0 1920 1080" style="enable-background:new 0 0 1920 1080;" xml:space="preserve">
<style type="text/css">
	.st0{fill:#016699;}
	.st1{fill:#D82520;}
</style>
<title>pitroad</title>
<g id="Mergeline">
	<path class="st0" d="M1515.1,386.8c2,0,3.9-1.2,4.7-3.2c1-2.6-0.3-5.5-2.9-6.4l-28.1-10.6c-2.6-1-5.5,0.3-6.4,2.9
		c-1,2.6,0.3,5.5,2.9,6.4l28.1,10.6C1514,386.7,1514.6,386.8,1515.1,386.8z"/>
	<path class="st0" d="M1524.3,797.4c-8.9,1.1-18.9,2.1-29.7,3c-2.8,0.2-4.8,2.6-4.6,5.4c0.2,2.6,2.4,4.6,5,4.6c0.1,0,0.3,0,0.4,0
		c11-0.9,21.1-1.9,30.1-3c2.7-0.3,4.7-2.8,4.4-5.6S1527.1,797.1,1524.3,797.4z"/>
	<path class="st0" d="M1705.9,549.5c2.6,9.4,4.5,19.1,5.8,28.8c0.3,2.5,2.5,4.3,4.9,4.3c0.2,0,0.4,0,0.7,0c2.7-0.4,4.7-2.9,4.3-5.6
		c-1.4-10.1-3.4-20.2-6.1-30.1c-0.7-2.7-3.5-4.2-6.1-3.5C1706.8,544.1,1705.2,546.8,1705.9,549.5z"/>
	<path class="st0" d="M1561.9,404.8c2.6,0.9,5.3,1.8,7.8,2.7c0.6,0.2,1.1,0.3,1.7,0.3c2.1,0,4-1.3,4.7-3.3c0.9-2.6-0.4-5.5-3-6.4
		c-2.6-0.9-5.3-1.9-8-2.7l-20.1-7.6c-2.6-1-5.5,0.3-6.4,2.9c-1,2.6,0.3,5.5,2.9,6.4l20.2,7.6L1561.9,404.8z"/>
	<path class="st0" d="M1696.3,521.8c0.8,1.9,2.7,3,4.6,3c0.7,0,1.3-0.1,2-0.4c2.5-1.1,3.7-4,2.6-6.6c-4-9.5-8.8-18.7-14-27.3
		c-1.4-2.4-4.5-3.1-6.9-1.7c-2.4,1.4-3.1,4.5-1.7,6.9C1688,504,1692.5,512.7,1696.3,521.8z"/>
	<path class="st0" d="M1464.8,802.6c-17.3,1-29.8,1.4-29.9,1.4c-2.8,0.1-4.9,2.4-4.8,5.2c0.1,2.7,2.3,4.8,5,4.8c0.1,0,0.1,0,0.2,0
		c0.1,0,12.7-0.4,30.2-1.5c2.8-0.2,4.9-2.5,4.7-5.3C1469.9,804.5,1467.5,802.4,1464.8,802.6z"/>
	<path class="st0" d="M1669.7,473.8c1.1,0,2.3-0.4,3.2-1.2c2.1-1.8,2.4-4.9,0.6-7c-6.5-7.8-13.7-15.2-21.4-22
		c-2.1-1.8-5.2-1.6-7.1,0.4c-1.8,2.1-1.6,5.2,0.4,7.1c7.3,6.5,14.2,13.5,20.4,20.9C1666.9,473.2,1668.3,473.8,1669.7,473.8z"/>
	<path class="st0" d="M1682.4,714.7c-2.2-1.7-5.3-1.3-7,0.9c-5.9,7.5-12.5,14.8-19.7,21.6c-2,1.9-2.1,5.1-0.2,7.1
		c1,1,2.3,1.6,3.6,1.6c1.2,0,2.5-0.5,3.4-1.4c7.6-7.1,14.5-14.7,20.7-22.7C1685,719.6,1684.6,716.4,1682.4,714.7z"/>
	<path class="st0" d="M1581.3,783.8c-15.1,6.1-25.4,8.5-25.5,8.5c-0.8,0.2-1.6,0.3-2.4,0.5c-2.7,0.6-4.4,3.2-3.9,5.9
		c0.5,2.4,2.6,4,4.9,4c0.3,0,0.7,0,1-0.1c0.8-0.2,1.7-0.4,2.5-0.6c0.4-0.1,11.1-2.6,26.9-9c2.6-1,3.8-3.9,2.8-6.5
		C1586.8,784,1583.9,782.8,1581.3,783.8z"/>
	<path class="st0" d="M1718.7,602.5c0,0-0.1,0-0.1,0c-2.7,0-4.9,2.1-5,4.9c0,1.4-0.1,2.2-0.1,2.3l0,0.1c-0.4,9.1-1.4,18-2.9,26.6
		c-0.5,2.7,1.3,5.3,4,5.8c0.3,0.1,0.6,0.1,0.9,0.1c2.4,0,4.5-1.7,4.9-4.1c1.6-9,2.6-18.4,3.1-27.8c0-0.2,0.1-1.2,0.1-2.7
		C1723.6,604.9,1721.4,602.6,1718.7,602.5z"/>
	<path class="st0" d="M1709.5,661.6c-2.6-0.9-5.5,0.5-6.4,3.1c-3.2,9.2-7.1,18.1-11.8,26.6c-1.3,2.4-0.4,5.5,2,6.8
		c0.8,0.4,1.6,0.6,2.4,0.6c1.8,0,3.5-0.9,4.4-2.6c4.9-9,9.1-18.4,12.4-28.1C1713.5,665.3,1712.1,662.5,1709.5,661.6z"/>
	<path class="st0" d="M1633,755.7c-7.8,5.6-16.2,10.8-25,15.5c-2.4,1.3-3.3,4.4-2,6.8c0.9,1.7,2.6,2.6,4.4,2.6
		c0.8,0,1.6-0.2,2.4-0.6c9.1-4.9,17.8-10.4,26-16.2c2.2-1.6,2.8-4.7,1.2-7C1638.3,754.6,1635.2,754.1,1633,755.7z"/>
	<path class="st0" d="M1625,434.2c1.6,0,3.2-0.8,4.2-2.2c1.5-2.3,0.9-5.4-1.4-6.9c-8.3-5.5-17.3-10.6-26.6-15.1
		c-2.5-1.2-5.5-0.2-6.7,2.3c-1.2,2.5-0.2,5.5,2.3,6.7c8.9,4.4,17.5,9.2,25.5,14.5C1623.1,433.9,1624.1,434.2,1625,434.2z"/>
	
		<rect x="1437.9" y="359.9" transform="matrix(0.353 -0.9356 0.9356 0.353 609.9812 1611.7871)" class="st0" width="65" height="10"/>
</g>
<g id="Pitroad">
	<path class="st1" d="M352.7,780.6c-9.1-4.2-18.1-8.7-26.6-13.3c-1.2-0.7-2.7-0.2-3.4,1c-0.7,1.2-0.2,2.7,1,3.4
		c8.6,4.7,17.7,9.3,26.9,13.5c0.3,0.2,0.7,0.2,1,0.2c0.9,0,1.9-0.5,2.3-1.5C354.5,782.7,354,781.2,352.7,780.6z"/>
	<path class="st1" d="M299,284.2c-0.6-1.2-2.1-1.8-3.3-1.1c-9.2,4.5-18,9.5-26.4,14.8c-1.2,0.7-1.5,2.3-0.8,3.5
		c0.5,0.7,1.3,1.2,2.1,1.2c0.5,0,0.9-0.1,1.3-0.4c8.2-5.2,16.9-10.1,25.9-14.6C299.1,287,299.6,285.5,299,284.2z"/>
	<path class="st1" d="M300.5,752c-8.4-5.5-16.6-11.3-24.3-17.2c-1.1-0.8-2.7-0.6-3.5,0.4c-0.8,1.1-0.6,2.7,0.4,3.5
		c7.8,6.1,16.1,11.9,24.6,17.5c0.4,0.3,0.9,0.4,1.4,0.4c0.8,0,1.6-0.4,2.1-1.1C302,754.3,301.7,752.8,300.5,752z"/>
	<path class="st1" d="M232.8,694.3c-0.9-1-2.5-1.1-3.5-0.2c-1,0.9-1.1,2.5-0.2,3.5c6.6,7.4,13.7,14.7,21.1,21.6
		c0.5,0.4,1.1,0.7,1.7,0.7c0.7,0,1.3-0.3,1.8-0.8c0.9-1,0.9-2.6-0.1-3.5C246.3,708.7,239.3,701.6,232.8,694.3z"/>
	<path class="st1" d="M472.1,249c-10.2,0-20.3,0.2-30.1,0.7c-1.4,0.1-2.4,1.2-2.4,2.6c0.1,1.3,1.2,2.4,2.5,2.4c0,0,0.1,0,0.1,0
		c9.7-0.5,19.8-0.7,29.9-0.7c1.4,0,2.5-1.1,2.5-2.5S473.5,249,472.1,249z"/>
	<path class="st1" d="M411.9,252c-13.8,1.5-23.9,3.1-29.9,4.3c-1.4,0.3-2.2,1.6-2,2.9c0.2,1.2,1.3,2,2.5,2c0.2,0,0.3,0,0.5,0
		c5.9-1.1,15.9-2.8,29.5-4.2c1.4-0.1,2.4-1.4,2.2-2.7C414.5,252.8,413.3,251.8,411.9,252z"/>
	<path class="st1" d="M352.4,262.3c-9.7,2.4-19.4,5.5-28.9,9c-1.3,0.5-2,1.9-1.5,3.2c0.4,1,1.3,1.6,2.3,1.6c0.3,0,0.6,0,0.9-0.2
		c9.4-3.4,18.9-6.4,28.4-8.8c1.3-0.3,2.1-1.7,1.8-3C355.1,262.7,353.8,261.9,352.4,262.3z"/>
	<path class="st1" d="M467.5,803.8C467.4,803.8,467.4,803.8,467.5,803.8c-4.9,0-9.3,0.1-13.3,0.1c-6,0-11.2,0.1-15.6,0.1l-1,0
		c-1.4,0-2.5,1.1-2.5,2.5s1.1,2.5,2.5,2.5l1,0c4.5,0,9.6,0,15.7-0.1c4,0,8.4-0.1,13.3-0.1c1.4,0,2.5-1.1,2.5-2.5
		C469.9,804.9,468.8,803.8,467.5,803.8z"/>
	<path class="st1" d="M170.4,446.2c1.1,0,2.2-0.8,2.4-1.9c2.3-9.8,5-19.4,8.2-28.5c0.5-1.3-0.2-2.7-1.5-3.2
		c-1.3-0.5-2.7,0.2-3.2,1.5c-3.3,9.3-6.1,19.1-8.4,29.1c-0.3,1.3,0.5,2.7,1.9,3C170,446.1,170.2,446.2,170.4,446.2z"/>
	<path class="st1" d="M166.9,552.4l0-0.1c-0.6-6.5-1.1-13-1.4-19.3c-0.1-1.4-1.2-2.4-2.6-2.4c-1.4,0.1-2.4,1.2-2.4,2.6
		c0.3,6.4,0.8,13,1.4,19.5c0,0.6,0.2,4.3,1.2,10.7c0.2,1.2,1.3,2.1,2.5,2.1c0.1,0,0.3,0,0.4,0c1.4-0.2,2.3-1.5,2.1-2.8
		C167,556.2,166.9,552.4,166.9,552.4z"/>
	<path class="st1" d="M162.7,505.6C162.7,505.6,162.8,505.6,162.7,505.6c1.4,0,2.5-1.1,2.6-2.4c0.3-10.1,1.1-20,2.4-29.7
		c0.2-1.4-0.8-2.6-2.2-2.8c-1.4-0.2-2.6,0.8-2.8,2.2c-1.2,9.8-2,19.9-2.4,30.1C160.2,504.4,161.3,505.5,162.7,505.6z"/>
	<path class="st1" d="M198.2,646c-0.7-1.2-2.2-1.6-3.4-0.9c-1.2,0.7-1.6,2.2-0.9,3.4c4.9,8.7,10.4,17.2,16.4,25.4c0.5,0.7,1.3,1,2,1
		c0.5,0,1-0.2,1.5-0.5c1.1-0.8,1.4-2.4,0.6-3.5C208.4,663,203,654.6,198.2,646z"/>
	<path class="st1" d="M174.7,591.6c-0.4-1.3-1.8-2.1-3.1-1.7c-1.3,0.4-2.1,1.8-1.7,3.1c2.9,9.5,6.4,19.1,10.4,28.5
		c0.4,0.9,1.3,1.5,2.3,1.5c0.3,0,0.7-0.1,1-0.2c1.3-0.5,1.9-2,1.3-3.3C180.9,610.3,177.5,600.9,174.7,591.6z"/>
	<path class="st1" d="M231.6,334.7c5.2-5.2,10.7-10.3,16.4-15.1c1.1-0.9,1.2-2.5,0.3-3.5c-0.9-1.1-2.5-1.2-3.5-0.3
		c-5.8,4.9-11.5,10-16.7,15.3c-0.5,0.4-2.5,2.1-5.5,5.2c-1,1-1,2.6,0,3.5c0.5,0.5,1.1,0.7,1.8,0.7c0.6,0,1.3-0.2,1.8-0.7
		c3.2-3.3,5.2-4.9,5.2-4.9L231.6,334.7z"/>
	<path class="st1" d="M206.8,359.3c-1.1-0.8-2.7-0.5-3.5,0.7c-5.6,8.1-10.7,16.9-15.3,26.2c-0.6,1.2-0.1,2.7,1.1,3.4
		c0.4,0.2,0.7,0.3,1.1,0.3c0.9,0,1.8-0.5,2.2-1.4c4.5-9,9.5-17.7,14.9-25.6C208.3,361.6,208,360.1,206.8,359.3z"/>
	<path class="st1" d="M408.2,801.7c-4.5-1.1-9.4-2.7-16.2-5.1c-4-1.4-8-2.9-11.9-4.4c-1.3-0.5-2.7,0.1-3.2,1.4
		c-0.5,1.3,0.1,2.7,1.4,3.2c3.9,1.5,8,3,12,4.4c7,2.5,11.9,4.1,16.7,5.3c0.2,0,0.4,0.1,0.6,0.1c1.1,0,2.2-0.8,2.4-1.9
		C410.4,803.4,409.6,802,408.2,801.7z"/>
	<path class="st1" d="M1187.5,805.7l-30-0.1c0,0,0,0,0,0c-1.4,0-2.5,1.1-2.5,2.5c0,1.4,1.1,2.5,2.5,2.5l30,0.1c0,0,0,0,0,0
		c1.4,0,2.5-1.1,2.5-2.5C1190,806.9,1188.8,805.7,1187.5,805.7z"/>
	<path class="st1" d="M1127.5,805.6l-30-0.1c0,0,0,0,0,0c-1.4,0-2.5,1.1-2.5,2.5c0,1.4,1.1,2.5,2.5,2.5l30,0.1c0,0,0,0,0,0
		c1.4,0,2.5-1.1,2.5-2.5C1130,806.7,1128.8,805.6,1127.5,805.6z"/>
	<path class="st1" d="M1067.5,805.4l-30-0.1c0,0,0,0,0,0c-1.4,0-2.5,1.1-2.5,2.5c0,1.4,1.1,2.5,2.5,2.5l30,0.1c0,0,0,0,0,0
		c1.4,0,2.5-1.1,2.5-2.5C1070,806.5,1068.8,805.4,1067.5,805.4z"/>
	<path class="st1" d="M1247.5,805.9l-30-0.1c0,0,0,0,0,0c-1.4,0-2.5,1.1-2.5,2.5c0,1.4,1.1,2.5,2.5,2.5l30,0.1c0,0,0,0,0,0
		c1.4,0,2.5-1.1,2.5-2.5C1250,807,1248.8,805.9,1247.5,805.9z"/>
	<path class="st1" d="M1367.5,806.2l-30-0.1c0,0,0,0,0,0c-1.4,0-2.5,1.1-2.5,2.5c0,1.4,1.1,2.5,2.5,2.5l30,0.1c0,0,0,0,0,0
		c1.4,0,2.5-1.1,2.5-2.5C1370,807.4,1368.8,806.2,1367.5,806.2z"/>
	<path class="st1" d="M1307.5,806.1l-30-0.1c0,0,0,0,0,0c-1.4,0-2.5,1.1-2.5,2.5c0,1.4,1.1,2.5,2.5,2.5l30,0.1c0,0,0,0,0,0
		c1.4,0,2.5-1.1,2.5-2.5C1310,807.2,1308.8,806.1,1307.5,806.1z"/>
	<path class="st1" d="M527.5,803.9l-30-0.1c0,0,0,0,0,0c-1.4,0-2.5,1.1-2.5,2.5c0,1.4,1.1,2.5,2.5,2.5l30,0.1c0,0,0,0,0,0
		c1.4,0,2.5-1.1,2.5-2.5C530,805,528.8,803.9,527.5,803.9z"/>
	<path class="st1" d="M1007.5,805.2l-30-0.1c0,0,0,0,0,0c-1.4,0-2.5,1.1-2.5,2.5c0,1.4,1.1,2.5,2.5,2.5l30,0.1c0,0,0,0,0,0
		c1.4,0,2.5-1.1,2.5-2.5C1010,806.3,1008.8,805.2,1007.5,805.2z"/>
	<path class="st1" d="M647.5,804.2l-30-0.1c0,0,0,0,0,0c-1.4,0-2.5,1.1-2.5,2.5c0,1.4,1.1,2.5,2.5,2.5l30,0.1c0,0,0,0,0,0
		c1.4,0,2.5-1.1,2.5-2.5C650,805.3,648.8,804.2,647.5,804.2z"/>
	<path class="st1" d="M587.5,804l-30-0.1c0,0,0,0,0,0c-1.4,0-2.5,1.1-2.5,2.5c0,1.4,1.1,2.5,2.5,2.5l30,0.1c0,0,0,0,0,0
		c1.4,0,2.5-1.1,2.5-2.5C590,805.2,588.8,804,587.5,804z"/>
	<path class="st1" d="M707.5,804.4l-30-0.1c0,0,0,0,0,0c-1.4,0-2.5,1.1-2.5,2.5c0,1.4,1.1,2.5,2.5,2.5l30,0.1c0,0,0,0,0,0
		c1.4,0,2.5-1.1,2.5-2.5C710,805.5,708.8,804.4,707.5,804.4z"/>
	<path class="st1" d="M767.5,804.5l-30-0.1c0,0,0,0,0,0c-1.4,0-2.5,1.1-2.5,2.5c0,1.4,1.1,2.5,2.5,2.5l30,0.1c0,0,0,0,0,0
		c1.4,0,2.5-1.1,2.5-2.5C770,805.7,768.8,804.5,767.5,804.5z"/>
	<path class="st1" d="M887.5,804.9l-30-0.1c0,0,0,0,0,0c-1.4,0-2.5,1.1-2.5,2.5c0,1.4,1.1,2.5,2.5,2.5l30,0.1c0,0,0,0,0,0
		c1.4,0,2.5-1.1,2.5-2.5C890,806,888.8,804.9,887.5,804.9z"/>
	<path class="st1" d="M827.5,804.7l-30-0.1c0,0,0,0,0,0c-1.4,0-2.5,1.1-2.5,2.5c0,1.4,1.1,2.5,2.5,2.5l30,0.1c0,0,0,0,0,0
		c1.4,0,2.5-1.1,2.5-2.5C830,805.8,828.8,804.7,827.5,804.7z"/>
	<path class="st1" d="M947.5,805.1l-30-0.1c0,0,0,0,0,0c-1.4,0-2.5,1.1-2.5,2.5c0,1.4,1.1,2.5,2.5,2.5l30,0.1c0,0,0,0,0,0
		c1.4,0,2.5-1.1,2.5-2.5C950,806.2,948.8,805.1,947.5,805.1z"/>
	<path class="st1" d="M1435,809l-43.8-18.6l6.7,16l-0.4,0c0,0,0,0,0,0c-1.4,0-2.5,1.1-2.5,2.5c0,1.4,1.1,2.5,2.5,2.5l0.4,0l-6.9,16
		L1435,809z"/>
</g>
</svg>
