<?xml version="1.0" encoding="utf-8"?>
<!-- Generator: Adobe Illustrator 24.0.1, SVG Export Plug-In . SVG Version: 6.00 Build 0)  -->
<svg version="1.1" id="Gateway_Road_-_Pit_Road" xmlns="http://www.w3.org/2000/svg" xmlns:xlink="http://www.w3.org/1999/xlink"
	 x="0px" y="0px" viewBox="0 0 1920 1080" style="enable-background:new 0 0 1920 1080;" xml:space="preserve">
<style type="text/css">
	.st0{fill:#D82520;}
</style>
<title>pitroad</title>
<g id="Pitroad">
	<path class="st0" d="M352.4,262.3c-9.7,2.4-19.4,5.5-28.9,9c-1.3,0.5-2,1.9-1.5,3.2c0.4,1,1.3,1.6,2.3,1.6c0.3,0,0.6,0,0.9-0.2
		c9.4-3.4,18.9-6.4,28.4-8.8c1.3-0.3,2.1-1.7,1.8-3C355.1,262.7,353.8,261.9,352.4,262.3z"/>
	<path class="st0" d="M527.9,803.9l-30.2-0.1c0,0,0,0,0,0c-1.4,0-2.5,1.1-2.5,2.5c0,1.4,1.1,2.5,2.5,2.5l30.2,0.1c0,0,0,0,0,0
		c1.4,0,2.5-1.1,2.5-2.5C530.4,805,529.3,803.9,527.9,803.9z"/>
	<path class="st0" d="M300.5,752c-8.4-5.5-16.6-11.3-24.3-17.2c-1.1-0.8-2.7-0.6-3.5,0.4c-0.8,1.1-0.6,2.7,0.4,3.5
		c7.8,6.1,16.1,11.9,24.6,17.5c0.4,0.3,0.9,0.4,1.4,0.4c0.8,0,1.6-0.4,2.1-1.1C302,754.3,301.7,752.8,300.5,752z"/>
	<path class="st0" d="M411.9,252c-13.8,1.5-23.9,3.1-29.9,4.3c-1.4,0.3-2.2,1.6-2,2.9c0.2,1.2,1.3,2,2.5,2c0.2,0,0.3,0,0.5,0
		c5.9-1.1,15.9-2.8,29.5-4.2c1.4-0.1,2.4-1.4,2.2-2.7C414.5,252.8,413.3,251.8,411.9,252z"/>
	<path class="st0" d="M408.2,801.7c-4.5-1.1-9.4-2.7-16.2-5.1c-4-1.4-8-2.9-11.9-4.4c-1.3-0.5-2.7,0.1-3.2,1.4
		c-0.5,1.3,0.1,2.7,1.4,3.2c3.9,1.5,8,3,12,4.4c7,2.5,11.9,4.1,16.7,5.3c0.2,0,0.4,0.1,0.6,0.1c1.1,0,2.2-0.8,2.4-1.9
		C410.4,803.4,409.6,802,408.2,801.7z"/>
	<path class="st0" d="M467.5,803.8C467.4,803.8,467.4,803.8,467.5,803.8c-4.9,0-9.3,0.1-13.3,0.1c-6,0-11.2,0.1-15.6,0.1l-1,0
		c-1.4,0-2.5,1.1-2.5,2.5s1.1,2.5,2.5,2.5l1,0c4.5,0,9.6,0,15.7-0.1c4,0,8.4-0.1,13.3-0.1c1.4,0,2.5-1.1,2.5-2.5
		C469.9,804.9,468.8,803.8,467.5,803.8z"/>
	<path class="st0" d="M472.1,249c-10.2,0-20.3,0.2-30.1,0.7c-1.4,0.1-2.4,1.2-2.4,2.6c0.1,1.3,1.2,2.4,2.5,2.4c0,0,0.1,0,0.1,0
		c9.7-0.5,19.8-0.7,29.9-0.7c1.4,0,2.5-1.1,2.5-2.5S473.5,249,472.1,249z"/>
	<path class="st0" d="M299,284.2c-0.6-1.2-2.1-1.8-3.3-1.1c-9.2,4.5-18,9.5-26.4,14.8c-1.2,0.7-1.5,2.3-0.8,3.5
		c0.5,0.7,1.3,1.2,2.1,1.2c0.5,0,0.9-0.1,1.3-0.4c8.2-5.2,16.9-10.1,25.9-14.6C299.1,287,299.6,285.5,299,284.2z"/>
	<path class="st0" d="M352.7,780.6c-9.1-4.2-18.1-8.7-26.6-13.3c-1.2-0.7-2.7-0.2-3.4,1c-0.7,1.2-0.2,2.7,1,3.4
		c8.6,4.7,17.7,9.3,26.9,13.5c0.3,0.2,0.7,0.2,1,0.2c0.9,0,1.9-0.5,2.3-1.5C354.5,782.7,354,781.2,352.7,780.6z"/>
	<path class="st0" d="M166.9,552.4l0-0.1c-0.6-6.5-1.1-13-1.4-19.3c-0.1-1.4-1.2-2.4-2.6-2.4c-1.4,0.1-2.4,1.2-2.4,2.6
		c0.3,6.4,0.8,13,1.4,19.5c0,0.6,0.2,4.3,1.2,10.7c0.2,1.2,1.3,2.1,2.5,2.1c0.1,0,0.3,0,0.4,0c1.4-0.2,2.3-1.5,2.1-2.8
		C167,556.2,166.9,552.4,166.9,552.4z"/>
	<path class="st0" d="M170.4,446.2c1.1,0,2.2-0.8,2.4-1.9c2.3-9.8,5-19.4,8.2-28.5c0.5-1.3-0.2-2.7-1.5-3.2
		c-1.3-0.5-2.7,0.2-3.2,1.5c-3.3,9.3-6.1,19.1-8.4,29.1c-0.3,1.3,0.5,2.7,1.9,3C170,446.1,170.2,446.2,170.4,446.2z"/>
	<path class="st0" d="M232.8,694.3c-0.9-1-2.5-1.1-3.5-0.2c-1,0.9-1.1,2.5-0.2,3.5c6.6,7.4,13.7,14.7,21.1,21.6
		c0.5,0.4,1.1,0.7,1.7,0.7c0.7,0,1.3-0.3,1.8-0.8c0.9-1,0.9-2.6-0.1-3.5C246.3,708.7,239.3,701.6,232.8,694.3z"/>
	<path class="st0" d="M162.7,505.6C162.7,505.6,162.8,505.6,162.7,505.6c1.4,0,2.5-1.1,2.6-2.4c0.3-10.1,1.1-20,2.4-29.7
		c0.2-1.4-0.8-2.6-2.2-2.8c-1.4-0.2-2.6,0.8-2.8,2.2c-1.2,9.8-2,19.9-2.4,30.1C160.2,504.4,161.3,505.5,162.7,505.6z"/>
	<path class="st0" d="M231.6,334.7c5.2-5.2,10.7-10.3,16.4-15.1c1.1-0.9,1.2-2.5,0.3-3.5c-0.9-1.1-2.5-1.2-3.5-0.3
		c-5.8,4.9-11.5,10-16.7,15.3c-0.5,0.4-2.5,2.1-5.5,5.2c-1,1-1,2.6,0,3.5c0.5,0.5,1.1,0.7,1.8,0.7c0.6,0,1.3-0.2,1.8-0.7
		c3.2-3.3,5.2-4.9,5.2-4.9L231.6,334.7z"/>
	<path class="st0" d="M198.2,646c-0.7-1.2-2.2-1.6-3.4-0.9c-1.2,0.7-1.6,2.2-0.9,3.4c4.9,8.7,10.4,17.2,16.4,25.4c0.5,0.7,1.3,1,2,1
		c0.5,0,1-0.2,1.5-0.5c1.1-0.8,1.4-2.4,0.6-3.5C208.4,663,203,654.6,198.2,646z"/>
	<path class="st0" d="M174.7,591.6c-0.4-1.3-1.8-2.1-3.1-1.7c-1.3,0.4-2.1,1.8-1.7,3.1c2.9,9.5,6.4,19.1,10.4,28.5
		c0.4,0.9,1.3,1.5,2.3,1.5c0.3,0,0.7-0.1,1-0.2c1.3-0.5,1.9-2,1.3-3.3C180.9,610.3,177.5,600.9,174.7,591.6z"/>
	<path class="st0" d="M206.8,359.3c-1.1-0.8-2.7-0.5-3.5,0.7c-5.6,8.1-10.7,16.9-15.3,26.2c-0.6,1.2-0.1,2.7,1.1,3.4
		c0.4,0.2,0.7,0.3,1.1,0.3c0.9,0,1.8-0.5,2.2-1.4c4.5-9,9.5-17.7,14.9-25.6C208.3,361.6,208,360.1,206.8,359.3z"/>
	<path class="st0" d="M1189.7,805.8l-30.1-0.1c0,0,0,0,0,0c-1.4,0-2.5,1.1-2.5,2.5c0,1.4,1.1,2.5,2.5,2.5l30.1,0.1c0,0,0,0,0,0
		c1.4,0,2.5-1.1,2.5-2.5C1192.2,806.9,1191.1,805.8,1189.7,805.8z"/>
	<path class="st0" d="M1129.6,805.6l-30.1-0.1c0,0,0,0,0,0c-1.4,0-2.5,1.1-2.5,2.5c0,1.4,1.1,2.5,2.5,2.5l30.1,0.1c0,0,0,0,0,0
		c1.4,0,2.5-1.1,2.5-2.5C1132.1,806.7,1131,805.6,1129.6,805.6z"/>
	<path class="st0" d="M1069.4,805.4l-30.1-0.1c0,0,0,0,0,0c-1.4,0-2.5,1.1-2.5,2.5c0,1.4,1.1,2.5,2.5,2.5l30.1,0.1c0,0,0,0,0,0
		c1.4,0,2.5-1.1,2.5-2.5C1071.9,806.6,1070.8,805.4,1069.4,805.4z"/>
	<path class="st0" d="M1249.9,805.9l-30.1-0.1c0,0,0,0,0,0c-1.4,0-2.5,1.1-2.5,2.5c0,1.4,1.1,2.5,2.5,2.5l30.1,0.1c0,0,0,0,0,0
		c1.4,0,2.5-1.1,2.5-2.5C1252.4,807.1,1251.3,805.9,1249.9,805.9z"/>
	<path class="st0" d="M1429.6,800.9c-9.5,2.3-19.1,3.9-29.2,4.7c-1.4,0.1-2.4,1.3-2.3,2.7c0.1,1.3,1.2,2.3,2.5,2.3
		c0.1,0,0.1,0,0.2,0c10.4-0.8,20.2-2.4,30-4.8c1.3-0.3,2.2-1.7,1.8-3S1430.9,800.6,1429.6,800.9z"/>
	<path class="st0" d="M1370.5,806.3c-7,0-17.2,0-30.2-0.1c0,0,0,0,0,0c-1.4,0-2.5,1.1-2.5,2.5c0,1.4,1.1,2.5,2.5,2.5
		c13,0,23.2,0.1,30.2,0.1c0,0,0,0,0,0c1.4,0,2.5-1.1,2.5-2.5C1373,807.4,1371.9,806.3,1370.5,806.3z"/>
	<path class="st0" d="M1310.2,806.1L1280,806c0,0,0,0,0,0c-1.4,0-2.5,1.1-2.5,2.5c0,1.4,1.1,2.5,2.5,2.5l30.1,0.1c0,0,0,0,0,0
		c1.4,0,2.5-1.1,2.5-2.5C1312.7,807.2,1311.5,806.1,1310.2,806.1z"/>
	<path class="st0" d="M648.4,804.2l-30.1-0.1c0,0,0,0,0,0c-1.4,0-2.5,1.1-2.5,2.5c0,1.4,1.1,2.5,2.5,2.5l30.1,0.1c0,0,0,0,0,0
		c1.4,0,2.5-1.1,2.5-2.5C650.9,805.3,649.8,804.2,648.4,804.2z"/>
	<path class="st0" d="M708.6,804.4l-30.1-0.1c0,0,0,0,0,0c-1.4,0-2.5,1.1-2.5,2.5c0,1.4,1.1,2.5,2.5,2.5l30.1,0.1c0,0,0,0,0,0
		c1.4,0,2.5-1.1,2.5-2.5C711.1,805.5,709.9,804.4,708.6,804.4z"/>
	<path class="st0" d="M588.2,804L558,804c0,0,0,0,0,0c-1.4,0-2.5,1.1-2.5,2.5c0,1.4,1.1,2.5,2.5,2.5l30.1,0.1c0,0,0,0,0,0
		c1.4,0,2.5-1.1,2.5-2.5C590.7,805.2,589.6,804.1,588.2,804z"/>
	<path class="st0" d="M768.7,804.6l-30.1-0.1c0,0,0,0,0,0c-1.4,0-2.5,1.1-2.5,2.5c0,1.4,1.1,2.5,2.5,2.5l30.1,0.1c0,0,0,0,0,0
		c1.4,0,2.5-1.1,2.5-2.5C771.2,805.7,770.1,804.6,768.7,804.6z"/>
	<path class="st0" d="M889,804.9l-30.1-0.1c0,0,0,0,0,0c-1.4,0-2.5,1.1-2.5,2.5c0,1.4,1.1,2.5,2.5,2.5l30.1,0.1c0,0,0,0,0,0
		c1.4,0,2.5-1.1,2.5-2.5C891.5,806,890.3,804.9,889,804.9z"/>
	<path class="st0" d="M949.2,805.1L919,805c0,0,0,0,0,0c-1.4,0-2.5,1.1-2.5,2.5c0,1.4,1.1,2.5,2.5,2.5l30.2,0.1c0,0,0,0,0,0
		c1.4,0,2.5-1.1,2.5-2.5C951.7,806.2,950.6,805.1,949.2,805.1z"/>
	<path class="st0" d="M1009.3,805.3l-30.1-0.1c0,0,0,0,0,0c-1.4,0-2.5,1.1-2.5,2.5c0,1.4,1.1,2.5,2.5,2.5l30.1,0.1c0,0,0,0,0,0
		c1.4,0,2.5-1.1,2.5-2.5C1011.8,806.4,1010.7,805.3,1009.3,805.3z"/>
	<path class="st0" d="M828.8,804.7l-30.1-0.1c0,0,0,0,0,0c-1.4,0-2.5,1.1-2.5,2.5c0,1.4,1.1,2.5,2.5,2.5l30.1,0.1c0,0,0,0,0,0
		c1.4,0,2.5-1.1,2.5-2.5C831.3,805.9,830.2,804.7,828.8,804.7z"/>
	<polygon class="st0" points="1431.4,785 1446,798.8 1446.2,819 1479.1,784.5 	"/>
</g>
</svg>
