<?xml version="1.0" encoding="utf-8"?>
<!-- Generator: Adobe Illustrator 24.0.1, SVG Export Plug-In . SVG Version: 6.00 Build 0)  -->
<svg version="1.1" id="Short___Pit_Road" xmlns="http://www.w3.org/2000/svg" xmlns:xlink="http://www.w3.org/1999/xlink" x="0px"
	 y="0px" viewBox="0 0 1920 1080" style="enable-background:new 0 0 1920 1080;" xml:space="preserve">
<style type="text/css">
	.st0{fill:#D82520;}
</style>
<title>pitroad</title>
<g id="Pitroad">
	<path class="st0" d="M1244.3,941.6c-7.2,1.2-17.1,2.7-29.7,4.6c-1.4,0.2-2.3,1.5-2.1,2.8c0.2,1.2,1.3,2.1,2.5,2.1
		c0.1,0,0.2,0,0.4,0c12.6-1.9,22.6-3.4,29.8-4.6c1.4-0.2,2.3-1.5,2.1-2.9C1246.9,942.2,1245.6,941.3,1244.3,941.6z"/>
	<path class="st0" d="M1304.6,942c-10.9-1-21-1.8-29.9-2.6c-1.4-0.1-2.6,0.9-2.7,2.3s0.9,2.6,2.3,2.7c9,0.8,19,1.6,29.9,2.6
		c0.1,0,0.1,0,0.2,0c1.3,0,2.4-1,2.5-2.3C1307,943.4,1306,942.1,1304.6,942z"/>
	<path class="st0" d="M1424.3,952.5c-10-0.9-20-1.7-29.9-2.6c-1.4-0.1-2.6,0.9-2.7,2.3c-0.1,1.4,0.9,2.6,2.3,2.7
		c9.9,0.9,19.9,1.7,29.9,2.6c0.1,0,0.1,0,0.2,0c1.3,0,2.4-1,2.5-2.3C1426.7,953.9,1425.7,952.6,1424.3,952.5z"/>
	<path class="st0" d="M1364.5,947.3l-29.9-2.6c-1.4-0.1-2.6,0.9-2.7,2.3c-0.1,1.4,0.9,2.6,2.3,2.7l29.9,2.6c0.1,0,0.1,0,0.2,0
		c1.3,0,2.4-1,2.5-2.3C1366.9,948.6,1365.8,947.4,1364.5,947.3z"/>
	<path class="st0" d="M1184.9,950.4c-10,1.4-20.1,2.8-29.8,4.2c-1.4,0.2-2.3,1.5-2.1,2.8c0.2,1.3,1.2,2.2,2.5,2.2c0.1,0,0.2,0,0.3,0
		c9.6-1.3,19.7-2.8,29.8-4.2c1.4-0.2,2.3-1.5,2.1-2.8C1187.5,951.2,1186.2,950.2,1184.9,950.4z"/>
	<path class="st0" d="M1125.4,958.7c-6.6,0.9-12.1,1.7-16.3,2.2l6.9-15.4l-44.3,17.6l43.5,19.5l-6.6-16.5c4.3-0.6,10.3-1.4,17.5-2.4
		c1.4-0.2,2.3-1.4,2.1-2.8C1128,959.5,1126.7,958.5,1125.4,958.7z"/>
	<path class="st0" d="M1484.1,957.5c-9.7-0.8-19.7-1.6-29.9-2.5c-1.4-0.1-2.6,0.9-2.7,2.3s0.9,2.6,2.3,2.7
		c10.2,0.9,20.2,1.7,29.9,2.5c0.1,0,0.1,0,0.2,0c1.3,0,2.4-1,2.5-2.3C1486.5,958.8,1485.5,957.6,1484.1,957.5z"/>
	<path class="st0" d="M1692.1,790.7c-1.2-0.7-2.7-0.2-3.4,1l-14.6,26.2c-0.7,1.2-0.2,2.7,1,3.4c0.4,0.2,0.8,0.3,1.2,0.3
		c0.9,0,1.7-0.5,2.2-1.3l14.6-26.2C1693.7,792.9,1693.3,791.3,1692.1,790.7z"/>
	<path class="st0" d="M1633.8,895.5c-1.2-0.7-2.7-0.2-3.4,1l-4.3,7.7l-0.1,0.1c0,0.1-4,8-10.7,17.9c-0.8,1.1-0.5,2.7,0.7,3.5
		c0.4,0.3,0.9,0.4,1.4,0.4c0.8,0,1.6-0.4,2.1-1.1c6.7-9.9,10.6-17.7,11-18.5l4.3-7.7C1635.4,897.7,1635,896.2,1633.8,895.5z"/>
	<path class="st0" d="M1662.9,843.1c-1.2-0.7-2.7-0.2-3.4,1l-14.6,26.2c-0.7,1.2-0.2,2.7,1,3.4c0.4,0.2,0.8,0.3,1.2,0.3
		c0.9,0,1.7-0.5,2.2-1.3l14.6-26.2C1664.6,845.3,1664.1,843.8,1662.9,843.1z"/>
	<path class="st0" d="M1544,962c-8.9-0.6-19-1.3-29.9-2.1c-1.4-0.1-2.6,0.9-2.7,2.3c-0.1,1.4,0.9,2.6,2.3,2.7
		c11,0.8,21.1,1.5,30,2.1c0.1,0,0.1,0,0.2,0c1.3,0,2.4-1,2.5-2.3C1546.4,963.3,1545.3,962.1,1544,962z"/>
	<path class="st0" d="M1596.6,945.1c-8,7.8-16.1,13.2-23.9,15.9c-1.3,0.5-2,1.9-1.5,3.2c0.4,1,1.3,1.7,2.4,1.7c0.3,0,0.5,0,0.8-0.1
		c8.5-2.9,17.2-8.7,25.8-17c1-1,1-2.5,0-3.5C1599.2,944.1,1597.6,944.1,1596.6,945.1z"/>
</g>
</svg>
