<?xml version="1.0" encoding="utf-8"?>
<!-- Generator: Adobe Illustrator 24.0.1, SVG Export Plug-In . SVG Version: 6.00 Build 0)  -->
<svg version="1.1" id="Junior_-_Pit_Road" xmlns="http://www.w3.org/2000/svg" xmlns:xlink="http://www.w3.org/1999/xlink" x="0px"
	 y="0px" viewBox="0 0 1920 1080" style="enable-background:new 0 0 1920 1080;" xml:space="preserve">
<style type="text/css">
	.st0{fill:#D82520;}
</style>
<title>pitroad</title>
<g id="Pitroad">
	<path class="st0" d="M1131,932.2c-1.4,0-2.6,0.1-3.7,0.1c-6.3,0.2-15.2,0.8-26.4,1.7c-1.4,0.1-2.4,1.3-2.3,2.7
		c0.1,1.3,1.2,2.3,2.5,2.3c0.1,0,0.1,0,0.2,0c11.2-0.9,20-1.5,26.2-1.7c1,0,2.3-0.1,3.7-0.1c1.4,0,2.5-1.2,2.4-2.6
		C1133.6,933.3,1132.4,932.1,1131,932.2z"/>
	<path class="st0" d="M1191.3,930.8C1191.3,930.8,1191.3,930.8,1191.3,930.8c-11.1,0.2-21.2,0.4-30.1,0.6c-1.4,0-2.5,1.2-2.4,2.6
		c0,1.4,1.1,2.4,2.5,2.4c0,0,0,0,0.1,0c8.9-0.2,19.1-0.4,30.1-0.6c1.4,0,2.5-1.2,2.4-2.6C1193.8,931.9,1192.6,930.8,1191.3,930.8z"
		/>
	<path class="st0" d="M1251.4,929.6c-10.2,0.2-20.3,0.4-30.1,0.6c-1.4,0-2.5,1.2-2.4,2.5c0,1.4,1.1,2.4,2.5,2.4c0,0,0,0,0.1,0
		c9.7-0.2,19.8-0.4,30.1-0.6c1.4,0,2.5-1.2,2.5-2.5C1253.9,930.7,1252.8,929.6,1251.4,929.6z"/>
	<path class="st0" d="M1071,936.7c-9,0.9-19.1,1.9-29.9,3.1c-1.4,0.1-2.4,1.4-2.2,2.8c0.1,1.3,1.2,2.2,2.5,2.2c0.1,0,0.2,0,0.3,0
		c10.8-1.1,20.8-2.2,29.8-3.1c1.4-0.1,2.4-1.4,2.2-2.7C1073.6,937.6,1072.4,936.6,1071,936.7z"/>
	<path class="st0" d="M1551.8,923.5l-30,0.7c-1.4,0-2.5,1.2-2.4,2.6c0,1.4,1.1,2.4,2.5,2.4c0,0,0,0,0.1,0l30-0.7
		c1.4,0,2.5-1.2,2.4-2.6C1554.4,924.6,1553.2,923.4,1551.8,923.5z"/>
	<path class="st0" d="M1311.5,928.4C1311.5,928.4,1311.5,928.4,1311.5,928.4l-30.1,0.6c-1.4,0-2.5,1.2-2.5,2.5
		c0,1.4,1.1,2.5,2.5,2.5c0,0,0,0,0,0l30.1-0.6c1.4,0,2.5-1.2,2.5-2.5C1314,929.5,1312.9,928.4,1311.5,928.4z"/>
	<path class="st0" d="M1491.9,924.8C1491.9,924.8,1491.9,924.8,1491.9,924.8l-30,0.7c-1.4,0-2.5,1.2-2.4,2.6c0,1.4,1.1,2.4,2.5,2.4
		c0,0,0,0,0.1,0l30-0.7c1.4,0,2.5-1.2,2.4-2.6C1494.4,925.9,1493.3,924.8,1491.9,924.8z"/>
	<path class="st0" d="M1431.9,926.1C1431.9,926.1,1431.9,926.1,1431.9,926.1l-30.2,0.6c-1.4,0-2.5,1.2-2.5,2.5
		c0,1.4,1.1,2.5,2.5,2.5c0,0,0,0,0,0l22.1-0.4l8.1-0.2c1.4,0,2.5-1.2,2.4-2.6C1434.4,927.2,1433.3,926.1,1431.9,926.1z"/>
	<path class="st0" d="M1371.7,927.3C1371.6,927.3,1371.6,927.3,1371.7,927.3l-30.1,0.6c-1.4,0-2.5,1.2-2.5,2.5
		c0,1.4,1.1,2.5,2.5,2.5c0,0,0,0,0,0l30.1-0.6c1.4,0,2.5-1.2,2.5-2.5C1374.1,928.4,1373,927.3,1371.7,927.3z"/>
	<polygon class="st0" points="1033.1,924.5 991.5,947.8 1037.2,961.3 1027.3,943.8 	"/>
</g>
</svg>
