<?xml version="1.0" encoding="utf-8"?>
<!-- Generator: Adobe Illustrator 24.0.1, SVG Export Plug-In . SVG Version: 6.00 Build 0)  -->
<svg version="1.1" id="Grand_Prix_without_chicanes_-_Pit_Road"
	 xmlns="http://www.w3.org/2000/svg" xmlns:xlink="http://www.w3.org/1999/xlink" x="0px" y="0px" viewBox="0 0 1920 1080"
	 style="enable-background:new 0 0 1920 1080;" xml:space="preserve">
<style type="text/css">
	.st0{fill:#016699;}
	.st1{fill:#D82520;}
</style>
<title>pitroad</title>
<g id="Mergeline">
	<path class="st0" d="M811.7,943.7c-8.7,0.5-17.3,1-25.9,1.5l-1.4-27.4l-10,0.5l3.4,64.9l10-0.5l-1.4-27.5c8.6-0.5,17.2-1,25.9-1.5
		c2.8-0.2,4.9-2.5,4.7-5.3C816.8,945.7,814.5,943.5,811.7,943.7z"/>
	<path class="st0" d="M871.7,940.5c-10,0.5-20,1-30,1.5c-2.8,0.1-4.9,2.5-4.7,5.3c0.1,2.7,2.3,4.7,5,4.7c0.1,0,0.2,0,0.3,0
		c10-0.5,20-1,30-1.5c2.8-0.1,4.9-2.5,4.7-5.2C876.8,942.5,874.4,940.4,871.7,940.5z"/>
	<path class="st0" d="M931.6,937.6c-9.9,0.5-19.9,1-30,1.5c-2.8,0.1-4.9,2.5-4.7,5.2c0.1,2.7,2.3,4.8,5,4.8c0.1,0,0.2,0,0.2,0
		c10-0.5,20-1,30-1.5c2.8-0.1,4.9-2.5,4.8-5.2C936.7,939.6,934.4,937.5,931.6,937.6z"/>
	<path class="st0" d="M1051.5,931.7c-9.7,0.5-19.7,1-30,1.5c-2.8,0.1-4.9,2.5-4.7,5.2c0.1,2.7,2.3,4.8,5,4.8c0.1,0,0.2,0,0.3,0
		c10.3-0.5,20.3-1,30-1.5c2.8-0.1,4.9-2.5,4.7-5.3C1056.6,933.7,1054.3,931.6,1051.5,931.7z"/>
	<path class="st0" d="M991.6,934.7c-9.8,0.5-19.8,1-30,1.4c-2.8,0.1-4.9,2.5-4.8,5.2c0.1,2.7,2.3,4.8,5,4.8c0.1,0,0.2,0,0.2,0
		c10.1-0.5,20.1-1,30-1.4c2.8-0.1,4.9-2.5,4.8-5.2S994.3,934.6,991.6,934.7z"/>
	<path class="st0" d="M1111.4,928.4c-9.1,0.6-19.2,1.1-29.9,1.7c-2.8,0.2-4.9,2.5-4.7,5.3c0.1,2.7,2.4,4.7,5,4.7c0.1,0,0.2,0,0.3,0
		c10.8-0.6,20.8-1.2,30-1.7c2.8-0.2,4.9-2.5,4.7-5.3C1116.5,930.3,1114.1,928.2,1111.4,928.4z"/>
</g>
<g id="Pitroad">
	<path class="st1" d="M1311.9,922.2c-3.8,0-7.5,0-11.2,0c-6.3,0-12.6,0-18.8,0c-1.4,0-2.5,1.1-2.5,2.5c0,1.4,1.1,2.5,2.5,2.5
		c0,0,0,0,0,0c5.8,0,11.8,0,17.7,0c4.1,0,8.1,0,12.2,0c0,0,0,0,0,0c1.4,0,2.5-1.1,2.5-2.5C1314.4,923.3,1313.2,922.2,1311.9,922.2z"
		/>
	<path class="st1" d="M1251.9,922.6C1251.8,922.6,1251.8,922.6,1251.9,922.6c-9.5,0.3-19.6,0.6-30.1,1.1c-1.4,0.1-2.4,1.2-2.4,2.6
		c0.1,1.3,1.2,2.4,2.5,2.4c0,0,0.1,0,0.1,0c10.5-0.5,20.6-0.8,30-1.1c1.4,0,2.5-1.2,2.4-2.6C1254.3,923.7,1253.2,922.6,1251.9,922.6
		z"/>
	<path class="st1" d="M1371.9,922.6c-9.7-0.1-19.8-0.2-30-0.2c0,0,0,0,0,0c-1.4,0-2.5,1.1-2.5,2.5c0,1.4,1.1,2.5,2.5,2.5
		c10.2,0.1,20.3,0.2,30,0.2c0,0,0,0,0,0c1.4,0,2.5-1.1,2.5-2.5C1374.4,923.7,1373.3,922.6,1371.9,922.6z"/>
	<path class="st1" d="M1191.7,925.3c-9.6,0.6-19.4,1.2-30,1.9c-1.4,0.1-2.4,1.3-2.3,2.7c0.1,1.3,1.2,2.3,2.5,2.3c0.1,0,0.1,0,0.2,0
		c10.5-0.7,20.3-1.4,29.9-1.9c1.4-0.1,2.4-1.3,2.3-2.6C1194.3,926.3,1193.1,925.2,1191.7,925.3z"/>
	<path class="st1" d="M1551.9,923.5c-0.1,0-9.3,0.1-28.2,0.1h-1.8c-1.4,0-2.5,1.1-2.5,2.5s1.1,2.5,2.5,2.5h1.8
		c18.9,0,28.1-0.1,28.2-0.1c1.4,0,2.5-1.1,2.5-2.5S1553.3,923.4,1551.9,923.5z"/>
	<path class="st1" d="M1431.9,923.2c-8.2-0.1-17.6-0.2-27.9-0.3l-2.1,0c0,0,0,0,0,0c-1.4,0-2.5,1.1-2.5,2.5c0,1.4,1.1,2.5,2.5,2.5
		l2.1,0c10.3,0.1,19.7,0.2,27.9,0.3c0,0,0,0,0,0c1.4,0,2.5-1.1,2.5-2.5C1434.4,924.3,1433.3,923.2,1431.9,923.2z"/>
	<path class="st1" d="M1491.9,923.5c-8.9,0-18.9-0.1-30-0.1c0,0,0,0,0,0c-1.4,0-2.5,1.1-2.5,2.5c0,1.4,1.1,2.5,2.5,2.5
		c11.1,0.1,21.1,0.1,30,0.1c0,0,0,0,0,0c1.4,0,2.5-1.1,2.5-2.5C1494.4,924.6,1493.3,923.5,1491.9,923.5z"/>
	<polygon class="st1" points="1154.1,911.8 1111.7,933.4 1156.8,948.7 1147.6,930.8 	"/>
</g>
</svg>
