<?xml version="1.0" encoding="utf-8"?>
<!-- Generator: Adobe Illustrator 24.0.1, SVG Export Plug-In . SVG Version: 6.00 Build 0)  -->
<svg version="1.1" id="Oval_Right_-_Pit_Road" xmlns="http://www.w3.org/2000/svg" xmlns:xlink="http://www.w3.org/1999/xlink"
	 x="0px" y="0px" viewBox="0 0 1920 1080" style="enable-background:new 0 0 1920 1080;" xml:space="preserve">
<style type="text/css">
	.st0{fill:#D82520;}
</style>
<title>pitroad</title>
<g id="Pitroad">
	<path class="st0" d="M1143.9,924.5c-10.2,0.4-20.3,0.7-30,1.1c-1.4,0.1-2.5,1.2-2.4,2.6c0.1,1.3,1.2,2.4,2.5,2.4c0,0,0.1,0,0.1,0
		c9.7-0.4,19.8-0.7,30-1.1c1.4,0,2.5-1.2,2.4-2.6C1146.4,925.6,1145.3,924.5,1143.9,924.5z"/>
	<path class="st0" d="M1023.8,929.6c-12.9,0.6-23.1,1.2-30,1.6c-1.4,0.1-2.4,1.3-2.4,2.6c0.1,1.3,1.2,2.4,2.5,2.4c0,0,0.1,0,0.1,0
		c6.9-0.4,17.1-0.9,30-1.6c1.4-0.1,2.4-1.2,2.4-2.6C1026.4,930.6,1025.2,929.5,1023.8,929.6z"/>
	<path class="st0" d="M1083.9,926.8c-10.6,0.5-20.7,0.9-30,1.3c-1.4,0.1-2.4,1.2-2.4,2.6c0.1,1.3,1.2,2.4,2.5,2.4c0,0,0.1,0,0.1,0
		c9.3-0.4,19.4-0.9,30-1.3c1.4-0.1,2.5-1.2,2.4-2.6C1086.4,927.9,1085.2,926.8,1083.9,926.8z"/>
	<path class="st0" d="M963.9,931.8C963.9,931.8,963.9,931.8,963.9,931.8l-30,0.1c-1.4,0-2.5,1.1-2.5,2.5c0,1.4,1.1,2.5,2.5,2.5
		c0,0,0,0,0,0l30-0.1c1.4,0,2.5-1.1,2.5-2.5C966.4,932.9,965.3,931.8,963.9,931.8z"/>
	<path class="st0" d="M903.9,932C903.9,932,903.9,932,903.9,932l-30,0.1c-1.4,0-2.5,1.1-2.5,2.5c0,1.4,1.1,2.5,2.5,2.5c0,0,0,0,0,0
		l30-0.1c1.4,0,2.5-1.1,2.5-2.5C906.4,933.1,905.3,932,903.9,932z"/>
	<path class="st0" d="M1204,922.7C1204,922.7,1203.9,922.7,1204,922.7c-9.8,0.2-19.9,0.5-30.1,0.8c-1.4,0-2.5,1.2-2.4,2.6
		c0,1.4,1.2,2.4,2.5,2.4c0,0,0,0,0.1,0c10.2-0.3,20.3-0.6,30-0.8c1.4,0,2.5-1.2,2.4-2.6C1206.5,923.8,1205.3,922.7,1204,922.7z"/>
	<path class="st0" d="M1444.3,924c-5.1-0.7-9.9-1-14.5-1c-2.7,0-7.8-0.1-15.7-0.2c0,0,0,0,0,0c-1.4,0-2.5,1.1-2.5,2.5
		c0,1.4,1.1,2.5,2.5,2.5c7.9,0.1,13.1,0.2,15.8,0.2c4.4,0,9,0.3,13.9,1c0.1,0,0.2,0,0.3,0c1.2,0,2.3-0.9,2.5-2.2
		C1446.7,925.4,1445.7,924.1,1444.3,924z"/>
	<path class="st0" d="M1503,937.2c-9.5-2-18.2-4.2-26.5-6.3l-2.5-0.6c-1.3-0.3-2.7,0.5-3,1.8c-0.3,1.3,0.5,2.7,1.8,3l2.5,0.6
		c8.4,2.2,17.1,4.4,26.8,6.4c0.2,0,0.3,0.1,0.5,0.1c1.2,0,2.2-0.8,2.4-2C1505.2,938.8,1504.3,937.5,1503,937.2z"/>
	<path class="st0" d="M1562.1,942.7C1562,942.7,1562,942.7,1562.1,942.7c-2,0-3.9,0.1-5.8,0.1c-8,0-16.1-0.4-23.9-1.1
		c-1.4-0.1-2.6,0.9-2.7,2.3c-0.1,1.4,0.9,2.6,2.3,2.7c8,0.7,16.2,1.1,24.4,1.1c1.9,0,3.9,0,5.8-0.1c1.4,0,2.5-1.2,2.4-2.6
		C1564.5,943.8,1563.4,942.7,1562.1,942.7z"/>
	<path class="st0" d="M1384.1,922.2c-10.7-0.2-20.5-0.3-30-0.4c0,0,0,0,0,0c-1.4,0-2.5,1.1-2.5,2.5c0,1.4,1.1,2.5,2.5,2.5
		c9.5,0.1,19.3,0.2,30,0.4c0,0,0,0,0,0c1.4,0,2.5-1.1,2.5-2.5C1386.5,923.4,1385.4,922.2,1384.1,922.2z"/>
	<path class="st0" d="M1324,921.6c-7.3,0-14.7-0.1-22.4-0.1c-2.5,0-5.1,0-7.7,0c-1.4,0-2.5,1.1-2.5,2.5c0,1.4,1.1,2.5,2.5,2.5
		c0,0,0,0,0,0c2.4,0,4.8,0,7.1,0c7.8,0,15.4,0,22.9,0.1c0,0,0,0,0,0c1.4,0,2.5-1.1,2.5-2.5C1326.5,922.7,1325.4,921.6,1324,921.6z"
		/>
	<path class="st0" d="M1264,921.7C1264,921.7,1264,921.7,1264,921.7c-6.6,0.1-13.1,0.1-19.7,0.2c-3.4,0.1-6.9,0.1-10.3,0.2
		c-1.4,0-2.5,1.2-2.5,2.5c0,1.4,1.1,2.5,2.5,2.5c0,0,0,0,0,0c3.4-0.1,6.9-0.1,10.3-0.2c6.6-0.1,13.1-0.2,19.7-0.2
		c1.4,0,2.5-1.1,2.5-2.5C1266.5,922.8,1265.4,921.7,1264,921.7z"/>
	<polygon class="st0" points="873.5,916 829.7,934.7 873.6,953.1 865.7,934.6 	"/>
</g>
</svg>
