<?xml version="1.0" encoding="utf-8"?>
<!-- Generator: Adobe Illustrator 24.0.1, SVG Export Plug-In . SVG Version: 6.00 Build 0)  -->
<svg version="1.1" id="Oval_Left_-_Pit_Road" xmlns="http://www.w3.org/2000/svg" xmlns:xlink="http://www.w3.org/1999/xlink"
	 x="0px" y="0px" viewBox="0 0 1920 1080" style="enable-background:new 0 0 1920 1080;" xml:space="preserve">
<style type="text/css">
	.st0{fill:#D82520;}
</style>
<title>pitroad</title>
<g id="Pitroad">
	<path class="st0" d="M1174,923.6c-9.8,0.3-19.9,0.6-30,1c-1.4,0-2.5,1.2-2.4,2.6c0,1.4,1.2,2.4,2.5,2.4c0,0,0.1,0,0.1,0
		c10.1-0.3,20.2-0.7,30-1c1.4,0,2.5-1.2,2.4-2.6S1175.4,923.5,1174,923.6z"/>
	<path class="st0" d="M1114,925.6c-10.4,0.4-20.4,0.8-30,1.2c-1.4,0.1-2.5,1.2-2.4,2.6c0.1,1.3,1.2,2.4,2.5,2.4c0,0,0.1,0,0.1,0
		c9.6-0.4,19.6-0.8,30-1.2c1.4-0.1,2.5-1.2,2.4-2.6C1116.5,926.6,1115.3,925.6,1114,925.6z"/>
	<path class="st0" d="M1054,928.2c-11.1,0.5-21.2,1-30,1.4c-1.4,0.1-2.4,1.2-2.4,2.6c0.1,1.3,1.2,2.4,2.5,2.4c0,0,0.1,0,0.1,0
		c8.8-0.4,18.9-0.9,30-1.4c1.4-0.1,2.4-1.2,2.4-2.6C1056.5,929.2,1055.3,928.1,1054,928.2z"/>
	<path class="st0" d="M874,932.1C874,932.1,874,932.1,874,932.1l-30,0.1c-1.4,0-2.5,1.1-2.5,2.5c0,1.4,1.1,2.5,2.5,2.5c0,0,0,0,0,0
		l30-0.1c1.4,0,2.5-1.1,2.5-2.5C876.5,933.2,875.4,932.1,874,932.1z"/>
	<path class="st0" d="M993.9,931.2c-5.9,0.3-9.3,0.5-9.8,0.5l-20.1,0.1c-1.4,0-2.5,1.1-2.5,2.5c0,1.4,1.1,2.5,2.5,2.5c0,0,0,0,0,0
		l20.1-0.1l0.1,0c0,0,3.5-0.2,9.9-0.5c1.4-0.1,2.4-1.3,2.4-2.6C996.5,932.2,995.3,931.1,993.9,931.2z"/>
	<path class="st0" d="M934,931.9C934,931.9,934,931.9,934,931.9l-30,0.1c-1.4,0-2.5,1.1-2.5,2.5c0,1.4,1.1,2.5,2.5,2.5c0,0,0,0,0,0
		l30-0.1c1.4,0,2.5-1.1,2.5-2.5C936.5,933,935.4,931.9,934,931.9z"/>
	<path class="st0" d="M1294.1,921.5C1294.1,921.5,1294.1,921.5,1294.1,921.5c-10.2,0-20.3,0.1-30,0.2c-1.4,0-2.5,1.1-2.5,2.5
		c0,1.4,1.1,2.5,2.5,2.5c0,0,0,0,0,0c9.7-0.1,19.8-0.1,30-0.2c1.4,0,2.5-1.1,2.5-2.5S1295.5,921.5,1294.1,921.5z"/>
	<path class="st0" d="M1234.1,922.1C1234.1,922.1,1234.1,922.1,1234.1,922.1c-9.7,0.2-19.8,0.4-30.1,0.6c-1.4,0-2.5,1.2-2.4,2.6
		c0,1.4,1.1,2.4,2.5,2.4c0,0,0,0,0.1,0c10.2-0.3,20.3-0.5,30-0.6c1.4,0,2.5-1.2,2.5-2.5C1236.6,923.2,1235.5,922.1,1234.1,922.1z"/>
	<path class="st0" d="M1414.2,922.7l-5.2-0.1c-7-0.1-15.3-0.3-24.8-0.4c-1.4,0-2.5,1.1-2.5,2.5c0,1.4,1.1,2.5,2.5,2.5
		c9.5,0.1,17.8,0.3,24.8,0.4l5.2,0.1c0,0,0,0,0,0c1.4,0,2.5-1.1,2.5-2.5C1416.7,923.9,1415.6,922.7,1414.2,922.7z"/>
	<path class="st0" d="M1474,930.3c-10.6-2.7-20.1-5-29.6-6.3c-1.4-0.2-2.6,0.8-2.8,2.1c-0.2,1.4,0.8,2.6,2.1,2.8
		c9.2,1.3,18.6,3.6,29,6.2c0.2,0.1,0.4,0.1,0.6,0.1c1.1,0,2.1-0.8,2.4-1.9C1476.2,932,1475.4,930.6,1474,930.3z"/>
	<path class="st0" d="M1354.1,921.8c-10.3-0.1-20.4-0.2-30-0.2c0,0,0,0,0,0c-1.4,0-2.5,1.1-2.5,2.5c0,1.4,1.1,2.5,2.5,2.5
		c9.6,0,19.7,0.1,30,0.2c0,0,0,0,0,0c1.4,0,2.5-1.1,2.5-2.5C1356.6,923,1355.5,921.8,1354.1,921.8z"/>
	<path class="st0" d="M1562.1,945.2l-43-20.4l6,16.1c-7.2-0.9-14.4-2.1-22-3.6c-1.4-0.3-2.7,0.6-2.9,1.9c-0.3,1.4,0.6,2.7,1.9,2.9
		c7.9,1.6,15.4,2.8,22.9,3.7l-7.6,15.8L1562.1,945.2z"/>
</g>
</svg>
