<?xml version="1.0" encoding="utf-8"?>
<!-- Generator: Adobe Illustrator 24.0.1, SVG Export Plug-In . SVG Version: 6.00 Build 0)  -->
<svg version="1.1" id="Combined_-_Pit_Road" xmlns="http://www.w3.org/2000/svg" xmlns:xlink="http://www.w3.org/1999/xlink"
	 x="0px" y="0px" viewBox="0 0 1920 1080" style="enable-background:new 0 0 1920 1080;" xml:space="preserve">
<style type="text/css">
	.st0{fill:#D82520;}
</style>
<title>pitroad</title>
<g id="Pitroad">
	<path class="st0" d="M951.6,931.4c-10.7,0.3-20.8,0.6-30,0.8c-1.4,0-2.5,1.2-2.4,2.6c0,1.4,1.1,2.4,2.5,2.4c0,0,0,0,0.1,0
		c9.2-0.2,19.4-0.5,30-0.8c1.4,0,2.5-1.2,2.4-2.6C954.2,932.4,953,931.3,951.6,931.4z"/>
	<path class="st0" d="M1191.8,923.1C1191.8,923.1,1191.8,923.1,1191.8,923.1c-11.3,0.2-21.4,0.4-30.1,0.6c-1.4,0-2.5,1.2-2.4,2.6
		c0,1.4,1.1,2.4,2.5,2.4c0,0,0,0,0.1,0c8.7-0.2,18.8-0.4,30-0.6c1.4,0,2.5-1.2,2.5-2.5C1194.3,924.1,1193.2,923.1,1191.8,923.1z"/>
	<path class="st0" d="M1131.7,924.7c-1.1,0.1-2.2,0.1-3.2,0.2c-5.9,0.4-14.9,0.9-26.8,1.4c-1.4,0.1-2.4,1.2-2.4,2.6
		c0.1,1.3,1.2,2.4,2.5,2.4c0,0,0.1,0,0.1,0c11.9-0.5,21-1,26.9-1.4c1-0.1,2-0.1,3.1-0.2c1.4-0.1,2.4-1.3,2.4-2.6
		C1134.2,925.7,1133.1,924.6,1131.7,924.7z"/>
	<path class="st0" d="M1011.7,929.6c-10,0.3-20.1,0.6-30,0.9c-1.4,0-2.5,1.2-2.4,2.6c0,1.4,1.2,2.4,2.5,2.4c0,0,0,0,0.1,0
		c9.9-0.3,20-0.6,30-0.9c1.4,0,2.5-1.2,2.4-2.6S1013,929.5,1011.7,929.6z"/>
	<path class="st0" d="M1071.7,927.5c-9.5,0.4-19.6,0.7-30,1.1c-1.4,0-2.5,1.2-2.4,2.6c0,1.4,1.2,2.4,2.5,2.4c0,0,0.1,0,0.1,0
		c10.4-0.4,20.5-0.7,30-1.1c1.4-0.1,2.5-1.2,2.4-2.6C1074.2,928.5,1073.1,927.5,1071.7,927.5z"/>
	<path class="st0" d="M1371.9,922.6c-9.7-0.1-19.8-0.2-30-0.2c0,0,0,0,0,0c-1.4,0-2.5,1.1-2.5,2.5c0,1.4,1.1,2.5,2.5,2.5
		c10.2,0.1,20.3,0.2,30,0.2c0,0,0,0,0,0c1.4,0,2.5-1.1,2.5-2.5C1374.4,923.7,1373.3,922.6,1371.9,922.6z"/>
	<path class="st0" d="M1551.9,923.5c-0.1,0-9.3,0.1-28.2,0.1h-1.8c-1.4,0-2.5,1.1-2.5,2.5s1.1,2.5,2.5,2.5h1.8
		c18.9,0,28.1-0.1,28.2-0.1c1.4,0,2.5-1.1,2.5-2.5S1553.3,923.4,1551.9,923.5z"/>
	<path class="st0" d="M1491.9,923.5c-8.9,0-18.9-0.1-30-0.1c0,0,0,0,0,0c-1.4,0-2.5,1.1-2.5,2.5c0,1.4,1.1,2.5,2.5,2.5
		c11.1,0.1,21.1,0.1,30,0.1c0,0,0,0,0,0c1.4,0,2.5-1.1,2.5-2.5C1494.4,924.6,1493.3,923.5,1491.9,923.5z"/>
	<path class="st0" d="M1251.8,922.4C1251.8,922.4,1251.8,922.4,1251.8,922.4c-10.3,0.1-20.3,0.2-30,0.3c-1.4,0-2.5,1.1-2.5,2.5
		c0,1.4,1.1,2.5,2.5,2.5c0,0,0,0,0,0c9.7-0.1,19.7-0.2,30-0.3c1.4,0,2.5-1.1,2.5-2.5C1254.3,923.5,1253.2,922.4,1251.8,922.4z"/>
	<path class="st0" d="M1431.9,923.2c-8.2-0.1-17.6-0.2-27.9-0.3l-2.1,0c0,0,0,0,0,0c-1.4,0-2.5,1.1-2.5,2.5c0,1.4,1.1,2.5,2.5,2.5
		l2.1,0c10.3,0.1,19.7,0.2,27.9,0.3c0,0,0,0,0,0c1.4,0,2.5-1.1,2.5-2.5C1434.4,924.3,1433.3,923.2,1431.9,923.2z"/>
	<path class="st0" d="M1311.9,922.2c-3.8,0-7.5,0-11.2,0c-6.4,0-12.6,0-18.8,0c-1.4,0-2.5,1.1-2.5,2.5c0,1.4,1.1,2.5,2.5,2.5
		c0,0,0,0,0,0c5.8,0,11.8,0,17.7,0c4.1,0,8.1,0,12.2,0c0,0,0,0,0,0c1.4,0,2.5-1.1,2.5-2.5C1314.4,923.3,1313.2,922.2,1311.9,922.2z"
		/>
	<polygon class="st0" points="918.6,916.2 875.1,935.5 919.3,953.2 911.1,934.8 	"/>
</g>
</svg>
