<?xml version="1.0" encoding="utf-8"?>
<!-- Generator: Adobe Illustrator 24.0.1, SVG Export Plug-In . SVG Version: 6.00 Build 0)  -->
<svg version="1.1" id="fiveflags_Pit_Road" xmlns="http://www.w3.org/2000/svg" xmlns:xlink="http://www.w3.org/1999/xlink" x="0px"
	 y="0px" viewBox="0 0 1920 1080" style="enable-background:new 0 0 1920 1080;" xml:space="preserve">
<style type="text/css">
	.st0{fill:#016699;}
	.st1{fill:#D82520;}
</style>
<title>pitroad</title>
<g id="Mergeline">
	<path class="st0" d="M1235.1,114.8l-29-7.7c-2.7-0.7-5.4,0.9-6.1,3.6c-0.7,2.7,0.9,5.4,3.6,6.1l29,7.7c0.4,0.1,0.9,0.2,1.3,0.2
		c2.2,0,4.2-1.5,4.8-3.7C1239.4,118.2,1237.8,115.5,1235.1,114.8z"/>
	<path class="st0" d="M1347.3,159.8c-8.8-4.4-18-8.7-27.3-12.9c-2.5-1.1-5.5,0-6.6,2.5s0,5.5,2.5,6.6c9.2,4.1,18.2,8.4,26.9,12.7
		c0.7,0.4,1.5,0.5,2.2,0.5c1.8,0,3.6-1,4.5-2.8C1350.8,164,1349.8,161,1347.3,159.8z"/>
	<path class="st0" d="M1292.2,135.2c-9.1-3.7-18.6-7.3-28.2-10.7c-2.6-0.9-5.5,0.4-6.4,3c-0.9,2.6,0.4,5.5,3,6.4
		c9.5,3.4,18.8,7,27.9,10.6c0.6,0.2,1.2,0.4,1.9,0.4c2,0,3.9-1.2,4.6-3.1C1296,139.1,1294.7,136.2,1292.2,135.2z"/>
	<path class="st0" d="M1570.1,457.3c0.9,9.7,1.4,19.6,1.4,29.5c0,2.8,2.2,5,5,5c0,0,0,0,0,0c2.8,0,5-2.3,5-5
		c0-10.2-0.5-20.4-1.5-30.4c-0.3-2.7-2.7-4.8-5.4-4.5C1571.8,452.1,1569.8,454.6,1570.1,457.3z"/>
	<path class="st0" d="M1559.1,399.4c2.7,9.4,5.1,19,6.9,28.7c0.5,2.4,2.6,4.1,4.9,4.1c0.3,0,0.6,0,0.9-0.1c2.7-0.5,4.5-3.1,4-5.8
		c-1.9-10-4.3-19.9-7.1-29.6c-0.8-2.7-3.5-4.2-6.2-3.4C1559.8,394,1558.3,396.8,1559.1,399.4z"/>
	<path class="st0" d="M1177.1,99.5l-15.8-4.2l7-26.6l-9.7-2.6l-8.1,30.8c-0.1,0.2-0.2,0.4-0.2,0.6c-0.1,0.2-0.1,0.4-0.1,0.7
		l-8.1,30.8l9.7,2.6l7-26.6l15.8,4.2c0.4,0.1,0.9,0.2,1.3,0.2c2.2,0,4.2-1.5,4.8-3.7C1181.4,102.9,1179.8,100.2,1177.1,99.5z"/>
	<path class="st0" d="M1472.2,244.2c-2-1.9-5.2-1.8-7.1,0.2s-1.8,5.2,0.2,7.1c7.3,6.8,14.3,13.9,20.8,21c1,1.1,2.3,1.6,3.7,1.6
		c1.2,0,2.4-0.4,3.4-1.3c2-1.9,2.2-5,0.3-7.1C1486.9,258.4,1479.7,251.2,1472.2,244.2z"/>
	<path class="st0" d="M1555.9,374.3c2.6-1,3.8-3.9,2.8-6.5c-3.8-9.4-8-18.7-12.7-27.7c-1.3-2.5-4.3-3.4-6.7-2.1
		c-2.5,1.3-3.4,4.3-2.1,6.7c4.5,8.7,8.6,17.8,12.3,26.8c0.8,2,2.7,3.1,4.6,3.1C1554.7,374.7,1555.3,374.6,1555.9,374.3z"/>
	<path class="st0" d="M1400,189.2c-8.4-5.2-17.1-10.4-26-15.4c-2.4-1.3-5.5-0.5-6.8,1.9c-1.3,2.4-0.5,5.5,1.9,6.8
		c8.8,4.9,17.4,10,25.6,15.1c0.8,0.5,1.7,0.8,2.7,0.8c1.7,0,3.3-0.8,4.2-2.3C1403.1,193.8,1402.4,190.7,1400,189.2z"/>
	<path class="st0" d="M1575.7,511.8c-2.7-0.2-5.2,1.8-5.4,4.6c-0.8,9.8-2.1,19.7-3.7,29.3c-0.5,2.7,1.4,5.3,4.1,5.8
		c0.3,0,0.6,0.1,0.9,0.1c2.4,0,4.5-1.7,4.9-4.2c1.7-10,3-20.1,3.9-30.2C1580.5,514.5,1578.5,512.1,1575.7,511.8z"/>
	<path class="st0" d="M1566.4,571c-2.7-0.7-5.4,0.9-6.1,3.6c-4.6,17.4-8.9,27.7-9,27.9c-1.1,2.5,0.1,5.5,2.6,6.6
		c0.6,0.3,1.3,0.4,2,0.4c1.9,0,3.8-1.1,4.6-3c0.2-0.4,4.7-11,9.5-29.2C1570.7,574.5,1569.1,571.8,1566.4,571z"/>
	<path class="st0" d="M1513.2,289c-1.7-2.2-4.8-2.6-7-0.9c-2.2,1.7-2.6,4.8-0.9,7c6.1,7.8,11.8,15.9,17.1,24.1
		c1,1.5,2.6,2.3,4.2,2.3c0.9,0,1.9-0.3,2.7-0.8c2.3-1.5,3-4.6,1.5-6.9C1525.4,305.4,1519.5,297,1513.2,289z"/>
	<path class="st0" d="M1449.3,224.3c-7.7-6.2-15.8-12.4-24.1-18.3c-2.2-1.6-5.4-1.1-7,1.2c-1.6,2.3-1.1,5.4,1.2,7
		c8.2,5.8,16.1,11.8,23.6,17.9c0.9,0.8,2,1.1,3.1,1.1c1.5,0,2.9-0.6,3.9-1.9C1451.8,229.2,1451.5,226.1,1449.3,224.3z"/>
</g>
<g id="Pitroad">
	<path class="st1" d="M667.6,813.7c-9.8-2.1-19.6-4.4-29.1-6.8c-1.3-0.4-2.7,0.5-3.1,1.8c-0.3,1.3,0.5,2.7,1.8,3.1
		c9.5,2.5,19.4,4.8,29.3,6.9c0.2,0,0.3,0.1,0.5,0.1c1.2,0,2.2-0.8,2.4-2C669.8,815.3,668.9,814,667.6,813.7z"/>
	<path class="st1" d="M554.4,776.4c-8.6-4.2-17.2-9.1-25.7-14.7c-1.2-0.8-2.7-0.4-3.5,0.7c-0.8,1.2-0.4,2.7,0.7,3.5
		c8.7,5.7,17.5,10.8,26.3,15.1c0.4,0.2,0.7,0.3,1.1,0.3c0.9,0,1.8-0.5,2.3-1.4C556.2,778.5,555.7,777,554.4,776.4z"/>
	<path class="st1" d="M482.9,723.9c-1-1-2.6-1-3.5,0c-1,1-1,2.6,0,3.5c7.4,7.3,14.9,14.2,22.3,20.4c0.5,0.4,1,0.6,1.6,0.6
		c0.7,0,1.4-0.3,1.9-0.9c0.9-1.1,0.7-2.6-0.3-3.5C497.6,737.8,490.2,731.1,482.9,723.9z"/>
	<path class="st1" d="M846.1,830.4c-10.5-0.3-20.6-0.7-30-1.1c-1.4,0-2.5,1-2.6,2.4c-0.1,1.4,1,2.5,2.4,2.6c9.4,0.4,19.5,0.8,30,1.1
		c0,0,0.1,0,0.1,0c1.3,0,2.5-1.1,2.5-2.4C848.6,831.6,847.5,830.5,846.1,830.4z"/>
	<path class="st1" d="M726.5,823.4c-9.9-1.2-19.9-2.6-29.6-4.2c-1.4-0.2-2.6,0.7-2.9,2.1c-0.2,1.4,0.7,2.6,2.1,2.9
		c9.8,1.6,19.8,3,29.8,4.2c0.1,0,0.2,0,0.3,0c1.2,0,2.3-0.9,2.5-2.2C728.9,824.8,727.9,823.6,726.5,823.4z"/>
	<path class="st1" d="M786.1,828.2c-10-0.4-20-1-29.8-1.8c-1.4-0.1-2.6,0.9-2.7,2.3c-0.1,1.4,0.9,2.6,2.3,2.7c9.9,0.8,20,1.4,30,1.8
		c0,0,0.1,0,0.1,0c1.3,0,2.4-1.1,2.5-2.4C788.6,829.4,787.5,828.3,786.1,828.2z"/>
	<path class="st1" d="M329,469.2c-0.5-1.3-2-1.9-3.2-1.4c-1.3,0.5-1.9,2-1.4,3.2c3.7,9.3,7.6,18.6,11.5,27.8
		c0.4,0.9,1.3,1.5,2.3,1.5c0.3,0,0.7-0.1,1-0.2c1.3-0.5,1.9-2,1.3-3.3C336.6,487.8,332.7,478.5,329,469.2z"/>
	<path class="st1" d="M308.4,412.8c-0.4-1.3-1.8-2-3.1-1.6c-1.3,0.4-2,1.8-1.6,3.1c0,0.1,3.5,10.9,10,28.6c0.4,1,1.3,1.6,2.3,1.6
		c0.3,0,0.6,0,0.9-0.2c1.3-0.5,2-1.9,1.5-3.2C311.8,423.7,308.4,412.9,308.4,412.8z"/>
	<path class="st1" d="M352.7,524.3c-0.6-1.3-2.1-1.8-3.3-1.2c-1.3,0.6-1.8,2.1-1.2,3.3c4.2,9.2,8.6,18.3,13,27.2
		c0.4,0.9,1.3,1.4,2.2,1.4c0.4,0,0.8-0.1,1.1-0.3c1.2-0.6,1.7-2.1,1.1-3.4C361.3,542.6,357,533.5,352.7,524.3z"/>
	<path class="st1" d="M443.6,679c-0.8-1.1-2.4-1.3-3.5-0.5c-1.1,0.8-1.3,2.4-0.5,3.5c6.3,8.2,12.7,16,19.1,23.3
		c0.5,0.6,1.2,0.9,1.9,0.9c0.6,0,1.2-0.2,1.6-0.6c1-0.9,1.1-2.5,0.2-3.5C456.2,694.8,449.8,687.1,443.6,679z"/>
	<path class="st1" d="M379.4,578c-0.7-1.2-2.2-1.7-3.4-1c-1.2,0.7-1.7,2.2-1,3.4c4.8,9,9.7,17.8,14.6,26.3c0.5,0.8,1.3,1.2,2.2,1.2
		c0.4,0,0.9-0.1,1.2-0.3c1.2-0.7,1.6-2.2,0.9-3.4C389.1,595.8,384.2,586.9,379.4,578z"/>
	<path class="st1" d="M409.4,629.8c-0.7-1.2-2.3-1.5-3.4-0.8c-1.2,0.7-1.5,2.3-0.8,3.4c5.5,8.7,11.1,17.1,16.6,25.1
		c0.5,0.7,1.3,1.1,2.1,1.1c0.5,0,1-0.1,1.4-0.4c1.1-0.8,1.4-2.3,0.6-3.5C420.4,646.8,414.9,638.4,409.4,629.8z"/>
	<path class="st1" d="M609.8,798.6c-9.9-3.1-19.3-6.5-28.1-10c-1.3-0.5-2.7,0.1-3.2,1.4s0.1,2.7,1.4,3.2c8.9,3.5,18.5,6.9,28.4,10.1
		c0.3,0.1,0.5,0.1,0.8,0.1c1.1,0,2-0.7,2.4-1.7C611.8,800.4,611.1,799,609.8,798.6z"/>
	<path class="st1" d="M1265,816.3c-9.2,1.5-19.2,2.9-29.6,4.2c-1.4,0.2-2.3,1.4-2.2,2.8c0.2,1.3,1.2,2.2,2.5,2.2c0.1,0,0.2,0,0.3,0
		c10.5-1.3,20.5-2.7,29.8-4.3c1.4-0.2,2.3-1.5,2.1-2.9S1266.4,816.1,1265,816.3z"/>
	<path class="st1" d="M1432.7,756.5c-8.2,5.2-16.9,10.3-25.8,14.9c-1.2,0.6-1.7,2.2-1,3.4c0.4,0.8,1.3,1.3,2.2,1.3
		c0.4,0,0.8-0.1,1.2-0.3c9-4.7,17.8-9.8,26.1-15.2c1.2-0.7,1.5-2.3,0.8-3.5C1435.4,756.1,1433.8,755.8,1432.7,756.5z"/>
	<path class="st1" d="M1323.7,804.2c-12.8,3.5-22.9,5.6-29.1,6.8c-1.4,0.3-2.3,1.6-2,2.9c0.2,1.2,1.3,2,2.5,2c0.2,0,0.3,0,0.5,0
		c6.3-1.2,16.5-3.3,29.5-6.9c1.3-0.4,2.1-1.7,1.7-3.1C1326.4,804.6,1325,803.8,1323.7,804.2z"/>
	<path class="st1" d="M1380,784.4c-9,3.9-18.4,7.6-27.8,10.9c-1.3,0.5-2,1.9-1.5,3.2c0.4,1,1.3,1.7,2.4,1.7c0.3,0,0.6,0,0.8-0.1
		c9.5-3.4,19-7.1,28.1-11c1.3-0.5,1.8-2,1.3-3.3C1382.7,784.4,1381.2,783.8,1380,784.4z"/>
	<path class="st1" d="M1522,674.7c-1.1-0.8-2.7-0.5-3.5,0.6c-5.6,8.1-11.7,16-18.2,23.5c-0.9,1-0.8,2.6,0.3,3.5
		c0.5,0.4,1.1,0.6,1.6,0.6c0.7,0,1.4-0.3,1.9-0.9c6.6-7.6,12.9-15.7,18.5-23.9C1523.5,677.1,1523.2,675.5,1522,674.7z"/>
	<path class="st1" d="M1479.7,720.2c-7.1,6.7-14.7,13.1-22.7,19.2c-1.1,0.8-1.3,2.4-0.5,3.5c0.5,0.6,1.2,1,2,1
		c0.5,0,1.1-0.2,1.5-0.5c8.1-6.2,15.8-12.8,23.1-19.6c1-0.9,1.1-2.5,0.1-3.5C1482.3,719.3,1480.7,719.3,1479.7,720.2z"/>
	<path class="st1" d="M906.1,831.9c-10-0.2-20.1-0.4-30-0.7c-1.4-0.1-2.5,1.1-2.6,2.4c0,1.4,1.1,2.5,2.4,2.6c9.9,0.3,20,0.5,30,0.7
		c0,0,0,0,0,0c1.4,0,2.5-1.1,2.5-2.5C908.6,833.1,907.5,832,906.1,831.9z"/>
	<path class="st1" d="M1205.7,823.8c-9.5,0.9-19.6,1.8-29.8,2.6c-1.4,0.1-2.4,1.3-2.3,2.7c0.1,1.3,1.2,2.3,2.5,2.3
		c0.1,0,0.1,0,0.2,0c10.3-0.8,20.4-1.7,30-2.6c1.4-0.1,2.4-1.4,2.2-2.7S1207,823.7,1205.7,823.8z"/>
	<path class="st1" d="M966.1,832.6c-9.9,0-20-0.1-30-0.2c-1.4,0-2.5,1.1-2.5,2.5c0,1.4,1.1,2.5,2.5,2.5c10.1,0.1,20.2,0.2,30,0.2
		c0,0,0,0,0,0c1.4,0,2.5-1.1,2.5-2.5C968.6,833.8,967.5,832.6,966.1,832.6z"/>
	<path class="st1" d="M1026.1,832.4c-9.8,0.1-19.9,0.2-30,0.2c-1.4,0-2.5,1.1-2.5,2.5c0,1.4,1.1,2.5,2.5,2.5c0,0,0,0,0,0
		c10.1,0,20.2-0.1,30-0.2c1.4,0,2.5-1.1,2.5-2.5S1027.5,832.4,1026.1,832.4z"/>
	<path class="st1" d="M1145.9,828.4c-9.7,0.6-19.7,1.1-29.9,1.5c-1.4,0.1-2.4,1.2-2.4,2.6c0.1,1.3,1.2,2.4,2.5,2.4c0,0,0.1,0,0.1,0
		c10.2-0.5,20.3-1,30-1.5c1.4-0.1,2.4-1.3,2.3-2.6S1147.3,828.3,1145.9,828.4z"/>
	<path class="st1" d="M1086.1,831.1C1086.1,831.1,1086,831.1,1086.1,831.1c-9.7,0.3-19.8,0.6-30.1,0.8c-1.4,0-2.5,1.2-2.4,2.6
		c0,1.4,1.1,2.4,2.5,2.4c0,0,0,0,0.1,0c10.2-0.2,20.3-0.5,30-0.8c1.4,0,2.5-1.2,2.4-2.6C1088.5,832.2,1087.4,831.1,1086.1,831.1z"/>
	<path class="st1" d="M1557.4,652.1l-1.5-47.6l-33.1,34.3l17.2-0.6c-1.9,4-3.9,8-6,11.9c-0.7,1.2-0.2,2.7,1,3.4
		c0.4,0.2,0.8,0.3,1.2,0.3c0.9,0,1.8-0.5,2.2-1.3c2.2-4.1,4.3-8.3,6.3-12.6L1557.4,652.1z"/>
</g>
</svg>
