<?xml version="1.0" encoding="utf-8"?>
<!-- Generator: Adobe Illustrator 25.0.0, SVG Export Plug-In . SVG Version: 6.00 Build 0)  -->
<svg version="1.1" id="Industriefahrten_Pit" xmlns="http://www.w3.org/2000/svg" xmlns:xlink="http://www.w3.org/1999/xlink"
	 x="0px" y="0px" viewBox="0 0 1920 1080" style="enable-background:new 0 0 1920 1080;" xml:space="preserve">
<style type="text/css">
	.st0{fill:#D82520;}
</style>
<g id="Pitroad">
	<path class="st0" d="M864.1,1013.8c-1.2,0-2.3-0.4-3.3-1.2l-0.1-0.1c-1.1-1.1-2.3-2.1-3.5-2.9l-0.1-0.1c-0.3-0.2-0.5-0.4-0.8-0.6
		c-1.1-0.9-1.2-2.4-0.4-3.5c0.9-1.1,2.4-1.2,3.5-0.4c0.2,0.2,0.4,0.4,0.7,0.5c1.4,1,2.8,2.1,4,3.3c0.1,0,0.4,0,1-0.4
		c1.2-0.6,2.7-0.1,3.4,1.1s0.1,2.7-1.1,3.4C866.2,1013.5,865.1,1013.8,864.1,1013.8z M874.6,1007.8c-0.8,0-1.7-0.4-2.1-1.2
		c-0.7-1.2-0.4-2.7,0.8-3.4c1.4-0.9,2-1.2,2.4-1.3c0.2-0.1,0.4-0.2,0.7-0.3c1.6-0.8,3.8-1.8,6.2-1.8c0.6,0,1.2,0.1,2,0.3
		c1.3,0.3,2.2,1.6,1.9,3s-1.6,2.2-3,1.9c-0.5-0.1-0.8-0.1-0.9-0.1c-1.2,0-2.8,0.8-4,1.4c-0.3,0.1-0.5,0.2-0.7,0.3
		c-0.1,0.1-0.6,0.3-1.8,1.1C875.5,1007.6,875.1,1007.8,874.6,1007.8z M893.5,1007.3c-1.3,0-2.4-1-2.5-2.3c-0.1-1.4,0.9-2.6,2.3-2.7
		c0.8-0.1,1.6-0.3,2.3-0.7c1.2-0.6,2.7-0.2,3.4,1c0.7,1.2,0.2,2.7-1,3.4c-1.3,0.7-2.7,1.1-4.2,1.3
		C893.7,1007.3,893.6,1007.3,893.5,1007.3z M850.5,1002.6c-0.6,0-1.3-0.2-1.8-0.7c-1.2-1.2-2.5-2.5-3.7-3.8
		c-1.2-1.3-2.4-2.5-3.2-3.4c-1-1-1-2.6,0-3.5c1-1,2.6-1,3.5,0c0.9,0.9,2.1,2.1,3.3,3.5c1.2,1.3,2.5,2.6,3.6,3.8c1,1,1,2.6,0,3.5
		C851.8,1002.4,851.2,1002.6,850.5,1002.6z M835.8,989.2c-0.5,0-1-0.1-1.4-0.4c-3-2.1-5.6-4.7-7.7-7.7c-0.8-1.1-0.5-2.7,0.7-3.5
		c1.1-0.8,2.7-0.5,3.5,0.7c1.7,2.5,3.8,4.7,6.3,6.4c1.1,0.8,1.4,2.3,0.6,3.5C837.3,988.8,836.6,989.2,835.8,989.2z"/>
	<polygon class="st0" points="825.7,988.4 830.2,981.7 838.1,980.2 822.2,969.7 	"/>
</g>
</svg>
