<?xml version="1.0" encoding="utf-8"?>
<!-- Generator: Adobe Illustrator 25.0.0, SVG Export Plug-In . SVG Version: 6.00 Build 0)  -->
<svg version="1.1" id="Pit" xmlns="http://www.w3.org/2000/svg" xmlns:xlink="http://www.w3.org/1999/xlink" x="0px" y="0px"
	 viewBox="0 0 1920 1080" style="enable-background:new 0 0 1920 1080;" xml:space="preserve">
<style type="text/css">
	.st0{fill:#D82520;}
</style>
<g id="Pitroad">
	<path class="st0" d="M723.5,881.2c-0.6,0-1.2-0.2-1.7-0.6c-1-0.9-1.1-2.5-0.2-3.5c0.8-0.9,1.5-1.7,1.8-2.1c0.8-0.9,3.8-4.1,5-5.4
		c0.9-1,2.5-1.1,3.5-0.1c1,0.9,1.1,2.5,0.1,3.5c-2.5,2.7-4.4,4.7-4.9,5.2c-0.3,0.4-1,1.2-1.9,2.1
		C724.8,880.9,724.1,881.2,723.5,881.2z M737.1,866.5c-0.6,0-1.3-0.3-1.8-0.8c-1-1-0.9-2.6,0-3.5c1.3-1.3,4.7-4.4,7.4-6.9
		c1-0.9,2.6-0.9,3.5,0.1c0.9,1,0.9,2.6-0.1,3.5c-2.6,2.4-6,5.5-7.3,6.8C738.4,866.3,737.8,866.5,737.1,866.5z M751.8,852.9
		c-0.7,0-1.3-0.3-1.8-0.8c-0.9-1-0.9-2.6,0.1-3.5c2.3-2.1,4.9-4.6,7.3-6.9c1-0.9,2.6-0.9,3.5,0.1c0.9,1,0.9,2.6-0.1,3.5
		c-2.4,2.2-5,4.8-7.3,6.9C753,852.6,752.4,852.9,751.8,852.9z M766.4,839.1c-0.6,0-1.3-0.2-1.8-0.7c-1-1-1-2.6,0-3.5l1.5-1.5
		c1.7-1.6,3.8-3.7,5.7-5.6c1-1,2.6-0.9,3.5,0c1,1,0.9,2.6,0,3.5c-1.9,1.9-4,3.9-5.7,5.6l-1.5,1.5C767.6,838.8,767,839.1,766.4,839.1
		z M780.8,825.2c-0.7,0-1.3-0.3-1.8-0.8c-0.9-1-0.9-2.6,0.1-3.5c2-1.8,4.7-4.4,7.3-6.8c1-0.9,2.6-0.9,3.5,0.1c0.9,1,0.9,2.6-0.1,3.5
		c-2.6,2.4-5.3,5-7.3,6.9C782,825,781.4,825.2,780.8,825.2z M796.3,812.6c-0.8,0-1.6-0.4-2.1-1.1c-0.8-1.1-0.5-2.7,0.7-3.5
		c2.3-1.5,4.5-3.2,6.9-5.1c1.1-0.9,2.6-0.7,3.5,0.4s0.7,2.6-0.4,3.5c-2.5,2-4.8,3.7-7.3,5.4C797.3,812.5,796.8,812.6,796.3,812.6z"
		/>
	<polygon class="st0" points="737.2,880.4 726,875.9 721.4,864.8 710.8,891.3 	"/>
</g>
</svg>
