<?xml version="1.0" encoding="utf-8"?>
<!-- Generator: Adobe Illustrator 25.0.0, SVG Export Plug-In . SVG Version: 6.00 Build 0)  -->
<svg version="1.1" id="Touristenfahrten_Pit" xmlns="http://www.w3.org/2000/svg" xmlns:xlink="http://www.w3.org/1999/xlink"
	 x="0px" y="0px" viewBox="0 0 1920 1080" style="enable-background:new 0 0 1920 1080;" xml:space="preserve">
<style type="text/css">
	.st0{fill:#D82520;}
</style>
<g id="Pitroad">
	<path class="st0" d="M1022.5,872.2c-0.9,0-1.7-0.4-2.2-1.2c-0.7-1.2-0.3-2.7,0.9-3.4c3.3-1.9,5.1-3.6,7.2-5.4l0.3-0.3
		c1-0.9,2.6-0.8,3.5,0.2c0.9,1,0.8,2.6-0.2,3.5l-0.3,0.3c-2.2,2-4.3,3.8-8,6C1023.4,872.1,1022.9,872.2,1022.5,872.2z M1038.3,860.1
		c-0.8,0-1.6-0.4-2.1-1.2c-0.7-1.2-0.4-2.7,0.8-3.5l0.3-0.2c1.8-1,5.2-3.1,8.3-5c1.2-0.7,2.7-0.3,3.4,0.8c0.7,1.2,0.3,2.7-0.8,3.4
		c-3.3,2-6.5,4-8.4,5l-0.1,0.1C1039.3,860,1038.8,860.1,1038.3,860.1z M1055.5,849.8c-0.8,0-1.7-0.4-2.1-1.2
		c-0.7-1.2-0.3-2.7,0.8-3.4c3-1.8,6-3.6,8.6-5.2c1.2-0.7,2.7-0.3,3.4,0.9c0.7,1.2,0.3,2.7-0.9,3.4c-2.6,1.5-5.6,3.3-8.6,5.1
		C1056.4,849.7,1055.9,849.8,1055.5,849.8z M1072.4,839.1c-0.6,0-1.1-0.2-1.6-0.6c-1.1-0.9-1.2-2.5-0.3-3.5c0.4-0.4,0.5-0.8,0.7-1.3
		c0.5-1.4,1.2-2.8,3.8-4.2c1-0.6,1.5-0.8,2.1-1.1c0.3-0.1,0.6-0.3,1.2-0.6c1.2-0.6,2.7-0.1,3.3,1.1c0.6,1.2,0.1,2.7-1.1,3.3
		c-0.7,0.3-1.1,0.5-1.4,0.7c-0.5,0.2-0.8,0.3-1.7,0.9l-0.1,0.1c-1.1,0.6-1.2,0.8-1.5,1.5c-0.2,0.7-0.6,1.7-1.6,2.8
		C1073.8,838.8,1073.1,839.1,1072.4,839.1z M1088.1,827.9c-0.9,0-1.7-0.5-2.2-1.3c-0.7-1.2-0.3-2.7,1-3.4c2.2-1.2,4.9-2.8,7.8-4.4
		l0.9-0.5c1.2-0.7,2.7-0.3,3.4,0.9c0.7,1.2,0.3,2.7-0.9,3.4l-0.9,0.5c-2.9,1.7-5.6,3.2-7.8,4.4
		C1088.9,827.8,1088.5,827.9,1088.1,827.9z M1105.5,818c-0.9,0-1.7-0.5-2.2-1.3c-0.7-1.2-0.3-2.7,1-3.4c2.9-1.6,5.9-3.3,8.7-4.9
		c1.2-0.7,2.7-0.2,3.4,1c0.7,1.2,0.2,2.7-1,3.4c-2.9,1.6-5.8,3.3-8.7,4.9C1106.4,817.9,1106,818,1105.5,818z M1123,808.3
		c-0.9,0-1.7-0.5-2.2-1.3c-0.7-1.2-0.2-2.7,1-3.4c2.6-1.4,4.8-2.7,6.7-3.6c0.8-0.4,1.6-0.8,2.3-1.2c1.2-0.6,2.7-0.1,3.3,1.2
		c0.6,1.3,0.1,2.7-1.2,3.3c-0.6,0.3-1.3,0.6-2.1,1c-1.8,1-4.1,2.2-6.6,3.6C1123.8,808.2,1123.4,808.3,1123,808.3z M1141.3,800.5
		c-1.1,0-2.1-0.7-2.4-1.9c-0.4-1.3,0.4-2.7,1.8-3.1c1.9-0.5,4.3-1.3,8.5-3.8c1.2-0.7,2.7-0.3,3.4,0.9c0.7,1.2,0.3,2.7-0.9,3.4
		c-4.7,2.8-7.6,3.7-9.7,4.3C1141.8,800.5,1141.5,800.5,1141.3,800.5z"/>
	<polygon class="st0" points="1023.7,858.3 1025,868.3 1033,874.3 1009.4,877.4 	"/>
</g>
</svg>
