<?xml version="1.0" encoding="utf-8"?>
<!-- Generator: Adobe Illustrator 25.0.0, SVG Export Plug-In . SVG Version: 6.00 Build 0)  -->
<svg version="1.1" id="GP_Pit" xmlns="http://www.w3.org/2000/svg" xmlns:xlink="http://www.w3.org/1999/xlink" x="0px" y="0px"
	 viewBox="0 0 1920 1080" style="enable-background:new 0 0 1920 1080;" xml:space="preserve">
<style type="text/css">
	.st0{fill:#D82520;}
</style>
<g id="Pitroad">
	<path class="st0" d="M996.7,397.7c-0.6,0-1.2-0.2-1.7-0.6c-1-0.9-1.1-2.5-0.2-3.5c5.8-6.5,11.5-13,14-15.8c0.9-1.1,3-3.3,6.1-6.6
		c0.9-1,2.5-1.1,3.5-0.1c1,0.9,1.1,2.5,0.1,3.5c-3,3.2-5.1,5.5-6,6.5c-2.5,2.8-8.2,9.4-14,15.9C998.1,397.4,997.4,397.7,996.7,397.7
		z M1037.3,353.3c-0.6,0-1.2-0.2-1.7-0.7c-1-0.9-1-2.5-0.1-3.5c7-7.5,12.2-12.8,14.1-14.7c1.3-1.3,3.6-3.5,7.1-6.8
		c1-0.9,2.6-0.9,3.5,0.1c0.9,1,0.9,2.6-0.1,3.5c-3.4,3.2-5.8,5.5-7,6.7c-1.9,1.9-7,7.2-14,14.6C1038.7,353,1038,353.3,1037.3,353.3z
		 M1080.4,311.4c-0.7,0-1.3-0.3-1.8-0.8c-0.9-1-0.9-2.6,0.1-3.5c2.5-2.4,4.6-4.2,5.7-5.3c1.6-1.5,8.1-7.6,16.2-15.3
		c1-0.9,2.6-0.9,3.5,0.1c0.9,1,0.9,2.6-0.1,3.5c-8.2,7.7-14.6,13.8-16.3,15.3c-1.1,1.1-3.2,3-5.7,5.3
		C1081.7,311.2,1081.1,311.4,1080.4,311.4z M1124.3,270.2c-0.7,0-1.3-0.3-1.8-0.8c-0.9-1-0.9-2.6,0.1-3.5
		c10.6-10,17.9-16.9,21.8-20.7c1-1,2.6-0.9,3.5,0.1c1,1,0.9,2.6-0.1,3.5c-3.9,3.7-11.3,10.7-21.9,20.7
		C1125.5,270,1124.9,270.2,1124.3,270.2z M1167.6,228.4c-0.6,0-1.3-0.3-1.8-0.7c-1-1-1-2.6,0-3.5c9.2-9.1,16.7-16.3,21.6-21
		c1-1,2.6-0.9,3.5,0.1c1,1,0.9,2.6-0.1,3.5c-4.9,4.6-12.3,11.9-21.5,20.9C1168.9,228.2,1168.2,228.4,1167.6,228.4z M1211.3,187.1
		c-0.7,0-1.3-0.3-1.8-0.8c-0.9-1-0.9-2.6,0.1-3.5c6.7-6.3,14.6-13.7,21.9-20.5c1-0.9,2.6-0.9,3.5,0.1c0.9,1,0.9,2.6-0.1,3.5
		c-7.3,6.9-15.2,14.3-21.9,20.6C1212.5,186.9,1211.9,187.1,1211.3,187.1z M1255.2,145.9c-0.7,0-1.3-0.3-1.8-0.8
		c-0.9-1-0.9-2.6,0.1-3.5c1-0.9,1.7-1.6,2.1-1.9l0.9-0.8c4.1-3.7,8.7-7.8,9.3-15.4c0-1.8-0.1-3.4-0.4-4.9c-0.3-1.4,0.6-2.7,2-2.9
		c1.4-0.3,2.7,0.6,2.9,2c0.3,1.8,0.5,3.7,0.5,5.9l0,0.2c-0.7,9.7-6.6,15-11,18.9l-0.9,0.8c-0.4,0.3-1.1,1-2,1.9
		C1256.4,145.7,1255.8,145.9,1255.2,145.9z M1268.3,123.5L1268.3,123.5L1268.3,123.5z M1157.3,114.9c-1.1,0-2.2-0.8-2.4-1.9
		c-0.3-1.3,0.5-2.7,1.8-3c8.5-2.1,18.6-2.9,26.8-3.7c1.2-0.1,2.3-0.2,3.3-0.3c1.4-0.1,2.6,0.9,2.7,2.3c0.1,1.4-0.9,2.6-2.3,2.7
		c-1.1,0.1-2.2,0.2-3.3,0.3c-8,0.7-17.9,1.6-26,3.5C1157.7,114.9,1157.5,114.9,1157.3,114.9z M1216.9,107.2c-1.2,0-2.3-0.9-2.5-2.2
		c-0.2-1.4,0.8-2.6,2.1-2.8c10.6-1.4,21.3-2.9,25.9-3.4c1.5-0.1,2.9-0.2,4.2-0.2c1.4,0,2.5,1.1,2.5,2.5s-1.1,2.5-2.5,2.5
		c-1.2,0-2.5,0-3.8,0.1c-4.4,0.5-15.1,1.9-25.7,3.4C1217.1,107.2,1217,107.2,1216.9,107.2z"/>
	<polygon class="st0" points="979.8,387.6 986.5,406.5 1004.8,414.8 960,430.9 	"/>
</g>
</svg>
