<?xml version="1.0" encoding="utf-8"?>
<!-- Generator: Adobe Illustrator 24.0.1, SVG Export Plug-In . SVG Version: 6.00 Build 0)  -->
<svg version="1.1" id="Oval__Pit_Road" xmlns="http://www.w3.org/2000/svg" xmlns:xlink="http://www.w3.org/1999/xlink" x="0px"
	 y="0px" viewBox="0 0 1920 1080" style="enable-background:new 0 0 1920 1080;" xml:space="preserve">
<style type="text/css">
	.st0{fill:#D82520;}
</style>
<title>pitroad</title>
<g id="Pitroad">
	<path class="st0" d="M826.9,773.3l-30-0.1c0,0,0,0,0,0c-1.4,0-2.5,1.1-2.5,2.5c0,1.4,1.1,2.5,2.5,2.5l30,0.1c0,0,0,0,0,0
		c1.4,0,2.5-1.1,2.5-2.5C829.4,774.4,828.3,773.3,826.9,773.3z"/>
	<path class="st0" d="M887,773.6l-30-0.2c0,0,0,0,0,0c-1.4,0-2.5,1.1-2.5,2.5c0,1.4,1.1,2.5,2.5,2.5l30,0.2c0,0,0,0,0,0
		c1.4,0,2.5-1.1,2.5-2.5C889.5,774.7,888.4,773.6,887,773.6z"/>
	<path class="st0" d="M947.1,773.9l-30-0.2c0,0,0,0,0,0c-1.4,0-2.5,1.1-2.5,2.5c0,1.4,1.1,2.5,2.5,2.5l30,0.2c0,0,0,0,0,0
		c1.4,0,2.5-1.1,2.5-2.5C949.6,775,948.5,773.9,947.1,773.9z"/>
	<path class="st0" d="M766.8,773l-30-0.1c0,0,0,0,0,0c-1.4,0-2.5,1.1-2.5,2.5c0,1.4,1.1,2.5,2.5,2.5l30,0.1c0,0,0,0,0,0
		c1.4,0,2.5-1.1,2.5-2.5C769.3,774.1,768.2,773,766.8,773z"/>
	<path class="st0" d="M706.8,772.7c-10.2,0-20.2-0.1-30.1-0.1c0,0,0,0,0,0c-1.4,0-2.5,1.1-2.5,2.5c0,1.4,1.1,2.5,2.5,2.5
		c9.8,0,19.9,0.1,30,0.1c0,0,0,0,0,0c1.4,0,2.5-1.1,2.5-2.5C709.2,773.9,708.1,772.7,706.8,772.7z"/>
	<path class="st0" d="M1127.3,774.9l-30-0.2c0,0,0,0,0,0c-1.4,0-2.5,1.1-2.5,2.5c0,1.4,1.1,2.5,2.5,2.5l30,0.2c0,0,0,0,0,0
		c1.4,0,2.5-1.1,2.5-2.5C1129.8,776,1128.7,774.9,1127.3,774.9z"/>
	<path class="st0" d="M1007.2,774.2l-30-0.2c0,0,0,0,0,0c-1.4,0-2.5,1.1-2.5,2.5c0,1.4,1.1,2.5,2.5,2.5l30,0.2c0,0,0,0,0,0
		c1.4,0,2.5-1.1,2.5-2.5C1009.7,775.3,1008.6,774.2,1007.2,774.2z"/>
	<path class="st0" d="M1247.5,775.6l-30-0.2c-1.4,0-2.5,1.1-2.5,2.5s1.1,2.5,2.5,2.5l30,0.2c0,0,0,0,0,0c1.4,0,2.5-1.1,2.5-2.5
		C1250,776.7,1248.9,775.6,1247.5,775.6z"/>
	<path class="st0" d="M1067.2,774.6l-30-0.2c0,0,0,0,0,0c-1.4,0-2.5,1.1-2.5,2.5c0,1.4,1.1,2.5,2.5,2.5l30,0.2c0,0,0,0,0,0
		c1.4,0,2.5-1.1,2.5-2.5C1069.7,775.7,1068.6,774.6,1067.2,774.6z"/>
	<path class="st0" d="M408.9,755.2c-9.5-2.8-19-6.1-28.2-9.6c-1.3-0.5-2.7,0.1-3.2,1.4c-0.5,1.3,0.1,2.7,1.4,3.2
		c9.4,3.6,19,6.9,28.6,9.8c0.2,0.1,0.5,0.1,0.7,0.1c1.1,0,2.1-0.7,2.4-1.8C410.9,757,410.2,755.6,408.9,755.2z"/>
	<path class="st0" d="M353.3,733.9c-8.9-4.2-17.8-8.8-26.5-13.7c-1.2-0.7-2.7-0.3-3.4,0.9c-0.7,1.2-0.3,2.7,0.9,3.4
		c8.7,4.9,17.8,9.6,26.8,13.9c0.3,0.2,0.7,0.2,1.1,0.2c0.9,0,1.8-0.5,2.3-1.4C355,735.9,354.5,734.4,353.3,733.9z"/>
	<path class="st0" d="M301.3,704.5c-8.3-5.5-16.4-11.3-24.2-17.4c-1.1-0.8-2.7-0.6-3.5,0.4s-0.6,2.7,0.4,3.5
		c7.9,6.1,16.2,12.1,24.5,17.6c0.4,0.3,0.9,0.4,1.4,0.4c0.8,0,1.6-0.4,2.1-1.1C302.8,706.9,302.5,705.3,301.3,704.5z"/>
	<path class="st0" d="M232.9,647.2c-0.9-1-2.5-1.1-3.5-0.1c-1,0.9-1.1,2.5-0.1,3.5c6.6,7.1,13.9,14.2,21.6,21.1
		c0.5,0.4,1.1,0.6,1.7,0.6c0.7,0,1.4-0.3,1.9-0.8c0.9-1,0.8-2.6-0.2-3.5C246.6,661.2,239.4,654.1,232.9,647.2z"/>
	<path class="st0" d="M526.4,772.3c-9.9,0-19.9-0.4-29.7-1c-1.4-0.1-2.6,0.9-2.7,2.3s0.9,2.6,2.3,2.7c9.9,0.7,20,1.1,30.1,1.1h0.1
		c1.4,0,2.5-1.1,2.5-2.5S527.8,772.3,526.4,772.3z"/>
	<path class="st0" d="M586.5,772.4c-10.5,0-20.5,0-30.1-0.1c0,0,0,0,0,0c-1.4,0-2.5,1.1-2.5,2.5s1.1,2.5,2.5,2.5
		c9.6,0,19.6,0,30.1,0.1c0,0,0,0,0,0c1.4,0,2.5-1.1,2.5-2.5C589,773.5,587.9,772.4,586.5,772.4z"/>
	<path class="st0" d="M646.6,772.5c-10.3,0-20.3-0.1-30.1-0.1c0,0,0,0,0,0c-1.4,0-2.5,1.1-2.5,2.5c0,1.4,1.1,2.5,2.5,2.5
		c9.7,0,19.8,0.1,30.1,0.1c0,0,0,0,0,0c1.4,0,2.5-1.1,2.5-2.5C649.1,773.6,648,772.5,646.6,772.5z"/>
	<path class="st0" d="M467,768.1c-9.8-1.4-19.7-3.2-29.3-5.3c-1.3-0.3-2.7,0.6-3,1.9c-0.3,1.3,0.6,2.7,1.9,3
		c9.8,2.2,19.7,4,29.7,5.4c0.1,0,0.2,0,0.4,0c1.2,0,2.3-0.9,2.5-2.1C469.3,769.5,468.4,768.3,467,768.1z"/>
	<path class="st0" d="M1187.4,775.2l-30-0.2c0,0,0,0,0,0c-1.4,0-2.5,1.1-2.5,2.5c0,1.4,1.1,2.5,2.5,2.5l30,0.2c0,0,0,0,0,0
		c1.4,0,2.5-1.1,2.5-2.5C1189.9,776.4,1188.8,775.2,1187.4,775.2z"/>
	<path class="st0" d="M1661.1,736.5c-8.6,4.4-17.7,8.4-27.2,12.1c-1.3,0.5-1.9,2-1.4,3.2c0.4,1,1.3,1.6,2.3,1.6
		c0.3,0,0.6-0.1,0.9-0.2c9.6-3.8,18.9-7.9,27.6-12.3c1.2-0.6,1.7-2.1,1.1-3.4C1663.8,736.4,1662.3,735.9,1661.1,736.5z"/>
	<path class="st0" d="M1427.9,776.5c-9.3,0-19.3-0.1-30.1-0.1c0,0,0,0,0,0c-1.4,0-2.5,1.1-2.5,2.5c0,1.4,1.1,2.5,2.5,2.5
		c10.8,0.1,20.8,0.1,30.1,0.1c0,0,0,0,0,0c1.4,0,2.5-1.1,2.5-2.5C1430.4,777.7,1429.3,776.5,1427.9,776.5z"/>
	<path class="st0" d="M1710.6,703.9c-7.3,6.3-15.3,12.2-23.8,17.8c-1.2,0.8-1.5,2.3-0.7,3.5c0.5,0.7,1.3,1.1,2.1,1.1
		c0.5,0,0.9-0.1,1.4-0.4c8.6-5.6,16.8-11.7,24.3-18.1c1-0.9,1.2-2.5,0.3-3.5C1713.2,703.2,1711.6,703,1710.6,703.9z"/>
	<path class="st0" d="M1488.1,776.7C1488.1,776.7,1488.1,776.7,1488.1,776.7c-0.9,0-1.8,0-2.6,0c-6.7,0-16,0-27.5-0.1c0,0,0,0,0,0
		c-1.4,0-2.5,1.1-2.5,2.5c0,1.4,1.1,2.5,2.5,2.5c11.5,0,20.8,0.1,27.5,0.1c0.9,0,1.7,0,2.6,0c1.4,0,2.5-1.1,2.5-2.5
		C1490.6,777.8,1489.5,776.7,1488.1,776.7z"/>
	<path class="st0" d="M1605.7,758.4c-9.3,2.8-19,5.3-28.9,7.5c-1.3,0.3-2.2,1.6-1.9,3c0.3,1.2,1.3,2,2.4,2c0.2,0,0.4,0,0.5-0.1
		c10-2.2,19.8-4.8,29.2-7.6c1.3-0.4,2.1-1.8,1.7-3.1C1608.4,758.7,1607.1,758,1605.7,758.4z"/>
	<path class="st0" d="M1547.5,771.5c-9.9,1.5-19.8,2.8-29.6,3.6c-1.4,0.1-2.4,1.3-2.3,2.7c0.1,1.3,1.2,2.3,2.5,2.3
		c0.1,0,0.2,0,0.2,0c9.9-0.9,20-2.1,30-3.7c1.4-0.2,2.3-1.5,2.1-2.9C1550.2,772.2,1548.9,771.3,1547.5,771.5z"/>
	<path class="st0" d="M1367.7,776.2l-30.1-0.2c0,0,0,0,0,0c-1.4,0-2.5,1.1-2.5,2.5c0,1.4,1.1,2.5,2.5,2.5l30.1,0.2c0,0,0,0,0,0
		c1.4,0,2.5-1.1,2.5-2.5C1370.2,777.4,1369.1,776.2,1367.7,776.2z"/>
	<path class="st0" d="M1307.6,775.9l-30.1-0.2c0,0,0,0,0,0c-1.4,0-2.5,1.1-2.5,2.5c0,1.4,1.1,2.5,2.5,2.5l30.1,0.2c0,0,0,0,0,0
		c1.4,0,2.5-1.1,2.5-2.5C1310.1,777,1309,775.9,1307.6,775.9z"/>
	<path class="st0" d="M1765.3,634.3l-37.2,29.8l17.1,1.6c-4.1,6-8.7,11.9-13.5,17.4c-0.9,1-0.8,2.6,0.2,3.5c0.5,0.4,1.1,0.6,1.6,0.6
		c0.7,0,1.4-0.3,1.9-0.9c5.1-5.9,9.9-12.1,14.3-18.4l10.9,13.8L1765.3,634.3z"/>
	<path class="st0" d="M579.3,281.8c1.4,0,2.5-1.1,2.5-2.5c0-1.4-1.1-2.5-2.5-2.5c-10.8-0.1-20.9-0.1-30.1-0.1c0,0,0,0,0,0
		c-1.4,0-2.5,1.1-2.5,2.5c0,1.4,1.1,2.5,2.5,2.5C558.4,281.7,568.5,281.8,579.3,281.8C579.3,281.8,579.3,281.8,579.3,281.8z"/>
	<path class="st0" d="M1300.4,285.6c1.4,0,2.5-1.1,2.5-2.5c0-1.4-1.1-2.5-2.5-2.5l-30-0.1c0,0,0,0,0,0c-1.4,0-2.5,1.1-2.5,2.5
		c0,1.4,1.1,2.5,2.5,2.5L1300.4,285.6C1300.4,285.6,1300.4,285.6,1300.4,285.6z"/>
	<path class="st0" d="M639.5,282.1c1.4,0,2.5-1.1,2.5-2.5c0-1.4-1.1-2.5-2.5-2.5l-30.1-0.2c0,0,0,0,0,0c-1.4,0-2.5,1.1-2.5,2.5
		c0,1.4,1.1,2.5,2.5,2.5L639.5,282.1C639.5,282.1,639.5,282.1,639.5,282.1z"/>
	<path class="st0" d="M290.9,333.4c-0.8-1.2-2.3-1.5-3.5-0.7c-8.7,5.6-16.9,11.7-24.4,18c-1.1,0.9-1.2,2.5-0.3,3.5
		c0.5,0.6,1.2,0.9,1.9,0.9c0.6,0,1.1-0.2,1.6-0.6c7.3-6.2,15.4-12.1,23.9-17.6C291.3,336.1,291.7,334.6,290.9,333.4z"/>
	<path class="st0" d="M1745.4,408.4c0.5,0.5,1.1,0.8,1.8,0.8c0.6,0,1.2-0.2,1.7-0.7c1-1,1-2.5,0.1-3.5c-6.7-7-14.1-14.1-21.8-20.9
		c-1-0.9-2.6-0.8-3.5,0.2c-0.9,1-0.8,2.6,0.2,3.5C1731.5,394.5,1738.7,401.5,1745.4,408.4z"/>
	<path class="st0" d="M1702.3,369.4c0.8,0,1.5-0.3,2-1c0.8-1.1,0.6-2.7-0.5-3.5c-8-6.1-16.3-11.9-24.7-17.4
		c-1.2-0.8-2.7-0.4-3.5,0.7c-0.8,1.2-0.4,2.7,0.7,3.5c8.3,5.4,16.5,11.2,24.4,17.2C1701.2,369.2,1701.7,369.4,1702.3,369.4z"/>
	<path class="st0" d="M402.2,289.8c-0.3-1.3-1.6-2.2-3-1.9c-10,2.2-19.8,4.8-29.2,7.7c-1.3,0.4-2.1,1.8-1.7,3.1
		c0.3,1.1,1.3,1.8,2.4,1.8c0.2,0,0.5,0,0.7-0.1c9.3-2.8,19-5.4,28.9-7.6C401.6,292.5,402.5,291.2,402.2,289.8z"/>
	<path class="st0" d="M519.1,281.5C519.1,281.5,519.1,281.5,519.1,281.5c1.4,0,2.5-1.1,2.5-2.5c0-1.4-1.1-2.5-2.5-2.5
		c-9.9,0-17.9,0-23.9,0c0,0,0,0-0.1,0c-2,0-4.1,0-6.2,0.1c-1.4,0-2.5,1.2-2.4,2.6c0,1.4,1.1,2.4,2.5,2.4c0,0,0,0,0.1,0
		c2.2,0,4.3-0.1,6.2-0.1C501.2,281.5,509.3,281.5,519.1,281.5z"/>
	<path class="st0" d="M344.7,306.8c-0.5-1.3-2-1.9-3.2-1.4c-9.6,3.8-18.9,7.9-27.6,12.3c-1.2,0.6-1.7,2.1-1.1,3.4
		c0.4,0.9,1.3,1.4,2.2,1.4c0.4,0,0.8-0.1,1.1-0.3c8.6-4.3,17.8-8.4,27.2-12.1C344.5,309.6,345.2,308.1,344.7,306.8z"/>
	<path class="st0" d="M461.5,280.7c-0.1-1.4-1.4-2.4-2.7-2.3c-9.9,1-20,2.2-29.9,3.8c-1.4,0.2-2.3,1.5-2.1,2.9
		c0.2,1.2,1.3,2.1,2.5,2.1c0.1,0,0.3,0,0.4,0c9.8-1.6,19.8-2.8,29.6-3.8C460.6,283.3,461.6,282,461.5,280.7z"/>
	<path class="st0" d="M1597.6,311.5c1,0,2-0.6,2.3-1.6c0.5-1.3-0.2-2.7-1.5-3.2c-9.4-3.5-19-6.7-28.6-9.5c-1.3-0.4-2.7,0.4-3.1,1.7
		c-0.4,1.3,0.4,2.7,1.7,3.1c9.5,2.8,19,5.9,28.3,9.4C1597,311.5,1597.3,311.5,1597.6,311.5z"/>
	<path class="st0" d="M1652,336.6c0.9,0,1.7-0.5,2.2-1.3c0.7-1.2,0.2-2.7-1-3.4c-8.8-4.9-17.8-9.4-26.9-13.6c-1.3-0.6-2.7,0-3.3,1.2
		c-0.6,1.3,0,2.7,1.2,3.3c9,4.1,17.9,8.7,26.6,13.5C1651.2,336.5,1651.6,336.6,1652,336.6z"/>
	<path class="st0" d="M1060,284.5c1.4,0,2.5-1.1,2.5-2.5c0-1.4-1.1-2.5-2.5-2.5l-30-0.2c0,0,0,0,0,0c-1.4,0-2.5,1.1-2.5,2.5
		c0,1.4,1.1,2.5,2.5,2.5L1060,284.5C1060,284.5,1060,284.5,1060,284.5z"/>
	<path class="st0" d="M1120.1,284.8c1.4,0,2.5-1.1,2.5-2.5c0-1.4-1.1-2.5-2.5-2.5l-30-0.2c0,0,0,0,0,0c-1.4,0-2.5,1.1-2.5,2.5
		c0,1.4,1.1,2.5,2.5,2.5L1120.1,284.8C1120.1,284.8,1120.1,284.8,1120.1,284.8z"/>
	<path class="st0" d="M1420.6,285.9c1.4,0,2.5-1.1,2.5-2.5c0-1.4-1.1-2.5-2.5-2.5c-9.6,0-19.6,0-30.1-0.1c0,0,0,0,0,0
		c-1.4,0-2.5,1.1-2.5,2.5c0,1.4,1.1,2.5,2.5,2.5C1401,285.9,1411,285.9,1420.6,285.9C1420.6,285.9,1420.6,285.9,1420.6,285.9z"/>
	<path class="st0" d="M1180.2,285.1c1.4,0,2.5-1.1,2.5-2.5c0-1.4-1.1-2.5-2.5-2.5l-30-0.1c0,0,0,0,0,0c-1.4,0-2.5,1.1-2.5,2.5
		c0,1.4,1.1,2.5,2.5,2.5L1180.2,285.1C1180.2,285.1,1180.2,285.1,1180.2,285.1z"/>
	<path class="st0" d="M1240.3,285.3c1.4,0,2.5-1.1,2.5-2.5c0-1.4-1.1-2.5-2.5-2.5l-30-0.1c0,0,0,0,0,0c-1.4,0-2.5,1.1-2.5,2.5
		c0,1.4,1.1,2.5,2.5,2.5L1240.3,285.3C1240.3,285.3,1240.3,285.3,1240.3,285.3z"/>
	<path class="st0" d="M1360.5,285.8c1.4,0,2.5-1.1,2.5-2.5c0-1.4-1.1-2.5-2.5-2.5c-9.7,0-19.8-0.1-30.1-0.1c0,0,0,0,0,0
		c-1.4,0-2.5,1.1-2.5,2.5c0,1.4,1.1,2.5,2.5,2.5C1340.7,285.7,1350.7,285.8,1360.5,285.8C1360.5,285.8,1360.5,285.8,1360.5,285.8z"
		/>
	<path class="st0" d="M999.9,284.1c1.4,0,2.5-1.1,2.5-2.5c0-1.4-1.1-2.5-2.5-2.5l-30-0.2c-1.4,0-2.5,1.1-2.5,2.5s1.1,2.5,2.5,2.5
		L999.9,284.1C999.9,284.1,999.9,284.1,999.9,284.1z"/>
	<path class="st0" d="M699.6,282.5c1.4,0,2.5-1.1,2.5-2.5c0-1.4-1.1-2.5-2.5-2.5l-30.1-0.2c-1.4,0-2.5,1.1-2.5,2.5
		c0,1.4,1.1,2.5,2.5,2.5L699.6,282.5C699.6,282.5,699.6,282.5,699.6,282.5z"/>
	<path class="st0" d="M819.8,283.1c1.4,0,2.5-1.1,2.5-2.5c0-1.4-1.1-2.5-2.5-2.5l-30-0.2c0,0,0,0,0,0c-1.4,0-2.5,1.1-2.5,2.5
		c0,1.4,1.1,2.5,2.5,2.5L819.8,283.1C819.8,283.1,819.8,283.1,819.8,283.1z"/>
	<path class="st0" d="M1540,294.8c1.2,0,2.2-0.8,2.4-2c0.3-1.4-0.6-2.7-1.9-3c-9.8-2.1-19.8-3.8-29.7-5.1c-1.4-0.2-2.6,0.8-2.8,2.1
		c-0.2,1.4,0.8,2.6,2.1,2.8c9.8,1.3,19.7,3,29.4,5.1C1539.7,294.8,1539.8,294.8,1540,294.8z"/>
	<path class="st0" d="M939.9,283.8c1.4,0,2.5-1.1,2.5-2.5c0-1.4-1.1-2.5-2.5-2.5l-30-0.2c-1.4,0-2.5,1.1-2.5,2.5s1.1,2.5,2.5,2.5
		L939.9,283.8C939.9,283.8,939.9,283.8,939.9,283.8z"/>
	<path class="st0" d="M759.7,282.8c1.4,0,2.5-1.1,2.5-2.5c0-1.4-1.1-2.5-2.5-2.5l-30-0.2c0,0,0,0,0,0c-1.4,0-2.5,1.1-2.5,2.5
		c0,1.4,1.1,2.5,2.5,2.5L759.7,282.8C759.7,282.8,759.7,282.8,759.7,282.8z"/>
	<path class="st0" d="M1480.6,286.7c1.3,0,2.4-1,2.5-2.3c0.1-1.4-1-2.6-2.3-2.6c-8.7-0.5-17.6-0.8-26.4-0.8l-3.7,0
		c-1.4,0-2.5,1.1-2.5,2.5c0,1.4,1.1,2.5,2.5,2.5l3.7,0c8.7,0,17.5,0.3,26.1,0.8C1480.5,286.7,1480.6,286.7,1480.6,286.7z"/>
	<path class="st0" d="M879.8,283.5c1.4,0,2.5-1.1,2.5-2.5c0-1.4-1.1-2.5-2.5-2.5l-30-0.2c-1.4-0.1-2.5,1.1-2.5,2.5
		c0,1.4,1.1,2.5,2.5,2.5L879.8,283.5C879.8,283.5,879.8,283.5,879.8,283.5z"/>
	<path class="st0" d="M231.5,392.5c4.2-6,8.7-11.8,13.6-17.3c0.9-1,0.8-2.6-0.2-3.5s-2.6-0.8-3.5,0.2c-5.2,5.9-10,12-14.4,18.4
		l-10.9-13.8l-4.8,47.4l37.3-29.7L231.5,392.5z"/>
</g>
</svg>
