<?xml version="1.0" encoding="utf-8"?>
<!-- Generator: Adobe Illustrator 24.0.1, SVG Export Plug-In . SVG Version: 6.00 Build 0)  -->
<svg version="1.1" id="Imola_Moto_-_Pit_Road" xmlns="http://www.w3.org/2000/svg" xmlns:xlink="http://www.w3.org/1999/xlink"
	 x="0px" y="0px" viewBox="0 0 1920 1080" style="enable-background:new 0 0 1920 1080;" xml:space="preserve">
<style type="text/css">
	.st0{fill:#D82520;}
</style>
<title>pitroad</title>
<g id="Pitroad">
	<path class="st0" d="M550.5,851c-10.5-1.3-20.6-2.5-29.8-3.7c-1.4-0.2-2.6,0.8-2.8,2.2c-0.2,1.4,0.8,2.6,2.2,2.8
		c9.2,1.1,19.3,2.4,29.8,3.7c0.1,0,0.2,0,0.3,0c1.2,0,2.3-0.9,2.5-2.2C552.8,852.5,551.9,851.2,550.5,851z"/>
	<path class="st0" d="M610.2,858.4c-10-1.2-20-2.4-29.8-3.6c-1.4-0.2-2.6,0.8-2.8,2.2s0.8,2.6,2.2,2.8c9.9,1.2,19.9,2.4,29.8,3.6
		c0.1,0,0.2,0,0.3,0c1.2,0,2.3-0.9,2.5-2.2C612.5,859.8,611.5,858.5,610.2,858.4z"/>
	<path class="st0" d="M490.8,843.7c-14-1.7-22.8-2.8-23.7-2.9c-2-0.4-4.1-0.7-6.3-0.9c-1.4-0.1-2.6,0.9-2.7,2.2
		c-0.1,1.4,0.9,2.6,2.2,2.7c2.1,0.2,4.1,0.5,6,0.9l0.1,0c0,0,9,1.1,23.7,2.9c0.1,0,0.2,0,0.3,0c1.2,0,2.3-0.9,2.5-2.2
		C493.2,845.1,492.2,843.8,490.8,843.7z"/>
	<path class="st0" d="M371.2,852c-7.5,1.5-13.2,2.5-16.8,3c-3,0.4-7.2,0.8-12.6,1.2c-1.4,0.1-2.4,1.3-2.3,2.7
		c0.1,1.3,1.2,2.3,2.5,2.3c0.1,0,0.1,0,0.2,0c5.5-0.4,9.9-0.8,13-1.2c3.7-0.5,9.5-1.5,17.1-3c1.4-0.3,2.2-1.6,2-2.9
		C373.9,852.6,372.6,851.7,371.2,852z"/>
	<path class="st0" d="M311.9,857.7c-15.9,0.6-29.9,1-30,1c-1.4,0-2.5,1.2-2.4,2.6c0,1.4,1.1,2.4,2.5,2.4c0,0,0,0,0.1,0
		c0.1,0,14.1-0.3,30.1-1c1.4-0.1,2.5-1.2,2.4-2.6S313.2,857.7,311.9,857.7z"/>
	<path class="st0" d="M430.4,840.3c-9.1,1-15.4,2.2-15.7,2.3c0,0-5.9,1.3-14.1,3.2c-1.3,0.3-2.2,1.6-1.9,3c0.3,1.2,1.3,2,2.4,2
		c0.2,0,0.4,0,0.5-0.1c8.2-1.8,14.1-3.2,14.1-3.2c0.1,0,6.4-1.3,15.2-2.2c1.4-0.1,2.4-1.4,2.2-2.7S431.8,840.1,430.4,840.3z"/>
	<path class="st0" d="M669.8,865.6c-9.4-1.1-19.5-2.3-29.8-3.6c-1.4-0.2-2.6,0.8-2.8,2.2s0.8,2.6,2.2,2.8
		c10.4,1.3,20.4,2.5,29.8,3.6c0.1,0,0.2,0,0.3,0c1.2,0,2.3-0.9,2.5-2.2C672.2,867,671.2,865.8,669.8,865.6z"/>
	<path class="st0" d="M900.9,930.4c-3.9-1.4-14.5-5-28.4-9.9c-1.3-0.5-2.7,0.2-3.2,1.5c-0.5,1.3,0.2,2.7,1.5,3.2
		c14,4.8,24.5,8.5,28.4,9.9c0.3,0.1,0.5,0.1,0.8,0.1c1,0,2-0.6,2.4-1.7C902.9,932.2,902.2,930.8,900.9,930.4z"/>
	<path class="st0" d="M1017.8,952.8c-7.3-0.2-14.1-0.6-20.4-1.3c-3-0.3-6.1-0.7-9.2-1.1c-1.4-0.2-2.6,0.8-2.8,2.1s0.8,2.6,2.1,2.8
		c3.2,0.4,6.4,0.8,9.4,1.1c6.4,0.7,13.4,1.1,20.8,1.3c0,0,0,0,0.1,0c1.3,0,2.5-1.1,2.5-2.4C1020.3,954,1019.2,952.9,1017.8,952.8z"
		/>
	<path class="st0" d="M1077.4,950.5c-10.5,0.9-20.6,1.6-29.8,2c-1.4,0.1-2.5,1.2-2.4,2.6c0.1,1.3,1.2,2.4,2.5,2.4c0,0,0.1,0,0.1,0
		c9.3-0.4,19.4-1.1,30-2c1.4-0.1,2.4-1.3,2.3-2.7C1080,951.4,1078.8,950.4,1077.4,950.5z"/>
	<path class="st0" d="M729.7,873c-4.8-1-8.6-1.4-12.6-1.8l-1.7-0.2c-4.6-0.5-9.8-1.1-15.7-1.8c-1.4-0.1-2.6,0.8-2.8,2.2
		c-0.2,1.4,0.8,2.6,2.2,2.8c5.8,0.7,11.1,1.3,15.7,1.8l1.7,0.2c3.9,0.4,7.6,0.9,12.2,1.8c0.2,0,0.3,0,0.5,0c1.2,0,2.2-0.8,2.4-2
		C731.9,874.6,731,873.2,729.7,873z"/>
	<path class="st0" d="M958.8,945.4c-9.4-1.9-19.2-4.2-29.1-6.8c-1.3-0.3-2.7,0.5-3,1.8c-0.3,1.3,0.5,2.7,1.8,3
		c10,2.6,19.9,4.9,29.4,6.8c0.2,0,0.3,0.1,0.5,0.1c1.2,0,2.2-0.8,2.4-2C961,947,960.1,945.7,958.8,945.4z"/>
	<path class="st0" d="M844.1,910.7c-9.2-3.2-18.9-6.5-28.4-9.8c-1.3-0.4-2.7,0.2-3.2,1.6c-0.4,1.3,0.2,2.7,1.5,3.2
		c9.5,3.3,19.2,6.6,28.4,9.8c0.3,0.1,0.5,0.1,0.8,0.1c1,0,2-0.7,2.4-1.7C846.1,912.6,845.4,911.1,844.1,910.7z"/>
	<path class="st0" d="M787.2,891.1c-11.7-4-21.3-7.3-28.5-9.7c-1.3-0.4-2.7,0.3-3.2,1.6c-0.4,1.3,0.3,2.7,1.6,3.2
		c7.2,2.4,16.8,5.7,28.5,9.7c0.3,0.1,0.5,0.1,0.8,0.1c1,0,2-0.7,2.4-1.7C789.2,893,788.5,891.6,787.2,891.1z"/>
	<polygon class="st0" points="1130.5,946.9 1084.7,933.8 1094.7,951.3 1089.2,970.6 	"/>
</g>
</svg>
