<?xml version="1.0" encoding="utf-8"?>
<!-- Generator: Adobe Illustrator 24.0.1, SVG Export Plug-In . SVG Version: 6.00 Build 0)  -->
<svg version="1.1" id="Historic_-_Pit_Road" xmlns="http://www.w3.org/2000/svg" xmlns:xlink="http://www.w3.org/1999/xlink"
	 x="0px" y="0px" viewBox="0 0 1920 1080" style="enable-background:new 0 0 1920 1080;" xml:space="preserve">
<style type="text/css">
	.st0{fill:#016699;}
	.st1{fill:#D82520;}
</style>
<title>pitroad</title>
<g id="Mergeline">
	<path class="st0" d="M367.2,916.2c-0.2,0-18.9-3.3-29.6-5.2c-2.7-0.5-5.3,1.3-5.8,4c-0.5,2.7,1.3,5.3,4,5.8
		c10.7,2,29.5,5.2,29.7,5.3c0.3,0,0.6,0.1,0.9,0.1c2.4,0,4.5-1.7,4.9-4.1C371.7,919.3,369.9,916.7,367.2,916.2z"/>
	<path class="st0" d="M306.1,875l-18.6,62.3l9.6,2.9l7.9-26.4c0.4,0.1,0.8,0.2,1.2,0.3c0.4,0.1,0.9,0.2,1.3,0.2
		c2.2,0,4.2-1.5,4.8-3.7c0.7-2.7-0.9-5.4-3.5-6.1c-0.3-0.1-0.6-0.2-0.9-0.3l7.9-26.3L306.1,875z"/>
</g>
<g id="Pitroad">
	<path class="st1" d="M483,929.4c-9.4-0.7-19.8-1.5-30-2.3c-1.4-0.1-2.6,0.9-2.7,2.3c-0.1,1.4,0.9,2.6,2.3,2.7
		c10.2,0.8,20.5,1.6,30,2.3c0.1,0,0.1,0,0.2,0c1.3,0,2.4-1,2.5-2.3C485.4,930.7,484.4,929.5,483,929.4z"/>
	<path class="st1" d="M423.1,924.8c-7.7-0.6-14.5-1.1-19.6-1.5l8.7-14.9l-45.9,12.7l41.2,24l-4.7-16.9c5.1,0.4,12,0.9,19.9,1.5
		c0.1,0,0.1,0,0.2,0c1.3,0,2.4-1,2.5-2.3C425.5,926.1,424.4,924.9,423.1,924.8z"/>
	<path class="st1" d="M657.2,897.2c-0.2-1.4-1.5-2.3-2.9-2l-29.5,5.3c-1.4,0.2-2.3,1.5-2,2.9c0.2,1.2,1.3,2.1,2.5,2.1
		c0.1,0,0.3,0,0.4,0l29.5-5.3C656.6,899.9,657.5,898.6,657.2,897.2z"/>
	<path class="st1" d="M595.3,905.8l-7.8,1.4c-0.4,0.1-11,1.8-15.5,10.3l-0.1,0.1c-0.6,1.1-1,1.8-2.3,2.4c-1.3,0.6-1.8,2-1.3,3.3
		c0.4,0.9,1.3,1.5,2.3,1.5c0.3,0,0.7-0.1,1-0.2c2.8-1.2,3.8-3.1,4.6-4.5l0.1-0.2c3.3-6.2,11.8-7.7,11.9-7.7l7.8-1.4
		c1.4-0.2,2.3-1.5,2-2.9C597.9,906.5,596.6,905.6,595.3,905.8z"/>
	<path class="st1" d="M540.6,924.3c-6.5,0.9-11.6,1.7-11.6,1.7l-0.3,0l-0.2,0.1c-3.2,1.1-6.1,2.8-8.6,5c-0.7,0.6-1.1,0.9-3,0.9
		c-0.9,0-2.1-0.1-4-0.2c-1.4-0.1-2.6,0.9-2.7,2.3c-0.1,1.4,0.9,2.6,2.3,2.7c2.1,0.2,3.4,0.2,4.4,0.2c2.8,0,4.4-0.5,6.2-2.1
		c2-1.8,4.3-3.1,6.8-4c1.1-0.2,5.6-0.8,11.3-1.6c1.4-0.2,2.3-1.5,2.1-2.8C543.3,925.1,542,924.1,540.6,924.3z"/>
</g>
</svg>
