<?xml version="1.0" encoding="utf-8"?>
<!-- Generator: Adobe Illustrator 24.0.1, SVG Export Plug-In . SVG Version: 6.00 Build 0)  -->
<svg version="1.1" id="Daytona_2008_Oval_-_Pit_Road"
	 xmlns="http://www.w3.org/2000/svg" xmlns:xlink="http://www.w3.org/1999/xlink" x="0px" y="0px" viewBox="0 0 1920 1080"
	 style="enable-background:new 0 0 1920 1080;" xml:space="preserve">
<style type="text/css">
	.st0{fill:#016699;}
	.st1{fill:#D82520;}
</style>
<title>pitroad</title>
<g id="Mergeline">
	<path class="st0" d="M1460.6,778.9c-2,0.8-4.1,1.6-6.3,2.4c-6.6,2.5-14.7,5.7-21.8,8.5c-2.6,1-3.8,3.9-2.8,6.5
		c0.8,2,2.7,3.2,4.7,3.2c0.6,0,1.2-0.1,1.8-0.4c7-2.8,15.1-6,21.7-8.5c2.2-0.8,4.2-1.6,6.2-2.4c2.6-1,3.9-3.9,2.9-6.5
		C1466,779.2,1463.2,778,1460.6,778.9z"/>
	<path class="st0" d="M1516.4,757.7c-9.8,4-18,7.1-27.7,10.7c-2.6,1-3.9,3.8-2.9,6.4c0.7,2,2.7,3.3,4.7,3.3c0.6,0,1.2-0.1,1.7-0.3
		c9.8-3.6,18.1-6.8,28-10.8c2.6-1,3.8-4,2.7-6.5S1518.9,756.7,1516.4,757.7z"/>
	<path class="st0" d="M1575.3,68c-7.9-2.3-16-4.6-24.2-6.7l6.9-26.5l-9.7-2.5l-8.2,31.3c0,0,0,0.1,0,0.1c0,0,0,0.1,0,0.1l-8.2,31.4
		l9.7,2.5l7-26.7c8.1,2.1,16.2,4.3,23.9,6.6c0.5,0.1,0.9,0.2,1.4,0.2c2.2,0,4.2-1.4,4.8-3.6C1579.5,71.6,1578,68.8,1575.3,68z"/>
	<path class="st0" d="M1404.6,800.9c-10.4,4.1-19.5,7.7-27.9,10.9c-2.6,1-3.9,3.9-2.9,6.5c0.8,2,2.7,3.2,4.7,3.2
		c0.6,0,1.2-0.1,1.8-0.3c8.4-3.3,17.6-6.8,28-10.9c2.6-1,3.8-3.9,2.8-6.5C1410.1,801.1,1407.2,799.9,1404.6,800.9z"/>
	<path class="st0" d="M1570.9,733.6c-10.5,4.8-19.4,8.9-27.2,12.4c-2.5,1.1-3.7,4.1-2.5,6.6c0.8,1.9,2.7,3,4.6,3
		c0.7,0,1.4-0.1,2-0.4c7.8-3.5,16.8-7.5,27.3-12.4c2.5-1.2,3.6-4.1,2.5-6.6C1576.4,733.6,1573.5,732.5,1570.9,733.6z"/>
	<path class="st0" d="M1829.1,299.1c0.6,2.2,2.6,3.6,4.8,3.6c0.5,0,1-0.1,1.4-0.2c2.6-0.8,4.2-3.6,3.4-6.2
		c-2.9-9.9-6.3-19.5-10.1-28.7c-1-2.6-4-3.8-6.5-2.8c-2.6,1-3.8,4-2.8,6.5C1823,280.2,1826.3,289.5,1829.1,299.1z"/>
	<path class="st0" d="M1836.4,327.8c1.9,9.3,3.6,19.1,5,29.2c0.3,2.5,2.5,4.3,4.9,4.3c0.2,0,0.5,0,0.7,0c2.7-0.4,4.6-2.9,4.3-5.6
		c-1.4-10.3-3.1-20.4-5.1-29.9c-0.6-2.7-3.2-4.4-5.9-3.9C1837.5,322.4,1835.8,325.1,1836.4,327.8z"/>
	<path class="st0" d="M1348.7,822.5c-10,3.7-19.4,7.2-28.1,10.3c-2.6,0.9-4,3.8-3,6.4c0.7,2,2.7,3.3,4.7,3.3c0.6,0,1.1-0.1,1.7-0.3
		c8.7-3.1,18.2-6.6,28.3-10.4c2.6-1,3.9-3.9,2.9-6.4S1351.3,821.5,1348.7,822.5z"/>
	<path class="st0" d="M1625.1,708.2c-3.7,1.8-7.4,3.6-11.1,5.3c-5.6,2.6-10.9,5.1-15.9,7.4c-2.5,1.2-3.6,4.1-2.4,6.6
		c0.8,1.8,2.7,2.9,4.5,2.9c0.7,0,1.4-0.2,2.1-0.5c5-2.3,10.3-4.8,15.9-7.4c3.8-1.8,7.6-3.6,11.3-5.4c2.5-1.2,3.5-4.2,2.3-6.7
		C1630.6,708,1627.6,707,1625.1,708.2z"/>
	<path class="st0" d="M1234.5,852.4c-13,0.9-23.3,1-27.2,1c0,0,0,0-0.1,0c0,0,0,0,0,0c-2.8,0-5,2.2-5,5c0,2.8,2.2,5,5,5
		c0,0,0,0,0.1,0c4,0,14.6-0.1,27.9-1c2.8-0.2,4.8-2.6,4.6-5.3C1239.6,854.2,1237.3,852.2,1234.5,852.4z"/>
	<path class="st0" d="M1292.3,842.5l-0.3,0.1c-7.9,2.6-17.4,4.8-28.1,6.5c-2.7,0.4-4.6,3-4.2,5.7c0.4,2.5,2.5,4.2,4.9,4.2
		c0.3,0,0.5,0,0.8-0.1c11.3-1.8,21.3-4.1,29.8-6.9l0.2-0.1c2.6-0.9,4.1-3.7,3.2-6.3C1297.8,843.1,1295,841.7,1292.3,842.5z"/>
	<path class="st0" d="M1854.4,385.8c-0.2-2.8-2.5-4.9-5.3-4.7c-2.8,0.2-4.9,2.5-4.7,5.3c0.4,6,0.5,12.1,0.5,18
		c0,3.8-0.1,7.7-0.2,11.5c-0.1,2.8,2,5.1,4.8,5.2c0.1,0,0.1,0,0.2,0c2.7,0,4.9-2.1,5-4.8c0.2-3.9,0.2-7.9,0.2-11.9
		C1854.9,398.3,1854.8,392.1,1854.4,385.8z"/>
	<path class="st0" d="M1760.6,167.3c-2-1.9-5.2-1.8-7.1,0.1c-1.9,2-1.8,5.2,0.1,7.1c7.1,6.8,13.9,14.1,20.2,21.4
		c1,1.2,2.4,1.8,3.8,1.8c1.1,0,2.3-0.4,3.2-1.2c2.1-1.8,2.4-4.9,0.6-7C1775,181.8,1768,174.4,1760.6,167.3z"/>
	<path class="st0" d="M1815.7,239.9c-4.8-9-10.1-17.8-15.8-26.1c-1.6-2.3-4.7-2.9-6.9-1.3c-2.3,1.6-2.9,4.7-1.3,6.9
		c5.5,8.1,10.6,16.5,15.2,25.2c0.9,1.7,2.6,2.7,4.4,2.7c0.8,0,1.6-0.2,2.3-0.6C1816.1,245.3,1817,242.3,1815.7,239.9z"/>
	<path class="st0" d="M1809.2,553.7c-2.4-1.4-5.4-0.7-6.9,1.7c-5,8.3-10.6,16.5-16.5,24.5c-1.6,2.2-1.2,5.3,1,7c0.9,0.7,1.9,1,3,1
		c1.5,0,3-0.7,4-2c6.1-8.2,11.8-16.7,17-25.2C1812.3,558.2,1811.5,555.2,1809.2,553.7z"/>
	<path class="st0" d="M1834.3,499.4c-2.6-0.9-5.5,0.4-6.4,3c-3.3,9.1-7.2,18.3-11.4,27.1c-1.2,2.5-0.2,5.5,2.3,6.7
		c0.7,0.3,1.4,0.5,2.2,0.5c1.9,0,3.6-1,4.5-2.8c4.4-9.2,8.4-18.6,11.8-28.1C1838.2,503.2,1836.9,500.3,1834.3,499.4z"/>
	<path class="st0" d="M1847.8,441c-2.7-0.4-5.3,1.5-5.7,4.3c-1.4,9.7-3.3,19.4-5.6,28.9c-0.7,2.7,1,5.4,3.6,6.1
		c0.4,0.1,0.8,0.1,1.2,0.1c2.2,0,4.3-1.5,4.8-3.8c2.4-9.8,4.4-19.9,5.8-29.9C1852.4,443.9,1850.5,441.4,1847.8,441z"/>
	<path class="st0" d="M1724.7,644.1c-7.4,6.2-15.3,12.4-23.4,18.3c-2.2,1.6-2.7,4.8-1.1,7c1,1.3,2.5,2.1,4,2.1c1,0,2.1-0.3,2.9-1
		c8.2-6,16.3-12.3,23.9-18.7c2.1-1.8,2.4-4.9,0.6-7C1730,642.6,1726.9,642.3,1724.7,644.1z"/>
	<path class="st0" d="M1687.1,113.7c-8.6-4.8-17.7-9.5-26.9-13.9c-2.5-1.2-5.5-0.1-6.7,2.4c-1.2,2.5-0.1,5.5,2.4,6.7
		c9.1,4.3,17.9,8.9,26.4,13.5c0.8,0.4,1.6,0.6,2.4,0.6c1.8,0,3.5-0.9,4.4-2.6C1690.4,118.1,1689.5,115.1,1687.1,113.7z"/>
	<path class="st0" d="M1767.2,602.9c-6.4,7.3-13.3,14.5-20.4,21.4c-2,1.9-2,5.1-0.1,7.1c1,1,2.3,1.5,3.6,1.5c1.3,0,2.5-0.5,3.5-1.4
		c7.3-7.1,14.4-14.5,21-22c1.8-2.1,1.6-5.2-0.4-7.1C1772.2,600.6,1769,600.8,1767.2,602.9z"/>
	<path class="st0" d="M1676.9,679.1c-8.2,5.2-16.8,10.4-25.5,15.3c-2.4,1.4-3.3,4.4-1.9,6.8c0.9,1.6,2.6,2.6,4.4,2.6
		c0.8,0,1.7-0.2,2.4-0.6c8.9-5,17.6-10.2,26-15.6c2.3-1.5,3-4.6,1.5-6.9C1682.3,678.3,1679.2,677.6,1676.9,679.1z"/>
	<path class="st0" d="M1632.4,87.8c-9.1-3.7-18.6-7.2-28.3-10.6c-2.6-0.9-5.5,0.5-6.4,3.1c-0.9,2.6,0.5,5.5,3.1,6.4
		c9.5,3.3,18.9,6.8,27.8,10.4c0.6,0.2,1.2,0.4,1.9,0.4c2,0,3.9-1.2,4.6-3.1C1636.2,91.7,1635,88.8,1632.4,87.8z"/>
	<path class="st0" d="M1737.6,147.3c-7.8-6.2-16-12.1-24.6-17.8c-2.3-1.5-5.4-0.9-6.9,1.4c-1.5,2.3-0.9,5.4,1.4,6.9
		c8.3,5.5,16.4,11.3,23.9,17.3c0.9,0.7,2,1.1,3.1,1.1c1.5,0,2.9-0.6,3.9-1.9C1740.2,152.2,1739.8,149,1737.6,147.3z"/>
</g>
<g id="Pitroad">
	<path class="st1" d="M935.8,854.4l-28.9-0.1c0,0,0,0,0,0c-1.4,0-2.5,1.1-2.5,2.5c0,1.4,1.1,2.5,2.5,2.5l28.9,0.1c0,0,0,0,0,0
		c1.4,0,2.5-1.1,2.5-2.5C938.3,855.5,937.2,854.4,935.8,854.4z"/>
	<path class="st1" d="M877.9,854.1L849,854c-1.4,0-2.5,1.1-2.5,2.5c0,1.4,1.1,2.5,2.5,2.5l28.9,0.1c0,0,0,0,0,0
		c1.4,0,2.5-1.1,2.5-2.5C880.4,855.3,879.3,854.1,877.9,854.1z"/>
	<path class="st1" d="M820.1,853.9l-28.9-0.1c0,0,0,0,0,0c-1.4,0-2.5,1.1-2.5,2.5c0,1.4,1.1,2.5,2.5,2.5l28.9,0.1c0,0,0,0,0,0
		c1.4,0,2.5-1.1,2.5-2.5C822.6,855,821.5,853.9,820.1,853.9z"/>
	<path class="st1" d="M704.4,853.3l-28.9-0.1c0,0,0,0,0,0c-1.4,0-2.5,1.1-2.5,2.5c0,1.4,1.1,2.5,2.5,2.5l28.9,0.1c0,0,0,0,0,0
		c1.4,0,2.5-1.1,2.5-2.5C706.9,854.4,705.7,853.3,704.4,853.3z"/>
	<path class="st1" d="M762.2,853.6l-28.9-0.1c0,0,0,0,0,0c-1.4,0-2.5,1.1-2.5,2.5c0,1.4,1.1,2.5,2.5,2.5l28.9,0.1c0,0,0,0,0,0
		c1.4,0,2.5-1.1,2.5-2.5C764.7,854.7,763.6,853.6,762.2,853.6z"/>
	<path class="st1" d="M1109.4,855.2l-28.9-0.1c0,0,0,0,0,0c-1.4,0-2.5,1.1-2.5,2.5c0,1.4,1.1,2.5,2.5,2.5l28.9,0.1c0,0,0,0,0,0
		c1.4,0,2.5-1.1,2.5-2.5C1111.9,856.4,1110.8,855.2,1109.4,855.2z"/>
	<path class="st1" d="M1167.2,855.5l-28.9-0.1c0,0,0,0,0,0c-1.4,0-2.5,1.1-2.5,2.5c0,1.4,1.1,2.5,2.5,2.5l28.9,0.1c0,0,0,0,0,0
		c1.4,0,2.5-1.1,2.5-2.5C1169.7,856.6,1168.6,855.5,1167.2,855.5z"/>
	<path class="st1" d="M993.7,854.7l-28.9-0.1c0,0,0,0,0,0c-1.4,0-2.5,1.1-2.5,2.5c0,1.4,1.1,2.5,2.5,2.5l28.9,0.1c0,0,0,0,0,0
		c1.4,0,2.5-1.1,2.5-2.5C996.1,855.8,995,854.7,993.7,854.7z"/>
	<path class="st1" d="M1051.5,855l-28.9-0.1c0,0,0,0,0,0c-1.4,0-2.5,1.1-2.5,2.5c0,1.4,1.1,2.5,2.5,2.5l28.9,0.1c0,0,0,0,0,0
		c1.4,0,2.5-1.1,2.5-2.5C1054,856.1,1052.9,855,1051.5,855z"/>
	<path class="st1" d="M646.6,853.1c-8.7-0.2-14.9-0.6-14.9-0.6c-1.4-0.1-2.6,1-2.6,2.4s1,2.6,2.4,2.6c0.1,0,6.3,0.4,15.1,0.6
		c0,0,0,0,0.1,0c1.4,0,2.5-1.1,2.5-2.4C649,854.3,647.9,853.2,646.6,853.1z"/>
	<path class="st1" d="M1241,858.3l-43.8-18.7l6.7,16l-7.8,0c0,0,0,0,0,0c-1.4,0-2.5,1.1-2.5,2.5c0,1.4,1.1,2.5,2.5,2.5l7.8,0
		l-6.9,16L1241,858.3z"/>
</g>
</svg>
