<?xml version="1.0" encoding="utf-8"?>
<!-- Generator: Adobe Illustrator 24.0.1, SVG Export Plug-In . SVG Version: 6.00 Build 0)  -->
<svg version="1.1" id="Bullring_-_Pit_Road" xmlns="http://www.w3.org/2000/svg" xmlns:xlink="http://www.w3.org/1999/xlink"
	 x="0px" y="0px" viewBox="0 0 1920 1080" style="enable-background:new 0 0 1920 1080;" xml:space="preserve">
<style type="text/css">
	.st0{fill:#D82520;}
</style>
<title>pitroad</title>
<g>
	<path class="st0" d="M635.3,329.7l-27.9,11.1c-1.3,0.5-1.9,2-1.4,3.2c0.4,1,1.3,1.6,2.3,1.6c0.3,0,0.6-0.1,0.9-0.2l27.9-11.1
		c1.3-0.5,1.9-2,1.4-3.2C638,329.8,636.6,329.2,635.3,329.7z"/>
	<path class="st0" d="M676,776.5C676,776.5,676,776.5,676,776.5l-0.2,0c-8.6,0-17.3,0.1-26.2,0.1l-3.6,0c0,0,0,0,0,0
		c-1.4,0-2.5,1.1-2.5,2.5c0,1.4,1.1,2.5,2.5,2.5l3.6,0c8.9,0,17.6,0,26.2-0.1l0.2,0c1.4,0,2.5-1.1,2.5-2.5
		C678.5,777.6,677.3,776.5,676,776.5z"/>
	<path class="st0" d="M616,776.3c-10.7-0.2-20.5-0.5-29.9-0.9c-1.4-0.1-2.5,1-2.6,2.4c-0.1,1.4,1,2.5,2.4,2.6
		c9.5,0.4,19.3,0.7,30.1,0.9c0,0,0,0,0,0c1.4,0,2.5-1.1,2.5-2.5C618.5,777.5,617.4,776.3,616,776.3z"/>
	<path class="st0" d="M579.6,352l-27.9,11.1c-1.3,0.5-1.9,2-1.4,3.2c0.4,1,1.3,1.6,2.3,1.6c0.3,0,0.6-0.1,0.9-0.2l27.9-11.1
		c1.3-0.5,1.9-2,1.4-3.3C582.3,352.1,580.9,351.5,579.6,352z"/>
	<path class="st0" d="M556.2,773.4c-10.3-0.9-20.3-2-29.7-3.3c-1.4-0.2-2.6,0.8-2.8,2.1s0.8,2.6,2.1,2.8c9.5,1.3,19.5,2.4,29.9,3.3
		c0.1,0,0.1,0,0.2,0c1.3,0,2.4-1,2.5-2.3C558.6,774.7,557.6,773.5,556.2,773.4z"/>
	<path class="st0" d="M691,307.5l-27.9,11.1c-1.3,0.5-1.9,2-1.4,3.2c0.4,1,1.3,1.6,2.3,1.6c0.3,0,0.6-0.1,0.9-0.2l27.9-11.1
		c1.3-0.5,1.9-2,1.4-3.3C693.7,307.6,692.3,306.9,691,307.5z"/>
	<path class="st0" d="M746.7,285.2l-27.9,11.1c-1.3,0.5-1.9,2-1.4,3.3c0.4,1,1.3,1.6,2.3,1.6c0.3,0,0.6-0.1,0.9-0.2l27.9-11.1
		c1.3-0.5,1.9-2,1.4-3.2C749.5,285.3,748,284.7,746.7,285.2z"/>
	<path class="st0" d="M796.3,776.9c-10.5-0.1-20.5-0.2-30.1-0.2c0,0,0,0,0,0c-1.4,0-2.5,1.1-2.5,2.5c0,1.4,1.1,2.5,2.5,2.5
		c9.6,0.1,19.6,0.1,30.1,0.2c0,0,0,0,0,0c1.4,0,2.5-1.1,2.5-2.5C798.8,778,797.7,776.9,796.3,776.9z"/>
	<path class="st0" d="M736.1,776.5c-11.1-0.1-21.2-0.1-30.1-0.1c0,0,0,0,0,0c-1.4,0-2.5,1.1-2.5,2.5c0,1.4,1.1,2.5,2.5,2.5
		c8.9,0,19,0,30.1,0.1c0,0,0,0,0,0c1.4,0,2.5-1.1,2.5-2.5C738.6,777.6,737.5,776.5,736.1,776.5z"/>
	<path class="st0" d="M440.3,747.7c-9.4-4-18.2-8.5-26.4-13.4c-1.2-0.7-2.7-0.3-3.4,0.9c-0.7,1.2-0.3,2.7,0.9,3.4
		c8.4,5,17.4,9.7,27,13.8c0.3,0.1,0.7,0.2,1,0.2c1,0,1.9-0.6,2.3-1.5C442.2,749.7,441.6,748.2,440.3,747.7z"/>
	<path class="st0" d="M340.4,644.8c-0.5-1.3-1.9-2-3.2-1.5c-1.3,0.5-2,1.9-1.5,3.2c3.6,9.7,7.8,19,12.6,27.6
		c0.5,0.8,1.3,1.3,2.2,1.3c0.4,0,0.8-0.1,1.2-0.3c1.2-0.7,1.6-2.2,1-3.4C348,663.3,343.8,654.3,340.4,644.8z"/>
	<path class="st0" d="M336.5,560c0.2,0.1,0.5,0.1,0.7,0.1c1.1,0,2.1-0.7,2.4-1.8c2.8-9.3,6.3-18.6,10.5-27.7c0.6-1.3,0-2.7-1.2-3.3
		c-1.3-0.6-2.7,0-3.3,1.2c-4.3,9.3-7.9,18.8-10.7,28.4C334.4,558.2,335.2,559.6,336.5,560z"/>
	<path class="st0" d="M381.1,476.9c-1.1-0.9-2.7-0.7-3.5,0.4c-6.4,8-12.3,16.3-17.5,24.7c-0.7,1.2-0.4,2.7,0.8,3.4
		c0.4,0.3,0.9,0.4,1.3,0.4c0.8,0,1.6-0.4,2.1-1.2c5.1-8.2,10.9-16.3,17.2-24.2C382.3,479.3,382.2,477.7,381.1,476.9z"/>
	<path class="st0" d="M497.1,765.1c-10.1-2.1-19.8-4.6-28.9-7.3c-1.3-0.4-2.7,0.3-3.1,1.7c-0.4,1.3,0.3,2.7,1.7,3.1
		c9.2,2.8,19.1,5.3,29.3,7.4c0.2,0,0.3,0.1,0.5,0.1c1.2,0,2.2-0.8,2.4-2C499.3,766.7,498.5,765.3,497.1,765.1z"/>
	<path class="st0" d="M331.2,584.4c-1.4-0.2-2.6,0.8-2.8,2.1c-0.4,2.8-0.7,5.6-1,8.4c-0.3,3.1-0.5,6.3-0.5,9.5
		c0,4.2,0.3,8.5,0.8,12.7c0.2,1.3,1.2,2.2,2.5,2.2c0.1,0,0.2,0,0.3,0c1.4-0.2,2.3-1.4,2.2-2.8c-0.5-4-0.8-8.1-0.8-12.1
		c0-3,0.1-6,0.4-9c0.3-2.7,0.6-5.5,1-8.1C333.5,585.9,332.6,584.6,331.2,584.4z"/>
	<path class="st0" d="M497,390.3c0.3,0,0.6-0.1,0.9-0.2l27.9-11.1c1.3-0.5,1.9-2,1.4-3.2c-0.5-1.3-2-1.9-3.2-1.4L496,385.4
		c-1.3,0.5-1.9,2-1.4,3.3C495,389.7,496,390.3,497,390.3z"/>
	<path class="st0" d="M472,399.3c-0.7-1.2-2.3-1.6-3.4-0.8c-8.3,5-16.8,10.7-25.2,16.8c-1.1,0.8-1.4,2.4-0.6,3.5c0.5,0.7,1.3,1,2,1
		c0.5,0,1-0.2,1.5-0.5c8.3-6,16.6-11.6,24.8-16.5C472.3,402,472.7,400.4,472,399.3z"/>
	<path class="st0" d="M369.3,696c-0.9-1.1-2.5-1.2-3.5-0.3c-1.1,0.9-1.2,2.5-0.3,3.5c6.4,7.8,13.5,15.1,21.3,21.7
		c0.5,0.4,1,0.6,1.6,0.6c0.7,0,1.4-0.3,1.9-0.9c0.9-1.1,0.8-2.6-0.3-3.5C382.4,710.6,375.5,703.5,369.3,696z"/>
	<path class="st0" d="M856.4,777.4c-10.3-0.1-20.3-0.2-30.1-0.3c0,0,0,0,0,0c-1.4,0-2.5,1.1-2.5,2.5c0,1.4,1.1,2.5,2.5,2.5
		c9.8,0.1,19.8,0.2,30.1,0.3c0,0,0,0,0,0c1.4,0,2.5-1.1,2.5-2.5C858.9,778.6,857.8,777.5,856.4,777.4z"/>
	<path class="st0" d="M423.2,434.2c-0.9-1-2.5-1.2-3.5-0.3c-7.7,6.7-15.2,13.6-22.1,20.7c-1,1-0.9,2.6,0,3.5
		c0.5,0.5,1.1,0.7,1.7,0.7c0.6,0,1.3-0.3,1.8-0.8c6.8-7,14.1-13.8,21.7-20.4C424,436.8,424.1,435.2,423.2,434.2z"/>
	<path class="st0" d="M802.4,262.9L774.6,274c-1.3,0.5-1.9,2-1.4,3.2c0.4,1,1.3,1.6,2.3,1.6c0.3,0,0.6-0.1,0.9-0.2l27.9-11.1
		c1.3-0.5,1.9-2,1.4-3.2C805.2,263,803.7,262.4,802.4,262.9z"/>
	<path class="st0" d="M1554.9,699c-6.4,7.1-13.6,13.9-21.5,20.2c-1.1,0.9-1.3,2.4-0.4,3.5c0.5,0.6,1.2,0.9,2,0.9
		c0.5,0,1.1-0.2,1.6-0.5c8.1-6.5,15.6-13.5,22.1-20.8c0.9-1,0.8-2.6-0.2-3.5C1557.4,697.8,1555.8,697.9,1554.9,699z"/>
	<path class="st0" d="M1507.4,438.4c-1-0.9-2.6-0.8-3.5,0.3c-0.9,1-0.8,2.6,0.3,3.5c7.7,6.7,15,13.5,21.8,20.3
		c0.5,0.5,1.1,0.7,1.8,0.7c0.6,0,1.3-0.2,1.8-0.7c1-1,1-2.6,0-3.5C1522.7,452.1,1515.2,445.1,1507.4,438.4z"/>
	<path class="st0" d="M1508.9,735.9c-8.2,4.8-17.1,9.4-26.4,13.6c-1.3,0.6-1.8,2-1.3,3.3c0.4,0.9,1.3,1.5,2.3,1.5
		c0.3,0,0.7-0.1,1-0.2c9.5-4.2,18.6-8.9,26.9-13.8c1.2-0.7,1.6-2.2,0.9-3.4S1510.1,735.2,1508.9,735.9z"/>
	<path class="st0" d="M1454.8,760.4c-9.1,3.1-18.7,5.9-28.6,8.5c-1.3,0.3-2.1,1.7-1.8,3c0.3,1.1,1.3,1.9,2.4,1.9
		c0.2,0,0.4,0,0.6-0.1c10-2.6,19.8-5.4,29-8.6c1.3-0.4,2-1.9,1.6-3.2C1457.5,760.6,1456.1,759.9,1454.8,760.4z"/>
	<path class="st0" d="M1484.5,423c0.8-1.1,0.6-2.7-0.5-3.5c-7.8-5.9-16-11.8-24.5-17.5c-1.1-0.8-2.7-0.5-3.5,0.7
		c-0.8,1.1-0.5,2.7,0.7,3.5c8.4,5.7,16.6,11.5,24.3,17.3c0.5,0.3,1,0.5,1.5,0.5C1483.2,424,1484,423.6,1484.5,423z"/>
	<path class="st0" d="M1598.7,590.5c-0.1-1.4-1.3-2.5-2.6-2.4c-1.4,0.1-2.4,1.2-2.4,2.6c0.1,1.4,0.1,2.7,0.1,4
		c0,2.7-0.1,4.7-0.2,5.8c-0.1,1.4-0.2,2.9-0.3,4.4c-0.3,5.1-0.8,10.3-1.6,15.2c-0.2,1.4,0.7,2.6,2.1,2.8c0.1,0,0.2,0,0.4,0
		c1.2,0,2.3-0.9,2.5-2.1c0.8-5.1,1.3-10.4,1.6-15.6c0.1-1.4,0.2-2.8,0.3-4.2c0.1-1.3,0.3-3.4,0.3-6.3
		C1598.8,593.3,1598.8,591.9,1598.7,590.5z"/>
	<path class="st0" d="M1432.8,390.4c0.8,0,1.7-0.4,2.1-1.2c0.7-1.2,0.3-2.7-0.8-3.4c-8.3-5.1-17.1-10.1-26.1-15
		c-1.2-0.7-2.7-0.2-3.4,1c-0.7,1.2-0.2,2.7,1,3.4c8.9,4.9,17.6,9.9,25.9,14.9C1431.9,390.3,1432.4,390.4,1432.8,390.4z"/>
	<path class="st0" d="M1593.6,560.4c-2.7-9.3-6.3-18.9-10.8-28.4c-0.6-1.2-2.1-1.8-3.3-1.2c-1.2,0.6-1.8,2.1-1.2,3.3
		c4.4,9.2,7.9,18.5,10.5,27.6c0.3,1.1,1.3,1.8,2.4,1.8c0.2,0,0.5,0,0.7-0.1C1593.2,563.1,1593.9,561.7,1593.6,560.4z"/>
	<path class="st0" d="M1549.8,481.3c-0.9-1.1-2.5-1.2-3.5-0.3c-1.1,0.9-1.2,2.5-0.3,3.5c6.5,7.9,12.4,15.9,17.7,23.9
		c0.5,0.7,1.3,1.1,2.1,1.1c0.5,0,0.9-0.1,1.4-0.4c1.2-0.8,1.5-2.3,0.7-3.5C1562.5,497.5,1556.4,489.3,1549.8,481.3z"/>
	<path class="st0" d="M1587.9,647.1c-1.3-0.5-2.7,0.2-3.2,1.5c-3.2,9.3-7.4,18.2-12.4,26.6c-0.7,1.2-0.3,2.7,0.9,3.4
		c0.4,0.2,0.8,0.4,1.3,0.4c0.9,0,1.7-0.4,2.2-1.2c5.2-8.7,9.5-18,12.8-27.5C1589.9,649,1589.2,647.5,1587.9,647.1z"/>
	<path class="st0" d="M1277.4,782.5l-30.1-0.4c0,0,0,0,0,0c-1.4,0-2.5,1.1-2.5,2.5c0,1.4,1.1,2.5,2.5,2.5l30.1,0.4c0,0,0,0,0,0
		c1.4,0,2.5-1.1,2.5-2.5C1279.8,783.7,1278.7,782.5,1277.4,782.5z"/>
	<path class="st0" d="M1096.9,780.2l-30.1-0.4c0,0,0,0,0,0c-1.4,0-2.5,1.1-2.5,2.5c0,1.4,1.1,2.5,2.5,2.5l30.1,0.4c0,0,0,0,0,0
		c1.4,0,2.5-1.1,2.5-2.5C1099.4,781.3,1098.3,780.2,1096.9,780.2z"/>
	<path class="st0" d="M1396.9,775.2c-9.7,1.8-19.6,3.3-29.6,4.5c-1.4,0.2-2.3,1.4-2.2,2.8c0.2,1.3,1.2,2.2,2.5,2.2
		c0.1,0,0.2,0,0.3,0c10.1-1.2,20.1-2.8,29.9-4.6c1.4-0.3,2.3-1.6,2-2.9C1399.6,775.9,1398.3,775,1396.9,775.2z"/>
	<path class="st0" d="M916.5,778.1c-10.1-0.1-20.2-0.2-30.1-0.3c0,0,0,0,0,0c-1.4,0-2.5,1.1-2.5,2.5c0,1.4,1.1,2.5,2.5,2.5
		c9.9,0.1,19.9,0.2,30.1,0.3c0,0,0,0,0,0c1.4,0,2.5-1.1,2.5-2.5C919,779.2,917.9,778.1,916.5,778.1z"/>
	<path class="st0" d="M1157,780.9l-30.1-0.4c0,0,0,0,0,0c-1.4,0-2.5,1.1-2.5,2.5c0,1.4,1.1,2.5,2.5,2.5l30.1,0.4c0,0,0,0,0,0
		c1.4,0,2.5-1.1,2.5-2.5C1159.5,782.1,1158.4,781,1157,780.9z"/>
	<path class="st0" d="M976.6,778.7l-30-0.3c0,0,0,0,0,0c-1.4,0-2.5,1.1-2.5,2.5c0,1.4,1.1,2.5,2.5,2.5l30,0.3c0,0,0,0,0,0
		c1.4,0,2.5-1.1,2.5-2.5C979.1,779.9,978,778.7,976.6,778.7z"/>
	<path class="st0" d="M1036.8,779.4l-30.1-0.4c0,0,0,0,0,0c-1.4,0-2.5,1.1-2.5,2.5c0,1.4,1.1,2.5,2.5,2.5l30.1,0.4c0,0,0,0,0,0
		c1.4,0,2.5-1.1,2.5-2.5C1039.2,780.6,1038.1,779.5,1036.8,779.4z"/>
	<path class="st0" d="M1337.5,782.5c-9.9,0.6-15.9,0.6-15.9,0.6l-14.2-0.2c0,0,0,0,0,0c-1.4,0-2.5,1.1-2.5,2.5
		c0,1.4,1.1,2.5,2.5,2.5l14.2,0.2c0.2,0,6.1,0,16.2-0.6c1.4-0.1,2.4-1.3,2.3-2.6C1340.1,783.5,1338.9,782.4,1337.5,782.5z"/>
	<path class="st0" d="M1217.2,781.7l-30.1-0.4c0,0,0,0,0,0c-1.4,0-2.5,1.1-2.5,2.5c0,1.4,1.1,2.5,2.5,2.5l30.1,0.4c0,0,0,0,0,0
		c1.4,0,2.5-1.1,2.5-2.5C1219.7,782.9,1218.5,781.7,1217.2,781.7z"/>
	<path class="st0" d="M858.1,240.6l-27.9,11.1c-1.3,0.5-1.9,2-1.4,3.3c0.4,1,1.3,1.6,2.3,1.6c0.3,0,0.6-0.1,0.9-0.2l27.9-11.1
		c1.3-0.5,1.9-2,1.4-3.2C860.9,240.7,859.4,240.1,858.1,240.6z"/>
	<polygon class="st0" points="1392.1,365.1 1407.4,352 1359.8,349 1390.8,385.2 	"/>
</g>
</svg>
