<?xml version="1.0" encoding="utf-8"?>
<!-- Generator: Adobe Illustrator 24.0.1, SVG Export Plug-In . SVG Version: 6.00 Build 0)  -->
<svg version="1.1" id="Eldora_Pit_Road" xmlns="http://www.w3.org/2000/svg" xmlns:xlink="http://www.w3.org/1999/xlink" x="0px"
	 y="0px" viewBox="0 0 1920 1080" style="enable-background:new 0 0 1920 1080;" xml:space="preserve">
<style type="text/css">
	.st0{fill:#D82520;}
</style>
<title>pitroad</title>
<g id="Pitroad">
	<path class="st0" d="M686,689.2h-2c-9.9,0-19.2,0-28,0c0,0,0,0,0,0c-1.4,0-2.5,1.1-2.5,2.5c0,1.4,1.1,2.5,2.5,2.5
		c8.8,0,18.2,0,28,0h2c1.4,0,2.5-1.1,2.5-2.5S687.4,689.2,686,689.2z"/>
	<path class="st0" d="M746.2,689.1C746.2,689.1,746.2,689.1,746.2,689.1c-10.3,0-20.4,0-30.1,0c-1.4,0-2.5,1.1-2.5,2.5
		c0,1.4,1.1,2.5,2.5,2.5c0,0,0,0,0,0c9.7,0,19.7,0,30.1,0c1.4,0,2.5-1.1,2.5-2.5S747.6,689.1,746.2,689.1z"/>
	<path class="st0" d="M866.4,688.9C866.4,688.9,866.4,688.9,866.4,688.9l-30.1,0.1c-1.4,0-2.5,1.1-2.5,2.5c0,1.4,1.1,2.5,2.5,2.5
		c0,0,0,0,0,0l30.1-0.1c1.4,0,2.5-1.1,2.5-2.5C868.9,690,867.8,688.9,866.4,688.9z"/>
	<path class="st0" d="M806.3,689C806.3,689,806.3,689,806.3,689l-30.1,0.1c-1.4,0-2.5,1.1-2.5,2.5c0,1.4,1.1,2.5,2.5,2.5
		c0,0,0,0,0,0l30.1-0.1c1.4,0,2.5-1.1,2.5-2.5C808.8,690.2,807.7,689,806.3,689z"/>
	<path class="st0" d="M626,689.1c-12.4,0-22.2-0.1-30-0.1c-1.4,0-2.5,1.1-2.5,2.5s1.1,2.5,2.5,2.5c7.8,0.1,17.6,0.1,30,0.1
		c0,0,0,0,0,0c1.4,0,2.5-1.1,2.5-2.5C628.5,690.2,627.4,689.1,626,689.1z"/>
	<path class="st0" d="M566.4,687.9c-9.2-1.2-18.8-3.7-28.4-7.4c-1.3-0.5-2.7,0.2-3.2,1.4c-0.5,1.3,0.2,2.7,1.4,3.2
		c10,3.8,19.9,6.4,29.5,7.6c0.1,0,0.2,0,0.3,0c1.2,0,2.3-0.9,2.5-2.2C568.7,689.3,567.8,688,566.4,687.9z"/>
	<path class="st0" d="M443.2,610.3c-0.9-1-2.5-1.1-3.5-0.1c-1,0.9-1.1,2.5-0.1,3.5c7,7.6,14.2,14.8,21.3,21.5
		c0.5,0.5,1.1,0.7,1.7,0.7c0.7,0,1.3-0.3,1.8-0.8c0.9-1,0.9-2.6-0.1-3.5C457.2,624.9,450.1,617.8,443.2,610.3z"/>
	<path class="st0" d="M926.5,688.8C926.5,688.8,926.5,688.8,926.5,688.8l-30.1,0.1c-1.4,0-2.5,1.1-2.5,2.5c0,1.4,1.1,2.5,2.5,2.5
		c0,0,0,0,0,0l30-0.1c1.4,0,2.5-1.1,2.5-2.5C929,689.9,927.9,688.8,926.5,688.8z"/>
	<path class="st0" d="M405.9,563.6c-0.8-1.2-2.3-1.5-3.5-0.7c-1.2,0.8-1.5,2.3-0.7,3.5c0.1,0.1,6.7,10.2,18.1,24.3
		c0.5,0.6,1.2,0.9,2,0.9c0.5,0,1.1-0.2,1.6-0.6c1.1-0.9,1.2-2.4,0.4-3.5C412.5,573.6,406,563.7,405.9,563.6z"/>
	<path class="st0" d="M511.4,667.5c-8.1-4.8-16.3-10.4-24.5-16.7c-1.1-0.8-2.7-0.6-3.5,0.5c-0.8,1.1-0.6,2.7,0.5,3.5
		c8.4,6.5,16.8,12.2,25.1,17.1c0.4,0.2,0.8,0.3,1.3,0.3c0.9,0,1.7-0.4,2.2-1.2C513,669.8,512.6,668.3,511.4,667.5z"/>
	<path class="st0" d="M1166.8,688C1166.8,688,1166.8,688,1166.8,688l-30.1,0.1c-1.4,0-2.5,1.1-2.5,2.5c0,1.4,1.1,2.5,2.5,2.5
		c0,0,0,0,0,0l30.1-0.1c1.4,0,2.5-1.1,2.5-2.5C1169.3,689.1,1168.2,688,1166.8,688z"/>
	<path class="st0" d="M1404.9,678c-14.6,6.3-24.9,8.8-26.5,9.2c-0.3,0-0.6,0-1,0c-1.4,0-2.5,1.1-2.5,2.5c0,1,0.5,1.8,1.3,2.2v0.9
		l3-0.7c0.5-0.1,11.2-2.5,27.6-9.5c1.3-0.5,1.9-2,1.3-3.3S1406.2,677.4,1404.9,678z"/>
	<path class="st0" d="M1347.3,687.3C1347.3,687.3,1347.3,687.3,1347.3,687.3l-30.1,0.1c-1.4,0-2.5,1.1-2.5,2.5
		c0,1.4,1.1,2.5,2.5,2.5c0,0,0,0,0,0l30.1-0.1c1.4,0,2.5-1.1,2.5-2.5C1349.8,688.4,1348.7,687.3,1347.3,687.3z"/>
	<path class="st0" d="M1456.1,648c-7.8,6-16.1,11.6-24.6,16.6c-1.2,0.7-1.6,2.2-0.9,3.4c0.5,0.8,1.3,1.2,2.2,1.2
		c0.4,0,0.9-0.1,1.3-0.3c8.7-5.1,17.2-10.8,25.1-16.9c1.1-0.8,1.3-2.4,0.5-3.5C1458.7,647.4,1457.2,647.2,1456.1,648z"/>
	<path class="st0" d="M1501.7,606c-1.1-0.9-2.7-0.7-3.5,0.4c-6.1,7.8-12.7,15.2-19.8,22.1c-1,1-1,2.6,0,3.5c0.5,0.5,1.1,0.7,1.8,0.7
		c0.6,0,1.3-0.2,1.8-0.7c7.2-7.1,14-14.7,20.2-22.6C1503,608.4,1502.8,606.9,1501.7,606z"/>
	<path class="st0" d="M1287.1,687.5C1287.1,687.5,1287.1,687.5,1287.1,687.5l-30.1,0.1c-1.4,0-2.5,1.1-2.5,2.5
		c0,1.4,1.1,2.5,2.5,2.5c0,0,0,0,0,0l30.1-0.1c1.4,0,2.5-1.1,2.5-2.5C1289.6,688.7,1288.5,687.5,1287.1,687.5z"/>
	<path class="st0" d="M1227,687.8C1227,687.8,1227,687.8,1227,687.8l-30.1,0.1c-1.4,0-2.5,1.1-2.5,2.5c0,1.4,1.1,2.5,2.5,2.5
		c0,0,0,0,0,0l30.1-0.1c1.4,0,2.5-1.1,2.5-2.5C1229.5,688.9,1228.3,687.8,1227,687.8z"/>
	<path class="st0" d="M1106.7,688.2C1106.7,688.2,1106.7,688.2,1106.7,688.2l-30.1,0.1c-1.4,0-2.5,1.1-2.5,2.5
		c0,1.4,1.1,2.5,2.5,2.5c0,0,0,0,0,0l30-0.1c1.4,0,2.5-1.1,2.5-2.5C1109.2,689.3,1108.1,688.2,1106.7,688.2z"/>
	<path class="st0" d="M1046.6,688.4C1046.6,688.4,1046.6,688.4,1046.6,688.4l-30.1,0.1c-1.4,0-2.5,1.1-2.5,2.5
		c0,1.4,1.1,2.5,2.5,2.5c0,0,0,0,0,0l30-0.1c1.4,0,2.5-1.1,2.5-2.5C1049.1,689.5,1048,688.4,1046.6,688.4z"/>
	<path class="st0" d="M986.6,688.6C986.6,688.6,986.5,688.6,986.6,688.6l-30.1,0.1c-1.4,0-2.5,1.1-2.5,2.5c0,1.4,1.1,2.5,2.5,2.5
		c0,0,0,0,0,0l30.1-0.1c1.4,0,2.5-1.1,2.5-2.5C989,689.7,987.9,688.6,986.6,688.6z"/>
	<polygon class="st0" points="1489,593.6 1509,596.1 1521,612.3 1527.1,565 	"/>
</g>
</svg>
