<svg id="Oval_-_Pit_Road" data-name="Oval - Pit Road" xmlns="http://www.w3.org/2000/svg" viewBox="0 0 1920 1080"><defs><style>.cls-1{fill:#d82520;}</style></defs><title>pitroad</title><path class="cls-1" d="M637.87,779.49l-30-.94a2.5,2.5,0,0,0-.15,5l30,.93h.08a2.5,2.5,0,0,0,.08-5Z"/><path class="cls-1" d="M258.8,300.89a2.51,2.51,0,0,0-3.46.73c-.06.1-6.47,9.94-15.18,26.23a2.49,2.49,0,0,0,1,3.38,2.5,2.5,0,0,0,3.39-1c8.6-16.08,14.9-25.76,15-25.86A2.49,2.49,0,0,0,258.8,300.89Z"/><path class="cls-1" d="M397.78,772.31c-10.38-.6-20.45-1.3-29.91-2.06a2.5,2.5,0,1,0-.4,5c9.5.76,19.6,1.46,30,2.06h.14a2.5,2.5,0,0,0,.14-5Z"/><path class="cls-1" d="M279.12,757.68c-11.46-2.81-20.85-6-27.9-9.42a2.5,2.5,0,1,0-2.19,4.49c7.37,3.59,17.1,6.89,28.9,9.79a2.46,2.46,0,0,0,.6.07,2.5,2.5,0,0,0,.59-4.93Z"/><path class="cls-1" d="M457.75,774.79c-10.37-.29-20.46-.63-30-1a2.5,2.5,0,0,0-.2,5c9.55.39,19.67.73,30.07,1h.07a2.5,2.5,0,0,0,.06-5Z"/><path class="cls-1" d="M577.9,777.62l-30-.93a2.5,2.5,0,0,0-.15,5l30,.93h.08a2.5,2.5,0,0,0,.08-5Z"/><path class="cls-1" d="M517.85,775.88l-8.24-.11c-6.35-.09-13.7-.19-21.83-.33a2.54,2.54,0,0,0-2.54,2.46,2.49,2.49,0,0,0,2.46,2.54c8.13.14,15.49.24,21.84.33l8.23.11h0a2.5,2.5,0,0,0,0-5Z"/><path class="cls-1" d="M338.06,767.42c-10.63-1.19-20.61-2.52-29.67-4a2.5,2.5,0,1,0-.78,4.93c9.13,1.46,19.18,2.8,29.9,4h.28a2.5,2.5,0,0,0,.27-5Z"/><path class="cls-1" d="M189.92,502.38h.1a2.5,2.5,0,0,0,2.5-2.39,280.06,280.06,0,0,1,2.88-29.59,2.5,2.5,0,0,0-4.94-.74,284.6,284.6,0,0,0-2.94,30.12A2.51,2.51,0,0,0,189.92,502.38Z"/><path class="cls-1" d="M230,353.63a2.5,2.5,0,0,0-3.32,1.21c-4.28,9.2-8.29,18.53-11.93,27.72a2.51,2.51,0,0,0,1.4,3.25,2.67,2.67,0,0,0,.92.17,2.51,2.51,0,0,0,2.33-1.58c3.6-9.1,7.58-18.34,11.81-27.45A2.5,2.5,0,0,0,230,353.63Z"/><path class="cls-1" d="M187.23,562.31h.07a2.5,2.5,0,0,0,2.5-2.43c.23-8.94.64-18.44,1.29-29.9a2.5,2.5,0,0,0-5-.28c-.65,11.51-1.06,21-1.3,30A2.49,2.49,0,0,0,187.23,562.31Z"/><path class="cls-1" d="M198.14,443a2.44,2.44,0,0,0,.59.07,2.51,2.51,0,0,0,2.43-1.91c2.27-9.37,5-19,8.13-28.7a2.5,2.5,0,0,0-4.76-1.54c-3.16,9.79-5.93,19.57-8.23,29.06A2.5,2.5,0,0,0,198.14,443Z"/><path class="cls-1" d="M213.17,705.2a2.5,2.5,0,0,0-4.44,2.3,149,149,0,0,0,16.54,25.61,2.5,2.5,0,1,0,3.87-3.17A143.39,143.39,0,0,1,213.17,705.2Z"/><path class="cls-1" d="M191.47,619.51c-.9-9.8-1.47-19.54-1.74-29.77a2.48,2.48,0,0,0-2.49-2.43h-.07a2.49,2.49,0,0,0-2.43,2.56c.26,10.34.84,20.19,1.75,30.1a2.5,2.5,0,0,0,2.49,2.27h.23A2.49,2.49,0,0,0,191.47,619.51Z"/><path class="cls-1" d="M198.84,669c-1.35-6.74-2.57-13.43-3.61-19.9a2.5,2.5,0,0,0-4.94.79c1.06,6.56,2.29,13.35,3.67,20.17l0,.15c.79,3,1.75,6.11,2.84,9.34a2.49,2.49,0,0,0,2.37,1.71,2.72,2.72,0,0,0,.79-.13,2.49,2.49,0,0,0,1.57-3.17C200.52,674.85,199.6,671.84,198.84,669Z"/><path class="cls-1" d="M697.84,781.35l-30-.93a2.5,2.5,0,0,0-.16,5l30,.93h.08a2.5,2.5,0,0,0,.07-5Z"/><path class="cls-1" d="M1357.52,801.88l-30-.94a2.5,2.5,0,1,0-.16,5l30,.93h.08a2.5,2.5,0,0,0,.07-5Z"/><path class="cls-1" d="M1297.55,800l-30-.93a2.5,2.5,0,1,0-.16,5l30,.93h.07a2.5,2.5,0,0,0,.08-5Z"/><path class="cls-1" d="M1237.58,798.14l-30-.93a2.46,2.46,0,0,0-2.57,2.42,2.5,2.5,0,0,0,2.42,2.58l30,.93h.08a2.5,2.5,0,0,0,.08-5Z"/><path class="cls-1" d="M1177.61,796.28l-30-.94a2.52,2.52,0,0,0-2.57,2.43,2.49,2.49,0,0,0,2.42,2.57l30,.94h.08a2.5,2.5,0,0,0,.08-5Z"/><path class="cls-1" d="M1474.16,831.52c-9.46-3.77-19-7.28-28.27-10.43a2.5,2.5,0,1,0-1.6,4.73c9.21,3.13,18.64,6.61,28,10.34a2.32,2.32,0,0,0,.92.18,2.5,2.5,0,0,0,.93-4.82Z"/><path class="cls-1" d="M1417.07,812.24c-10.21-2.8-20.1-5.13-29.38-6.93a2.5,2.5,0,0,0-1,4.91c9.16,1.78,18.92,4.08,29,6.84a2.56,2.56,0,0,0,.66.09,2.5,2.5,0,0,0,.66-4.91Z"/><path class="cls-1" d="M937.73,788.81l-30-.93a2.5,2.5,0,1,0-.16,5l30,.93h.08a2.5,2.5,0,0,0,.08-5Z"/><path class="cls-1" d="M1117.64,794.41l-30-.93a2.45,2.45,0,0,0-2.57,2.42,2.5,2.5,0,0,0,2.42,2.58l30,.93h.08a2.5,2.5,0,0,0,.08-5Z"/><path class="cls-1" d="M757.81,783.22l-30-.94a2.52,2.52,0,0,0-2.58,2.43,2.49,2.49,0,0,0,2.42,2.57l30,.94h.08a2.5,2.5,0,0,0,.07-5Z"/><path class="cls-1" d="M817.78,785.08l-30-.93a2.5,2.5,0,1,0-.16,5l30,.93h.08a2.5,2.5,0,0,0,.07-5Z"/><path class="cls-1" d="M877.75,787l-30-.93a2.5,2.5,0,1,0-.16,5l30,.94h.08a2.5,2.5,0,0,0,.07-5Z"/><path class="cls-1" d="M997.7,790.68l-30-.93a2.5,2.5,0,1,0-.16,5l30,.93h.08a2.5,2.5,0,0,0,.08-5Z"/><path class="cls-1" d="M1057.67,792.55l-30-.94a2.5,2.5,0,0,0-.15,5l30,.93h.08a2.5,2.5,0,0,0,.08-5Z"/><path class="cls-1" d="M1561.24,877.13l-29.9-37.08-1.61,17.62a2.51,2.51,0,0,0-.9-.84c-4.45-2.38-8.83-4.72-12.88-6.87-4.68-2.27-9.43-4.49-14.09-6.62a2.5,2.5,0,0,0-2.07,4.56c4.63,2.1,9.34,4.31,13.9,6.52,4,2.1,8.34,4.44,12.78,6.82a2.48,2.48,0,0,0,1.17.3h.06l-13.89,11.14Z"/></svg>