<?xml version="1.0" encoding="utf-8"?>
<!-- Generator: Adobe Illustrator 24.0.1, SVG Export Plug-In . SVG Version: 6.00 Build 0)  -->
<svg version="1.1" id="Lakeland_Dirt__Pit_Road" xmlns="http://www.w3.org/2000/svg" xmlns:xlink="http://www.w3.org/1999/xlink"
	 x="0px" y="0px" viewBox="0 0 1920 1080" style="enable-background:new 0 0 1920 1080;" xml:space="preserve">
<style type="text/css">
	.st0{fill:#D82520;}
</style>
<title>pitroad</title>
<g id="Pitroad">
	<path class="st0" d="M742.8,788l-30-0.2c0,0,0,0,0,0c-1.4,0-2.5,1.1-2.5,2.5c0,1.4,1.1,2.5,2.5,2.5l30,0.2c0,0,0,0,0,0
		c1.4,0,2.5-1.1,2.5-2.5C745.3,789.2,744.2,788,742.8,788z"/>
	<path class="st0" d="M622.8,787.2l-30-0.2c0,0,0,0,0,0c-1.4,0-2.5,1.1-2.5,2.5c0,1.4,1.1,2.5,2.5,2.5l30,0.2c0,0,0,0,0,0
		c1.4,0,2.5-1.1,2.5-2.5C625.3,788.3,624.2,787.2,622.8,787.2z"/>
	<path class="st0" d="M682.8,787.6l-30-0.2c0,0,0,0,0,0c-1.4,0-2.5,1.1-2.5,2.5c0,1.4,1.1,2.5,2.5,2.5l30,0.2c0,0,0,0,0,0
		c1.4,0,2.5-1.1,2.5-2.5C685.3,788.7,684.2,787.6,682.8,787.6z"/>
	<path class="st0" d="M802.8,788.4l-30-0.2c0,0,0,0,0,0c-1.4,0-2.5,1.1-2.5,2.5c0,1.4,1.1,2.5,2.5,2.5l30,0.2c0,0,0,0,0,0
		c1.4,0,2.5-1.1,2.5-2.5C805.3,789.6,804.2,788.4,802.8,788.4z"/>
	<path class="st0" d="M922.8,789.2l-30-0.2c0,0,0,0,0,0c-1.4,0-2.5,1.1-2.5,2.5c0,1.4,1.1,2.5,2.5,2.5l30,0.2c0,0,0,0,0,0
		c1.4,0,2.5-1.1,2.5-2.5C925.3,790.4,924.2,789.2,922.8,789.2z"/>
	<path class="st0" d="M862.8,788.8l-30-0.2c0,0,0,0,0,0c-1.4,0-2.5,1.1-2.5,2.5c0,1.4,1.1,2.5,2.5,2.5l30,0.2c0,0,0,0,0,0
		c1.4,0,2.5-1.1,2.5-2.5C865.3,790,864.2,788.8,862.8,788.8z"/>
	<path class="st0" d="M562.8,786.8l-30-0.2c0,0,0,0,0,0c-1.4,0-2.5,1.1-2.5,2.5c0,1.4,1.1,2.5,2.5,2.5l30,0.2c0,0,0,0,0,0
		c1.4,0,2.5-1.1,2.5-2.5C565.3,787.9,564.2,786.8,562.8,786.8z"/>
	<path class="st0" d="M328.2,812c-8.9,3.2-15.7,4.8-19.6,4.8c-1.4,0-2.5,1.1-2.5,2.5s1.1,2.5,2.5,2.5c4.6,0,11.8-1.7,21.3-5.1
		c1.3-0.5,2-1.9,1.5-3.2C330.9,812.2,329.5,811.5,328.2,812z"/>
	<path class="st0" d="M382.5,786.2c-7.9,1.1-11.9,3.2-13.6,4.6l-14.1,8.7c-1.2,0.7-1.5,2.3-0.8,3.4c0.5,0.8,1.3,1.2,2.1,1.2
		c0.5,0,0.9-0.1,1.3-0.4l14.7-9.1l0.1-0.1c0.9-0.6,3.9-2.4,10.9-3.4c1.4-0.2,2.3-1.4,2.1-2.8S383.8,786,382.5,786.2z"/>
	<path class="st0" d="M442.8,786l-30-0.2c0,0,0,0,0,0c-1.4,0-2.5,1.1-2.5,2.5c0,1.4,1.1,2.5,2.5,2.5l30,0.2c0,0,0,0,0,0
		c1.4,0,2.5-1.1,2.5-2.5C445.3,787.1,444.2,786,442.8,786z"/>
	<path class="st0" d="M982.8,789.6l-30-0.2c-1.3,0-2.5,1.1-2.5,2.5s1.1,2.5,2.5,2.5l30,0.2c0,0,0,0,0,0c1.4,0,2.5-1.1,2.5-2.5
		C985.3,790.8,984.2,789.7,982.8,789.6z"/>
	<path class="st0" d="M502.8,786.4l-30-0.2c-1.4,0-2.5,1.1-2.5,2.5c0,1.4,1.1,2.5,2.5,2.5l30,0.2c0,0,0,0,0,0c1.4,0,2.5-1.1,2.5-2.5
		C505.3,787.5,504.2,786.4,502.8,786.4z"/>
	<path class="st0" d="M1042.8,790l-30-0.2c0,0,0,0,0,0c-1.4,0-2.5,1.1-2.5,2.5c0,1.4,1.1,2.5,2.5,2.5l30,0.2c0,0,0,0,0,0
		c1.4,0,2.5-1.1,2.5-2.5C1045.3,791.2,1044.2,790.1,1042.8,790z"/>
	<path class="st0" d="M1642.1,640.5c-1.2-0.7-2.7-0.4-3.5,0.8c-5.3,8.3-10.9,16.6-16.7,24.7c-0.8,1.1-0.6,2.7,0.6,3.5
		c0.4,0.3,1,0.5,1.5,0.5c0.8,0,1.5-0.4,2-1c5.9-8.2,11.6-16.6,16.9-25C1643.6,642.8,1643.2,641.2,1642.1,640.5z"/>
	<path class="st0" d="M1515.6,769.6c-12.6,8.7-21.3,14-21.3,14.1c-1.1,0.7-2.4,1.3-3.6,1.9c-1.2,0.6-1.8,2.1-1.2,3.3
		c0.4,0.9,1.3,1.4,2.3,1.4c0.4,0,0.7-0.1,1.1-0.2c1.4-0.7,2.7-1.4,4-2.1c0.1-0.1,8.9-5.5,21.6-14.2c1.1-0.8,1.4-2.3,0.6-3.5
		C1518.3,769.1,1516.7,768.8,1515.6,769.6z"/>
	<path class="st0" d="M1607.2,689.3c-1.1-0.9-2.6-0.7-3.5,0.4c-6.5,7.9-13,15.5-19.5,22.6c-0.9,1-0.9,2.6,0.1,3.5
		c0.5,0.4,1.1,0.7,1.7,0.7c0.7,0,1.3-0.3,1.8-0.8c6.6-7.1,13.2-14.8,19.8-22.8C1608.5,691.8,1608.3,690.2,1607.2,689.3z"/>
	<path class="st0" d="M1562.9,733.1c-7.1,6.2-14.9,12.6-23.1,18.9c-1.1,0.8-1.3,2.4-0.5,3.5c0.5,0.6,1.2,1,2,1
		c0.5,0,1.1-0.2,1.5-0.5c8.3-6.4,16.2-12.8,23.4-19.1c1-0.9,1.1-2.5,0.2-3.5C1565.5,732.3,1563.9,732.2,1562.9,733.1z"/>
	<path class="st0" d="M1402.8,792.5l-30-0.2c0,0,0,0,0,0c-1.4,0-2.5,1.1-2.5,2.5c0,1.4,1.1,2.5,2.5,2.5l30,0.2c0,0,0,0,0,0
		c1.4,0,2.5-1.1,2.5-2.5C1405.3,793.6,1404.1,792.5,1402.8,792.5z"/>
	<path class="st0" d="M1462.5,792.5c-3.2,0.3-6.4,0.4-9.6,0.4c-2.6,0-4.1-0.1-4.1-0.1l-16.1-0.1c0,0,0,0,0,0c-1.4,0-2.5,1.1-2.5,2.5
		c0,1.4,1.1,2.5,2.5,2.5l15.9,0.1c0.4,0,1.9,0.1,4.4,0.1c3.3,0,6.6-0.1,10-0.4c1.4-0.1,2.4-1.3,2.3-2.7
		C1465.1,793.4,1463.9,792.4,1462.5,792.5z"/>
	<path class="st0" d="M1102.8,790.5l-30-0.2c0,0,0,0,0,0c-1.4,0-2.5,1.1-2.5,2.5c0,1.4,1.1,2.5,2.5,2.5l30,0.2c0,0,0,0,0,0
		c1.4,0,2.5-1.1,2.5-2.5C1105.3,791.6,1104.2,790.5,1102.8,790.5z"/>
	<path class="st0" d="M1162.8,790.9l-30-0.2c0,0,0,0,0,0c-1.4,0-2.5,1.1-2.5,2.5c0,1.4,1.1,2.5,2.5,2.5l30,0.2c0,0,0,0,0,0
		c1.4,0,2.5-1.1,2.5-2.5C1165.3,792,1164.2,790.9,1162.8,790.9z"/>
	<path class="st0" d="M1282.8,791.7l-30-0.2c0,0,0,0,0,0c-1.4,0-2.5,1.1-2.5,2.5c0,1.4,1.1,2.5,2.5,2.5l30,0.2c0,0,0,0,0,0
		c1.4,0,2.5-1.1,2.5-2.5C1285.3,792.8,1284.1,791.7,1282.8,791.7z"/>
	<path class="st0" d="M1222.8,791.3l-30-0.2c0,0,0,0,0,0c-1.4,0-2.5,1.1-2.5,2.5c0,1.4,1.1,2.5,2.5,2.5l30,0.2c0,0,0,0,0,0
		c1.4,0,2.5-1.1,2.5-2.5C1225.3,792.4,1224.2,791.3,1222.8,791.3z"/>
	<path class="st0" d="M1342.8,792.1l-30-0.2c0,0,0,0,0,0c-1.4,0-2.5,1.1-2.5,2.5c0,1.4,1.1,2.5,2.5,2.5l30,0.2c0,0,0,0,0,0
		c1.4,0,2.5-1.1,2.5-2.5C1345.3,793.2,1344.1,792.1,1342.8,792.1z"/>
	<path class="st0" d="M1681,562.4l-34.3,33.1l17.4,0c-3.2,6.7-6.7,13.4-10.3,20c-0.7,1.2-0.2,2.7,1,3.4c0.4,0.2,0.8,0.3,1.2,0.3
		c0.9,0,1.7-0.5,2.2-1.3c3.7-6.8,7.3-13.7,10.6-20.5l12.1,12.6L1681,562.4z"/>
</g>
</svg>
