<svg id="Michigan_2018_-_Pit_Road" data-name="Michigan 2018 - Pit Road" xmlns="http://www.w3.org/2000/svg" viewBox="0 0 1920 1080"><defs><style>.cls-1{fill:#0089ba;}.cls-2{fill:#d82520;}</style></defs><title>pitroad</title><g id="Mergeline"><path class="cls-1" d="M1519.61,130.31c-5.36-1.53-16.25-4.57-29.12-7.86a5,5,0,0,0-2.48,9.69c12.76,3.26,23.56,6.27,28.86,7.78a5,5,0,1,0,2.74-9.61Z"/><path class="cls-1" d="M1461.13,115.48c-9.37-2.08-19.44-4.26-29.56-6.11a5,5,0,0,0-1.8,9.84c10,1.82,19.92,4,29.2,6a5.06,5.06,0,0,0,1.09.12,5,5,0,0,0,1.07-9.88Z"/><path class="cls-1" d="M1498.48,820.79c-9.76,3.22-19.35,6.1-28.49,8.59a5,5,0,0,0,2.62,9.65c9.31-2.53,19.07-5.47,29-8.74a5,5,0,0,0-3.13-9.5Z"/><path class="cls-1" d="M1554.22,799.69c-9.14,3.91-18.44,7.66-27.65,11.15a5,5,0,0,0,1.78,9.68,5.08,5.08,0,0,0,1.77-.33c9.33-3.54,18.76-7.34,28-11.3a5,5,0,1,0-3.93-9.2Z"/><path class="cls-1" d="M1608,774c-8.58,4.58-17.53,9.1-26.6,13.43a5,5,0,0,0,4.31,9c9.21-4.4,18.29-9,27-13.64A5,5,0,1,0,1608,774Z"/><path class="cls-1" d="M1322.12,839,1292,838.7h-.06a5,5,0,0,0,0,10L1322,849h0a5,5,0,0,0,0-10Z"/><path class="cls-1" d="M1807.88,432.24a5,5,0,0,0-4.42,5.52,284.5,284.5,0,0,1,1.64,29.42,5,5,0,0,0,5,5h0a5,5,0,0,0,5-5,293.3,293.3,0,0,0-1.7-30.46A5,5,0,0,0,1807.88,432.24Z"/><path class="cls-1" d="M1791.9,379.82c2.82,9.57,5.22,19.23,7.13,28.71a5,5,0,0,0,4.9,4,5.74,5.74,0,0,0,1-.1,5,5,0,0,0,3.9-5.9c-2-9.75-4.44-19.69-7.34-29.54a5,5,0,0,0-9.59,2.82Z"/><path class="cls-1" d="M1401.45,105.08l-3.24-.28,1.68-27.46-10-.61-4,64.88,10,.61,1.68-27.44,2.92.25a3.59,3.59,0,0,0,.47,0,5,5,0,0,0,.46-10Z"/><path class="cls-1" d="M1441.13,836.14a189,189,0,0,1-29,3.6,5,5,0,0,0,.14,10h.16A199.27,199.27,0,0,0,1443,846a5,5,0,1,0-1.88-9.82Z"/><path class="cls-1" d="M1382.25,839.59l-30.07-.28h0a5,5,0,0,0,0,10l30.07.28h0a5,5,0,0,0,0-10Z"/><path class="cls-1" d="M1580,155.61a5,5,0,0,0-3-6.38c-11.3-4-21.73-7.54-28.49-9.8a5,5,0,1,0-3.17,9.48c6.72,2.25,17.09,5.77,28.32,9.74a4.85,4.85,0,0,0,1.67.29A5,5,0,0,0,1580,155.61Z"/><path class="cls-1" d="M1788.84,354.67a5,5,0,0,0,2.86-6.47c-3.65-9.45-7.74-18.83-12.14-27.88a5,5,0,0,0-9,4.37c4.28,8.8,8.25,17.93,11.81,27.12A5,5,0,0,0,1787,355,5,5,0,0,0,1788.84,354.67Z"/><path class="cls-1" d="M1763.38,300.4a5,5,0,0,0,1.73-6.85c-5.17-8.67-10.77-17.19-16.64-25.32l-.36-.45a5,5,0,0,0-7.62,6.47c5.65,7.85,11,16.06,16,24.42a5,5,0,0,0,6.86,1.73Z"/><path class="cls-1" d="M1779.85,607.69a5,5,0,0,0-6.69,2.28c-4.31,8.74-9.08,17.48-14.17,26a5,5,0,1,0,8.57,5.15c5.24-8.72,10.14-17.7,14.57-26.69A5,5,0,0,0,1779.85,607.69Z"/><path class="cls-1" d="M1809.35,492.15a5,5,0,0,0-5.39,4.58c-.78,9.83-2,19.71-3.53,29.39a5,5,0,0,0,4.14,5.73,4.4,4.4,0,0,0,.8.07,5,5,0,0,0,4.93-4.21c1.6-9.94,2.82-20.09,3.63-30.18A5,5,0,0,0,1809.35,492.15Z"/><path class="cls-1" d="M1635.63,178.17a5,5,0,0,0-2.42-6.65c-4.38-2-9-4.08-13.61-6.06-4.08-1.75-8.9-3.7-14.31-5.8a5,5,0,1,0-3.62,9.32c5.31,2.06,10,4,14,5.67,4.55,1.95,9,3.95,13.32,5.94a4.94,4.94,0,0,0,2.11.47A5,5,0,0,0,1635.63,178.17Z"/><path class="cls-1" d="M1800.54,551.45a5,5,0,0,0-6.11,3.57,159.45,159.45,0,0,1-5.34,17l-.06.17c-1.25,3.58-2.59,7.2-4,10.75a5,5,0,1,0,9.32,3.62c1.41-3.63,2.78-7.32,4.06-11a167.81,167.81,0,0,0,5.66-18A5,5,0,0,0,1800.54,551.45Z"/><path class="cls-1" d="M1749.71,659.52a5,5,0,0,0-7,1.16c-5.72,8-11.83,15.87-18.16,23.38a5,5,0,1,0,7.65,6.45c6.49-7.72,12.77-15.8,18.65-24A5,5,0,0,0,1749.71,659.52Z"/><path class="cls-1" d="M1658.88,743.28c-7.86,5.39-16.28,10.79-25,16a5,5,0,0,0,2.58,9.29,4.93,4.93,0,0,0,2.57-.72c8.9-5.35,17.49-10.86,25.52-16.36a5,5,0,0,0-5.66-8.25Z"/><path class="cls-1" d="M1687.09,208.77a5,5,0,0,0-1.13-7,278.53,278.53,0,0,0-25.72-16.41,5,5,0,1,0-4.94,8.7,269.89,269.89,0,0,1,24.81,15.81,4.94,4.94,0,0,0,2.92,1A5,5,0,0,0,1687.09,208.77Z"/><path class="cls-1" d="M1704.59,705.91a229.14,229.14,0,0,1-18.24,16.76l-.09.08q-1.76,1.46-3.56,2.9a5,5,0,0,0,6.26,7.8q1.83-1.47,3.63-3A240.18,240.18,0,0,0,1711.68,713a5,5,0,0,0-7.09-7.06Z"/><path class="cls-1" d="M1729.05,251.31a5,5,0,0,0,.86-7,217.82,217.82,0,0,0-20.39-22.88,5,5,0,0,0-7,7.19A203.94,203.94,0,0,1,1722,250.44a5,5,0,0,0,7,.87Z"/></g><g id="Pitroad"><path class="cls-2" d="M649.12,837.3l-30-.1h0a2.5,2.5,0,0,0,0,5l30,.1h0a2.5,2.5,0,0,0,0-5Z"/><path class="cls-2" d="M529.22,835.34c-9.83-.73-19.84-1.7-29.76-2.88a2.5,2.5,0,1,0-.59,5c10,1.19,20.08,2.16,30,2.9H529a2.5,2.5,0,0,0,.19-5Z"/><path class="cls-2" d="M589,837.14H576.89c-5.89,0-11.89-.08-17.82-.25a2.5,2.5,0,0,0-.14,5c6,.17,12,.25,18,.25H589a2.5,2.5,0,0,0,0-5Z"/><path class="cls-2" d="M709.21,837.55l-30-.13a2.5,2.5,0,1,0,0,5l30,.13h0a2.5,2.5,0,0,0,0-5Z"/><path class="cls-2" d="M469.85,828.31c-9.75-1.58-19.65-3.39-29.42-5.38a2.5,2.5,0,1,0-1,4.9c9.84,2,19.81,3.83,29.62,5.41a1.81,1.81,0,0,0,.4,0,2.5,2.5,0,0,0,.4-5Z"/><path class="cls-2" d="M297.68,779c-17.27-7.32-27.06-12.41-27.15-12.46a2.5,2.5,0,1,0-2.32,4.44c.1,0,10.05,5.22,27.52,12.62a2.41,2.41,0,0,0,1,.2,2.5,2.5,0,0,0,1-4.8Z"/><path class="cls-2" d="M769.29,837.85l-30-.15h0a2.5,2.5,0,0,0,0,5l30,.15h0a2.5,2.5,0,0,0,0-5Z"/><path class="cls-2" d="M411.24,816.38c-9.62-2.36-19.35-4.94-28.92-7.68a2.5,2.5,0,1,0-1.37,4.8c9.63,2.76,19.42,5.36,29.1,7.74a2.44,2.44,0,0,0,.59.07,2.5,2.5,0,0,0,.6-4.93Z"/><path class="cls-2" d="M353.72,799.91c-9.52-3.13-19-6.46-28.24-9.9a2.5,2.5,0,0,0-1.74,4.69c9.28,3.46,18.84,6.81,28.42,10a2.64,2.64,0,0,0,.78.12,2.5,2.5,0,0,0,.78-4.87Z"/><path class="cls-2" d="M1189.72,840.49l-30-.21h0a2.5,2.5,0,0,0,0,5l30,.21h0a2.5,2.5,0,0,0,0-5Z"/><path class="cls-2" d="M829.35,838.18l-30-.17h0a2.5,2.5,0,0,0,0,5l30,.17h0a2.5,2.5,0,0,0,0-5Z"/><path class="cls-2" d="M1129.65,840.08l-30-.2h0a2.5,2.5,0,0,0,0,5l30,.2h0a2.5,2.5,0,0,0,0-5Z"/><path class="cls-2" d="M1249.78,845.91a2.5,2.5,0,0,0,0-5l-30-.21h0a2.5,2.5,0,0,0,0,5l30,.21Z"/><path class="cls-2" d="M1069.59,839.67l-30-.19h0a2.5,2.5,0,0,0,0,5l30,.19h0a2.5,2.5,0,0,0,0-5Z"/><path class="cls-2" d="M889.42,838.53l-30-.18h0a2.5,2.5,0,0,0,0,5l30,.18h0a2.5,2.5,0,0,0,0-5Z"/><path class="cls-2" d="M949.43,838.9l-30-.18h0a2.5,2.5,0,0,0,0,5l30,.18h0a2.5,2.5,0,0,0,0-5Z"/><path class="cls-2" d="M1009.53,839.28l-30.07-.19h0a2.5,2.5,0,0,0,0,5l30.07.19h0a2.5,2.5,0,0,0,0-5Z"/><polygon class="cls-2" points="1248.15 824.94 1255.91 843.5 1247.94 861.97 1291.94 843.7 1248.15 824.94"/></g></svg>