<svg id="Oval_-_Pit_Road" data-name="Oval - Pit Road" xmlns="http://www.w3.org/2000/svg" viewBox="0 0 1920 1080"><defs><style>.cls-1{fill:#0089ba;}.cls-2{fill:#d82520;}</style></defs><title>pitroad</title><g id="Mergeline"><path class="cls-1" d="M1378.47,955l-30-1.4a5,5,0,1,0-.48,10c10.13.49,20.19,1,30,1.41h.23a5,5,0,0,0,.22-10Z"/><path class="cls-1" d="M1198.45,945.64c-18.65-1.06-30.1-1.73-30.1-1.73a5,5,0,1,0-.59,10s11.46.67,30.13,1.73h.29a5,5,0,0,0,.27-10Z"/><path class="cls-1" d="M1438.48,957.41c-9.06-.31-19.16-.69-30-1.13a5,5,0,0,0-.41,10c10.87.44,21,.83,30.07,1.14h.17a5,5,0,0,0,.17-10Z"/><path class="cls-1" d="M1258.48,949c-10.6-.57-20.69-1.12-30-1.64a5,5,0,0,0-.56,10c9.33.52,19.41,1.07,30,1.64h.27a5,5,0,0,0,.26-10Z"/><path class="cls-1" d="M1318.47,952.1c-10.13-.52-20.17-1-30-1.55a5,5,0,1,0-.53,10c9.82.51,19.87,1,30,1.54h.25a5,5,0,0,0,.25-10Z"/><path class="cls-1" d="M1498.48,958.92l-6.76-.17c-6.18-.16-12.56-.33-18.91-.42l-4.35-.08a5,5,0,0,0-.19,10l4.38.07c6.31.1,12.66.26,18.81.42l6.78.17h.12a5,5,0,0,0,.12-10Z"/><path class="cls-1" d="M1616.69,949.92c-9.91,2-19.75,3.71-29.25,5.05a5,5,0,0,0,.69,9.95,5.49,5.49,0,0,0,.7,0c9.7-1.36,19.75-3.1,29.86-5.16a5,5,0,1,0-2-9.79Z"/><path class="cls-1" d="M1558,958.1c-9.53.68-19.23,1.06-29.65,1.15a5,5,0,0,0,0,10h.05c10.63-.1,20.54-.48,30.27-1.18a5,5,0,1,0-.71-10Z"/><path class="cls-1" d="M1662.23,977.64l-16.13-63-9.69,2.49,7,27.35a5,5,0,0,0,2.14,8.36l7,27.25Z"/></g><g id="Pitroad"><path class="cls-2" d="M503,952.88c-11.75,1.55-21.48,2.8-29.77,3.83a2.5,2.5,0,0,0,.31,5l.31,0c8.29-1,18-2.28,29.81-3.83a2.5,2.5,0,0,0-.66-5Z"/><path class="cls-2" d="M562.57,945c-8.31,1.07-18.74,2.47-29.79,3.95a2.5,2.5,0,0,0,.33,5l.33,0c11-1.48,21.48-2.88,29.77-4a2.5,2.5,0,0,0-.64-5Z"/><path class="cls-2" d="M623.16,943.14,593,942.92a2.55,2.55,0,0,0-2.52,2.49,2.49,2.49,0,0,0,2.49,2.51l30.16.22h0a2.5,2.5,0,0,0,0-5Z"/><path class="cls-2" d="M383.82,962.89h-.31c-10,0-19.92-.25-29.56-.73a2.5,2.5,0,1,0-.25,5c9.73.49,19.76.74,29.81.74h.31a2.5,2.5,0,1,0,0-5Z"/><path class="cls-2" d="M324.19,959.83c-18.71-2-29.3-4.36-29.41-4.38a2.5,2.5,0,1,0-1.08,4.88,298.47,298.47,0,0,0,29.95,4.47l.27,0a2.5,2.5,0,0,0,.27-5Z"/><path class="cls-2" d="M443.5,960.06c-9.92.93-19.95,1.63-29.81,2.1a2.5,2.5,0,0,0,.11,5h.13c9.93-.48,20-1.19,30-2.12a2.5,2.5,0,0,0-.46-5Z"/><path class="cls-2" d="M683.39,943.58l-30.11-.22a2.5,2.5,0,0,0,0,5l30.12.22h0a2.5,2.5,0,0,0,0-5Z"/><path class="cls-2" d="M1044.55,946.27l-30.12-.22h0a2.5,2.5,0,0,0,0,5l30.12.22h0a2.5,2.5,0,0,0,0-5Z"/><path class="cls-2" d="M743.59,944l-30.09-.22a2.48,2.48,0,0,0-2.52,2.48,2.5,2.5,0,0,0,2.48,2.52l30.09.22h0a2.5,2.5,0,0,0,0-5Z"/><path class="cls-2" d="M1104.85,946.72l-30.18-.22h0a2.5,2.5,0,0,0,0,5l30.17.22h0a2.5,2.5,0,0,0,0-5Z"/><path class="cls-2" d="M924.14,945.37l-30.08-.22h0a2.5,2.5,0,0,0,0,5l30.09.22h0a2.5,2.5,0,0,0,0-5Z"/><path class="cls-2" d="M984.33,945.82l-30.1-.22a2.5,2.5,0,0,0,0,5l30.09.22h0a2.5,2.5,0,0,0,0-5Z"/><path class="cls-2" d="M864,944.92l-30.12-.22h0a2.5,2.5,0,0,0,0,5l30.13.22h0a2.5,2.5,0,0,0,0-5Z"/><path class="cls-2" d="M803.77,944.48l-30.09-.23h0a2.5,2.5,0,0,0,0,5l30.09.23h0a2.5,2.5,0,0,0,0-5Z"/><polygon class="cls-2" points="1168.06 948.9 1124.03 930.7 1132.03 949.16 1124.3 967.73 1168.06 948.9"/></g></svg>