<svg id="Oval_-_Pit_Road" data-name="Oval - Pit Road" xmlns="http://www.w3.org/2000/svg" viewBox="0 0 1920 1080"><defs><style>.cls-1{fill:#d82520;}</style></defs><title>pitroad</title><path class="cls-1" d="M675,806.82l-30-.62a2.5,2.5,0,1,0-.1,5l30,.62h.06a2.5,2.5,0,0,0,.05-5Z"/><path class="cls-1" d="M914.91,811.79l-30-.62h0a2.5,2.5,0,0,0,0,5l30,.62h.05a2.5,2.5,0,0,0,0-5Z"/><path class="cls-1" d="M794.94,809.3l-30-.62h-.06a2.5,2.5,0,0,0,0,5l30,.62h0a2.5,2.5,0,0,0,.05-5Z"/><path class="cls-1" d="M615,805.58,585,805a2.54,2.54,0,0,0-2.56,2.45,2.51,2.51,0,0,0,2.45,2.55l30,.62h0a2.5,2.5,0,0,0,.05-5Z"/><path class="cls-1" d="M854.93,810.55l-30-.63h0a2.5,2.5,0,0,0,0,5l30,.62h.06a2.5,2.5,0,0,0,0-5Z"/><path class="cls-1" d="M735,808.06l-30-.62a2.47,2.47,0,0,0-2.55,2.45,2.5,2.5,0,0,0,2.45,2.55l30,.62h0a2.5,2.5,0,0,0,.05-5Z"/><path class="cls-1" d="M391,743.11c-8-5.47-16.2-11.32-24.43-17.37a2.5,2.5,0,0,0-3,4c8.27,6.08,16.54,12,24.57,17.46a2.45,2.45,0,0,0,1.41.44,2.5,2.5,0,0,0,1.41-4.56Z"/><path class="cls-1" d="M342.72,707.61c-14.28-11.18-23.25-18.84-23.34-18.92a2.5,2.5,0,0,0-3.25,3.8c.09.08,9.14,7.8,23.51,19a2.47,2.47,0,0,0,1.54.54,2.5,2.5,0,0,0,1.54-4.47Z"/><path class="cls-1" d="M555,804.33l-29.72-.61H525a2.5,2.5,0,0,0,0,5l29.94.61h.05a2.5,2.5,0,0,0,0-5Z"/><path class="cls-1" d="M441.82,774.77c-8.21-4.54-16.87-9.66-25.74-15.22a2.5,2.5,0,1,0-2.66,4.24c8.95,5.6,17.69,10.77,26,15.36a2.5,2.5,0,1,0,2.42-4.38Z"/><path class="cls-1" d="M496.18,798.82a221.27,221.27,0,0,1-27.73-10.58,2.5,2.5,0,1,0-2.06,4.55,223.94,223.94,0,0,0,28.36,10.82,2.56,2.56,0,0,0,.71.11,2.5,2.5,0,0,0,.72-4.9Z"/><path class="cls-1" d="M1214.71,817.89l-1.51.08-28.34-.59a2.5,2.5,0,1,0-.11,5l28.43.59h.16l1.62-.08a2.5,2.5,0,0,0-.25-5Z"/><path class="cls-1" d="M1333.81,803.78c-9.63,1.72-19.58,3.35-29.58,4.83a2.5,2.5,0,0,0,.36,5l.37,0c10-1.49,20.06-3.13,29.73-4.86a2.5,2.5,0,1,0-.88-4.92Z"/><path class="cls-1" d="M1449.44,773.4c-8.94,3.35-18.46,6.58-28.3,9.61a2.5,2.5,0,0,0,.74,4.89,2.31,2.31,0,0,0,.73-.11c9.93-3.06,19.55-6.33,28.58-9.7a2.5,2.5,0,1,0-1.75-4.69Z"/><path class="cls-1" d="M1392.34,791.13c-9.36,2.41-19.16,4.71-29.14,6.86a2.5,2.5,0,0,0,.52,4.94,2.32,2.32,0,0,0,.53,0c10-2.16,19.91-4.49,29.34-6.91a2.5,2.5,0,0,0-1.25-4.84Z"/><path class="cls-1" d="M1503.38,748.21c-8.08,4.76-17,9.39-26.39,13.75a2.5,2.5,0,0,0,1,4.77,2.62,2.62,0,0,0,1-.23c9.58-4.43,18.61-9.14,26.83-14a2.5,2.5,0,1,0-2.54-4.3Z"/><path class="cls-1" d="M974.9,813l-30-.62a2.5,2.5,0,0,0-.11,5l30,.62h.05a2.5,2.5,0,0,0,0-5Z"/><path class="cls-1" d="M1034.89,814.27l-30-.62a2.5,2.5,0,1,0-.11,5l30,.62h0a2.5,2.5,0,0,0,.05-5Z"/><path class="cls-1" d="M1274.51,812.58c-10,1.19-20,2.24-29.84,3.12a2.5,2.5,0,0,0,.22,5h.23c9.85-.89,19.94-1.94,30-3.14a2.5,2.5,0,1,0-.59-5Z"/><path class="cls-1" d="M1094.88,815.52l-30-.62h-.05a2.5,2.5,0,0,0,0,5l30,.62h.06a2.5,2.5,0,0,0,.05-5Z"/><path class="cls-1" d="M1154.86,816.76l-30-.62h0a2.5,2.5,0,0,0,0,5l30,.62h0a2.5,2.5,0,0,0,0-5Z"/><path class="cls-1" d="M1563.13,695.55l-41.73,23,16.35,4.46c-3.11,2.9-6.4,5.76-9.88,8.53a2.5,2.5,0,1,0,3.11,3.91c3.88-3.08,7.54-6.27,11-9.52l8.51,15.57Z"/></svg>