<svg id="Myrtle_Beach_-_Pit_Road" data-name="Myrtle Beach - Pit Road" xmlns="http://www.w3.org/2000/svg" viewBox="0 0 1920 1080"><defs><style>.cls-1{fill:#0089ba;}.cls-2{fill:#d82520;}</style></defs><title>pitroad</title><g id="Mergeline"><path class="cls-1" d="M1333.55,112.84c-9.58-2.77-19.4-5.39-29.2-7.78a5,5,0,0,0-2.37,9.72c9.66,2.36,19.35,4.94,28.79,7.66a4.82,4.82,0,0,0,1.39.2,5,5,0,0,0,1.39-9.8Z"/><path class="cls-1" d="M1390.83,132.18c-9.19-3.59-18.76-7.06-28.43-10.32a5,5,0,1,0-3.2,9.47c9.53,3.21,19,6.63,28,10.17a5,5,0,0,0,3.64-9.32Z"/><path class="cls-1" d="M1446,157.65c-1.71-1-11-6.31-27.28-13.7a5,5,0,1,0-4.15,9.1c15.82,7.2,24.77,12.3,26.41,13.25a5,5,0,0,0,5-8.65Z"/><path class="cls-1" d="M1494.72,198.2a5,5,0,0,0,3-9c-8.25-6-16.74-11.74-25.24-17a5,5,0,0,0-5.24,8.52c8.27,5.09,16.54,10.65,24.57,16.52A5,5,0,0,0,1494.72,198.2Z"/><path class="cls-1" d="M1603,333.08a5,5,0,0,0,4.53,2.87,4.86,4.86,0,0,0,2.12-.48,5,5,0,0,0,2.4-6.65c-4.28-9.09-9-18.16-14-27a5,5,0,1,0-8.69,4.95C1594.22,315.38,1598.81,324.22,1603,333.08Z"/><path class="cls-1" d="M1630.93,417.15c2,9.63,3.57,19.46,4.77,29.22a5,5,0,0,0,5,4.39,4.17,4.17,0,0,0,.61,0,5,5,0,0,0,4.36-5.57c-1.23-10-2.88-20.11-4.9-30a5,5,0,0,0-9.8,2Z"/><path class="cls-1" d="M1274.87,98.5c-9.8-2-19.8-3.78-29.72-5.37a5,5,0,1,0-1.59,9.87c9.8,1.57,19.66,3.35,29.33,5.3a4.82,4.82,0,0,0,1,.1,5,5,0,0,0,1-9.9Z"/><path class="cls-1" d="M1215.24,88.93c-9.92-1.2-20-2.21-30-3a5.2,5.2,0,0,0-1.63.16L1186,58.5l-10-.85-5.59,64.75,10,.86,2.4-27.83a4.92,4.92,0,0,0,1.63.44c9.88.8,19.86,1.81,29.66,3,.2,0,.4,0,.6,0a5,5,0,0,0,.59-10Z"/><path class="cls-1" d="M1544.44,684.35c-7,6.78-14.51,13.4-22.15,19.69a5,5,0,0,0,3.18,8.86,4.94,4.94,0,0,0,3.17-1.14c7.84-6.45,15.49-13.24,22.73-20.2a5,5,0,1,0-6.93-7.21Z"/><path class="cls-1" d="M1498.68,722a265.92,265.92,0,0,1-24.92,15.75,5,5,0,0,0,2.34,9.42,5.06,5.06,0,0,0,2.34-.58,271.06,271.06,0,0,0,26-16.4,5,5,0,1,0-5.74-8.19Z"/><path class="cls-1" d="M1620.72,587.2a5,5,0,0,0-6.66,2.38,294,294,0,0,1-14,25.95,5,5,0,0,0,8.56,5.18,303.51,303.51,0,0,0,14.46-26.85A5,5,0,0,0,1620.72,587.2Z"/><path class="cls-1" d="M1628.66,392a5.13,5.13,0,0,0,1.39-.2,5,5,0,0,0,3.42-6.19c-2.8-9.69-6-19.39-9.6-28.84a5,5,0,1,0-9.35,3.53c3.47,9.2,6.61,18.65,9.34,28.08A5,5,0,0,0,1628.66,392Z"/><path class="cls-1" d="M1648.13,475.45a5,5,0,0,0-10,.43c.23,5.49.35,10.91.35,16.55,0,5.24-.11,9.75-.2,13.1a5,5,0,0,0,4.87,5.14h.13a5,5,0,0,0,5-4.87c.09-3.41.2-8,.2-13.37C1648.49,486.64,1648.37,481.09,1648.13,475.45Z"/><path class="cls-1" d="M1639.42,530.33a5,5,0,0,0-6,3.75,266.7,266.7,0,0,1-8.16,28.26,5,5,0,0,0,3.07,6.37,4.74,4.74,0,0,0,1.65.29,5,5,0,0,0,4.72-3.36,275.89,275.89,0,0,0,8.47-29.32A5,5,0,0,0,1639.42,530.33Z"/><path class="cls-1" d="M1540.17,237.31a5,5,0,0,0,3.56-8.52c-7-7.12-14.52-14.1-22.24-20.74a5,5,0,0,0-6.52,7.59c7.52,6.46,14.8,13.25,21.64,20.18A5,5,0,0,0,1540.17,237.31Z"/><path class="cls-1" d="M1590.6,639a5,5,0,0,0-7,1c-5.77,7.79-12,15.51-18.64,23a5,5,0,0,0,7.49,6.63c6.78-7.66,13.24-15.61,19.19-23.63A5,5,0,0,0,1590.6,639Z"/><path class="cls-1" d="M1577.87,283.86a5,5,0,0,0,4.14-7.8c-5.59-8.29-11.61-16.54-17.88-24.52a5,5,0,1,0-7.86,6.17c6.12,7.8,12,15.85,17.45,23.94A5,5,0,0,0,1577.87,283.86Z"/></g><g id="Pitroad"><path class="cls-2" d="M472.88,761.32c-9-4.25-17.94-8.85-26.46-13.66A2.5,2.5,0,0,0,444,752c8.62,4.87,17.64,9.53,26.79,13.84a2.55,2.55,0,0,0,1.06.24,2.5,2.5,0,0,0,1.07-4.77Z"/><path class="cls-2" d="M471.46,184.24c-10.26,3-17.84,5.52-22.54,7.62-2,.91-4.06,1.85-6.08,2.81a2.5,2.5,0,0,0,1.07,4.76,2.56,2.56,0,0,0,1.07-.24c2-.95,4-1.87,6-2.76,4.49-2,11.85-4.49,21.88-7.39a2.5,2.5,0,0,0-1.38-4.8Z"/><path class="cls-2" d="M529,781.08c-8.44-2.41-17.75-5.33-28.48-8.93a2.5,2.5,0,1,0-1.6,4.74c10.81,3.62,20.2,6.57,28.71,9a2.73,2.73,0,0,0,.68.1,2.5,2.5,0,0,0,.69-4.91Z"/><path class="cls-2" d="M647.68,144.25c-9.94,2-19.79,4.05-29.47,6.07a2.5,2.5,0,0,0,.51,4.94,2.21,2.21,0,0,0,.51,0c9.67-2,19.51-4,29.45-6.06a2.5,2.5,0,0,0-1-4.9Z"/><path class="cls-2" d="M421.1,732c-8.24-5.56-16.31-11.5-24-17.65a2.5,2.5,0,0,0-3.13,3.9c7.76,6.23,15.94,12.25,24.3,17.9a2.54,2.54,0,0,0,1.39.42,2.5,2.5,0,0,0,1.4-4.57Z"/><path class="cls-2" d="M530,169.51c-10.73,2.48-20.59,4.84-29.31,7a2.5,2.5,0,0,0,.6,4.93,2.46,2.46,0,0,0,.6-.07c8.7-2.16,18.53-4.51,29.24-7a2.5,2.5,0,0,0-1.13-4.88Z"/><path class="cls-2" d="M646.88,795.44c-11.28-.11-21-.34-29.88-.72a2.53,2.53,0,0,0-2.61,2.39,2.5,2.5,0,0,0,2.39,2.61c8.89.38,18.72.61,30.05.72h0a2.5,2.5,0,0,0,0-5Z"/><path class="cls-2" d="M588.76,156.52c-10.28,2.19-20.18,4.34-29.42,6.37a2.51,2.51,0,0,0,.54,5,2.48,2.48,0,0,0,.54-.06c9.22-2,19.11-4.18,29.39-6.37a2.5,2.5,0,1,0-1-4.89Z"/><path class="cls-2" d="M587.27,792.6c-10.21-1.09-19.82-2.54-29.39-4.45a2.5,2.5,0,0,0-1,4.91c9.72,1.93,19.48,3.41,29.84,4.51H587a2.5,2.5,0,0,0,.26-5Z"/><path class="cls-2" d="M418.71,213.22a2.5,2.5,0,0,0-2.55-4.3c-8.64,5.15-17.14,10.74-25.26,16.63a2.5,2.5,0,1,0,2.94,4C401.83,223.8,410.2,218.29,418.71,213.22Z"/><path class="cls-2" d="M274.91,515.1a2.5,2.5,0,0,0-4.88,1.08c2.16,9.76,4.75,19.6,7.71,29.22a2.5,2.5,0,0,0,2.39,1.77,2.71,2.71,0,0,0,.74-.11,2.5,2.5,0,0,0,1.65-3.13C279.6,534.43,277,524.73,274.91,515.1Z"/><path class="cls-2" d="M354.16,673.28a2.5,2.5,0,1,0-3.75,3.3c6.6,7.52,13.64,14.85,20.9,21.79a2.45,2.45,0,0,0,1.72.7,2.5,2.5,0,0,0,1.73-4.31C367.6,687.92,360.67,680.69,354.16,673.28Z"/><path class="cls-2" d="M268.77,428.83a2.18,2.18,0,0,0,.44,0,2.5,2.5,0,0,0,2.46-2.07c1.72-9.85,3.88-19.62,6.4-29.05a2.5,2.5,0,1,0-4.83-1.29c-2.56,9.57-4.75,19.49-6.5,29.48A2.49,2.49,0,0,0,268.77,428.83Z"/><path class="cls-2" d="M297.6,338.72a2.51,2.51,0,0,0-3.34,1.16c-4.37,9-8.36,18.32-11.87,27.79a2.5,2.5,0,0,0,1.48,3.21,2.39,2.39,0,0,0,.87.16,2.51,2.51,0,0,0,2.34-1.63c3.45-9.32,7.38-18.52,11.68-27.35A2.51,2.51,0,0,0,297.6,338.72Z"/><path class="cls-2" d="M267.61,458.85c0-.55,0-1,0-1.45l.1-1.09a2.5,2.5,0,1,0-5-.46l-.11,1.18v.15c0,.47,0,1,0,1.67a223.06,223.06,0,0,0,2.15,27.53,2.51,2.51,0,0,0,2.48,2.18l.33,0a2.51,2.51,0,0,0,2.15-2.81A218.33,218.33,0,0,1,267.61,458.85Z"/><path class="cls-2" d="M319,625.33a2.5,2.5,0,0,0-4.28,2.6c5.24,8.6,10.89,17.05,16.8,25.11a2.5,2.5,0,0,0,4-3C329.69,642.14,324.12,633.81,319,625.33Z"/><path class="cls-2" d="M370.59,248.18a2.5,2.5,0,1,0-3.3-3.75c-7.59,6.67-14.89,13.74-21.73,21a2.5,2.5,0,0,0,3.65,3.42C355.93,261.71,363.13,254.75,370.59,248.18Z"/><path class="cls-2" d="M329.5,288a2.5,2.5,0,0,0-3.5.46c-6.12,8-11.9,16.36-17.17,24.89a2.5,2.5,0,0,0,.82,3.44,2.4,2.4,0,0,0,1.31.38,2.51,2.51,0,0,0,2.13-1.19c5.18-8.39,10.86-16.62,16.87-24.47A2.49,2.49,0,0,0,329.5,288Z"/><path class="cls-2" d="M292.43,572.05a2.5,2.5,0,1,0-4.65,1.85c3.73,9.36,7.88,18.64,12.33,27.58a2.5,2.5,0,0,0,4.48-2.23C300.2,590.43,296.11,581.28,292.43,572.05Z"/><path class="cls-2" d="M1067.43,789.68l-30.09.48a2.5,2.5,0,0,0,0,5h0l30.09-.48a2.5,2.5,0,0,0-.08-5Z"/><path class="cls-2" d="M1127.56,788.71h0l-30,.48a2.5,2.5,0,0,0,0,5h0l30-.48a2.5,2.5,0,0,0,0-5Z"/><path class="cls-2" d="M1187.65,787.73h0l-30,.49a2.5,2.5,0,0,0,0,5h0l30-.49a2.5,2.5,0,0,0,0-5Z"/><path class="cls-2" d="M1007.34,790.64h0l-30,.48a2.5,2.5,0,0,0,0,5h0l30-.48a2.5,2.5,0,0,0,0-5Z"/><path class="cls-2" d="M706.81,795.2c-12,.14-21.58.23-30,.28a2.5,2.5,0,0,0,0,5h0c8.42-.05,18-.14,30-.28a2.51,2.51,0,0,0,2.47-2.53A2.54,2.54,0,0,0,706.81,795.2Z"/><path class="cls-2" d="M1247.75,786.75h0l-30,.49a2.5,2.5,0,0,0,0,5h0l30-.49a2.5,2.5,0,0,0,0-5Z"/><path class="cls-2" d="M1424.41,766.83a228.9,228.9,0,0,1-28,9.89,2.5,2.5,0,0,0,.67,4.9,2.65,2.65,0,0,0,.68-.09,233.42,233.42,0,0,0,28.57-10.11,2.5,2.5,0,1,0-2-4.59Z"/><path class="cls-2" d="M1307.87,785.76h0l-30.06.49a2.5,2.5,0,0,0,0,5h0l30.06-.49a2.5,2.5,0,0,0,0-5Z"/><path class="cls-2" d="M1367.45,782.89a231.78,231.78,0,0,1-29.39,2.37h-.19a2.46,2.46,0,0,0-2.38,2.55,2.56,2.56,0,0,0,2.57,2.44h0a236.37,236.37,0,0,0,30.07-2.42,2.5,2.5,0,1,0-.72-5Z"/><path class="cls-2" d="M947.26,791.6h0l-30.05.48a2.5,2.5,0,0,0,0,5h0l30-.48a2.5,2.5,0,0,0,0-5Z"/><path class="cls-2" d="M736.69,131.56a2.59,2.59,0,0,0,.48,0c10-1.94,19.82-3.86,29.52-5.73a2.5,2.5,0,0,0-.94-4.91c-9.71,1.87-19.58,3.79-29.54,5.73a2.5,2.5,0,0,0,.48,5Z"/><path class="cls-2" d="M767,794.38h0l-30.06.43a2.5,2.5,0,0,0,0,5h0l30.06-.43a2.5,2.5,0,0,0,0-5Z"/><path class="cls-2" d="M706.7,132.41q-14.76,2.91-29.53,5.88a2.5,2.5,0,0,0,.49,5,2.72,2.72,0,0,0,.49-.05q14.75-3,29.52-5.88a2.5,2.5,0,0,0-1-4.9Z"/><path class="cls-2" d="M796.23,120.12c10.15-1.94,20-3.82,29.55-5.62a2.5,2.5,0,0,0-.93-4.92l-29.56,5.62a2.5,2.5,0,0,0,.94,4.92Z"/><path class="cls-2" d="M827.06,793.48h0l-30,.45a2.5,2.5,0,0,0,0,5h0l30.06-.45a2.5,2.5,0,0,0,0-5Z"/><path class="cls-2" d="M887.13,792.55l-30,.46a2.5,2.5,0,0,0,0,5h0l30.05-.46a2.5,2.5,0,0,0-.07-5Z"/><path class="cls-2" d="M855.35,108.93c10.59-2,20.5-3.84,29.59-5.53a2.5,2.5,0,1,0-.92-4.91L854.43,104a2.5,2.5,0,0,0,.46,5A2.38,2.38,0,0,0,855.35,108.93Z"/><path class="cls-2" d="M946.31,89.58a2.52,2.52,0,0,0-2.91-2s-11,2-29.77,5.45a2.5,2.5,0,0,0,.45,5,2.45,2.45,0,0,0,.46,0c18.74-3.45,29.75-5.44,29.75-5.45A2.49,2.49,0,0,0,946.31,89.58Z"/><polygon class="cls-2" points="1426.87 748.47 1442.75 760.82 1444.88 780.83 1474.23 743.31 1426.87 748.47"/></g></svg>