<?xml version="1.0" encoding="utf-8"?>
<!-- Generator: Adobe Illustrator 26.2.1, SVG Export Plug-In . SVG Version: 6.00 Build 0)  -->
<svg version="1.1" id="Dirt_Pit_Road" xmlns="http://www.w3.org/2000/svg" xmlns:xlink="http://www.w3.org/1999/xlink" x="0px"
	 y="0px" viewBox="0 0 1920 1080" style="enable-background:new 0 0 1920 1080;" xml:space="preserve">
<style type="text/css">
	.st0{fill:#0089BA;}
	.st1{fill:#D82520;}
</style>
<g id="Mergeline">
	<path class="st0" d="M514,644.3C514,644.3,514,644.3,514,644.3c-1.8-9.6-3.1-19.5-4-29.3c-0.2-2.8-2.7-4.8-5.5-4.5
		s-4.8,2.7-4.5,5.5c0.9,10.1,2.3,20.3,4.1,30.2c0.4,2.4,2.5,4.1,4.9,4.1c0.3,0,0.6,0,0.9-0.1C512.7,649.6,514.5,647,514,644.3z"/>
	<path class="st0" d="M520.7,673c-0.8-2.6-3.6-4.1-6.2-3.3c-2.6,0.8-4.1,3.5-3.4,6.1c2.8,9.8,6.2,19.4,10.1,28.9
		c1.1,2.5,4,3.8,6.5,2.7s3.8-4,2.7-6.5C526.7,691.7,523.4,682.4,520.7,673z"/>
	<path class="st0" d="M611.1,779.8L611.1,779.8c-8.9-4.1-17.6-8.7-26-13.8c-2.4-1.4-5.4-0.7-6.9,1.7s-0.7,5.4,1.7,6.9
		c8.7,5.3,17.7,10.1,27,14.3c0.7,0.3,1.4,0.5,2.1,0.5c2.8,0,5-2.2,5-5C614,782.4,612.8,780.6,611.1,779.8z"/>
	<path class="st0" d="M581.1,391.8C581.1,391.8,581.1,391.8,581.1,391.8L581.1,391.8c-1.9-2-5.1-2.1-7.1-0.3c0,0,0,0,0,0
		c-7.5,7-14.5,14.5-20.9,22.5c-1.8,2.1-1.6,5.2,0.5,7.1c2.1,1.8,5.2,1.6,7.1-0.5c0.1-0.1,0.2-0.2,0.2-0.3
		c6.1-7.6,12.8-14.8,19.9-21.4C582.9,397,583,393.8,581.1,391.8z"/>
	<path class="st0" d="M553.3,740.2c-3.5-4.2-6.8-8.7-9.7-13.4c-1.4-2.4-4.5-3.2-6.9-1.7c-2.4,1.4-3.2,4.5-1.7,6.9
		c0,0.1,0.1,0.1,0.1,0.2c3.1,5.1,6.7,10,10.5,14.6c2.9,3.4,6,6.6,9.3,9.6c2,1.9,5.2,1.7,7.1-0.3s1.7-5.2-0.3-7.1
		C558.7,746.1,555.9,743.2,553.3,740.2z"/>
	<path class="st0" d="M542.5,437.5C542.5,437.5,542.5,437.5,542.5,437.5c-2.4-1.4-5.5-0.7-6.9,1.7c0,0,0,0,0,0
		c-5.2,8.8-9.8,17.9-13.9,27.3c-1.1,2.5,0.1,5.5,2.6,6.6c0.6,0.3,1.3,0.4,2,0.4c2,0,3.8-1.2,4.6-3c3.9-9,8.3-17.7,13.3-26.1
		C545.7,442,544.9,438.9,542.5,437.5z"/>
	<path class="st0" d="M1306.9,328.4L1306.9,328.4c9.3,3.4,18.3,7.3,27,11.7c2.5,1.2,5.5,0.2,6.7-2.3c1.2-2.5,0.2-5.5-2.3-6.7
		c-9.1-4.6-18.5-8.6-28.1-12.1c-2.6-0.9-5.5,0.4-6.4,3S1304.3,327.5,1306.9,328.4z"/>
	<path class="st0" d="M503.6,590.5C503.6,590.5,503.6,590.5,503.6,590.5c2.8,0,5-2.2,5-5c0-9.8,0.5-19.8,1.4-29.5
		c0.3-2.8-1.8-5.2-4.5-5.5c-2.8-0.3-5.2,1.8-5.5,4.5c-0.9,10-1.4,20.3-1.4,30.4C498.6,588.3,500.9,590.5,503.6,590.5z"/>
	<path class="st0" d="M1475.3,516.4L1475.3,516.4c0.4,2.4,2.5,4.1,4.9,4.1c0.3,0,0.6,0,0.9-0.1c2.7-0.5,4.5-3.1,4-5.8c0,0,0,0,0,0
		c-1.9-10-4.4-19.9-7.4-29.7c-0.8-2.6-3.6-4.1-6.3-3.3s-4.1,3.6-3.3,6.3C1471.1,497.2,1473.5,506.7,1475.3,516.4z"/>
	<path class="st0" d="M508.3,530.8c0.3,0.1,0.6,0.1,0.9,0.1c2.4,0,4.5-1.7,4.9-4.1c1.8-9.7,4.2-19.3,6.9-28.7
		c0.8-2.6-0.6-5.4-3.3-6.3s-5.4,0.6-6.3,3.3c0,0,0,0.1,0,0.1c-2.9,9.6-5.3,19.6-7.2,29.6C503.8,527.6,505.6,530.2,508.3,530.8z"/>
	<polygon class="st0" points="1303.6,288.1 1293.8,286.1 1280.6,349.7 1290.4,351.7 	"/>
	<path class="st0" d="M654.1,796.4c-4.2-1.3-9.5-3.1-15.7-5.3c-2.6-0.9-5.5,0.4-6.4,3s0.4,5.5,3,6.4c6.3,2.3,11.8,4.1,16.2,5.5
		l-7.9,26.3l9.6,2.9l9.3-31l9.3-31.1l-9.6-3L654.1,796.4z"/>
	<path class="st0" d="M1467.3,456.5c0-0.1-0.1-0.2-0.1-0.3l0-0.1c-4-9.4-8.5-18.5-13.5-27.4c-1.4-2.4-4.4-3.2-6.8-1.9
		c-2.4,1.4-3.2,4.4-1.9,6.8c4.8,8.6,9.2,17.4,13.1,26.5c1,2.6,3.9,3.8,6.5,2.8C1467,462,1468.3,459.1,1467.3,456.5z"/>
	<path class="st0" d="M1435.2,410.6L1435.2,410.6c2.1-1.8,2.3-5,0.5-7c-6.7-7.7-13.9-15-21.5-21.8c-2.1-1.8-5.3-1.5-7,0.7
		c-1.7,2-1.5,5,0.4,6.8c7.3,6.5,14.2,13.5,20.6,20.9c1,1.1,2.3,1.8,3.8,1.8C1433.2,411.8,1434.3,411.4,1435.2,410.6z"/>
	<path class="st0" d="M1479.6,599.9C1479.6,599.9,1479.6,599.9,1479.6,599.9L1479.6,599.9c-2.7-0.7-5.4,0.9-6.1,3.6
		c-2.4,9.4-5.6,18.6-9.6,27.5c-1.1,2.5,0,5.5,2.5,6.6c0.6,0.3,1.3,0.4,2,0.4c2,0,3.8-1.2,4.6-3c4.2-9.4,7.6-19.1,10.2-29
		C1483.9,603.3,1482.3,600.6,1479.6,599.9z"/>
	<path class="st0" d="M1488.9,544.9L1488.9,544.9c-0.2-2.8-2.5-4.9-5.3-4.8c-2.8,0.2-4.9,2.5-4.7,5.3c0.2,3.9,0.3,7.7,0.3,11.5
		c0,6-0.3,11.9-0.8,17.7c-0.3,2.7,1.8,5.2,4.5,5.4c0,0,0,0,0,0h0.5c2.6,0,4.8-2,5-4.5c0.6-6.1,0.8-12.4,0.8-18.6
		C1489.2,553,1489.1,549,1488.9,544.9z"/>
	<path class="st0" d="M1456.2,654.9L1456.2,654.9c-2.3-1.5-5.4-0.8-6.9,1.5c-5.5,8.6-11.2,16.7-17,24.1c-1.7,2.2-1.3,5.3,0.9,7
		c2.2,1.7,5.3,1.3,7-0.9c6-7.7,11.9-16,17.6-24.9C1459.3,659.4,1458.6,656.4,1456.2,654.9z"/>
	<path class="st0" d="M1412.7,702.4L1412.7,702.4c-6.8,6.8-14.4,12.7-22.6,17.7c-2.4,1.4-3.2,4.5-1.8,6.8s4.5,3.2,6.8,1.8
		c8.9-5.4,17.1-11.8,24.5-19.2c2-1.9,2-5.1,0.1-7.1C1417.9,700.5,1414.7,700.5,1412.7,702.4z"/>
	<path class="st0" d="M1391.6,369.6L1391.6,369.6c1.6-2.2,1.1-5.4-1.1-7c0,0,0,0,0,0c-8-5.8-16.6-11.5-25.4-16.8
		c-2.3-1.5-5.4-0.8-6.9,1.5s-0.8,5.4,1.5,6.9c0.1,0.1,0.2,0.1,0.3,0.2c8.6,5.2,16.8,10.7,24.7,16.3c0.8,0.6,1.9,1,2.9,1
		C1389.1,371.7,1390.7,370.9,1391.6,369.6z"/>
</g>
<g id="Pit_Road">
	<path class="st1" d="M889,755.1c0,1.4-1.1,2.5-2.5,2.5c0,0,0,0,0,0l-30,0.1h-3.3c-1.4,0-2.5-1.1-2.5-2.5s1.1-2.5,2.5-2.5l30-0.1
		h3.3C887.9,752.6,889,753.7,889,755.1C889,755.1,889,755.1,889,755.1z M1066.5,752.3L1066.5,752.3l-30,0.1h-3.3
		c-1.4,0-2.5,1.1-2.5,2.5s1.1,2.5,2.5,2.5l0,0l30-0.1h3.3c1.4,0,2.5-1.1,2.5-2.5S1067.9,752.3,1066.5,752.3L1066.5,752.3z
		 M946.5,752.5L946.5,752.5l-30,0.1h-3.3c-1.4,0-2.5,1.1-2.5,2.5s1.1,2.5,2.5,2.5l0,0l30-0.1h3.3c1.4,0,2.5-1.1,2.5-2.5
		S947.9,752.5,946.5,752.5L946.5,752.5z M1006.5,752.4h-3.3l-30,0.1c-1.4,0-2.5,1.1-2.5,2.5s1.1,2.5,2.5,2.5h3.3l30-0.1
		c1.4,0,2.5-1.1,2.5-2.5S1007.9,752.4,1006.5,752.4L1006.5,752.4z M648.2,741.1l-3.5-1.1l-1.4-0.5l-2.2-0.7l-1.4-0.5l-2.2-0.8
		l-1.5-0.5l-2-0.8l-1.6-0.6l-1.8-0.7l-1.8-0.7l-1.6-0.7l-1.9-0.8l-1.4-0.6l-1.9-0.9l-1.4-0.6c-1-0.5-2.1-1-3.1-1.5
		c-1.2-0.6-2.7-0.2-3.4,1c-0.6,1.2-0.2,2.7,1,3.4c0.1,0,0.1,0.1,0.2,0.1c1,0.5,2,0.9,3,1.4l0,0l0.1,0.1l1.5,0.7l1.9,0.8l1.4,0.6
		l2,0.8l1.5,0.6l1.9,0.8l1.8,0.7l1.8,0.7l2,0.7l1.6,0.6l2.2,0.8l1.5,0.5c0.7,0.3,1.5,0.5,2.2,0.8l1.5,0.5l0.3,0.1h0.1l3.1,1
		c0.2,0.1,0.5,0.1,0.8,0.1c1.4,0,2.5-1.1,2.5-2.5C650,742.3,649.3,741.4,648.2,741.1L648.2,741.1z M826.5,752.9h-4.3h-5.4H799h-5.8
		l0,0c-1.4,0-2.5,1.1-2.5,2.5s1.1,2.5,2.5,2.5h3.3h1.7h13.1c3.8,0,7.5,0,11.2,0h4.1c1.4,0,2.5-1.1,2.5-2.5s-1.1-2.5-2.5-2.5H826.5z
		 M594.8,716c-1-0.7-2-1.4-3-2.1l-0.8-0.6c-0.7-0.5-1.4-1.1-2.1-1.6l-0.9-0.7l-1.9-1.5l-1-0.8c-0.6-0.5-1.2-1-1.8-1.5l-1-0.8
		c-0.6-0.5-1.1-1-1.7-1.5l-0.9-0.8l-1.7-1.6l-0.8-0.8c-0.6-0.6-1.2-1.2-1.8-1.9c-0.2-0.2-0.4-0.4-0.5-0.6c-0.8-0.8-1.5-1.7-2.2-2.5
		l-2-2.5c-0.9-1.1-2.5-1.2-3.5-0.3c-1.1,0.9-1.2,2.5-0.3,3.5l2.1,2.6c0.8,0.9,1.5,1.7,2.3,2.6l0.8,0.8l1.6,1.7l1,1l1.6,1.5l1,1
		c0.5,0.5,1.1,1,1.6,1.5l1.1,1l1.7,1.5c0.4,0.3,0.7,0.6,1.1,0.9c0.6,0.5,1.2,1,1.9,1.5l1,0.8c0.7,0.5,1.4,1.1,2.1,1.6
		c0.3,0.2,0.6,0.5,1,0.7l0.3,0.2c0,0,0.1,0.1,0.1,0.1c0.9,0.6,1.7,1.3,2.6,1.9c0.4,0.3,0.9,0.4,1.4,0.5c1.4,0,2.5-1.1,2.5-2.5
		C595.8,717.3,595.4,716.5,594.8,716L594.8,716z M1126.5,752.2L1126.5,752.2l-30,0.1h-3.3c-1.4,0-2.5,1.1-2.5,2.5s1.1,2.5,2.5,2.5
		l0,0l30-0.1h3.3c1.4,0,2.5-1.1,2.5-2.5S1127.9,752.2,1126.5,752.2L1126.5,752.2z M766.5,752.7l-6.5-0.1h-2l-5.7-0.1h-1.8l-5.9-0.1
		h-1.5l-5.7-0.1l-4.2-0.1c-1.4,0-2.5,1.1-2.6,2.4s1.1,2.5,2.4,2.6l3.3,0.1l0,0h0.7l6.1,0.1h1.2l6.2,0.1h1.4l6.1,0.1h1.5l3.5,0.1h0.1
		h3.2l0,0c1.4,0,2.5-1.1,2.5-2.5S767.9,752.6,766.5,752.7L766.5,752.7z M706.6,751.2l-3.3-0.1l0,0l-2.5-0.1h-0.1l-2.2-0.1h-0.2
		l-2-0.1h-0.2l-3.8-0.2h-0.1l-1.5-0.1h-0.3l-1.4-0.1h-0.2l-1.2-0.1c-0.1,0-5.3-0.7-13.6-2.4c-1.3-0.4-2.7,0.4-3.1,1.8
		c-0.4,1.3,0.4,2.7,1.8,3.1c0.1,0,0.2,0,0.3,0.1l3.3,0.7l0,0c0.9,0.2,1.7,0.3,2.4,0.5l0.4,0.1l0.8,0.1l0.5,0.1l0.6,0.1l0.5,0.1
		l0.5,0.1l0.4,0.1l0.5,0.1l0.4,0l0.6,0.1h0.2l0.7,0.1h0.1l0.6,0.1h0.1l0.5,0.1h0.1l0.4,0.1l0,0l0.6,0.1l0,0h0.1l1.6,0.1l0.6,0
		l1.2,0.1l0.8,0l1.2,0.1l0.9,0l1.3,0.1l0.9,0l1.6,0.1h0.8l5.3,0.2l0,0l3.3,0.1h0.1c1.4,0,2.5-1.1,2.5-2.5S708,751.1,706.6,751.2
		L706.6,751.2z M1306.3,750.5c-1.4,0.1-2.8,0.3-4.2,0.4l-0.9,0.1l-1.4,0.1l-0.8,0.1l-1.5,0.1l-0.7,0l-1.6,0.1h-0.4l-1.9,0.1
		l-1.2,0.1h-0.6l-1.2,0.1h-0.5h-1.2h-0.5h-1.1h-0.4h-1h-0.4h-0.9h-0.3h-0.8h-9.5c-1.4,0-2.5,1.1-2.5,2.5s1.1,2.5,2.5,2.5h4.1
		c0,0,0.6,0,1.8,0h3.6h0.9h0.3h1h0.3h1.1h0.3h1.2h0.4h1.3h0.4l1.4-0.1h0.3l4.3-0.2l1.2-0.1l0.9-0.1l1.3-0.1l1-0.1l1.3-0.1l1.1-0.1
		l0.8-0.1l0,0c1.1-0.1,2.2-0.2,3.3-0.3c1.4-0.1,2.4-1.4,2.3-2.7S1307.7,750.3,1306.3,750.5L1306.3,750.5z M1246.5,752L1246.5,752
		l-30,0.1h-3.3c-1.4,0-2.5,1.1-2.5,2.5s1.1,2.5,2.5,2.5l0,0l30-0.1h3.3c1.4,0,2.5-1.1,2.5-2.5S1247.9,752,1246.5,752z M1186.5,752.1
		L1186.5,752.1l-30,0.1h-3.3c-1.4,0-2.5,1.1-2.5,2.5s1.1,2.5,2.5,2.5l0,0l30-0.1h3.3c1.4,0,2.5-1.1,2.5-2.5
		S1187.9,752.1,1186.5,752.1L1186.5,752.1z M532.5,647.8c-0.9-1.1-2.5-1.2-3.5-0.4c-1.1,0.9-1.2,2.5-0.3,3.5
		c6.3,7.7,12.9,15.7,19.1,23.1c0.9,1.1,2.4,1.3,3.5,0.4c1.1-0.9,1.3-2.4,0.4-3.5c0,0,0-0.1-0.1-0.1
		C545.4,663.4,538.8,655.5,532.5,647.8L532.5,647.8z M496,600.4c-0.7-1.2-2.3-1.5-3.4-0.8c-1.2,0.7-1.5,2.3-0.8,3.4
		c0,0.1,0.1,0.1,0.1,0.2c5.1,7.3,11,15.2,18,24.2c0.8,1.1,2.4,1.3,3.5,0.4c1.1-0.8,1.3-2.4,0.4-3.5C506.9,615.5,501,607.6,496,600.4
		z M471.5,548c0-1.4-1.1-2.5-2.5-2.5s-2.5,1.1-2.5,2.5c0,7.9,3.1,17.5,9.4,29.5c0.4,0.8,1.3,1.3,2.2,1.3c0.4,0,0.8-0.1,1.2-0.3
		c1.2-0.7,1.7-2.2,1-3.4c0,0,0,0,0,0C474.5,564.1,471.5,555,471.5,548z M1329.5,750l-3.5,19.9l38.6-28l-47-8.1L1329.5,750z
		 M1462,532.8c0.4,1,1.3,1.7,2.4,1.7c0.3,0,0.6-0.1,0.8-0.2c1.3-0.5,2-1.9,1.5-3.2c-1-2.8-1.9-5.3-2.8-7.7c-1.6-4.4-3-8.1-3.9-11.1
		s-2.1-6.2-3.4-9.5c-0.5-1.3-2-1.9-3.2-1.4c-1.3,0.5-1.9,2-1.4,3.2c1.2,3.1,2.3,6.2,3.3,9.2s2.4,6.9,4,11.3
		C1460,527.5,1461,530,1462,532.8z M701.1,348c0-1.4-1.2-2.5-2.5-2.5c-10.1,0.2-20.2,1.1-30.2,2.8c-1.4,0.1-2.4,1.3-2.3,2.7
		s1.3,2.4,2.7,2.3l0,0c0.1,0,0.3,0,0.4,0c9.7-1.6,19.6-2.5,29.5-2.7C700,350.6,701.1,349.5,701.1,348
		C701.1,348.1,701.1,348,701.1,348z M758.5,353.3c1.4,0,2.5-1,2.6-2.4s-1-2.5-2.4-2.6l-30-1.6c-1.4-0.1-2.6,1-2.6,2.4s1,2.6,2.4,2.6
		l30,1.6H758.5z M1473.1,676.3c-1.3-0.5-2.7,0.2-3.2,1.5c0,0,0,0,0,0c-3.3,9.3-7.3,18.3-12.2,26.9c-0.7,1.2-0.2,2.7,1,3.4
		c0.4,0.2,0.8,0.3,1.2,0.3c0.9,0,1.7-0.5,2.2-1.3c5-8.9,9.1-18.1,12.5-27.7C1475.2,678.2,1474.5,676.8,1473.1,676.3
		C1473.2,676.3,1473.1,676.3,1473.1,676.3L1473.1,676.3z M1484.5,619.8c0-1.4-1.1-2.5-2.5-2.5c0,0,0,0,0,0l0,0
		c-1.4,0-2.5,1.1-2.5,2.5c0,0,0,0,0,0v0.8c0,9.6-0.7,19.2-2.3,28.7c-0.2,1.4,0.7,2.6,2.1,2.9h0.4c1.2,0,2.3-0.9,2.5-2.1
		c1.6-9.8,2.3-19.6,2.3-29.5L1484.5,619.8z M1477.2,590.3c0.2,1.2,1.2,2.1,2.5,2.1c0.1,0,0.2,0,0.4,0c1.4-0.2,2.3-1.5,2.1-2.8
		c0,0,0,0,0,0c-1.5-10-3.6-19.9-6.3-29.6c-0.4-1.3-1.7-2.1-3.1-1.8c-1.3,0.4-2.1,1.7-1.8,3.1
		C1473.6,570.8,1475.7,580.5,1477.2,590.3L1477.2,590.3z M1439.2,477.8c0.7,1.2,2.2,1.6,3.4,0.9c1.2-0.7,1.6-2.1,1-3.3
		c-6.4-11.7-12.7-21.2-15.9-25.8c-0.8-1.1-2.3-1.4-3.5-0.6c-1.1,0.8-1.4,2.3-0.6,3.5l0,0C1426.6,457,1432.8,466.2,1439.2,477.8
		L1439.2,477.8z M1326.4,389.6c9.6,2.6,19,5.8,28.2,9.5c0.3,0.1,0.7,0.2,1,0.2c1.4,0,2.5-1,2.6-2.4c0-1-0.6-2-1.6-2.4
		c-9.4-3.8-19-7.1-28.7-9.7c-1.3-0.3-2.7,0.5-3,1.9C1324.6,387.9,1325.3,389.2,1326.4,389.6L1326.4,389.6z M938.2,363.2
		c1.4,0,2.5-1.1,2.6-2.4s-1.1-2.5-2.4-2.6l-30-1.6c-1.4-0.1-2.6,1-2.6,2.4s1,2.6,2.4,2.6l30,1.6H938.2z M1058.1,369.8
		c1.4,0,2.5-1.1,2.6-2.4c0-1.4-1.1-2.5-2.4-2.6l-30-1.6c-1.4-0.1-2.5,0.9-2.6,2.3c0,0,0,0,0,0c-0.1,1.4,1,2.6,2.4,2.6l30,1.6H1058.1
		z M998.2,366.5c1.4,0,2.5-1.1,2.6-2.4s-1.1-2.5-2.4-2.6l0,0l-30-1.6c-1.4-0.1-2.6,1-2.6,2.4s1,2.6,2.4,2.6l30,1.6H998.2z
		 M1297.3,383.5h0.4c1.4,0.1,2.6-0.9,2.7-2.3c0.1-1.4-0.9-2.6-2.3-2.7c-4.4-0.6-6.9-0.9-7.1-0.9l-23.1-1.3c-1.4-0.1-2.5,0.9-2.6,2.3
		c0,0,0,0,0,0c-0.1,1.4,1,2.5,2.4,2.6l23,1.3C1290.6,382.6,1293.1,382.8,1297.3,383.5L1297.3,383.5z M1444.8,728.9
		c-1.1-0.9-2.7-0.7-3.5,0.4c-6.1,7.8-12.8,15.1-19.9,22c-1,1-1,2.6,0,3.5c1,1,2.5,1,3.5,0.1c7.3-7,14.1-14.5,20.3-22.5
		C1446.2,731.3,1446,729.8,1444.8,728.9C1444.9,728.9,1444.8,728.9,1444.8,728.9z M1118,373.1c1.4,0,2.5-1.1,2.6-2.4
		c0-1.4-1.1-2.5-2.4-2.6l-29.9-1.6c-1.4-0.1-2.5,0.9-2.6,2.3c0,0,0,0,0,0c-0.1,1.4,1,2.6,2.4,2.6L1118,373.1L1118,373.1z
		 M1237.8,379.7c1.4,0,2.5-1.1,2.6-2.4c0-1.4-1.1-2.5-2.4-2.6l0,0l-30-1.6c-1.4-0.1-2.6,1-2.6,2.4s1,2.6,2.4,2.6l30,1.6H1237.8z
		 M818.4,356.6c1.4,0,2.5-1,2.6-2.4s-1-2.5-2.4-2.6l-30-1.6c-1.4-0.1-2.6,1-2.6,2.4s1,2.6,2.4,2.6l0,0l30,1.6H818.4z M1383.6,408
		c-1.2-0.7-2.7-0.3-3.4,0.8c-0.7,1.2-0.3,2.7,0.8,3.4c8.4,5.1,16.3,11,23.6,17.7c1,0.9,2.6,0.9,3.5-0.1c0.9-1,0.9-2.6-0.1-3.5
		C1400.5,419.4,1392.4,413.3,1383.6,408z M1177.9,376.4c1.4,0,2.5-1.1,2.6-2.4c0-1.4-1.1-2.5-2.4-2.6l-30-1.6
		c-1.4-0.1-2.6,1-2.6,2.4s1,2.6,2.4,2.6l30,1.6H1177.9z M878.3,359.9c1.4,0,2.5-1.1,2.6-2.4s-1.1-2.5-2.4-2.6l0,0l-30-1.6
		c-1.4-0.1-2.6,1-2.6,2.4s1,2.6,2.4,2.6l0,0l30,1.6H878.3z M619.9,368.3c6.7-3.1,13.5-5.8,20.5-8c1.3-0.4,2-1.8,1.6-3.1
		c-0.4-1.3-1.8-2-3.1-1.6c0,0,0,0-0.1,0c-7.4,2.4-14.7,5.3-21.8,8.6l-2.6-17.5l-27.7,38.8l47.1-7.2L619.9,368.3z"/>
</g>
</svg>
