<?xml version="1.0" encoding="utf-8"?>
<!-- Generator: Adobe Illustrator 25.0.0, SVG Export Plug-In . SVG Version: 6.00 Build 0)  -->
<svg version="1.1" id="Joker" xmlns="http://www.w3.org/2000/svg" xmlns:xlink="http://www.w3.org/1999/xlink" x="0px" y="0px"
	 viewBox="0 0 1920 1080" style="enable-background:new 0 0 1920 1080;" xml:space="preserve">
<style type="text/css">
	.st0{fill:#FF9100;}
</style>
<g id="Joker_1_">
	<path class="st0" d="M556.1,960.5c-6.8-3.6-13.9-7.8-21-12.6c-2.3-1.5-5.4-0.9-6.9,1.4c-1.5,2.3-0.9,5.4,1.4,6.9
		c7.4,4.9,14.8,9.4,21.9,13.1c0.7,0.4,1.5,0.6,2.3,0.6c1.8,0,3.5-1,4.4-2.7C559.4,964.8,558.5,961.8,556.1,960.5z"/>
	<path class="st0" d="M569.4,819.2c-7.4-5.7-13.6-10.6-19.5-15.4c-2.1-1.7-5.3-1.4-7,0.7s-1.4,5.3,0.7,7c6,4.8,12.2,9.8,19.7,15.6
		c0.9,0.7,2,1,3.1,1c1.5,0,3-0.7,4-1.9C572,824.1,571.6,820.9,569.4,819.2z"/>
	<path class="st0" d="M515.2,933.4c-4.8-3.8-9.3-7.7-13-11.2c-2.2-2-4-3.7-5.6-5.1c-2.1-1.8-5.2-1.7-7.1,0.4
		c-1.8,2.1-1.7,5.2,0.4,7.1c1.5,1.4,3.3,3,5.4,5c3.9,3.7,8.6,7.7,13.6,11.7c0.9,0.7,2,1.1,3.1,1.1c1.5,0,2.9-0.6,3.9-1.9
		C517.7,938.3,517.4,935.2,515.2,933.4z"/>
	<path class="st0" d="M475.4,889.4l-0.1-0.2c-2.1-3.8-4.2-7.6-6.5-11.7c-1.4-2.4-4.4-3.2-6.8-1.9c-2.4,1.4-3.2,4.4-1.9,6.8
		c2.3,4,4.4,7.7,6.4,11.5c1.2,2.3,3.5,5.7,7,10.4c1,1.3,2.5,2,4,2c1,0,2.1-0.3,3-1c2.2-1.7,2.6-4.8,1-7
		C477.6,893.1,476,890.6,475.4,889.4z"/>
	<path class="st0" d="M454.4,852.6l22.4-1.3l-50.4-43.7l3.9,66.6l15-17.4l2.4,4.1c0.9,1.6,2.6,2.5,4.3,2.5c0.9,0,1.7-0.2,2.5-0.7
		c2.4-1.4,3.2-4.5,1.8-6.8L454.4,852.6z"/>
	<path class="st0" d="M601,974.2c-0.3,0-0.7,0-1,0c-0.4,0-0.9,0-1.3,0c-6-0.2-12.9-1.5-20.5-4c-2.6-0.9-5.5,0.5-6.3,3.2
		s0.5,5.5,3.2,6.3c8.5,2.8,16.4,4.4,23.3,4.5c0.5,0,1.1,0,1.6,0c0.4,0,0.8,0,1.2,0c2.8-0.1,4.9-2.4,4.9-5.1S603.8,974.1,601,974.2z"
		/>
	<path class="st0" d="M641.4,955.3c-4.8,5.5-11,10.2-18.2,13.6c-2.5,1.2-3.6,4.1-2.4,6.6c0.9,1.8,2.7,2.9,4.5,2.9
		c0.7,0,1.4-0.2,2.1-0.5c8.4-4,15.9-9.5,21.6-16.1c1.8-2.1,1.6-5.3-0.5-7.1C646.3,952.9,643.2,953.2,641.4,955.3z"/>
	<path class="st0" d="M657,909.9c-1-2.6-4-3.8-6.5-2.7c-2.6,1-3.8,4-2.7,6.5c2.2,5.5,3.4,11,3.4,16.3c0,1.9-0.1,3.7-0.4,5.5
		c-0.4,2.7,1.5,5.3,4.2,5.7c0.3,0,0.5,0.1,0.8,0.1c2.4,0,4.6-1.8,4.9-4.2c0.4-2.3,0.5-4.7,0.5-7C661.1,923.3,659.8,916.6,657,909.9z
		"/>
	<path class="st0" d="M589.2,834.5c-2.2-1.7-5.3-1.3-7,0.9c-1.7,2.2-1.3,5.3,0.9,7c6,4.6,12.9,10,19.4,15.4c0.9,0.8,2.1,1.2,3.2,1.2
		c1.4,0,2.8-0.6,3.8-1.8c1.8-2.1,1.5-5.3-0.6-7C602.3,844.6,595.2,839.1,589.2,834.5z"/>
	<path class="st0" d="M636,892.9c1,1.4,2.5,2.1,4.1,2.1c1,0,2-0.3,2.9-0.9c2.3-1.6,2.8-4.7,1.2-7c-4.8-6.8-10.2-13.3-16.5-19.8
		c-1.9-2-5.1-2-7.1-0.1c-2,1.9-2,5.1-0.1,7.1C626.5,880.5,631.5,886.5,636,892.9z"/>
</g>
</svg>
