<?xml version="1.0" encoding="utf-8"?>
<!-- Generator: Adobe Illustrator 24.0.1, SVG Export Plug-In . SVG Version: 6.00 Build 0)  -->
<svg version="1.1" id="Rallycross__Pit_Road" xmlns="http://www.w3.org/2000/svg" xmlns:xlink="http://www.w3.org/1999/xlink"
	 x="0px" y="0px" viewBox="0 0 1920 1080" style="enable-background:new 0 0 1920 1080;" xml:space="preserve">
<style type="text/css">
	.st0{fill:#FF9100;}
</style>
<title>pitroad</title>
<g id="Joker">
	<path class="st0" d="M617.9,127.6c-9.8,2.7-19.5,5.7-28.9,8.8c-2.6,0.9-4,3.7-3.2,6.3c0.7,2.1,2.6,3.4,4.7,3.4c0.5,0,1-0.1,1.6-0.3
		c9.2-3.1,18.8-6,28.5-8.6c2.7-0.7,4.2-3.5,3.5-6.2C623.3,128.4,620.6,126.9,617.9,127.6z"/>
	<path class="st0" d="M680,129.4c-8.8-4.9-19.1-7.4-30.5-7.4l-0.9,0c-2.8,0-5,2.3-4.9,5.1c0,2.7,2.3,4.9,5,4.9c0,0,0,0,0.1,0l0.7,0
		c9.7,0,18.3,2.1,25.6,6.2c0.8,0.4,1.6,0.6,2.4,0.6c1.8,0,3.5-0.9,4.4-2.6C683.2,133.8,682.4,130.8,680,129.4z"/>
	<path class="st0" d="M505.5,172.1c-17.2,9.5-25.7,16-26.1,16.3c-2.2,1.7-2.6,4.8-0.9,7c1,1.3,2.5,2,4,2c1.1,0,2.1-0.3,3-1
		c0.1-0.1,8.4-6.4,24.8-15.5c2.4-1.3,3.3-4.4,2-6.8C510.9,171.6,507.9,170.8,505.5,172.1z"/>
	<path class="st0" d="M560.5,146.6c-9.6,3.7-19,7.7-27.9,11.8c-2.5,1.2-3.6,4.1-2.5,6.6c0.8,1.8,2.7,2.9,4.5,2.9
		c0.7,0,1.4-0.1,2.1-0.5c8.7-4,17.9-7.9,27.3-11.6c2.6-1,3.8-3.9,2.8-6.5C566,146.9,563.1,145.6,560.5,146.6z"/>
	<path class="st0" d="M823.5,231.3c-11.8-3.2-20-9.7-20.6-10.2c-1.2-1-2.4-2.1-3.6-3.1c-2.1-1.8-5.3-1.5-7,0.6
		c-1.8,2.1-1.5,5.3,0.6,7c1.2,1,2.3,2,3.5,3l0.1,0.1c0.4,0.3,10,8.2,24.4,12.1c0.4,0.1,0.9,0.2,1.3,0.2c2.2,0,4.2-1.5,4.8-3.7
		C827.8,234.8,826.2,232.1,823.5,231.3z"/>
	<path class="st0" d="M774.8,199.8c-11.3-7.4-20.8-12.4-26.7-15.2c-2.5-1.2-5.5-0.1-6.7,2.4c-1.2,2.5-0.1,5.5,2.4,6.7
		c5.6,2.7,14.6,7.4,25.5,14.5c0.8,0.6,1.8,0.8,2.7,0.8c1.6,0,3.2-0.8,4.2-2.3C777.7,204.5,777.1,201.4,774.8,199.8z"/>
	<path class="st0" d="M721.2,172.7c-3.4-2.1-5-3.6-5.4-3.9c-1.6-2-3.6-4.7-5.8-7.5c-2.3-3-4.8-6.3-7.4-9.6c-1.7-2.2-4.9-2.5-7-0.8
		c-2.2,1.7-2.5,4.9-0.8,7c2.6,3.2,5.1,6.6,7.3,9.5c2.2,2.9,4.3,5.7,6.1,7.9l0.2,0.3c0.2,0.3,2.5,2.5,7.5,5.7
		c0.8,0.5,1.7,0.7,2.6,0.7c1.7,0,3.3-0.8,4.3-2.4C724.3,177.2,723.6,174.2,721.2,172.7z"/>
</g>
</svg>
