<?xml version="1.0" encoding="utf-8"?>
<!-- Generator: Adobe Illustrator 24.0.1, SVG Export Plug-In . SVG Version: 6.00 Build 0)  -->
<svg version="1.1" id="Daytona_2008_Rally_Short_-_Pit_Road"
	 xmlns="http://www.w3.org/2000/svg" xmlns:xlink="http://www.w3.org/1999/xlink" x="0px" y="0px" viewBox="0 0 1920 1080"
	 style="enable-background:new 0 0 1920 1080;" xml:space="preserve">
<style type="text/css">
	.st0{fill:#D82520;}
	.st1{fill:#FF9100;}
</style>
<g id="Pitroad">
	<path class="st0" d="M1164.6,632.1c-7-3.1-14.2-5.9-21.5-8.4l11-13.6l-47.3,5.6l37,30l-2.1-17.2c7,2.4,14,5.2,20.8,8.2
		c0.3,0.1,0.7,0.2,1,0.2c1,0,1.9-0.6,2.3-1.5C1166.4,634.1,1165.8,632.6,1164.6,632.1z"/>
	<path class="st0" d="M1218.3,658.5c-10-4.1-19.2-8.8-26.8-12.9c-1.2-0.6-2.7-0.2-3.4,1c-0.6,1.2-0.2,2.7,1,3.4
		c7.7,4.1,17,8.9,27.3,13.1c0.3,0.1,0.6,0.2,0.9,0.2c1,0,1.9-0.6,2.3-1.6C1220.2,660.5,1219.6,659,1218.3,658.5z"/>
	<path class="st0" d="M1335.8,671.3c-10.6-0.4-20.5-0.8-30-1.1h-0.1c-1.3,0-2.5,1.1-2.5,2.4c0,1.4,1,2.5,2.4,2.6
		c9.5,0.3,19.3,0.7,29.9,1.1h0.1c1.3,0,2.4-1.1,2.5-2.4C1338.2,672.5,1337.2,671.3,1335.8,671.3z"/>
	<path class="st0" d="M1243.6,669.1c-0.3,1.4,0.6,2.7,2,2.9c8.4,1.7,12.6,1.8,30.2,2.2l0.1-5c-17.3-0.4-21.4-0.5-29.3-2.1
		C1245.2,666.9,1243.8,667.8,1243.6,669.1z"/>
</g>
<g id="Joker">
	<path class="st1" d="M951.9,571.4c-0.1-0.6-0.3-1.2-0.3-1.9c-0.3-2.7-2.8-4.7-5.5-4.4s-4.7,2.8-4.4,5.5c0.1,1,0.3,2.1,0.5,3.1
		c2.3,9.5,7.8,18,16.5,25.2c0.9,0.8,2.1,1.2,3.2,1.2c1.4,0,2.9-0.6,3.8-1.8c1.8-2.1,1.5-5.3-0.6-7
		C958,585.4,953.6,578.8,951.9,571.4z"/>
	<path class="st1" d="M1004.1,609.4c-5.1-1.4-9.9-2.9-14.3-4.6c-2.6-1-5.5,0.3-6.4,2.9c-1,2.6,0.3,5.5,2.9,6.4
		c4.7,1.8,9.8,3.4,15.2,4.9c0.4,0.1,0.9,0.2,1.3,0.2c2.2,0,4.2-1.5,4.8-3.7C1008.3,612.9,1006.8,610.1,1004.1,609.4z"/>
	<path class="st1" d="M984.3,520.5c-1.5-2.3-4.6-3-6.9-1.5c-0.5,0.4-13.4,8.8-23.6,20.8c-1.8,2.1-1.5,5.3,0.6,7
		c0.9,0.8,2.1,1.2,3.2,1.2c1.4,0,2.8-0.6,3.8-1.8c9.1-10.8,21.2-18.8,21.4-18.9C985.2,525.9,985.8,522.8,984.3,520.5z"/>
</g>
</svg>
