<?xml version="1.0" encoding="utf-8"?>
<!-- Generator: Adobe Illustrator 24.0.1, SVG Export Plug-In . SVG Version: 6.00 Build 0)  -->
<svg version="1.1" id="_300__Pit_Road" xmlns="http://www.w3.org/2000/svg" xmlns:xlink="http://www.w3.org/1999/xlink" x="0px"
	 y="0px" viewBox="0 0 1920 1080" style="enable-background:new 0 0 1920 1080;" xml:space="preserve">
<style type="text/css">
	.st0{fill:#016699;}
	.st1{fill:#D82520;}
</style>
<title>pitroad</title>
<g id="Mergeline">
	<path class="st0" d="M466.7,761.3C466.7,761.3,466.7,761.3,466.7,761.3c-11.8,0.2-21.5,0.4-28.7,0.8c-0.5,0-1.1,0.1-1.6,0.1
		c-2.8,0.2-4.8,2.6-4.7,5.3c0.2,2.6,2.4,4.7,5,4.7c0.1,0,0.2,0,0.3,0c0.5,0,1-0.1,1.5-0.1c7.1-0.4,16.5-0.7,28.2-0.8
		c2.8,0,5-2.3,4.9-5.1C471.7,763.5,469.5,761.3,466.7,761.3z"/>
	<path class="st0" d="M346.6,772.7c-7.4,1-13.5,1.9-17.6,2.4l-3.7-27.2l-9.9,1.4l4.4,31.8c0,0.1,0,0.3,0,0.4c0,0.1,0.1,0.3,0.1,0.4
		l4.4,31.8l9.9-1.4l-3.7-27.3c4.2-0.6,10.2-1.4,17.6-2.4c2.7-0.4,4.7-2.9,4.3-5.6C351.8,774.3,349.3,772.4,346.6,772.7z"/>
	<path class="st0" d="M406.3,765.1c-8.7,1-18.7,2.2-29.9,3.7c-2.7,0.4-4.7,2.9-4.3,5.6c0.3,2.5,2.5,4.4,5,4.4c0.2,0,0.4,0,0.6,0
		c11.1-1.4,21.1-2.6,29.8-3.6c2.7-0.3,4.7-2.8,4.4-5.5C411.5,766.8,409,764.8,406.3,765.1z"/>
	<path class="st0" d="M647.1,763.6c-0.1,0-12.1-0.3-30.1-0.7c-2.7-0.1-5,2.1-5.1,4.9c-0.1,2.8,2.1,5,4.9,5.1c18,0.4,29.9,0.7,30,0.7
		c0,0,0.1,0,0.1,0c2.7,0,4.9-2.1,5-4.9C652,765.9,649.8,763.6,647.1,763.6z"/>
	<path class="st0" d="M526.8,761.3c-10.8-0.1-20.9-0.2-30.1-0.2c0,0,0,0,0,0c-2.8,0-5,2.2-5,5c0,2.8,2.2,5,5,5
		c9.1,0,19.2,0.1,30,0.2c0,0,0,0,0,0c2.7,0,5-2.2,5-5C531.8,763.6,529.6,761.3,526.8,761.3z"/>
	<path class="st0" d="M586.9,762.2c-9.5-0.2-19.6-0.4-30-0.5c0,0-0.1,0-0.1,0c-2.7,0-5,2.2-5,4.9c0,2.8,2.2,5,4.9,5.1
		c10.4,0.2,20.5,0.3,30,0.5c0,0,0.1,0,0.1,0c2.7,0,4.9-2.2,5-4.9C591.9,764.5,589.7,762.2,586.9,762.2z"/>
</g>
<g id="Pitroad">
	<path class="st1" d="M691.8,766.6l-7.8-0.1l7-15.9l-44.1,18l43.7,19.1l-6.6-16.1l7.8,0.1c0,0,0,0,0,0c1.4,0,2.5-1.1,2.5-2.5
		C694.3,767.8,693.2,766.6,691.8,766.6z"/>
	<path class="st1" d="M872.2,768.9l-30.1-0.4c0,0,0,0,0,0c-1.4,0-2.5,1.1-2.5,2.5c0,1.4,1.1,2.5,2.5,2.5l30.1,0.4c0,0,0,0,0,0
		c1.4,0,2.5-1.1,2.5-2.5C874.7,770,873.6,768.9,872.2,768.9z"/>
	<path class="st1" d="M812.1,768.1l-30.1-0.4c0,0,0,0,0,0c-1.4,0-2.5,1.1-2.5,2.5c0,1.4,1.1,2.5,2.5,2.5l30.1,0.4c0,0,0,0,0,0
		c1.4,0,2.5-1.1,2.5-2.5C814.6,769.3,813.5,768.2,812.1,768.1z"/>
	<path class="st1" d="M751.9,767.4l-30.1-0.4c0,0,0,0,0,0c-1.4,0-2.5,1.1-2.5,2.5c0,1.4,1.1,2.5,2.5,2.5l30.1,0.4c0,0,0,0,0,0
		c1.4,0,2.5-1.1,2.5-2.5C754.4,768.5,753.3,767.4,751.9,767.4z"/>
	<path class="st1" d="M932.3,769.7l-30.1-0.4c0,0,0,0,0,0c-1.4,0-2.5,1.1-2.5,2.5c0,1.4,1.1,2.5,2.5,2.5l30.1,0.4c0,0,0,0,0,0
		c1.4,0,2.5-1.1,2.5-2.5C934.8,770.8,933.7,769.7,932.3,769.7z"/>
	<path class="st1" d="M1111.3,762.1c-11.7-0.1-21.7-0.4-29.9-0.9c-1.4-0.1-2.6,1-2.7,2.3c-0.1,1.4,1,2.6,2.3,2.7
		c8.2,0.5,18.4,0.8,30.2,0.9c0,0,0,0,0,0c1.4,0,2.5-1.1,2.5-2.5C1113.7,763.2,1112.6,762.1,1111.3,762.1z"/>
	<path class="st1" d="M991.7,767.3l-16.1,2.9l-13.2-0.2c-1.3,0-2.5,1.1-2.5,2.5c0,1.4,1.1,2.5,2.5,2.5l13.7,0.2l16.6-3
		c1.4-0.2,2.3-1.5,2-2.9S993.1,767,991.7,767.3z"/>
	<path class="st1" d="M1171.3,761c-10.6,0.4-20.7,0.7-30,0.9c-1.4,0-2.5,1.2-2.4,2.5c0,1.4,1.1,2.5,2.5,2.5c0,0,0,0,0.1,0
		c9.4-0.2,19.5-0.5,30.1-0.9c1.4,0,2.5-1.2,2.4-2.6C1173.8,762,1172.7,760.9,1171.3,761z"/>
	<path class="st1" d="M1051.5,757.5c-4.4-0.1-7.6,0.3-7.8,0.3l-22.4,4.1c-1.4,0.2-2.3,1.5-2,2.9c0.2,1.2,1.3,2.1,2.5,2.1
		c0.1,0,0.3,0,0.5,0l22.1-4c0.5-0.1,3.4-0.3,7.1-0.3c0,0,0,0,0,0c1.4,0,2.5-1.1,2.5-2.5C1054,758.6,1052.9,757.5,1051.5,757.5z"/>
	<path class="st1" d="M1216.3,758.9c-5.2,0.3-10.2,0.5-15,0.8c-1.4,0.1-2.4,1.2-2.4,2.6c0.1,1.3,1.2,2.4,2.5,2.4c0,0,0.1,0,0.1,0
		c4.8-0.2,9.8-0.5,15-0.8c1.4-0.1,2.4-1.2,2.4-2.6C1218.9,759.9,1217.7,758.9,1216.3,758.9z"/>
</g>
</svg>
