<?xml version="1.0" encoding="utf-8"?>
<!-- Generator: Adobe Illustrator 24.0.1, SVG Export Plug-In . SVG Version: 6.00 Build 0)  -->
<svg version="1.1" id="_100__Pit_Road" xmlns="http://www.w3.org/2000/svg" xmlns:xlink="http://www.w3.org/1999/xlink" x="0px"
	 y="0px" viewBox="0 0 1920 1080" style="enable-background:new 0 0 1920 1080;" xml:space="preserve">
<style type="text/css">
	.st0{fill:#D82520;}
</style>
<title>pitroad</title>
<g id="Pitroad">
	<path class="st0" d="M196.6,262.2c-4.8-0.9-9.1-1.8-12.8-2.7c-2-0.5-3.4-0.8-4.5-1c-2.2-0.4-3.2-0.6-5.2-1.8
		c-1.5-0.9-2.9-1.9-4.3-3.2c-1-0.9-2.6-0.8-3.5,0.2c-0.9,1-0.8,2.6,0.2,3.5c1.7,1.5,3.3,2.7,5.2,3.8c2.7,1.5,4.3,1.8,6.7,2.3
		c1.1,0.2,2.5,0.5,4.3,0.9c3.8,0.9,8.2,1.9,13.1,2.8c0.2,0,0.3,0,0.5,0c1.2,0,2.2-0.8,2.5-2C198.9,263.8,198,262.5,196.6,262.2z"/>
	<path class="st0" d="M160.6,331.5c0-1.4-1.1-2.5-2.5-2.5c0,0,0,0,0,0c-1.4,0-2.5,1.1-2.5,2.5l-0.2,22.8l-16-6.9l18.2,44l18.9-43.7
		l-16.1,6.7L160.6,331.5z"/>
	<path class="st0" d="M158.4,303.9C158.4,303.9,158.4,303.9,158.4,303.9c1.4,0,2.5-1.1,2.5-2.5l0.2-30c0-1.4-1.1-2.5-2.5-2.5
		c-1.4,0-2.5,1.1-2.5,2.5l-0.2,30C155.9,302.8,157,303.9,158.4,303.9z"/>
	<path class="st0" d="M225.4,271.9c9,1.2,19.1,2.5,29.8,3.7c0.1,0,0.2,0,0.3,0c1.3,0,2.3-0.9,2.5-2.2c0.2-1.4-0.8-2.6-2.2-2.8
		c-10.7-1.2-20.7-2.4-29.7-3.7c-1.4-0.2-2.6,0.8-2.8,2.1C223.1,270.4,224.1,271.7,225.4,271.9z"/>
	<path class="st0" d="M285.2,280.2c-0.2-1.4-1.5-2.3-2.9-2.1c-1.4,0.2-2.3,1.5-2.1,2.9c0,0.1,0,0.2,0,0.3c0,1.1-1.2,2.1-2.4,2.9
		c-2.5,0.2-11.2,1-21.7,5.7c-1.3,0.6-1.8,2-1.3,3.3c0.4,0.9,1.3,1.5,2.3,1.5c0.3,0,0.7-0.1,1-0.2c11.3-5,20.4-5.3,20.5-5.3l0.6,0
		l0.5-0.3c4.4-2.5,5.4-5.5,5.4-7.5C285.2,280.9,285.2,280.5,285.2,280.2z"/>
	<path class="st0" d="M211.9,362.2c-1.4-0.2-2.6,0.8-2.8,2.2c-0.7,6.1-1.1,12.4-1.1,18.6c0,3.9,0.1,7.9,0.4,11.8
		c0.1,1.3,1.2,2.3,2.5,2.3c0.1,0,0.1,0,0.2,0c1.4-0.1,2.4-1.3,2.3-2.7c-0.3-3.8-0.4-7.6-0.4-11.4c0-6.1,0.4-12.1,1.1-18
		C214.2,363.7,213.2,362.4,211.9,362.2z"/>
	<path class="st0" d="M231.3,308c-1,1.1-2,2.3-2.9,3.5c-4.8,6.1-9,14.1-12.3,23.2c-0.5,1.3,0.2,2.7,1.5,3.2c0.3,0.1,0.6,0.2,0.9,0.2
		c1,0,2-0.6,2.3-1.6c3.1-8.6,7.1-16.1,11.6-21.8c0.9-1.1,1.8-2.2,2.7-3.3c0.9-1,0.8-2.6-0.2-3.5C233.8,306.9,232.2,307,231.3,308z"
		/>
</g>
</svg>
