<svg id="Patriot_-_Pit_Road" data-name="Patriot - Pit Road" xmlns="http://www.w3.org/2000/svg" viewBox="0 0 1920 1080"><defs><style>.cls-1{fill:#d82520;}</style></defs><title>pitroad</title><g id="Pitroad"><path class="cls-1" d="M922.23,482.41a74.41,74.41,0,0,1,.71-11.06,46.44,46.44,0,0,1,1.12-5.06,2.5,2.5,0,1,0-4.83-1.31A51.42,51.42,0,0,0,918,470.6a80.48,80.48,0,0,0-.76,11.81c0,1.43,0,2.94.08,4.5l-16.94-4.77,23.94,41.18,12.79-45.89-14.81,8.67C922.25,484.83,922.23,483.59,922.23,482.41Z"/><path class="cls-1" d="M963.14,423.4a2.49,2.49,0,0,0-3.28-1.31c-.74.31-18.4,7.89-26.84,14.94a2.5,2.5,0,1,0,3.2,3.84c7.88-6.58,25.43-14.11,25.61-14.19A2.5,2.5,0,0,0,963.14,423.4Z"/></g></svg>