<?xml version="1.0" encoding="utf-8"?>
<!-- Generator: Adobe Illustrator 24.0.1, SVG Export Plug-In . SVG Version: 6.00 Build 0)  -->
<svg version="1.1" id="Irwindale_Inner_Outer_Oval__Pit_Road"
	 xmlns="http://www.w3.org/2000/svg" xmlns:xlink="http://www.w3.org/1999/xlink" x="0px" y="0px" viewBox="0 0 1920 1080"
	 style="enable-background:new 0 0 1920 1080;" xml:space="preserve">
<style type="text/css">
	.st0{fill:#D82520;}
</style>
<title>pitroad</title>
<g id="Pitroad">
	<path class="st0" d="M527.5,297.8c-0.8-1.1-2.4-1.3-3.5-0.5c-8.2,6-16.1,12.4-23.5,19c-1,0.9-1.1,2.5-0.2,3.5
		c0.5,0.6,1.2,0.8,1.9,0.8c0.6,0,1.2-0.2,1.7-0.6c7.3-6.5,15-12.8,23.1-18.7C528.1,300.5,528.3,298.9,527.5,297.8z"/>
	<path class="st0" d="M533.6,727c-8.2-5.8-16.1-11.9-23.6-18.1c-1.1-0.9-2.6-0.7-3.5,0.3c-0.9,1.1-0.7,2.6,0.3,3.5
		c7.6,6.4,15.6,12.5,23.9,18.4c0.4,0.3,0.9,0.5,1.4,0.5c0.8,0,1.6-0.4,2-1.1C535,729.4,534.8,727.8,533.6,727z"/>
	<path class="st0" d="M584.8,757.5c-9-4.5-17.8-9.3-26.1-14.3c-1.2-0.7-2.7-0.3-3.4,0.9s-0.3,2.7,0.9,3.4c8.5,5,17.4,9.9,26.5,14.5
		c0.4,0.2,0.7,0.3,1.1,0.3c0.9,0,1.8-0.5,2.2-1.4C586.5,759.6,586,758.1,584.8,757.5z"/>
	<path class="st0" d="M578.8,266.8c-0.6-1.2-2.1-1.7-3.4-1.1c-9.1,4.7-17.9,9.6-26.3,14.8c-1.2,0.7-1.5,2.3-0.8,3.4
		c0.5,0.8,1.3,1.2,2.1,1.2c0.4,0,0.9-0.1,1.3-0.4c8.3-5.1,17-10,26-14.6C578.9,269.5,579.4,268,578.8,266.8z"/>
	<path class="st0" d="M691.8,226.9c-0.3-1.3-1.7-2.2-3-1.9c-9.8,2.3-19.6,4.8-29.2,7.6c-1.3,0.4-2.1,1.8-1.7,3.1
		c0.3,1.1,1.3,1.8,2.4,1.8c0.2,0,0.5,0,0.7-0.1c9.5-2.8,19.2-5.3,28.9-7.5C691.2,229.6,692.1,228.2,691.8,226.9z"/>
	<path class="st0" d="M639.6,780.8c-9.5-3.3-18.8-7-27.8-10.8c-1.3-0.5-2.7,0.1-3.3,1.3s0.1,2.7,1.3,3.3c9.1,3.8,18.5,7.5,28.1,10.9
		c0.3,0.1,0.6,0.1,0.8,0.1c1,0,2-0.6,2.4-1.7C641.6,782.7,640.9,781.3,639.6,780.8z"/>
	<path class="st0" d="M634.1,243.4c-0.5-1.3-1.9-2-3.2-1.5c-9.6,3.4-19,7.1-28.1,11c-1.3,0.5-1.9,2-1.3,3.3c0.4,0.9,1.3,1.5,2.3,1.5
		c0.3,0,0.7-0.1,1-0.2c9-3.8,18.3-7.5,27.8-10.9C633.8,246.1,634.5,244.7,634.1,243.4z"/>
	<path class="st0" d="M696.9,797.6c-9.8-2.3-19.5-4.9-28.9-7.7c-1.3-0.4-2.7,0.4-3.1,1.7c-0.4,1.3,0.4,2.7,1.7,3.1
		c9.5,2.8,19.2,5.4,29.1,7.7c0.2,0,0.4,0.1,0.6,0.1c1.1,0,2.2-0.8,2.4-1.9C699.1,799.3,698.2,797.9,696.9,797.6z"/>
	<path class="st0" d="M432.5,417c1,0,1.9-0.6,2.3-1.5c3.8-9.1,8.2-18.1,13-26.6c0.7-1.2,0.3-2.7-0.9-3.4c-1.2-0.7-2.7-0.3-3.4,0.9
		c-4.9,8.7-9.4,17.9-13.3,27.1c-0.5,1.3,0.1,2.7,1.3,3.3C431.8,416.9,432.1,417,432.5,417z"/>
	<path class="st0" d="M423.2,440.3c-1.3-0.4-2.7,0.4-3.1,1.7c-2.8,9.5-5,19.4-6.8,29.4c-0.2,1.4,0.7,2.7,2,2.9c0.1,0,0.3,0,0.4,0
		c1.2,0,2.2-0.9,2.5-2.1c1.7-9.8,4-19.5,6.7-28.9C425.3,442.1,424.5,440.7,423.2,440.3z"/>
	<path class="st0" d="M417.2,560.8c-0.3-1.4-1.6-2.2-2.9-2c-1.4,0.3-2.2,1.6-2,2.9c1.9,9.8,4.5,19.6,7.8,29.3c0.4,1,1.3,1.7,2.4,1.7
		c0.3,0,0.5,0,0.8-0.1c1.3-0.4,2-1.9,1.6-3.2C421.6,580,419,570.3,417.2,560.8z"/>
	<path class="st0" d="M482.7,340.9c0.9-1,0.9-2.6-0.2-3.5c-1-0.9-2.6-0.9-3.5,0.2c-6.8,7.5-13.3,15.4-19.1,23.4
		c-0.8,1.1-0.6,2.7,0.5,3.5c0.4,0.3,1,0.5,1.5,0.5c0.8,0,1.5-0.4,2-1C469.6,356,475.9,348.3,482.7,340.9z"/>
	<path class="st0" d="M436.1,616.8c-0.6-1.2-2.1-1.8-3.3-1.1c-1.2,0.6-1.8,2.1-1.1,3.3c4.4,8.9,9.4,17.8,14.9,26.3
		c0.5,0.7,1.3,1.1,2.1,1.1c0.5,0,0.9-0.1,1.4-0.4c1.2-0.8,1.5-2.3,0.7-3.5C445.3,634.2,440.4,625.5,436.1,616.8z"/>
	<path class="st0" d="M468.2,666.6c-0.9-1.1-2.4-1.2-3.5-0.4c-1.1,0.9-1.2,2.4-0.4,3.5c6.2,7.7,13,15.2,20.2,22.5
		c0.5,0.5,1.1,0.7,1.8,0.7c0.6,0,1.3-0.2,1.8-0.7c1-1,1-2.6,0-3.5C481.1,681.6,474.4,674.2,468.2,666.6z"/>
	<path class="st0" d="M1115,813.4C1115,813.4,1115,813.4,1115,813.4c-9.6,0.2-19.7,0.4-30.1,0.6c-1.4,0-2.5,1.2-2.5,2.5
		c0,1.4,1.1,2.5,2.5,2.5c0,0,0,0,0,0c10.4-0.2,20.4-0.4,30-0.6c1.4,0,2.5-1.2,2.4-2.5C1117.5,814.5,1116.3,813.4,1115,813.4z"/>
	<path class="st0" d="M994.9,815.6C994.9,815.6,994.9,815.6,994.9,815.6c-10.2,0.2-20.2,0.3-30.1,0.4c-1.4,0-2.5,1.2-2.5,2.5
		c0,1.4,1.1,2.5,2.5,2.5c0,0,0,0,0,0c9.8-0.1,19.9-0.3,30-0.4c1.4,0,2.5-1.2,2.5-2.5C997.4,816.7,996.3,815.6,994.9,815.6z"/>
	<path class="st0" d="M988.2,219.3c1.3,0,2.3-0.9,2.5-2.2c0.2-1.4-0.8-2.6-2.2-2.8c-9.4-1.1-19.5-2-30-2.8c-1.4-0.1-2.6,0.9-2.7,2.3
		c-0.1,1.4,0.9,2.6,2.3,2.7c10.4,0.8,20.4,1.7,29.8,2.8C988,219.3,988.1,219.3,988.2,219.3z"/>
	<path class="st0" d="M1047.2,230c1.1,0,2.1-0.7,2.4-1.8c0.4-1.3-0.4-2.7-1.8-3.1c-8.8-2.4-18.8-4.6-29.5-6.5
		c-1.4-0.2-2.7,0.7-2.9,2c-0.2,1.4,0.7,2.7,2,2.9c10.6,1.9,20.4,4,29.1,6.4C1046.7,229.9,1047,230,1047.2,230z"/>
	<path class="st0" d="M413.8,531.4c-0.1-2.3-0.1-4.5-0.1-6.8c0-0.5,0-0.9,0-1.4c0.1-7.2,0.3-14.5,0.9-21.5c0.1-1.4-0.9-2.6-2.3-2.7
		c-1.4-0.1-2.6,0.9-2.7,2.3c-0.5,7.1-0.8,14.5-0.9,21.8c0,0.5,0,1,0,1.4c0,2.3,0,4.6,0.1,6.9c0,1.3,1.2,2.4,2.5,2.4c0,0,0.1,0,0.1,0
		C412.8,534,413.9,532.8,413.8,531.4z"/>
	<path class="st0" d="M934.8,816.4C934.8,816.4,934.8,816.4,934.8,816.4c-10.8,0.1-20.9,0.2-30,0.3c-1.4,0-2.5,1.1-2.5,2.5
		c0,1.4,1.1,2.5,2.5,2.5c0,0,0,0,0,0c9.2-0.1,19.3-0.1,30-0.3c1.4,0,2.5-1.1,2.5-2.5C937.3,817.5,936.2,816.4,934.8,816.4z"/>
	<path class="st0" d="M1054.9,814.6c-9.9,0.2-19.9,0.4-30,0.5c-1.4,0-2.5,1.2-2.5,2.5c0,1.4,1.1,2.5,2.5,2.5c0,0,0,0,0,0
		c10.1-0.2,20.1-0.3,30-0.5c1.4,0,2.5-1.2,2.5-2.5S1056.2,814.6,1054.9,814.6z"/>
	<path class="st0" d="M755.6,808.8c-9.9-1.4-19.9-3.1-29.5-4.9c-1.4-0.3-2.7,0.6-2.9,2c-0.3,1.4,0.6,2.7,2,2.9
		c9.7,1.8,19.7,3.5,29.7,4.9c0.1,0,0.2,0,0.4,0c1.2,0,2.3-0.9,2.5-2.1C757.9,810.2,756.9,809,755.6,808.8z"/>
	<path class="st0" d="M810.9,212.9c-0.1-1.4-1.2-2.4-2.6-2.4c-10.1,0.5-20.2,1.1-30,1.7c-1.4,0.1-2.4,1.3-2.3,2.7
		c0.1,1.3,1.2,2.3,2.5,2.3c0.1,0,0.1,0,0.2,0c9.8-0.7,19.8-1.2,29.9-1.7C809.9,215.5,810.9,214.3,810.9,212.9z"/>
	<path class="st0" d="M815,814.9c-10-0.7-20-1.5-29.8-2.5c-1.4-0.1-2.6,0.9-2.7,2.2c-0.1,1.4,0.9,2.6,2.2,2.7c9.8,1,19.9,1.9,30,2.5
		c0.1,0,0.1,0,0.2,0c1.3,0,2.4-1,2.5-2.3C817.4,816.2,816.4,815,815,814.9z"/>
	<path class="st0" d="M751,217c-0.2-1.4-1.4-2.4-2.8-2.2c-9.7,1.1-19.8,2.5-29.9,4.3c-1.4,0.2-2.3,1.5-2,2.9
		c0.2,1.2,1.3,2.1,2.5,2.1c0.1,0,0.3,0,0.4,0c10-1.7,19.9-3.1,29.6-4.2C750.2,219.6,751.1,218.4,751,217z"/>
	<path class="st0" d="M870.8,211.4c0-1.4-1.1-2.5-2.5-2.5c0,0,0,0,0,0c-9.8,0.1-20,0.3-30,0.5c-1.4,0-2.5,1.2-2.4,2.6
		c0,1.4,1.1,2.4,2.5,2.4c0,0,0,0,0.1,0c10.1-0.3,20.1-0.5,29.9-0.5C869.7,213.9,870.9,212.7,870.8,211.4z"/>
	<path class="st0" d="M874.8,816.8c-2.8,0-5.4,0-8,0c-7.4,0-14.7-0.2-21.9-0.4c-1.4,0-2.5,1-2.6,2.4s1,2.5,2.4,2.6
		c7.2,0.2,14.6,0.3,22,0.4c2.6,0,5.2,0,8,0c0,0,0,0,0,0c1.4,0,2.5-1.1,2.5-2.5C877.3,817.9,876.2,816.8,874.8,816.8z"/>
	<path class="st0" d="M928.4,214.8c1.3,0,2.4-1.1,2.5-2.4c0.1-1.4-1-2.5-2.4-2.6c-9.7-0.4-19.8-0.7-30.1-0.8c0,0,0,0,0,0
		c-1.4,0-2.5,1.1-2.5,2.5c0,1.4,1.1,2.5,2.5,2.5c10.2,0.2,20.3,0.4,29.9,0.8C928.3,214.8,928.3,214.8,928.4,214.8z"/>
	<path class="st0" d="M1204.9,814l-44.3-17.6l7.2,15.9c-6.9,0.2-14.5,0.3-22.8,0.5c-1.4,0-2.5,1.2-2.4,2.6c0,1.4,1.1,2.4,2.5,2.4
		c0,0,0,0,0.1,0c8.3-0.2,15.9-0.3,22.8-0.5l-6.4,16.1L1204.9,814z"/>
</g>
</svg>
