<svg id="Limaland_-_Pit_Road" data-name="Limaland - Pit Road" xmlns="http://www.w3.org/2000/svg" viewBox="0 0 1920 1080"><defs><style>.cls-1{fill:#d82520;}</style></defs><title>pitroad</title><path class="cls-1" d="M783.16,658.62h-1.85c-9.82,0-19.25-.19-28-.55a2.5,2.5,0,0,0-.21,5c8.86.36,18.36.55,28.25.55h1.86a2.5,2.5,0,0,0,0-5Z"/><path class="cls-1" d="M723.48,656c-10.49-1.08-20.41-2.51-29.47-4.26a2.5,2.5,0,0,0-1,4.91c9.21,1.78,19.27,3.23,29.91,4.33h.26a2.5,2.5,0,0,0,.25-5Z"/><path class="cls-1" d="M963.39,654.13l-30,.83a2.5,2.5,0,0,0,.06,5h.07l30.06-.84a2.5,2.5,0,1,0-.14-5Z"/><path class="cls-1" d="M903.27,655.75c-12.19.31-22.32.55-30.09.71a2.5,2.5,0,0,0,.05,5h0c7.78-.16,17.91-.4,30.12-.71a2.5,2.5,0,0,0-.13-5Z"/><path class="cls-1" d="M665.34,644.24a136.57,136.57,0,0,1-19.1-8.11,49.07,49.07,0,0,1-7.17-4.45,2.5,2.5,0,0,0-3,4,53.9,53.9,0,0,0,7.86,4.88A141.76,141.76,0,0,0,663.72,649a2.3,2.3,0,0,0,.81.14,2.5,2.5,0,0,0,.81-4.87Z"/><path class="cls-1" d="M583.19,529.09a2.5,2.5,0,0,0-4.79,1.43c3,9.89,6.19,19.52,9.64,28.62a2.51,2.51,0,0,0,2.34,1.62,2.29,2.29,0,0,0,.88-.17,2.49,2.49,0,0,0,1.45-3.22C589.31,548.38,586.11,538.87,583.19,529.09Z"/><path class="cls-1" d="M604.49,584.72a2.5,2.5,0,0,0-4.49,2.21,200.5,200.5,0,0,0,15.24,26.27,2.49,2.49,0,0,0,2,1.07,2.45,2.45,0,0,0,1.43-.45,2.5,2.5,0,0,0,.62-3.48A196.4,196.4,0,0,1,604.49,584.72Z"/><path class="cls-1" d="M571.28,384.14a2.56,2.56,0,0,0,.39,0,2.51,2.51,0,0,0,2.47-2.11c1.48-9.27,3.23-19.19,5.22-29.46a2.5,2.5,0,0,0-4.91-1c-2,10.33-3.76,20.3-5.25,29.63A2.5,2.5,0,0,0,571.28,384.14Z"/><path class="cls-1" d="M1145.29,321.25c9.34,4.62,18.35,9.16,26.77,13.5a2.58,2.58,0,0,0,1.14.27,2.5,2.5,0,0,0,1.15-4.72c-8.45-4.35-17.48-8.9-26.84-13.53a2.5,2.5,0,1,0-2.22,4.48Z"/><path class="cls-1" d="M565.58,443.83a2.5,2.5,0,0,0,2.5-2.46c.14-8.6.82-18.59,2-29.69a2.5,2.5,0,0,0-5-.55c-1.23,11.26-1.92,21.41-2.06,30.16a2.5,2.5,0,0,0,2.46,2.54Z"/><path class="cls-1" d="M1023.5,652.39l-30,.88a2.5,2.5,0,0,0,.07,5h.07l30.06-.87a2.5,2.5,0,0,0-.15-5Z"/><path class="cls-1" d="M570.13,470.89a2.5,2.5,0,0,0-5,.71c1.34,9.32,3.21,19.32,5.56,29.71a2.52,2.52,0,0,0,2.44,1.95,2.57,2.57,0,0,0,.55-.06,2.51,2.51,0,0,0,1.89-3C573.29,489.94,571.45,480.08,570.13,470.89Z"/><path class="cls-1" d="M843.07,657c-3.34.11-7,.25-10.92.4-5.72.22-12.21.47-19.07.69a2.5,2.5,0,0,0,.08,5h.08c6.87-.22,13.37-.47,19.1-.69,3.92-.15,7.56-.29,10.89-.4a2.5,2.5,0,1,0-.16-5Z"/><path class="cls-1" d="M1303.46,584a2.5,2.5,0,0,0-3.43.85,261.63,261.63,0,0,1-16.57,24.67,2.5,2.5,0,1,0,3.93,3.09,266.92,266.92,0,0,0,16.92-25.17A2.5,2.5,0,0,0,1303.46,584Z"/><path class="cls-1" d="M1259.75,625.75a191.82,191.82,0,0,1-27.6,10.75,2.5,2.5,0,0,0,.74,4.89,2.43,2.43,0,0,0,.75-.11,198.31,198.31,0,0,0,28.32-11,2.5,2.5,0,0,0-2.21-4.49Z"/><path class="cls-1" d="M1294.09,420a2.5,2.5,0,0,0-4,3,236.71,236.71,0,0,1,16.35,24.77,2.51,2.51,0,0,0,2.17,1.26,2.5,2.5,0,0,0,2.17-3.75A243.44,243.44,0,0,0,1294.09,420Z"/><path class="cls-1" d="M1252.16,376.37a2.5,2.5,0,1,0-3.13,3.89,230.31,230.31,0,0,1,21.83,20.08,2.5,2.5,0,0,0,1.8.77,2.45,2.45,0,0,0,1.73-.7,2.5,2.5,0,0,0,.08-3.53A234,234,0,0,0,1252.16,376.37Z"/><path class="cls-1" d="M1063.23,282.42l.76.35a2.57,2.57,0,0,0,1,.23,2.5,2.5,0,0,0,1-4.78l-.76-.34c-15.21-7-18.31-8.4-19.86-9l12-12.3L1009.81,258,1044,291.14l-.56-17.62C1044.75,274,1046.9,274.93,1063.23,282.42Z"/><path class="cls-1" d="M1332,502a147.74,147.74,0,0,0-8.14-29.36,2.5,2.5,0,1,0-4.66,1.8,143.52,143.52,0,0,1,7.87,28.36,2.5,2.5,0,0,0,2.46,2.1,2.6,2.6,0,0,0,.4,0A2.49,2.49,0,0,0,1332,502Z"/><path class="cls-1" d="M1328.64,529.61a2.5,2.5,0,0,0-3.11,1.67,185.36,185.36,0,0,1-11.17,27.4,2.5,2.5,0,0,0,4.49,2.2,190.28,190.28,0,0,0,11.47-28.16A2.49,2.49,0,0,0,1328.64,529.61Z"/><path class="cls-1" d="M1227.15,359.22c-7.36-4.43-16.17-9.43-26.2-14.89a2.5,2.5,0,0,0-2.39,4.4c10,5.41,18.72,10.38,26,14.77a2.5,2.5,0,0,0,2.58-4.28Z"/><path class="cls-1" d="M1119.41,308.36a2.5,2.5,0,0,0,1.09-4.75c-9-4.3-18.09-8.62-27.17-12.84a2.5,2.5,0,0,0-2.11,4.53c9.06,4.22,18.18,8.53,27.11,12.81A2.47,2.47,0,0,0,1119.41,308.36Z"/><path class="cls-1" d="M1083.61,650.6l-30,.9a2.5,2.5,0,0,0,.07,5h.08l30-.91a2.5,2.5,0,1,0-.15-5Z"/><path class="cls-1" d="M1143.74,648.76l-30.07.92a2.5,2.5,0,0,0,.07,5h.08l30.08-.92a2.5,2.5,0,0,0,2.42-2.58A2.47,2.47,0,0,0,1143.74,648.76Z"/><path class="cls-1" d="M1203.29,643.9c-11.7,2.43-20,3.53-21.12,3.67l-8.31.26a2.5,2.5,0,0,0,.08,5h.08l8.43-.26.23,0c.37,0,9.14-1.16,21.62-3.76a2.5,2.5,0,1,0-1-4.89Z"/></svg>