<svg id="Rallycross_-_Pit_Road" data-name="Rallycross - Pit Road" xmlns="http://www.w3.org/2000/svg" viewBox="0 0 1920 1080"><defs><style>.cls-1{fill:#ff9100;}</style></defs><title>pitroad</title><g id="Joker"><path class="cls-1" d="M1164.53,846.19l-29.9,3.16a2.5,2.5,0,0,0,.26,5h.26l29.91-3.16a2.5,2.5,0,0,0-.53-5Z"/><path class="cls-1" d="M1104.72,852.51l-29.93,3.16a2.5,2.5,0,0,0,.25,5h.27l29.94-3.16a2.5,2.5,0,0,0-.53-5Z"/><path class="cls-1" d="M1223.15,836.6c-8.4,2.94-15.85,5.06-19,5.4l-9.72,1a2.5,2.5,0,0,0,.26,5h.27l9.73-1c3.57-.39,11.08-2.5,20.08-5.65a2.5,2.5,0,1,0-1.65-4.72Z"/><path class="cls-1" d="M1044.91,857.93,1015,860a2.5,2.5,0,0,0,.16,5h.18l29.93-2.05a2.5,2.5,0,0,0-.34-5Z"/><path class="cls-1" d="M925.19,866.14l-29.93,2.05a2.5,2.5,0,0,0,.17,5h.17l29.93-2.06a2.5,2.5,0,0,0-.34-5Z"/><path class="cls-1" d="M985.05,862l-29.93,2.05a2.5,2.5,0,0,0,.16,5h.18L985.39,867a2.5,2.5,0,0,0-.34-5Z"/><path class="cls-1" d="M1385.17,763.61c-8.78,4.39-17.93,8.48-27.19,12.17a2.51,2.51,0,0,0,.93,4.83,2.56,2.56,0,0,0,.93-.18c9.38-3.74,18.66-7.89,27.57-12.34a2.5,2.5,0,0,0-2.24-4.48Z"/><path class="cls-1" d="M1479.9,692.58c-6.67,7.29-13.77,14.34-21.09,21a2.51,2.51,0,0,0-.18,3.53,2.51,2.51,0,0,0,3.53.18c7.45-6.73,14.65-13.9,21.43-21.31a2.5,2.5,0,1,0-3.69-3.37Z"/><path class="cls-1" d="M1519.24,644.4a2.5,2.5,0,0,0-3.44.8c-5.27,8.44-10.94,16.69-16.86,24.52a2.49,2.49,0,0,0,2,4,2.48,2.48,0,0,0,2-1c6-7.94,11.78-16.31,17.12-24.88A2.51,2.51,0,0,0,1519.24,644.4Z"/><path class="cls-1" d="M1272.85,805.26a186.71,186.71,0,0,0-23.7,19,2.5,2.5,0,0,0,3.5,3.58,177.61,177.61,0,0,1,23-18.5,2.5,2.5,0,0,0-2.83-4.12Z"/><path class="cls-1" d="M1546.14,590.87a2.52,2.52,0,0,0-3.27,1.36c-3.81,9.26-8,18.36-12.43,27.06a2.49,2.49,0,0,0,1.09,3.36,2.41,2.41,0,0,0,1.13.27,2.51,2.51,0,0,0,2.23-1.36c4.5-8.82,8.74-18,12.61-27.42A2.52,2.52,0,0,0,1546.14,590.87Z"/><path class="cls-1" d="M1435.84,732.46c-7.88,5.88-16.16,11.5-24.63,16.7a2.5,2.5,0,0,0,2.62,4.26c8.59-5.28,17-11,25-17a2.5,2.5,0,0,0-3-4Z"/><path class="cls-1" d="M1329.88,785.68c-4.32,1.33-8.72,2.6-13,3.75L1301,793.14a2.5,2.5,0,0,0,.57,4.94,2.22,2.22,0,0,0,.57-.07l16-3.73c4.42-1.19,8.88-2.47,13.25-3.82a2.5,2.5,0,0,0-1.47-4.78Z"/></g></svg>