<?xml version="1.0" encoding="utf-8"?>
<!-- Generator: Adobe Illustrator 24.0.1, SVG Export Plug-In . SVG Version: 6.00 Build 0)  -->
<svg version="1.1" id="Knoxville__Pit_Road" xmlns="http://www.w3.org/2000/svg" xmlns:xlink="http://www.w3.org/1999/xlink"
	 x="0px" y="0px" viewBox="0 0 1920 1080" style="enable-background:new 0 0 1920 1080;" xml:space="preserve">
<style type="text/css">
	.st0{fill:#D82520;}
</style>
<title>pitroad</title>
<g id="Pitroad">
	<path class="st0" d="M713.1,751.9c-7.2,2-14.1,4-21.5,6.2l-7.3,2.1c-1.3,0.4-2.1,1.8-1.7,3.1c0.3,1.1,1.3,1.8,2.4,1.8
		c0.2,0,0.5,0,0.7-0.1l7.3-2.1c7.4-2.1,14.4-4.2,21.5-6.2c1.3-0.4,2.1-1.8,1.7-3.1C715.8,752.3,714.5,751.6,713.1,751.9z"/>
	<path class="st0" d="M950.8,720.4C950.8,720.4,950.8,720.4,950.8,720.4c-13.3,0.3-22.3,0.5-30,0.7c-1.4,0-2.5,1.2-2.4,2.6
		c0,1.4,1.1,2.4,2.5,2.4c0,0,0,0,0.1,0c7.8-0.2,16.7-0.4,30-0.7c1.4,0,2.5-1.2,2.4-2.6C953.3,721.5,952.2,720.4,950.8,720.4z"/>
	<path class="st0" d="M771.5,737.5c-9.7,2-19.3,4.2-29.3,6.7c-1.3,0.3-2.2,1.7-1.8,3c0.3,1.1,1.3,1.9,2.4,1.9c0.2,0,0.4,0,0.6-0.1
		c10-2.5,19.5-4.7,29.1-6.6c1.4-0.3,2.2-1.6,1.9-3C774.2,738.1,772.8,737.2,771.5,737.5z"/>
	<path class="st0" d="M890.7,722.2c-11.1,0.5-20.4,1.2-29.5,2.1l-0.5,0.1c-1.4,0.1-2.4,1.4-2.2,2.7c0.1,1.3,1.2,2.2,2.5,2.2
		c0.1,0,0.2,0,0.3,0l0.5,0c9-0.9,18.3-1.6,29.3-2.1c1.4-0.1,2.4-1.2,2.4-2.6C893.3,723.2,892.1,722.1,890.7,722.2z"/>
	<path class="st0" d="M830.8,727.7c-10.2,1.3-20.2,2.8-29.8,4.3c-1.4,0.2-2.3,1.5-2.1,2.9c0.2,1.2,1.3,2.1,2.5,2.1
		c0.1,0,0.3,0,0.4,0c9.5-1.5,19.4-3,29.6-4.3c1.4-0.2,2.3-1.4,2.2-2.8C833.5,728.5,832.2,727.5,830.8,727.7z"/>
	<path class="st0" d="M596.9,767.7L596.9,767.7c-9.5-1.5-19.1-3.9-28.5-7.2c-1.3-0.5-2.7,0.2-3.2,1.5c-0.5,1.3,0.2,2.7,1.5,3.2
		c9.7,3.4,19.6,5.9,29.3,7.4c0.1,0,0.2,0,0.3,0c0.1,0,0.2,0,0.2,0c1.3,0,2.4-1,2.5-2.3C599.2,769.1,598.3,767.9,596.9,767.7z"/>
	<path class="st0" d="M655.5,767.9c-11.1,2.4-20.6,3.6-28.9,3.6l-0.2,0c-1.4,0-2.5,1.1-2.5,2.5s1.1,2.5,2.5,2.5l0.2,0
		c8.8,0,18.6-1.2,30-3.7c1.3-0.3,2.2-1.6,1.9-3C658.2,768.4,656.8,767.6,655.5,767.9z"/>
	<path class="st0" d="M541.4,748.6c-8.4-4.5-16.8-9.9-25-15.9c-1.1-0.8-2.7-0.6-3.5,0.5s-0.6,2.7,0.5,3.5c8.4,6.1,17,11.6,25.6,16.3
		c0.4,0.2,0.8,0.3,1.2,0.3c0.9,0,1.7-0.5,2.2-1.3C543.1,750.7,542.6,749.2,541.4,748.6z"/>
	<path class="st0" d="M376.6,541.8c-0.5-1.3-2-1.9-3.3-1.4c-1.3,0.5-1.9,2-1.4,3.3c0,0.1,4.5,10.9,12.7,27.6
		c0.4,0.9,1.3,1.4,2.2,1.4c0.4,0,0.8-0.1,1.1-0.3c1.2-0.6,1.7-2.1,1.1-3.4C381,552.6,376.7,541.9,376.6,541.8z"/>
	<path class="st0" d="M403.2,595.6c-0.7-1.2-2.2-1.6-3.4-1c-1.2,0.7-1.6,2.2-1,3.4c4.9,8.8,10.1,17.6,15.3,26
		c0.5,0.8,1.3,1.2,2.1,1.2c0.5,0,0.9-0.1,1.3-0.4c1.2-0.7,1.5-2.3,0.8-3.4C413.2,613,408.1,604.3,403.2,595.6z"/>
	<path class="st0" d="M434.9,646.3c-0.8-1.1-2.4-1.4-3.5-0.6s-1.4,2.4-0.6,3.5c5.9,8.4,12,16.5,18.1,24.2c0.5,0.6,1.2,0.9,2,0.9
		c0.5,0,1.1-0.2,1.6-0.5c1.1-0.9,1.3-2.4,0.4-3.5C446.8,662.6,440.7,654.6,434.9,646.3z"/>
	<path class="st0" d="M472.2,692.8c-0.9-1-2.5-1.1-3.5-0.1c-1,0.9-1.1,2.5-0.1,3.5c7,7.6,14.3,14.8,21.5,21.3
		c0.5,0.4,1.1,0.6,1.7,0.6c0.7,0,1.4-0.3,1.9-0.8c0.9-1,0.9-2.6-0.2-3.5C486.3,707.4,479.2,700.3,472.2,692.8z"/>
	<path class="st0" d="M1431.7,443.3c0.1,1.3,1.2,2.2,2.5,2.2c0.1,0,0.2,0,0.3,0c1.4-0.2,2.4-1.4,2.2-2.8c-1.1-10-2.6-20-4.4-29.9
		c-0.2-1.4-1.6-2.3-2.9-2c-1.4,0.2-2.3,1.6-2,2.9C1429.1,423.5,1430.6,433.4,1431.7,443.3z"/>
	<path class="st0" d="M1426.2,589.6c-1.3-0.3-2.7,0.4-3.1,1.8c-2.6,9.9-5.7,19.1-9.5,28c-0.5,1.3,0,2.7,1.3,3.3
		c0.3,0.1,0.7,0.2,1,0.2c1,0,1.9-0.6,2.3-1.5c3.9-9.2,7.1-18.5,9.8-28.7C1428.3,591.3,1427.5,589.9,1426.2,589.6z"/>
	<path class="st0" d="M1362.9,691c-7.7,6-16.1,11.1-25.1,15.4c-1.2,0.6-1.8,2.1-1.2,3.3c0.4,0.9,1.3,1.4,2.3,1.4
		c0.4,0,0.7-0.1,1.1-0.2c9.3-4.4,18-9.8,26-15.9c1.1-0.8,1.3-2.4,0.4-3.5C1365.6,690.3,1364,690.1,1362.9,691z"/>
	<path class="st0" d="M1403.6,644.9c-1.2-0.7-2.7-0.3-3.4,0.9c-1.6,2.8-3.2,5.6-4.9,8.5c-3.3,5.7-7.1,11.1-11.3,16.2
		c-0.9,1.1-0.7,2.6,0.4,3.5c0.5,0.4,1,0.6,1.6,0.6c0.7,0,1.4-0.3,1.9-0.9c4.3-5.3,8.3-11,11.7-16.9c1.7-2.9,3.3-5.7,4.9-8.5
		C1405.2,647.1,1404.8,645.6,1403.6,644.9z"/>
	<path class="st0" d="M1423.3,386.5c0.2,0,0.4,0,0.6-0.1c1.3-0.3,2.1-1.7,1.8-3c-2.5-9.8-5.4-19.5-8.6-28.9c-0.4-1.3-1.9-2-3.2-1.6
		c-1.3,0.4-2,1.9-1.6,3.2c3.1,9.3,6,18.9,8.5,28.6C1421.2,385.8,1422.2,386.5,1423.3,386.5z"/>
	<path class="st0" d="M1438.9,472.8c-0.1-1.4-1.2-2.5-2.6-2.4c-1.4,0.1-2.5,1.2-2.4,2.6c0.2,5.2,0.3,10.4,0.3,15.5
		c0,3.6-0.1,7.2-0.2,10.7c0,1.2-0.1,2.5-0.1,3.7c0,1.4,1,2.5,2.4,2.6c0,0,0.1,0,0.1,0c1.3,0,2.5-1.1,2.5-2.4c0-1.2,0.1-2.5,0.1-3.7
		c0.1-3.5,0.2-7.2,0.2-10.8C1439.2,483.3,1439.1,478.1,1438.9,472.8z"/>
	<path class="st0" d="M1435,530.4c-1.4-0.1-2.6,0.9-2.7,2.3c-0.8,10.6-1.9,20.6-3.3,29.6c-0.2,1.4,0.7,2.6,2.1,2.8
		c0.1,0,0.2,0,0.4,0c1.2,0,2.3-0.9,2.5-2.1c1.4-9.2,2.5-19.3,3.3-30C1437.4,531.7,1436.4,530.5,1435,530.4z"/>
	<path class="st0" d="M1310.1,716.1c-8.6,2-17,3-24.7,2.9l-4.5-0.1c0,0,0,0,0,0c-1.4,0-2.5,1.1-2.5,2.5c0,1.4,1.1,2.5,2.5,2.5
		l4.5,0.1c0.3,0,0.7,0,1.1,0c7.8,0,16.1-1,24.8-3c1.3-0.3,2.2-1.7,1.9-3S1311.5,715.8,1310.1,716.1z"/>
	<path class="st0" d="M1130.9,718.6C1130.9,718.6,1130.9,718.6,1130.9,718.6c-10,0-20,0.1-30,0.1c-1.4,0-2.5,1.1-2.5,2.5
		c0,1.4,1.1,2.5,2.5,2.5c0,0,0,0,0,0c10-0.1,20-0.1,30-0.1c1.4,0,2.5-1.1,2.5-2.5C1133.4,719.7,1132.2,718.6,1130.9,718.6z"/>
	<path class="st0" d="M1010.8,719.5C1010.8,719.5,1010.8,719.5,1010.8,719.5c-10.6,0.1-20.6,0.3-30.1,0.4c-1.4,0-2.5,1.2-2.5,2.5
		c0,1.4,1.1,2.5,2.5,2.5c0,0,0,0,0,0c9.4-0.1,19.5-0.3,30-0.4c1.4,0,2.5-1.1,2.5-2.5C1013.3,720.6,1012.2,719.5,1010.8,719.5z"/>
	<path class="st0" d="M1190.9,718.5l-4,0c-8.5,0-17.2,0-26,0c-1.4,0-2.5,1.1-2.5,2.5c0,1.4,1.1,2.5,2.5,2.5c0,0,0,0,0,0
		c8.8,0,17.5,0,26,0l4,0c0,0,0,0,0,0c1.4,0,2.5-1.1,2.5-2.5C1193.4,719.6,1192.3,718.5,1190.9,718.5z"/>
	<path class="st0" d="M1070.8,718.9C1070.8,718.9,1070.8,718.9,1070.8,718.9c-10.2,0.1-20.2,0.2-30,0.2c-1.4,0-2.5,1.1-2.5,2.5
		c0,1.4,1.1,2.5,2.5,2.5c0,0,0,0,0,0c9.8-0.1,19.8-0.2,30-0.2c1.4,0,2.5-1.1,2.5-2.5C1073.3,720,1072.2,718.9,1070.8,718.9z"/>
	<path class="st0" d="M1250.9,718.6c-9.5-0.1-19.5-0.1-30-0.1c0,0,0,0,0,0c-1.4,0-2.5,1.1-2.5,2.5c0,1.4,1.1,2.5,2.5,2.5
		c10.5,0,20.5,0.1,30,0.1c0,0,0,0,0,0c1.4,0,2.5-1.1,2.5-2.5C1253.4,719.8,1252.3,718.7,1250.9,718.6z"/>
	<polygon class="st0" points="1390.3,298.3 1392.3,345.9 1405.7,330.9 1425.8,330.1 	"/>
</g>
</svg>
