<?xml version="1.0" encoding="utf-8"?>
<!-- Generator: Adobe Illustrator 24.0.1, SVG Export Plug-In . SVG Version: 6.00 Build 0)  -->
<svg version="1.1" id="Rallycross_-_Pit_Road" xmlns="http://www.w3.org/2000/svg" xmlns:xlink="http://www.w3.org/1999/xlink"
	 x="0px" y="0px" viewBox="0 0 1920 1080" style="enable-background:new 0 0 1920 1080;" xml:space="preserve">
<style type="text/css">
	.st0{fill:#FF9100;}
</style>
<title>pitroad</title>
<g id="Joker">
	<path class="st0" d="M502.7,676.3c-8.5,4.5-17.5,7.6-26.8,9.4c-2.7,0.5-4.5,3.1-4,5.8c0.5,2.4,2.6,4.1,4.9,4.1c0.3,0,0.6,0,0.9-0.1
		c10.3-2,20.2-5.4,29.6-10.4c2.4-1.3,3.4-4.3,2.1-6.8C508.1,676,505.1,675.1,502.7,676.3z"/>
	<path class="st0" d="M413.5,440.8c-1.2-2.5-4.2-3.5-6.7-2.3c-9.4,4.6-18.1,10.5-25.9,17.5c-2,1.9-2.2,5-0.4,7.1
		c1,1.1,2.3,1.6,3.7,1.6c1.2,0,2.4-0.4,3.4-1.3c7.1-6.4,15-11.8,23.6-16C413.7,446.3,414.7,443.3,413.5,440.8z"/>
	<path class="st0" d="M546.2,638.5c-7.1,8.5-13.6,15.5-20.1,21.2c-2.1,1.8-2.2,5-0.4,7.1c1,1.1,2.4,1.7,3.7,1.7
		c1.2,0,2.4-0.4,3.3-1.3c6.8-6.1,13.7-13.4,21.1-22.3c1.8-2.1,1.5-5.3-0.7-7C551.1,636.1,547.9,636.4,546.2,638.5z"/>
	<path class="st0" d="M341.1,572.9c2.8-0.1,4.9-2.4,4.8-5.2c-0.1-1.4-0.1-2.9-0.1-4.4c0-7.6,0.8-16.1,2.3-24.4
		c0.5-2.7-1.3-5.3-4-5.8c-2.7-0.5-5.3,1.3-5.8,4c-1.6,8.9-2.5,18-2.5,26.2c0,1.6,0,3.2,0.1,4.8c0.1,2.7,2.3,4.8,5,4.8
		C341,572.9,341,572.9,341.1,572.9z"/>
	<path class="st0" d="M584.1,591.5c-6.7,7-13.3,15.5-19.5,23.5c-1.7,2.2-1.3,5.3,0.9,7c0.9,0.7,2,1,3,1c1.5,0,3-0.7,4-2
		c6-7.8,12.4-16.1,18.8-22.7c1.9-2,1.9-5.2-0.1-7.1C589.1,589.4,586,589.5,584.1,591.5z"/>
	<path class="st0" d="M349.5,513.9c0.6,0.2,1.2,0.3,1.8,0.3c2,0,3.9-1.2,4.7-3.2c3.6-9.3,8-17.9,13.1-25.7c1.5-2.3,0.9-5.4-1.4-6.9
		c-2.3-1.5-5.4-0.9-6.9,1.4c-5.5,8.4-10.3,17.7-14.1,27.6C345.6,510,346.9,512.9,349.5,513.9z"/>
	<path class="st0" d="M350.1,596.5c-0.6-2.7-3.3-4.4-6-3.8c-2.7,0.6-4.4,3.3-3.8,6c2.4,10.5,5.6,20.4,9.5,29.4c0.8,1.9,2.7,3,4.6,3
		c0.7,0,1.3-0.1,2-0.4c2.5-1.1,3.7-4,2.6-6.6C355.4,615.7,352.4,606.4,350.1,596.5z"/>
	<path class="st0" d="M394,668.5c-7.7-5.5-14.5-12.1-20.5-19.7c-1.7-2.2-4.8-2.6-7-0.9s-2.6,4.8-0.9,7c6.5,8.4,14.1,15.7,22.5,21.7
		c0.9,0.6,1.9,0.9,2.9,0.9c1.6,0,3.1-0.7,4.1-2.1C396.7,673.2,396.2,670.1,394,668.5z"/>
	<path class="st0" d="M447.4,687.2l-0.7-0.1c-9.5-0.8-18.8-2.7-27.4-5.6c-2.6-0.9-5.5,0.5-6.4,3.1c-0.9,2.6,0.5,5.5,3.1,6.4
		c9.5,3.2,19.5,5.3,29.9,6.2l0.7,0.1c0.1,0,0.3,0,0.4,0c2.6,0,4.8-2,5-4.6C452.2,689.8,450.2,687.4,447.4,687.2z"/>
	<path class="st0" d="M1002.8,559.1c-8.7-0.2-18.8-0.3-30.1-0.3c0,0,0,0,0,0c-2.7,0-5,2.2-5,5c0,2.8,2.2,5,5,5
		c11.2,0.1,21.3,0.2,29.9,0.3c0,0,0.1,0,0.1,0c2.7,0,4.9-2.2,5-4.9C1007.7,561.4,1005.5,559.1,1002.8,559.1z"/>
	<path class="st0" d="M1063.1,561.3c-8-0.7-17.3-1.2-30.2-1.6c-2.7,0-5.1,2.1-5.1,4.8c-0.1,2.8,2.1,5.1,4.8,5.1
		c12.7,0.4,21.8,0.9,29.6,1.6c0.2,0,0.3,0,0.5,0c2.6,0,4.7-2,5-4.5C1067.8,564,1065.8,561.6,1063.1,561.3z"/>
	<path class="st0" d="M1122.2,577.3c-10.7-4.9-19.8-8.4-28.8-10.8c-2.7-0.7-5.4,0.8-6.1,3.5c-0.7,2.7,0.8,5.4,3.5,6.1
		c8.4,2.3,17.1,5.6,27.2,10.2c0.7,0.3,1.4,0.5,2.1,0.5c1.9,0,3.7-1.1,4.5-2.9C1125.8,581.5,1124.7,578.5,1122.2,577.3z"/>
	<path class="st0" d="M942.7,558.7C942.7,558.7,942.7,558.7,942.7,558.7c-9.8,0-19.9,0.1-30.1,0.2c-2.8,0-5,2.3-5,5c0,2.7,2.3,5,5,5
		c0,0,0,0,0,0c10.1-0.1,20.2-0.1,30-0.2c2.8,0,5-2.2,5-5C947.7,560.9,945.4,558.7,942.7,558.7z"/>
	<path class="st0" d="M642.1,570.4c-12.5,1.5-22.6,3.1-30.2,4.9c-2.7,0.6-4.4,3.3-3.8,6c0.5,2.3,2.6,3.9,4.9,3.9
		c0.4,0,0.7,0,1.1-0.1c7.2-1.7,17-3.2,29.1-4.7c2.7-0.3,4.7-2.8,4.4-5.6C647.3,572,644.8,570.1,642.1,570.4z"/>
	<path class="st0" d="M882.6,559.2C882.6,559.2,882.6,559.2,882.6,559.2c-10.2,0.1-20.3,0.3-30.1,0.5c-2.8,0.1-5,2.3-4.9,5.1
		c0.1,2.7,2.3,4.9,5,4.9c0,0,0.1,0,0.1,0c9.8-0.2,19.9-0.3,30-0.5c2.8,0,5-2.3,4.9-5.1C887.6,561.4,885.3,559.2,882.6,559.2z"/>
	<path class="st0" d="M762.3,562.2c-10.4,0.4-20.5,0.9-30.1,1.3c-2.8,0.1-4.9,2.5-4.7,5.2c0.1,2.7,2.3,4.8,5,4.8c0.1,0,0.2,0,0.3,0
		c9.5-0.5,19.6-0.9,30-1.3c2.8-0.1,4.9-2.4,4.8-5.2C767.4,564.3,765.1,562.1,762.3,562.2z"/>
	<path class="st0" d="M702.2,565.2c-10.8,0.7-20.9,1.4-30.1,2.2c-2.8,0.2-4.8,2.6-4.6,5.4c0.2,2.6,2.4,4.6,5,4.6c0.1,0,0.3,0,0.4,0
		c9.1-0.8,19.2-1.5,29.9-2.2c2.8-0.2,4.8-2.5,4.7-5.3C707.3,567.1,704.9,565,702.2,565.2z"/>
	<path class="st0" d="M822.4,560.3c-10.3,0.3-20.4,0.5-30.1,0.8c-2.8,0.1-4.9,2.4-4.8,5.2c0.1,2.7,2.3,4.8,5,4.8c0.1,0,0.1,0,0.2,0
		c9.7-0.3,19.8-0.6,30-0.8c2.8-0.1,4.9-2.4,4.9-5.1C827.5,562.4,825.2,560.2,822.4,560.3z"/>
</g>
</svg>
