<svg id="Oval_-_Pit_Road" data-name="Oval - Pit Road" xmlns="http://www.w3.org/2000/svg" viewBox="0 0 1920 1080"><defs><style>.cls-1{fill:#0089ba;}.cls-2{fill:#d82520;}</style></defs><title>pitroad</title><g id="Mergeline"><path class="cls-1" d="M1319.24,210c-9.47-2.41-19.29-4.87-29.18-7.31a5,5,0,1,0-2.4,9.7c9.87,2.44,19.66,4.9,29.11,7.3a4.8,4.8,0,0,0,1.24.16,5,5,0,0,0,1.23-9.85Z"/><path class="cls-1" d="M1377.51,225.32c-4.92-1.4-9.94-2.69-14.93-3.84-2.58-.77-7.48-2.11-14.19-3.9a5,5,0,1,0-2.57,9.67c6.75,1.79,11.61,3.13,14,3.86l.33.08c4.88,1.12,9.79,2.38,14.6,3.75a5,5,0,0,0,2.73-9.62Z"/><path class="cls-1" d="M1544,417.88c1,5.31,1.92,10.27,2.77,15.07.42,2.38.83,4.68,1.22,6.81.41,2.42.77,4.89,1.08,7.35a5,5,0,0,0,5,4.38c.21,0,.42,0,.63,0a5,5,0,0,0,4.34-5.59q-.49-3.9-1.16-7.83-.6-3.28-1.23-6.83c-.86-4.84-1.75-9.84-2.8-15.23a5,5,0,1,0-9.81,1.91Z"/><path class="cls-1" d="M1260.83,195.59c-10.41-2.5-20.26-4.81-29.29-6.88a5,5,0,1,0-2.23,9.74c9,2.07,18.81,4.38,29.19,6.87a5.26,5.26,0,0,0,1.17.14,5,5,0,0,0,1.16-9.87Z"/><path class="cls-1" d="M1202.13,182.18c-3.91-.82-7.58-1.58-11-2.25l5.33-26.9-9.81-1.94-6.3,31.81v0a.08.08,0,0,0,0,0l-6.31,31.87,9.81,1.94,5.36-27c3.34.66,7,1.41,10.83,2.23a5.25,5.25,0,0,0,1,.11,5,5,0,0,0,1-9.9Z"/><path class="cls-1" d="M1434.15,247.75a293.06,293.06,0,0,0-27.76-12.66,5,5,0,0,0-3.67,9.3,284.24,284.24,0,0,1,26.81,12.23,5,5,0,1,0,4.62-8.87Z"/><path class="cls-1" d="M1547.25,530.73a5,5,0,0,0-6.18,3.42,263.49,263.49,0,0,1-9.68,27.81,5,5,0,1,0,9.24,3.82,273.73,273.73,0,0,0,10-28.87A5,5,0,0,0,1547.25,530.73Z"/><path class="cls-1" d="M1524.66,586.14a5,5,0,0,0-7,1.06,199.5,199.5,0,0,1-19.15,22.11,5,5,0,1,0,7.1,7,210.47,210.47,0,0,0,20.1-23.22A5,5,0,0,0,1524.66,586.14Z"/><path class="cls-1" d="M1542,392.72a5,5,0,0,0,4.81-6.37,251,251,0,0,0-10.08-28.88,5,5,0,0,0-9.22,3.88,242,242,0,0,1,9.68,27.74A5,5,0,0,0,1542,392.72Z"/><path class="cls-1" d="M1555.56,471.43a5,5,0,0,0-5.15,4.85,221.26,221.26,0,0,1-2.87,29.18,5,5,0,0,0,4.13,5.74,4.51,4.51,0,0,0,.81.07,5,5,0,0,0,4.93-4.19,232.61,232.61,0,0,0,3-30.51A5,5,0,0,0,1555.56,471.43Z"/><path class="cls-1" d="M1477.79,276.44a186.37,186.37,0,0,0-17.36-13.09,5,5,0,0,0-5.6,8.28A180.74,180.74,0,0,1,1471.25,284c2.18,1.9,4.35,3.85,6.44,5.8a5,5,0,0,0,6.83-7.3C1482.34,280.46,1480.08,278.42,1477.79,276.44Z"/><path class="cls-1" d="M1514.38,335.2a5,5,0,1,0,8.59-5.11,213.26,213.26,0,0,0-17.54-25.17,5,5,0,0,0-7.78,6.29A204.27,204.27,0,0,1,1514.38,335.2Z"/><path class="cls-1" d="M1476.65,629c-7.48,6.06-15.49,11.92-23.81,17.44a5,5,0,0,0,5.53,8.34c8.58-5.7,16.85-11.75,24.57-18a5,5,0,0,0-6.29-7.77Z"/></g><g id="Pitroad"><path class="cls-2" d="M765.6,700.44l-30.1-.3h0a2.5,2.5,0,0,0,0,5l30.1.3h0a2.5,2.5,0,0,0,0-5Z"/><path class="cls-2" d="M409.4,592.28a2.5,2.5,0,0,0-4,3c5.71,7.69,12,15.62,18.8,23.57a2.5,2.5,0,0,0,3.81-3.25C421.29,607.72,415,599.88,409.4,592.28Z"/><path class="cls-2" d="M645.16,698.85c-14.76-.3-24.89-.61-30.11-.91a2.5,2.5,0,0,0-.29,5c5.28.3,15.47.61,30.3.91h.05a2.5,2.5,0,0,0,0-5Z"/><path class="cls-2" d="M585.6,694c-9.57-1.8-19.31-4.14-28.92-6.94a2.5,2.5,0,0,0-1.4,4.8c9.77,2.84,19.66,5.22,29.4,7.06a2.38,2.38,0,0,0,.46,0,2.5,2.5,0,0,0,.46-5Z"/><path class="cls-2" d="M705.4,699.79c-10.77-.14-20.85-.28-30.11-.42h0a2.5,2.5,0,0,0,0,5c9.27.14,19.35.28,30.13.42h0a2.5,2.5,0,0,0,0-5Z"/><path class="cls-2" d="M475,651.19c-8.78-5.25-17.16-10.75-24.91-16.35a2.5,2.5,0,1,0-2.93,4c7.86,5.69,16.37,11.27,25.28,16.59a2.5,2.5,0,1,0,2.56-4.29Z"/><path class="cls-2" d="M350.6,399h.16a2.51,2.51,0,0,0,2.5-2.34c.61-9.22,1.5-19.25,2.63-29.81a2.5,2.5,0,1,0-5-.53c-1.13,10.62-2,20.72-2.64,30A2.5,2.5,0,0,0,350.6,399Z"/><path class="cls-2" d="M356.69,339.22l.34,0a2.51,2.51,0,0,0,2.48-2.17c2.36-17.43,4.43-29.53,4.45-29.65a2.5,2.5,0,0,0-4.93-.85c0,.12-2.1,12.31-4.48,29.83A2.5,2.5,0,0,0,356.69,339.22Z"/><path class="cls-2" d="M378.56,541.55a2.5,2.5,0,1,0-4.52,2.13,276.78,276.78,0,0,0,14.4,26.59,2.5,2.5,0,0,0,4.26-2.62A271.08,271.08,0,0,1,378.56,541.55Z"/><path class="cls-2" d="M360,485.28a2.5,2.5,0,0,0-4.88,1.06,287.75,287.75,0,0,0,7.79,29.2,2.51,2.51,0,0,0,2.38,1.73,2.36,2.36,0,0,0,.78-.13,2.49,2.49,0,0,0,1.59-3.15A286,286,0,0,1,360,485.28Z"/><path class="cls-2" d="M352.16,426.48a2.5,2.5,0,0,0-2.5-2.5h0a2.5,2.5,0,0,0-2.5,2.5c0,12.29.77,22.49,2.22,30.34a2.52,2.52,0,0,0,2.46,2.05,2.54,2.54,0,0,0,2.46-3C352.9,448.36,352.18,438.46,352.16,426.48Z"/><path class="cls-2" d="M528.5,677.43c-9.13-3.58-18.3-7.62-27.26-12a2.5,2.5,0,0,0-2.21,4.49c9.09,4.47,18.39,8.57,27.65,12.19a2.42,2.42,0,0,0,.91.18,2.5,2.5,0,0,0,.91-4.83Z"/><path class="cls-2" d="M1247,703.46l-30.15-.13h0a2.5,2.5,0,0,0,0,5l30.15.13h0a2.5,2.5,0,0,0,0-5Z"/><path class="cls-2" d="M1307,700.11c-13.07,1.48-24.33,2.55-29.87,3a2.5,2.5,0,0,0,.22,5h.23c5.57-.51,16.87-1.57,30-3.06a2.5,2.5,0,0,0-.56-5Z"/><path class="cls-2" d="M1186.76,703.19l-30.11-.14h0a2.5,2.5,0,0,0,0,5l30.11.14h0a2.5,2.5,0,0,0,0-5Z"/><path class="cls-2" d="M1366.12,691.16c-7.69,1.72-17.58,3.45-29.42,5.16a2.5,2.5,0,0,0,.36,5l.36,0c12-1.73,22-3.49,29.79-5.23a2.5,2.5,0,0,0-1.09-4.88Z"/><path class="cls-2" d="M1420.65,668.16c-9.15,4.88-18.16,9.31-26.76,13.18a2.5,2.5,0,0,0,1,4.78,2.48,2.48,0,0,0,1-.22c8.71-3.91,17.81-8.4,27.06-13.33a2.5,2.5,0,1,0-2.35-4.41Z"/><path class="cls-2" d="M946.08,701.86l-30.09-.2h0a2.5,2.5,0,0,0,0,5l30.09.2h0a2.5,2.5,0,0,0,0-5Z"/><path class="cls-2" d="M885.91,701.45l-30.07-.23h0a2.5,2.5,0,0,0,0,5l30.08.23h0a2.5,2.5,0,0,0,0-5Z"/><path class="cls-2" d="M825.76,701l-30.08-.26a2.5,2.5,0,0,0,0,5l30.08.26h0a2.5,2.5,0,0,0,0-5Z"/><path class="cls-2" d="M1006.22,702.24l-30.07-.19h0a2.5,2.5,0,0,0,0,5l30.07.19h0a2.5,2.5,0,0,0,0-5Z"/><path class="cls-2" d="M1066.38,702.58l-30.08-.17h0a2.5,2.5,0,0,0,0,5l30.08.17h0a2.5,2.5,0,0,0,0-5Z"/><path class="cls-2" d="M1126.55,702.9l-30.09-.16h0a2.5,2.5,0,0,0,0,5l30.1.16h0a2.5,2.5,0,0,0,0-5Z"/><polygon class="cls-2" points="1408.38 656.89 1424.54 668.87 1427.13 688.82 1455.6 650.63 1408.38 656.89"/></g></svg>