<?xml version="1.0" encoding="utf-8"?>
<!-- Generator: Adobe Illustrator 24.0.1, SVG Export Plug-In . SVG Version: 6.00 Build 0)  -->
<svg version="1.1" id="Rallycross_-_Pit_Road" xmlns="http://www.w3.org/2000/svg" xmlns:xlink="http://www.w3.org/1999/xlink"
	 x="0px" y="0px" viewBox="0 0 1920 1080" style="enable-background:new 0 0 1920 1080;" xml:space="preserve">
<style type="text/css">
	.st0{fill:#FF9100;}
</style>
<title>pitroad</title>
<g id="Joker">
	<path class="st0" d="M1648.2,631.2c-9.7,2.1-19.5,4.2-29.4,6.4c-2.7,0.6-4.4,3.2-3.8,5.9c0.5,2.3,2.6,3.9,4.9,3.9
		c0.4,0,0.7,0,1.1-0.1c9.8-2.1,19.7-4.3,29.4-6.4c2.7-0.6,4.4-3.2,3.8-5.9C1653.6,632.3,1650.9,630.6,1648.2,631.2z"/>
	<path class="st0" d="M1589.5,644c-9.9,2.2-19.8,4.3-29.4,6.4c-2.7,0.6-4.4,3.3-3.8,6c0.5,2.3,2.6,3.9,4.9,3.9c0.4,0,0.7,0,1.1-0.1
		c9.6-2.1,19.4-4.3,29.4-6.4c2.7-0.6,4.4-3.3,3.8-6C1594.8,645.1,1592.2,643.4,1589.5,644z"/>
	<path class="st0" d="M1472,669.8c-18.3,4.1-29.5,6.5-29.5,6.5c-2.7,0.6-4.4,3.3-3.8,6c0.5,2.3,2.6,3.9,4.9,3.9c0.4,0,0.7,0,1.1-0.1
		c0,0,11.2-2.5,29.4-6.5c2.7-0.6,4.4-3.3,3.8-6C1477.4,670.9,1474.7,669.2,1472,669.8z"/>
	<path class="st0" d="M1530.8,656.8c-10.4,2.3-20.3,4.5-29.4,6.5c-2.7,0.6-4.4,3.3-3.8,6c0.5,2.3,2.6,3.9,4.9,3.9
		c0.4,0,0.7,0,1.1-0.1c9.1-2,19-4.2,29.4-6.5c2.7-0.6,4.4-3.3,3.8-6S1533.5,656.2,1530.8,656.8z"/>
	<path class="st0" d="M1707,618.6c-9.4,2-19.2,4.1-29.4,6.3c-2.7,0.6-4.4,3.2-3.8,5.9c0.5,2.3,2.6,4,4.9,4c0.3,0,0.7,0,1.1-0.1
		c10.2-2.2,20-4.3,29.4-6.3c2.7-0.6,4.4-3.2,3.9-5.9C1712.4,619.8,1709.7,618,1707,618.6z"/>
	<path class="st0" d="M1800.7,578.4c-2.6-1-5.5,0.2-6.5,2.7c-1.8,4.5-4,8.5-6.4,11.8c-1.6,2.2-1.2,5.4,1.1,7c0.9,0.7,1.9,1,3,1
		c1.5,0,3-0.7,4-2c2.9-3.9,5.5-8.6,7.6-13.9C1804.5,582.3,1803.2,579.4,1800.7,578.4z"/>
	<path class="st0" d="M1765.8,606.5c-1.8,0.4-3.6,0.7-5.3,1.1c-0.9,0.2-1.8,0.3-2.7,0.5c-6.2,1.2-13.4,2.7-21.3,4.4
		c-2.7,0.6-4.4,3.2-3.9,5.9c0.5,2.4,2.6,4,4.9,4c0.3,0,0.7,0,1-0.1c7.9-1.6,15.1-3.1,21.3-4.3c0.8-0.2,1.7-0.3,2.6-0.5
		c1.8-0.3,3.7-0.7,5.7-1.1c2.7-0.6,4.4-3.3,3.8-6C1771.2,607.6,1768.5,605.9,1765.8,606.5z"/>
</g>
</svg>
