<?xml version="1.0" encoding="utf-8"?>
<!-- Generator: Adobe Illustrator 24.0.1, SVG Export Plug-In . SVG Version: 6.00 Build 0)  -->
<svg version="1.1" id="Charlotte_Dirt_Pit_Road" xmlns="http://www.w3.org/2000/svg" xmlns:xlink="http://www.w3.org/1999/xlink"
	 x="0px" y="0px" viewBox="0 0 1920 1080" style="enable-background:new 0 0 1920 1080;" xml:space="preserve">
<style type="text/css">
	.st0{fill:#D82520;}
</style>
<title>pitroad</title>
<g>
	<path class="st0" d="M744.6,429.1c-8.9,6.4-15.9,14-21,22.5c-0.7,1.2-0.3,2.7,0.9,3.4c0.4,0.2,0.8,0.4,1.3,0.4
		c0.8,0,1.7-0.4,2.1-1.2c4.8-7.9,11.4-15,19.7-21c1.1-0.8,1.4-2.4,0.6-3.5C747.3,428.6,745.8,428.3,744.6,429.1z"/>
	<path class="st0" d="M790.7,597.7c-9.5-5.4-17.7-10.7-25.1-16c-1.1-0.8-2.7-0.6-3.5,0.6c-0.8,1.1-0.6,2.7,0.6,3.5
		c7.5,5.4,15.9,10.7,25.5,16.3c0.4,0.2,0.8,0.3,1.2,0.3c0.9,0,1.7-0.5,2.2-1.3C792.4,599.9,791.9,598.4,790.7,597.7z"/>
	<path class="st0" d="M844.2,624.4c-10.2-4.6-19-8.8-27.1-12.7c-1.2-0.6-2.7-0.1-3.3,1.1c-0.6,1.2-0.1,2.7,1.1,3.3
		c8.1,4,17,8.2,27.2,12.8c0.3,0.2,0.7,0.2,1,0.2c1,0,1.9-0.5,2.3-1.5C846,626.5,845.5,625,844.2,624.4z"/>
	<path class="st0" d="M796.7,398.6c-9.6,5.2-18.4,10.1-26.3,14.7c-1.2,0.7-1.6,2.2-0.9,3.4c0.5,0.8,1.3,1.3,2.2,1.3
		c0.4,0,0.9-0.1,1.2-0.3c7.8-4.5,16.6-9.4,26.2-14.6c1.2-0.7,1.7-2.2,1-3.4C799.4,398.4,797.9,398,796.7,398.6z"/>
	<path class="st0" d="M982,267.9c-1.4,0-2.5,1.2-2.4,2.6c0.1,5.7,0.3,10.3,0.4,13.7c0,1.1,0.1,2.3,0.1,3.4c0,3.4-0.2,7.5-2,11.6
		c-0.5,1.3,0.1,2.7,1.3,3.3c0.3,0.1,0.6,0.2,1,0.2c1,0,1.9-0.6,2.3-1.5c2.1-4.9,2.4-9.6,2.4-13.6c0-1.2,0-2.4-0.1-3.6
		c-0.1-3.4-0.2-7.9-0.4-13.6C984.6,268.9,983.4,267.8,982,267.9z"/>
	<path class="st0" d="M980.9,207.8c-1.4,0-2.5,1.2-2.5,2.5c0.2,10,0.3,20.3,0.5,30.1c0,1.4,1.1,2.5,2.5,2.5c0,0,0,0,0,0
		c1.4,0,2.5-1.2,2.5-2.5c-0.2-9.7-0.4-20-0.5-30.1C983.4,208.8,982.3,207.7,980.9,207.8z"/>
	<path class="st0" d="M850,370.7c-9.2,4.7-18.2,9.3-26.7,13.8c-1.2,0.6-1.7,2.2-1.1,3.4c0.4,0.9,1.3,1.3,2.2,1.3
		c0.4,0,0.8-0.1,1.2-0.3c8.5-4.5,17.5-9.1,26.7-13.7c1.2-0.6,1.7-2.1,1.1-3.4C852.7,370.6,851.2,370.1,850,370.7z"/>
	<path class="st0" d="M726.5,538.9c-0.6-1.3-2.1-1.8-3.3-1.2c-1.2,0.6-1.8,2.1-1.2,3.3c4,8.6,10,17,17.7,25.1
		c0.5,0.5,1.1,0.8,1.8,0.8c0.6,0,1.2-0.2,1.7-0.7c1-1,1-2.5,0.1-3.5C735.9,554.9,730.3,546.9,726.5,538.9z"/>
	<path class="st0" d="M718,493.5c0-4.2,0.2-8.2,0.7-12.1c0.2-1.4-0.8-2.6-2.2-2.8c-1.4-0.2-2.6,0.8-2.8,2.2c-0.5,4-0.8,8.3-0.8,12.7
		c0,5.6,0.4,11.6,1.3,17.8c0.2,1.3,1.2,2.2,2.5,2.2c0.1,0,0.2,0,0.3,0c1.4-0.2,2.3-1.4,2.1-2.8C718.4,504.6,718,498.9,718,493.5z"/>
	<path class="st0" d="M980.5,182.7C980.5,182.7,980.5,182.7,980.5,182.7c1.4,0,2.5-1.2,2.5-2.5c-0.3-17.6-0.5-30.1-0.5-30.1
		c0-1.4-1.1-2.5-2.5-2.5c-1.4,0-2.5,1.2-2.5,2.5c0,0,0.2,12.5,0.5,30.1C978,181.6,979.1,182.7,980.5,182.7z"/>
	<path class="st0" d="M977.6,726.8C977.6,726.8,977.6,726.8,977.6,726.8c1.4,0,2.5-1.2,2.5-2.5c-0.1-11.4-2-21.5-5.6-30.2
		c-0.5-1.3-2-1.9-3.3-1.4c-1.3,0.5-1.9,2-1.4,3.3c3.3,8.1,5.1,17.6,5.2,28.4C975.1,725.7,976.2,726.8,977.6,726.8z"/>
	<path class="st0" d="M1043.7,875.4c-14.1-7.7-21.7-12.9-21.8-13c-1.2-0.8-2.4-1.6-3.5-2.4c-1.1-0.8-2.7-0.6-3.5,0.6
		c-0.8,1.1-0.6,2.7,0.6,3.5c1.2,0.8,2.4,1.7,3.6,2.5c0.3,0.2,7.8,5.5,22.3,13.3c0.4,0.2,0.8,0.3,1.2,0.3c0.9,0,1.7-0.5,2.2-1.3
		C1045.4,877.6,1044.9,876.1,1043.7,875.4z"/>
	<path class="st0" d="M985.6,813.1c-0.4-1.3-1.8-2.1-3.1-1.7c-1.3,0.4-2.1,1.8-1.7,3.1c3.1,10.7,7.3,19.8,12.9,27.8
		c0.5,0.7,1.3,1.1,2.1,1.1c0.5,0,1-0.1,1.4-0.4c1.1-0.8,1.4-2.3,0.6-3.5C992.6,831.9,988.6,823.3,985.6,813.1z"/>
	<path class="st0" d="M900.1,645.3c-4.7-1.6-9-3.1-13.2-4.5c-5.3-1.8-10.3-3.4-15.2-5.2c-1.3-0.5-2.7,0.2-3.2,1.5
		c-0.5,1.3,0.2,2.7,1.5,3.2c4.9,1.8,9.9,3.4,15.2,5.2c4.1,1.4,8.5,2.8,13.1,4.5c0.3,0.1,0.5,0.1,0.8,0.1c1,0,2-0.6,2.4-1.7
		C902.1,647.2,901.4,645.8,900.1,645.3z"/>
	<path class="st0" d="M1097.1,905c1,0,2-0.6,2.3-1.6c0.5-1.3-0.1-2.7-1.4-3.2c-9.4-3.6-18.7-7.5-27.5-11.5c-1.3-0.6-2.7,0-3.3,1.2
		c-0.6,1.3,0,2.7,1.2,3.3c9,4.1,18.3,8,27.8,11.7C1096.5,905,1096.8,905,1097.1,905z"/>
	<path class="st0" d="M979.8,754.3c0-1.4-1.2-2.5-2.5-2.5c-1.4,0-2.5,1.1-2.5,2.5c0.1,10,0.5,20.1,1.1,30.1c0.1,1.3,1.2,2.3,2.5,2.3
		c0.1,0,0.1,0,0.2,0c1.4-0.1,2.4-1.3,2.3-2.7C980.3,774.3,979.9,764.2,979.8,754.3z"/>
	<path class="st0" d="M903.8,344.1c-8.8,4.2-17.9,8.7-27,13.2c-1.2,0.6-1.7,2.1-1.1,3.3c0.4,0.9,1.3,1.4,2.2,1.4
		c0.4,0,0.8-0.1,1.1-0.3c9.1-4.5,18.2-8.9,27-13.1c1.2-0.6,1.8-2.1,1.2-3.3C906.6,344,905.1,343.5,903.8,344.1z"/>
	<path class="st0" d="M955.6,669.6c-8.8-6.7-18.3-10.4-25.9-13.4l-1.3-0.5c-1.3-0.5-2.7,0.1-3.2,1.4c-0.5,1.3,0.1,2.7,1.4,3.2
		l1.3,0.5c7.3,2.9,16.4,6.4,24.7,12.7c0.5,0.3,1,0.5,1.5,0.5c0.8,0,1.5-0.3,2-1C956.9,672,956.7,670.4,955.6,669.6z"/>
	<path class="st0" d="M957.8,318.3c-4.1,2.4-8.9,4.8-14.4,7.3c-3.9,1.8-8,3.7-12.4,5.7c-1.3,0.6-1.8,2.1-1.2,3.3
		c0.4,0.9,1.3,1.5,2.3,1.5c0.4,0,0.7-0.1,1-0.2c4.4-2,8.5-3.9,12.4-5.7c5.6-2.5,10.6-5,14.8-7.5c1.2-0.7,1.6-2.2,0.9-3.4
		C960.6,318,959,317.6,957.8,318.3z"/>
	<polygon class="st0" points="1098.7,883.5 1100.1,903.6 1086.7,918.5 1134.2,915.3 	"/>
</g>
</svg>
