<svg id="Pit_Road" data-name="Pit Road" xmlns="http://www.w3.org/2000/svg" viewBox="0 0 1920 1080"><defs><style>.cls-1{fill:#d82520;}</style></defs><path class="cls-1" d="M433.43,283.41c-8.83.53-18.88,2.78-29.86,6.68a2.5,2.5,0,0,0,.84,4.85,2.37,2.37,0,0,0,.83-.14c10.54-3.74,20.13-5.89,28.5-6.4a2.5,2.5,0,0,0-.31-5Z"/><path class="cls-1" d="M493.57,282.06c-10.88,0-21,.1-30.05.27a2.5,2.5,0,0,0,0,5h.05c9-.17,19.12-.26,30-.27a2.5,2.5,0,0,0,0-5Z"/><path class="cls-1" d="M553.64,282.74c-10.83-.22-20.65-.37-30-.48h0a2.5,2.5,0,0,0,0,5c9.37.11,19.18.26,30,.47h.05a2.5,2.5,0,0,0,0-5Z"/><path class="cls-1" d="M319.83,322.41c-8.16,2.59-17.37,5.46-28,8.79l-.57.18a2.5,2.5,0,0,0,.75,4.89,2.45,2.45,0,0,0,.75-.12l.56-.18c10.67-3.33,19.88-6.2,28-8.79a2.5,2.5,0,1,0-1.51-4.77Z"/><path class="cls-1" d="M375.88,302.09c-8.54,3.86-17.07,7.24-27.65,11a2.5,2.5,0,0,0,.82,4.86,2.37,2.37,0,0,0,.83-.14c10.73-3.76,19.38-7.19,28.06-11.11a2.5,2.5,0,0,0-2.06-4.56Z"/><path class="cls-1" d="M793.79,287.85c-5.45-.34-11.94-.48-22.4-.48l-7.75,0a2.5,2.5,0,0,0,0,5h0l7.73,0c10.34,0,16.75.14,22.09.47h.16a2.5,2.5,0,0,0,.15-5Z"/><path class="cls-1" d="M733.67,287.2c-8.86-.13-18.67-.32-30-.58a2.5,2.5,0,1,0-.11,5c11.33.26,21.16.45,30,.58h0a2.5,2.5,0,0,0,0-5Z"/><path class="cls-1" d="M613.68,284.19c-10-.27-20-.54-30-.79a2.5,2.5,0,1,0-.12,5c10,.25,20,.51,30,.79h.07a2.5,2.5,0,0,0,.06-5Z"/><path class="cls-1" d="M673.68,285.86c-9.79-.26-19.83-.55-30-.83a2.5,2.5,0,1,0-.14,5l30,.84h.07a2.5,2.5,0,0,0,.06-5Z"/><path class="cls-1" d="M855.52,348.7l-8.58-46.86-9.65,14.45c-5.68-8.32-9.79-13.88-12.22-16.53-.64-.7-1.28-1.35-1.93-2a2.5,2.5,0,0,0-3.44,3.63c.56.52,1.13,1.1,1.68,1.7,2.24,2.45,6.26,7.91,11.74,15.92L816,322.15Z"/></svg>