<svg id="Rally_Short_-_Pit_Road" data-name="Rally Short - Pit Road" xmlns="http://www.w3.org/2000/svg" viewBox="0 0 1920 1080"><defs><style>.cls-1{fill:#ff9100;}</style></defs><g id="Joker"><path class="cls-1" d="M1357,644.05l-17.82-12.38,12.43-7.82L1305,614l25.48,40.25,3-14.37,17.81,12.38a5,5,0,0,0,5.71-8.21Z"/><path class="cls-1" d="M1406.31,678.29l-24.64-17.12a5,5,0,0,0-5.7,8.21l24.63,17.13a5,5,0,0,0,5.71-8.22Z"/><path class="cls-1" d="M1453.71,711.24l-22.77-15.82a5,5,0,1,0-5.7,8.21L1448,719.46a5,5,0,1,0,5.7-8.22Z"/></g></svg>