<?xml version="1.0" encoding="utf-8"?>
<!-- Generator: Adobe Illustrator 24.2.0, SVG Export Plug-In . SVG Version: 6.00 Build 0)  -->
<svg version="1.1" id="Rally_Long_-_Pit_Road" xmlns="http://www.w3.org/2000/svg" xmlns:xlink="http://www.w3.org/1999/xlink"
	 x="0px" y="0px" viewBox="0 0 1920 1080" style="enable-background:new 0 0 1920 1080;" xml:space="preserve">
<style type="text/css">
	.st0{fill:#FF9100;}
</style>
<g id="Joker">
	<path class="st0" d="M1315.8,617l-12.4-8.4c-2.3-1.5-5.4-0.9-6.9,1.3c-1.5,2.3-0.9,5.4,1.3,6.9l0,0l12.4,8.4
		c2.3,1.5,5.4,0.9,6.9-1.3C1318.7,621.7,1318.1,618.5,1315.8,617z"/>
	<path class="st0" d="M1366.5,651.3l-25.4-17.2c-2.3-1.5-5.4-0.9-6.9,1.3c-1.5,2.3-0.9,5.4,1.3,6.9l25.4,17.1c2.2,1.6,5.4,1.1,7-1.1
		c1.6-2.2,1.1-5.4-1.1-7C1366.7,651.4,1366.6,651.3,1366.5,651.3L1366.5,651.3z"/>
	<path class="st0" d="M1417.3,685.5l-25.4-17.2c-2.3-1.5-5.4-0.9-6.9,1.3c-1.5,2.3-0.9,5.4,1.3,6.9l25.4,17.1
		c2.3,1.5,5.4,0.8,6.9-1.5C1420,690,1419.4,687.1,1417.3,685.5L1417.3,685.5z"/>
	<path class="st0" d="M1455.1,711.1l-12.4-8.4c-2.3-1.6-5.4-1-7,1.3c-1.6,2.3-1,5.4,1.3,7l12.4,8.4c2.3,1.5,5.4,0.9,6.9-1.3
		C1457.9,715.8,1457.3,712.7,1455.1,711.1L1455.1,711.1z"/>
</g>
</svg>
