<?xml version="1.0" encoding="utf-8"?>
<!-- Generator: Adobe Illustrator 24.0.1, SVG Export Plug-In . SVG Version: 6.00 Build 0)  -->
<svg version="1.1" id="_2000_Moto_-_Pit_Road" xmlns="http://www.w3.org/2000/svg" xmlns:xlink="http://www.w3.org/1999/xlink"
	 x="0px" y="0px" viewBox="0 0 1920 1080" style="enable-background:new 0 0 1920 1080;" xml:space="preserve">
<style type="text/css">
	.st0{fill:#D82520;}
</style>
<title>pitroad</title>
<g id="Pitroad">
	<path class="st0" d="M483.2,650.7c-9.2-3.9-18.1-8.4-26.4-13.4c-1.2-0.7-2.7-0.3-3.4,0.9c-0.7,1.2-0.3,2.7,0.9,3.4
		c8.5,5.1,17.6,9.7,27,13.7c0.3,0.1,0.6,0.2,1,0.2c1,0,1.9-0.6,2.3-1.5C485.1,652.7,484.5,651.3,483.2,650.7z"/>
	<path class="st0" d="M503.4,316.1c-10.9,4.5-20.3,8.3-27.9,11.4c-1.3,0.5-1.9,2-1.4,3.3c0.4,1,1.3,1.6,2.3,1.6
		c0.3,0,0.6-0.1,0.9-0.2c7.5-3.1,17-6.9,27.9-11.4c1.3-0.5,1.9-2,1.4-3.3C506.1,316.1,504.7,315.5,503.4,316.1z"/>
	<path class="st0" d="M559,293.2c-9.7,4-19,7.8-27.8,11.4c-1.3,0.5-1.9,2-1.4,3.3c0.4,1,1.3,1.6,2.3,1.6c0.3,0,0.6-0.1,0.9-0.2
		c8.8-3.6,18.1-7.4,27.8-11.4c1.3-0.5,1.9-2,1.4-3.3C561.8,293.3,560.3,292.7,559,293.2z"/>
	<path class="st0" d="M447.6,339.6c-5.9,3.3-15,9.1-25,17.3c-1.1,0.9-1.2,2.5-0.3,3.5c0.5,0.6,1.2,0.9,1.9,0.9
		c0.6,0,1.1-0.2,1.6-0.6c9.8-8,18.6-13.6,24.3-16.9c1.2-0.7,1.6-2.2,0.9-3.4C450.3,339.4,448.8,339,447.6,339.6z"/>
	<path class="st0" d="M540.2,666.9c-9.9-1.6-19.7-3.7-29-6.4c-1.3-0.4-2.7,0.4-3.1,1.7c-0.4,1.3,0.4,2.7,1.7,3.1
		c9.5,2.7,19.5,4.9,29.6,6.5c0.1,0,0.3,0,0.4,0c1.2,0,2.3-0.9,2.5-2.1C542.5,668.4,541.6,667.1,540.2,666.9z"/>
	<path class="st0" d="M400.8,378.2c-6.7,7.8-12.7,16.2-17.6,24.8c-0.7,1.2-0.3,2.7,0.9,3.4c0.4,0.2,0.8,0.3,1.2,0.3
		c0.9,0,1.7-0.5,2.2-1.3c4.8-8.4,10.5-16.5,17-24.1c0.9-1,0.8-2.6-0.3-3.5C403.3,377.1,401.7,377.2,400.8,378.2z"/>
	<path class="st0" d="M369.3,490.7c-0.1-1.4-1.3-2.4-2.7-2.3c-1.4,0.1-2.4,1.3-2.3,2.7c0.8,9.7,2.4,19.8,4.8,30
		c0.3,1.1,1.3,1.9,2.4,1.9c0.2,0,0.4,0,0.6-0.1c1.3-0.3,2.2-1.7,1.8-3C371.7,510,370.1,500.2,369.3,490.7z"/>
	<path class="st0" d="M374.1,429.3c-1.3-0.4-2.7,0.3-3.1,1.6c-3.1,9.6-5.2,19.6-6.3,29.8c-0.1,1.4,0.9,2.6,2.2,2.7
		c0.1,0,0.2,0,0.3,0c1.3,0,2.3-1,2.5-2.2c1-9.9,3.1-19.5,6.1-28.8C376.1,431.1,375.4,429.7,374.1,429.3z"/>
	<path class="st0" d="M391,567.8c-3-6.5-5.8-13.1-8.2-19.5c-0.5-1.3-1.9-1.9-3.2-1.5c-1.3,0.5-1.9,1.9-1.5,3.2
		c2.5,6.5,5.3,13.2,8.3,19.9c1.2,2.6,2.6,5.3,4,7.9c0.5,0.8,1.3,1.3,2.2,1.3c0.4,0,0.8-0.1,1.2-0.3c1.2-0.7,1.7-2.2,1-3.4
		C393.5,572.8,392.2,570.3,391,567.8z"/>
	<path class="st0" d="M599.5,670.3c-10.1,0.4-20.1,0.3-29.8-0.2c-1.4-0.1-2.6,1-2.6,2.4c-0.1,1.4,1,2.6,2.4,2.6
		c5.7,0.3,11.6,0.5,17.5,0.5c4.2,0,8.5-0.1,12.8-0.2c1.4-0.1,2.5-1.2,2.4-2.6C602.1,671.3,600.9,670.3,599.5,670.3z"/>
	<path class="st0" d="M411.6,599.5c-0.9-1.1-2.5-1.2-3.5-0.3c-1.1,0.9-1.2,2.5-0.3,3.5c6.4,7.5,13.7,14.7,21.7,21.3
		c0.5,0.4,1,0.6,1.6,0.6c0.7,0,1.4-0.3,1.9-0.9c0.9-1.1,0.7-2.6-0.3-3.5C424.9,613.8,417.8,606.8,411.6,599.5z"/>
	<path class="st0" d="M779.2,683.3c-9.7-1.7-19.7-3.4-29.7-4.8c-1.4-0.2-2.6,0.7-2.8,2.1c-0.2,1.4,0.7,2.6,2.1,2.8
		c10,1.5,19.9,3.1,29.5,4.8c0.1,0,0.3,0,0.4,0c1.2,0,2.2-0.8,2.5-2.1C781.5,684.9,780.6,683.6,779.2,683.3z"/>
	<path class="st0" d="M835.3,174.9c-8.3,3.8-17.5,8-27.3,12.4c-1.3,0.6-1.8,2-1.3,3.3c0.4,0.9,1.3,1.5,2.3,1.5c0.3,0,0.7-0.1,1-0.2
		c9.9-4.4,19.1-8.6,27.4-12.5c1.3-0.6,1.8-2.1,1.2-3.3C838,174.9,836.5,174.3,835.3,174.9z"/>
	<path class="st0" d="M780.5,199.6c-8.7,3.8-18,7.9-27.5,12c-1.3,0.5-1.8,2-1.3,3.3c0.4,0.9,1.3,1.5,2.3,1.5c0.3,0,0.7-0.1,1-0.2
		c9.6-4.2,18.8-8.2,27.6-12c1.3-0.6,1.8-2,1.3-3.3C783.2,199.6,781.7,199,780.5,199.6z"/>
	<path class="st0" d="M888.8,148c-8.9,5-15.9,8.8-20.8,11.2c-1.8,0.9-3.7,1.8-5.6,2.8c-1.2,0.6-1.8,2.1-1.1,3.3
		c0.4,0.9,1.3,1.4,2.2,1.4c0.4,0,0.7-0.1,1.1-0.3c2-1,3.9-1.9,5.7-2.8c4.9-2.5,12-6.3,21-11.3c1.2-0.7,1.6-2.2,1-3.4
		C891.5,147.8,890,147.3,888.8,148z"/>
	<path class="st0" d="M719.7,674.6c-10-1.1-20.1-2.1-29.9-2.9c-1.4-0.1-2.6,0.9-2.7,2.3c-0.1,1.4,0.9,2.6,2.3,2.7
		c9.8,0.8,19.8,1.7,29.8,2.9c0.1,0,0.2,0,0.3,0c1.3,0,2.3-0.9,2.5-2.2C722,676,721,674.8,719.7,674.6z"/>
	<path class="st0" d="M670,247c-9.3,3.9-18.5,7.8-27.7,11.6c-1.3,0.5-1.9,2-1.3,3.3c0.4,1,1.3,1.5,2.3,1.5c0.3,0,0.6-0.1,1-0.2
		c9.2-3.8,18.4-7.7,27.7-11.6c1.3-0.5,1.9-2,1.3-3.3C672.8,247,671.3,246.4,670,247z"/>
	<path class="st0" d="M659.7,669.9c-10.4-0.4-20.5-0.6-30.1-0.6c-1.4,0-2.5,1.1-2.5,2.5c0,1.4,1.1,2.5,2.5,2.5c0,0,0,0,0,0
		c9.5,0,19.5,0.2,29.9,0.6c0,0,0.1,0,0.1,0c1.3,0,2.4-1.1,2.5-2.4C662.1,671.1,661.1,670,659.7,669.9z"/>
	<path class="st0" d="M725.3,223.5c-9.1,3.9-18.4,7.9-27.6,11.8c-1.3,0.5-1.9,2-1.3,3.3c0.4,1,1.3,1.5,2.3,1.5c0.3,0,0.7-0.1,1-0.2
		c9.3-3.9,18.5-7.9,27.7-11.8c1.3-0.5,1.9-2,1.3-3.3C728.1,223.5,726.6,222.9,725.3,223.5z"/>
	<path class="st0" d="M614.6,270.2c-9.4,3.9-18.7,7.8-27.8,11.5c-1.3,0.5-1.9,2-1.4,3.3c0.4,1,1.3,1.5,2.3,1.5c0.3,0,0.6-0.1,1-0.2
		c9-3.7,18.3-7.6,27.8-11.5c1.3-0.5,1.9-2,1.3-3.3C617.3,270.3,615.8,269.7,614.6,270.2z"/>
	<path class="st0" d="M967.5,104.7l-47.2,6.6l14.1,10.3c-6.9,4.1-13.5,8-19.6,11.5c-1.2,0.7-1.6,2.2-0.9,3.4
		c0.5,0.8,1.3,1.2,2.2,1.2c0.4,0,0.9-0.1,1.3-0.3c6.1-3.6,12.7-7.5,19.6-11.5l2.4,17.2L967.5,104.7z"/>
</g>
</svg>
