<?xml version="1.0" encoding="utf-8"?>
<!-- Generator: Adobe Illustrator 24.0.1, SVG Export Plug-In . SVG Version: 6.00 Build 0)  -->
<svg version="1.1" id="_1000_Chicane_-_Pit_Road" xmlns="http://www.w3.org/2000/svg" xmlns:xlink="http://www.w3.org/1999/xlink"
	 x="0px" y="0px" viewBox="0 0 1920 1080" style="enable-background:new 0 0 1920 1080;" xml:space="preserve">
<style type="text/css">
	.st0{fill:#D82520;}
</style>
<title>pitroad</title>
<g id="Pitroad">
	<path class="st0" d="M1369.7,945.3c-3.5,0.5-6.9,1-10,1.4l-5.3,0.7c-4.1,0.6-8.9,1.2-14.4,2c-1.4,0.2-2.3,1.4-2.1,2.8
		c0.2,1.3,1.2,2.2,2.5,2.2c0.1,0,0.2,0,0.3,0c5.5-0.7,10.4-1.4,14.5-2l5.3-0.7c3.1-0.4,6.5-0.9,10-1.4c1.4-0.2,2.3-1.5,2.1-2.8
		S1371.1,945.1,1369.7,945.3z"/>
	<path class="st0" d="M1310.2,953.4c-9.5,1.3-19.6,2.6-29.8,3.9c-1.4,0.2-2.3,1.4-2.2,2.8c0.2,1.3,1.2,2.2,2.5,2.2
		c0.1,0,0.2,0,0.3,0c10.1-1.3,20.2-2.7,29.8-3.9c1.4-0.2,2.3-1.4,2.1-2.8S1311.6,953.2,1310.2,953.4z"/>
	<path class="st0" d="M1250.7,961.2c-8,1-15.6,2-22.6,3l4.7-16.8l-41.1,24.1l45.9,12.6l-8.8-14.9c7-0.9,14.6-1.9,22.6-2.9
		c1.4-0.2,2.3-1.4,2.2-2.8C1253.3,962,1252.1,961,1250.7,961.2z"/>
	<path class="st0" d="M1429,935.9c-9.1,1.7-18.7,3.3-29.5,5c-1.4,0.2-2.3,1.5-2.1,2.9c0.2,1.2,1.3,2.1,2.5,2.1c0.1,0,0.3,0,0.4,0
		c10.9-1.7,20.6-3.3,29.7-5c1.4-0.2,2.3-1.6,2-2.9C1431.6,936.6,1430.3,935.7,1429,935.9z"/>
	<path class="st0" d="M1514.6,808.3c1-1,1-2.6,0-3.5c-6.3-6.2-13.7-12.4-21.9-18.2c-1.1-0.8-2.7-0.5-3.5,0.6
		c-0.8,1.1-0.5,2.7,0.6,3.5c8,5.7,15.2,11.7,21.3,17.7c0.5,0.5,1.1,0.7,1.8,0.7C1513.4,809,1514.1,808.8,1514.6,808.3z"/>
	<path class="st0" d="M1486.9,921.9c-7.6,2.7-17.2,5.4-28.6,8c-1.3,0.3-2.2,1.7-1.9,3c0.3,1.2,1.3,1.9,2.4,1.9c0.2,0,0.4,0,0.6-0.1
		c11.6-2.7,21.4-5.5,29.2-8.2c1.3-0.5,2-1.9,1.5-3.2C1489.6,922.1,1488.2,921.4,1486.9,921.9z"/>
	<path class="st0" d="M1533.4,828.9c-0.7-1.2-2.2-1.6-3.4-0.9c-1.2,0.7-1.6,2.2-0.9,3.4c5.2,9.2,8,18.4,8.5,27.3
		c0.1,1.3,1.2,2.4,2.5,2.4c0,0,0.1,0,0.1,0c1.4-0.1,2.4-1.2,2.4-2.6C1542,848.6,1538.9,838.7,1533.4,828.9z"/>
	<path class="st0" d="M1534,885c-1.2-0.6-2.7-0.2-3.4,1.1c-4.9,9.3-10.8,16.6-18,22.4c-1.1,0.9-1.3,2.4-0.4,3.5
		c0.5,0.6,1.2,0.9,2,0.9c0.5,0,1.1-0.2,1.6-0.5c7.8-6.2,14.1-14.1,19.3-24C1535.7,887.1,1535.2,885.6,1534,885z"/>
</g>
</svg>
