<svg id="Martinsville_-_Pit_Road" data-name="Martinsville - Pit Road" xmlns="http://www.w3.org/2000/svg" viewBox="0 0 1920 1080"><defs><style>.cls-1{fill:#0089ba;}.cls-2{fill:#d82520;}</style></defs><title>pitroad</title><g id="Mergeline"><path class="cls-1" d="M1287.21,298.44l-28.3-10a5,5,0,1,0-3.32,9.43l28.29,10a5.08,5.08,0,0,0,1.66.28,5,5,0,0,0,1.67-9.71Z"/><path class="cls-1" d="M1343.8,318.36l-28.3-10a5,5,0,0,0-3.32,9.43l28.3,10a4.84,4.84,0,0,0,1.66.29,5,5,0,0,0,1.66-9.72Z"/><path class="cls-1" d="M1400.39,338.29l-28.29-10a5,5,0,1,0-3.32,9.44l28.29,10a5.08,5.08,0,0,0,1.66.28,5,5,0,0,0,1.66-9.71Z"/><path class="cls-1" d="M1226.37,247.86l-21.59,61.31,9.43,3.32,9.14-25.94,3.94,1.39a4.84,4.84,0,0,0,1.66.29,5,5,0,0,0,1.66-9.72l-3.94-1.39,9.13-25.94Z"/></g><g id="Pitroad"><path class="cls-2" d="M395.68,374.83a2.52,2.52,0,0,0-3.52-.37A234.29,234.29,0,0,0,370,395.09a2.5,2.5,0,0,0,3.63,3.44,225.4,225.4,0,0,1,21.72-20.18A2.51,2.51,0,0,0,395.68,374.83Z"/><path class="cls-2" d="M475,666a150.25,150.25,0,0,1-28.89-5.67,2.5,2.5,0,0,0-1.44,4.79A156.42,156.42,0,0,0,474.48,671h.24a2.5,2.5,0,0,0,.24-5Z"/><path class="cls-2" d="M418.82,649.14A162.93,162.93,0,0,1,394.11,633,2.5,2.5,0,0,0,391,637a167.06,167.06,0,0,0,25.48,16.61,2.55,2.55,0,0,0,1.16.29,2.51,2.51,0,0,0,1.17-4.72Z"/><path class="cls-2" d="M739.81,287.53l-29.45,5.73a2.5,2.5,0,0,0,.48,5,2.8,2.8,0,0,0,.48-.05l29.44-5.73a2.5,2.5,0,1,0-1-4.91Z"/><path class="cls-2" d="M534.89,666.82l-30.11-.09h0a2.5,2.5,0,1,0,0,5l30.1.09h0a2.5,2.5,0,0,0,0-5Z"/><path class="cls-2" d="M715.38,667.65l-30.07-.15h0a2.5,2.5,0,0,0,0,5l30.08.15h0a2.5,2.5,0,0,0,0-5Z"/><path class="cls-2" d="M683.84,301a2.5,2.5,0,0,0-2.93-2l-29.44,5.74a2.5,2.5,0,0,0,.47,4.95,2.59,2.59,0,0,0,.48,0l29.45-5.74A2.49,2.49,0,0,0,683.84,301Z"/><path class="cls-2" d="M655.23,667.35l-30.07-.14h0a2.5,2.5,0,0,0,0,5l30.08.14h0a2.5,2.5,0,0,0,0-5Z"/><path class="cls-2" d="M595.07,667.07,565,666.94h0a2.5,2.5,0,0,0,0,5l30.09.13h0a2.5,2.5,0,0,0,0-5Z"/><path class="cls-2" d="M775.56,668l-30.08-.15h0a2.5,2.5,0,0,0,0,5l30.07.15h0a2.5,2.5,0,0,0,0-5Z"/><path class="cls-2" d="M534.15,332.61a2.59,2.59,0,0,0,.48,0l29.45-5.74a2.5,2.5,0,1,0-1-4.9l-29.44,5.73a2.5,2.5,0,0,0,.47,4.95Z"/><path class="cls-2" d="M354.68,589.28a2.5,2.5,0,1,0-4.21,2.69,184.54,184.54,0,0,0,18.38,24.19,2.51,2.51,0,0,0,1.86.83,2.46,2.46,0,0,0,1.67-.64,2.5,2.5,0,0,0,.19-3.53A180.17,180.17,0,0,1,354.68,589.28Z"/><path class="cls-2" d="M475.26,344.08a2.61,2.61,0,0,0,.48-.05l29.45-5.73a2.5,2.5,0,0,0-1-4.91l-29.45,5.74a2.5,2.5,0,0,0,.48,4.95Z"/><path class="cls-2" d="M593.05,321.15a2.61,2.61,0,0,0,.48,0L623,315.37a2.5,2.5,0,1,0-1-4.91l-29.45,5.73a2.5,2.5,0,0,0,.48,5Z"/><path class="cls-2" d="M418.4,361.88a2.6,2.6,0,0,0,1.25-.33c14.11-8.12,24.08-11.07,26.8-11.78a2.5,2.5,0,1,0-1.27-4.84c-2.87.75-13.37,3.86-28,12.28a2.5,2.5,0,0,0,1.25,4.67Z"/><path class="cls-2" d="M354.36,418.05a2.5,2.5,0,0,0-3.46.74A146.63,146.63,0,0,0,337.2,446a2.5,2.5,0,0,0,1.45,3.22,2.31,2.31,0,0,0,.89.17,2.5,2.5,0,0,0,2.33-1.61A141.87,141.87,0,0,1,355.1,421.5,2.49,2.49,0,0,0,354.36,418.05Z"/><path class="cls-2" d="M328.16,508a2.51,2.51,0,0,0,2.5-2.4,204.13,204.13,0,0,1,3.27-29.42,2.5,2.5,0,0,0-4.91-.93,208.43,208.43,0,0,0-3.36,30.15,2.5,2.5,0,0,0,2.4,2.6Z"/><path class="cls-2" d="M332.43,534.93a2.5,2.5,0,1,0-4.91.93A148.29,148.29,0,0,0,336.37,565,2.5,2.5,0,0,0,341,563.1,143.22,143.22,0,0,1,332.43,534.93Z"/><path class="cls-2" d="M1457.72,364.09c-6.85-3.06-14.75-6.42-23.51-10l12.14-12.46L1398.73,343l34.21,33.16-.54-17.39c8.68,3.53,16.5,6.85,23.28,9.88a2.5,2.5,0,0,0,2-4.56Z"/><path class="cls-2" d="M1487.37,637.78a146.25,146.25,0,0,1-24.81,15.84,2.5,2.5,0,0,0,1.13,4.73,2.37,2.37,0,0,0,1.12-.27,151.24,151.24,0,0,0,25.67-16.38,2.5,2.5,0,1,0-3.11-3.92Z"/><path class="cls-2" d="M798.7,276.06l-29.45,5.73a2.5,2.5,0,0,0,.48,5,2.61,2.61,0,0,0,.48-.05L799.66,281a2.5,2.5,0,0,0-1-4.91Z"/><path class="cls-2" d="M1507.86,397.87a192.6,192.6,0,0,0-22.31-19.31l-.78-.54a2.5,2.5,0,0,0-2.8,4.14c.24.16.47.32.64.45a187.6,187.6,0,0,1,21.69,18.77,2.51,2.51,0,0,0,3.54,0A2.5,2.5,0,0,0,1507.86,397.87Z"/><path class="cls-2" d="M1316.27,670.2l-30-.1h0a2.5,2.5,0,0,0,0,5l30,.1h0a2.5,2.5,0,0,0,0-5Z"/><path class="cls-2" d="M1376.27,670.4l-30-.1h0a2.5,2.5,0,0,0,0,5l30,.1h0a2.5,2.5,0,0,0,0-5Z"/><path class="cls-2" d="M1549.29,477.79a2.5,2.5,0,1,0-4.92.86,188.51,188.51,0,0,1,2.65,29.46,2.51,2.51,0,0,0,2.5,2.46h0A2.51,2.51,0,0,0,1552,508,192.28,192.28,0,0,0,1549.29,477.79Z"/><path class="cls-2" d="M1528.38,591.91a2.51,2.51,0,0,0-3.4,1,154.12,154.12,0,0,1-16.56,24.34,2.5,2.5,0,1,0,3.84,3.2,159.36,159.36,0,0,0,17.1-25.13A2.52,2.52,0,0,0,1528.38,591.91Z"/><path class="cls-2" d="M1547.74,535.43a2.52,2.52,0,0,0-3,2,219.3,219.3,0,0,1-7.83,28.55,2.51,2.51,0,0,0,1.53,3.19,2.73,2.73,0,0,0,.83.14,2.51,2.51,0,0,0,2.36-1.67,224.25,224.25,0,0,0,8-29.21A2.5,2.5,0,0,0,1547.74,535.43Z"/><path class="cls-2" d="M1538.84,451.86a2.66,2.66,0,0,0,.91-.17,2.51,2.51,0,0,0,1.42-3.24,143.71,143.71,0,0,0-14.07-27,2.5,2.5,0,0,0-4.17,2.76,138.76,138.76,0,0,1,13.58,26.08A2.5,2.5,0,0,0,1538.84,451.86Z"/><path class="cls-2" d="M1435.08,664.38a161.86,161.86,0,0,1-29,5.57,2.5,2.5,0,0,0,.23,5h.24a165.54,165.54,0,0,0,29.93-5.74,2.5,2.5,0,0,0-1.38-4.8Z"/><path class="cls-2" d="M1016.27,669.18l-30-.1h0a2.5,2.5,0,0,0,0,5l30,.1h0a2.5,2.5,0,0,0,0-5Z"/><path class="cls-2" d="M956.09,668.93,926,668.77h0a2.5,2.5,0,0,0,0,5l30.11.16h0a2.5,2.5,0,0,0,0-5Z"/><path class="cls-2" d="M1256.27,670l-30-.11h0a2.5,2.5,0,0,0,0,5l30,.11h0a2.5,2.5,0,0,0,0-5Z"/><path class="cls-2" d="M835.71,668.28l-30.08-.16h0a2.5,2.5,0,0,0,0,5l30.08.16h0a2.5,2.5,0,0,0,0-5Z"/><path class="cls-2" d="M895.88,668.6l-30.09-.16h0a2.5,2.5,0,0,0,0,5l30.08.16h0a2.5,2.5,0,0,0,0-5Z"/><path class="cls-2" d="M1196.27,669.79l-30-.1h0a2.5,2.5,0,0,0,0,5l30,.1h0a2.5,2.5,0,0,0,0-5Z"/><path class="cls-2" d="M1136.27,669.59l-30-.1h0a2.5,2.5,0,0,0,0,5l30,.1h0a2.5,2.5,0,0,0,0-5Z"/><path class="cls-2" d="M1076.27,669.39l-30-.11h0a2.5,2.5,0,0,0,0,5l30,.11h0a2.5,2.5,0,0,0,0-5Z"/></g></svg>