<?xml version="1.0" encoding="utf-8"?>
<!-- Generator: Adobe Illustrator 24.0.1, SVG Export Plug-In . SVG Version: 6.00 Build 0)  -->
<svg version="1.1" id="Chilibowl_Pit_Road" xmlns="http://www.w3.org/2000/svg" xmlns:xlink="http://www.w3.org/1999/xlink" x="0px"
	 y="0px" viewBox="0 0 1920 1080" style="enable-background:new 0 0 1920 1080;" xml:space="preserve">
<style type="text/css">
	.st0{fill:#016699;}
	.st1{fill:#D82520;}
</style>
<title>pitroad</title>
<g id="Mergeline">
	<path class="st0" d="M442,714.2c-1.8-2.1-4.9-2.4-7-0.6c-2.1,1.8-2.4,4.9-0.6,7c6.4,7.6,13.5,15.1,20.8,22.2c1,0.9,2.2,1.4,3.5,1.4
		c1.3,0,2.6-0.5,3.6-1.5c1.9-2,1.9-5.1-0.1-7.1C455.1,728.8,448.3,721.5,442,714.2z"/>
	<path class="st0" d="M409,665.6c-1.3-2.4-4.3-3.4-6.8-2.1c-2.4,1.3-3.4,4.3-2.1,6.8c4.7,8.9,10,17.7,15.8,26.1
		c1,1.4,2.5,2.2,4.1,2.2c1,0,2-0.3,2.8-0.9c2.3-1.6,2.9-4.7,1.3-6.9C418.6,682.7,413.5,674.2,409,665.6z"/>
	<path class="st0" d="M509.7,298c-8.9,5-17.5,10.5-25.7,16.6c-2.2,1.6-2.7,4.8-1.1,7c1,1.3,2.5,2,4,2c1,0,2.1-0.3,3-1
		c7.9-5.8,16.2-11.1,24.7-15.9c2.4-1.4,3.3-4.4,1.9-6.8C515.2,297.5,512.1,296.6,509.7,298z"/>
	<path class="st0" d="M460.5,334.1c-7.3,6.9-14.4,14.4-21,22.2c-1.8,2.1-1.5,5.3,0.6,7c0.9,0.8,2.1,1.2,3.2,1.2
		c1.4,0,2.8-0.6,3.8-1.8c6.4-7.5,13.2-14.7,20.2-21.3c2-1.9,2.1-5.1,0.2-7.1C465.7,332.3,462.5,332.2,460.5,334.1z"/>
	<path class="st0" d="M508,773.1c-8.2-5.7-16.2-11.7-23.7-17.7c-2.1-1.7-5.3-1.4-7,0.7c-1.7,2.1-1.4,5.3,0.7,7
		c7.7,6.2,15.9,12.4,24.3,18.2c0.9,0.6,1.9,0.9,2.8,0.9c1.6,0,3.1-0.8,4.1-2.2C510.9,777.7,510.3,774.6,508,773.1z"/>
	<path class="st0" d="M428.1,379.3c-2.3-1.5-5.4-0.9-6.9,1.4c-5.6,8.3-10.9,17.1-15.7,26.1c-1.3,2.4-0.4,5.5,2.1,6.8
		c0.8,0.4,1.6,0.6,2.4,0.6c1.8,0,3.5-1,4.4-2.6c4.7-8.7,9.8-17.2,15.2-25.3C431,383.9,430.4,380.8,428.1,379.3z"/>
	<path class="st0" d="M385.2,469.2c0.5,0.2,1,0.2,1.5,0.2c2.1,0,4.1-1.4,4.8-3.5c2.9-9.4,6.3-18.7,10.1-27.8
		c1.1-2.5-0.1-5.5-2.7-6.5c-2.5-1.1-5.5,0.1-6.5,2.7c-3.9,9.3-7.4,19-10.4,28.6C381.1,465.6,382.6,468.4,385.2,469.2z"/>
	<path class="st0" d="M374.2,528.2c0.2,0,0.3,0,0.4,0c2.6,0,4.7-2,5-4.6c0.8-9.2,2.3-19,4.4-29.1c0.6-2.7-1.2-5.4-3.9-5.9
		c-2.7-0.6-5.4,1.2-5.9,3.9c-2.2,10.5-3.7,20.6-4.6,30.3C369.4,525.5,371.5,527.9,374.2,528.2z"/>
	<path class="st0" d="M381.9,582.3c-1.4-9.5-2.3-19.4-2.8-29.3c-0.1-2.8-2.4-4.9-5.2-4.8c-2.8,0.1-4.9,2.5-4.8,5.2
		c0.4,10.2,1.4,20.4,2.9,30.3c0.4,2.5,2.5,4.3,4.9,4.3c0.2,0,0.5,0,0.7-0.1C380.5,587.5,382.3,585,381.9,582.3z"/>
	<path class="st0" d="M387.8,611c-0.7-2.7-3.4-4.3-6.1-3.6c-2.7,0.7-4.3,3.4-3.6,6.1c2.6,9.8,5.7,19.6,9.4,29c0.8,2,2.7,3.2,4.7,3.2
		c0.6,0,1.2-0.1,1.8-0.3c2.6-1,3.8-3.9,2.8-6.5C393.3,629.9,390.3,620.5,387.8,611z"/>
	<path class="st0" d="M746.6,274.3c-10-2.2-20.1-4-29.8-5.5c-2.7-0.4-5.3,1.4-5.7,4.2c-0.4,2.7,1.4,5.3,4.2,5.7
		c9.5,1.5,19.4,3.3,29.2,5.4c0.4,0.1,0.7,0.1,1.1,0.1c2.3,0,4.4-1.6,4.9-3.9C751,277.5,749.3,274.9,746.6,274.3z"/>
	<path class="st0" d="M686.7,265.1c-10.3-0.9-20.5-1.4-30.3-1.5c-2.8-0.1-5,2.2-5.1,4.9c0,2.8,2.2,5,4.9,5.1
		c9.6,0.1,19.6,0.6,29.6,1.5c0.1,0,0.3,0,0.4,0c2.6,0,4.7-2,5-4.6C691.5,267.7,689.5,265.3,686.7,265.1z"/>
	<path class="st0" d="M829.2,313.2c-2.3-1.6-5.4-1.1-7,1.2c-1.6,2.3-1.1,5.4,1.2,7c8.1,5.7,16,11.8,23.4,18.1
		c0.9,0.8,2.1,1.2,3.2,1.2c1.4,0,2.8-0.6,3.8-1.8c1.8-2.1,1.5-5.3-0.6-7C845.7,325.4,837.6,319.1,829.2,313.2z"/>
	<path class="st0" d="M803.6,296.7c-9.6-5.5-18.8-10.1-27.4-13.7c-2.6-1.1-5.5,0.2-6.5,2.7c-1.1,2.6,0.2,5.5,2.7,6.5
		c8.2,3.4,17,7.8,26.2,13.1c0.8,0.5,1.6,0.7,2.5,0.7c1.7,0,3.4-0.9,4.3-2.5C806.8,301.2,806,298.1,803.6,296.7z"/>
	<path class="st0" d="M879.3,356.7c-1.2-1.4-2.5-2.7-3.8-4c-1.9-2-5.1-2.1-7.1-0.1c-2,1.9-2.1,5.1-0.1,7.1c1.2,1.3,2.4,2.6,3.6,3.9
		c1,1.1,2.3,1.6,3.7,1.6c1.2,0,2.4-0.4,3.4-1.3C881.1,361.9,881.2,358.8,879.3,356.7z"/>
	<path class="st0" d="M626,264.4c-10.3,0.7-20.4,2-30.2,3.6c-2.7,0.5-4.6,3-4.1,5.8c0.4,2.4,2.5,4.2,4.9,4.2c0.3,0,0.6,0,0.8-0.1
		c9.5-1.6,19.3-2.8,29.3-3.5c2.8-0.2,4.8-2.6,4.6-5.4S628.7,264.2,626,264.4z"/>
	<path class="st0" d="M670.2,845.9c-9.6-2.6-19.2-5.5-28.6-8.6c-2.6-0.9-5.4,0.6-6.3,3.2c-0.9,2.6,0.6,5.4,3.2,6.3
		c9.5,3.1,19.3,6,29,8.7c0.4,0.1,0.9,0.2,1.3,0.2c2.2,0,4.2-1.5,4.8-3.7C674.4,849.3,672.9,846.6,670.2,845.9z"/>
	<path class="st0" d="M566.1,274.7c-9.9,2.8-19.6,6.1-28.9,9.9c-2.6,1-3.8,4-2.7,6.5c0.8,1.9,2.7,3.1,4.6,3.1c0.6,0,1.3-0.1,1.9-0.4
		c8.9-3.7,18.3-6.9,27.8-9.6c2.7-0.8,4.2-3.5,3.5-6.2C571.5,275.5,568.7,274,566.1,274.7z"/>
	<path class="st0" d="M613.5,827.4c-9.4-3.6-18.6-7.4-27.6-11.3c-2.5-1.1-5.5,0-6.6,2.6c-1.1,2.5,0,5.5,2.6,6.6
		c9.1,4,18.5,7.9,28,11.5c0.6,0.2,1.2,0.3,1.8,0.3c2,0,3.9-1.2,4.7-3.2C617.4,831.2,616.1,828.4,613.5,827.4z"/>
	<path class="st0" d="M559.1,803.3c-8.9-4.6-17.7-9.4-26-14.3c-2.4-1.4-5.4-0.6-6.8,1.8c-1.4,2.4-0.6,5.4,1.8,6.8
		c8.5,5,17.5,10,26.6,14.6c0.7,0.4,1.5,0.5,2.3,0.5c1.8,0,3.6-1,4.5-2.7C562.5,807.6,561.5,804.6,559.1,803.3z"/>
	<path class="st0" d="M727.8,830.8l-4.4,27.2c-6-1.1-14.2-2.6-24.3-4.9c-2.7-0.6-5.4,1.1-6,3.8c-0.6,2.7,1.1,5.4,3.8,6
		c10.3,2.3,18.7,3.9,24.9,5l-4.4,27.1l9.9,1.6l5.1-31.3c0.1-0.2,0.1-0.4,0.2-0.6c0-0.2,0-0.4,0-0.6l5.1-31.6L727.8,830.8z"/>
</g>
<g id="Pitroad">
	<path class="st1" d="M932.8,429.6c-0.8-1.2-2.3-1.5-3.5-0.7c-1.2,0.8-1.5,2.3-0.7,3.5c4.9,7.4,10.2,15.6,16.3,25.1
		c0.5,0.7,1.3,1.2,2.1,1.2c0.5,0,0.9-0.1,1.3-0.4c1.2-0.7,1.5-2.3,0.8-3.5C943,445.3,937.7,437,932.8,429.6z"/>
	<path class="st1" d="M946.9,831c-1.3-0.5-2.7,0.1-3.2,1.4c-2.5,6.2-6.3,15.9-10.9,28c-0.5,1.3,0.2,2.7,1.4,3.2
		c0.3,0.1,0.6,0.2,0.9,0.2c1,0,2-0.6,2.3-1.6c4.5-11.9,8.2-21.1,10.9-27.9C948.8,833,948.2,831.5,946.9,831z"/>
	<path class="st1" d="M982.3,568.4c0.1,1.3,1.2,2.3,2.5,2.3c0.1,0,0.1,0,0.2,0c1.4-0.1,2.4-1.3,2.3-2.7c-0.9-11.9-2.4-22-4.5-30.1
		c-0.3-1.3-1.7-2.1-3-1.8c-1.3,0.3-2.1,1.7-1.8,3C979.9,547,981.4,556.8,982.3,568.4z"/>
	<path class="st1" d="M969.9,507.9l0.5,2.2c0.3,1.2,1.3,2,2.4,2c0.2,0,0.4,0,0.5-0.1c1.3-0.3,2.2-1.6,1.9-3l-0.5-2.2
		c-2.3-10.5-3.5-15.8-9.8-26.6c-0.7-1.2-2.2-1.6-3.4-0.9c-1.2,0.7-1.6,2.2-0.9,3.4C966.6,492.9,967.6,497.6,969.9,507.9z"/>
	<path class="st1" d="M976.6,715.3c-1.4-0.2-2.6,0.7-2.8,2.1c-1.5,10-3.1,20-4.9,29.5c-0.2,1.4,0.7,2.7,2,2.9c0.2,0,0.3,0,0.5,0
		c1.2,0,2.2-0.8,2.5-2c1.8-9.6,3.4-19.6,4.9-29.7C978.9,716.7,978,715.5,976.6,715.3z"/>
	<path class="st1" d="M965.9,774.3c-1.4-0.3-2.7,0.5-3,1.9c-0.5,2.3-1.1,4.6-1.6,6.9c-1.6,6.9-3.6,13.4-6.7,21.5
		c-0.5,1.3,0.2,2.7,1.5,3.2c0.3,0.1,0.6,0.2,0.9,0.2c1,0,2-0.6,2.3-1.6c3.1-8.4,5.2-15,6.9-22.1c0.5-2.3,1.1-4.6,1.6-6.9
		C968.1,776,967.3,774.6,965.9,774.3z"/>
	<path class="st1" d="M983.4,655.6c-1.4-0.1-2.6,0.9-2.7,2.3c-0.8,9.7-1.8,19.8-3,29.8c-0.2,1.4,0.8,2.6,2.2,2.8c0.1,0,0.2,0,0.3,0
		c1.3,0,2.3-0.9,2.5-2.2c1.2-10.1,2.2-20.1,3-29.9C985.8,657,984.8,655.8,983.4,655.6z"/>
	<path class="st1" d="M988.4,598.2c0-1.4-1.1-2.5-2.5-2.5c0,0,0,0,0,0c-1.4,0-2.5,1.1-2.5,2.5l0,1c0,9.1-0.2,18.8-0.7,28.9
		c-0.1,1.4,1,2.5,2.4,2.6c0,0,0.1,0,0.1,0c1.3,0,2.4-1,2.5-2.4c0.5-10.2,0.7-20,0.7-29.1L988.4,598.2z"/>
	<path class="st1" d="M875.7,360.1l14.8,45.3l7.6-15.6c4.5,5.6,8.9,11.5,13.6,17.9c0.5,0.7,1.3,1,2,1c0.5,0,1-0.2,1.5-0.5
		c1.1-0.8,1.4-2.4,0.6-3.5c-4.8-6.6-9.3-12.6-13.9-18.3l16.6-5.4L875.7,360.1z"/>
</g>
</svg>
