<svg id="Full_-_Pit_Road" data-name="Full - Pit Road" xmlns="http://www.w3.org/2000/svg" viewBox="0 0 1920 1080"><defs><style>.cls-1{fill:#d82520;}</style></defs><title>pitroad</title><path class="cls-1" d="M1324.22,830.33c-8.78-2.34-18.69-4.61-29.46-6.74a2.5,2.5,0,0,0-1,4.91c10.67,2.1,20.47,4.35,29.14,6.66a2.35,2.35,0,0,0,.64.09,2.5,2.5,0,0,0,.65-4.92Z"/><path class="cls-1" d="M1295.53,393.79a2.53,2.53,0,0,0,1.24-.33,2.51,2.51,0,0,0,.93-3.42,225.55,225.55,0,0,0-16.79-25.23,2.5,2.5,0,1,0-4,3.05,217.9,217.9,0,0,1,16.42,24.67A2.52,2.52,0,0,0,1295.53,393.79Z"/><path class="cls-1" d="M1449.48,610.82c-10.5.64-20.55,1.23-30,1.77a2.5,2.5,0,0,0,.14,5h.15c9.47-.54,19.53-1.13,30-1.77a2.5,2.5,0,0,0-.3-5Z"/><path class="cls-1" d="M1389.44,614.22c-12.15.62-22.25,1.07-30,1.35a2.5,2.5,0,0,0,.09,5h.09c7.81-.28,17.94-.73,30.12-1.36a2.5,2.5,0,0,0,2.37-2.62A2.52,2.52,0,0,0,1389.44,614.22Z"/><path class="cls-1" d="M1378.93,855.11a40.17,40.17,0,0,1-7.72-4.77,59.51,59.51,0,0,0-8.26-5.71,106,106,0,0,0-9.9-4.75,2.5,2.5,0,0,0-1.94,4.61,102.08,102.08,0,0,1,9.43,4.52,53.19,53.19,0,0,1,7.53,5.23,45.56,45.56,0,0,0,8.69,5.37,2.47,2.47,0,0,0,1.08.25,2.5,2.5,0,0,0,1.09-4.75Z"/><path class="cls-1" d="M1887.15,704.07a2.51,2.51,0,0,0-2.86,2.08c-1.21,7.73-4.47,17-9.67,27.49a2.51,2.51,0,0,0,1.13,3.35,2.5,2.5,0,0,0,3.35-1.13c5.51-11.12,8.82-20.58,10.13-28.94A2.48,2.48,0,0,0,1887.15,704.07Z"/><path class="cls-1" d="M1265.07,818.38c-9.4-1.46-19.44-2.88-29.83-4.2a2.5,2.5,0,1,0-.63,5c10.35,1.32,20.33,2.73,29.68,4.18l.39,0a2.5,2.5,0,0,0,.39-5Z"/><path class="cls-1" d="M1330.29,614c-6.78-1.93-15.71-6.56-19.69-17.73a2.5,2.5,0,1,0-4.71,1.68c4.7,13.17,15.13,18.61,23,20.86a2.71,2.71,0,0,0,.68.09,2.5,2.5,0,0,0,.68-4.9Z"/><path class="cls-1" d="M1314.41,475.22a2.49,2.49,0,0,0-2.56,2.44c-.23,9-.76,18.74-1.62,29.83a2.5,2.5,0,0,0,2.3,2.69h.2a2.5,2.5,0,0,0,2.48-2.31c.87-11.18,1.4-21,1.63-30.09A2.5,2.5,0,0,0,1314.41,475.22Z"/><path class="cls-1" d="M1311.3,447.92a2.5,2.5,0,0,0,2.49,2.31h.19a2.5,2.5,0,0,0,2.3-2.68c-.89-11.94-2.69-22.06-5.35-30.07a2.5,2.5,0,1,0-4.75,1.57C1308.71,426.67,1310.43,436.39,1311.3,447.92Z"/><path class="cls-1" d="M1205.33,810.73c-9.72-1-19.8-2-30-2.86a2.5,2.5,0,1,0-.43,5c10.14.88,20.19,1.83,29.88,2.85h.26a2.5,2.5,0,0,0,.26-5Z"/><path class="cls-1" d="M1884.17,676.93a2.5,2.5,0,0,0,2.48,2.17l.33,0a2.5,2.5,0,0,0,2.15-2.8,82.5,82.5,0,0,0-9.52-29.23,2.5,2.5,0,1,0-4.39,2.4A77.5,77.5,0,0,1,1884.17,676.93Z"/><path class="cls-1" d="M1145.33,805.53c-18.25-1.28-30-1.81-30.16-1.81a2.5,2.5,0,1,0-.22,5c.11,0,11.85.54,30,1.8h.17a2.5,2.5,0,0,0,.17-5Z"/><path class="cls-1" d="M1306.73,569.92l.24,0a2.51,2.51,0,0,0,2.48-2.28c.55-6,1.25-12.66,2-19.74.34-3.27.69-6.65,1-10.09a2.5,2.5,0,1,0-5-.51q-.52,5.17-1,10.09c-.74,7.09-1.43,13.78-2,19.8A2.5,2.5,0,0,0,1306.73,569.92Z"/><path class="cls-1" d="M1234.64,326.62a207.31,207.31,0,0,1,22.62,19.1,2.51,2.51,0,0,0,3.54,0,2.51,2.51,0,0,0,0-3.54,212.26,212.26,0,0,0-23.17-19.56,2.5,2.5,0,1,0-2.94,4Z"/><path class="cls-1" d="M1436.67,864.63a249.22,249.22,0,0,1-29.62-2,2.5,2.5,0,1,0-.68,5,253.05,253.05,0,0,0,30.23,2h0a2.5,2.5,0,0,0,0-5Z"/><path class="cls-1" d="M1811,594.36a2.5,2.5,0,0,0-1.65-3.13c-9.07-2.82-19.71-5.79-29.86-6.39a2.46,2.46,0,0,0-2.64,2.34,2.51,2.51,0,0,0,2.35,2.65c9.61.57,19.88,3.44,28.67,6.17a2.34,2.34,0,0,0,.74.12A2.51,2.51,0,0,0,1811,594.36Z"/><path class="cls-1" d="M1496.38,862c-8.76.69-19,1.49-29.87,2a2.5,2.5,0,0,0,.12,5h.13c10.92-.54,21.22-1.34,30-2a2.5,2.5,0,1,0-.4-5Z"/><path class="cls-1" d="M1735.22,877.63a105.9,105.9,0,0,1-12.86.77h0a143.67,143.67,0,0,1-16.46-1,2.5,2.5,0,0,0-.57,5,149.42,149.42,0,0,0,17,1.08h0a109.89,109.89,0,0,0,13.47-.81,2.5,2.5,0,0,0-.61-5Z"/><path class="cls-1" d="M1749.31,588.62c-7.13.8-17.2,1.78-29.93,2.91a2.5,2.5,0,0,0,.21,5h.23c12.77-1.13,22.88-2.11,30-2.92a2.5,2.5,0,0,0-.55-5Z"/><path class="cls-1" d="M1829.3,808.21a2.49,2.49,0,0,0-3.46.71l-1.25,1.89a215.94,215.94,0,0,1-15.95,22.34,2.5,2.5,0,0,0,3.87,3.17,222.91,222.91,0,0,0,16.3-22.82l1.2-1.83A2.49,2.49,0,0,0,1829.3,808.21Z"/><path class="cls-1" d="M1863.24,758.66a2.49,2.49,0,0,0-3.45.75c-5.66,8.84-11.65,17.49-16.77,24.79a2.51,2.51,0,0,0,2,3.94,2.53,2.53,0,0,0,2-1.07c5.14-7.34,11.18-16.05,16.88-25A2.5,2.5,0,0,0,1863.24,758.66Z"/><path class="cls-1" d="M1859.16,627.11a2.5,2.5,0,0,0,1.75-4.29A154.2,154.2,0,0,0,1837,604a2.5,2.5,0,1,0-2.72,4.2,148.66,148.66,0,0,1,23.14,18.19A2.49,2.49,0,0,0,1859.16,627.11Z"/><path class="cls-1" d="M1788,854.12a111.85,111.85,0,0,1-24.71,15.62,2.5,2.5,0,1,0,2.06,4.55A116.48,116.48,0,0,0,1791.14,858a2.5,2.5,0,1,0-3.18-3.85Z"/><path class="cls-1" d="M1556.65,861.25c-14-.7-24.07-.85-30-.85h-.08a2.47,2.47,0,0,0-2.46,2.5,2.54,2.54,0,0,0,2.54,2.5c5.9,0,15.85.15,29.78.84h.12a2.5,2.5,0,0,0,.13-5Z"/><path class="cls-1" d="M1569.49,603l-30,2.06a2.5,2.5,0,0,0,.17,5h.17l30-2.06a2.5,2.5,0,0,0-.34-5Z"/><path class="cls-1" d="M1509.49,607c-10.17.67-20.2,1.32-30,1.94a2.5,2.5,0,0,0,.15,5h.16c9.81-.62,19.85-1.27,30-1.94a2.5,2.5,0,0,0,2.33-2.66A2.53,2.53,0,0,0,1509.49,607Z"/><path class="cls-1" d="M1616.58,866c-10.25-1.07-20.32-2-29.93-2.77a2.5,2.5,0,0,0-.4,5c9.57.76,19.6,1.69,29.82,2.75h.26a2.5,2.5,0,0,0,.25-5Z"/><path class="cls-1" d="M1676.22,873.31c-10.12-1.41-20.14-2.73-29.78-3.92a2.5,2.5,0,1,0-.62,5c9.63,1.19,19.62,2.5,29.7,3.91l.35,0a2.5,2.5,0,0,0,.35-5Z"/><path class="cls-1" d="M1689.42,594.05c-9.39.76-19.44,1.55-30,2.36a2.5,2.5,0,0,0,.19,5h.19c10.54-.81,20.59-1.6,30-2.37a2.5,2.5,0,0,0,2.29-2.69A2.53,2.53,0,0,0,1689.42,594.05Z"/><path class="cls-1" d="M1629.46,598.67c-9.76.72-19.79,1.45-30,2.18a2.5,2.5,0,0,0,.17,5h.18c10.2-.73,20.23-1.46,30-2.18a2.5,2.5,0,1,0-.37-5Z"/><polygon class="cls-1" points="1186.33 297.64 1217.98 333.24 1218.85 313.14 1233.92 299.82 1186.33 297.64"/></svg>