<?xml version="1.0" encoding="utf-8"?>
<!-- Generator: Adobe Illustrator 24.0.1, SVG Export Plug-In . SVG Version: 6.00 Build 0)  -->
<svg version="1.1" id="_1000_Full_Reverse_-_Pit_Road"
	 xmlns="http://www.w3.org/2000/svg" xmlns:xlink="http://www.w3.org/1999/xlink" x="0px" y="0px" viewBox="0 0 1920 1080"
	 style="enable-background:new 0 0 1920 1080;" xml:space="preserve">
<style type="text/css">
	.st0{fill:#D82520;}
</style>
<title>pitroad</title>
<g id="Pitroad">
	<path class="st0" d="M1399.8,940.8c-11.5,1.8-22.5,3.4-29.7,4.4c-1.4,0.2-2.3,1.5-2.1,2.8c0.2,1.2,1.2,2.2,2.5,2.2
		c0.1,0,0.2,0,0.4,0c7.2-1,18.2-2.6,29.7-4.4c1.4-0.2,2.3-1.5,2.1-2.9C1402.5,941.5,1401.2,940.6,1399.8,940.8z"/>
	<path class="st0" d="M1340.4,949.3c-8.7,1.2-18.9,2.5-29.8,4c-1.4,0.2-2.3,1.4-2.1,2.8c0.2,1.3,1.2,2.2,2.5,2.2c0.1,0,0.2,0,0.3,0
		c10.9-1.5,21.1-2.8,29.8-4c1.4-0.2,2.3-1.4,2.1-2.8C1343,950.1,1341.8,949.2,1340.4,949.3z"/>
	<path class="st0" d="M1221.2,965.1c-17.8,2.3-29.9,3.9-29.9,3.9c-1.4,0.2-2.3,1.4-2.2,2.8c0.2,1.3,1.2,2.2,2.5,2.2
		c0.1,0,0.2,0,0.3,0c0,0,12.1-1.6,29.9-3.9c1.4-0.2,2.3-1.4,2.2-2.8C1223.8,965.9,1222.6,964.9,1221.2,965.1z"/>
	<path class="st0" d="M1280.8,957.3c-10.1,1.3-20.2,2.7-29.8,3.9c-1.4,0.2-2.3,1.4-2.2,2.8c0.2,1.3,1.2,2.2,2.5,2.2
		c0.1,0,0.2,0,0.3,0c9.6-1.3,19.7-2.6,29.8-3.9c1.4-0.2,2.3-1.4,2.2-2.8S1282.2,957.1,1280.8,957.3z"/>
	<path class="st0" d="M1532.2,831.9c1.2-0.7,1.6-2.2,0.9-3.4c-3.3-5.8-7.6-11.6-12.6-17.3l15.9-7.7l-45.3-14.9l20.9,42.8l5.3-16.2
		c4.5,5.2,8.4,10.5,11.4,15.8c0.5,0.8,1.3,1.3,2.2,1.3C1531.4,832.2,1531.8,832.1,1532.2,831.9z"/>
	<path class="st0" d="M1542.5,857.9c-0.1-1.4-1.2-2.4-2.6-2.3c-1.4,0.1-2.4,1.3-2.3,2.6c0.1,1,0.1,2,0.1,2.9c0,6-1.1,11.8-3.3,17.1
		c-1.1,2.6-2.2,5.1-3.4,7.4c-0.6,1.2-0.2,2.7,1.1,3.4c0.4,0.2,0.8,0.3,1.1,0.3c0.9,0,1.8-0.5,2.2-1.4c1.3-2.5,2.5-5.1,3.6-7.8
		c2.5-5.9,3.7-12.4,3.7-19C1542.6,860.1,1542.6,859,1542.5,857.9z"/>
	<path class="st0" d="M1512.9,908.1c-6.8,5.5-14.1,8.9-19.6,11.2c-1.9,0.8-3.9,1.6-6.1,2.4c-1.3,0.5-2,1.9-1.5,3.2
		c0.4,1,1.3,1.7,2.4,1.7c0.3,0,0.6,0,0.8-0.1c2.3-0.8,4.4-1.6,6.3-2.5c5.8-2.5,13.4-6,20.8-11.9c1.1-0.9,1.2-2.4,0.4-3.5
		C1515.6,907.4,1514,907.3,1512.9,908.1z"/>
	<path class="st0" d="M1458.7,929.8c-8.6,2-18.5,4-29.3,6c-1.4,0.3-2.3,1.6-2,2.9c0.2,1.2,1.3,2,2.5,2c0.2,0,0.3,0,0.5,0
		c10.9-2,20.8-4,29.5-6.1c1.3-0.3,2.2-1.7,1.9-3C1461.4,930.3,1460,929.5,1458.7,929.8z"/>
</g>
</svg>
