<svg id="Full_-_Pit_Road" data-name="Full - Pit Road" xmlns="http://www.w3.org/2000/svg" viewBox="0 0 1920 1080"><defs><style>.cls-1{fill:#d82520;}</style></defs><title>pitroad</title><path class="cls-1" d="M1077.8,584.26l-30,.4a2.5,2.5,0,0,0,0,5h0l30.06-.4a2.5,2.5,0,1,0-.07-5Z"/><path class="cls-1" d="M1095.5,80.8a230.37,230.37,0,0,0-30.09-3.57,2.5,2.5,0,0,0-.27,5,227.33,227.33,0,0,1,29.44,3.48,2.4,2.4,0,0,0,.46.05,2.5,2.5,0,0,0,.46-5Z"/><path class="cls-1" d="M1138,583.29h0c-9.22.18-19.34.35-30.07.52a2.5,2.5,0,0,0,0,5h0c10.74-.17,20.86-.34,30.09-.52a2.5,2.5,0,0,0,0-5Z"/><path class="cls-1" d="M1035.15,77.32c-9.74.55-19.86,1.61-30.06,3.14a2.5,2.5,0,0,0,.37,5l.38,0c10-1.52,20-2.56,29.59-3.1a2.5,2.5,0,1,0-.28-5Z"/><path class="cls-1" d="M1340.57,311.71a2.49,2.49,0,0,0,2.47,2.18l.32,0a2.51,2.51,0,0,0,2.17-2.8c-1.48-11.49-3-21.23-4.74-29.77a2.5,2.5,0,1,0-4.9,1C1337.58,290.7,1339.11,300.33,1340.57,311.71Z"/><path class="cls-1" d="M897.39,586.22h0l-24.11.21v2.5l-2.12,1.32c.6,1,.71,1.15,4.9,1.15l3.65,0,17.72-.16a2.5,2.5,0,0,0,0-5Z"/><path class="cls-1" d="M1152.53,100.91c-5.64-2.69-10.19-4.82-13.27-6.26l-.36-.17c-4.49-2.11-9.23-4.06-14.07-5.8a2.5,2.5,0,0,0-1.69,4.71c4.69,1.69,9.28,3.57,13.64,5.61l.36.17c3.07,1.44,7.61,3.56,13.23,6.25a2.47,2.47,0,0,0,1.08.25,2.5,2.5,0,0,0,1.08-4.76Z"/><path class="cls-1" d="M1017.71,585h0l-30.06.33a2.5,2.5,0,0,0,0,5h0l30.07-.33a2.5,2.5,0,0,0,0-5Z"/><path class="cls-1" d="M975.4,86.73a130.1,130.1,0,0,0-27.9,12.36,2.5,2.5,0,0,0,1.28,4.65,2.57,2.57,0,0,0,1.28-.35,124.88,124.88,0,0,1,26.82-11.88,2.5,2.5,0,0,0-1.48-4.78Z"/><path class="cls-1" d="M957.58,585.66h0l-30.07.29a2.5,2.5,0,0,0,0,5h0l30.08-.29a2.5,2.5,0,0,0,0-5Z"/><path class="cls-1" d="M1322.58,456.45a2.5,2.5,0,0,0-3.28,1.32c-.34.8-.69,1.59-1,2.32a253.52,253.52,0,0,1-13.18,23.68,2.5,2.5,0,0,0,4.25,2.64,262.43,262.43,0,0,0,13.47-24.21l1.08-2.47A2.5,2.5,0,0,0,1322.58,456.45Z"/><path class="cls-1" d="M1300,195.26c-4.09-5.55-10-11.63-17.65-18.07a2.5,2.5,0,1,0-3.23,3.82c7.33,6.19,13,12,16.91,17.29q1.66,2.08,3.24,4.13a2.49,2.49,0,0,0,2,1,2.5,2.5,0,0,0,2-4C1302.11,198,1301,196.6,1300,195.26Z"/><path class="cls-1" d="M1330.57,255.37a2.43,2.43,0,0,0,.83-.15,2.5,2.5,0,0,0,1.52-3.19,163.56,163.56,0,0,0-12.74-27.58,2.5,2.5,0,1,0-4.33,2.5,159.19,159.19,0,0,1,12.36,26.75A2.5,2.5,0,0,0,1330.57,255.37Z"/><path class="cls-1" d="M1197.74,581a61.39,61.39,0,0,1-9.88.78h-.23c-3.14.27-9.74.55-19.62.83a2.5,2.5,0,0,0,.07,5h.07c9.87-.29,16.52-.57,19.8-.84a65.75,65.75,0,0,0,10.6-.85,2.5,2.5,0,1,0-.81-4.93Z"/><path class="cls-1" d="M1337.83,398.48a2.51,2.51,0,0,0-2.89,2c-1.84,10.46-4,20.27-6.28,29.14a2.5,2.5,0,0,0,1.78,3.05,2.41,2.41,0,0,0,.64.09,2.52,2.52,0,0,0,2.42-1.87c2.36-9,4.5-18.95,6.36-29.55A2.5,2.5,0,0,0,1337.83,398.48Z"/><path class="cls-1" d="M1344.4,338.81a2.5,2.5,0,0,0-2.63,2.36c-.36,6.49-1.1,16.92-2.58,29.77a2.5,2.5,0,0,0,2.2,2.77l.29,0a2.5,2.5,0,0,0,2.48-2.22c1.49-13,2.23-23.51,2.6-30.07A2.51,2.51,0,0,0,1344.4,338.81Z"/><path class="cls-1" d="M1247.73,551.72c-4,3.45-8.19,6.76-12.32,9.84l-3.17,2.34c-2.61,1.93-5.31,3.93-8.13,5.85a2.5,2.5,0,0,0,1.41,4.57,2.44,2.44,0,0,0,1.4-.44c2.91-2,5.65-4,8.3-6,1.06-.78,2.1-1.56,3.15-2.32,4.25-3.16,8.49-6.55,12.61-10.07a2.5,2.5,0,1,0-3.25-3.8Z"/><path class="cls-1" d="M1206.22,128.19c-8.42-4.57-17.39-9.27-26.67-14a2.5,2.5,0,1,0-2.26,4.46c9.24,4.68,18.17,9.36,26.55,13.91a2.46,2.46,0,0,0,1.19.31,2.5,2.5,0,0,0,1.19-4.7Z"/><path class="cls-1" d="M1291.75,507.83a2.5,2.5,0,0,0-3.5.49c-6.09,8-12.52,15.7-19.12,22.8a2.5,2.5,0,0,0,3.67,3.4c6.7-7.22,13.24-15,19.43-23.18A2.51,2.51,0,0,0,1291.75,507.83Z"/><path class="cls-1" d="M1258,159.1c-7.63-5.14-16.22-10.54-25.55-16.07a2.5,2.5,0,0,0-2.55,4.3c9.25,5.48,17.76,10.84,25.31,15.92a2.5,2.5,0,1,0,2.79-4.15Z"/><path class="cls-1" d="M912.56,137.68a131.89,131.89,0,0,1,14.24-16.41,2.5,2.5,0,0,0-3.49-3.58,136.94,136.94,0,0,0-15.39,17.88l-11.25-13.7-3.93,47.48L929.49,139Z"/></svg>