<?xml version="1.0" encoding="utf-8"?>
<!-- Generator: Adobe Illustrator 24.0.1, SVG Export Plug-In . SVG Version: 6.00 Build 0)  -->
<svg version="1.1" id="Charlotte_Legends_Oval_Pit_Road"
	 xmlns="http://www.w3.org/2000/svg" xmlns:xlink="http://www.w3.org/1999/xlink" x="0px" y="0px" viewBox="0 0 1920 1080"
	 style="enable-background:new 0 0 1920 1080;" xml:space="preserve">
<style type="text/css">
	.st0{fill:#D82520;}
</style>
<title>pitroad</title>
<g id="Pitroad">
	<path class="st0" d="M510.3,821.9h-30c-1.4,0-2.5,1.1-2.5,2.5s1.1,2.5,2.5,2.5h30c1.4,0,2.5-1.1,2.5-2.5S511.7,821.9,510.3,821.9z"
		/>
	<path class="st0" d="M600.3,826.9h30c1.4,0,2.5-1.1,2.5-2.5s-1.1-2.5-2.5-2.5h-30c-1.4,0-2.5,1.1-2.5,2.5S599,826.9,600.3,826.9z"
		/>
	<path class="st0" d="M434,857.9l-20-7.1c-1.7-1.9-3.1-3.8-4.1-5.6c-0.7-1.2-2.2-1.6-3.4-1c-1.2,0.7-1.6,2.2-1,3.4
		c1.2,2.2,3,4.6,5.2,7l0.4,0.5l21.2,7.5c0.3,0.1,0.6,0.1,0.8,0.1c1,0,2-0.6,2.4-1.7C436,859.8,435.3,858.3,434,857.9z"/>
	<path class="st0" d="M490.6,877.9l-28.3-10c-1.3-0.5-2.7,0.2-3.2,1.5c-0.5,1.3,0.2,2.7,1.5,3.2l28.3,10c0.3,0.1,0.6,0.1,0.8,0.1
		c1,0,2-0.6,2.4-1.7C492.6,879.8,491.9,878.4,490.6,877.9z"/>
	<path class="st0" d="M450.3,821.9h-29.8l-0.3,0l-0.6,0.2c-1.3,0.4-2.1,1.8-1.7,3.1c0.3,1.1,1.3,1.8,2.4,1.8c0.2,0,0.4,0,0.5-0.1
		h29.5c1.4,0,2.5-1.1,2.5-2.5S451.7,821.9,450.3,821.9z"/>
	<path class="st0" d="M840.3,828.4l30,0.4c0,0,0,0,0,0c1.4,0,2.5-1.1,2.5-2.5c0-1.4-1.1-2.5-2.5-2.5l-30-0.4c0,0,0,0,0,0
		c-1.4,0-2.5,1.1-2.5,2.5C837.8,827.3,838.9,828.4,840.3,828.4z"/>
	<path class="st0" d="M660.3,826.9h30c1.4,0,2.5-1.1,2.5-2.5s-1.1-2.5-2.5-2.5h-30c-1.4,0-2.5,1.1-2.5,2.5S659,826.9,660.3,826.9z"
		/>
	<path class="st0" d="M780.3,827.6l30,0.4c0,0,0,0,0,0c1.4,0,2.5-1.1,2.5-2.5c0-1.4-1.1-2.5-2.5-2.5l-30-0.4c-1.4,0-2.5,1.1-2.5,2.5
		C777.8,826.5,778.9,827.6,780.3,827.6z"/>
	<path class="st0" d="M837.8,954.6c-9.8,0.3-20,0.4-29.9,0.4c0,0,0,0,0,0c-1.4,0-2.5,1.1-2.5,2.5c0,1.4,1.1,2.5,2.5,2.5
		c1.9,0,3.7,0,5.6,0c8.2,0,16.4-0.1,24.5-0.4c1.4,0,2.5-1.2,2.4-2.6C840.4,955.6,839.2,954.5,837.8,954.6z"/>
	<path class="st0" d="M547.1,898l-28.3-10c-1.3-0.5-2.7,0.2-3.2,1.5c-0.5,1.3,0.2,2.7,1.5,3.2l28.3,10c0.3,0.1,0.6,0.1,0.8,0.1
		c1,0,2-0.6,2.4-1.7C549.1,899.9,548.4,898.5,547.1,898z"/>
	<path class="st0" d="M718.4,949.5c-10.3-1.2-20.3-2.5-29.6-4c-1.4-0.2-2.6,0.7-2.9,2.1c-0.2,1.4,0.7,2.6,2.1,2.9
		c9.4,1.5,19.5,2.8,29.9,4c0.1,0,0.2,0,0.3,0c1.3,0,2.3-0.9,2.5-2.2C720.7,950.9,719.7,949.7,718.4,949.5z"/>
	<path class="st0" d="M778,954.2c-9.9-0.4-20-1-29.9-1.8c-1.4-0.1-2.6,0.9-2.7,2.3c-0.1,1.4,0.9,2.6,2.3,2.7
		c9.9,0.8,20.1,1.4,30,1.8c0,0,0.1,0,0.1,0c1.3,0,2.4-1,2.5-2.4C780.5,955.4,779.4,954.2,778,954.2z"/>
	<path class="st0" d="M750.3,827.2c1.4,0,2.5-1.1,2.5-2.5c0-1.4-1.1-2.5-2.5-2.5l-20.5-0.3h-9.5c-1.4,0-2.5,1.1-2.5,2.5
		s1.1,2.5,2.5,2.5h9.5L750.3,827.2C750.3,827.2,750.3,827.2,750.3,827.2z"/>
	<path class="st0" d="M572.8,824.4c0-1.4-1.1-2.5-2.5-2.5h-30c-1.4,0-2.5,1.1-2.5,2.5s1.1,2.5,2.5,2.5h30
		C571.7,826.9,572.8,825.8,572.8,824.4z"/>
	<path class="st0" d="M603.7,918.1l-28.3-10c-1.3-0.5-2.7,0.2-3.2,1.5c-0.5,1.3,0.2,2.7,1.5,3.2l28.3,10c0.3,0.1,0.6,0.1,0.8,0.1
		c1,0,2-0.6,2.4-1.7C605.7,920,605,918.5,603.7,918.1z"/>
	<path class="st0" d="M660.2,938.1l-28.3-10c-1.3-0.5-2.7,0.2-3.2,1.5c-0.5,1.3,0.2,2.7,1.5,3.2l28.3,10c0.3,0.1,0.6,0.1,0.8,0.1
		c1,0,2-0.6,2.4-1.7C662.2,940,661.5,938.6,660.2,938.1z"/>
	<path class="st0" d="M904.1,956L860,938.1l7.1,16.1c-1,0.4-1.7,1.3-1.6,2.4c0,1.1,0.7,2,1.7,2.3l-6.6,16.3L904.1,956z"/>
</g>
</svg>
