<svg id="Charlotte_Legends_RC_Long_Pit_Road" data-name="Charlotte Legends RC Long_Pit Road" xmlns="http://www.w3.org/2000/svg" viewBox="0 0 1920 1080"><defs><style>.cls-1{fill:#d82520;}</style></defs><g id="Pitroad"><path class="cls-1" d="M1524.38,749s-2.45.72-6.61,1.89a2.24,2.24,0,0,1-.68.1,2.5,2.5,0,0,1-.67-4.91c4.1-1.15,6.53-1.87,6.54-1.88a2.5,2.5,0,0,1,1.42,4.8ZM1383,798.3a2.49,2.49,0,0,0-3.39,1,90.46,90.46,0,0,0-9.26,26.23c-.17.86-.37,1.74-.6,2.6a2.5,2.5,0,0,0,1.79,3,2.35,2.35,0,0,0,.64.09,2.5,2.5,0,0,0,2.41-1.87c.25-1,.48-1.94.67-2.91A85.24,85.24,0,0,1,1384,801.7,2.51,2.51,0,0,0,1383,798.3Zm-73.22,92.41-3.22,2.33c-5,3.61-10.06,7.3-15.24,11.14l-4.51-16.81L1263.67,929l46-12.47-15.22-8.41c5.12-3.8,10.17-7.46,15.09-11l3.22-2.34a2.5,2.5,0,0,0-2.94-4Zm45.69-37.89c-5.44,6.13-12.36,12.47-21.77,19.95a2.5,2.5,0,0,0,3.11,3.92c9.64-7.67,16.76-14.2,22.4-20.55a2.5,2.5,0,1,0-3.74-3.32Zm72.94-88.65a75.84,75.84,0,0,0-28.34,12,2.5,2.5,0,1,0,2.88,4.09,70.66,70.66,0,0,1,26.49-11.22,2.5,2.5,0,0,0-1-4.9Zm59-10.47c-10.88,2.63-20.72,4.73-29.23,6.24a2.51,2.51,0,0,0,.44,5,3.42,3.42,0,0,0,.44,0c8.61-1.54,18.54-3.66,29.52-6.31a2.5,2.5,0,1,0-1.17-4.86Z"/></g></svg>