<?xml version="1.0" encoding="utf-8"?>
<!-- Generator: Adobe Illustrator 25.3.1, SVG Export Plug-In . SVG Version: 6.00 Build 0)  -->
<svg version="1.1" id="Charlotte_Legends_RC_Medium_Pit_Road"
	 xmlns="http://www.w3.org/2000/svg" xmlns:xlink="http://www.w3.org/1999/xlink" x="0px" y="0px" viewBox="0 0 1920 1080"
	 style="enable-background:new 0 0 1920 1080;" xml:space="preserve">
<style type="text/css">
	.st0{fill:#D82520;}
</style>
<g id="Pitroad_1_">
	<path id="Pitroad" class="st0" d="M1316.4,575.5c0.8,1.1,0.6,2.7-0.5,3.5c-0.4,0.3-1,0.5-1.5,0.5c-0.8,0-1.5-0.4-2-1
		c-6.6-8.7-13.3-15.2-20.1-21.7c-1-0.9-1.1-2.5-0.1-3.5c0.9-1,2.5-1.1,3.5-0.1C1302.7,559.8,1309.5,566.5,1316.4,575.5z
		 M1271.8,534.3c-7.5-4.4-16.7-8.8-27.4-13.1c-1.3-0.5-2.7,0.1-3.3,1.4c-0.5,1.3,0.1,2.7,1.4,3.3c10.4,4.2,19.4,8.5,26.8,12.8
		c0.4,0.2,0.8,0.3,1.3,0.3c0.9,0,1.7-0.4,2.2-1.2C1273.4,536.5,1273,535,1271.8,534.3z M1216,510.9c-8.9-2.9-18.6-5.8-28.9-8.6
		c-1.3-0.4-2.7,0.4-3.1,1.7c-0.4,1.3,0.4,2.7,1.7,3.1c10.2,2.8,19.8,5.7,28.7,8.6c0.3,0.1,0.5,0.1,0.8,0.1c1.1,0,2-0.7,2.4-1.7
		C1218,512.8,1217.3,511.3,1216,510.9z M1158,494.8c-7.3-1.7-14.8-3.5-22.3-5.1l9.8-14.3l-46.7,9.5l39.4,26.8l-3.5-17.1
		c7.5,1.6,14.9,3.3,22.1,5.1c0.2,0,0.4,0.1,0.6,0.1c1.1,0,2.2-0.8,2.4-1.9C1160.1,496.5,1159.3,495.1,1158,494.8z M1332,601.5
		c-0.6-1.2-2.1-1.8-3.3-1.2c-1.2,0.6-1.8,2.1-1.2,3.3c3.9,8.1,7.6,17.4,11,27.5c0.4,1,1.3,1.7,2.4,1.7c0.3,0,0.5,0,0.8-0.1
		c1.3-0.4,2-1.9,1.6-3.2C1339.7,619.1,1336,609.9,1332,601.5z M1484.4,757.9c-9.7,2.7-19.5,4.8-29,6.3c-1.4,0.2-2.3,1.5-2.1,2.9
		c0.2,1.2,1.3,2.1,2.5,2.1c0.1,0,0.3,0,0.4,0c9.7-1.5,19.7-3.7,29.6-6.4c1.3-0.4,2.1-1.7,1.7-3.1S1485.7,757.5,1484.4,757.9z
		 M1532.3,745.9c-0.4-1.3-1.8-2.1-3.1-1.7l-16.1,4.9c-1.3,0.4-2.1,1.8-1.7,3.1c0.3,1.1,1.3,1.8,2.4,1.8c0.2,0,0.5,0,0.7-0.1
		l16.1-4.9C1531.9,748.7,1532.7,747.3,1532.3,745.9z M1351.7,658.5c-0.4-1.3-1.8-2.1-3.1-1.7c-1.3,0.4-2.1,1.8-1.7,3.1l8.2,28.9
		c0.3,1.1,1.3,1.8,2.4,1.8c0.2,0,0.5,0,0.7-0.1c1.3-0.4,2.1-1.8,1.7-3.1L1351.7,658.5z M1425.9,766.8c-11.6,0.2-18.2-0.9-18.3-0.9
		h-0.4c-3.5,0-6.8-0.7-10-2c-1.3-0.5-2.7,0.1-3.3,1.3c-0.5,1.3,0.1,2.7,1.3,3.3c3.7,1.6,7.7,2.4,11.7,2.4c1.1,0.2,6.7,0.9,16,0.9
		c0.9,0,1.9,0,2.9,0c1.4,0,2.5-1.2,2.5-2.5C1428.4,767.9,1427.3,766.8,1425.9,766.8z M1369,719.3l-0.9-3.1c-0.4-1.3-1.8-2.1-3.1-1.7
		c-1.3,0.4-2.1,1.8-1.7,3.1l0.8,2.8c0.3,1.4,2.9,13.7,9.4,25.9c0.5,0.8,1.3,1.3,2.2,1.3c0.4,0,0.8-0.1,1.2-0.3
		c1.2-0.7,1.7-2.2,1-3.4C1371.6,732,1369,719.4,1369,719.3z"/>
</g>
</svg>
