<?xml version="1.0" encoding="utf-8"?>
<!-- Generator: Adobe Illustrator 25.3.1, SVG Export Plug-In . SVG Version: 6.00 Build 0)  -->
<svg version="1.1" id="Charlotte_Legends_RC_Short_Pit_Road"
	 xmlns="http://www.w3.org/2000/svg" xmlns:xlink="http://www.w3.org/1999/xlink" x="0px" y="0px" viewBox="0 0 1920 1080"
	 style="enable-background:new 0 0 1920 1080;" xml:space="preserve">
<style type="text/css">
	.st0{fill:#D82520;}
</style>
<g id="Pitroad">
	<path id="Pitroad_1_" class="st0" d="M1281.1,540.5c-6.7-4.6-15.8-9.3-27.1-14c-1.3-0.5-2.7,0.1-3.3,1.3c-0.5,1.3,0.1,2.7,1.3,3.3
		c11,4.6,19.8,9.1,26.2,13.5c0.4,0.3,0.9,0.4,1.4,0.4c0.8,0,1.6-0.4,2.1-1.1C1282.6,542.8,1282.3,541.3,1281.1,540.5z M1336.6,611.7
		c-0.5-1.3-2-1.9-3.3-1.3c-1.3,0.5-1.9,2-1.3,3.3c3.5,8.3,6.8,17.8,9.9,28c0.3,1.1,1.3,1.8,2.4,1.8c0.2,0,0.5,0,0.7-0.1
		c1.3-0.4,2.1-1.8,1.7-3.1C1343.5,629.8,1340.1,620.2,1336.6,611.7z M1225.7,516c-8.8-2.9-18.5-5.9-28.8-8.8
		c-1.3-0.4-2.7,0.4-3.1,1.7c-0.4,1.3,0.4,2.7,1.7,3.1c10.3,2.9,19.9,5.9,28.6,8.8c0.3,0.1,0.5,0.1,0.8,0.1c1,0,2-0.7,2.4-1.7
		C1227.7,517.9,1227,516.5,1225.7,516z M1109.2,485.8c-7.4-1.6-14.9-3.1-22.4-4.6l9.6-14.5l-46.5,10.1l39.7,26.3l-3.7-17
		c7.4,1.5,14.9,3,22.3,4.6c0.2,0,0.3,0.1,0.5,0.1c1.2,0,2.2-0.8,2.4-2C1111.4,487.5,1110.6,486.1,1109.2,485.8z M1167.8,499.4
		c-9.3-2.4-19.1-4.7-29.3-7.1c-1.3-0.3-2.7,0.5-3,1.9s0.5,2.7,1.9,3c10.1,2.3,19.9,4.7,29.1,7c0.2,0.1,0.4,0.1,0.6,0.1
		c1.1,0,2.1-0.8,2.4-1.9C1170,501.1,1169.2,499.7,1167.8,499.4z M1354.8,669.1c-0.4-1.3-1.8-2.1-3.1-1.7c-1.3,0.4-2.1,1.8-1.7,3.1
		l8.2,28.9c0.3,1.1,1.3,1.8,2.4,1.8c0.2,0,0.5,0,0.7-0.1c1.3-0.4,2.1-1.8,1.7-3.1L1354.8,669.1z M1303.7,561c-1-1-2.6-1-3.5,0
		c-1,1-1,2.6,0,3.5c7.5,7.6,13.1,14.7,18.4,22.9c0.5,0.7,1.3,1.2,2.1,1.2c0.5,0,0.9-0.1,1.3-0.4c1.2-0.7,1.5-2.3,0.8-3.5
		C1317.3,576.1,1311.4,568.8,1303.7,561z M1367.7,599.9c0-3.4,0.1-6.8,0.4-10c0.1-1.4-0.9-2.6-2.3-2.7c-1.4-0.1-2.6,0.9-2.7,2.3
		c-0.3,3.4-0.4,6.9-0.4,10.4c0,6.6,0.5,13.3,1.4,20.1c0.2,1.3,1.2,2.2,2.5,2.2c0.1,0,0.2,0,0.3,0c1.4-0.2,2.3-1.5,2.1-2.8
		C1368.5,614.8,1367.7,607.8,1367.7,599.9z M1477.7,477.8c-0.5-1.3-2-1.9-3.3-1.3c-4.2,1.8-8.4,3.6-12.4,5.5
		c-1.3,0.6-1.8,2.1-1.2,3.3c0.4,0.9,1.3,1.4,2.3,1.4c0.4,0,0.7-0.1,1.1-0.2c4-1.9,8.1-3.7,12.2-5.4
		C1477.6,480.6,1478.2,479.1,1477.7,477.8z M1390.1,703.9c-1.3,0.4-2.1,1.8-1.7,3.1l1,3.5c-2.7,5.6-7,11.8-12.6,11.8
		c-0.9,0-1.8-0.2-2.7-0.5c-1.3-0.4-2.7,0.3-3.2,1.6c-0.4,1.3,0.3,2.7,1.6,3.2c1.4,0.5,2.9,0.7,4.3,0.7c6.9,0,12.7-5.2,17.5-15.5
		l0.4-0.8l-1.5-5.3C1392.8,704.3,1391.4,703.5,1390.1,703.9z M1435.4,496.3c-13.3,8.2-19.8,14.1-20,14.3l-4.3,3.9
		c-1,0.9-1.1,2.5-0.1,3.5c0.5,0.5,1.2,0.8,1.8,0.8c0.6,0,1.2-0.2,1.7-0.7l4.3-3.9c0.1-0.1,6.4-5.8,19.3-13.7
		c1.2-0.7,1.5-2.3,0.8-3.4C1438.1,495.9,1436.5,495.6,1435.4,496.3z M1372,563.1c0.4,0.2,0.7,0.3,1.1,0.3c0.9,0,1.8-0.5,2.2-1.4
		c1.9-3.8,4.2-7.4,6.8-10.4c3.2-3.8,5.1-6.1,6.6-8s2.6-3.2,4.1-4.9c0.9-1,0.9-2.6-0.1-3.5s-2.6-0.9-3.5,0.1
		c-1.6,1.8-2.8,3.2-4.3,5.2c-1.5,1.9-3.3,4.2-6.5,7.9c-2.9,3.4-5.4,7.2-7.5,11.4C1370.3,560.9,1370.8,562.4,1372,563.1z
		 M1373.4,646.3c-1.3,0.4-2.1,1.8-1.7,3.1l8.3,28.8c0.3,1.1,1.3,1.8,2.4,1.8c0.2,0,0.5,0,0.7-0.1c1.3-0.4,2.1-1.8,1.7-3.1l-8.3-28.8
		C1376.1,646.6,1374.7,645.9,1373.4,646.3z"/>
</g>
</svg>
