<?xml version="1.0" encoding="utf-8"?>
<!-- Generator: Adobe Illustrator 24.0.1, SVG Export Plug-In . SVG Version: 6.00 Build 0)  -->
<svg version="1.1" id="Charlotte_2018_Oval_Pit_Road"
	 xmlns="http://www.w3.org/2000/svg" xmlns:xlink="http://www.w3.org/1999/xlink" x="0px" y="0px" viewBox="0 0 1920 1080"
	 style="enable-background:new 0 0 1920 1080;" xml:space="preserve">
<style type="text/css">
	.st0{fill:#0089BA;}
	.st1{fill:#D82520;}
</style>
<title>pitroad</title>
<g id="Mergeline">
	<path class="st0" d="M1826.5,371c2.4,10,4.2,19.8,5.4,29.1c0.3,2.5,2.5,4.3,5,4.3c0.2,0,0.4,0,0.7,0c2.7-0.4,4.7-2.9,4.3-5.6
		c-1.3-9.7-3.2-19.8-5.6-30.1c-0.6-2.7-3.3-4.4-6-3.7C1827.5,365.6,1825.9,368.3,1826.5,371z"/>
	<path class="st0" d="M1512.9,90.2c0.4,0.1,0.8,0.1,1.2,0.1c2.3,0,4.3-1.5,4.9-3.8c0.6-2.7-1-5.4-3.7-6c-9.6-2.3-19.5-4.5-29.5-6.4
		c-2.7-0.5-5.3,1.2-5.9,4c-0.5,2.7,1.2,5.3,4,5.9C1493.7,85.8,1503.4,87.9,1512.9,90.2z"/>
	<path class="st0" d="M1571.2,791.8c-9.1,3.9-18.4,7.6-27.7,11c-2.6,1-3.9,3.8-3,6.4c0.7,2,2.7,3.3,4.7,3.3c0.6,0,1.2-0.1,1.7-0.3
		c9.5-3.5,19-7.3,28.2-11.2c2.5-1.1,3.7-4,2.6-6.6C1576.7,791.9,1573.7,790.8,1571.2,791.8z"/>
	<path class="st0" d="M1597.6,117.4c9.2,3.8,18.3,7.9,27,12.1c0.7,0.3,1.5,0.5,2.2,0.5c1.9,0,3.6-1,4.5-2.8c1.2-2.5,0.2-5.5-2.3-6.7
		c-8.9-4.3-18.2-8.5-27.6-12.4c-2.6-1.1-5.5,0.2-6.5,2.7C1593.9,113.4,1595.1,116.4,1597.6,117.4z"/>
	<path class="st0" d="M1569.9,106.9c0.5,0.2,1.1,0.3,1.6,0.3c2.1,0,4-1.3,4.7-3.4c0.9-2.6-0.5-5.5-3.1-6.4c-9.3-3.3-19-6.3-28.8-9.2
		c-2.7-0.8-5.4,0.8-6.2,3.4c-0.8,2.7,0.8,5.4,3.4,6.2C1551.2,100.6,1560.7,103.7,1569.9,106.9z"/>
	<path class="st0" d="M1515.3,812.5c-9.6,3-19.3,5.7-28.7,8.1c-2.7,0.7-4.3,3.4-3.6,6.1c0.6,2.3,2.6,3.8,4.8,3.8
		c0.4,0,0.8,0,1.2-0.2c9.6-2.4,19.4-5.2,29.2-8.2c2.6-0.8,4.1-3.6,3.3-6.3C1520.7,813.1,1517.9,811.7,1515.3,812.5z"/>
	<path class="st0" d="M1818.4,342.5c0.7,2.1,2.6,3.4,4.7,3.4c0.5,0,1.1-0.1,1.6-0.3c2.6-0.9,4-3.7,3.2-6.3
		c-3.2-9.6-6.8-19.1-10.9-28.4c-1.1-2.5-4-3.7-6.6-2.6c-2.5,1.1-3.7,4-2.6,6.6C1811.7,323.9,1815.3,333.2,1818.4,342.5z"/>
	<path class="st0" d="M1338.4,825.9l-30-0.3c-2.7,0-5,2.2-5,5s2.2,5,5,5l30,0.3c0,0,0,0,0,0c2.7,0,5-2.2,5-5
		C1343.4,828.2,1341.1,826,1338.4,825.9z"/>
	<path class="st0" d="M1398.4,826.5l-30-0.3c-2.8,0-5,2.2-5,5s2.2,5,5,5l30,0.3c0,0,0,0,0,0c2.7,0,5-2.2,5-5
		C1403.4,828.8,1401.1,826.5,1398.4,826.5z"/>
	<path class="st0" d="M1454.5,78.8c0.3,0,0.5,0.1,0.8,0.1c2.4,0,4.6-1.8,4.9-4.2c0.4-2.7-1.5-5.3-4.2-5.7c-9.8-1.5-19.8-2.8-29.9-4
		c-2.8-0.3-5.2,1.6-5.5,4.4c-0.3,2.7,1.6,5.2,4.4,5.5C1434.9,76,1444.9,77.3,1454.5,78.8z"/>
	<path class="st0" d="M1457.5,826.9c-0.4,0.1-0.7,0.1-0.9,0.1l-28.3-0.3c0,0,0,0,0,0c-2.7,0-5,2.2-5,5c0,2.8,2.2,5,5,5l29,0.3l0.4,0
		c0.2,0,0.7-0.1,1.5-0.2c2.7-0.4,4.6-3,4.1-5.7C1462.8,828.3,1460.3,826.4,1457.5,826.9z"/>
	<path class="st0" d="M1765.2,648.9c-2.2-1.6-5.3-1.2-7,1c-5.8,7.8-12.1,15.6-18.6,23c-1.8,2.1-1.6,5.2,0.5,7.1
		c0.9,0.8,2.1,1.2,3.3,1.2c1.4,0,2.8-0.6,3.8-1.7c6.7-7.6,13.1-15.6,19-23.6C1767.9,653.7,1767.4,650.6,1765.2,648.9z"/>
	<path class="st0" d="M1803.8,283.5c-4.8-8.9-10-17.7-15.5-26.2c-1.5-2.3-4.6-3-6.9-1.5c-2.3,1.5-3,4.6-1.5,6.9
		c5.4,8.2,10.4,16.8,15.1,25.4c0.9,1.7,2.6,2.6,4.4,2.6c0.8,0,1.6-0.2,2.4-0.6C1804.2,289,1805.1,285.9,1803.8,283.5z"/>
	<path class="st0" d="M1818.7,542.3c-2.6-0.9-5.4,0.6-6.3,3.2c-3.1,9.4-6.6,18.7-10.4,27.7c-1.1,2.5,0.1,5.5,2.7,6.5
		c0.6,0.3,1.3,0.4,1.9,0.4c2,0,3.8-1.2,4.6-3.1c3.9-9.2,7.5-18.8,10.6-28.4C1822.8,546,1821.3,543.1,1818.7,542.3z"/>
	<path class="st0" d="M1838.1,424.4c-2.7-0.1-5.1,2-5.2,4.8c-0.4,10-1.2,19.9-2.2,29.6c-0.3,2.7,1.7,5.2,4.4,5.5c0.2,0,0.4,0,0.5,0
		c2.5,0,4.7-1.9,5-4.5c1-9.9,1.8-20,2.2-30.2C1843,426.9,1840.9,424.6,1838.1,424.4z"/>
	<path class="st0" d="M1796.3,597.8c-2.5-1.3-5.5-0.3-6.7,2.1c-4.5,8.7-9.4,17.3-14.6,25.7c-1.5,2.3-0.8,5.4,1.6,6.9
		c0.8,0.5,1.7,0.8,2.6,0.8c1.7,0,3.3-0.8,4.2-2.4c5.3-8.5,10.4-17.4,15-26.4C1799.7,602,1798.7,599,1796.3,597.8z"/>
	<path class="st0" d="M1624.5,765.4c-8.5,4.8-17.3,9.5-26.3,13.9c-2.5,1.2-3.5,4.2-2.3,6.7c0.9,1.8,2.6,2.8,4.5,2.8
		c0.7,0,1.5-0.2,2.2-0.5c9.1-4.5,18.1-9.3,26.8-14.2c2.4-1.4,3.2-4.4,1.9-6.8S1626.9,764.1,1624.5,765.4z"/>
	<path class="st0" d="M1832.5,484c-2.7-0.5-5.3,1.3-5.8,4.1c-1.7,9.8-3.7,19.5-6.1,28.9c-0.7,2.7,1,5.4,3.6,6.1
		c0.4,0.1,0.8,0.1,1.2,0.1c2.2,0,4.3-1.5,4.8-3.8c2.4-9.7,4.5-19.6,6.2-29.6C1837,487.1,1835.2,484.5,1832.5,484z"/>
	<path class="st0" d="M1674.3,733.1c-7.8,5.8-16,11.5-24.4,16.9c-2.3,1.5-3,4.6-1.5,6.9c1,1.5,2.6,2.3,4.2,2.3
		c0.9,0,1.9-0.3,2.7-0.8c8.5-5.5,16.9-11.4,24.9-17.3c2.2-1.6,2.7-4.8,1-7C1679.7,731.9,1676.5,731.4,1674.3,733.1z"/>
	<path class="st0" d="M1719.4,694.6c-6.9,6.8-14.3,13.6-21.8,20c-2.1,1.8-2.3,4.9-0.6,7c1,1.2,2.4,1.8,3.8,1.8
		c1.1,0,2.3-0.4,3.2-1.2c7.7-6.6,15.2-13.5,22.4-20.5c2-1.9,2-5.1,0-7.1C1724.5,692.6,1721.3,692.6,1719.4,694.6z"/>
	<path class="st0" d="M1681.6,150.6c-8.3-5.5-16.9-10.9-25.8-15.9c-2.4-1.4-5.5-0.5-6.8,1.9c-1.4,2.4-0.5,5.5,1.9,6.8
		c8.6,4.9,17.1,10.2,25.2,15.6c0.9,0.6,1.8,0.8,2.8,0.8c1.6,0,3.2-0.8,4.2-2.2C1684.5,155.3,1683.9,152.1,1681.6,150.6z"/>
	<path class="st0" d="M1706.2,168.4c-2.2-1.7-5.3-1.3-7,0.9c-1.7,2.2-1.3,5.3,0.9,7c7.8,6.1,15.4,12.5,22.6,19.1
		c1,0.9,2.2,1.3,3.4,1.3c1.4,0,2.7-0.5,3.7-1.6c1.9-2,1.7-5.2-0.3-7.1C1722,181.2,1714.2,174.6,1706.2,168.4z"/>
	<path class="st0" d="M1750.9,209.4c-1.9-2-5-2.1-7.1-0.3c-2,1.9-2.1,5-0.3,7.1c6.7,7.2,13.1,14.8,19.1,22.5c1,1.3,2.5,1.9,3.9,1.9
		c1.1,0,2.2-0.3,3.1-1.1c2.2-1.7,2.6-4.8,0.9-7C1764.4,224.7,1757.8,216.9,1750.9,209.4z"/>
	
		<rect x="1380" y="63.5" transform="matrix(0.1054 -0.9944 0.9944 0.1054 1195.5315 1465.9583)" class="st0" width="65" height="10"/>
</g>
<g id="Pitroad">
	<path class="st1" d="M738.5,823.6l-30-0.2c0,0,0,0,0,0c-1.4,0-2.5,1.1-2.5,2.5c0,1.4,1.1,2.5,2.5,2.5l30,0.2c0,0,0,0,0,0
		c1.4,0,2.5-1.1,2.5-2.5C741,824.7,739.9,823.6,738.5,823.6z"/>
	<path class="st1" d="M618.5,822.6l-30-0.2c0,0,0,0,0,0c-1.4,0-2.5,1.1-2.5,2.5c0,1.4,1.1,2.5,2.5,2.5l30,0.2c0,0,0,0,0,0
		c1.4,0,2.5-1.1,2.5-2.5C621,823.7,619.9,822.6,618.5,822.6z"/>
	<path class="st1" d="M498.5,821.6l-16.2-0.1c-4.5,0.1-9,0.1-13.7-0.1c-1.4,0-2.5,1.1-2.6,2.4c0,1.4,1.1,2.5,2.4,2.6
		c4.8,0.1,9.5,0.1,13.9,0.1l16.2,0.1c0,0,0,0,0,0c1.4,0,2.5-1.1,2.5-2.5C501,822.8,499.9,821.6,498.5,821.6z"/>
	<path class="st1" d="M678.5,823.1l-30-0.2c0,0,0,0,0,0c-1.4,0-2.5,1.1-2.5,2.5c0,1.4,1.1,2.5,2.5,2.5l30,0.2c0,0,0,0,0,0
		c1.4,0,2.5-1.1,2.5-2.5C681,824.2,679.9,823.1,678.5,823.1z"/>
	<path class="st1" d="M558.5,822.1l-30-0.2c-1.4,0-2.5,1.1-2.5,2.5c0,1.4,1.1,2.5,2.5,2.5l30,0.2c0,0,0,0,0,0c1.4,0,2.5-1.1,2.5-2.5
		C561,823.3,559.9,822.1,558.5,822.1z"/>
	<path class="st1" d="M265.9,775.1c-9-4.2-17.9-8.7-26.7-13.4c-1.2-0.7-2.7-0.2-3.4,1c-0.7,1.2-0.2,2.7,1,3.4
		c8.8,4.7,17.9,9.3,26.9,13.5c0.3,0.2,0.7,0.2,1.1,0.2c0.9,0,1.8-0.5,2.3-1.4C267.7,777.2,267.1,775.7,265.9,775.1z"/>
	<path class="st1" d="M321.5,796.7c-6.6-1.9-10.4-3-10.4-3c-0.1,0-6.7-2.2-17.8-6.6c-1.3-0.5-2.7,0.1-3.2,1.4
		c-0.5,1.3,0.1,2.7,1.4,3.3c11.2,4.5,17.9,6.6,18.2,6.7c0,0,3.9,1.2,10.5,3.1c0.2,0.1,0.5,0.1,0.7,0.1c1.1,0,2.1-0.7,2.4-1.8
		C323.6,798.4,322.8,797,321.5,796.7z"/>
	<path class="st1" d="M438.8,819.6c-9.5-0.9-19.4-2.2-29.6-3.7c-1.4-0.2-2.6,0.7-2.8,2.1c-0.2,1.4,0.7,2.6,2.1,2.8
		c10.3,1.6,20.4,2.8,29.9,3.8c0.1,0,0.2,0,0.2,0c1.3,0,2.4-1,2.5-2.3C441.2,820.9,440.2,819.7,438.8,819.6z"/>
	<path class="st1" d="M379.7,810.6c-9.6-1.9-19.5-4.1-29.2-6.4c-1.3-0.3-2.7,0.5-3,1.8c-0.3,1.3,0.5,2.7,1.8,3
		c9.8,2.4,19.7,4.5,29.4,6.4c0.2,0,0.3,0,0.5,0c1.2,0,2.2-0.8,2.4-2C381.9,812.2,381,810.9,379.7,810.6z"/>
	<path class="st1" d="M213.2,746.9c-8.6-5.2-17-10.6-25.1-16.2c-1.1-0.8-2.7-0.5-3.5,0.6c-0.8,1.1-0.5,2.7,0.6,3.5
		c8.2,5.6,16.7,11.1,25.3,16.3c0.4,0.2,0.9,0.4,1.3,0.4c0.8,0,1.7-0.4,2.1-1.2C214.8,749.2,214.4,747.6,213.2,746.9z"/>
	<path class="st1" d="M1098.5,826.5l-30-0.2c-1.4,0-2.5,1.1-2.5,2.5c0,1.4,1.1,2.5,2.5,2.5l30,0.2c0,0,0,0,0,0
		c1.4,0,2.5-1.1,2.5-2.5C1101,827.6,1099.9,826.5,1098.5,826.5z"/>
	<path class="st1" d="M798.5,824.1l-30-0.2c0,0,0,0,0,0c-1.4,0-2.5,1.1-2.5,2.5c0,1.4,1.1,2.5,2.5,2.5l30,0.2c0,0,0,0,0,0
		c1.4,0,2.5-1.1,2.5-2.5C801,825.2,799.9,824.1,798.5,824.1z"/>
	<path class="st1" d="M1158.5,827l-30-0.2c-1.4,0-2.5,1.1-2.5,2.5c0,1.4,1.1,2.5,2.5,2.5l30,0.2c0,0,0,0,0,0c1.4,0,2.5-1.1,2.5-2.5
		C1161,828.1,1159.9,827,1158.5,827z"/>
	<path class="st1" d="M1218.5,827.4l-30-0.2c0,0,0,0,0,0c-1.4,0-2.5,1.1-2.5,2.5c0,1.4,1.1,2.5,2.5,2.5l30,0.2c0,0,0,0,0,0
		c1.4,0,2.5-1.1,2.5-2.5C1221,828.6,1219.9,827.5,1218.5,827.4z"/>
	<path class="st1" d="M1038.5,826l-30-0.2c-1.4,0-2.5,1.1-2.5,2.5c0,1.4,1.1,2.5,2.5,2.5l30,0.2c0,0,0,0,0,0c1.4,0,2.5-1.1,2.5-2.5
		C1041,827.1,1039.9,826,1038.5,826z"/>
	<path class="st1" d="M858.5,824.5l-30-0.2c-1.4,0-2.5,1.1-2.5,2.5c0,1.4,1.1,2.5,2.5,2.5l30,0.2c0,0,0,0,0,0c1.4,0,2.5-1.1,2.5-2.5
		C861,825.7,859.9,824.5,858.5,824.5z"/>
	<path class="st1" d="M918.5,825l-30-0.2c0,0,0,0,0,0c-1.4,0-2.5,1.1-2.5,2.5c0,1.4,1.1,2.5,2.5,2.5l30,0.2c0,0,0,0,0,0
		c1.4,0,2.5-1.1,2.5-2.5C921,826.2,919.9,825,918.5,825z"/>
	<path class="st1" d="M978.5,825.5l-30-0.2c-1.4,0-2.5,1.1-2.5,2.5c0,1.4,1.1,2.5,2.5,2.5l30,0.2c0,0,0,0,0,0c1.4,0,2.5-1.1,2.5-2.5
		C981,826.6,979.9,825.5,978.5,825.5z"/>
	<path class="st1" d="M1308.3,830.7l-43.7-18.9l6.7,16.1l-22.8-0.2c0,0,0,0,0,0c-1.4,0-2.5,1.1-2.5,2.5c0,1.4,1.1,2.5,2.5,2.5
		l22.8,0.2l-6.9,16L1308.3,830.7z"/>
</g>
</svg>
