<?xml version="1.0" encoding="utf-8"?>
<!-- Generator: Adobe Illustrator 24.0.1, SVG Export Plug-In . SVG Version: 6.00 Build 0)  -->
<svg version="1.1" id="Charlotte_Roval_Long_Pit_Road"
	 xmlns="http://www.w3.org/2000/svg" xmlns:xlink="http://www.w3.org/1999/xlink" x="0px" y="0px" viewBox="0 0 1920 1080"
	 style="enable-background:new 0 0 1920 1080;" xml:space="preserve">
<style type="text/css">
	.st0{fill:#D82520;}
</style>
<title>pitroad</title>
<g id="Pitroad">
	<path class="st0" d="M637.6,822.8l-30-0.2c-1.4,0-2.5,1.1-2.5,2.5c0,1.4,1.1,2.5,2.5,2.5l30,0.2c0,0,0,0,0,0c1.4,0,2.5-1.1,2.5-2.5
		C640.1,823.9,639,822.8,637.6,822.8z"/>
	<path class="st0" d="M517.6,821.8l-30-0.2c-1.4,0-2.5,1.1-2.5,2.5c0,1.4,1.1,2.5,2.5,2.5l30,0.2c0,0,0,0,0,0c1.4,0,2.5-1.1,2.5-2.5
		C520.1,822.9,519,821.8,517.6,821.8z"/>
	<path class="st0" d="M577.6,822.3l-30-0.2c0,0,0,0,0,0c-1.4,0-2.5,1.1-2.5,2.5c0,1.4,1.1,2.5,2.5,2.5l30,0.2c0,0,0,0,0,0
		c1.4,0,2.5-1.1,2.5-2.5C580.1,823.4,579,822.3,577.6,822.3z"/>
	<path class="st0" d="M817.6,824.2l-30-0.2c0,0,0,0,0,0c-1.4,0-2.5,1.1-2.5,2.5c0,1.4,1.1,2.5,2.5,2.5l30,0.2c0,0,0,0,0,0
		c1.4,0,2.5-1.1,2.5-2.5C820.1,825.3,819,824.2,817.6,824.2z"/>
	<path class="st0" d="M877.6,824.7l-30-0.2c-1.4,0-2.5,1.1-2.5,2.5c0,1.4,1.1,2.5,2.5,2.5l30,0.2c0,0,0,0,0,0c1.4,0,2.5-1.1,2.5-2.5
		C880.1,825.8,879,824.7,877.6,824.7z"/>
	<path class="st0" d="M757.6,823.7l-30-0.2c-1.4,0-2.5,1.1-2.5,2.5c0,1.4,1.1,2.5,2.5,2.5l30,0.2c0,0,0,0,0,0c1.4,0,2.5-1.1,2.5-2.5
		C760.1,824.9,759,823.7,757.6,823.7z"/>
	<path class="st0" d="M229.3,757.4c-8.9-5-17.4-10.3-25.4-15.7c-1.1-0.8-2.7-0.5-3.5,0.7c-0.8,1.1-0.5,2.7,0.7,3.5
		c8.1,5.4,16.7,10.8,25.7,15.9c0.4,0.2,0.8,0.3,1.2,0.3c0.9,0,1.7-0.5,2.2-1.3C230.9,759.6,230.5,758.1,229.3,757.4z"/>
	<path class="st0" d="M1288.8,587.2c0.5,0.6,1.2,0.9,1.9,0.9c0.6,0,1.1-0.2,1.6-0.6c1.1-0.9,1.2-2.5,0.3-3.5
		c-6.3-7.7-13.5-15-21.2-21.7c-1-0.9-2.6-0.8-3.5,0.3s-0.8,2.6,0.3,3.5C1275.7,572.6,1282.6,579.7,1288.8,587.2z"/>
	<path class="st0" d="M457.8,821c-9.4-0.5-19.4-1.4-29.7-2.6c-1.4-0.2-2.6,0.8-2.8,2.2s0.8,2.6,2.2,2.8c10.4,1.2,20.5,2.1,30.1,2.6
		c0,0,0.1,0,0.1,0c1.3,0,2.4-1,2.5-2.4C460.2,822.3,459.1,821.1,457.8,821z"/>
	<path class="st0" d="M283,783.3c-9.2-3.7-18.4-7.8-27.3-12.1c-1.2-0.6-2.7-0.1-3.3,1.2c-0.6,1.2-0.1,2.7,1.2,3.3
		c9,4.3,18.3,8.4,27.6,12.2c0.3,0.1,0.6,0.2,0.9,0.2c1,0,1.9-0.6,2.3-1.6C284.9,785.3,284.3,783.9,283,783.3z"/>
	<path class="st0" d="M398.4,814.1c-9.6-1.6-19.4-3.5-29.4-5.7c-1.3-0.3-2.7,0.6-3,1.9c-0.3,1.4,0.6,2.7,1.9,3
		c10,2.1,20,4.1,29.6,5.7c0.1,0,0.3,0,0.4,0c1.2,0,2.3-0.9,2.5-2.1C400.7,815.6,399.8,814.3,398.4,814.1z"/>
	<path class="st0" d="M339.9,801.6c-13.7-3.5-23.3-6.3-27.1-7.5V794l-1.9-0.4c-1.3-0.3-2.6,0.4-2.9,1.7c-0.1,0.4-0.1,0.8-0.1,1.2
		c0.1,0.6,0.3,1.1,0.7,1.4c0.3,0.3,0.6,0.5,1,0.6l0.3,0.1l0,0c0.5,0.2,1.1,0.4,1.8,0.6c1.3,0.4,3.3,1,5.8,1.7
		c4.6,1.3,12,3.4,21.2,5.7c0.2,0.1,0.4,0.1,0.6,0.1c1.1,0,2.1-0.8,2.4-1.9C342.1,803.3,341.2,801.9,339.9,801.6z"/>
	<path class="st0" d="M697.6,823.2l-30-0.2c0,0,0,0,0,0c-1.4,0-2.5,1.1-2.5,2.5c0,1.4,1.1,2.5,2.5,2.5l30,0.2c0,0,0,0,0,0
		c1.4,0,2.5-1.1,2.5-2.5C700.1,824.4,699,823.2,697.6,823.2z"/>
	<path class="st0" d="M1322.2,784.7C1322.2,784.7,1322.2,784.7,1322.2,784.7c-1.4,0-2.5,1.1-2.6,2.4l-0.2,8.9l0,0.1
		c0.1,1.8,0.1,3.6,0.1,5.3c0,5.8-0.6,10.9-1.7,15c-0.4,1.3,0.4,2.7,1.8,3.1c0.2,0.1,0.4,0.1,0.7,0.1c1.1,0,2.1-0.7,2.4-1.8
		c1.2-4.5,1.9-10,1.9-16.3c0-1.7,0-3.6-0.1-5.4l0.2-8.7C1324.7,785.9,1323.6,784.7,1322.2,784.7z"/>
	<path class="st0" d="M1319.6,640.3c0.3,0,0.5,0,0.8-0.1c1.3-0.4,2-1.8,1.6-3.2c-3.1-9.5-7.2-18.9-12.2-27.9c-0.7-1.2-2.2-1.6-3.4-1
		c-1.2,0.7-1.6,2.2-1,3.4c4.8,8.7,8.8,17.8,11.8,27C1317.6,639.7,1318.6,640.3,1319.6,640.3z"/>
	<path class="st0" d="M1297.6,828.1l-30-0.2c0,0,0,0,0,0c-1.4,0-2.5,1.1-2.5,2.5c0,1.4,1.1,2.5,2.5,2.5l30,0.2c0,0,0,0,0,0
		c1.4,0,2.5-1.1,2.5-2.5C1300.1,829.2,1299,828.1,1297.6,828.1z"/>
	<path class="st0" d="M1323.8,724.7c-1.4-0.1-2.5,1.1-2.6,2.4l-0.8,30c0,1.4,1.1,2.5,2.4,2.6c0,0,0,0,0.1,0c1.3,0,2.5-1.1,2.5-2.4
		l0.8-30C1326.3,725.9,1325.2,724.8,1323.8,724.7z"/>
	<path class="st0" d="M1325.5,664.7c-1.3-0.1-2.5,1.1-2.6,2.4l-0.8,30c0,1.4,1.1,2.5,2.4,2.6c0,0,0,0,0.1,0c1.3,0,2.5-1.1,2.5-2.4
		l0.8-30C1327.9,665.9,1326.8,664.8,1325.5,664.7z"/>
	<path class="st0" d="M1247.1,544.3c-8.3-5.2-17.2-10.1-26.6-14.4c-1.3-0.6-2.7,0-3.3,1.2c-0.6,1.3,0,2.7,1.2,3.3
		c9.2,4.3,17.9,9,26,14.1c0.4,0.3,0.9,0.4,1.3,0.4c0.8,0,1.6-0.4,2.1-1.2C1248.6,546.6,1248.2,545,1247.1,544.3z"/>
	<path class="st0" d="M1117.6,826.6l-30-0.2c0,0,0,0,0,0c-1.4,0-2.5,1.1-2.5,2.5c0,1.4,1.1,2.5,2.5,2.5l30,0.2c0,0,0,0,0,0
		c1.4,0,2.5-1.1,2.5-2.5C1120.1,827.8,1119,826.6,1117.6,826.6z"/>
	<path class="st0" d="M1057.6,826.1l-30-0.2c-1.4,0-2.5,1.1-2.5,2.5s1.1,2.5,2.5,2.5l30,0.2c0,0,0,0,0,0c1.4,0,2.5-1.1,2.5-2.5
		C1060.1,827.3,1059,826.2,1057.6,826.1z"/>
	<path class="st0" d="M1237.6,827.6l-30-0.2c0,0,0,0,0,0c-1.4,0-2.5,1.1-2.5,2.5c0,1.4,1.1,2.5,2.5,2.5l30,0.2c0,0,0,0,0,0
		c1.4,0,2.5-1.1,2.5-2.5C1240.1,828.7,1239,827.6,1237.6,827.6z"/>
	<path class="st0" d="M997.6,825.7l-30-0.2c0,0,0,0,0,0c-1.4,0-2.5,1.1-2.5,2.5c0,1.4,1.1,2.5,2.5,2.5l30,0.2c0,0,0,0,0,0
		c1.4,0,2.5-1.1,2.5-2.5C1000.1,826.8,999,825.7,997.6,825.7z"/>
	<path class="st0" d="M937.6,825.2l-30-0.2c0,0,0,0,0,0c-1.4,0-2.5,1.1-2.5,2.5c0,1.4,1.1,2.5,2.5,2.5l30,0.2c0,0,0,0,0,0
		c1.4,0,2.5-1.1,2.5-2.5C940.1,826.3,939,825.2,937.6,825.2z"/>
	<path class="st0" d="M1177.6,827.1l-30-0.2c-1.4,0-2.5,1.1-2.5,2.5c0,1.4,1.1,2.5,2.5,2.5l30,0.2c0,0,0,0,0,0
		c1.4,0,2.5-1.1,2.5-2.5C1180.1,828.3,1179,827.1,1177.6,827.1z"/>
	<path class="st0" d="M1192.4,518.7c-7.1-2.4-14.5-4.6-22.1-6.6l9.9-14.4l-46.7,9.4l39.4,26.9l-3.5-16.9c7.4,1.9,14.6,4,21.4,6.4
		c0.3,0.1,0.5,0.1,0.8,0.1c1,0,2-0.7,2.4-1.7C1194.4,520.5,1193.7,519.1,1192.4,518.7z"/>
</g>
</svg>
