<svg id="Grand_Prix_-_Pit_Road" data-name="Grand Prix - Pit Road" xmlns="http://www.w3.org/2000/svg" viewBox="0 0 1920 1080"><defs><style>.cls-1{fill:#d82520;}</style></defs><title>pitroad</title><g id="Pitroad"><path class="cls-1" d="M1111.8,754.33l-28.63-9.47a2.5,2.5,0,0,0-1.56,4.75l28.61,9.47a2.71,2.71,0,0,0,.79.12,2.5,2.5,0,0,0,.79-4.87Z"/><path class="cls-1" d="M1168.91,773.26l-28.55-9.47a2.5,2.5,0,1,0-1.57,4.75l28.55,9.46a2.42,2.42,0,0,0,.79.13,2.5,2.5,0,0,0,.78-4.87Z"/><path class="cls-1" d="M1340.2,830.05l-28.56-9.47a2.5,2.5,0,0,0-1.58,4.75l28.57,9.47a2.42,2.42,0,0,0,.79.13,2.5,2.5,0,0,0,.78-4.88Z"/><path class="cls-1" d="M1283.09,811.11l-28.54-9.46a2.5,2.5,0,0,0-1.58,4.74l28.54,9.47a2.47,2.47,0,0,0,.79.13,2.51,2.51,0,0,0,.79-4.88Z"/><path class="cls-1" d="M992.94,600.36a2.5,2.5,0,1,0-4.61,1.95c3.24,7.64,7.11,17,11.52,27.73a2.51,2.51,0,0,0,2.32,1.56,2.43,2.43,0,0,0,.94-.19,2.5,2.5,0,0,0,1.37-3.26C1000.06,617.37,996.18,608,992.94,600.36Z"/><path class="cls-1" d="M1015.79,656a2.5,2.5,0,0,0-4.64,1.87c4.08,10.12,7.93,19.75,11.18,27.9a2.5,2.5,0,0,0,2.33,1.57,2.32,2.32,0,0,0,.92-.18,2.5,2.5,0,0,0,1.4-3.24C1023.72,675.77,1019.87,666.13,1015.79,656Z"/><path class="cls-1" d="M1056.32,733.55a56.57,56.57,0,0,1-18.26-21.77,2.5,2.5,0,1,0-4.53,2.11,61.71,61.71,0,0,0,19.89,23.74,2.52,2.52,0,0,0,1.45.46,2.5,2.5,0,0,0,1.45-4.54Z"/><path class="cls-1" d="M1226,792.18l-28.54-9.46a2.5,2.5,0,1,0-1.58,4.74l28.55,9.47a2.36,2.36,0,0,0,.78.13,2.5,2.5,0,0,0,.79-4.88Z"/><path class="cls-1" d="M1618.57,581.15c-5.75,6.43-12.28,13.8-20,22.51a2.49,2.49,0,0,0,1.88,4.15,2.47,2.47,0,0,0,1.87-.84c7.68-8.71,14.2-16.06,19.94-22.49a2.5,2.5,0,1,0-3.73-3.33Z"/><path class="cls-1" d="M1578.74,626.25c-2,2.29-4.82,5.46-5.71,6.39-1.61,1.69-6.31,7.24-14,16.49a2.49,2.49,0,0,0,.33,3.52,2.45,2.45,0,0,0,1.59.57,2.49,2.49,0,0,0,1.93-.9c7.6-9.16,12.22-14.63,13.75-16.24.73-.76,2.53-2.78,5.84-6.53a2.5,2.5,0,1,0-3.75-3.3Z"/><path class="cls-1" d="M1539.92,672.35c-6.3,7.69-11,13.4-11,13.4L1522.08,697a2.5,2.5,0,0,0,4.28,2.59l6.59-10.86,10.84-13.25a2.5,2.5,0,0,0-3.87-3.17Z"/><path class="cls-1" d="M1657.17,544.37a2.5,2.5,0,0,0-3.51-.48c-2.28,1.74-7.15,6.63-14.87,15a2.51,2.51,0,0,0,.14,3.53,2.49,2.49,0,0,0,3.53-.13c9.24-10,12.84-13.31,14.23-14.37A2.5,2.5,0,0,0,1657.17,544.37Z"/><path class="cls-1" d="M1397.07,848.93a108.37,108.37,0,0,1-21.63-7.17l-1.6-.76-.16.16-4.87-1.62a2.5,2.5,0,1,0-1.57,4.75l4.7,1.56,1.37.44a112.26,112.26,0,0,0,22.75,7.54,2.94,2.94,0,0,0,.51,0,2.5,2.5,0,0,0,.5-5Z"/><path class="cls-1" d="M1509.9,721.92a2.51,2.51,0,0,0-3.44.84l-15.6,25.71a2.5,2.5,0,0,0,4.27,2.59l15.61-25.7A2.51,2.51,0,0,0,1509.9,721.92Z"/><path class="cls-1" d="M1447.56,824.86a2.5,2.5,0,0,0-3.42.88c-4,6.77-9.13,14.47-19.7,20.25a2.5,2.5,0,1,0,2.4,4.38c11.69-6.38,17.28-14.75,21.61-22.09A2.5,2.5,0,0,0,1447.56,824.86Z"/><path class="cls-1" d="M1478.68,773.33a2.5,2.5,0,0,0-3.43.84l-15.6,25.72a2.5,2.5,0,1,0,4.27,2.59l15.61-25.72A2.5,2.5,0,0,0,1478.68,773.33Z"/><path class="cls-1" d="M948.67,521.91l5.9,47.27,10.48-13.92c4.41,7.83,8.07,14.51,10.88,19.9a2.49,2.49,0,0,0,2.22,1.34,2.54,2.54,0,0,0,1.16-.28,2.5,2.5,0,0,0,1.05-3.37c-2.84-5.44-6.53-12.19-11-20.07l17.25-2.12Z"/></g></svg>