<svg id="International_-_Pit_Road" data-name="International - Pit Road" xmlns="http://www.w3.org/2000/svg" viewBox="0 0 1920 1080"><defs><style>.cls-1{fill:#d82520;}</style></defs><title>pitroad</title><g id="Pitroad"><path class="cls-1" d="M1132.08,761.05l-28.58-9.47a2.5,2.5,0,0,0-1.57,4.75l28.58,9.47a2.71,2.71,0,0,0,.79.12,2.5,2.5,0,0,0,.78-4.87Z"/><path class="cls-1" d="M1189.18,780l-28.54-9.47a2.5,2.5,0,0,0-1.58,4.75l28.55,9.46a2.38,2.38,0,0,0,.79.13,2.5,2.5,0,0,0,.78-4.87Z"/><path class="cls-1" d="M1246.27,798.9l-28.54-9.46a2.5,2.5,0,0,0-1.58,4.75l28.55,9.46a2.38,2.38,0,0,0,.79.13,2.5,2.5,0,0,0,.78-4.88Z"/><path class="cls-1" d="M985.13,582.44c-1.45-3.18-3.24-6.87-5.34-11l17.38-1.64L960,540l4.6,47.41,10.81-13.56c2,4,3.77,7.59,5.17,10.67,1.22,2.66,2.68,6,4.33,9.78a2.5,2.5,0,0,0,2.3,1.51,2.47,2.47,0,0,0,1-.2,2.5,2.5,0,0,0,1.3-3.29C987.83,588.46,986.36,585.13,985.13,582.44Z"/><path class="cls-1" d="M1303.36,817.84l-28.54-9.47a2.5,2.5,0,0,0-1.58,4.75l28.55,9.46a2.38,2.38,0,0,0,.79.13,2.5,2.5,0,0,0,.78-4.87Z"/><path class="cls-1" d="M1001.16,620.08a2.5,2.5,0,0,0-4.62,1.9c3.41,8.28,7.23,17.64,11.35,27.82a2.49,2.49,0,0,0,2.31,1.56,2.57,2.57,0,0,0,.94-.18,2.5,2.5,0,0,0,1.38-3.26C1008.4,637.74,1004.58,628.37,1001.16,620.08Z"/><path class="cls-1" d="M1074.68,742.3a58.64,58.64,0,0,1-24.77-14.06,2.5,2.5,0,1,0-3.46,3.6,63.35,63.35,0,0,0,26.86,15.26,2.35,2.35,0,0,0,.69.1,2.5,2.5,0,0,0,.68-4.9Z"/><path class="cls-1" d="M1023.74,675.82a2.5,2.5,0,1,0-4.64,1.86c5,12.4,9,22.58,11.12,27.94a2.5,2.5,0,0,0,2.33,1.59,2.46,2.46,0,0,0,.91-.18,2.5,2.5,0,0,0,1.41-3.25C1032.75,698.42,1028.7,688.23,1023.74,675.82Z"/><path class="cls-1" d="M1592.87,610.19l-6.1,6.93c-7.2,8.19-12.41,14.11-13.73,15.51l-.07.07a2.5,2.5,0,0,0,.14,3.53,2.47,2.47,0,0,0,1.69.67,2.51,2.51,0,0,0,1.78-.74l.07-.08c1.38-1.45,6.63-7.41,13.88-15.66l6.09-6.93a2.5,2.5,0,1,0-3.75-3.3Z"/><path class="cls-1" d="M1553.5,655.83c-7,8.43-14.22,17.3-19.09,23.26a2.5,2.5,0,1,0,3.87,3.16c4.87-6,12.13-14.82,19.08-23.24a2.5,2.5,0,0,0-3.86-3.18Z"/><path class="cls-1" d="M1521,703.64a2.49,2.49,0,0,0-3.43.83L1502,730.19a2.5,2.5,0,0,0,.84,3.43,2.47,2.47,0,0,0,1.3.37,2.53,2.53,0,0,0,2.14-1.2l15.61-25.72A2.49,2.49,0,0,0,1521,703.64Z"/><path class="cls-1" d="M1636.43,565.09a2.51,2.51,0,0,0-3.54.16c-5.56,6.1-12.32,13.63-20.11,22.39a2.5,2.5,0,0,0,.21,3.53,2.45,2.45,0,0,0,1.66.63,2.49,2.49,0,0,0,1.87-.84c7.77-8.74,14.52-16.26,20.07-22.34A2.5,2.5,0,0,0,1636.43,565.09Z"/><path class="cls-1" d="M1489.78,755.05a2.5,2.5,0,0,0-3.43.84l-15.61,25.71a2.51,2.51,0,0,0,.84,3.44,2.55,2.55,0,0,0,1.3.36,2.51,2.51,0,0,0,2.14-1.2l15.6-25.71A2.5,2.5,0,0,0,1489.78,755.05Z"/><path class="cls-1" d="M1417,849.23c-6.91,1.93-16.65,1.09-28.15-2.4a2.5,2.5,0,0,0-1.45,4.78,74.92,74.92,0,0,0,21.33,3.64,36.23,36.23,0,0,0,9.62-1.2,2.5,2.5,0,0,0-1.35-4.82Z"/><path class="cls-1" d="M1360.52,836.79l-28.6-9.48a2.5,2.5,0,1,0-1.57,4.74l28.59,9.49a2.47,2.47,0,0,0,.79.13,2.51,2.51,0,0,0,.79-4.88Z"/><path class="cls-1" d="M1458.57,806.49a2.52,2.52,0,0,0-3.44.85c-3.75,6.19-6.37,10.51-7.28,12q-1,1.73-2.07,3.54a100.46,100.46,0,0,1-6.23,9.87,2.5,2.5,0,0,0,4,3,104.57,104.57,0,0,0,6.54-10.35c.68-1.18,1.35-2.35,2-3.47.91-1.53,3.52-5.83,7.27-12A2.5,2.5,0,0,0,1458.57,806.49Z"/></g></svg>