<svg id="National_-_Pit_Road" data-name="National - Pit Road" xmlns="http://www.w3.org/2000/svg" viewBox="0 0 1920 1080"><defs><style>.cls-1{fill:#d82520;}</style></defs><title>pitroad</title><g id="Pitroad"><path class="cls-1" d="M207.19,738.26a2.5,2.5,0,1,0-4.64,1.87L213.79,768a2.49,2.49,0,0,0,2.32,1.57,2.5,2.5,0,0,0,2.32-3.43Z"/><path class="cls-1" d="M184.75,682.45a2.5,2.5,0,1,0-4.64,1.86l11.22,27.91a2.51,2.51,0,0,0,2.32,1.57,2.56,2.56,0,0,0,.93-.18,2.5,2.5,0,0,0,1.38-3.26Z"/><path class="cls-1" d="M162.33,626.62a2.5,2.5,0,1,0-4.64,1.86c3.65,9.11,7.4,18.45,11.2,27.92a2.5,2.5,0,0,0,4.64-1.86C169.73,645.07,166,635.73,162.33,626.62Z"/><path class="cls-1" d="M140,570.76a2.5,2.5,0,0,0-4.64,1.85c3.48,8.73,7.23,18.1,11.16,27.94a2.51,2.51,0,0,0,2.33,1.57,2.29,2.29,0,0,0,.92-.18,2.5,2.5,0,0,0,1.4-3.25C147.21,588.85,143.46,579.48,140,570.76Z"/><path class="cls-1" d="M145.22,434.7a2.5,2.5,0,0,0,4.08,2.9L162.48,419l9.12,14.82,10.31-46.51L141.4,412.42l17,3.72Z"/><path class="cls-1" d="M131.34,458.57a2.51,2.51,0,0,0-3.49.59l-5.53,7.8a48.37,48.37,0,0,0-10.11,18.53,2.5,2.5,0,0,0,1.68,3.11,2.53,2.53,0,0,0,.71.1,2.5,2.5,0,0,0,2.4-1.78,43.48,43.48,0,0,1,9-16.61l5.89-8.25A2.5,2.5,0,0,0,131.34,458.57Z"/><path class="cls-1" d="M117.84,514.75a2.5,2.5,0,0,0-4.67,1.8c2.19,5.69,5.9,15.14,11,28.1a2.51,2.51,0,0,0,2.33,1.58,2.55,2.55,0,0,0,.92-.18,2.5,2.5,0,0,0,1.4-3.25C123.73,529.86,120,520.43,117.84,514.75Z"/><path class="cls-1" d="M357.84,949c-8.47-5-17.06-10.2-25.51-15.6a2.5,2.5,0,0,0-2.7,4.21c8.51,5.44,17.16,10.73,25.69,15.71a2.51,2.51,0,0,0,1.26.34,2.5,2.5,0,0,0,1.26-4.66Z"/><path class="cls-1" d="M410.77,976.74c-8.76-4-17.77-8.49-26.78-13.23a2.5,2.5,0,0,0-2.33,4.43c9.09,4.77,18.18,9.26,27,13.34a2.46,2.46,0,0,0,1.05.23,2.5,2.5,0,0,0,1-4.77Z"/><path class="cls-1" d="M466.65,998.38c-9.54-3.55-19.72-7.36-28.15-10.53a2.5,2.5,0,0,0-1.76,4.68c8.44,3.17,18.62,7,28.17,10.54a2.7,2.7,0,0,0,.87.15,2.5,2.5,0,0,0,.87-4.84Z"/><path class="cls-1" d="M229.67,794.07a2.5,2.5,0,1,0-4.64,1.87l11.25,27.91a2.5,2.5,0,0,0,4.64-1.87Z"/><path class="cls-1" d="M497.59,1009.44a25.17,25.17,0,0,1-2.73-.84,2.5,2.5,0,1,0-1.58,4.74,23.68,23.68,0,0,0,3.56,1,2.3,2.3,0,0,0,.37,0,2.48,2.48,0,0,0,2.43-2.09A2.55,2.55,0,0,0,497.59,1009.44Z"/><path class="cls-1" d="M307.45,916.79c-9.59-6.68-16.69-12-21-15.25-1-.78-2-1.59-3-2.43a2.5,2.5,0,0,0-3.24,3.81c1.05.89,2.13,1.76,3.2,2.58,4.31,3.3,11.48,8.65,21.14,15.39a2.54,2.54,0,0,0,1.43.45,2.48,2.48,0,0,0,2.05-1.07A2.5,2.5,0,0,0,307.45,916.79Z"/><path class="cls-1" d="M257.92,864.12l-.06,0c-.26-.82-.77-2.08-1.63-4.19l-4-10a2.5,2.5,0,0,0-4.64,1.87l4,10,1.26,3.12h0l.42,1a97.18,97.18,0,0,0,7.16,13.51,2.5,2.5,0,0,0,2.12,1.18,2.46,2.46,0,0,0,1.32-.38,2.49,2.49,0,0,0,.8-3.44A93,93,0,0,1,257.92,864.12Z"/></g></svg>