<?xml version="1.0" encoding="utf-8"?>
<!-- Generator: Adobe Illustrator 24.0.1, SVG Export Plug-In . SVG Version: 6.00 Build 0)  -->
<svg version="1.1" id="Fairbury_Pit_Road" xmlns="http://www.w3.org/2000/svg" xmlns:xlink="http://www.w3.org/1999/xlink" x="0px"
	 y="0px" viewBox="0 0 1920 1080" style="enable-background:new 0 0 1920 1080;" xml:space="preserve">
<style type="text/css">
	.st0{fill:#D82520;}
</style>
<title>pitroad</title>
<g id="Pitroad">
	<path class="st0" d="M872.7,716l-0.1-0.2c-3.7-6.7-7-13.6-10-20.4c-0.5-1.3-2-1.9-3.3-1.3c-1.3,0.5-1.9,2-1.3,3.3
		c3,7,6.4,14,10.1,20.8c0.2,0.5,1.3,2.8,3.3,6.4c0.5,0.8,1.3,1.3,2.2,1.3c0.4,0,0.8-0.1,1.2-0.3c1.2-0.7,1.6-2.2,1-3.4
		C873.7,718.3,872.7,716,872.7,716z"/>
	<path class="st0" d="M900.5,472.1c-1-0.9-2.6-0.9-3.5,0.2c-6.9,7.6-13.4,15.4-19.3,23.3c-0.8,1.1-0.6,2.7,0.5,3.5
		c0.4,0.3,1,0.5,1.5,0.5c0.8,0,1.5-0.3,2-1c5.7-7.7,12.1-15.4,19-22.9C901.6,474.6,901.6,473,900.5,472.1z"/>
	<path class="st0" d="M892.4,746.6c-0.9-1.1-2.4-1.3-3.5-0.4c-1.1,0.9-1.3,2.4-0.4,3.5c6.1,7.7,13,15.3,20.4,22.5
		c0.5,0.5,1.1,0.7,1.7,0.7c0.7,0,1.3-0.3,1.8-0.8c1-1,0.9-2.6,0-3.5C905.1,761.5,898.4,754.1,892.4,746.6z"/>
	<path class="st0" d="M994.7,398.2c-0.7-1.2-2.2-1.6-3.4-0.9c-8.8,5.2-17.3,10.7-25.4,16.2c-1.1,0.8-1.4,2.3-0.7,3.5
		c0.5,0.7,1.3,1.1,2.1,1.1c0.5,0,1-0.1,1.4-0.4c8-5.5,16.5-10.9,25.2-16.1C995,400.9,995.4,399.4,994.7,398.2z"/>
	<path class="st0" d="M945,431.8c-0.9-1.1-2.4-1.3-3.5-0.4c-8.1,6.3-15.8,12.9-23.1,19.5c-1,0.9-1.1,2.5-0.2,3.5
		c0.5,0.5,1.2,0.8,1.8,0.8c0.6,0,1.2-0.2,1.7-0.7c7.1-6.5,14.8-13,22.8-19.3C945.6,434.5,945.8,432.9,945,431.8z"/>
	<path class="st0" d="M959.2,804.9c-8.5-5.3-16.7-11-24.4-16.9c-1.1-0.8-2.7-0.6-3.5,0.4c-0.8,1.1-0.6,2.7,0.4,3.5
		c7.8,6.1,16.2,11.9,24.9,17.2c0.4,0.3,0.9,0.4,1.3,0.4c0.8,0,1.7-0.4,2.1-1.2C960.8,807.2,960.4,805.7,959.2,804.9z"/>
	<path class="st0" d="M1187.2,323.8c0.2,0,0.5,0,0.7-0.1c9.6-2.9,19.3-5.7,28.8-8.4c1.3-0.4,2.1-1.8,1.7-3.1
		c-0.4-1.3-1.8-2.1-3.1-1.7c-9.5,2.7-19.2,5.5-28.9,8.4c-1.3,0.4-2.1,1.8-1.7,3.1C1185.1,323.1,1186.1,323.8,1187.2,323.8z"/>
	<path class="st0" d="M1012.5,831.3c-9.4-3.6-18.5-7.7-27.2-12c-1.2-0.6-2.7-0.1-3.3,1.1s-0.1,2.7,1.1,3.3
		c8.9,4.4,18.2,8.5,27.6,12.2c0.3,0.1,0.6,0.2,0.9,0.2c1,0,1.9-0.6,2.3-1.6C1014.4,833.3,1013.8,831.8,1012.5,831.3z"/>
	<path class="st0" d="M842.6,611.3c1.4,0,2.5-1.1,2.5-2.5c0.1-9.9,0.9-19.8,2.4-29.5c0.2-1.4-0.7-2.6-2.1-2.8
		c-1.4-0.2-2.6,0.7-2.8,2.1c-1.5,10-2.3,20.1-2.4,30.2C840.1,610.1,841.2,611.3,842.6,611.3C842.6,611.3,842.6,611.3,842.6,611.3z"
		/>
	<path class="st0" d="M846.9,638.4c-0.2-1.4-1.4-2.3-2.8-2.2c-1.4,0.2-2.3,1.4-2.2,2.8c1.3,10,3.3,20,6,29.7
		c0.3,1.1,1.3,1.8,2.4,1.8c0.2,0,0.4,0,0.7-0.1c1.3-0.4,2.1-1.7,1.7-3.1C850.2,657.9,848.2,648.1,846.9,638.4z"/>
	<path class="st0" d="M865.4,523.3c0.7-1.2,0.3-2.7-0.9-3.4c-1.2-0.7-2.7-0.3-3.4,0.9c-1.5,2.5-2.9,5.1-4.2,7.7
		c-0.2,0.3-3.8,7.6-7.7,20.4c-0.4,1.3,0.3,2.7,1.7,3.1c0.2,0.1,0.5,0.1,0.7,0.1c1.1,0,2.1-0.7,2.4-1.8c3.7-12.3,7.3-19.5,7.3-19.5
		C862.6,528.3,864,525.8,865.4,523.3z"/>
	<path class="st0" d="M1276.4,296.8c-0.3-1.3-1.7-2.2-3-1.8c-9.5,2.4-19.3,4.9-29.1,7.5c-1.3,0.4-2.1,1.7-1.8,3.1
		c0.3,1.1,1.3,1.9,2.4,1.9c0.2,0,0.4,0,0.6-0.1c9.8-2.6,19.5-5.1,29-7.5C1276,299.5,1276.8,298.1,1276.4,296.8z"/>
	<path class="st0" d="M1247.7,871.5c-9.9-0.7-19.9-1.5-29.9-2.4c-1.4-0.1-2.6,0.9-2.7,2.3c-0.1,1.4,0.9,2.6,2.3,2.7
		c10,0.9,20.1,1.7,30,2.4c0.1,0,0.1,0,0.2,0c1.3,0,2.4-1,2.5-2.3C1250.1,872.8,1249,871.6,1247.7,871.5z"/>
	<path class="st0" d="M1307.5,874.6c-9.8-0.3-19.9-0.7-29.9-1.2c-1.4-0.1-2.6,1-2.6,2.4c-0.1,1.4,1,2.6,2.4,2.6
		c10.1,0.5,20.2,0.9,30,1.3c0,0,0.1,0,0.1,0c1.3,0,2.5-1.1,2.5-2.4C1310,875.8,1308.9,874.7,1307.5,874.6z"/>
	<path class="st0" d="M1335,283.6c-0.3-1.4-1.6-2.2-3-1.9c-9.5,1.9-19.4,4.1-29.4,6.4c-1.3,0.3-2.2,1.6-1.9,3
		c0.3,1.2,1.3,1.9,2.4,1.9c0.2,0,0.4,0,0.6-0.1c9.9-2.3,19.8-4.4,29.3-6.3C1334.4,286.3,1335.3,285,1335,283.6z"/>
	<path class="st0" d="M1047.9,370.4c-0.6-1.3-2.1-1.8-3.3-1.2c-9.1,4.2-18.2,8.7-27,13.4c-1.2,0.6-1.7,2.2-1,3.4
		c0.4,0.8,1.3,1.3,2.2,1.3c0.4,0,0.8-0.1,1.2-0.3c8.7-4.6,17.8-9.1,26.8-13.3C1047.9,373.1,1048.5,371.7,1047.9,370.4z"/>
	<path class="st0" d="M1188,866.2c-9.9-1.1-20-2.2-29.8-3.5c-1.4-0.2-2.6,0.8-2.8,2.2c-0.2,1.4,0.8,2.6,2.2,2.8
		c9.8,1.2,19.9,2.4,29.9,3.5c0.1,0,0.2,0,0.3,0c1.3,0,2.3-1,2.5-2.2C1190.3,867.5,1189.3,866.3,1188,866.2z"/>
	<path class="st0" d="M1367.4,875.1C1367.4,875.1,1367.4,875.1,1367.4,875.1c-6.4,0.1-12.9,0.2-19.4,0.2c-3.5,0-7,0-10.5,0
		c0,0,0,0,0,0c-1.4,0-2.5,1.1-2.5,2.5c0,1.4,1.1,2.5,2.5,2.5c3.4,0,6.8,0,10.3,0c0.1,0,0.2,0,0.3,0c6.6,0,13.1-0.1,19.5-0.2
		c1.4,0,2.5-1.2,2.5-2.5C1369.9,876.2,1368.8,875.1,1367.4,875.1z"/>
	<path class="st0" d="M1160.9,329.4c-0.4-1.3-1.8-2-3.1-1.6c-9.7,3.1-19.3,6.2-28.6,9.3c-1.3,0.4-2,1.9-1.6,3.2
		c0.3,1,1.3,1.7,2.4,1.7c0.3,0,0.5,0,0.8-0.1c9.3-3.1,18.9-6.2,28.5-9.2C1160.6,332.1,1161.3,330.7,1160.9,329.4z"/>
	<path class="st0" d="M1069.5,848.5c-9.8-2.2-19.5-4.7-28.8-7.5c-1.3-0.4-2.7,0.4-3.1,1.7s0.4,2.7,1.7,3.1
		c9.4,2.8,19.3,5.4,29.2,7.6c0.2,0,0.4,0.1,0.5,0.1c1.1,0,2.2-0.8,2.4-2C1071.7,850.1,1070.8,848.8,1069.5,848.5z"/>
	<path class="st0" d="M1103.9,348.3c-0.5-1.3-1.9-2-3.2-1.5c-4.6,1.6-7.1,2.5-7.1,2.5c-0.2,0.1-8.3,2.7-21.3,7.9
		c-1.3,0.5-1.9,2-1.4,3.3c0.4,1,1.3,1.6,2.3,1.6c0.3,0,0.6-0.1,0.9-0.2c12.9-5.2,20.9-7.8,21-7.8c0,0,2.5-0.9,7.1-2.6
		C1103.6,351,1104.3,349.6,1103.9,348.3z"/>
	<path class="st0" d="M1128.5,858.7c-13.3-1.9-23.5-3.6-29.6-4.6c-1.4-0.2-2.7,0.7-2.9,2c-0.2,1.4,0.7,2.7,2,2.9
		c6.2,1,16.4,2.7,29.7,4.6c0.1,0,0.2,0,0.4,0c1.2,0,2.3-0.9,2.5-2.1C1130.8,860.1,1129.8,858.9,1128.5,858.7z"/>
	<polygon class="st0" points="1423.2,875.2 1378.4,859 1387.2,877.1 1380.3,896 	"/>
</g>
</svg>
