<?xml version="1.0" encoding="utf-8"?>
<!-- Generator: Adobe Illustrator 24.0.1, SVG Export Plug-In . SVG Version: 6.00 Build 0)  -->
<svg version="1.1" id="Barcelona_National_-_Pit_Road"
	 xmlns="http://www.w3.org/2000/svg" xmlns:xlink="http://www.w3.org/1999/xlink" x="0px" y="0px" viewBox="0 0 1920 1080"
	 style="enable-background:new 0 0 1920 1080;" xml:space="preserve">
<style type="text/css">
	.st0{fill:#D82520;}
</style>
<title>pitroad</title>
<g id="Pitroad">
	<path class="st0" d="M1348.3,823.4l-30-0.1c0,0,0,0,0,0c-1.4,0-2.5,1.1-2.5,2.5c0,1.4,1.1,2.5,2.5,2.5l30,0.1c0,0,0,0,0,0
		c1.4,0,2.5-1.1,2.5-2.5C1350.8,824.5,1349.7,823.4,1348.3,823.4z"/>
	<path class="st0" d="M1228.3,822.9l-30-0.1c0,0,0,0,0,0c-1.4,0-2.5,1.1-2.5,2.5c0,1.4,1.1,2.5,2.5,2.5l30,0.1c0,0,0,0,0,0
		c1.4,0,2.5-1.1,2.5-2.5C1230.8,824,1229.7,822.9,1228.3,822.9z"/>
	<path class="st0" d="M1108.3,822.4l-30-0.1c0,0,0,0,0,0c-1.4,0-2.5,1.1-2.5,2.5c0,1.4,1.1,2.5,2.5,2.5l30,0.1c0,0,0,0,0,0
		c1.4,0,2.5-1.1,2.5-2.5C1110.8,823.5,1109.7,822.4,1108.3,822.4z"/>
	<path class="st0" d="M1288.3,823.2l-30-0.1c0,0,0,0,0,0c-1.4,0-2.5,1.1-2.5,2.5c0,1.4,1.1,2.5,2.5,2.5l30,0.1c0,0,0,0,0,0
		c1.4,0,2.5-1.1,2.5-2.5C1290.8,824.3,1289.7,823.2,1288.3,823.2z"/>
	<path class="st0" d="M1168.3,822.6l-30-0.1c0,0,0,0,0,0c-1.4,0-2.5,1.1-2.5,2.5c0,1.4,1.1,2.5,2.5,2.5l30,0.1c0,0,0,0,0,0
		c1.4,0,2.5-1.1,2.5-2.5C1170.8,823.8,1169.7,822.7,1168.3,822.6z"/>
	<path class="st0" d="M928.3,821.8C928.3,821.8,928.3,821.8,928.3,821.8c-9.4,0.2-19.5,0.5-30.1,0.9c-1.4,0.1-2.5,1.2-2.4,2.6
		c0.1,1.3,1.2,2.4,2.5,2.4c0,0,0.1,0,0.1,0c10.6-0.4,20.6-0.8,29.9-0.9c1.4,0,2.5-1.2,2.5-2.5C930.8,822.9,929.6,821.8,928.3,821.8z
		"/>
	<path class="st0" d="M868.2,824.3c-9.6,0.6-19.7,1.3-30,2c-1.4,0.1-2.4,1.3-2.3,2.7c0.1,1.3,1.2,2.3,2.5,2.3c0.1,0,0.1,0,0.2,0
		c10.2-0.8,20.3-1.4,29.9-2c1.4-0.1,2.4-1.3,2.3-2.6C870.7,825.3,869.5,824.2,868.2,824.3z"/>
	<path class="st0" d="M1048.3,822.1l-30-0.1c0,0,0,0,0,0c-1.4,0-2.5,1.1-2.5,2.5c0,1.4,1.1,2.5,2.5,2.5l30,0.1c0,0,0,0,0,0
		c1.4,0,2.5-1.1,2.5-2.5C1050.8,823.3,1049.7,822.1,1048.3,822.1z"/>
	<path class="st0" d="M988.3,821.9l-30-0.1c0,0,0,0,0,0c-1.4,0-2.5,1.1-2.5,2.5c0,1.4,1.1,2.5,2.5,2.5l30,0.1c0,0,0,0,0,0
		c1.4,0,2.5-1.1,2.5-2.5C990.8,823,989.7,821.9,988.3,821.9z"/>
	<path class="st0" d="M808.2,828.8c-7.5,0.6-15.1,1.3-22.7,2.1l5.1-16.5l-41.8,22.8l45.5,14.1l-8.4-15.4c7.6-0.7,15.2-1.4,22.7-2.1
		c1.4-0.1,2.4-1.3,2.3-2.7S809.6,828.7,808.2,828.8z"/>
	<path class="st0" d="M1756.5,780.9c-1.1-0.8-2.7-0.6-3.5,0.5c-5.7,7.7-12.7,14.6-20.7,20.4c-1.1,0.8-1.4,2.4-0.6,3.5
		c0.5,0.7,1.3,1,2,1c0.5,0,1-0.2,1.5-0.5c8.5-6.1,15.8-13.3,21.8-21.5C1757.8,783.3,1757.6,781.7,1756.5,780.9z"/>
	<path class="st0" d="M1775.9,724.8c-1.3-0.2-2.7,0.7-2.9,2l-1.6,9.3c-1.1,6.8-2.8,13.4-4.9,19.5c-0.5,1.3,0.2,2.7,1.5,3.2
		c0.3,0.1,0.6,0.1,0.8,0.1c1,0,2-0.6,2.4-1.7c2.2-6.4,4-13.2,5.1-20.3l1.6-9.3C1778.2,726.4,1777.3,725.1,1775.9,724.8z"/>
	<path class="st0" d="M1784.5,676c-1.4-0.2-2.7,0.7-2.9,2l-3.4,19.3c-0.2,1.4,0.7,2.7,2,2.9c0.1,0,0.3,0,0.4,0
		c1.2,0,2.2-0.9,2.5-2.1l3.4-19.3C1786.8,677.6,1785.9,676.3,1784.5,676z"/>
	<path class="st0" d="M1408.3,823.7l-30-0.1c0,0,0,0,0,0c-1.4,0-2.5,1.1-2.5,2.5c0,1.4,1.1,2.5,2.5,2.5l30,0.1c0,0,0,0,0,0
		c1.4,0,2.5-1.1,2.5-2.5C1410.8,824.8,1409.7,823.7,1408.3,823.7z"/>
	<path class="st0" d="M1706.4,815.6c-8.9,3.4-18.5,5.9-28.5,7.5c-1.4,0.2-2.3,1.5-2.1,2.9c0.2,1.2,1.3,2.1,2.5,2.1
		c0.1,0,0.3,0,0.4,0c10.3-1.6,20.2-4.2,29.5-7.8c1.3-0.5,1.9-1.9,1.4-3.2C1709.1,815.7,1707.7,815.1,1706.4,815.6z"/>
	<path class="st0" d="M1468.3,823.9l-30-0.1c0,0,0,0,0,0c-1.4,0-2.5,1.1-2.5,2.5c0,1.4,1.1,2.5,2.5,2.5l30,0.1c0,0,0,0,0,0
		c1.4,0,2.5-1.1,2.5-2.5C1470.8,825,1469.7,823.9,1468.3,823.9z"/>
	<path class="st0" d="M1648.3,824.7l-30-0.1c0,0,0,0,0,0c-1.4,0-2.5,1.1-2.5,2.5c0,1.4,1.1,2.5,2.5,2.5l30,0.1c0,0,0,0,0,0
		c1.4,0,2.5-1.1,2.5-2.5C1650.8,825.8,1649.7,824.7,1648.3,824.7z"/>
	<path class="st0" d="M1528.3,824.2l-30-0.1c0,0,0,0,0,0c-1.4,0-2.5,1.1-2.5,2.5c0,1.4,1.1,2.5,2.5,2.5l30,0.1c0,0,0,0,0,0
		c1.4,0,2.5-1.1,2.5-2.5C1530.8,825.3,1529.7,824.2,1528.3,824.2z"/>
	<path class="st0" d="M1588.3,824.4l-30-0.1c0,0,0,0,0,0c-1.4,0-2.5,1.1-2.5,2.5c0,1.4,1.1,2.5,2.5,2.5l30,0.1c0,0,0,0,0,0
		c1.4,0,2.5-1.1,2.5-2.5C1590.8,825.6,1589.7,824.4,1588.3,824.4z"/>
</g>
</svg>
