<?xml version="1.0" encoding="utf-8"?>
<!-- Generator: Adobe Illustrator 24.0.1, SVG Export Plug-In . SVG Version: 6.00 Build 0)  -->
<svg version="1.1" id="Barcelona_Club_-_Pit_Road" xmlns="http://www.w3.org/2000/svg" xmlns:xlink="http://www.w3.org/1999/xlink"
	 x="0px" y="0px" viewBox="0 0 1920 1080" style="enable-background:new 0 0 1920 1080;" xml:space="preserve">
<style type="text/css">
	.st0{fill:#D82520;}
</style>
<title>pitroad</title>
<g id="Pitroad">
	<path class="st0" d="M475.2,703.1c4.2,2.8,8.7,5.4,13.3,7.7c0.4,0.2,0.7,0.3,1.1,0.3c0.9,0,1.8-0.5,2.2-1.4
		c0.6-1.2,0.1-2.7-1.1-3.3c-4.4-2.2-8.7-4.6-12.7-7.3c-1.1-0.8-2.7-0.5-3.5,0.7C473.7,700.8,474,702.3,475.2,703.1z"/>
	<path class="st0" d="M551.1,834.6C551.1,834.6,551.1,834.6,551.1,834.6l-28.9,0.2c-1.4,0-2.5,1.1-2.5,2.5c0,1.4,1.1,2.5,2.5,2.5
		c0,0,0,0,0,0l28.9-0.2c1.4,0,2.5-1.1,2.5-2.5C553.6,835.7,552.5,834.6,551.1,834.6z"/>
	<path class="st0" d="M543.7,730.7c1.1,0,2.1-0.8,2.4-1.9c0.3-1.3-0.5-2.7-1.8-3c-9.5-2.4-18.7-5.2-27.4-8.3
		c-1.3-0.5-2.7,0.2-3.2,1.5c-0.5,1.3,0.2,2.7,1.5,3.2c8.8,3.2,18.2,6,27.8,8.4C543.2,730.7,543.5,730.7,543.7,730.7z"/>
	<path class="st0" d="M588.4,830.2c-5.6-4.6-10.4-9.2-14.3-13.8c-0.9-1.1-2.5-1.2-3.5-0.3c-1.1,0.9-1.2,2.5-0.3,3.5
		c3.5,4.2,7.7,8.3,12.5,12.4c-0.8,0.2-1.9,0.4-3.3,0.7c-1.4,0.2-2.3,1.5-2,2.9c0.2,1.2,1.3,2.1,2.5,2.1c0.1,0,0.3,0,0.4,0
		c6-1,9.3-2.1,9.3-5C589.6,832.1,589.4,831,588.4,830.2z"/>
	<path class="st0" d="M567.1,762.8c-1.2-0.7-2.7-0.4-3.4,0.8c-4.7,7.5-7.1,15.4-7.1,23.3c0,2,0.2,4,0.4,6c0.2,1.2,1.3,2.1,2.5,2.1
		c0.1,0,0.2,0,0.4,0c1.4-0.2,2.3-1.5,2.1-2.8c-0.3-1.7-0.4-3.5-0.4-5.2c0-6.9,2.1-13.9,6.3-20.6C568.6,765,568.3,763.5,567.1,762.8z
		"/>
	<path class="st0" d="M590.9,734.5l-0.5-0.4l-0.6-0.1c-5.9-0.7-11.7-1.5-17.4-2.5c-1.4-0.2-2.6,0.7-2.9,2.1
		c-0.2,1.4,0.7,2.6,2.1,2.9c5.5,0.9,11.2,1.7,16.9,2.4c0.2,0.2,0.3,0.4,0.4,0.5c-0.1,0.1-0.4,0.4-1,0.7c-0.1,0-1.3,0.8-3.3,2.2
		c-1.1,0.8-1.4,2.3-0.6,3.5c0.5,0.7,1.3,1.1,2.1,1.1c0.5,0,1-0.1,1.4-0.4c1.8-1.2,2.9-1.9,2.9-1.9c3-1.6,3.6-3.6,3.6-5
		C593.8,736.7,591.4,734.9,590.9,734.5z"/>
	<path class="st0" d="M493.4,835C493.4,835,493.4,835,493.4,835l-7.8,0.1l6.7-16.1l-43.8,18.8l44,18.2l-6.9-16l7.8-0.1
		c1.4,0,2.5-1.1,2.5-2.5C495.9,836.1,494.8,835,493.4,835z"/>
</g>
</svg>
