<?xml version="1.0" encoding="utf-8"?>
<!-- Generator: Adobe Illustrator 24.0.1, SVG Export Plug-In . SVG Version: 6.00 Build 0)  -->
<svg version="1.1" id="lernerville__Pit_Road" xmlns="http://www.w3.org/2000/svg" xmlns:xlink="http://www.w3.org/1999/xlink"
	 x="0px" y="0px" viewBox="0 0 1920 1080" style="enable-background:new 0 0 1920 1080;" xml:space="preserve">
<style type="text/css">
	.st0{fill:#D82520;}
</style>
<title>pitroad</title>
<g id="Pitroad">
	<path class="st0" d="M319.7,694.2c-10.3-0.4-20.3-0.8-30-1.3c-1.4,0-2.5,1-2.6,2.4c-0.1,1.4,1,2.5,2.4,2.6c9.7,0.4,19.7,0.8,30,1.3
		c0,0,0.1,0,0.1,0c1.3,0,2.4-1.1,2.5-2.4C322.1,695.4,321.1,694.3,319.7,694.2z"/>
	<path class="st0" d="M213.1,272.8l-0.8,0c-9,0-16.4,1.4-24,4.6c-1.9,0.8-3.7,1.8-5.4,2.8c-1.2,0.8-1.5,2.3-0.7,3.5
		c0.5,0.7,1.3,1.1,2.1,1.1c0.5,0,0.9-0.1,1.4-0.4c1.4-0.9,2.9-1.7,4.6-2.4c7-3,13.6-4.2,22-4.2l0.7,0c0,0,0,0,0,0
		c1.4,0,2.5-1.1,2.5-2.5C215.6,273.9,214.5,272.8,213.1,272.8z"/>
	<path class="st0" d="M332.9,279.4c-9.4-0.2-19.4-0.4-30-0.7c-1.4,0-2.5,1.1-2.6,2.4c0,1.4,1.1,2.5,2.4,2.6
		c10.6,0.2,20.6,0.5,30,0.7c0,0,0,0,0.1,0c1.4,0,2.5-1.1,2.5-2.4C335.4,280.6,334.3,279.4,332.9,279.4z"/>
	<path class="st0" d="M259.7,691.6c-10.7-0.5-20.8-1-30-1.5c-1.4-0.1-2.6,1-2.6,2.4s1,2.6,2.4,2.6c9.2,0.5,19.3,1,30,1.5
		c0,0,0.1,0,0.1,0c1.3,0,2.4-1,2.5-2.4C262.1,692.8,261.1,691.7,259.7,691.6z"/>
	<path class="st0" d="M439.7,698.7c-10.1-0.3-20.1-0.7-30-1c-1.4-0.1-2.5,1-2.6,2.4c0,1.4,1,2.5,2.4,2.6c9.9,0.3,19.9,0.7,30,1
		c0,0,0.1,0,0.1,0c1.3,0,2.5-1.1,2.5-2.4C442.2,699.9,441.1,698.7,439.7,698.7z"/>
	<path class="st0" d="M379.7,696.6c-10.2-0.4-20.2-0.8-30-1.1c-1.4,0-2.5,1-2.6,2.4s1,2.5,2.4,2.6c9.8,0.4,19.9,0.8,30,1.1
		c0,0,0.1,0,0.1,0c1.3,0,2.4-1.1,2.5-2.4C382.2,697.8,381.1,696.6,379.7,696.6z"/>
	<path class="st0" d="M392.8,280.3c-9,0-18.8-0.2-30-0.3c-1.4-0.1-2.5,1.1-2.5,2.5c0,1.4,1.1,2.5,2.5,2.5c11.2,0.2,21,0.3,30,0.3
		c0,0,0,0,0,0c1.4,0,2.5-1.1,2.5-2.5C395.3,281.4,394.2,280.3,392.8,280.3z"/>
	<path class="st0" d="M273,277.8c-11.9-0.6-21.7-1.6-29.8-2.4c-1.4-0.1-2.6,0.8-2.8,2.2s0.8,2.6,2.2,2.8c8.1,0.9,18,1.8,30,2.5
		c0,0,0.1,0,0.1,0c1.3,0,2.4-1,2.5-2.4C275.4,279,274.4,277.9,273,277.8z"/>
	<path class="st0" d="M200,687.9c-9.6-1.1-19.5-2.7-29.4-4.8c-1.4-0.3-2.7,0.6-2.9,2c-0.3,1.4,0.6,2.7,2,2.9c10,2,20.1,3.7,29.8,4.8
		c0.1,0,0.2,0,0.3,0c1.2,0,2.3-0.9,2.5-2.2C202.3,689.3,201.3,688,200,687.9z"/>
	<path class="st0" d="M111.9,571.8c1.4,0,2.5-1.1,2.5-2.5c0.1-9.3,0.5-19,1.3-29.8c0.1-1.4-0.9-2.6-2.3-2.7
		c-1.4-0.1-2.6,0.9-2.7,2.3c-0.8,10.9-1.2,20.7-1.3,30.1C109.4,570.7,110.5,571.8,111.9,571.8C111.9,571.8,111.9,571.8,111.9,571.8z
		"/>
	<path class="st0" d="M118.4,628.8c-1.2-9.7-2.4-19.2-3.1-29.7c-0.1-1.4-1.3-2.4-2.7-2.3c-1.4,0.1-2.4,1.3-2.3,2.7
		c0.8,10.6,1.9,20.2,3.2,29.9c0.2,1.3,1.2,2.2,2.5,2.2c0.1,0,0.2,0,0.3,0C117.6,631.4,118.6,630.2,118.4,628.8z"/>
	<path class="st0" d="M123.5,452.5c0.1,0,0.3,0,0.4,0c1.2,0,2.3-0.9,2.5-2.1l0.5-3.2c1.2-8,3-16.8,5.2-26c0.3-1.3-0.5-2.7-1.8-3
		c-1.3-0.3-2.7,0.5-3,1.8c-2.3,9.4-4,18.3-5.3,26.4l-0.5,3.2C121.2,451,122.1,452.3,123.5,452.5z"/>
	<path class="st0" d="M115.7,512c0.1,0,0.2,0,0.3,0c1.3,0,2.3-0.9,2.5-2.2c1-9.2,2.2-19.2,3.6-29.7c0.2-1.4-0.8-2.6-2.1-2.8
		s-2.6,0.8-2.8,2.1c-1.4,10.5-2.6,20.6-3.6,29.8C113.4,510.6,114.4,511.8,115.7,512z"/>
	<path class="st0" d="M169.6,304.9c-1.3-0.5-2.7,0.1-3.3,1.4c-3.2,8-7.1,17.5-11.2,27.9c-0.5,1.3,0.1,2.7,1.4,3.2
		c0.3,0.1,0.6,0.2,0.9,0.2c1,0,1.9-0.6,2.3-1.6c4-10.4,7.9-19.9,11.1-27.8C171.5,306.9,170.9,305.4,169.6,304.9z"/>
	<path class="st0" d="M147.9,360.8c-1.3-0.5-2.7,0.2-3.2,1.5c-3.5,10-6.7,19.6-9.5,28.6c-0.4,1.3,0.3,2.7,1.7,3.1
		c0.2,0.1,0.5,0.1,0.7,0.1c1.1,0,2.1-0.7,2.4-1.8c2.7-8.9,5.9-18.5,9.4-28.4C149.9,362.7,149.2,361.3,147.9,360.8z"/>
	<path class="st0" d="M141.6,676.1c-0.7-0.2-1.4-0.4-2.1-0.6c-2.9-0.8-12.8-4.6-16.9-17.5c-0.4-1.3-1.8-2-3.1-1.6
		c-1.3,0.4-2,1.8-1.6,3.1c4.9,15.4,16.8,19.8,20.3,20.8c0.7,0.2,1.4,0.4,2.1,0.6c0.2,0.1,0.5,0.1,0.7,0.1c1.1,0,2.1-0.7,2.4-1.8
		C143.7,677.9,142.9,676.5,141.6,676.1z"/>
	<path class="st0" d="M452.6,279.3c-8.9,0.5-18.6,0.8-29.9,0.9c-1.4,0-2.5,1.2-2.5,2.5c0,1.4,1.1,2.5,2.5,2.5c0,0,0,0,0,0
		c11.3-0.2,21.1-0.5,30.1-0.9c1.4-0.1,2.4-1.2,2.4-2.6S454,279.2,452.6,279.3z"/>
	<path class="st0" d="M799.9,706.7C799.9,706.7,799.9,706.7,799.9,706.7c-4.1,0.1-8,0.1-11.9,0.1c-5.8,0-11.9-0.1-18.1-0.1
		c0,0,0,0,0,0c-1.4,0-2.5,1.1-2.5,2.5c0,1.4,1.1,2.5,2.5,2.5c6.3,0.1,12.3,0.1,18.1,0.1c1,0,2.1,0,3.1,0c2.9,0,5.8,0,8.8-0.1
		c1.4,0,2.5-1.2,2.5-2.5C802.4,707.8,801.2,706.7,799.9,706.7z"/>
	<path class="st0" d="M739.9,706.3c-9.7-0.1-19.7-0.3-30-0.5c0,0,0,0,0,0c-1.4,0-2.5,1.1-2.5,2.5c0,1.4,1.1,2.5,2.5,2.5
		c10.3,0.2,20.4,0.3,30,0.5c0,0,0,0,0,0c1.4,0,2.5-1.1,2.5-2.5C742.4,707.4,741.2,706.3,739.9,706.3z"/>
	<path class="st0" d="M750.3,273.8c-10.2-1.3-20.3-2.5-29.8-3.7c-1.4-0.2-2.6,0.8-2.8,2.2s0.8,2.6,2.2,2.8
		c9.6,1.1,19.6,2.4,29.8,3.6c0.1,0,0.2,0,0.3,0c1.2,0,2.3-0.9,2.5-2.2C752.7,275.2,751.7,274,750.3,273.8z"/>
	<path class="st0" d="M809.9,281.7c-10-1.4-20-2.7-29.8-4c-1.4-0.2-2.6,0.8-2.8,2.2c-0.2,1.4,0.8,2.6,2.2,2.8
		c9.8,1.3,19.8,2.6,29.8,4c0.1,0,0.2,0,0.3,0c1.2,0,2.3-0.9,2.5-2.2C812.2,283.1,811.3,281.9,809.9,281.7z"/>
	<path class="st0" d="M859.5,703.1c-10.3,1-20.3,1.8-29.8,2.4c-1.4,0.1-2.4,1.3-2.3,2.7c0.1,1.3,1.2,2.3,2.5,2.3c0.1,0,0.1,0,0.2,0
		c9.6-0.6,19.7-1.4,30-2.5c1.4-0.1,2.4-1.4,2.2-2.7C862.1,703.9,860.9,702.9,859.5,703.1z"/>
	<path class="st0" d="M918.9,695.4c-10.1,1.6-20,3-29.7,4.2c-1.4,0.2-2.3,1.4-2.2,2.8c0.2,1.3,1.2,2.2,2.5,2.2c0.1,0,0.2,0,0.3,0
		c9.7-1.3,19.7-2.7,29.8-4.2c1.4-0.2,2.3-1.5,2.1-2.9C921.6,696.2,920.3,695.2,918.9,695.4z"/>
	<path class="st0" d="M499.7,700.6c-10-0.3-20-0.6-30-0.9c-1.4,0-2.5,1-2.6,2.4s1,2.5,2.4,2.6c10,0.3,20,0.6,30,0.9c0,0,0.1,0,0.1,0
		c1.3,0,2.5-1.1,2.5-2.4C502.2,701.8,501.1,700.6,499.7,700.6z"/>
	<path class="st0" d="M869.5,290.2c-0.1,0-11.5-1.8-29.8-4.4c-1.4-0.2-2.6,0.8-2.8,2.1c-0.2,1.4,0.8,2.6,2.1,2.8
		c18.3,2.6,29.7,4.3,29.8,4.4c0.1,0,0.3,0,0.4,0c1.2,0,2.3-0.9,2.5-2.1C871.8,291.7,870.9,290.4,869.5,290.2z"/>
	<path class="st0" d="M570.4,258.8c-11.2,0.9-18.6,2.9-26.3,5c-1.1,0.3-2.3,0.6-3.5,0.9c-1.3,0.4-2.1,1.7-1.8,3.1
		c0.3,1.1,1.3,1.9,2.4,1.9c0.2,0,0.4,0,0.6-0.1c1.2-0.3,2.3-0.6,3.5-0.9c7.5-2,14.7-3.9,25.4-4.8c1.4-0.1,2.4-1.3,2.3-2.7
		C573,259.7,571.8,258.7,570.4,258.8z"/>
	<path class="st0" d="M559.8,702.3c-10-0.3-20-0.6-30-0.9c-1.4-0.1-2.5,1-2.6,2.4s1,2.5,2.4,2.6c10,0.3,20.1,0.6,30,0.9
		c0,0,0,0,0.1,0c1.3,0,2.5-1.1,2.5-2.4C562.2,703.5,561.1,702.4,559.8,702.3z"/>
	<path class="st0" d="M690.6,266.7c-10.4-1.1-20.5-2.2-29.9-3.1c-1.4-0.1-2.6,0.9-2.7,2.2c-0.1,1.4,0.9,2.6,2.2,2.7
		c9.4,0.9,19.5,2,29.8,3.1c0.1,0,0.2,0,0.3,0c1.3,0,2.3-0.9,2.5-2.2C693,268.1,692,266.9,690.6,266.7z"/>
	<path class="st0" d="M511.6,271.7c-10.2,2.2-19.5,3.8-29.3,5c-1.4,0.2-2.3,1.4-2.2,2.8c0.2,1.3,1.2,2.2,2.5,2.2c0.1,0,0.2,0,0.3,0
		c9.9-1.2,19.4-2.8,29.7-5.1c1.3-0.3,2.2-1.6,1.9-3C514.3,272.3,513,271.5,511.6,271.7z"/>
	<path class="st0" d="M679.8,705.2c-9.8-0.2-19.8-0.4-30-0.6c0,0,0,0-0.1,0c-1.4,0-2.5,1.1-2.5,2.4c0,1.4,1.1,2.5,2.4,2.6
		c10.2,0.2,20.2,0.4,30,0.6c0,0,0,0,0.1,0c1.4,0,2.5-1.1,2.5-2.4C682.3,706.4,681.2,705.3,679.8,705.2z"/>
	<path class="st0" d="M619.8,703.9c-9.9-0.2-19.9-0.5-30-0.8c-1.3-0.1-2.5,1.1-2.6,2.4c0,1.4,1.1,2.5,2.4,2.6
		c10.1,0.3,20.1,0.5,30,0.8c0,0,0,0,0.1,0c1.4,0,2.5-1.1,2.5-2.4C622.3,705.1,621.2,703.9,619.8,703.9z"/>
	<path class="st0" d="M630.7,260.9c-10.3-0.9-20-1.5-28.7-2.1l-1.3-0.1c-1.4-0.1-2.6,1-2.6,2.4c-0.1,1.4,1,2.6,2.4,2.6l1.3,0.1
		c8.7,0.5,18.3,1.2,28.6,2.1c0.1,0,0.1,0,0.2,0c1.3,0,2.4-1,2.5-2.3C633.1,262.2,632.1,261,630.7,260.9z"/>
	<path class="st0" d="M1000.7,682.8l-46.7-9.5l9.8,14.4c-5.1,1-10.3,1.9-15.4,2.8c-1.4,0.2-2.3,1.5-2,2.9c0.2,1.2,1.3,2.1,2.5,2.1
		c0.1,0,0.3,0,0.4,0c5.1-0.9,10.3-1.9,15.5-2.9l-3.5,17L1000.7,682.8z"/>
</g>
</svg>
