<?xml version="1.0" encoding="utf-8"?>
<!-- Generator: Adobe Illustrator 24.0.1, SVG Export Plug-In . SVG Version: 6.00 Build 0)  -->
<svg version="1.1" id="Lime_Rock_West_Bend_Chicane_-_Pit_Road"
	 xmlns="http://www.w3.org/2000/svg" xmlns:xlink="http://www.w3.org/1999/xlink" x="0px" y="0px" viewBox="0 0 1920 1080"
	 style="enable-background:new 0 0 1920 1080;" xml:space="preserve">
<style type="text/css">
	.st0{fill:#016699;}
	.st1{fill:#D82520;}
</style>
<title>pitroad</title>
<g id="Mergeline">
	<path class="st0" d="M484.9,983.4c-7.4,0.7-15.3,1.3-24.1,1.8l-1.6-27.5l-10,0.6l3.7,64.9l10-0.6l-1.5-27.4
		c8.9-0.5,16.9-1.1,24.5-1.8c2.7-0.3,4.8-2.7,4.5-5.5S487.7,983.1,484.9,983.4z"/>
	<path class="st0" d="M542.2,971.3c-9,3.3-18.2,5.8-28.1,7.8c-2.7,0.5-4.5,3.2-3.9,5.9c0.5,2.4,2.6,4,4.9,4c0.3,0,0.7,0,1-0.1
		c10.4-2.1,20.1-4.8,29.6-8.2c2.6-0.9,3.9-3.8,3-6.4C547.7,971.7,544.8,970.4,542.2,971.3z"/>
	<path class="st0" d="M597.7,945.3c-3.7,0.1-6.6,1.9-10.6,4.4c-2.3,1.4-5.1,3.2-8.9,5.2c-3.4,1.8-6.4,3.3-9.1,4.7
		c-2.5,1.2-3.5,4.2-2.2,6.7c0.9,1.8,2.6,2.8,4.5,2.8c0.8,0,1.5-0.2,2.2-0.5c2.8-1.4,5.8-3,9.3-4.7c4.1-2.1,7.1-4,9.6-5.5
		c2.6-1.6,4.6-2.9,5.6-2.9c2.8-0.1,4.9-2.4,4.9-5.1C602.8,947.4,600.5,945.3,597.7,945.3z"/>
</g>
<g id="Pitroad">
	<path class="st1" d="M822.2,947.5c-10-0.1-20-0.2-30-0.3c0,0,0,0,0,0c-1.4,0-2.5,1.1-2.5,2.5c0,1.4,1.1,2.5,2.5,2.5
		c10,0.1,20,0.2,30,0.3c0,0,0,0,0,0c1.4,0,2.5-1.1,2.5-2.5C824.6,948.7,823.5,947.5,822.2,947.5z"/>
	<path class="st1" d="M882.2,948.1l-30-0.3c0,0,0,0,0,0c-1.4,0-2.5,1.1-2.5,2.5c0,1.4,1.1,2.5,2.5,2.5l30,0.3c0,0,0,0,0,0
		c1.4,0,2.5-1.1,2.5-2.5C884.7,949.3,883.5,948.1,882.2,948.1z"/>
	<path class="st1" d="M762.1,947.1c-10.1-0.1-20.1-0.1-30-0.1c0,0,0,0,0,0c-1.4,0-2.5,1.1-2.5,2.5c0,1.4,1.1,2.5,2.5,2.5
		c9.9,0,19.9,0.1,30,0.1c0,0,0,0,0,0c1.4,0,2.5-1.1,2.5-2.5C764.6,948.2,763.5,947.1,762.1,947.1z"/>
	<path class="st1" d="M702.1,946.9l-5.1,0c-8.5,0-16.8,0-24.9,0c-1.4,0-2.5,1.1-2.5,2.5c0,1.4,1.1,2.5,2.5,2.5c0,0,0,0,0,0
		c8.1,0,16.4,0,24.8,0l5.2,0c0,0,0,0,0,0c1.4,0,2.5-1.1,2.5-2.5C704.6,948,703.4,946.9,702.1,946.9z"/>
	<path class="st1" d="M642.1,947.1C642.1,947.1,642.1,947.1,642.1,947.1c-7.8,0.1-15.2,0.2-22.1,0.3l2.8-17.5l-38.2,28.5l47,7.5
		l-10.1-13.5c6.5-0.1,13.4-0.2,20.6-0.3c1.4,0,2.5-1.1,2.5-2.5C644.6,948.2,643.4,947.1,642.1,947.1z"/>
	<path class="st1" d="M942.2,948.7c-9.7-0.1-19.7-0.2-30-0.3c-1.3,0-2.5,1.1-2.5,2.5c0,1.4,1.1,2.5,2.5,2.5
		c10.3,0.1,20.3,0.2,30,0.3c0,0,0,0,0,0c1.4,0,2.5-1.1,2.5-2.5C944.7,949.9,943.6,948.7,942.2,948.7z"/>
	<path class="st1" d="M1233.9,990.5c-0.1,0-12.3-0.8-30-2c-1.4-0.1-2.6,0.9-2.7,2.3c-0.1,1.4,0.9,2.6,2.3,2.7
		c17.7,1.2,29.9,2,30.1,2c0.1,0,0.1,0,0.2,0c1.3,0,2.4-1,2.5-2.3C1236.3,991.8,1235.3,990.6,1233.9,990.5z"/>
	<path class="st1" d="M1173.9,986.3c-10.6-0.8-20.7-1.6-30-2.3c-1.4-0.1-2.6,0.9-2.7,2.3c-0.1,1.4,0.9,2.6,2.3,2.7
		c9.3,0.8,19.4,1.5,30,2.3c0.1,0,0.1,0,0.2,0c1.3,0,2.4-1,2.5-2.3C1176.3,987.6,1175.3,986.4,1173.9,986.3z"/>
	<path class="st1" d="M1114,981.4c-11.7-1.1-21.7-2.1-29.9-3c-1.4-0.2-2.6,0.8-2.8,2.2s0.8,2.6,2.2,2.8c8.2,0.9,18.3,1.9,30,3
		c0.1,0,0.2,0,0.2,0c1.3,0,2.4-1,2.5-2.3C1116.4,982.8,1115.4,981.6,1114,981.4z"/>
	<path class="st1" d="M1056.7,971.4c-1.5-1.1-3-2.3-4.6-3.8c-4-3.7-9-8.2-11.9-10.4c-2.7-2-4.7-3.5-7.4-4.6c-1.3-0.6-2.7,0-3.3,1.3
		c-0.6,1.3,0,2.7,1.3,3.3c2.2,1,4.1,2.3,6.5,4.1c3.1,2.3,9.2,7.9,11.5,10.1c1.7,1.6,3.4,3,5,4.1c0.4,0.3,1,0.5,1.5,0.5
		c0.8,0,1.5-0.4,2-1C1058.1,973.7,1057.9,972.2,1056.7,971.4z"/>
	<path class="st1" d="M1002.2,949.2l-0.3,0c-9.2,0-19.2-0.1-29.7-0.2c0,0,0,0,0,0c-1.4,0-2.5,1.1-2.5,2.5c0,1.4,1.1,2.5,2.5,2.5
		c10.5,0.1,20.5,0.1,29.7,0.2l0.3,0c0,0,0,0,0,0c1.4,0,2.5-1.1,2.5-2.5C1004.7,950.3,1003.6,949.2,1002.2,949.2z"/>
</g>
</svg>
