<?xml version="1.0" encoding="utf-8"?>
<!-- Generator: Adobe Illustrator 24.0.1, SVG Export Plug-In . SVG Version: 6.00 Build 0)  -->
<svg version="1.1" id="lankebanen_Rally_Cross__Pit_Road"
	 xmlns="http://www.w3.org/2000/svg" xmlns:xlink="http://www.w3.org/1999/xlink" x="0px" y="0px" viewBox="0 0 1920 1080"
	 style="enable-background:new 0 0 1920 1080;" xml:space="preserve">
<style type="text/css">
	.st0{fill:#FF9100;}
</style>
<title>pitroad</title>
<g id="Joker">
	<path class="st0" d="M596.7,690.6c2.6,0,4.8-2,5-4.7c0.2-2.8-1.9-5.1-4.6-5.3c-6.1-0.4-12.4-0.9-18.7-1.3
		c-2.3-0.2-6.1-0.4-10.6-0.4l-1,0c-2.8,0-5,2.3-5,5c0,2.8,2.3,5,5,5c0,0,0,0,0,0l0.9,0c4.3,0,7.7,0.2,9.9,0.3
		c6.4,0.5,12.6,0.9,18.8,1.3C596.5,690.6,596.6,690.6,596.7,690.6z"/>
	<path class="st0" d="M594,824.7c-2-1.9-5.2-1.8-7.1,0.2s-1.8,5.2,0.2,7.1c6.8,6.5,14.3,13.4,22.2,20.4c1,0.9,2.1,1.3,3.3,1.3
		c1.4,0,2.7-0.6,3.7-1.7c1.8-2.1,1.7-5.2-0.4-7.1C608.2,838,600.8,831.2,594,824.7z"/>
	<path class="st0" d="M656.6,694.4c2.6,0,4.8-2.1,5-4.7c0.2-2.8-2-5.1-4.7-5.3c-9.8-0.6-19.8-1.2-29.9-1.8c-2.8-0.2-5.1,1.9-5.3,4.7
		c-0.2,2.8,1.9,5.1,4.7,5.3c10.1,0.6,20.2,1.2,30,1.8C656.4,694.4,656.5,694.4,656.6,694.4z"/>
	<path class="st0" d="M553.2,781.6c-1.8-2.1-4.9-2.4-7-0.6c-2.1,1.8-2.4,4.9-0.6,7c6.1,7.3,12.9,14.9,20.2,22.6c1,1,2.3,1.5,3.6,1.5
		c1.2,0,2.5-0.5,3.4-1.4c2-1.9,2.1-5.1,0.2-7.1C565.8,796.2,559.1,788.7,553.2,781.6z"/>
	<path class="st0" d="M531.3,752c-4.4-6.8-7.8-13.2-10.1-19c-1-2.6-3.9-3.8-6.5-2.8c-2.6,1-3.8,3.9-2.8,6.5
		c2.5,6.4,6.2,13.4,11,20.7c1.4,2.1,2.8,4.2,4.2,6.3c1,1.4,2.5,2.2,4.1,2.2c1,0,2-0.3,2.8-0.9c2.3-1.6,2.9-4.7,1.3-7
		C533.9,756.1,532.6,754.1,531.3,752z"/>
	<path class="st0" d="M535.6,683c-13.3,4.1-22,11.1-25.9,20.8c-1,2.6,0.2,5.5,2.8,6.5c0.6,0.2,1.2,0.4,1.9,0.4c2,0,3.9-1.2,4.6-3.1
		c2.7-6.8,9.3-11.8,19.6-15c2.6-0.8,4.1-3.6,3.3-6.3C541.1,683.7,538.3,682.2,535.6,683z"/>
	<path class="st0" d="M772.1,917.3c-9.9-0.3-19.7-1.3-29.2-2.8c-2.7-0.4-5.3,1.4-5.7,4.1c-0.4,2.7,1.4,5.3,4.1,5.7
		c9.9,1.6,20.1,2.6,30.5,2.9c0.1,0,0.1,0,0.2,0c2.7,0,4.9-2.1,5-4.8C777,919.7,774.9,917.4,772.1,917.3z"/>
	<path class="st0" d="M776.5,689c-9.6-0.2-19.6-0.4-29.9-0.7c-2.8-0.1-5.1,2.1-5.1,4.9c-0.1,2.8,2.1,5.1,4.9,5.1
		c10.3,0.3,20.5,0.5,30.1,0.7c0,0,0.1,0,0.1,0c2.7,0,5-2.2,5-4.9C781.5,691.3,779.3,689.1,776.5,689z"/>
	<path class="st0" d="M836.3,688.9c-9.3,0.2-19.4,0.3-29.9,0.3c-2.8,0-5,2.2-5,5c0,2.8,2.2,5,5,5c10.5,0,20.7-0.1,30.1-0.3
		c2.8-0.1,4.9-2.4,4.9-5.1C841.4,691.1,839.1,688.9,836.3,688.9z"/>
	<path class="st0" d="M661.8,882.6c-6.4-4.3-12.7-9-18.7-14.1c-1.5-1.3-3.1-2.6-4.6-3.9c-2.1-1.8-5.3-1.5-7,0.6
		c-1.8,2.1-1.5,5.3,0.6,7c1.5,1.3,3,2.6,4.6,3.9c6.3,5.3,12.9,10.3,19.6,14.8c0.9,0.6,1.8,0.8,2.8,0.8c1.6,0,3.2-0.8,4.2-2.2
		C664.7,887.2,664.1,884.1,661.8,882.6z"/>
	<path class="st0" d="M901.2,689.6c-0.3-2.7-2.8-4.7-5.6-4.3c-8.2,1-18.1,1.9-29.5,2.5c-2.8,0.2-4.9,2.5-4.7,5.3
		c0.2,2.7,2.4,4.7,5,4.7c0.1,0,0.2,0,0.3,0c11.6-0.7,21.8-1.5,30.2-2.6C899.6,694.8,901.6,692.3,901.2,689.6z"/>
	<path class="st0" d="M716.7,687.3c-9.7-0.4-19.7-0.8-29.9-1.3c-2.8-0.1-5.1,2-5.2,4.7c-0.1,2.8,2,5.1,4.7,5.2
		c10.2,0.5,20.3,1,30,1.3c0.1,0,0.1,0,0.2,0c2.7,0,4.9-2.1,5-4.8C721.6,689.7,719.5,687.4,716.7,687.3z"/>
	<path class="st0" d="M714.4,907.8c-9.3-2.9-18.5-6.5-27.2-10.7c-2.5-1.2-5.5-0.1-6.7,2.3c-1.2,2.5-0.1,5.5,2.3,6.7
		c9.2,4.4,18.8,8.2,28.6,11.2c0.5,0.2,1,0.2,1.5,0.2c2.1,0,4.1-1.4,4.8-3.5C718.5,911.4,717,908.6,714.4,907.8z"/>
</g>
</svg>
