<?xml version="1.0" encoding="utf-8"?>
<!-- Generator: Adobe Illustrator 24.0.1, SVG Export Plug-In . SVG Version: 6.00 Build 0)  -->
<svg version="1.1" id="lankebanen_Club__Pit_Road" xmlns="http://www.w3.org/2000/svg" xmlns:xlink="http://www.w3.org/1999/xlink"
	 x="0px" y="0px" viewBox="0 0 1920 1080" style="enable-background:new 0 0 1920 1080;" xml:space="preserve">
<style type="text/css">
	.st0{fill:#D82520;}
</style>
<title>pitroad</title>
<g id="Pitroad">
	<path class="st0" d="M733.3,914.9c-0.1,0-12.4-3.1-27-11.5c-1.2-0.7-2.7-0.3-3.4,0.9c-0.7,1.2-0.3,2.7,0.9,3.4
		c15.2,8.8,27.7,11.9,28.3,12c0.2,0,0.4,0.1,0.6,0.1c1.1,0,2.1-0.8,2.4-1.9C735.4,916.6,734.6,915.2,733.3,914.9z"/>
	<path class="st0" d="M680.9,751.3c-7.3,6.7-13.6,14.9-18.6,24.4c-0.6,1.2-0.2,2.7,1.1,3.4c0.4,0.2,0.8,0.3,1.2,0.3
		c0.9,0,1.8-0.5,2.2-1.3c4.7-9,10.6-16.8,17.5-23.1c1-0.9,1.1-2.5,0.2-3.5C683.5,750.4,681.9,750.3,680.9,751.3z"/>
	<path class="st0" d="M655.1,802.6c-1.4-0.3-2.7,0.6-2.9,2c-1.1,5.6-1.6,11-1.6,16.2c0,1.7,0.1,3.3,0.2,4.8c0.2,3.3,0.6,6.5,1.1,9.7
		c0.2,1.2,1.3,2.1,2.5,2.1c0.1,0,0.3,0,0.4,0c1.4-0.2,2.3-1.5,2.1-2.9c-0.5-3-0.9-6.1-1.1-9.3c-0.1-1.4-0.2-2.9-0.2-4.5
		c0-4.8,0.5-9.9,1.5-15.2C657.4,804.2,656.5,802.9,655.1,802.6z"/>
	<path class="st0" d="M665.8,862.2c-0.6-1.2-2.1-1.7-3.4-1.1c-1.2,0.6-1.7,2.1-1.1,3.4c4.6,9,10.7,17.3,18.1,24.7
		c0.5,0.5,1.1,0.7,1.8,0.7c0.6,0,1.3-0.2,1.8-0.7c1-1,1-2.6,0-3.5C676,878.6,670.2,870.7,665.8,862.2z"/>
	<path class="st0" d="M736.5,727.6c-8.7,2.3-17,4.5-24.6,6.5c-1.5,0.4-3.1,0.9-4.6,1.4c-1.3,0.4-2,1.9-1.6,3.2
		c0.4,1,1.3,1.7,2.4,1.7c0.3,0,0.5,0,0.8-0.1c1.4-0.5,2.8-0.9,4.3-1.3c7.6-2,15.8-4.2,24.5-6.5c1.3-0.3,2.1-1.7,1.8-3
		C739.2,728.1,737.8,727.3,736.5,727.6z"/>
	<path class="st0" d="M794.7,712.9c-10.6,2.6-20.2,5-29.1,7.3c-1.3,0.3-2.2,1.7-1.8,3c0.3,1.1,1.3,1.9,2.4,1.9c0.2,0,0.4,0,0.6-0.1
		c8.9-2.3,18.5-4.6,29.1-7.3c1.3-0.3,2.2-1.7,1.8-3S796.1,712.6,794.7,712.9z"/>
	<path class="st0" d="M890.2,691.9l-47-7.5l10.6,14.1c-0.2,0-0.5,0-0.7,0.1c-5.2,1.3-10.7,2.6-16.4,4l-12.8,3.1
		c-1.3,0.3-2.2,1.7-1.8,3c0.3,1.1,1.3,1.9,2.4,1.9c0.2,0,0.4,0,0.6-0.1l12.8-3.1c5.7-1.4,11.2-2.7,16.4-4c0.2-0.1,0.4-0.1,0.6-0.2
		l-2.8,17.2L890.2,691.9z"/>
</g>
</svg>
