<?xml version="1.0" encoding="utf-8"?>
<!-- Generator: Adobe Illustrator 24.0.1, SVG Export Plug-In . SVG Version: 6.00 Build 0)  -->
<svg version="1.1" id="lankebanen_Short__Pit_Road" xmlns="http://www.w3.org/2000/svg" xmlns:xlink="http://www.w3.org/1999/xlink"
	 x="0px" y="0px" viewBox="0 0 1920 1080" style="enable-background:new 0 0 1920 1080;" xml:space="preserve">
<style type="text/css">
	.st0{fill:#D82520;}
</style>
<title>pitroad</title>
<g id="Pitroad">
	<path class="st0" d="M1031.4,349.2c-1-1-2.6-0.9-3.5,0.1c-1,1-0.9,2.6,0.1,3.5c6.9,6.6,14.1,13.7,21.4,21c0.5,0.5,1.1,0.7,1.8,0.7
		c0.6,0,1.3-0.2,1.8-0.7c1-1,1-2.6,0-3.5C1045.5,363,1038.3,355.9,1031.4,349.2z"/>
	<path class="st0" d="M864.6,221.5c-7.7-4.4-17.3-9.9-26.1-15c-1.2-0.7-2.7-0.3-3.4,0.9c-0.7,1.2-0.3,2.7,0.9,3.4
		c8.8,5,18.4,10.6,26.1,15c0.4,0.2,0.8,0.3,1.2,0.3c0.9,0,1.7-0.5,2.2-1.3C866.2,223.7,865.8,222.2,864.6,221.5z"/>
	<path class="st0" d="M986.9,308.8c-1-0.9-2.6-0.8-3.5,0.3c-0.9,1.1-0.8,2.6,0.3,3.5c7.3,6.3,14.9,12.9,22.4,19.8
		c0.5,0.4,1.1,0.7,1.7,0.7c0.7,0,1.4-0.3,1.9-0.8c0.9-1,0.9-2.6-0.2-3.5C1001.8,321.8,994.2,315.1,986.9,308.8z"/>
	<path class="st0" d="M1073.8,391.7c-1-1-2.5-1-3.5-0.1c-1,1-1,2.5-0.1,3.5c4.8,5,12,12.7,19.7,22.3c0.5,0.6,1.2,0.9,2,0.9
		c0.5,0,1.1-0.2,1.6-0.5c1.1-0.9,1.3-2.4,0.4-3.5C1086,404.6,1078.7,396.7,1073.8,391.7z"/>
	<path class="st0" d="M915.2,254.1c-7.5-5.2-15-10.2-22.2-15.1l-2.6-1.8c-1.1-0.8-2.7-0.5-3.5,0.7c-0.8,1.1-0.5,2.7,0.7,3.5l2.6,1.8
		c7.2,4.9,14.7,9.9,22.2,15c0.4,0.3,0.9,0.4,1.4,0.4c0.8,0,1.6-0.4,2.1-1.1C916.6,256.5,916.3,254.9,915.2,254.1z"/>
	<path class="st0" d="M963.6,289.7c-7.9-6.2-15.7-12.2-23.9-18.2c-1.1-0.8-2.7-0.6-3.5,0.5c-0.8,1.1-0.6,2.7,0.5,3.5
		c8.2,6,16,11.9,23.8,18.1c0.5,0.4,1,0.5,1.6,0.5c0.7,0,1.5-0.3,2-0.9C964.9,292.1,964.7,290.6,963.6,289.7z"/>
	<path class="st0" d="M1111.3,439c-0.7-1.2-2.3-1.5-3.5-0.8c-1.2,0.7-1.5,2.3-0.8,3.5c5.1,8,10.1,16.7,14.9,25.8
		c0.4,0.9,1.3,1.3,2.2,1.3c0.4,0,0.8-0.1,1.2-0.3c1.2-0.6,1.7-2.1,1.1-3.4C1121.6,455.9,1116.5,447.1,1111.3,439z"/>
	<path class="st0" d="M1191.8,600.3c-0.7-1.2-2.2-1.7-3.4-1c-1.2,0.7-1.7,2.2-1,3.4c5,9.3,10.7,17.8,16.9,25.3
		c0.5,0.6,1.2,0.9,1.9,0.9c0.6,0,1.1-0.2,1.6-0.6c1.1-0.9,1.2-2.5,0.3-3.5C1202.2,617.6,1196.7,609.3,1191.8,600.3z"/>
	<path class="st0" d="M1254.7,659.4c-9.1-3.5-17.6-8.3-25.5-14.2c-1.1-0.8-2.7-0.6-3.5,0.5c-0.8,1.1-0.6,2.7,0.5,3.5
		c8.2,6.2,17.2,11.2,26.7,14.9c0.3,0.1,0.6,0.2,0.9,0.2c1,0,1.9-0.6,2.3-1.6C1256.7,661.4,1256,659.9,1254.7,659.4z"/>
	<path class="st0" d="M1139.8,492.1c-0.6-1.2-2.1-1.8-3.3-1.2c-1.2,0.6-1.8,2.1-1.2,3.3c3.5,7.3,7.5,15.7,12.9,27.1
		c0.4,0.9,1.3,1.4,2.3,1.4c0.4,0,0.7-0.1,1.1-0.2c1.2-0.6,1.8-2.1,1.2-3.3C1147.3,507.8,1143.3,499.5,1139.8,492.1z"/>
	<path class="st0" d="M1165.6,546.4c-0.6-1.2-2.1-1.8-3.3-1.2c-1.2,0.6-1.8,2.1-1.2,3.3c3.7,7.7,8.5,17.8,12.9,27.1
		c0.4,0.9,1.3,1.4,2.3,1.4c0.4,0,0.7-0.1,1.1-0.2c1.2-0.6,1.8-2.1,1.2-3.3C1174.1,564.2,1169.3,554.1,1165.6,546.4z"/>
	<path class="st0" d="M1342.6,671.4l-43.5-19.3l6.5,16.1c-7.9-0.4-15-0.9-20.2-1.4c-0.8-0.1-1.5-0.2-2.3-0.3
		c-1.4-0.2-2.6,0.8-2.8,2.2c-0.2,1.4,0.8,2.6,2.2,2.8c0.8,0.1,1.6,0.2,2.3,0.3c5.3,0.5,12.5,1.1,20.6,1.5l-7.1,15.9L1342.6,671.4z"
		/>
</g>
</svg>
