<?xml version="1.0" encoding="utf-8"?>
<!-- Generator: Adobe Illustrator 24.0.1, SVG Export Plug-In . SVG Version: 6.00 Build 0)  -->
<svg version="1.1" id="Homestead_Indy_Pits__Pit_Road"
	 xmlns="http://www.w3.org/2000/svg" xmlns:xlink="http://www.w3.org/1999/xlink" x="0px" y="0px" viewBox="0 0 1920 1080"
	 style="enable-background:new 0 0 1920 1080;" xml:space="preserve">
<style type="text/css">
	.st0{fill:#016699;}
	.st1{fill:#D82520;}
</style>
<title>pitroad</title>
<g id="Mergeline">
	<path class="st0" d="M1529.3,877.4c-13.3,3.1-22.1,4.5-23.6,4.7l-5.1,0.3c-2.8,0.1-4.9,2.5-4.7,5.2c0.1,2.7,2.3,4.8,5,4.8
		c0.1,0,0.2,0,0.3,0l5.4-0.3l0.5,0c0.4-0.1,9.7-1.4,24.6-4.9c2.7-0.6,4.4-3.3,3.7-6C1534.6,878.5,1532,876.8,1529.3,877.4z"/>
	<path class="st0" d="M1491.3,185c-9.7-2.3-19.6-4.4-29.5-6.3c-2.7-0.5-5.3,1.3-5.9,4c-0.5,2.7,1.3,5.3,4,5.9
		c9.8,1.9,19.6,4,29.1,6.2c0.4,0.1,0.8,0.1,1.1,0.1c2.3,0,4.3-1.6,4.9-3.9C1495.7,188.3,1494,185.6,1491.3,185z"/>
	<path class="st0" d="M1586,860.1c-9.1,3.4-18.5,6.7-28.1,9.6c-2.6,0.8-4.1,3.6-3.3,6.2c0.7,2.2,2.6,3.5,4.8,3.5
		c0.5,0,1-0.1,1.5-0.2c9.8-3,19.4-6.3,28.7-9.8c2.6-1,3.9-3.9,2.9-6.4C1591.5,860.5,1588.6,859.2,1586,860.1z"/>
	<path class="st0" d="M1470.6,883.8l-30,1.5c-2.8,0.1-4.9,2.5-4.7,5.2c0.1,2.7,2.3,4.8,5,4.8c0.1,0,0.2,0,0.3,0l30-1.5
		c2.8-0.1,4.9-2.5,4.7-5.2C1475.7,885.8,1473.4,883.7,1470.6,883.8z"/>
	<path class="st0" d="M1605.8,223.4c-8.8-4.1-18.2-8-27.9-11.8c-2.6-1-5.5,0.3-6.5,2.8c-1,2.6,0.3,5.5,2.8,6.5
		c9.5,3.7,18.7,7.6,27.4,11.6c0.7,0.3,1.4,0.5,2.1,0.5c1.9,0,3.7-1.1,4.5-2.9C1609.5,227.5,1608.4,224.5,1605.8,223.4z"/>
	<path class="st0" d="M1549.5,201.3c-9.4-3.1-19.1-6.1-28.9-8.8c-2.7-0.7-5.4,0.8-6.2,3.5c-0.7,2.7,0.8,5.4,3.5,6.2
		c9.6,2.7,19.2,5.6,28.5,8.7c0.5,0.2,1.1,0.3,1.6,0.3c2.1,0,4-1.3,4.7-3.4C1553.5,205,1552.1,202.2,1549.5,201.3z"/>
	<path class="st0" d="M1787.9,449.9c0.6,2.2,2.6,3.6,4.8,3.6c0.4,0,0.9-0.1,1.4-0.2c2.7-0.7,4.2-3.5,3.5-6.2
		c-2.7-9.8-5.9-19.5-9.4-28.9c-1-2.6-3.8-3.9-6.4-2.9c-2.6,1-3.9,3.8-2.9,6.4C1782.1,430.9,1785.2,440.4,1787.9,449.9z"/>
	<path class="st0" d="M1794.7,478.7c1.9,9.6,3.4,19.5,4.6,29.3c0.3,2.5,2.5,4.4,5,4.4c0.2,0,0.4,0,0.6,0c2.7-0.3,4.7-2.8,4.4-5.5
		c-1.2-10.1-2.8-20.2-4.7-30c-0.5-2.7-3.2-4.5-5.9-3.9C1795.9,473.4,1794.2,476,1794.7,478.7z"/>
	<path class="st0" d="M1372.9,163.4l-29.6-5c-2.7-0.5-5.3,1.4-5.8,4.1c-0.5,2.7,1.4,5.3,4.1,5.8l29.6,5c0.3,0,0.6,0.1,0.8,0.1
		c2.4,0,4.5-1.7,4.9-4.2C1377.5,166.5,1375.7,163.9,1372.9,163.4z"/>
	<path class="st0" d="M1313.8,153.4l-29.6-5c-2.7-0.5-5.3,1.4-5.8,4.1c-0.5,2.7,1.4,5.3,4.1,5.8l29.6,5c0.3,0,0.6,0.1,0.8,0.1
		c2.4,0,4.5-1.7,4.9-4.2C1318.3,156.5,1316.5,153.9,1313.8,153.4z"/>
	<path class="st0" d="M1432.1,173.4l-29.6-5c-2.7-0.5-5.3,1.4-5.8,4.1c-0.5,2.7,1.4,5.3,4.1,5.8l29.6,5c0.3,0,0.6,0.1,0.8,0.1
		c2.4,0,4.5-1.7,4.9-4.2C1436.7,176.5,1434.8,173.9,1432.1,173.4z"/>
	<path class="st0" d="M1705.8,291.8c-7.2-7-14.8-13.8-22.7-20.2c-2.1-1.7-5.3-1.4-7,0.7c-1.7,2.1-1.4,5.3,0.7,7
		c7.7,6.3,15.1,12.9,22.1,19.6c1,0.9,2.2,1.4,3.5,1.4c1.3,0,2.6-0.5,3.6-1.5C1707.8,296.9,1707.8,293.7,1705.8,291.8z"/>
	<path class="st0" d="M1639.6,835c-8.3,4.8-17.1,9.3-26.3,13.6c-2.5,1.2-3.6,4.1-2.4,6.6c0.8,1.8,2.7,2.9,4.5,2.9
		c0.7,0,1.4-0.2,2.1-0.5c9.4-4.4,18.5-9.1,27-14c2.4-1.4,3.2-4.4,1.8-6.8C1645.1,834.5,1642,833.6,1639.6,835z"/>
	<path class="st0" d="M1776.3,390.2c-4.3-9.2-9.1-18.2-14.2-26.9c-1.4-2.4-4.5-3.2-6.8-1.8c-2.4,1.4-3.2,4.5-1.8,6.8
		c4.9,8.4,9.6,17.2,13.8,26.1c0.9,1.8,2.7,2.9,4.5,2.9c0.7,0,1.4-0.2,2.1-0.5C1776.4,395.7,1777.4,392.7,1776.3,390.2z"/>
	<path class="st0" d="M1790,650.5c-2.6-0.9-5.5,0.5-6.4,3.1c-3.2,9.3-6.8,18.5-10.8,27.5c-1.1,2.5,0,5.5,2.6,6.6
		c0.7,0.3,1.3,0.4,2,0.4c1.9,0,3.8-1.1,4.6-3c4.1-9.3,7.8-18.8,11.1-28.3C1794,654.2,1792.6,651.4,1790,650.5z"/>
	<path class="st0" d="M1811.6,537.1c-0.1-2.8-2.4-4.9-5.2-4.8c-2.8,0.1-4.9,2.4-4.8,5.2c0.2,4.7,0.3,9.3,0.3,13.9
		c0,5.4-0.1,10.7-0.4,15.7c-0.1,2.8,2,5.1,4.7,5.2c0.1,0,0.2,0,0.3,0c2.6,0,4.9-2.1,5-4.8c0.3-5.2,0.4-10.6,0.4-16.2
		C1811.9,546.7,1811.8,541.9,1811.6,537.1z"/>
	<path class="st0" d="M1803.9,592.2c-2.7-0.5-5.3,1.4-5.8,4.1c-1.6,9.7-3.7,19.4-6.1,28.9c-0.7,2.7,0.9,5.4,3.6,6.1
		c0.4,0.1,0.8,0.2,1.2,0.2c2.2,0,4.3-1.5,4.8-3.8c2.5-9.8,4.6-19.8,6.2-29.8C1808.5,595.2,1806.6,592.6,1803.9,592.2z"/>
	<path class="st0" d="M1766.6,705.7c-2.4-1.3-5.5-0.4-6.8,2c-4.7,8.6-9.8,17.2-15.2,25.4c-1.5,2.3-0.9,5.4,1.5,6.9
		c0.8,0.5,1.8,0.8,2.7,0.8c1.6,0,3.2-0.8,4.2-2.3c5.5-8.5,10.8-17.3,15.6-26.1C1770,710,1769.1,707,1766.6,705.7z"/>
	<path class="st0" d="M1687.5,800.7c-6.9,6.2-11.2,9.4-11.3,9.5l-0.2,0.1c-3.7,3-7.6,5.9-11.6,8.8c-2.2,1.6-2.8,4.7-1.2,7
		c1,1.4,2.5,2.1,4.1,2.1c1,0,2-0.3,2.9-0.9c4.1-2.9,8.1-6,12-9.1c0.7-0.5,5.1-3.9,11.9-10c2.1-1.8,2.2-5,0.4-7.1
		C1692.7,799,1689.6,798.8,1687.5,800.7z"/>
	<path class="st0" d="M1658.8,253.3c-4.9-3.4-10-6.7-15.1-9.9c-0.6-0.4-4.1-2.7-10.7-6.4c-2.4-1.4-5.5-0.5-6.8,1.9
		c-1.4,2.4-0.5,5.5,1.9,6.8c6.6,3.7,10,6,10.1,6l0.1,0.1c5,3.1,10,6.4,14.8,9.7c0.9,0.6,1.9,0.9,2.8,0.9c1.6,0,3.2-0.8,4.1-2.2
		C1661.6,258,1661,254.9,1658.8,253.3z"/>
	<path class="st0" d="M1745.5,337.8c-5.9-8.2-12.2-16.3-18.8-23.9c-1.8-2.1-5-2.3-7.1-0.5c-2.1,1.8-2.3,5-0.5,7.1
		c6.4,7.4,12.5,15.2,18.3,23.2c1,1.4,2.5,2.1,4.1,2.1c1,0,2-0.3,2.9-0.9C1746.5,343.2,1747.1,340.1,1745.5,337.8z"/>
	<path class="st0" d="M1734.5,756.3c-2.2-1.7-5.3-1.3-7,0.9c-6.1,7.8-12.5,15.5-19.1,22.6c-1.9,2-1.7,5.2,0.3,7.1
		c1,0.9,2.2,1.3,3.4,1.3c1.4,0,2.7-0.5,3.7-1.6c6.8-7.4,13.4-15.2,19.6-23.3C1737.1,761.2,1736.7,758,1734.5,756.3z"/>
	
		<rect x="1224.4" y="143.9" transform="matrix(0.1666 -0.986 0.986 0.1666 900.6763 1363.3972)" class="st0" width="65" height="10"/>
</g>
<g id="Pitroad">
	<path class="st1" d="M297,832.1c-8.4-5.5-16.6-11.3-24.4-17.1c-1.1-0.8-2.7-0.6-3.5,0.5c-0.8,1.1-0.6,2.7,0.5,3.5
		c7.9,5.9,16.2,11.7,24.6,17.3c0.4,0.3,0.9,0.4,1.4,0.4c0.8,0,1.6-0.4,2.1-1.1C298.5,834.4,298.2,832.8,297,832.1z"/>
	<path class="st1" d="M270.8,244.3c8.3-5.3,17-10.4,25.7-15.1c1.2-0.7,1.7-2.2,1-3.4c-0.7-1.2-2.2-1.7-3.4-1
		c-8.9,4.8-17.6,10-26,15.3c-1.2,0.7-1.5,2.3-0.8,3.5c0.5,0.8,1.3,1.2,2.1,1.2C269.9,244.7,270.4,244.5,270.8,244.3z"/>
	<path class="st1" d="M226.9,776.6c-1-1-2.6-0.9-3.5,0.1c-1,1-0.9,2.6,0.1,3.5c7.2,6.8,14.7,13.6,22.5,20.1c0.5,0.4,1,0.6,1.6,0.6
		c0.7,0,1.4-0.3,1.9-0.9c0.9-1.1,0.7-2.6-0.3-3.5C241.5,790,234,783.3,226.9,776.6z"/>
	<path class="st1" d="M106.7,485.1c0.1,0,0.2,0,0.3,0c1.2,0,2.3-0.9,2.5-2.2c0.3-2.4,0.6-3.7,0.6-3.8c1.3-8.6,3-17.1,4.9-25.4
		c0.3-1.3-0.5-2.7-1.9-3c-1.3-0.3-2.7,0.5-3,1.9c-2,8.4-3.6,17.1-5,25.7c0,0.1-0.3,1.4-0.6,4C104.4,483.7,105.4,484.9,106.7,485.1z"
		/>
	<path class="st1" d="M435.9,177.6c0.2,0,0.4,0,0.6-0.1c9.2-2.4,19-4.7,29.1-7c1.3-0.3,2.2-1.6,1.9-3c-0.3-1.3-1.7-2.2-3-1.9
		c-10.1,2.3-19.9,4.7-29.2,7.1c-1.3,0.3-2.1,1.7-1.8,3C433.8,176.9,434.8,177.6,435.9,177.6z"/>
	<path class="st1" d="M349.9,858.7c-12.8-4.5-22-8.6-27.5-11.3c-1.2-0.6-2.7-0.1-3.3,1.2c-0.6,1.2-0.1,2.7,1.2,3.3
		c5.6,2.7,15,6.9,28,11.5c0.3,0.1,0.6,0.1,0.8,0.1c1,0,2-0.6,2.4-1.7C351.9,860.6,351.2,859.1,349.9,858.7z"/>
	<path class="st1" d="M407.4,874.4c-9.9-2-19.7-4.3-29-6.9c-1.3-0.4-2.7,0.4-3.1,1.8c-0.4,1.3,0.4,2.7,1.8,3.1
		c9.4,2.6,19.3,4.9,29.3,7c0.2,0,0.3,0.1,0.5,0.1c1.2,0,2.2-0.8,2.4-2C409.6,876,408.7,874.7,407.4,874.4z"/>
	<path class="st1" d="M406.3,180.6c-10.3,3-15.8,4.9-16.7,5.1c-0.8,0.2-5.1,1.3-12.2,3.5c-1.3,0.4-2.1,1.8-1.6,3.1
		c0.3,1.1,1.3,1.8,2.4,1.8c0.2,0,0.5,0,0.7-0.1c7.6-2.3,12-3.4,12-3.4l0.2-0.1c0.1,0,5.6-1.9,16.5-5.1c1.3-0.4,2.1-1.8,1.7-3.1
		C409,180.9,407.6,180.2,406.3,180.6z"/>
	<path class="st1" d="M348.9,199.2c-9.3,3.6-18.6,7.6-27.8,11.9c-1.3,0.6-1.8,2.1-1.2,3.3c0.4,0.9,1.3,1.4,2.3,1.4
		c0.4,0,0.7-0.1,1.1-0.2c9-4.2,18.3-8.2,27.5-11.8c1.3-0.5,1.9-2,1.4-3.2C351.6,199.4,350.1,198.7,348.9,199.2z"/>
	<path class="st1" d="M246.2,261.1c1.1-0.8,1.3-2.4,0.5-3.5c-0.8-1.1-2.4-1.3-3.5-0.5c-8.2,6-16.1,12.3-23.6,18.8
		c-1,0.9-1.2,2.5-0.3,3.5c0.5,0.6,1.2,0.9,1.9,0.9c0.6,0,1.2-0.2,1.6-0.6C230.2,273.3,238.1,267.1,246.2,261.1z"/>
	<path class="st1" d="M128.4,629.3c-0.5-1.3-1.9-2-3.2-1.5c-1.3,0.5-2,1.9-1.5,3.2c3.4,9.4,7.3,18.8,11.5,27.9
		c0.4,0.9,1.3,1.5,2.3,1.5c0.4,0,0.7-0.1,1-0.2c1.3-0.6,1.8-2.1,1.2-3.3C135.6,647.8,131.8,638.6,128.4,629.3z"/>
	<path class="st1" d="M132.6,394.1c-1.3-0.6-2.7,0-3.3,1.3c-4,9.1-7.7,18.6-10.9,28.2c-0.4,1.3,0.3,2.7,1.6,3.2
		c0.3,0.1,0.5,0.1,0.8,0.1c1,0,2-0.7,2.4-1.7c3.1-9.4,6.7-18.7,10.7-27.7C134.4,396.2,133.8,394.7,132.6,394.1z"/>
	<path class="st1" d="M112.9,571.8c-0.2-1.4-1.5-2.3-2.9-2c-1.4,0.2-2.3,1.5-2,2.9c1.8,9.8,4,19.8,6.6,29.5c0.3,1.1,1.3,1.8,2.4,1.8
		c0.2,0,0.4,0,0.7-0.1c1.3-0.4,2.1-1.7,1.8-3.1C116.8,591.3,114.6,581.6,112.9,571.8z"/>
	<path class="st1" d="M108.9,542.3c-0.8-9.4-1.3-18.7-1.3-27.8c0-0.6,0-1.3,0-1.9c0-1.4-1.1-2.5-2.5-2.5c-1.3,0-2.5,1.1-2.5,2.5
		c0,0.6,0,1.3,0,2c0,9.2,0.4,18.7,1.3,28.3c0.1,1.3,1.2,2.3,2.5,2.3c0.1,0,0.1,0,0.2,0C108,544.9,109,543.7,108.9,542.3z"/>
	<path class="st1" d="M162.3,342.2c-1.1-0.8-2.7-0.5-3.5,0.6c-5.7,8.3-11.1,16.9-16,25.6c-0.7,1.2-0.2,2.7,1,3.4
		c0.4,0.2,0.8,0.3,1.2,0.3c0.9,0,1.7-0.5,2.2-1.3c4.8-8.6,10.1-17.1,15.8-25.2C163.7,344.5,163.4,343,162.3,342.2z"/>
	<path class="st1" d="M186.7,732.6c-0.9-1.1-2.4-1.3-3.5-0.4c-1.1,0.9-1.3,2.4-0.4,3.5c6.2,7.8,12.8,15.5,19.6,22.9
		c0.5,0.5,1.2,0.8,1.8,0.8c0.6,0,1.2-0.2,1.7-0.7c1-0.9,1.1-2.5,0.2-3.5C199.3,748,192.8,740.3,186.7,732.6z"/>
	<path class="st1" d="M201,296.4c-1-1-2.6-1-3.5,0c-7.1,7.2-14,14.7-20.3,22.3c-0.9,1.1-0.7,2.6,0.3,3.5c0.5,0.4,1,0.6,1.6,0.6
		c0.7,0,1.4-0.3,1.9-0.9c6.3-7.5,13-14.9,20.1-22C202,299,201.9,297.4,201,296.4z"/>
	<path class="st1" d="M153.4,683.3c-0.7-1.2-2.2-1.6-3.4-0.9c-1.2,0.7-1.6,2.2-0.9,3.4c4.9,8.7,10.3,17.3,15.9,25.7
		c0.5,0.7,1.3,1.1,2.1,1.1c0.5,0,1-0.1,1.4-0.4c1.1-0.8,1.4-2.3,0.7-3.5C163.5,700.4,158.2,691.9,153.4,683.3z"/>
	<path class="st1" d="M886.2,885.7l-30-0.1c0,0,0,0,0,0c-1.4,0-2.5,1.1-2.5,2.5c0,1.4,1.1,2.5,2.5,2.5l30,0.1c0,0,0,0,0,0
		c1.4,0,2.5-1.1,2.5-2.5C888.7,886.9,887.5,885.7,886.2,885.7z"/>
	<path class="st1" d="M1126.2,886.5l-30-0.1c0,0,0,0,0,0c-1.4,0-2.5,1.1-2.5,2.5c0,1.4,1.1,2.5,2.5,2.5l30,0.1c0,0,0,0,0,0
		c1.4,0,2.5-1.1,2.5-2.5C1128.7,887.7,1127.5,886.5,1126.2,886.5z"/>
	<path class="st1" d="M1066.2,886.3l-30-0.1c0,0,0,0,0,0c-1.4,0-2.5,1.1-2.5,2.5c0,1.4,1.1,2.5,2.5,2.5l30,0.1c0,0,0,0,0,0
		c1.4,0,2.5-1.1,2.5-2.5C1068.7,887.5,1067.5,886.3,1066.2,886.3z"/>
	<path class="st1" d="M1006.2,886.1l-30-0.1c0,0,0,0,0,0c-1.4,0-2.5,1.1-2.5,2.5c0,1.4,1.1,2.5,2.5,2.5l30,0.1c0,0,0,0,0,0
		c1.4,0,2.5-1.1,2.5-2.5C1008.7,887.3,1007.5,886.1,1006.2,886.1z"/>
	<path class="st1" d="M1186.2,886.7l-30-0.1c0,0,0,0,0,0c-1.4,0-2.5,1.1-2.5,2.5c0,1.4,1.1,2.5,2.5,2.5l30,0.1c0,0,0,0,0,0
		c1.4,0,2.5-1.1,2.5-2.5C1188.7,887.9,1187.5,886.7,1186.2,886.7z"/>
	<path class="st1" d="M1366.2,887.3l-30-0.1c-1.4,0-2.5,1.1-2.5,2.5c0,1.4,1.1,2.5,2.5,2.5l30,0.1c0,0,0,0,0,0
		c1.4,0,2.5-1.1,2.5-2.5C1368.7,888.5,1367.5,887.3,1366.2,887.3z"/>
	<path class="st1" d="M946.2,885.9l-30-0.1c0,0,0,0,0,0c-1.4,0-2.5,1.1-2.5,2.5c0,1.4,1.1,2.5,2.5,2.5l30,0.1c0,0,0,0,0,0
		c1.4,0,2.5-1.1,2.5-2.5C948.7,887.1,947.5,885.9,946.2,885.9z"/>
	<path class="st1" d="M1306.2,887.1l-30-0.1c0,0,0,0,0,0c-1.4,0-2.5,1.1-2.5,2.5c0,1.4,1.1,2.5,2.5,2.5l30,0.1c0,0,0,0,0,0
		c1.4,0,2.5-1.1,2.5-2.5C1308.7,888.3,1307.5,887.1,1306.2,887.1z"/>
	<path class="st1" d="M466.4,883.2c-10-1-20-2.2-29.7-3.6c-1.4-0.2-2.6,0.7-2.8,2.1c-0.2,1.4,0.7,2.6,2.1,2.8
		c9.7,1.4,19.8,2.7,29.9,3.6c0.1,0,0.2,0,0.2,0c1.3,0,2.4-1,2.5-2.3C468.8,884.5,467.8,883.3,466.4,883.2z"/>
	<path class="st1" d="M1246.2,886.9l-30-0.1c0,0,0,0,0,0c-1.4,0-2.5,1.1-2.5,2.5c0,1.4,1.1,2.5,2.5,2.5l30,0.1c0,0,0,0,0,0
		c1.4,0,2.5-1.1,2.5-2.5C1248.7,888.1,1247.5,886.9,1246.2,886.9z"/>
	<path class="st1" d="M583.3,147.9c1.4-0.2,2.3-1.5,2.1-2.9c-0.2-1.4-1.5-2.3-2.9-2.1c-10,1.6-19.9,3.3-29.6,5
		c-1.4,0.2-2.3,1.5-2,2.9c0.2,1.2,1.3,2.1,2.5,2.1c0.1,0,0.3,0,0.4,0C563.4,151.2,573.4,149.5,583.3,147.9z"/>
	<path class="st1" d="M826.2,885.5l-30-0.1c0,0,0,0,0,0c-1.4,0-2.5,1.1-2.5,2.5c0,1.4,1.1,2.5,2.5,2.5l30,0.1c0,0,0,0,0,0
		c1.4,0,2.5-1.1,2.5-2.5C828.7,886.7,827.5,885.5,826.2,885.5z"/>
	<path class="st1" d="M494.9,164.1c9.5-2,19.4-4,29.4-5.9c1.4-0.3,2.2-1.6,2-2.9c-0.3-1.4-1.6-2.2-2.9-2c-10,1.9-19.9,3.9-29.5,5.9
		c-1.4,0.3-2.2,1.6-1.9,3c0.2,1.2,1.3,2,2.4,2C494.6,164.2,494.8,164.1,494.9,164.1z"/>
	<path class="st1" d="M586.2,884.7l-30-0.1c0,0,0,0,0,0c-1.4,0-2.5,1.1-2.5,2.5c0,1.4,1.1,2.5,2.5,2.5l30,0.1c0,0,0,0,0,0
		c1.4,0,2.5-1.1,2.5-2.5C588.7,885.9,587.5,884.7,586.2,884.7z"/>
	<path class="st1" d="M526.2,884.5l-30-0.1c0,0,0,0,0,0c-1.4,0-2.5,1.1-2.5,2.5c0,1.4,1.1,2.5,2.5,2.5l30,0.1c0,0,0,0,0,0
		c1.4,0,2.5-1.1,2.5-2.5C528.7,885.7,527.5,884.5,526.2,884.5z"/>
	<path class="st1" d="M646.2,884.9l-30-0.1c0,0,0,0,0,0c-1.4,0-2.5,1.1-2.5,2.5c0,1.4,1.1,2.5,2.5,2.5l30,0.1c0,0,0,0,0,0
		c1.4,0,2.5-1.1,2.5-2.5C648.7,886.1,647.5,884.9,646.2,884.9z"/>
	<path class="st1" d="M766.2,885.3l-30-0.1c0,0,0,0,0,0c-1.4,0-2.5,1.1-2.5,2.5c0,1.4,1.1,2.5,2.5,2.5l30,0.1c0,0,0,0,0,0
		c1.4,0,2.5-1.1,2.5-2.5C768.7,886.5,767.5,885.3,766.2,885.3z"/>
	<path class="st1" d="M706.2,885.1l-30-0.1c0,0,0,0,0,0c-1.4,0-2.5,1.1-2.5,2.5c0,1.4,1.1,2.5,2.5,2.5l30,0.1c0,0,0,0,0,0
		c1.4,0,2.5-1.1,2.5-2.5C708.7,886.3,707.5,885.1,706.2,885.1z"/>
	<path class="st1" d="M1446.7,890l-43.8-18.7l6.8,16.1l-13.5,0c0,0,0,0,0,0c-1.4,0-2.5,1.1-2.5,2.5c0,1.4,1.1,2.5,2.5,2.5l13.4,0
		l-6.8,15.9L1446.7,890z"/>
</g>
</svg>
