<?xml version="1.0" encoding="utf-8"?>
<!-- Generator: Adobe Illustrator 24.0.1, SVG Export Plug-In . SVG Version: 6.00 Build 0)  -->
<svg version="1.1" id="lankebanen_Road_Long__Pit_Road"
	 xmlns="http://www.w3.org/2000/svg" xmlns:xlink="http://www.w3.org/1999/xlink" x="0px" y="0px" viewBox="0 0 1920 1080"
	 style="enable-background:new 0 0 1920 1080;" xml:space="preserve">
<style type="text/css">
	.st0{fill:#D82520;}
</style>
<title>pitroad</title>
<g id="Pitroad">
	<path class="st0" d="M1017.7,424c-0.7-1.2-2.2-1.6-3.4-0.9c-1.2,0.7-1.6,2.2-0.9,3.4c4.6,8.1,9.4,16.9,14.4,26.2
		c0.4,0.8,1.3,1.3,2.2,1.3c0.4,0,0.8-0.1,1.2-0.3c1.2-0.6,1.7-2.2,1-3.4C1027.2,441,1022.3,432.2,1017.7,424z"/>
	<path class="st0" d="M985.9,373c-0.8-1.1-2.3-1.4-3.5-0.6c-1.1,0.8-1.4,2.3-0.6,3.5c5.7,8.1,11,16.3,16.4,24.9
		c0.5,0.8,1.3,1.2,2.1,1.2c0.5,0,0.9-0.1,1.3-0.4c1.2-0.7,1.5-2.3,0.8-3.4C997,389.5,991.6,381.2,985.9,373z"/>
	<path class="st0" d="M910.3,279.5c-1-1-2.6-1-3.5,0c-1,1-1,2.6,0,3.5c7.1,7,14,14.3,20.5,21.6c0.5,0.6,1.2,0.8,1.9,0.8
		c0.6,0,1.2-0.2,1.7-0.6c1-0.9,1.1-2.5,0.2-3.5C924.5,294,917.5,286.7,910.3,279.5z"/>
	<path class="st0" d="M840.4,222.2c-15.5-10.5-25.3-15.8-25.7-16c-1.2-0.7-2.7-0.2-3.4,1c-0.7,1.2-0.2,2.7,1,3.4
		c0.1,0.1,10.1,5.4,25.3,15.7c0.4,0.3,0.9,0.4,1.4,0.4c0.8,0,1.6-0.4,2.1-1.1C841.8,224.6,841.5,223,840.4,222.2z"/>
	<path class="st0" d="M864.8,239.9c-1.1-0.8-2.7-0.6-3.5,0.5c-0.8,1.1-0.6,2.7,0.5,3.5c7.9,6.1,15.6,12.4,23.1,18.9
		c0.5,0.4,1.1,0.6,1.6,0.6c0.7,0,1.4-0.3,1.9-0.9c0.9-1,0.8-2.6-0.2-3.5C880.6,252.5,872.8,246,864.8,239.9z"/>
	<path class="st0" d="M963.5,342.3c-3-4.1-6.1-8.2-9.3-12.5c-1.3-1.7-2.6-3.4-3.9-5.1c-0.8-1.1-2.4-1.3-3.5-0.5
		c-1.1,0.8-1.3,2.4-0.5,3.5c1.3,1.7,2.6,3.4,3.8,5.1c3.2,4.3,6.3,8.4,9.4,12.5c1.6,2.1,3.2,4.3,4.8,6.4c0.5,0.7,1.2,1,2,1
		c0.5,0,1-0.2,1.5-0.5c1.1-0.8,1.3-2.4,0.5-3.5C966.7,346.6,965.1,344.5,963.5,342.3z"/>
	<path class="st0" d="M1147.5,657.3c-8.5-5.8-15.7-12.4-21.5-19.6c-0.9-1.1-2.4-1.3-3.5-0.4s-1.3,2.4-0.4,3.5
		c6.1,7.6,13.7,14.6,22.6,20.7c0.4,0.3,0.9,0.4,1.4,0.4c0.8,0,1.6-0.4,2.1-1.1C1149,659.6,1148.7,658,1147.5,657.3z"/>
	<path class="st0" d="M1202,678.5c-9.9-1.7-19.5-4.3-28.4-7.7c-1.3-0.5-2.7,0.1-3.2,1.4c-0.5,1.3,0.1,2.7,1.4,3.2
		c9.3,3.6,19.2,6.3,29.4,8c0.1,0,0.3,0,0.4,0c1.2,0,2.3-0.9,2.5-2.1C1204.3,680.1,1203.4,678.8,1202,678.5z"/>
	<path class="st0" d="M1045.9,477.1c-0.6-1.2-2.1-1.7-3.4-1.1c-1.2,0.6-1.7,2.1-1.1,3.4c4.3,8.4,8.7,17.4,13.3,26.8
		c0.4,0.9,1.3,1.4,2.2,1.4c0.4,0,0.7-0.1,1.1-0.3c1.2-0.6,1.8-2.1,1.2-3.3C1054.7,494.5,1050.2,485.5,1045.9,477.1z"/>
	<path class="st0" d="M1097.9,585.3c-0.6-1.2-2.1-1.8-3.3-1.2c-1.2,0.6-1.8,2.1-1.2,3.3c5.2,10.8,9.5,19.6,13.2,27
		c0.4,0.9,1.3,1.4,2.2,1.4c0.4,0,0.8-0.1,1.1-0.3c1.2-0.6,1.7-2.1,1.1-3.4C1107.4,604.9,1103.1,596.1,1097.9,585.3z"/>
	<path class="st0" d="M1080.1,547.6c-2.7-5.8-5.4-11.4-7.8-16.5c-0.6-1.2-2.1-1.8-3.3-1.2c-1.2,0.6-1.8,2.1-1.2,3.3
		c2.4,5.1,5,10.7,7.8,16.5l5,10.6c0.4,0.9,1.3,1.4,2.3,1.4c0.4,0,0.7-0.1,1.1-0.2c1.2-0.6,1.8-2.1,1.2-3.3L1080.1,547.6z"/>
	<path class="st0" d="M1296.4,671.4l-47.2-6.4l10.6,13.4c-9.5,1.6-19,2.4-28.3,2.5c-1.4,0-2.5,1.1-2.5,2.5c0,1.4,1.1,2.5,2.5,2.5
		c0,0,0,0,0,0c9.8-0.1,19.9-1,29.8-2.6l-2.4,17.5L1296.4,671.4z"/>
</g>
</svg>
