<?xml version="1.0" encoding="utf-8"?>
<!-- Generator: Adobe Illustrator 24.0.1, SVG Export Plug-In . SVG Version: 6.00 Build 0)  -->
<svg version="1.1" id="Legends_Oval_-_Pit_Road" xmlns="http://www.w3.org/2000/svg" xmlns:xlink="http://www.w3.org/1999/xlink"
	 x="0px" y="0px" viewBox="0 0 1920 1080" style="enable-background:new 0 0 1920 1080;" xml:space="preserve">
<style type="text/css">
	.st0{fill:#D82520;}
</style>
<title>pitroad</title>
<g id="Pitroad">
	<path class="st0" d="M717.9,822.8C717.9,822.8,717.9,822.8,717.9,822.8l-30,0.1c-1.4,0-2.5,1.1-2.5,2.5c0,1.4,1.1,2.5,2.5,2.5
		c0,0,0,0,0,0l30-0.1c1.4,0,2.5-1.1,2.5-2.5C720.4,824,719.3,822.8,717.9,822.8z"/>
	<path class="st0" d="M760.7,920.2c-11-1.3-19.9-3.3-28.7-6.4c-1.3-0.5-2.7,0.2-3.2,1.5c-0.5,1.3,0.2,2.7,1.5,3.2
		c9,3.2,18.5,5.3,29.7,6.6c0.1,0,0.2,0,0.3,0c1.2,0,2.3-0.9,2.5-2.2C763.1,921.6,762.1,920.3,760.7,920.2z"/>
	<path class="st0" d="M657.4,823.3c-4.3,0.8-19,4.1-28.8,11.5c-1.1,0.8-1.3,2.4-0.5,3.5c0.5,0.6,1.2,1,2,1c0.5,0,1.1-0.2,1.5-0.5
		c9.1-7,23.8-10,26.7-10.6c1.4-0.3,2.2-1.6,2-2.9C660.1,823.9,658.8,823,657.4,823.3z"/>
	<path class="st0" d="M649,881.7c-2.9-2-5.9-4.4-10.3-8.3c-4.5-4.1-8.1-8-10.4-11.7c-0.7-1.2-2.3-1.5-3.5-0.7
		c-1.2,0.7-1.5,2.3-0.7,3.5c2.6,4,6.4,8.3,11.3,12.7c4.6,4.1,7.7,6.6,10.8,8.7c0.4,0.3,0.9,0.4,1.4,0.4c0.8,0,1.6-0.4,2.1-1.1
		C650.4,884,650.1,882.5,649,881.7z"/>
	<path class="st0" d="M867.9,827.3C867.9,827.3,867.9,827.3,867.9,827.3l30-0.1c1.4,0,2.5-1.1,2.5-2.5c0-1.4-1.1-2.5-2.5-2.5
		c0,0,0,0,0,0l-30,0.1c-1.4,0-2.5,1.1-2.5,2.5C865.4,826.2,866.5,827.3,867.9,827.3z"/>
	<path class="st0" d="M703.9,903.5c-8.1-2.9-14.7-5.3-20.6-7.3c-2.8-1-5.3-1.9-7.7-2.7c-1.3-0.5-2.7,0.2-3.2,1.5
		c-0.5,1.3,0.2,2.7,1.5,3.2c2.3,0.8,4.9,1.7,7.7,2.7c5.9,2.1,12.5,4.4,20.5,7.3c0.3,0.1,0.6,0.1,0.8,0.1c1,0,2-0.6,2.4-1.7
		C705.9,905.4,705.2,904,703.9,903.5z"/>
	<path class="st0" d="M837.9,822.4C837.9,822.4,837.9,822.4,837.9,822.4l-30,0.1c-1.4,0-2.5,1.1-2.5,2.5c0,1.4,1.1,2.5,2.5,2.5
		c0,0,0,0,0,0l30-0.1c1.4,0,2.5-1.1,2.5-2.5C840.4,823.5,839.3,822.4,837.9,822.4z"/>
	<path class="st0" d="M880.4,923.5c-9.8,0-20.2-0.1-30-0.2c-1.4,0-2.5,1.1-2.5,2.5s1.1,2.5,2.5,2.5c9.8,0.1,20.2,0.1,30,0.2
		c0,0,0,0,0,0c1.4,0,2.5-1.1,2.5-2.5C882.9,924.6,881.8,923.5,880.4,923.5z"/>
	<path class="st0" d="M777.9,822.6C777.9,822.6,777.9,822.6,777.9,822.6l-30,0.1c-1.4,0-2.5,1.1-2.5,2.5c0,1.4,1.1,2.5,2.5,2.5
		c0,0,0,0,0,0l30-0.1c1.4,0,2.5-1.1,2.5-2.5C780.4,823.7,779.3,822.6,777.9,822.6z"/>
	<path class="st0" d="M820.4,923c-3.1,0-5.8-0.1-8.2-0.1c-9.2-0.2-15.9-0.4-21.7-0.6c-1.4,0-2.5,1-2.6,2.4c-0.1,1.4,1,2.5,2.4,2.6
		c5.9,0.2,12.6,0.4,21.8,0.6c2.4,0.1,5.2,0.1,8.2,0.1c0,0,0,0,0,0c1.4,0,2.5-1.1,2.5-2.5C822.8,924.1,821.7,923,820.4,923z"/>
	<polygon class="st0" points="927.2,926.1 883.5,907.3 891.2,925.9 883.2,944.3 	"/>
</g>
</svg>
