<?xml version="1.0" encoding="utf-8"?>
<!-- Generator: Adobe Illustrator 24.2.3, SVG Export Plug-In . SVG Version: 6.00 Build 0)  -->
<svg version="1.1" id="oval_Pit_Road" xmlns="http://www.w3.org/2000/svg" xmlns:xlink="http://www.w3.org/1999/xlink" x="0px"
	 y="0px" viewBox="0 0 1920 1080" style="enable-background:new 0 0 1920 1080;" xml:space="preserve">
<style type="text/css">
	.st0{fill:#0089BA;}
	.st1{fill:#D82520;}
</style>
<g id="Mergeline">
	<path class="st0" d="M1363.7,732.4c-8.8,3.3-18.3,6.3-28.1,8.7c-2.7,0.7-4.3,3.4-3.7,6.1c0.6,2.3,2.6,3.8,4.8,3.8
		c0.4,0,0.8,0,1.2-0.1c10.2-2.5,20-5.6,29.2-9c2.6-1,3.9-3.9,2.9-6.4S1366.3,731.5,1363.7,732.4z"/>
	<path class="st0" d="M1488.9,544.9c-0.2-2.8-2.5-4.9-5.3-4.7c-2.8,0.2-4.9,2.5-4.7,5.3c0.2,3.9,0.3,7.7,0.3,11.5
		c0,6-0.3,11.9-0.8,17.7c-0.3,2.8,1.8,5.2,4.5,5.4c0.2,0,0.3,0,0.5,0c2.6,0,4.7-1.9,5-4.5c0.6-6.1,0.8-12.4,0.8-18.6
		C1489.3,553,1489.1,549,1488.9,544.9z"/>
	<path class="st0" d="M1391.6,369.6c1.6-2.2,1.1-5.4-1.1-7c-8-5.9-16.6-11.5-25.4-16.8c-2.4-1.4-5.4-0.7-6.9,1.7
		c-1.4,2.4-0.7,5.4,1.7,6.9c8.5,5.2,16.8,10.7,24.7,16.3c0.9,0.6,1.9,1,2.9,1C1389.1,371.6,1390.6,370.9,1391.6,369.6z"/>
	<path class="st0" d="M1307,328.5c8.4,3,17.5,7,27,11.7c0.7,0.4,1.5,0.5,2.2,0.5c1.8,0,3.6-1,4.5-2.8c1.2-2.5,0.2-5.5-2.3-6.7
		c-9.9-4.9-19.3-8.9-28.1-12.1c-2.6-0.9-5.5,0.4-6.4,3C1303,324.7,1304.4,327.5,1307,328.5z"/>
	<path class="st0" d="M1475.3,516.4c0.5,2.4,2.6,4.1,4.9,4.1c0.3,0,0.6,0,0.9-0.1c2.7-0.5,4.5-3.1,4-5.8c-1.8-9.8-4.3-19.8-7.4-29.7
		c-0.8-2.6-3.6-4.1-6.3-3.3c-2.6,0.8-4.1,3.6-3.3,6.3C1471.2,497.4,1473.6,507,1475.3,516.4z"/>
	<path class="st0" d="M1306.7,746.7c-17.3,2.5-29.1,2.6-29.3,2.6c-2.8,0-5,2.3-5,5c0,2.7,2.3,5,5,5c0,0,0,0,0,0
		c0.5,0,12.6-0.1,30.6-2.7c2.7-0.4,4.6-2.9,4.2-5.7C1311.9,748.3,1309.4,746.4,1306.7,746.7z"/>
	<path class="st0" d="M1479.6,599.9c-2.7-0.7-5.4,0.9-6.1,3.6c-2.4,9.4-5.6,18.6-9.6,27.5c-1.1,2.5,0,5.5,2.5,6.6
		c0.7,0.3,1.4,0.4,2,0.4c1.9,0,3.7-1.1,4.6-3c4.2-9.4,7.6-19.2,10.1-29.1C1483.9,603.3,1482.3,600.6,1479.6,599.9z"/>
	<path class="st0" d="M1467.2,456.2c-5.2-12.1-10.2-21.6-13.5-27.4c-1.4-2.4-4.4-3.2-6.8-1.9c-2.4,1.4-3.2,4.4-1.9,6.8
		c3.2,5.6,8.1,14.8,13.1,26.4c0.8,1.9,2.7,3,4.6,3c0.7,0,1.3-0.1,2-0.4C1467.1,461.7,1468.3,458.8,1467.2,456.2z"/>
	<path class="st0" d="M1412.8,702.4c-7.6,7.4-15.3,13.4-22.7,17.7c-2.4,1.4-3.2,4.5-1.8,6.9c0.9,1.6,2.6,2.5,4.3,2.5
		c0.9,0,1.7-0.2,2.5-0.7c8.1-4.8,16.3-11.2,24.5-19.2c2-1.9,2-5.1,0.1-7.1C1417.9,700.6,1414.8,700.5,1412.8,702.4z"/>
	<path class="st0" d="M1435.2,410.6c2.1-1.8,2.3-5,0.5-7c-6.3-7.3-13.5-14.7-21.5-21.8c-2.1-1.8-5.2-1.7-7.1,0.4
		c-1.8,2.1-1.7,5.2,0.4,7.1c7.7,6.9,14.6,13.9,20.6,20.9c1,1.2,2.4,1.7,3.8,1.7C1433.1,411.8,1434.3,411.4,1435.2,410.6z"/>
	<path class="st0" d="M1456.2,654.9c-2.3-1.5-5.4-0.8-6.9,1.5c-5.5,8.6-11.2,16.7-17,24.1c-1.7,2.2-1.3,5.3,0.9,7
		c0.9,0.7,2,1.1,3.1,1.1c1.5,0,3-0.7,3.9-1.9c6-7.7,11.9-16,17.6-24.9C1459.3,659.5,1458.6,656.4,1456.2,654.9z"/>
	
		<rect x="1259.7" y="313.9" transform="matrix(0.2035 -0.9791 0.9791 0.2035 717.011 1519.231)" class="st0" width="65" height="10"/>
</g>
<g id="Pitroad">
	<path class="st1" d="M794,355.3c1.3,0,2.4-1,2.5-2.4c0.1-1.4-1-2.6-2.4-2.6l-30-1.6c-1.4-0.1-2.6,1-2.6,2.4c-0.1,1.4,1,2.6,2.4,2.6
		l30,1.6C793.9,355.3,794,355.3,794,355.3z"/>
	<path class="st1" d="M734,352c0,0,0.1,0,0.1,0c1.3,0,2.4-1,2.5-2.4c0.1-1.4-1-2.6-2.4-2.6l-24.7-1.4c-1.8-0.1-3.6-0.1-5.3-0.1
		c-1.4,0-2.5,1.1-2.5,2.5c0,1.4,1.1,2.5,2.5,2.5c1.7,0,3.5,0.1,5.2,0.1L734,352z"/>
	<path class="st1" d="M738.9,752.1c-11.2-0.3-21.3-0.6-30-0.9c-1.4-0.1-2.5,1-2.6,2.4c-0.1,1.4,1,2.5,2.4,2.6
		c8.7,0.3,18.8,0.6,30,0.9c0,0,0,0,0.1,0c1.4,0,2.5-1.1,2.5-2.4C741.4,753.3,740.3,752.2,738.9,752.1z"/>
	<path class="st1" d="M679.3,749.2c-6.4-0.9-16.7-2.8-28.9-6.6c-1.3-0.4-2.7,0.3-3.1,1.7c-0.4,1.3,0.3,2.7,1.7,3.1
		c12.5,3.8,23,5.8,29.6,6.8c0.1,0,0.2,0,0.4,0c1.2,0,2.3-0.9,2.5-2.1C681.6,750.6,680.6,749.4,679.3,749.2z"/>
	<path class="st1" d="M858.9,752.7C858.9,752.7,858.9,752.7,858.9,752.7l-13.5,0c-5.3,0.1-10.8,0.1-16.5,0.2c-1.4,0-2.5,1.1-2.5,2.5
		c0,1.4,1.1,2.5,2.5,2.5c0,0,0,0,0,0c5.7,0,11.2-0.1,16.5-0.2l13.5,0c1.4,0,2.5-1.1,2.5-2.5C861.4,753.8,860.3,752.7,858.9,752.7z"
		/>
	<path class="st1" d="M913.8,361.9c1.3,0,2.4-1,2.5-2.4c0.1-1.4-1-2.6-2.4-2.6l-30-1.6c-1.4-0.1-2.6,1-2.6,2.4
		c-0.1,1.4,1,2.6,2.4,2.6l30,1.6C913.7,361.9,913.8,361.9,913.8,361.9z"/>
	<path class="st1" d="M676.7,349.5c-0.2-1.4-1.4-2.3-2.8-2.1c-10,1.4-20,3.5-29.7,6.4c-1.3,0.4-2.1,1.8-1.7,3.1
		c0.3,1.1,1.3,1.8,2.4,1.8c0.2,0,0.5,0,0.7-0.1c9.4-2.8,19.1-4.9,28.9-6.2C675.9,352.2,676.9,350.9,676.7,349.5z"/>
	<path class="st1" d="M798.9,752.9c-9.9,0-19.9-0.1-30-0.3c-1.4,0-2.5,1.1-2.5,2.5c0,1.4,1.1,2.5,2.5,2.5c10.1,0.1,20.2,0.2,30,0.3
		c0,0,0,0,0,0c1.4,0,2.5-1.1,2.5-2.5C801.4,754.1,800.3,752.9,798.9,752.9z"/>
	<path class="st1" d="M853.9,358.6c1.3,0,2.4-1,2.5-2.4c0.1-1.4-1-2.6-2.4-2.6l-30-1.6c-1.4-0.1-2.6,1-2.6,2.4
		c-0.1,1.4,1,2.6,2.4,2.6l30,1.6C853.8,358.6,853.9,358.6,853.9,358.6z"/>
	<path class="st1" d="M510.9,539.3c1.3,0,2.4-1.1,2.5-2.4c0.4-10,1.5-19.9,3.3-29.4c0.2-1.4-0.7-2.7-2-2.9c-1.4-0.2-2.7,0.7-2.9,2
		c-1.8,9.8-2.9,19.9-3.3,30.1c-0.1,1.4,1,2.5,2.4,2.6C510.9,539.2,510.9,539.3,510.9,539.3z"/>
	<path class="st1" d="M918.9,752.6C918.9,752.6,918.9,752.6,918.9,752.6l-30,0.1c-1.4,0-2.5,1.1-2.5,2.5c0,1.4,1.1,2.5,2.5,2.5
		c0,0,0,0,0,0l30-0.1c1.4,0,2.5-1.1,2.5-2.5C921.4,753.7,920.3,752.6,918.9,752.6z"/>
	<path class="st1" d="M514.1,566.5c-0.1-1.4-1.3-2.4-2.7-2.3c-1.4,0.1-2.4,1.3-2.3,2.7c0.9,10.9,2.3,20.8,4.1,30
		c0.2,1.2,1.3,2,2.4,2c0.2,0,0.3,0,0.5,0c1.4-0.3,2.2-1.6,2-2.9C516.3,586.9,515,577.3,514.1,566.5z"/>
	<path class="st1" d="M1453.4,509.8c0.4,1,1.3,1.6,2.3,1.6c0.3,0,0.6-0.1,0.9-0.2c1.3-0.5,1.9-2,1.4-3.2
		c-3.5-8.8-7.5-17.8-12.5-27.5c-0.6-1.2-2.1-1.7-3.4-1.1c-1.2,0.6-1.7,2.1-1.1,3.4C1446,492.3,1450,501.2,1453.4,509.8z"/>
	<path class="st1" d="M524.1,478.8c3.2-9.3,7.1-18.5,11.6-27.2c0.6-1.2,0.1-2.7-1.1-3.4c-1.2-0.6-2.7-0.1-3.4,1.1
		c-4.6,9-8.6,18.4-11.9,27.9c-0.4,1.3,0.3,2.7,1.6,3.2c0.3,0.1,0.5,0.1,0.8,0.1C522.8,480.5,523.8,479.8,524.1,478.8z"/>
	<path class="st1" d="M551.2,426.3c5.8-8.1,12.2-15.8,19-22.7c1-1,0.9-2.6-0.1-3.5c-1-1-2.6-0.9-3.5,0.1c-7,7.2-13.5,15-19.5,23.3
		c-0.8,1.1-0.5,2.7,0.6,3.5c0.4,0.3,1,0.5,1.5,0.5C549.9,427.3,550.7,426.9,551.2,426.3z"/>
	<path class="st1" d="M619.2,365.9c-0.6-1.2-2.1-1.8-3.3-1.2c-12.2,5.8-21,11.6-26.3,15.4c-1.1,0.8-1.4,2.4-0.5,3.5
		c0.5,0.7,1.3,1,2,1c0.5,0,1-0.2,1.5-0.5c5.1-3.7,13.6-9.3,25.5-14.9C619.3,368.6,619.8,367.1,619.2,365.9z"/>
	<path class="st1" d="M526.1,624.4c-0.5-1.3-1.9-2-3.2-1.5c-1.3,0.5-2,1.9-1.5,3.2c3.5,9.5,7.7,18.8,12.6,27.6
		c0.5,0.8,1.3,1.3,2.2,1.3c0.4,0,0.8-0.1,1.2-0.3c1.2-0.7,1.6-2.2,1-3.4C533.6,642.7,529.5,633.7,526.1,624.4z"/>
	<path class="st1" d="M554.8,676c-0.8-1.1-2.4-1.3-3.5-0.4c-1.1,0.8-1.3,2.4-0.4,3.5c6,7.7,12.8,15.4,20.1,22.6
		c0.5,0.5,1.1,0.7,1.8,0.7c0.6,0,1.3-0.2,1.8-0.7c1-1,1-2.6,0-3.5C567.3,691,560.7,683.5,554.8,676z"/>
	<path class="st1" d="M622.8,731.8c-9-4.3-17.6-9.3-25.6-14.8c-1.1-0.8-2.7-0.5-3.5,0.6c-0.8,1.1-0.5,2.7,0.6,3.5
		c8.2,5.7,17,10.8,26.3,15.3c0.3,0.2,0.7,0.2,1.1,0.2c0.9,0,1.8-0.5,2.3-1.4C624.6,733.9,624,732.4,622.8,731.8z"/>
	<path class="st1" d="M1467.2,536.9c-0.3-1.3-1.7-2.2-3-1.9c-1.3,0.3-2.2,1.7-1.9,3c2.3,9.8,3.8,19.7,4.4,29.2
		c0.1,1.3,1.2,2.4,2.5,2.4c0,0,0.1,0,0.1,0c1.4-0.1,2.4-1.3,2.4-2.6C1471.2,557.1,1469.7,547,1467.2,536.9z"/>
	<path class="st1" d="M1278.8,751.8c-0.8,0-1.3,0-1.4,0l-28.5,0.1c-1.4,0-2.5,1.1-2.5,2.5c0,1.4,1.1,2.5,2.5,2.5c0,0,0,0,0,0
		l28.5-0.1v0c0.4,0,0.9,0,1.6,0c1.4,0,2.5-1.2,2.4-2.6S1280.2,751.7,1278.8,751.8z"/>
	<path class="st1" d="M1388.5,411c-8.1-5.2-17.1-10.1-26.8-14.3c-1.3-0.6-2.7,0-3.3,1.3c-0.6,1.3,0,2.7,1.3,3.3
		c9.4,4.1,18.2,8.8,26.1,13.9c0.4,0.3,0.9,0.4,1.4,0.4c0.8,0,1.6-0.4,2.1-1.1C1390,413.2,1389.6,411.7,1388.5,411z"/>
	<path class="st1" d="M1332.4,391.2c1.1,0,2.1-0.7,2.4-1.8c0.4-1.3-0.4-2.7-1.7-3.1c-9.7-2.9-19.7-5.2-29.5-6.9
		c-1.4-0.2-2.7,0.7-2.9,2c-0.2,1.4,0.7,2.7,2,2.9c6.6,1.2,17.1,3.3,29,6.8C1332,391.2,1332.2,391.2,1332.4,391.2z"/>
	<path class="st1" d="M1273.3,381.6c1.3,0,2.4-1,2.5-2.4c0.1-1.4-1-2.6-2.4-2.6l-30-1.6c-1.4-0.1-2.6,1-2.6,2.4
		c-0.1,1.4,1,2.6,2.4,2.6l30,1.6C1273.2,381.6,1273.2,381.6,1273.3,381.6z"/>
	<path class="st1" d="M1430.1,457.5c1.2-0.7,1.6-2.2,0.9-3.4l-0.3-0.6c-4.9-8.4-11.1-16.3-18.4-23.5c-1-1-2.6-1-3.5,0
		c-1,1-1,2.6,0,3.5c7,6.9,12.9,14.5,17.6,22.5l0.3,0.6c0.5,0.8,1.3,1.2,2.2,1.2C1429.3,457.8,1429.7,457.7,1430.1,457.5z"/>
	<path class="st1" d="M1468.4,594.6c-1.4-0.2-2.6,0.8-2.8,2.2c-1.3,10-2.7,20-4.2,29.7c-0.2,1.4,0.7,2.6,2.1,2.9c0.1,0,0.3,0,0.4,0
		c1.2,0,2.3-0.9,2.5-2.1c1.6-9.7,3-19.8,4.2-29.8C1470.7,596,1469.7,594.7,1468.4,594.6z"/>
	<path class="st1" d="M1218.9,752C1218.9,752,1218.9,752,1218.9,752l-30,0.1c-1.4,0-2.5,1.1-2.5,2.5c0,1.4,1.1,2.5,2.5,2.5
		c0,0,0,0,0,0l30-0.1c1.4,0,2.5-1.1,2.5-2.5C1221.4,753.1,1220.3,752,1218.9,752z"/>
	<path class="st1" d="M1459,653.9c-1.3-0.3-2.7,0.6-2.9,2c-2.1,10.3-4.3,20.1-6.7,29.1c-0.3,1.3,0.5,2.7,1.8,3
		c0.2,0.1,0.4,0.1,0.6,0.1c1.1,0,2.1-0.7,2.4-1.9c2.4-9.1,4.6-19,6.7-29.4C1461.2,655.5,1460.4,654.2,1459,653.9z"/>
	<path class="st1" d="M1444,712c-1.3-0.5-2.7,0.2-3.2,1.5c-3.8,10.6-7.8,19.7-12,27c-0.7,1.2-0.3,2.7,0.9,3.4
		c0.4,0.2,0.8,0.3,1.2,0.3c0.9,0,1.7-0.4,2.2-1.2c4.3-7.5,8.5-16.9,12.4-27.8C1446,713.9,1445.3,712.4,1444,712z"/>
	<path class="st1" d="M1153.5,375.1c1.3,0,2.4-1,2.5-2.4c0.1-1.4-1-2.6-2.4-2.6l-30-1.6c-1.4-0.1-2.6,1-2.6,2.4s1,2.6,2.4,2.6
		l30,1.6C1153.4,375.1,1153.4,375.1,1153.5,375.1z"/>
	<path class="st1" d="M1033.6,368.5c1.3,0,2.4-1,2.5-2.4c0.1-1.4-1-2.6-2.4-2.6l-30-1.6c-1.4-0.1-2.6,1-2.6,2.4
		c-0.1,1.4,1,2.6,2.4,2.6l30,1.6C1033.6,368.5,1033.6,368.5,1033.6,368.5z"/>
	<path class="st1" d="M1038.9,752.3C1038.9,752.3,1038.9,752.3,1038.9,752.3l-30,0.1c-1.4,0-2.5,1.1-2.5,2.5c0,1.4,1.1,2.5,2.5,2.5
		c0,0,0,0,0,0l30-0.1c1.4,0,2.5-1.1,2.5-2.5C1041.4,753.4,1040.3,752.3,1038.9,752.3z"/>
	<path class="st1" d="M1093.6,371.8c1.3,0,2.4-1,2.5-2.4c0.1-1.4-1-2.6-2.4-2.6l-30-1.6c-1.4-0.1-2.6,1-2.6,2.4
		c-0.1,1.4,1,2.6,2.4,2.6l30,1.6C1093.5,371.8,1093.5,371.8,1093.6,371.8z"/>
	<path class="st1" d="M978.9,752.4C978.9,752.4,978.9,752.4,978.9,752.4l-30,0.1c-1.4,0-2.5,1.1-2.5,2.5c0,1.4,1.1,2.5,2.5,2.5
		c0,0,0,0,0,0l30-0.1c1.4,0,2.5-1.1,2.5-2.5C981.4,753.6,980.3,752.4,978.9,752.4z"/>
	<path class="st1" d="M973.7,365.2c1.3,0,2.4-1,2.5-2.4c0.1-1.4-1-2.6-2.4-2.6l-30-1.6c-1.4-0.1-2.6,1-2.6,2.4
		c-0.1,1.4,1,2.6,2.4,2.6l30,1.6C973.6,365.2,973.7,365.2,973.7,365.2z"/>
	<path class="st1" d="M1213.4,378.4c1.3,0,2.4-1,2.5-2.4c0.1-1.4-1-2.6-2.4-2.6l-30-1.6c-1.4-0.1-2.6,1-2.6,2.4s1,2.6,2.4,2.6
		l30,1.6C1213.3,378.3,1213.3,378.4,1213.4,378.4z"/>
	<path class="st1" d="M1158.9,752.1C1158.9,752.1,1158.9,752.1,1158.9,752.1l-30,0.1c-1.4,0-2.5,1.1-2.5,2.5c0,1.4,1.1,2.5,2.5,2.5
		c0,0,0,0,0,0l30-0.1c1.4,0,2.5-1.1,2.5-2.5C1161.4,753.2,1160.3,752.1,1158.9,752.1z"/>
	<path class="st1" d="M1098.9,752.2C1098.9,752.2,1098.9,752.2,1098.9,752.2l-30,0.1c-1.4,0-2.5,1.1-2.5,2.5c0,1.4,1.1,2.5,2.5,2.5
		c0,0,0,0,0,0l30-0.1c1.4,0,2.5-1.1,2.5-2.5C1101.4,753.3,1100.3,752.2,1098.9,752.2z"/>
	<path class="st1" d="M1330.4,746c-6.7,1.3-14,2.5-21.8,3.4c-1.4,0.2-2.3,1.4-2.2,2.8c0.2,1.3,1.2,2.2,2.5,2.2c0.1,0,0.2,0,0.3,0
		c8.2-1,16-2.2,23.1-3.7l-1.4,17.6l35.7-31.5l-47.5-3.6L1330.4,746z"/>
</g>
</svg>
