<svg id="North_Wilkesboro_-_Pit_Road" data-name="North Wilkesboro - Pit Road" xmlns="http://www.w3.org/2000/svg" viewBox="0 0 1920 1080"><defs><style>.cls-1{fill:#d82520;}</style></defs><title>pitroad</title><path class="cls-1" d="M706.69,266.75h0l-15.18,0h-.08c-5-.07-10-.09-14.87-.06a2.5,2.5,0,0,0,0,5h0c4.87,0,9.82,0,14.81.06h.14l15.16,0a2.5,2.5,0,0,0,0-5Z"/><path class="cls-1" d="M646.45,267.61c-9.9.51-20,1.25-30,2.19a2.5,2.5,0,0,0,.23,5l.24,0c10-.93,20-1.66,29.82-2.17a2.5,2.5,0,0,0,2.37-2.62A2.52,2.52,0,0,0,646.45,267.61Z"/><path class="cls-1" d="M586.51,273.22c-9.86,1.33-19.87,2.89-29.74,4.62a2.5,2.5,0,0,0,.43,5l.43,0c9.81-1.73,19.75-3.27,29.55-4.59a2.5,2.5,0,1,0-.67-5Z"/><path class="cls-1" d="M827.13,266.25h0l-30.1.13a2.5,2.5,0,0,0,0,5h0l30.09-.13a2.5,2.5,0,0,0,0-5Z"/><path class="cls-1" d="M527.22,283.63c-8.74,1.89-17.52,3.95-26.1,6.13l-3.12.66a2.5,2.5,0,0,0,.52,4.94,3.07,3.07,0,0,0,.53-.05c1-.23,2.08-.45,3.13-.66l.12,0c8.53-2.17,17.28-4.22,26-6.11a2.5,2.5,0,1,0-1.06-4.88Z"/><path class="cls-1" d="M766.92,266.51l-30.11.13a2.5,2.5,0,0,0,0,5h0l30.11-.13a2.5,2.5,0,0,0,0-5Z"/><path class="cls-1" d="M363.07,355.21c-6.6,5.61-12.94,11.57-18.87,17.69-1,1.06-2,2.13-3,3.22a2.5,2.5,0,0,0,3.67,3.39c1-1.05,2-2.1,3-3.13,5.82-6,12-11.85,18.52-17.36a2.5,2.5,0,0,0-3.24-3.81Z"/><path class="cls-1" d="M298.58,452.53a2.5,2.5,0,0,0-3.26,1.38c-3.89,9.58-7.62,19-11.09,27.91a2.5,2.5,0,0,0,1.43,3.24,2.61,2.61,0,0,0,.9.17,2.5,2.5,0,0,0,2.33-1.6c3.47-8.92,7.19-18.28,11.07-27.84A2.5,2.5,0,0,0,298.58,452.53Z"/><path class="cls-1" d="M468.77,298c-9.69,3-19.26,6.43-28.43,10.23a2.5,2.5,0,0,0,1,4.81,2.44,2.44,0,0,0,.95-.19c9-3.74,18.45-7.13,28-10.08a2.5,2.5,0,1,0-1.48-4.77Z"/><path class="cls-1" d="M325.76,399.22a2.5,2.5,0,0,0-3.47.66,209,209,0,0,0-15.15,26.29,2.5,2.5,0,0,0,4.5,2.17,203.32,203.32,0,0,1,14.79-25.65A2.5,2.5,0,0,0,325.76,399.22Z"/><path class="cls-1" d="M265.23,541.46a2.48,2.48,0,0,0,.8.13,2.51,2.51,0,0,0,2.37-1.7c3-8.81,6.28-18.31,9.92-28.24a2.5,2.5,0,1,0-4.7-1.72c-3.65,10-7,19.52-10,28.37A2.49,2.49,0,0,0,265.23,541.46Z"/><path class="cls-1" d="M887.29,266l-30.09.14a2.5,2.5,0,0,0,0,5h0l30.08-.14a2.5,2.5,0,0,0,0-5Z"/><path class="cls-1" d="M413,321.22a290.18,290.18,0,0,0-25.88,15.66A2.5,2.5,0,0,0,390,341a287.79,287.79,0,0,1,25.43-15.4,2.5,2.5,0,1,0-2.36-4.4Z"/><path class="cls-1" d="M1557.32,367.41a2.5,2.5,0,0,0-3.27,3.78c7.46,6.47,14.7,13.38,21.53,20.53a2.51,2.51,0,0,0,3.54.08,2.5,2.5,0,0,0,.08-3.53C1572.26,381,1564.9,374,1557.32,367.41Z"/><path class="cls-1" d="M1481.41,318.35c-2.09-1-4.2-1.92-6.28-2.82-6.85-3-14-6.06-21.34-9.13a2.5,2.5,0,0,0-1.93,4.61c7.28,3.06,14.44,6.12,21.27,9.1,2,.89,4.12,1.82,6.18,2.77a2.43,2.43,0,0,0,1,.24,2.5,2.5,0,0,0,1.06-4.77Z"/><path class="cls-1" d="M1368.11,277.88c-9.69-2.29-19.63-4.33-29.53-6.07a2.5,2.5,0,1,0-.87,4.92c9.81,1.73,19.65,3.75,29.25,6a2.86,2.86,0,0,0,.58.06,2.5,2.5,0,0,0,.57-4.93Z"/><path class="cls-1" d="M1533.59,348.7c-8.16-5.83-16.7-11.35-25.38-16.4a2.5,2.5,0,1,0-2.51,4.32c8.54,5,17,10.4,25,16.15a2.54,2.54,0,0,0,1.46.47,2.5,2.5,0,0,0,1.45-4.54Z"/><path class="cls-1" d="M1425.84,295.2c-9.31-3.44-18.94-6.65-28.6-9.54a2.5,2.5,0,1,0-1.44,4.79c9.57,2.86,19.09,6,28.31,9.44a2.43,2.43,0,0,0,.87.16,2.5,2.5,0,0,0,.86-4.85Z"/><path class="cls-1" d="M1599,411.08a2.5,2.5,0,0,0-3.93,3.1c6.13,7.76,12,15.89,17.33,24.19a2.5,2.5,0,0,0,4.2-2.72C1611.17,427.22,1605.25,419,1599,411.08Z"/><path class="cls-1" d="M1649,486.18l-16.19-25.26a2.5,2.5,0,1,0-4.21,2.7l16.18,25.26a2.52,2.52,0,0,0,2.11,1.15,2.57,2.57,0,0,0,1.35-.39A2.52,2.52,0,0,0,1649,486.18Z"/><path class="cls-1" d="M1067.81,265.1h0l-30.08.15a2.5,2.5,0,0,0,0,5h0l30.09-.15a2.5,2.5,0,0,0,0-5Z"/><path class="cls-1" d="M947.46,265.68h0l-30.07.15a2.5,2.5,0,0,0,0,5h0l30.08-.15a2.5,2.5,0,0,0,0-5Z"/><path class="cls-1" d="M1308.75,267.43c-10.08-1.19-20.19-2.09-30-2.67a2.5,2.5,0,0,0-.29,5c9.75.58,19.76,1.46,29.74,2.64a1.51,1.51,0,0,0,.3,0,2.5,2.5,0,0,0,.29-5Z"/><path class="cls-1" d="M1007.65,265.39h0l-30.08.15a2.5,2.5,0,0,0,0,5h0l30.08-.15a2.5,2.5,0,0,0,0-5Z"/><path class="cls-1" d="M1128,264.8h0l-30.09.15a2.5,2.5,0,0,0,0,5h0l30.09-.15a2.5,2.5,0,0,0,0-5Z"/><path class="cls-1" d="M1248.57,264h0c-4.29.07-6.76.2-7.2.23l-23,.11a2.5,2.5,0,0,0,0,5h0l23.08-.11h.14s2.52-.15,7-.22a2.5,2.5,0,0,0,0-5Z"/><path class="cls-1" d="M1188.21,264.5h0l-30.11.15a2.5,2.5,0,0,0,0,5h0l30.11-.15a2.5,2.5,0,0,0,0-5Z"/><polygon class="cls-1" points="244.62 543.52 251.51 590.65 280.46 552.82 260.56 555.78 244.62 543.52"/></svg>