<?xml version="1.0" encoding="utf-8"?>
<!-- Generator: Adobe Illustrator 24.0.1, SVG Export Plug-In . SVG Version: 6.00 Build 0)  -->
<svg version="1.1" id="Road_Pit_Road" xmlns="http://www.w3.org/2000/svg" xmlns:xlink="http://www.w3.org/1999/xlink" x="0px"
	 y="0px" viewBox="0 0 1920 1080" style="enable-background:new 0 0 1920 1080;" xml:space="preserve">
<style type="text/css">
	.st0{fill:#D82520;}
</style>
<title>pitroad</title>
<g>
	<path class="st0" d="M539.5,845.3c-10-0.3-20.1-0.9-29.9-1.6c-1.4-0.1-2.6,0.9-2.7,2.3c-0.1,1.4,0.9,2.6,2.3,2.7
		c9.9,0.7,20,1.2,30,1.6c0,0,0.1,0,0.1,0c1.3,0,2.5-1.1,2.5-2.4C541.9,846.5,540.9,845.4,539.5,845.3z"/>
	<path class="st0" d="M659.4,845.7C659.4,845.7,659.4,845.7,659.4,845.7l-30,0c-1.4,0-2.5,1.1-2.5,2.5c0,1.4,1.1,2.5,2.5,2.5
		c0,0,0,0,0,0l30,0c1.4,0,2.5-1.1,2.5-2.5C661.9,846.8,660.8,845.7,659.4,845.7z"/>
	<path class="st0" d="M599.4,845.8C599.4,845.8,599.4,845.8,599.4,845.8l-20.6,0c-2.8,0-5.6,0-8.3,0l-1.1,0c-1.4,0-2.5,1.1-2.5,2.5
		s1.1,2.5,2.5,2.5l1.1,0c2.8,0,5.5,0,8.3,0l20.6,0c1.4,0,2.5-1.1,2.5-2.5C601.9,846.9,600.8,845.8,599.4,845.8z"/>
	<path class="st0" d="M719.4,845.6C719.4,845.6,719.4,845.6,719.4,845.6l-30,0c-1.4,0-2.5,1.1-2.5,2.5c0,1.4,1.1,2.5,2.5,2.5
		c0,0,0,0,0,0l30,0c1.4,0,2.5-1.1,2.5-2.5C721.9,846.8,720.8,845.6,719.4,845.6z"/>
	<path class="st0" d="M362.5,818.6c-9.8-2.8-19.3-5.9-28.4-9.1c-1.3-0.5-2.7,0.2-3.2,1.5c-0.5,1.3,0.2,2.7,1.5,3.2
		c9.2,3.2,18.9,6.3,28.7,9.2c0.2,0.1,0.5,0.1,0.7,0.1c1.1,0,2.1-0.7,2.4-1.8C364.6,820.4,363.9,819,362.5,818.6z"/>
	<path class="st0" d="M306.3,798.8c-17.5-7.5-26.6-13-26.6-13c-1.2-0.7-2.7-0.3-3.4,0.8c-0.7,1.2-0.3,2.7,0.8,3.4
		c0.4,0.2,9.4,5.7,27.3,13.4c0.3,0.1,0.7,0.2,1,0.2c1,0,1.9-0.6,2.3-1.5C308.1,800.8,307.5,799.3,306.3,798.8z"/>
	<path class="st0" d="M479.8,841.2c-10-1.1-19.9-2.3-29.7-3.8c-1.4-0.2-2.6,0.7-2.8,2.1s0.7,2.6,2.1,2.8c9.8,1.4,19.8,2.7,29.9,3.8
		c0.1,0,0.2,0,0.3,0c1.3,0,2.3-1,2.5-2.2C482.2,842.5,481.2,841.3,479.8,841.2z"/>
	<path class="st0" d="M420.7,832.4c-9.9-1.9-19.7-4-29.2-6.2c-1.3-0.3-2.7,0.5-3,1.9c-0.3,1.3,0.5,2.7,1.9,3
		c9.6,2.3,19.5,4.4,29.5,6.3c0.2,0,0.3,0,0.5,0c1.2,0,2.2-0.8,2.5-2C422.9,834,422,832.7,420.7,832.4z"/>
	<path class="st0" d="M779.4,845.6l-30,0c-1.4,0-2.5,1.1-2.5,2.5c0,1.4,1.1,2.5,2.5,2.5c0,0,0,0,0,0l30,0c1.4,0,2.5-1.1,2.5-2.5
		C781.9,846.7,780.8,845.6,779.4,845.6z"/>
	<path class="st0" d="M1139.2,845.8C1139.2,845.8,1139.2,845.8,1139.2,845.8c-7.4,0-15.8,0.1-26.5,0.1h-3.4c-1.4,0-2.5,1.1-2.5,2.5
		s1.1,2.5,2.5,2.5h3.4c10.7,0,19.2,0,26.5-0.1c1.4,0,2.5-1.1,2.5-2.5C1141.7,846.9,1140.6,845.8,1139.2,845.8z"/>
	<path class="st0" d="M1199.1,844.7C1199.1,844.7,1199.1,844.7,1199.1,844.7c-13.5,0.3-22.2,0.5-30,0.7c-1.4,0-2.5,1.2-2.5,2.5
		c0,1.4,1.1,2.5,2.5,2.5c0,0,0,0,0,0c7.8-0.1,16.5-0.3,30-0.7c1.4,0,2.5-1.2,2.4-2.6C1201.6,845.8,1200.4,844.7,1199.1,844.7z"/>
	<path class="st0" d="M1255.9,839.1l-6,4.4L1229,844c-1.4,0-2.5,1.2-2.4,2.6c0,1.4,1.1,2.4,2.5,2.4c0,0,0,0,0.1,0l22.5-0.5l7.3-5.4
		c1.1-0.8,1.3-2.4,0.5-3.5C1258.6,838.5,1257,838.3,1255.9,839.1z"/>
	<path class="st0" d="M1079.3,845.8l-30-0.1c0,0,0,0,0,0c-1.4,0-2.5,1.1-2.5,2.5s1.1,2.5,2.5,2.5l30,0.1c0,0,0,0,0,0
		c1.4,0,2.5-1.1,2.5-2.5C1081.8,846.9,1080.7,845.8,1079.3,845.8z"/>
	<path class="st0" d="M839.4,845.6l-30,0c-1.4,0-2.5,1.1-2.5,2.5s1.1,2.5,2.5,2.5l30,0c1.4,0,2.5-1.1,2.5-2.5
		C841.9,846.7,840.7,845.6,839.4,845.6z"/>
	<path class="st0" d="M1019.3,845.7l-30,0c0,0,0,0,0,0c-1.4,0-2.5,1.1-2.5,2.5c0,1.4,1.1,2.5,2.5,2.5l30,0c0,0,0,0,0,0
		c1.4,0,2.5-1.1,2.5-2.5C1021.8,846.8,1020.7,845.7,1019.3,845.7z"/>
	<path class="st0" d="M899.4,845.6l-30,0c-1.4,0-2.5,1.1-2.5,2.5s1.1,2.5,2.5,2.5l30,0c0,0,0,0,0,0c1.4,0,2.5-1.1,2.5-2.5
		C901.9,846.7,900.7,845.6,899.4,845.6z"/>
	<path class="st0" d="M959.3,845.6c-9.5,0-19.5,0-30,0c0,0,0,0,0,0c-1.4,0-2.5,1.1-2.5,2.5c0,1.4,1.1,2.5,2.5,2.5
		c10.5,0,20.5,0,30,0c0,0,0,0,0,0c1.4,0,2.5-1.1,2.5-2.5C961.8,846.7,960.7,845.6,959.3,845.6z"/>
	<polygon class="st0" points="1248.9,824.3 1266.3,834.5 1271,854 1295.2,813 	"/>
</g>
</svg>
