<?xml version="1.0" encoding="utf-8"?>
<!-- Generator: Adobe Illustrator 27.3.1, SVG Export Plug-In . SVG Version: 6.00 Build 0)  -->
<svg version="1.1" id="Oval_-_Pit_Road" xmlns="http://www.w3.org/2000/svg" xmlns:xlink="http://www.w3.org/1999/xlink" x="0px"
	 y="0px" viewBox="0 0 1920 1080" style="enable-background:new 0 0 1920 1080;" xml:space="preserve">
<style type="text/css">
	.st0{fill:#016699;}
	.st1{fill:#D82520;}
</style>
<g id="Mergeline">
	<path class="st0" d="M321.3,808c-1-2.6-3.9-3.9-6.5-2.9c-2.6,1-3.9,3.9-2.9,6.5c3.6,9.3,7.5,18.4,11.8,27.1
		c0.9,1.8,2.6,2.8,4.5,2.8c0.7,0,1.5-0.2,2.2-0.5c2.5-1.2,3.5-4.2,2.3-6.7C328.6,825.8,324.7,817,321.3,808z"/>
	<path class="st0" d="M346.5,859.3c-1.5-2.4-4.5-3.1-6.9-1.6c-2.4,1.4-3.1,4.5-1.6,6.9c5.2,8.4,10.8,16.6,16.8,24.3c1,1.3,2.5,2,4,2
		c1.1,0,2.1-0.3,3-1c2.2-1.7,2.6-4.8,0.9-7C357,875.3,351.5,867.4,346.5,859.3z"/>
	<path class="st0" d="M312.1,780.8c-2.6-9-5-18.3-7.1-27.8c-0.6-2.7-3.2-4.4-5.9-3.8c-2.7,0.6-4.4,3.2-3.8,5.9
		c2.1,9.7,4.6,19.3,7.3,28.5c0.6,2.2,2.6,3.6,4.8,3.6c0.5,0,0.9-0.1,1.4-0.2C311.3,786.3,312.8,783.5,312.1,780.8z"/>
	<path class="st0" d="M351.3,474c-2.1-1.7-5.3-1.4-7,0.7c-6.2,7.7-12.1,15.8-17.4,23.9c-1.5,2.3-0.9,5.4,1.4,6.9
		c0.8,0.6,1.8,0.8,2.7,0.8c1.6,0,3.2-0.8,4.2-2.3c5.1-7.8,10.8-15.6,16.9-23.1C353.7,478.9,353.4,475.7,351.3,474z"/>
	<path class="st0" d="M290.2,614.4c0.2,0,0.4,0,0.6,0c2.5,0,4.7-1.9,5-4.4c1.1-9.3,2.8-18.8,5.1-28c0.7-2.7-1-5.4-3.7-6
		c-2.7-0.7-5.4,1-6,3.7c-2.4,9.6-4.2,19.5-5.3,29.2C285.5,611.6,287.5,614.1,290.2,614.4z"/>
	<path class="st0" d="M302.8,557.7c0.6,0.2,1.2,0.3,1.8,0.3c2,0,3.9-1.2,4.7-3.2c3.3-8.8,7.2-17.6,11.5-26.1
		c1.3-2.5,0.3-5.5-2.2-6.7c-2.5-1.3-5.5-0.3-6.7,2.2c-4.5,8.8-8.6,18-12,27.1C298.9,553.9,300.2,556.8,302.8,557.7z"/>
	<path class="st0" d="M299.8,724.7c-1.4-9.3-2.5-18.9-3.4-28.6c-0.2-2.8-2.7-4.8-5.4-4.5c-2.8,0.2-4.8,2.7-4.5,5.4
		c0.9,9.9,2.1,19.7,3.5,29.2c0.4,2.5,2.5,4.3,4.9,4.3c0.2,0,0.5,0,0.7-0.1C298.3,730,300.2,727.4,299.8,724.7z"/>
	<path class="st0" d="M289.7,672.5c2.8-0.1,4.9-2.4,4.8-5.2c-0.3-7.6-0.4-15.4-0.4-23.2c0-1.9,0-3.7,0-5.6c0-2.8-2.2-5-5-5
		c0,0,0,0,0,0c-2.7,0-5,2.2-5,5c0,1.9,0,3.8,0,5.7c0,7.9,0.1,15.9,0.4,23.6c0.1,2.7,2.3,4.8,5,4.8
		C289.6,672.5,289.7,672.5,289.7,672.5z"/>
	<path class="st0" d="M439.9,399.5c-1.4-2.3-4.5-3.1-6.9-1.6c-8.4,5.2-16.7,10.7-24.5,16.4c-2.2,1.6-2.7,4.7-1.1,7
		c1,1.3,2.5,2.1,4.1,2.1c1,0,2-0.3,2.9-1c7.6-5.5,15.6-10.9,23.9-16C440.7,405,441.4,401.9,439.9,399.5z"/>
	<path class="st0" d="M546.3,353.2c-0.8-2.6-3.6-4.1-6.3-3.3c-9.4,2.9-18.8,6.1-27.8,9.5c-2.6,1-3.9,3.9-2.9,6.4
		c0.8,2,2.7,3.2,4.7,3.2c0.6,0,1.2-0.1,1.8-0.3c8.8-3.3,18-6.5,27.2-9.3C545.7,358.6,547.2,355.8,546.3,353.2z"/>
	<path class="st0" d="M501,979.9c-9.1-3.2-18.1-6.8-26.6-10.6c-2.5-1.1-5.5,0-6.6,2.5c-1.1,2.5,0,5.5,2.5,6.6
		c8.8,3.9,18,7.6,27.4,10.9c0.6,0.2,1.1,0.3,1.7,0.3c2.1,0,4-1.3,4.7-3.3C505,983.6,503.6,980.8,501,979.9z"/>
	<path class="st0" d="M556.4,995.1c-9.5-2-18.9-4.2-27.9-6.7c-2.7-0.7-5.4,0.8-6.1,3.5c-0.7,2.7,0.8,5.4,3.5,6.1
		c9.2,2.5,18.8,4.8,28.6,6.8c0.3,0.1,0.7,0.1,1,0.1c2.3,0,4.4-1.6,4.9-4C560.8,998.3,559.1,995.7,556.4,995.1z"/>
	<path class="st0" d="M491.7,373.1c-1.1-2.5-4.1-3.7-6.6-2.5c-9,4-17.9,8.3-26.5,12.8c-2.4,1.3-3.4,4.3-2.1,6.8
		c0.9,1.7,2.6,2.7,4.4,2.7c0.8,0,1.6-0.2,2.3-0.6c8.3-4.4,17.1-8.6,25.9-12.5C491.7,378.6,492.8,375.6,491.7,373.1z"/>
	<path class="st0" d="M381.2,904.4c-1.9-2-5.1-2.1-7.1-0.2s-2.1,5.1-0.2,7.1c6.7,7.1,14,13.9,21.5,20.3c0.9,0.8,2.1,1.2,3.2,1.2
		c1.4,0,2.8-0.6,3.8-1.8c1.8-2.1,1.5-5.3-0.6-7C394.7,917.9,387.7,911.3,381.2,904.4z"/>
	<path class="st0" d="M448.8,956.5c-8.4-4.7-16.6-9.7-24.3-15.1c-2.3-1.6-5.4-1-7,1.3c-1.6,2.3-1,5.4,1.3,7
		c8,5.5,16.4,10.7,25.1,15.6c0.8,0.4,1.6,0.6,2.4,0.6c1.8,0,3.5-0.9,4.4-2.6C452.1,960.9,451.2,957.8,448.8,956.5z"/>
	<path class="st0" d="M392.5,433.1c-1.8-2.1-5-2.3-7.1-0.5c-7.5,6.5-14.8,13.2-21.6,20.2c-1.9,2-1.9,5.1,0.1,7.1
		c1,1,2.2,1.4,3.5,1.4c1.3,0,2.6-0.5,3.6-1.5c6.6-6.7,13.6-13.3,20.9-19.6C394.1,438.3,394.3,435.2,392.5,433.1z"/>
	<path class="st0" d="M604.3,1007.7l4.3-32.2l-9.9-1.3l-3.6,27.4c-3.3-0.4-6.6-0.9-9.8-1.3c-2.7-0.4-5.3,1.5-5.7,4.2
		c-0.4,2.7,1.5,5.3,4.2,5.7c3.3,0.5,6.6,0.9,10,1.4l-3.6,27.2l9.9,1.3L604.3,1007.7C604.3,1007.7,604.3,1007.7,604.3,1007.7
		C604.3,1007.7,604.3,1007.7,604.3,1007.7z"/>
</g>
<g id="Pitroad">
	<path class="st1" d="M930.9,296.4c-9.8,0.2-19.9,0.5-30.1,0.9c-2.8,0.1-4.9,2.4-4.8,5.2c0.1,2.7,2.3,4.8,5,4.8c0.1,0,0.1,0,0.2,0
		c10.1-0.4,20.1-0.7,29.9-0.9c2.8-0.1,5-2.3,4.9-5.1S933.7,296.4,930.9,296.4z"/>
	<path class="st1" d="M991,296.3c-9.8-0.1-19.9-0.2-30-0.2c0,0,0,0,0,0c-2.8,0-5,2.2-5,5c0,2.8,2.2,5,5,5c10.1,0,20.2,0.1,29.9,0.2
		c0,0,0,0,0.1,0c2.7,0,5-2.2,5-4.9C996,298.6,993.8,296.3,991,296.3z"/>
	<path class="st1" d="M1111.1,300.5c-9.7-0.6-19.8-1.2-30-1.7c-2.8-0.1-5.1,2-5.2,4.8c-0.1,2.8,2,5.1,4.8,5.2
		c10.1,0.5,20.2,1.1,29.9,1.7c0.1,0,0.2,0,0.3,0c2.6,0,4.8-2,5-4.7C1116,303,1113.9,300.7,1111.1,300.5z"/>
	<path class="st1" d="M1051.1,297.6c-9.7-0.3-19.8-0.6-30-0.8c-2.7,0-5,2.1-5.1,4.9s2.1,5,4.9,5.1c10.1,0.2,20.2,0.5,29.9,0.8
		c0.1,0,0.1,0,0.2,0c2.7,0,4.9-2.1,5-4.8C1056,300,1053.9,297.7,1051.1,297.6z"/>
	<path class="st1" d="M633.8,337.5c2.7-0.5,4.5-3.1,4-5.9c-0.5-2.7-3.1-4.5-5.9-4c-1.5,0.3-3,0.6-4.6,0.9l3.5-18.4l-46.7,33
		l56.2,10.4l-10.8-15.2C630.9,338.1,632.4,337.8,633.8,337.5z"/>
	<path class="st1" d="M691.2,317.5c-10.1,1.5-20.1,3.2-29.7,4.8c-2.7,0.5-4.5,3.1-4.1,5.8c0.4,2.4,2.5,4.2,4.9,4.2
		c0.3,0,0.6,0,0.9-0.1c9.6-1.6,19.5-3.3,29.5-4.8c2.7-0.4,4.6-3,4.2-5.7C696.5,319,694,317.1,691.2,317.5z"/>
	<path class="st1" d="M810.7,303.2c-9.9,0.9-20,1.9-29.9,2.9c-2.7,0.3-4.7,2.7-4.5,5.5c0.3,2.6,2.4,4.5,5,4.5c0.2,0,0.3,0,0.5,0
		c9.9-1,19.9-2,29.8-2.9c2.8-0.2,4.8-2.7,4.5-5.4C815.9,304.9,813.5,302.9,810.7,303.2z"/>
	<path class="st1" d="M750.9,309.4c-10,1.2-20,2.5-29.8,3.8c-2.7,0.4-4.7,2.9-4.3,5.6c0.3,2.5,2.5,4.3,4.9,4.3c0.2,0,0.5,0,0.7,0
		c9.8-1.3,19.8-2.6,29.7-3.8c2.7-0.3,4.7-2.8,4.4-5.6C756.1,311,753.6,309.1,750.9,309.4z"/>
	<path class="st1" d="M870.8,298.8c-9.9,0.6-20,1.2-30,2c-2.8,0.2-4.8,2.6-4.6,5.4c0.2,2.6,2.4,4.6,5,4.6c0.1,0,0.2,0,0.4,0
		c10-0.7,20.1-1.4,29.9-1.9c2.8-0.2,4.9-2.5,4.7-5.3C875.9,300.7,873.5,298.6,870.8,298.8z"/>
	<path class="st1" d="M1462,380.1c-9.2-4.1-18.5-8.1-27.8-11.9c-2.6-1-5.5,0.2-6.5,2.8c-1,2.6,0.2,5.5,2.8,6.5
		c9.2,3.7,18.4,7.7,27.4,11.7c0.7,0.3,1.4,0.4,2.1,0.4c1.9,0,3.7-1.1,4.6-2.9C1465.6,384.2,1464.5,381.3,1462,380.1z"/>
	<path class="st1" d="M1516.1,407.1c-8.6-4.8-17.6-9.5-26.8-14.1c-2.5-1.2-5.5-0.2-6.7,2.2c-1.2,2.5-0.2,5.5,2.2,6.7
		c9,4.5,17.9,9.2,26.4,13.9c0.8,0.4,1.6,0.6,2.4,0.6c1.8,0,3.5-0.9,4.4-2.6C1519.3,411.5,1518.5,408.5,1516.1,407.1z"/>
	<path class="st1" d="M1567.4,439.2c-7.8-5.6-16.3-11.2-25.3-16.8c-2.3-1.5-5.4-0.7-6.9,1.6c-1.5,2.3-0.7,5.4,1.6,6.9
		c8.8,5.4,17.1,11,24.7,16.4c0.9,0.6,1.9,0.9,2.9,0.9c1.6,0,3.1-0.7,4.1-2.1C1570.2,443.9,1569.7,440.8,1567.4,439.2z"/>
	<path class="st1" d="M1613.4,479.4c-6-7-13.4-14.2-22-21.5c-2.1-1.8-5.3-1.5-7,0.5c-1.8,2.1-1.5,5.3,0.5,7
		c8.2,7,15.2,13.9,20.9,20.4c1,1.1,2.4,1.7,3.8,1.7c1.2,0,2.3-0.4,3.3-1.2C1615,484.6,1615.2,481.5,1613.4,479.4z"/>
	<path class="st1" d="M1348.3,339.6c-10.4-2.9-19.9-5.4-29.1-7.7c-2.7-0.7-5.4,0.9-6.1,3.6c-0.7,2.7,0.9,5.4,3.6,6.1
		c9.1,2.3,18.6,4.8,28.9,7.7c0.4,0.1,0.9,0.2,1.3,0.2c2.2,0,4.2-1.5,4.8-3.7C1352.6,343.1,1351,340.3,1348.3,339.6z"/>
	<path class="st1" d="M1230.8,313.5c-9.7-1.6-19.7-3-29.8-4.4c-2.7-0.4-5.2,1.6-5.6,4.3s1.6,5.2,4.3,5.6c10,1.3,19.9,2.8,29.5,4.3
		c0.3,0,0.5,0.1,0.8,0.1c2.4,0,4.5-1.8,4.9-4.2C1235.4,316.5,1233.5,313.9,1230.8,313.5z"/>
	<path class="st1" d="M1290,324.8c-9.8-2.2-19.7-4.3-29.5-6.1c-2.7-0.5-5.3,1.3-5.9,4s1.3,5.3,4,5.9c9.7,1.9,19.5,3.9,29.2,6.1
		c0.4,0.1,0.7,0.1,1.1,0.1c2.3,0,4.4-1.6,4.9-3.9C1294.4,328.1,1292.7,325.4,1290,324.8z"/>
	<path class="st1" d="M1171.1,305.6c-9.7-1-19.8-2-30-2.9c-2.7-0.2-5.2,1.8-5.4,4.6c-0.2,2.8,1.8,5.2,4.6,5.4
		c10.1,0.9,20.1,1.8,29.7,2.8c0.2,0,0.4,0,0.5,0c2.5,0,4.7-1.9,5-4.5C1175.8,308.3,1173.9,305.9,1171.1,305.6z"/>
	<path class="st1" d="M1406,357.5c-9.7-3.5-19.3-6.7-28.7-9.6c-2.6-0.8-5.4,0.7-6.2,3.3c-0.8,2.6,0.7,5.4,3.3,6.2
		c9.2,2.8,18.7,6,28.3,9.4c0.6,0.2,1.1,0.3,1.7,0.3c2.1,0,4-1.3,4.7-3.3C1409.9,361.3,1408.6,358.4,1406,357.5z"/>
</g>
</svg>
