<?xml version="1.0" encoding="utf-8"?>
<!-- Generator: Adobe Illustrator 24.0.1, SVG Export Plug-In . SVG Version: 6.00 Build 0)  -->
<svg version="1.1" id="Weedsport__Pit_Road" xmlns="http://www.w3.org/2000/svg" xmlns:xlink="http://www.w3.org/1999/xlink"
	 x="0px" y="0px" viewBox="0 0 1920 1080" style="enable-background:new 0 0 1920 1080;" xml:space="preserve">
<style type="text/css">
	.st0{fill:#D82520;}
</style>
<title>pitroad</title>
<g>
	<path class="st0" d="M557.1,895.4c-7.6,3.8-16.9,7.6-27.5,11.3c-1.3,0.5-2,1.9-1.5,3.2c0.4,1,1.3,1.7,2.4,1.7c0.3,0,0.6,0,0.8-0.1
		c10.8-3.8,20.2-7.7,28-11.6c1.2-0.6,1.7-2.1,1.1-3.3C559.8,895.3,558.3,894.8,557.1,895.4z"/>
	<path class="st0" d="M443.1,930.5c-9.2,2.1-18.7,4.2-29.3,6.4c-1.4,0.3-2.2,1.6-1.9,3c0.2,1.2,1.3,2,2.4,2c0.2,0,0.3,0,0.5-0.1
		c10.6-2.2,20.2-4.3,29.4-6.4c1.3-0.3,2.2-1.6,1.9-3C445.8,931,444.4,930.2,443.1,930.5z"/>
	<path class="st0" d="M384.4,942.8c-8.2,1.6-16.3,3.2-24,4.7l-5.5,1.1c-1.4,0.3-2.2,1.6-2,2.9c0.2,1.2,1.3,2,2.4,2
		c0.2,0,0.3,0,0.5,0l5.5-1.1c7.7-1.5,15.7-3.1,24-4.7c1.4-0.3,2.2-1.6,2-2.9C387,943.4,385.7,942.6,384.4,942.8z"/>
	<path class="st0" d="M454.7,839c-8.9,3.3-18.3,6.7-28.2,10.1c-1.3,0.5-2,1.9-1.5,3.2c0.4,1,1.3,1.7,2.4,1.7c0.3,0,0.5,0,0.8-0.1
		c9.9-3.4,19.4-6.8,28.3-10.1c1.3-0.5,2-1.9,1.5-3.2C457.4,839.1,456,838.5,454.7,839z"/>
	<path class="st0" d="M510,816.4c-8.5,3.9-17.7,7.8-27.4,11.8c-1.3,0.5-1.9,2-1.4,3.3c0.4,1,1.3,1.6,2.3,1.6c0.3,0,0.6-0.1,0.9-0.2
		c9.8-4,19.1-7.9,27.6-11.9c1.3-0.6,1.8-2.1,1.2-3.3C512.7,816.4,511.2,815.8,510,816.4z"/>
	<path class="st0" d="M501.2,915.8c-8.8,2.6-18.6,5.2-28.9,7.8c-1.3,0.3-2.2,1.7-1.8,3c0.3,1.1,1.3,1.9,2.4,1.9c0.2,0,0.4,0,0.6-0.1
		c10.4-2.6,20.2-5.2,29.1-7.8c1.3-0.4,2.1-1.8,1.7-3.1C503.9,916.1,502.5,915.4,501.2,915.8z"/>
	<path class="st0" d="M398.1,858.5c-7.1,2.3-14.4,4.6-21.8,7c-2.1,0.6-4.3,1.4-6.7,2.1c-1.3,0.4-2,1.8-1.6,3.1
		c0.3,1.1,1.3,1.7,2.4,1.7c0.2,0,0.5,0,0.8-0.1c2.4-0.8,4.7-1.5,6.7-2.1c7.4-2.3,14.8-4.7,21.9-7c1.3-0.4,2-1.8,1.6-3.2
		C400.8,858.8,399.4,858.1,398.1,858.5z"/>
	<path class="st0" d="M224.9,908.3c-11.9,4.5-20.6,9.4-26.8,15.2c-1,0.9-1.1,2.5-0.1,3.5c0.5,0.5,1.2,0.8,1.8,0.8
		c0.6,0,1.2-0.2,1.7-0.7c5.7-5.3,13.9-9.9,25.1-14.2c1.3-0.5,1.9-1.9,1.5-3.2C227.7,908.4,226.2,907.8,224.9,908.3z"/>
	<path class="st0" d="M266.8,967.7c-12.2,2.6-21.5,4.2-29.3,5.1c-1.4,0.2-2.4,1.4-2.2,2.8c0.2,1.3,1.2,2.2,2.5,2.2
		c0.1,0,0.2,0,0.3,0c8-0.9,17.4-2.6,29.8-5.2c1.4-0.3,2.2-1.6,1.9-3C269.5,968.2,268.2,967.4,266.8,967.7z"/>
	<path class="st0" d="M208.8,971.9c-8.9-2.8-14-9-15.9-19.4l-0.1-0.6c-0.2-1.4-1.5-2.3-2.9-2.1c-1.4,0.2-2.3,1.5-2.1,2.9
		c0,0.2,0.1,0.5,0.1,0.7c2.3,12.3,8.6,19.9,19.3,23.3c0.2,0.1,0.5,0.1,0.7,0.1c1.1,0,2.1-0.7,2.4-1.8
		C210.8,973.7,210.1,972.3,208.8,971.9z"/>
	<path class="st0" d="M325.4,954.6c-7.8,1.6-14.1,3-19.4,4.2l-9.9,2.3c-1.3,0.3-2.2,1.7-1.9,3c0.3,1.2,1.3,1.9,2.4,1.9
		c0.2,0,0.4,0,0.6-0.1l9.9-2.3c5.3-1.2,11.6-2.6,19.3-4.2c1.4-0.3,2.2-1.6,1.9-3S326.8,954.3,325.4,954.6z"/>
	<path class="st0" d="M283.3,893c-2.9,0.7-5.8,1.3-8.9,2c-6.7,1.5-13.6,3-20.5,4.7c-1.3,0.3-2.2,1.7-1.8,3c0.3,1.1,1.3,1.9,2.4,1.9
		c0.2,0,0.4,0,0.6-0.1c6.8-1.7,13.7-3.2,20.4-4.6c3-0.7,6-1.3,8.9-2c1.3-0.3,2.2-1.6,1.9-3C286,893.5,284.7,892.7,283.3,893z"/>
	<path class="st0" d="M340.9,876.7c-11.4,3.6-20.7,6.4-28.7,8.7c-1.3,0.4-2.1,1.8-1.7,3.1c0.3,1.1,1.3,1.8,2.4,1.8
		c0.2,0,0.5,0,0.7-0.1c8-2.3,17.4-5.2,28.8-8.8c1.3-0.4,2.1-1.8,1.6-3.1C343.6,877,342.2,876.3,340.9,876.7z"/>
	<path class="st0" d="M686.7,773.1c-6.6,7.9-13.2,15.5-19.5,22.7c-0.9,1-0.8,2.6,0.2,3.5c0.5,0.4,1.1,0.6,1.6,0.6
		c0.7,0,1.4-0.3,1.9-0.9c6.3-7.2,12.9-14.9,19.6-22.8c0.9-1.1,0.8-2.6-0.3-3.5C689.1,771.9,687.5,772,686.7,773.1z"/>
	<path class="st0" d="M736.4,739.3c-11.4,2.9-20.4,6.8-28.2,12.2c-1.1,0.8-1.4,2.3-0.6,3.5c0.5,0.7,1.3,1.1,2.1,1.1
		c0.5,0,1-0.1,1.4-0.4c7.3-5.1,15.7-8.7,26.5-11.4c1.3-0.3,2.1-1.7,1.8-3C739.1,739.8,737.7,739,736.4,739.3z"/>
	<path class="st0" d="M705.3,536.7c-1.4-0.1-2.6,0.8-2.8,2.2c0,0.1-1.3,11.8-4.5,29.6c-0.2,1.4,0.7,2.7,2,2.9c0.2,0,0.3,0,0.4,0
		c1.2,0,2.2-0.8,2.5-2.1c3.3-18,4.5-29.8,4.6-30C707.6,538.1,706.6,536.9,705.3,536.7z"/>
	<path class="st0" d="M694.9,596c-1.3-0.3-2.7,0.5-3,1.9c-2.3,9.9-4.9,19.6-7.6,28.9c-0.4,1.3,0.4,2.7,1.7,3.1
		c0.2,0.1,0.5,0.1,0.7,0.1c1.1,0,2.1-0.7,2.4-1.8c2.8-9.4,5.3-19.2,7.7-29.2C697.1,597.6,696.3,596.3,694.9,596z"/>
	<path class="st0" d="M796.3,732.1c-11.6,0.6-21.4,1.3-30,2.2c-1.4,0.1-2.4,1.4-2.2,2.7c0.1,1.3,1.2,2.2,2.5,2.2c0.1,0,0.2,0,0.3,0
		c8.5-0.9,18.3-1.6,29.8-2.2c1.4-0.1,2.4-1.2,2.4-2.6C798.9,733.1,797.7,732.1,796.3,732.1z"/>
	<path class="st0" d="M562.5,788.4c-8.1,5.2-16.6,10-25.8,14.9c-1.2,0.6-1.7,2.2-1,3.4c0.4,0.8,1.3,1.3,2.2,1.3
		c0.4,0,0.8-0.1,1.2-0.3c9.3-4.9,17.9-9.9,26.1-15.1c1.2-0.7,1.5-2.3,0.8-3.4C565.3,788,563.7,787.7,562.5,788.4z"/>
	<path class="st0" d="M856.3,729.8c-13.6,0.7-23.7,1.1-30,1.3c-1.4,0-2.5,1.2-2.4,2.6c0,1.4,1.1,2.4,2.5,2.4c0,0,0,0,0.1,0
		c6.3-0.2,16.5-0.6,30.1-1.3c1.4-0.1,2.4-1.2,2.4-2.6C858.9,730.8,857.7,729.7,856.3,729.8z"/>
	<path class="st0" d="M916.3,726.6c-10,0.6-20.1,1.1-30,1.6c-1.4,0.1-2.4,1.3-2.4,2.6c0.1,1.3,1.2,2.4,2.5,2.4c0,0,0.1,0,0.1,0
		c9.8-0.5,20-1.1,30-1.6c1.4-0.1,2.4-1.3,2.4-2.6C918.8,727.6,917.7,726.5,916.3,726.6z"/>
	<path class="st0" d="M668.1,684.8c4.1-8.7,8-18.1,11.6-27.9c0.5-1.3-0.2-2.7-1.5-3.2c-1.3-0.5-2.7,0.2-3.2,1.5
		c-3.6,9.7-7.4,19-11.4,27.5c-0.6,1.2,0,2.7,1.2,3.3c0.3,0.2,0.7,0.2,1.1,0.2C666.8,686.3,667.7,685.7,668.1,684.8z"/>
	<path class="st0" d="M610.1,752.7c-6.6,5.6-14.5,12.2-23.2,18.8c-1.1,0.8-1.3,2.4-0.5,3.5c0.5,0.6,1.2,1,2,1c0.5,0,1.1-0.2,1.5-0.5
		c8.8-6.7,16.8-13.3,23.4-18.9c1.1-0.9,1.2-2.5,0.3-3.5S611.2,751.8,610.1,752.7z"/>
	<path class="st0" d="M604.9,860.5c-8.1,7.4-15.8,13.8-22.8,19.2c-1.1,0.8-1.3,2.4-0.5,3.5c0.5,0.6,1.2,1,2,1c0.5,0,1.1-0.2,1.5-0.5
		c7.1-5.4,14.9-12,23.2-19.4c1-0.9,1.1-2.5,0.2-3.5C607.5,859.6,605.9,859.5,604.9,860.5z"/>
	<path class="st0" d="M652.9,708c-1.2-0.7-2.7-0.4-3.4,0.8c-5.6,8.9-11.5,16.9-17.6,23.7c-0.9,1-0.8,2.6,0.2,3.5
		c0.5,0.4,1.1,0.6,1.7,0.6c0.7,0,1.4-0.3,1.9-0.8c6.3-7.1,12.4-15.3,18.1-24.4C654.4,710.3,654.1,708.8,652.9,708z"/>
	<path class="st0" d="M647.1,818.1c-7.1,7.7-14.1,15-20.7,21.6c-1,1-1,2.6,0,3.5c0.5,0.5,1.1,0.7,1.8,0.7c0.6,0,1.3-0.2,1.8-0.7
		c6.6-6.7,13.6-14,20.8-21.8c0.9-1,0.9-2.6-0.1-3.5S648,817.1,647.1,818.1z"/>
	<path class="st0" d="M991.2,724.8l-44.9-15.9l7.8,15.7l-7.8,0.4c-1.4,0.1-2.4,1.3-2.4,2.6c0.1,1.3,1.2,2.4,2.5,2.4c0,0,0.1,0,0.1,0
		l7.8-0.4l-5.8,16.3L991.2,724.8z"/>
</g>
</svg>
