<?xml version="1.0" encoding="utf-8"?>
<!-- Generator: Adobe Illustrator 24.0.1, SVG Export Plug-In . SVG Version: 6.00 Build 0)  -->
<svg version="1.1" id="Oval__Pit_Road" xmlns="http://www.w3.org/2000/svg" xmlns:xlink="http://www.w3.org/1999/xlink" x="0px"
	 y="0px" viewBox="0 0 1920 1080" style="enable-background:new 0 0 1920 1080;" xml:space="preserve">
<style type="text/css">
	.st0{fill:#016699;}
	.st1{fill:#D82520;}
</style>
<title>pitroad</title>
<g id="Mergeline">
	<path class="st0" d="M1410.5,168.2c2.3,0,4.4-1.6,4.9-4c0.6-2.7-1.2-5.4-3.9-5.9c-9.7-2-19.7-3.8-29.8-5.3
		c-2.7-0.4-5.3,1.5-5.7,4.2c-0.4,2.7,1.5,5.3,4.2,5.7c9.9,1.4,19.8,3.2,29.2,5.1C1409.8,168.2,1410.1,168.2,1410.5,168.2z"/>
	<path class="st0" d="M1468.1,184.4c2,0,4-1.3,4.7-3.3c0.9-2.6-0.4-5.5-3-6.4c-9.3-3.4-19-6.5-28.9-9.2c-2.7-0.7-5.4,0.8-6.2,3.5
		c-0.7,2.7,0.8,5.4,3.5,6.2c9.6,2.7,19.1,5.7,28.2,9C1467,184.3,1467.5,184.4,1468.1,184.4z"/>
	<path class="st0" d="M1415.4,702.8l-30,0.3c-2.8,0-5,2.3-4.9,5.1c0,2.7,2.3,4.9,5,4.9c0,0,0,0,0.1,0l30-0.3c2.8,0,5-2.3,4.9-5.1
		C1420.5,705,1418.2,702.8,1415.4,702.8z"/>
	<path class="st0" d="M1355.5,703.4l-30,0.3c-2.8,0-5,2.3-4.9,5.1c0,2.7,2.3,4.9,5,4.9c0,0,0,0,0.1,0l30-0.3c2.8,0,5-2.3,4.9-5.1
		S1358.2,703.4,1355.5,703.4z"/>
	<path class="st0" d="M1295.5,704.1l-30,0.3c-2.8,0-5,2.3-4.9,5.1c0,2.7,2.3,4.9,5,4.9c0,0,0,0,0.1,0l30-0.3c2.8,0,5-2.3,4.9-5.1
		C1300.5,706.3,1298.2,704,1295.5,704.1z"/>
	<path class="st0" d="M1653.1,394.3c0.4,2.4,2.5,4.1,4.9,4.1c0.3,0,0.6,0,0.9-0.1c2.7-0.5,4.5-3.1,4-5.8c-1.8-9.8-4.2-19.8-7.3-29.8
		c-0.8-2.6-3.6-4.1-6.2-3.3c-2.6,0.8-4.1,3.6-3.3,6.2C1649,375.3,1651.4,385,1653.1,394.3z"/>
	<path class="st0" d="M1350.5,157.2c0.4,0.1,0.7,0.1,1.1,0.1c2.3,0,4.4-1.6,4.9-4c0.6-2.7-1.1-5.4-3.8-5.9l-29.3-6.3
		c-2.7-0.6-5.4,1.1-5.9,3.8c-0.6,2.7,1.1,5.4,3.8,5.9L1350.5,157.2z"/>
	<path class="st0" d="M1235.5,704.7C1235.5,704.7,1235.5,704.7,1235.5,704.7l-30.1,0.3c-2.8,0-5,2.3-4.9,5.1c0,2.7,2.3,4.9,5,4.9
		c0,0,0,0,0.1,0l30-0.3c2.8,0,5-2.3,4.9-5.1C1240.5,706.9,1238.2,704.7,1235.5,704.7z"/>
	<path class="st0" d="M1473.3,698.7c-5.8,2.1-9.7,3.2-11.1,3.6l-16.8,0.2c-2.8,0-5,2.3-4.9,5.1c0,2.7,2.3,4.9,5,4.9c0,0,0,0,0.1,0
		l18-0.2l0.6-0.2c0.2,0,4.8-1.2,12.5-4c2.6-0.9,3.9-3.8,3-6.4S1475.9,697.8,1473.3,698.7z"/>
	<path class="st0" d="M1291.8,144.6c0.4,0.1,0.7,0.1,1.1,0.1c2.3,0,4.4-1.6,4.9-4c0.6-2.7-1.1-5.4-3.8-5.9l-29.3-6.3
		c-2.7-0.6-5.4,1.1-5.9,3.8c-0.6,2.7,1.1,5.4,3.8,5.9L1291.8,144.6z"/>
	<path class="st0" d="M1572.8,636.7c-7,6.7-14.5,13.2-22.3,19.2c-2.2,1.7-2.6,4.8-0.9,7c1,1.3,2.5,1.9,4,1.9c1.1,0,2.1-0.3,3.1-1
		c8.1-6.3,15.9-13,23.1-19.9c2-1.9,2.1-5.1,0.1-7.1C1577.9,634.9,1574.8,634.8,1572.8,636.7z"/>
	<path class="st0" d="M1640.5,341c0.7,0,1.3-0.1,2-0.4c2.5-1.1,3.7-4,2.6-6.6c-4-9.4-8.6-18.6-13.5-27.4c-1.4-2.4-4.4-3.3-6.8-1.9
		c-2.4,1.4-3.3,4.4-1.9,6.8c4.8,8.5,9.2,17.4,13.1,26.4C1636.7,339.9,1638.6,341,1640.5,341z"/>
	<path class="st0" d="M1643.4,536.3c-2.6-1-5.5,0.3-6.4,2.9c-3.4,9.2-7.4,18.3-11.8,26.9c-1.2,2.5-0.3,5.5,2.2,6.7
		c0.7,0.4,1.5,0.5,2.3,0.5c1.8,0,3.6-1,4.5-2.7c4.5-9,8.7-18.4,12.2-27.9C1647.3,540.2,1646,537.3,1643.4,536.3z"/>
	<path class="st0" d="M1657.5,478.2c-2.7-0.4-5.3,1.4-5.7,4.2c-1.5,9.8-3.5,19.5-6,28.9c-0.7,2.7,0.9,5.4,3.6,6.1
		c0.4,0.1,0.8,0.2,1.3,0.2c2.2,0,4.3-1.5,4.8-3.8c2.5-9.6,4.6-19.7,6.2-29.8C1662,481.2,1660.2,478.6,1657.5,478.2z"/>
	<path class="st0" d="M1665.8,423.3c0-2.7-2.3-4.9-5-4.9c0,0,0,0-0.1,0c-2.8,0-5,2.3-4.9,5.1c0,1.5,0,3,0,4.5c0,8.5-0.3,16.9-0.8,25
		c-0.2,2.8,1.9,5.1,4.7,5.3c0.1,0,0.2,0,0.3,0c2.6,0,4.8-2,5-4.7c0.6-8.4,0.9-17,0.9-25.7C1665.8,426.4,1665.8,424.9,1665.8,423.3z"
		/>
	<path class="st0" d="M1522.4,209.5c1.7,0,3.4-0.9,4.3-2.5c1.4-2.4,0.6-5.4-1.8-6.8c-8.6-5-17.7-9.7-27-13.9
		c-2.5-1.2-5.5-0.1-6.6,2.5c-1.2,2.5-0.1,5.5,2.5,6.6c9,4.2,17.8,8.7,26.2,13.5C1520.7,209.3,1521.6,209.5,1522.4,209.5z"/>
	<path class="st0" d="M1571,244.4c1.4,0,2.7-0.6,3.7-1.7c1.8-2.1,1.7-5.2-0.4-7.1c-7.5-6.7-15.5-13.1-23.8-19
		c-2.2-1.6-5.4-1.1-7,1.1c-1.6,2.2-1.1,5.4,1.1,7c8,5.7,15.7,11.9,23,18.4C1568.6,244,1569.8,244.4,1571,244.4z"/>
	<path class="st0" d="M1617.3,590.2c-2.3-1.5-5.4-0.9-6.9,1.4c-5.4,8.1-11.3,16.1-17.5,23.6c-1.8,2.1-1.5,5.3,0.6,7
		c0.9,0.8,2.1,1.2,3.2,1.2c1.4,0,2.9-0.6,3.8-1.8c6.5-7.8,12.6-16.1,18.2-24.5C1620.3,594.8,1619.7,591.7,1617.3,590.2z"/>
	<path class="st0" d="M1611.1,288.9c1,0,2-0.3,2.9-0.9c2.2-1.6,2.8-4.7,1.1-7c-5.9-8.2-12.4-16.2-19.2-23.8c-1.8-2-5-2.2-7.1-0.4
		c-2,1.9-2.2,5-0.4,7.1c6.6,7.3,12.8,15,18.5,22.9C1608,288.2,1609.5,288.9,1611.1,288.9z"/>
	<path class="st0" d="M1526.2,672.8c-8.3,5.2-17,10-25.8,14.3c-2.5,1.2-3.5,4.2-2.3,6.7c0.9,1.8,2.6,2.8,4.5,2.8
		c0.7,0,1.5-0.2,2.2-0.5c9.1-4.5,18.1-9.5,26.7-14.8c2.3-1.5,3.1-4.5,1.6-6.9C1531.7,672.1,1528.6,671.3,1526.2,672.8z"/>
	<path class="st0" d="M1214.1,128l19.1,4.1c0.4,0.1,0.7,0.1,1.1,0.1c2.3,0,4.4-1.6,4.9-4c0.6-2.7-1.1-5.4-3.8-5.9l-19.1-4.1
		l5.8-26.9l-9.8-2.1l-13.6,63.6l9.8,2.1L1214.1,128z"/>
</g>
<g id="Pitroad">
	<path class="st1" d="M391,644.8c-5.2-3.8-10.1-7.8-14.6-11.8c-0.6-0.5-1.1-1.1-1.7-1.7c-0.4-0.4-1-1-1.8-1.9c-1-1-2.4-2.4-4-4.1
		c-1-1-2.5-1-3.5-0.1c-1,1-1,2.5-0.1,3.5c1.6,1.7,3,3.1,4,4.2c0.8,0.8,1.4,1.4,1.7,1.8c0.7,0.7,1.4,1.4,2.1,2
		c4.7,4.2,9.7,8.3,15,12.1c0.4,0.3,1,0.5,1.5,0.5c0.8,0,1.5-0.4,2-1C392.3,647.2,392.1,645.6,391,644.8z"/>
	<path class="st1" d="M388.3,214.7c1.1-0.8,1.4-2.4,0.6-3.5c-0.8-1.1-2.4-1.4-3.5-0.6c-8.2,5.9-16.2,12.2-23.7,18.8
		c-1,0.9-1.1,2.5-0.2,3.5c0.5,0.6,1.2,0.8,1.9,0.8c0.6,0,1.2-0.2,1.7-0.6C372.3,226.6,380.2,220.4,388.3,214.7z"/>
	<path class="st1" d="M499.7,691.5c-9.9-2.4-19.6-5.1-28.7-8c-1.3-0.4-2.7,0.3-3.1,1.6s0.3,2.7,1.6,3.1c9.3,3,19,5.7,29.1,8.1
		c0.2,0,0.4,0.1,0.6,0.1c1.1,0,2.1-0.8,2.4-1.9C501.9,693.2,501,691.9,499.7,691.5z"/>
	<path class="st1" d="M439.7,185c1.3-0.6,1.8-2.1,1.2-3.3c-0.6-1.3-2.1-1.8-3.3-1.2c-9.2,4.3-18.3,8.9-26.8,13.8
		c-1.2,0.7-1.6,2.2-0.9,3.4c0.5,0.8,1.3,1.3,2.2,1.3c0.4,0,0.9-0.1,1.2-0.3C421.7,193.8,430.6,189.2,439.7,185z"/>
	<path class="st1" d="M442.9,673.3c-9.5-3.9-18.5-8.2-26.9-12.7c-1.2-0.7-2.7-0.2-3.4,1c-0.7,1.2-0.2,2.7,1,3.4
		c8.5,4.6,17.7,9,27.3,13c0.3,0.1,0.6,0.2,1,0.2c1,0,1.9-0.6,2.3-1.5C444.8,675.3,444.2,673.8,442.9,673.3z"/>
	<path class="st1" d="M497.3,161.4c-0.4-1.3-1.8-2.1-3.1-1.7c-9.8,2.8-19.4,5.9-28.7,9.3c-1.3,0.5-2,1.9-1.5,3.2
		c0.4,1,1.3,1.6,2.3,1.6c0.3,0,0.6,0,0.9-0.2c9.1-3.3,18.6-6.4,28.3-9.2C496.9,164.1,497.6,162.8,497.3,161.4z"/>
	<path class="st1" d="M330.7,579.3c-0.8-1.1-2.4-1.4-3.5-0.6c-1.1,0.8-1.4,2.4-0.6,3.5c5.8,8.1,12,16.1,18.5,23.9
		c0.5,0.6,1.2,0.9,1.9,0.9c0.6,0,1.1-0.2,1.6-0.6c1.1-0.9,1.2-2.5,0.3-3.5C342.6,595.3,336.4,587.3,330.7,579.3z"/>
	<path class="st1" d="M271.9,424.9c0,0,0-3.9,0.6-10.6c0.1-1.4-0.9-2.6-2.3-2.7c-1.4-0.1-2.6,0.9-2.7,2.3
		c-0.6,6.9-0.6,10.8-0.6,11.1c0.1,6.4,0.6,12.9,1.3,19.5c0.1,1.3,1.2,2.2,2.5,2.2c0.1,0,0.2,0,0.3,0c1.4-0.2,2.4-1.4,2.2-2.8
		C272.5,437.4,272.1,431,271.9,424.9z"/>
	<path class="st1" d="M278.7,472.9c-0.3-1.3-1.7-2.1-3-1.8c-1.3,0.3-2.1,1.7-1.8,3c2.4,9.5,5.5,19.2,9.2,28.9c0.4,1,1.3,1.6,2.3,1.6
		c0.3,0,0.6-0.1,0.9-0.2c1.3-0.5,1.9-1.9,1.4-3.2C284.1,491.8,281,482.2,278.7,472.9z"/>
	<path class="st1" d="M274.1,386.8c0.2,0,0.3,0.1,0.5,0.1c1.2,0,2.2-0.8,2.4-2c2-9.6,4.6-19.3,7.7-28.8c0.4-1.3-0.3-2.7-1.6-3.1
		c-1.3-0.4-2.7,0.3-3.1,1.6c-3.1,9.6-5.7,19.5-7.8,29.3C271.9,385.2,272.7,386.5,274.1,386.8z"/>
	<path class="st1" d="M343.7,250.4c-1-0.9-2.6-0.9-3.5,0.2c-6.8,7.4-13.2,15.3-19.2,23.4c-0.8,1.1-0.6,2.7,0.5,3.5
		c0.4,0.3,1,0.5,1.5,0.5c0.8,0,1.5-0.4,2-1c5.8-8,12.2-15.7,18.8-23C344.8,252.9,344.7,251.3,343.7,250.4z"/>
	<path class="st1" d="M295.3,328.3c4-9.1,8.5-18,13.4-26.5c0.7-1.2,0.3-2.7-0.9-3.4c-1.2-0.7-2.7-0.3-3.4,0.9
		c-5,8.7-9.6,17.8-13.7,27c-0.6,1.3,0,2.7,1.3,3.3c0.3,0.1,0.7,0.2,1,0.2C294,329.8,294.9,329.2,295.3,328.3z"/>
	<path class="st1" d="M555.6,147.7c-0.3-1.3-1.6-2.2-3-1.9c-14,3.2-23.6,5.4-29.2,6.6c-1.3,0.3-2.2,1.6-1.9,3c0.3,1.2,1.3,2,2.4,2
		c0.2,0,0.4,0,0.5-0.1c5.6-1.3,15.3-3.4,29.3-6.6C555.1,150.4,555.9,149,555.6,147.7z"/>
	<path class="st1" d="M299.7,528.5c-0.6-1.2-2.1-1.7-3.4-1.1c-1.2,0.6-1.7,2.1-1.1,3.4c4.4,8.8,9.3,17.7,14.7,26.4
		c0.5,0.8,1.3,1.2,2.1,1.2c0.4,0,0.9-0.1,1.3-0.4c1.2-0.7,1.5-2.3,0.8-3.4C308.9,545.9,304,537.1,299.7,528.5z"/>
	<path class="st1" d="M798.1,707.6l-30,0c-1.4,0-2.5,1.1-2.5,2.5c0,1.4,1.1,2.5,2.5,2.5l30,0c1.4,0,2.5-1.1,2.5-2.5
		C800.6,708.7,799.4,707.6,798.1,707.6z"/>
	<path class="st1" d="M978.1,707.5l-30,0c-1.4,0-2.5,1.1-2.5,2.5c0,1.4,1.1,2.5,2.5,2.5l30,0c1.4,0,2.5-1.1,2.5-2.5
		C980.6,708.7,979.4,707.5,978.1,707.5z"/>
	<path class="st1" d="M858.1,707.6l-30,0c-1.4,0-2.5,1.1-2.5,2.5c0,1.4,1.1,2.5,2.5,2.5l30,0c1.4,0,2.5-1.1,2.5-2.5
		C860.6,708.7,859.4,707.6,858.1,707.6z"/>
	<path class="st1" d="M1038.1,707.5l-30,0c-1.4,0-2.5,1.1-2.5,2.5c0,1.4,1.1,2.5,2.5,2.5l30,0c1.4,0,2.5-1.1,2.5-2.5
		C1040.6,708.7,1039.4,707.5,1038.1,707.5z"/>
	<path class="st1" d="M918.1,707.6l-30,0c-1.4,0-2.5,1.1-2.5,2.5c0,1.4,1.1,2.5,2.5,2.5l30,0c1.4,0,2.5-1.1,2.5-2.5
		C920.6,708.7,919.4,707.6,918.1,707.6z"/>
	<path class="st1" d="M1098.1,707.5l-30,0c-1.4,0-2.5,1.1-2.5,2.5c0,1.4,1.1,2.5,2.5,2.5l30,0c1.4,0,2.5-1.1,2.5-2.5
		C1100.6,708.6,1099.4,707.5,1098.1,707.5z"/>
	<path class="st1" d="M1158.1,707.5l-30,0c-1.4,0-2.5,1.1-2.5,2.5c0,1.4,1.1,2.5,2.5,2.5l30,0c1.4,0,2.5-1.1,2.5-2.5
		C1160.6,708.6,1159.4,707.5,1158.1,707.5z"/>
	<path class="st1" d="M672.4,120.3c-0.3-1.3-1.7-2.2-3-1.9c-10.3,2.4-20,4.7-29.2,6.9c-1.3,0.3-2.2,1.7-1.9,3
		c0.3,1.2,1.3,1.9,2.4,1.9c0.2,0,0.4,0,0.6-0.1c9.2-2.2,18.9-4.5,29.2-6.9C671.9,123,672.8,121.7,672.4,120.3z"/>
	<path class="st1" d="M614,134.1c-0.3-1.3-1.7-2.2-3-1.9c-10.7,2.5-20.4,4.8-29.2,6.8c-1.3,0.3-2.2,1.7-1.9,3
		c0.3,1.2,1.3,1.9,2.4,1.9c0.2,0,0.4,0,0.6-0.1c8.8-2,18.5-4.3,29.2-6.8C613.5,136.8,614.4,135.5,614,134.1z"/>
	<path class="st1" d="M618.1,707.3c-9.8-0.4-19.8-1-29.9-1.8c-1.4-0.1-2.6,0.9-2.7,2.3c-0.1,1.4,0.9,2.6,2.3,2.7
		c10.1,0.8,20.3,1.4,30.1,1.8c0,0,0.1,0,0.1,0c1.3,0,2.4-1.1,2.5-2.4C620.6,708.5,619.5,707.4,618.1,707.3z"/>
	<path class="st1" d="M738.1,707.6l-30,0c-1.4,0-2.5,1.1-2.5,2.5c0,1.4,1.1,2.5,2.5,2.5l30,0c1.4,0,2.5-1.1,2.5-2.5
		C740.6,708.7,739.4,707.6,738.1,707.6z"/>
	<path class="st1" d="M558.5,702.4c-10-1.3-20-2.9-29.5-4.6c-1.4-0.3-2.7,0.7-2.9,2c-0.2,1.4,0.7,2.7,2,2.9
		c9.7,1.8,19.7,3.3,29.8,4.6c0.1,0,0.2,0,0.3,0c1.2,0,2.3-0.9,2.5-2.2C560.8,703.8,559.8,702.5,558.5,702.4z"/>
	<path class="st1" d="M678.1,707.6l-30,0c-1.4,0-2.5,1.1-2.5,2.5c0,1.4,1.1,2.5,2.5,2.5l30,0c1.4,0,2.5-1.1,2.5-2.5
		C680.6,708.7,679.4,707.6,678.1,707.6z"/>
	<polygon class="st1" points="1209.5,710 1165.6,691.5 1173.5,710 1165.6,728.5 	"/>
</g>
</svg>
