<?xml version="1.0" encoding="utf-8"?>
<!-- Generator: Adobe Illustrator 24.0.1, SVG Export Plug-In . SVG Version: 6.00 Build 0)  -->
<svg version="1.1" id="Infield_RC_Pit_Road" xmlns="http://www.w3.org/2000/svg" xmlns:xlink="http://www.w3.org/1999/xlink"
	 x="0px" y="0px" viewBox="0 0 1920 1080" style="enable-background:new 0 0 1920 1080;" xml:space="preserve">
<style type="text/css">
	.st0{fill:#D82520;}
</style>
<title>pitroad</title>
<g>
	<path class="st0" d="M981.9,389.7C981.9,389.7,981.9,389.7,981.9,389.7c1.4,0,2.5-1.2,2.5-2.5l-0.4-30c0-1.4-1.1-2.5-2.5-2.5
		c0,0,0,0,0,0c-1.4,0-2.5,1.2-2.5,2.5l0.4,30C979.4,388.6,980.5,389.7,981.9,389.7z"/>
	<path class="st0" d="M981.1,329.7C981.1,329.7,981.1,329.7,981.1,329.7c1.4,0,2.5-1.2,2.5-2.5l-0.4-30c0-1.4-1.1-2.5-2.5-2.5
		c0,0,0,0,0,0c-1.4,0-2.5,1.2-2.5,2.5l0.4,30C978.6,328.6,979.7,329.7,981.1,329.7z"/>
	<path class="st0" d="M982.7,449.7C982.7,449.7,982.7,449.7,982.7,449.7c1.4,0,2.5-1.2,2.5-2.5l-0.4-30c0-1.4-1.1-2.5-2.5-2.5
		c0,0,0,0,0,0c-1.4,0-2.5,1.2-2.5,2.5l0.4,30C980.2,448.6,981.4,449.7,982.7,449.7z"/>
	<path class="st0" d="M983.1,474.7C983.1,474.7,983.1,474.7,983.1,474.7c-1.4,0-2.5,1.2-2.5,2.5l0.4,30c0,1.4,1.1,2.5,2.5,2.5
		c0,0,0,0,0,0c1.4,0,2.5-1.2,2.5-2.5l-0.4-30C985.6,475.8,984.5,474.7,983.1,474.7z"/>
	<polygon class="st0" points="999.1,284.8 980,241.1 962,285.3 980.4,277.2 	"/>
</g>
</svg>
