<?xml version="1.0" encoding="utf-8"?>
<!-- Generator: Adobe Illustrator 24.0.1, SVG Export Plug-In . SVG Version: 6.00 Build 0)  -->
<svg version="1.1" id="Mini__Pit_Road" xmlns="http://www.w3.org/2000/svg" xmlns:xlink="http://www.w3.org/1999/xlink" x="0px"
	 y="0px" viewBox="0 0 1920 1080" style="enable-background:new 0 0 1920 1080;" xml:space="preserve">
<style type="text/css">
	.st0{fill:#D82520;}
</style>
<title>pitroad</title>
<g id="Pitroad">
	<path class="st0" d="M908.9,707.3h-30c-1.4,0-2.5,1.1-2.5,2.5s1.1,2.5,2.5,2.5h30c1.4,0,2.5-1.1,2.5-2.5S910.3,707.3,908.9,707.3z"
		/>
	<path class="st0" d="M848.9,707.3h-30c-1.4,0-2.5,1.1-2.5,2.5s1.1,2.5,2.5,2.5h30c1.4,0,2.5-1.1,2.5-2.5S850.3,707.3,848.9,707.3z"
		/>
	<path class="st0" d="M788.9,707.3h-30c-1.4,0-2.5,1.1-2.5,2.5s1.1,2.5,2.5,2.5h30c1.4,0,2.5-1.1,2.5-2.5S790.3,707.3,788.9,707.3z"
		/>
	<path class="st0" d="M728.9,707.3h-30c-1.4,0-2.5,1.1-2.5,2.5s1.1,2.5,2.5,2.5h30c1.4,0,2.5-1.1,2.5-2.5S730.3,707.3,728.9,707.3z"
		/>
	<path class="st0" d="M610.1,640.7c-0.4-1.3-1.8-2-3.1-1.6c-1.3,0.4-2,1.8-1.6,3.1c0.2,0.5,4.1,12.5,15.2,26.8c0.5,0.6,1.2,1,2,1
		c0.5,0,1.1-0.2,1.5-0.5c1.1-0.8,1.3-2.4,0.4-3.5C614,652.5,610.1,640.9,610.1,640.7z"/>
	<path class="st0" d="M670.8,700.7c-9.2-3.7-17.8-8.4-25.6-14.2c-1.1-0.8-2.7-0.6-3.5,0.5c-0.8,1.1-0.6,2.7,0.5,3.5
		c8.1,6,17.1,11,26.7,14.9c0.3,0.1,0.6,0.2,0.9,0.2c1,0,1.9-0.6,2.3-1.6C672.7,702.6,672.1,701.2,670.8,700.7z"/>
	<path class="st0" d="M1028.9,707.3h-30c-1.4,0-2.5,1.1-2.5,2.5s1.1,2.5,2.5,2.5h30c1.4,0,2.5-1.1,2.5-2.5
		S1030.3,707.3,1028.9,707.3z"/>
	<path class="st0" d="M1148.9,707.3h-30c-1.4,0-2.5,1.1-2.5,2.5s1.1,2.5,2.5,2.5h30c1.4,0,2.5-1.1,2.5-2.5
		S1150.3,707.3,1148.9,707.3z"/>
	<path class="st0" d="M968.9,707.3h-30c-1.4,0-2.5,1.1-2.5,2.5s1.1,2.5,2.5,2.5h30c1.4,0,2.5-1.1,2.5-2.5S970.3,707.3,968.9,707.3z"
		/>
	<path class="st0" d="M1208.5,706.4c-6.4,1-10.5,0.9-11,0.9h-18.6c-1.4,0-2.5,1.1-2.5,2.5s1.1,2.5,2.5,2.5l18.5,0c0,0,0.2,0,0.6,0
		c1.5,0,5.6-0.1,11.3-1c1.4-0.2,2.3-1.5,2.1-2.9C1211.1,707.1,1209.8,706.2,1208.5,706.4z"/>
	<path class="st0" d="M1088.9,707.3h-30c-1.4,0-2.5,1.1-2.5,2.5s1.1,2.5,2.5,2.5h30c1.4,0,2.5-1.1,2.5-2.5
		S1090.3,707.3,1088.9,707.3z"/>
	<path class="st0" d="M1274.2,656.3l-39.1,27.2l16.3,2.7c-4.6,4.3-9.8,8-15.4,11c-1.2,0.7-1.7,2.2-1,3.4c0.5,0.8,1.3,1.3,2.2,1.3
		c0.4,0,0.8-0.1,1.2-0.3c6.6-3.6,12.5-7.9,17.8-13l10.2,14.8L1274.2,656.3z"/>
</g>
</svg>
