<?xml version="1.0" encoding="utf-8"?>
<!-- Generator: Adobe Illustrator 24.0.1, SVG Export Plug-In . SVG Version: 6.00 Build 0)  -->
<svg version="1.1" id="Short__Pit_Road" xmlns="http://www.w3.org/2000/svg" xmlns:xlink="http://www.w3.org/1999/xlink" x="0px"
	 y="0px" viewBox="0 0 1920 1080" style="enable-background:new 0 0 1920 1080;" xml:space="preserve">
<style type="text/css">
	.st0{fill:#D82520;}
</style>
<title>pitroad</title>
<g id="Pitroad">
	<path class="st0" d="M1425.2,458.3c-0.1-0.1-8.3-7.9-18.5-21.2c-0.8-1.1-2.4-1.3-3.5-0.5c-1.1,0.8-1.3,2.4-0.5,3.5
		c10.5,13.7,18.7,21.5,19.1,21.9l1.2,1.1c0.5,0.4,1.1,0.7,1.7,0.7c0.7,0,1.4-0.3,1.9-0.8c0.9-1,0.9-2.6-0.2-3.5L1425.2,458.3z"/>
	<path class="st0" d="M1426.2,234.4c-9.5,4.8-18.3,10.1-26.1,15.7c-1.1,0.8-1.4,2.4-0.6,3.5c0.5,0.7,1.3,1,2,1c0.5,0,1-0.2,1.5-0.5
		c7.7-5.5,16.3-10.6,25.5-15.3c1.2-0.6,1.7-2.1,1.1-3.4C1428.9,234.3,1427.4,233.8,1426.2,234.4z"/>
	<path class="st0" d="M1363.9,300.6c0.2,0,0.4,0.1,0.6,0.1c1.1,0,2.2-0.8,2.4-1.9c1.9-8.2,6.6-16.6,14-25c0.9-1,0.8-2.6-0.2-3.5
		c-1-0.9-2.6-0.8-3.5,0.2c-7.9,9-13,18.1-15.1,27.1C1361.7,298.9,1362.6,300.3,1363.9,300.6z"/>
	<path class="st0" d="M1483.8,214.5c-9.2,1.5-19.1,4.2-29.5,7.8c-1.3,0.5-2,1.9-1.5,3.2c0.4,1,1.3,1.7,2.4,1.7c0.3,0,0.6,0,0.8-0.1
		c10.1-3.6,19.8-6.1,28.7-7.6c1.4-0.2,2.3-1.5,2.1-2.9C1486.4,215.2,1485.1,214.3,1483.8,214.5z"/>
	<path class="st0" d="M1376.6,385.7c-0.5-1.3-2-1.9-3.3-1.4c-1.3,0.5-1.9,2-1.4,3.3c3.7,9.1,8.3,18.3,13.6,27.3
		c0.5,0.8,1.3,1.2,2.2,1.2c0.4,0,0.9-0.1,1.3-0.3c1.2-0.7,1.6-2.2,0.9-3.4C1384.7,403.5,1380.2,394.6,1376.6,385.7z"/>
	<path class="st0" d="M1364.1,328.1c0-1.4-1.2-2.5-2.5-2.5c-1.4,0-2.5,1.2-2.5,2.5c0.1,10,1.4,20.2,3.6,30.4c0.3,1.2,1.3,2,2.4,2
		c0.2,0,0.4,0,0.5-0.1c1.3-0.3,2.2-1.6,1.9-3C1365.4,347.6,1364.2,337.7,1364.1,328.1z"/>
	<path class="st0" d="M1544.6,216.5c-9.8-2.3-20-3.6-30.3-4c-1.4,0-2.5,1-2.6,2.4c0,1.4,1,2.5,2.4,2.6c10,0.3,19.9,1.6,29.4,3.8
		c0.2,0,0.4,0.1,0.6,0.1c1.1,0,2.2-0.8,2.4-1.9C1546.8,218.1,1546,216.8,1544.6,216.5z"/>
	<path class="st0" d="M1630.8,378.5c-1.3-0.4-2.7,0.2-3.2,1.6c-3.1,9-6.8,18.3-11.2,27.7c-0.6,1.3,0,2.7,1.2,3.3
		c0.3,0.2,0.7,0.2,1,0.2c0.9,0,1.9-0.5,2.3-1.5c4.4-9.6,8.2-19.1,11.4-28.2C1632.8,380.4,1632.1,378.9,1630.8,378.5z"/>
	<path class="st0" d="M1643,321.7c-0.1-1.4-1.2-2.5-2.6-2.4c-1.4,0.1-2.5,1.2-2.4,2.6c0,1.2,0.1,2.5,0.1,3.7
		c0,7.9-0.9,16.5-2.6,25.6c-0.3,1.4,0.6,2.7,2,2.9c0.2,0,0.3,0,0.5,0c1.2,0,2.2-0.8,2.5-2c1.8-9.4,2.7-18.4,2.7-26.6
		C1643.1,324.4,1643.1,323,1643,321.7z"/>
	<path class="st0" d="M1636,291.6c-4.5-9.5-9.7-18.4-15.6-26.3c-0.8-1.1-2.4-1.3-3.5-0.5c-1.1,0.8-1.3,2.4-0.5,3.5
		c5.7,7.6,10.8,16.2,15.1,25.4c0.4,0.9,1.3,1.4,2.3,1.4c0.4,0,0.7-0.1,1.1-0.2C1636.1,294.4,1636.6,292.9,1636,291.6z"/>
	<path class="st0" d="M1597.8,247.5c0.7,0,1.4-0.3,1.9-0.9c0.9-1.1,0.7-2.6-0.3-3.5c-7.8-6.5-16.5-12.1-25.8-16.5
		c-1.2-0.6-2.7-0.1-3.3,1.2s-0.1,2.7,1.2,3.3c8.9,4.3,17.3,9.6,24.8,15.9C1596.7,247.3,1597.2,247.5,1597.8,247.5z"/>
	<path class="st0" d="M1606.2,433.4c-1.2-0.7-2.7-0.2-3.4,1c-2.4,4.3-4.9,8.6-7.5,12.9c-0.7,1.2-0.3,2.7,0.8,3.4
		c0.4,0.2,0.9,0.4,1.3,0.4c0.8,0,1.7-0.4,2.1-1.2c2.6-4.3,5.2-8.7,7.6-13C1607.9,435.6,1607.4,434.1,1606.2,433.4z"/>
	<path class="st0" d="M1454.4,484.9l-5.7-5.2c-1-0.9-2.6-0.9-3.5,0.2c-0.9,1-0.9,2.6,0.2,3.5l5.7,5.2l-15.8,7.3l44.9,15.8l-20-43.2
		L1454.4,484.9z"/>
</g>
</svg>
