<?xml version="1.0" encoding="utf-8"?>
<!-- Generator: Adobe Illustrator 25.0.1, SVG Export Plug-In . SVG Version: 6.00 Build 0)  -->
<svg version="1.1" id="Concord_Half_Pit_Road" xmlns="http://www.w3.org/2000/svg" xmlns:xlink="http://www.w3.org/1999/xlink"
	 x="0px" y="0px" viewBox="0 0 1920 1080" style="enable-background:new 0 0 1920 1080;" xml:space="preserve">
<style type="text/css">
	.st0{fill:#0089BA;}
	.st1{fill:#D82520;}
</style>
<g id="Mergeline">
	<path class="st0" d="M1777.7,667.8c-0.6,0-1.3-0.2-1.8-0.7c-1-1-1-2.6,0-3.5c5.2-5.2,9.7-9.9,13.7-14.4c0.9-1,2.5-1.1,3.5-0.2
		c1,0.9,1.1,2.5,0.2,3.5c-4,4.5-8.6,9.2-13.9,14.5C1779,667.5,1778.3,667.8,1777.7,667.8z M1804.3,638c-0.5,0-1.1-0.2-1.5-0.5
		c-1.1-0.8-1.3-2.4-0.5-3.5c4.2-5.5,7.7-10.9,10.8-16.4c0.7-1.2,2.2-1.6,3.4-0.9c1.2,0.7,1.6,2.2,0.9,3.4
		c-3.2,5.7-6.9,11.2-11.2,16.9C1805.8,637.7,1805,638,1804.3,638z M1823.7,603.2c-0.3,0-0.6-0.1-0.9-0.2c-1.3-0.5-1.9-1.9-1.5-3.2
		c2.2-6,4.1-12.1,5.6-18.8c0.3-1.3,1.6-2.2,3-1.9c1.3,0.3,2.2,1.6,1.9,3c-1.6,6.9-3.5,13.3-5.8,19.5
		C1825.7,602.6,1824.7,603.2,1823.7,603.2z M1832.8,564.4c-0.1,0-0.2,0-0.3,0c-1.4-0.2-2.3-1.4-2.2-2.8c0.9-7.1,1.5-13.5,1.9-19.8
		c0.1-1.4,1.3-2.4,2.7-2.3c1.4,0.1,2.4,1.3,2.3,2.7c-0.4,6.3-1,12.9-1.9,20.1C1835.1,563.5,1834,564.4,1832.8,564.4z M1835.1,524.5
		c-1.4,0-2.5-1.1-2.5-2.4c-0.2-6.8-0.6-13.2-1.4-19.7c-0.2-1.4,0.8-2.6,2.2-2.8c1.4-0.2,2.6,0.8,2.8,2.2c0.8,6.7,1.3,13.3,1.5,20.2
		C1837.6,523.3,1836.5,524.5,1835.1,524.5C1835.1,524.5,1835.1,524.5,1835.1,524.5z M1830.1,484.9c-1.1,0-2.2-0.8-2.4-1.9
		c-1.5-6.2-3.3-12.6-5.5-19c-0.4-1.3,0.3-2.7,1.6-3.2c1.3-0.4,2.7,0.3,3.2,1.6c2.2,6.5,4.1,13,5.6,19.4c0.3,1.3-0.5,2.7-1.9,3
		C1830.5,484.9,1830.3,484.9,1830.1,484.9z M1817.3,447c-1,0-1.9-0.6-2.3-1.5c-2.2-5.1-4.7-10.4-7.4-15.7c-0.4-0.7-0.7-1.5-1.1-2.2
		c-0.6-1.2-0.2-2.7,1.1-3.4c1.2-0.6,2.7-0.2,3.4,1.1c0.4,0.7,0.8,1.5,1.2,2.2c2.7,5.4,5.3,10.8,7.5,16c0.5,1.3,0,2.7-1.3,3.3
		C1818,447,1817.7,447,1817.3,447z M1798.4,411.9c-0.8,0-1.6-0.4-2.1-1.1c-3.7-5.3-7.8-10.5-12.2-15.4c-0.9-1-0.8-2.6,0.2-3.5
		c1-0.9,2.6-0.8,3.5,0.2c4.5,5.1,8.8,10.4,12.6,15.9c0.8,1.1,0.5,2.7-0.6,3.5C1799.4,411.8,1798.9,411.9,1798.4,411.9z
		 M1771.8,382.2c-0.6,0-1.2-0.2-1.7-0.6c-4.8-4.3-9.8-8.3-15.4-12.3c-1.1-0.8-1.4-2.4-0.6-3.5c0.8-1.1,2.4-1.4,3.5-0.6
		c5.7,4.1,10.9,8.3,15.8,12.7c1,0.9,1.1,2.5,0.2,3.5C1773.1,381.9,1772.5,382.2,1771.8,382.2z M1739.6,358.5c-0.5,0-0.9-0.1-1.3-0.4
		c-4.7-2.9-9.1-5.5-13.3-8c-1.3-0.8-2.6-1.5-3.8-2.2c-1.2-0.7-1.6-2.2-0.9-3.4c0.7-1.2,2.2-1.6,3.4-0.9c1.2,0.7,2.5,1.5,3.8,2.2
		c4.1,2.4,8.7,5.1,13.4,8.1c1.2,0.7,1.5,2.3,0.8,3.4C1741.2,358.1,1740.4,358.5,1739.6,358.5z M1704.8,338.8c-0.3,0-0.6-0.1-0.9-0.2
		c-5.4-2.1-11.6-3.9-18.8-5.4c-1.4-0.3-2.2-1.6-1.9-3c0.3-1.4,1.6-2.2,3-1.9c7.5,1.5,13.9,3.4,19.6,5.6c1.3,0.5,1.9,2,1.4,3.2
		C1706.8,338.2,1705.8,338.8,1704.8,338.8z M1665.9,330.2c-0.1,0-0.2,0-0.3,0c-6-0.7-12.5-1.2-19.8-1.7c-1.4-0.1-2.4-1.3-2.3-2.6
		c0.1-1.4,1.2-2.4,2.6-2.3c7.4,0.5,13.9,1,20.1,1.7c1.4,0.2,2.4,1.4,2.2,2.8C1668.2,329.3,1667.1,330.2,1665.9,330.2z M1453.7,327.9
		c-1.4,0-2.5-1.1-2.5-2.5s1.1-2.5,2.5-2.5c4.1,0,8.2,0,12.2,0c0,0,0,0,0,0c1.4,0,2.5,1.1,2.5,2.5c0,1.4-1.1,2.5-2.5,2.5
		C1462,327.9,1457.9,327.9,1453.7,327.9L1453.7,327.9z M1486,327.8c-1.4,0-2.5-1.1-2.5-2.5c0-1.4,1.1-2.5,2.5-2.5
		c6.8,0,13.5-0.1,20-0.1c0,0,0,0,0,0c1.4,0,2.5,1.1,2.5,2.5c0,1.4-1.1,2.5-2.5,2.5C1499.5,327.7,1492.8,327.8,1486,327.8
		C1486,327.8,1486,327.8,1486,327.8z M1626,327.6C1625.9,327.6,1625.9,327.6,1626,327.6c-6.2-0.2-12.8-0.3-20-0.4
		c-1.4,0-2.5-1.1-2.5-2.5s1.2-2.5,2.5-2.5c7.3,0.1,13.9,0.2,20,0.4c1.4,0,2.5,1.2,2.4,2.6C1628.4,326.6,1627.3,327.6,1626,327.6z
		 M1526,327.5c-1.4,0-2.5-1.1-2.5-2.5c0-1.4,1.1-2.5,2.5-2.5l2.5,0c6-0.1,11.8-0.1,17.5-0.2c0,0,0,0,0,0c1.4,0,2.5,1.1,2.5,2.5
		c0,1.4-1.1,2.5-2.5,2.5c-5.7,0-11.5,0.1-17.5,0.2L1526,327.5C1526,327.5,1526,327.5,1526,327.5z M1566,327.2
		c-1.4,0-2.5-1.1-2.5-2.5c0-1.4,1.1-2.5,2.5-2.5c6.2,0,12.3-0.1,18.2-0.1l1.8,0c1.4,0,2.5,1.1,2.5,2.5c0,1.4-1.1,2.5-2.5,2.5
		c0,0,0,0,0,0l-1.8,0C1578.3,327.1,1572.2,327.1,1566,327.2C1566,327.2,1566,327.2,1566,327.2z"/>
	
		<rect x="1451.2" y="309.1" transform="matrix(1 -6.632202e-03 6.632202e-03 1 -2.126 9.6486)" class="st0" width="5" height="32.5"/>
</g>
<g id="Pitroad">
	<path class="st1" d="M382.2,732.8c-1.4,0-2.5-1.1-2.5-2.5s1.1-2.5,2.5-2.5c9,0,18.6-0.9,29.4-2.9c1.4-0.2,2.7,0.7,2.9,2
		c0.2,1.4-0.7,2.7-2,2.9C401.4,731.9,391.5,732.8,382.2,732.8z M441.3,723.4c-1.1,0-2.1-0.8-2.4-1.9c-0.3-1.3,0.5-2.7,1.8-3
		c9.6-2.4,19.6-4.8,29.5-6.5c1.4-0.2,2.7,0.7,2.9,2s-0.7,2.7-2.1,2.9c-9.7,1.6-19.6,4.1-29.1,6.4
		C441.7,723.4,441.5,723.4,441.3,723.4z M1641.2,714.8h-0.7c-1.4,0-2.5-1.1-2.5-2.5s1.1-2.5,2.5-2.5h0.7c5.9,0,16.6-1.4,28.5-3.7
		c1.4-0.3,2.7,0.6,2.9,2s-0.6,2.7-2,2.9C1658.4,713.4,1647.4,714.8,1641.2,714.8z M1610.4,714.8h-30c-1.4,0-2.5-1.1-2.5-2.5
		s1.1-2.5,2.5-2.5h30c1.4,0,2.5,1.1,2.5,2.5S1611.8,714.8,1610.4,714.8z M1550.4,714.8h-30c-1.4,0-2.5-1.1-2.5-2.5s1.1-2.5,2.5-2.5
		h30c1.4,0,2.5,1.1,2.5,2.5S1551.8,714.8,1550.4,714.8z M1490.4,714.8h-30c-1.4,0-2.5-1.1-2.5-2.5s1.1-2.5,2.5-2.5h30
		c1.4,0,2.5,1.1,2.5,2.5S1491.8,714.8,1490.4,714.8z M1430.4,714.8h-30c-1.4,0-2.5-1.1-2.5-2.5s1.1-2.5,2.5-2.5h30
		c1.4,0,2.5,1.1,2.5,2.5S1431.8,714.8,1430.4,714.8z M1370.4,714.8h-30c-1.4,0-2.5-1.1-2.5-2.5s1.1-2.5,2.5-2.5h30
		c1.4,0,2.5,1.1,2.5,2.5S1371.8,714.8,1370.4,714.8z M1310.4,714.8h-30c-1.4,0-2.5-1.1-2.5-2.5s1.1-2.5,2.5-2.5h30
		c1.4,0,2.5,1.1,2.5,2.5S1311.8,714.8,1310.4,714.8z M1250.4,714.8h-30c-1.4,0-2.5-1.1-2.5-2.5s1.1-2.5,2.5-2.5h30
		c1.4,0,2.5,1.1,2.5,2.5S1251.8,714.8,1250.4,714.8z M1190.4,714.8h-30c-1.4,0-2.5-1.1-2.5-2.5s1.1-2.5,2.5-2.5h30
		c1.4,0,2.5,1.1,2.5,2.5S1191.8,714.8,1190.4,714.8z M1130.4,714.8h-30c-1.4,0-2.5-1.1-2.5-2.5s1.1-2.5,2.5-2.5h30
		c1.4,0,2.5,1.1,2.5,2.5S1131.8,714.8,1130.4,714.8z M1070.4,714.8h-30c-1.4,0-2.5-1.1-2.5-2.5s1.1-2.5,2.5-2.5h30
		c1.4,0,2.5,1.1,2.5,2.5S1071.8,714.8,1070.4,714.8z M1010.4,714.8h-30c-1.4,0-2.5-1.1-2.5-2.5s1.1-2.5,2.5-2.5h30
		c1.4,0,2.5,1.1,2.5,2.5S1011.8,714.8,1010.4,714.8z M950.4,714.8h-30c-1.4,0-2.5-1.1-2.5-2.5s1.1-2.5,2.5-2.5h30
		c1.4,0,2.5,1.1,2.5,2.5S951.8,714.8,950.4,714.8z M890.4,714.8h-30c-1.4,0-2.5-1.1-2.5-2.5s1.1-2.5,2.5-2.5h30
		c1.4,0,2.5,1.1,2.5,2.5S891.8,714.8,890.4,714.8z M830.4,714.8h-30c-1.4,0-2.5-1.1-2.5-2.5s1.1-2.5,2.5-2.5h30
		c1.4,0,2.5,1.1,2.5,2.5S831.8,714.8,830.4,714.8z M770.4,714.8h-30c-1.4,0-2.5-1.1-2.5-2.5s1.1-2.5,2.5-2.5h30
		c1.4,0,2.5,1.1,2.5,2.5S771.8,714.8,770.4,714.8z M710.4,714.8h-30c-1.4,0-2.5-1.1-2.5-2.5s1.1-2.5,2.5-2.5h30
		c1.4,0,2.5,1.1,2.5,2.5S711.8,714.8,710.4,714.8z M650.4,714.8h-30c-1.4,0-2.5-1.1-2.5-2.5s1.1-2.5,2.5-2.5h30
		c1.4,0,2.5,1.1,2.5,2.5S651.8,714.8,650.4,714.8z M590.4,714.8h-30c-1.4,0-2.5-1.1-2.5-2.5s1.1-2.5,2.5-2.5h30
		c1.4,0,2.5,1.1,2.5,2.5S591.8,714.8,590.4,714.8z M530.4,714.8h-30c-1.4,0-2.5-1.1-2.5-2.5s1.1-2.5,2.5-2.5h30
		c1.4,0,2.5,1.1,2.5,2.5S531.8,714.8,530.4,714.8z M1699.4,704.1c-1.1,0-2.1-0.7-2.4-1.8c-0.4-1.3,0.4-2.7,1.7-3.1
		c9.9-2.8,19.4-5.9,28.3-9.3c1.3-0.5,2.7,0.2,3.2,1.4c0.5,1.3-0.2,2.7-1.4,3.2c-9,3.4-18.7,6.6-28.7,9.4
		C1699.9,704.1,1699.6,704.1,1699.4,704.1z M1755.3,682.5c-0.9,0-1.8-0.5-2.2-1.3c-0.7-1.2-0.2-2.7,1-3.4c3.8-2,7.3-4.1,10.7-6.2
		c1.2-0.7,2.7-0.4,3.5,0.8c0.7,1.2,0.4,2.7-0.8,3.5c-3.4,2.2-7.1,4.3-11,6.4C1756.1,682.4,1755.7,682.5,1755.3,682.5z"/>
	<polygon class="st1" points="1766.4,696.4 1760.8,677 1743.1,667.6 1788.8,654.3 	"/>
</g>
</svg>
