<?xml version="1.0" encoding="utf-8"?>
<!-- Generator: Adobe Illustrator 25.0.0, SVG Export Plug-In . SVG Version: 6.00 Build 0)  -->
<svg version="1.1" id="RX_Joker" xmlns="http://www.w3.org/2000/svg" xmlns:xlink="http://www.w3.org/1999/xlink" x="0px" y="0px"
	 viewBox="0 0 1920 1080" style="enable-background:new 0 0 1920 1080;" xml:space="preserve">
<style type="text/css">
	.st0{fill:#FF9100;}
	.st1{fill:#D82520;}
</style>
<g id="Joker">
	<path class="st0" d="M1131,495.6l-24.4-5.5c-2.7-0.6-5.4,1.1-6,3.8c-0.6,2.7,1.1,5.4,3.8,6l24.4,5.5c0.4,0.1,0.7,0.1,1.1,0.1
		c2.3,0,4.4-1.6,4.9-3.9C1135.4,498.9,1133.7,496.2,1131,495.6z"/>
	<path class="st0" d="M1179.8,506.5l-24.4-5.5c-2.7-0.6-5.4,1.1-6,3.8c-0.6,2.7,1.1,5.4,3.8,6l24.4,5.5c0.4,0.1,0.7,0.1,1.1,0.1
		c2.3,0,4.4-1.6,4.9-3.9C1184.2,509.8,1182.5,507.1,1179.8,506.5z"/>
	<path class="st0" d="M1287.2,572c-1.7-2.2-4.8-2.6-7-0.9c-2.2,1.7-2.6,4.8-0.9,7c4.9,6.3,9.3,13.2,13.3,20.3
		c0.9,1.6,2.6,2.6,4.4,2.6c0.8,0,1.7-0.2,2.4-0.6c2.4-1.3,3.3-4.4,1.9-6.8C1297.1,586,1292.3,578.7,1287.2,572z"/>
	<path class="st0" d="M1228.3,523.1c-7.7-3.9-15.6-7.3-23.7-10.1c-2.6-0.9-5.5,0.5-6.4,3.1c-0.9,2.6,0.5,5.5,3.1,6.4
		c7.6,2.6,15.1,5.8,22.3,9.5c0.7,0.4,1.5,0.6,2.3,0.6c1.8,0,3.6-1,4.5-2.7C1231.7,527.4,1230.7,524.3,1228.3,523.1z"/>
	<path class="st0" d="M1322.2,711.5c-2.8-0.1-5.1,2.1-5.2,4.8l-0.9,25c-0.1,2.8,2.1,5.1,4.8,5.2c0.1,0,0.1,0,0.2,0
		c2.7,0,4.9-2.1,5-4.8l0.9-25C1327.1,713.9,1324.9,711.6,1322.2,711.5z"/>
	<path class="st0" d="M1082.2,484.7l-24.4-5.5c-2.7-0.6-5.4,1.1-6,3.8c-0.6,2.7,1.1,5.4,3.8,6l24.4,5.5c0.4,0.1,0.7,0.1,1.1,0.1
		c2.3,0,4.4-1.6,4.9-3.9C1086.6,488,1084.9,485.3,1082.2,484.7z"/>
	<path class="st0" d="M1315.2,667.4c1.2,7.8,2,16,2.5,24.4c0.2,2.7,2.4,4.7,5,4.7c0.1,0,0.2,0,0.3,0c2.8-0.2,4.9-2.5,4.7-5.3
		c-0.5-8.6-1.4-17.1-2.6-25.3c-0.4-2.7-2.9-4.6-5.7-4.2C1316.7,662.2,1314.8,664.7,1315.2,667.4z"/>
	<path class="st0" d="M1033.4,473.8l-24.4-5.5c-2.7-0.6-5.4,1.1-6,3.8c-0.6,2.7,1.1,5.4,3.8,6l24.4,5.5c0.4,0.1,0.7,0.1,1.1,0.1
		c2.3,0,4.4-1.6,4.9-3.9C1037.8,477.1,1036.1,474.4,1033.4,473.8z"/>
	<path class="st0" d="M1250.2,536.4c-2.2-1.6-5.4-1.1-7,1.2c-1.6,2.3-1.1,5.4,1.2,7c6.6,4.7,12.9,9.9,18.7,15.5
		c1,0.9,2.2,1.4,3.5,1.4c1.3,0,2.6-0.5,3.6-1.5c1.9-2,1.9-5.2-0.1-7.1C1263.9,546.9,1257.2,541.4,1250.2,536.4z"/>
	<path class="st0" d="M1483.1,785.1c-2.6-1-5.5,0.2-6.5,2.7c-1.1,2.6-2.1,5.4-3,8.4c-1.5,4.8-3.8,9-6.9,12.5
		c-1.8,2.1-1.6,5.2,0.5,7.1c0.9,0.8,2.1,1.2,3.3,1.2c1.4,0,2.8-0.6,3.8-1.7c4-4.6,7-10,8.9-16.2c0.8-2.6,1.7-5.2,2.7-7.6
		C1486.9,789.1,1485.6,786.2,1483.1,785.1z"/>
	<path class="st0" d="M1447.9,820.2c-6.5,2-14.4,3.2-23.3,3.5c-2.8,0.1-4.9,2.4-4.8,5.2c0.1,2.7,2.3,4.8,5,4.8c0.1,0,0.1,0,0.2,0
		c10-0.3,18.5-1.6,26-4c2.6-0.8,4.1-3.6,3.3-6.3C1453.3,820.8,1450.5,819.4,1447.9,820.2z"/>
	<path class="st0" d="M1316.5,647.1c2.7-0.7,4.3-3.4,3.6-6.1c-2.2-8.4-4.8-16.6-7.9-24.3c-1-2.6-3.9-3.8-6.5-2.8
		c-2.6,1-3.8,3.9-2.8,6.5c2.9,7.4,5.4,15.2,7.5,23.2c0.6,2.3,2.6,3.7,4.8,3.7C1315.6,647.2,1316,647.2,1316.5,647.1z"/>
	<path class="st0" d="M1560.3,730.6c-1-2.6-3.9-3.9-6.5-2.9c-7.8,3-14.6,5.8-20.7,8.6c-2.5,1.1-3.6,4.1-2.5,6.6
		c0.8,1.8,2.7,2.9,4.6,2.9c0.7,0,1.4-0.1,2.1-0.5c5.9-2.7,12.5-5.4,20.1-8.4C1560,736,1561.3,733.1,1560.3,730.6z"/>
	<path class="st0" d="M1510.5,748.4c-8.1,5.2-14.7,10.7-20.2,16.9c-1.8,2.1-1.6,5.2,0.5,7.1c0.9,0.8,2.1,1.2,3.3,1.2
		c1.4,0,2.8-0.6,3.8-1.7c4.8-5.4,10.7-10.4,18-15.1c2.3-1.5,3-4.6,1.5-6.9C1516,747.5,1512.9,746.9,1510.5,748.4z"/>
	<path class="st0" d="M1399.8,823.2c-1.9,0-3.9,0-6.1,0c-1.5,0-3.1,0-4.7,0c-3.8,0-8.9,0-14.1-0.2c-2.8-0.1-5.1,2-5.2,4.8
		c-0.1,2.8,2,5.1,4.8,5.2c5.3,0.2,10.5,0.3,14.5,0.3c1.6,0,3.2,0,4.7,0c2.1,0,4.1,0,6,0c0,0,0,0,0,0c2.7,0,5-2.2,5-5
		C1404.7,825.4,1402.5,823.2,1399.8,823.2z"/>
	<path class="st0" d="M1324.4,791.7l0.9-25c0.1-2.8-2.1-5.1-4.8-5.2c-2.8-0.1-5.1,2.1-5.2,4.8l-0.9,25c-0.1,2.8,2.1,5.1,4.8,5.2
		c0.1,0,0.1,0,0.2,0C1322.1,796.5,1324.3,794.4,1324.4,791.7z"/>
	<path class="st0" d="M1351,820.1c-8.8-2.1-15.5-5.3-19.9-9.5c-2-1.9-5.1-1.9-7.1,0.1c-1.9,2-1.9,5.1,0.1,7.1
		c5.8,5.6,13.8,9.6,24.6,12.1c0.4,0.1,0.8,0.1,1.1,0.1c2.3,0,4.3-1.6,4.9-3.9C1355.4,823.4,1353.7,820.7,1351,820.1z"/>
</g>
<g id="Pitroad">
	<path class="st1" d="M1025,964c-2.8,0-5-2.2-5-5c0-2.8,2.2-5,5-5c11.1,0,20.9-0.1,30-0.2c0,0,0,0,0.1,0c2.7,0,5,2.2,5,4.9
		c0,2.8-2.2,5-4.9,5.1C1046,964,1036.1,964,1025,964C1025,964,1025,964,1025,964z M995,964C995,964,995,964,995,964l-6.2,0
		c-7.9,0-15.9,0-23.8,0c-2.8,0-5-2.2-5-5s2.2-5,5-5c7.9,0,15.9,0,23.8,0l6.2,0c2.8,0,5,2.2,5,5C1000,961.8,997.8,964,995,964z
		 M1085,963.3c-2.7,0-4.9-2.2-5-4.9c-0.1-2.8,2.1-5.1,4.9-5.1c10.5-0.3,20.3-0.6,29.9-1.1c2.7-0.1,5.1,2,5.2,4.8
		c0.1,2.8-2,5.1-4.8,5.2c-9.7,0.4-19.5,0.8-30.1,1.1C1085.1,963.3,1085,963.3,1085,963.3z M1144.9,960.5c-2.6,0-4.8-2-5-4.6
		c-0.2-2.8,1.9-5.1,4.6-5.3c8.8-0.6,19.1-1.4,29.8-2.3c2.8-0.2,5.2,1.8,5.4,4.6c0.2,2.8-1.8,5.2-4.6,5.4c-10.8,0.9-21.2,1.7-30,2.3
		C1145.2,960.5,1145,960.5,1144.9,960.5z M1204.7,955.2c-2.5,0-4.7-1.9-5-4.4c-0.3-2.7,1.6-5.2,4.4-5.6c10.5-1.3,20.2-2.6,29.5-4.2
		c2.7-0.5,5.3,1.4,5.8,4.1c0.5,2.7-1.4,5.3-4.1,5.8c-9.5,1.6-19.3,3-29.9,4.3C1205.1,955.2,1204.9,955.2,1204.7,955.2z
		 M1263.8,944.9c-2.3,0-4.3-1.5-4.9-3.8c-0.6-2.7,1-5.4,3.7-6c10-2.4,19.5-5.2,28.4-8.2c2.6-0.9,5.5,0.5,6.3,3.1s-0.5,5.5-3.1,6.3
		c-9.2,3.1-19,6-29.3,8.4C1264.5,944.9,1264.2,944.9,1263.8,944.9z M1320.4,925.4c-1.9,0-3.7-1.1-4.5-2.9c-1.2-2.5-0.1-5.5,2.4-6.7
		c5.6-2.7,11-5.5,16.1-8.5c3.7-2.2,6.7-4,9.3-5.8c2.3-1.5,5.4-0.9,6.9,1.3c1.5,2.3,0.9,5.4-1.3,6.9c-2.8,1.9-6,3.9-9.9,6.2
		c-5.4,3.1-11.1,6.1-16.9,8.9C1321.8,925.2,1321.1,925.4,1320.4,925.4z M1367.5,889.6c-0.8,0-1.7-0.2-2.5-0.7
		c-2.4-1.4-3.2-4.4-1.9-6.8c4.2-7.3,7.1-16,8.9-26.6c0.5-2.7,3-4.6,5.8-4.1c2.7,0.5,4.6,3,4.1,5.8c-2,11.8-5.3,21.6-10.1,30
		C1370.9,888.7,1369.2,889.6,1367.5,889.6z M1379,831.4c-2.7,0-5-2.2-5-5c-0.1-10.2-0.7-20.3-1.4-29.6c-0.2-2.8,1.9-5.2,4.6-5.4
		c2.8-0.2,5.2,1.9,5.4,4.6c0.7,9.5,1.4,19.8,1.4,30.3C1384,829.1,1381.8,831.3,1379,831.4C1379,831.4,1379,831.4,1379,831.4z
		 M1375.3,771.5c-2.6,0-4.7-2-5-4.6c-0.9-10.9-2-20.5-3.3-29.6c-0.4-2.7,1.5-5.3,4.3-5.6c2.7-0.4,5.3,1.5,5.6,4.3
		c1.3,9.2,2.4,19,3.3,30.1c0.2,2.8-1.8,5.2-4.5,5.4C1375.6,771.5,1375.4,771.5,1375.3,771.5z"/>
	<polygon class="st1" points="1390.8,733.5 1371.1,729.6 1354.5,741.1 1363.7,694.3 	"/>
</g>
</svg>
