<?xml version="1.0" encoding="utf-8"?>
<!-- Generator: Adobe Illustrator 25.0.0, SVG Export Plug-In . SVG Version: 6.00 Build 0)  -->
<svg version="1.1" id="RX_Joker" xmlns="http://www.w3.org/2000/svg" xmlns:xlink="http://www.w3.org/1999/xlink" x="0px" y="0px"
	 viewBox="0 0 1920 1080" style="enable-background:new 0 0 1920 1080;" xml:space="preserve">
<style type="text/css">
	.st0{fill:#FF9100;}
	.st1{fill:#D82520;}
</style>
<g id="Joker">
	<path class="st0" d="M1733.4,581.5c-1.6-0.1-3.1,1.2-3.2,2.8c-0.3,4.2-0.4,7.9-0.6,11.9c0,1.2-0.2,2.5-0.3,3.8
		c-0.1,1.4-0.3,2.9-0.3,4.3c0,1.7,1.3,3,2.9,3.1c0,0,0.1,0,0.1,0c1.6,0,2.9-1.3,3-2.9c0-1.3,0.2-2.6,0.3-3.9
		c0.1-1.4,0.3-2.8,0.3-4.2c0.1-3.9,0.3-7.6,0.6-11.7C1736.3,583,1735.1,581.6,1733.4,581.5z"/>
	<path class="st0" d="M1736.7,541.7c-1.6-0.1-3.1,1.1-3.3,2.7c-0.7,7.9-1.3,14.4-1.7,19.9c-0.1,1.7,1.1,3.1,2.7,3.2
		c0.1,0,0.2,0,0.3,0c1.5,0,2.9-1.2,3-2.8c0.5-5.5,1-12.1,1.7-19.9C1739.6,543.3,1738.4,541.8,1736.7,541.7z"/>
	<path class="st0" d="M1762.6,622.1c-2.4-0.6-5.6-1.4-9.8-2.4c-2.9-0.7-6.1-1.5-8.9-2.8c-1.5-0.7-3.3,0-3.9,1.6
		c-0.7,1.5,0,3.3,1.6,3.9c3.3,1.4,6.7,2.3,9.9,3.1c4.2,1,7.4,1.8,9.9,2.4c0.2,0.1,0.5,0.1,0.7,0.1c1.4,0,2.6-0.9,2.9-2.3
		C1765.2,624.1,1764.2,622.5,1762.6,622.1z"/>
	<path class="st0" d="M1787.3,606c-1.7,0.1-2.9,1.5-2.8,3.2c0.1,1.7,0.1,3.1,0.1,4.3c0,8-1.9,9.7-3.8,10.3c-1.6,0.5-2.5,2.2-2,3.8
		c0.4,1.3,1.6,2.1,2.9,2.1c0.3,0,0.6,0,0.9-0.1c8.1-2.5,8.1-12.3,8.1-16c0-1.3,0-2.8-0.1-4.6C1790.3,607.2,1788.9,606,1787.3,606z"
		/>
	<polygon class="st0" points="1796.2,598.2 1787.6,577 1778.4,598 1787.4,594.3 	"/>
</g>
<g id="Pitroad">
	<path class="st1" d="M1533.4,674l-8.5-4.9c-1.2-0.7-2.7-0.3-3.4,0.9c-0.7,1.2-0.3,2.7,0.9,3.4l8.5,4.9c0.4,0.2,0.8,0.3,1.2,0.3
		c0.9,0,1.7-0.5,2.2-1.3C1535,676.2,1534.6,674.7,1533.4,674z"/>
	<path class="st1" d="M1595.7,638.6c1.6,3.9,3,7.5,4.3,10.8c0.4,1,1.3,1.6,2.3,1.6c0.3,0,0.6-0.1,0.9-0.2c1.3-0.5,1.9-2,1.4-3.2
		c-1.3-3.3-2.8-6.9-4.3-10.8c-0.1-0.3-0.3-0.7-0.4-1l17.4,0.5l-33.3-34.1l-1.2,47.6l12.4-12.2
		C1595.4,637.9,1595.6,638.2,1595.7,638.6z"/>
	<path class="st1" d="M1611.7,666.4c-0.4-1.3-1.8-2-3.2-1.6c-1.3,0.4-2,1.8-1.6,3.2c1.9,5.9,2.9,10.4,3.2,14.2c0.1,1,0.1,2,0.1,3
		c0,0.5,0,1,0,1.5c-0.1,1.4,1,2.5,2.4,2.6c0,0,0.1,0,0.1,0c1.3,0,2.4-1.1,2.5-2.4c0-0.6,0-1.1,0-1.7c0-1.1,0-2.3-0.1-3.4
		C1614.9,677.6,1613.8,672.7,1611.7,666.4z"/>
	<path class="st1" d="M1568.2,693.8l-17.4-9.9c-1.2-0.7-2.7-0.3-3.4,0.9c-0.7,1.2-0.3,2.7,0.9,3.4l17.4,9.9c0.4,0.2,0.8,0.3,1.2,0.3
		c0.9,0,1.7-0.5,2.2-1.3C1569.8,696,1569.4,694.5,1568.2,693.8z"/>
	<path class="st1" d="M1603.3,701.9c-4,2.3-10,2.3-17.5-0.1c-1.3-0.4-2.7,0.3-3.1,1.7c-0.4,1.3,0.3,2.7,1.7,3.1
		c4.3,1.3,8.2,2,11.6,2c3.8,0,7.1-0.8,9.8-2.4c1.2-0.7,1.6-2.2,0.9-3.4S1604.5,701.2,1603.3,701.9z"/>
</g>
</svg>
