<?xml version="1.0" encoding="utf-8"?>
<!-- Generator: Adobe Illustrator 25.0.0, SVG Export Plug-In . SVG Version: 6.00 Build 0)  -->
<svg version="1.1" id="Oval_Pitroad" xmlns="http://www.w3.org/2000/svg" xmlns:xlink="http://www.w3.org/1999/xlink" x="0px"
	 y="0px" viewBox="0 0 1920 1080" style="enable-background:new 0 0 1920 1080;" xml:space="preserve">
<style type="text/css">
	.st0{fill:#D82520;}
</style>
<g id="Pitroad">
	<path class="st0" d="M1401.3,141.9c-10-0.4-20.1-0.8-30-1.1c-1.4-0.1-2.5,1-2.6,2.4c-0.1,1.4,1,2.5,2.4,2.6c10,0.4,20,0.8,30,1.1
		c0,0,0.1,0,0.1,0c1.3,0,2.4-1.1,2.5-2.4C1403.8,143.1,1402.7,142,1401.3,141.9z"/>
	<path class="st0" d="M1341.3,139.6c-10.1-0.4-20.1-0.7-30-1.1c-1.4,0-2.5,1-2.6,2.4c0,1.4,1,2.5,2.4,2.6c9.9,0.3,19.9,0.7,30,1.1
		c0,0,0.1,0,0.1,0c1.3,0,2.4-1.1,2.5-2.4C1343.8,140.9,1342.7,139.7,1341.3,139.6z"/>
	<path class="st0" d="M1380.8,847.6c-10.1,0.5-20.2,1-29.9,1.4c-1.4,0.1-2.4,1.2-2.4,2.6c0.1,1.3,1.2,2.4,2.5,2.4c0,0,0.1,0,0.1,0
		c9.7-0.4,19.8-0.9,30-1.4c1.4-0.1,2.4-1.2,2.4-2.6S1382.2,847.5,1380.8,847.6z"/>
	<path class="st0" d="M1440.6,844.4c-9.6,0.5-19.6,1.1-29.9,1.7c-1.4,0.1-2.4,1.3-2.4,2.6c0.1,1.3,1.2,2.4,2.5,2.4c0,0,0.1,0,0.1,0
		c10.4-0.6,20.4-1.1,30-1.7c1.4-0.1,2.4-1.3,2.4-2.6C1443.2,845.3,1442,844.3,1440.6,844.4z"/>
	<path class="st0" d="M1500.6,841.1c-8.4,0.4-17.9,0.9-30,1.6c-1.4,0.1-2.4,1.3-2.4,2.6c0.1,1.3,1.2,2.4,2.5,2.4c0,0,0.1,0,0.1,0
		c12.1-0.7,21.6-1.2,29.9-1.6c1.4-0.1,2.4-1.2,2.4-2.6C1503.1,842.1,1501.9,841.1,1500.6,841.1z"/>
	<path class="st0" d="M1521.3,147c-9.9-0.5-19.9-0.9-30-1.4c-1.4-0.1-2.5,1-2.6,2.4c-0.1,1.4,1,2.5,2.4,2.6c10,0.4,20,0.9,30,1.4
		c0,0,0.1,0,0.1,0c1.3,0,2.4-1,2.5-2.4C1523.8,148.3,1522.7,147.1,1521.3,147z"/>
	<path class="st0" d="M1320.8,850.2c-9.9,0.4-20,0.7-30,1c-1.4,0-2.5,1.2-2.4,2.6c0,1.4,1.2,2.4,2.5,2.4c0,0,0.1,0,0.1,0
		c10-0.3,20.1-0.6,30-1c1.4-0.1,2.5-1.2,2.4-2.6C1323.4,851.2,1322.2,850.1,1320.8,850.2z"/>
	<path class="st0" d="M1461.4,144.4c-10-0.4-20-0.8-30-1.3c-1.4-0.1-2.5,1-2.6,2.4c-0.1,1.4,1,2.5,2.4,2.6c10,0.4,20,0.8,30,1.3
		c0,0,0.1,0,0.1,0c1.3,0,2.4-1.1,2.5-2.4C1463.8,145.6,1462.7,144.4,1461.4,144.4z"/>
	<path class="st0" d="M1081,852.2c-10-0.2-20.1-0.4-30-0.7c-1.4-0.1-2.5,1.1-2.6,2.4c0,1.4,1.1,2.5,2.4,2.6c9.9,0.3,20,0.5,30,0.7
		c0,0,0,0,0.1,0c1.4,0,2.5-1.1,2.5-2.5C1083.5,853.4,1082.4,852.2,1081,852.2z"/>
	<path class="st0" d="M1670,164.4c10.5,2.2,20.1,4.8,28.6,7.8c0.3,0.1,0.6,0.1,0.8,0.1c1,0,2-0.6,2.4-1.7c0.5-1.3-0.2-2.7-1.5-3.2
		c-8.7-3-18.5-5.7-29.2-7.9c-1.3-0.3-2.7,0.6-3,1.9C1667.8,162.8,1668.7,164.1,1670,164.4z"/>
	<path class="st0" d="M1161.3,133.9c-10.5-0.3-20.5-0.6-30-0.8c0,0,0,0-0.1,0c-1.4,0-2.5,1.1-2.5,2.4c0,1.4,1.1,2.5,2.4,2.6
		c9.5,0.2,19.6,0.5,30,0.8c0,0,0,0,0.1,0c1.3,0,2.5-1.1,2.5-2.4C1163.8,135.1,1162.7,133.9,1161.3,133.9z"/>
	<path class="st0" d="M1281.3,137.6c-10.2-0.3-20.2-0.7-30-1c-1.4,0-2.5,1-2.6,2.4c0,1.4,1,2.5,2.4,2.6c9.8,0.3,19.8,0.6,30,1
		c0,0,0.1,0,0.1,0c1.3,0,2.5-1.1,2.5-2.4C1283.8,138.8,1282.7,137.6,1281.3,137.6z"/>
	<path class="st0" d="M1261,852C1261,852,1260.9,852,1261,852c-10,0.2-20,0.4-30,0.6c-1.4,0-2.5,1.2-2.5,2.5c0,1.4,1.1,2.5,2.5,2.5
		c0,0,0,0,0,0c10-0.2,20.1-0.4,30-0.6c1.4,0,2.5-1.2,2.4-2.6C1263.4,853,1262.3,852,1261,852z"/>
	<path class="st0" d="M1201,852.9C1201,852.9,1201,852.9,1201,852.9c-9.9,0.1-20,0.1-30,0.1c-1.4,0-2.5,1.1-2.5,2.5
		c0,1.4,1.1,2.5,2.5,2.5c0,0,0,0,0,0c10,0,20.1-0.1,30-0.1c1.4,0,2.5-1.1,2.5-2.5C1203.5,854,1202.4,852.9,1201,852.9z"/>
	<path class="st0" d="M1221.3,135.7c-10.3-0.3-20.3-0.6-30-0.9c-1.4,0-2.5,1-2.6,2.4c0,1.4,1,2.5,2.4,2.6c9.7,0.3,19.7,0.6,30,0.9
		c0,0,0.1,0,0.1,0c1.3,0,2.5-1.1,2.5-2.4C1223.8,136.9,1222.7,135.7,1221.3,135.7z"/>
	<path class="st0" d="M1141,853c-9.9-0.1-20-0.2-30-0.3c0,0,0,0,0,0c-1.4,0-2.5,1.1-2.5,2.5c0,1.4,1.1,2.5,2.5,2.5
		c10,0.1,20.1,0.2,30,0.3c0,0,0,0,0,0c1.4,0,2.5-1.1,2.5-2.5C1143.5,854.1,1142.4,853,1141,853z"/>
	<path class="st0" d="M1560.6,839.5c-1.5,0-3.1,0-4.6,0c-7.7,0-16,0.1-25.4,0.4c-1.4,0-2.5,1.2-2.4,2.6c0,1.4,1.2,2.4,2.5,2.4
		c0,0,0.1,0,0.1,0c9.4-0.3,17.7-0.4,25.3-0.4c1.6,0,3.1,0,4.7,0c1.4,0,2.5-1.2,2.5-2.5C1563.1,840.5,1562,839.5,1560.6,839.5z"/>
	<path class="st0" d="M1751.7,527.8c-1.4-0.1-2.5,1-2.6,2.4c-0.5,9.9-0.9,19.9-1.5,30c-0.1,1.4,1,2.6,2.4,2.6c0,0,0.1,0,0.1,0
		c1.3,0,2.4-1,2.5-2.4c0.5-10.1,1-20.1,1.5-30C1754.2,529,1753.1,527.8,1751.7,527.8z"/>
	<path class="st0" d="M1756.6,407.8c-1.4,0-2.5,1-2.6,2.4c-0.3,9.8-0.7,19.8-1.1,30c-0.1,1.4,1,2.5,2.4,2.6c0,0,0.1,0,0.1,0
		c1.3,0,2.4-1.1,2.5-2.4c0.4-10.2,0.7-20.2,1.1-30C1759,409,1757.9,407.9,1756.6,407.8z"/>
	<path class="st0" d="M1745.3,647.7c-1.4-0.1-2.6,1-2.6,2.3c-0.4,6.3-0.8,12.6-1.2,18.8c-0.2,3.7-0.5,7.4-0.9,11
		c-0.1,1.4,0.8,2.6,2.2,2.8c0.1,0,0.2,0,0.3,0c1.3,0,2.3-1,2.5-2.2c0.4-3.7,0.7-7.4,0.9-11.2c0.4-6.3,0.8-12.6,1.2-18.9
		C1747.8,648.9,1746.7,647.7,1745.3,647.7z"/>
	<path class="st0" d="M1748.7,587.7c-1.4-0.1-2.6,1-2.6,2.4c-0.5,10-1.1,20-1.7,30c-0.1,1.4,1,2.6,2.4,2.6c0,0,0.1,0,0.1,0
		c1.3,0,2.4-1,2.5-2.4c0.6-10,1.1-20,1.7-30C1751.2,589,1750.1,587.8,1748.7,587.7z"/>
	<path class="st0" d="M1761.8,230.1c-0.3-1.4-1.6-2.2-3-1.9c-1.4,0.3-2.2,1.6-1.9,3c1.7,8.2,2.5,17.2,2.5,28.5l0,0.8
		c0,1.4,1.1,2.5,2.5,2.5c0,0,0,0,0,0c1.4,0,2.5-1.1,2.5-2.5l0-0.8C1764.3,248,1763.5,238.6,1761.8,230.1z"/>
	<path class="st0" d="M1760.8,287.9c-1.4-0.1-2.6,1-2.6,2.3l-0.1,2.4c-0.6,9-1.1,18.2-1.4,27.7c0,1.4,1,2.5,2.4,2.6c0,0,0,0,0.1,0
		c1.3,0,2.5-1.1,2.5-2.4c0.3-9.4,0.8-18.6,1.4-27.5l0.1-2.4C1763.2,289.1,1762.1,288,1760.8,287.9z"/>
	<path class="st0" d="M1758.4,347.8c-1.4,0-2.5,1.1-2.6,2.4c-0.3,9.6-0.5,19.6-0.9,30c0,1.4,1,2.5,2.4,2.6c0,0,0.1,0,0.1,0
		c1.3,0,2.5-1.1,2.5-2.4c0.3-10.4,0.6-20.4,0.9-30C1760.9,349,1759.8,347.9,1758.4,347.8z"/>
	<path class="st0" d="M1754.3,467.8c-1.4-0.1-2.5,1-2.6,2.4c-0.4,9.9-0.8,19.9-1.3,30c-0.1,1.4,1,2.5,2.4,2.6c0,0,0.1,0,0.1,0
		c1.3,0,2.4-1,2.5-2.4c0.4-10.1,0.9-20.1,1.3-30C1756.8,469,1755.7,467.9,1754.3,467.8z"/>
	<path class="st0" d="M1619.2,830.9c-9.3,2.7-19,4.8-29,6.2c-1.4,0.2-2.3,1.5-2.1,2.8c0.2,1.2,1.2,2.1,2.5,2.1c0.1,0,0.2,0,0.4,0
		c10.2-1.5,20.2-3.6,29.7-6.4c1.3-0.4,2.1-1.8,1.7-3.1C1621.9,831.2,1620.5,830.5,1619.2,830.9z"/>
	<path class="st0" d="M1581.3,150c-9.9-0.5-19.9-1-30-1.5c-1.4-0.1-2.6,1-2.6,2.4s1,2.6,2.4,2.6c10.1,0.5,20.1,1,30,1.5
		c0,0,0.1,0,0.1,0c1.3,0,2.4-1,2.5-2.4C1583.7,151.3,1582.7,150.1,1581.3,150z"/>
	<path class="st0" d="M1738.6,707.2c-1.3-0.3-2.7,0.5-3,1.8c-2.4,9.8-5.4,19.3-9.1,28.1c-0.5,1.3,0.1,2.7,1.4,3.3
		c0.3,0.1,0.6,0.2,1,0.2c1,0,1.9-0.6,2.3-1.5c3.8-9.1,6.9-18.8,9.3-28.9C1740.8,708.8,1740,707.5,1738.6,707.2z"/>
	<path class="st0" d="M1641.3,154.6c-9.3-1.2-19.4-2.1-30-2.9c-1.4-0.1-2.6,0.9-2.7,2.3c-0.1,1.4,0.9,2.6,2.3,2.7
		c10.5,0.7,20.5,1.7,29.7,2.9c0.1,0,0.2,0,0.3,0c1.2,0,2.3-0.9,2.5-2.2C1643.6,156.1,1642.6,154.8,1641.3,154.6z"/>
	<path class="st0" d="M1746,204.5c0.5,0.7,1.3,1.1,2.1,1.1c0.5,0,1-0.1,1.4-0.4c1.1-0.8,1.4-2.3,0.6-3.5
		c-5.6-8.2-12.9-15.1-22.3-21.1c-1.2-0.7-2.7-0.4-3.5,0.7c-0.7,1.2-0.4,2.7,0.7,3.5C1733.9,190.4,1740.7,196.9,1746,204.5z"/>
	<path class="st0" d="M1716.3,762.5c-1.2-0.7-2.7-0.4-3.5,0.8c-5.3,8.3-11.5,16.1-18.2,23.1c-1,1-0.9,2.6,0.1,3.5
		c0.5,0.5,1.1,0.7,1.7,0.7c0.7,0,1.3-0.3,1.8-0.8c7-7.3,13.3-15.3,18.8-23.9C1717.8,764.8,1717.5,763.3,1716.3,762.5z"/>
	<path class="st0" d="M1672.3,805.6c-7.9,5.6-16.5,10.6-25.5,14.8c-1.2,0.6-1.8,2.1-1.2,3.3c0.4,0.9,1.3,1.4,2.3,1.4
		c0.4,0,0.7-0.1,1.1-0.2c9.3-4.4,18.2-9.5,26.3-15.3c1.1-0.8,1.4-2.4,0.6-3.5C1675,805.1,1673.5,804.8,1672.3,805.6z"/>
	<path class="st0" d="M1064,134l43.3,19.8l-6.4-16.4l0.2,0c0,0,0,0,0.1,0c1.4,0,2.5-1.1,2.5-2.4c0-1.4-1.1-2.5-2.4-2.6l0,0l7.2-15.6
		L1064,134z"/>
</g>
</svg>
