<?xml version="1.0" encoding="utf-8"?>
<!-- Generator: Adobe Illustrator 24.0.1, SVG Export Plug-In . SVG Version: 6.00 Build 0)  -->
<svg version="1.1" id="Irwindale_Figure_Eight__Pit_Road"
	 xmlns="http://www.w3.org/2000/svg" xmlns:xlink="http://www.w3.org/1999/xlink" x="0px" y="0px" viewBox="0 0 1920 1080"
	 style="enable-background:new 0 0 1920 1080;" xml:space="preserve">
<style type="text/css">
	.st0{fill:#D82520;}
</style>
<title>pitroad</title>
<g id="Pitroad">
	<path class="st0" d="M909.6,213.3c-9.6,2.1-19.2,4.9-29.1,8.7c-1.3,0.5-1.9,1.9-1.5,3.2c0.4,1,1.3,1.6,2.3,1.6
		c0.3,0,0.6-0.1,0.9-0.2c9.7-3.6,19-6.4,28.4-8.5c1.3-0.3,2.2-1.6,1.9-3C912.3,213.9,910.9,213,909.6,213.3z"/>
	<path class="st0" d="M852.8,234.1c-8.2,4.1-16.9,8.7-26.6,14.2c-1.2,0.7-1.6,2.2-0.9,3.4c0.5,0.8,1.3,1.3,2.2,1.3
		c0.4,0,0.8-0.1,1.2-0.3c9.6-5.4,18.2-10,26.3-14.1c1.2-0.6,1.7-2.1,1.1-3.3C855.6,234,854.1,233.5,852.8,234.1z"/>
	<path class="st0" d="M800.4,263.7c-8.3,5.2-16.7,10.9-25,16.9c-1.1,0.8-1.4,2.4-0.6,3.5c0.5,0.7,1.3,1,2,1c0.5,0,1-0.2,1.5-0.5
		c8.2-6,16.5-11.6,24.7-16.8c1.2-0.7,1.5-2.3,0.8-3.4C803.1,263.3,801.5,262.9,800.4,263.7z"/>
	<path class="st0" d="M969.9,209.1c-11.7,0.2-21.8,0.5-30.1,0.9c-1.4,0.1-2.4,1.2-2.4,2.6c0.1,1.3,1.2,2.4,2.5,2.4c0,0,0.1,0,0.1,0
		c8.2-0.4,18.3-0.7,29.9-0.9c1.4,0,2.5-1.2,2.5-2.5C972.4,210.2,971.3,209.1,969.9,209.1z"/>
	<path class="st0" d="M1090,209c-10.1-0.1-20.2-0.2-30-0.3c0,0,0,0,0,0c-1.4,0-2.5,1.1-2.5,2.5c0,1.4,1.1,2.5,2.5,2.5
		c9.8,0.1,19.9,0.2,30,0.3c0,0,0,0,0,0c1.4,0,2.5-1.1,2.5-2.5C1092.5,210.2,1091.4,209,1090,209z"/>
	<path class="st0" d="M755,299.4c-0.9-1.1-2.4-1.2-3.5-0.4c-8.1,6.6-15.8,13.3-22.7,19.8c-1,0.9-1.1,2.5-0.1,3.5
		c0.5,0.5,1.2,0.8,1.8,0.8c0.6,0,1.2-0.2,1.7-0.7c6.9-6.5,14.5-13.1,22.5-19.6C755.7,302,755.9,300.4,755,299.4z"/>
	<path class="st0" d="M1029.9,208.6l-2.5,0c-9.6,0-18.8,0-27.5,0.1c-1.4,0-2.5,1.1-2.5,2.5c0,1.4,1.1,2.5,2.5,2.5c0,0,0,0,0,0
		c8.7-0.1,17.9-0.1,27.5-0.1l2.5,0c0,0,0,0,0,0c1.4,0,2.5-1.1,2.5-2.5C1032.4,209.8,1031.3,208.6,1029.9,208.6z"/>
	<path class="st0" d="M1179.9,215.9c10.8,0.3,20.9,0.7,30,1.1c0,0,0.1,0,0.1,0c1.3,0,2.4-1.1,2.5-2.4c0.1-1.4-1-2.5-2.4-2.6
		c-9.1-0.4-19.2-0.7-30-1.1c-1.4,0-2.5,1-2.6,2.4C1177.5,214.7,1178.5,215.8,1179.9,215.9z"/>
	<path class="st0" d="M1560.2,408.8c0.4,0.9,1.3,1.4,2.2,1.4c0.4,0,0.7-0.1,1.1-0.3c1.2-0.6,1.8-2.1,1.2-3.3
		c-4.3-8.8-9.4-17.6-15.1-26.3c-0.8-1.2-2.3-1.5-3.5-0.7c-1.1,0.8-1.5,2.3-0.7,3.5C1551,391.6,1556,400.2,1560.2,408.8z"/>
	<path class="st0" d="M1571.1,436.8c2.8,9.6,5.1,19.1,7.1,28.4c0.2,1.2,1.3,2,2.4,2c0.2,0,0.3,0,0.5-0.1c1.4-0.3,2.2-1.6,1.9-3
		c-1.9-9.4-4.3-19.1-7.1-28.8l-0.1-0.5c-0.4-1.3-1.8-2.1-3.1-1.7c-1.3,0.4-2.1,1.8-1.7,3.1L1571.1,436.8z"/>
	<path class="st0" d="M1527.6,359.4c0.5,0.6,1.2,0.9,1.9,0.9c0.6,0,1.1-0.2,1.6-0.6c1.1-0.9,1.2-2.5,0.3-3.5
		c-6.3-7.5-13.2-15-20.6-22.2c-1-1-2.6-0.9-3.5,0c-1,1-0.9,2.6,0,3.5C1514.5,344.6,1521.3,351.9,1527.6,359.4z"/>
	<path class="st0" d="M711.5,361.6c-6.3-1.6-7.6-2.9-7.6-4.5c0-0.9,0.3-2.1,1-3.5c1.1-2.4,3.4-5.8,6.7-9.7c0.9-1.1,0.7-2.6-0.3-3.5
		s-2.6-0.7-3.5,0.3c-3.6,4.3-6,8-7.3,10.8c-1,2.1-1.5,4-1.5,5.6c0,6.5,7.1,8.3,11.4,9.3c0.2,0.1,0.4,0.1,0.6,0.1
		c1.1,0,2.1-0.8,2.4-1.9C713.7,363.3,712.9,362,711.5,361.6z"/>
	<path class="st0" d="M1461.4,299.8c8.2,5.7,16.2,11.8,23.8,17.9c0.5,0.4,1,0.6,1.6,0.6c0.7,0,1.4-0.3,1.9-0.9
		c0.9-1.1,0.7-2.6-0.3-3.5c-7.6-6.3-15.7-12.4-24.1-18.2c-1.1-0.8-2.7-0.5-3.5,0.6C1459.9,297.4,1460.2,299,1461.4,299.8z"/>
	<path class="st0" d="M1119.9,214.5c10.2,0.2,20.3,0.4,30,0.6c0,0,0,0,0.1,0c1.4,0,2.5-1.1,2.5-2.4c0-1.4-1.1-2.5-2.4-2.6
		c-9.7-0.2-19.8-0.4-30-0.6c-1.4,0-2.5,1.1-2.5,2.5C1117.4,213.3,1118.5,214.4,1119.9,214.5z"/>
	<path class="st0" d="M1122.6,724.3c-6-2.3-10.5-4-14.1-5.2c-1.3-0.4-2.7,0.3-3.2,1.6c-0.4,1.3,0.3,2.7,1.6,3.2
		c3.5,1.2,8.1,2.9,13.9,5.2c0.3,0.1,0.6,0.2,0.9,0.2c1,0,1.9-0.6,2.3-1.6C1124.6,726.3,1123.9,724.8,1122.6,724.3z"/>
	<path class="st0" d="M1178.4,746.7c-10.1-4-19.7-7.9-27.8-11.2c-1.3-0.5-2.7,0.1-3.3,1.4c-0.5,1.3,0.1,2.7,1.4,3.3
		c8.2,3.3,17.7,7.2,27.9,11.2c0.3,0.1,0.6,0.2,0.9,0.2c1,0,1.9-0.6,2.3-1.6C1180.3,748.7,1179.6,747.2,1178.4,746.7z"/>
	<path class="st0" d="M1503.9,709.9c-7,6.9-14.5,13.6-22.2,19.8c-1.1,0.9-1.2,2.4-0.4,3.5c0.5,0.6,1.2,0.9,1.9,0.9
		c0.5,0,1.1-0.2,1.6-0.6c7.8-6.3,15.4-13.1,22.6-20.1c1-1,1-2.6,0-3.5C1506.5,708.9,1504.9,708.9,1503.9,709.9z"/>
	<path class="st0" d="M1545.2,663.4c-1.1-0.8-2.7-0.5-3.5,0.7c-5.5,8.2-11.5,16.2-17.7,23.9c-0.9,1.1-0.7,2.6,0.3,3.5
		c0.5,0.4,1,0.6,1.6,0.6c0.7,0,1.4-0.3,1.9-0.9c6.4-7.7,12.5-15.9,18-24.3C1546.7,665.7,1546.4,664.2,1545.2,663.4z"/>
	<path class="st0" d="M1457.7,747.1c-5.6,3.6-14.6,9.3-25.6,15.4c-1.2,0.7-1.6,2.2-1,3.4c0.5,0.8,1.3,1.3,2.2,1.3
		c0.4,0,0.8-0.1,1.2-0.3c11.1-6.2,20.2-11.9,25.9-15.5c1.2-0.8,1.5-2.3,0.7-3.5C1460.4,746.7,1458.8,746.4,1457.7,747.1z"/>
	<path class="st0" d="M1585.8,551.7c-1.4-0.2-2.6,0.8-2.8,2.2c-1.1,9.9-2.8,19.7-5.1,29.2c-0.3,1.3,0.5,2.7,1.8,3
		c0.2,0,0.4,0.1,0.6,0.1c1.1,0,2.2-0.8,2.4-1.9c2.3-9.7,4.1-19.8,5.2-29.8C1588.2,553.1,1587.2,551.9,1585.8,551.7z"/>
	<path class="st0" d="M1587.8,494.1c-0.2-1.4-1.4-2.4-2.8-2.2c-1.4,0.2-2.4,1.4-2.2,2.8c1.1,10,1.7,20,1.8,29.7
		c0,1.4,1.1,2.5,2.5,2.5c0,0,0,0,0,0c1.4,0,2.5-1.1,2.5-2.5C1589.5,514.4,1588.9,504.2,1587.8,494.1z"/>
	<path class="st0" d="M1572.4,610c-1.3-0.5-2.7,0.2-3.2,1.5c-3.5,9.1-7.6,18.2-12.2,27.1c-0.6,1.2-0.2,2.7,1.1,3.4
		c0.4,0.2,0.8,0.3,1.2,0.3c0.9,0,1.8-0.5,2.2-1.3c4.7-9,8.9-18.3,12.4-27.6C1574.3,612,1573.7,610.5,1572.4,610z"/>
	<path class="st0" d="M1437.5,284.1c0.9,0,1.7-0.4,2.2-1.2c0.7-1.2,0.3-2.7-0.9-3.4c-8.5-5-17.4-9.9-26.5-14.4
		c-1.2-0.6-2.7-0.1-3.4,1.1c-0.6,1.2-0.1,2.7,1.1,3.4c9,4.5,17.8,9.3,26.2,14.3C1436.6,283.9,1437.1,284.1,1437.5,284.1z"/>
	<path class="st0" d="M1349.1,794.2c-10.8,1.6-20.6,1.6-29,0c-1.4-0.3-2.7,0.6-2.9,2c-0.3,1.4,0.6,2.7,2,2.9
		c4.5,0.9,9.5,1.3,14.6,1.3c5,0,10.5-0.4,16.1-1.3c1.4-0.2,2.3-1.5,2.1-2.8S1350.5,794,1349.1,794.2z"/>
	<path class="st0" d="M1327.9,235.7c1,0,2-0.7,2.4-1.7c0.4-1.3-0.3-2.7-1.6-3.2c-10.6-3.6-20-6.4-28.9-8.7c-1.3-0.3-2.7,0.5-3,1.8
		c-0.3,1.3,0.5,2.7,1.8,3c8.8,2.2,18.1,5,28.5,8.5C1327.4,235.7,1327.7,235.7,1327.9,235.7z"/>
	<path class="st0" d="M1291.4,786.4c-9.2-2.7-18.8-5.7-28.6-8.9c-1.3-0.4-2.7,0.3-3.2,1.6c-0.4,1.3,0.3,2.7,1.6,3.2
		c9.8,3.2,19.5,6.2,28.7,8.9c0.2,0.1,0.5,0.1,0.7,0.1c1.1,0,2.1-0.7,2.4-1.8C1293.5,788.2,1292.7,786.8,1291.4,786.4z"/>
	<path class="st0" d="M1269.8,221.4c1.2,0,2.3-0.9,2.5-2.2c0.2-1.4-0.8-2.6-2.1-2.8c-6.7-0.9-13.9-1.7-21.8-2.4
		c-2.4-0.2-5.2-0.4-8.2-0.6c-1.4-0.1-2.6,1-2.7,2.3c-0.1,1.4,1,2.6,2.3,2.7c3,0.2,5.7,0.4,8.1,0.6c7.8,0.7,14.9,1.4,21.5,2.4
		C1269.6,221.4,1269.7,221.4,1269.8,221.4z"/>
	<path class="st0" d="M1405.4,776c-9.6,4.4-18.9,8.1-27.6,11c-1.3,0.4-2,1.9-1.6,3.2c0.4,1,1.3,1.7,2.4,1.7c0.3,0,0.5,0,0.8-0.1
		c8.9-3,18.4-6.8,28.1-11.2c1.3-0.6,1.8-2.1,1.2-3.3C1408.2,776,1406.7,775.4,1405.4,776z"/>
	<path class="st0" d="M1384,257.1c1,0,1.9-0.6,2.3-1.5c0.5-1.3,0-2.7-1.3-3.3c-4.2-1.8-8.5-3.5-12.7-5.2c-5.6-2.2-10.6-4.1-15.2-5.9
		c-1.3-0.5-2.7,0.1-3.2,1.4c-0.5,1.3,0.2,2.7,1.4,3.2c4.6,1.8,9.6,3.7,15.2,5.9c4.2,1.7,8.5,3.4,12.6,5.2
		C1383.3,257,1383.6,257.1,1384,257.1z"/>
	<path class="st0" d="M1234.4,767.9c-9-3.2-18.5-6.7-28.1-10.3c-1.3-0.5-2.7,0.2-3.2,1.5c-0.5,1.3,0.2,2.7,1.5,3.2
		c9.7,3.7,19.2,7.1,28.2,10.4c0.3,0.1,0.6,0.1,0.8,0.1c1,0,2-0.6,2.4-1.7C1236.4,769.8,1235.7,768.3,1234.4,767.9z"/>
	<path class="st0" d="M761.9,380.3c-6.6-4.4-13.5-8-21.1-10.9c-1.3-0.5-2.7,0.2-3.2,1.5c-0.5,1.3,0.2,2.7,1.5,3.2
		c6.8,2.6,13.1,5.7,19,9.6l-15.5,6.4l44.3,17.6l-18.3-44L761.9,380.3z"/>
</g>
</svg>
