<?xml version="1.0" encoding="utf-8"?>
<!-- Generator: Adobe Illustrator 24.0.1, SVG Export Plug-In . SVG Version: 6.00 Build 0)  -->
<svg version="1.1" id="_Legends_Oval_Pit_Road" xmlns="http://www.w3.org/2000/svg" xmlns:xlink="http://www.w3.org/1999/xlink"
	 x="0px" y="0px" viewBox="0 0 1920 1080" style="enable-background:new 0 0 1920 1080;" xml:space="preserve">
<style type="text/css">
	.st0{fill:#D82520;}
</style>
<title>pitroad</title>
<g>
	<path class="st0" d="M518,893.4c-9.2-2.9-18.9-6-28.4-9.4c-1.3-0.5-2.7,0.2-3.2,1.5c-0.5,1.3,0.2,2.7,1.5,3.2
		c9.6,3.4,19.4,6.5,28.6,9.4c0.3,0.1,0.5,0.1,0.8,0.1c1.1,0,2-0.7,2.4-1.7C520,895.2,519.3,893.8,518,893.4z"/>
	<path class="st0" d="M545.6,848.7c1.4,0,2.5-1.1,2.5-2.5c0-1.4-1.1-2.5-2.5-2.5c-6.9-0.1-13.3-0.1-19-0.2c-2.9,0-6.5-0.1-11-0.3
		c-1.4,0-2.5,1-2.6,2.4c0,1.4,1,2.5,2.4,2.6c4.5,0.1,8.2,0.2,11.1,0.3C532.3,848.5,538.7,848.6,545.6,848.7
		C545.6,848.7,545.6,848.7,545.6,848.7z"/>
	<path class="st0" d="M632.1,931.4c-9-3.1-18.7-6.3-28.5-9.6c-1.3-0.4-2.7,0.3-3.2,1.6c-0.4,1.3,0.3,2.7,1.6,3.2
		c9.8,3.3,19.4,6.6,28.5,9.6c0.3,0.1,0.5,0.1,0.8,0.1c1,0,2-0.7,2.4-1.7C634.1,933.2,633.4,931.8,632.1,931.4z"/>
	<path class="st0" d="M461.9,873c-7.2-3.3-13.1-6.6-17.7-9.8c-2.9-2-4.9-3.9-6-5.7c-0.7-1.2-2.3-1.5-3.4-0.8
		c-1.2,0.7-1.5,2.3-0.8,3.4c1.5,2.4,3.9,4.7,7.4,7.1c4.8,3.3,11,6.8,18.4,10.2c0.3,0.2,0.7,0.2,1,0.2c0.9,0,1.8-0.5,2.3-1.5
		C463.7,875.1,463.1,873.6,461.9,873z"/>
	<path class="st0" d="M575.7,848.9c9.5,0.1,19.6,0.1,30.1,0.2c0,0,0,0,0,0c1.4,0,2.5-1.1,2.5-2.5c0-1.4-1.1-2.5-2.5-2.5
		c-10.5-0.1-20.6-0.1-30.1-0.2c0,0,0,0,0,0c-1.4,0-2.5,1.1-2.5,2.5C573.2,847.8,574.3,848.9,575.7,848.9z"/>
	<path class="st0" d="M488.1,844.7c0-1.4-1-2.5-2.4-2.6c-10.1-0.3-17.8-0.5-24.1-0.5c-2.1,0-4.1,0-6,0.1c-1.4,0-2.5,1.2-2.5,2.5
		s1.2,2.5,2.5,2.5c1.9,0,3.9,0,5.9-0.1c6.3,0,13.9,0.2,23.9,0.5c0,0,0.1,0,0.1,0C486.9,847.1,488,846,488.1,844.7z"/>
	<path class="st0" d="M665.9,849.4c1.4,0,2.5-1.1,2.5-2.5c0-1.4-1.1-2.5-2.5-2.5c-10.2,0-20.2-0.1-30.1-0.1c0,0,0,0,0,0
		c-1.4,0-2.5,1.1-2.5,2.5c0,1.4,1.1,2.5,2.5,2.5C645.6,849.3,655.7,849.3,665.9,849.4C665.9,849.4,665.9,849.4,665.9,849.4z"/>
	<path class="st0" d="M575.1,912.2c-10.3-3.5-20.1-6.7-28.5-9.5c-1.3-0.4-2.7,0.3-3.2,1.6c-0.4,1.3,0.3,2.7,1.6,3.2
		c8.5,2.8,18.2,6.1,28.5,9.5c0.3,0.1,0.5,0.1,0.8,0.1c1,0,2-0.7,2.4-1.7C577.1,914,576.4,912.6,575.1,912.2z"/>
	<path class="st0" d="M807.4,965.4c-10-0.4-20.1-1.1-29.8-1.9c-1.4-0.1-2.6,0.9-2.7,2.3c-0.1,1.4,0.9,2.6,2.3,2.7
		c9.9,0.8,20,1.5,30,1.9c0,0,0.1,0,0.1,0c1.3,0,2.4-1,2.5-2.4C809.8,966.7,808.8,965.5,807.4,965.4z"/>
	<path class="st0" d="M846.2,849.9c1.4,0,2.5-1.1,2.5-2.5c0-1.4-1.1-2.5-2.5-2.5l-30.1-0.1c0,0,0,0,0,0c-1.4,0-2.5,1.1-2.5,2.5
		c0,1.4,1.1,2.5,2.5,2.5L846.2,849.9C846.2,849.9,846.2,849.9,846.2,849.9z"/>
	<path class="st0" d="M906.5,845.1c0,0-11.3,0-30.2-0.1c0,0,0,0,0,0c-1.4,0-2.5,1.1-2.5,2.5c0,1.4,1.1,2.5,2.5,2.5
		c18.9,0,30.2,0.1,30.2,0.1c0,0,0,0,0,0c1.4,0,2.5-1.1,2.5-2.5C909,846.2,907.9,845.1,906.5,845.1z"/>
	<path class="st0" d="M747.8,960.5c-10.1-1.3-20.1-2.8-29.6-4.4c-1.4-0.2-2.7,0.7-2.9,2c-0.2,1.4,0.7,2.7,2,2.9
		c9.6,1.7,19.6,3.2,29.8,4.4c0.1,0,0.2,0,0.3,0c1.2,0,2.3-0.9,2.5-2.2C750.2,961.9,749.2,960.6,747.8,960.5z"/>
	<path class="st0" d="M726,849.6c1.4,0,2.5-1.1,2.5-2.5c0-1.4-1.1-2.5-2.5-2.5l-30.1-0.1c0,0,0,0,0,0c-1.4,0-2.5,1.1-2.5,2.5
		c0,1.4,1.1,2.5,2.5,2.5L726,849.6C726,849.6,726,849.6,726,849.6z"/>
	<path class="st0" d="M786.1,849.8c1.4,0,2.5-1.1,2.5-2.5c0-1.4-1.1-2.5-2.5-2.5c-9.7,0-19.8-0.1-30.1-0.1c0,0,0,0,0,0
		c-1.4,0-2.5,1.1-2.5,2.5c0,1.4,1.1,2.5,2.5,2.5C766.3,849.7,776.3,849.8,786.1,849.8C786.1,849.8,786.1,849.8,786.1,849.8z"/>
	<path class="st0" d="M689,950.1c-4.9-1.2-7.5-2-7.6-2l0,0c-0.4-0.2-0.9-0.3-1.4-0.5l-19.5-6.6c-1.3-0.4-2.7,0.3-3.2,1.6
		c-0.4,1.3,0.3,2.7,1.6,3.2c12.7,4.3,20.9,7.1,21,7.1l0.1,0c0.1,0,2.7,0.8,7.8,2c0.2,0,0.4,0.1,0.6,0.1c1.1,0,2.1-0.8,2.4-1.9
		C691.2,951.7,690.4,950.4,689,950.1z"/>
	<path class="st0" d="M860.7,965.9c-6.3,0.1-12.6,0.2-18.8,0.2c-1.5,0-3.1,0-4.6,0c0,0,0,0,0,0c-1.4,0-2.5,1.1-2.5,2.5
		c0,1.4,1.1,2.5,2.5,2.5c1.4,0,2.8,0,4.3,0c6.4,0,12.9-0.1,19.4-0.2l-6.1,16.3l43-20.4l-44.7-16.5L860.7,965.9z"/>
</g>
</svg>
