<svg id="Grand_Prix_-_Pit_Road" data-name="Grand Prix - Pit Road" xmlns="http://www.w3.org/2000/svg" viewBox="0 0 1920 1080"><defs><style>.cls-1{fill:#d82520;}</style></defs><g id="Pit_Road" data-name="Pit Road"><path class="cls-1" d="M468.17,612a2.5,2.5,0,1,0-4.47,2.24l13.45,26.89a2.5,2.5,0,1,0,4.47-2.23Z"/><path class="cls-1" d="M441.2,558.1a2.5,2.5,0,1,0-4.47,2.25l13.5,26.94a2.5,2.5,0,0,0,4.47-2.24Z"/><path class="cls-1" d="M495.07,665.75a2.5,2.5,0,0,0-4.48,2.23L504,694.88a2.5,2.5,0,0,0,4.48-2.23Z"/><path class="cls-1" d="M428.17,518.74l14.86,8-14.36-45.42-22.51,42,16.92-5.4A96.55,96.55,0,0,0,425.29,532a2.51,2.51,0,0,0,2.43,1.93,2.36,2.36,0,0,0,.58-.07,2.5,2.5,0,0,0,1.86-3A90.37,90.37,0,0,1,428.17,518.74Z"/><path class="cls-1" d="M624.27,897.92l-.74-.27c-10.55-3.87-17.5-11.27-21.48-16.81a2.5,2.5,0,0,0-4.06,2.92c4.39,6.1,12.08,14.28,23.81,18.58l.84.31a2.6,2.6,0,0,0,.82.13,2.5,2.5,0,0,0,.81-4.86Z"/><path class="cls-1" d="M683.16,889.07a2.51,2.51,0,0,0-3.43-.89,82.74,82.74,0,0,1-22.36,9.07c-1.55.37-3.17.77-4.87,1.14a2.5,2.5,0,1,0,1.08,4.89c1.73-.39,3.39-.79,5-1.18a87.84,87.84,0,0,0,23.68-9.61A2.51,2.51,0,0,0,683.16,889.07Z"/><path class="cls-1" d="M575.38,827.34a2.5,2.5,0,0,0-4.49,2.2c5.34,10.85,9.78,20,13.22,27a2.51,2.51,0,0,0,2.25,1.41,2.48,2.48,0,0,0,1.09-.25,2.51,2.51,0,0,0,1.16-3.34C585.17,847.29,580.72,838.19,575.38,827.34Z"/><path class="cls-1" d="M548.7,773.42a2.5,2.5,0,1,0-4.47,2.22c4.64,9.35,9.12,18.38,13.35,26.94a2.5,2.5,0,0,0,2.24,1.39,2.47,2.47,0,0,0,1.11-.26,2.5,2.5,0,0,0,1.13-3.35C557.83,791.8,553.35,782.77,548.7,773.42Z"/><path class="cls-1" d="M521.92,719.56a2.5,2.5,0,0,0-4.48,2.23c4.51,9.05,9,18.06,13.4,26.92a2.51,2.51,0,0,0,2.24,1.39,2.62,2.62,0,0,0,1.12-.26,2.51,2.51,0,0,0,1.12-3.36Z"/></g></svg>