<svg id="Bark_River_-_Pit_Road" data-name="Bark River - Pit Road" xmlns="http://www.w3.org/2000/svg" viewBox="0 0 1920 1080"><defs><style>.cls-1{fill:#d82520;}</style></defs><path id="Pit_Road" data-name="Pit Road" class="cls-1" d="M372.54,236.21a2.49,2.49,0,0,0-3.44.81c-5.26,8.5-10.61,17-15.92,25.4a2.51,2.51,0,0,0,.77,3.45,2.54,2.54,0,0,0,1.34.39,2.48,2.48,0,0,0,2.11-1.16c5.32-8.37,10.69-16.94,16-25.45A2.51,2.51,0,0,0,372.54,236.21Zm-32.12,50.68a2.5,2.5,0,0,0-3.46.72l-5.12,7.8c-3.22,4.9-7,10.69-11.32,17.32a2.49,2.49,0,0,0,.74,3.45,2.43,2.43,0,0,0,1.36.41,2.49,2.49,0,0,0,2.1-1.14c4.29-6.62,8.09-12.4,11.3-17.29l5.12-7.81A2.5,2.5,0,0,0,340.42,286.89Zm-32.61,50.37a2.49,2.49,0,0,0-3.44.79c-3.49,5.56-7,11.2-10.39,16.76-1.59,2.59-3.44,5.63-5.34,8.88a2.5,2.5,0,0,0,4.32,2.52c1.87-3.21,3.71-6.22,5.28-8.79,3.4-5.55,6.88-11.17,10.36-16.71A2.51,2.51,0,0,0,307.81,337.26Zm-29.43,52.21a2.5,2.5,0,0,0-3.26,1.37c-2.21,5.41-4.17,11-5.85,16.55A116,116,0,0,0,266.15,420a2.5,2.5,0,0,0,2,2.91,2.35,2.35,0,0,0,.45,0,2.5,2.5,0,0,0,2.46-2,111.38,111.38,0,0,1,3-12c1.63-5.42,3.54-10.84,5.69-16.11A2.49,2.49,0,0,0,278.38,389.47ZM287,473.83a53.12,53.12,0,0,1-7.05-8.45,59.36,59.36,0,0,1-7.44-16,2.5,2.5,0,1,0-4.79,1.43,64.62,64.62,0,0,0,8.08,17.38,59,59,0,0,0,7.68,9.22,2.5,2.5,0,0,0,3.52-3.56Zm51.55,27.22-5.62-2a214.86,214.86,0,0,1-22.09-8.7,2.5,2.5,0,0,0-2.17,4.51,221.52,221.52,0,0,0,22.6,8.9l5.65,2a2.57,2.57,0,0,0,.82.14,2.5,2.5,0,0,0,.81-4.86Zm40.34,35.44,11.32-13.21-1.56-.49c-4.4-1.38-12.59-3.95-23.25-7.43A2.5,2.5,0,0,1,367,510.6c10.64,3.48,18.81,6,23.19,7.42l1.58.5-1.64-17.32,36.24,30.91Z"/></svg>