<svg id="IndyCar_2012-2018_-_Pit_Road" data-name="IndyCar 2012-2018 - Pit Road" xmlns="http://www.w3.org/2000/svg" viewBox="0 0 1920 1080"><defs><style>.cls-1{fill:#016699;}.cls-2{fill:#d82520;}</style></defs><g id="Mergeline"><path class="cls-1" d="M834.49,583.45a5,5,0,0,1-.87,7C819.9,601.15,809.84,609,809.84,609a5,5,0,0,1-6.13-7.9s10-7.8,23.76-18.48A5,5,0,0,1,834.49,583.45Zm40.31-37.89c-7.39,5.82-15.56,12.21-23.64,18.53a5,5,0,0,0,6.16,7.88c8.09-6.33,16.27-12.73,23.67-18.55a5,5,0,0,0-6.19-7.86Zm44.93-38.72a268.24,268.24,0,0,1-21.51,20.08,5,5,0,0,0,6.38,7.69A275.25,275.25,0,0,0,927,513.75a5,5,0,1,0-7.23-6.91Zm53-8.11-27.9-16.3h0L916.6,465.94l-5,8.63,26.83,15.68a4.66,4.66,0,0,0,2.66,1.55l26.63,15.56Z"/></g><path id="Pit_Road" data-name="Pit Road" class="cls-2" d="M185,615.59a2.51,2.51,0,0,1-2,1.06,2.46,2.46,0,0,1-1.43-.46c-8.1-5.69-16.89-12.06-24.42-17.54a2.5,2.5,0,0,1,2.94-4c7.51,5.46,16.28,11.82,24.35,17.49A2.51,2.51,0,0,1,185,615.59Zm35.77-101.41a2.5,2.5,0,0,0,1.43-4.55c-8.8-6.12-16.4-11.37-24.63-17a2.5,2.5,0,1,0-2.83,4.12c8.23,5.65,15.81,10.89,24.6,17A2.52,2.52,0,0,0,220.78,514.18ZM288,672.41c-6.2-3.35-15.81-8.57-26.39-14.37a2.5,2.5,0,1,0-2.4,4.38c10.59,5.81,20.21,11,26.42,14.39a2.5,2.5,0,0,0,2.37-4.4Zm-18.11-124a2.5,2.5,0,0,0,1.43-4.55l-24.56-17.12a2.5,2.5,0,1,0-2.86,4.1L268.45,548A2.54,2.54,0,0,0,269.88,548.42Zm-34.54,95.05c-10.71-6-19.46-11.05-26-15a2.5,2.5,0,0,0-2.56,4.3c6.58,3.93,15.37,9,26.11,15a2.47,2.47,0,0,0,1.22.32,2.5,2.5,0,0,0,1.23-4.68Zm-64-163a2.5,2.5,0,0,0,1.27-4.65A89.46,89.46,0,0,0,144,464.7a2.5,2.5,0,1,0-.94,4.91,84.75,84.75,0,0,1,27,10.53A2.46,2.46,0,0,0,171.3,480.49Zm-55.1-12.86a2.5,2.5,0,0,0-3.11-1.69c-10.78,3.2-20,9.31-25.87,17.21a2.5,2.5,0,0,0,4,3c5.27-7,13.54-12.52,23.29-15.42A2.5,2.5,0,0,0,116.2,467.63Zm-34.12,46.7c0-.52,0-1.05,0-1.57a2.5,2.5,0,1,0-5-.19c0,.59,0,1.18,0,1.76,0,9.69,3.11,19.07,9.24,27.87a2.51,2.51,0,0,0,2.06,1.07,2.42,2.42,0,0,0,1.42-.45,2.49,2.49,0,0,0,.63-3.48C84.89,531.39,82.08,523,82.08,514.33Zm53.69,62.6c-7.33-5.3-12.71-9.11-16.91-12-2.51-1.72-5-3.42-7.59-5.34a2.5,2.5,0,1,0-3,4c2.67,2,5.18,3.69,7.72,5.43,4.17,2.86,9.51,6.65,16.81,11.92a2.5,2.5,0,0,0,2.93-4.05Zm234.51,34c-7-3.75-11.9-6.86-14.34-8.48v-1.18h-1.72l-9-6.23a2.5,2.5,0,0,0-2.84,4.12l13.59,9.38v-.14c2.82,1.78,6.86,4.2,12,6.94a2.47,2.47,0,0,0,1.17.29,2.5,2.5,0,0,0,1.18-4.7Zm235.17,24.31-30-.28a2.5,2.5,0,0,0,0,5l30,.28h0a2.5,2.5,0,0,0,0-5Zm60.06.39c-9.72,0-19.78-.09-30-.16h0a2.5,2.5,0,0,0,0,5c10.25.07,20.32.12,30,.16h0a2.5,2.5,0,0,0,0-5Zm60-.07h0c-8.65.08-18.74.12-30,.13a2.5,2.5,0,0,0,0,5c11.26,0,21.36-.05,30-.13a2.5,2.5,0,0,0,0-5Zm-180.15-.93-30-.37h0a2.5,2.5,0,0,0,0,5l30,.37h0a2.5,2.5,0,0,0,0-5Zm-119.6-3.44a191,191,0,0,1-28.46-8.11,2.5,2.5,0,1,0-1.73,4.69,195.86,195.86,0,0,0,29.21,8.32,2.83,2.83,0,0,0,.5,0,2.5,2.5,0,0,0,.48-4.95Zm59.52,2.67c-11.95-.16-22.19-.31-30.05-.43h0a2.5,2.5,0,0,0,0,5c7.87.12,18.11.27,30.06.43h0a2.5,2.5,0,0,0,0-5ZM320.53,578,295.9,561a2.5,2.5,0,0,0-2.85,4.11l24.64,17.06a2.48,2.48,0,0,0,1.42.44,2.49,2.49,0,0,0,1.42-4.55Zm486.25,27-46.92,8.27L774.21,623c-7.91,4.7-14.3,7.84-19.81,9.73a2.5,2.5,0,0,0,.81,4.86,2.6,2.6,0,0,0,.82-.13c5.87-2,12.61-5.33,20.94-10.29l3,17.21Z"/></svg>