<?xml version="1.0" encoding="utf-8"?>
<!-- Generator: Adobe Illustrator 24.0.1, SVG Export Plug-In . SVG Version: 6.00 Build 0)  -->
<svg version="1.1" id="Oval_Pit_Road" xmlns="http://www.w3.org/2000/svg" xmlns:xlink="http://www.w3.org/1999/xlink" x="0px"
	 y="0px" viewBox="0 0 1920 1080" style="enable-background:new 0 0 1920 1080;" xml:space="preserve">
<style type="text/css">
	.st0{fill:#0089BA;}
	.st1{fill:#D82520;}
</style>
<title>pitroad</title>
<g id="Mergeline">
	<path class="st0" d="M1600.3,212.4c1.7,0,3.4-0.9,4.4-2.6c1.4-2.4,0.5-5.5-1.9-6.8c-8.7-4.9-17.8-9.5-27-13.8
		c-2.5-1.2-5.5-0.1-6.6,2.4c-1.2,2.5-0.1,5.5,2.4,6.6c9,4.2,17.9,8.7,26.3,13.5C1598.7,212.2,1599.5,212.4,1600.3,212.4z"/>
	<path class="st0" d="M1552.3,802.4c-8.9,4.4-18,8.5-27,12.3c-2.6,1.1-3.8,4-2.7,6.5c0.8,1.9,2.7,3.1,4.6,3.1c0.6,0,1.3-0.1,1.9-0.4
		c9.2-3.8,18.5-8,27.6-12.5c2.5-1.2,3.5-4.2,2.3-6.7C1557.7,802.1,1554.7,801.1,1552.3,802.4z"/>
	<path class="st0" d="M1754.8,416.9c2.4,9.5,4.4,19.3,6,29c0.4,2.5,2.5,4.2,4.9,4.2c0.3,0,0.5,0,0.8-0.1c2.7-0.4,4.6-3,4.1-5.7
		c-1.6-10-3.7-20-6.1-29.8c-0.7-2.7-3.4-4.3-6.1-3.6C1755.7,411.5,1754.1,414.2,1754.8,416.9z"/>
	<path class="st0" d="M1603.5,772.5c-8.2,5.5-16.6,10.8-25.1,15.8c-2.4,1.4-3.2,4.5-1.8,6.8c0.9,1.6,2.6,2.5,4.3,2.5
		c0.9,0,1.7-0.2,2.5-0.7c8.7-5.1,17.4-10.5,25.7-16.1c2.3-1.5,2.9-4.7,1.3-6.9C1608.9,771.6,1605.8,770.9,1603.5,772.5z"/>
	<path class="st0" d="M1546.1,187.1c2,0,3.9-1.2,4.7-3.2c1-2.6-0.3-5.5-2.9-6.5c-9.2-3.5-18.9-6.8-28.6-9.8
		c-2.6-0.8-5.4,0.7-6.3,3.3s0.7,5.4,3.3,6.3c9.6,2.9,19,6.2,28,9.6C1544.9,187,1545.5,187.1,1546.1,187.1z"/>
	<path class="st0" d="M1497.4,824.9c-9.5,3.1-19.1,5.8-28.5,8.1c-2.7,0.6-4.3,3.3-3.7,6c0.5,2.3,2.6,3.8,4.9,3.8
		c0.4,0,0.8,0,1.2-0.1c9.6-2.3,19.5-5.1,29.3-8.3c2.6-0.9,4.1-3.7,3.2-6.3C1502.9,825.5,1500.1,824,1497.4,824.9z"/>
	<path class="st0" d="M1649.9,246c1.5,0,2.9-0.6,3.9-1.8c1.7-2.1,1.4-5.3-0.7-7c-7.8-6.3-16-12.4-24.4-18.1
		c-2.3-1.5-5.4-0.9-6.9,1.3c-1.5,2.3-1,5.4,1.3,6.9c8.2,5.5,16.2,11.5,23.7,17.6C1647.7,245.7,1648.8,246,1649.9,246z"/>
	<path class="st0" d="M1430,158.3c2.5,0,4.6-1.8,4.9-4.3c0.4-2.7-1.5-5.3-4.3-5.6c-9.8-1.4-19.8-2.5-30-3.5
		c-2.7-0.3-5.2,1.8-5.5,4.5c-0.3,2.7,1.8,5.2,4.5,5.5c10,1,19.9,2.1,29.6,3.5C1429.5,158.2,1429.8,158.3,1430,158.3z"/>
	<path class="st0" d="M1488.8,169.4c2.3,0,4.3-1.5,4.9-3.8c0.7-2.7-1-5.4-3.7-6c-9.6-2.3-19.5-4.5-29.5-6.4c-2.7-0.5-5.3,1.3-5.8,4
		c-0.5,2.7,1.3,5.3,4,5.8c9.8,1.9,19.6,4,29,6.3C1488,169.4,1488.4,169.4,1488.8,169.4z"/>
	<path class="st0" d="M1440,838.5c-10,1.4-19.9,2.2-29.3,2.5c-2.8,0.1-4.9,2.4-4.9,5.1c0.1,2.7,2.3,4.9,5,4.9c0,0,0.1,0,0.1,0
		c9.8-0.2,20-1.1,30.5-2.6c2.7-0.4,4.6-2.9,4.3-5.6C1445.2,840,1442.7,838.1,1440,838.5z"/>
	<path class="st0" d="M1755.9,588.3c-2.6-0.9-5.5,0.5-6.4,3.1c-3.2,9.2-6.8,18.4-10.9,27.3c-1.1,2.5,0,5.5,2.5,6.6
		c0.7,0.3,1.4,0.5,2.1,0.5c1.9,0,3.7-1.1,4.5-2.9c4.2-9.3,8.1-18.8,11.3-28.3C1759.9,592,1758.5,589.2,1755.9,588.3z"/>
	<path class="st0" d="M1774.3,475.3l-0.1-0.8l-10,0.8l0.1,0.7c0.6,7.4,0.9,14.9,0.9,22.3c0,2.1,0,4.3-0.1,6.4
		c-0.1,2.8,2.1,5,4.9,5.1c0,0,0.1,0,0.1,0c2.7,0,4.9-2.2,5-4.9c0-2.2,0.1-4.4,0.1-6.6C1775.2,490.7,1774.9,483,1774.3,475.3z"/>
	<path class="st0" d="M1751.1,391.9c0.5,0,1.1-0.1,1.6-0.3c2.6-0.9,4-3.7,3.1-6.4c-3.3-9.6-7.1-19.1-11.1-28.3
		c-1.1-2.5-4.1-3.7-6.6-2.5c-2.5,1.1-3.7,4.1-2.5,6.6c4,8.9,7.6,18.2,10.8,27.5C1747.1,390.6,1749,391.9,1751.1,391.9z"/>
	<path class="st0" d="M1650.3,736.1c-7.3,6.5-14.9,12.9-22.7,19c-2.2,1.7-2.6,4.8-0.9,7c1,1.3,2.5,1.9,3.9,1.9
		c1.1,0,2.2-0.3,3.1-1.1c8-6.2,15.8-12.8,23.3-19.5c2.1-1.8,2.2-5,0.4-7.1S1652.3,734.2,1650.3,736.1z"/>
	<path class="st0" d="M1768.5,529.8c-2.7-0.3-5.2,1.6-5.6,4.3c-1.2,9.7-3,19.4-5.2,29c-0.6,2.7,1,5.4,3.7,6c0.4,0.1,0.8,0.1,1.1,0.1
		c2.3,0,4.3-1.6,4.9-3.9c2.3-9.9,4.1-20,5.4-30C1773.2,532.6,1771.3,530.1,1768.5,529.8z"/>
	<path class="st0" d="M1731.9,643.1c-2.4-1.4-5.5-0.6-6.8,1.8c-4.8,8.4-10.2,16.8-15.8,24.9c-1.6,2.3-1,5.4,1.2,7
		c0.9,0.6,1.9,0.9,2.9,0.9c1.6,0,3.1-0.7,4.1-2.1c5.8-8.4,11.3-17,16.3-25.7C1735.1,647.5,1734.3,644.5,1731.9,643.1z"/>
	<path class="st0" d="M1692.6,288c1.1,0,2.3-0.4,3.2-1.2c2.1-1.8,2.4-4.9,0.6-7c-6.5-7.7-13.5-15.2-20.7-22.3
		c-2-1.9-5.1-1.9-7.1,0.1c-1.9,2-1.9,5.1,0.1,7.1c7,6.9,13.8,14.2,20.1,21.6C1689.8,287.4,1691.2,288,1692.6,288z"/>
	<path class="st0" d="M1691.3,693.4c-6.2,7.5-12.8,14.9-19.7,22.1c-1.9,2-1.9,5.2,0.1,7.1c1,0.9,2.2,1.4,3.5,1.4
		c1.3,0,2.6-0.5,3.6-1.5c7.1-7.3,13.9-15,20.2-22.7c1.8-2.1,1.5-5.3-0.7-7C1696.3,691,1693.1,691.3,1691.3,693.4z"/>
	<path class="st0" d="M1726.7,337.2c0.8,0,1.7-0.2,2.4-0.6c2.4-1.4,3.3-4.4,1.9-6.8c-5-8.9-10.4-17.5-16.1-25.8
		c-1.6-2.3-4.7-2.8-7-1.3c-2.3,1.6-2.8,4.7-1.3,7c5.6,8,10.8,16.5,15.6,25C1723.2,336.3,1724.9,337.2,1726.7,337.2z"/>
	
		<rect x="1353.9" y="143.7" transform="matrix(8.837225e-02 -0.9961 0.9961 8.837225e-02 1115.7998 1516.5193)" class="st0" width="65" height="10"/>
</g>
<g id="Pitroad">
	<path class="st1" d="M599.4,845.8C599.4,845.8,599.4,845.8,599.4,845.8l-20.6,0c-2.8,0-5.6,0-8.3,0l-1.1,0c-1.4,0-2.5,1.1-2.5,2.5
		s1.1,2.5,2.5,2.5l1.1,0c2.8,0,5.5,0,8.3,0l20.6,0c1.4,0,2.5-1.1,2.5-2.5C601.9,846.9,600.8,845.8,599.4,845.8z"/>
	<path class="st1" d="M659.4,845.7C659.4,845.7,659.4,845.7,659.4,845.7l-30,0c-1.4,0-2.5,1.1-2.5,2.5s1.1,2.5,2.5,2.5c0,0,0,0,0,0
		l30,0c1.4,0,2.5-1.1,2.5-2.5C661.9,846.8,660.8,845.7,659.4,845.7z"/>
	<path class="st1" d="M719.4,845.7l-30,0c-1.4,0-2.5,1.1-2.5,2.5s1.1,2.5,2.5,2.5c0,0,0,0,0,0l30,0c1.4,0,2.5-1.1,2.5-2.5
		S720.8,845.7,719.4,845.7z"/>
	<path class="st1" d="M539.5,845.3c-10-0.3-20.1-0.9-29.9-1.6c-1.4-0.1-2.6,0.9-2.7,2.3c-0.1,1.4,0.9,2.6,2.3,2.7
		c9.9,0.7,20,1.2,30,1.6c0,0,0.1,0,0.1,0c1.3,0,2.5-1.1,2.5-2.4C541.9,846.5,540.9,845.4,539.5,845.3z"/>
	<path class="st1" d="M479.8,841.2c-10-1.1-19.9-2.3-29.7-3.8c-1.4-0.2-2.6,0.7-2.8,2.1s0.7,2.6,2.1,2.8c9.8,1.4,19.8,2.7,29.9,3.8
		c0.1,0,0.2,0,0.3,0c1.3,0,2.3-1,2.5-2.2C482.2,842.5,481.2,841.3,479.8,841.2z"/>
	<path class="st1" d="M362.5,818.6c-9.8-2.8-19.3-5.9-28.4-9.1c-1.3-0.5-2.7,0.2-3.2,1.5c-0.5,1.3,0.2,2.7,1.5,3.2
		c9.2,3.2,18.9,6.3,28.7,9.2c0.2,0.1,0.5,0.1,0.7,0.1c1.1,0,2.1-0.7,2.4-1.8C364.6,820.4,363.9,819,362.5,818.6z"/>
	<path class="st1" d="M306.3,798.8c-17.5-7.5-26.6-13-26.6-13c-1.2-0.7-2.7-0.3-3.4,0.8c-0.7,1.2-0.3,2.7,0.8,3.4
		c0.4,0.2,9.4,5.7,27.3,13.4c0.3,0.1,0.7,0.2,1,0.2c1,0,1.9-0.6,2.3-1.5C308.1,800.8,307.5,799.3,306.3,798.8z"/>
	<path class="st1" d="M779.4,845.6l-30,0c-1.4,0-2.5,1.1-2.5,2.5s1.1,2.5,2.5,2.5l30,0c1.4,0,2.5-1.1,2.5-2.5
		C781.9,846.8,780.8,845.6,779.4,845.6z"/>
	<path class="st1" d="M420.7,832.4c-9.9-1.9-19.7-4-29.2-6.2c-1.3-0.3-2.7,0.5-3,1.9c-0.3,1.3,0.5,2.7,1.9,3
		c9.6,2.3,19.5,4.4,29.5,6.3c0.2,0,0.3,0,0.5,0c1.2,0,2.2-0.8,2.5-2C422.9,834,422,832.7,420.7,832.4z"/>
	<path class="st1" d="M1019.3,845.9l-30-0.1c0,0,0,0,0,0c-1.4,0-2.5,1.1-2.5,2.5c0,1.4,1.1,2.5,2.5,2.5l30,0.1c0,0,0,0,0,0
		c1.4,0,2.5-1.1,2.5-2.5C1021.8,847,1020.7,845.9,1019.3,845.9z"/>
	<path class="st1" d="M1139.3,846.1c-9.5,0-19.5,0-30-0.1c0,0,0,0,0,0c-1.4,0-2.5,1.1-2.5,2.5c0,1.4,1.1,2.5,2.5,2.5
		c10.5,0,20.5,0,30,0.1c0,0,0,0,0,0c1.4,0,2.5-1.1,2.5-2.5C1141.8,847.3,1140.7,846.1,1139.3,846.1z"/>
	<path class="st1" d="M1259.2,846C1259.2,846,1259.2,846,1259.2,846c-9.8,0.1-19.7,0.1-30,0.1c-1.4,0-2.5,1.1-2.5,2.5
		c0,1.4,1.1,2.5,2.5,2.5c0,0,0,0,0,0c10.3,0,20.2-0.1,30-0.1c1.4,0,2.5-1.1,2.5-2.5C1261.7,847.1,1260.6,846,1259.2,846z"/>
	<path class="st1" d="M839.4,845.6l-30,0c-1.4,0-2.5,1.1-2.5,2.5s1.1,2.5,2.5,2.5l30,0c0,0,0,0,0,0c1.4,0,2.5-1.1,2.5-2.5
		C841.9,846.8,840.7,845.6,839.4,845.6z"/>
	<path class="st1" d="M1319.2,845.3C1319.2,845.3,1319.1,845.3,1319.2,845.3c-10.3,0.2-20.2,0.3-30,0.4c-1.4,0-2.5,1.1-2.5,2.5
		c0,1.4,1.1,2.5,2.5,2.5c0,0,0,0,0,0c9.8-0.1,19.8-0.2,30-0.4c1.4,0,2.5-1.2,2.5-2.5C1321.6,846.4,1320.5,845.3,1319.2,845.3z"/>
	<path class="st1" d="M1199.2,846.2l-6.9,0c-7.4,0-15.1,0-23.1,0c0,0,0,0,0,0c-1.4,0-2.5,1.1-2.5,2.5c0,1.4,1.1,2.5,2.5,2.5
		c8,0,15.7,0,23.1,0l6.9,0c1.4,0,2.5-1.1,2.5-2.5S1200.6,846.2,1199.2,846.2z"/>
	<path class="st1" d="M899.4,845.7l-30,0c0,0,0,0,0,0c-1.4,0-2.5,1.1-2.5,2.5c0,1.4,1.1,2.5,2.5,2.5l30,0c0,0,0,0,0,0
		c1.4,0,2.5-1.1,2.5-2.5S900.7,845.7,899.4,845.7z"/>
	<path class="st1" d="M1079.3,846l-30-0.1c0,0,0,0,0,0c-1.4,0-2.5,1.1-2.5,2.5c0,1.4,1.1,2.5,2.5,2.5l30,0.1c0,0,0,0,0,0
		c1.4,0,2.5-1.1,2.5-2.5C1081.8,847.1,1080.7,846,1079.3,846z"/>
	<path class="st1" d="M959.3,845.7l-30,0c0,0,0,0,0,0c-1.4,0-2.5,1.1-2.5,2.5c0,1.4,1.1,2.5,2.5,2.5l30,0c0,0,0,0,0,0
		c1.4,0,2.5-1.1,2.5-2.5C961.8,846.9,960.7,845.8,959.3,845.7z"/>
	<path class="st1" d="M1410.8,846l-44.2-17.7l7.2,16.1c-8.5,0.2-16.7,0.3-24.6,0.5c-1.4,0-2.5,1.2-2.5,2.5c0,1.4,1.1,2.5,2.5,2.5
		c0,0,0,0,0,0c7.9-0.1,16-0.3,24.5-0.5l-6.4,16L1410.8,846z"/>
</g>
</svg>
