<?xml version="1.0" encoding="utf-8"?>
<!-- Generator: Adobe Illustrator 25.2.3, SVG Export Plug-In . SVG Version: 6.00 Build 0)  -->
<svg version="1.1" id="nashville_ss_-_Pit_Road" xmlns="http://www.w3.org/2000/svg" xmlns:xlink="http://www.w3.org/1999/xlink"
	 x="0px" y="0px" viewBox="0 0 1920 1080" style="enable-background:new 0 0 1920 1080;" xml:space="preserve">
<style type="text/css">
	.st0{fill:#D82520;}
	.st1{fill:#0089BA;}
</style>
<g id="Pitroad">
	<path class="st0" d="M396.8,637.8c-0.5,0-1.1-0.2-1.5-0.5c-5.7-4.4-9.6-7.9-11.6-9.6l-0.1-0.1c-1-0.9-1.1-2.5-0.2-3.5
		c0.9-1,2.5-1.1,3.5-0.2l0.1,0.1c1.9,1.7,5.7,5.1,11.3,9.4c1.1,0.8,1.3,2.4,0.5,3.5C398.3,637.5,397.5,637.8,396.8,637.8z"/>
	<path class="st0" d="M739.2,702.3c-8.8,0-18.8,0-29.7-0.1c-1.4,0-2.5-1.1-2.5-2.5s1.2-2.5,2.5-2.5c10.9,0.1,20.8,0.1,29.6,0.1
		c1.4,0,2.5,1.1,2.5,2.5S740.6,702.3,739.2,702.3z M768.8,702.1c-1.4,0-2.5-1.1-2.5-2.5c0-1.4,1.1-2.5,2.5-2.5
		c6.6-0.1,16.3-0.1,29.6-0.2c0,0,0,0,0,0c1.4,0,2.5,1.1,2.5,2.5c0,1.4-1.1,2.5-2.5,2.5C785.1,701.9,775.5,702,768.8,702.1
		C768.8,702.1,768.8,702.1,768.8,702.1z M679.9,701.8C679.9,701.8,679.9,701.8,679.9,701.8c-9-0.1-18.9-0.3-29.7-0.5
		c-1.4,0-2.5-1.2-2.5-2.5c0-1.4,1.2-2.5,2.5-2.5c10.8,0.2,20.6,0.3,29.6,0.5c1.4,0,2.5,1.2,2.5,2.5
		C682.4,700.7,681.3,701.8,679.9,701.8z M828.1,701.6c-1.4,0-2.5-1.1-2.5-2.5c0-1.4,1.1-2.5,2.5-2.5c8.9,0,18.7-0.1,29.6-0.1
		c0,0,0,0,0,0c1.4,0,2.5,1.1,2.5,2.5c0,1.4-1.1,2.5-2.5,2.5C846.8,701.5,837,701.6,828.1,701.6C828.1,701.6,828.1,701.6,828.1,701.6
		z M887.3,701.4c-1.4,0-2.5-1.1-2.5-2.5c0-1.4,1.1-2.5,2.5-2.5c9.3,0,19.1-0.1,29.6-0.1c0,0,0,0,0,0c1.4,0,2.5,1.1,2.5,2.5
		c0,1.4-1.1,2.5-2.5,2.5C906.5,701.3,896.6,701.3,887.3,701.4C887.4,701.4,887.4,701.4,887.3,701.4z M946.6,701.2
		c-1.4,0-2.5-1.1-2.5-2.5c0-1.4,1.1-2.5,2.5-2.5l29.6-0.1c0,0,0,0,0,0c1.4,0,2.5,1.1,2.5,2.5c0,1.4-1.1,2.5-2.5,2.5L946.6,701.2
		C946.6,701.2,946.6,701.2,946.6,701.2z M1005.9,701c-1.4,0-2.5-1.1-2.5-2.5c0-1.4,1.1-2.5,2.5-2.5l29.6-0.1c0,0,0,0,0,0
		c1.4,0,2.5,1.1,2.5,2.5c0,1.4-1.1,2.5-2.5,2.5L1005.9,701C1005.9,701,1005.9,701,1005.9,701z M1065.2,700.9c-1.4,0-2.5-1.1-2.5-2.5
		c0-1.4,1.1-2.5,2.5-2.5l29.7-0.1c0,0,0,0,0,0c1.4,0,2.5,1.1,2.5,2.5c0,1.4-1.1,2.5-2.5,2.5L1065.2,700.9
		C1065.2,700.9,1065.2,700.9,1065.2,700.9z M620.6,700.8C620.6,700.8,620.6,700.8,620.6,700.8l-4.1-0.1c-8.4-0.2-17.3-0.4-25.6-0.7
		c-1.4,0-2.5-1.2-2.4-2.6c0-1.4,1.2-2.5,2.6-2.4c8.3,0.3,17.2,0.5,25.6,0.7l4,0.1c1.4,0,2.5,1.2,2.4,2.5
		C623.1,699.7,622,700.8,620.6,700.8z M1124.5,700.7c-1.4,0-2.5-1.1-2.5-2.5c0-1.4,1.1-2.5,2.5-2.5l29.6-0.1c0,0,0,0,0,0
		c1.4,0,2.5,1.1,2.5,2.5c0,1.4-1.1,2.5-2.5,2.5L1124.5,700.7C1124.5,700.7,1124.5,700.7,1124.5,700.7z M1183.8,700.6
		c-1.4,0-2.5-1.1-2.5-2.5c0-1.4,1.1-2.5,2.5-2.5c10.3,0,20.2,0,29.7-0.1c0,0,0,0,0,0c1.4,0,2.5,1.1,2.5,2.5c0,1.4-1.1,2.5-2.5,2.5
		C1204,700.6,1194.2,700.6,1183.8,700.6C1183.8,700.6,1183.8,700.6,1183.8,700.6z M1332.1,700.5
		C1332.1,700.5,1332.1,700.5,1332.1,700.5c-8.3,0-18.2,0-29.7,0c-1.4,0-2.5-1.1-2.5-2.5c0-1.4,1.1-2.5,2.5-2.5h0
		c11.5,0,21.3,0,29.7,0c1.4,0,2.5,1.1,2.5,2.5C1334.6,699.4,1333.4,700.5,1332.1,700.5z M1243.1,700.5c-1.4,0-2.5-1.1-2.5-2.5
		c0-1.4,1.1-2.5,2.5-2.5c10.6,0,20.5,0,29.7,0c1.4,0,2.5,1.1,2.5,2.5s-1.1,2.5-2.5,2.5C1263.6,700.5,1253.7,700.5,1243.1,700.5
		C1243.1,700.5,1243.1,700.5,1243.1,700.5z M561.4,698.3c-0.1,0-0.1,0-0.2,0c-10.3-0.9-20-2.1-29.6-3.7c-1.4-0.2-2.3-1.5-2-2.9
		c0.2-1.4,1.5-2.3,2.9-2c9.4,1.6,19,2.8,29.2,3.7c1.4,0.1,2.4,1.3,2.3,2.7C563.8,697.3,562.7,698.3,561.4,698.3z M503.1,688.4
		c-0.2,0-0.4,0-0.6-0.1c-9.9-2.5-19.5-5.4-28.6-8.5c-1.3-0.5-2-1.9-1.5-3.2c0.5-1.3,1.9-2,3.2-1.5c9,3.1,18.5,5.9,28.2,8.4
		c1.3,0.3,2.1,1.7,1.8,3C505.2,687.7,504.2,688.4,503.1,688.4z M447.1,668.9c-0.4,0-0.7-0.1-1.1-0.2c-6.3-2.9-12.2-6-18-9.3
		c-3-1.7-6-3.5-8.3-4.9c-1.2-0.7-1.5-2.3-0.8-3.4c0.7-1.2,2.3-1.5,3.4-0.8c2.2,1.4,5.2,3.2,8.1,4.9c5.7,3.3,11.5,6.3,17.7,9.1
		c1.3,0.6,1.8,2.1,1.2,3.3C449,668.4,448.1,668.9,447.1,668.9z"/>
	<path class="st0" d="M1373.5,701.1c-4.1,0-7.2-0.1-9.3-0.2l-2.5-0.1c-1.4-0.1-2.4-1.2-2.4-2.6c0.1-1.4,1.2-2.4,2.6-2.4l2.5,0.1
		c2.5,0.1,6.7,0.3,12.3,0.2c0,0,0,0,0,0c1.4,0,2.5,1.1,2.5,2.5c0,1.4-1.1,2.5-2.5,2.5C1375.7,701.1,1374.6,701.1,1373.5,701.1z"/>
	<polygon class="st0" points="1367.8,711.9 1372.5,698.6 1366.2,686 1397.7,697 	"/>
</g>
<g id="Mergeline">
	<path class="st1" d="M1397.7,702c-2.5,0-4.6-1.8-4.9-4.3c-0.4-2.7,1.5-5.3,4.3-5.6c5.4-0.7,10.1-1.5,14.5-2.4
		c2.7-0.6,5.4,1.2,5.9,3.9c0.6,2.7-1.2,5.4-3.9,5.9c-4.5,0.9-9.5,1.8-15.1,2.6C1398.1,702,1397.9,702,1397.7,702z"/>
	<path class="st1" d="M1442.3,690.9c-2,0-3.9-1.2-4.7-3.2c-1-2.6,0.3-5.5,2.9-6.4c9.5-3.6,18.8-7.9,27.5-12.8
		c2.4-1.3,5.5-0.5,6.8,1.9c1.3,2.4,0.5,5.5-1.9,6.8c-9.2,5.1-18.9,9.6-28.9,13.4C1443.5,690.8,1442.9,690.9,1442.3,690.9z
		 M1496.3,660.4c-1.5,0-2.9-0.6-3.9-1.8c-1.7-2.1-1.4-5.3,0.7-7c7.5-6.1,14.9-13.1,22.1-20.9c1.9-2,5-2.2,7.1-0.3
		c2,1.9,2.2,5,0.3,7.1c-7.5,8.2-15.3,15.5-23.1,21.9C1498.5,660.1,1497.4,660.4,1496.3,660.4z M1538.6,614.9c-1,0-2.1-0.3-2.9-1
		c-2.2-1.6-2.7-4.8-1.1-7c4.2-5.7,7.3-10.5,9.2-13.3l0.3-0.5c2.7-4,5.2-8,7.5-11.8c1.4-2.4,4.5-3.1,6.9-1.7c2.4,1.4,3.1,4.5,1.7,6.9
		c-2.4,3.9-5,8-7.8,12.2l-0.3,0.4c-1.9,2.9-5.1,7.8-9.5,13.7C1541.6,614.2,1540.1,614.9,1538.6,614.9z M1570.2,561.4
		c-0.7,0-1.3-0.1-2-0.4c-2.5-1.1-3.7-4-2.6-6.6c4-9.5,7.1-18.8,9.5-28.7c0.6-2.7,3.3-4.3,6-3.7c2.7,0.6,4.4,3.3,3.7,6
		c-2.5,10.4-5.7,20.3-10,30.3C1573.9,560.3,1572.1,561.4,1570.2,561.4z M1584.7,501.2c-0.1,0-0.3,0-0.4,0c-2.8-0.2-4.8-2.6-4.6-5.4
		c0.5-5.9,0.7-12,0.7-18.1c0-4-0.1-8.2-0.3-12.4c-0.1-2.8,2-5.1,4.7-5.3c2.8-0.1,5.1,2,5.3,4.7c0.2,4.3,0.3,8.7,0.3,12.9
		c0,6.3-0.3,12.7-0.8,18.9C1589.4,499.2,1587.2,501.2,1584.7,501.2z M1581.6,439.1c-2.4,0-4.5-1.7-4.9-4.2c-0.8-5.2-1.9-10.6-3-16
		c-1-4.7-2.2-9.3-3.4-13.8c-0.8-2.7,0.8-5.4,3.4-6.2c2.7-0.8,5.4,0.8,6.2,3.4c1.4,4.7,2.6,9.6,3.6,14.5c1.2,5.6,2.2,11.1,3.1,16.5
		c0.4,2.7-1.4,5.3-4.1,5.7C1582.2,439.1,1581.9,439.1,1581.6,439.1z M1563.7,379.8c-1.8,0-3.6-1-4.5-2.7
		c-4.4-8.6-9.5-16.7-16.1-25.6c-1.7-2.2-1.2-5.3,1-7c2.2-1.7,5.3-1.2,7,1c7,9.3,12.4,17.9,17,27c1.2,2.5,0.3,5.5-2.2,6.7
		C1565.2,379.6,1564.5,379.8,1563.7,379.8z M1527.7,329.2c-1.4,0-2.7-0.6-3.7-1.7c-4.3-4.8-11.5-12.4-21.8-21.4
		c-2.1-1.8-2.3-5-0.5-7.1s5-2.3,7.1-0.5c10.6,9.3,18.2,17.2,22.6,22.2c1.8,2.1,1.7,5.2-0.4,7.1
		C1530,328.8,1528.9,329.2,1527.7,329.2z M1481.1,288.1c-1,0-2-0.3-2.9-0.9c-3.7-2.7-7.5-5.3-11.3-7.7c-4.8-3.1-9.6-6.1-14.4-8.9
		c-2.4-1.4-3.2-4.4-1.8-6.8c1.4-2.4,4.4-3.2,6.8-1.8c5,2.9,10,5.9,14.9,9.1c3.9,2.6,7.8,5.2,11.7,8c2.2,1.6,2.8,4.7,1.2,7
		C1484.2,287.3,1482.6,288.1,1481.1,288.1z M1427.2,257.2c-0.7,0-1.4-0.1-2-0.4c-8.7-3.8-18-7.5-28.6-11.2c-2.6-0.9-4-3.8-3.1-6.4
		c0.9-2.6,3.8-4,6.4-3.1c10.8,3.8,20.4,7.5,29.3,11.5c2.5,1.1,3.7,4.1,2.5,6.6C1430.9,256,1429.1,257.2,1427.2,257.2z M1368.6,236.2
		c-0.5,0-1-0.1-1.5-0.2c-3-0.9-6.1-1.9-9.2-2.8l-0.6-0.2c-6.6-2.1-13.4-4-20-5.8c-2.7-0.7-4.2-3.5-3.5-6.1c0.7-2.7,3.5-4.2,6.1-3.5
		c6.7,1.8,13.5,3.8,20.3,5.9l0.5,0.2c3.1,1,6.2,1.9,9.2,2.8c2.6,0.8,4.1,3.6,3.3,6.3C1372.7,234.8,1370.8,236.2,1368.6,236.2z
		 M1308.5,220c-0.3,0-0.7,0-1.1-0.1c-9.7-2.1-19.6-3.9-30.4-5.7c-2.7-0.5-4.6-3-4.1-5.8c0.5-2.7,3-4.6,5.8-4.1
		c10.9,1.8,21,3.7,30.8,5.8c2.7,0.6,4.4,3.2,3.8,5.9C1312.9,218.4,1310.8,220,1308.5,220z"/>
	<path class="st1" d="M1247,209.8c-0.2,0-0.5,0-0.7-0.1c-2.6-0.4-5.2-0.7-7.8-1c-2.4-0.3-4.7-0.6-7.1-0.9c-2.7-0.4-4.6-2.9-4.3-5.6
		c0.4-2.7,2.9-4.6,5.6-4.3c2.3,0.3,4.7,0.6,7,0.9c2.7,0.3,5.3,0.7,7.9,1.1c2.7,0.4,4.6,2.9,4.2,5.7
		C1251.6,208,1249.5,209.8,1247,209.8z"/>
	
		<rect x="1209.3" y="199.3" transform="matrix(0.1345 -0.9909 0.9909 0.1345 865.4075 1396.345)" class="st1" width="45.5" height="7"/>
</g>
</svg>
