<?xml version="1.0" encoding="utf-8"?>
<!-- Generator: Adobe Illustrator 25.2.3, SVG Export Plug-In . SVG Version: 6.00 Build 0)  -->
<svg version="1.1" id="gp_-_Pit_Road" xmlns="http://www.w3.org/2000/svg" xmlns:xlink="http://www.w3.org/1999/xlink" x="0px"
	 y="0px" viewBox="0 0 1920 1080" style="enable-background:new 0 0 1920 1080;" xml:space="preserve">
<style type="text/css">
	.st0{fill:#0089BA;}
	.st1{fill:#D82520;}
</style>
<g id="Mergeline">
	<path id="Mergeline_1_" class="st0" d="M844.3,924.7c1.8,2.1,1.6,5.3-0.5,7c-2.1,1.8-5.3,1.6-7-0.5c-4.4-4.8-9-9.9-14-15.2
		l-4.5-4.9c-1.8-2-1.7-5.1,0.3-6.9c2-1.9,5.2-1.9,7.1,0.1l4.5,4.9c5,5.4,9.7,10.5,14.1,15.3C844.1,924.6,844.2,924.7,844.3,924.7z
		 M881,953.6L881,953.6c-1.6,0.2-3.2,0.4-4.8,0.4c-5.9,0-9.9-2.1-13-6.7c-0.3-0.5-0.6-0.9-1-1.4c-1.6-2.2-4.7-2.7-7-1.1
		c-2.2,1.6-2.7,4.7-1.2,6.9c0.3,0.4,0.5,0.8,0.8,1.1c4.9,7.4,12.1,11.2,21.4,11.2c2.1,0,4.2-0.2,6.2-0.5c2.7-0.4,4.6-2.9,4.2-5.7
		C886.2,955.1,883.7,953.2,881,953.6z M991.8,926.8c-0.8-2.6-3.6-4.2-6.2-3.4v0l-26.3,7.9c-2.6,0.8-4.1,3.6-3.4,6.2
		c0.6,2.1,2.6,3.6,4.8,3.6c0.5,0,1-0.1,1.4-0.2c8.8-2.7,17.7-5.3,26.2-7.9C991.1,932.2,992.6,929.4,991.8,926.8z M933.1,939.2
		L933.1,939.2c-12.3,3.7-20.3,6.1-26.2,7.8c-2.7,0.8-4.2,3.5-3.4,6.2c0.6,2.1,2.6,3.6,4.8,3.6c0.5,0,0.9-0.1,1.4-0.2
		c5.9-1.7,14-4.2,26.3-7.8c2.6-0.8,4.1-3.6,3.4-6.2C938.5,939.9,935.7,938.4,933.1,939.2z M800.7,876.9l21.2-17.6l-6.4-7.7l-25,20.8
		l-24.9,20.7l6.4,7.7l21.1-17.5c2,2.3,4.2,4.9,6.7,7.7c1.8,2.1,5,2.3,7.1,0.4s2.3-5,0.4-7.1C804.7,881.6,802.6,879.2,800.7,876.9z"
		/>
</g>
<g id="Pitroad">
	<path id="Pitroad_1_" class="st1" d="M1597.1,525.6c-0.5-1.2,0.1-2.6,1.2-3.2c1.2-0.6,2.7-0.1,3.3,1.2c1.9,4.8,3.4,9.8,4.3,14.9
		c0,0,0,0,0,0.1c0.3,1.4-0.6,2.7-2,2.9c-0.2,0-0.3,0.1-0.5,0.1c-1.2,0-2.2-0.8-2.4-2C1600.2,534.8,1598.9,530.1,1597.1,525.6z
		 M1183.4,868c-0.1,0-0.1,0-0.2,0.1l0,0l-28.5,8.4c-1.3,0.4-2.1,1.8-1.7,3.1c0.3,1.1,1.3,1.8,2.4,1.8c0.2,0,0.5,0,0.7-0.1l28.5-8.4
		c1.3-0.3,2.1-1.7,1.8-3S1184.8,867.7,1183.4,868z M1297.3,834.4L1297.3,834.4l-28.5,8.4c-1.3,0.4-2.1,1.8-1.7,3.1
		c0.3,1,1.3,1.8,2.4,1.8c0.2,0,0.5,0,0.7-0.1l28.5-8.4c1.3-0.4,2.1-1.8,1.7-3.1C1300,834.8,1298.6,834,1297.3,834.4z M1240.3,851.3
		L1240.3,851.3l-28.5,8.4c-1.3,0.4-2.1,1.8-1.7,3.1c0.3,1.1,1.3,1.8,2.4,1.8c0.2,0,0.5,0,0.7-0.1l28.5-8.4c1.3-0.4,2-1.9,1.6-3.2
		C1242.8,851.6,1241.5,850.9,1240.3,851.3z M1126.2,884.9L1126.2,884.9l-28.5,8.4c-1.3,0.4-2.1,1.8-1.7,3.1c0.3,1.1,1.3,1.8,2.4,1.8
		c0.2,0,0.5,0,0.7-0.1l28.5-8.4c1.3-0.4,2.1-1.8,1.7-3.1C1128.9,885.3,1127.5,884.5,1126.2,884.9z M1605.2,568.6
		c1.1,11.4,1.7,22.3,2,29.5c0.1,1.3,1.2,2.4,2.5,2.4h0.1c1.4-0.1,2.4-1.2,2.4-2.6c0,0,0,0,0,0c-0.3-7.2-0.9-18.3-2-29.8
		c-0.1-1.4-1.4-2.4-2.7-2.3S1605,567.3,1605.2,568.6z M1574.3,731.6c-0.1,0-0.1,0.1-0.2,0.1v0c-5.9,3.5-14.5,8.6-25.6,15.2
		c-1.2,0.7-1.6,2.2-0.9,3.4c0.5,0.8,1.3,1.2,2.2,1.2c0.4,0,0.9-0.1,1.3-0.3c11.1-6.5,19.7-11.6,25.6-15.2c1.2-0.7,1.7-2.2,1-3.4
		C1577,731.4,1575.5,730.9,1574.3,731.6z M1354.5,817.7L1354.5,817.7l-23.8,6.9l-4.8,1.4c-1.3,0.4-2.1,1.8-1.7,3.1
		c0.3,1.1,1.3,1.8,2.4,1.8c0.2,0,0.5,0,0.7-0.1l4.8-1.4l23.8-6.9c1.3-0.4,2.1-1.8,1.7-3.1C1357.2,818.1,1355.8,817.3,1354.5,817.7z
		 M1610.2,684.6C1610.2,684.6,1610.2,684.6,1610.2,684.6c-1.3-0.3-2.7,0.5-3,1.8c-2,7.8-6.7,17.5-12.4,25.9
		c-0.8,1.1-0.5,2.7,0.6,3.5c0,0,0,0,0,0c0.4,0.3,0.9,0.4,1.4,0.4c0.8,0,1.6-0.4,2.1-1.1c6-8.8,11-19.1,13.1-27.5
		C1612.4,686.3,1611.6,684.9,1610.2,684.6z M1522.9,762L1522.9,762l-8.5,5c-5.7,3.1-11.6,5.8-17.7,8c-1.3,0.5-1.9,1.9-1.4,3.2
		c0.4,1,1.3,1.6,2.3,1.6c0.3,0,0.6-0.1,0.9-0.2c6.3-2.3,12.5-5.1,18.4-8.3l8.5-5c1.2-0.7,1.5-2.3,0.8-3.4
		C1525.6,761.8,1524.1,761.4,1522.9,762z M1613.3,627.6c-0.1-1.4-1.2-2.5-2.6-2.4c-1.4,0.1-2.5,1.2-2.4,2.6
		c0.3,9.1,0.7,19.8,0.8,29.6c0,1.4,1.1,2.5,2.5,2.5c1.4,0,2.5-1.1,2.5-2.5c0,0,0,0,0,0C1614,647.5,1613.6,636.8,1613.3,627.6z
		 M1468.9,784.5c0,0-0.1,0-0.1,0c-3.7,1.1-13.3,4-28.6,8.4c-1.3,0.4-2.1,1.8-1.7,3.1c0.4,1.3,1.8,2.1,3.1,1.7c0,0,0,0,0,0
		c15.2-4.4,24.9-7.3,28.6-8.4c1.3-0.4,2.1-1.7,1.7-3.1C1471.6,784.9,1470.2,784.1,1468.9,784.5z M1411.6,801.2L1411.6,801.2
		l-28.5,8.3c-1.3,0.4-2.1,1.8-1.7,3.1c0.3,1.1,1.3,1.8,2.4,1.8c0.2,0,0.5,0,0.7-0.1l28.5-8.3c1.3-0.4,2.1-1.8,1.7-3.1
		C1414.3,801.6,1412.9,800.8,1411.6,801.2z M1071.4,906.2c1.3-0.4,2.1-1.8,1.7-3.1c-0.4-1.3-1.8-2.1-3.1-1.7l-7.5,2.2l2-17.4
		l-36.9,30.1l47.3,5.4l-10.9-13.3L1071.4,906.2z"/>
</g>
</svg>
