<svg id="North_-_Pit_Road_copy" data-name="North - Pit Road copy" xmlns="http://www.w3.org/2000/svg" viewBox="0 0 1920 1080"><defs><style>.cls-1{fill:#d82520;}</style></defs><path id="pitroad" class="cls-1" d="M744.17,331.49a2.5,2.5,0,0,1-2.43,2.57,76.24,76.24,0,0,0-14.4,1.71,2.5,2.5,0,1,1-1.08-4.88,80.37,80.37,0,0,1,15.34-1.82A2.51,2.51,0,0,1,744.17,331.49ZM520.76,418.77a2.5,2.5,0,1,0-4.34,2.47c4.32,7.57,8.83,15.85,14.2,26.06a2.5,2.5,0,0,0,2.21,1.34,2.4,2.4,0,0,0,1.16-.29,2.48,2.48,0,0,0,1-3.37C529.65,434.71,525.11,426.39,520.76,418.77Zm28.46,53.59-.48-.94a2.5,2.5,0,0,0-4.45,2.29l.49.93c4.94,9.62,9,17.75,12.77,25.6a2.51,2.51,0,0,0,2.26,1.41,2.5,2.5,0,0,0,2.25-3.58C558.26,490.18,554.18,482,549.22,472.36Zm25.37,52.69a2.5,2.5,0,0,0-4.54,2.08c3.22,7,7.12,15.53,12.59,27a2.5,2.5,0,0,0,2.26,1.42,2.46,2.46,0,0,0,1.08-.24,2.51,2.51,0,0,0,1.17-3.34C581.7,540.54,577.81,532.08,574.59,525.05ZM676.17,367.2a2.5,2.5,0,0,0,3.51-.43,84.73,84.73,0,0,1,21.47-19.18,2.5,2.5,0,1,0-2.68-4.22,89.8,89.8,0,0,0-22.73,20.32A2.51,2.51,0,0,0,676.17,367.2Zm-181.62,10c-.73-1.05-2.95-4.24-6.19-8.69a2.5,2.5,0,0,0-4,2.94c3.21,4.41,5.41,7.57,6.13,8.6,3.76,5.41,7.23,10.58,10.62,15.83a2.5,2.5,0,0,0,4.2-2.71C501.85,387.91,498.35,382.69,494.55,377.24ZM692.64,500a2.5,2.5,0,0,0-.8,3.44c4.75,7.63,10.14,16.28,15.48,25.36a2.49,2.49,0,0,0,2.15,1.23,2.46,2.46,0,0,0,1.27-.35,2.5,2.5,0,0,0,.89-3.42c-5.38-9.13-10.78-17.8-15.55-25.46A2.5,2.5,0,0,0,692.64,500ZM636.75,633.64a2.5,2.5,0,0,0-5,.3c.08,1.35.2,2.73.36,4.08s.25,2.63.29,3.67c-.45-.71-1-1.62-1.61-2.78-1.28-2.38-2.55-4.77-3.83-7.19a2.5,2.5,0,1,0-4.42,2.33c1.28,2.44,2.56,4.84,3.85,7.23,3,5.62,5,7.72,7.27,7.72,2.49,0,3.76-2.16,3.76-6.4a46.7,46.7,0,0,0-.35-5.14C636.93,636.19,636.82,634.91,636.75,633.64Zm44-158.19A178.4,178.4,0,0,1,668,449a2.5,2.5,0,1,0-4.69,1.73,181.9,181.9,0,0,0,13.08,27.15,2.49,2.49,0,0,0,2.17,1.26,2.48,2.48,0,0,0,2.17-3.73Zm32.82,91.43a71.63,71.63,0,0,0-30.61-.49,2.5,2.5,0,0,0,1,4.9,66.76,66.76,0,0,1,28.46.45,2.38,2.38,0,0,0,.59.07,2.5,2.5,0,0,0,.57-4.93ZM600.18,578.62a2.5,2.5,0,1,0-4.48,2.22c5.13,10.35,9.36,18.88,13.26,26.67a2.5,2.5,0,0,0,4.47-2.24C609.53,597.49,605.3,589,600.18,578.62ZM726.52,552a2.5,2.5,0,0,0-4.29,2.56c4.19,7,8.57,14.12,13,21.08,1.62,2.53,1.72,3.42,1.72,3.46a2.5,2.5,0,0,0,2.49,2.26h.23a2.5,2.5,0,0,0,2.26-2.72c-.14-1.44-.93-3.25-2.5-5.69C735,566.07,730.68,559,726.52,552ZM666.63,392.35a2.5,2.5,0,1,0-4.76-1.52A91.46,91.46,0,0,0,657.25,419c0,.66,0,1.31,0,2a2.49,2.49,0,0,0,2.49,2.44h.06a2.5,2.5,0,0,0,2.44-2.56c0-.61,0-1.23,0-1.85A86.89,86.89,0,0,1,666.63,392.35ZM655,579.13c-.72.57-1.44,1.17-2.12,1.77a61.45,61.45,0,0,0-16.3,22.79A2.5,2.5,0,0,0,638,607a2.64,2.64,0,0,0,.95.19,2.51,2.51,0,0,0,2.31-1.55,56.56,56.56,0,0,1,15-21c.63-.55,1.27-1.09,1.93-1.62a2.5,2.5,0,1,0-3.12-3.9ZM438.83,312l14.73,45.3,7.65-15.61c1.62,2,3.24,4,4.83,5.95a2.49,2.49,0,0,0,3.51.39,2.51,2.51,0,0,0,.39-3.52c-1.64-2-3.29-4.07-5-6.1l16.58-5.34Z"/></svg>