<?xml version="1.0" encoding="utf-8"?>
<!-- Generator: Adobe Illustrator 24.0.1, SVG Export Plug-In . SVG Version: 6.00 Build 0)  -->
<svg version="1.1" id="Grand_Prix_-_Pit_Road" xmlns="http://www.w3.org/2000/svg" xmlns:xlink="http://www.w3.org/1999/xlink"
	 x="0px" y="0px" viewBox="0 0 1920 1080" style="enable-background:new 0 0 1920 1080;" xml:space="preserve">
<style type="text/css">
	.st0{fill:#016699;}
	.st1{fill:#D82520;}
</style>
<title>pitroad</title>
<g id="Mergeline">
	<path class="st0" d="M1418.7,915.1l-1.5,0.2c-6.6,0.9-16.2,2.6-28.3,4.8c-2.7,0.5-4.5,3.1-4,5.8c0.4,2.4,2.5,4.1,4.9,4.1
		c0.3,0,0.6,0,0.9-0.1c12-2.2,21.3-3.8,27.8-4.7l1.6-0.2c2.7-0.4,4.6-2.9,4.3-5.7C1424,916.6,1421.5,914.7,1418.7,915.1z"/>
	<path class="st0" d="M1359.4,925.9c-6.2,1.2-12,2.4-17.1,3.4l-5.4-27l-9.8,2l6.3,31.7c0,0.1,0,0.1,0,0.2c0,0.1,0,0.1,0,0.2
		l6.3,31.7l9.8-2l-5.4-27c5.1-1,10.9-2.2,17.1-3.4c2.7-0.5,4.5-3.2,3.9-5.9C1364.7,927.1,1362.1,925.3,1359.4,925.9z"/>
	<path class="st0" d="M1528.3,877.3c-10.4,7.1-19.1,12.6-25,16.1c-2.4,1.4-3.2,4.5-1.8,6.8c0.9,1.6,2.6,2.5,4.3,2.5
		c0.9,0,1.7-0.2,2.5-0.7c6.2-3.7,14.8-9.2,25.5-16.5c2.3-1.5,2.9-4.7,1.3-6.9C1533.7,876.4,1530.6,875.8,1528.3,877.3z"/>
	<path class="st0" d="M1477.1,904.9c-6.8,1.9-15.4,3.7-28.8,5.8c-2.7,0.4-4.6,3-4.1,5.7c0.4,2.5,2.5,4.2,4.9,4.2
		c0.3,0,0.5,0,0.8-0.1c13.8-2.2,22.7-4,29.9-6.1c2.7-0.8,4.2-3.5,3.5-6.2C1482.5,905.7,1479.7,904.2,1477.1,904.9z"/>
	<path class="st0" d="M1561.4,831.2c-0.3-2.7-2.7-4.7-5.5-4.5c-2.7,0.3-4.8,2.7-4.5,5.5c0,0,0.2,1.8,0.2,4.6c0,4.8-0.5,14.1-4,22.4
		c-1.1,2.5,0.1,5.5,2.7,6.5c0.6,0.3,1.3,0.4,1.9,0.4c2,0,3.8-1.2,4.6-3.1c3.9-9.4,4.8-19.5,4.8-26.3
		C1561.6,833.4,1561.4,831.3,1561.4,831.2z"/>
</g>
<g id="Pitroad">
	<path class="st1" d="M1560.7,640.3c0-1.4-1.1-2.5-2.5-2.5c0,0,0,0,0,0c-1.4,0-2.5,1.1-2.5,2.5l-0.3,30c0,1.4,1.1,2.5,2.5,2.5
		c0,0,0,0,0,0c1.4,0,2.5-1.1,2.5-2.5L1560.7,640.3z"/>
	<path class="st1" d="M1557.1,757.7C1557.1,757.7,1557.1,757.7,1557.1,757.7c-1.4,0-2.5,1.1-2.5,2.5l-0.3,30c0,1.4,1.1,2.5,2.5,2.5
		c0,0,0,0,0,0c1.4,0,2.5-1.1,2.5-2.5l0.3-30C1559.6,758.9,1558.5,757.7,1557.1,757.7z"/>
	<path class="st1" d="M1561.2,580.3c0-1.4-1.1-2.5-2.5-2.5c0,0,0,0,0,0c-1.4,0-2.5,1.1-2.5,2.5l-0.3,30c0,1.4,1.1,2.5,2.5,2.5
		c0,0,0,0,0,0c1.4,0,2.5-1.1,2.5-2.5L1561.2,580.3z"/>
	<path class="st1" d="M1556.6,533.2l-0.2,17c0,1.4,1.1,2.5,2.5,2.5c0,0,0,0,0,0c1.4,0,2.5-1.1,2.5-2.5l0.2-17.4l0-0.2
		c-0.6-4.5-1.4-8.8-2.3-12.8c-0.3-1.3-1.7-2.2-3-1.9c-1.3,0.3-2.2,1.7-1.9,3C1555.2,524.8,1556,528.9,1556.6,533.2z"/>
	<path class="st1" d="M1560.1,700.3c0-1.4-1.1-2.5-2.5-2.5c-1.4,0-2.5,1.1-2.5,2.5l-0.3,30c0,1.4,1.1,2.5,2.5,2.5c0,0,0,0,0,0
		c1.4,0,2.5-1.1,2.5-2.5L1560.1,700.3z"/>
	<path class="st1" d="M1543.9,493.9c0.5,0.8,1.3,1.2,2.2,1.2c0.4,0,0.9-0.1,1.3-0.3c1.2-0.7,1.6-2.2,0.9-3.4
		c-0.6-1.1-1.3-2.2-1.9-3.2c-2.7-4.4-7.8-11.8-15-21.9c-0.8-1.1-2.4-1.4-3.5-0.6c-1.1,0.8-1.4,2.4-0.6,3.5
		c7.1,10,12.1,17.3,14.8,21.6C1542.6,491.8,1543.2,492.8,1543.9,493.9z"/>
	<path class="st1" d="M1457.6,371c-0.9-1.1-2.5-1.2-3.5-0.3c-1.1,0.9-1.2,2.5-0.3,3.5c0.1,0.1,8.7,10.6,19,23.3
		c0.5,0.6,1.2,0.9,1.9,0.9c0.6,0,1.1-0.2,1.6-0.6c1.1-0.9,1.2-2.4,0.4-3.5C1466.3,381.6,1457.7,371.1,1457.6,371z"/>
	<path class="st1" d="M1508.3,434.6c-2.9-4-7.3-9.7-12.9-16.8c-0.9-1.1-2.4-1.3-3.5-0.4c-1.1,0.9-1.3,2.4-0.4,3.5
		c5.6,7.1,9.9,12.7,12.8,16.7c0,0,2.1,2.8,5.3,7.2c0.5,0.7,1.3,1,2,1c0.5,0,1-0.2,1.5-0.5c1.1-0.8,1.4-2.4,0.5-3.5
		C1510.4,437.5,1508.3,434.6,1508.3,434.6z"/>
	<polygon class="st1" points="1556.8,795.6 1538.3,787.6 1556.4,831.7 1575.3,787.9 	"/>
</g>
</svg>
