<svg id="gp_-_Pit_Road" data-name="gp - Pit Road" xmlns="http://www.w3.org/2000/svg" viewBox="0 0 1920 1080"><defs><style>.cls-1{fill:#0089ba;}.cls-2{fill:#d82520;}</style></defs><g id="Mergeline"><path class="cls-1" d="M796.74,969.88c-4.1.27-9,.68-15.08,1.24a5,5,0,0,0,.46,10l.47,0c6-.55,10.8-1,14.82-1.22a5,5,0,0,0-.67-10Z"/><path class="cls-1" d="M701.56,979.3c-10.85,1-19.55,1.74-26.59,2.18a5,5,0,0,0,.31,10h.31c7.15-.44,15.95-1.16,26.92-2.2a5,5,0,0,0-1-10Z"/><path class="cls-1" d="M648.23,982.83c-8.94.46-17.71.91-26.77,1.31a5,5,0,0,0,.22,10h.22c9.09-.41,17.88-.85,26.84-1.31a5,5,0,0,0-.51-10Z"/><path class="cls-1" d="M754.91,973.8l-12.13,1.28c-4.82.52-9.7,1-14.56,1.54a5,5,0,0,0,.51,10l.53,0L743.84,985,756,983.75a5,5,0,0,0-1-10Z"/><path class="cls-1" d="M594.78,985.1c-3.83.1-7.49.17-10.95.21l-.35-21.08-8,.14.39,23.07a4.89,4.89,0,0,0,.1,5.95l.38,23,8-.13L584,995.31c3.49,0,7.18-.12,11-.21a5,5,0,1,0-.26-10Z"/></g><g id="Pitroad"><path class="cls-2" d="M1179.24,873.55a2.5,2.5,0,0,0,.14-5c-5.45-.32-10.37-.55-15.05-.69a2.5,2.5,0,1,0-.16,5c4.64.15,9.52.37,14.92.69Z"/><path class="cls-2" d="M1082.46,972.64l-29.55,0h0a2.5,2.5,0,0,0,0,5l29.55,0h0a2.5,2.5,0,0,0,0-5Z"/><path class="cls-2" d="M905.2,972.28l-29.54-.08h0a2.5,2.5,0,0,0,0,5l29.55.08h0a2.5,2.5,0,0,0,0-5Z"/><path class="cls-2" d="M1023.36,972.56l-29.54-.06h0a2.5,2.5,0,0,0,0,5l29.54.06h0a2.5,2.5,0,1,0,0-5Z"/><path class="cls-2" d="M964.28,972.44l-29.54-.08h0a2.5,2.5,0,0,0,0,5l29.54.08h0a2.5,2.5,0,0,0,0-5Z"/><path class="cls-2" d="M1141.5,972.16c-12.27.2-21.93.34-29.54.4a2.5,2.5,0,0,0,0,5h0c7.62-.06,17.29-.2,29.57-.41a2.5,2.5,0,1,0-.08-5Z"/><path class="cls-2" d="M1312.59,954.69c-.41.46-.83.89-1.26,1.3a44.23,44.23,0,0,1-22.75,12.11,2.5,2.5,0,1,0,1.08,4.88,48.9,48.9,0,0,0,25.15-13.4c.51-.49,1-1,1.49-1.54a2.5,2.5,0,1,0-3.71-3.35Z"/><path class="cls-2" d="M1296.59,884.2a2.5,2.5,0,0,0,.91-4.83c-9.5-3.69-20-4.53-29.82-4.88a2.5,2.5,0,1,0-.18,5c9.43.34,19.38,1.13,28.18,4.55A2.44,2.44,0,0,0,1296.59,884.2Z"/><path class="cls-2" d="M1320.25,899.76a2.5,2.5,0,0,0-4.41,2.35,52.58,52.58,0,0,1,6.49,24.88c0,.74,0,1.48-.06,2.2a2.5,2.5,0,0,0,2.39,2.61h.11a2.51,2.51,0,0,0,2.5-2.39q.06-1.2.06-2.43A57.36,57.36,0,0,0,1320.25,899.76Z"/><path class="cls-2" d="M1238.1,878.14a2.5,2.5,0,0,0,.19-5c-6.16-.46-12.8-1-19.82-1.62l-9.59-.8a2.5,2.5,0,0,0-.41,5l9.57.81c7,.59,13.69,1.16,19.87,1.62Z"/><path class="cls-2" d="M1200.65,971.06h-.05l-29.56.56a2.5,2.5,0,0,0,0,5h.05l29.55-.56a2.5,2.5,0,0,0,0-5Z"/><path class="cls-2" d="M1259.77,970.25H1259c-6.5,0-15.93.1-28.84.3a2.5,2.5,0,0,0,0,5h0c12.88-.19,22.29-.29,28.77-.29h.75a2.5,2.5,0,0,0,0-5Z"/><path class="cls-2" d="M846.44,972.1l-9,0,5.29-12.36-35.15,14.73,35.08,14.89-5.18-12.26,9,0h0a2.5,2.5,0,0,0,0-5Z"/></g></svg>