<svg id="hickory_-_Pit_Road" data-name="hickory - Pit Road" xmlns="http://www.w3.org/2000/svg" viewBox="0 0 1920 1080"><defs><style>.cls-1{fill:#0089ba;}.cls-2{fill:#d82520;}</style></defs><g id="Mergeline"><path class="cls-1" d="M1250.53,726.23h0c-4.84,0-9.84,0-14.86-.15a5,5,0,1,0-.24,10c4.28.11,8.56.16,12.74.16h2.41a5,5,0,0,0,0-10Z"/><path class="cls-1" d="M1308.56,721.86c-9.21,1.45-18.94,2.55-28.9,3.27a5,5,0,0,0,.36,10l.37,0c10.23-.74,20.23-1.87,29.72-3.36a5,5,0,1,0-1.55-9.88Z"/><path class="cls-1" d="M1364.43,707.07A242.11,242.11,0,0,1,1337,716a5,5,0,1,0,2.53,9.67,251.53,251.53,0,0,0,28.62-9.29,5,5,0,0,0-3.67-9.31Z"/><path class="cls-1" d="M1482,444.49a5,5,0,0,0,4.77,3.51,5.2,5.2,0,0,0,1.5-.23,5,5,0,0,0,3.27-6.27,232.56,232.56,0,0,0-10.86-28.11,5,5,0,0,0-9.08,4.2A221.56,221.56,0,0,1,1482,444.49Z"/><path class="cls-1" d="M1383.76,301c-7.84-5.68-16.18-11.29-24.77-16.65a5,5,0,0,0-5.3,8.48c8.4,5.25,16.55,10.72,24.2,16.26a4.94,4.94,0,0,0,2.93,1,5,5,0,0,0,2.94-9.05Z"/><path class="cls-1" d="M1488.83,472.51A226,226,0,0,1,1492,501.2a5,5,0,0,0,5,4.78h.23a5,5,0,0,0,4.77-5.22,236.26,236.26,0,0,0-3.26-29.95,5,5,0,0,0-9.85,1.71Z"/><path class="cls-1" d="M1486.65,583.53a5,5,0,0,0-6.28,3.25,205.65,205.65,0,0,1-10.52,26.81,5,5,0,0,0,9,4.36,215.14,215.14,0,0,0,11.05-28.13A5,5,0,0,0,1486.65,583.53Z"/><path class="cls-1" d="M1496.84,525.49a5,5,0,0,0-5.37,4.6,251,251,0,0,1-3.92,28.66,5,5,0,0,0,4,5.87,5.28,5.28,0,0,0,1,.09,5,5,0,0,0,4.91-4,261.51,261.51,0,0,0,4.07-29.81A5,5,0,0,0,1496.84,525.49Z"/><path class="cls-1" d="M1449,362.37a5,5,0,1,0-7.83,6.22,255.12,255.12,0,0,1,16.69,23.61,5,5,0,1,0,8.48-5.29A264.81,264.81,0,0,0,1449,362.37Z"/><path class="cls-1" d="M1461.46,636.6a5,5,0,0,0-7,1,229.34,229.34,0,0,1-18.67,22,5,5,0,0,0,3.6,8.48,5,5,0,0,0,3.59-1.53,239.81,239.81,0,0,0,19.49-22.95A5,5,0,0,0,1461.46,636.6Z"/><path class="cls-1" d="M1407.27,319.46a5,5,0,1,0-6.49,7.61c7.5,6.4,14.64,13.06,21.24,19.8a5,5,0,0,0,7.07.08,5,5,0,0,0,.08-7.07C1422.36,332.92,1415,326.05,1407.27,319.46Z"/><path class="cls-1" d="M1414.39,678.83a197,197,0,0,1-24,15.9,5,5,0,0,0,4.91,8.71,207.66,207.66,0,0,0,25.17-16.71,5,5,0,0,0-6.13-7.9Z"/><path class="cls-1" d="M1335.07,276a5,5,0,0,0-2-6.78c-3.21-1.74-6.5-3.47-9.82-5.19l9.59-18.65-7.11-3.66L1315.2,262.2a4.9,4.9,0,0,0-2.72,5.28L1301.93,288l7.11,3.66,9.62-18.7c3.25,1.68,6.49,3.38,9.63,5.09a5,5,0,0,0,6.78-2Z"/></g><g id="Pitroad"><path class="cls-2" d="M535.31,590.75a2.5,2.5,0,1,0-4.32,2.52c2.52,4.33,5.31,8.64,8.27,12.78a2.52,2.52,0,0,0,2,1.05,2.46,2.46,0,0,0,1.45-.47,2.51,2.51,0,0,0,.58-3.49C540.45,599.12,537.76,595,535.31,590.75Z"/><path class="cls-2" d="M689.38,693.54c-9.59-2.76-19-5.8-27.84-9a2.5,2.5,0,0,0-1.71,4.7c9,3.27,18.47,6.34,28.16,9.14a2.35,2.35,0,0,0,.69.1,2.51,2.51,0,0,0,.7-4.91Z"/><path class="cls-2" d="M746.49,706.56c-9.79-1.7-19.46-3.63-28.74-5.74a2.5,2.5,0,0,0-1.11,4.88c9.36,2.12,19.12,4.07,29,5.79l.43,0a2.5,2.5,0,0,0,.43-5Z"/><path class="cls-2" d="M634.48,673.47c-9.1-4.16-17.83-8.65-26-13.35a2.5,2.5,0,1,0-2.51,4.33c8.26,4.78,17.13,9.34,26.38,13.57a2.54,2.54,0,0,0,1,.23,2.51,2.51,0,0,0,1-4.78Z"/><path class="cls-2" d="M584.18,644.13a206.26,206.26,0,0,1-22-18.94,2.5,2.5,0,1,0-3.53,3.55,212,212,0,0,0,22.57,19.39,2.45,2.45,0,0,0,1.49.5,2.5,2.5,0,0,0,1.5-4.5Z"/><path class="cls-2" d="M981.1,722.25q-14.91-.5-29.44-1a2.5,2.5,0,1,0-.18,5c9.67.34,19.52.68,29.45,1H981a2.5,2.5,0,0,0,.08-5Z"/><path class="cls-2" d="M1040,724.07q-14.71-.42-29.47-.88a2.53,2.53,0,0,0-2.57,2.42,2.49,2.49,0,0,0,2.42,2.57q14.73.47,29.47.89h.07a2.5,2.5,0,0,0,.08-5Z"/><path class="cls-2" d="M1098.89,725.7c-9.65-.25-19.49-.51-29.45-.79a2.5,2.5,0,0,0-.14,5l29.46.79h.06a2.5,2.5,0,0,0,.07-5Z"/><path class="cls-2" d="M804.66,714.08c-9.87-.87-19.68-1.93-29.17-3.15a2.5,2.5,0,0,0-.64,5c9.56,1.23,19.44,2.29,29.37,3.17h.22a2.5,2.5,0,0,0,.22-5Z"/><path class="cls-2" d="M1157.79,727.16c-9.43-.22-19.28-.45-29.45-.71a2.5,2.5,0,0,0-.13,5l29.46.71h.06a2.5,2.5,0,0,0,.06-5Z"/><path class="cls-2" d="M922.22,720.17c-10.13-.39-20-.78-29.43-1.18a2.5,2.5,0,0,0-.21,5c9.46.4,19.31.79,29.45,1.18h.1a2.5,2.5,0,0,0,.09-5Z"/><path class="cls-2" d="M863.37,717.68c-10.85-.52-20.75-1-29.41-1.53a2.5,2.5,0,1,0-.29,5c8.68.5,18.59,1,29.46,1.53h.12a2.5,2.5,0,0,0,.12-5Z"/><path class="cls-2" d="M1196,728l-9.07-.19a2.5,2.5,0,1,0-.1,5l8.91.19-5.46,12,35.47-13.95-34.74-15.67Z"/></g></svg>