<svg id="Oval_-_Pit_Road" data-name="Oval - Pit Road" xmlns="http://www.w3.org/2000/svg" viewBox="0 0 1920 1080"><defs><style>.cls-1{fill:#0089ba;}.cls-2{fill:#d32222;}</style></defs><g id="Mergeline"><path class="cls-1" d="M920.75,821.12c-9.31-.76-19.35-1.65-29.82-2.62a5,5,0,1,0-.93,10c10.51,1,20.58,1.87,29.93,2.64l.42,0a5,5,0,0,0,.4-10Z"/><path class="cls-1" d="M980.43,825.05c-9.3-.42-19.34-1-29.84-1.68a5,5,0,1,0-.67,10c10.58.71,20.69,1.28,30.06,1.7h.23a5,5,0,0,0,.22-10Z"/><path class="cls-1" d="M861.11,815.58c-9.37-1-19.4-2-29.81-3.11a5,5,0,0,0-1.06,9.95c10.43,1.11,20.48,2.16,29.86,3.11l.51,0a5,5,0,0,0,.5-10Z"/><path class="cls-1" d="M1040,825.68c-9.24.31-19.24.4-29.76.26a5,5,0,0,0-.13,10c3.27,0,6.47.07,9.62.07,7.15,0,14.09-.12,20.61-.34a5,5,0,1,0-.34-10Z"/><path class="cls-1" d="M1142.05,810.11l0,0a.05.05,0,0,0,0,0l-12.93-29.85-9.18,4,11,25.29c-1.37.55-2.74,1.09-4.11,1.6a5,5,0,0,0,1.76,9.69,5.2,5.2,0,0,0,1.76-.32q2.3-.87,4.57-1.79l10.9,25.18,9.18-4Z"/><path class="cls-1" d="M1098.68,819.17a274.13,274.13,0,0,1-29.1,4.52,5,5,0,0,0,.52,10l.53,0a288.6,288.6,0,0,0,30.14-4.69,5,5,0,1,0-2.09-9.78Z"/></g><g id="Pitroad"><path class="cls-2" d="M660.58,325.7c-9.05,4.57-17.9,9.58-26.33,14.9a2.51,2.51,0,0,0-.77,3.45,2.47,2.47,0,0,0,2.11,1.17,2.54,2.54,0,0,0,1.34-.39c8.28-5.24,17-10.17,25.9-14.67a2.5,2.5,0,1,0-2.25-4.46Z"/><path class="cls-2" d="M646.13,740.36c-8.06-5.89-15.88-12.14-23.24-18.58a2.5,2.5,0,1,0-3.29,3.76c7.46,6.54,15.4,12.89,23.59,18.86a2.5,2.5,0,1,0,2.94-4Z"/><path class="cls-2" d="M609.53,358.06a262.08,262.08,0,0,0-22.67,20.07,2.5,2.5,0,0,0,3.53,3.55A256.8,256.8,0,0,1,612.63,362a2.5,2.5,0,0,0-3.1-3.93Z"/><path class="cls-2" d="M696.92,771.38c-8.93-4.54-17.68-9.41-26-14.49a2.5,2.5,0,1,0-2.6,4.27c8.44,5.14,17.31,10.08,26.35,14.68a2.45,2.45,0,0,0,1.14.27,2.5,2.5,0,0,0,1.13-4.73Z"/><path class="cls-2" d="M751.81,794.56c-9.49-3.27-18.86-6.86-27.85-10.65a2.5,2.5,0,0,0-1.94,4.61c9.09,3.83,18.57,7.46,28.16,10.77a2.56,2.56,0,0,0,.81.14,2.51,2.51,0,0,0,.82-4.87Z"/><path class="cls-2" d="M716.29,302.38c-11.14,4.26-20.58,7.95-28.07,11a2.5,2.5,0,0,0,.94,4.82,2.33,2.33,0,0,0,.93-.18c7.47-3,16.88-6.69,28-10.94a2.5,2.5,0,0,0-1.78-4.67Z"/><path class="cls-2" d="M540.2,452a2.5,2.5,0,0,0-3.24,1.43,207.57,207.57,0,0,0-8.82,29,2.5,2.5,0,0,0,1.89,3,2.08,2.08,0,0,0,.55.07,2.5,2.5,0,0,0,2.44-1.95,202.14,202.14,0,0,1,8.61-28.31A2.5,2.5,0,0,0,540.2,452Z"/><path class="cls-2" d="M528.35,542.45c-.3-4.55-.46-9.14-.46-13.62,0-5.37.22-10.75.65-16a2.5,2.5,0,0,0-5-.4c-.43,5.37-.66,10.89-.66,16.39,0,4.59.16,9.28.47,13.95a2.49,2.49,0,0,0,2.49,2.33H526A2.51,2.51,0,0,0,528.35,542.45Z"/><path class="cls-2" d="M532.29,571.82a2.5,2.5,0,0,0-4.9,1,245.4,245.4,0,0,0,7.86,29.26,2.5,2.5,0,0,0,2.37,1.7,2.42,2.42,0,0,0,.79-.13,2.51,2.51,0,0,0,1.58-3.17A239.5,239.5,0,0,1,532.29,571.82Z"/><path class="cls-2" d="M551.08,628a2.5,2.5,0,1,0-4.52,2.14A273.4,273.4,0,0,0,561,656.75a2.5,2.5,0,0,0,2.13,1.18,2.38,2.38,0,0,0,1.3-.37,2.49,2.49,0,0,0,.82-3.44A268.58,268.58,0,0,1,551.08,628Z"/><path class="cls-2" d="M772.61,281.27c-10,3.71-19.52,7.23-28.19,10.47a2.5,2.5,0,0,0,.88,4.84,2.71,2.71,0,0,0,.88-.15c8.65-3.24,18.13-6.76,28.16-10.47a2.5,2.5,0,0,0-1.73-4.69Z"/><path class="cls-2" d="M582.13,678.57a2.5,2.5,0,0,0-4,3c6.08,7.88,12.69,15.61,19.65,23a2.46,2.46,0,0,0,1.82.79,2.5,2.5,0,0,0,1.81-4.22C594.61,693.92,588.11,686.32,582.13,678.57Z"/><path class="cls-2" d="M570.3,400.39a2.51,2.51,0,0,0-3.51.45A216.09,216.09,0,0,0,550,426.07a2.5,2.5,0,1,0,4.35,2.47,210.66,210.66,0,0,1,16.43-24.64A2.51,2.51,0,0,0,570.3,400.39Z"/><path class="cls-2" d="M1288.17,120c-9.55.93-19.6,2.28-29.89,4a2.5,2.5,0,0,0,.42,5,3.29,3.29,0,0,0,.42,0c10.17-1.72,20.1-3.06,29.53-4a2.5,2.5,0,1,0-.48-5Z"/><path class="cls-2" d="M1228.74,129.85c-9.28,2.08-18.84,4.42-29.22,7.16a2.5,2.5,0,0,0,.64,4.92,2.35,2.35,0,0,0,.64-.09c10.32-2.72,19.82-5.05,29-7.11a2.5,2.5,0,1,0-1.09-4.88Z"/><path class="cls-2" d="M1170.57,145.08c-9,2.61-18.36,5.45-28.75,8.66a2.5,2.5,0,0,0,.74,4.89,2.42,2.42,0,0,0,.74-.11c10.36-3.21,19.74-6,28.67-8.64a2.5,2.5,0,0,0-1.4-4.8Z"/><path class="cls-2" d="M1348.51,119.48c-9.92-.87-20.06-1.25-30.2-1.15a2.5,2.5,0,0,0,0,5c10-.1,20,.28,29.72,1.13h.22a2.5,2.5,0,0,0,.21-5Z"/><path class="cls-2" d="M1407.87,130.46c-9.9-2.77-19.8-5.08-29.41-6.87a2.5,2.5,0,1,0-.92,4.91c9.47,1.77,19.22,4.05,29,6.77a2.22,2.22,0,0,0,.67.1,2.5,2.5,0,0,0,.67-4.91Z"/><path class="cls-2" d="M1464.65,150.7c-9.59-4.08-19-7.8-28-11a2.5,2.5,0,0,0-1.69,4.71c8.92,3.21,18.27,6.88,27.77,10.93a2.42,2.42,0,0,0,1,.2,2.5,2.5,0,0,0,1-4.8Z"/><path class="cls-2" d="M1113.19,162.78c-8.43,2.71-17.77,5.73-28.54,9.25a2.5,2.5,0,0,0,.77,4.88,2.64,2.64,0,0,0,.78-.12c10.76-3.52,20.09-6.54,28.52-9.25a2.5,2.5,0,1,0-1.53-4.76Z"/><path class="cls-2" d="M942.28,220.09c-9,3.18-18.5,6.55-28.34,10a2.5,2.5,0,0,0,1.68,4.71c9.84-3.5,19.33-6.87,28.32-10a2.5,2.5,0,0,0-1.66-4.72Z"/><path class="cls-2" d="M885.63,240.24,857.34,250.4a2.51,2.51,0,0,0,.85,4.86,2.54,2.54,0,0,0,.85-.15c9.52-3.43,19-6.83,28.28-10.16a2.5,2.5,0,1,0-1.69-4.71Z"/><path class="cls-2" d="M829.08,260.62c-9.51,3.45-19,6.89-28.25,10.29a2.5,2.5,0,0,0,.86,4.85,2.42,2.42,0,0,0,.86-.16c9.28-3.39,18.73-6.83,28.23-10.28a2.5,2.5,0,1,0-1.7-4.7Z"/><path class="cls-2" d="M1056.14,181.38l-8.38,2.76-20.11,6.61a2.5,2.5,0,0,0,.78,4.88,2.36,2.36,0,0,0,.78-.13l20.11-6.61,8.39-2.76a2.5,2.5,0,0,0-1.57-4.75Z"/><path class="cls-2" d="M999.09,200.25c-7.78,2.67-17.35,6-28.44,9.87a2.5,2.5,0,0,0,.82,4.86,2.63,2.63,0,0,0,.83-.14c11.08-3.88,20.64-7.19,28.41-9.85a2.5,2.5,0,1,0-1.62-4.74Z"/><path class="cls-2" d="M795,807.3c-5-1.23-9.89-2.52-14.72-3.87a2.5,2.5,0,1,0-1.34,4.82c4.93,1.37,10,2.69,15,3.94l-10,14.24,46.78-9-39.09-27.23Z"/></g></svg>