<svg id="International_-_Pit_Road" data-name="International - Pit Road" xmlns="http://www.w3.org/2000/svg" viewBox="0 0 1920 1080"><defs><style>.cls-1{fill:#0089ba;}.cls-2{fill:#d82520;}</style></defs><g id="Mergeline"><path class="cls-1" d="M1125.42,223.48c-9.93-.5-20.47-1-30-1.48a5,5,0,0,0-.47,10c9.55.44,20.08,1,30,1.48h.26a5,5,0,0,0,.25-10Z"/><path class="cls-1" d="M1065.25,220.85c-9.47-.25-20.1-.6-30-1a5,5,0,1,0-.39,10c9.89.4,20.57.75,30.08,1h.13a5,5,0,0,0,.13-10Z"/><path class="cls-1" d="M1005.42,218.4c-5.25-.32-9.68-.65-13.15-1-5.67-.53-11.17-1.29-16.27-2a5,5,0,1,0-1.45,9.89c5.23.77,10.89,1.56,16.79,2.11,3.58.33,8.11.67,13.47,1h.31a5,5,0,0,0,.3-10Z"/><path class="cls-1" d="M1185.83,228.29c-11.09-1.81-18.09-2.91-21.84-3-1.41,0-4.22-.14-8.57-.34a5,5,0,1,0-.46,10c4.45.21,7.34.32,8.85.35,3.3.06,12,1.48,20.41,2.85a4.43,4.43,0,0,0,.81.07,5,5,0,0,0,.8-9.94Z"/><path class="cls-1" d="M1227,206.44l-1.33,27.43c-3.09-.27-6.5-.64-10.31-1.12a5,5,0,1,0-1.25,9.93c4.09.51,7.75.9,11.07,1.18l-1.34,27.5,10,.49,3.16-64.93Z"/></g><g id="Pitroad"><path class="cls-2" d="M632.24,230.38c-13.81,1.77-23.55,3-29.8,3.69a2.5,2.5,0,0,0,.28,5l.29,0c6.27-.72,16-1.93,29.86-3.7a2.5,2.5,0,1,0-.63-5Z"/><path class="cls-2" d="M691.84,222.67l-24.64,3.19-5.16.67a2.5,2.5,0,0,0,.31,5,1.83,1.83,0,0,0,.33,0l5.17-.67,24.63-3.19a2.5,2.5,0,0,0-.64-5Z"/><path class="cls-2" d="M512.66,242c-13.7,1.32-23.79,2.45-30,3.36a2.5,2.5,0,0,0,.36,5,2.36,2.36,0,0,0,.37,0c6.11-.9,16.12-2,29.74-3.33a2.5,2.5,0,0,0-.48-5Z"/><path class="cls-2" d="M572.56,236.74c-8.95.74-19.35,1.6-29.95,2.52a2.5,2.5,0,0,0,.21,5H543c10.6-.92,21-1.78,29.93-2.52a2.5,2.5,0,1,0-.41-5Z"/><path class="cls-2" d="M812,215.11c-9.61.3-20,.67-30,1.06a2.5,2.5,0,0,0,.09,5h.1c10-.39,20.41-.76,30-1.06a2.5,2.5,0,0,0-.16-5Z"/><path class="cls-2" d="M872.13,213.93h0c-10.37.12-21,.27-30,.42a2.5,2.5,0,0,0,.05,5h0c9-.15,19.65-.3,30-.42a2.5,2.5,0,0,0,0-5Z"/><path class="cls-2" d="M751.91,217.48c-12.57.61-22.69,1.2-30.06,1.76a2.5,2.5,0,0,0,.18,5h.19c7.34-.55,17.41-1.14,29.94-1.75a2.5,2.5,0,0,0-.25-5Z"/><path class="cls-2" d="M957.28,217.78l-43-20.41,6.08,16.24c-5.55,0-11.71,0-18.19,0a2.5,2.5,0,0,0,0,5h0c6.39,0,12.48,0,18,0l-7.52,15.75Z"/></g></svg>