<svg id="International_Reverse_-_Pit_Road" data-name="International Reverse - Pit Road" xmlns="http://www.w3.org/2000/svg" viewBox="0 0 1920 1080"><defs><style>.cls-1{fill:#0089ba;}.cls-2{fill:#d82520;}</style></defs><g id="Mergeline"><path class="cls-1" d="M522,239.61c-9.18,1.28-18.5,2.68-29.73,4.39a5,5,0,1,0,1.5,9.88c11.2-1.69,20.49-3.09,29.61-4.37a5,5,0,1,0-1.38-9.9Z"/><path class="cls-1" d="M462.63,248.42c-9.7,1.41-18.61,2.65-27.15,3.76l-3.72-27.33-9.91,1.35,8.76,64.41,9.91-1.35-3.69-27.17c8.57-1.12,17.5-2.36,27.24-3.77a5,5,0,1,0-1.44-9.9Z"/><path class="cls-1" d="M641.52,226.45c-10.16,1.2-20.19,2.36-29.82,3.44a5,5,0,0,0,.55,10l.57,0c9.65-1.09,19.7-2.25,29.87-3.45a5,5,0,1,0-1.17-9.93Z"/><path class="cls-1" d="M706.7,223.19A5,5,0,0,0,701,219c-5.33.79-15.88,2.17-29.69,3.88a5,5,0,0,0,.6,10,4.21,4.21,0,0,0,.62,0c14.1-1.74,24.45-3.09,29.94-3.91A5,5,0,0,0,706.7,223.19Z"/><path class="cls-1" d="M581.87,233.15c-10,1-17.82,1.8-23.1,2.23-2.24.17-4.5.38-6.78.59a5,5,0,0,0,.47,10l.49,0c2.23-.22,4.43-.41,6.62-.59,5.37-.43,13.22-1.18,23.34-2.24a5,5,0,0,0-1-9.95Z"/></g><g id="Pitroad"><path class="cls-2" d="M881.06,213.44q-6,.1-11.92.17c-5.28.06-11.37.17-18.1.32a2.5,2.5,0,0,0,.05,5h.06c6.72-.15,12.79-.26,18.05-.32,4-.05,8-.1,11.94-.17a2.5,2.5,0,0,0,2.46-2.54A2.47,2.47,0,0,0,881.06,213.44Z"/><path class="cls-2" d="M941.23,213.45c-6.1-.32-13.43-.47-22.42-.47-2.5,0-5.1,0-7.73,0a2.5,2.5,0,0,0,0,5h0l7.6,0h.09c8.9,0,16.15.15,22.16.47h.13a2.5,2.5,0,0,0,.13-5Z"/><path class="cls-2" d="M821,214.74c-10.32.33-21,.7-30,1.06a2.5,2.5,0,0,0,.1,5h.1c9-.36,19.67-.73,30-1.06a2.5,2.5,0,0,0-.16-5Z"/><path class="cls-2" d="M761,217.08l-9.05.41,5.82-16.43-42.68,21.17L760,238l-7.76-15.54,8.94-.4a2.5,2.5,0,0,0-.22-5Z"/><path class="cls-2" d="M1180.87,230c-3.2-.3-13.73-1.05-30-2.06a2.48,2.48,0,0,0-2.65,2.34,2.52,2.52,0,0,0,2.34,2.65c16.26,1,26.73,1.76,29.89,2.05h.24a2.5,2.5,0,0,0,.23-5Z"/><path class="cls-2" d="M1120.84,226.2c-10.09-.56-20.18-1.09-30-1.57a2.5,2.5,0,0,0-.24,5c9.8.48,19.88,1,30,1.56h.14a2.5,2.5,0,0,0,.14-5Z"/><path class="cls-2" d="M1060.84,223.27l-3.81-.15c-8.24-.33-17-.81-26.09-1.42a2.5,2.5,0,1,0-.34,5c9.12.62,17.94,1.1,26.23,1.43l3.8.16h.11a2.5,2.5,0,0,0,.1-5Z"/><path class="cls-2" d="M1001.07,219.32c-11.66-1.06-22.07-2.13-29.83-2.95a2.5,2.5,0,1,0-.53,5c7.78.82,18.21,1.9,29.91,3h.23a2.5,2.5,0,0,0,.22-5Z"/></g></svg>