<?xml version="1.0" encoding="utf-8"?>
<!-- Generator: Adobe Illustrator 26.0.1, SVG Export Plug-In . SVG Version: 6.00 Build 0)  -->
<svg version="1.1" id="National_-_Pit_Road" xmlns="http://www.w3.org/2000/svg" xmlns:xlink="http://www.w3.org/1999/xlink"
	 x="0px" y="0px" viewBox="0 0 1920 1080" style="enable-background:new 0 0 1920 1080;" xml:space="preserve">
<style type="text/css">
	.st0{fill:#0089BA;}
	.st1{fill:#D82520;}
</style>
<g id="Mergeline">
	<path class="st0" d="M1125.5,223.5L1125.5,223.5c-10-0.5-20.5-1-30-1.5c-2.8-0.1-5.1,2-5.2,4.8s2,5.1,4.8,5.2
		c9.6,0.4,20.1,1,30,1.5h0.3c2.8,0.1,5.1-2.1,5.1-4.9S1128.2,223.5,1125.5,223.5z"/>
	<path class="st0" d="M1005.4,218.4L1005.4,218.4c-5.2-0.3-9.7-0.6-13.1-1c-5.7-0.5-11.2-1.3-16.3-2c-2.7-0.5-5.3,1.3-5.8,4.1
		c-0.5,2.7,1.3,5.3,4.1,5.8c0.1,0,0.2,0,0.3,0c5.2,0.8,10.9,1.6,16.8,2.1c3.6,0.3,8.1,0.7,13.5,1h0.3c2.8,0.1,5.1-2.1,5.1-4.8
		C1010.4,220.8,1008.2,218.5,1005.4,218.4z"/>
	<path class="st0" d="M1065.2,220.8L1065.2,220.8c-9.4-0.2-20-0.6-29.9-1c-2.8-0.1-5.1,2-5.2,4.8c-0.1,2.8,2,5.1,4.8,5.2
		c9.9,0.4,20.6,0.8,30.1,1h0.1c2.8,0,5-2.2,5.1-4.9C1070.2,223.2,1068,220.9,1065.2,220.8z"/>
	<path class="st0" d="M1185.8,228.3L1185.8,228.3c-11.1-1.8-18.1-2.9-21.8-3c-1.4,0-4.2-0.1-8.6-0.3c-2.8-0.1-5.1,2-5.2,4.8
		c-0.1,2.8,2,5.1,4.8,5.2c4.4,0.2,7.3,0.3,8.8,0.3c3.3,0.1,12,1.5,20.4,2.9c0.3,0,0.5,0.1,0.8,0.1c2.8,0,5-2.2,5-5
		C1190.1,230.8,1188.3,228.7,1185.8,228.3z"/>
	<path class="st0" d="M1227,206.4l-1.3,27.4c-3.1-0.3-6.5-0.6-10.3-1.1c-2.7-0.3-5.2,1.6-5.6,4.3c-0.3,2.7,1.6,5.2,4.3,5.6
		c4.1,0.5,7.8,0.9,11.1,1.2l-1.3,27.5l10,0.5l3.2-64.9L1227,206.4z"/>
</g>
<g id="Pitroad">
	<path class="st1" d="M633.9,230.8L633.9,230.8l-29.8,4.1c-1.4,0.1-2.4,1.3-2.3,2.7c0.1,1.4,1.3,2.4,2.7,2.3h0.3l29.8-4.1
		c1.4-0.2,2.3-1.5,2.2-2.8C636.5,231.6,635.3,230.6,633.9,230.8z"/>
	<path class="st1" d="M574.3,239L574.3,239c-16.4,2.2-26.2,3.5-29.8,3.8c-1.4,0.1-2.4,1.2-2.4,2.6c0.1,1.4,1.2,2.4,2.6,2.4h0.2
		c3.7-0.3,13.5-1.6,30-3.8c1.4-0.2,2.4-1.5,2.2-2.8C577,239.8,575.7,238.8,574.3,239z"/>
	<path class="st1" d="M693.5,222.6L693.5,222.6c-8.4,1.1-18.6,2.5-29.8,4.1c-1.4,0.1-2.4,1.3-2.3,2.7c0.1,1.4,1.3,2.4,2.7,2.3
		c0.1,0,0.2,0,0.3,0c11.2-1.5,21.4-3,29.8-4.1c1.4-0.2,2.4-1.5,2.2-2.8C696.1,223.4,694.8,222.4,693.5,222.6z"/>
	<path class="st1" d="M873.8,213.9c-10.2,0.1-20.9,0.3-30,0.4c-1.4,0-2.5,1.1-2.5,2.5c0,1.4,1.1,2.5,2.5,2.5
		c9.1-0.2,19.8-0.3,30-0.4c1.4,0,2.5-1.1,2.5-2.5C876.3,215,875.2,213.9,873.8,213.9z"/>
	<path class="st1" d="M753.5,217.4L753.5,217.4c-12.4,0.6-22.5,1.2-30.1,1.7c-1.4,0-2.5,1.2-2.4,2.6c0,1.4,1.2,2.5,2.6,2.4h0.2
		c7.5-0.5,17.6-1.1,29.9-1.7c1.4-0.1,2.4-1.2,2.4-2.6C756.1,218.4,754.9,217.3,753.5,217.4z"/>
	<path class="st1" d="M813.7,215.1L813.7,215.1c-9.6,0.3-20,0.7-30,1c-1.4,0-2.5,1.2-2.5,2.5c0,1.4,1.2,2.5,2.5,2.5h0.1
		c10.1-0.4,20.5-0.8,30-1c1.4,0,2.5-1.2,2.4-2.6C816.2,216.1,815,215,813.7,215.1z"/>
	<path class="st1" d="M957.3,217.8l-43-20.4l6.1,16.2c-5.1,0-10.7,0-16.5,0c-1.4,0-2.5,1.1-2.5,2.5c0,1.4,1.1,2.5,2.5,2.5
		c5.8,0,11.3,0,16.3,0l-7.5,15.8L957.3,217.8z"/>
</g>
</svg>
