<svg id="National_Reverse_-_Pit_Road" data-name="National Reverse - Pit Road" xmlns="http://www.w3.org/2000/svg" viewBox="0 0 1920 1080"><defs><style>.cls-1{fill:#0089ba;}.cls-2{fill:#d82520;}</style></defs><g id="Mergeline"><path class="cls-1" d="M706.7,223.19A5,5,0,0,0,701,219c-3.1.46-8.3,1.26-15,2.3l-14.73,2.27a5,5,0,0,0,.75,9.94,6.64,6.64,0,0,0,.77-.05l14.74-2.27c6.69-1,11.87-1.84,15-2.3A5,5,0,0,0,706.7,223.19Z"/><path class="cls-1" d="M582.17,236.52c-11.35,1.51-21.35,2.75-29.71,3.68a5,5,0,0,0,.54,10,5.12,5.12,0,0,0,.56,0c8.44-.94,18.51-2.19,29.93-3.71a5,5,0,1,0-1.32-9.91Z"/><path class="cls-1" d="M641.58,228.06c-10.6,1.58-20.59,3-29.7,4.35a5,5,0,0,0,.7,10,5.81,5.81,0,0,0,.72-.05c9.13-1.31,19.14-2.78,29.76-4.37a5,5,0,0,0-1.48-9.88Z"/><rect class="cls-1" x="528.16" y="214.45" width="10" height="65" transform="translate(-17.76 42.66) rotate(-4.51)"/></g><g id="Pitroad"><path class="cls-2" d="M941.23,213.45c-6.1-.32-13.43-.47-22.42-.47-2.5,0-5.1,0-7.73,0a2.5,2.5,0,0,0,0,5h0l7.6,0h.09c8.9,0,16.15.15,22.16.47h.13a2.5,2.5,0,0,0,.13-5Z"/><path class="cls-2" d="M881.06,213.44q-6,.1-11.92.17c-5.28.06-11.37.17-18.1.32a2.5,2.5,0,0,0,.05,5h.06c6.72-.15,12.79-.26,18.05-.32,4-.05,8-.1,11.94-.17a2.5,2.5,0,0,0,2.46-2.54A2.47,2.47,0,0,0,881.06,213.44Z"/><path class="cls-2" d="M821,214.74c-10.32.33-21,.7-30,1.06a2.5,2.5,0,0,0,.1,5h.1c9-.36,19.67-.73,30-1.06a2.5,2.5,0,0,0-.16-5Z"/><path class="cls-2" d="M761,217.08l-9.05.41,5.82-16.43-42.68,21.17L760,238l-7.76-15.54,8.94-.4a2.5,2.5,0,0,0-.22-5Z"/><path class="cls-2" d="M1180.87,230c-3.2-.3-13.73-1.05-30-2.06a2.48,2.48,0,0,0-2.65,2.34,2.52,2.52,0,0,0,2.34,2.65c16.26,1,26.73,1.76,29.89,2.05h.24a2.5,2.5,0,0,0,.23-5Z"/><path class="cls-2" d="M1120.84,226.2c-10.09-.56-20.18-1.09-30-1.57a2.5,2.5,0,0,0-.24,5c9.8.48,19.88,1,30,1.56h.14a2.5,2.5,0,0,0,.14-5Z"/><path class="cls-2" d="M1060.84,223.27l-3.81-.15c-8.24-.33-17-.81-26.09-1.42a2.5,2.5,0,1,0-.34,5c9.12.62,17.94,1.1,26.23,1.43l3.8.16h.11a2.5,2.5,0,0,0,.1-5Z"/><path class="cls-2" d="M1001.07,219.32c-11.66-1.06-22.07-2.13-29.83-2.95a2.5,2.5,0,1,0-.53,5c7.78.82,18.21,1.9,29.91,3h.23a2.5,2.5,0,0,0,.22-5Z"/></g></svg>