<svg id="Rallycross_-_Pit_Road" data-name="Rallycross - Pit Road" xmlns="http://www.w3.org/2000/svg" viewBox="0 0 1920 1080"><defs><style>.cls-1{fill:#0089ba;}.cls-2{fill:#d82520;}.cls-3{fill:#ff9100;}</style></defs><g id="Mergeline"><path class="cls-1" d="M1005.42,218.4c-5.25-.32-9.68-.65-13.15-1-5.67-.53-11.17-1.29-16.27-2a5,5,0,1,0-1.45,9.89c5.23.77,10.89,1.56,16.79,2.11,3.58.33,8.11.67,13.47,1h.31a5,5,0,0,0,.3-10Z"/><path class="cls-1" d="M1125.42,223.48c-9.93-.5-20.47-1-30-1.48a5,5,0,0,0-.47,10c9.55.44,20.08,1,30,1.48h.26a5,5,0,0,0,.25-10Z"/><path class="cls-1" d="M1065.25,220.85c-9.47-.25-20.1-.6-30-1a5,5,0,1,0-.39,10c9.89.4,20.57.75,30.08,1h.13a5,5,0,0,0,.13-10Z"/><path class="cls-1" d="M1185.83,228.29c-11.09-1.81-18.09-2.91-21.84-3-1.41,0-4.22-.14-8.57-.34a5,5,0,1,0-.46,10c4.45.21,7.34.32,8.85.35,3.3.06,12,1.48,20.41,2.85a4.43,4.43,0,0,0,.81.07,5,5,0,0,0,.8-9.94Z"/><path class="cls-1" d="M1227,206.44l-1.33,27.43c-3.09-.27-6.5-.64-10.31-1.12a5,5,0,1,0-1.25,9.93c4.09.51,7.75.9,11.07,1.18l-1.34,27.5,10,.49,3.16-64.93Z"/></g><g id="Pitroad"><path class="cls-2" d="M753.55,217.4c-12.39.59-22.5,1.17-30.06,1.72a2.5,2.5,0,0,0,.18,5h.18c7.52-.54,17.59-1.12,29.94-1.71a2.5,2.5,0,1,0-.24-5Z"/><path class="cls-2" d="M693.45,222.57c-8.36,1.13-18.61,2.54-29.81,4.09a2.5,2.5,0,0,0,.34,5,2.06,2.06,0,0,0,.35,0c11.19-1.54,21.44-3,29.79-4.08a2.5,2.5,0,0,0-.67-5Z"/><path class="cls-2" d="M574.31,239c-16.42,2.21-26.15,3.45-29.77,3.78a2.5,2.5,0,0,0,.23,5H545c3.68-.34,13.48-1.59,30-3.81a2.5,2.5,0,0,0-.67-5Z"/><path class="cls-2" d="M633.87,230.77l-29.78,4.12a2.5,2.5,0,0,0,.34,5l.35,0,29.77-4.11a2.5,2.5,0,1,0-.68-5Z"/><path class="cls-2" d="M813.63,215.06c-9.54.29-19.92.66-30,1.05a2.5,2.5,0,0,0,.09,5h.1c10.11-.4,20.48-.76,30-1.05a2.5,2.5,0,0,0-.16-5Z"/><path class="cls-2" d="M873.77,213.91h0c-10.22.11-20.89.26-30,.42a2.5,2.5,0,0,0,0,5h0c9.13-.16,19.79-.31,30-.42a2.5,2.5,0,0,0,0-5Z"/><path class="cls-2" d="M957.28,217.78l-43-20.41,6.08,16.24c-5.08,0-10.67,0-16.55,0a2.5,2.5,0,0,0,0,5h0c5.8,0,11.32,0,16.35,0l-7.52,15.75Z"/></g><g id="Joker"><path class="cls-3" d="M376.62,266.76h.25c9.76-.48,19.78-1,30-1.44a5,5,0,0,0-.47-10c-10.19.48-20.21,1-30,1.44a5,5,0,0,0,.24,10Z"/><path class="cls-3" d="M286.42,261.65l-5.3.34A184.75,184.75,0,0,0,256,265.21a5,5,0,0,0,1,9.9,4.43,4.43,0,0,0,1-.11,175.63,175.63,0,0,1,23.79-3l5.28-.34a5,5,0,0,0-.64-10Z"/><path class="cls-3" d="M226.36,278.14A24.26,24.26,0,0,0,218,296.29a32.41,32.41,0,0,0,4.21,15.23,5,5,0,0,0,4.41,2.65,5.07,5.07,0,0,0,2.35-.58,5,5,0,0,0,2.06-6.77,22.77,22.77,0,0,1-3-10.53c0-4.1,1.67-7.63,5.11-10.79a5,5,0,1,0-6.77-7.36Z"/><path class="cls-3" d="M275.75,340.33c-10.85-5.23-18.42-9.1-22.5-11.49-1.12-.66-2.27-1.38-3.4-2.16a5,5,0,1,0-5.62,8.27c1.31.9,2.65,1.74,4,2.51,4.38,2.57,12,6.45,23.21,11.87a5,5,0,1,0,4.35-9Z"/><path class="cls-3" d="M439.62,414.69l-27.43-12.2a5,5,0,0,0-4.07,9.14l27.45,12.2a5,5,0,1,0,4.05-9.14Z"/><path class="cls-3" d="M384.79,390.26c-9.36-4.18-18.52-8.29-27.38-12.29a5,5,0,1,0-4.1,9.12c8.86,4,18,8.11,27.39,12.3a5,5,0,0,0,4.09-9.13Z"/><path class="cls-3" d="M330.09,365.6c-10-4.54-19.14-8.74-27.25-12.5a5,5,0,0,0-4.21,9.07c8.14,3.77,17.33,8,27.31,12.53a5,5,0,0,0,6.62-2.48A5,5,0,0,0,330.09,365.6Z"/><path class="cls-3" d="M351.65,263a5,5,0,0,0-5.25-4.73c-10.47.54-20.5,1.07-30,1.6a5,5,0,0,0,.28,10H317c9.47-.53,19.49-1.07,29.94-1.61A5,5,0,0,0,351.65,263Z"/><polygon class="cls-3" points="417.1 285.82 477.27 257.05 414.67 234.04 426.89 259.42 417.1 285.82"/></g></svg>