<svg id="PEC_Outer_-_Pit_Road" data-name="PEC Outer - Pit Road" xmlns="http://www.w3.org/2000/svg" viewBox="0 0 1920 1080"><defs><style>.cls-1{fill:#d82520;}</style></defs><path id="pitroad" class="cls-1" d="M922.66,882.21a2.49,2.49,0,0,1-2,1,2.46,2.46,0,0,1-1.44-.46,254.3,254.3,0,0,1-23.5-19.08A2.5,2.5,0,1,1,899,860a250.68,250.68,0,0,0,23,18.71A2.49,2.49,0,0,1,922.66,882.21Zm81.79,6.62c-14.39-2-25-1.23-31.08,2.34a2.5,2.5,0,0,0,2.52,4.31c3.11-1.82,8-2.74,14.44-2.74a99.16,99.16,0,0,1,13.43,1,2.5,2.5,0,0,0,.69-4.95Zm44.12,9.72c-5.08-1.11-10.25-2.38-15.25-3.62-4.59-1.13-9.33-2.3-13.93-3.32a2.5,2.5,0,0,0-1.09,4.88c4.55,1,9.26,2.17,13.83,3.3,5,1.24,10.22,2.52,15.37,3.65a2.49,2.49,0,0,0,3-1.91A2.51,2.51,0,0,0,1048.57,898.55Zm-88-2.3c-6,.59-12.23-1-18.42-4.67-3-1.78-5.47-3.27-7.74-4.67a2.5,2.5,0,1,0-2.63,4.25c2.29,1.42,4.78,2.92,7.82,4.72a36.31,36.31,0,0,0,18.54,5.49c1,0,2,0,2.91-.14a2.5,2.5,0,1,0-.48-5Zm177,5.26c-8.36.59-18.68,1-29.86,1.13a2.5,2.5,0,0,0,0,5h0c11.27-.15,21.69-.54,30.14-1.15a2.5,2.5,0,1,0-.35-5Zm-44.82,1.18c-7.37,0-14.35-.2-19.15-.43-3.31-.16-6.73-.49-10.46-1a2.5,2.5,0,1,0-.69,5c3.88.55,7.45.9,10.91,1.06,4.86.24,11.92.4,19.36.44h0a2.5,2.5,0,0,0,0-5Zm102.13-23.76-33.21,3.1,9.32,7.49c-2.89,3.15-5.68,6.08-8.88,7.92-1.12.64-3.73,1.6-9.81,2.53a2.5,2.5,0,0,0,.37,5,2.43,2.43,0,0,0,.38,0c5.58-.85,9.36-1.88,11.55-3.13a38.22,38.22,0,0,0,8.41-7.09l.92,10.19Z"/></svg>