<svg id="PEC_West_-_Pit_Road" data-name="PEC West - Pit Road" xmlns="http://www.w3.org/2000/svg" viewBox="0 0 1920 1080"><defs><style>.cls-1{fill:#d82520;}</style></defs><path id="Pitroad" class="cls-1" d="M939.77,894.76a2.49,2.49,0,0,1-3.44.83c-1.23-.75-2.5-1.54-3.79-2.35a251.55,251.55,0,0,1-21-15,2.51,2.51,0,1,1,3.11-3.93,241.42,241.42,0,0,0,20.6,14.7q1.9,1.2,3.73,2.32A2.49,2.49,0,0,1,939.77,894.76ZM898.9,860.9a2.5,2.5,0,1,0-3.39,3.68q2.22,2,4.38,3.95a2.5,2.5,0,0,0,3.31-3.75C901.79,863.53,900.35,862.24,898.9,860.9Zm78.41-50.54c-1.12,0-2.24-.05-3.36-.09l5.77-9.53-32.26,8.45L976,826.4l-2.95-11.15c1.4.06,2.8.1,4.18.11a7.87,7.87,0,0,1,7.41,8.65c-.12,1.22-.26,2.49-.4,3.79a2.5,2.5,0,0,0,2.2,2.77h.28a2.51,2.51,0,0,0,2.49-2.22c.14-1.32.28-2.61.41-3.83q.06-.66.06-1.35A12.71,12.71,0,0,0,977.31,810.36ZM973.86,884a2.5,2.5,0,0,0-3.21,1.48c-.56,1.49-1.11,3-1.65,4.39a14.15,14.15,0,0,1-13.12,9.2,13.49,13.49,0,0,1-4.32-.71,2.5,2.5,0,1,0-1.6,4.74,18.32,18.32,0,0,0,5.92,1,19.18,19.18,0,0,0,17.8-12.43l1.66-4.42A2.5,2.5,0,0,0,973.86,884Zm11.3-43.46a2.5,2.5,0,0,0-2.85,2.09c-1.13,7.34-2.35,13.67-3.53,18.29-.73,2.82-1.79,6.35-3.16,10.49a2.49,2.49,0,0,0,1.58,3.16,2.42,2.42,0,0,0,.79.13,2.5,2.5,0,0,0,2.37-1.72c1.41-4.24,2.51-7.89,3.26-10.82,1.23-4.78,2.48-11.27,3.63-18.77A2.5,2.5,0,0,0,985.16,840.49Z"/></svg>