<svg id="PEC_Handling_-_Pitroad" data-name="PEC Handling - Pitroad" xmlns="http://www.w3.org/2000/svg" viewBox="0 0 1920 1080"><defs><style>.cls-1{fill:#d82520;}</style></defs><path class="cls-1" d="M999.56,506.09a2.5,2.5,0,0,0-4.21,2.7c4,6.21,9.77,14.88,16.73,25.06a2.47,2.47,0,0,0,2.06,1.09,2.5,2.5,0,0,0,2.07-3.91C1009.28,520.89,1003.52,512.26,999.56,506.09Z"/><path class="cls-1" d="M988.46,479.68c-1.11-5.72-2.06-10.66-6.26-15.05a2.5,2.5,0,0,0-3.61,3.46c3.18,3.32,3.92,7.18,5,12.53a66.5,66.5,0,0,0,4.19,14.77,2.5,2.5,0,0,0,4.59-2A62.63,62.63,0,0,1,988.46,479.68Z"/><path class="cls-1" d="M1058.09,589.78l-.31-.39c-1.58-1.95-4-5.07-7-9.28a2.5,2.5,0,1,0-4,3c3.14,4.27,5.55,7.46,7.18,9.46l.32.39a163.31,163.31,0,0,0,11.84,13.59,2.5,2.5,0,1,0,3.52-3.55A162.88,162.88,0,0,1,1058.09,589.78Z"/><path class="cls-1" d="M1024.71,543.39a2.5,2.5,0,0,0-4.11,2.85c6,8.64,12,17.16,17.29,24.62a2.5,2.5,0,0,0,2,1,2.44,2.44,0,0,0,1.45-.47A2.49,2.49,0,0,0,1042,568C1036.65,560.51,1030.68,552,1024.71,543.39Z"/><path class="cls-1" d="M1132.19,626.07,1105,606.78l2.14,11.5c-3.08-.25-5.86-.5-8.59-.78a43.6,43.6,0,0,1-17.71-5.69,2.5,2.5,0,0,0-2.51,4.32,48.42,48.42,0,0,0,19.7,6.34c2.48.26,5,.49,7.73.72l-6.35,8.9Z"/></svg>