<svg id="Trioval_-_Pit_Road" data-name="Trioval - Pit Road" xmlns="http://www.w3.org/2000/svg" viewBox="0 0 1920 1080"><defs><style>.cls-1{fill:#0089ba;}.cls-2{fill:#d82520;}</style></defs><g id="Mergeline"><path class="cls-1" d="M748.44,238.52,724.2,240l-5.7.33a5,5,0,0,0,.27,10h.29l5.73-.33q12.36-.75,24.23-1.43a5,5,0,0,0-.58-10Z"/><path class="cls-1" d="M628.56,244.69c-11.63.64-21.46,1.26-30,1.9a5,5,0,0,0,.37,10h.37c8.52-.64,18.29-1.26,29.86-1.89a5,5,0,1,0-.55-10Z"/><path class="cls-1" d="M688.56,241.79l-13.89.65-16.09.74a5,5,0,0,0,.23,10h.24l16.08-.74,13.9-.65a5,5,0,0,0-.47-10Z"/><path class="cls-1" d="M568.72,248.41c-9,.34-19.5.81-30.35,2.1a5,5,0,0,0,.58,10,5.83,5.83,0,0,0,.59,0c10.49-1.25,20.76-1.7,29.56-2a5,5,0,1,0-.38-10Z"/><path class="cls-1" d="M508.05,256.82c-11.37,3.74-20.75,8.92-27.89,15.41a5,5,0,0,0-.52,6.81L453.27,260.6l-5.73,8.2L500.82,306l5.72-8.2-24.6-17.2a5.08,5.08,0,0,0,1.59.29,5,5,0,0,0,3.36-1.3c6.09-5.54,14.26-10,24.28-13.3a5,5,0,0,0-3.12-9.51Z"/><path class="cls-1" d="M951.77,217.23a5,5,0,0,0,0,10c5.24,0,9.08,2.6,9.3,3.65a4.15,4.15,0,0,1-1.48,1.64,13.85,13.85,0,0,1-3.18,1.86,5,5,0,1,0,3.84,9.23,23.18,23.18,0,0,0,5.45-3.18c4.43-3.42,5.36-7.07,5.36-9.53C971.06,222.46,961.05,217.23,951.77,217.23Z"/><path class="cls-1" d="M928.87,235.18c-4.89-.28-10.24-.57-16.29-.78-4.52-.16-9.19-.29-13.87-.39h-.1a5,5,0,0,0-.11,10c4.64.09,9.25.22,13.73.38,5.95.21,11.23.5,16.06.78h.3a5,5,0,0,0,.28-10Z"/><path class="cls-1" d="M868.61,233.81h0c-9.63.06-19.48.24-30.1.53a5,5,0,0,0,.14,10h.14c10.55-.29,20.33-.47,29.89-.53a5,5,0,0,0,0-10Z"/><path class="cls-1" d="M808.43,235.41c-9.23.4-19,.87-30,1.45a5,5,0,0,0,.25,10h.27c10.93-.57,20.72-1,29.92-1.43a5,5,0,0,0-.43-10Z"/></g><g id="Pitroad"><path class="cls-2" d="M645.8,228.47c-9.38,1.08-19.41,2.19-29.73,3.33H616a2.46,2.46,0,0,0-2.16,2.75,2.53,2.53,0,0,0,2.53,2.22h.28c10.33-1.15,20.36-2.26,29.75-3.33a2.5,2.5,0,1,0-.57-5Z"/><path class="cls-2" d="M705.57,222.1c-10.58,1-20.65,2-29.92,3a2.5,2.5,0,0,0,.26,5h.27c9.25-1,19.29-2,29.84-2.94a2.5,2.5,0,0,0-.45-5Z"/><path class="cls-2" d="M526.49,242.61c-12,1.72-21.72,3.34-29.75,4.93a2.5,2.5,0,0,0,.48,5,2,2,0,0,0,.49-.05c8-1.57,17.59-3.17,29.49-4.88a2.5,2.5,0,0,0-.71-4.95Z"/><path class="cls-2" d="M586.13,235.15c-11.35,1.29-21.11,2.44-29.83,3.52a2.5,2.5,0,0,0,.3,5l.31,0c8.71-1.08,18.45-2.23,29.79-3.52a2.5,2.5,0,1,0-.57-5Z"/><path class="cls-2" d="M885.66,222.09a2.5,2.5,0,0,0,.09-5c-11.33-.42-21.15-.76-30-1a2.5,2.5,0,0,0-.15,5c8.85.27,18.66.61,30,1Z"/><path class="cls-2" d="M765.49,217.37c-9.55.63-19.64,1.37-30,2.19a2.5,2.5,0,0,0,.2,5h.2c10.32-.82,20.38-1.55,29.91-2.18a2.5,2.5,0,1,0-.33-5Z"/><path class="cls-2" d="M825.7,215.33c-4.65-.08-8.76-.12-12.22-.12-2.34,0-4.47,0-6.35.06-3.19.06-7.1.19-11.6.39a2.5,2.5,0,0,0,.11,5h.11c4.46-.19,8.32-.32,11.48-.38,1.85,0,3.95-.06,6.25-.06,3.44,0,7.52,0,12.13.12h0a2.5,2.5,0,0,0,0-5Z"/><polygon class="cls-2" points="885.38 201.08 892.55 219.88 884 238.09 928.55 221.22 885.38 201.08"/></g></svg>