<svg id="Oval_-_Pit_Road" data-name="Oval - Pit Road" xmlns="http://www.w3.org/2000/svg" viewBox="0 0 1920 1080"><defs><style>.cls-1{fill:#0089ba;}.cls-2{fill:#d82520;}</style></defs><g id="Mergeline"><path class="cls-1" d="M1186,478.51a5,5,0,0,0-2.15-6.74,165.38,165.38,0,0,0-28.77-11.24,5,5,0,1,0-2.83,9.59,155.94,155.94,0,0,1,27,10.54,4.93,4.93,0,0,0,2.29.56A5,5,0,0,0,1186,478.51Z"/><path class="cls-1" d="M1209.2,490.76a5,5,0,1,0-7.53,6.57c6.38,7.31,9.74,15.38,10,24a5,5,0,0,0,5,4.85h.15a5,5,0,0,0,4.85-5.14C1221.34,510.05,1217.15,499.86,1209.2,490.76Z"/><path class="cls-1" d="M1210.71,545.23a5,5,0,0,0-6.92,1.45,62.1,62.1,0,0,1-19.85,19,5,5,0,0,0,5.11,8.6,72.54,72.54,0,0,0,23.11-22.15A5,5,0,0,0,1210.71,545.23Z"/><rect class="cls-1" x="1109.06" y="457.16" width="65" height="10" transform="translate(426.18 1464.65) rotate(-76.53)"/></g><g id="Pitroad"><path class="cls-2" d="M757.75,580.12c-9.93-1.74-19.82-3.62-29.4-5.59a2.5,2.5,0,0,0-1,4.9c9.63,2,19.57,3.87,29.54,5.61a2.25,2.25,0,0,0,.44,0,2.5,2.5,0,0,0,.43-5Z"/><path class="cls-2" d="M699.47,567.56c-10.87-3.47-19.64-7.74-26.05-12.69a2.5,2.5,0,0,0-3,4c6.87,5.3,16.15,9.84,27.58,13.49a2.5,2.5,0,0,0,1.52-4.76Z"/><path class="cls-2" d="M666.43,501a2.49,2.49,0,0,0-3.39,1c-5.47,9.91-8.24,19.15-8.24,27.46,0,.82,0,1.65.08,2.45a2.49,2.49,0,0,0,2.49,2.34h.17a2.5,2.5,0,0,0,2.33-2.66c0-.69-.07-1.4-.07-2.12,0-7.46,2.56-15.89,7.61-25A2.5,2.5,0,0,0,666.43,501Z"/><path class="cls-2" d="M876.59,594.41c-9.94-.69-20-1.51-29.85-2.44a2.5,2.5,0,0,0-.47,5c9.91.93,20,1.76,30,2.45h.18a2.5,2.5,0,0,0,.17-5Z"/><path class="cls-2" d="M817,588.8c-9.94-1.19-19.93-2.52-29.67-3.94a2.5,2.5,0,0,0-.73,4.95c9.79,1.43,19.82,2.76,29.81,4l.3,0a2.5,2.5,0,0,0,.29-5Z"/><path class="cls-2" d="M1115.37,585.7c-9.51,1.59-19.46,3-29.58,4.32a2.5,2.5,0,0,0,.3,5,1.72,1.72,0,0,0,.32,0c10.19-1.28,20.21-2.74,29.79-4.35a2.5,2.5,0,0,0-.83-4.93Z"/><path class="cls-2" d="M1056,593.22c-9.7.88-19.74,1.63-29.84,2.23a2.5,2.5,0,0,0,.15,5h.15c10.15-.6,20.24-1.36,30-2.24a2.5,2.5,0,1,0-.45-5Z"/><path class="cls-2" d="M936.41,597.09c-9.91-.2-20-.53-29.93-1a2.48,2.48,0,0,0-2.61,2.38,2.5,2.5,0,0,0,2.39,2.61c10,.45,20.1.78,30,1h.05a2.5,2.5,0,0,0,0-5Z"/><path class="cls-2" d="M996.3,596.79c-9.84.31-19.91.49-29.94.54a2.5,2.5,0,0,0,0,5h0c10.08-.05,20.2-.23,30.08-.54a2.5,2.5,0,0,0-.16-5Z"/><polygon class="cls-2" points="1176.69 574.5 1129.63 567.1 1141.72 583.18 1138.55 603.04 1176.69 574.5"/></g></svg>