<svg id="Peverly_-_Pit_Road" data-name="Peverly - Pit Road" xmlns="http://www.w3.org/2000/svg" viewBox="0 0 1920 1080"><defs><style>.cls-1{fill:#d82520;}</style></defs><g id="pitroad"><path class="cls-1" d="M811.44,651.57a249.62,249.62,0,0,1-30-5.57,2.5,2.5,0,1,0-1.27,4.84,257.68,257.68,0,0,0,30.58,5.69l.34,0a2.5,2.5,0,0,0,.34-5Z"/><path class="cls-1" d="M874,432.43c-11.1.28-21.5.72-30.92,1.32a2.5,2.5,0,0,0,.15,5h.16c9.36-.59,19.7-1,30.73-1.31a2.52,2.52,0,0,0,2.44-2.57A2.47,2.47,0,0,0,874,432.43Z"/><path class="cls-1" d="M872.46,662.55a233.12,233.12,0,0,0-30.4-6.78,2.5,2.5,0,0,0-.79,4.94A226.46,226.46,0,0,1,871,667.34a2.57,2.57,0,0,0,.72.11,2.5,2.5,0,0,0,.72-4.9Z"/><path class="cls-1" d="M703.72,565.14a2.5,2.5,0,1,0-5,.29,81.76,81.76,0,0,0,7.73,30.65,2.5,2.5,0,0,0,2.26,1.43,2.43,2.43,0,0,0,1.07-.25,2.49,2.49,0,0,0,1.18-3.33A77.12,77.12,0,0,1,703.72,565.14Z"/><path class="cls-1" d="M753.51,457.19a132.61,132.61,0,0,0-22.71,21.66,2.5,2.5,0,0,0,3.83,3.21,127.9,127.9,0,0,1,21.85-20.85,2.5,2.5,0,0,0-3-4Z"/><path class="cls-1" d="M716.72,503.83a2.5,2.5,0,0,0-3.38,1A133.57,133.57,0,0,0,702,534.11a2.5,2.5,0,0,0,1.81,3,2.62,2.62,0,0,0,.62.07,2.5,2.5,0,0,0,2.42-1.88,128.64,128.64,0,0,1,11-28.14A2.48,2.48,0,0,0,716.72,503.83Z"/><path class="cls-1" d="M753.3,635.12a128.09,128.09,0,0,1-17.69-11.46c-2.43-1.87-4.75-3.84-6.92-5.86a2.5,2.5,0,0,0-3.41,3.66c2.28,2.12,4.73,4.19,7.28,6.16A133.69,133.69,0,0,0,751,639.54a2.5,2.5,0,0,0,2.35-4.42Z"/><path class="cls-1" d="M812.21,436.66a197.68,197.68,0,0,0-30.62,6.17,2.5,2.5,0,0,0,.73,4.89,2.67,2.67,0,0,0,.73-.1,192.11,192.11,0,0,1,29.82-6,2.5,2.5,0,1,0-.66-5Z"/><path class="cls-1" d="M1059.28,436.29l-30.84-1.2a2.5,2.5,0,1,0-.19,5l30.83,1.19h.1a2.5,2.5,0,0,0,.1-5Z"/><path class="cls-1" d="M1120.92,438.24c-8.9-.17-19-.45-30.81-.84a2.5,2.5,0,1,0-.17,5c11.86.39,22,.66,30.89.84h.05a2.5,2.5,0,0,0,0-5Z"/><path class="cls-1" d="M1182.6,438.84c-6.6-.07-13.81-.12-21.71-.18l-9.14-.08a2.5,2.5,0,0,0,0,5l9.14.08c7.89.06,15.1.11,21.7.18h0a2.5,2.5,0,0,0,0-5Z"/><path class="cls-1" d="M997.58,434c-11.21-.39-21.31-.71-30.86-1a2.5,2.5,0,0,0-.14,5c9.54.26,19.63.58,30.83,1h.09a2.5,2.5,0,0,0,.08-5Z"/><path class="cls-1" d="M935.84,432.31c-10.56-.17-20.66-.25-30-.25h-.86a2.5,2.5,0,0,0,0,5h.86c9.35,0,19.43.08,30,.25h0a2.5,2.5,0,0,0,0-5Z"/><path class="cls-1" d="M1228.62,440.15c-4.21-.32-9.14-.57-15.08-.76a2.53,2.53,0,0,0-2.58,2.42,2.49,2.49,0,0,0,2.41,2.58c5.87.19,10.74.43,14.88.75h.19a2.5,2.5,0,0,0,.18-5Z"/><path class="cls-1" d="M908.75,677.85c-2.41-1.33-4.82-2.61-7.24-3.81a2.5,2.5,0,0,0-2.23,4.47q3.24,1.62,6.47,3.39l-14.45,9.23L938,700.66l-25.74-40.08Z"/></g></svg>