<svg id="National_-_Pit_Road" data-name="National - Pit Road" xmlns="http://www.w3.org/2000/svg" viewBox="0 0 1920 1080"><defs><style>.cls-1{fill:#d82520;}.cls-2{fill:#0089ba;}</style></defs><g id="Pitroad"><path class="cls-1" d="M1139.34,714.4l-7.75.51,5.79-16.47-42.62,21.27,45,15.69L1132,719.9l7.72-.51a2.5,2.5,0,1,0-.33-5Z"/><path class="cls-1" d="M1386.87,683.63c-8.93,1.14-19.47,2.52-31,4a2.5,2.5,0,0,0,.32,5l.33,0c11.5-1.51,22-2.89,31-4a2.5,2.5,0,1,0-.63-5Z"/><path class="cls-1" d="M1263.08,700.06c-11,1.5-21.51,2.93-30.93,4.23a2.5,2.5,0,0,0,.33,5,2.07,2.07,0,0,0,.35,0l30.92-4.22a2.5,2.5,0,0,0-.67-5Z"/><path class="cls-1" d="M1325,691.75,1294,695.89a2.5,2.5,0,0,0,.33,5,1.87,1.87,0,0,0,.34,0l30.93-4.13a2.5,2.5,0,0,0-.66-5Z"/><path class="cls-1" d="M1201.19,708.62l-6.09.9c-5.12.76-13.44,1.63-24.74,2.57a2.5,2.5,0,0,0,.21,5h.21c11.4-1,19.83-1.84,25.06-2.62l6.07-.89a2.5,2.5,0,1,0-.72-5Z"/><path class="cls-1" d="M1606.38,632.17a2.5,2.5,0,0,0,2.28,1.46,2.56,2.56,0,0,0,1-.22,2.51,2.51,0,0,0,1.24-3.31q-1.41-3.09-3-6.54c-2.75-6-5.88-12.81-9.36-20.69l-.5-1.12a2.5,2.5,0,0,0-4.57,2l.49,1.11c3.51,7.91,6.64,14.73,9.4,20.76C1604.45,627.94,1605.45,630.11,1606.38,632.17Z"/><path class="cls-1" d="M1621.37,660.27a2.52,2.52,0,0,0-2.61-2.38,2.49,2.49,0,0,0-2.39,2.6c0,.26,0,.51,0,.75,0,7.72-5.33,13.8-14.26,16.27-.7.19-1.83.43-3.38.7a2.5,2.5,0,0,0,.44,5,2.18,2.18,0,0,0,.44,0c1.73-.3,3-.57,3.83-.8,11.06-3.06,17.93-11.14,17.93-21.09C1621.39,660.92,1621.38,660.6,1621.37,660.27Z"/><path class="cls-1" d="M1572.37,544.94a2.5,2.5,0,0,0-4.55,2.07c4.22,9.25,8.7,19.07,12.91,28.37a2.5,2.5,0,0,0,4.56-2.07C1581.07,564,1576.59,554.19,1572.37,544.94Z"/><path class="cls-1" d="M1506,689.75c-8.9,1.06-14.6,1.78-17.93,2.27-4.94.73-9.29,1.21-12.91,1.44a2.5,2.5,0,0,0,.16,5h.16c3.76-.25,8.24-.75,13.31-1.49,3.29-.48,8.94-1.2,17.8-2.25a2.5,2.5,0,0,0-.59-5Z"/><path class="cls-1" d="M1568,682.44c-10.25,1.26-21.41,2.57-31,3.69a2.5,2.5,0,0,0,.28,5l.3,0c9.57-1.11,20.74-2.42,31-3.68a2.5,2.5,0,1,0-.61-5Z"/><path class="cls-1" d="M1450.22,681.85a12.06,12.06,0,0,0-5.92-2.84,51.51,51.51,0,0,0-7.15-.49c-4.08,0-9.82.41-19.2,1.36a2.5,2.5,0,1,0,.51,5c9.2-.93,14.79-1.33,18.69-1.33a46.37,46.37,0,0,1,6.53.45,7.63,7.63,0,0,1,3.43,1.79,2.46,2.46,0,0,0,1.55.54,2.5,2.5,0,0,0,1.56-4.45Z"/><path class="cls-1" d="M1555.18,519.39a2.5,2.5,0,0,0,2.28,1.46,2.42,2.42,0,0,0,1-.23,2.51,2.51,0,0,0,1.23-3.31l-6.26-13.64a2.5,2.5,0,0,0-4.54,2.09Z"/></g><g id="Mergeline"><path class="cls-2" d="M964,706.93c-3.84-.17-7.21-.29-10.16-.36l.27-27.43-10-.1-.32,32.37v.08L943.48,744l10,.09.27-27.56c2.87.07,6.15.19,9.82.35h.23a5,5,0,0,0,.21-10Z"/><path class="cls-2" d="M1010.49,709.74c-9.24-.63-16.62-1.12-23.23-1.53a5,5,0,0,0-.62,10c6.59.41,14,.89,23.16,1.53h.35a5,5,0,0,0,.34-10Z"/><path class="cls-2" d="M1056.87,713c-7.26-.49-15.11-1-23.18-1.6a5,5,0,1,0-.7,10c8.08.57,15.94,1.12,23.21,1.61h.34a5,5,0,0,0,.33-10Z"/><path class="cls-2" d="M1094.45,714.72c-2.25.13-7.1,0-14.43-.35a5,5,0,1,0-.5,10c5.54.28,9.63.41,12.5.41,1.23,0,2.24,0,3-.07a5,5,0,1,0-.61-10Z"/></g></svg>