<svg id="Club_-_Pit_Road" data-name="Club - Pit Road" xmlns="http://www.w3.org/2000/svg" viewBox="0 0 1920 1080"><defs><style>.cls-1{fill:#d82520;}.cls-2{fill:#0089ba;}</style></defs><g id="Pitroad"><path class="cls-1" d="M553.76,816.19a2.5,2.5,0,1,0-.84-4.93c-2.71.46-5.39,1-8,1.5l1.66-17.56-36.22,30.95,47.44,4.34-11.15-13C549,817,551.35,816.6,553.76,816.19Z"/><path class="cls-1" d="M608,807.11h-2.6c-8.37,0-16.78.3-25,.9a2.5,2.5,0,0,0,.18,5h.19c8.08-.59,16.37-.89,24.62-.89h2.58a2.5,2.5,0,0,0,0-5Z"/><path class="cls-1" d="M662.28,817.3a175.7,175.7,0,0,0-26.58-8.06,2.5,2.5,0,0,0-1,4.91A170.69,170.69,0,0,1,660.52,822a2.5,2.5,0,1,0,1.76-4.68Z"/><path class="cls-1" d="M704.28,831.32a2.5,2.5,0,0,0-2.76-2.22c-3.31.36-7.66-.35-13.7-2.24a2.5,2.5,0,1,0-1.5,4.77c5.53,1.73,9.89,2.56,13.5,2.56a20.19,20.19,0,0,0,2.24-.12A2.51,2.51,0,0,0,704.28,831.32Z"/></g><g id="Mergeline"><path class="cls-2" d="M463.69,848.15a77.09,77.09,0,0,1-7.72,3.43l-4.56-26.71-9.86,1.69,10.93,64.07,9.86-1.68-4.67-27.37a79.44,79.44,0,0,0,10.53-4.5,5,5,0,0,0-4.51-8.93Z"/><path class="cls-2" d="M514.86,824a5,5,0,0,0-6.66-2.37,137.39,137.39,0,0,0-13.51,7.75,5,5,0,0,0,2.66,9.24,4.94,4.94,0,0,0,2.65-.77,140.67,140.67,0,0,1,12.5-7.19A5,5,0,0,0,514.86,824Z"/></g></svg>