<?xml version="1.0" encoding="UTF-8"?><svg id="Sandown_-_Pit_Road" xmlns="http://www.w3.org/2000/svg" viewBox="0 0 1920 1080"><defs><style>.cls-1{fill:#d82520;}</style></defs><g id="pitroad"><path class="cls-1" d="M665.05,809.42c-10-.07-20.04-.19-29.42-.29h-.61c-1.37,0-2.48,1.09-2.5,2.46-.02,1.38,1.09,2.51,2.47,2.53h.58c9.39,.11,19.44,.22,29.44,.3h.02c1.37,0,2.49-1.11,2.5-2.48,.01-1.38-1.1-2.51-2.48-2.52Z"/><path class="cls-1" d="M845.12,805.88c-7.02,.42-17.11,.84-29.97,1.24-1.38,.04-2.46,1.2-2.42,2.58,.04,1.35,1.15,2.42,2.5,2.42,.03,0,.05,0,.08,0,12.91-.4,23.04-.82,30.11-1.25,1.38-.08,2.43-1.27,2.35-2.64-.08-1.38-1.26-2.45-2.65-2.35Z"/><path class="cls-1" d="M725.05,809.05l-19.43,.31c-3.37,.05-6.92,.09-10.59,.11-1.38,0-2.49,1.13-2.48,2.52,0,1.38,1.13,2.48,2.5,2.48h.02c3.69-.02,7.25-.06,10.64-.11l19.43-.31c1.38-.02,2.48-1.16,2.46-2.54-.02-1.38-1.14-2.47-2.54-2.46Z"/><path class="cls-1" d="M605.01,808.86h-2.14c-17.27,0-18.87-3.82-21.08-9.09-.54-1.27-2-1.87-3.27-1.34-1.27,.54-1.87,2-1.34,3.27,3.08,7.34,6.54,12.15,25.69,12.15h2.13c1.38,0,2.5-1.11,2.5-2.49,0-1.38-1.11-2.5-2.49-2.51Z"/><path class="cls-1" d="M506.24,750.59c-13.84-7.99-22.09-12.42-26.75-14.37-1.27-.54-2.74,.07-3.27,1.34s.07,2.74,1.34,3.27c5.77,2.42,17.7,9.2,26.18,14.09,.39,.23,.82,.33,1.25,.33,.86,0,1.7-.45,2.17-1.25,.69-1.2,.28-2.73-.92-3.42Z"/><path class="cls-1" d="M558.74,779.25c-1.82-.84-3.64-1.64-5.42-2.42-1.97-.87-3.83-1.69-5.58-2.51-3.19-1.49-9.98-5.38-15.53-8.6-1.19-.69-2.72-.28-3.42,.91-.69,1.19-.29,2.72,.91,3.42,8.5,4.93,13.26,7.56,15.92,8.81,1.8,.84,3.68,1.67,5.68,2.55,1.75,.77,3.55,1.57,5.34,2.39,.34,.16,.69,.23,1.04,.23,.95,0,1.85-.54,2.27-1.46,.58-1.25,.03-2.74-1.23-3.32Z"/><path class="cls-1" d="M785.13,807.92c-10.06,.23-20.28,.44-30.03,.62-1.38,.03-2.48,1.17-2.45,2.55,.03,1.36,1.14,2.45,2.5,2.45h.05c9.76-.18,19.99-.39,30.06-.62,1.38-.03,2.47-1.18,2.44-2.56-.03-1.38-1.18-2.5-2.56-2.44Z"/><path class="cls-1" d="M1142.85,771.96c-8.97,.66-19.35,1.46-29.97,2.29-1.38,.11-2.41,1.31-2.3,2.69,.1,1.31,1.2,2.31,2.49,2.31,.07,0,.13,0,.2,0,10.61-.83,20.99-1.63,29.95-2.29,1.38-.1,2.41-1.3,2.31-2.68-.1-1.38-1.29-2.41-2.68-2.31Z"/><path class="cls-1" d="M1082.92,776.58c-9.63,.75-21.73,1.68-29.95,2.24-1.38,.09-2.42,1.29-2.32,2.67,.09,1.32,1.19,2.33,2.49,2.33,.06,0,.12,0,.17,0,8.24-.56,20.36-1.5,30-2.25,1.38-.11,2.41-1.31,2.3-2.69-.11-1.38-1.33-2.42-2.69-2.3Z"/><path class="cls-1" d="M1022.94,781.16c-8.45,.73-18.53,1.63-29.95,2.67-1.38,.12-2.39,1.34-2.26,2.72,.12,1.3,1.21,2.27,2.49,2.27,.08,0,.15,0,.23-.01,11.41-1.04,21.48-1.94,29.93-2.67,1.38-.12,2.39-1.33,2.28-2.71s-1.33-2.39-2.71-2.28Z"/><path class="cls-1" d="M903.19,792.39l-3.16,.33c-11.52,1.22-19.76,4.03-26.58,6.57-1.29,.48-1.95,1.92-1.47,3.22,.38,1.01,1.33,1.63,2.34,1.63,.29,0,.58-.05,.87-.16,6.53-2.43,14.41-5.13,25.36-6.28l3.15-.33c1.37-.14,2.37-1.37,2.23-2.74-.14-1.37-1.38-2.38-2.74-2.23Z"/><path class="cls-1" d="M963.06,786.6c-10.53,.99-20.77,1.96-29.93,2.84-1.37,.13-2.38,1.35-2.25,2.73,.12,1.29,1.21,2.26,2.49,2.26,.08,0,.16,0,.24-.01,9.16-.88,19.39-1.85,29.91-2.84,1.38-.13,2.38-1.35,2.26-2.72-.13-1.37-1.35-2.37-2.72-2.26Z"/><polygon class="cls-1" points="1199.38 763.47 1152.08 757.77 1164.75 773.4 1162.28 793.36 1199.38 763.47"/></g></svg>