<?xml version="1.0" encoding="utf-8"?>
<!-- Generator: Adobe Illustrator 26.3.1, SVG Export Plug-In . SVG Version: 6.00 Build 0)  -->
<svg version="1.1" id="gp_-_Pit_Road" xmlns="http://www.w3.org/2000/svg" xmlns:xlink="http://www.w3.org/1999/xlink" x="0px"
	 y="0px" viewBox="0 0 1920 1080" style="enable-background:new 0 0 1920 1080;" xml:space="preserve">
<style type="text/css">
	.st0{fill:#0089BA;}
	.st1{fill:#D82520;}
</style>
<g id="Mergeline">
	<path class="st0" d="M1408,213.3c-4.4,1.5-9.2,3-14.2,4.5c-2.6,0.8-4.1,3.6-3.3,6.2c0.7,2.2,2.6,3.6,4.8,3.6c0.5,0,1-0.1,1.5-0.2
		c5.1-1.5,9.9-3.1,14.4-4.6c2.6-0.9,4.1-3.7,3.2-6.3S1410.6,212.4,1408,213.3L1408,213.3z"/>
	<path class="st0" d="M1472,191.6c-9.5,2.9-21.2,6.8-32.2,10.5c-2.6,0.9-4,3.7-3.1,6.4c0.7,2.1,2.7,3.4,4.7,3.4
		c0.5,0,1.1-0.1,1.6-0.3c10.9-3.7,22.5-7.5,31.9-10.4c2.6-0.8,4.1-3.6,3.3-6.2C1477.5,192.2,1474.7,190.8,1472,191.6z"/>
	<path class="st0" d="M1536.4,171.2c-13.1,4.3-23.6,7.7-32.1,10.4c-2.6,0.8-4.1,3.7-3.2,6.3c0.7,2.1,2.7,3.5,4.8,3.5
		c0.5,0,1-0.1,1.5-0.2c8.5-2.7,19-6.1,32.2-10.4c2.6-0.9,4.1-3.7,3.2-6.3C1541.8,171.8,1539,170.4,1536.4,171.2L1536.4,171.2z"/>
	<path class="st0" d="M1599.1,190.2l-10.1-30.9c0,0,0,0,0,0s0,0,0,0l-10.1-30.9l-9.5,3.1l8.6,26.1l-9.5,3.1
		c-2.6,0.9-4.1,3.7-3.2,6.3c0.7,2.1,2.7,3.4,4.8,3.4c0.5,0,1-0.1,1.6-0.2l9.5-3.1l8.5,26.1L1599.1,190.2L1599.1,190.2z"/>
</g>
<g id="Pitroad">
	<path class="st1" d="M921.5,357.1c-2.8,1.5-5.5,3-8.2,4.4c-2,1.1-4.1,2.2-6.2,3.3c-3,1.6-6.3,3.4-9.8,5.4l-2.3,1.3
		c-1.2,0.7-1.7,2.2-1,3.4c0.5,0.8,1.3,1.3,2.2,1.3c0.4,0,0.8-0.1,1.2-0.3l2.3-1.3c3.5-1.9,6.7-3.7,9.7-5.3c2.1-1.1,4.1-2.2,6.2-3.4
		c2.6-1.4,5.4-2.9,8.1-4.4c1.2-0.6,1.7-2.1,1-3.4S922.7,356.5,921.5,357.1L921.5,357.1z"/>
	<path class="st1" d="M1036.5,321.4c-6,1.7-12.7,3.6-19.8,5.5l-9.1,2.5c-1.3,0.4-2.1,1.8-1.7,3.1c0.3,1.1,1.3,1.8,2.4,1.8
		c0.2,0,0.5,0,0.7-0.1l9.1-2.5c7.1-2,13.9-3.9,19.8-5.5c1.3-0.4,2.1-1.8,1.7-3.1S1037.9,321,1036.5,321.4L1036.5,321.4z"/>
	<path class="st1" d="M978.7,337.6c-11.8,3.3-19.9,5.4-24.6,6.6c-1.5,0.4-3,0.8-4.5,1.2c-1.3,0.4-2.1,1.8-1.7,3.1
		c0.3,1.1,1.3,1.8,2.4,1.8c0.2,0,0.5,0,0.7-0.1c1.4-0.4,2.8-0.8,4.3-1.2c4.7-1.2,12.8-3.4,24.7-6.6c1.3-0.4,2.1-1.8,1.7-3.1
		S980,337.2,978.7,337.6L978.7,337.6z"/>
	<path class="st1" d="M868.6,384.9c-3.4,1.5-6.5,2.6-9.2,3.3c-5.9,1.6-12.3,2.8-19.1,3.4c-1.4,0.1-2.4,1.3-2.3,2.7
		c0.1,1.3,1.2,2.3,2.5,2.3c0.1,0,0.2,0,0.2,0c7-0.6,13.8-1.8,20-3.5c2.9-0.8,6.2-2,9.8-3.5c1.3-0.5,1.9-2,1.3-3.3
		S869.9,384.4,868.6,384.9L868.6,384.9z"/>
	<path class="st1" d="M810.9,390.2c-6.8-1-15.9-2-25-2c-1.8,0-3.6,0-5.3,0.1c-1.4,0.1-2.4,1.2-2.4,2.6s1.2,2.4,2.6,2.4
		c1.6-0.1,3.3-0.1,5.1-0.1c8.8,0,17.7,1.1,24.4,2c0.1,0,0.2,0,0.3,0c1.2,0,2.3-0.9,2.5-2.2C813.3,391.6,812.3,390.3,810.9,390.2
		L810.9,390.2z"/>
	<path class="st1" d="M1267.9,255.5l-1.3,0.4c-3.5,0.9-12.1,3.3-27.7,7.8c-1.3,0.4-2.1,1.8-1.7,3.1c0.3,1.1,1.3,1.8,2.4,1.8
		c0.2,0,0.5,0,0.7-0.1c10.5-3,23.1-6.6,27.6-7.8l1.3-0.4c1.3-0.4,2.1-1.7,1.8-3.1C1270.6,255.9,1269.3,255.1,1267.9,255.5
		L1267.9,255.5z"/>
	<path class="st1" d="M1325.8,239.3l-28.9,8.1c-1.3,0.4-2.1,1.8-1.7,3.1c0.3,1.1,1.3,1.8,2.4,1.8c0.2,0,0.4,0,0.7-0.1l28.9-8.1
		c1.3-0.4,2.1-1.8,1.7-3.1C1328.5,239.7,1327.1,239,1325.8,239.3L1325.8,239.3z"/>
	<path class="st1" d="M1210,271.9c-10.2,2.9-20.2,5.8-28.9,8.2c-1.3,0.4-2.1,1.8-1.7,3.1c0.3,1.1,1.3,1.8,2.4,1.8
		c0.2,0,0.5,0,0.7-0.1c8.7-2.5,18.8-5.3,28.9-8.2c1.3-0.4,2.1-1.8,1.7-3.1S1211.3,271.5,1210,271.9L1210,271.9z"/>
	<path class="st1" d="M1152.1,288.1c-5.7,1.6-14.7,4.2-28.9,8.4c-1.3,0.4-2.1,1.8-1.7,3.1c0.3,1.1,1.3,1.8,2.4,1.8
		c0.2,0,0.5,0,0.7-0.1c14.2-4.2,23.1-6.8,28.8-8.4c1.3-0.4,2.1-1.8,1.7-3.1C1154.8,288.5,1153.5,287.7,1152.1,288.1L1152.1,288.1z"
		/>
	<path class="st1" d="M1094.4,305c-9.8,2.9-20.9,6.1-28.8,8.4c-1.3,0.4-2.1,1.8-1.7,3.1c0.3,1.1,1.3,1.8,2.4,1.8
		c0.2,0,0.5,0,0.7-0.1c8-2.3,19.1-5.5,28.9-8.4c1.3-0.4,2.1-1.8,1.7-3.1S1095.7,304.6,1094.4,305L1094.4,305z"/>
	<path class="st1" d="M1395.3,222.6l-47.3-5.9l10.8,13.5c-1.3,0.4-2.6,0.7-4.1,1.1c-1.3,0.4-2.1,1.7-1.8,3.1
		c0.3,1.1,1.3,1.8,2.4,1.8c0.2,0,0.4,0,0.7-0.1c1.5-0.4,2.8-0.8,4.2-1.1l-2.2,17.4L1395.3,222.6L1395.3,222.6z"/>
</g>
</svg>
