<?xml version="1.0" encoding="UTF-8"?><svg id="Sandown_-_Pit_Road" xmlns="http://www.w3.org/2000/svg" viewBox="0 0 1920 1080"><defs><style>.cls-1{fill:#d82520;}</style></defs><g id="mergeline"><path class="cls-1" d="M1016.31,336.78c-1.21-.65-2.73-.2-3.38,1.02-3,5.59-5.09,8.83-8.18,11-1.13,.79-1.4,2.35-.61,3.48,.49,.69,1.26,1.06,2.05,1.06,.5,0,1-.15,1.44-.46,4.28-3.01,6.83-7.36,9.71-12.73,.65-1.22,.2-2.73-1.02-3.38Z"/><path class="cls-1" d="M630.22,681.88c-10.54-2.28-19.73-5.11-28.09-8.66-1.27-.54-2.74,.05-3.28,1.33-.54,1.27,.05,2.74,1.32,3.28,8.65,3.67,18.13,6.6,28.99,8.94,.18,.04,.35,.06,.53,.06,1.15,0,2.19-.8,2.44-1.97,.29-1.35-.57-2.68-1.92-2.97Z"/><path class="cls-1" d="M680.54,363.32c-.21-1.36-1.49-2.3-2.85-2.09-7.85,1.21-18.31,2.97-29.63,5.85-1.34,.34-2.15,1.7-1.81,3.04,.29,1.13,1.31,1.88,2.42,1.88,.2,0,.41-.02,.62-.08,11.11-2.83,21.42-4.56,29.16-5.76,1.36-.21,2.3-1.49,2.09-2.85Z"/><path class="cls-1" d="M622.59,377.98c-.54-1.27-2.01-1.86-3.28-1.32-9.64,4.09-18.62,8.96-26.71,14.46-1.14,.78-1.44,2.33-.66,3.47,.48,.71,1.27,1.09,2.07,1.09,.48,0,.97-.14,1.4-.43,7.81-5.32,16.51-10.03,25.85-13.99,1.27-.54,1.86-2.01,1.32-3.28Z"/><path class="cls-1" d="M749.04,691.75c-8.33-.49-16.56-.94-24.48-1.32-1.82-.09-3.64-.17-5.45-.26-1.37-.07-2.55,1-2.61,2.38-.06,1.38,1,2.55,2.38,2.61,1.81,.08,3.62,.17,5.44,.26,7.9,.38,16.11,.82,24.43,1.32,.05,0,.1,0,.15,0,1.31,0,2.41-1.02,2.49-2.35,.08-1.38-.97-2.56-2.35-2.64Z"/><path class="cls-1" d="M689.24,688.72c-11.71-.66-21.16-1.39-29.72-2.3-1.37-.13-2.6,.85-2.75,2.22-.15,1.37,.85,2.6,2.22,2.75,8.65,.92,18.17,1.66,29.97,2.32,.05,0,.1,0,.14,0,1.32,0,2.42-1.03,2.49-2.36,.08-1.38-.98-2.56-2.36-2.64Z"/><path class="cls-1" d="M740.16,357.82c-.05-1.38-1.22-2.45-2.6-2.4-11.93,.47-22.02,1.05-30.01,1.74-1.38,.12-2.39,1.33-2.28,2.71,.11,1.3,1.2,2.28,2.49,2.28,.07,0,.15,0,.22,0,7.91-.68,17.93-1.27,29.78-1.73,1.38-.05,2.45-1.22,2.4-2.6Z"/><path class="cls-1" d="M534.52,495.51c.13,.02,.26,.03,.39,.03,1.21,0,2.27-.88,2.47-2.11,1.6-10.09,3.89-19.73,6.82-28.64,.43-1.31-.28-2.72-1.6-3.15-1.31-.43-2.72,.28-3.15,1.6-3.01,9.17-5.37,19.07-7,29.42-.22,1.36,.71,2.64,2.08,2.86Z"/><path class="cls-1" d="M535.02,552.53c-.35-6.39-.53-13.15-.53-20.08,0-3.23,.05-6.46,.16-9.58,.05-1.38-1.03-2.54-2.41-2.58-1.41-.05-2.54,1.04-2.58,2.41-.11,3.18-.16,6.46-.16,9.75,0,7.02,.18,13.87,.54,20.35,.07,1.33,1.18,2.36,2.49,2.36,.05,0,.09,0,.14,0,1.38-.08,2.43-1.25,2.36-2.63Z"/><path class="cls-1" d="M800.03,356.58c-.01-1.37-1.13-2.47-2.5-2.47h-.03c-10.79,.11-20.87,.26-29.96,.45-1.38,.03-2.48,1.17-2.45,2.55,.03,1.36,1.14,2.45,2.5,2.45h.05c9.08-.19,19.14-.34,29.91-.45,1.38-.01,2.49-1.15,2.47-2.53Z"/><path class="cls-1" d="M577.14,658.38c-7.42-6.04-13.91-13.3-19.29-21.58-.75-1.16-2.3-1.49-3.46-.73s-1.49,2.3-.73,3.46c5.67,8.71,12.51,16.35,20.33,22.73,.46,.38,1.02,.56,1.58,.56,.73,0,1.45-.31,1.94-.92,.87-1.07,.71-2.65-.36-3.52Z"/><path class="cls-1" d="M538.17,581.95c-.23-1.36-1.51-2.28-2.88-2.05-1.36,.23-2.28,1.52-2.05,2.88,1.77,10.61,4.22,20.48,7.28,29.36,.36,1.04,1.33,1.69,2.36,1.69,.27,0,.54-.04,.81-.14,1.31-.45,2-1.87,1.55-3.18-2.96-8.62-5.34-18.22-7.07-28.56Z"/><path class="cls-1" d="M555.99,437.95c4.88-8.59,10.68-16.54,17.23-23.62,.94-1.01,.87-2.6-.14-3.53-1.01-.94-2.6-.88-3.53,.14-6.81,7.37-12.83,15.63-17.9,24.55-.68,1.2-.26,2.73,.94,3.41,.39,.22,.81,.33,1.23,.33,.87,0,1.71-.45,2.18-1.26Z"/><path class="cls-1" d="M917.27,358.96h0c1.38,0,2.5-1.12,2.5-2.5,0-1.38-1.11-2.5-2.5-2.5-5.93-.01-12.16-.02-18.61-.04l-11.32-.03h0c-1.38,0-2.5,1.12-2.5,2.49,0,1.38,1.11,2.5,2.49,2.51l11.32,.03c6.45,.02,12.67,.03,18.61,.04Z"/><path class="cls-1" d="M1107.47,715.01c-9.96-.3-20.01-.61-29.95-.93-1.42-.06-2.54,1.04-2.58,2.42-.04,1.38,1.04,2.54,2.42,2.58,9.94,.32,20,.63,29.96,.93,.03,0,.05,0,.08,0,1.35,0,2.46-1.07,2.5-2.42,.04-1.38-1.04-2.53-2.42-2.57Z"/><path class="cls-1" d="M987.77,710.54c-8.89-.5-18.65-1.16-29.82-2.01-1.38-.1-2.58,.93-2.68,2.3-.1,1.38,.93,2.58,2.3,2.68,11.21,.85,20.99,1.51,29.91,2.01,.05,0,.1,0,.14,0,1.32,0,2.42-1.03,2.49-2.36,.08-1.38-.98-2.56-2.35-2.64Z"/><path class="cls-1" d="M1047.58,713.06c-10.89-.39-20.96-.77-29.93-1.13-1.36-.04-2.54,1.02-2.6,2.4-.06,1.38,1.02,2.54,2.4,2.6,8.97,.36,19.05,.75,29.95,1.13,.03,0,.06,0,.09,0,1.34,0,2.45-1.06,2.5-2.41,.05-1.38-1.03-2.54-2.41-2.59Z"/><path class="cls-1" d="M1227.29,718.31l-29.98-.79s-.04,0-.07,0c-1.35,0-2.46,1.08-2.5,2.43-.04,1.38,1.05,2.53,2.43,2.56l29.96,.79s.05,0,.07,0c1.35,0,2.46-1.07,2.5-2.43,.04-1.38-1.05-2.53-2.43-2.57Z"/><path class="cls-1" d="M1167.36,716.72c-9.44-.26-19.51-.54-29.95-.83-.02,0-.05,0-.07,0-1.35,0-2.46,1.07-2.5,2.43-.04,1.38,1.05,2.53,2.43,2.57,10.44,.3,20.51,.58,29.95,.83,.02,0,.05,0,.07,0,1.35,0,2.46-1.08,2.5-2.43,.04-1.38-1.05-2.53-2.43-2.57Z"/><path class="cls-1" d="M868.5,700.91c-9.78-.86-19.74-1.72-29.83-2.57-1.36-.11-2.59,.9-2.7,2.28-.12,1.38,.91,2.58,2.28,2.7,10.09,.85,20.04,1.71,29.81,2.57,.07,0,.15,0,.22,0,1.28,0,2.37-.98,2.49-2.28,.12-1.38-.9-2.59-2.27-2.71Z"/><path class="cls-1" d="M979.62,356.17c-.04-1.38-1.14-2.46-2.57-2.43-7.11,.2-15.98,.25-27.99,.25h-1.86c-1.38,0-2.5,1.12-2.5,2.5,0,1.38,1.12,2.5,2.5,2.5h1.86c12.05,0,20.96-.04,28.13-.25,1.38-.04,2.47-1.19,2.43-2.57Z"/><path class="cls-1" d="M808.82,695.9c-10.54-.83-20.31-1.55-29.87-2.22-1.39-.09-2.57,.94-2.67,2.32-.1,1.38,.94,2.57,2.32,2.67,9.55,.67,19.31,1.39,29.83,2.22,.07,0,.13,0,.2,0,1.29,0,2.39-1,2.49-2.3,.11-1.38-.92-2.58-2.3-2.69Z"/><path class="cls-1" d="M857.42,358.86c1.38,0,2.5-1.12,2.5-2.5s-1.12-2.5-2.5-2.5h-1.58c-9.37,0-18.88,.01-28.38,.05-1.38,0-2.5,1.13-2.49,2.51,0,1.38,1.12,2.49,2.5,2.49h.01c9.49-.04,18.99-.05,28.36-.05h1.58Z"/><path class="cls-1" d="M928.14,706.13c-9.64-.82-19.6-1.69-29.81-2.59-1.37-.12-2.59,.9-2.71,2.27s.9,2.59,2.27,2.71c10.22,.9,20.19,1.77,29.83,2.59,.07,0,.14,0,.21,0,1.29,0,2.38-.99,2.49-2.29,.12-1.38-.9-2.58-2.28-2.7Z"/><path class="cls-1" d="M1299.44,735.83l-34.16-33.21,.53,17.95c-2.59-.32-5.4-.6-8.48-.84-1.36-.1-2.58,.92-2.69,2.29-.11,1.38,.92,2.58,2.29,2.69,2.29,.18,4.42,.39,6.42,.61l-11.53,11.8,47.62-1.29Z"/></g></svg>