<?xml version="1.0" encoding="UTF-8"?><svg id="Indianapolis_Road_2022_-_Pit_Road" xmlns="http://www.w3.org/2000/svg" viewBox="0 0 1920 1080"><defs><style>.cls-1{fill:#d82520;}</style></defs><g id="pitroad"><path class="cls-1" d="M903.72,900.17h-.02c-10.07,.06-20.08,.13-30.02,.2-1.38,.01-2.49,1.14-2.48,2.52,.01,1.38,1.13,2.48,2.5,2.48h.02c9.93-.08,19.94-.14,30.01-.2,1.38,0,2.49-1.13,2.49-2.51,0-1.38-1.13-2.49-2.5-2.49Z"/><path class="cls-1" d="M843.69,900.63h-.02c-10.11,.1-20.13,.2-30.02,.32-1.38,.02-2.49,1.15-2.47,2.53,.02,1.37,1.13,2.47,2.5,2.47h.03c9.89-.12,19.9-.22,30.01-.32,1.38-.01,2.49-1.14,2.48-2.52-.01-1.37-1.13-2.48-2.5-2.48Z"/><path class="cls-1" d="M1023.76,899.79h0c-10,0-20.01,.02-30.02,.04-1.38,0-2.5,1.12-2.5,2.5,0,1.38,1.12,2.5,2.5,2.5h0c10.01-.02,20.02-.03,30.02-.04,1.38,0,2.5-1.12,2.5-2.5,0-1.38-1.12-2.5-2.5-2.5Z"/><path class="cls-1" d="M663.56,903.96c-10.56,.34-20.66,.7-30.02,1.08-1.38,.06-2.45,1.22-2.4,2.6,.05,1.35,1.16,2.4,2.5,2.4,.03,0,.07,0,.1,0,9.35-.38,19.43-.74,29.98-1.07,1.38-.04,2.46-1.2,2.42-2.58-.04-1.38-1.21-2.45-2.58-2.42Z"/><path class="cls-1" d="M783.63,901.34c-10.18,.15-20.19,.3-30.02,.48-1.38,.02-2.48,1.16-2.46,2.54,.02,1.37,1.14,2.46,2.5,2.46h.04c9.82-.17,19.83-.33,30-.48,1.38-.02,2.48-1.16,2.46-2.54-.02-1.38-1.13-2.44-2.54-2.46Z"/><path class="cls-1" d="M603.53,906.41c-8.18,.43-15.83,.89-22.84,1.36l5.32-16.58-42.02,22.44,45.4,14.44-8.23-15.32c6.95-.47,14.53-.92,22.64-1.35,1.38-.07,2.44-1.25,2.37-2.63-.07-1.38-1.27-2.46-2.63-2.36Z"/><path class="cls-1" d="M1083.81,899.81c-9.96-.01-19.97-.02-30.01-.02h0c-1.38,0-2.5,1.12-2.5,2.5s1.12,2.5,2.5,2.5c10.05,0,20.06,0,30.01,.02h0c1.38,0,2.5-1.12,2.5-2.5,0-1.38-1.12-2.5-2.5-2.5Z"/><path class="cls-1" d="M723.65,902.39s-.04,0-.05,0c-10.42,.22-20.52,.46-30.02,.7-1.38,.04-2.47,1.18-2.43,2.56,.03,1.36,1.15,2.44,2.5,2.44,.02,0,.04,0,.07,0,9.49-.24,19.58-.48,29.99-.7,1.38-.03,2.48-1.17,2.45-2.55-.03-1.36-1.14-2.45-2.5-2.45Z"/><path class="cls-1" d="M963.73,899.9h0c-10.02,.03-20.03,.07-30,.11-1.38,0-2.49,1.13-2.49,2.51,0,1.38,1.12,2.49,2.5,2.49h.01c9.97-.04,19.97-.08,30-.11,1.38,0,2.5-1.13,2.49-2.51,0-1.38-1.12-2.49-2.5-2.49Z"/><path class="cls-1" d="M1443.97,901.28c-8.12,0-18.21-.03-30.01-.08h-.01c-1.38,0-2.49,1.11-2.5,2.49,0,1.38,1.11,2.5,2.49,2.51,11.81,.05,21.9,.08,30.03,.08h0c1.38,0,2.5-1.12,2.5-2.5s-1.12-2.5-2.5-2.5Z"/><path class="cls-1" d="M1503.68,899c-9.29,.81-19.32,1.41-29.81,1.79-1.38,.05-2.46,1.21-2.41,2.59,.05,1.35,1.16,2.41,2.5,2.41,.03,0,.06,0,.09,0,10.57-.38,20.69-.99,30.06-1.8,1.38-.12,2.39-1.33,2.27-2.71-.12-1.38-1.35-2.4-2.71-2.27Z"/><path class="cls-1" d="M1383.94,901.05c-9.37-.05-19.4-.1-30.02-.16h-.01c-1.37,0-2.49,1.11-2.5,2.49,0,1.38,1.11,2.51,2.49,2.51,10.62,.06,20.65,.12,30.02,.16h.01c1.38,0,2.49-1.11,2.5-2.49,0-1.38-1.11-2.51-2.49-2.51Z"/><path class="cls-1" d="M1565.28,890.52c-.4-1.32-1.8-2.07-3.12-1.67-8.42,2.56-18.15,4.75-28.91,6.52-1.36,.22-2.29,1.51-2.06,2.87,.2,1.22,1.26,2.09,2.46,2.09,.13,0,.27-.01,.41-.03,10.98-1.81,20.92-4.05,29.55-6.67,1.32-.4,2.07-1.8,1.67-3.12Z"/><path class="cls-1" d="M1143.83,899.92c-9.91-.03-19.92-.05-30.01-.07h0c-1.38,0-2.5,1.12-2.5,2.5,0,1.38,1.11,2.5,2.5,2.5,10.09,.02,20.1,.04,30.01,.07h0c1.38,0,2.5-1.12,2.5-2.49,0-1.38-1.11-2.5-2.49-2.51Z"/><path class="cls-1" d="M1203.86,900.13c-9.86-.04-19.87-.08-30.01-.11h0c-1.38,0-2.5,1.11-2.5,2.49,0,1.38,1.11,2.5,2.49,2.51,10.14,.03,20.15,.07,30.01,.11h0c1.38,0,2.49-1.11,2.5-2.49,0-1.38-1.11-2.5-2.49-2.51Z"/><path class="cls-1" d="M1263.89,900.4c-9.78-.05-19.8-.1-30.01-.14h-.01c-1.38,0-2.49,1.11-2.5,2.49,0,1.38,1.11,2.51,2.49,2.51,10.22,.05,20.23,.09,30.01,.14h.01c1.38,0,2.49-1.11,2.5-2.49,0-1.38-1.11-2.51-2.49-2.51Z"/><path class="cls-1" d="M1323.91,900.72c-9.65-.05-19.67-.11-30.01-.16h-.01c-1.38,0-2.49,1.11-2.5,2.49,0,1.38,1.11,2.51,2.49,2.51,10.34,.05,20.36,.11,30.01,.16h.01c1.37,0,2.49-1.11,2.5-2.49,0-1.38-1.11-2.51-2.49-2.51Z"/></g></svg>