<?xml version="1.0" encoding="utf-8"?>
<!-- Generator: Adobe Illustrator 24.0.1, SVG Export Plug-In . SVG Version: 6.00 Build 0)  -->
<svg version="1.1" id="South_-_Pit_Road" xmlns="http://www.w3.org/2000/svg" xmlns:xlink="http://www.w3.org/1999/xlink" x="0px"
	 y="0px" viewBox="0 0 1920 1080" style="enable-background:new 0 0 1920 1080;" xml:space="preserve">
<style type="text/css">
	.st0{fill:#D82520;}
</style>
<title>pitroad</title>
<g id="Pitroad">
	<path class="st0" d="M315.2,347.7l-22.5,19.8c-1,0.9-1.1,2.5-0.2,3.5c0.5,0.6,1.2,0.9,1.9,0.9c0.6,0,1.2-0.2,1.6-0.6l22.5-19.8
		c1-0.9,1.1-2.5,0.2-3.5C317.8,346.9,316.2,346.8,315.2,347.7z"/>
	<path class="st0" d="M278.3,391.5c-1.3-0.5-2.7,0.2-3.2,1.5c-4.1,11-4.7,21.4-4.7,26.6c0,2.5,0.1,4,0.1,4c0.1,1.3,1.2,2.3,2.5,2.3
		c0.1,0,0.2,0,0.2,0c1.4-0.1,2.4-1.3,2.3-2.7c0,0-0.1-1.3-0.1-3.6c0-4.8,0.6-14.5,4.4-24.8C280.3,393.4,279.6,392,278.3,391.5z"/>
	<path class="st0" d="M360.3,308.1l-22.5,19.8c-1,0.9-1.1,2.5-0.2,3.5c0.5,0.6,1.2,0.9,1.9,0.9c0.6,0,1.2-0.2,1.6-0.6l22.5-19.8
		c1-0.9,1.1-2.5,0.2-3.5C362.9,307.3,361.3,307.2,360.3,308.1z"/>
	<path class="st0" d="M495.5,189.3l-22.5,19.8c-1,0.9-1.1,2.5-0.2,3.5c0.5,0.6,1.2,0.9,1.9,0.9c0.6,0,1.2-0.2,1.6-0.6l22.5-19.8
		c1-0.9,1.1-2.5,0.2-3.5C498.1,188.5,496.5,188.4,495.5,189.3z"/>
	<path class="st0" d="M450.4,228.9l-22.5,19.8c-1,0.9-1.1,2.5-0.2,3.5c0.5,0.6,1.2,0.9,1.9,0.9c0.6,0,1.2-0.2,1.6-0.6l22.5-19.8
		c1-0.9,1.1-2.5,0.2-3.5C453,228.1,451.4,228,450.4,228.9z"/>
	<path class="st0" d="M405.3,268.5l-22.5,19.8c-1,0.9-1.1,2.5-0.2,3.5c0.5,0.6,1.2,0.9,1.9,0.9c0.6,0,1.2-0.2,1.6-0.6l22.5-19.8
		c1-0.9,1.1-2.5,0.2-3.5C407.9,267.7,406.4,267.6,405.3,268.5z"/>
	<path class="st0" d="M551.2,143.4L506,158.7l15.7,7.4l-3.8,3.4c-1,0.9-1.1,2.5-0.2,3.5c0.5,0.6,1.2,0.8,1.9,0.8
		c0.6,0,1.2-0.2,1.7-0.6l3.8-3.4l5.6,16.5L551.2,143.4z"/>
</g>
</svg>
