<?xml version="1.0" encoding="utf-8"?>
<!-- Generator: Adobe Illustrator 26.5.0, SVG Export Plug-In . SVG Version: 6.00 Build 0)  -->
<svg version="1.1" id="rudskogen_-_Pit_Road" xmlns="http://www.w3.org/2000/svg" xmlns:xlink="http://www.w3.org/1999/xlink"
	 x="0px" y="0px" viewBox="0 0 1920 1080" style="enable-background:new 0 0 1920 1080;" xml:space="preserve">
<style type="text/css">
	.st0{fill:#D82520;}
	.st1{fill:#0089BA;}
</style>
<g id="Pitroad">
	<path class="st0" d="M1458.5,867.4c-4.4,0-9.1-0.1-13.8-0.4c-1.4-0.1-2.4-1.3-2.3-2.6c0.1-1.4,1.2-2.4,2.6-2.3
		c4.6,0.3,9.1,0.4,13.5,0.4c5.5,0,10.9-0.2,16.2-0.6c1.4-0.1,2.6,0.9,2.7,2.3s-0.9,2.6-2.3,2.7
		C1469.7,867.1,1464.1,867.4,1458.5,867.4z M1415,863.8c-0.1,0-0.2,0-0.4,0c-10.2-1.5-20.3-3.3-29.7-5c-1.4-0.2-2.2-1.5-2-2.9
		s1.6-2.2,2.9-2c9.3,1.7,19.4,3.5,29.5,5c1.4,0.2,2.3,1.5,2.1,2.8C1417.3,862.9,1416.3,863.8,1415,863.8L1415,863.8z M1504.4,861.9
		c-1.1,0-2.1-0.8-2.4-1.9c-0.3-1.3,0.5-2.7,1.8-3c10.3-2.6,19.7-5.9,27.7-9.8c1.2-0.6,2.7-0.1,3.3,1.1s0.1,2.7-1.1,3.3
		c-8.4,4.1-18,7.5-28.7,10.2C1504.8,861.9,1504.6,861.9,1504.4,861.9L1504.4,861.9z M1356,853.4c-0.1,0-0.3,0-0.4,0
		c-10.2-1.7-19.8-2.9-29.5-3.8c-1.4-0.1-2.4-1.3-2.3-2.7s1.3-2.4,2.7-2.3c9.9,0.9,19.7,2.1,29.9,3.8c1.4,0.2,2.3,1.5,2.1,2.9
		C1358.2,852.5,1357.2,853.4,1356,853.4L1356,853.4z M1296.3,848C1296.3,848,1296.3,848,1296.3,848c-6.3-0.1-12.4-0.2-18.8-0.2
		c-3.7,0-7.4,0-11.2-0.1c-1.4,0-2.5-1.2-2.5-2.5c0-1.4,1.1-2.5,2.5-2.5h0c3.8,0,7.5,0.1,11.2,0.1c6.1,0,12.5,0.1,18.8,0.2
		c1.4,0,2.5,1.2,2.4,2.5C1298.8,846.9,1297.7,848,1296.3,848L1296.3,848z M1236.3,847C1236.3,847,1236.3,847,1236.3,847l-1.7,0
		c-9.3-0.2-18.8-0.4-28.4-0.7c-1.4,0-2.5-1.2-2.4-2.6c0.1-1.4,1.2-2.5,2.6-2.4c9.6,0.3,19.1,0.5,28.4,0.7l1.6,0
		c1.4,0,2.5,1.2,2.4,2.5C1238.8,845.9,1237.7,847,1236.3,847L1236.3,847z M1176.4,844.8c-0.1,0-0.1,0-0.2,0
		c-11.8-0.8-21.6-1.9-30.1-3.3c-1.4-0.2-2.3-1.5-2.1-2.9c0.2-1.4,1.5-2.3,2.9-2.1c8.3,1.4,18,2.4,29.6,3.2c1.4,0.1,2.4,1.3,2.3,2.7
		C1178.8,843.8,1177.7,844.8,1176.4,844.8L1176.4,844.8z M1116.8,837.3c-0.1,0-0.1,0-0.2,0c-8.5-0.7-18.2-1.1-29.8-1.3
		c-1.4,0-2.5-1.2-2.5-2.5c0-1.4,1.2-2.5,2.5-2.5c11.7,0.2,21.6,0.7,30.1,1.3c1.4,0.1,2.4,1.3,2.3,2.7
		C1119.2,836.3,1118.1,837.3,1116.8,837.3L1116.8,837.3z M1043,835.8c-4.6,0-9.2,0-13.7,0l-2.5,0c-1.4,0-2.5-1.1-2.5-2.5
		c0-1.4,1.1-2.5,2.5-2.5h0l2.5,0c8,0.1,16.1,0,24.2,0h3.3l0,0c1.4,0,2.5,1.1,2.5,2.5s-1.1,2.5-2.5,2.5h-3.3
		C1050.1,835.8,1046.5,835.8,1043,835.8L1043,835.8z M996.8,835.5L996.8,835.5c-8.8,0-18.9-0.1-30.1-0.2c-1.4,0-2.5-1.1-2.5-2.5
		s1.1-2.5,2.5-2.5h0c11.2,0,21.3,0.1,30,0.2c1.4,0,2.5,1.1,2.5,2.5S998.2,835.5,996.8,835.5z M936.7,835.2L936.7,835.2l-30-0.1
		c-1.4,0-2.5-1.1-2.5-2.5c0-1.4,1.1-2.5,2.5-2.5h0l30,0.1c1.4,0,2.5,1.1,2.5,2.5C939.2,834.1,938.1,835.2,936.7,835.2z M876.6,835
		L876.6,835l-30-0.1c-1.4,0-2.5-1.1-2.5-2.5c0-1.4,1.1-2.5,2.5-2.5l0,0l30,0.1c1.4,0,2.5,1.1,2.5,2.5C879.1,833.9,878,835,876.6,835
		z M816.6,834.8L816.6,834.8c-10,0-20-0.1-30-0.1c-1.4,0-2.5-1.1-2.5-2.5c0-1.4,1.1-2.5,2.5-2.5l0,0c10,0,20,0,30,0.1
		c1.4,0,2.5,1.1,2.5,2.5C819.1,833.7,818,834.8,816.6,834.8z M606.4,834.7c-1.4,0-2.5-1.1-2.5-2.5c0-1.4,1.1-2.5,2.5-2.5
		c8.8,0,18.9-0.1,30-0.1l0,0c1.4,0,2.5,1.1,2.5,2.5c0,1.4-1.1,2.5-2.5,2.5C625.3,834.7,615.3,834.7,606.4,834.7L606.4,834.7
		L606.4,834.7z M1557,834.7c-0.6,0-1.3-0.2-1.8-0.7c-1-1-1-2.6,0-3.5c5.1-5.2,9.5-11,13.3-17.8c0.8-1.5,1.6-3.5,2.3-6
		c0.4-1.3,1.7-2.1,3.1-1.8c1.3,0.4,2.1,1.7,1.8,3.1c-0.8,2.9-1.7,5.3-2.7,7.1c-4,7.2-8.6,13.4-14.1,18.9
		C1558.3,834.5,1557.7,834.7,1557,834.7L1557,834.7z M756.5,834.6L756.5,834.6c-10.2,0-20.2,0-30,0c-1.4,0-2.5-1.1-2.5-2.5
		s1.1-2.5,2.5-2.5l0,0c9.8,0,19.9,0,30,0c1.4,0,2.5,1.1,2.5,2.5S757.9,834.6,756.5,834.6z M696.5,834.6h-14.7c-5.2,0-10.4,0-15.3,0
		c-1.4,0-2.5-1.1-2.5-2.5s1.1-2.5,2.5-2.5c5,0,10.1,0,15.4,0h14.7c1.4,0,2.5,1.1,2.5,2.5C699,833.5,697.8,834.6,696.5,834.6
		L696.5,834.6z M1576.8,780.1C1576.8,780.1,1576.7,780.1,1576.8,780.1c-1.5,0-2.5-1.2-2.5-2.6c0.2-4.6,0.3-9.7,0.3-15
		c0-4.7-0.1-9.7-0.2-14.9c0-1.4,1.1-2.5,2.4-2.6c1.3-0.1,2.5,1,2.6,2.4c0.1,5.2,0.2,10.3,0.2,15c0,5.4-0.1,10.5-0.3,15.2
		C1579.2,779,1578.1,780.1,1576.8,780.1L1576.8,780.1z M1575.3,720.1c-1.3,0-2.4-1-2.5-2.3c-0.6-8.5-1.4-16.1-2-20.3
		c-0.2-1.4,0.7-2.6,2.1-2.8c1.4-0.2,2.6,0.7,2.8,2.1c0.6,4.4,1.4,12.1,2,20.7c0.1,1.4-0.9,2.6-2.3,2.7
		C1575.5,720.1,1575.4,720.1,1575.3,720.1L1575.3,720.1z"/>
	<polygon class="st0" points="620.6,850.8 612.6,832.4 620.4,813.8 576.6,832.6 	"/>
</g>
<g id="Mergeline">
	<path class="st1" d="M350.4,943.5c-4.8,0-10.2-0.2-16.4-0.6l0.6-10c12.5,0.8,21.3,0.7,29.1-0.1l1,10
		C360.3,943.3,355.7,943.5,350.4,943.5L350.4,943.5z M395.2,933.8l-4.9-8.8c7-3.9,13.8-9.4,20.9-17l0.9-1l7.3,6.8l-1,1
		C410.7,923.2,403.1,929.4,395.2,933.8L395.2,933.8z M439.7,891.5l-7.4-6.7c6.6-7.4,13.7-15.1,20.9-22l6.9,7.2
		C453.1,876.7,446.1,884.3,439.7,891.5z M482.6,852l-5.2-8.6c1.5-0.9,3.1-1.8,4.6-2.6c9.9-5.2,16.7-7.9,24.3-9.6l2.2,9.8
		c-6.7,1.5-12.8,3.9-21.9,8.7C485.4,850.4,484,851.2,482.6,852L482.6,852z M537.4,838.4l-0.3-10c5.5-0.2,11.8-0.3,19.1-0.4
		c3.4-0.1,7-0.1,10.9-0.2l0.2,10c-3.9,0.1-7.5,0.1-10.9,0.2C549.1,838.1,542.9,838.2,537.4,838.4L537.4,838.4z"/>
	
		<rect x="301.8" y="933" transform="matrix(5.425310e-02 -0.9985 0.9985 5.425310e-02 -620.4175 1220.8909)" class="st1" width="65" height="10"/>
</g>
</svg>
