<?xml version="1.0" encoding="UTF-8"?><svg id="wheatland_-_pitroad" xmlns="http://www.w3.org/2000/svg" viewBox="0 0 1920 1080"><defs><style>.cls-1{fill:#d82520;}</style></defs><g id="pitroad"><path class="cls-1" d="M1338.44336,213.83838c-6.44434,2.00391-12.78125,4.67578-18.83691,7.94043-1.21484,.65527-1.66895,2.17188-1.01367,3.38721,.45117,.83789,1.3125,1.31396,2.20215,1.31396,.40039,0,.80762-.09668,1.18457-.2998,5.77246-3.11279,11.81152-5.65869,17.94824-7.56738,1.31836-.41016,2.05469-1.81104,1.64551-3.12939-.41113-1.31885-1.81445-2.05518-3.12988-1.64502Z"/><path class="cls-1" d="M1408.90723,213.2959c-6.86426-1.55029-13.58203-2.70459-19.96875-3.43018-1.37988-.16162-2.61035,.83057-2.7666,2.20166-.15527,1.37207,.83008,2.61035,2.20215,2.76611,6.20703,.70557,12.74414,1.8291,19.43164,3.33936,.18555,.04199,.37109,.06201,.55273,.06201,1.14258,0,2.17383-.78809,2.43652-1.94971,.30469-1.34668-.54102-2.68506-1.8877-2.98926Z"/><path class="cls-1" d="M1306.64355,229.91992c-5.20703,3.74707-10.45508,8.13135-15.59863,13.03125-.99902,.95215-1.03809,2.53467-.08594,3.53467,.49219,.51562,1.15039,.77539,1.81055,.77539,.62012,0,1.24023-.229,1.72461-.68994,4.97754-4.74219,10.04785-8.979,15.06934-12.59277,1.12109-.80664,1.37598-2.36914,.56934-3.48975-.80566-1.12109-2.36914-1.37549-3.48926-.56885Z"/><path class="cls-1" d="M1255.80859,278.12012c-3.71667,3.05859-7.40503,5.80438-11.02051,8.22052l-.29346-10.94342-22.56006,24.55603,33.33167-.97815-8.61035-7.87036c4.04565-2.65112,8.17603-5.70502,12.33044-9.12329,1.06543-.87744,1.21875-2.45312,.3418-3.51904-.87695-1.06641-2.45312-1.21826-3.51953-.34229Z"/><path class="cls-1" d="M1454.7002,233.80518c6.1709,2.73438,12.125,5.69336,17.69531,8.79443,.38477,.21436,.80176,.31592,1.21387,.31592,.87793,0,1.72949-.46338,2.18652-1.28467,.6709-1.20605,.2373-2.72852-.96875-3.40039-5.70215-3.17383-11.79297-6.20117-18.10156-8.99658-1.25879-.55762-2.73828,.00977-3.29785,1.27295-.55957,1.26221,.00977,2.73877,1.27246,3.29834Z"/><path class="cls-1" d="M1280.47559,253.85059c-.5127,.56787-1.02344,1.14014-1.53418,1.7168-3.94824,4.46094-8.02246,8.72705-12.10742,12.6792-.99219,.95996-1.01855,2.54297-.05859,3.53516,.49023,.50684,1.14355,.76172,1.79688,.76172,.62598,0,1.25293-.23389,1.73828-.70312,4.17773-4.04199,8.34082-8.40186,12.375-12.95898,.49902-.56445,1-1.125,1.50098-1.68018,.92578-1.02539,.84473-2.60596-.18066-3.53125-1.02344-.9248-2.60645-.84277-3.53027,.18066Z"/><path class="cls-1" d="M1535.96582,319.04443c.21094,1.21631,1.26758,2.07422,2.46094,2.07422,.1416,0,.28516-.01221,.42969-.03711,1.36035-.23535,2.27246-1.5293,2.03711-2.88965-1.13867-6.57715-3.16504-13.18848-6.02246-19.65088-.55859-1.26367-2.03809-1.83252-3.29688-1.27539-1.2627,.55859-1.83398,2.03467-1.27539,3.29785,2.69238,6.08838,4.59863,12.30615,5.66699,18.48096Z"/><path class="cls-1" d="M1373.71875,208.90234c-7.02344-.0708-13.84766,.41943-20.33691,1.4541-1.36328,.21729-2.29297,1.49902-2.0752,2.8623,.19629,1.23047,1.25879,2.10693,2.46582,2.10693,.13086,0,.26367-.01025,.39648-.03174,6.21191-.99072,12.75391-1.4624,19.49902-1.3916,1.42871,.0127,2.51172-1.09375,2.52539-2.4751,.01367-1.38037-1.09473-2.51074-2.47461-2.5249Z"/><path class="cls-1" d="M1525.45117,288.88232c.46387,0,.93359-.12939,1.35254-.39893,1.16016-.74805,1.49512-2.29541,.74707-3.45605-3.56152-5.52441-7.78809-10.93408-12.56445-16.07861-.9375-1.01074-2.52051-1.07129-3.5332-.13086-1.01172,.93945-1.07031,2.521-.13086,3.5332,4.57715,4.93018,8.62305,10.10645,12.02539,15.38525,.47852,.7417,1.28223,1.146,2.10352,1.146Z"/><path class="cls-1" d="M1502.7041,389.47021c-2.35059,2.01709-4.75,4.04395-7.16504,6.08496-2.69336,2.27441-5.40625,4.56641-8.09375,6.88135-1.04688,.90088-1.16406,2.47949-.26367,3.52588,.49414,.57422,1.19336,.86865,1.89551,.86865,.57812,0,1.1582-.19922,1.62988-.60547,2.67676-2.30469,5.37793-4.58643,8.05859-6.85107,2.42578-2.04932,4.83496-4.08496,7.19434-6.11035,1.04785-.89941,1.16797-2.47754,.26953-3.52539-.90039-1.04785-2.47754-1.16846-3.52539-.26855Z"/><path class="cls-1" d="M1530.16504,364.33301c-1.13965-.78027-2.69629-.48877-3.47559,.65088-.41016,.60059-.83301,1.19385-1.26758,1.77979-2.87891,3.88232-6.68359,8.06201-11.63281,12.77686-1,.95264-1.03809,2.53516-.08496,3.53467,.49121,.51562,1.14941,.77539,1.80957,.77539,.62012,0,1.24023-.229,1.72461-.68994,5.1582-4.91504,9.14844-9.3042,12.19922-13.41895,.47168-.63623,.93164-1.28125,1.37891-1.93359,.7793-1.13965,.48828-2.69531-.65137-3.4751Z"/><path class="cls-1" d="M1539.54004,331.0542c-1.38672-.05957-2.54199,1.01807-2.59766,2.39844-.26074,6.52588-1.5,12.84521-3.68359,18.78174-.47656,1.2959,.1875,2.73242,1.4834,3.20898,.28516,.10498,.57617,.1543,.86328,.1543,1.01758,0,1.97461-.62646,2.34668-1.6377,2.36328-6.42725,3.70508-13.25977,3.98633-20.30811,.05469-1.37939-1.01855-2.54248-2.39844-2.59766Z"/><path class="cls-1" d="M1457.30176,439.34326c-1.24219-.60449-2.7373-.08496-3.34082,1.15723-3.14648,6.48096-4.74121,13.01758-4.74023,19.42773,0,.32861,.00391,.65771,.0127,.98779,.03418,1.3584,1.14648,2.43652,2.49805,2.43652,.02148,0,.04297-.00049,.06445-.00098,1.37988-.03467,2.4707-1.18213,2.43555-2.5625-.00684-.28711-.01074-.57422-.01074-.86133-.00098-5.72705,1.38574-11.36719,4.23828-17.24365,.60254-1.24219,.08496-2.73779-1.15723-3.34082Z"/><path class="cls-1" d="M1442.7041,223.51807c-3.05078-1.14209-6.20215-2.2583-9.36719-3.31836-3.29102-1.10156-6.57617-2.13672-9.76465-3.0752-1.3252-.39404-2.71387,.36768-3.10449,1.69189-.38965,1.32422,.36816,2.71436,1.69238,3.10449,3.12988,.92139,6.35645,1.9375,9.58887,3.02002,3.11035,1.0415,6.20605,2.13818,9.20117,3.25977,.28906,.10791,.58496,.15918,.87695,.15918,1.0127,0,1.96582-.61963,2.34082-1.62402,.48438-1.29297-.1709-2.7334-1.46387-3.21777Z"/><path class="cls-1" d="M1476.18262,412.53711c-5.65234,5.35059-10.18848,10.2251-13.86914,14.90186-.85352,1.08496-.66602,2.65674,.41895,3.51074,.45801,.36035,1.00293,.53516,1.54395,.53516,.74023,0,1.47363-.32715,1.9668-.9541,3.52734-4.48291,7.90332-9.18115,13.37695-14.36279,1.00293-.94922,1.0459-2.53125,.09668-3.53418-.94922-1.00391-2.5332-1.0459-3.53418-.09668Z"/><path class="cls-1" d="M1502.35059,262.76221c.70117,0,1.39941-.29395,1.89355-.8667,.90234-1.04541,.78613-2.62402-.25977-3.52588-4.94824-4.27002-10.39258-8.38867-16.18164-12.24219-1.15234-.76562-2.70215-.4541-3.4668,.6958-.76465,1.14941-.45312,2.70117,.69531,3.46631,5.61719,3.73926,10.89551,7.73096,15.6875,11.86523,.47168,.40771,1.05371,.60742,1.63184,.60742Z"/></g></svg>