<?xml version="1.0" encoding="utf-8"?>
<!-- Generator: Adobe Illustrator 26.5.0, SVG Export Plug-In . SVG Version: 6.00 Build 0)  -->
<svg version="1.1" id="GP_-_pitroad" xmlns="http://www.w3.org/2000/svg" xmlns:xlink="http://www.w3.org/1999/xlink" x="0px"
	 y="0px" viewBox="0 0 1920 1080" style="enable-background:new 0 0 1920 1080;" xml:space="preserve">
<style type="text/css">
	.st0{fill:#D82520;}
	.st1{fill:#016699;}
</style>
<g id="Pitroad">
	<path class="st0" d="M1399.8,826.9c-5.7-2.3-12-4.8-18.6-7.5c-1.3-0.5-2.7,0.1-3.3,1.4c-0.5,1.3,0.1,2.7,1.4,3.3
		c6.6,2.7,12.9,5.2,18.6,7.5c0.3,0.1,0.6,0.2,0.9,0.2c1,0,1.9-0.6,2.3-1.6C1401.7,828.9,1401.1,827.4,1399.8,826.9z"/>
	<path class="st0" d="M1201.4,757.7c-5-1.6-11.4-3.6-19.1-6.1c-1.3-0.4-2.7,0.3-3.1,1.6c-0.4,1.3,0.3,2.7,1.6,3.1
		c7.7,2.5,14.1,4.5,19.1,6.1c0.2,0.1,0.5,0.1,0.7,0.1c1.1,0,2.1-0.7,2.4-1.8C1203.5,759.5,1202.8,758.1,1201.4,757.7z"/>
	<path class="st0" d="M1268.8,776.8c-5.7-1.7-11.9-3.5-19.3-5.5c-1.3-0.4-2.7,0.4-3.1,1.7c-0.4,1.3,0.4,2.7,1.7,3.1
		c7.4,2,13.5,3.8,19.2,5.5c0.2,0.1,0.5,0.1,0.7,0.1c1.1,0,2.1-0.7,2.4-1.8C1270.9,778.6,1270.1,777.2,1268.8,776.8z"/>
	<path class="st0" d="M1367.3,813.8c-6.1-2.5-12.4-5-18.6-7.5c-1.3-0.5-2.7,0.1-3.3,1.4c-0.5,1.3,0.1,2.7,1.4,3.3
		c6.2,2.5,12.4,5,18.6,7.5c0.3,0.1,0.6,0.2,0.9,0.2c1,0,1.9-0.6,2.3-1.6C1369.2,815.7,1368.6,814.3,1367.3,813.8z"/>
	<path class="st0" d="M1302.1,787.9l-0.8-0.3c-6-2.2-12-4.3-18.2-6.4c-1.3-0.4-2.7,0.3-3.2,1.6c-0.4,1.3,0.3,2.7,1.6,3.2
		c6.1,2,12,4.1,18,6.3l0.8,0.3c0.3,0.1,0.6,0.2,0.9,0.2c1,0,2-0.6,2.3-1.6C1304.1,789.8,1303.4,788.4,1302.1,787.9z"/>
	<path class="st0" d="M1334.8,800.7c-7-2.8-13.1-5.2-18.6-7.4c-1.3-0.5-2.7,0.1-3.2,1.4c-0.5,1.3,0.1,2.7,1.4,3.2
		c5.5,2.1,11.6,4.5,18.6,7.3c0.3,0.1,0.6,0.2,0.9,0.2c1,0,1.9-0.6,2.3-1.6C1336.7,802.6,1336.1,801.2,1334.8,800.7z"/>
	<path class="st0" d="M1168,747c-6-1.9-12.4-4-19.1-6.2c-1.3-0.4-2.7,0.3-3.2,1.6c-0.4,1.3,0.3,2.7,1.6,3.2
		c6.7,2.2,13.1,4.2,19.1,6.2c0.3,0.1,0.5,0.1,0.8,0.1c1.1,0,2-0.7,2.4-1.7C1170.1,748.9,1169.3,747.4,1168,747z"/>
	<path class="st0" d="M1235,767.3c-6.1-1.6-12.6-3.4-19.2-5.3c-1.3-0.4-2.7,0.4-3.1,1.7c-0.4,1.3,0.4,2.7,1.7,3.1
		c6.7,1.9,13.2,3.7,19.3,5.3c0.2,0.1,0.4,0.1,0.7,0.1c1.1,0,2.1-0.7,2.4-1.8C1237.2,769,1236.4,767.7,1235,767.3z"/>
	<path class="st0" d="M1001.5,692.2c-7.9-2.6-14.4-4.8-19-6.4c-1.3-0.4-2.7,0.3-3.2,1.6c-0.4,1.3,0.3,2.7,1.6,3.2
		c4.6,1.6,11.1,3.8,19,6.4c0.3,0.1,0.5,0.1,0.8,0.1c1,0,2-0.7,2.4-1.7C1003.5,694,1002.8,692.6,1001.5,692.2z"/>
	<path class="st0" d="M968.3,680.9l-18.9-6.6c-1.3-0.5-2.7,0.2-3.2,1.5c-0.5,1.3,0.2,2.7,1.5,3.2l18.9,6.6c0.3,0.1,0.5,0.1,0.8,0.1
		c1,0,2-0.6,2.4-1.7C970.3,682.7,969.6,681.3,968.3,680.9z"/>
	<path class="st0" d="M935.2,669.4c-4.5-1.5-9.1-3.1-13.8-4.8l7.6-8.4l-33.3,2.2l24.8,22.3l-0.8-11.4c4.7,1.6,9.4,3.2,13.8,4.8
		c0.3,0.1,0.5,0.1,0.8,0.1c1,0,2-0.6,2.4-1.7C937.2,671.3,936.5,669.9,935.2,669.4z"/>
	<path class="st0" d="M1101.4,725.3c-6.3-2.1-12.7-4.2-19-6.3c-1.3-0.4-2.7,0.3-3.2,1.6c-0.4,1.3,0.3,2.7,1.6,3.2
		c6.3,2.1,12.7,4.2,19,6.3c0.3,0.1,0.5,0.1,0.8,0.1c1.1,0,2-0.7,2.4-1.7C1103.4,727.1,1102.7,725.7,1101.4,725.3z"/>
	<path class="st0" d="M1034.8,703.3c-6.7-2.2-13.1-4.4-19-6.3c-1.3-0.4-2.7,0.3-3.2,1.6s0.3,2.7,1.6,3.2c5.9,2,12.3,4.1,19,6.3
		c0.3,0.1,0.5,0.1,0.8,0.1c1,0,2-0.7,2.4-1.7C1036.8,705.1,1036.1,703.7,1034.8,703.3z"/>
	<path class="st0" d="M1134.7,736.2c-6.2-2-12.6-4.1-19-6.2c-1.3-0.4-2.7,0.3-3.2,1.6c-0.4,1.3,0.3,2.7,1.6,3.2
		c6.5,2.1,12.8,4.2,19,6.2c0.3,0.1,0.5,0.1,0.8,0.1c1.1,0,2-0.7,2.4-1.7C1136.7,738,1136,736.6,1134.7,736.2z"/>
	<path class="st0" d="M1068.1,714.3c-6.5-2.1-12.8-4.2-19-6.3c-1.3-0.4-2.7,0.3-3.2,1.6c-0.4,1.3,0.3,2.7,1.6,3.2
		c6.2,2,12.5,4.2,19,6.3c0.3,0.1,0.5,0.1,0.8,0.1c1,0,2-0.7,2.4-1.7C1070.1,716.1,1069.4,714.7,1068.1,714.3z"/>
	<path class="st0" d="M1727.9,847.9c0.2,0,0.5,0,0.7-0.1c1.3-0.4,2.1-1.8,1.7-3.1c-1.9-6.4-4-12.8-6.2-19.1c-0.5-1.3-1.9-2-3.2-1.5
		c-1.3,0.5-2,1.9-1.5,3.2c2.2,6.2,4.2,12.6,6.1,18.9C1725.9,847.2,1726.8,847.9,1727.9,847.9z"/>
	<path class="st0" d="M1700.5,781.3c0.4,0.9,1.3,1.4,2.2,1.4c0.4,0,0.8-0.1,1.1-0.3c1.2-0.6,1.7-2.1,1.1-3.4
		c-0.4-0.8-0.8-1.5-1.1-2.3c-2-3.9-4.7-8.7-8.7-15.3c-0.7-1.2-2.2-1.6-3.4-0.9c-1.2,0.7-1.6,2.2-0.9,3.4c3.9,6.5,6.6,11.3,8.5,15
		C1699.8,779.8,1700.1,780.5,1700.5,781.3z"/>
	<path class="st0" d="M1686.9,748c-2.2-3.6-4.5-7.3-6.7-10.9c-0.7-1.2-2.3-1.6-3.4-0.8c-1.2,0.7-1.6,2.3-0.8,3.4
		c2.2,3.7,4.5,7.4,6.7,11l0.4,0.6c0.5,0.8,1.3,1.2,2.1,1.2c0.4,0,0.9-0.1,1.3-0.4c1.2-0.7,1.5-2.3,0.8-3.4L1686.9,748z"/>
	<path class="st0" d="M1710.5,919.1c-4.6,2.8-10.3,5.6-17.6,8.7c-1.3,0.5-1.9,2-1.3,3.3c0.4,1,1.3,1.5,2.3,1.5c0.3,0,0.6-0.1,1-0.2
		c7.5-3.1,13.4-6.1,18.2-9c1.2-0.7,1.5-2.3,0.8-3.4C1713.2,918.8,1711.7,918.4,1710.5,919.1z"/>
	<path class="st0" d="M1679.1,933.2c-2.3,0.8-4.7,1.7-7.2,2.6c-4,1.4-7.9,2.6-11.6,3.6c-1.3,0.4-2.1,1.7-1.8,3.1
		c0.3,1.1,1.3,1.8,2.4,1.8c0.2,0,0.4,0,0.7-0.1c3.8-1,7.8-2.3,11.9-3.8c2.5-0.9,4.9-1.8,7.3-2.6c1.3-0.5,2-1.9,1.5-3.2
		S1680.4,932.7,1679.1,933.2z"/>
	<path class="st0" d="M1711.4,792.8c-0.6-1.3-2-1.8-3.3-1.3c-1.3,0.6-1.8,2-1.3,3.3c2.5,5.8,5.1,12,7.5,18.4c0.4,1,1.3,1.6,2.3,1.6
		c0.3,0,0.6-0.1,0.9-0.2c1.3-0.5,1.9-1.9,1.4-3.2C1716.5,804.9,1713.9,798.6,1711.4,792.8z"/>
	<path class="st0" d="M1734.4,859.3c-0.3-1.3-1.7-2.2-3-1.8c-1.3,0.3-2.2,1.7-1.8,3c1.8,7.3,2.7,13.6,2.8,19.2
		c0,1.4,1.1,2.5,2.5,2.5h0c1.4,0,2.5-1.2,2.5-2.5C1737.3,873.6,1736.3,867,1734.4,859.3z"/>
	<path class="st0" d="M1733.6,892c-1.3-0.4-2.7,0.3-3.1,1.7c-1.2,3.8-2.9,7.5-5.5,11.9c-1,1.6-2.1,3.2-3.4,4.6
		c-0.9,1-0.8,2.6,0.2,3.5c0.5,0.4,1.1,0.6,1.7,0.6c0.7,0,1.4-0.3,1.9-0.8c1.5-1.7,2.8-3.5,4-5.4c2.9-4.8,4.7-8.8,6-13
		C1735.7,893.8,1735,892.4,1733.6,892z"/>
	<path class="st0" d="M1508.8,878.1c-1-0.9-2.6-0.9-3.5,0.2c-0.9,1-0.9,2.6,0.2,3.5c4.9,4.4,9.8,9.6,14,14c0.5,0.5,1.2,0.8,1.8,0.8
		c0.6,0,1.2-0.2,1.7-0.7c1-0.9,1-2.5,0.1-3.5C1518.8,887.9,1513.7,882.7,1508.8,878.1z"/>
	<path class="st0" d="M1645.9,942.5c-6.7,0.9-12.8,1.1-19.4,0.5c-1.4-0.1-2.6,0.9-2.7,2.3c-0.1,1.4,0.9,2.6,2.3,2.7
		c2.7,0.2,5.2,0.3,7.9,0.3c4.2,0,8.3-0.3,12.7-0.9c1.4-0.2,2.3-1.5,2.1-2.8S1647.3,942.3,1645.9,942.5z"/>
	<path class="st0" d="M1432.5,839.4c-3.4-1.3-6.8-2.6-10.1-3.8c-2.3-0.8-5.2-1.9-8.6-3.3c-1.3-0.5-2.7,0.1-3.2,1.4
		c-0.5,1.3,0.1,2.7,1.4,3.2c3.4,1.3,6.4,2.4,8.7,3.3c3.2,1.2,6.6,2.4,10,3.7c0.3,0.1,0.6,0.2,0.9,0.2c1,0,2-0.6,2.3-1.6
		C1434.4,841.3,1433.8,839.9,1432.5,839.4z"/>
	<path class="st0" d="M1465,852.7c-5.7-2.5-12-5.1-18.5-7.8c-1.3-0.5-2.7,0.1-3.3,1.4c-0.5,1.3,0.1,2.7,1.4,3.3
		c6.5,2.6,12.7,5.2,18.4,7.7c0.3,0.1,0.7,0.2,1,0.2c1,0,1.9-0.6,2.3-1.5C1466.9,854.7,1466.3,853.2,1465,852.7z"/>
	<path class="st0" d="M1496.6,868.6c-4.5-2.8-10.5-6.1-17.9-9.7c-1.2-0.6-2.7-0.1-3.3,1.2c-0.6,1.2-0.1,2.7,1.2,3.3
		c7.2,3.5,13.1,6.6,17.3,9.4c0.4,0.3,0.9,0.4,1.3,0.4c0.8,0,1.6-0.4,2.1-1.2C1498.1,870.9,1497.8,869.4,1496.6,868.6z"/>
	<path class="st0" d="M1612.1,940.7c-1.2-0.3-2.4-0.5-3.7-0.8c-4.4-1-9.7-2.4-15.5-4.2c-1.3-0.4-2.7,0.3-3.1,1.6s0.3,2.7,1.6,3.1
		c5.9,1.8,11.4,3.3,15.9,4.3c1.2,0.3,2.5,0.5,3.7,0.8c0.2,0,0.3,0.1,0.5,0.1c1.2,0,2.2-0.8,2.4-2
		C1614.3,942.3,1613.4,941,1612.1,940.7z"/>
	<path class="st0" d="M1578.8,930.9c-6.7-2.4-13.1-5-18.4-7.5c-1.3-0.6-2.7,0-3.3,1.2s0,2.7,1.2,3.3c5.4,2.5,11.9,5.1,18.7,7.6
		c0.3,0.1,0.6,0.2,0.9,0.2c1,0,2-0.6,2.3-1.6C1580.8,932.8,1580.1,931.4,1578.8,930.9z"/>
	<path class="st0" d="M1547.6,916.5c-0.7-0.5-1.3-0.9-1.9-1.4c-3.8-3-8.4-7.7-12.4-11.9c-1-1-2.5-1-3.5-0.1c-1,1-1,2.5-0.1,3.5
		c4.1,4.3,8.9,9.2,12.9,12.3c0.7,0.5,1.4,1,2.2,1.6c0.4,0.3,0.9,0.4,1.4,0.4c0.8,0,1.6-0.4,2.1-1.1
		C1549.1,918.9,1548.8,917.3,1547.6,916.5z"/>
</g>
<g id="Mergeline">
	<path class="st1" d="M697,589.7c-7.3-2.3-13.9-3.7-20.1-4.1c-1.4-0.1-2.6,0.9-2.7,2.3c-0.1,1.4,0.9,2.6,2.3,2.7
		c5.8,0.4,12,1.7,19,3.9c0.3,0.1,0.5,0.1,0.8,0.1c1.1,0,2-0.7,2.4-1.7C699,591.5,698.3,590.1,697,589.7z"/>
	<path class="st1" d="M629.3,603c-4.1,4-8.6,9.2-13.3,15.4c-0.8,1.1-0.6,2.7,0.5,3.5c0.5,0.3,1,0.5,1.5,0.5c0.8,0,1.5-0.3,2-1
		c4.6-6,8.9-11,12.8-14.9c1-1,1-2.5,0-3.5C631.9,602,630.3,602,629.3,603z"/>
	<path class="st1" d="M661.3,586.4c-7.4,1.5-13.6,4.3-19.3,7.2c-1.2,0.6-1.7,2.1-1.1,3.4c0.4,0.9,1.3,1.4,2.2,1.4
		c0.4,0,0.8-0.1,1.1-0.3c5.4-2.7,11.2-5.4,18-6.8c1.4-0.3,2.2-1.6,2-2.9C663.9,587,662.6,586.2,661.3,586.4z"/>
	<path class="st1" d="M557.5,634.2c-4.6-3.2-9.4-6.7-14.3-10.2l8-11.2l-4.1-2.9l-9.4,13.2c0,0,0,0,0,0c0,0,0,0,0,0l-9.4,13.2
		l4.1,2.9l7.9-11.2c4.8,3.5,9.7,7,14.3,10.2c0.4,0.3,0.9,0.5,1.4,0.5c0.8,0,1.6-0.4,2-1.1C558.9,636.5,558.6,635,557.5,634.2z"/>
	<path class="st1" d="M586.3,652c-1.8-0.4-3.7-1.2-5.9-2.4c-1.2-0.7-4-2.4-10.6-6.9c-1.1-0.8-2.7-0.5-3.5,0.7
		c-0.8,1.1-0.5,2.7,0.7,3.5c5.4,3.7,9.1,6.1,11,7.1c2.6,1.5,5,2.4,7.3,2.9c0.2,0,0.4,0.1,0.5,0.1c1.1,0,2.2-0.8,2.4-2
		C588.5,653.6,587.6,652.3,586.3,652z"/>
	<path class="st1" d="M610.7,630.1c-1.2-0.8-2.7-0.5-3.5,0.7c-3.3,5-6.5,10.1-8.5,13.9c-0.6,1.1-1.3,2.1-1.9,3
		c-0.8,1.1-0.6,2.7,0.5,3.5c0.5,0.3,1,0.5,1.5,0.5c0.8,0,1.5-0.3,2-1c0.8-1.1,1.6-2.3,2.3-3.6c2-3.7,5-8.6,8.3-13.5
		C612.2,632.4,611.9,630.8,610.7,630.1z"/>
	<path class="st1" d="M763.5,611.8c-6.4-2.1-12.8-4.2-19-6.3c-1.3-0.4-2.7,0.3-3.2,1.6c-0.4,1.3,0.3,2.7,1.6,3.2
		c6.2,2.1,12.6,4.2,19,6.3c0.3,0.1,0.5,0.1,0.8,0.1c1,0,2-0.7,2.4-1.7C765.6,613.7,764.9,612.3,763.5,611.8z"/>
	<path class="st1" d="M730.3,600.8c-6.9-2.3-13.4-4.4-19-6.3c-1.3-0.4-2.7,0.3-3.2,1.6c-0.4,1.3,0.3,2.7,1.6,3.2
		c5.7,1.9,12.1,4,19,6.3c0.3,0.1,0.5,0.1,0.8,0.1c1,0,2-0.7,2.4-1.7C732.3,602.6,731.6,601.2,730.3,600.8z"/>
	<path class="st1" d="M863.4,644.7c-6.9-2.4-13.3-4.5-19-6.4c-1.3-0.4-2.7,0.3-3.2,1.6s0.3,2.7,1.6,3.2c5.6,1.9,12,4.1,18.9,6.4
		c0.3,0.1,0.5,0.1,0.8,0.1c1,0,2-0.7,2.4-1.7C865.4,646.6,864.7,645.1,863.4,644.7z"/>
	<path class="st1" d="M896.5,656.1c-6.4-2.2-12.8-4.4-18.9-6.5c-1.3-0.4-2.7,0.2-3.2,1.6c-0.4,1.3,0.2,2.7,1.6,3.2
		c6.1,2.1,12.5,4.3,18.9,6.5c0.3,0.1,0.5,0.1,0.8,0.1c1,0,2-0.7,2.4-1.7C898.5,657.9,897.8,656.5,896.5,656.1z"/>
	<path class="st1" d="M830.2,633.5c-1.9-0.6-3.5-1.1-4.8-1.5c-3.2-1-8-2.5-14.3-4.6c-1.3-0.4-2.7,0.3-3.1,1.6
		c-0.4,1.3,0.3,2.7,1.6,3.1c6.3,2,11.1,3.6,14.3,4.6c1.3,0.4,2.9,0.9,4.7,1.5c0.3,0.1,0.5,0.1,0.8,0.1c1.1,0,2-0.7,2.4-1.7
		C832.2,635.4,831.5,633.9,830.2,633.5z"/>
	<path class="st1" d="M796.8,622.8c-5.9-1.9-12.4-4.1-19-6.2c-1.3-0.4-2.7,0.3-3.2,1.6c-0.4,1.3,0.3,2.7,1.6,3.2
		c6.7,2.2,13.1,4.3,19,6.2c0.3,0.1,0.5,0.1,0.8,0.1c1.1,0,2-0.7,2.4-1.7C798.9,624.6,798.1,623.2,796.8,622.8z"/>
</g>
</svg>
