<?xml version="1.0" encoding="UTF-8"?><svg id="B_-_pitroad" xmlns="http://www.w3.org/2000/svg" viewBox="0 0 1920 1080"><defs><style>.cls-1{fill:#016699;}.cls-2{fill:#d82520;}</style></defs><g id="Pitroad"><path class="cls-2" d="M1235.03223,767.31543c-6.08789-1.64746-12.58789-3.41406-19.23926-5.31348-1.32812-.38672-2.71094,.3877-3.09082,1.7168-.37891,1.32715,.38965,2.71094,1.71777,3.09082,6.68164,1.9082,13.20215,3.68066,19.30664,5.33203,.21875,.05957,.43848,.08789,.65527,.08789,1.10059,0,2.11035-.73438,2.41113-1.84766,.36035-1.33301-.42773-2.70605-1.76074-3.06641Z"/><path class="cls-2" d="M1268.78613,776.76855c-5.73828-1.72461-11.86426-3.47754-19.27832-5.51855-1.33105-.37109-2.70801,.41602-3.07324,1.74707-.36621,1.33105,.41504,2.70703,1.74707,3.07324,7.375,2.03027,13.46484,3.77441,19.16504,5.4873,.24023,.07129,.48242,.10645,.7207,.10645,1.0752,0,2.06836-.69922,2.39355-1.78125,.39746-1.32227-.35254-2.7168-1.6748-3.11426Z"/><path class="cls-2" d="M1201.44922,757.69824c-5.00195-1.56152-11.43066-3.60254-19.10645-6.06445-1.31348-.41895-2.72168,.30371-3.14453,1.61719-.4209,1.31445,.30273,2.72266,1.61719,3.14453,7.68848,2.46582,14.12891,4.50977,19.14355,6.07617,.24805,.07715,.49902,.11426,.74609,.11426,1.06445,0,2.05078-.68555,2.38574-1.75586,.41113-1.31738-.32324-2.71973-1.6416-3.13184Z"/><path class="cls-2" d="M1367.32617,813.77051c-6.13184-2.48438-12.37598-5.0127-18.56348-7.50586-1.28516-.51855-2.7373,.10352-3.25293,1.38379-.5166,1.28027,.10352,2.7373,1.38379,3.25293,6.18555,2.49316,12.42578,5.01953,18.55566,7.50391,.30762,.12402,.625,.18359,.9375,.18359,.98828,0,1.92383-.58984,2.31836-1.5625,.51855-1.2793-.09863-2.7373-1.37891-3.25586Z"/><path class="cls-2" d="M1168.03418,747.02344c-5.99902-1.93945-12.3877-4.01367-19.05762-6.18457-1.31055-.42773-2.72266,.28906-3.15039,1.60352-.42773,1.3125,.29004,2.72363,1.60254,3.15039,6.67285,2.17285,13.06543,4.24707,19.06641,6.18848,.25586,.08203,.51465,.12207,.77051,.12207,1.05469,0,2.03516-.67383,2.37793-1.73145,.4248-1.31348-.2959-2.72363-1.60938-3.14844Z"/><path class="cls-2" d="M1334.81934,800.66602c-7.04785-2.81543-13.14648-5.22266-18.64258-7.36133-1.28809-.49805-2.73535,.1377-3.23633,1.42383-.5,1.28613,.13672,2.73535,1.42383,3.23633,5.48145,2.13281,11.56641,4.53516,18.60156,7.34375,.30371,.12207,.61719,.17969,.92578,.17969,.99316,0,1.93164-.5957,2.32324-1.57422,.51172-1.28223-.11328-2.73633-1.39551-3.24805Z"/><path class="cls-2" d="M1302.10254,787.92969l-.75391-.2793c-6.03613-2.24023-11.9873-4.32227-18.19434-6.36523-1.30957-.42969-2.72363,.28027-3.15625,1.59375-.43164,1.31152,.28223,2.72461,1.59375,3.15625,6.14746,2.02246,12.04004,4.08398,18.01465,6.30176l.76953,.28613c.28516,.10449,.57617,.1543,.86328,.1543,1.01758,0,1.97461-.62695,2.34668-1.6377,.47656-1.2959-.1875-2.7334-1.4834-3.20996Z"/><path class="cls-2" d="M1399.80664,826.88379c-5.72656-2.28906-11.99316-4.81641-18.56348-7.47559-1.27539-.5166-2.73633,.09961-3.25488,1.37988-.51758,1.2793,.09961,2.7373,1.37988,3.25488,6.57617,2.66113,12.85059,5.19238,18.58301,7.4834,.30371,.12207,.61816,.17969,.92676,.17969,.99219,0,1.93164-.5957,2.32227-1.57324,.5127-1.28223-.11133-2.73633-1.39355-3.24902Z"/><path class="cls-2" d="M968.27441,680.86719l-18.90479-6.55371c-1.3042-.45117-2.72852,.23828-3.18066,1.54395-.45215,1.30469,.23926,2.72852,1.54395,3.18066l18.90283,6.55371c.27148,.09375,.54785,.13867,.81934,.13867,1.03516,0,2.00391-.64844,2.3623-1.68164,.45215-1.30469-.23828-2.72852-1.54297-3.18164Z"/><path class="cls-2" d="M935.19043,669.4043c-4.46735-1.54688-9.09406-3.14771-13.80817-4.77692l7.60358-8.41425-33.27319,2.20264,24.79749,22.29449-.78119-11.36365c4.72003,1.63104,9.35272,3.23322,13.82574,4.78229,.27051,.09375,.54639,.13867,.81787,.13867,1.03564,0,2.00439-.64941,2.3623-1.68262,.45166-1.30469-.23975-2.72852-1.54443-3.18066Z"/><path class="cls-2" d="M1001.4873,692.17383c-7.88379-2.63867-14.38086-4.8252-19.01465-6.40137-1.30664-.44531-2.72656,.25488-3.17188,1.5625-.44434,1.30664,.25488,2.72656,1.5625,3.17188,4.63965,1.57812,11.14355,3.7666,19.03613,6.40918,.26367,.08789,.53125,.12988,.79395,.12988,1.0459,0,2.02051-.66113,2.37109-1.70703,.4375-1.30957-.26855-2.72656-1.57715-3.16504Z"/><path class="cls-2" d="M1034.76367,703.25879c-6.71582-2.22852-13.0957-4.35059-19.01562-6.32324-1.30859-.43555-2.72559,.27246-3.16211,1.58203s.27148,2.72559,1.58203,3.16211c5.92188,1.97266,12.30371,4.09473,19.02148,6.3252,.26074,.08691,.52637,.12793,.78711,.12793,1.04785,0,2.02441-.66406,2.37305-1.71387,.43457-1.30957-.27539-2.72461-1.58594-3.16016Z"/><path class="cls-2" d="M1134.68555,736.17773c-6.21289-2.03027-12.58594-4.11719-19.04102-6.23438-1.31543-.42676-2.72461,.28613-3.15527,1.59668-.42969,1.3125,.28516,2.72461,1.59668,3.15527,6.45703,2.11719,12.83203,4.2041,19.04688,6.23438,.25781,.08496,.51953,.125,.77637,.125,1.05273,0,2.03223-.66992,2.37598-1.72461,.42969-1.3125-.28711-2.72363-1.59961-3.15234Z"/><path class="cls-2" d="M1101.36426,725.25488c-6.34375-2.08496-12.71094-4.18164-19.03125-6.26465-1.31836-.43457-2.72559,.28125-3.15723,1.59082-.43262,1.31152,.28027,2.72559,1.59082,3.15723,6.32227,2.08496,12.69141,4.18164,19.03711,6.2666,.25879,.08496,.52246,.12598,.78027,.12598,1.05078,0,2.0293-.66797,2.375-1.7207,.43066-1.31152-.2832-2.72461-1.59473-3.15527Z"/><path class="cls-2" d="M1068.05957,714.28125c-6.47949-2.13965-12.84668-4.24512-19.02441-6.29102-1.31445-.4375-2.72559,.27734-3.15918,1.58691-.43457,1.31055,.27637,2.72559,1.58691,3.15918,6.17969,2.0459,12.54883,4.15332,19.02832,6.29297,.26074,.08594,.52441,.12695,.78418,.12695,1.0498,0,2.02734-.66602,2.37402-1.7168,.43262-1.31152-.2793-2.72559-1.58984-3.1582Z"/><path class="cls-2" d="M1578.80273,930.93945c-6.70898-2.4375-13.05469-5.01562-18.35059-7.45605-1.25586-.5791-2.73828-.0293-3.31641,1.22461s-.0293,2.73828,1.22461,3.31641c5.41895,2.49707,11.89844,5.13086,18.73535,7.61426,.28125,.10254,.57031,.15137,.85352,.15137,1.02148,0,1.98047-.63184,2.34961-1.64746,.47168-1.29785-.19824-2.73145-1.49609-3.20312Z"/><path class="cls-2" d="M1711.37988,792.77148c-.55371-1.26562-2.0293-1.8418-3.29297-1.28809-1.26465,.55273-1.8418,2.02637-1.28906,3.29199,2.52734,5.77832,5.05078,11.97266,7.5,18.41113,.37988,.99805,1.3291,1.6123,2.33691,1.6123,.2959,0,.59668-.05273,.88867-.16406,1.29102-.49121,1.93848-1.93555,1.44824-3.22559-2.47852-6.51367-5.0332-12.78418-7.5918-18.6377Z"/><path class="cls-2" d="M1710.49902,919.13184c-4.58008,2.80957-10.32617,5.64844-17.56348,8.67578-1.27344,.5332-1.87402,1.99805-1.3418,3.27148,.40137,.95898,1.33008,1.53613,2.30762,1.53613,.32129,0,.64844-.0625,.96387-.19434,7.47754-3.12891,13.44629-6.08105,18.24902-9.02734,1.17676-.72168,1.54492-2.26074,.82324-3.43848-.72168-1.17578-2.26074-1.54395-3.43848-.82324Z"/><path class="cls-2" d="M1432.4873,839.41211c-3.44824-1.31152-6.84961-2.5791-10.10938-3.7666-2.32422-.84766-5.22656-1.94531-8.62402-3.26074-1.29004-.50098-2.73633,.1416-3.23438,1.42773-.49902,1.28809,.14062,2.73633,1.42773,3.23438,3.42969,1.32812,6.3623,2.4375,8.71875,3.2959,3.23828,1.17969,6.61719,2.43945,10.04199,3.74316,.29297,.11133,.59375,.16406,.88965,.16406,1.00684,0,1.95703-.61426,2.33691-1.61133,.49023-1.29102-.15723-2.73535-1.44727-3.22656Z"/><path class="cls-2" d="M1733.63184,892.02832c-1.31738-.4043-2.71875,.33398-3.12598,1.65332-1.16602,3.78613-2.87402,7.45508-5.53809,11.89551-.96582,1.6084-2.11523,3.1709-3.41699,4.64258-.91504,1.03418-.81836,2.61328,.21582,3.52832,.47559,.4209,1.06641,.62793,1.65527,.62793,.69141,0,1.37891-.28516,1.87305-.84375,1.50488-1.7002,2.83691-3.51172,3.95996-5.38281,2.88086-4.80078,4.74023-8.80859,6.03027-12.99512,.40625-1.32031-.33398-2.71875-1.65332-3.12598Z"/><path class="cls-2" d="M1727.91699,847.93359c.24023,0,.4834-.03516,.72559-.1084,1.32129-.39941,2.06836-1.79492,1.66797-3.11719-1.9375-6.39941-4.02246-12.83398-6.19824-19.12402-.4502-1.30371-1.87402-1.99805-3.17969-1.54492-1.30469,.45117-1.99609,1.875-1.54492,3.17969,2.15332,6.22852,4.21875,12.60059,6.1377,18.93848,.32715,1.08008,1.31836,1.77637,2.3916,1.77637Z"/><path class="cls-2" d="M1734.41504,859.27246c-.3291-1.34082-1.67773-2.16309-3.02344-1.83398-1.34082,.3291-2.16211,1.68164-1.83398,3.02344,1.79492,7.3291,2.71289,13.6084,2.80762,19.19629,.02344,1.36621,1.1377,2.45801,2.49902,2.45801h.04297c1.38086-.02344,2.48145-1.16211,2.45801-2.54297-.10156-5.96387-1.06641-12.60449-2.9502-20.30078Z"/><path class="cls-2" d="M1686.93652,747.99512c-2.20117-3.58105-4.45703-7.25195-6.69922-10.94727-.71777-1.18164-2.25586-1.55469-3.43457-.84082-1.18066,.7168-1.55664,2.25391-.84082,3.43457,2.24805,3.7041,4.50879,7.38281,6.71387,10.97168l.37402,.60742c.47168,.76855,1.29199,1.19141,2.13184,1.19141,.44629,0,.89844-.11914,1.30664-.37012,1.17676-.72266,1.54395-2.2627,.82129-3.43848l-.37305-.6084Z"/><path class="cls-2" d="M1700.52051,781.28711c.43652,.87793,1.32031,1.38672,2.23926,1.38672,.37402,0,.75488-.08496,1.1123-.2627,1.23633-.61621,1.73926-2.11719,1.12305-3.35254-.38184-.76855-.76562-1.52832-1.14746-2.27734-1.9707-3.85742-4.73828-8.73438-8.71094-15.34863-.71289-1.18457-2.25-1.56348-3.43066-.85645-1.18359,.71094-1.56738,2.24707-.85645,3.43066,3.91309,6.51465,6.62793,11.2959,8.5459,15.0498,.375,.7334,.75,1.47754,1.125,2.23047Z"/><path class="cls-2" d="M1679.06543,933.21387c-2.30762,.84863-4.70703,1.71387-7.19922,2.59766-4,1.41895-7.89062,2.64648-11.56348,3.64941-1.33203,.36426-2.11719,1.73828-1.75391,3.07031,.30371,1.11133,1.31152,1.84277,2.41016,1.84277,.21875,0,.44043-.0293,.66016-.08887,3.79199-1.03613,7.80273-2.30078,11.91895-3.76074,2.51172-.8916,4.92871-1.7627,7.25391-2.61914,1.2959-.47656,1.95996-1.91309,1.48242-3.20898s-1.91699-1.96191-3.20898-1.48242Z"/><path class="cls-2" d="M1496.63281,868.61719c-4.4502-2.83887-10.45898-6.08691-17.86133-9.65527-1.24414-.60059-2.73828-.07715-3.33789,1.16602-.59961,1.24414-.07715,2.73828,1.16602,3.33789,7.22559,3.4834,13.06055,6.63477,17.34375,9.36621,.41699,.26562,.88184,.39258,1.34277,.39258,.8252,0,1.63281-.4082,2.10938-1.15527,.74316-1.16406,.40137-2.70996-.7627-3.45215Z"/><path class="cls-2" d="M1465.04102,852.66797c-5.74902-2.51953-11.9834-5.13184-18.5293-7.76562-1.2832-.51562-2.7373,.10547-3.25293,1.38672-.51562,1.28027,.10547,2.73633,1.38672,3.25195,6.49902,2.61523,12.68652,5.20801,18.38965,7.70703,.32617,.14258,.66699,.21094,1.00195,.21094,.96191,0,1.87988-.55957,2.29102-1.49805,.55371-1.26367-.02246-2.73828-1.28711-3.29297Z"/><path class="cls-2" d="M1508.75977,878.14355c-1.01953-.93262-2.60156-.86133-3.53223,.15723-.93164,1.01855-.86133,2.60059,.15723,3.53223,4.8584,4.44336,9.81641,9.58398,14.02637,14.02539,.49121,.51855,1.15234,.78027,1.81445,.78027,.61816,0,1.23633-.22754,1.71973-.68555,1.00195-.94922,1.04492-2.53223,.09473-3.53418-4.27051-4.50586-9.30566-9.72559-14.28027-14.27539Z"/><path class="cls-2" d="M1645.94629,942.45996c-6.67676,.92578-12.82031,1.09375-19.38379,.5166-1.36523-.125-2.58887,.89648-2.70898,2.27148-.12109,1.375,.89648,2.58887,2.27148,2.70898,2.66992,.23438,5.23828,.34863,7.85059,.34863,4.17676,0,8.31738-.29199,12.65625-.89258,1.36816-.18945,2.32324-1.45215,2.13379-2.81934s-1.4502-2.31348-2.81934-2.13379Z"/><path class="cls-2" d="M1612.05273,940.69531c-1.21484-.25586-2.42969-.52148-3.65039-.79395-4.37012-.97461-9.72461-2.43262-15.48535-4.21582-1.31738-.4082-2.71973,.33008-3.12793,1.64941s.33105,2.71973,1.64941,3.12793c5.88672,1.82129,11.37598,3.31445,15.875,4.31934,1.24121,.27637,2.47559,.5459,3.70801,.80566,.17383,.03711,.34766,.05469,.51855,.05469,1.15625,0,2.19531-.80859,2.44336-1.98535,.28418-1.35156-.58008-2.67676-1.93066-2.96191Z"/><path class="cls-2" d="M1547.61816,916.54102c-.6748-.45801-1.30371-.91406-1.87012-1.3584-3.80176-2.98242-8.40723-7.66602-12.41113-11.85352-.95215-.99805-2.53711-1.03418-3.53418-.0791-.99805,.95312-1.03418,2.53613-.0791,3.53418,4.125,4.31543,8.88867,9.15625,12.93848,12.33203,.65625,.51562,1.38086,1.04199,2.15137,1.56348,.42969,.29102,.91797,.43066,1.40039,.43066,.80078,0,1.58887-.38477,2.07129-1.09766,.77441-1.14355,.47559-2.69824-.66699-3.47168Z"/></g><g id="Mergeline"><path class="cls-1" d="M661.27393,586.44531c-7.37793,1.48535-13.63721,4.34277-19.30176,7.20898-1.23242,.62305-1.72559,2.12695-1.10205,3.35938,.43994,.87012,1.31982,1.37207,2.23242,1.37207,.37939,0,.76514-.08691,1.12695-.27051,5.3501-2.70703,11.23779-5.40039,18.03076-6.76758,1.35352-.27246,2.22998-1.59082,1.95752-2.94434-.27246-1.35449-1.58984-2.22949-2.94385-1.95801Z"/><path class="cls-1" d="M629.33887,602.97461c-4.13574,4.04395-8.61621,9.22949-13.31787,15.41211-.83545,1.09961-.62207,2.66797,.47705,3.50391,.45215,.34375,.98389,.50977,1.51123,.50977,.75439,0,1.5-.33984,1.99219-.98633,4.55371-5.98926,8.87158-10.99121,12.8335-14.86523,.98682-.96484,1.00488-2.54785,.03955-3.53516-.96582-.98828-2.54883-1.00391-3.53564-.03906Z"/><path class="cls-1" d="M586.271,652.02148c-1.78613-.38965-3.72168-1.17383-5.91797-2.39746-1.2124-.67578-4.03467-2.41992-10.59668-6.89355-1.14062-.77734-2.69678-.4834-3.47363,.65723-.77783,1.14062-.48389,2.69629,.65723,3.47363,5.3916,3.67676,9.08594,6.0752,10.97949,7.12988,2.63037,1.4668,5.01416,2.41992,7.28711,2.91504,.1792,.03906,.3584,.05859,.53467,.05859,1.1499,0,2.18555-.79883,2.44043-1.96875,.29395-1.34961-.56152-2.68066-1.91064-2.97461Z"/><path class="cls-1" d="M557.46143,634.19043c-4.55432-3.20789-9.43842-6.69086-14.25012-10.15778l7.98584-11.24066-4.07605-2.89581-9.41034,13.24585c-.00067,.00092-.00159,.00159-.00226,.0025-.00079,.0011-.00122,.00232-.00201,.00342l-9.40808,13.24268,4.07605,2.89581,7.94098-11.17761c4.81738,3.47034,9.70654,6.95728,14.26611,10.16949,.43799,.30859,.94043,.45605,1.43799,.45605,.78564,0,1.55908-.36914,2.0459-1.06055,.79492-1.12891,.52441-2.68848-.604-3.4834Z"/><path class="cls-1" d="M610.7041,630.06055c-1.15137-.76855-2.70264-.45215-3.46631,.69629-3.34668,5.03125-6.45605,10.09375-8.53076,13.88867-.61279,1.12012-1.25879,2.13184-1.92041,3.00684-.83252,1.10156-.61426,2.66992,.4873,3.50195,.45117,.34082,.98047,.50586,1.50537,.50586,.75684,0,1.50488-.3418,1.99609-.99219,.80859-1.07031,1.58887-2.28906,2.31836-3.62402,2.00879-3.67383,5.03662-8.60156,8.30713-13.51758,.76465-1.14941,.45264-2.70117-.69678-3.46582Z"/><path class="cls-1" d="M696.98926,589.6875c-7.32764-2.32324-13.90576-3.67676-20.11133-4.14062-1.38574-.11035-2.57617,.92969-2.6792,2.30664-.10254,1.37695,.93018,2.57715,2.30713,2.67969,5.81348,.43359,12.01953,1.7168,18.97266,3.91992,.25146,.08008,.50586,.11816,.75586,.11816,1.06104,0,2.04492-.68066,2.38281-1.74512,.41699-1.31641-.31152-2.72168-1.62793-3.13867Z"/><path class="cls-1" d="M863.42285,644.69824c-6.92334-2.3623-13.33887-4.54004-18.9585-6.43262-1.30664-.43848-2.72607,.2627-3.16699,1.57129s.2627,2.72656,1.57129,3.16699c5.61377,1.89062,12.02295,4.06641,18.93896,6.42676,.26758,.09082,.54004,.13477,.80762,.13477,1.04004,0,2.01123-.6543,2.36621-1.69336,.4458-1.30664-.25195-2.72754-1.55859-3.17383Z"/><path class="cls-1" d="M830.19873,633.51855c-1.89258-.61621-3.50537-1.13379-4.80225-1.53906-3.23633-1.00879-8.04199-2.5459-14.28418-4.56641-1.31641-.42188-2.72412,.2959-3.14844,1.60938-.42529,1.31348,.29492,2.72266,1.6084,3.14844,6.25928,2.02539,11.08252,3.56738,14.33447,4.58105,1.27979,.40039,2.87402,.91211,4.74414,1.52051,.25732,.08398,.51807,.12402,.77441,.12402,1.05322,0,2.0332-.67188,2.37695-1.72754,.42725-1.3125-.29102-2.72363-1.60352-3.15039Z"/><path class="cls-1" d="M896.52686,656.05273c-6.40723-2.20703-12.76172-4.39062-18.90186-6.49707-1.30518-.44629-2.72852,.24805-3.17578,1.55469-.44775,1.30566,.24756,2.72754,1.55371,3.17578,6.13818,2.10449,12.49072,4.28809,18.896,6.49316,.26953,.09375,.54395,.1377,.81396,.1377,1.0376,0,2.00732-.65137,2.36377-1.68652,.44971-1.30566-.24414-2.72852-1.5498-3.17773Z"/><path class="cls-1" d="M763.54297,611.82031c-6.36621-2.10352-12.77246-4.22266-19.01074-6.29102-1.31055-.43555-2.7251,.27637-3.15967,1.58594-.43457,1.31055,.27588,2.72559,1.58643,3.16016,6.24023,2.06836,12.64746,4.18945,19.01562,6.29297,.26025,.08594,.52441,.12695,.78467,.12695,1.04883,0,2.02637-.66602,2.37354-1.7168,.43311-1.31055-.27881-2.72461-1.58984-3.1582Z"/><path class="cls-1" d="M796.83057,622.76465c-5.9458-1.94434-12.37256-4.05273-19.0249-6.24316-1.3125-.43066-2.7251,.28125-3.15625,1.59375-.43164,1.31055,.28125,2.72461,1.59277,3.15625,6.65527,2.19043,13.08594,4.30078,19.03467,6.24512,.2583,.08496,.52002,.125,.77734,.125,1.05225,0,2.03125-.66992,2.37598-1.72461,.42871-1.31152-.28711-2.72363-1.59961-3.15234Z"/><path class="cls-1" d="M730.27832,600.7959c-6.90479-2.29688-13.35156-4.44531-19-6.33398-1.30566-.4375-2.7251,.26953-3.16357,1.57812-.4375,1.30957,.26904,2.72656,1.57861,3.16406,5.65039,1.88867,12.09912,4.03906,19.00684,6.33594,.26172,.08691,.52783,.12891,.78955,.12891,1.04736,0,2.02295-.66406,2.37158-1.71191,.43604-1.31055-.27295-2.72559-1.58301-3.16113Z"/></g></svg>