<?xml version="1.0" encoding="UTF-8"?><svg id="C_-_pitroad" xmlns="http://www.w3.org/2000/svg" viewBox="0 0 1920 1080"><defs><style>.cls-1{fill:#d82520;}</style></defs><g id="Pitroad"><path class="cls-1" d="M722.28955,332.66064c-6.62646-1.40674-13.27344-2.82568-19.8208-4.23389-1.34912-.29199-2.67969,.56885-2.97021,1.91846-.29004,1.3501,.56885,2.67969,1.91846,2.97021,6.55225,1.40869,13.2041,2.8291,19.83447,4.23584,.17529,.03711,.34961,.05518,.52148,.05518,1.15576,0,2.19336-.80566,2.44287-1.98145,.28662-1.35059-.57568-2.67773-1.92627-2.96436Z"/><path class="cls-1" d="M687.62109,325.21289c-6.87402-1.49805-13.52002-2.96338-19.78467-4.36621-1.34619-.3042-2.68457,.5459-2.98584,1.89307-.30176,1.34766,.5459,2.68408,1.89307,2.98584,6.27344,1.40479,12.9292,2.87207,19.81201,4.37256,.17969,.03955,.35889,.05811,.53516,.05811,1.1499,0,2.18506-.79834,2.44043-1.96777,.29395-1.34912-.56152-2.68115-1.91016-2.97559Z"/><path class="cls-1" d="M697.03906,233.84521l-19.77441-4.4126c-1.3457-.2998-2.68359,.54785-2.98486,1.89502-.30078,1.34766,.54736,2.68408,1.89502,2.98486l19.77637,4.4126c.18311,.04102,.36621,.06055,.54639,.06055,1.14502,0,2.17822-.79199,2.4375-1.95654,.30078-1.34766-.54834-2.68359-1.896-2.98389Z"/><path class="cls-1" d="M779.98584,257.46533c7.75049,1.74219,14.14111,3.19238,19.6709,4.46875l.62793-2.4209,.48633-2.45361c-5.52783-1.27588-11.92725-2.72803-19.68848-4.47217-1.34766-.30371-2.68506,.54297-2.9873,1.89062-.30273,1.34717,.54346,2.68457,1.89062,2.9873Z"/><path class="cls-1" d="M731.64746,241.55566l-19.77588-4.4043c-1.34668-.30078-2.68359,.54834-2.98389,1.896s.54834,2.68359,1.896,2.98389l19.77686,4.40527c.18311,.04053,.36572,.06006,.5459,.06006,1.14551,0,2.17822-.79248,2.43799-1.95703,.2998-1.34766-.54932-2.68359-1.89697-2.98389Z"/><path class="cls-1" d="M809.00244,268.07422c-1.38086,0-2.5,1.13525-2.5,2.51611,0,2.79834-1.24023,5.31104-3.49268,7.07471-2.87109,2.24854-5.32959,4.50049-7.5166,6.88477-.93359,1.01758-.86523,2.59912,.15234,3.53223,.47998,.44043,1.08545,.65771,1.68945,.65771,.67578,0,1.34961-.27246,1.84277-.81006,2-2.18066,4.26172-4.25049,6.91504-6.32812,3.43799-2.69238,5.40967-6.70605,5.40967-11.04346,0-1.38086-1.11914-2.48389-2.5-2.48389Z"/><path class="cls-1" d="M790.10791,296.64404c-1.28223-.51465-2.73682,.10645-3.25195,1.3877-2.02344,5.03564-3.0498,10.53906-3.0498,16.35791,.00049,1.53125,.07129,3.10791,.21045,4.68652,.11426,1.30078,1.20557,2.28076,2.4873,2.28076,.07373,0,.14795-.00293,.22217-.00977,1.37549-.12109,2.39209-1.33398,2.271-2.70947-.12598-1.43408-.19043-2.86377-.19092-4.24902,0-5.17627,.90479-10.05225,2.68945-14.49268,.51465-1.28125-.10645-2.73682-1.3877-3.25195Z"/><path class="cls-1" d="M787.66455,331.50293c-1.30371-.45654-2.72998,.22949-3.18652,1.53223-1.95215,5.56982-7.22021,9.40771-13.10889,9.55127-1.38037,.0332-2.47217,1.17969-2.43848,2.55957,.03271,1.35986,1.14551,2.43945,2.49805,2.43945,.02051,0,.04102,0,.06152-.00049,7.95508-.19336,15.0708-5.37598,17.70654-12.89551,.45654-1.30322-.22949-2.72949-1.53223-3.18652Z"/><path class="cls-1" d="M757.00098,339.97119c-6.40283-1.33984-13.06055-2.73633-19.83838-4.16504-1.35205-.28613-2.67725,.57959-2.96191,1.93066s.57959,2.67725,1.93066,2.96191c6.78076,1.42871,13.44043,2.82617,19.84619,4.16602,.17236,.03613,.34473,.05371,.51416,.05371,1.15869,0,2.19775-.80957,2.44434-1.98877,.2832-1.35107-.5835-2.67578-1.93506-2.9585Z"/><path class="cls-1" d="M766.25391,249.26709l-19.7749-4.40869c-1.34619-.30127-2.68311,.54883-2.9834,1.89648s.54883,2.68359,1.89648,2.9834l19.77197,4.40869c.18359,.04102,.3667,.06055,.54736,.06055,1.14502,0,2.17773-.7915,2.4375-1.95557,.30078-1.34766-.54785-2.68408-1.89502-2.98486Z"/><path class="cls-1" d="M662.32861,226.09668l-9.7627-2.18213c-1.34814-.3042-2.68457,.54639-2.98535,1.89453-.30127,1.34717,.54688,2.68408,1.89453,2.98535l9.7627,2.18213c.18408,.04102,.36719,.06055,.54785,.06055,1.14453,0,2.17725-.7915,2.4375-1.95508,.30078-1.34766-.54736-2.68408-1.89453-2.98535Z"/><path class="cls-1" d="M622.55139,312.23895l26.43195,20.33002-1.65125-11.28485c1.48279,.34875,3.00415,.7041,4.57269,1.06744,.18994,.04395,.37988,.06494,.56689,.06494,1.13672,0,2.16553-.78125,2.43311-1.93604,.31152-1.34521-.52637-2.68848-1.87109-3-1.50916-.34967-2.97253-.69141-4.40204-1.02728l6.92657-8.95844-33.00684,4.7442Z"/></g></svg>