<?xml version="1.0" encoding="utf-8"?>
<!-- Generator: Adobe Illustrator 24.2.0, SVG Export Plug-In . SVG Version: 6.00 Build 0)  -->
<svg version="1.1" id="Barber_Full_Pit_Road" xmlns="http://www.w3.org/2000/svg" xmlns:xlink="http://www.w3.org/1999/xlink"
	 x="0px" y="0px" viewBox="0 0 1920 1080" style="enable-background:new 0 0 1920 1080;" xml:space="preserve">
<style type="text/css">
	.st0{fill:#D82520;}
</style>
<g id="Pitroad">
	<path class="st0" d="M773,640.6l-30-0.2l0,0c-1.4,0-2.5,1.1-2.5,2.5s1.1,2.5,2.5,2.5l30,0.2l0,0c1.4,0,2.5-1.1,2.5-2.5
		S774.4,640.6,773,640.6z"/>
	<path class="st0" d="M713,640.2l-30-0.2l0,0c-1.4,0-2.5,1.1-2.5,2.5s1.1,2.5,2.5,2.5l30,0.2l0,0c1.4,0,2.5-1.1,2.5-2.5
		S714.4,640.2,713,640.2z"/>
	<path class="st0" d="M833,641l-30-0.2l0,0c-1.4,0-2.5,1.1-2.5,2.5s1.1,2.5,2.5,2.5l30,0.2l0,0c1.4,0,2.5-1.1,2.5-2.5
		S834.4,641,833,641z"/>
	<path class="st0" d="M893,641.4l-30-0.2l0,0c-1.4,0-2.5,1.1-2.5,2.5s1.1,2.5,2.5,2.5l30,0.2l0,0c1.4,0,2.5-1.1,2.5-2.5
		S894.4,641.4,893,641.4z"/>
	<path class="st0" d="M1013,642.3l-30-0.2l0,0c-1.4,0-2.5,1.1-2.5,2.5s1.1,2.5,2.5,2.5l30,0.2l0,0c1.4,0,2.5-1.1,2.5-2.5
		S1014.4,642.3,1013,642.3z"/>
	<path class="st0" d="M953,641.9l-30-0.2l0,0c-1.4,0-2.5,1.1-2.5,2.5s1.1,2.5,2.5,2.5l30,0.2l0,0c1.4,0,2.5-1.1,2.5-2.5
		S954.4,641.9,953,641.9z"/>
	<path class="st0" d="M466.9,855.9c1-1,0.9-2.6-0.1-3.5c-1-1-2.6-0.9-3.5,0c-0.8,0.8-1.6,1.6-2.3,2.3l-1.4-16.4l-30.2,36.9l47.5-4.1
		L463,859.7C464.3,858.5,465.6,857.2,466.9,855.9z"/>
	<path class="st0" d="M528.3,749.7c-1.2-0.6-2.7-0.2-3.3,1.1l-13.9,26.6c-0.6,1.2-0.2,2.7,1.1,3.4c0.4,0.2,0.8,0.3,1.2,0.3
		c0.9,0,1.8-0.5,2.2-1.3l13.9-26.6C530,751.9,529.6,750.4,528.3,749.7z"/>
	<path class="st0" d="M500.6,802.9c-1.2-0.6-2.7-0.2-3.4,1c0,0,0,0,0,0l-7.1,13.7c-0.4,0.6-3.3,5.4-7.9,11.8
		c-0.8,1.1-0.5,2.7,0.6,3.5s2.7,0.5,3.5-0.6c5-7,8-12,8.2-12.2l7.3-13.9C502.3,805.1,501.8,803.6,500.6,802.9z"/>
	<path class="st0" d="M653,639.1h-0.2c-10.1,0-20.2,1.1-30.1,3.4c-1.3,0.3-2.2,1.7-1.8,3c0.3,1.1,1.3,1.9,2.4,1.9
		c0.2,0,0.4,0,0.6-0.1c9.5-2.2,19.2-3.3,28.9-3.2h0.2c1.4,0,2.5-1.1,2.5-2.5S654.4,639.1,653,639.1z"/>
	<path class="st0" d="M1073,642.7l-30-0.2l0,0c-1.4,0-2.5,1.1-2.5,2.5s1.1,2.5,2.5,2.5l30,0.2l0,0c1.4,0,2.5-1.1,2.5-2.5
		S1074.4,642.7,1073,642.7z"/>
	<path class="st0" d="M594.2,653.5c-9,5-17.1,11.4-24.2,18.8c-0.9,1-0.9,2.6,0.1,3.5c0.5,0.4,1.1,0.7,1.7,0.7c0.7,0,1.3-0.3,1.8-0.8
		c6.7-7.1,14.5-13.1,23-17.9c1.2-0.7,1.5-2.3,0.8-3.5C596.7,653.3,595.3,652.9,594.2,653.5L594.2,653.5z"/>
	<path class="st0" d="M556.1,696.5c-1.2-0.6-2.7-0.2-3.4,1.1l-13.9,26.6c-0.6,1.2-0.2,2.7,1.1,3.4s2.7,0.2,3.4-1.1l13.9-26.6
		C557.8,698.7,557.3,697.2,556.1,696.5z"/>
	<path class="st0" d="M1516.5,859.6c-0.1-1.4-1.4-2.4-2.8-2.2s-2.4,1.4-2.2,2.8l0,0c1,10.4,4.5,20.4,10.2,29.2
		c0.5,0.7,1.2,1.1,2.1,1.1c0.5,0,1-0.1,1.4-0.4c1.2-0.8,1.5-2.3,0.7-3.4c0,0,0,0,0,0C1520.6,878.4,1517.4,869.2,1516.5,859.6z"/>
	<path class="st0" d="M1518.3,739.9c0-1.4-1.1-2.5-2.5-2.5c-1.4,0-2.5,1.1-2.5,2.5l-0.5,30c0,1.4,1.1,2.5,2.5,2.5c0,0,0,0,0,0l0,0
		c1.4,0,2.5-1.1,2.5-2.5L1518.3,739.9z"/>
	<path class="st0" d="M1492.5,658.7c-9.3-4.3-19.1-7.4-29.2-9.3c-1.4-0.3-2.7,0.6-2.9,2c-0.3,1.4,0.6,2.7,1.9,3
		c9.7,1.8,19.1,4.8,28,8.9c1.2,0.6,2.7,0.1,3.3-1.2C1494.2,660.8,1493.7,659.3,1492.5,658.7C1492.5,658.7,1492.5,658.7,1492.5,658.7
		z"/>
	<path class="st0" d="M1514.8,797.4c-1.4,0-2.5,1-2.5,2.4c0,0,0,0,0,0l-0.5,30c0,1.4,1.1,2.5,2.5,2.5c0,0,0,0,0,0l0,0
		c1.4,0,2.5-1.1,2.5-2.5l0.5-30C1517.2,798.6,1516.2,797.4,1514.8,797.4z"/>
	<path class="st0" d="M1514.1,699.8l-0.2,10c0,1.4,1.1,2.5,2.4,2.5c0,0,0,0,0,0h0.1c1.4,0,2.5-1.1,2.5-2.5l0.2-9.7
		c0.2-1.6,0.3-3.2,0.3-4.8c0-5.6-1.2-11.1-3.7-16.1c-0.6-1.2-2.1-1.7-3.4-1.1s-1.7,2.1-1.1,3.4c0,0,0,0,0,0
		c2.1,4.3,3.2,9.1,3.2,13.9C1514.3,696.9,1514.2,698.4,1514.1,699.8z"/>
	<path class="st0" d="M1636.1,918.8c-0.2-1.4-1.4-2.4-2.8-2.2c0,0,0,0,0,0c-9.8,1.1-19.7,1.6-29.6,1.6c-1.4,0-2.5,1.1-2.5,2.5
		c0,1.4,1.1,2.5,2.5,2.5h0h2c9.4,0,18.8-0.6,28.2-1.6C1635.2,921.4,1636.2,920.2,1636.1,918.8
		C1636.1,918.8,1636.1,918.8,1636.1,918.8z"/>
	<path class="st0" d="M1574.3,915.4c-9.6-1.8-18.8-5-27.4-9.7c-1.2-0.7-2.7-0.2-3.4,1c-0.7,1.2-0.2,2.7,1,3.4
		c9,4.9,18.8,8.3,28.9,10.2c0.2,0,0.3,0,0.5,0c1.4,0.1,2.6-0.9,2.7-2.3S1575.7,915.5,1574.3,915.4L1574.3,915.4z"/>
	<path class="st0" d="M1313,644.4l-30-0.2l0,0c-1.4,0-2.5,1.1-2.5,2.5s1.1,2.5,2.5,2.5l30,0.2l0,0c1.4,0,2.5-1.1,2.5-2.5
		S1314.4,644.4,1313,644.4z"/>
	<path class="st0" d="M1253,644l-30-0.2l0,0c-1.4,0-2.5,1.1-2.5,2.5s1.1,2.5,2.5,2.5l30,0.2l0,0c1.4,0,2.5-1.1,2.5-2.5
		S1254.4,644,1253,644z"/>
	<path class="st0" d="M1193,643.6l-30-0.2l0,0c-1.4,0-2.5,1.1-2.5,2.5s1.1,2.5,2.5,2.5l30,0.2l0,0c1.4,0,2.5-1.1,2.5-2.5
		S1194.4,643.6,1193,643.6z"/>
	<path class="st0" d="M1433.2,645.6c-6.2-0.4-11.1-0.4-13.4-0.4c-1.2,0-1.9,0-1.9,0L1403,645l0,0c-1.4,0-2.5,1.1-2.5,2.5
		s1.1,2.5,2.5,2.5l15,0.1c0,0,0.7,0,1.8,0c2.3,0,7,0.1,13.1,0.4h0.2c1.4,0,2.5-1,2.6-2.4C1435.7,646.8,1434.6,645.6,1433.2,645.6
		L1433.2,645.6z"/>
	<path class="st0" d="M1373,644.8l-30-0.2l0,0c-1.4,0-2.5,1.1-2.5,2.5s1.1,2.5,2.5,2.5l30,0.2l0,0c1.4,0,2.5-1.1,2.5-2.5
		S1374.4,644.8,1373,644.8z"/>
	<path class="st0" d="M1133,643.1l-30-0.2l0,0c-1.4,0-2.5,1.1-2.5,2.5s1.1,2.5,2.5,2.5l30,0.2l0,0c1.4,0,2.5-1.1,2.5-2.5
		S1134.4,643.1,1133,643.1z"/>
</g>
</svg>
