<?xml version="1.0" encoding="UTF-8"?><svg id="gp_-_Pit_Road" xmlns="http://www.w3.org/2000/svg" viewBox="0 0 1920 1080"><defs><style>.cls-1{fill:#d82520;}</style></defs><g id="Pitroad"><path class="cls-1" d="M1037.64,627.06c-1.18-.72-2.72-.36-3.44,.82-5.83,9.49-10.81,18-15.23,26.03-.67,1.21-.22,2.73,.99,3.4,.38,.21,.8,.31,1.2,.31,.88,0,1.74-.47,2.19-1.29,4.38-7.96,9.32-16.41,15.11-25.82,.72-1.18,.36-2.72-.82-3.44Z"/><path class="cls-1" d="M1069.8,576.32c-1.18-.71-2.72-.33-3.43,.85-3.68,6.11-8.36,13.36-13.79,21.76l-2.28,3.54c-.75,1.16-.42,2.71,.75,3.46,.42,.27,.89,.4,1.35,.4,.82,0,1.62-.4,2.1-1.14l2.28-3.54c5.45-8.43,10.15-15.71,13.87-21.89,.71-1.18,.33-2.72-.85-3.43Z"/><path class="cls-1" d="M996.99,712.62c.21,.05,.42,.08,.62,.08,1.11,0,2.13-.75,2.42-1.88,2.13-8.34,5.49-17.7,9.98-27.84,.56-1.26-.01-2.74-1.27-3.3-1.26-.55-2.74,.01-3.3,1.27-4.6,10.39-8.05,20.02-10.25,28.62-.34,1.34,.46,2.7,1.8,3.04Z"/><path class="cls-1" d="M1102.07,528.48c-7.74,8.82-14.03,16.44-19.23,23.29-.83,1.1-.62,2.67,.48,3.5,.45,.34,.98,.51,1.51,.51,.75,0,1.5-.34,1.99-.99,5.13-6.76,11.35-14.28,19.01-23.01,.91-1.04,.81-2.62-.23-3.53-1.04-.91-2.62-.81-3.53,.23Z"/><path class="cls-1" d="M1262.57,346.98c-.93-1.02-2.51-1.09-3.53-.16-7.22,6.61-14.11,14.17-20.48,22.47-.84,1.1-.63,2.67,.46,3.51,.45,.35,.99,.52,1.52,.52,.75,0,1.49-.34,1.99-.98,6.19-8.07,12.88-15.41,19.88-21.82,1.02-.93,1.09-2.51,.16-3.53Z"/><path class="cls-1" d="M1142.88,484.29c-7.03,7.43-13.9,14.7-20.59,21.89-.94,1.01-.88,2.59,.13,3.53,.48,.45,1.09,.67,1.7,.67,.67,0,1.34-.27,1.83-.8,6.67-7.18,13.53-14.44,20.56-21.86,.95-1,.91-2.58-.1-3.53-1-.95-2.58-.91-3.53,.1Z"/><path class="cls-1" d="M1225.09,393.55c-1.13-.79-2.69-.51-3.48,.62-5.01,7.17-10.96,14.9-18.19,23.62-.88,1.06-.74,2.64,.33,3.52,.47,.39,1.03,.58,1.59,.58,.72,0,1.43-.31,1.92-.9,7.32-8.83,13.35-16.66,18.44-23.95,.79-1.13,.51-2.69-.62-3.48Z"/><path class="cls-1" d="M1183.8,440.39c-5.89,6.54-12.34,13.55-20.31,22.05-.94,1.01-.89,2.59,.12,3.53,.48,.45,1.1,.68,1.71,.68,.67,0,1.33-.27,1.83-.79,7.99-8.53,14.46-15.56,20.38-22.13,.92-1.03,.84-2.61-.18-3.53-1.02-.92-2.61-.84-3.53,.19Z"/><path class="cls-1" d="M997,738.13c-.55-.54-1.33-.83-2.16-.7-1.36,.22-2.29,1.51-2.07,2.87,.17,1.04,.38,2.05,.62,3.05l-17.24,6.45,43.66,19.06-16.81-44.57-6,13.83Z"/></g></svg>