<?xml version="1.0" encoding="UTF-8"?><svg id="gp_-_Pit_Road" xmlns="http://www.w3.org/2000/svg" viewBox="0 0 1920 1080"><defs><style>.cls-1{fill:#d82520;}.cls-2{fill:#0089ba;}</style></defs><g id="Mergeline"><path class="cls-2" d="M856.96,624.06c-.77,0-1.52-.35-2.02-1.02-2.35-3.19-5.38-7.36-8.84-12.14-.81-1.12-.56-2.68,.56-3.49,1.12-.81,2.68-.56,3.49,.56,3.45,4.77,6.47,8.93,8.81,12.11,.82,1.11,.58,2.68-.53,3.5-.45,.33-.97,.49-1.48,.49Z"/><path class="cls-2" d="M830.73,587.81c-.78,0-1.54-.36-2.03-1.04-5.12-7.08-11.72-16.22-17.48-24.07-.82-1.11-.58-2.68,.54-3.49,1.11-.82,2.68-.58,3.49,.54,5.76,7.86,12.38,17,17.5,24.1,.81,1.12,.56,2.68-.56,3.49-.44,.32-.95,.47-1.46,.47Zm-35.52-47.78c-.75,0-1.48-.33-1.98-.97l-2.02-2.61c-4.49-5.8-10.09-13.01-16.31-20.84-.86-1.08-.68-2.65,.4-3.51,1.08-.86,2.65-.68,3.51,.4,6.25,7.85,11.85,15.08,16.35,20.89l2.02,2.61c.85,1.09,.65,2.66-.44,3.51-.46,.35-1,.52-1.53,.52Zm-37.23-46.52c-.71,0-1.41-.3-1.91-.88-7.8-9.17-14.52-16.51-19.95-21.8-.99-.96-1.01-2.55-.05-3.54,.96-.99,2.55-1.01,3.54-.05,5.55,5.4,12.37,12.85,20.27,22.14,.89,1.05,.77,2.63-.28,3.52-.47,.4-1.05,.6-1.62,.6Zm-44.27-39.13c-.38,0-.76-.09-1.12-.27-7.86-3.95-16.59-6.9-27.5-9.29-1.35-.3-2.2-1.63-1.91-2.98,.3-1.35,1.63-2.2,2.98-1.91,11.32,2.48,20.43,5.57,28.67,9.71,1.23,.62,1.73,2.12,1.11,3.36-.44,.87-1.32,1.38-2.24,1.38Zm-204.9-11.26c-1.22,0-2.29-.9-2.47-2.14-.2-1.37,.75-2.64,2.11-2.83,6.51-.95,12.65-1.88,17.28-2.63,3.87-.62,7.81-1.34,11.97-2.11l.48,2.45,.42,2.46c-4.19,.77-8.16,1.49-12.08,2.12-4.65,.75-10.82,1.69-17.35,2.64-.12,.02-.24,.03-.36,.03Zm147.49-3.05c-.11,0-.21,0-.32-.02-1.01-.13-2.03-.26-3.07-.39-10.06-1.25-17.93-2.32-24.88-3.27l-1.54-.21c-1.37-.19-2.33-1.45-2.14-2.81,.19-1.37,1.44-2.33,2.81-2.14l1.54,.21c6.93,.94,14.79,2.01,24.82,3.26,1.05,.13,2.08,.26,3.09,.39,1.37,.18,2.34,1.43,2.16,2.8-.16,1.26-1.24,2.18-2.48,2.18Zm-88.72-6.19c-1.27,0-2.36-.96-2.48-2.25-.14-1.37,.86-2.6,2.24-2.74,5.45-.55,10.64-.86,15.86-.97,5.27-.11,9.78-.07,14.21,.14,1.38,.06,2.45,1.23,2.38,2.61-.06,1.38-1.23,2.44-2.61,2.38-4.32-.2-8.73-.24-13.87-.13-5.09,.11-10.15,.42-15.46,.95-.08,0-.17,.01-.25,.01Z"/><path class="cls-2" d="M464.47,448.61c-1.3,0-2.4-1.01-2.49-2.33-.09-1.38,.95-2.57,2.32-2.66,3.31-.23,8.28-.74,14.79-1.53,1.37-.17,2.62,.81,2.78,2.18s-.81,2.62-2.18,2.78c-6.59,.8-11.65,1.32-15.05,1.55-.06,0-.12,0-.17,0Z"/><rect class="cls-2" x="461.97" y="429.83" width="5" height="32.5" transform="translate(-27.8 30.88) rotate(-3.7)"/></g><g id="Pitroad"><path class="cls-1" d="M1071.5,909.56c-.58,0-1.15-.2-1.63-.6-3.46-2.96-6.6-4.85-9.65-6.67-4.54-2.72-9.24-5.54-14.39-11.66-.89-1.06-.75-2.63,.31-3.52,1.06-.89,2.63-.75,3.52,.31,4.61,5.48,8.56,7.85,13.13,10.59,3.22,1.93,6.56,3.93,10.33,7.17,1.05,.9,1.17,2.48,.27,3.53-.49,.58-1.2,.87-1.9,.87Zm-37.42-44.52c-1.11,0-2.12-.74-2.41-1.86-1-3.75-1.5-7.12-1.5-10.03v-.58c0-5.8-1.47-11.71-4.5-18.08-.59-1.25-.06-2.74,1.18-3.33,1.25-.59,2.74-.07,3.33,1.18,3.36,7.05,4.99,13.66,4.99,20.23v.58c0,2.44,.46,5.47,1.33,8.75,.35,1.33-.44,2.7-1.77,3.06-.21,.06-.43,.08-.64,.08Zm-23.06-53.85c-.74,0-1.47-.33-1.96-.95-4.54-5.74-10.84-13.64-18.73-23.5-.86-1.08-.69-2.65,.39-3.51,1.08-.86,2.65-.69,3.51,.39,7.89,9.86,14.2,17.78,18.75,23.52,.86,1.08,.67,2.66-.41,3.51-.46,.36-1.01,.54-1.55,.54Zm-37.54-46.95c-.73,0-1.46-.32-1.95-.93-6.79-8.46-13.34-16.6-18.83-23.42-.87-1.08-.7-2.65,.38-3.52,1.07-.87,2.65-.7,3.52,.38,5.49,6.82,12.04,14.96,18.84,23.42,.86,1.08,.69,2.65-.38,3.51-.46,.37-1.01,.55-1.56,.55Zm-37.82-46.74c-.71,0-1.42-.3-1.91-.88-4.93-5.83-12.01-14.08-19.5-22.82-.9-1.05-.78-2.63,.27-3.52,1.05-.9,2.63-.78,3.53,.27,7.5,8.75,14.58,17.01,19.52,22.84,.89,1.05,.76,2.63-.29,3.52-.47,.4-1.04,.59-1.61,.59Zm-39.05-45.64c-.71,0-1.41-.3-1.9-.88-7.76-9.09-14.12-16.58-19.44-22.92-.89-1.06-.75-2.63,.31-3.52,1.06-.89,2.63-.75,3.52,.31,5.31,6.32,11.66,13.81,19.41,22.89,.9,1.05,.77,2.63-.28,3.52-.47,.4-1.05,.6-1.62,.6Z"/><polygon class="cls-1" points="899.05 643.85 879.73 649.47 870.36 667.27 856.95 621.56 899.05 643.85"/></g></svg>