<?xml version="1.0" encoding="UTF-8"?><svg id="gp_-_Pit_Road" xmlns="http://www.w3.org/2000/svg" viewBox="0 0 1920 1080"><defs><style>.cls-1{fill:#d82520;}.cls-2{fill:#0089ba;}</style></defs><g id="Mergeline"><path class="cls-2" d="m919.42,169.63c-.27-2.92-.3-5.81-.14-8.66l26.9,4.58,1.68-9.86-32.23-5.49s-.01,0-.02,0c0,0,0,0-.01,0l-31.81-5.42-1.68,9.86,27.25,4.64c-.28,3.71-.25,7.49.11,11.29.24,2.59,2.42,4.53,4.97,4.53.16,0,.32,0,.47-.02,2.75-.26,4.77-2.7,4.51-5.45Z"/><path class="cls-2" d="m927.89,198.41c-1-2.57-3.9-3.85-6.47-2.84-2.57,1-3.85,3.9-2.84,6.47,3.92,10.06,7.82,19.93,11.6,29.35.78,1.95,2.66,3.14,4.64,3.14.62,0,1.25-.12,1.86-.36,2.56-1.03,3.81-3.94,2.78-6.5-3.77-9.39-7.66-19.23-11.56-29.26Z"/><path class="cls-2" d="m951.8,256.09c-1.28-2.45-4.3-3.39-6.75-2.11-2.45,1.28-3.39,4.3-2.11,6.75l14.63,27.91c.89,1.7,2.63,2.68,4.43,2.68.78,0,1.58-.18,2.32-.57,2.45-1.28,3.39-4.3,2.11-6.75l-14.63-27.91Z"/><path class="cls-2" d="m985.76,326.74l-5.79-13.84c-1.07-2.55-3.99-3.75-6.54-2.69-2.55,1.06-3.75,3.99-2.68,6.54l5.79,13.84c.8,1.92,2.66,3.07,4.62,3.07.64,0,1.3-.12,1.93-.39,2.55-1.06,3.75-3.99,2.68-6.54Z"/></g><g id="Pitroad"><path class="cls-1" d="m1012.55,390.83l10.66.06-27.21-26.68-.12,38.11,7.45-7.63,3.06,7.32c.8,1.92,2.66,3.07,4.62,3.07.64,0,1.3-.12,1.93-.39,2.55-1.07,3.75-3.99,2.68-6.54l-3.06-7.32Z"/><path class="cls-1" d="m1027.17,425.81c-1.06-2.55-3.99-3.75-6.54-2.68-2.55,1.07-3.75,3.99-2.68,6.54l11.56,27.66c.8,1.92,2.66,3.07,4.62,3.07.64,0,1.3-.12,1.93-.39,2.55-1.07,3.75-3.99,2.68-6.54l-11.56-27.66Z"/><path class="cls-1" d="m1052.63,512.65c.8,1.92,2.66,3.07,4.62,3.07.64,0,1.3-.12,1.93-.39,2.55-1.07,3.75-3.99,2.68-6.54l-11.56-27.66c-1.07-2.55-4-3.75-6.54-2.68-2.55,1.07-3.75,3.99-2.68,6.54l11.56,27.66Z"/><path class="cls-1" d="m1088.92,599.46c3.25,7.77,5.85,15.76,7.75,23.76.54,2.3,2.6,3.85,4.86,3.85.38,0,.77-.04,1.16-.14,2.69-.64,4.35-3.33,3.71-6.02-2.02-8.52-4.8-17.04-8.25-25.31l-1.6-3.83c-1.07-2.55-3.99-3.75-6.54-2.69-2.55,1.06-3.75,3.99-2.69,6.54l1.6,3.83Z"/><path class="cls-1" d="m1105.52,646.74s-.08,0-.11,0c-2.71,0-4.94,2.17-5,4.89-.04,1.63-.58,3.11-1.53,4.15-1.04,1.14-2.34,1.67-4.08,1.67-2.64,0-5.98-1.2-9.68-3.48-2.35-1.45-5.43-.72-6.88,1.63-1.45,2.35-.72,5.43,1.63,6.88,5.35,3.29,10.37,4.96,14.92,4.96s8.54-1.71,11.48-4.94c2.57-2.83,4.04-6.61,4.13-10.66.06-2.76-2.13-5.05-4.89-5.11Z"/><path class="cls-1" d="m1082.3,570.66c2.55-1.07,3.75-3.99,2.68-6.54l-11.56-27.66c-1.07-2.55-3.99-3.75-6.54-2.69-2.55,1.06-3.75,3.99-2.68,6.54l11.56,27.66c.8,1.92,2.66,3.07,4.62,3.07.64,0,1.3-.12,1.93-.39Z"/><path class="cls-1" d="m1060.09,637.85c-4.78-3.25-8.28-6.03-11.03-8.74-1.96-1.94-5.13-1.92-7.07.04-1.94,1.96-1.92,5.13.04,7.07,3.19,3.15,7.14,6.3,12.44,9.9.86.58,1.84.87,2.81.87,1.6,0,3.17-.77,4.14-2.19,1.55-2.28.96-5.39-1.33-6.95Z"/></g></svg>