<?xml version="1.0" encoding="UTF-8"?>
<svg id="West_-_pit_road" data-name="West - pit road" xmlns="http://www.w3.org/2000/svg" viewBox="0 0 1920 1080">
  <defs>
    <style>
      .cls-1 {
        fill: #d82520;
      }

      .cls-2 {
        fill: #0089ba;
      }
    </style>
  </defs>
  <g id="Pitroad">
    <path class="cls-1" d="m792.42,478.24c-.74-1.17-2.28-1.51-3.45-.77-1.17.74-1.51,2.29-.77,3.45,3.54,5.57,6.38,10.03,8.08,12.69.48.75,1.28,1.15,2.11,1.15.46,0,.93-.13,1.35-.4,1.16-.74,1.5-2.29.76-3.45-1.7-2.65-4.53-7.11-8.07-12.67Z"/>
    <path class="cls-1" d="m776.33,452.88c-.74-1.17-2.28-1.51-3.45-.77-1.17.74-1.51,2.28-.77,3.45,2.76,4.36,5.47,8.64,8.04,12.69.48.75,1.29,1.16,2.11,1.16.46,0,.92-.13,1.34-.39,1.17-.74,1.51-2.28.77-3.45-2.57-4.05-5.28-8.33-8.04-12.68Z"/>
    <path class="cls-1" d="m761.86,430.02l4.11-2.6-20.63-19.02,8.36,26.78,3.94-2.49,6.43,10.18c.48.75,1.29,1.16,2.12,1.16.46,0,.92-.13,1.33-.39,1.17-.74,1.51-2.28.78-3.45l-6.43-10.18Z"/>
    <path class="cls-1" d="m833.74,571.57c0-1.15.03-2.3.09-3.42.07-1.38-.99-2.56-2.37-2.63-1.38-.08-2.56.99-2.63,2.36-.06,1.21-.1,2.45-.1,3.69,0,4.01.33,8.09.97,11.81.21,1.22,1.27,2.08,2.46,2.08.14,0,.28-.01.42-.04,1.36-.23,2.28-1.52,2.05-2.88-.59-3.45-.9-7.24-.9-10.98Z"/>
    <path class="cls-1" d="m846.71,525.43c-.39-3.04-1.43-5.64-3.1-7.72-1.91-2.39-3.92-4.34-6.15-5.98-1.11-.82-2.68-.58-3.5.54-.82,1.11-.58,2.68.54,3.5,1.87,1.37,3.57,3.03,5.2,5.07,1.08,1.35,1.77,3.11,2.04,5.23.16,1.26,1.24,2.19,2.48,2.19.1,0,.21,0,.32-.02,1.37-.17,2.34-1.43,2.16-2.8Z"/>
    <path class="cls-1" d="m822.39,506.1c-.61-.07-1.23-.13-1.86-.18-3.46-.26-7.18-1.82-10.76-4.49-1.11-.83-2.67-.6-3.5.51-.83,1.11-.6,2.67.51,3.5,4.35,3.24,8.97,5.13,13.37,5.47.56.04,1.12.1,1.66.16.1.01.2.02.29.02,1.25,0,2.33-.94,2.48-2.21.16-1.37-.82-2.61-2.19-2.77Z"/>
    <path class="cls-1" d="m842.61,538.05c-1.27-.54-2.74.06-3.28,1.33-1.17,2.76-2.66,5.37-4.32,7.55-1.18,1.55-2.21,3.4-3.07,5.49-.53,1.28.08,2.74,1.36,3.26.31.13.63.19.95.19.98,0,1.92-.58,2.31-1.55.7-1.69,1.51-3.16,2.43-4.37,1.9-2.5,3.61-5.49,4.94-8.62.54-1.27-.06-2.74-1.33-3.28Z"/>
  </g>
  <g id="Mergeline">
    <path class="cls-2" d="m719.77,380.08l-4.25-1.51c-3.01-1.07-6.41-2.28-9.88-3.54-1.3-.47-2.73.2-3.2,1.5s.2,2.73,1.5,3.2c3.48,1.26,6.89,2.47,9.91,3.55l4.24,1.51c.28.1.56.15.84.15,1.03,0,1.99-.64,2.35-1.66.46-1.3-.21-2.73-1.51-3.2Z"/>
    <path class="cls-2" d="m743.18,400.32c-.51-.83-.86-1.4-1.02-1.67-1.01-1.74-3.88-6.25-8.67-10.6-1.02-.93-2.6-.85-3.53.17-.93,1.02-.85,2.6.17,3.53,4.39,3.99,7.01,8.22,7.71,9.42.17.29.54.9,1.09,1.79.47.76,1.29,1.18,2.13,1.18.45,0,.9-.12,1.31-.38,1.17-.73,1.54-2.27.81-3.44Z"/>
    <path class="cls-2" d="m688.84,353.53l-6.93,14.73s0,.01-.01.02c0,0,0,.01,0,.02l-6.88,14.64,4.52,2.13,5.86-12.47c1.31.56,2.77,1.17,4.41,1.82.3.12.62.18.92.18.99,0,1.93-.6,2.32-1.57.51-1.28-.11-2.74-1.4-3.25-1.54-.61-2.9-1.18-4.13-1.7l5.84-12.41-4.52-2.13Z"/>
  </g>
</svg>