<?xml version="1.0" encoding="UTF-8"?>
<svg id="Grand_Prix_-_Pit_Road" data-name="Grand Prix - Pit Road" xmlns="http://www.w3.org/2000/svg" viewBox="0 0 1920 1080">
  <defs>
    <style>
      .cls-1 {
        fill: #d82520;
      }

      .cls-2 {
        fill: #0089ba;
      }
    </style>
  </defs>
  <g id="Pitroad">
    <path class="cls-1" d="m1240.17,426.85c-4.75-1.23-9.61-2.48-14.53-3.76-1.33-.34-2.7.46-3.05,1.79-.35,1.34.46,2.7,1.79,3.05,4.92,1.28,9.79,2.54,14.54,3.76.21.05.42.08.63.08,1.11,0,2.13-.75,2.42-1.88.34-1.34-.46-2.7-1.8-3.04Z"/>
    <path class="cls-1" d="m1269.27,434.26c-4.59-1.15-9.46-2.39-14.55-3.69-1.33-.34-2.7.47-3.04,1.8-.34,1.34.47,2.7,1.8,3.04,5.09,1.3,9.98,2.54,14.57,3.69.21.05.41.08.61.08,1.12,0,2.14-.76,2.42-1.89.34-1.34-.48-2.7-1.82-3.03Z"/>
    <path class="cls-1" d="m1153.03,404.02l-8.77-2.32,1.58-6-33.67.14,29.23,16.72,1.59-6.02,8.77,2.32c.21.06.43.08.64.08,1.11,0,2.12-.74,2.42-1.86.35-1.33-.44-2.7-1.78-3.06Z"/>
    <path class="cls-1" d="m1298.41,441.3c-3.63-.8-8.53-1.95-14.58-3.42-1.34-.32-2.69.5-3.02,1.84-.33,1.34.5,2.69,1.84,3.02,6.08,1.48,11.02,2.64,14.68,3.45.18.04.36.06.54.06,1.15,0,2.18-.79,2.44-1.96.3-1.35-.55-2.68-1.9-2.98Z"/>
    <path class="cls-1" d="m1327.75,448.04c-5.24-1.24-10.17-2.39-14.65-3.43-1.34-.31-2.69.53-3,1.87-.31,1.35.53,2.69,1.87,3,4.47,1.03,9.39,2.19,14.62,3.43.19.05.39.07.58.07,1.13,0,2.16-.77,2.43-1.93.32-1.34-.51-2.69-1.86-3.01Z"/>
    <path class="cls-1" d="m1211.12,419.3c-4.85-1.27-9.71-2.54-14.53-3.8-1.34-.35-2.7.45-3.05,1.78-.35,1.34.45,2.7,1.78,3.05,4.82,1.26,9.68,2.54,14.53,3.81.21.06.42.08.63.08,1.11,0,2.12-.74,2.42-1.87.35-1.34-.45-2.7-1.79-3.05Z"/>
    <path class="cls-1" d="m1182.07,411.68c-4.96-1.31-9.82-2.59-14.52-3.83-1.33-.35-2.7.44-3.05,1.78-.35,1.33.44,2.7,1.78,3.06,4.7,1.24,9.56,2.52,14.52,3.83.21.06.43.08.64.08,1.11,0,2.12-.74,2.42-1.86.35-1.34-.45-2.7-1.78-3.05Z"/>
    <path class="cls-1" d="m1356.99,455.04c-4.95-1.2-9.85-2.38-14.61-3.52-1.34-.32-2.69.51-3.01,1.85-.32,1.34.51,2.69,1.85,3.01,4.76,1.14,9.65,2.32,14.6,3.51.2.05.39.07.59.07,1.13,0,2.15-.77,2.43-1.91.32-1.34-.5-2.69-1.84-3.02Z"/>
    <path class="cls-1" d="m1504.25,479.15c-4.48-.37-9.41-.67-15.08-.94-1.37-.05-2.55,1-2.61,2.38-.06,1.38,1,2.55,2.38,2.61,5.61.26,10.48.56,14.9.92.07,0,.14,0,.21,0,1.29,0,2.38-.99,2.49-2.29.11-1.38-.91-2.58-2.29-2.7Z"/>
    <path class="cls-1" d="m1525.01,482.1c-1.64-.42-3.54-.81-5.63-1.17-1.36-.23-2.65.68-2.89,2.04-.23,1.36.68,2.65,2.04,2.88,1.96.33,3.72.7,5.24,1.08.21.05.41.08.62.08,1.12,0,2.13-.75,2.42-1.89.34-1.34-.47-2.7-1.81-3.04Z"/>
    <path class="cls-1" d="m1474.11,477.67c-4-.11-7.81-.2-11.3-.28l-3.73-.09c-1.37-.02-2.53,1.06-2.56,2.44-.03,1.38,1.06,2.53,2.44,2.56l3.73.08c3.48.08,7.29.17,11.28.27.02,0,.05,0,.07,0,1.35,0,2.46-1.07,2.5-2.43.04-1.38-1.05-2.53-2.43-2.57Z"/>
    <path class="cls-1" d="m1444.61,476.51l-14.62-3.61c-1.34-.33-2.7.49-3.03,1.83-.33,1.34.49,2.7,1.83,3.03l14.63,3.61c.2.05.4.07.6.07,1.12,0,2.15-.76,2.43-1.9.33-1.34-.49-2.69-1.83-3.02Z"/>
    <path class="cls-1" d="m1386.19,462.14c-4.79-1.17-9.68-2.36-14.6-3.56-1.34-.33-2.69.5-3.02,1.84-.33,1.34.5,2.69,1.84,3.02,4.92,1.2,9.81,2.39,14.6,3.56.2.05.4.07.59.07,1.12,0,2.15-.77,2.43-1.91.33-1.34-.49-2.69-1.84-3.02Z"/>
    <path class="cls-1" d="m1415.39,469.3c-4.55-1.12-9.45-2.32-14.6-3.59-1.34-.33-2.7.49-3.02,1.83-.33,1.34.49,2.69,1.83,3.02,5.14,1.26,10.04,2.47,14.59,3.59.2.05.4.07.6.07,1.12,0,2.14-.76,2.43-1.9.33-1.34-.49-2.7-1.83-3.03Z"/>
  </g>
  <g id="Mergeline">
    <path class="cls-2" d="m1070.21,445.69c-1.31-.42-2.72.29-3.15,1.61-1.57,4.85-3,9.57-4.39,14.43-.38,1.33.39,2.71,1.72,3.09.23.07.46.1.69.1,1.09,0,2.09-.72,2.4-1.81,1.37-4.81,2.79-9.47,4.34-14.26.42-1.31-.3-2.72-1.61-3.15Z"/>
    <path class="cls-2" d="m1061.82,474.47c-1.33-.37-2.71.41-3.08,1.74-1.51,5.41-2.98,10.01-4.52,14.05-.49,1.29.16,2.73,1.45,3.23.29.11.59.16.89.16,1.01,0,1.96-.61,2.34-1.61,1.59-4.19,3.12-8.93,4.66-14.49.37-1.33-.41-2.71-1.74-3.08Z"/>
    <path class="cls-2" d="m1025.66,521.21c-3.19,1.92-6.4,3.79-9.23,5.45-.52.31-1.03.6-1.53.89l-7.02-11.84-4.3,2.55,8.27,13.93s.01.03.02.04c0,.01.02.02.02.03l8.28,13.95,4.3-2.55-7.01-11.81c.49-.29.98-.58,1.5-.88,2.85-1.66,6.07-3.55,9.29-5.48,1.18-.71,1.56-2.25.85-3.43-.71-1.18-2.25-1.56-3.43-.85Z"/>
    <path class="cls-2" d="m1051.35,502.49c-1.16-.75-2.71-.43-3.46.73-1.09,1.66-2.24,3.2-3.63,4.83-1.11,1.31-3.17,3.04-6.13,5.15-1.12.8-1.39,2.36-.58,3.49.49.68,1.26,1.05,2.04,1.05.5,0,1.01-.15,1.45-.46,3.34-2.38,5.65-4.34,7.04-5.98,1.53-1.8,2.8-3.49,4-5.33.75-1.16.43-2.71-.73-3.46Z"/>
    <path class="cls-2" d="m1080.02,417.34c-1.31-.45-2.73.25-3.18,1.55l-1.04,3.04c-.87,2.52-1.77,5.08-2.7,7.72l-1.19,3.38c-.46,1.3.23,2.73,1.53,3.19.27.1.55.14.83.14,1.03,0,2-.64,2.36-1.67l1.19-3.37c.94-2.66,1.84-5.22,2.72-7.76l1.04-3.04c.45-1.31-.25-2.73-1.55-3.18Z"/>
    <path class="cls-2" d="m1093.92,393c-1.09.42-2.19.95-3.27,1.59-3.28,1.92-5.92,5.1-8.32,10.03-.61,1.24-.09,2.74,1.15,3.34.35.17.73.25,1.09.25.93,0,1.82-.52,2.25-1.41,1.97-4.05,3.93-6.48,6.35-7.9.85-.5,1.71-.92,2.55-1.24,1.29-.5,1.93-1.95,1.43-3.23-.5-1.29-1.94-1.93-3.23-1.43Z"/>
  </g>
</svg>