<?xml version="1.0" encoding="UTF-8"?>
<svg id="willow_-_Pit_Road" data-name="willow - Pit Road" xmlns="http://www.w3.org/2000/svg" viewBox="0 0 1920 1080">
  <defs>
    <style>
      .cls-1 {
        fill: #d82520;
      }

      .cls-2 {
        fill: #0089ba;
      }
    </style>
  </defs>
  <g id="Pitroad">
    <path class="cls-1" d="m1366.92,879.03c-3.89-1.66-8.49-3.48-14.09-5.56-1.29-.48-2.73.18-3.21,1.47-.48,1.29.18,2.73,1.47,3.21,5.52,2.05,10.05,3.84,13.87,5.47.32.14.65.2.98.2.97,0,1.89-.57,2.3-1.52.54-1.27-.05-2.74-1.32-3.28Z"/>
    <path class="cls-1" d="m1100.65,743.33l-12.79-7.84c-1.17-.72-2.71-.35-3.44.82-.72,1.18-.35,2.72.82,3.44l12.79,7.84c.41.25.86.37,1.3.37.84,0,1.66-.42,2.13-1.19.72-1.18.35-2.72-.83-3.44Z"/>
    <path class="cls-1" d="m1151.91,774.72l-12.82-7.84c-1.17-.72-2.72-.35-3.44.83-.72,1.18-.35,2.72.83,3.44l12.82,7.84c.41.25.86.37,1.3.37.84,0,1.66-.42,2.13-1.2.72-1.18.35-2.72-.83-3.44Z"/>
    <path class="cls-1" d="m1126.28,759.03l-12.81-7.85c-1.17-.72-2.71-.35-3.44.83-.72,1.18-.35,2.72.83,3.44l12.81,7.85c.41.25.86.37,1.3.37.84,0,1.66-.42,2.13-1.19.72-1.18.35-2.72-.83-3.44Z"/>
    <path class="cls-1" d="m1049.43,711.92l-12.81-7.86c-1.18-.72-2.72-.35-3.44.82-.72,1.18-.35,2.72.82,3.44l12.81,7.86c.41.25.86.37,1.31.37.84,0,1.66-.42,2.13-1.19.72-1.18.35-2.72-.82-3.44Z"/>
    <path class="cls-1" d="m998.2,680.45l-7.75-4.76,3.27-5.32-32.28-9.59,23.15,24.45,3.24-5.27,7.74,4.76c.41.25.86.37,1.31.37.84,0,1.66-.42,2.13-1.19.72-1.18.36-2.72-.82-3.44Z"/>
    <path class="cls-1" d="m1023.82,696.19l-12.81-7.87c-1.17-.72-2.72-.36-3.44.82-.72,1.18-.36,2.72.82,3.44l12.81,7.87c.41.25.86.37,1.31.37.84,0,1.66-.42,2.13-1.19.72-1.18.36-2.72-.82-3.44Z"/>
    <path class="cls-1" d="m1075.05,727.64l-12.81-7.86c-1.18-.72-2.71-.35-3.44.82-.72,1.18-.35,2.72.82,3.44l12.81,7.86c.41.25.86.37,1.3.37.84,0,1.66-.42,2.13-1.19.72-1.18.35-2.72-.82-3.44Z"/>
    <path class="cls-1" d="m1310.23,858.6c-4.78-1.64-9.53-3.28-14.17-4.91-1.3-.46-2.73.23-3.19,1.53-.46,1.3.23,2.73,1.53,3.19,4.65,1.63,9.41,3.28,14.2,4.92.27.09.54.14.81.14,1.04,0,2.01-.65,2.36-1.69.45-1.31-.25-2.73-1.55-3.18Z"/>
    <path class="cls-1" d="m1338.65,868.38c-4.6-1.61-9.37-3.26-14.21-4.92-1.31-.45-2.73.25-3.18,1.55-.45,1.31.25,2.73,1.55,3.18,4.83,1.66,9.59,3.29,14.18,4.9.27.1.55.14.83.14,1.03,0,2-.64,2.36-1.67.46-1.3-.23-2.73-1.53-3.19Z"/>
    <path class="cls-1" d="m1281.97,848.62c-5.36-1.99-9.91-3.76-13.91-5.42-1.28-.53-2.74.08-3.27,1.35-.53,1.28.08,2.74,1.35,3.27,4.06,1.68,8.67,3.47,14.08,5.48.29.11.58.16.87.16,1.01,0,1.97-.62,2.34-1.63.48-1.29-.18-2.73-1.47-3.21Z"/>
    <path class="cls-1" d="m1177.55,790.39l-12.82-7.83c-1.18-.72-2.72-.35-3.44.83-.72,1.18-.35,2.72.83,3.44l12.83,7.83c.41.25.86.37,1.3.37.84,0,1.67-.43,2.14-1.2.72-1.18.35-2.72-.83-3.44Z"/>
    <path class="cls-1" d="m1203.22,806.04l-12.84-7.82c-1.18-.72-2.72-.35-3.44.83-.72,1.18-.35,2.72.83,3.44l12.84,7.82c.41.25.86.37,1.3.37.84,0,1.67-.43,2.14-1.2.72-1.18.34-2.72-.83-3.44Z"/>
    <path class="cls-1" d="m1254.67,837c-.38-.21-.74-.41-1.1-.61-2.15-1.23-6.11-3.57-11.78-6.98-1.18-.71-2.72-.33-3.43.86-.71,1.18-.33,2.72.86,3.43,5.78,3.47,9.67,5.77,11.88,7.03.38.22.78.44,1.18.66.38.21.79.3,1.19.3.89,0,1.74-.47,2.2-1.3.66-1.21.21-2.73-1-3.39Z"/>
    <path class="cls-1" d="m1228.92,821.65c-3.94-2.38-8.24-4.99-12.86-7.79-1.18-.71-2.72-.34-3.43.84-.72,1.18-.34,2.72.84,3.43,4.62,2.8,8.92,5.41,12.86,7.8.4.25.85.36,1.29.36.85,0,1.67-.43,2.14-1.21.71-1.18.34-2.72-.84-3.43Z"/>
  </g>
  <g id="Mergeline">
    <path class="cls-2" d="m873.01,582.45c-1.04-.91-2.62-.8-3.53.24-.91,1.04-.8,2.62.24,3.53,3.57,3.11,7.35,6.44,11.27,9.91.48.42,1.07.63,1.66.63.69,0,1.38-.29,1.87-.84.92-1.03.82-2.61-.21-3.53-3.93-3.48-7.72-6.82-11.3-9.94Z"/>
    <path class="cls-2" d="m896.45,603.16l-.9-.8c-1.03-.92-2.61-.83-3.53.21-.92,1.03-.82,2.61.21,3.53l.9.8c3.41,3.04,6.87,6.11,10.33,9.18.48.42,1.07.63,1.66.63.69,0,1.38-.28,1.87-.84.92-1.03.82-2.61-.21-3.53-3.46-3.07-6.92-6.14-10.33-9.17Z"/>
    <path class="cls-2" d="m851.62,564.63l7.82-11.33-4.11-2.84-9.18,13.28s-.02.02-.02.03c0,.01-.01.03-.02.04l-9.25,13.39,4.11,2.84,7.81-11.3c2.49,1.87,5.64,4.41,9.58,7.71.47.39,1.04.58,1.6.58.71,0,1.42-.3,1.92-.89.89-1.06.75-2.63-.31-3.52-4.08-3.42-7.36-6.05-9.95-8Z"/>
    <path class="cls-2" d="m918.03,622.27c-1.04-.91-2.62-.81-3.53.23-.91,1.04-.81,2.62.23,3.53,4.19,3.68,7.9,6.92,11.34,9.88.47.41,1.05.61,1.63.61.7,0,1.4-.29,1.89-.87.9-1.04.79-2.62-.26-3.53-3.43-2.96-7.13-6.18-11.31-9.85Z"/>
    <path class="cls-2" d="m952.37,651.23c-3.33-2.59-7.24-5.75-11.62-9.4-1.06-.88-2.64-.74-3.52.32-.88,1.06-.74,2.64.32,3.52,4.42,3.69,8.37,6.89,11.75,9.51.46.35,1,.52,1.53.52.75,0,1.48-.33,1.98-.97.85-1.09.65-2.66-.44-3.51Z"/>
  </g>
</svg>