<svg id="chicago_-_Pit_Road" data-name="chicago - Pit Road" xmlns="http://www.w3.org/2000/svg" viewBox="0 0 1920 1080"><defs><style>.cls-1{fill:#d82520;}</style></defs><path id="pitroad" class="cls-1" d="M1265.5,514.18a2.5,2.5,0,0,1-2.5,2.5h-30a2.5,2.5,0,0,1,0-5h30A2.5,2.5,0,0,1,1265.5,514.18Zm-62.5-2.5h-30a2.5,2.5,0,0,0,0,5h30a2.5,2.5,0,1,0,0-5Zm-60,0h-30a2.5,2.5,0,0,0,0,5h30a2.5,2.5,0,1,0,0-5Zm-60,0h-30a2.5,2.5,0,0,0,0,5h30a2.5,2.5,0,1,0,0-5Zm-60,0H994.22l-1.31,0a2.5,2.5,0,0,0,.09,5h.09l1.13,0H1023a2.5,2.5,0,1,0,0-5Zm540,0h-30a2.5,2.5,0,0,0,0,5h30a2.5,2.5,0,1,0,0-5Zm-60,0h-30a2.5,2.5,0,0,0,0,5h30a2.5,2.5,0,1,0,0-5Zm-120,0h-30a2.5,2.5,0,0,0,0,5h30a2.5,2.5,0,1,0,0-5Zm60,0h-30a2.5,2.5,0,0,0,0,5h30a2.5,2.5,0,1,0,0-5Zm-120,0h-30a2.5,2.5,0,0,0,0,5h30a2.5,2.5,0,1,0,0-5Zm-359.13.24-11.54,31.29,30.46-13.57-13.22-4.84Z"/></svg>