<svg id="Oostelijk__Pit_Road" data-name="Oostelijk _Pit Road" xmlns="http://www.w3.org/2000/svg" viewBox="0 0 1920 1080"><defs><style>.cls-1{fill:#d82520;}</style></defs><g id="Pitroad"><path class="cls-1" d="M1287.71,562.24a2.5,2.5,0,0,1-1.72,3.09c-9.17,2.62-18.69,5.78-28.3,9.4a2.5,2.5,0,0,1-1.76-4.68c9.73-3.66,19.39-6.87,28.69-9.53A2.5,2.5,0,0,1,1287.71,562.24Zm-23.12,87.38a89.92,89.92,0,0,1-23.24-17.46,2.5,2.5,0,0,0-3.63,3.44A94.92,94.92,0,0,0,1262.26,654a2.45,2.45,0,0,0,1.16.3,2.5,2.5,0,0,0,1.17-4.72ZM1228,581.81l-.1.05c-9.29,4.52-11.24,10.58-11.24,14.86a15.81,15.81,0,0,0,2,7.68c.65,1.87,1.37,3.72,2.14,5.53a2.5,2.5,0,0,0,2.3,1.52,2.34,2.34,0,0,0,1-.2,2.49,2.49,0,0,0,1.33-3.27c-.76-1.79-1.46-3.62-2.1-5.46l-.1-.29-.15-.24a10.93,10.93,0,0,1-1.44-5.27c0-4.16,2.83-7.64,8.45-10.37l.08,0a2.5,2.5,0,0,0-2.19-4.5Zm78.38,79.74-14.05-2.89a2.5,2.5,0,1,0-1,4.89l14.05,2.9a2.94,2.94,0,0,0,.51,0,2.5,2.5,0,0,0,.5-5Zm67.5-103.22-41-24.31,4.67,17.19a184.85,184.85,0,0,0-23.46,2.51,2.5,2.5,0,0,0,.42,5,2,2,0,0,0,.42,0,181.35,181.35,0,0,1,21.54-2.4l-8.62,14.46Z"/></g></svg>