<?xml version="1.0" encoding="utf-8"?>
<!-- Generator: Adobe Illustrator 27.8.1, SVG Export Plug-In . SVG Version: 6.00 Build 0)  -->
<svg version="1.1" id="a" xmlns="http://www.w3.org/2000/svg" xmlns:xlink="http://www.w3.org/1999/xlink" x="0px" y="0px"
	 viewBox="0 0 1920 1080" style="enable-background:new 0 0 1920 1080;" xml:space="preserve">
<style type="text/css">
	.st0{fill:#D82520;}
	.st1{fill:#0089BA;}
</style>
<g id="Pitroad">
	<path class="st0" d="M732.4,850.1l-15.1,0.3c-1.4,0-2.5,1.2-2.4,2.5c0,1.4,1.2,2.4,2.5,2.4c0,0,0,0,0,0l15.1-0.3
		c1.4,0,2.5-1.2,2.4-2.5C734.9,851.1,733.8,850,732.4,850.1z"/>
	<path class="st0" d="M762.5,849.4l-15,0.3c-1.4,0-2.5,1.2-2.5,2.5c0,1.4,1.1,2.5,2.5,2.5c0,0,0,0,0,0l15-0.3c1.4,0,2.5-1.2,2.5-2.5
		C765,850.5,763.9,849.4,762.5,849.4z"/>
	<path class="st0" d="M671.9,853.5c-4.8,0.8-10,1.7-14.9,2.7c-1.3,0.3-2.2,1.6-2,2.9c0.2,1.2,1.3,2,2.5,2l0,0c0.2,0,0.3,0,0.5,0
		c4.8-0.9,9.9-1.8,14.7-2.6c1.4-0.2,2.3-1.5,2.1-2.9S673.3,853.3,671.9,853.5z"/>
	<path class="st0" d="M702.2,850.8c-5.8,0.1-9.1,0.2-10.1,0.3c-1.5,0.1-3.2,0.2-5.2,0.4c-1.4,0.1-2.4,1.4-2.2,2.7
		c0.1,1.3,1.2,2.2,2.5,2.2l0,0c0.1,0,0.2,0,0.3,0c1.9-0.2,3.6-0.3,4.9-0.4c0.9,0,4.3-0.1,10-0.3c1.4,0,2.5-1.2,2.4-2.6
		C704.8,851.8,703.6,850.7,702.2,850.8z"/>
	<path class="st0" d="M792.6,848.8C792.6,848.8,792.6,848.8,792.6,848.8l-15.1,0.3c-1.4,0-2.5,1.2-2.5,2.5c0,1.4,1.1,2.5,2.5,2.5
		c0,0,0,0,0,0l15-0.3c1.4,0,2.5-1.2,2.5-2.5C795.1,849.9,794,848.8,792.6,848.8z"/>
	<path class="st0" d="M882.8,846.9C882.8,846.9,882.8,846.9,882.8,846.9l-15.1,0.3c-1.4,0-2.5,1.2-2.5,2.5c0,1.4,1.1,2.5,2.5,2.5
		c0,0,0,0,0,0l15-0.3c1.4,0,2.5-1.2,2.5-2.5C885.3,848,884.2,846.9,882.8,846.9z"/>
	<path class="st0" d="M852.7,847.5l-15,0.3c-1.4,0-2.5,1.2-2.5,2.5c0,1.4,1.1,2.5,2.5,2.5c0,0,0,0,0,0l15-0.3c1.4,0,2.5-1.2,2.5-2.5
		C855.2,848.6,854.1,847.5,852.7,847.5z"/>
	<path class="st0" d="M536.4,812.8c-4.4-2.6-8.7-5.1-12.9-7.7c-1.2-0.7-2.7-0.3-3.4,0.9s-0.3,2.7,0.9,3.4c4.2,2.5,8.5,5.1,12.9,7.7
		c0.4,0.2,0.8,0.3,1.3,0.3l0,0c0.9,0,1.7-0.4,2.2-1.2C538,815,537.6,813.5,536.4,812.8z"/>
	<path class="st0" d="M510.7,797.4c-4.4-2.7-8.6-5.3-12.8-7.8c-1.2-0.7-2.7-0.4-3.4,0.8c-0.7,1.2-0.4,2.7,0.8,3.4
		c4.2,2.6,8.4,5.2,12.8,7.8c0.4,0.2,0.8,0.4,1.3,0.4h0c0.8,0,1.7-0.4,2.1-1.2C512.3,799.6,511.9,798.1,510.7,797.4z"/>
	<path class="st0" d="M562.3,827.8c-4.4-2.5-8.7-5-13-7.5c-1.2-0.7-2.7-0.3-3.4,0.9c-0.7,1.2-0.3,2.7,0.9,3.4c4.3,2.5,8.6,5,13,7.5
		c0.4,0.2,0.8,0.3,1.2,0.3v0c0.9,0,1.7-0.5,2.2-1.3C563.9,830,563.5,828.5,562.3,827.8z"/>
	<path class="st0" d="M642.2,859.5c-0.6,0.2-1.2,0.3-1.7,0.5c-4,1.1-7.8,1.4-12.1,0.7c-1.4-0.2-2.6,0.7-2.8,2.1
		c-0.2,1.4,0.7,2.6,2.1,2.8c1.8,0.3,3.6,0.4,5.3,0.4c3,0,6-0.4,9-1.3c0.5-0.1,1-0.3,1.6-0.4c1.3-0.3,2.1-1.7,1.8-3
		C644.9,859.9,643.6,859.1,642.2,859.5z"/>
	<path class="st0" d="M614.8,856.3c-2.7-1.2-5.6-2.6-8.9-4.4c-1.4-0.8-2.9-1.5-4.3-2.3c-1.2-0.7-2.7-0.2-3.4,1
		c-0.7,1.2-0.2,2.7,1,3.4c1.4,0.8,2.9,1.5,4.3,2.3c3.4,1.8,6.4,3.3,9.2,4.6c0.3,0.1,0.7,0.2,1,0.2l0,0c1,0,1.9-0.6,2.3-1.5
		C616.6,858.4,616.1,856.9,614.8,856.3z"/>
	<path class="st0" d="M588.5,842.5c-4.4-2.4-8.8-4.9-13.1-7.3c-1.2-0.7-2.7-0.2-3.4,1c-0.7,1.2-0.2,2.7,1,3.4
		c4.3,2.4,8.7,4.9,13.1,7.3c0.4,0.2,0.8,0.3,1.2,0.3c0.9,0,1.7-0.5,2.2-1.3C590.1,844.7,589.7,843.1,588.5,842.5z"/>
	<path class="st0" d="M822.6,848.1l-15,0.3c-1.4,0-2.5,1.2-2.5,2.5c0,1.4,1.1,2.5,2.5,2.5c0,0,0,0,0,0l15-0.3c1.4,0,2.5-1.2,2.5-2.5
		C825.2,849.2,824.1,848.1,822.6,848.1z"/>
	<path class="st0" d="M1153.5,839.4l-15,0.6c-1.4,0.1-2.5,1.2-2.4,2.6c0.1,1.4,1.2,2.4,2.5,2.4l0,0c0,0,0.1,0,0.1,0l15-0.6
		c1.4-0.1,2.5-1.2,2.4-2.6C1156,840.5,1154.8,839.4,1153.5,839.4z"/>
	<path class="st0" d="M912.9,846.3C912.9,846.3,912.9,846.3,912.9,846.3l-15.1,0.3c-1.4,0-2.5,1.2-2.5,2.5c0,1.4,1.1,2.5,2.5,2.5
		c0,0,0,0,0,0l15-0.3c1.4,0,2.5-1.2,2.5-2.5C915.4,847.3,914.3,846.3,912.9,846.3z"/>
	<path class="st0" d="M1183.5,838.2c-5,0.2-10.1,0.4-15,0.6c-1.4,0.1-2.5,1.2-2.4,2.6c0.1,1.4,1.2,2.4,2.5,2.4c0,0,0.1,0,0.1,0
		c5-0.2,10-0.4,15-0.6c1.4-0.1,2.5-1.2,2.4-2.6C1186,839.2,1184.8,838.2,1183.5,838.2z"/>
	<path class="st0" d="M1093.4,842.1c-2,0.1-3.3,0.2-4,0.2c-0.5,0-2.9,0.1-11.1,0.3c-1.4,0-2.5,1.2-2.4,2.6c0,1.3,1.2,2.4,2.5,2.4
		l0,0c0,0,0,0,0.1,0c10-0.3,11-0.3,11.3-0.4c0.6,0,1.9-0.1,3.9-0.2c1.4-0.1,2.4-1.2,2.4-2.6S1094.7,842,1093.4,842.1z"/>
	<path class="st0" d="M1213.5,837.1c-4.9,0.2-9.9,0.4-15,0.6c-1.4,0.1-2.5,1.2-2.4,2.6c0.1,1.3,1.2,2.4,2.5,2.4v0c0,0,0.1,0,0.1,0
		c5.1-0.2,10.1-0.4,15-0.6c1.4-0.1,2.5-1.2,2.4-2.6C1216,838.1,1214.9,837,1213.5,837.1z"/>
	<path class="st0" d="M1243.5,836c-4.7,0.2-9.8,0.3-15,0.5c-1.4,0.1-2.5,1.2-2.4,2.6c0.1,1.3,1.2,2.4,2.5,2.4h0c0,0,0.1,0,0.1,0
		c5.2-0.2,10.3-0.4,15-0.5c1.4-0.1,2.5-1.2,2.4-2.6C1246.1,837,1244.9,835.9,1243.5,836z"/>
	<path class="st0" d="M1123.4,840.7c-5.5,0.2-10.6,0.5-15,0.7c-1.4,0.1-2.5,1.2-2.4,2.6c0.1,1.3,1.2,2.4,2.5,2.4l0,0
		c0,0,0.1,0,0.1,0c4.4-0.2,9.5-0.4,15-0.7c1.4-0.1,2.4-1.2,2.4-2.6S1124.8,840.7,1123.4,840.7z"/>
	<path class="st0" d="M973,845C973,845,973,845,973,845l-15.1,0.3c-1.4,0-2.5,1.2-2.5,2.5c0,1.4,1.1,2.5,2.5,2.5c0,0,0,0,0,0l15-0.3
		c1.4,0,2.5-1.2,2.5-2.5C975.5,846.1,974.4,845,973,845z"/>
	<path class="st0" d="M942.9,845.6l-15,0.3c-1.4,0-2.5,1.2-2.5,2.5c0,1.4,1.1,2.5,2.5,2.5c0,0,0,0,0,0l15-0.3c1.4,0,2.5-1.2,2.5-2.5
		C945.4,846.7,944.3,845.6,942.9,845.6z"/>
	<path class="st0" d="M1033.2,843.7C1033.2,843.7,1033.1,843.7,1033.2,843.7l-15.1,0.3c-1.4,0-2.5,1.2-2.4,2.5
		c0,1.4,1.1,2.5,2.5,2.5l0,0c0,0,0.1,0,0.1,0l15-0.3c1.4,0,2.5-1.2,2.4-2.5C1035.7,844.8,1034.5,843.7,1033.2,843.7z"/>
	<path class="st0" d="M1003.1,844.3l-15,0.3c-1.4,0-2.5,1.2-2.5,2.5c0,1.4,1.1,2.5,2.5,2.5l0,0c0,0,0,0,0,0l15-0.3
		c1.4,0,2.5-1.2,2.4-2.5S1004.4,844.3,1003.1,844.3z"/>
	<path class="st0" d="M1063.3,843C1063.3,843,1063.3,843,1063.3,843c-4.6,0.1-9.6,0.2-15.1,0.3c-1.4,0-2.5,1.2-2.4,2.6
		c0,1.4,1.2,2.4,2.5,2.4c0,0,0,0,0.1,0c5.5-0.1,10.5-0.2,15.1-0.3c1.4,0,2.5-1.2,2.4-2.6C1065.8,844.1,1064.7,843,1063.3,843z"/>
	<polygon class="st0" points="1247.1,829.6 1247.6,847 1279.9,837.4 	"/>
</g>
<g id="Mergeline">
	<path class="st1" d="M1322.8,828.6c-4.8,1.1-9.7,2.2-14.6,3c-1.4,0.2-2.3,1.5-2,2.9c0.2,1.2,1.3,2,2.5,2l0,0c0.1,0,0.3,0,0.4,0
		c4.9-0.9,9.9-2,14.8-3.1c1.3-0.3,2.2-1.7,1.9-3C1325.5,829.1,1324.1,828.3,1322.8,828.6z"/>
	<path class="st1" d="M1293.5,833.9c-5.6,0.7-10.5,1-14.2,1h-0.5c-1.4,0-2.5,1.1-2.5,2.5c0,1.4,1.1,2.5,2.5,2.5h0.5v0
		c3.8,0,8.9-0.4,14.8-1.1c1.4-0.2,2.4-1.4,2.2-2.8C1296.2,834.7,1294.9,833.7,1293.5,833.9z"/>
	<path class="st1" d="M1351.3,820.2c-4.6,1.6-9.3,3.1-14.2,4.5c-1.3,0.4-2.1,1.8-1.7,3.1c0.3,1.1,1.3,1.8,2.4,1.8l0,0
		c0.2,0,0.5,0,0.7-0.1c4.9-1.4,9.8-3,14.4-4.6c1.3-0.5,2-1.9,1.5-3.2S1352.6,819.8,1351.3,820.2z"/>
	<path class="st1" d="M1391.2,822.9l-15.4-28.6l-4.4,2.4l6.5,12.1c-4,2.1-8.3,4.2-12.8,6.1c-1.3,0.5-1.9,2-1.3,3.3
		c0.4,0.9,1.3,1.5,2.3,1.5v0c0.3,0,0.7-0.1,1-0.2c4.6-2,9-4.1,13.1-6.3l6.5,12.2L1391.2,822.9z"/>
</g>
</svg>
