<?xml version="1.0" encoding="utf-8"?>
<!-- Generator: Adobe Illustrator 24.0.1, SVG Export Plug-In . SVG Version: 6.00 Build 0)  -->
<svg version="1.1" id="IRL_-_Pit_Road" xmlns="http://www.w3.org/2000/svg" xmlns:xlink="http://www.w3.org/1999/xlink" x="0px"
	 y="0px" viewBox="0 0 1920 1080" style="enable-background:new 0 0 1920 1080;" xml:space="preserve">
<style type="text/css">
	.st0{fill:#016699;}
	.st1{fill:#D82520;}
</style>
<title>pitroad</title>
<g id="Mergeline">
	<path class="st0" d="M827.5,582.6c-13.7,10.7-23.8,18.5-23.8,18.5c-2.2,1.7-2.6,4.8-0.9,7c1,1.3,2.5,1.9,4,1.9c1.1,0,2.2-0.3,3.1-1
		c0,0,10.1-7.8,23.8-18.5c2.2-1.7,2.6-4.8,0.9-7C832.8,581.3,829.7,580.9,827.5,582.6z"/>
	<path class="st0" d="M874.8,545.6c-7.4,5.8-15.6,12.2-23.6,18.5c-2.2,1.7-2.6,4.8-0.9,7c1,1.3,2.5,1.9,3.9,1.9
		c1.1,0,2.2-0.3,3.1-1.1c8.1-6.3,16.3-12.7,23.7-18.6c2.2-1.7,2.5-4.9,0.8-7C880.1,544.2,877,543.9,874.8,545.6z"/>
	<path class="st0" d="M919.7,506.8c-8.9,9.3-17.3,16.6-21.5,20.1c-2.1,1.8-2.4,4.9-0.7,7c1,1.2,2.4,1.8,3.8,1.8
		c1.1,0,2.3-0.4,3.2-1.2c4.4-3.6,13.1-11.2,22.4-20.9c1.9-2,1.8-5.2-0.2-7.1C924.8,504.8,921.6,504.8,919.7,506.8z"/>
	<path class="st0" d="M972.7,498.7l-56.1-32.8l-5,8.6l26.8,15.7c0.3,0.4,0.7,0.7,1.2,1c0.5,0.3,1.1,0.5,1.7,0.6l26.5,15.5
		L972.7,498.7z"/>
</g>
<g id="Pitroad">
	<path class="st1" d="M184.4,612.1c-8.1-5.7-16.8-12-24.4-17.5c-1.1-0.8-2.7-0.6-3.5,0.6c-0.8,1.1-0.6,2.7,0.6,3.5
		c7.5,5.5,16.3,11.9,24.4,17.5c0.4,0.3,0.9,0.5,1.4,0.5c0.8,0,1.6-0.4,2-1.1C185.8,614.5,185.5,612.9,184.4,612.1z"/>
	<path class="st1" d="M235.3,643.5c-10.7-6-19.5-11.1-26-15c-1.2-0.7-2.7-0.3-3.4,0.9c-0.7,1.2-0.3,2.7,0.9,3.4
		c6.6,3.9,15.3,9,26.1,15c0.4,0.2,0.8,0.3,1.2,0.3c0.9,0,1.7-0.5,2.2-1.3C237,645.7,236.5,644.2,235.3,643.5z"/>
	<path class="st1" d="M220.8,514.2c0.8,0,1.6-0.4,2.1-1.1c0.8-1.1,0.5-2.7-0.6-3.5c-8.7-6.1-16.3-11.3-24.6-17
		c-1.1-0.8-2.7-0.5-3.5,0.6s-0.5,2.7,0.6,3.5c8.3,5.7,15.9,10.9,24.6,17C219.8,514,220.3,514.2,220.8,514.2z"/>
	<path class="st1" d="M269.9,548.4c0.8,0,1.6-0.4,2.1-1.1c0.8-1.1,0.5-2.7-0.6-3.5c-9.5-6.6-17.5-12.2-24.6-17.1
		c-1.1-0.8-2.7-0.5-3.5,0.6c-0.8,1.1-0.5,2.7,0.6,3.5c7.1,4.9,15.1,10.5,24.6,17.1C268.9,548.3,269.4,548.4,269.9,548.4z"/>
	<path class="st1" d="M171.3,480.5c0.9,0,1.7-0.4,2.2-1.2c0.7-1.2,0.3-2.7-0.9-3.4c-9.5-5.6-19.1-9.3-28.6-11.1
		c-1.4-0.3-2.7,0.6-2.9,2c-0.3,1.4,0.6,2.7,2,2.9c9,1.7,18,5.2,27,10.5C170.4,480.4,170.9,480.5,171.3,480.5z"/>
	<path class="st1" d="M116.2,467.6c-0.4-1.3-1.8-2.1-3.1-1.7c-10.8,3.2-20,9.3-25.9,17.2c-0.8,1.1-0.6,2.7,0.5,3.5
		c0.4,0.3,1,0.5,1.5,0.5c0.8,0,1.5-0.3,2-1c5.3-7,13.5-12.5,23.3-15.4C115.8,470.3,116.6,469,116.2,467.6z"/>
	<path class="st1" d="M288,672.4c-6.2-3.3-15.7-8.5-26.4-14.4c-1.2-0.7-2.7-0.2-3.4,1c-0.7,1.2-0.2,2.7,1,3.4
		c10.7,5.9,20.3,11.1,26.4,14.4c0.4,0.2,0.8,0.3,1.2,0.3c0.9,0,1.7-0.5,2.2-1.3C289.7,674.6,289.2,673.1,288,672.4z"/>
	<path class="st1" d="M82.1,514.3c0-0.5,0-1,0-1.6c0.1-1.4-1-2.5-2.4-2.6c-1.4-0.1-2.5,1-2.6,2.4c0,0.6,0,1.2,0,1.8
		c0,9.7,3.1,19.1,9.2,27.9c0.5,0.7,1.3,1.1,2.1,1.1c0.5,0,1-0.1,1.4-0.4c1.1-0.8,1.4-2.3,0.6-3.5C84.9,531.4,82.1,523,82.1,514.3z"
		/>
	<path class="st1" d="M135.8,576.9c-7.3-5.3-12.7-9.1-16.9-12c-2-1.4-4.8-3.3-7.6-5.3c-1.1-0.8-2.7-0.6-3.5,0.5
		c-0.8,1.1-0.6,2.7,0.5,3.5c2.9,2.1,5.7,4,7.7,5.4c4.2,2.9,9.5,6.7,16.8,11.9c0.4,0.3,1,0.5,1.5,0.5c0.8,0,1.5-0.4,2-1
		C137.1,579.3,136.9,577.7,135.8,576.9z"/>
	<path class="st1" d="M725.5,635.6C725.5,635.6,725.5,635.6,725.5,635.6c-8.7,0.1-18.8,0.1-30,0.1c-1.4,0-2.5,1.1-2.5,2.5
		c0,1.4,1.1,2.5,2.5,2.5c11.3,0,21.4,0,30-0.1c1.4,0,2.5-1.1,2.5-2.5C728,636.7,726.9,635.6,725.5,635.6z"/>
	<path class="st1" d="M605.5,635.2c-10-0.1-20.1-0.2-30-0.3c0,0,0,0,0,0c-1.4,0-2.5,1.1-2.5,2.5c0,1.4,1.1,2.5,2.5,2.5
		c9.9,0.1,20,0.2,30,0.3c0,0,0,0,0,0c1.4,0,2.5-1.1,2.5-2.5C607.9,636.4,606.8,635.3,605.5,635.2z"/>
	<path class="st1" d="M545.4,634.6c-10.4-0.1-20.5-0.2-30-0.4c-1.4,0-2.5,1.1-2.5,2.5c0,1.4,1.1,2.5,2.5,2.5
		c9.5,0.1,19.6,0.2,30,0.4c0,0,0,0,0,0c1.4,0,2.5-1.1,2.5-2.5C547.9,635.8,546.8,634.6,545.4,634.6z"/>
	<path class="st1" d="M665.5,635.6c-9.7,0-19.8-0.1-30-0.2c0,0,0,0,0,0c-1.4,0-2.5,1.1-2.5,2.5c0,1.4,1.1,2.5,2.5,2.5
		c10.2,0.1,20.3,0.1,30,0.2c0,0,0,0,0,0c1.4,0,2.5-1.1,2.5-2.5C668,636.8,666.9,635.6,665.5,635.6z"/>
	<path class="st1" d="M370.3,610.9c-7-3.7-11.9-6.9-14.3-8.5l0-1.2h-1.7l-9-6.2c-1.1-0.8-2.7-0.5-3.5,0.6c-0.8,1.1-0.5,2.7,0.6,3.5
		l13.6,9.4v-0.1c2.8,1.8,6.9,4.2,12,6.9c0.4,0.2,0.8,0.3,1.2,0.3c0.9,0,1.8-0.5,2.2-1.3C372,613.1,371.5,611.6,370.3,610.9z"/>
	<path class="st1" d="M320.5,578c-9-6.3-17.2-11.9-24.6-17.1c-1.1-0.8-2.7-0.5-3.5,0.6c-0.8,1.1-0.5,2.7,0.6,3.5
		c7.4,5.1,15.6,10.8,24.6,17.1c0.4,0.3,0.9,0.4,1.4,0.4c0.8,0,1.6-0.4,2.1-1.1C321.9,580.4,321.7,578.8,320.5,578z"/>
	<path class="st1" d="M425.8,631.2c-9.4-1.9-18.9-4.6-28.5-8.1c-1.3-0.5-2.7,0.2-3.2,1.5c-0.5,1.3,0.2,2.7,1.5,3.2
		c9.8,3.6,19.6,6.4,29.2,8.3c0.2,0,0.3,0,0.5,0c1.2,0,2.2-0.8,2.4-2C428,632.8,427.1,631.5,425.8,631.2z"/>
	<path class="st1" d="M485.3,633.9c-11.9-0.2-22.2-0.3-30.1-0.4c-1.4,0-2.5,1.1-2.5,2.5c0,1.4,1.1,2.5,2.5,2.5
		c7.9,0.1,18.1,0.3,30.1,0.4c0,0,0,0,0,0c1.4,0,2.5-1.1,2.5-2.5C487.8,635,486.7,633.9,485.3,633.9z"/>
	<path class="st1" d="M806.8,605l-46.9,8.3l14.4,9.7c-7.9,4.7-14.3,7.8-19.8,9.7c-1.3,0.4-2,1.9-1.6,3.2c0.4,1,1.3,1.7,2.4,1.7
		c0.3,0,0.5,0,0.8-0.1c5.9-2,12.6-5.3,21-10.3l3,17.2L806.8,605z"/>
</g>
</svg>
