<?xml version="1.0" encoding="UTF-8"?>
<svg id="Oval_-_Pit_Road" data-name="Oval - Pit Road" xmlns="http://www.w3.org/2000/svg" viewBox="0 0 1920 1080">
  <defs>
    <style>
      .cls-1 {
        fill: #d82520;
      }

      .cls-1, .cls-2 {
        stroke-width: 0px;
      }

      .cls-2 {
        fill: #0089ba;
      }
    </style>
  </defs>
  <g id="Mergeline">
    <path class="cls-2" d="m1436.98,511.26c-3.08,0-6.45-.12-10.04-.37-1.55-.1-2.71-1.44-2.61-2.99.1-1.55,1.45-2.71,2.99-2.61,6.28.42,11.77.46,16.41.12,1.57-.12,2.89,1.04,3.01,2.59.11,1.54-1.04,2.89-2.59,3-2.22.17-4.63.25-7.17.25Zm-26.59-2.11c-.13,0-.26,0-.39-.03-4.97-.68-10.6-1.58-16.74-2.67-1.53-.27-2.54-1.72-2.27-3.25.27-1.52,1.73-2.54,3.25-2.27,6.07,1.07,11.63,1.96,16.53,2.63,1.54.21,2.61,1.63,2.4,3.16-.19,1.4-1.4,2.42-2.78,2.42Zm49.8-1.99c-1.04,0-2.03-.58-2.52-1.57-.68-1.39-.11-3.07,1.28-3.76,4.43-2.18,7.68-5.29,10.87-10.39.82-1.31,2.55-1.71,3.87-.89,1.31.82,1.71,2.55.89,3.87-3.74,5.97-7.79,9.81-13.15,12.45-.4.2-.82.29-1.24.29Zm-82.99-3.78c-.18,0-.37-.02-.55-.05-5.17-1.03-10.73-2.18-16.53-3.43-1.51-.32-2.48-1.82-2.16-3.33.33-1.52,1.82-2.48,3.33-2.16,5.77,1.24,11.31,2.38,16.45,3.41,1.52.3,2.5,1.78,2.2,3.3-.27,1.33-1.44,2.26-2.75,2.26Zm-32.94-7.04c-.2,0-.41-.02-.62-.07-5.43-1.22-10.92-2.48-16.44-3.77-1.51-.35-2.45-1.86-2.1-3.37s1.86-2.45,3.37-2.1c5.5,1.28,10.98,2.54,16.39,3.76,1.51.34,2.46,1.84,2.12,3.35-.29,1.3-1.45,2.19-2.73,2.19Zm-32.81-7.64c-.22,0-.43-.02-.65-.08-5.5-1.31-10.97-2.64-16.38-3.95-1.5-.37-2.43-1.88-2.06-3.39.37-1.5,1.88-2.43,3.39-2.06,5.39,1.31,10.86,2.63,16.35,3.95,1.51.36,2.44,1.87,2.08,3.38-.31,1.29-1.46,2.15-2.73,2.15Zm-32.72-7.96c-.22,0-.45-.03-.67-.08-5.6-1.38-11.07-2.74-16.35-4.05-1.5-.37-2.42-1.89-2.05-3.4.37-1.5,1.89-2.42,3.4-2.05,5.27,1.31,10.74,2.66,16.34,4.04,1.5.37,2.42,1.89,2.05,3.4-.32,1.28-1.46,2.13-2.72,2.13Zm201.07,0c-.36,0-.73-.07-1.08-.22-1.43-.6-2.11-2.24-1.51-3.67,1.95-4.66,3.72-9.91,5.28-15.6.41-1.49,1.96-2.37,3.45-1.96,1.5.41,2.37,1.95,1.97,3.45-1.62,5.92-3.47,11.39-5.51,16.27-.45,1.08-1.49,1.73-2.59,1.73Zm-233.75-8.09c-.22,0-.45-.03-.68-.08-5.86-1.45-11.34-2.8-16.33-4.01-1.51-.37-2.43-1.88-2.06-3.39.37-1.5,1.88-2.43,3.39-2.06,5,1.22,10.49,2.57,16.36,4.02,1.5.37,2.42,1.89,2.05,3.4-.32,1.28-1.46,2.13-2.72,2.13Zm242.78-24.28c-.16,0-.32-.01-.48-.04-1.53-.26-2.55-1.71-2.29-3.24.93-5.41,1.62-10.95,2.06-16.45.12-1.54,1.47-2.69,3.02-2.57,1.54.12,2.7,1.48,2.57,3.02-.45,5.67-1.17,11.37-2.13,16.95-.23,1.37-1.42,2.33-2.76,2.33Zm2.66-33.51c-1.53,0-2.79-1.23-2.8-2.77-.07-5.57-.41-11.13-1-16.52-.17-1.54.94-2.93,2.48-3.1,1.53-.17,2.93.94,3.1,2.48.62,5.57.96,11.31,1.04,17.07.02,1.55-1.22,2.82-2.77,2.84h-.04Zm-3.76-33.38c-1.28,0-2.43-.88-2.73-2.17-1.19-5.17-2.82-10.45-4.85-15.68-.56-1.44.16-3.07,1.61-3.63,1.44-.56,3.07.16,3.63,1.61,2.12,5.48,3.83,11.01,5.08,16.44.35,1.51-.59,3.02-2.1,3.36-.21.05-.42.07-.63.07Zm-11.97-31.35c-1,0-1.97-.54-2.48-1.49-2.52-4.74-5.39-9.51-8.52-14.17-.87-1.29-.52-3.03.76-3.89,1.29-.86,3.03-.52,3.89.76,3.25,4.82,6.21,9.76,8.82,14.67.73,1.37.21,3.07-1.16,3.79-.42.22-.87.33-1.32.33Zm-18.71-27.93c-.81,0-1.62-.35-2.18-1.03-3.45-4.23-7.15-8.4-11.02-12.41-1.08-1.11-1.05-2.89.07-3.97s2.89-1.05,3.97.07c3.97,4.12,7.79,8.41,11.33,12.76.98,1.2.8,2.97-.4,3.95-.52.42-1.15.63-1.77.63Zm-23.35-24.21c-.66,0-1.32-.23-1.85-.7-4.17-3.67-8.51-7.18-12.9-10.45-1.24-.92-1.5-2.68-.58-3.93.92-1.24,2.68-1.5,3.92-.58,4.51,3.36,8.97,6.97,13.26,10.74,1.16,1.02,1.28,2.8.25,3.96-.55.63-1.33.95-2.11.95Zm-27.04-19.99c-.49,0-.99-.13-1.44-.4-4.52-2.71-9.43-5.35-14.6-7.84-1.4-.67-1.98-2.35-1.31-3.75.67-1.4,2.35-1.98,3.75-1.31,5.32,2.57,10.39,5.29,15.05,8.08,1.33.8,1.76,2.52.96,3.85-.53.88-1.46,1.36-2.41,1.36Zm-30.25-14.71c-.34,0-.69-.06-1.03-.2-4.97-1.97-10.24-3.89-15.66-5.68-1.47-.49-2.27-2.07-1.78-3.55.49-1.47,2.08-2.27,3.54-1.78,5.52,1.83,10.9,3.78,15.97,5.79,1.44.57,2.14,2.2,1.57,3.64-.44,1.1-1.49,1.77-2.61,1.77Zm-31.92-10.63c-.25,0-.5-.03-.75-.1-5.23-1.45-10.69-2.84-16.21-4.13-1.51-.35-2.45-1.86-2.1-3.37.35-1.51,1.86-2.45,3.37-2.1,5.6,1.3,11.14,2.71,16.44,4.19,1.49.42,2.37,1.96,1.95,3.45-.35,1.24-1.47,2.05-2.7,2.05Zm-32.8-7.67c-.18,0-.36-.02-.54-.05-5.4-1.05-10.95-2.02-16.49-2.89-1.53-.24-2.58-1.68-2.33-3.21.24-1.53,1.67-2.58,3.21-2.33,5.6.88,11.22,1.87,16.68,2.93,1.52.29,2.52,1.77,2.22,3.29-.26,1.34-1.43,2.27-2.75,2.27Zm-33.26-5.26c-.12,0-.23,0-.35-.02-5.56-.69-11.17-1.29-16.65-1.78-1.54-.14-2.68-1.5-2.54-3.04.14-1.54,1.51-2.68,3.04-2.54,5.55.5,11.22,1.1,16.84,1.8,1.54.19,2.63,1.59,2.44,3.13-.18,1.42-1.39,2.46-2.78,2.46Zm-33.55-2.98s-.1,0-.15,0c-3.9-.2-7.71-.34-11.3-.41-1.55-.03-2.78-1.31-2.75-2.86.03-1.55,1.34-2.78,2.86-2.75,3.66.07,7.52.21,11.48.42,1.55.08,2.74,1.4,2.66,2.95-.08,1.5-1.32,2.66-2.8,2.66Z"/>
    <rect class="cls-2" x="1215.25" y="230.78" width="36.47" height="5.61" transform="translate(952.96 1457.25) rotate(-87.81)"/>
  </g>
  <g id="Pitroad">
    <path class="cls-1" d="m1231.97,469.17c-.22,0-.44-.03-.67-.08l-2.27-.55c-.12-.03-.91-.18-4.55-.38-1.55-.09-2.73-1.41-2.64-2.96.09-1.55,1.39-2.73,2.96-2.64,3.85.22,4.97.39,5.55.53l2.28.55c1.5.37,2.43,1.88,2.06,3.39-.31,1.28-1.46,2.14-2.72,2.14Zm-24.24-1.65s-.05,0-.08,0c-4.93-.14-10.58-.28-16.89-.42-1.55-.03-2.78-1.32-2.74-2.87.03-1.53,1.28-2.74,2.8-2.74.02,0,.04,0,.06,0,6.32.14,11.99.28,16.92.42,1.55.04,2.77,1.34,2.72,2.88-.04,1.52-1.29,2.73-2.8,2.73Zm-33.8-.77s-.04,0-.05,0c-5.33-.1-10.97-.2-16.88-.3-1.55-.03-2.78-1.3-2.76-2.85.03-1.55,1.29-2.78,2.85-2.76,5.91.1,11.55.2,16.89.3,1.55.03,2.78,1.31,2.75,2.86-.03,1.53-1.28,2.75-2.8,2.75Zm-33.76-.57s-.03,0-.04,0c-5.46-.08-11.09-.17-16.87-.25-1.55-.02-2.79-1.3-2.76-2.84.02-1.55,1.26-2.8,2.84-2.77,5.79.08,11.42.17,16.88.25,1.55.02,2.79,1.3,2.76,2.85-.02,1.53-1.27,2.76-2.8,2.76Zm-33.75-.48h-.04c-5.52-.07-11.14-.15-16.87-.22-1.55-.02-2.79-1.29-2.77-2.84s1.29-2.78,2.84-2.77c5.72.07,11.35.15,16.87.22,1.55.02,2.79,1.29,2.77,2.84-.02,1.54-1.27,2.77-2.8,2.77Zm-33.74-.43h-.04l-16.86-.2c-1.55-.02-2.79-1.29-2.77-2.84.02-1.54,1.27-2.77,2.8-2.77h.03l16.87.2c1.55.02,2.79,1.29,2.77,2.84-.02,1.54-1.27,2.77-2.8,2.77Zm-33.73-.39h-.03l-16.86-.18c-1.55-.02-2.79-1.29-2.77-2.84.02-1.55,1.3-2.81,2.83-2.77l16.87.18c1.55.02,2.79,1.29,2.77,2.84-.02,1.54-1.27,2.77-2.8,2.77Zm-33.73-.36h-.03l-16.86-.17c-1.55-.02-2.79-1.28-2.78-2.83s1.27-2.75,2.83-2.78l16.86.17c1.55.02,2.79,1.29,2.78,2.83-.02,1.54-1.27,2.78-2.8,2.78Zm-33.76-.34h-.03l-16.85-.16c-1.55-.01-2.79-1.28-2.78-2.83.01-1.54,1.27-2.78,2.8-2.78h.03l16.85.16c1.55.02,2.79,1.28,2.78,2.83-.01,1.54-1.27,2.78-2.8,2.78Zm-33.71-.32h-.03l-16.86-.15c-1.55-.01-2.79-1.28-2.78-2.83.01-1.55,1.25-2.79,2.83-2.78l16.86.15c1.55.01,2.79,1.28,2.78,2.83-.01,1.54-1.27,2.78-2.8,2.78Zm-33.73-.3h-.03l-16.87-.15c-1.55-.01-2.79-1.28-2.78-2.83.01-1.54,1.27-2.78,2.8-2.78h.02l16.87.15c1.55.01,2.79,1.28,2.78,2.83-.01,1.54-1.27,2.78-2.8,2.78Zm-33.73-.29h-.02l-16.87-.14c-1.55-.01-2.79-1.28-2.78-2.83.01-1.54,1.27-2.78,2.8-2.78h.02l16.87.14c1.55.01,2.79,1.28,2.78,2.83-.01,1.54-1.27,2.78-2.8,2.78Zm-33.74-.28h-.02l-16.88-.14c-1.55-.01-2.79-1.28-2.78-2.83.01-1.55,1.27-2.83,2.83-2.78l16.88.14c1.55.01,2.79,1.28,2.78,2.83-.01,1.54-1.27,2.78-2.8,2.78Zm-33.76-.27h-.02l-16.89-.13c-1.55-.01-2.8-1.28-2.78-2.83.01-1.54,1.27-2.78,2.8-2.78h.02l16.89.13c1.55.01,2.8,1.28,2.78,2.83-.01,1.54-1.27,2.78-2.8,2.78Zm-33.79-.27h-.02l-16.92-.13c-1.55-.01-2.8-1.28-2.78-2.83.01-1.54,1.27-2.78,2.8-2.78h.02l16.91.13c1.55.01,2.8,1.28,2.78,2.83-.01,1.54-1.27,2.78-2.8,2.78Zm-33.83-.34s-.09,0-.14,0c-6.09-.29-11.87-1.21-17.2-2.73-1.49-.42-2.35-1.98-1.93-3.47.43-1.49,1.98-2.35,3.47-1.93,4.91,1.4,10.27,2.25,15.93,2.52,1.55.07,2.74,1.39,2.67,2.94-.07,1.5-1.31,2.67-2.8,2.67Zm-31.87-9.44c-.52,0-1.04-.14-1.51-.44-4.92-3.13-9.37-7.04-13.23-11.6-1-1.18-.85-2.95.33-3.95,1.18-1,2.95-.85,3.95.33,3.5,4.13,7.52,7.66,11.96,10.49,1.31.83,1.69,2.57.86,3.87-.54.84-1.44,1.3-2.37,1.3Zm-21.65-25.17c-1.04,0-2.05-.59-2.53-1.59-2.41-5.01-4.38-10.51-5.87-16.34-.38-1.5.52-3.03,2.03-3.41,1.5-.38,3.03.52,3.41,2.03,1.39,5.47,3.24,10.62,5.49,15.29.67,1.4.08,3.07-1.31,3.74-.39.19-.81.28-1.21.28Zm-8.47-32.41c-1.44,0-2.66-1.1-2.79-2.56-.28-3.19-.42-6.42-.42-9.58,0-2.63.1-5.22.29-7.7.12-1.54,1.46-2.7,3.01-2.58,1.54.12,2.7,1.47,2.58,3.01-.18,2.33-.27,4.78-.27,7.27,0,3,.13,6.06.4,9.09.13,1.54-1.01,2.9-2.55,3.04-.08,0-.17.01-.25.01Zm3.35-33.24c-.3,0-.6-.05-.9-.15-1.47-.5-2.25-2.09-1.76-3.56,1.76-5.18,4.13-10.5,7.05-15.8.75-1.36,2.46-1.85,3.81-1.1,1.36.75,1.85,2.45,1.1,3.81-2.76,5.01-5,10.02-6.65,14.9-.4,1.17-1.49,1.91-2.66,1.91Zm15.97-29.48c-.58,0-1.17-.18-1.67-.55-1.24-.92-1.51-2.68-.58-3.92,3.28-4.43,6.97-8.86,10.96-13.16,1.05-1.14,2.83-1.2,3.96-.15,1.14,1.05,1.21,2.83.15,3.96-3.85,4.16-7.4,8.43-10.57,12.69-.55.74-1.4,1.13-2.26,1.13Zm22.77-24.72c-.77,0-1.53-.31-2.09-.93-1.04-1.15-.94-2.93.21-3.96,4.12-3.7,8.54-7.36,13.13-10.87,1.23-.94,2.99-.71,3.93.53.94,1.23.71,2.99-.53,3.93-4.48,3.42-8.78,6.98-12.79,10.58-.54.48-1.21.72-1.87.72Zm26.69-20.46c-.91,0-1.81-.44-2.35-1.26-.85-1.29-.49-3.03.8-3.89,4.63-3.05,9.51-6.04,14.49-8.89,1.34-.77,3.06-.3,3.83,1.04.77,1.34.3,3.06-1.04,3.83-4.88,2.79-9.65,5.72-14.19,8.71-.48.31-1.01.46-1.54.46Zm29.62-15.86c-1.13,0-2.2-.69-2.63-1.82-.55-1.45.19-3.07,1.64-3.61,4.79-1.8,10.26-3.59,16.25-5.3,1.49-.43,3.04.44,3.47,1.93.43,1.49-.44,3.04-1.93,3.47-5.84,1.67-11.16,3.4-15.81,5.15-.33.12-.66.18-.99.18Zm32.36-9.44c-1.27,0-2.43-.87-2.73-2.17-.35-1.51.58-3.02,2.09-3.37,5.18-1.21,10.76-2.41,16.58-3.57,1.52-.3,3,.68,3.3,2.2.3,1.52-.68,3-2.2,3.3-5.76,1.15-11.28,2.34-16.4,3.53-.21.05-.43.07-.64.07Zm33.07-6.64c-1.34,0-2.52-.96-2.76-2.33-.27-1.53.76-2.98,2.28-3.24,5.34-.93,10.96-1.84,16.7-2.73,1.53-.24,2.96.81,3.2,2.35.24,1.53-.81,2.96-2.35,3.2-5.71.88-11.29,1.79-16.59,2.71-.16.03-.32.04-.48.04Zm33.34-5.15c-1.38,0-2.58-1.02-2.78-2.42-.21-1.54.86-2.95,2.4-3.16,5.39-.74,11.03-1.48,16.77-2.2,1.55-.19,2.94.9,3.13,2.44.19,1.54-.9,2.94-2.44,3.13-5.72.71-11.33,1.45-16.7,2.19-.13.02-.26.03-.39.03Zm33.48-4.18c-1.41,0-2.62-1.06-2.78-2.49-.17-1.54.93-2.93,2.47-3.1,5.46-.62,11.11-1.23,16.8-1.81,1.53-.16,2.92.96,3.08,2.5.16,1.54-.96,2.92-2.5,3.08-5.67.58-11.3,1.19-16.74,1.81-.11.01-.21.02-.32.02Zm33.56-3.46c-1.43,0-2.65-1.09-2.79-2.54-.14-1.54.99-2.91,2.53-3.06,5.51-.52,11.17-1.02,16.83-1.51,1.54-.13,2.9,1.01,3.03,2.56.13,1.54-1.01,2.9-2.56,3.03-5.64.48-11.29.99-16.78,1.5-.09,0-.18.01-.27.01Zm33.62-2.88c-1.45,0-2.68-1.12-2.79-2.59-.12-1.54,1.04-2.89,2.58-3.01,6.03-.47,11.67-.88,16.85-1.25,1.55-.11,2.89,1.06,3,2.6.11,1.55-1.06,2.89-2.6,2.99-5.17.36-10.8.77-16.81,1.24-.07,0-.15,0-.22,0Zm33.67-2.36c-1.47,0-2.71-1.14-2.8-2.63-.1-1.55,1.08-2.88,2.63-2.97,10.56-.65,16.91-.96,16.97-.96,1.57-.08,2.86,1.12,2.94,2.67.07,1.55-1.12,2.86-2.67,2.94-.06,0-6.38.31-16.89.96-.06,0-.12,0-.18,0Z"/>
    <polygon class="cls-1" points="1223.16 474.37 1260.93 473.52 1227.79 455.37 1223.16 474.37"/>
  </g>
</svg>