<?xml version="1.0" encoding="UTF-8"?>
<svg id="Dirt_-_Pit_Road" data-name="Dirt - Pit Road" xmlns="http://www.w3.org/2000/svg" viewBox="0 0 1920 1080">
  <defs>
    <style>
      .cls-1 {
        fill: #d82520;
      }

      .cls-1, .cls-2 {
        stroke-width: 0px;
      }

      .cls-2 {
        fill: #0089ba;
      }
    </style>
  </defs>
  <g id="Mergeline">
    <path class="cls-2" d="m170.25,559.94c-1.15,0-2.19-.8-2.44-1.97-.34-1.57-.87-4.16-1.44-7.53-.23-1.36.68-2.65,2.04-2.88,1.37-.22,2.65.68,2.88,2.04.56,3.29,1.07,5.79,1.4,7.31.29,1.35-.56,2.68-1.91,2.97-.18.04-.36.06-.53.06Zm-3.46-22.29c-1.26,0-2.35-.95-2.48-2.24-.52-4.97-.91-10.05-1.15-15.1-.07-1.38,1-2.55,2.38-2.62,1.38-.06,2.55,1,2.62,2.38.24,4.95.62,9.94,1.13,14.81.14,1.37-.85,2.6-2.22,2.75-.09,0-.18.01-.27.01Z"/>
    <rect class="cls-2" x="154.03" y="554.93" width="32.5" height="5" transform="translate(-114.98 49.15) rotate(-12.32)"/>
  </g>
  <g id="Pitroad">
    <path class="cls-1" d="m167.61,474.42c-.14,0-.28-.01-.42-.03-1.36-.23-2.28-1.52-2.05-2.88.75-4.47,1.68-9.32,2.86-14.84.29-1.35,1.61-2.21,2.97-1.92,1.35.29,2.21,1.62,1.92,2.97-1.16,5.44-2.08,10.22-2.82,14.62-.2,1.22-1.26,2.09-2.46,2.09Zm6.38-29.31c-.22,0-.45-.03-.68-.09-1.33-.37-2.1-1.75-1.73-3.08,1.37-4.88,2.94-9.75,4.66-14.47.47-1.3,1.91-1.96,3.21-1.49,1.3.47,1.96,1.91,1.49,3.21-1.68,4.59-3.2,9.34-4.54,14.1-.31,1.1-1.31,1.83-2.41,1.83Zm260.8-7.31c-.34,0-.68-.07-1.01-.22-1.26-.56-1.83-2.04-1.27-3.3l.67-1.51c1.71-3.82,3.33-7.43,4.29-12.04.28-1.35,1.6-2.22,2.95-1.94,1.35.28,2.22,1.6,1.94,2.95-1.06,5.15-2.87,9.18-4.62,13.07l-.67,1.49c-.41.93-1.33,1.49-2.29,1.49Zm-250.51-20.86c-.35,0-.7-.07-1.04-.23-1.26-.57-1.81-2.06-1.23-3.31,2.12-4.63,4.43-9.19,6.89-13.56.68-1.2,2.2-1.63,3.4-.96,1.2.68,1.63,2.2.96,3.4-2.39,4.25-4.64,8.69-6.7,13.19-.42.92-1.33,1.46-2.27,1.46Zm256.4-8.12c-1.3,0-2.4-1.01-2.49-2.33-.25-3.58-.78-7.6-1.57-11.97-.15-.85-.32-1.68-.5-2.51-.29-1.35.57-2.68,1.92-2.97,1.35-.29,2.68.57,2.97,1.92.19.88.37,1.77.53,2.67.84,4.61,1.37,8.7,1.64,12.52.1,1.38-.94,2.57-2.32,2.67-.06,0-.12,0-.18,0Zm-241.71-18c-.48,0-.98-.14-1.41-.43-1.14-.78-1.44-2.33-.66-3.47,2.87-4.2,5.94-8.3,9.13-12.18.88-1.07,2.45-1.22,3.52-.34,1.07.88,1.22,2.45.34,3.52-3.1,3.76-6.08,7.74-8.86,11.82-.48.71-1.27,1.09-2.07,1.09Zm235.13-11.12c-.98,0-1.91-.58-2.31-1.54-1.83-4.41-4.1-8.74-6.75-12.88-.74-1.16-.4-2.71.76-3.45,1.16-.74,2.71-.4,3.45.76,2.8,4.38,5.21,8.98,7.15,13.65.53,1.27-.07,2.74-1.35,3.27-.31.13-.64.19-.96.19Zm-216.07-11.99c-.64,0-1.27-.24-1.76-.73-.98-.97-.98-2.56-.01-3.54,1.95-1.96,3.98-3.9,6.02-5.75,1.68-1.52,3.43-3.04,5.21-4.53,1.06-.88,2.64-.74,3.52.32.88,1.06.74,2.64-.32,3.52-1.73,1.44-3.43,2.92-5.05,4.39-1.98,1.8-3.95,3.67-5.84,5.57-.49.49-1.13.74-1.77.74Zm200.06-13.22c-.69,0-1.38-.28-1.87-.84-3.16-3.56-6.68-7.01-10.47-10.25-1.05-.9-1.17-2.48-.27-3.52.9-1.05,2.48-1.17,3.52-.27,3.96,3.39,7.65,7,10.96,10.73.92,1.03.82,2.61-.21,3.53-.48.42-1.07.63-1.66.63Zm-177.08-6.02c-.79,0-1.56-.37-2.05-1.06-.79-1.13-.52-2.69.61-3.48,4.11-2.89,8.41-5.66,12.77-8.24,1.19-.7,2.72-.31,3.42.88.7,1.19.31,2.72-.88,3.42-4.25,2.51-8.44,5.21-12.44,8.03-.44.31-.94.45-1.43.45Zm154.39-13.51c-.48,0-.96-.14-1.38-.42-4.17-2.77-8.44-5.26-12.72-7.4-1.23-.62-1.73-2.12-1.11-3.36.62-1.23,2.12-1.73,3.36-1.11,4.45,2.23,8.91,4.83,13.24,7.71,1.15.76,1.46,2.32.7,3.47-.48.72-1.28,1.12-2.08,1.12Zm-128.59-1.75c-.92,0-1.81-.51-2.25-1.4-.61-1.24-.1-2.74,1.14-3.35,4.58-2.25,9.26-4.31,13.91-6.14,1.28-.51,2.74.13,3.24,1.41.51,1.29-.13,2.74-1.41,3.24-4.52,1.78-9.08,3.79-13.54,5.98-.35.17-.73.26-1.1.26Zm27.91-10.93c-1.08,0-2.08-.71-2.4-1.79-.39-1.32.37-2.71,1.69-3.1,4.94-1.45,9.92-2.67,14.81-3.6,1.36-.26,2.67.63,2.92,1.99.26,1.36-.63,2.67-1.99,2.92-4.73.9-9.55,2.08-14.33,3.48-.24.07-.47.1-.71.1Zm73.85-.6c-.26,0-.52-.04-.78-.13-4.58-1.51-9.36-2.71-14.19-3.57-1.36-.24-2.27-1.54-2.02-2.9.24-1.36,1.53-2.27,2.9-2.02,5.06.9,10.07,2.16,14.88,3.75,1.31.43,2.02,1.85,1.59,3.16-.35,1.05-1.32,1.72-2.37,1.72Zm-44.42-4.97c-1.29,0-2.38-.99-2.49-2.3-.11-1.38.92-2.58,2.29-2.69,5.15-.41,10.31-.52,15.29-.31,1.38.06,2.45,1.22,2.39,2.6-.06,1.38-1.21,2.44-2.6,2.39-4.78-.2-9.73-.1-14.68.3-.07,0-.14,0-.2,0Z"/>
    <polygon class="cls-1" points="157.64 478.01 165.37 510.77 175.06 478.53 157.64 478.01"/>
  </g>
</svg>