<?xml version="1.0" encoding="UTF-8"?>
<svg id="Legends_-_Pit_Road" data-name="Legends - Pit Road" xmlns="http://www.w3.org/2000/svg" viewBox="0 0 1920 1080">
  <defs>
    <style>
      .cls-1 {
        fill: #d82520;
      }

      .cls-1, .cls-2 {
        stroke-width: 0px;
      }

      .cls-2 {
        fill: #0089ba;
      }
    </style>
  </defs>
  <g id="Mergeline">
    <path class="cls-2" d="m918.93,636.88c-.23,0-.46-.03-.69-.1-4.93-1.42-9.77-3.28-14.38-5.54-1.24-.61-1.75-2.1-1.15-3.34.61-1.24,2.1-1.75,3.34-1.15,4.35,2.13,8.91,3.89,13.56,5.22,1.33.38,2.09,1.77,1.71,3.09-.31,1.1-1.31,1.81-2.4,1.81Zm-26.8-13.12c-.51,0-1.03-.16-1.47-.48-4.15-3.03-8.05-6.44-11.61-10.14-.96-1-.92-2.58.07-3.54,1-.96,2.58-.92,3.53.07,3.35,3.49,7.04,6.71,10.95,9.57,1.12.81,1.36,2.38.54,3.49-.49.67-1.25,1.03-2.02,1.03Zm-20.66-21.53c-.81,0-1.6-.39-2.08-1.11-2.86-4.27-5.35-8.82-7.42-13.52-.56-1.26.02-2.74,1.28-3.29,1.26-.56,2.74.02,3.29,1.28,1.95,4.43,4.3,8.72,6.99,12.75.77,1.15.46,2.7-.69,3.47-.43.29-.91.42-1.39.42Zm-12.01-27.33c-1.13,0-2.15-.77-2.43-1.91-1.22-5-2-10.12-2.32-15.24-.09-1.38.96-2.57,2.34-2.65,1.39-.07,2.57.96,2.65,2.34.31,4.83,1.04,9.66,2.19,14.38.33,1.34-.5,2.69-1.84,3.02-.2.05-.4.07-.59.07Zm-1.88-29.78c-.09,0-.19,0-.28-.02-1.37-.16-2.36-1.39-2.2-2.77.58-5.1,1.61-10.18,3.07-15.11.39-1.32,1.78-2.08,3.11-1.69,1.32.39,2.08,1.78,1.69,3.11-1.38,4.65-2.35,9.44-2.89,14.25-.14,1.28-1.23,2.22-2.48,2.22Zm8.47-28.62c-.38,0-.76-.08-1.11-.26-1.24-.62-1.74-2.12-1.12-3.35,2.3-4.6,5.01-9.02,8.07-13.14.82-1.11,2.39-1.34,3.5-.52,1.11.82,1.34,2.39.52,3.5-2.88,3.89-5.44,8.06-7.61,12.39-.44.88-1.32,1.38-2.24,1.38Zm17.79-23.97c-.66,0-1.33-.26-1.82-.78-.95-1-.9-2.59.1-3.53,3.73-3.52,7.8-6.73,12.1-9.56,1.15-.76,2.7-.44,3.46.72.76,1.15.44,2.7-.72,3.46-4.06,2.67-7.9,5.7-11.41,9.02-.48.46-1.1.68-1.72.68Z"/>
    <rect class="cls-2" x="916.27" y="634.55" width="32.5" height="5" transform="translate(182.42 1481.31) rotate(-82.72)"/>
  </g>
  <g id="Pitroad">
    <path class="cls-1" d="m1200.15,639.77c-1.28,0-2.37-.98-2.49-2.28-.12-1.38.89-2.59,2.27-2.71,4.84-.43,9.65-1.28,14.32-2.54,1.33-.36,2.71.43,3.07,1.76.36,1.33-.43,2.71-1.76,3.07-4.95,1.33-10.06,2.24-15.18,2.7-.08,0-.15,0-.22,0Zm28.82-7.78c-.94,0-1.84-.53-2.26-1.44-.59-1.25-.05-2.74,1.2-3.33,4.38-2.06,8.61-4.52,12.57-7.32,1.13-.8,2.69-.53,3.48.6.8,1.13.53,2.69-.6,3.48-4.19,2.96-8.68,5.57-13.33,7.76-.34.16-.71.24-1.06.24Zm24.38-17.21c-.64,0-1.27-.24-1.76-.72-.98-.97-.99-2.55-.02-3.54,3.41-3.44,6.54-7.2,9.29-11.18.79-1.14,2.35-1.42,3.48-.63,1.14.79,1.42,2.34.63,3.48-2.92,4.22-6.24,8.21-9.85,11.86-.49.49-1.13.74-1.78.74Zm16.98-24.53c-.35,0-.7-.07-1.04-.23-1.25-.58-1.81-2.06-1.23-3.31,1.89-4.12,3.45-8.44,4.65-12.83l.23-.87c.35-1.34,1.71-2.13,3.05-1.79,1.33.35,2.13,1.72,1.79,3.05l-.25.92c-1.27,4.66-2.92,9.23-4.93,13.6-.42.92-1.33,1.46-2.27,1.46Zm7.52-28.88c-.07,0-.13,0-.2,0-1.38-.11-2.4-1.31-2.29-2.69.17-2.17.26-4.38.26-6.57,0-2.65-.13-5.33-.38-7.97-.13-1.37.87-2.6,2.25-2.73,1.39-.13,2.6.87,2.73,2.25.27,2.81.41,5.65.41,8.46,0,2.32-.09,4.66-.28,6.96-.1,1.31-1.2,2.3-2.49,2.3Zm-2.88-29.71c-1.09,0-2.1-.72-2.41-1.83-1.3-4.66-3.02-9.24-5.12-13.61-.6-1.25-.07-2.74,1.17-3.33s2.74-.07,3.33,1.17c2.22,4.63,4.04,9.49,5.42,14.43.37,1.33-.41,2.71-1.74,3.08-.22.06-.45.09-.67.09Zm-12.9-26.91c-.78,0-1.54-.36-2.03-1.04-2.82-3.93-6.01-7.64-9.48-11.02-.99-.96-1.01-2.55-.04-3.54.97-.99,2.55-1.01,3.54-.04,3.68,3.58,7.06,7.52,10.05,11.69.8,1.12.55,2.68-.57,3.49-.44.32-.95.47-1.46.47Zm-21.37-20.83c-.48,0-.97-.14-1.4-.43-.37-.25-.74-.5-1.11-.74l-6.41-4.21c-1.61-1.06-3.27-2.07-4.94-3-1.2-.68-1.63-2.2-.96-3.4.67-1.2,2.2-1.63,3.4-.96,1.77.99,3.53,2.07,5.24,3.19l6.41,4.21c.4.26.79.52,1.18.79,1.14.78,1.44,2.33.66,3.47-.48.71-1.27,1.09-2.07,1.09Zm-26.29-14.23c-.27,0-.55-.04-.83-.14-4.57-1.6-9.31-2.8-14.09-3.58-1.36-.22-2.29-1.51-2.07-2.87s1.5-2.29,2.87-2.07c5.07.82,10.1,2.1,14.94,3.79,1.3.46,1.99,1.88,1.54,3.18-.36,1.03-1.33,1.68-2.36,1.68Zm-284.08-2.64c-1.15,0-2.18-.79-2.44-1.96-.3-1.35.55-2.68,1.9-2.98,5.01-1.12,10.16-1.8,15.29-2.02,1.4-.04,2.55,1.01,2.61,2.39.06,1.38-1.01,2.55-2.39,2.61-4.84.21-9.69.85-14.42,1.91-.18.04-.37.06-.55.06Zm134.85-2.05h-15c-1.38,0-2.5-1.12-2.5-2.5s1.12-2.5,2.5-2.5h15c1.38,0,2.5,1.12,2.5,2.5s-1.12,2.5-2.5,2.5Zm-30,0h-15c-1.38,0-2.5-1.12-2.5-2.5s1.12-2.5,2.5-2.5h15c1.38,0,2.5,1.12,2.5,2.5s-1.12,2.5-2.5,2.5Zm-30,0h-15c-1.38,0-2.5-1.12-2.5-2.5s1.12-2.5,2.5-2.5h15c1.38,0,2.5,1.12,2.5,2.5s-1.12,2.5-2.5,2.5Zm-30,0h-15c-1.38,0-2.5-1.12-2.5-2.5s1.12-2.5,2.5-2.5h15c1.38,0,2.5,1.12,2.5,2.5s-1.12,2.5-2.5,2.5Zm209.76-.1h-15c-1.38,0-2.5-1.12-2.5-2.5s1.12-2.5,2.5-2.5h15c1.38,0,2.5,1.12,2.5,2.5s-1.12,2.5-2.5,2.5Zm-30,0h-15c-1.38,0-2.5-1.12-2.5-2.5s1.12-2.5,2.5-2.5h15c1.38,0,2.5,1.12,2.5,2.5s-1.12,2.5-2.5,2.5Zm-30,0h-15c-1.38,0-2.5-1.12-2.5-2.5s1.12-2.5,2.5-2.5h15c1.38,0,2.5,1.12,2.5,2.5s-1.12,2.5-2.5,2.5Zm-30,0h-15c-1.38,0-2.5-1.12-2.5-2.5s1.12-2.5,2.5-2.5h15c1.38,0,2.5,1.12,2.5,2.5s-1.12,2.5-2.5,2.5Z"/>
    <polygon class="cls-1" points="928.39 455.64 902 476.54 935.31 471.64 928.39 455.64"/>
  </g>
</svg>