<?xml version="1.0" encoding="UTF-8"?>
<svg id="Dirt_Mini_-_Pit_Road" data-name="Dirt Mini - Pit Road" xmlns="http://www.w3.org/2000/svg" viewBox="0 0 1920 1080">
  <defs>
    <style>
      .cls-1 {
        fill: #d82520;
      }

      .cls-1, .cls-2 {
        stroke-width: 0px;
      }

      .cls-2 {
        fill: #0089ba;
      }
    </style>
  </defs>
  <g id="Pitroad">
    <path class="cls-1" d="m296.9,710.66c-.1,0-.19,0-.29-.02l-6.68-.78c-2.84-.33-5.67-.83-8.43-1.5-1.34-.32-2.17-1.67-1.85-3.01.32-1.34,1.67-2.17,3.02-1.85,2.56.62,5.2,1.08,7.84,1.39l6.69.78c1.37.16,2.35,1.4,2.19,2.77-.15,1.27-1.23,2.21-2.48,2.21Zm-28.91-7.3c-.37,0-.75-.08-1.1-.26-4.64-2.28-9.04-5.09-13.09-8.35-1.08-.87-1.25-2.44-.38-3.52.87-1.08,2.44-1.25,3.52-.38,3.76,3.02,7.85,5.63,12.16,7.75,1.24.61,1.75,2.11,1.14,3.35-.43.88-1.32,1.4-2.25,1.4Zm-23.18-18.66c-.73,0-1.46-.32-1.96-.94-3.23-4.05-6.03-8.46-8.3-13.11-.61-1.24-.09-2.74,1.15-3.34,1.24-.61,2.74-.09,3.34,1.15,2.11,4.32,4.71,8.42,7.71,12.18.86,1.08.69,2.65-.39,3.51-.46.37-1.01.55-1.56.55Zm-13.06-26.72c-1.13,0-2.16-.77-2.43-1.92-1.2-5.03-1.84-10.21-1.91-15.4-.02-1.38,1.09-2.51,2.47-2.53h.03c1.37,0,2.48,1.1,2.5,2.47.06,4.82.66,9.63,1.77,14.3.32,1.34-.51,2.69-1.85,3.01-.19.05-.39.07-.58.07Zm-.67-29.79c-.1,0-.19,0-.29-.02-1.37-.16-2.35-1.4-2.19-2.77l1.73-14.9c.16-1.37,1.4-2.36,2.77-2.19,1.37.16,2.35,1.4,2.19,2.77l-1.73,14.9c-.15,1.27-1.23,2.21-2.48,2.21Zm3.47-29.8c-.1,0-.19,0-.29-.02-1.37-.16-2.35-1.4-2.19-2.77l1.73-14.9c.16-1.37,1.39-2.36,2.77-2.19,1.37.16,2.35,1.4,2.19,2.77l-1.73,14.9c-.15,1.27-1.23,2.21-2.48,2.21Zm3.47-29.8c-.1,0-.19,0-.29-.02-1.37-.16-2.35-1.4-2.19-2.77l1.73-14.9c.16-1.37,1.39-2.36,2.77-2.19,1.37.16,2.35,1.4,2.19,2.77l-1.73,14.9c-.15,1.27-1.23,2.21-2.48,2.21Zm3.47-29.8c-.1,0-.19,0-.29-.02-1.37-.16-2.35-1.4-2.19-2.77l1.73-14.9c.16-1.37,1.4-2.35,2.77-2.19,1.37.16,2.35,1.4,2.19,2.77l-1.73,14.9c-.15,1.27-1.23,2.21-2.48,2.21Zm5.01-29.5c-.27,0-.54-.04-.81-.14-1.31-.45-2-1.87-1.55-3.18,1.68-4.9,3.92-9.62,6.64-14.03.72-1.17,2.26-1.54,3.44-.82,1.18.72,1.54,2.26.82,3.44-2.53,4.1-4.6,8.48-6.16,13.03-.36,1.04-1.33,1.69-2.36,1.69Zm134.87-14.5c-.8,0-1.58-.38-2.07-1.09-2.71-3.98-5.86-7.67-9.37-10.97-1.01-.95-1.06-2.53-.11-3.53.94-1.01,2.53-1.06,3.53-.11,3.77,3.54,7.16,7.51,10.08,11.79.78,1.14.48,2.7-.66,3.47-.43.29-.92.43-1.4.43Zm-119.26-10.84c-.63,0-1.26-.24-1.74-.71-.99-.96-1.01-2.55-.05-3.54,3.61-3.71,7.64-7.03,11.97-9.86,1.16-.76,2.71-.43,3.46.72.76,1.16.43,2.7-.72,3.46-4.03,2.64-7.77,5.72-11.13,9.17-.49.5-1.14.76-1.79.76Zm97.57-9.54c-.43,0-.87-.11-1.27-.35-4.14-2.45-8.56-4.44-13.14-5.92-1.31-.42-2.03-1.83-1.61-3.15s1.83-2.03,3.15-1.61c4.93,1.59,9.69,3.74,14.15,6.38,1.19.7,1.58,2.24.88,3.42-.47.79-1.3,1.23-2.15,1.23Zm-72.67-6.76c-1.01,0-1.96-.62-2.34-1.62-.49-1.29.17-2.73,1.46-3.22,4.85-1.83,9.91-3.12,15.04-3.83,1.36-.19,2.63.76,2.82,2.13.19,1.37-.76,2.63-2.13,2.82-4.76.66-9.46,1.86-13.97,3.56-.29.11-.59.16-.88.16Zm44.37-2.43c-.1,0-.19,0-.29-.02l-12.51-1.46c-.77-.09-1.54-.17-2.31-.23-1.38-.11-2.4-1.32-2.29-2.7.11-1.38,1.32-2.4,2.7-2.29.82.07,1.65.15,2.48.25l12.51,1.46c1.37.16,2.35,1.4,2.19,2.77-.15,1.27-1.23,2.21-2.48,2.21Z"/>
    <polygon class="cls-1" points="291.17 699.06 323.48 708.53 290.76 716.48 291.17 699.06"/>
  </g>
  <g id="Mergeline">
    <path class="cls-2" d="m330.55,709.45c-1.09,0-2.1-.72-2.41-1.82-.37-1.33.4-2.71,1.73-3.08,3.12-.88,6.21-2,9.18-3.34,1.26-.57,2.74,0,3.31,1.25.57,1.26,0,2.74-1.25,3.31-3.19,1.44-6.52,2.65-9.88,3.59-.23.06-.45.09-.68.09Zm22.43-11.08c-.76,0-1.51-.35-2-1-.83-1.11-.6-2.67.5-3.5,3.86-2.89,7.4-6.21,10.53-9.85.9-1.05,2.48-1.17,3.52-.27,1.05.9,1.17,2.48.27,3.53-3.37,3.93-7.18,7.49-11.33,10.6-.45.34-.98.5-1.5.5Z"/>
    <rect class="cls-2" x="361.36" y="669.36" width="5" height="32.5" transform="translate(-393 513.5) rotate(-49.23)"/>
  </g>
</svg>