<?xml version="1.0" encoding="utf-8"?>
<!-- Generator: Adobe Illustrator 28.0.0, SVG Export Plug-In . SVG Version: 6.00 Build 0)  -->
<svg version="1.1" id="a" xmlns="http://www.w3.org/2000/svg" xmlns:xlink="http://www.w3.org/1999/xlink" x="0px" y="0px"
	 viewBox="0 0 1920 1080" style="enable-background:new 0 0 1920 1080;" xml:space="preserve">
<style type="text/css">
	.st0{fill:#D82520;}
	.st1{fill:#0089BA;}
</style>
<g id="Pitroad">
	<path class="st0" d="M906.6,561.3c-4.7-1.6-9.5-3.1-14.2-4.7c-1.3-0.4-2.7,0.3-3.2,1.6s0.3,2.7,1.6,3.2c4.8,1.6,9.5,3.2,14.2,4.7
		c0.3,0.1,0.5,0.1,0.8,0.1l0,0c1,0,2-0.7,2.4-1.7C908.6,563.2,907.9,561.8,906.6,561.3z"/>
	<path class="st0" d="M935,570.7l-14.2-4.7c-1.3-0.4-2.7,0.3-3.2,1.6s0.3,2.7,1.6,3.2l14.2,4.7c0.3,0.1,0.5,0.1,0.8,0.1l0,0
		c1,0,2-0.7,2.4-1.7C937.1,572.6,936.4,571.1,935,570.7z"/>
	<path class="st0" d="M963.5,580.1c-4.7-1.6-9.5-3.1-14.2-4.7c-1.3-0.4-2.7,0.3-3.2,1.6s0.3,2.7,1.6,3.2c4.8,1.6,9.5,3.1,14.2,4.7
		c0.3,0.1,0.5,0.1,0.8,0.1v0c1,0,2-0.7,2.4-1.7C965.5,582,964.8,580.6,963.5,580.1z"/>
	<polygon class="st0" points="991.1,594.5 991.1,594.5 991.1,594.5 	"/>
	<path class="st0" d="M821.9,531.1l-14-5.4c-1.3-0.5-2.7,0.2-3.2,1.4s0.2,2.7,1.4,3.2l14,5.4c0.3,0.1,0.6,0.2,0.9,0.2l0,0
		c1,0,2-0.6,2.3-1.6C823.8,533,823.2,531.6,821.9,531.1z"/>
	<path class="st0" d="M793.9,520.3l-14-5.4c-0.1,0-0.1,0-0.2-0.1l2.2-5.8l-33.5-3.5l27.2,19.8l2.3-5.9c0.1,0,0.1,0.1,0.2,0.1l14,5.4
		c0.3,0.1,0.6,0.2,0.9,0.2l0,0c1,0,2-0.6,2.3-1.6C795.8,522.3,795.2,520.8,793.9,520.3z"/>
	<path class="st0" d="M878.1,551.9c-4.7-1.5-9.3-3.1-14-4.6l-0.1,0c-1.3-0.5-2.7,0.2-3.2,1.4c-0.5,1.3,0.2,2.7,1.4,3.2l0.2,0.1
		c4.7,1.6,9.4,3.1,14.1,4.7c0.3,0.1,0.5,0.1,0.8,0.1v0c1,0,2-0.7,2.4-1.7C880.1,553.8,879.4,552.4,878.1,551.9z"/>
	<path class="st0" d="M1020.4,599.3c-4.8-1.6-9.5-3.2-14.2-4.9c-1.3-0.5-2.7,0.2-3.2,1.6c-0.5,1.3,0.2,2.7,1.6,3.2
		c4.7,1.6,9.5,3.2,14.2,4.8c0.3,0.1,0.5,0.1,0.8,0.1v0c1,0,2-0.7,2.4-1.7C1022.4,601.2,1021.7,599.8,1020.4,599.3z"/>
	<polygon class="st0" points="849,546.7 849,546.7 849,546.7 	"/>
	<path class="st0" d="M849.9,541.9l-14-5.4c-1.3-0.5-2.7,0.2-3.2,1.4c-0.5,1.3,0.2,2.7,1.4,3.2l14,5.4c0.3,0.1,0.6,0.2,0.9,0.2
		c1,0,1.9-0.6,2.3-1.6C851.9,543.8,851.2,542.4,849.9,541.9z"/>
	<path class="st0" d="M991.9,589.6c-4.7-1.6-9.5-3.2-14.2-4.8c-1.3-0.4-2.7,0.3-3.2,1.6s0.3,2.7,1.6,3.2c4.7,1.6,9.5,3.2,14.2,4.8
		c0.3,0.1,0.5,0.1,0.8,0.1c1,0,2-0.7,2.4-1.7C993.9,591.5,993.2,590.1,991.9,589.6z"/>
	<path class="st0" d="M1217.3,671.5l-14.4-4.2c-1.3-0.4-2.7,0.4-3.1,1.7c-0.4,1.3,0.4,2.7,1.7,3.1l14.4,4.2c0.2,0.1,0.5,0.1,0.7,0.1
		c1.1,0,2.1-0.7,2.4-1.8C1219.4,673.3,1218.6,671.9,1217.3,671.5z"/>
	<path class="st0" d="M1189.1,662.2c-4.7-1.9-9.3-3.8-13.9-5.6c-1.3-0.5-2.7,0.1-3.2,1.4s0.1,2.7,1.4,3.2c4.6,1.8,9.2,3.7,13.9,5.6
		c0.3,0.1,0.6,0.2,0.9,0.2c1,0,1.9-0.6,2.3-1.6C1191,664.1,1190.4,662.7,1189.1,662.2z"/>
	<path class="st0" d="M1246.1,680l-14.4-4.2c-1.3-0.4-2.7,0.4-3.1,1.7c-0.4,1.3,0.4,2.7,1.7,3.1l14.4,4.2c0.2,0.1,0.5,0.1,0.7,0.1
		c1.1,0,2.1-0.7,2.4-1.8C1248.2,681.7,1247.4,680.4,1246.1,680z"/>
	<path class="st0" d="M1161.2,651c-4.7-1.9-9.4-3.7-14-5.5c-1.3-0.5-2.7,0.1-3.2,1.4s0.1,2.7,1.4,3.2c4.6,1.8,9.3,3.6,14,5.5
		c0.3,0.1,0.6,0.2,0.9,0.2v0c1,0,1.9-0.6,2.3-1.6C1163.1,653,1162.5,651.5,1161.2,651z"/>
	<path class="st0" d="M1274.9,688.4l-14.4-4.2c-1.3-0.4-2.7,0.4-3.1,1.7c-0.4,1.3,0.4,2.7,1.7,3.1l14.4,4.2c0.2,0.1,0.5,0.1,0.7,0.1
		c1.1,0,2.1-0.7,2.4-1.8C1277,690.2,1276.2,688.8,1274.9,688.4z"/>
	<polygon class="st0" points="1132.3,645 1132.3,645 1132.3,645 	"/>
	<path class="st0" d="M1105.1,629.6c-4.7-1.8-9.4-3.5-14.1-5.2c-1.3-0.5-2.7,0.2-3.2,1.5c-0.5,1.3,0.2,2.7,1.5,3.2
		c4.6,1.7,9.3,3.4,14.1,5.2c0.3,0.1,0.6,0.2,0.9,0.2l0,0c1,0,2-0.6,2.3-1.6C1107.1,631.5,1106.4,630.1,1105.1,629.6z"/>
	<path class="st0" d="M1133.2,640.2c-4.7-1.8-9.4-3.6-14-5.3c-1.3-0.5-2.7,0.2-3.2,1.5c-0.5,1.3,0.2,2.7,1.5,3.2
		c4.6,1.7,9.3,3.5,14,5.3c0.3,0.1,0.6,0.2,0.9,0.2c1,0,2-0.6,2.3-1.6C1135.2,642.1,1134.5,640.7,1133.2,640.2z"/>
	<path class="st0" d="M1077,619.3c-4.7-1.7-9.4-3.4-14.1-5.1c-1.3-0.5-2.7,0.2-3.2,1.5c-0.5,1.3,0.2,2.7,1.5,3.2
		c4.7,1.7,9.4,3.3,14.1,5.1c0.3,0.1,0.6,0.2,0.8,0.2v0c1,0,2-0.6,2.3-1.7C1078.9,621.2,1078.3,619.7,1077,619.3z"/>
	<path class="st0" d="M1048.7,609.2c-4.7-1.7-9.5-3.3-14.2-5c-1.3-0.5-2.7,0.2-3.2,1.5c-0.4,1.3,0.2,2.7,1.5,3.2
		c4.7,1.6,9.4,3.3,14.1,5c0.3,0.1,0.5,0.1,0.8,0.1h0c1,0,2-0.6,2.4-1.7C1050.7,611.1,1050,609.6,1048.7,609.2z"/>
</g>
<g id="Mergeline">
	<polygon class="st1" points="537.9,434.3 537.8,434.3 537.8,434.3 	"/>
	<path class="st1" d="M538.5,429.4c-4.8-1.4-9.6-2.8-14.4-4.2c-1.3-0.4-2.7,0.4-3.1,1.7c-0.4,1.3,0.4,2.7,1.7,3.1
		c4.8,1.4,9.6,2.8,14.4,4.2c0.2,0.1,0.5,0.1,0.7,0.1c1.1,0,2.1-0.7,2.4-1.8C540.6,431.1,539.9,429.8,538.5,429.4z"/>
	<polygon class="st1" points="595.5,451.4 595.5,451.4 595.5,451.4 	"/>
	<path class="st1" d="M567.4,437.9c-4.7-1.4-9.5-2.8-14.4-4.3c-1.3-0.4-2.7,0.4-3.1,1.7c-0.4,1.3,0.4,2.7,1.7,3.1
		c4.9,1.5,9.7,2.9,14.4,4.3c0.2,0.1,0.5,0.1,0.7,0.1l0,0c1.1,0,2.1-0.7,2.4-1.8C569.5,439.7,568.7,438.3,567.4,437.9z"/>
	<path class="st1" d="M451.9,404.3c-0.7-0.2-1.4-0.4-2.1-0.6l3.8-13.2l-4.8-1.4l-9,31.2l4.8,1.4l3.8-13.2c0.7,0.2,1.3,0.4,2.1,0.6
		c0.2,0.1,0.5,0.1,0.7,0.1l0,0c1.1,0,2.1-0.7,2.4-1.8C454,406,453.2,404.7,451.9,404.3z"/>
	<path class="st1" d="M509.7,420.9c-4.9-1.4-9.8-2.8-14.4-4.2c-1.3-0.4-2.7,0.4-3.1,1.7s0.4,2.7,1.7,3.1c4.7,1.4,9.5,2.8,14.4,4.2
		c0.2,0.1,0.5,0.1,0.7,0.1l0,0c1.1,0,2.1-0.7,2.4-1.8C511.8,422.7,511,421.3,509.7,420.9z"/>
	<path class="st1" d="M480.8,412.6c-5.2-1.5-10.1-2.9-14.5-4.2c-1.3-0.4-2.7,0.4-3.1,1.7c-0.4,1.3,0.4,2.7,1.7,3.1
		c4.4,1.2,9.2,2.6,14.4,4.1c0.2,0.1,0.5,0.1,0.7,0.1l0,0c1.1,0,2.1-0.7,2.4-1.8C482.9,414.3,482.2,413,480.8,412.6z"/>
	<path class="st1" d="M681.1,477.2c-4.9-1.8-9.5-3.6-14-5.3c-1.3-0.5-2.7,0.2-3.2,1.5c-0.5,1.3,0.2,2.7,1.5,3.2
		c4.5,1.7,9.2,3.5,14,5.3c0.3,0.1,0.6,0.2,0.9,0.2c1,0,2-0.6,2.3-1.6C683.1,479.1,682.4,477.7,681.1,477.2z"/>
	<polygon class="st1" points="708.3,492.7 708.3,492.7 708.3,492.7 	"/>
	<path class="st1" d="M709.2,487.9l-14-5.3c-1.3-0.5-2.7,0.1-3.2,1.4c-0.5,1.3,0.2,2.7,1.4,3.2l14,5.4c0.3,0.1,0.6,0.2,0.9,0.2
		c1,0,2-0.6,2.3-1.6C711.1,489.8,710.5,488.4,709.2,487.9z"/>
	<path class="st1" d="M737.2,498.6l-14-5.4c-1.3-0.5-2.7,0.1-3.2,1.4c-0.5,1.3,0.2,2.7,1.4,3.2l14,5.4c0.3,0.1,0.6,0.2,0.9,0.2l0,0
		c1,0,2-0.6,2.3-1.6C739.1,500.5,738.5,499.1,737.2,498.6z"/>
	<path class="st1" d="M624.9,455.9c-3.2-1.2-5.6-2.1-7.1-2.6c-1.7-0.6-4.1-1.4-7.2-2.4c-1.3-0.4-2.7,0.3-3.1,1.6s0.3,2.7,1.6,3.1
		c3.1,1,5.5,1.8,7.1,2.3c1.4,0.5,3.8,1.3,7,2.5c0.3,0.1,0.6,0.2,0.9,0.2l0,0c1,0,2-0.6,2.3-1.6C626.9,457.8,626.2,456.4,624.9,455.9
		z"/>
	<path class="st1" d="M596.2,446.5c-4.4-1.3-9.2-2.8-14.4-4.4c-1.3-0.4-2.7,0.4-3.1,1.7c-0.4,1.3,0.4,2.7,1.7,3.1
		c5.2,1.5,10,3,14.4,4.3c0.2,0.1,0.5,0.1,0.7,0.1c1.1,0,2.1-0.7,2.4-1.8C598.3,448.3,597.5,446.9,596.2,446.5z"/>
	<polygon class="st1" points="680.2,482 680.2,482 680.2,482 	"/>
	<path class="st1" d="M653,466.5c-5.1-1.9-9.8-3.7-14-5.3c-1.3-0.5-2.7,0.2-3.2,1.5c-0.5,1.3,0.2,2.7,1.5,3.2
		c4.2,1.6,8.9,3.4,14,5.3c0.3,0.1,0.6,0.2,0.9,0.2l0,0c1,0,2-0.6,2.3-1.6C655,468.4,654.3,467,653,466.5z"/>
</g>
</svg>
