<?xml version="1.0" encoding="utf-8"?>
<!-- Generator: Adobe Illustrator 28.0.0, SVG Export Plug-In . SVG Version: 6.00 Build 0)  -->
<svg version="1.1" id="a" xmlns="http://www.w3.org/2000/svg" xmlns:xlink="http://www.w3.org/1999/xlink" x="0px" y="0px"
	 viewBox="0 0 1920 1080" style="enable-background:new 0 0 1920 1080;" xml:space="preserve">
<style type="text/css">
	.st0{fill:#D82520;}
	.st1{fill:#0089BA;}
</style>
<g id="Pitroad">
	<path class="st0" d="M974,583.6c-4.7-1.6-9.5-3.1-14.2-4.7c-1.3-0.4-2.7,0.3-3.2,1.6c-0.4,1.3,0.3,2.7,1.6,3.2
		c4.8,1.6,9.5,3.1,14.2,4.7c0.3,0.1,0.5,0.1,0.8,0.1v0c1,0,2-0.7,2.4-1.7C976,585.5,975.3,584.1,974,583.6z"/>
	<path class="st0" d="M945.5,574.2c-4.7-1.6-9.5-3.1-14.2-4.7c-1.3-0.4-2.7,0.3-3.2,1.6s0.3,2.7,1.6,3.2c4.8,1.6,9.5,3.1,14.2,4.7
		c0.3,0.1,0.5,0.1,0.8,0.1l0,0c1,0,2-0.7,2.4-1.7C947.5,576.1,946.8,574.6,945.5,574.2z"/>
	<path class="st0" d="M1002.4,593.2c-4.8-1.6-9.5-3.2-14.2-4.8c-1.3-0.4-2.7,0.3-3.2,1.6s0.3,2.7,1.6,3.2c4.7,1.6,9.5,3.2,14.2,4.8
		c0.3,0.1,0.5,0.1,0.8,0.1l0,0c1,0,2-0.7,2.4-1.7C1004.4,595.1,1003.7,593.7,1002.4,593.2z"/>
	<polygon class="st0" points="1030,607.8 1030,607.8 1030,607.8 	"/>
	<path class="st0" d="M804.2,524.3l-14-5.4c-1.3-0.5-2.7,0.2-3.2,1.4s0.2,2.7,1.4,3.2l14,5.4c0.3,0.1,0.6,0.2,0.9,0.2l0,0
		c1,0,2-0.6,2.3-1.6C806.1,526.3,805.5,524.8,804.2,524.3z"/>
	<path class="st0" d="M832.2,535.1l-14-5.4c-1.3-0.5-2.7,0.2-3.2,1.4c-0.5,1.3,0.2,2.7,1.4,3.2l14,5.4c0.3,0.1,0.6,0.2,0.9,0.2l0,0
		c1,0,2-0.6,2.3-1.6C834.2,537,833.5,535.6,832.2,535.1z"/>
	<path class="st0" d="M860.3,545.9l-14-5.4c-1.3-0.5-2.7,0.2-3.2,1.4c-0.5,1.3,0.2,2.7,1.4,3.2l14,5.4c0.3,0.1,0.6,0.2,0.9,0.2l0,0
		c1,0,2-0.6,2.3-1.6C862.2,547.8,861.5,546.4,860.3,545.9z"/>
	<path class="st0" d="M888.6,555.4c-4.7-1.6-9.4-3.1-14.2-4.7c-1.3-0.4-2.7,0.3-3.2,1.6c-0.4,1.3,0.3,2.7,1.6,3.2
		c4.8,1.6,9.5,3.2,14.2,4.7c0.3,0.1,0.5,0.1,0.8,0.1l0,0c1,0,2-0.7,2.4-1.7C890.6,557.3,889.9,555.9,888.6,555.4z"/>
	<path class="st0" d="M917.1,564.8l-14.2-4.7c-1.3-0.4-2.7,0.3-3.2,1.6s0.3,2.7,1.6,3.2l14.2,4.7c0.3,0.1,0.5,0.1,0.8,0.1l0,0
		c1,0,2-0.7,2.4-1.7C919.1,566.7,918.4,565.3,917.1,564.8z"/>
	<path class="st0" d="M1143.5,644.2c-4.7-1.8-9.4-3.6-14-5.4c-1.3-0.5-2.7,0.2-3.2,1.5s0.2,2.7,1.4,3.2c4.6,1.8,9.3,3.5,14,5.4
		c0.3,0.1,0.6,0.2,0.9,0.2l0,0c1,0,1.9-0.6,2.3-1.6C1145.5,646.1,1144.8,644.7,1143.5,644.2z"/>
	<path class="st0" d="M1171.5,655.1c-4.7-1.9-9.3-3.7-14-5.5c-1.3-0.5-2.7,0.1-3.2,1.4s0.1,2.7,1.4,3.2c4.6,1.8,9.2,3.6,13.9,5.5
		c0.3,0.1,0.6,0.2,0.9,0.2v0c1,0,1.9-0.6,2.3-1.6C1173.4,657.1,1172.8,655.6,1171.5,655.1z"/>
	<polygon class="st0" points="1198.4,671.1 1198.4,671.1 1198.4,671.1 	"/>
	<path class="st0" d="M1199.3,666.3c-4.7-1.9-9.3-3.8-13.9-5.6c-1.3-0.5-2.7,0.1-3.2,1.4c-0.5,1.3,0.1,2.7,1.4,3.2
		c4.6,1.8,9.2,3.7,13.9,5.6c0.3,0.1,0.6,0.2,0.9,0.2c1,0,1.9-0.6,2.3-1.6C1201.2,668.3,1200.6,666.8,1199.3,666.3z"/>
	<path class="st0" d="M1115.5,633.5c-4.7-1.8-9.4-3.5-14.1-5.2c-1.3-0.5-2.7,0.2-3.2,1.5c-0.5,1.3,0.2,2.7,1.5,3.2
		c4.6,1.7,9.3,3.5,14,5.2c0.3,0.1,0.6,0.2,0.9,0.2c1,0,2-0.6,2.3-1.6C1117.4,635.4,1116.8,634,1115.5,633.5z"/>
	<path class="st0" d="M1059.1,612.9c-4.7-1.7-9.5-3.4-14.2-5c-1.3-0.5-2.7,0.2-3.2,1.5s0.2,2.7,1.5,3.2c4.7,1.6,9.4,3.3,14.1,5
		c0.3,0.1,0.6,0.2,0.8,0.2v0c1,0,2-0.6,2.4-1.7C1061.1,614.8,1060.4,613.3,1059.1,612.9z"/>
	<path class="st0" d="M1087.4,623.1c-4.7-1.7-9.4-3.4-14.1-5.1c-1.3-0.5-2.7,0.2-3.2,1.5s0.2,2.7,1.5,3.2c4.7,1.7,9.3,3.4,14.1,5.1
		c0.3,0.1,0.6,0.2,0.9,0.2l0,0c1,0,2-0.6,2.3-1.6C1089.3,625,1088.7,623.5,1087.4,623.1z"/>
	<path class="st0" d="M1030.8,602.9c-4.7-1.7-9.5-3.3-14.2-4.9c-1.3-0.4-2.7,0.2-3.2,1.6c-0.4,1.3,0.2,2.7,1.6,3.2
		c4.7,1.6,9.4,3.2,14.2,4.9c0.3,0.1,0.5,0.1,0.8,0.1c1,0,2-0.7,2.3-1.7C1032.8,604.8,1032.1,603.4,1030.8,602.9z"/>
	<polygon class="st0" points="1114.6,638.3 1114.6,638.3 1114.6,638.3 	"/>
	<polygon class="st0" points="775.7,525.4 781.9,509.1 748.4,505.6 	"/>
</g>
<g id="Mergeline">
	<polygon class="st1" points="537.9,434.3 537.8,434.3 537.8,434.3 	"/>
	<path class="st1" d="M538.5,429.4c-4.8-1.4-9.6-2.8-14.4-4.2c-1.3-0.4-2.7,0.4-3.1,1.7c-0.4,1.3,0.4,2.7,1.7,3.1
		c4.8,1.4,9.6,2.8,14.4,4.2c0.2,0.1,0.5,0.1,0.7,0.1c1.1,0,2.1-0.7,2.4-1.8C540.6,431.1,539.9,429.8,538.5,429.4z"/>
	<path class="st1" d="M567.4,437.9c-4.7-1.4-9.5-2.8-14.4-4.3c-1.3-0.4-2.7,0.4-3.1,1.7c-0.4,1.3,0.4,2.7,1.7,3.1
		c4.9,1.5,9.7,2.9,14.4,4.3c0.2,0.1,0.5,0.1,0.7,0.1l0,0c1.1,0,2.1-0.7,2.4-1.8C569.5,439.7,568.7,438.3,567.4,437.9z"/>
	<path class="st1" d="M596.2,446.5c-4.4-1.3-9.2-2.8-14.4-4.4c-1.3-0.4-2.7,0.4-3.1,1.7c-0.4,1.3,0.4,2.7,1.7,3.1
		c5.2,1.5,10,3,14.4,4.3c0.2,0.1,0.5,0.1,0.7,0.1c1.1,0,2.1-0.7,2.4-1.8C598.3,448.3,597.5,446.9,596.2,446.5z"/>
	<path class="st1" d="M509.7,420.9c-4.9-1.4-9.8-2.8-14.4-4.2c-1.3-0.4-2.7,0.4-3.1,1.7s0.4,2.7,1.7,3.1c4.7,1.4,9.5,2.8,14.4,4.2
		c0.2,0.1,0.5,0.1,0.7,0.1l0,0c1.1,0,2.1-0.7,2.4-1.8C511.8,422.7,511,421.3,509.7,420.9z"/>
	<path class="st1" d="M451.9,404.3c-0.7-0.2-1.4-0.4-2.1-0.6l3.8-13.2l-4.8-1.4l-9,31.2l4.8,1.4l3.8-13.2c0.7,0.2,1.3,0.4,2.1,0.6
		c0.2,0.1,0.5,0.1,0.7,0.1l0,0c1.1,0,2.1-0.7,2.4-1.8C454,406,453.2,404.7,451.9,404.3z"/>
	<path class="st1" d="M480.8,412.6c-5.2-1.5-10.1-2.9-14.5-4.2c-1.3-0.4-2.7,0.4-3.1,1.7c-0.4,1.3,0.4,2.7,1.7,3.1
		c4.4,1.2,9.2,2.6,14.4,4.1c0.2,0.1,0.5,0.1,0.7,0.1l0,0c1.1,0,2.1-0.7,2.4-1.8C482.9,414.3,482.2,413,480.8,412.6z"/>
	<polygon class="st1" points="595.5,451.4 595.5,451.4 595.5,451.4 	"/>
	<path class="st1" d="M709.2,487.9l-14-5.3c-1.3-0.5-2.7,0.1-3.2,1.4c-0.5,1.3,0.2,2.7,1.4,3.2l14,5.4c0.3,0.1,0.6,0.2,0.9,0.2
		c1,0,2-0.6,2.3-1.6C711.1,489.8,710.5,488.4,709.2,487.9z"/>
	<polygon class="st1" points="708.3,492.7 708.3,492.7 708.3,492.7 	"/>
	<path class="st1" d="M624.9,455.9c-3.2-1.2-5.6-2.1-7.1-2.6c-1.7-0.6-4.1-1.4-7.2-2.4c-1.3-0.4-2.7,0.3-3.1,1.6s0.3,2.7,1.6,3.1
		c3.1,1,5.5,1.8,7.1,2.3c1.4,0.5,3.8,1.3,7,2.5c0.3,0.1,0.6,0.2,0.9,0.2l0,0c1,0,2-0.6,2.3-1.6C626.9,457.8,626.2,456.4,624.9,455.9
		z"/>
	<path class="st1" d="M737.2,498.6l-14-5.4c-1.3-0.5-2.7,0.1-3.2,1.4c-0.5,1.3,0.2,2.7,1.4,3.2l14,5.4c0.3,0.1,0.6,0.2,0.9,0.2l0,0
		c1,0,2-0.6,2.3-1.6C739.1,500.5,738.5,499.1,737.2,498.6z"/>
	<path class="st1" d="M681.1,477.2c-4.9-1.8-9.5-3.6-14-5.3c-1.3-0.5-2.7,0.2-3.2,1.5c-0.5,1.3,0.2,2.7,1.5,3.2
		c4.5,1.7,9.2,3.5,14,5.3c0.3,0.1,0.6,0.2,0.9,0.2c1,0,2-0.6,2.3-1.6C683.1,479.1,682.4,477.7,681.1,477.2z"/>
	<path class="st1" d="M653,466.5c-5.1-1.9-9.8-3.7-14-5.3c-1.3-0.5-2.7,0.2-3.2,1.5c-0.5,1.3,0.2,2.7,1.5,3.2
		c4.2,1.6,8.9,3.4,14,5.3c0.3,0.1,0.6,0.2,0.9,0.2l0,0c1,0,2-0.6,2.3-1.6C655,468.4,654.3,467,653,466.5z"/>
	<polygon class="st1" points="680.2,482 680.2,482 680.2,482 	"/>
</g>
</svg>
