<svg id="Grand_West_-_Pit_Road" data-name="Grand West - Pit Road" xmlns="http://www.w3.org/2000/svg" viewBox="0 0 1920 1080"><defs><style>.cls-1{fill:#0089ba;}.cls-2{fill:#d82520;}</style></defs><title>pitroad</title><g id="Mergeline"><path class="cls-1" d="M50.48,363.6a5,5,0,0,0,4.61-5.36c-.8-10.65-1.36-20.67-1.66-29.78a5,5,0,1,0-10,.34c.31,9.24.88,19.4,1.69,30.19a5,5,0,0,0,5,4.62Z"/><path class="cls-1" d="M56.83,423.33a5,5,0,0,0,4.34-5.58c-1.27-10.23-2.42-20.23-3.4-29.74a5,5,0,1,0-9.94,1c1,9.57,2.14,19.65,3.42,29.94a5,5,0,0,0,5,4.38Z"/><path class="cls-1" d="M65.15,447.43a5,5,0,0,0-9.9,1.42c2.57,17.9,4.56,29.75,4.58,29.87a5,5,0,0,0,4.92,4.17,6,6,0,0,0,.84-.07,5,5,0,0,0,4.1-5.77C69.67,476.94,67.7,465.2,65.15,447.43Z"/><path class="cls-1" d="M49.2,286.9h0l-32.35-2.17-.67,10,27.39,1.84c0,.62-.07,1.23-.09,1.86a5,5,0,0,0,4.77,5.22h.22a5,5,0,0,0,5-4.78c0-.55.05-1.09.08-1.63L81,299.06l.67-10Z"/></g><g id="Pitroad"><path class="cls-2" d="M115.31,622.22a2.5,2.5,0,0,0-4.65,1.83l11,27.92a2.49,2.49,0,0,0,2.32,1.59,2.67,2.67,0,0,0,.92-.17,2.51,2.51,0,0,0,1.41-3.25Z"/><path class="cls-2" d="M93.37,566.38a2.5,2.5,0,1,0-4.65,1.83l11,27.92a2.5,2.5,0,0,0,2.33,1.58,2.44,2.44,0,0,0,.91-.17,2.5,2.5,0,0,0,1.41-3.24Z"/><path class="cls-2" d="M137.25,678.07a2.5,2.5,0,1,0-4.65,1.82l11,27.93a2.49,2.49,0,0,0,2.32,1.58,2.46,2.46,0,0,0,.92-.17,2.51,2.51,0,0,0,1.41-3.24Z"/><path class="cls-2" d="M75.11,513.7l0-.08,17,3.26-27.36-39L55.92,524.7l14.27-10.07a2.46,2.46,0,0,0,.07.29c2.12,8.45,4.68,16.94,7.61,25.23a2.5,2.5,0,0,0,2.36,1.66,2.68,2.68,0,0,0,.83-.14,2.5,2.5,0,0,0,1.52-3.19C79.7,530.34,77.19,522,75.11,513.7Z"/><path class="cls-2" d="M159.19,733.91a2.5,2.5,0,0,0-4.65,1.83l11,27.92a2.49,2.49,0,0,0,2.32,1.59,2.67,2.67,0,0,0,.92-.17,2.52,2.52,0,0,0,1.41-3.25Z"/><path class="cls-2" d="M212,874.37l-10.44-28.13a2.5,2.5,0,1,0-4.68,1.74l10.43,28.13a2.49,2.49,0,0,0,2.34,1.63,2.39,2.39,0,0,0,.87-.16A2.5,2.5,0,0,0,212,874.37Z"/><path class="cls-2" d="M180.66,790a2.5,2.5,0,1,0-4.69,1.74l10.43,28.12a2.52,2.52,0,0,0,2.35,1.64,2.67,2.67,0,0,0,.87-.16,2.5,2.5,0,0,0,1.47-3.21Z"/></g></svg>