<?xml version="1.0" encoding="utf-8"?>
<!-- Generator: Adobe Illustrator 24.0.1, SVG Export Plug-In . SVG Version: 6.00 Build 0)  -->
<svg version="1.1" id="Bend_-_Pit_Road" xmlns="http://www.w3.org/2000/svg" xmlns:xlink="http://www.w3.org/1999/xlink" x="0px"
	 y="0px" viewBox="0 0 1920 1080" style="enable-background:new 0 0 1920 1080;" xml:space="preserve">
<style type="text/css">
	.st0{fill:#D82520;}
</style>
<title>pitroad</title>
<g id="Pitroad">
	<path class="st0" d="M826.8,995.2l-30-0.2c0,0,0,0,0,0c-1.4,0-2.5,1.1-2.5,2.5c0,1.4,1.1,2.5,2.5,2.5l30,0.2c0,0,0,0,0,0
		c1.4,0,2.5-1.1,2.5-2.5C829.3,996.3,828.1,995.2,826.8,995.2z"/>
	<path class="st0" d="M766.8,994.8c-10.1-0.1-20.1-0.1-30-0.2c0,0,0,0,0,0c-1.4,0-2.5,1.1-2.5,2.5c0,1.4,1.1,2.5,2.5,2.5
		c9.9,0.1,19.8,0.1,30,0.2c0,0,0,0,0,0c1.4,0,2.5-1.1,2.5-2.5C769.3,996,768.2,994.9,766.8,994.8z"/>
	<path class="st0" d="M886.7,995.5l-30-0.2c0,0,0,0,0,0c-1.4,0-2.5,1.1-2.5,2.5c0,1.4,1.1,2.5,2.5,2.5l30,0.2c0,0,0,0,0,0
		c1.4,0,2.5-1.1,2.5-2.5C889.2,996.6,888.1,995.5,886.7,995.5z"/>
	<path class="st0" d="M946.7,995.9l-30-0.2c0,0,0,0,0,0c-1.4,0-2.5,1.1-2.5,2.5c0,1.4,1.1,2.5,2.5,2.5l30,0.2c0,0,0,0,0,0
		c1.4,0,2.5-1.1,2.5-2.5C949.2,997,948.1,995.9,946.7,995.9z"/>
	<path class="st0" d="M706.8,994.5c-10-0.1-20-0.1-30-0.2c0,0,0,0,0,0c-1.4,0-2.5,1.1-2.5,2.5c0,1.4,1.1,2.5,2.5,2.5
		c10,0.1,20,0.1,30,0.2c0,0,0,0,0,0c1.4,0,2.5-1.1,2.5-2.5C709.3,995.6,708.2,994.5,706.8,994.5z"/>
	<path class="st0" d="M586.8,999.6c-7.3,0.7-14.8,1.4-22.7,2.2l5.1-16.5l-41.7,23l45.6,13.8l-8.5-15.3c7.8-0.8,15.4-1.6,22.7-2.3
		c1.4-0.1,2.4-1.4,2.3-2.7S588.1,999.5,586.8,999.6z"/>
	<path class="st0" d="M646.7,994.9c-8.4,0.4-18.5,1.1-30,2.1c-1.4,0.1-2.4,1.3-2.3,2.7c0.1,1.3,1.2,2.3,2.5,2.3c0.1,0,0.1,0,0.2,0
		c11.4-0.9,21.5-1.6,29.9-2.1c1.4-0.1,2.4-1.2,2.4-2.6C649.3,995.8,648.1,994.8,646.7,994.9z"/>
	<path class="st0" d="M1006.7,996.3c-10.2-0.1-20.2-0.1-30-0.2c0,0,0,0,0,0c-1.4,0-2.5,1.1-2.5,2.5c0,1.4,1.1,2.5,2.5,2.5
		c9.7,0.1,19.7,0.1,30,0.2c0,0,0,0,0,0c1.4,0,2.5-1.1,2.5-2.5C1009.2,997.4,1008,996.3,1006.7,996.3z"/>
	<path class="st0" d="M1066.6,996.7l-30-0.2c0,0,0,0,0,0c-1.4,0-2.5,1.1-2.5,2.5c0,1.4,1.1,2.5,2.5,2.5l30,0.2c0,0,0,0,0,0
		c1.4,0,2.5-1.1,2.5-2.5C1069.1,997.9,1068,996.7,1066.6,996.7z"/>
	<path class="st0" d="M1366.3,1006.8c-9.7-2.1-19.4-3.9-29.6-5.5c-1.4-0.2-2.6,0.7-2.9,2.1c-0.2,1.4,0.7,2.6,2.1,2.9
		c10.1,1.6,19.7,3.4,29.3,5.5c0.2,0,0.4,0.1,0.5,0.1c1.2,0,2.2-0.8,2.4-2C1368.5,1008.4,1367.7,1007.1,1366.3,1006.8z"/>
	<path class="st0" d="M1424.6,1019.3c-7.1-0.6-13-1.4-17.4-2.5c-3.7-0.9-7.3-1.8-11.6-2.9c-1.3-0.3-2.7,0.5-3,1.8
		c-0.3,1.3,0.5,2.7,1.8,3c4.3,1.1,7.9,2,11.7,2.9c4.7,1.1,10.8,2,18.2,2.6c0.1,0,0.1,0,0.2,0c1.3,0,2.4-1,2.5-2.3
		C1427,1020.6,1426,1019.4,1424.6,1019.3z"/>
	<path class="st0" d="M1306.7,997.7c-8.5-0.5-18.1-0.8-30.1-0.8c0,0,0,0,0,0c-1.4,0-2.5,1.1-2.5,2.5s1.1,2.5,2.5,2.5
		c11.9,0,21.4,0.3,29.8,0.8c0.1,0,0.1,0,0.2,0c1.3,0,2.4-1,2.5-2.3C1309.1,999,1308.1,997.8,1306.7,997.7z"/>
	<path class="st0" d="M1246.6,997.2C1246.6,997.2,1246.5,997.2,1246.6,997.2l-6.2,0.1c-7.7,0.1-15.7,0.3-23.8,0.3
		c-1.4,0-2.5,1.1-2.5,2.5c0,1.4,1.1,2.5,2.5,2.5c0,0,0,0,0,0c8.1-0.1,16.1-0.2,23.8-0.4l6.2-0.1c1.4,0,2.5-1.2,2.5-2.5
		C1249,998.3,1247.9,997.2,1246.6,997.2z"/>
	<path class="st0" d="M1126.6,997.2l-30-0.2c0,0,0,0,0,0c-1.4,0-2.5,1.1-2.5,2.5c0,1.4,1.1,2.5,2.5,2.5l30,0.2c0,0,0,0,0,0
		c1.4,0,2.5-1.1,2.5-2.5C1129.1,998.3,1128,997.2,1126.6,997.2z"/>
	<path class="st0" d="M1186.6,997.7l-30-0.3c0,0,0,0,0,0c-1.4,0-2.5,1.1-2.5,2.5c0,1.4,1.1,2.5,2.5,2.5l30,0.3c0,0,0,0,0,0
		c1.4,0,2.5-1.1,2.5-2.5C1189.1,998.8,1188,997.7,1186.6,997.7z"/>
</g>
</svg>
