<?xml version="1.0" encoding="utf-8"?>
<!-- Generator: Adobe Illustrator 28.0.0, SVG Export Plug-In . SVG Version: 6.00 Build 0)  -->
<svg version="1.1" id="a" xmlns="http://www.w3.org/2000/svg" xmlns:xlink="http://www.w3.org/1999/xlink" x="0px" y="0px"
	 viewBox="0 0 1920 1080" style="enable-background:new 0 0 1920 1080;" xml:space="preserve">
<style type="text/css">
	.st0{fill:#0089BA;}
	.st1{fill:#D82520;}
</style>
<g id="Mergeline">
	<path class="st0" d="M745.8,709.4c-3.6-0.7-7.2-1.4-10.7-2.1l-4-0.8c-1.4-0.3-2.7,0.6-2.9,2s0.6,2.7,2,2.9l4,0.8
		c3.6,0.7,7.2,1.4,10.8,2.1c0.2,0,0.3,0,0.5,0h0c1.2,0,2.2-0.8,2.5-2C748,711,747.1,709.6,745.8,709.4z"/>
	<path class="st0" d="M716.2,703.7c-0.5-0.1-1.1-0.2-1.6-0.2c-1.4-0.2-2.6,0.7-2.8,2.1s0.7,2.6,2.1,2.8c0.5,0.1,1,0.2,1.6,0.2
		c0.1,0,0.3,0,0.4,0l0,0c1.2,0,2.3-0.9,2.5-2.1C718.5,705.2,717.6,703.9,716.2,703.7z"/>
	<path class="st0" d="M777.5,715.5l0.6-16.2l-5-0.2l-0.5,13.8c-3.7-0.2-7.8-0.6-12.2-1.2c-1.4-0.2-2.6,0.8-2.8,2.1s0.8,2.6,2.1,2.8
		c4.6,0.6,8.8,1,12.7,1.2l-0.5,13.7l5,0.2l0.6-16c0,0,0-0.1,0-0.1C777.5,715.6,777.5,715.6,777.5,715.5z"/>
</g>
<g id="Pitroad">
	<path class="st1" d="M589.8,639.6c-0.9-1-2.5-1.2-3.5-0.3c-1,0.9-1.2,2.5-0.3,3.5c3.3,3.8,6.8,7.5,10.6,11c0.5,0.5,1.1,0.7,1.7,0.7
		l0,0c0.7,0,1.3-0.3,1.8-0.8c1-1,0.9-2.6-0.1-3.5C596.4,646.8,592.9,643.2,589.8,639.6z"/>
	<path class="st1" d="M623.3,668.3c-4.2-2.7-8.3-5.6-12.1-8.5c-1.1-0.8-2.7-0.7-3.5,0.4s-0.7,2.7,0.4,3.5c3.9,3,8.1,6,12.4,8.8
		c0.4,0.3,0.9,0.4,1.4,0.4l0,0c0.8,0,1.6-0.4,2.1-1.1C624.8,670.6,624.4,669.1,623.3,668.3z"/>
	<path class="st1" d="M591,442.3c-1.2-0.7-2.7-0.3-3.4,0.8c-2.6,4.3-5.1,8.8-7.4,13.2c-0.6,1.2-0.1,2.7,1.1,3.4
		c0.4,0.2,0.7,0.3,1.1,0.3c0.9,0,1.8-0.5,2.2-1.3c2.3-4.4,4.7-8.7,7.2-13C592.5,444.6,592.2,443,591,442.3z"/>
	<path class="st1" d="M625.5,396.1c-3.7,3.5-7.2,7.1-10.7,10.8c-0.9,1-0.9,2.6,0.1,3.5c0.5,0.4,1.1,0.7,1.7,0.7l0,0
		c0.7,0,1.4-0.3,1.8-0.8c3.3-3.6,6.8-7.2,10.4-10.5c1-0.9,1-2.5,0.1-3.5C628.1,395.2,626.5,395.1,625.5,396.1z"/>
	<path class="st1" d="M731.3,339.9c-4.9,1.1-9.9,2.4-14.7,3.8c-1.3,0.4-2.1,1.8-1.7,3.1c0.3,1.1,1.3,1.8,2.4,1.8l0,0
		c0.2,0,0.5,0,0.7-0.1c4.7-1.4,9.6-2.6,14.4-3.7c1.4-0.3,2.2-1.6,1.9-3C734,340.5,732.7,339.6,731.3,339.9z"/>
	<polygon class="st1" points="582.4,460.1 582.4,460.1 582.4,460.1 	"/>
	<path class="st1" d="M689.3,358.9c0.3,0,0.7-0.1,1-0.2c4.5-2,9.1-3.9,13.7-5.6c1.3-0.5,2-1.9,1.5-3.2c-0.5-1.3-1.9-2-3.2-1.5
		c-4.7,1.7-9.4,3.7-14,5.7c-1.3,0.6-1.8,2-1.3,3.3C687.4,358.4,688.3,358.9,689.3,358.9L689.3,358.9z"/>
	<path class="st1" d="M676.9,693.5c-4.8-1.6-9.5-3.3-14-5.1c-1.3-0.5-2.7,0.1-3.2,1.4c-0.5,1.3,0.1,2.7,1.4,3.2
		c4.6,1.8,9.4,3.5,14.2,5.2c0.3,0.1,0.5,0.1,0.8,0.1l0,0c1,0,2-0.7,2.4-1.7C678.9,695.3,678.2,693.9,676.9,693.5z"/>
	<path class="st1" d="M649.3,682.6c-4.5-2.1-9-4.4-13.2-6.7c-1.2-0.7-2.7-0.2-3.4,1c-0.7,1.2-0.2,2.7,1,3.4
		c4.3,2.4,8.9,4.7,13.5,6.8c0.3,0.1,0.7,0.2,1,0.2v0c0.9,0,1.9-0.5,2.3-1.5C651.1,684.7,650.5,683.2,649.3,682.6z"/>
	<path class="st1" d="M648.9,376.8c-4.1,2.9-8.1,6-12,9.3c-1.1,0.9-1.2,2.5-0.3,3.5c0.5,0.6,1.2,0.9,1.9,0.9l0,0
		c0.6,0,1.1-0.2,1.6-0.6c3.8-3.1,7.8-6.2,11.7-9c1.1-0.8,1.4-2.4,0.6-3.5S650,376,648.9,376.8z"/>
	<path class="st1" d="M761.3,335.4c-5,0.4-10.1,1-15.1,1.8c-1.4,0.2-2.3,1.5-2.1,2.8c0.2,1.2,1.2,2.1,2.5,2.1l0,0c0.1,0,0.2,0,0.4,0
		c4.8-0.7,9.8-1.3,14.7-1.7c1.4-0.1,2.4-1.3,2.3-2.7C763.9,336.3,762.7,335.3,761.3,335.4z"/>
	<path class="st1" d="M558.1,546.1c0.1,0,0.1,0,0.2,0c1.3,0,2.4-1,2.5-2.3c0.4-4.9,0.9-9.9,1.5-14.7c0.2-1.4-0.8-2.6-2.1-2.8
		s-2.6,0.8-2.8,2.1c-0.7,5-1.2,10-1.6,15.1C555.7,544.8,556.7,546,558.1,546.1z"/>
	<path class="st1" d="M569.6,487.5c0.3,0.1,0.5,0.1,0.8,0.1l0,0c1,0,2-0.6,2.4-1.7c1.6-4.6,3.5-9.3,5.4-13.8c0.5-1.3,0-2.7-1.3-3.3
		c-1.3-0.6-2.7,0-3.3,1.3c-2,4.6-3.9,9.4-5.5,14.1C567.6,485.6,568.3,487,569.6,487.5z"/>
	<path class="st1" d="M596.5,434c0.4,0.3,0.9,0.5,1.4,0.5l0,0c0.8,0,1.6-0.4,2-1.1c2.8-4,5.8-8,8.9-11.8c0.9-1.1,0.7-2.7-0.4-3.5
		c-1.1-0.9-2.7-0.7-3.5,0.4c-3.2,3.9-6.2,8-9.1,12.1C595.1,431.6,595.3,433.2,596.5,434z"/>
	<path class="st1" d="M573.3,615.3c-0.6-1.2-2.1-1.7-3.4-1.1s-1.7,2.1-1.1,3.4c2.3,4.5,4.9,8.9,7.8,13.1c0.5,0.7,1.3,1.1,2.1,1.1v0
		c0.5,0,1-0.1,1.4-0.4c1.1-0.8,1.4-2.3,0.7-3.5C578.1,623.9,575.5,619.6,573.3,615.3z"/>
	<polygon class="st1" points="662.8,373 662.8,373 662.8,373 	"/>
	<path class="st1" d="M662.8,373c0.4,0,0.9-0.1,1.3-0.4c4.2-2.6,8.5-5.1,12.8-7.4c1.2-0.6,1.7-2.2,1-3.4c-0.7-1.2-2.2-1.7-3.4-1
		c-4.4,2.4-8.8,4.9-13.1,7.6c-1.2,0.7-1.5,2.3-0.8,3.4C661.2,372.6,662,373,662.8,373z"/>
	<polygon class="st1" points="562.4,516.5 562.4,516.5 562.4,516.5 	"/>
	<path class="st1" d="M558.5,576.1c0.1,0,0.2,0,0.3,0c1.4-0.2,2.4-1.4,2.2-2.8c-0.5-4.6-0.7-9.3-0.7-14v-0.7c0-1.4-1.1-2.5-2.5-2.5
		c-1.4,0-2.5,1.1-2.5,2.5v0.7c0,4.9,0.3,9.8,0.8,14.5C556.1,575.1,557.2,576.1,558.5,576.1L558.5,576.1z"/>
	<path class="st1" d="M566.6,497c-1.3-0.4-2.7,0.4-3.1,1.7c-1.4,4.8-2.6,9.8-3.6,14.7c-0.3,1.4,0.6,2.7,1.9,3c0.2,0,0.3,0,0.5,0
		c1.2,0,2.2-0.8,2.4-2c1-4.8,2.2-9.7,3.5-14.4C568.7,498.7,567.9,497.4,566.6,497z"/>
	<path class="st1" d="M563.4,587.8c-0.3-1.4-1.6-2.2-3-1.9c-1.4,0.3-2.2,1.6-1.9,3c1.1,5,2.6,9.9,4.3,14.7c0.4,1,1.3,1.7,2.3,1.7
		l0,0c0.3,0,0.6-0.1,0.8-0.2c1.3-0.5,2-1.9,1.5-3.2C565.8,597.3,564.4,592.6,563.4,587.8z"/>
	<path class="st1" d="M1151.5,334.7h-15c-1.4,0-2.5,1.1-2.5,2.5s1.1,2.5,2.5,2.5h15c1.4,0,2.5-1.1,2.5-2.5
		S1152.9,334.7,1151.5,334.7z"/>
	<path class="st1" d="M1241.7,340.8c-1.4-0.9-2.9-1.7-4.4-2.4c-3.3-1.6-6.8-2.7-10.5-3.2c-1.4-0.2-2.7,0.7-2.9,2.1
		c-0.2,1.4,0.7,2.7,2.1,2.9c3.2,0.5,6.2,1.5,9.1,2.8c1.3,0.6,2.6,1.3,3.8,2.1c0.4,0.3,0.9,0.4,1.3,0.4l0,0c0.8,0,1.6-0.4,2.1-1.2
		C1243.2,343.1,1242.9,341.5,1241.7,340.8z"/>
	<path class="st1" d="M1091.5,334.7h-15c-1.4,0-2.5,1.1-2.5,2.5s1.1,2.5,2.5,2.5h15c1.4,0,2.5-1.1,2.5-2.5
		S1092.9,334.7,1091.5,334.7z"/>
	<path class="st1" d="M1256.8,369.5c0.2,0,0.3,0,0.5,0c1.3-0.3,2.2-1.6,2-2.9c-1-5.3-3.1-10.2-6.1-14.7c-0.8-1.1-2.3-1.4-3.5-0.7
		c-1.1,0.8-1.4,2.3-0.7,3.5c2.6,3.9,4.4,8.2,5.3,12.8C1254.6,368.7,1255.6,369.5,1256.8,369.5L1256.8,369.5z"/>
	<path class="st1" d="M1121.5,334.7h-15c-1.4,0-2.5,1.1-2.5,2.5s1.1,2.5,2.5,2.5h15c1.4,0,2.5-1.1,2.5-2.5
		S1122.9,334.7,1121.5,334.7z"/>
	<path class="st1" d="M1181.5,334.7h-15c-1.4,0-2.5,1.1-2.5,2.5s1.1,2.5,2.5,2.5h15c1.4,0,2.5-1.1,2.5-2.5
		S1182.9,334.7,1181.5,334.7z"/>
	<path class="st1" d="M1211.5,334.7h-15c-1.4,0-2.5,1.1-2.5,2.5s1.1,2.5,2.5,2.5h15c1.4,0,2.5-1.1,2.5-2.5
		S1212.9,334.7,1211.5,334.7z"/>
	<path class="st1" d="M1289.7,477.4l-4.6-10.4c-0.6-1.3-2-1.8-3.3-1.3c-1.3,0.6-1.8,2-1.3,3.3l4.6,10.4c0.4,0.9,1.3,1.5,2.3,1.5
		c0.3,0,0.7-0.1,1-0.2C1289.7,480.2,1290.3,478.7,1289.7,477.4z"/>
	<path class="st1" d="M1279,452.9c-1.9-4.4-3.8-8.9-5.4-13.5c-0.5-1.3-1.9-2-3.2-1.5c-1.3,0.5-2,1.9-1.5,3.2
		c1.7,4.6,3.5,9.2,5.5,13.8l0.1,0.3c0.4,0.9,1.3,1.5,2.3,1.5l0,0c0.3,0,0.7-0.1,1-0.2c1.3-0.6,1.8-2,1.3-3.3L1279,452.9z"/>
	<path class="st1" d="M1260.3,399.3c1.4-0.2,2.3-1.5,2.1-2.9c-0.8-4.9-1.4-9.8-1.9-14.7c-0.1-1.4-1.3-2.4-2.7-2.2s-2.4,1.3-2.2,2.7
		c0.5,5,1.1,10.1,1.9,15c0.2,1.2,1.3,2.1,2.5,2.1l0,0C1260,399.3,1260.2,399.3,1260.3,399.3z"/>
	<path class="st1" d="M1268.9,425.4c-1.4-4.7-2.6-9.6-3.7-14.4c-0.3-1.4-1.7-2.2-3-1.9c-1.3,0.3-2.2,1.6-1.9,3
		c1.1,4.9,2.4,9.8,3.8,14.7c0.3,1.1,1.3,1.8,2.4,1.8c0.2,0,0.5,0,0.7-0.1C1268.5,428.1,1269.3,426.7,1268.9,425.4z"/>
	<path class="st1" d="M821.5,334.7h-15c-1.4,0-2.5,1.1-2.5,2.5s1.1,2.5,2.5,2.5h15c1.4,0,2.5-1.1,2.5-2.5S822.9,334.7,821.5,334.7z"
		/>
	<path class="st1" d="M881.5,334.7h-15c-1.4,0-2.5,1.1-2.5,2.5s1.1,2.5,2.5,2.5h15c1.4,0,2.5-1.1,2.5-2.5S882.9,334.7,881.5,334.7z"
		/>
	<path class="st1" d="M851.5,334.7h-15c-1.4,0-2.5,1.1-2.5,2.5s1.1,2.5,2.5,2.5h15c1.4,0,2.5-1.1,2.5-2.5S852.9,334.7,851.5,334.7z"
		/>
	<path class="st1" d="M911.5,334.7h-15c-1.4,0-2.5,1.1-2.5,2.5s1.1,2.5,2.5,2.5h15c1.4,0,2.5-1.1,2.5-2.5S912.9,334.7,911.5,334.7z"
		/>
	<path class="st1" d="M791.5,334.7h-11.6c-1.1,0-2.3,0-3.5,0c-1.4,0-2.5,1.2-2.5,2.5c0,1.4,1.1,2.5,2.5,2.5h0c1.1,0,2.2,0,3.4,0
		h11.6c1.4,0,2.5-1.1,2.5-2.5S792.9,334.7,791.5,334.7z"/>
	<path class="st1" d="M971.5,334.7h-15c-1.4,0-2.5,1.1-2.5,2.5s1.1,2.5,2.5,2.5h15c1.4,0,2.5-1.1,2.5-2.5S972.9,334.7,971.5,334.7z"
		/>
	<path class="st1" d="M1001.5,334.7h-15c-1.4,0-2.5,1.1-2.5,2.5s1.1,2.5,2.5,2.5h15c1.4,0,2.5-1.1,2.5-2.5
		S1002.9,334.7,1001.5,334.7z"/>
	<path class="st1" d="M1031.5,334.7h-15c-1.4,0-2.5,1.1-2.5,2.5s1.1,2.5,2.5,2.5h15c1.4,0,2.5-1.1,2.5-2.5
		S1032.9,334.7,1031.5,334.7z"/>
	<path class="st1" d="M941.5,334.7h-15c-1.4,0-2.5,1.1-2.5,2.5s1.1,2.5,2.5,2.5h15c1.4,0,2.5-1.1,2.5-2.5S942.9,334.7,941.5,334.7z"
		/>
	<path class="st1" d="M1061.5,334.7h-15c-1.4,0-2.5,1.1-2.5,2.5s1.1,2.5,2.5,2.5h15c1.4,0,2.5-1.1,2.5-2.5
		S1062.9,334.7,1061.5,334.7z"/>
	<path class="st1" d="M699.7,700.1c-2.9-0.7-5.8-1.5-8.6-2.3c-1.3-0.4-2.7,0.4-3.1,1.7s0.4,2.7,1.7,3.1c2.9,0.8,5.9,1.6,8.9,2.3
		l-1.2,6.2l33.6-2.2L700.9,694L699.7,700.1z"/>
</g>
</svg>
