<?xml version="1.0" encoding="UTF-8"?>
<svg id="EXAMPLE_-_Pit_Road" data-name="EXAMPLE - Pit Road" xmlns="http://www.w3.org/2000/svg" viewBox="0 0 1920 1080">
  <defs>
    <style>
      .cls-1 {
        fill: #0089ba;
      }

      .cls-1, .cls-2 {
        stroke-width: 0px;
      }

      .cls-2 {
        fill: #d82520;
      }
    </style>
  </defs>
  <g id="Main">
    <g id="pitroad">
      <path class="cls-2" d="M964.08,632.78c-1.06,0-2.05-.68-2.38-1.75-.41-1.32.32-2.72,1.63-3.13l19.08-6c1.31-.41,2.72.32,3.13,1.63.41,1.32-.32,2.72-1.63,3.13l-19.08,6c-.25.08-.5.12-.75.12ZM1002.23,620.78c-1.06,0-2.05-.68-2.38-1.75-.41-1.32.32-2.72,1.63-3.13l19.08-6c1.31-.41,2.72.32,3.13,1.63.41,1.32-.32,2.72-1.63,3.13l-19.08,6c-.25.08-.5.12-.75.12ZM1040.39,608.77c-1.06,0-2.05-.68-2.38-1.75-.41-1.32.32-2.72,1.63-3.13l19.08-6c1.31-.41,2.72.32,3.13,1.63.41,1.32-.32,2.72-1.63,3.13l-19.08,6c-.25.08-.5.12-.75.12ZM1078.55,596.77c-1.06,0-2.05-.68-2.38-1.75-.41-1.32.32-2.72,1.63-3.13l19.08-6c1.31-.41,2.72.32,3.13,1.63.41,1.32-.32,2.72-1.63,3.13l-19.08,6c-.25.08-.5.12-.75.12ZM1116.7,584.77c-1.06,0-2.05-.68-2.38-1.75-.41-1.32.32-2.72,1.63-3.13l19.08-6c1.31-.41,2.72.32,3.13,1.63.41,1.32-.32,2.72-1.63,3.13l-19.08,6c-.25.08-.5.12-.75.12ZM1154.86,572.76c-1.06,0-2.05-.68-2.38-1.75-.41-1.32.32-2.72,1.63-3.13l19.08-6c1.31-.41,2.72.32,3.13,1.63.41,1.32-.32,2.72-1.63,3.13l-19.08,6c-.25.08-.5.12-.75.12ZM1193.02,560.76c-1.06,0-2.05-.68-2.38-1.75-.41-1.32.32-2.72,1.63-3.13l19.08-6c1.31-.41,2.72.32,3.13,1.63.41,1.32-.32,2.72-1.63,3.13l-19.08,6c-.25.08-.5.12-.75.12ZM1465.61,556.04c-.62,0-1.24-.23-1.72-.69l-14.49-13.78c-1-.95-1.04-2.53-.09-3.53.95-1,2.54-1.04,3.53-.09l14.49,13.78c1,.95,1.04,2.53.09,3.53-.49.52-1.15.78-1.81.78ZM1231.17,548.76c-1.06,0-2.05-.68-2.38-1.75-.41-1.32.32-2.72,1.63-3.13l19.08-6c1.31-.41,2.72.32,3.13,1.63.41,1.32-.32,2.72-1.63,3.13l-19.08,6c-.25.08-.5.12-.75.12ZM1269.33,536.75c-1.06,0-2.05-.68-2.38-1.75-.41-1.32.32-2.72,1.63-3.13l19.08-6c1.31-.42,2.72.32,3.13,1.63.41,1.32-.32,2.72-1.63,3.13l-19.08,6c-.25.08-.5.12-.75.12ZM1436.62,528.48c-.62,0-1.24-.23-1.72-.69l-10.82-10.29c-1.16-1.1-2.39-2.17-3.65-3.16-1.09-.85-1.27-2.42-.42-3.51.85-1.08,2.42-1.28,3.51-.42,1.38,1.09,2.73,2.25,4,3.46l10.82,10.29c1,.95,1.04,2.53.09,3.53-.49.52-1.15.78-1.81.78ZM1307.56,524.98c-1.08,0-2.08-.71-2.4-1.8-.39-1.32.37-2.71,1.69-3.1l19.19-5.64c1.33-.39,2.71.37,3.1,1.69.39,1.32-.37,2.71-1.69,3.1l-19.19,5.64c-.24.07-.47.1-.71.1ZM1345.93,513.7c-1.08,0-2.08-.71-2.4-1.8-.39-1.32.37-2.71,1.69-3.1l19.19-5.64c1.33-.39,2.71.37,3.1,1.69.39,1.32-.37,2.71-1.69,3.1l-19.19,5.64c-.24.07-.47.1-.71.1ZM1404.33,505.7c-.24,0-.48-.03-.73-.11-4.82-1.46-9.82-2.2-14.86-2.2h-.02c-1.32,0-2.66.05-3.98.16-1.37.11-2.58-.92-2.69-2.3-.11-1.38.92-2.58,2.3-2.69,1.45-.11,2.92-.17,4.36-.17h.02c5.53,0,11.01.81,16.3,2.41,1.32.4,2.07,1.8,1.67,3.12-.33,1.08-1.32,1.78-2.39,1.78Z"/>
      <polygon class="cls-2" points="973.75 637.9 934.5 639.58 967.64 618.5 973.75 637.9"/>
    </g>
    <g id="mergeline">
      <rect id="mergeline-2" data-name="mergeline" class="cls-1" x="514.93" y="632.99" width="5.02" height="32.47" transform="translate(175.67 -107.37) rotate(14.25)"/>
      <path class="cls-1" d="M667.46,722.46s-.06,0-.09,0c-7.02-.25-13.83-.97-20.23-2.13-1.36-.25-2.26-1.55-2.02-2.91.25-1.36,1.55-2.26,2.9-2.01,6.17,1.12,12.74,1.81,19.52,2.05,1.38.05,2.46,1.21,2.41,2.59-.05,1.35-1.16,2.41-2.5,2.41ZM687.44,721.98c-1.29,0-2.38-.99-2.49-2.3-.11-1.38.91-2.58,2.29-2.69,9.01-.73,16.09-2.01,19.52-2.7,1.35-.28,2.67.6,2.95,1.95.27,1.35-.6,2.67-1.95,2.95-3.53.72-10.84,2.03-20.11,2.79-.07,0-.14,0-.21,0ZM628.31,715.1c-.29,0-.59-.05-.89-.16-6.62-2.51-12.76-5.67-18.26-9.38-1.14-.77-1.45-2.33-.67-3.47.77-1.14,2.33-1.45,3.47-.67,5.18,3.5,10.98,6.48,17.24,8.85,1.29.49,1.94,1.93,1.45,3.22-.38,1-1.33,1.61-2.34,1.61ZM726.28,713.12c-1.04,0-2.01-.65-2.37-1.69-.45-1.31.25-2.73,1.56-3.17l18.93-6.46c1.31-.44,2.73.25,3.17,1.56.45,1.31-.25,2.73-1.56,3.17l-18.93,6.46c-.27.09-.54.13-.81.13ZM764.14,700.2c-1.04,0-2.01-.65-2.37-1.69-.45-1.31.25-2.73,1.56-3.17l18.93-6.46c1.31-.44,2.73.25,3.17,1.56.45,1.31-.25,2.73-1.56,3.17l-18.93,6.46c-.27.09-.54.13-.81.13ZM595.14,693.3c-.58,0-1.15-.2-1.63-.6-5.75-4.93-10.79-8.99-15.42-12.41-1.11-.82-1.34-2.39-.52-3.5s2.39-1.34,3.5-.52c4.72,3.5,9.85,7.63,15.69,12.63,1.05.9,1.17,2.48.27,3.53-.49.58-1.19.87-1.9.87ZM802,687.29c-1.04,0-2.01-.65-2.37-1.69-.45-1.31.25-2.73,1.56-3.17l18.93-6.46c1.31-.44,2.73.25,3.17,1.56.45,1.31-.25,2.73-1.56,3.17l-18.93,6.46c-.27.09-.54.13-.81.13ZM839.86,674.37c-1.04,0-2.01-.65-2.37-1.69-.45-1.31.25-2.73,1.56-3.17l18.93-6.46c1.31-.44,2.73.25,3.17,1.56.45,1.31-.25,2.73-1.56,3.17l-18.93,6.46c-.27.09-.54.13-.81.13ZM562.73,670.13c-.37,0-.75-.08-1.11-.26-6.64-3.3-12.1-4.76-18.25-5.94-1.36-.26-2.25-1.57-1.99-2.92.26-1.36,1.57-2.24,2.93-1.99,5.67,1.08,11.97,2.61,19.54,6.38,1.24.62,1.74,2.12,1.12,3.35-.44.88-1.32,1.39-2.24,1.39ZM877.71,661.46c-1.04,0-2.01-.65-2.37-1.69-.45-1.31.25-2.73,1.56-3.17l18.93-6.46c1.31-.44,2.73.25,3.17,1.56.45,1.31-.25,2.73-1.56,3.17l-18.93,6.46c-.27.09-.54.13-.81.13ZM524.2,660.41c-.17,0-.35-.02-.53-.06-2.33-.5-4.58-1.02-6.85-1.6-1.34-.34-2.15-1.7-1.81-3.04.34-1.34,1.7-2.15,3.04-1.81,2.21.56,4.39,1.07,6.67,1.56,1.35.29,2.21,1.62,1.92,2.97-.25,1.17-1.29,1.98-2.44,1.98ZM915.57,648.54c-1.04,0-2.01-.65-2.37-1.69-.45-1.31.25-2.73,1.56-3.17l18.93-6.46c1.31-.44,2.73.25,3.17,1.56.45,1.31-.25,2.73-1.56,3.17l-18.93,6.46c-.27.09-.54.13-.81.13Z"/>
    </g>
  </g>
</svg>