<?xml version="1.0" encoding="UTF-8"?>
<svg id="EXAMPLE_-_Pit_Road" data-name="EXAMPLE - Pit Road" xmlns="http://www.w3.org/2000/svg" viewBox="0 0 1920 1080">
  <defs>
    <style>
      .cls-1 {
        fill: #0089ba;
      }

      .cls-1, .cls-2 {
        stroke-width: 0px;
      }

      .cls-2 {
        fill: #d82520;
      }
    </style>
  </defs>
  <g id="Mergeline">
    <path class="cls-1" d="M806.69,639.47l-31.59,7.51,1.16,4.89,13.05-3.1c1.06,7.8,3.27,13.28,6.89,17.12.49.52,1.15.78,1.82.78.62,0,1.23-.23,1.72-.68,1-.95,1.05-2.53.1-3.53-2.94-3.12-4.75-7.87-5.63-14.85l13.64-3.24-1.16-4.89Z"/>
    <path class="cls-1" d="M836.14,667.33c-6.86.61-11.8.88-16.01.88-1.27,0-2.48-.03-3.62-.08-1.39-.07-2.55,1-2.61,2.38-.06,1.38,1,2.55,2.38,2.61,1.21.06,2.51.08,3.85.08,4.37,0,9.44-.28,16.45-.89,1.38-.12,2.39-1.33,2.27-2.71-.12-1.38-1.34-2.4-2.71-2.27Z"/>
    <path class="cls-1" d="M936.88,638.8c-.43-1.31-1.84-2.02-3.16-1.59l-2.75.9c-1.31.43-2.03,1.84-1.59,3.16.35,1.05,1.32,1.72,2.37,1.72.26,0,.52-.04.78-.13l2.75-.9c1.31-.43,2.03-1.84,1.59-3.16Z"/>
    <path class="cls-1" d="M873.97,656.85l-19,6.24c-1.31.43-2.03,1.84-1.59,3.16.35,1.05,1.32,1.72,2.37,1.72.26,0,.52-.04.78-.13l19-6.24c1.31-.43,2.03-1.84,1.59-3.16-.43-1.31-1.84-2.03-3.16-1.59Z"/>
    <path class="cls-1" d="M911.97,644.36l-19,6.25c-1.31.43-2.03,1.84-1.59,3.16.35,1.05,1.32,1.72,2.37,1.72.26,0,.52-.04.78-.13l19-6.25c1.31-.43,2.03-1.84,1.59-3.16-.43-1.31-1.84-2.03-3.16-1.59Z"/>
  </g>
  <g id="Pitroad">
    <path class="cls-2" d="M964.08,632.78c-1.06,0-2.05-.68-2.38-1.75-.41-1.32.32-2.72,1.63-3.13l19.08-6c1.31-.41,2.72.32,3.13,1.63.41,1.32-.32,2.72-1.63,3.13l-19.08,6c-.25.08-.5.12-.75.12ZM1002.23,620.78c-1.06,0-2.05-.68-2.38-1.75-.41-1.32.32-2.72,1.63-3.13l19.08-6c1.31-.41,2.72.32,3.13,1.63.41,1.32-.32,2.72-1.63,3.13l-19.08,6c-.25.08-.5.12-.75.12ZM1040.39,608.77c-1.06,0-2.05-.68-2.38-1.75-.41-1.32.32-2.72,1.63-3.13l19.08-6c1.31-.41,2.72.32,3.13,1.63.41,1.32-.32,2.72-1.63,3.13l-19.08,6c-.25.08-.5.12-.75.12ZM1078.55,596.77c-1.06,0-2.05-.68-2.38-1.75-.41-1.32.32-2.72,1.63-3.13l19.08-6c1.31-.41,2.72.32,3.13,1.63.41,1.32-.32,2.72-1.63,3.13l-19.08,6c-.25.08-.5.12-.75.12ZM1116.7,584.77c-1.06,0-2.05-.68-2.38-1.75-.41-1.32.32-2.72,1.63-3.13l19.08-6c1.31-.41,2.72.32,3.13,1.63.41,1.32-.32,2.72-1.63,3.13l-19.08,6c-.25.08-.5.12-.75.12ZM1154.86,572.76c-1.06,0-2.05-.68-2.38-1.75-.41-1.32.32-2.72,1.63-3.13l19.08-6c1.31-.41,2.72.32,3.13,1.63.41,1.32-.32,2.72-1.63,3.13l-19.08,6c-.25.08-.5.12-.75.12ZM1193.02,560.76c-1.06,0-2.05-.68-2.38-1.75-.41-1.32.32-2.72,1.63-3.13l19.08-6c1.31-.41,2.72.32,3.13,1.63.41,1.32-.32,2.72-1.63,3.13l-19.08,6c-.25.08-.5.12-.75.12ZM1465.47,555.53c-.68,0-1.36-.28-1.86-.82l-13.41-14.84c-.92-1.02-.84-2.61.18-3.53,1.03-.93,2.6-.84,3.53.18l13.41,14.84c.92,1.02.84,2.61-.18,3.53-.48.43-1.08.64-1.67.64ZM1231.17,548.76c-1.06,0-2.05-.68-2.38-1.75-.41-1.32.32-2.72,1.63-3.13l19.08-6c1.31-.41,2.72.32,3.13,1.63.41,1.32-.32,2.72-1.63,3.13l-19.08,6c-.25.08-.5.12-.75.12ZM1269.33,536.75c-1.06,0-2.05-.68-2.38-1.75-.41-1.32.32-2.72,1.63-3.13l19.08-6c1.31-.42,2.72.32,3.13,1.63.41,1.32-.32,2.72-1.63,3.13l-19.08,6c-.25.08-.5.12-.75.12ZM1438.66,525.85c-.68,0-1.36-.28-1.86-.82l-3.26-3.61c-3.09-2.92-7.02-5.66-11.67-8.14-1.22-.65-1.68-2.16-1.03-3.38.65-1.22,2.16-1.68,3.38-1.03,5.09,2.71,9.41,5.73,12.84,8.99l.13.14,3.33,3.68c.92,1.02.84,2.61-.18,3.53-.48.43-1.08.65-1.67.65ZM1307.56,524.98c-1.08,0-2.08-.71-2.4-1.8-.39-1.32.37-2.71,1.69-3.1l19.19-5.64c1.33-.39,2.71.37,3.1,1.69.39,1.32-.37,2.71-1.69,3.1l-19.19,5.64c-.24.07-.47.1-.71.1ZM1345.93,513.7c-1.08,0-2.08-.71-2.4-1.8-.39-1.32.37-2.71,1.69-3.1l19.19-5.64c1.33-.39,2.71.37,3.1,1.69.39,1.32-.37,2.71-1.69,3.1l-19.19,5.64c-.24.07-.47.1-.71.1ZM1404.41,506.42c-.21,0-.41-.03-.62-.08-6.62-1.7-13.21-2.52-19.11-2.37-1.37.03-2.53-1.06-2.56-2.44-.04-1.38,1.06-2.53,2.44-2.56.5-.01,1.01-.02,1.52-.02,5.9,0,12.46.88,18.96,2.55,1.34.34,2.14,1.71,1.8,3.04-.29,1.13-1.31,1.88-2.42,1.88Z"/>
    <polygon class="cls-2" points="973.75 637.9 934.5 639.58 967.64 618.5 973.75 637.9"/>
  </g>
</svg>