<?xml version="1.0" encoding="UTF-8"?>
<svg id="a" data-name="Lime Rock School - Pit Road" xmlns="http://www.w3.org/2000/svg" viewBox="0 0 1920 1080">
  <defs>
    <style>
      .d {
        fill: #d82520;
      }

      .d, .e {
        stroke-width: 0px;
      }

      .e {
        fill: #016699;
      }
    </style>
  </defs>
  <g id="b" data-name="Mergeline">
    <g>
      <path class="e" d="M484.93,983.42c-7.39.74-15.29,1.33-24,1.79l-1.56-27.56-9.98.56,3.67,64.9,9.98-.56-1.55-27.35c8.85-.47,16.89-1.07,24.43-1.82,2.75-.28,4.75-2.73,4.48-5.47s-2.72-4.76-5.47-4.48Z"/>
      <path class="e" d="M597.76,945.33c-3.7.1-6.61,1.91-10.63,4.41-2.28,1.42-5.12,3.19-8.88,5.15-3.4,1.77-6.38,3.29-9.11,4.66-2.47,1.23-3.47,4.24-2.24,6.71.88,1.75,2.64,2.77,4.48,2.77.75,0,1.51-.17,2.23-.53,2.79-1.39,5.82-2.94,9.26-4.74,4.11-2.14,7.13-4.02,9.55-5.53,2.58-1.61,4.62-2.88,5.6-2.9,2.76-.07,4.94-2.37,4.87-5.13-.07-2.76-2.37-4.96-5.13-4.87Z"/>
      <path class="e" d="M542.23,971.35c-8.98,3.25-18.18,5.81-28.14,7.82-2.71.55-4.46,3.18-3.91,5.89.48,2.37,2.56,4.01,4.9,4.01.33,0,.66-.03,1-.1,10.45-2.11,20.12-4.8,29.56-8.22,2.6-.94,3.94-3.81,3-6.4-.94-2.6-3.81-3.94-6.4-3Z"/>
    </g>
  </g>
  <g id="c" data-name="Pitroad">
    <path class="d" d="M822.15,947.54c-9.99-.09-20.02-.18-30.02-.25h-.02c-1.37,0-2.49,1.11-2.5,2.48-.01,1.38,1.1,2.51,2.48,2.52,10,.08,20.03.16,30.02.25h.02c1.37,0,2.49-1.1,2.5-2.48.01-1.38-1.1-2.51-2.48-2.52Z"/>
    <path class="d" d="M762.11,947.08c-10.11-.06-20.13-.11-30.02-.15h0c-1.38,0-2.49,1.11-2.5,2.49,0,1.38,1.11,2.5,2.49,2.51,9.88.04,19.91.09,30.01.15h.02c1.37,0,2.49-1.11,2.5-2.48,0-1.38-1.1-2.51-2.48-2.52Z"/>
    <path class="d" d="M942.19,948.73c-9.7-.09-19.73-.19-30.01-.29h-.03c-1.37,0-2.49,1.1-2.5,2.47-.01,1.38,1.09,2.51,2.47,2.53,10.29.1,20.32.2,30.02.29h.02c1.37,0,2.49-1.1,2.5-2.48.01-1.38-1.1-2.51-2.48-2.52Z"/>
    <path class="d" d="M642.07,947.09h-.02c-7.77.07-15.18.17-22.12.28l2.84-17.49-38.2,28.46,47.04,7.51-10.1-13.49c6.5-.1,13.39-.19,20.6-.26,1.38-.01,2.49-1.14,2.48-2.52-.01-1.37-1.13-2.48-2.5-2.48Z"/>
    <path class="d" d="M702.07,946.86h-5.8c-8.24,0-16.33,0-24.21.04-1.38,0-2.5,1.13-2.49,2.51,0,1.38,1.12,2.49,2.5,2.49h0c7.88-.03,15.96-.04,24.19-.04h5.8s0,0,0,0c1.38,0,2.5-1.12,2.5-2.5s-1.12-2.5-2.5-2.5Z"/>
    <path class="d" d="M882.16,948.13c-9.87-.1-19.89-.2-30.01-.3h-.02c-1.37,0-2.49,1.1-2.5,2.48-.01,1.38,1.09,2.51,2.48,2.52,10.12.1,20.14.2,30.01.3h.03c1.37,0,2.49-1.1,2.5-2.47.01-1.38-1.09-2.51-2.47-2.53Z"/>
    <path class="d" d="M1233.9,990.5c-.12,0-12.33-.79-30.04-2.03-1.36-.1-2.57.94-2.67,2.32-.1,1.38.94,2.57,2.32,2.67,17.72,1.24,29.94,2.03,30.06,2.03.05,0,.11,0,.16,0,1.31,0,2.41-1.02,2.49-2.34.09-1.38-.96-2.57-2.33-2.66Z"/>
    <path class="d" d="M1173.9,986.31c-10.55-.79-20.62-1.57-29.95-2.32-1.37-.09-2.58.92-2.69,2.29-.11,1.38.91,2.58,2.29,2.69,9.34.75,19.43,1.54,29.98,2.33.06,0,.13,0,.19,0,1.3,0,2.39-1,2.49-2.31.1-1.38-.93-2.58-2.31-2.68Z"/>
    <path class="d" d="M1056.73,971.37c-1.48-1.06-3.01-2.33-4.56-3.76-2.57-2.37-8.59-7.93-11.91-10.39-2.65-1.97-4.74-3.46-7.44-4.65-1.26-.56-2.74.01-3.3,1.28-.56,1.26.01,2.74,1.28,3.3,2.23.98,4.09,2.32,6.48,4.09,3.1,2.3,9.2,7.93,11.5,10.05,1.7,1.57,3.39,2.96,5.02,4.14.44.32.95.47,1.46.47.78,0,1.54-.36,2.03-1.04.81-1.12.55-2.68-.57-3.49Z"/>
    <path class="d" d="M1002.22,949.17h-.32c-9.23-.04-19.17-.1-29.7-.18h-.02c-1.37,0-2.49,1.11-2.5,2.48-.01,1.38,1.1,2.51,2.48,2.52,10.53.08,20.48.14,29.7.18h.31s.02,0,.02,0c1.37,0,2.49-1.1,2.5-2.48.01-1.38-1.1-2.51-2.48-2.52Z"/>
    <path class="d" d="M1114.02,981.43c-11.67-1.06-21.72-2.06-29.86-2.99-1.38-.16-2.61.83-2.77,2.2s.83,2.61,2.2,2.77c8.18.93,18.26,1.93,29.97,3,.08,0,.15,0,.23,0,1.28,0,2.37-.98,2.49-2.27.12-1.38-.89-2.59-2.26-2.72Z"/>
  </g>
</svg>