<?xml version="1.0" encoding="UTF-8"?>
<svg id="EXAMPLE_-_Pit_Road" data-name="EXAMPLE - Pit Road" xmlns="http://www.w3.org/2000/svg" viewBox="0 0 1920 1080">
  <defs>
    <style>
      .cls-1 {
        fill: #0089ba;
      }

      .cls-1, .cls-2 {
        stroke-width: 0px;
      }

      .cls-2 {
        fill: #d82520;
      }
    </style>
  </defs>
  <g id="pitroad">
    <path class="cls-2" d="M1364.7,244.83h-20c-1.38,0-2.5-1.12-2.5-2.5s1.12-2.5,2.5-2.5h20c1.38,0,2.5,1.12,2.5,2.5s-1.12,2.5-2.5,2.5ZM1324.7,244.83h-20c-1.38,0-2.5-1.12-2.5-2.5s1.12-2.5,2.5-2.5h20c1.38,0,2.5,1.12,2.5,2.5s-1.12,2.5-2.5,2.5ZM1284.7,244.83h-20c-1.38,0-2.5-1.12-2.5-2.5s1.12-2.5,2.5-2.5h20c1.38,0,2.5,1.12,2.5,2.5s-1.12,2.5-2.5,2.5ZM1244.7,244.83h-20c-1.38,0-2.5-1.12-2.5-2.5s1.12-2.5,2.5-2.5h20c1.38,0,2.5,1.12,2.5,2.5s-1.12,2.5-2.5,2.5ZM1204.7,244.83h-20c-1.38,0-2.5-1.12-2.5-2.5s1.12-2.5,2.5-2.5h20c1.38,0,2.5,1.12,2.5,2.5s-1.12,2.5-2.5,2.5ZM1164.7,244.83h-20c-1.38,0-2.5-1.12-2.5-2.5s1.12-2.5,2.5-2.5h20c1.38,0,2.5,1.12,2.5,2.5s-1.12,2.5-2.5,2.5ZM1124.7,244.83h-20c-1.38,0-2.5-1.12-2.5-2.5s1.12-2.5,2.5-2.5h20c1.38,0,2.5,1.12,2.5,2.5s-1.12,2.5-2.5,2.5ZM1084.7,244.83h-20c-1.38,0-2.5-1.12-2.5-2.5s1.12-2.5,2.5-2.5h20c1.38,0,2.5,1.12,2.5,2.5s-1.12,2.5-2.5,2.5ZM1044.7,244.83h-20c-1.38,0-2.5-1.12-2.5-2.5s1.12-2.5,2.5-2.5h20c1.38,0,2.5,1.12,2.5,2.5s-1.12,2.5-2.5,2.5ZM1004.7,244.83h-20c-1.38,0-2.5-1.12-2.5-2.5s1.12-2.5,2.5-2.5h20c1.38,0,2.5,1.12,2.5,2.5s-1.12,2.5-2.5,2.5ZM964.7,244.83h-20c-1.38,0-2.5-1.12-2.5-2.5s1.12-2.5,2.5-2.5h20c1.38,0,2.5,1.12,2.5,2.5s-1.12,2.5-2.5,2.5ZM924.7,244.83h-20c-1.38,0-2.5-1.12-2.5-2.5s1.12-2.5,2.5-2.5h20c1.38,0,2.5,1.12,2.5,2.5s-1.12,2.5-2.5,2.5ZM884.7,244.83h-20c-1.38,0-2.5-1.12-2.5-2.5s1.12-2.5,2.5-2.5h20c1.38,0,2.5,1.12,2.5,2.5s-1.12,2.5-2.5,2.5ZM844.7,244.83h-20c-1.38,0-2.5-1.12-2.5-2.5s1.12-2.5,2.5-2.5h20c1.38,0,2.5,1.12,2.5,2.5s-1.12,2.5-2.5,2.5ZM804.7,244.83h-20c-1.38,0-2.5-1.12-2.5-2.5s1.12-2.5,2.5-2.5h20c1.38,0,2.5,1.12,2.5,2.5s-1.12,2.5-2.5,2.5ZM764.7,244.83h-20c-1.38,0-2.5-1.12-2.5-2.5s1.12-2.5,2.5-2.5h20c1.38,0,2.5,1.12,2.5,2.5s-1.12,2.5-2.5,2.5ZM724.7,244.83h-20c-1.38,0-2.5-1.12-2.5-2.5s1.12-2.5,2.5-2.5h20c1.38,0,2.5,1.12,2.5,2.5s-1.12,2.5-2.5,2.5ZM684.7,244.83h-20c-1.38,0-2.5-1.12-2.5-2.5s1.12-2.5,2.5-2.5h20c1.38,0,2.5,1.12,2.5,2.5s-1.12,2.5-2.5,2.5ZM644.7,244.83h-9.71s-10.48-1-10.48-1c-1.38-.13-2.38-1.35-2.25-2.72.13-1.38,1.34-2.39,2.72-2.25l10.36.98h9.36c1.38,0,2.5,1.12,2.5,2.5s-1.12,2.5-2.5,2.5ZM604.84,241.96c-.08,0-.16,0-.24-.01l-19.91-1.88c-1.38-.13-2.38-1.35-2.25-2.72.13-1.38,1.36-2.38,2.72-2.25l19.91,1.88c1.37.13,2.38,1.35,2.25,2.72-.12,1.29-1.21,2.27-2.49,2.27ZM565.02,238.2c-.08,0-.16,0-.24-.01l-19.91-1.88c-1.37-.13-2.38-1.35-2.25-2.72.13-1.38,1.34-2.39,2.72-2.25l19.91,1.88c1.37.13,2.38,1.35,2.25,2.72-.12,1.29-1.21,2.27-2.49,2.27ZM525.19,234.44c-.08,0-.16,0-.24-.01l-19.91-1.88c-1.37-.13-2.38-1.35-2.25-2.72.13-1.38,1.36-2.38,2.72-2.25l19.91,1.88c1.38.13,2.38,1.35,2.25,2.72-.12,1.29-1.21,2.27-2.49,2.27Z"/>
    <polygon class="cls-2" points="1357.27 231.44 1397.92 242.33 1357.27 253.23 1357.27 231.44"/>
  </g>
  <g id="mergeline">
    <rect id="mergeline-2" data-name="mergeline" class="cls-1" x="1570.56" y="202.65" width="5.02" height="32.47"/>
    <path class="cls-1" d="M1405.33,242.5c-1.26,0-2.34-.94-2.48-2.22-.15-1.37.83-2.61,2.21-2.76l19.88-2.22c1.37-.16,2.61.83,2.76,2.21.15,1.37-.83,2.61-2.21,2.76l-19.88,2.22c-.09.01-.19.02-.28.02ZM1445.08,238.06c-1.26,0-2.34-.94-2.48-2.22-.15-1.37.83-2.61,2.21-2.76l19.88-2.22c1.36-.15,2.61.83,2.76,2.21.15,1.37-.83,2.61-2.21,2.76l-19.88,2.22c-.09.01-.19.02-.28.02ZM1484.83,233.62c-1.26,0-2.34-.94-2.48-2.22-.15-1.37.83-2.61,2.21-2.76l19.88-2.22c1.37-.15,2.61.83,2.76,2.21.15,1.37-.83,2.61-2.21,2.76l-19.88,2.22c-.09.01-.19.02-.28.02ZM1573.07,229.5h-8.46c-1.38,0-2.5-1.12-2.5-2.5s1.12-2.5,2.5-2.5h8.46c1.38,0,2.5,1.12,2.5,2.5s-1.12,2.5-2.5,2.5ZM1544.61,229.5h-20c-1.38,0-2.5-1.12-2.5-2.5s1.12-2.5,2.5-2.5h20c1.38,0,2.5,1.12,2.5,2.5s-1.12,2.5-2.5,2.5Z"/>
  </g>
</svg>