<?xml version="1.0" encoding="utf-8"?>
<!-- Generator: Adobe Illustrator 24.2.0, SVG Export Plug-In . SVG Version: 6.00 Build 0)  -->
<svg version="1.1" id="Road_Course_-_Pit_Road" xmlns="http://www.w3.org/2000/svg" xmlns:xlink="http://www.w3.org/1999/xlink"
	 x="0px" y="0px" viewBox="0 0 1920 1080" style="enable-background:new 0 0 1920 1080;" xml:space="preserve">
<style type="text/css">
	.st0{fill:#D82520;}
</style>
<g id="Pitroad">
	<path class="st0" d="M710,848.6h-30.1c-1.4,0-2.5,1.1-2.5,2.5s1.1,2.5,2.5,2.5H710c1.4,0,2.5-1.1,2.5-2.5S711.4,848.6,710,848.6z"
		/>
	<path class="st0" d="M649.9,848.6h-30.1c-1.4,0-2.5,1.1-2.5,2.5s1.1,2.5,2.5,2.5h30.1c1.4,0,2.5-1.1,2.5-2.5
		S651.2,848.6,649.9,848.6L649.9,848.6z"/>
	<path class="st0" d="M589.7,848.6h-30.1c-1.4,0-2.5,1.1-2.5,2.5s1.1,2.5,2.5,2.5h30.1c1.4,0,2.5-1.1,2.5-2.5
		S591.1,848.6,589.7,848.6L589.7,848.6z"/>
	<path class="st0" d="M830.2,848.6h-30c-1.4,0-2.5,1.1-2.5,2.5s1.1,2.5,2.5,2.5h30c1.4,0,2.5-1.1,2.5-2.5S831.6,848.6,830.2,848.6z"
		/>
	<path class="st0" d="M770.1,848.6h-30.1c-1.4,0-2.5,1.1-2.5,2.5s1.1,2.5,2.5,2.5h30.1c1.4,0,2.5-1.1,2.5-2.5
		S771.5,848.6,770.1,848.6z"/>
	<path class="st0" d="M413,828.1c-9.2-3.6-18.4-7.5-27.4-11.8c-1.2-0.6-2.7-0.1-3.3,1.2s-0.1,2.7,1.2,3.3l0,0
		c9.1,4.3,18.4,8.3,27.7,11.9c0.3,0.1,0.6,0.2,0.9,0.2c1.4,0,2.5-1.1,2.5-2.5C414.6,829.4,414,828.5,413,828.1L413,828.1z"/>
	<path class="st0" d="M529.5,848.6h-30.1c-1.4,0-2.5,1.1-2.5,2.5s1.1,2.5,2.5,2.5h30.1c1.4,0,2.5-1.1,2.5-2.5
		S530.9,848.6,529.5,848.6z"/>
	<path class="st0" d="M470,845.4c-9.3-2-19-4.5-28.8-7.5c-1.3-0.4-2.7,0.4-3.1,1.7c-0.4,1.3,0.4,2.6,1.6,3c10,3,19.8,5.6,29.2,7.6
		c0.2,0,0.3,0.1,0.5,0.1c1.4,0,2.5-1.1,2.5-2.5C472,846.7,471.2,845.7,470,845.4L470,845.4z"/>
	<path class="st0" d="M1070.8,848.6h-30.1c-1.4,0-2.5,1.1-2.5,2.5s1.1,2.5,2.5,2.5h30.1c1.4,0,2.5-1.1,2.5-2.5
		S1072.1,848.6,1070.8,848.6z"/>
	<path class="st0" d="M1191.1,849c-9.1-0.1-14.8-0.4-14.9-0.4H1161c-1.4,0-2.5,1.1-2.5,2.5s1.1,2.5,2.5,2.5h15c0.7,0,6.4,0.3,15,0.4
		l0,0c1.4,0,2.5-1.1,2.5-2.5S1192.4,849,1191.1,849L1191.1,849z"/>
	<path class="st0" d="M1250.7,845.8c-9.2,1.2-19.2,2-29.7,2.5c-1.4,0-2.5,1.2-2.4,2.6c0,1.4,1.2,2.5,2.6,2.4h0.1
		c10.7-0.5,20.8-1.4,30.1-2.6c1.4-0.2,2.4-1.4,2.2-2.8C1253.3,846.6,1252.1,845.6,1250.7,845.8L1250.7,845.8z"/>
	<path class="st0" d="M1130.9,848.6h-30.1c-1.4,0-2.5,1.1-2.5,2.5s1.1,2.5,2.5,2.5h30.1c1.4,0,2.5-1.1,2.5-2.5
		S1132.3,848.6,1130.9,848.6z"/>
	<path class="st0" d="M890.3,848.6h-30.1c-1.4,0-2.5,1.1-2.5,2.5s1.1,2.5,2.5,2.5h30.1c1.4,0,2.5-1.1,2.5-2.5
		S891.7,848.6,890.3,848.6z"/>
	<path class="st0" d="M1010.6,848.6h-30.1c-1.4,0-2.5,1.1-2.5,2.5s1.1,2.5,2.5,2.5h30.1c1.4,0,2.5-1.1,2.5-2.5
		S1012,848.6,1010.6,848.6z"/>
	<path class="st0" d="M950.5,848.6h-30.1c-1.4,0-2.5,1.1-2.5,2.5s1.1,2.5,2.5,2.5h30.1c1.4,0,2.5-1.1,2.5-2.5
		S951.9,848.6,950.5,848.6z"/>
	<path class="st0" d="M1323.6,813.3l-44.7,16.5l14.5,6.4c-4.4,1.7-8.9,3.1-13.5,4.2c-1.3,0.3-2.1,1.7-1.8,3c0.3,1.1,1.3,1.9,2.4,1.9
		c0.2,0,0.4,0,0.6-0.1c5.7-1.5,11.4-3.3,16.9-5.5l6.3,17L1323.6,813.3z"/>
</g>
</svg>
