<?xml version="1.0" encoding="utf-8"?>
<!-- Generator: Adobe Illustrator 28.1.0, SVG Export Plug-In . SVG Version: 6.00 Build 0)  -->
<svg version="1.1" id="Layer_1" xmlns="http://www.w3.org/2000/svg" xmlns:xlink="http://www.w3.org/1999/xlink" x="0px" y="0px"
	 viewBox="0 0 1920 1080" style="enable-background:new 0 0 1920 1080;" xml:space="preserve">
<style type="text/css">
	.st0{fill:#D82520;}
	.st1{fill:#0089BA;}
</style>
<g id="EXAMPLE_-_Pit_Road">
	<g id="Pitroad">
		<path class="st0" d="M1168.4,656.4h-15c-1.4,0-2.5-1.1-2.5-2.5s1.1-2.5,2.5-2.5h15c1.4,0,2.5,1.1,2.5,2.5
			S1169.8,656.4,1168.4,656.4z M1138.4,656.4h-15c-1.4,0-2.5-1.1-2.5-2.5s1.1-2.5,2.5-2.5h15c1.4,0,2.5,1.1,2.5,2.5
			S1139.8,656.4,1138.4,656.4z M1108.4,656.4h-15c-1.4,0-2.5-1.1-2.5-2.5s1.1-2.5,2.5-2.5h15c1.4,0,2.5,1.1,2.5,2.5
			S1109.8,656.4,1108.4,656.4z M1078.4,656.4h-15c-1.4,0-2.5-1.1-2.5-2.5s1.1-2.5,2.5-2.5h15c1.4,0,2.5,1.1,2.5,2.5
			S1079.8,656.4,1078.4,656.4z M1048.4,656.4h-15c-1.4,0-2.5-1.1-2.5-2.5s1.1-2.5,2.5-2.5h15c1.4,0,2.5,1.1,2.5,2.5
			S1049.8,656.4,1048.4,656.4z M1018.5,656.4h-15c-1.4,0-2.5-1.1-2.5-2.5s1.1-2.5,2.5-2.5h15c1.4,0,2.5,1.1,2.5,2.5
			S1019.8,656.4,1018.5,656.4z M988.5,656.4h-15c-1.4,0-2.5-1.1-2.5-2.5s1.1-2.5,2.5-2.5h15c1.4,0,2.5,1.1,2.5,2.5
			S989.8,656.4,988.5,656.4z M958.5,656.4h-15c-1.4,0-2.5-1.1-2.5-2.5s1.1-2.5,2.5-2.5h15c1.4,0,2.5,1.1,2.5,2.5
			S959.8,656.4,958.5,656.4z M928.5,656.4h-15c-1.4,0-2.5-1.1-2.5-2.5s1.1-2.5,2.5-2.5h15c1.4,0,2.5,1.1,2.5,2.5
			S929.8,656.4,928.5,656.4z M898.5,656.4h-3.7c-3.8,0-7.7-0.2-11.4-0.4c-1.4-0.1-2.4-1.3-2.3-2.7s1.3-2.4,2.7-2.3
			c3.7,0.3,7.4,0.4,11,0.4h3.7c1.4,0,2.5,1.1,2.5,2.5S899.8,656.4,898.5,656.4z M1183.4,656.1c-1.3,0-2.4-1-2.5-2.3
			c-0.1-1.4,1-2.6,2.3-2.7c5-0.3,9.9-0.9,14.6-1.8c1.4-0.2,2.7,0.6,2.9,2c0.2,1.4-0.6,2.7-2,2.9c-4.8,0.9-9.9,1.5-15.2,1.8
			C1183.5,656.1,1183.5,656.1,1183.4,656.1L1183.4,656.1z M868.6,654c-0.2,0-0.3,0-0.5,0c-5-0.9-10-2.1-14.8-3.6
			c-1.3-0.4-2.1-1.8-1.7-3.1c0.4-1.3,1.8-2.1,3.1-1.7c4.7,1.4,9.5,2.6,14.3,3.5c1.4,0.2,2.3,1.5,2,2.9
			C870.8,653.2,869.8,654,868.6,654L868.6,654z M1212.8,650.5c-1,0-2-0.6-2.4-1.7c-0.5-1.3,0.2-2.7,1.5-3.2c4.7-1.6,9.1-3.7,13.2-6
			c1.2-0.7,2.7-0.3,3.4,0.9c0.7,1.2,0.3,2.7-0.9,3.4c-4.4,2.5-9.1,4.6-14,6.4C1213.3,650.4,1213,650.5,1212.8,650.5L1212.8,650.5z
			 M839.9,645.4c-0.3,0-0.7-0.1-1-0.2c-2-0.8-4-1.8-5.9-2.7c-2.7-1.3-5.3-2.7-7.8-4.1c-1.2-0.7-1.6-2.2-0.9-3.4
			c0.7-1.2,2.2-1.6,3.4-0.9c2.4,1.4,4.9,2.7,7.5,3.9c1.8,0.9,3.8,1.8,5.7,2.6c1.3,0.5,1.9,2,1.3,3.3
			C841.8,644.8,840.9,645.4,839.9,645.4L839.9,645.4z M1238.6,635.6c-0.7,0-1.4-0.3-1.9-0.9c-0.9-1-0.8-2.6,0.2-3.5
			c3.6-3.1,7-6.7,10-10.5c0.8-1.1,2.4-1.3,3.5-0.4c1.1,0.8,1.3,2.4,0.4,3.5c-3.2,4.1-6.8,7.9-10.6,11.2
			C1239.8,635.4,1239.2,635.6,1238.6,635.6z M814,630.5c-0.5,0-1.1-0.2-1.5-0.5c-4.2-3.2-8-6.7-11.4-10.3c-0.9-1-0.9-2.6,0.1-3.5
			s2.6-0.9,3.5,0.1c3.2,3.4,6.8,6.7,10.8,9.8c1.1,0.8,1.3,2.4,0.5,3.5C815.5,630.1,814.7,630.5,814,630.5L814,630.5z M1257,612.2
			c-0.4,0-0.8-0.1-1.2-0.3c-1.2-0.7-1.7-2.2-1-3.4c2.2-4.2,4.2-8.7,5.8-13.4c0.5-1.3,1.9-2,3.2-1.5c1.3,0.5,2,1.9,1.5,3.2
			c-1.8,5-3.8,9.7-6.2,14.1C1258.8,611.7,1257.9,612.2,1257,612.2L1257,612.2z M793.7,608.6c-0.8,0-1.7-0.4-2.1-1.2
			c-1.7-2.7-3.1-5.4-4.4-8.3c-0.8-1.9-1.7-3.7-2.4-5.5c-0.5-1.3,0.1-2.7,1.4-3.3c1.3-0.5,2.7,0.1,3.3,1.4c0.7,1.8,1.5,3.6,2.3,5.4
			c1.2,2.6,2.6,5.2,4.1,7.7c0.7,1.2,0.4,2.7-0.8,3.4C794.6,608.5,794.2,608.6,793.7,608.6z M1267.1,584c-0.2,0-0.3,0-0.5-0.1
			c-1.3-0.3-2.2-1.6-1.9-3c1-4.7,1.8-9.6,2.3-14.5c0.2-1.4,1.4-2.4,2.8-2.2s2.4,1.4,2.2,2.8c-0.6,5.1-1.4,10.2-2.4,15.1
			C1269.3,583.2,1268.2,584,1267.1,584L1267.1,584z M782.2,581c-1.1,0-2.1-0.7-2.4-1.8c-1.4-5.1-2.4-10.2-2.9-15.1
			c-0.2-1.4,0.8-2.6,2.2-2.8s2.6,0.8,2.8,2.2c0.5,4.6,1.4,9.5,2.8,14.3c0.4,1.3-0.4,2.7-1.8,3.1C782.7,581,782.5,581,782.2,581
			L782.2,581z M779.2,551.3c-0.1,0-0.1,0-0.2,0c-1.4-0.1-2.4-1.3-2.3-2.7c0.4-5.2,1.4-10.3,2.8-15.2c0.4-1.3,1.8-2.1,3.1-1.7
			c1.3,0.4,2.1,1.8,1.7,3.1c-1.3,4.6-2.2,9.4-2.6,14.2C781.5,550.3,780.4,551.3,779.2,551.3L779.2,551.3z M787.5,522.7
			c-0.4,0-0.8-0.1-1.2-0.3c-1.2-0.6-1.7-2.1-1.1-3.4c2.3-4.4,5-8.8,8.2-13c0.8-1.1,2.4-1.3,3.5-0.5s1.3,2.4,0.5,3.5
			c-3,4-5.6,8.2-7.7,12.3C789.2,522.2,788.4,522.7,787.5,522.7L787.5,522.7z M805.1,498.6c-0.6,0-1.2-0.2-1.7-0.7
			c-1-1-1-2.5-0.1-3.5c3.3-3.5,7.1-7,11.1-10.4c1-0.9,2.6-0.8,3.5,0.3c0.9,1,0.8,2.6-0.3,3.5c-3.9,3.3-7.5,6.7-10.7,10.1
			C806.4,498.3,805.8,498.6,805.1,498.6L805.1,498.6z M827.8,479c-0.8,0-1.5-0.4-2-1c-0.8-1.1-0.6-2.7,0.5-3.5
			c3.9-2.9,8.1-5.7,12.5-8.6c1.2-0.8,2.7-0.4,3.5,0.8s0.4,2.7-0.8,3.5c-4.3,2.8-8.4,5.6-12.2,8.4C828.8,478.9,828.3,479,827.8,479
			L827.8,479z M852.9,462.7c-0.9,0-1.7-0.5-2.2-1.2c-0.7-1.2-0.3-2.7,0.9-3.4c4.2-2.4,8.6-4.9,13.2-7.3c1.2-0.6,2.7-0.2,3.4,1
			s0.2,2.7-1,3.4c-4.5,2.4-8.9,4.8-13,7.2C853.8,462.6,853.4,462.7,852.9,462.7L852.9,462.7z M879.4,448.7c-0.9,0-1.8-0.5-2.2-1.4
			c-0.6-1.2-0.1-2.7,1.2-3.3c3.8-1.9,7.8-3.7,11.8-5.6c1.2-0.6,2.7,0,3.3,1.2c0.6,1.3,0,2.7-1.2,3.3c-4,1.8-7.9,3.7-11.7,5.5
			C880.2,448.6,879.8,448.7,879.4,448.7L879.4,448.7z"/>
		<polygon class="st0" points="1261.1,571.9 1270,542.3 1277.1,572.4 		"/>
	</g>
	<g id="Mergeline">
		<path class="st1" d="M1268.6,542.5c-1,0-2-0.6-2.3-1.7c-1.8-5.1-3.3-8.9-4.7-12.3c-0.5-1.3,0.1-2.7,1.4-3.3s2.7,0.1,3.3,1.4
			c1.4,3.5,2.9,7.3,4.8,12.5c0.5,1.3-0.2,2.7-1.5,3.2C1269.1,542.5,1268.8,542.5,1268.6,542.5L1268.6,542.5z M1257.4,516.6
			c-0.9,0-1.7-0.5-2.2-1.3c-2.5-4.4-5.2-8.3-8.2-11.9c-0.9-1-0.8-2.6,0.3-3.5c1.1-0.9,2.6-0.8,3.5,0.3c3.3,3.8,6.1,8,8.8,12.7
			c0.7,1.2,0.2,2.7-0.9,3.4C1258.2,516.5,1257.8,516.6,1257.4,516.6L1257.4,516.6z M1238.1,493.9c-0.6,0-1.1-0.2-1.6-0.5
			c-3.6-2.9-7.5-5.6-12.1-8.2c-1.2-0.7-1.6-2.2-0.9-3.4c0.7-1.2,2.2-1.6,3.4-0.9c4.7,2.8,8.9,5.6,12.6,8.6c1.1,0.9,1.2,2.4,0.4,3.5
			C1239.6,493.6,1238.8,493.9,1238.1,493.9z M1212.5,478.5c-0.4,0-0.7-0.1-1.1-0.2c-4.1-2-8.7-3.9-13.6-5.9c-1.3-0.5-1.9-2-1.4-3.2
			c0.5-1.3,2-1.9,3.2-1.4c5,2,9.7,4,13.9,6c1.2,0.6,1.8,2.1,1.2,3.3C1214.3,477.9,1213.4,478.5,1212.5,478.5L1212.5,478.5z
			 M1184.7,467.3c-0.3,0-0.6,0-0.8-0.1c-4.4-1.6-9.2-3.1-14.1-4.8c-1.3-0.4-2-1.8-1.6-3.1c0.4-1.3,1.8-2,3.1-1.6
			c5,1.6,9.8,3.2,14.3,4.8c1.3,0.5,2,1.9,1.5,3.2C1186.7,466.6,1185.7,467.3,1184.7,467.3L1184.7,467.3z"/>
		
			<rect x="1149.7" y="456.8" transform="matrix(0.3123 -0.95 0.95 0.3123 367.9132 1428.2682)" class="st1" width="41.6" height="6.4"/>
	</g>
</g>
</svg>
