<?xml version="1.0" encoding="utf-8"?>
<!-- Generator: Adobe Illustrator 26.3.1, SVG Export Plug-In . SVG Version: 6.00 Build 0)  -->
<svg version="1.1" id="Kokomo__Pit_Road" xmlns="http://www.w3.org/2000/svg" xmlns:xlink="http://www.w3.org/1999/xlink" x="0px"
	 y="0px" viewBox="0 0 1920 1080" style="enable-background:new 0 0 1920 1080;" xml:space="preserve">
<style type="text/css">
	.st0{fill:#D82520;}
</style>
<g id="pitroad">
	<path class="st0" d="M815.1,328.4c1.4-0.2,2.3-1.6,2-2.9c-1.6-8.7-4.6-16.2-9-22.7l15.6-9l-46.2-11.8l23.8,41.3l3.9-15.6
		c3.3,5.4,5.6,11.6,6.9,18.6c0.2,1.2,1.3,2,2.5,2C814.8,328.5,815,328.5,815.1,328.4z"/>
	<path class="st0" d="M827.4,445.2c-1.3-10.3-2.5-20.3-3.6-29.8c-0.1-1.4-1.4-2.4-2.8-2.2c-1.4,0.1-2.4,1.4-2.2,2.8
		c1,9.4,2.2,19.5,3.6,29.9c0.2,1.3,1.2,2.2,2.5,2.2c0.1,0,0.2,0,0.3,0C826.6,447.8,827.6,446.6,827.4,445.2z"/>
	<path class="st0" d="M852,623.7c0.2,1.2,1.3,2,2.5,2c0.2,0,0.3,0,0.5,0c1.4-0.3,2.2-1.6,2-2.9c-2-10.5-3.8-20.1-5.5-29.5
		c-0.3-1.4-1.6-2.3-2.9-2c-1.4,0.2-2.3,1.6-2,2.9C848.2,603.5,850,613.2,852,623.7z"/>
	<path class="st0" d="M821,385.7c-0.8-10.6-1.5-20.6-1.8-29.9c-0.1-1.4-1.2-2.4-2.6-2.4c-1.4,0.1-2.5,1.2-2.4,2.6
		c0.4,9.3,1,19.4,1.8,30.1c0.1,1.3,1.2,2.3,2.5,2.3c0.1,0,0.1,0,0.2,0C820.1,388.2,821.1,387,821,385.7z"/>
	<path class="st0" d="M862.3,709.3c-1.2-0.6-2.7-0.1-3.3,1.2c-4,8.2-10.8,14.1-20.8,17.8c-1.3,0.5-1.9,1.9-1.5,3.2
		c0.4,1,1.3,1.6,2.3,1.6c0.3,0,0.6-0.1,0.9-0.2c11.1-4.2,19-11,23.5-20.3C864.1,711.4,863.5,709.9,862.3,709.3z"/>
	<path class="st0" d="M866,670.3l-3.5-18.1c-0.3-1.4-1.6-2.2-2.9-2c-1.4,0.3-2.2,1.6-2,2.9l3.5,18.1c0.8,4,1.3,7.7,1.6,11.2
		c0.1,1.3,1.2,2.3,2.5,2.3c0.1,0,0.2,0,0.2,0c1.4-0.1,2.4-1.3,2.3-2.7C867.4,678.4,866.8,674.4,866,670.3z"/>
	<path class="st0" d="M843.5,566.7c0.1,0,0.3,0,0.4,0c1.4-0.2,2.3-1.5,2-2.9c-1.8-10.2-3.5-20.1-5.1-29.6c-0.2-1.4-1.5-2.3-2.9-2
		c-1.4,0.2-2.3,1.5-2,2.9c1.6,9.4,3.3,19.4,5.1,29.6C841.3,565.8,842.4,566.7,843.5,566.7z"/>
	<path class="st0" d="M836,504.6c-1.6-10.2-3.1-20.2-4.5-29.6c-0.2-1.4-1.5-2.3-2.8-2.1c-1.4,0.2-2.3,1.5-2.1,2.8
		c1.4,9.5,2.9,19.5,4.5,29.7c0.2,1.2,1.3,2.1,2.5,2.1c0.1,0,0.3,0,0.4,0C835.3,507.2,836.2,505.9,836,504.6z"/>
</g>
</svg>
