<?xml version="1.0" encoding="UTF-8"?>
<svg id="EXAMPLE_-_Pit_Road" data-name="EXAMPLE - Pit Road" xmlns="http://www.w3.org/2000/svg" viewBox="0 0 1920 1080">
  <defs>
    <style>
      .cls-1 {
        fill: #d82520;
      }

      .cls-1, .cls-2 {
        stroke-width: 0px;
      }

      .cls-2 {
        fill: #0089ba;
      }
    </style>
  </defs>
  <g id="Mergeline">
    <rect class="cls-2" x="590.04" y="829.56" width="5.02" height="32.47"/>
    <path class="cls-2" d="M772.95,840.39c-1.38,0-2.5-1.12-2.5-2.5s1.12-2.5,2.5-2.5h14.72l5.22-.12s.04,0,.06,0c1.35,0,2.47,1.08,2.5,2.44.03,1.38-1.06,2.53-2.44,2.56l-5.28.13h-14.78ZM752.95,840.39h-20c-1.38,0-2.5-1.12-2.5-2.5s1.12-2.5,2.5-2.5h20c1.38,0,2.5,1.12,2.5,2.5s-1.12,2.5-2.5,2.5ZM712.95,840.39h-20c-1.38,0-2.5-1.12-2.5-2.5s1.12-2.5,2.5-2.5h20c1.38,0,2.5,1.12,2.5,2.5s-1.12,2.5-2.5,2.5ZM672.95,840.39h-20c-1.38,0-2.5-1.12-2.5-2.5s1.12-2.5,2.5-2.5h20c1.38,0,2.5,1.12,2.5,2.5s-1.12,2.5-2.5,2.5ZM632.95,840.39h-20c-1.38,0-2.5-1.12-2.5-2.5s1.12-2.5,2.5-2.5h20c1.38,0,2.5,1.12,2.5,2.5s-1.12,2.5-2.5,2.5ZM812.94,839.79c-1.35,0-2.47-1.08-2.5-2.44-.03-1.38,1.06-2.53,2.44-2.56l19.99-.48c1.37-.08,2.53,1.06,2.56,2.44.03,1.38-1.06,2.53-2.44,2.56l-19.99.48s-.04,0-.06,0ZM852.93,838.83c-1.35,0-2.47-1.08-2.5-2.44-.03-1.38,1.06-2.53,2.44-2.56l11.43-.27,8.3-.93c1.38-.16,2.61.83,2.76,2.21.15,1.37-.83,2.61-2.21,2.76l-8.62.95-11.54.28s-.04,0-.06,0ZM892.75,835.4c-1.26,0-2.34-.94-2.48-2.22-.15-1.37.83-2.61,2.21-2.76l19.88-2.22c1.37-.16,2.61.83,2.76,2.21.15,1.37-.83,2.61-2.21,2.76l-19.88,2.22c-.09.01-.19.02-.28.02ZM932.5,830.95c-1.26,0-2.34-.94-2.48-2.22-.15-1.37.83-2.61,2.21-2.76l19.88-2.22c1.37-.16,2.61.83,2.76,2.21.15,1.37-.83,2.61-2.21,2.76l-19.88,2.22c-.09.01-.19.02-.28.02ZM972.25,826.51c-1.26,0-2.34-.94-2.48-2.22-.15-1.37.83-2.61,2.21-2.76l8.82-.97h11.4c1.38,0,2.5,1.12,2.5,2.5s-1.12,2.5-2.5,2.5h-11.26l-8.41.94c-.09.01-.19.02-.28.02ZM1032.2,825.56h-20c-1.38,0-2.5-1.12-2.5-2.5s1.12-2.5,2.5-2.5h20c1.38,0,2.5,1.12,2.5,2.5s-1.12,2.5-2.5,2.5Z"/>
  </g>
  <g id="Pitroad">
    <path class="cls-1" d="M1208.22,822.5h-20c-1.38,0-2.5,1.12-2.5,2.5s1.12,2.5,2.5,2.5h20c1.38,0,2.5-1.12,2.5-2.5s-1.12-2.5-2.5-2.5Z"/>
    <path class="cls-1" d="M1328.22,822.5h-20c-1.38,0-2.5,1.12-2.5,2.5s1.12,2.5,2.5,2.5h20c1.38,0,2.5-1.12,2.5-2.5s-1.12-2.5-2.5-2.5Z"/>
    <path class="cls-1" d="M1248.22,822.5h-20c-1.38,0-2.5,1.12-2.5,2.5s1.12,2.5,2.5,2.5h20c1.38,0,2.5-1.12,2.5-2.5s-1.12-2.5-2.5-2.5Z"/>
    <path class="cls-1" d="M1288.22,822.5h-20c-1.38,0-2.5,1.12-2.5,2.5s1.12,2.5,2.5,2.5h20c1.38,0,2.5-1.12,2.5-2.5s-1.12-2.5-2.5-2.5Z"/>
    <path class="cls-1" d="M1128.22,822.5h-20c-1.38,0-2.5,1.12-2.5,2.5s1.12,2.5,2.5,2.5h20c1.38,0,2.5-1.12,2.5-2.5s-1.12-2.5-2.5-2.5Z"/>
    <path class="cls-1" d="M1168.22,822.5h-20c-1.38,0-2.5,1.12-2.5,2.5s1.12,2.5,2.5,2.5h20c1.38,0,2.5-1.12,2.5-2.5s-1.12-2.5-2.5-2.5Z"/>
    <path class="cls-1" d="M1512.12,679.73c.42,7.26.81,14.01,1.16,20.02.08,1.33,1.18,2.35,2.49,2.35.05,0,.1,0,.15,0,1.38-.08,2.43-1.26,2.35-2.64-.36-6.01-.75-12.75-1.16-20.01-.08-1.38-1.25-2.44-2.64-2.35-1.38.08-2.43,1.26-2.35,2.64Z"/>
    <path class="cls-1" d="M1088.22,822.5h-12.57v-8.39l-40.65,10.89,40.65,10.89v-8.39h12.57c1.38,0,2.5-1.12,2.5-2.5s-1.12-2.5-2.5-2.5Z"/>
    <path class="cls-1" d="M1509.89,639.7c.37,6.82.75,13.53,1.11,20.01.07,1.33,1.18,2.36,2.49,2.36.05,0,.09,0,.14,0,1.38-.08,2.43-1.26,2.36-2.63-.36-6.49-.73-13.19-1.11-20.01-.08-1.38-1.22-2.44-2.63-2.36-1.38.08-2.44,1.25-2.36,2.63Z"/>
    <path class="cls-1" d="M1507,461.9s.06,0,.08,0c1.34,0,2.45-1.07,2.5-2.42l.65-19.99c.04-1.38-1.04-2.54-2.42-2.58-1.37-.05-2.54,1.04-2.58,2.42l-.65,19.99c-.04,1.38,1.04,2.54,2.42,2.58Z"/>
    <path class="cls-1" d="M1507.71,599.68l1.08,20.01c.07,1.33,1.17,2.36,2.49,2.36.04,0,.09,0,.14,0,1.38-.07,2.44-1.25,2.36-2.63l-1.08-20.01c-.07-1.38-1.24-2.46-2.63-2.36-1.38.07-2.44,1.25-2.36,2.63Z"/>
    <path class="cls-1" d="M1514.54,719.81c.08,1.15.15,2.2.22,3.14.45,6.2,1.8,11.8,4.12,17.12.41.94,1.33,1.5,2.29,1.5.33,0,.67-.07,1-.21,1.27-.55,1.84-2.03,1.29-3.29-2.09-4.79-3.31-9.85-3.72-15.47-.07-.94-.14-1.98-.22-3.13-.09-1.38-1.29-2.41-2.66-2.32-1.38.09-2.42,1.29-2.32,2.66Z"/>
    <path class="cls-1" d="M1528.22,822.5h-20c-1.38,0-2.5,1.12-2.5,2.5s1.12,2.5,2.5,2.5h20c1.38,0,2.5-1.12,2.5-2.5s-1.12-2.5-2.5-2.5Z"/>
    <path class="cls-1" d="M1548.46,771.21c.95-1,.92-2.58-.08-3.54-1.13-1.08-2.26-2.14-3.38-3.2-3.85-3.63-7.49-7.06-10.8-10.66-.93-1.02-2.51-1.08-3.53-.15-1.02.93-1.08,2.52-.15,3.53,3.43,3.73,7.13,7.22,11.05,10.92,1.11,1.05,2.23,2.11,3.36,3.18.48.46,1.11.69,1.73.69.66,0,1.32-.26,1.81-.77Z"/>
    <path class="cls-1" d="M1573.41,799.87c-.6-1.46-1.35-2.99-2.23-4.55-2.54-4.46-5.44-8.67-8.85-12.89-.87-1.07-2.44-1.24-3.52-.37s-1.24,2.44-.37,3.52c3.25,4,5.99,7.99,8.39,12.21.78,1.37,1.43,2.7,1.95,3.96.4.97,1.33,1.56,2.32,1.56.31,0,.63-.06.94-.19,1.28-.52,1.89-1.98,1.37-3.26Z"/>
    <path class="cls-1" d="M1565.67,816.6c-3.75,2.7-9.88,4.59-17.73,5.47-1.37.15-2.36,1.39-2.21,2.76.14,1.28,1.22,2.22,2.48,2.22.09,0,.19,0,.28-.02,8.82-.98,15.58-3.13,20.09-6.38,1.12-.81,1.38-2.37.57-3.49-.81-1.12-2.37-1.38-3.49-.57Z"/>
    <path class="cls-1" d="M1509.13,582.03s.09,0,.14,0c1.38-.07,2.44-1.25,2.36-2.63l-1.07-20.01c-.07-1.38-1.21-2.44-2.63-2.36-1.38.07-2.44,1.25-2.36,2.63l1.07,20.02c.07,1.33,1.17,2.37,2.49,2.37Z"/>
    <path class="cls-1" d="M1507.13,541.99c1.38-.07,2.44-1.25,2.36-2.63l-1.06-20.05c-.07-1.38-1.27-2.44-2.63-2.37-1.38.07-2.44,1.25-2.37,2.63l1.06,20.05c.07,1.33,1.17,2.37,2.49,2.37.04,0,.09,0,.13,0Z"/>
    <path class="cls-1" d="M1368.22,822.5h-20c-1.38,0-2.5,1.12-2.5,2.5s1.12,2.5,2.5,2.5h20c1.38,0,2.5-1.12,2.5-2.5s-1.12-2.5-2.5-2.5Z"/>
    <path class="cls-1" d="M1448.22,822.5h-20c-1.38,0-2.5,1.12-2.5,2.5s1.12,2.5,2.5,2.5h20c1.38,0,2.5-1.12,2.5-2.5s-1.12-2.5-2.5-2.5Z"/>
    <path class="cls-1" d="M1408.22,822.5h-20c-1.38,0-2.5,1.12-2.5,2.5s1.12,2.5,2.5,2.5h20c1.38,0,2.5-1.12,2.5-2.5s-1.12-2.5-2.5-2.5Z"/>
    <path class="cls-1" d="M1488.22,822.5h-20c-1.38,0-2.5,1.12-2.5,2.5s1.12,2.5,2.5,2.5h20c1.38,0,2.5-1.12,2.5-2.5s-1.12-2.5-2.5-2.5Z"/>
    <path class="cls-1" d="M1505.7,501.88s.05,0,.08,0c1.34,0,2.45-1.07,2.5-2.42l.65-19.99c.04-1.38-1.04-2.53-2.42-2.58-1.39-.05-2.54,1.04-2.58,2.42l-.65,19.99c-.04,1.38,1.04,2.53,2.42,2.58Z"/>
  </g>
</svg>