<?xml version="1.0" encoding="UTF-8"?>
<svg id="EXAMPLE_-_Pit_Road" data-name="EXAMPLE - Pit Road" xmlns="http://www.w3.org/2000/svg" viewBox="0 0 1920 1080">
  <defs>
    <style>
      .cls-1 {
        fill: #d82520;
      }

      .cls-1, .cls-2 {
        stroke-width: 0px;
      }

      .cls-2 {
        fill: #0089ba;
      }
    </style>
  </defs>
  <g id="Mergeline">
    <rect class="cls-2" x="847.31" y="324.8" width="5.02" height="32.47" transform="translate(-35.76 108.13) rotate(-7.13)"/>
    <path class="cls-2" d="M883.52,354.63l-3.25-.29c-1.38-.12-2.39-1.34-2.27-2.71.12-1.38,1.34-2.39,2.71-2.27l2.65.24,16.54-2.54c1.37-.21,2.64.73,2.85,2.09.21,1.36-.73,2.64-2.09,2.85l-17.14,2.63ZM860.58,352.58c-.07,0-.15,0-.22,0l-6.24-.55c-1.38-.12-2.39-1.34-2.27-2.71.12-1.38,1.34-2.4,2.71-2.27l6.24.55c1.38.12,2.39,1.34,2.27,2.71-.12,1.3-1.21,2.28-2.49,2.28Z"/>
  </g>
  <g id="Pitroad">
    <path class="cls-1" d="M953.88,337.67c-4.35.64-8.53,1.28-12.53,1.92l-1.56-8.3-37.93,18.23,41.97,3.18-1.54-8.2c3.94-.62,8.05-1.25,12.33-1.89,1.37-.2,2.31-1.47,2.11-2.84-.2-1.37-1.47-2.31-2.84-2.11Z"/>
    <path class="cls-1" d="M1033.58,320.8c-.59-1.25-2.09-1.78-3.33-1.18l-18.05,8.61c-1.25.59-1.77,2.09-1.18,3.33.43.9,1.32,1.42,2.26,1.42.36,0,.73-.08,1.07-.24l18.05-8.61c1.25-.59,1.77-2.09,1.18-3.33Z"/>
    <path class="cls-1" d="M993.6,332.25c-6.66.84-13.35,1.72-19.88,2.61-1.37.19-2.33,1.45-2.14,2.81.17,1.25,1.24,2.16,2.47,2.16.11,0,.23,0,.34-.02,6.51-.89,13.18-1.76,19.83-2.6,1.37-.17,2.34-1.42,2.17-2.79-.17-1.37-1.42-2.34-2.79-2.17Z"/>
  </g>
</svg>