<?xml version="1.0" encoding="UTF-8"?>
<svg id="EXAMPLE_-_Pit_Road" data-name="EXAMPLE - Pit Road" xmlns="http://www.w3.org/2000/svg" viewBox="0 0 1920 1080">
  <defs>
    <style>
      .cls-1 {
        fill: #d82520;
      }

      .cls-1, .cls-2 {
        stroke-width: 0px;
      }

      .cls-2 {
        fill: #0089ba;
      }
    </style>
  </defs>
  <g id="Pitroad">
    <path class="cls-1" d="M638.68,373.83h-20c-1.38,0-2.5,1.12-2.5,2.5s1.12,2.5,2.5,2.5h20c1.38,0,2.5-1.12,2.5-2.5s-1.12-2.5-2.5-2.5Z"/>
    <path class="cls-1" d="M598.68,373.83h-20c-1.38,0-2.5,1.12-2.5,2.5s1.12,2.5,2.5,2.5h20c1.38,0,2.5-1.12,2.5-2.5s-1.12-2.5-2.5-2.5Z"/>
    <path class="cls-1" d="M798.68,373.83h-20c-1.38,0-2.5,1.12-2.5,2.5s1.12,2.5,2.5,2.5h20c1.38,0,2.5-1.12,2.5-2.5s-1.12-2.5-2.5-2.5Z"/>
    <path class="cls-1" d="M718.68,373.83h-20c-1.38,0-2.5,1.12-2.5,2.5s1.12,2.5,2.5,2.5h20c1.38,0,2.5-1.12,2.5-2.5s-1.12-2.5-2.5-2.5Z"/>
    <path class="cls-1" d="M558.68,373.83h-20c-1.38,0-2.5,1.12-2.5,2.5s1.12,2.5,2.5,2.5h20c1.38,0,2.5-1.12,2.5-2.5s-1.12-2.5-2.5-2.5Z"/>
    <path class="cls-1" d="M758.68,373.83h-20c-1.38,0-2.5,1.12-2.5,2.5s1.12,2.5,2.5,2.5h20c1.38,0,2.5-1.12,2.5-2.5s-1.12-2.5-2.5-2.5Z"/>
    <path class="cls-1" d="M678.68,373.83h-20c-1.38,0-2.5,1.12-2.5,2.5s1.12,2.5,2.5,2.5h20c1.38,0,2.5-1.12,2.5-2.5s-1.12-2.5-2.5-2.5Z"/>
    <path class="cls-1" d="M1026.17,508.31c.48.75,1.28,1.15,2.11,1.15.46,0,.93-.13,1.34-.39,1.16-.74,1.5-2.29.76-3.45-4.07-6.37-7.58-11.7-11.04-16.78-.78-1.14-2.33-1.44-3.47-.66-1.14.78-1.44,2.33-.66,3.47,3.43,5.04,6.91,10.33,10.96,16.66Z"/>
    <path class="cls-1" d="M1042.59,543.79c.31,1.1,1.31,1.83,2.41,1.83.22,0,.45-.03.67-.09,1.33-.37,2.11-1.75,1.74-3.08-1.83-6.53-4.2-12.97-7.06-19.12-.58-1.25-2.07-1.8-3.32-1.21-1.25.58-1.8,2.07-1.21,3.32,2.74,5.91,5.02,12.09,6.78,18.36Z"/>
    <path class="cls-1" d="M407.86,412.6c-3.23,3.7-6.22,7.65-8.98,11.8l-5.15-2.97-8.27,30.9,22.61-22.63-4.86-2.81c2.57-3.84,5.38-7.54,8.41-11.01.91-1.04.8-2.62-.24-3.53-1.04-.91-2.62-.8-3.53.24Z"/>
    <path class="cls-1" d="M478.4,374.8c-6.75.89-13.45,2.39-19.92,4.48-1.31.42-2.04,1.83-1.61,3.15.34,1.06,1.32,1.73,2.38,1.73.25,0,.51-.04.77-.12,6.19-1.99,12.6-3.43,19.04-4.28,1.37-.18,2.33-1.44,2.15-2.8-.18-1.37-1.44-2.33-2.8-2.15Z"/>
    <path class="cls-1" d="M518.68,373.83h-20c-1.38,0-2.5,1.12-2.5,2.5s1.12,2.5,2.5,2.5h20c1.38,0,2.5-1.12,2.5-2.5s-1.12-2.5-2.5-2.5Z"/>
    <path class="cls-1" d="M439.68,387.26c-6,3.21-11.74,6.99-17.06,11.23-1.08.86-1.26,2.43-.4,3.51.49.62,1.22.94,1.96.94.55,0,1.1-.18,1.56-.54,5.09-4.05,10.57-7.66,16.3-10.73,1.22-.65,1.67-2.17,1.02-3.38-.65-1.22-2.17-1.67-3.38-1.02Z"/>
    <path class="cls-1" d="M878.71,380.58c-6.44-1.61-13.1-2.95-19.81-3.98-1.37-.21-2.64.73-2.85,2.09-.21,1.36.73,2.64,2.09,2.85,6.56,1.01,13.07,2.32,19.36,3.89.2.05.41.08.61.08,1.12,0,2.14-.76,2.42-1.89.33-1.34-.48-2.7-1.82-3.03Z"/>
    <path class="cls-1" d="M1002.68,710.93c-1.14-.78-2.69-.49-3.48.65-3.71,5.41-7.73,10.7-11.94,15.73-.89,1.06-.75,2.63.31,3.52.47.39,1.04.58,1.6.58.71,0,1.42-.3,1.92-.89,4.32-5.15,8.43-10.57,12.23-16.11.78-1.14.49-2.69-.65-3.48Z"/>
    <path class="cls-1" d="M1035.24,638.15c-1.3-.46-2.73.22-3.19,1.52l-6.69,18.85c-.46,1.3.22,2.73,1.52,3.19.28.1.56.14.84.14,1.03,0,1.99-.64,2.36-1.67l6.69-18.85c.46-1.3-.22-2.73-1.52-3.19Z"/>
    <path class="cls-1" d="M995.16,456.66c-.89-1.06-2.47-1.19-3.52-.3-1.06.89-1.19,2.47-.3,3.52,4.1,4.87,8.25,10.11,12.33,15.57.49.66,1.24,1,2,1,.52,0,1.05-.16,1.5-.5,1.11-.83,1.33-2.39.5-3.5-4.14-5.54-8.35-10.85-12.51-15.79Z"/>
    <path class="cls-1" d="M1021.58,675.74c-1.27-.55-2.74.03-3.29,1.3-2.61,6.03-5.54,11.99-8.71,17.73-.67,1.21-.23,2.73.98,3.4.38.21.8.31,1.21.31.88,0,1.73-.47,2.19-1.29,3.25-5.88,6.25-11.99,8.92-18.16.55-1.27-.03-2.74-1.3-3.29Z"/>
    <path class="cls-1" d="M1047.32,600.06c-1.35-.29-2.68.57-2.97,1.92-1.1,5.1-2.54,10.18-4.28,15.1l-1.33,3.74c-.46,1.3.22,2.73,1.52,3.19.28.1.56.15.84.15,1.03,0,1.99-.64,2.36-1.67l1.33-3.74c1.82-5.12,3.32-10.41,4.46-15.72.29-1.35-.57-2.68-1.92-2.97Z"/>
    <path class="cls-1" d="M838.82,374.4c-5.6-.38-11.37-.56-17.16-.56h-2.98c-1.38,0-2.5,1.12-2.5,2.5s1.12,2.5,2.5,2.5h2.98c5.67,0,11.33.19,16.82.55.06,0,.11,0,.17,0,1.3,0,2.4-1.01,2.49-2.33.09-1.38-.95-2.57-2.33-2.66Z"/>
    <path class="cls-1" d="M1051.29,562.45c-.15-1.37-1.39-2.37-2.76-2.21-1.37.15-2.36,1.39-2.21,2.76.49,4.44.74,8.96.74,13.43,0,2.04-.05,4.1-.16,6.14-.07,1.38.99,2.55,2.37,2.62.04,0,.08,0,.13,0,1.32,0,2.43-1.04,2.5-2.37.11-2.12.16-4.27.16-6.39,0-4.65-.26-9.36-.78-13.98Z"/>
    <path class="cls-1" d="M916.75,394.17c-6.07-2.88-12.35-5.48-18.69-7.74-1.3-.47-2.73.21-3.19,1.51-.46,1.3.21,2.73,1.51,3.19,6.18,2.21,12.31,4.74,18.23,7.55.35.16.71.24,1.07.24.94,0,1.83-.53,2.26-1.43.59-1.25.06-2.74-1.19-3.33Z"/>
    <path class="cls-1" d="M908.32,785.21l-7.66,3.36c-1.26.55-1.84,2.03-1.29,3.29.41.94,1.33,1.5,2.29,1.5.33,0,.68-.07,1-.21l7.66-3.36c1.26-.55,1.84-2.03,1.29-3.29-.55-1.27-2.03-1.84-3.29-1.29Z"/>
    <path class="cls-1" d="M943.2,766.65c-5.47,3.62-11.18,7.01-16.98,10.09-1.22.65-1.68,2.16-1.04,3.38.45.85,1.31,1.33,2.21,1.33.4,0,.8-.09,1.17-.29,5.94-3.15,11.79-6.63,17.39-10.33,1.15-.76,1.47-2.31.71-3.46-.76-1.15-2.31-1.47-3.46-.71Z"/>
    <path class="cls-1" d="M967.09,427.69c-1.03-.91-2.61-.82-3.53.22-.91,1.03-.82,2.61.22,3.53,4.82,4.26,9.63,8.87,14.29,13.7.49.51,1.14.76,1.8.76s1.25-.23,1.74-.7c.99-.96,1.02-2.54.06-3.54-4.76-4.92-9.66-9.63-14.58-13.97Z"/>
    <path class="cls-1" d="M973.86,741.82c-4.68,4.6-9.63,9.02-14.73,13.15-1.07.87-1.24,2.44-.37,3.52.49.61,1.22.93,1.94.93.55,0,1.11-.18,1.57-.56,5.22-4.23,10.3-8.76,15.09-13.47.98-.97,1-2.55.03-3.54-.97-.99-2.55-1-3.54-.03Z"/>
    <path class="cls-1" d="M951.39,414.97c-5.46-4.03-11.11-7.81-16.81-11.24-1.18-.71-2.72-.33-3.43.85-.71,1.18-.33,2.72.85,3.43,5.56,3.35,11.09,7.04,16.42,10.98.45.33.97.49,1.48.49.77,0,1.52-.35,2.01-1.01.82-1.11.59-2.68-.53-3.5Z"/>
  </g>
  <g id="Mergeline">
    <path class="cls-2" d="M386.88,551.46c-1.06-6.4-1.9-13.02-2.51-19.66-.12-1.37-1.33-2.38-2.72-2.26-1.38.12-2.39,1.34-2.26,2.72.62,6.76,1.47,13.5,2.55,20.02.2,1.22,1.26,2.09,2.46,2.09.14,0,.27-.01.41-.03,1.36-.23,2.28-1.51,2.06-2.88Z"/>
    <path class="cls-2" d="M390.88,570.85c-.33-1.34-1.69-2.16-3.03-1.82-1.34.33-2.16,1.69-1.82,3.03,1.64,6.61,3.57,13.13,5.72,19.39.36,1.04,1.33,1.69,2.36,1.69.27,0,.54-.04.81-.14,1.31-.45,2-1.87,1.55-3.18-2.11-6.12-3.99-12.5-5.6-18.97Z"/>
    <path class="cls-2" d="M403.77,608.18c-.57-1.26-2.06-1.82-3.31-1.24-1.26.57-1.81,2.05-1.24,3.31,2.81,6.19,5.93,12.24,9.28,17.99.46.8,1.3,1.24,2.16,1.24.43,0,.86-.11,1.26-.34,1.19-.7,1.6-2.23.9-3.42-3.27-5.61-6.31-11.51-9.05-17.54Z"/>
    <path class="cls-2" d="M380.81,514.56c1.38-.03,2.47-1.18,2.44-2.56-.05-2.24-.08-4.51-.08-6.75,0-4.34.09-8.74.28-13.09.06-1.38-1.01-2.55-2.39-2.6-1.38-.07-2.55,1.01-2.6,2.39-.19,4.42-.29,8.89-.29,13.3,0,2.28.03,4.58.08,6.86.03,1.36,1.14,2.44,2.5,2.44.02,0,.04,0,.06,0Z"/>
    <path class="cls-2" d="M382.2,474.6c.09.01.19.02.28.02,1.26,0,2.34-.95,2.48-2.23,1.33-12.08,2.94-19.44,2.95-19.52.3-1.35-.55-2.68-1.9-2.98-1.35-.29-2.68.55-2.98,1.9-.07.31-1.68,7.67-3.04,20.05-.15,1.37.84,2.61,2.21,2.76Z"/>
    <path class="cls-2" d="M527.98,732.98c-2.53-1.53-5.03-3.07-7.42-4.58-3.1-1.96-6.25-4.01-9.35-6.09-1.15-.77-2.7-.47-3.47.68s-.47,2.7.68,3.47c3.14,2.12,6.33,4.2,9.48,6.18,2.42,1.53,4.95,3.08,7.5,4.63.4.25.85.36,1.29.36.85,0,1.67-.43,2.14-1.21.71-1.18.34-2.72-.84-3.43Z"/>
    <path class="cls-2" d="M495.02,710.78c-5.22-3.92-10.48-8.06-15.62-12.3-1.06-.88-2.64-.73-3.52.34s-.73,2.64.34,3.52c5.2,4.29,10.52,8.48,15.8,12.44.45.34.98.5,1.5.5.76,0,1.51-.35,2-1,.83-1.1.6-2.67-.5-3.5Z"/>
    <path class="cls-2" d="M434.86,656c-3.94-4.39-7.72-9.02-11.22-13.78-.82-1.11-2.38-1.35-3.5-.53-1.11.82-1.35,2.38-.53,3.5,3.6,4.89,7.48,9.66,11.53,14.17.44.49.88.98,1.33,1.47.49.54,1.17.82,1.85.82.6,0,1.2-.21,1.68-.65,1.02-.93,1.1-2.51.17-3.53-.44-.48-.88-.97-1.31-1.45Z"/>
    <path class="cls-2" d="M561.62,757.14c.9,0,1.78-.49,2.22-1.35.63-1.23.16-2.73-1.07-3.37-5.98-3.1-11.89-6.27-17.56-9.43-1.21-.67-2.73-.24-3.4.97-.67,1.21-.24,2.73.97,3.4,5.71,3.19,11.67,6.38,17.7,9.5.37.19.76.28,1.15.28Z"/>
    <path class="cls-2" d="M449.92,671.79c-.98-.97-2.56-.97-3.54.01-.97.98-.97,2.56.01,3.54,4.7,4.67,9.61,9.32,14.6,13.84.48.43,1.08.65,1.68.65.68,0,1.36-.28,1.85-.82.93-1.02.85-2.6-.18-3.53-4.93-4.46-9.79-9.07-14.43-13.68Z"/>
    <path class="cls-2" d="M600.16,771.87c-.05-.9-.59-1.74-1.47-2.14-5.86-2.61-11.94-5.44-18.09-8.4-1.24-.6-2.74-.08-3.34,1.17-.6,1.24-.08,2.74,1.17,3.34,3.37,1.62,6.72,3.2,10.02,4.73l-32.85-3.65-.52,4.7,73.39,8.16.52-4.7-28.84-3.21Z"/>
  </g>
</svg>