<?xml version="1.0" encoding="utf-8"?>
<!-- Generator: Adobe Illustrator 24.2.0, SVG Export Plug-In . SVG Version: 6.00 Build 0)  -->
<svg version="1.1" id="Legends_Oval_-_Pit_Road" xmlns="http://www.w3.org/2000/svg" xmlns:xlink="http://www.w3.org/1999/xlink"
	 x="0px" y="0px" viewBox="0 0 1920 1080" style="enable-background:new 0 0 1920 1080;" xml:space="preserve">
<style type="text/css">
	.st0{fill:#D82520;}
</style>
<g id="Pitroad">
	<path class="st0" d="M663.8,856h30c1.4,0,2.5-1.1,2.5-2.5s-1.1-2.5-2.5-2.5h-30c-1.4,0-2.5,1.1-2.5,2.5S662.4,856,663.8,856z"/>
	<path class="st0" d="M552.2,888.9c-11.8-6.7-19.5-12.5-22.8-17.3c-0.8-1.1-2.3-1.4-3.5-0.6s-1.4,2.3-0.6,3.5
		c3.8,5.5,11.8,11.7,24.5,18.8c0.4,0.2,0.8,0.3,1.2,0.3c1.4,0,2.5-1.1,2.5-2.5C553.4,890.1,552.9,889.3,552.2,888.9z"/>
	<path class="st0" d="M723.8,856h30c1.4,0,2.5-1.1,2.5-2.5s-1.1-2.5-2.5-2.5h-30c-1.4,0-2.5,1.1-2.5,2.5S722.4,856,723.8,856z"/>
	<path class="st0" d="M783.8,856h30c1.4,0,2.5-1.1,2.5-2.5s-1.1-2.5-2.5-2.5h-30c-1.4,0-2.5,1.1-2.5,2.5S782.4,856,783.8,856z"/>
	<path class="st0" d="M603.8,856h30c1.4,0,2.5-1.1,2.5-2.5s-1.1-2.5-2.5-2.5h-30c-1.4,0-2.5,1.1-2.5,2.5S602.4,856,603.8,856z"/>
	<path class="st0" d="M665.7,926.6c-9.1-2.8-18.8-5.8-28.7-8.9c-1.3-0.4-2.7,0.3-3.1,1.6s0.3,2.7,1.6,3.1c9.9,3.1,19.6,6.1,28.7,8.9
		c0.2,0.1,0.5,0.1,0.7,0.1c1.4,0,2.5-1.1,2.5-2.5C667.4,927.9,666.7,927,665.7,926.6L665.7,926.6z"/>
	<path class="st0" d="M723.4,943.2c-8.8-2.3-18.5-5-28.9-8c-1.3-0.4-2.7,0.3-3.2,1.6c-0.4,1.3,0.3,2.7,1.6,3.2c0.1,0,0.2,0,0.2,0.1
		c10.4,3,20.2,5.7,29,8c0.2,0.1,0.4,0.1,0.6,0.1c1.4,0,2.5-1.1,2.5-2.5C725.2,944.4,724.4,943.4,723.4,943.2L723.4,943.2z"/>
	<path class="st0" d="M608.4,908.6c-9.7-3.2-19.3-6.3-28.5-9.4c-1.3-0.5-2.7,0.2-3.2,1.5c-0.5,1.3,0.2,2.7,1.5,3.2c0,0,0,0,0.1,0
		c9.2,3.1,18.8,6.3,28.6,9.4c0.3,0.1,0.5,0.1,0.8,0.1c1.4,0,2.5-1.1,2.5-2.5C610.1,909.8,609.4,908.9,608.4,908.6z"/>
	<path class="st0" d="M573.8,851h-8.5c-7.3,0.1-14.7,0.8-21.9,2.1c-1.4,0.2-2.3,1.5-2.1,2.8c0.2,1.4,1.5,2.3,2.8,2.1
		c0.1,0,0.1,0,0.2,0c6.9-1.2,14-1.9,21-2h8.5c1.4,0,2.5-1.1,2.5-2.5S575.2,851,573.8,851L573.8,851z"/>
	<path class="st0" d="M816.8,956.3l-43.9-18.5l6.8,16h-7.6c-5.3-0.7-11.9-1.9-19.7-3.5c-1.4-0.3-2.7,0.6-3,1.9
		c-0.3,1.4,0.6,2.7,1.9,3c8,1.7,14.8,2.9,20.3,3.6h8l-6.8,16L816.8,956.3z"/>
</g>
</svg>
