<?xml version="1.0" encoding="UTF-8"?>
<svg id="EXAMPLE_-_Pit_Road" data-name="EXAMPLE - Pit Road" xmlns="http://www.w3.org/2000/svg" viewBox="0 0 1920 1080">
  <defs>
    <style>
      .cls-1 {
        fill: #d82520;
      }

      .cls-1, .cls-2 {
        stroke-width: 0px;
      }

      .cls-2 {
        fill: #016699;
      }
    </style>
  </defs>
  <g id="Mergeline">
    <path class="cls-2" d="M1311.02,489.24l-3.87,6.71c-1.62-1.5-4.61-3.3-10.09-5.15-1.31-.44-2.73.26-3.17,1.57s.26,2.73,1.57,3.17c6.89,2.32,8.47,4.21,8.69,4.51.07.21.18.39.3.57l-9.67,16.75,4.35,2.51,16.23-28.12-4.35-2.51Z"/>
    <path class="cls-2" d="M1117.15,478.45c-11.6-.32-20.08-.55-20.08-.55-1.43-.03-2.53,1.05-2.57,2.43s1.05,2.53,2.43,2.57c0,0,8.48.24,20.08.55.02,0,.05,0,.07,0,1.35,0,2.46-1.08,2.5-2.43.04-1.38-1.05-2.53-2.43-2.57Z"/>
    <path class="cls-2" d="M1157.22,479.5c-6.29-.15-13.2-.33-20.04-.51-1.37-.05-2.53,1.05-2.56,2.43-.04,1.38,1.05,2.53,2.43,2.56,6.83.18,13.75.36,20.04.51.02,0,.04,0,.06,0,1.35,0,2.46-1.08,2.5-2.44.03-1.38-1.06-2.53-2.44-2.56Z"/>
    <path class="cls-2" d="M1277.26,486.19c-5.89-.98-12.6-1.86-19.95-2.62-1.37-.14-2.6.86-2.74,2.23-.14,1.37.86,2.6,2.23,2.74,7.25.75,13.86,1.61,19.64,2.58.14.02.28.03.42.03,1.2,0,2.26-.87,2.46-2.09.23-1.36-.69-2.65-2.05-2.88Z"/>
    <path class="cls-2" d="M1197.26,480.24c-5.53-.12-11.33-.21-17.24-.26-.74,0-1.67-.02-2.77-.04-1.4-.03-2.52,1.08-2.54,2.46-.02,1.38,1.08,2.52,2.46,2.54,1.11.02,2.06.03,2.81.04,5.88.05,11.66.14,17.17.26.02,0,.04,0,.06,0,1.36,0,2.47-1.08,2.5-2.45.03-1.38-1.06-2.52-2.44-2.55Z"/>
    <path class="cls-2" d="M1237.3,481.9c-6.27-.41-13-.77-20.02-1.05-1.36-.05-2.54,1.02-2.6,2.4-.06,1.38,1.02,2.54,2.4,2.6,6.97.28,13.67.63,19.89,1.04.06,0,.11,0,.17,0,1.31,0,2.4-1.01,2.49-2.34.09-1.38-.95-2.57-2.33-2.66Z"/>
  </g>
  <g id="Pitroad">
    <path class="cls-1" d="M749.54,475.53h-20c-1.38,0-2.5,1.12-2.5,2.5s1.12,2.5,2.5,2.5h20c1.38,0,2.5-1.12,2.5-2.5s-1.12-2.5-2.5-2.5Z"/>
    <path class="cls-1" d="M709.54,475.53h-7.73s-4.93.16-12.41.4c-1.38.04-2.46,1.2-2.42,2.58.04,1.35,1.15,2.42,2.5,2.42.03,0,.05,0,.08,0,7.4-.24,12.32-.4,12.33-.4h7.65c1.38,0,2.5-1.12,2.5-2.5s-1.12-2.5-2.5-2.5Z"/>
    <path class="cls-1" d="M669.36,476.56c-6.58.2-13.49.41-20.03.6-1.38.04-2.47,1.19-2.43,2.57.04,1.36,1.15,2.43,2.5,2.43.02,0,.05,0,.07,0,6.55-.19,13.46-.39,20.04-.6,1.38-.04,2.46-1.2,2.42-2.58-.04-1.38-1.19-2.45-2.58-2.42Z"/>
    <path class="cls-1" d="M629.3,477.69c-5.96.14-9.66.19-10.88.15-1.1-.04-4.07.06-9.25.3-1.38.06-2.44,1.24-2.38,2.61.06,1.34,1.17,2.38,2.5,2.38.04,0,.08,0,.12,0,4.84-.23,7.85-.33,8.85-.3,1.29.04,5,0,11.17-.15,1.38-.03,2.47-1.18,2.44-2.56-.03-1.38-1.13-2.48-2.56-2.44Z"/>
    <path class="cls-1" d="M549.07,481.56c-8.19.5-15.3.94-20.03,1.23-1.38.09-2.43,1.27-2.34,2.65.08,1.33,1.18,2.35,2.49,2.35.05,0,.1,0,.16,0,4.72-.29,11.83-.73,20.02-1.23,1.38-.08,2.43-1.27,2.34-2.65-.08-1.38-1.28-2.43-2.65-2.34Z"/>
    <path class="cls-1" d="M789.54,475.53h-20c-1.38,0-2.5,1.12-2.5,2.5s1.12,2.5,2.5,2.5h20c1.38,0,2.5-1.12,2.5-2.5s-1.12-2.5-2.5-2.5Z"/>
    <path class="cls-1" d="M589.12,479.2c-6.35.36-13.21.76-20.03,1.16-1.38.08-2.43,1.27-2.35,2.64.08,1.33,1.18,2.35,2.49,2.35.05,0,.1,0,.15,0,6.81-.4,13.67-.8,20.01-1.16,1.38-.08,2.43-1.26,2.36-2.64s-1.27-2.44-2.64-2.36Z"/>
    <path class="cls-1" d="M869.54,475.53h-20c-1.38,0-2.5,1.12-2.5,2.5s1.12,2.5,2.5,2.5h20c1.38,0,2.5-1.12,2.5-2.5s-1.12-2.5-2.5-2.5Z"/>
    <path class="cls-1" d="M829.54,475.53h-20c-1.38,0-2.5,1.12-2.5,2.5s1.12,2.5,2.5,2.5h20c1.38,0,2.5-1.12,2.5-2.5s-1.12-2.5-2.5-2.5Z"/>
    <path class="cls-1" d="M1029.54,475.53h-20c-1.38,0-2.5,1.12-2.5,2.5s1.12,2.5,2.5,2.5h20c1.38,0,2.5-1.12,2.5-2.5s-1.12-2.5-2.5-2.5Z"/>
    <path class="cls-1" d="M989.54,475.53h-20c-1.38,0-2.5,1.12-2.5,2.5s1.12,2.5,2.5,2.5h20c1.38,0,2.5-1.12,2.5-2.5s-1.12-2.5-2.5-2.5Z"/>
    <path class="cls-1" d="M949.54,475.53h-20c-1.38,0-2.5,1.12-2.5,2.5s1.12,2.5,2.5,2.5h20c1.38,0,2.5-1.12,2.5-2.5s-1.12-2.5-2.5-2.5Z"/>
    <path class="cls-1" d="M909.54,475.53h-20c-1.38,0-2.5,1.12-2.5,2.5s1.12,2.5,2.5,2.5h20c1.38,0,2.5-1.12,2.5-2.5s-1.12-2.5-2.5-2.5Z"/>
    <path class="cls-1" d="M1097,478.03l-33.61-9.01v6.51h-13.86c-1.38,0-2.5,1.12-2.5,2.5s1.12,2.5,2.5,2.5h13.86v6.51l33.61-9.01Z"/>
  </g>
</svg>