<?xml version="1.0" encoding="utf-8"?>
<!-- Generator: Adobe Illustrator 24.0.1, SVG Export Plug-In . SVG Version: 6.00 Build 0)  -->
<svg version="1.1" id="Indianapolis_Indy_Pits_-_Pit_Road"
	 xmlns="http://www.w3.org/2000/svg" xmlns:xlink="http://www.w3.org/1999/xlink" x="0px" y="0px" viewBox="0 0 1920 1080"
	 style="enable-background:new 0 0 1920 1080;" xml:space="preserve">
<style type="text/css">
	.st0{fill:#016699;}
	.st1{fill:#D82520;}
</style>
<title>pitroad</title>
<g id="Mergeline">
	<path class="st0" d="M1645.2,868.7c-8.3,3.9-17.5,7.6-27.3,10.8c-2.6,0.9-4,3.7-3.2,6.3c0.7,2.1,2.6,3.4,4.7,3.4
		c0.5,0,1.1-0.1,1.6-0.3c10.2-3.4,19.8-7.2,28.5-11.3c2.5-1.2,3.6-4.2,2.4-6.7S1647.7,867.6,1645.2,868.7z"/>
	<path class="st0" d="M1572.8,152.4c2.2,0,4.2-1.4,4.8-3.6c0.8-2.7-0.8-5.4-3.4-6.2c-9.5-2.7-19.4-5.2-29.4-7.4
		c-2.7-0.6-5.4,1.1-6,3.8s1.1,5.4,3.8,6c9.8,2.1,19.5,4.6,28.8,7.3C1571.9,152.3,1572.3,152.4,1572.8,152.4z"/>
	<path class="st0" d="M1530.8,897.1c-17.7,1.8-29.5,2-29.6,2c-2.8,0-5,2.3-4.9,5.1c0,2.7,2.3,4.9,5,4.9c0,0,0.1,0,0.1,0
		c0.5,0,12.3-0.2,30.5-2c2.7-0.3,4.8-2.7,4.5-5.5C1536,898.9,1533.5,896.9,1530.8,897.1z"/>
	<path class="st0" d="M1589.4,887.5c-9.3,2.2-19.1,4.1-29.1,5.7c-2.7,0.4-4.6,3-4.1,5.7c0.4,2.5,2.5,4.2,4.9,4.2
		c0.3,0,0.5,0,0.8-0.1c10.3-1.7,20.3-3.6,29.8-5.9c2.7-0.6,4.4-3.3,3.7-6S1592,886.9,1589.4,887.5z"/>
	<path class="st0" d="M1514.3,139.5c2.4,0,4.5-1.8,4.9-4.2c0.4-2.7-1.4-5.3-4.1-5.7c-9.8-1.6-19.9-2.9-30-4
		c-2.7-0.3-5.2,1.7-5.5,4.4c-0.3,2.7,1.7,5.2,4.4,5.5c10,1.1,19.9,2.4,29.5,3.9C1513.7,139.5,1514,139.5,1514.3,139.5z"/>
	<path class="st0" d="M1629.1,173c1.9,0,3.7-1.1,4.6-2.9c1.1-2.5,0-5.5-2.5-6.6c-9-4.1-18.5-8-28.1-11.5c-2.6-0.9-5.5,0.4-6.4,3
		c-0.9,2.6,0.4,5.5,3,6.4c9.4,3.4,18.6,7.2,27.4,11.2C1627.7,172.8,1628.4,173,1629.1,173z"/>
	<path class="st0" d="M1770.4,380.9c1.7,9.6,3.1,19.5,4.1,29.4c0.3,2.6,2.4,4.5,5,4.5c0.2,0,0.4,0,0.5,0c2.7-0.3,4.7-2.8,4.4-5.5
		c-1.1-10.1-2.5-20.2-4.2-30c-0.5-2.7-3.1-4.5-5.8-4.1C1771.7,375.6,1769.9,378.2,1770.4,380.9z"/>
	<path class="st0" d="M1764.3,351.9c0.6,2.3,2.6,3.8,4.9,3.8c0.4,0,0.8,0,1.2-0.1c2.7-0.7,4.3-3.4,3.7-6c-2.4-9.9-5.3-19.8-8.3-29.2
		c-0.9-2.6-3.7-4.1-6.3-3.2c-2.6,0.9-4.1,3.7-3.2,6.3C1759.1,332.6,1761.9,342.2,1764.3,351.9z"/>
	<path class="st0" d="M1745.8,295.7c0.8,1.9,2.7,3.1,4.6,3.1c0.6,0,1.3-0.1,1.9-0.4c2.5-1.1,3.7-4,2.7-6.5c-4-9.5-8.4-18.7-13-27.5
		c-1.3-2.4-4.3-3.4-6.8-2.1c-2.4,1.3-3.4,4.3-2.1,6.8C1737.7,277.5,1742,286.5,1745.8,295.7z"/>
	<path class="st0" d="M1454.9,123.1c-9.9-0.6-20-1-30.2-1.1c0,0-0.1,0-0.1,0l0.4-27.4l-10-0.1l-0.9,65l10,0.1l0.4-27.6
		c0,0,0.1,0,0.1,0c10,0.2,20,0.5,29.7,1.1c0.1,0,0.2,0,0.3,0c2.6,0,4.8-2,5-4.7C1459.8,125.6,1457.7,123.2,1454.9,123.1z"/>
	<path class="st0" d="M1781.7,494.8C1781.6,494.8,1781.6,494.8,1781.7,494.8c-2.8,0-5,2.2-5,5c-0.1,10.1-0.1,20.2-0.3,30
		c0,2.8,2.2,5,4.9,5.1c0,0,0,0,0.1,0c2.7,0,5-2.2,5-4.9c0.1-9.8,0.2-19.9,0.3-30.1C1786.6,497,1784.4,494.8,1781.7,494.8z"/>
	<path class="st0" d="M1681.1,202.8c1.5,0,3.1-0.7,4.1-2.1c1.6-2.2,1.1-5.4-1.1-7c-7.9-5.7-16.5-11.3-25.7-16.5
		c-2.4-1.4-5.5-0.5-6.8,1.9c-1.4,2.4-0.5,5.5,1.9,6.8c8.9,5,17.2,10.4,24.8,15.9C1679,202.5,1680,202.8,1681.1,202.8z"/>
	<path class="st0" d="M1781,554.9c-2.8-0.1-5,2.1-5.1,4.9c-0.2,10.5-0.5,20.6-0.8,30c-0.1,2.8,2.1,5.1,4.8,5.2c0.1,0,0.1,0,0.2,0
		c2.7,0,4.9-2.1,5-4.8c0.3-9.4,0.6-19.5,0.8-30.1C1785.9,557.2,1783.7,554.9,1781,554.9z"/>
	<path class="st0" d="M1779.1,614.9c-2.8-0.1-5.1,2-5.2,4.7c-0.6,11.2-1.2,21.2-1.9,29.8c-0.2,2.8,1.8,5.2,4.6,5.4
		c0.1,0,0.3,0,0.4,0c2.6,0,4.8-2,5-4.6c0.7-8.7,1.4-18.9,1.9-30.1C1784,617.4,1781.8,615,1779.1,614.9z"/>
	<path class="st0" d="M1786.7,439.5c-0.1-2.8-2.5-4.9-5.2-4.8c-2.8,0.1-4.9,2.5-4.8,5.2c0.3,6.2,0.4,12.4,0.4,18.3
		c0,4-0.1,7.8-0.2,11.3c-0.1,2.8,2.1,5.1,4.8,5.2c0.1,0,0.1,0,0.2,0c2.7,0,4.9-2.1,5-4.8c0.1-3.6,0.2-7.6,0.2-11.6
		C1787.2,452.2,1787,445.9,1786.7,439.5z"/>
	<path class="st0" d="M1774.2,674.8c-2.7-0.5-5.3,1.3-5.8,4.1c-1.8,10-3.8,19.7-6.2,29c-0.7,2.7,0.9,5.4,3.6,6.1
		c0.4,0.1,0.8,0.2,1.2,0.2c2.2,0,4.3-1.5,4.8-3.8c2.4-9.5,4.5-19.5,6.3-29.7C1778.8,677.9,1776.9,675.3,1774.2,674.8z"/>
	<path class="st0" d="M1760.2,733.1c-2.6-0.9-5.5,0.5-6.4,3.1c-3.3,9.5-7,18.7-11,27.4c-1.2,2.5-0.1,5.5,2.4,6.6
		c0.7,0.3,1.4,0.5,2.1,0.5c1.9,0,3.7-1.1,4.5-2.9c4.1-9,8-18.5,11.3-28.3C1764.2,736.8,1762.8,734,1760.2,733.1z"/>
	<path class="st0" d="M1692.7,835.4c-4.7,4.6-9.8,9.1-14.9,13.3c-2.3,1.9-4.8,3.8-7.3,5.5c-2.3,1.6-2.8,4.7-1.2,7
		c1,1.4,2.5,2.1,4.1,2.1c1,0,2-0.3,2.9-0.9c2.7-1.9,5.4-3.9,7.9-6c5.4-4.4,10.6-9.1,15.6-13.9c2-1.9,2-5.1,0.1-7.1
		C1697.8,833.5,1694.6,833.4,1692.7,835.4z"/>
	<path class="st0" d="M1722.2,245.9c1,0,1.9-0.3,2.8-0.8c2.3-1.5,2.9-4.6,1.4-6.9c-3.9-5.9-8.1-11.7-12.4-17.3
		c-1.7-2.2-3.9-4.6-6.4-7.2c-1.9-2-5.1-2-7.1-0.1s-2,5.1-0.1,7.1c2.3,2.3,4.2,4.5,5.7,6.4c4.2,5.3,8.2,10.9,12,16.7
		C1719,245.1,1720.6,245.9,1722.2,245.9z"/>
	<path class="st0" d="M1735.9,787.8c-2.4-1.4-5.4-0.7-6.9,1.7c-5.1,8.4-10.8,16.5-16.7,24.1c-1.7,2.2-1.4,5.3,0.8,7
		c0.9,0.7,2,1.1,3.1,1.1c1.5,0,2.9-0.6,3.9-1.9c6.3-7.9,12.1-16.3,17.5-25.1C1739.1,792.3,1738.3,789.2,1735.9,787.8z"/>
</g>
<g id="Pitroad">
	<path class="st1" d="M534.4,899.3l-30-0.1c0,0,0,0,0,0c-1.4,0-2.5,1.1-2.5,2.5c0,1.4,1.1,2.5,2.5,2.5l30,0.1c0,0,0,0,0,0
		c1.4,0,2.5-1.1,2.5-2.5C536.9,900.4,535.8,899.3,534.4,899.3z"/>
	<path class="st1" d="M654.4,899.6l-30-0.1c0,0,0,0,0,0c-1.4,0-2.5,1.1-2.5,2.5c0,1.4,1.1,2.5,2.5,2.5l30,0.1c0,0,0,0,0,0
		c1.4,0,2.5-1.1,2.5-2.5C656.9,900.7,655.8,899.6,654.4,899.6z"/>
	<path class="st1" d="M594.4,899.4l-30-0.1c0,0,0,0,0,0c-1.4,0-2.5,1.1-2.5,2.5c0,1.4,1.1,2.5,2.5,2.5l30,0.1c0,0,0,0,0,0
		c1.4,0,2.5-1.1,2.5-2.5C596.9,900.6,595.8,899.4,594.4,899.4z"/>
	<path class="st1" d="M714.4,899.7l-30-0.1c0,0,0,0,0,0c-1.4,0-2.5,1.1-2.5,2.5c0,1.4,1.1,2.5,2.5,2.5l30,0.1c0,0,0,0,0,0
		c1.4,0,2.5-1.1,2.5-2.5C716.9,900.8,715.8,899.7,714.4,899.7z"/>
	<path class="st1" d="M774.4,899.8l-30-0.1c0,0,0,0,0,0c-1.4,0-2.5,1.1-2.5,2.5c0,1.4,1.1,2.5,2.5,2.5l30,0.1c0,0,0,0,0,0
		c1.4,0,2.5-1.1,2.5-2.5C776.9,900.9,775.8,899.8,774.4,899.8z"/>
	<path class="st1" d="M834.4,899.9l-30-0.1c-1.3,0-2.5,1.1-2.5,2.5s1.1,2.5,2.5,2.5l30,0.1c0,0,0,0,0,0c1.4,0,2.5-1.1,2.5-2.5
		C836.9,901,835.8,899.9,834.4,899.9z"/>
	<path class="st1" d="M296.6,879.5c-9.9-2.7-19.5-5.7-28.5-8.9c-1.3-0.5-2.7,0.2-3.2,1.5c-0.5,1.3,0.2,2.7,1.5,3.2
		c9.1,3.2,18.8,6.3,28.9,9c0.2,0.1,0.4,0.1,0.7,0.1c1.1,0,2.1-0.7,2.4-1.8C298.7,881.2,297.9,879.8,296.6,879.5z"/>
	<path class="st1" d="M474.4,899.2l-16.3,0c0,0-5.1,0.1-13.7,0c0,0,0,0,0,0c-1.4,0-2.5,1.1-2.5,2.5c0,1.4,1.1,2.5,2.5,2.5
		c3.2,0.1,6,0.1,8.1,0.1c3.7,0,5.7,0,5.7-0.1l16.2,0c0,0,0,0,0,0c1.4,0,2.5-1.1,2.5-2.5C476.9,900.3,475.8,899.2,474.4,899.2z"/>
	<path class="st1" d="M240.5,859.4c-9.3-4.4-18.1-9.1-26.1-14.1c-1.2-0.7-2.7-0.4-3.4,0.8c-0.7,1.2-0.4,2.7,0.8,3.4
		c8.1,5.1,17.1,10,26.6,14.4c0.3,0.2,0.7,0.2,1.1,0.2c0.9,0,1.8-0.5,2.3-1.4C242.3,861.5,241.8,860,240.5,859.4z"/>
	<path class="st1" d="M355.1,891.6c-10.1-1.5-20-3.3-29.4-5.3c-1.4-0.3-2.7,0.6-3,1.9c-0.3,1.4,0.6,2.7,1.9,3
		c9.5,2,19.5,3.8,29.7,5.3c0.1,0,0.3,0,0.4,0c1.2,0,2.3-0.9,2.5-2.1C357.4,893.1,356.4,891.9,355.1,891.6z"/>
	<path class="st1" d="M414.6,898c-10-0.6-20-1.5-29.8-2.5c-1.4-0.1-2.6,0.9-2.7,2.2c-0.1,1.4,0.9,2.6,2.2,2.7c9.9,1,20,1.9,30,2.5
		c0.1,0,0.1,0,0.2,0c1.3,0,2.4-1,2.5-2.3C417,899.2,415.9,898,414.6,898z"/>
	<path class="st1" d="M1314.4,900.9l-30-0.1c0,0,0,0,0,0c-1.4,0-2.5,1.1-2.5,2.5c0,1.4,1.1,2.5,2.5,2.5l30,0.1c0,0,0,0,0,0
		c1.4,0,2.5-1.1,2.5-2.5C1316.9,902,1315.8,900.9,1314.4,900.9z"/>
	<path class="st1" d="M1374.4,901l-30-0.1c0,0,0,0,0,0c-1.4,0-2.5,1.1-2.5,2.5c0,1.4,1.1,2.5,2.5,2.5l30,0.1c0,0,0,0,0,0
		c1.4,0,2.5-1.1,2.5-2.5C1376.9,902.1,1375.8,901,1374.4,901z"/>
	<path class="st1" d="M894.4,900l-30-0.1c0,0,0,0,0,0c-1.4,0-2.5,1.1-2.5,2.5c0,1.4,1.1,2.5,2.5,2.5l30,0.1c0,0,0,0,0,0
		c1.4,0,2.5-1.1,2.5-2.5C896.9,901.2,895.8,900,894.4,900z"/>
	<path class="st1" d="M1434.4,901.1l-30-0.1c0,0,0,0,0,0c-1.4,0-2.5,1.1-2.5,2.5c0,1.4,1.1,2.5,2.5,2.5l30,0.1c0,0,0,0,0,0
		c1.4,0,2.5-1.1,2.5-2.5C1436.9,902.3,1435.8,901.1,1434.4,901.1z"/>
	<path class="st1" d="M1194.4,900.6l-30-0.1c0,0,0,0,0,0c-1.4,0-2.5,1.1-2.5,2.5c0,1.4,1.1,2.5,2.5,2.5l30,0.1c0,0,0,0,0,0
		c1.4,0,2.5-1.1,2.5-2.5C1196.9,901.8,1195.8,900.7,1194.4,900.6z"/>
	<path class="st1" d="M1254.4,900.8l-30-0.1c0,0,0,0,0,0c-1.4,0-2.5,1.1-2.5,2.5c0,1.4,1.1,2.5,2.5,2.5l30,0.1c0,0,0,0,0,0
		c1.4,0,2.5-1.1,2.5-2.5C1256.9,901.9,1255.8,900.8,1254.4,900.8z"/>
	<path class="st1" d="M954.4,900.2l-30-0.1c0,0,0,0,0,0c-1.4,0-2.5,1.1-2.5,2.5c0,1.4,1.1,2.5,2.5,2.5l30,0.1c0,0,0,0,0,0
		c1.4,0,2.5-1.1,2.5-2.5C956.9,901.3,955.8,900.2,954.4,900.2z"/>
	<path class="st1" d="M1134.4,900.5l-30-0.1c0,0,0,0,0,0c-1.4,0-2.5,1.1-2.5,2.5c0,1.4,1.1,2.5,2.5,2.5l30,0.1c0,0,0,0,0,0
		c1.4,0,2.5-1.1,2.5-2.5C1136.9,901.7,1135.8,900.5,1134.4,900.5z"/>
	<path class="st1" d="M1014.4,900.3l-30-0.1c0,0,0,0,0,0c-1.4,0-2.5,1.1-2.5,2.5c0,1.4,1.1,2.5,2.5,2.5l30,0.1c0,0,0,0,0,0
		c1.4,0,2.5-1.1,2.5-2.5C1016.9,901.4,1015.8,900.3,1014.4,900.3z"/>
	<path class="st1" d="M1074.4,900.4l-30-0.1c0,0,0,0,0,0c-1.4,0-2.5,1.1-2.5,2.5c0,1.4,1.1,2.5,2.5,2.5l30,0.1c0,0,0,0,0,0
		c1.4,0,2.5-1.1,2.5-2.5C1076.9,901.5,1075.8,900.4,1074.4,900.4z"/>
	<path class="st1" d="M1509.4,903.8l-43.8-18.6l6.8,16l-7.9,0c0,0,0,0,0,0c-1.4,0-2.5,1.1-2.5,2.5c0,1.4,1.1,2.5,2.5,2.5l7.9,0
		l-6.8,16L1509.4,903.8z"/>
</g>
</svg>
