<?xml version="1.0" encoding="utf-8"?>
<!-- Generator: Adobe Illustrator 24.0.1, SVG Export Plug-In . SVG Version: 6.00 Build 0)  -->
<svg version="1.1" id="Classic_Pits_-_Pit_Road" xmlns="http://www.w3.org/2000/svg" xmlns:xlink="http://www.w3.org/1999/xlink"
	 x="0px" y="0px" viewBox="0 0 1920 1080" style="enable-background:new 0 0 1920 1080;" xml:space="preserve">
<style type="text/css">
	.st0{fill:#D82520;}
</style>
<title>pitroad</title>
<g id="Pitroad">
	<path class="st0" d="M668.5,125.8l-29.8,8.6c-1.3,0.4-2.1,1.8-1.7,3.1c0.3,1.1,1.3,1.8,2.4,1.8c0.2,0,0.5,0,0.7-0.1l29.8-8.6
		c1.3-0.4,2.1-1.8,1.7-3.1C671.2,126.2,669.8,125.4,668.5,125.8z"/>
	<path class="st0" d="M608.7,142.2c-7.9,1.8-18.5,4.3-30.3,7.1c-1.3,0.3-2.2,1.7-1.9,3c0.3,1.2,1.3,1.9,2.4,1.9c0.2,0,0.4,0,0.6-0.1
		c11.8-2.7,22.4-5.2,30.3-7.1c1.3-0.3,2.2-1.7,1.9-3C611.4,142.8,610,141.9,608.7,142.2z"/>
	<path class="st0" d="M548.2,156.3c-10.4,2.4-20.8,4.8-30.3,6.9c-1.3,0.3-2.2,1.6-1.9,3c0.3,1.2,1.3,1.9,2.4,1.9
		c0.2,0,0.4,0,0.6-0.1c9.5-2.1,19.9-4.5,30.3-6.9c1.3-0.3,2.2-1.7,1.9-3C550.8,156.8,549.5,156,548.2,156.3z"/>
	<path class="st0" d="M487.5,170c-11.8,2.6-21.3,8.2-29,12.6c-1.2,0.7-1.6,2.2-0.9,3.4c0.5,0.8,1.3,1.3,2.2,1.3
		c0.4,0,0.9-0.1,1.2-0.3c7.4-4.3,16.6-9.6,27.6-12c1.3-0.3,2.2-1.6,1.9-3C490.2,170.5,488.9,169.7,487.5,170z"/>
	<path class="st0" d="M430.3,194.1c-13.6,4.5-23.3,7.6-29.5,9.6c-1.3,0.4-2,1.8-1.6,3.1c0.3,1.1,1.3,1.7,2.4,1.7
		c0.3,0,0.5,0,0.8-0.1c6.2-2,15.9-5.1,29.6-9.6c1.3-0.4,2-1.8,1.6-3.2C433.1,194.4,431.7,193.6,430.3,194.1z"/>
	<path class="st0" d="M846.4,119.4c-4.3,0.3-7.5,0.6-10.1,0.9c-2.6,0.2-5,0.4-7.1,0.4c-4.9,0-8.9-0.6-12.5-2
		c-1.3-0.5-2.7,0.2-3.2,1.5c-0.5,1.3,0.2,2.7,1.5,3.2c4.2,1.5,8.7,2.3,14.2,2.3c2.3,0,4.9-0.1,7.6-0.4c2.5-0.2,5.7-0.5,10-0.9
		c1.4-0.1,2.4-1.3,2.3-2.7C849,120.3,847.7,119.3,846.4,119.4z"/>
	<path class="st0" d="M907.7,112.6c-3.2,0.7-6.5,1.4-9.3,1.8c-4.8,0.8-11.7,1.6-21.1,2.5c-1.4,0.1-2.4,1.3-2.3,2.7
		c0.1,1.3,1.2,2.3,2.5,2.3c0.1,0,0.2,0,0.2,0c9.5-0.9,16.5-1.7,21.4-2.5c2.9-0.5,6.2-1.1,9.6-1.9c1.3-0.3,2.2-1.6,1.9-3
		C910.4,113.1,909,112.3,907.7,112.6z"/>
	<path class="st0" d="M726.8,104.6c-8,2.7-17.9,6.3-29.3,10.6c-1.3,0.5-1.9,1.9-1.4,3.2c0.4,1,1.3,1.6,2.3,1.6
		c0.3,0,0.6-0.1,0.9-0.2c11.4-4.3,21.1-7.9,29.1-10.5c1.3-0.4,2-1.9,1.6-3.2C729.5,104.9,728.1,104.2,726.8,104.6z"/>
	<path class="st0" d="M788.7,105.6c-12-4.8-21.8-7.2-30.9-7.4c-1.4,0-2.5,1.1-2.6,2.4c0,1.4,1.1,2.5,2.4,2.6
		c8.4,0.2,17.6,2.4,29.1,7c0.3,0.1,0.6,0.2,0.9,0.2c1,0,1.9-0.6,2.3-1.6C790.6,107.5,790,106.1,788.7,105.6z"/>
	<path class="st0" d="M372,213.9l-14.1,5c-1.3,0.5-2,1.9-1.5,3.2c0.4,1,1.3,1.7,2.4,1.7c0.3,0,0.6,0,0.8-0.1l14.1-5
		c1.3-0.5,2-1.9,1.5-3.2C374.7,214.2,373.3,213.5,372,213.9z"/>
	<path class="st0" d="M981.4,95.8l-46.8-9.1l10.2,14.6c-2.3,0.9-4.8,1.9-7.6,2.9c-1.3,0.5-2,1.9-1.5,3.2c0.4,1,1.3,1.7,2.4,1.7
		c0.3,0,0.6,0,0.8-0.1c2.4-0.9,4.6-1.7,6.7-2.5l-3.3,16.5L981.4,95.8z"/>
</g>
</svg>
