<?xml version="1.0" encoding="utf-8"?>
<!-- Generator: Adobe Illustrator 24.0.1, SVG Export Plug-In . SVG Version: 6.00 Build 0)  -->
<svg version="1.1" id="Endurance_Pits_-_Pit_Road" xmlns="http://www.w3.org/2000/svg" xmlns:xlink="http://www.w3.org/1999/xlink"
	 x="0px" y="0px" viewBox="0 0 1920 1080" style="enable-background:new 0 0 1920 1080;" xml:space="preserve">
<style type="text/css">
	.st0{fill:#D82520;}
</style>
<title>pitroad</title>
<g id="Pitroad">
	<path class="st0" d="M667.9,300.9c-3.5,3.2-7.4,5.7-11.8,7.5c-1.3,0.5-1.9,2-1.4,3.3c0.4,1,1.3,1.6,2.3,1.6c0.3,0,0.6-0.1,0.9-0.2
		c4.9-2,9.4-4.9,13.3-8.5c1-0.9,1.1-2.5,0.1-3.5C670.5,300.1,668.9,300,667.9,300.9z"/>
	<path class="st0" d="M497.6,269.9l-30.7,1.4c-1.4,0.1-2.4,1.2-2.4,2.6c0.1,1.3,1.2,2.4,2.5,2.4c0,0,0.1,0,0.1,0l30.7-1.4
		c1.4-0.1,2.4-1.2,2.4-2.6C500.1,270.9,499,269.8,497.6,269.9z"/>
	<path class="st0" d="M406.9,206.2c0.3,0,0.6-0.1,0.9-0.2c8.3-3.1,19.4-6.3,28.3-8.9l0.9-0.3c1.3-0.4,2.1-1.8,1.7-3.1
		c-0.4-1.3-1.8-2.1-3.1-1.7l-0.9,0.3c-9,2.6-20.2,5.9-28.7,9c-1.3,0.5-2,1.9-1.5,3.2C405,205.6,405.9,206.2,406.9,206.2z"/>
	<path class="st0" d="M489.1,174.8c1.4-0.3,2.8-0.6,4.4-0.9c1.3-0.3,2.2-1.6,1.9-3c-0.3-1.3-1.6-2.2-3-1.9c-1.6,0.3-3,0.7-4.4,0.9
		c-9.9,2.1-18.1,6.3-24.9,10.1c-1.2,0.7-1.6,2.2-1,3.4c0.5,0.8,1.3,1.3,2.2,1.3c0.4,0,0.8-0.1,1.2-0.3
		C472,180.7,479.8,176.8,489.1,174.8z"/>
	<path class="st0" d="M555.4,157.2c-0.3-1.3-1.7-2.2-3-1.9c-10.2,2.4-20.5,4.7-30,6.9c-1.3,0.3-2.2,1.6-1.9,3
		c0.3,1.2,1.3,1.9,2.4,1.9c0.2,0,0.4,0,0.6-0.1c9.5-2.2,19.8-4.5,30-6.9C554.9,159.9,555.7,158.6,555.4,157.2z"/>
	<path class="st0" d="M374.8,275.5l-30.7,1.4c-1.4,0.1-2.4,1.2-2.4,2.6c0.1,1.3,1.2,2.4,2.5,2.4c0,0,0.1,0,0.1,0l30.7-1.4
		c1.4-0.1,2.4-1.2,2.4-2.6C377.4,276.5,376.2,275.4,374.8,275.5z"/>
	<path class="st0" d="M327.7,251.2c-2.1,1.5-3.3,2.4-3.3,2.4l-0.1,0.1c-9.8,7.9-14.4,14-14.4,19c0,2.2,0.9,4.2,2.6,5.7
		c0.5,0.4,1.1,0.6,1.7,0.6c0.7,0,1.4-0.3,1.9-0.8c0.9-1,0.8-2.6-0.2-3.5c-0.6-0.6-0.9-1.2-0.9-1.9c0-1.9,1.6-6.3,12.5-15.1
		c0.3-0.2,1.4-1,3.3-2.4c1.1-0.8,1.4-2.4,0.6-3.5C330.4,250.7,328.8,250.4,327.7,251.2z"/>
	<path class="st0" d="M436.2,272.7l-30.7,1.4c-1.4,0.1-2.4,1.2-2.4,2.6c0.1,1.3,1.2,2.4,2.5,2.4c0,0,0.1,0,0.1,0l30.7-1.4
		c1.4-0.1,2.4-1.2,2.4-2.6C438.7,273.7,437.6,272.6,436.2,272.7z"/>
	<path class="st0" d="M559,267.1l-30.7,1.4c-1.4,0.1-2.4,1.2-2.4,2.6c0.1,1.3,1.2,2.4,2.5,2.4c0,0,0.1,0,0.1,0l30.7-1.4
		c1.4-0.1,2.4-1.2,2.4-2.6S560.4,267,559,267.1z"/>
	<path class="st0" d="M378.6,216.3c-7.3,4.7-15.9,10.4-25.7,17.2c-1.1,0.8-1.4,2.3-0.6,3.5c0.5,0.7,1.3,1.1,2.1,1.1
		c0.5,0,1-0.1,1.4-0.4c9.7-6.7,18.3-12.5,25.5-17.1c1.2-0.7,1.5-2.3,0.8-3.5S379.7,215.5,378.6,216.3z"/>
	<path class="st0" d="M847.8,119.3c-5.1,0.4-8.7,0.7-11.5,1c-7.5,0.7-13.3,0.4-18.1-1.1c-1.3-0.4-2.7,0.3-3.1,1.7
		c-0.4,1.3,0.3,2.7,1.7,3.1c3.7,1.1,7.7,1.7,12.5,1.7c2.3,0,4.8-0.1,7.5-0.4c2.8-0.3,6.3-0.6,11.5-1c1.4-0.1,2.4-1.3,2.3-2.7
		C850.4,120.2,849.2,119.2,847.8,119.3z"/>
	<path class="st0" d="M790.6,106.4c-11.9-4.9-21.5-7.5-30.3-8.1c-1.4-0.1-2.6,1-2.7,2.3c-0.1,1.4,1,2.6,2.3,2.7
		c8.3,0.5,17.4,3,28.8,7.7c0.3,0.1,0.6,0.2,1,0.2c1,0,1.9-0.6,2.3-1.5C792.5,108.4,791.9,106.9,790.6,106.4z"/>
	<path class="st0" d="M729.3,103.8c-7.8,2.6-17.6,6.1-29.1,10.4c-1.3,0.5-1.9,1.9-1.5,3.2c0.4,1,1.3,1.6,2.3,1.6
		c0.3,0,0.6-0.1,0.9-0.2c11.4-4.3,21.1-7.8,28.9-10.3c1.3-0.4,2-1.8,1.6-3.2S730.6,103.4,729.3,103.8z"/>
	<path class="st0" d="M615.4,143.3c-0.3-1.3-1.7-2.2-3-1.9c-7.3,1.7-17.9,4.2-30,7c-1.3,0.3-2.2,1.7-1.9,3c0.3,1.2,1.3,1.9,2.4,1.9
		c0.2,0,0.4,0,0.6-0.1c12.1-2.8,22.7-5.3,30-7C614.9,146,615.7,144.6,615.4,143.3z"/>
	<path class="st0" d="M908.5,112.4c-3.4,0.7-6.8,1.4-10.2,2c-4.6,0.8-11.1,1.5-19.9,2.3c-1.4,0.1-2.4,1.3-2.3,2.7
		c0.1,1.3,1.2,2.3,2.5,2.3c0.1,0,0.2,0,0.2,0c8.9-0.8,15.5-1.6,20.3-2.4c3.5-0.6,7-1.3,10.4-2.1c1.3-0.3,2.2-1.6,1.9-3
		C911.2,112.9,909.9,112.1,908.5,112.4z"/>
	<path class="st0" d="M655.3,259.4L655.3,259.4l-4.8,0c-1.4,0-2.5,1.1-2.5,2.5c0,1.4,1.1,2.5,2.5,2.5c0,0,0,0,0,0l4.6,0
		c0.9,0.1,15.2,1,19,11c0.4,1,1.3,1.6,2.3,1.6c0.3,0,0.6-0.1,0.9-0.2c1.3-0.5,1.9-1.9,1.4-3.2C673.7,260.3,656.1,259.4,655.3,259.4z
		"/>
	<path class="st0" d="M619.8,259.6C619.8,259.6,619.8,259.6,619.8,259.6l-24.1,0.1l-7,1.5c-1.4,0.3-2.2,1.6-1.9,3
		c0.2,1.2,1.3,2,2.4,2c0.2,0,0.3,0,0.5-0.1l6.5-1.4l23.6-0.1c1.4,0,2.5-1.1,2.5-2.5C622.3,260.7,621.2,259.6,619.8,259.6z"/>
	<path class="st0" d="M674.6,126.7c-0.4-1.3-1.8-2.1-3.1-1.7l-29.5,8.5c-1.3,0.4-2.1,1.8-1.7,3.1c0.3,1.1,1.3,1.8,2.4,1.8
		c0.2,0,0.5,0,0.7-0.1l29.5-8.5C674.2,129.4,675,128,674.6,126.7z"/>
	<path class="st0" d="M981.4,95.8l-46.8-9.1l10.2,14.6c-2.3,0.9-4.8,1.9-7.6,2.9c-1.3,0.5-2,1.9-1.5,3.2c0.4,1,1.3,1.7,2.4,1.7
		c0.3,0,0.6,0,0.8-0.1c2.4-0.9,4.6-1.7,6.7-2.5l-3.3,16.5L981.4,95.8z"/>
</g>
</svg>
