<?xml version="1.0" encoding="UTF-8"?>
<svg id="EXAMPLE_-_Pit_Road" xmlns="http://www.w3.org/2000/svg" viewBox="0 0 1920 1080">
  <defs>
    <style>
      .cls-1 {
        fill: #d82520;
      }
    </style>
  </defs>
  <g id="Pitroad_Club">
    <path class="cls-1" d="M787.56,792.9c-3.61,0-7.14-.67-10.5-1.98-1.29-.5-1.92-1.95-1.42-3.24s1.95-1.92,3.24-1.42c3.36,1.32,6.97,1.85,10.57,1.56l8.07-.64c1.37-.09,2.58.92,2.69,2.29.11,1.38-.92,2.58-2.29,2.69l-8.07.64c-.76.06-1.53.09-2.29.09ZM817.68,791.16c-1.35,0-2.46-1.07-2.5-2.43-.04-1.38,1.04-2.53,2.43-2.57l19.85-.59c1.37-.05,2.53,1.04,2.57,2.42.04,1.38-1.04,2.53-2.43,2.57l-19.85.59s-.05,0-.08,0ZM763.69,777.78c-.92,0-1.8-.51-2.24-1.39l-8.91-17.9c-.62-1.24-.11-2.74,1.12-3.35,1.24-.62,2.74-.11,3.35,1.12l8.91,17.9c.62,1.24.11,2.74-1.12,3.35-.36.18-.74.26-1.11.26Z"/>
    <polygon class="cls-1" points="830.62 798.88 869.86 787.11 829.99 777.68 830.62 798.88"/>
  </g>
</svg>