<?xml version="1.0" encoding="utf-8"?>
<!-- Generator: Adobe Illustrator 24.2.0, SVG Export Plug-In . SVG Version: 6.00 Build 0)  -->
<svg version="1.1" id="Oval_-_Pit_Road" xmlns="http://www.w3.org/2000/svg" xmlns:xlink="http://www.w3.org/1999/xlink" x="0px"
	 y="0px" viewBox="0 0 1920 1080" style="enable-background:new 0 0 1920 1080;" xml:space="preserve">
<style type="text/css">
	.st0{fill:#D82520;}
	.st1{fill:#016699;}
</style>
<g id="Pitroad">
	<path class="st0" d="M607.2,848h-30.1l0,0c-1.4,0-2.5,1.1-2.5,2.5s1.1,2.5,2.5,2.5h30.1l0,0c1.4,0,2.5-1.1,2.5-2.5
		S608.5,848,607.2,848L607.2,848z"/>
	<path class="st0" d="M667.3,848.1h-30.1l0,0c-1.4,0-2.5,1.1-2.5,2.5s1.1,2.5,2.5,2.5h30.1l0,0c1.4,0,2.5-1.1,2.5-2.5
		S668.7,848.1,667.3,848.1z"/>
	<path class="st0" d="M727.5,848.1h-30.1l0,0c-1.4,0-2.5,1.1-2.5,2.5s1.1,2.5,2.5,2.5h30.1l0,0c1.4,0,2.5-1.1,2.5-2.5
		S728.8,848.1,727.5,848.1L727.5,848.1z"/>
	<path class="st0" d="M847.7,848.2h-30l0,0c-1.4,0-2.5,1.1-2.5,2.5s1.1,2.5,2.5,2.5h30.1l0,0c1.4,0,2.5-1.1,2.5-2.5
		S849.1,848.2,847.7,848.2L847.7,848.2z"/>
	<path class="st0" d="M787.6,848.2h-30l0,0c-1.4,0-2.5,1.1-2.5,2.5s1.1,2.5,2.5,2.5h30.1l0,0c1.4,0,2.5-1.1,2.5-2.5
		S789,848.2,787.6,848.2L787.6,848.2z"/>
	<path class="st0" d="M428.6,835c-9.5-2.7-18.8-6.2-27.8-10.3c-1.3-0.6-2.7,0-3.3,1.2c-0.6,1.3,0,2.7,1.2,3.3
		c9.2,4.2,18.7,7.7,28.5,10.5c0.2,0.1,0.5,0.1,0.7,0.1c1.4,0,2.5-1.1,2.5-2.5C430.4,836.3,429.6,835.3,428.6,835L428.6,835z"/>
	<path class="st0" d="M487,846.7c-10-1.2-19.9-2.8-29.5-4.7c-1.4-0.3-2.7,0.6-3,2s0.6,2.7,2,3c9.7,1.9,19.8,3.5,29.9,4.7h0.3
		c1.4,0.1,2.6-1,2.6-2.3C489.4,847.9,488.4,846.7,487,846.7L487,846.7L487,846.7z"/>
	<path class="st0" d="M546.9,848h-30.1l0,0c-1.4,0-2.5,1.1-2.5,2.5s1.1,2.5,2.5,2.5h30.1l0,0c1.4,0,2.5-1.1,2.5-2.5
		S548.3,848,546.9,848z"/>
	<path class="st0" d="M1208.4,848.5h-30.1l0,0c-1.4,0-2.5,1.1-2.5,2.5s1.1,2.5,2.5,2.5h30.1l0,0c1.4,0,2.5-1.1,2.5-2.5
		S1209.8,848.5,1208.4,848.5z"/>
	<path class="st0" d="M1268.5,848.6h-30.1l0,0c-1.4,0-2.5,1.1-2.5,2.5s1.1,2.5,2.5,2.5h30.1l0,0c1.4,0,2.5-1.1,2.5-2.5
		S1269.9,848.6,1268.5,848.6z"/>
	<path class="st0" d="M1148.3,848.5h-30l0,0c-1.4,0-2.5,1.1-2.5,2.5s1.1,2.5,2.5,2.5h30.1l0,0c1.4,0,2.5-1.1,2.5-2.5
		S1149.7,848.5,1148.3,848.5L1148.3,848.5z"/>
	<path class="st0" d="M907.8,848.3h-30l0,0c-1.4,0-2.5,1.1-2.5,2.5s1.1,2.5,2.5,2.5h30l0,0c1.4,0,2.5-1.1,2.5-2.5
		S909.2,848.3,907.8,848.3z"/>
	<path class="st0" d="M1328.7,848.6h-30.1l0,0c-1.4,0-2.5,1.1-2.5,2.5s1.1,2.5,2.5,2.5h30.1l0,0c1.4,0,2.5-1.1,2.5-2.5
		S1330.1,848.6,1328.7,848.6L1328.7,848.6z"/>
	<path class="st0" d="M1028,848.4h-30l0,0c-1.4,0-2.5,1.1-2.5,2.5s1.1,2.5,2.5,2.5h30l0,0c1.4,0,2.5-1.1,2.5-2.5
		S1029.4,848.4,1028,848.4z"/>
	<path class="st0" d="M968,848.3h-30.1l0,0c-1.4,0-2.5,1.1-2.5,2.5s1.1,2.5,2.5,2.5H968l0,0c1.4,0,2.5-1.1,2.5-2.5
		S969.4,848.3,968,848.3z"/>
	<path class="st0" d="M1088.1,848.4h-30.1l0,0c-1.4,0-2.5,1.1-2.5,2.5s1.1,2.5,2.5,2.5h30.1l0,0c1.4,0,2.5-1.1,2.5-2.5
		S1089.5,848.4,1088.1,848.4L1088.1,848.4z"/>
	<path class="st0" d="M1418.8,851.2l-43.9-18.5l6.8,16h-22.9l0,0c-1.4,0-2.5,1.1-2.5,2.5s1.1,2.5,2.5,2.5h22.9l-6.8,16L1418.8,851.2
		z"/>
</g>
<g id="Mergeline">
	<path class="st1" d="M1425.9,118.1c2.8,0.2,5.2-1.9,5.4-4.6s-1.9-5.2-4.6-5.4c-9.7-1.5-19.8-2.8-30-3.8c-2.7-0.4-5.2,1.6-5.6,4.3
		s1.6,5.2,4.3,5.6c0.1,0,0.2,0,0.2,0c10,1.1,19.9,2.3,29.5,3.8C1425.4,118.1,1425.6,118.1,1425.9,118.1z"/>
	<path class="st1" d="M1501,842.4c-9.3,2.8-18.8,4.7-28.5,5.9c-2.8,0.1-4.9,2.5-4.7,5.3s2.5,4.9,5.3,4.7h0.5
		c10.2-1.2,20.3-3.3,30.2-6.3c2.7-0.8,4.2-3.5,3.4-6.2C1506.5,843.2,1503.7,841.6,1501,842.4L1501,842.4L1501,842.4z"/>
	<path class="st1" d="M1614,196.5c8.4,6.3,16.3,12.4,23.6,18.2c2.1,1.8,5.2,1.6,7.1-0.5c1.8-2.1,1.6-5.2-0.5-7.1
		c-0.1-0.1-0.2-0.2-0.3-0.2c-7.3-5.9-15.4-12.1-23.9-18.4c-2.2-1.7-5.3-1.2-7,1S1611.8,194.9,1614,196.5L1614,196.5L1614,196.5z"/>
	<path class="st1" d="M1484.7,130c2.8,0,5-2.2,5-5c0-2.3-1.5-4.3-3.7-4.8c-9.5-2.4-19.4-4.7-29.5-6.7c-2.7-0.6-5.4,1.2-5.9,3.9
		c-0.6,2.7,1.2,5.4,3.9,5.9l0,0c9.9,2,19.7,4.2,29,6.6C1483.8,129.9,1484.3,130,1484.7,130z"/>
	<path class="st1" d="M1443.3,848.6c-15.3-0.7-29.5-2.3-29.6-2.3c-2.7-0.3-5.2,1.7-5.5,4.4c-0.3,2.7,1.7,5.2,4.4,5.5
		c0.1,0,14.6,1.6,30.3,2.4h0.3c2.8,0.1,5.1-2.1,5.1-4.9S1446.1,848.6,1443.3,848.6L1443.3,848.6z"/>
	<path class="st1" d="M1765.3,408.4c0.8,2.7,3.5,4.2,6.2,3.5c2.5-0.7,4.1-3.3,3.5-5.9c-2.5-9.9-5.3-19.7-8.4-29.2
		c-0.8-2.6-3.6-4.1-6.2-3.4c-2.6,0.8-4.1,3.6-3.4,6.2c0,0.1,0.1,0.2,0.1,0.3C1760.1,389.1,1762.9,398.7,1765.3,408.4z"/>
	<path class="st1" d="M1681.7,254.4c1.9,2,5.1,2,7.1,0.1c2-1.9,2-5.1,0.1-7.1l0,0c-6.7-6.9-14.1-13.9-22-20.9
		c-2.1-1.8-5.2-1.7-7.1,0.4s-1.7,5.2,0.4,7.1C1668,240.8,1675.2,247.7,1681.7,254.4z"/>
	<path class="st1" d="M1746.7,352.2c1,2.6,3.9,3.8,6.5,2.8c2.6-1,3.8-3.9,2.8-6.5c0-0.1-0.1-0.2-0.1-0.2c-4-9.4-8.4-18.6-13.1-27.5
		c-1.3-2.4-4.3-3.4-6.8-2.1s-3.4,4.3-2.1,6.8C1738.5,334.1,1742.8,343.1,1746.7,352.2z"/>
	<path class="st1" d="M1718.9,300.1c1.5,2.3,4.6,3,6.9,1.5c2.3-1.5,3-4.6,1.5-6.9c0,0-0.1-0.1-0.1-0.1c-5.6-8.5-11.6-16.7-18-24.6
		c-1.7-2.1-4.9-2.5-7-0.7c-2.1,1.7-2.5,4.9-0.7,7C1707.7,284,1713.5,291.9,1718.9,300.1z"/>
	<path class="st1" d="M1771.4,437.4c1.7,9.5,3.1,19.4,4.2,29.4c0.3,2.5,2.4,4.5,5,4.5h0.5c2.7-0.3,4.7-2.8,4.4-5.5
		c-1.1-10.2-2.5-20.3-4.2-30c-0.4-2.7-3-4.6-5.7-4.1C1772.8,432,1771,434.5,1771.4,437.4C1771.4,437.3,1771.4,437.4,1771.4,437.4
		L1771.4,437.4z"/>
	<path class="st1" d="M1695.9,712.5c-6.9,7.3-13.9,14.5-20.8,21.4c-2,1.9-2,5.1,0,7.1c0.9,1,2.2,1.5,3.6,1.5c1.3,0,2.6-0.5,3.5-1.5
		c7-6.9,14.1-14.2,21.1-21.6c1.9-2,1.9-5.1,0-7.1c-2-1.9-5.1-1.9-7.1,0C1696,712.4,1695.9,712.5,1695.9,712.5L1695.9,712.5z"/>
	<path class="st1" d="M1737.3,663.3c-2.4-1.4-5.5-0.5-6.8,1.9c0,0,0,0,0,0c-6.4,11.3-11.9,20-15.5,25.2c-1.6,2.3-1,5.4,1.2,7
		c2.3,1.6,5.4,1,7-1.2c0,0,0.1-0.1,0.1-0.1c3.7-5.4,9.4-14.3,15.9-25.9C1740.5,667.7,1739.7,664.7,1737.3,663.3
		C1737.3,663.3,1737.3,663.3,1737.3,663.3z"/>
	<path class="st1" d="M1761.8,608.6c-2.6-1-5.5,0.4-6.4,2.9c-1.8,4.7-3.6,9.5-5.5,14c-1.8,4.4-3.8,8.9-5.9,13.3
		c-1.2,2.5-0.1,5.5,2.4,6.6c2.5,1.2,5.5,0.1,6.6-2.4c2.1-4.5,4.2-9.2,6-13.7c2-4.7,3.9-9.5,5.7-14.4
		C1765.7,612.5,1764.4,609.6,1761.8,608.6z"/>
	<path class="st1" d="M1777.6,550.8c-2.7-0.5-5.3,1.2-5.9,3.9c-1.9,9.4-4.3,19.1-7.1,28.7c-0.8,2.7,0.8,5.4,3.4,6.2c0,0,0,0,0,0
		c0.5,0.1,0.9,0.2,1.4,0.2c2.2,0,4.2-1.5,4.8-3.6c2.8-9.9,5.3-19.8,7.3-29.5C1782.1,554,1780.3,551.4,1777.6,550.8
		C1777.6,550.8,1777.6,550.8,1777.6,550.8z"/>
	<path class="st1" d="M1787.8,496c0-2.8-2.3-5-5.1-4.9c-2.8,0-5,2.3-4.9,5.1c0,1.2,0,2.4,0,3.6c0,8.6-0.5,17.2-1.4,25.7
		c-0.3,2.7,1.7,5.2,4.4,5.5c0,0,0,0,0,0h0.5c2.6,0,4.7-1.9,5-4.5c1-8.9,1.5-17.8,1.5-26.8C1787.8,498.6,1787.8,497.3,1787.8,496z"/>
	<path class="st1" d="M1653.4,754.4c-7.6,6.8-15.1,13.4-22.5,19.4c-2.2,1.7-2.5,4.9-0.8,7s4.9,2.5,7,0.8c0,0,0.1-0.1,0.1-0.1
		c7.5-6.2,15.2-12.8,22.9-19.8c2.1-1.8,2.3-5,0.5-7.1c-1.8-2.1-5-2.3-7.1-0.5C1653.6,754.3,1653.5,754.3,1653.4,754.4L1653.4,754.4z
		"/>
	<path class="st1" d="M1541.6,148.9c2.8,0,5-2.2,5.1-4.9c0-2-1.2-3.9-3.1-4.7c-8.8-3.7-18.4-7.3-28.5-10.6c-2.6-0.9-5.5,0.5-6.3,3.1
		c-0.9,2.6,0.5,5.5,3.1,6.3c0,0,0.1,0,0.1,0c9.8,3.2,19.2,6.7,27.7,10.3C1540.3,148.7,1540.9,148.8,1541.6,148.9z"/>
	<path class="st1" d="M1556.6,821.6l-2,0.8c-10.5,4.4-18.4,7.6-25.6,10.4c-2.6,1-3.9,3.9-2.9,6.5c0.7,1.9,2.6,3.2,4.7,3.2
		c0.6,0,1.2-0.1,1.8-0.3c7.3-2.8,15.3-6,25.9-10.5l2.1-0.9c2.5-1.1,3.7-4.1,2.6-6.6C1562.1,821.7,1559.1,820.5,1556.6,821.6
		L1556.6,821.6z"/>
	<path class="st1" d="M1592.7,179.9c2.8,0,5-2.2,5-5c0-1.6-0.8-3.1-2.1-4.1c-7.6-5.4-15.9-11.2-24.7-17.1c-2.2-1.6-5.4-1.1-7,1.1
		c-1.6,2.2-1.1,5.4,1.1,7c0.1,0.1,0.1,0.1,0.2,0.2c8.7,5.9,17,11.7,24.6,17C1590.6,179.6,1591.7,179.9,1592.7,179.9z"/>
	<path class="st1" d="M1607.4,791.9c-8.4,6-16.8,11.5-24.7,16.2c-2.4,1.4-3.2,4.5-1.7,6.9c0.9,1.5,2.5,2.5,4.3,2.4
		c0.9,0,1.8-0.2,2.5-0.7c8.2-4.9,16.8-10.5,25.4-16.7c2.2-1.6,2.7-4.8,1-7C1612.7,790.9,1609.6,790.4,1607.4,791.9L1607.4,791.9z"/>
	
		<rect x="1353.1" y="103.3" transform="matrix(9.862511e-02 -0.9951 0.9951 9.862511e-02 1141.1471 1476.4691)" class="st1" width="65" height="10"/>
</g>
</svg>
