<?xml version="1.0" encoding="UTF-8"?>
<svg xmlns="http://www.w3.org/2000/svg" version="1.1" viewBox="0 0 1920 1080">
  <defs>
    <style>
      .cls-1 {
        fill: #d82520;
      }

      .cls-2 {
        fill: #0089ba;
      }
    </style>
  </defs>
  <!-- Generator: Adobe Illustrator 28.6.0, SVG Export Plug-In . SVG Version: 1.2.0 Build 709)  -->
  <g>
    <g id="EXAMPLE_-_Pit_Road">
      <g id="pitroad">
        <path class="cls-1" d="M1248.2,761.2h-14v-8.1l-39.6,10.6,39.6,10.6v-8.1h14c1.4,0,2.5-1.1,2.5-2.5s-1.1-2.5-2.5-2.5Z"/>
        <path class="cls-1" d="M1288,759.7l-20,1c-1.4,0-2.4,1.2-2.4,2.6,0,1.3,1.2,2.4,2.5,2.4h0c0,0,.1,0,.1,0l20-1c1.4,0,2.4-1.2,2.4-2.6,0-1.4-1.2-2.4-2.6-2.4Z"/>
        <path class="cls-1" d="M1327.7,756.6l-13.1-2.9-7.6,2c-1.3.3-2.2,1.7-1.8,3s1.7,2.1,3.1,1.8l6.4-1.7,11.9,2.6c.2,0,.4,0,.5,0h0c1.1,0,2.2-.8,2.4-2,.3-1.3-.6-2.7-1.9-3Z"/>
        <path class="cls-1" d="M1366.7,765.2l-19.5-4.3c-1.4-.3-2.7.6-3,1.9-.3,1.3.6,2.7,1.9,3l19.5,4.3c.2,0,.4,0,.5,0,1.1,0,2.2-.8,2.4-2,.3-1.3-.6-2.7-1.9-3Z"/>
      </g>
      <g id="mergeline">
        <path class="cls-2" d="M1146,762.9l-19.9.7v-6.2h-5v32.5h5v-21.2h0l20-.7c1.4,0,2.5-1.2,2.4-2.6,0-1.4-1.2-2.5-2.6-2.4h0Z"/>
        <path class="cls-2" d="M1186,761.5l-20,.7c-1.4,0-2.5,1.2-2.4,2.6,0,1.3,1.2,2.4,2.5,2.4h0l20-.7c1.4,0,2.5-1.2,2.4-2.6,0-1.4-1.2-2.5-2.6-2.4h0Z"/>
      </g>
    </g>
  </g>
</svg>