<svg id="South_-_Pit_Road" data-name="South - Pit Road" xmlns="http://www.w3.org/2000/svg" viewBox="0 0 1920 1080"><defs><style>.cls-1{fill:#d82520;}</style></defs><title>pitroad</title><g id="Pitroad"><path class="cls-1" d="M1594.77,566.58c-9.22,4.78-18.21,9.38-26.72,13.66a2.5,2.5,0,0,0,1.12,4.74,2.54,2.54,0,0,0,1.13-.27c8.52-4.3,17.53-8.9,26.77-13.69a2.5,2.5,0,1,0-2.3-4.44Z"/><path class="cls-1" d="M1541.15,593.54c-10.13,4.9-19.27,9.16-27.15,12.68a2.5,2.5,0,0,0,1,4.78,2.42,2.42,0,0,0,1-.22c7.93-3.53,17.12-7.82,27.3-12.74a2.5,2.5,0,1,0-2.18-4.5Z"/><path class="cls-1" d="M1486.15,616.5c-7.73,2.32-17.43,5.08-28.82,8.17a2.5,2.5,0,1,0,1.31,4.83c11.44-3.11,21.18-5.87,28.95-8.22a2.5,2.5,0,1,0-1.44-4.78Z"/><path class="cls-1" d="M1647.82,538.45c-8.15,4.43-17.3,9.34-26.46,14.19a2.5,2.5,0,0,0,1.18,4.71,2.43,2.43,0,0,0,1.16-.29c9.17-4.86,18.34-9.78,26.51-14.21a2.5,2.5,0,0,0-2.39-4.4Z"/><path class="cls-1" d="M1750.23,471.27a2.49,2.49,0,0,0-3.49-.53s-10.88,8-24.26,17.85a2.5,2.5,0,0,0,1.48,4.52,2.46,2.46,0,0,0,1.48-.49c13.38-9.83,24.27-17.86,24.27-17.86A2.49,2.49,0,0,0,1750.23,471.27Z"/><path class="cls-1" d="M1698.23,506.37c-13.53,9.89-21.57,15.69-23.9,17.24l-.38.25a2.5,2.5,0,0,0,1.33,4.61,2.54,2.54,0,0,0,1.34-.39l.49-.31c2.38-1.59,10.48-7.43,24.07-17.37a2.5,2.5,0,1,0-3-4Z"/><polygon class="cls-1" points="1453.11 609.26 1415.32 638.26 1462.46 645.09 1450.17 629.16 1453.11 609.26"/></g></svg>