<?xml version="1.0" encoding="utf-8"?>
<!-- Generator: Adobe Illustrator 24.0.1, SVG Export Plug-In . SVG Version: 6.00 Build 0)  -->
<svg version="1.1" id="Jefferson___Pit_Road" xmlns="http://www.w3.org/2000/svg" xmlns:xlink="http://www.w3.org/1999/xlink"
	 x="0px" y="0px" viewBox="0 0 1920 1080" style="enable-background:new 0 0 1920 1080;" xml:space="preserve">
<style type="text/css">
	.st0{fill:#D82520;}
</style>
<title>pitroad</title>
<g id="Pitroad">
	<path class="st0" d="M701,600.2l-30-0.5c0,0,0,0,0,0c-1.4,0-2.5,1.1-2.5,2.5c0,1.4,1.1,2.5,2.5,2.5l30,0.5c0,0,0,0,0,0
		c1.4,0,2.5-1.1,2.5-2.5C703.5,601.4,702.4,600.3,701,600.2z"/>
	<path class="st0" d="M640.7,600.1c-1.4,0.2-2.9,0.4-4.3,0.6l-25.3,5.4c-1.4,0.3-2.2,1.6-1.9,3c0.2,1.2,1.3,2,2.4,2
		c0.2,0,0.3,0,0.5-0.1l25.2-5.3c1.3-0.2,2.7-0.4,4-0.6c1.4-0.2,2.4-1.4,2.2-2.8C643.3,601,642.1,600,640.7,600.1z"/>
	<path class="st0" d="M859,627.9c-3.6-0.3-7.5-0.8-11.6-1.5c-1.4-0.2-2.7,0.7-2.9,2c-0.2,1.4,0.7,2.7,2,2.9
		c4.3,0.8,8.3,1.3,12.1,1.6c0.1,0,0.1,0,0.2,0c1.3,0,2.4-1,2.5-2.3C861.4,629.3,860.4,628.1,859,627.9z"/>
	<path class="st0" d="M581.7,612.3l-8.5,1.8l-0.1,0c-4.3,1.2-8.6,2.1-13,2.9l5.8-16l-42.8,20.8l44.8,16.1l-7.8-15.9
		c4.8-0.9,9.5-1.9,14.2-3.2l8.5-1.8c1.4-0.3,2.2-1.6,1.9-3C584.4,612.9,583.1,612,581.7,612.3z"/>
	<path class="st0" d="M818.7,618.8c-10-3.4-17.1-6.6-17.8-6.9c-3.2-1.6-6.5-3.1-9.8-4.5c-1.3-0.5-2.7,0.1-3.2,1.4
		c-0.5,1.3,0.1,2.7,1.4,3.2c3.2,1.3,6.4,2.7,9.4,4.3l0.1,0.1c0.3,0.1,7.6,3.4,18.3,7.1c0.3,0.1,0.5,0.1,0.8,0.1c1,0,2-0.7,2.4-1.7
		C820.7,620.7,820,619.2,818.7,618.8z"/>
	<path class="st0" d="M761,601.2l-30-0.5c-1.3,0-2.5,1.1-2.5,2.5c0,1.4,1.1,2.5,2.5,2.5l30,0.5c0,0,0,0,0,0c1.4,0,2.5-1.1,2.5-2.5
		C763.5,602.3,762.4,601.2,761,601.2z"/>
</g>
</svg>
