<?xml version="1.0" encoding="utf-8"?>
<!-- Generator: Adobe Illustrator 24.0.1, SVG Export Plug-In . SVG Version: 6.00 Build 0)  -->
<svg version="1.1" id="Milwaukee__Pit_Road" xmlns="http://www.w3.org/2000/svg" xmlns:xlink="http://www.w3.org/1999/xlink"
	 x="0px" y="0px" viewBox="0 0 1920 1080" style="enable-background:new 0 0 1920 1080;" xml:space="preserve">
<style type="text/css">
	.st0{fill:#016699;}
	.st1{fill:#D82520;}
</style>
<title>pitroad</title>
<g id="Mergeline">
	<path class="st0" d="M1367.2,143.3c-9.7-1.3-19.8-2.4-30-3.4c-2.8-0.3-5.2,1.8-5.4,4.5c-0.2,2.8,1.8,5.2,4.5,5.4
		c10,0.9,20,2,29.6,3.3c0.2,0,0.5,0,0.7,0c2.5,0,4.6-1.8,4.9-4.3C1371.9,146.2,1369.9,143.7,1367.2,143.3z"/>
	<path class="st0" d="M1482.6,182c2,0,3.9-1.2,4.7-3.2c1-2.6-0.3-5.5-2.8-6.5c-9.2-3.6-18.8-6.9-28.6-10c-2.6-0.8-5.4,0.7-6.3,3.3
		c-0.8,2.6,0.7,5.4,3.3,6.3c9.6,3,19,6.2,27.9,9.7C1481.4,181.9,1482,182,1482.6,182z"/>
	<path class="st0" d="M1426.6,154.4c-9.6-2.3-19.5-4.4-29.6-6.3c-2.7-0.5-5.3,1.3-5.8,4c-0.5,2.7,1.3,5.3,4,5.8
		c9.9,1.8,19.6,3.9,29,6.2c0.4,0.1,0.8,0.1,1.2,0.1c2.3,0,4.3-1.5,4.9-3.8C1430.9,157.7,1429.3,155,1426.6,154.4z"/>
	<path class="st0" d="M1187.8,126.1c-10.7-1.2-20.8-2.4-29.8-3.4c-2.7-0.3-5.2,1.7-5.5,4.4s1.7,5.2,4.4,5.5c9.1,1,19.2,2.2,29.9,3.4
		c0.2,0,0.4,0,0.6,0c2.5,0,4.7-1.9,5-4.4C1192.5,128.9,1190.5,126.4,1187.8,126.1z"/>
	<path class="st0" d="M1247.5,132.6c-9.1-0.9-19.1-2-29.9-3.2c-2.8-0.3-5.2,1.7-5.5,4.4c-0.3,2.7,1.7,5.2,4.4,5.5
		c10.7,1.2,20.8,2.2,29.9,3.2c0.2,0,0.3,0,0.5,0c2.5,0,4.7-1.9,5-4.5C1252.2,135.3,1250.2,132.9,1247.5,132.6z"/>
	<path class="st0" d="M1657,366.1c2.6,9.5,4.7,19.2,6.2,28.8c0.4,2.5,2.5,4.2,4.9,4.2c0.3,0,0.5,0,0.8-0.1c2.7-0.4,4.6-3,4.2-5.7
		c-1.6-10-3.7-20.1-6.4-29.9c-0.7-2.7-3.5-4.2-6.1-3.5C1657.8,360.7,1656.3,363.5,1657,366.1z"/>
	<path class="st0" d="M1647.6,338.2c0.8,2,2.7,3.2,4.6,3.2c0.6,0,1.2-0.1,1.8-0.4c2.6-1,3.8-3.9,2.8-6.5
		c-3.8-9.5-8.1-18.8-12.9-27.7c-1.3-2.4-4.3-3.4-6.8-2c-2.4,1.3-3.3,4.3-2,6.8C1639.8,320.1,1644,329.1,1647.6,338.2z"/>
	<path class="st0" d="M1487.7,696.4c-17,5.5-28.3,7.3-28.4,7.4c-2.7,0.4-4.6,3-4.1,5.7c0.4,2.5,2.5,4.2,4.9,4.2c0.3,0,0.5,0,0.8-0.1
		c0.5-0.1,12.1-2,29.9-7.7c2.6-0.8,4.1-3.7,3.2-6.3C1493.1,697,1490.3,695.6,1487.7,696.4z"/>
	<path class="st0" d="M1307.1,137.9l-1.5-0.1c-6-0.3-15.5-1-28.3-2.2c-2.8-0.3-5.2,1.8-5.4,4.5c-0.3,2.7,1.8,5.2,4.5,5.4
		c12.9,1.2,22.6,2,28.7,2.3l1.5,0.1c0.1,0,0.2,0,0.3,0c2.6,0,4.9-2.1,5-4.8C1312,140.3,1309.8,138,1307.1,137.9z"/>
	<path class="st0" d="M1670,479c-2.8-0.3-5.2,1.7-5.5,4.5c-1,9.9-2.5,19.7-4.5,29.1c-0.6,2.7,1.2,5.4,3.9,5.9c0.3,0.1,0.7,0.1,1,0.1
		c2.3,0,4.4-1.6,4.9-4c2-9.7,3.6-19.8,4.7-30.1C1674.8,481.8,1672.8,479.3,1670,479z"/>
	<path class="st0" d="M1634.1,592.2c-2.3-1.5-5.4-0.8-6.9,1.5c-5.3,8.2-11.2,16.1-17.5,23.5c-1.8,2.1-1.5,5.3,0.6,7
		c0.9,0.8,2.1,1.2,3.2,1.2c1.4,0,2.8-0.6,3.8-1.8c6.6-7.8,12.7-16,18.3-24.6C1637.1,596.8,1636.4,593.7,1634.1,592.2z"/>
	<path class="st0" d="M1658.7,537.8c-2.6-0.9-5.5,0.5-6.3,3.2c-3.1,9.3-6.8,18.5-10.9,27.2c-1.2,2.5-0.1,5.5,2.4,6.7
		c0.7,0.3,1.4,0.5,2.1,0.5c1.9,0,3.7-1.1,4.5-2.9c4.3-9.1,8.2-18.6,11.4-28.4C1662.8,541.5,1661.3,538.6,1658.7,537.8z"/>
	<path class="st0" d="M1676,436.8c0-0.8,0.2-3,0.2-6.6c0-2,0-4.1-0.1-6.3c-0.1-2.8-2.4-4.9-5.2-4.8c-2.8,0.1-4.9,2.4-4.8,5.2
		c0.1,2.1,0.1,4.1,0.1,6c0,3.9-0.1,6.1-0.1,6.1l0,0.3l0,0.3c0.1,4.3,0.2,8.6,0.2,12.8c0,1.5,0,3,0,4.4c0,2.8,2.2,5,4.9,5.1
		c0,0,0,0,0.1,0c2.7,0,5-2.2,5-4.9c0-1.5,0-3,0-4.5C1676.2,445.4,1676.2,441.1,1676,436.8z"/>
	<path class="st0" d="M1541.7,672.8c-8.5,4.8-17.3,9.2-26.4,13.2c-2.5,1.1-3.7,4.1-2.6,6.6c0.8,1.9,2.7,3,4.6,3c0.7,0,1.3-0.1,2-0.4
		c9.4-4.1,18.6-8.7,27.3-13.6c2.4-1.4,3.3-4.4,1.9-6.8C1547.2,672.3,1544.1,671.4,1541.7,672.8z"/>
	<path class="st0" d="M1584.5,243.6c1.4,0,2.7-0.5,3.7-1.6c1.9-2,1.7-5.2-0.3-7.1c-7.4-6.7-15.3-13.2-23.6-19.3
		c-2.2-1.6-5.4-1.2-7,1.1c-1.6,2.2-1.2,5.4,1.1,7c8,5.9,15.6,12.1,22.8,18.6C1582.1,243.2,1583.3,243.6,1584.5,243.6z"/>
	<path class="st0" d="M1624,288.6c1,0,2-0.3,2.8-0.9c2.3-1.6,2.8-4.7,1.3-7c-5.8-8.3-12.1-16.4-18.8-24c-1.8-2.1-5-2.3-7.1-0.5
		c-2.1,1.8-2.3,5-0.5,7.1c6.5,7.4,12.6,15.1,18.1,23.1C1620.9,287.8,1622.4,288.6,1624,288.6z"/>
	<path class="st0" d="M1589.4,638.4c-7.1,6.5-14.8,12.8-22.8,18.5c-2.2,1.6-2.8,4.7-1.1,7c1,1.4,2.5,2.1,4.1,2.1c1,0,2-0.3,2.9-0.9
		c8.3-6,16.3-12.5,23.7-19.3c2-1.9,2.2-5,0.3-7.1C1594.6,636.6,1591.4,636.5,1589.4,638.4z"/>
	<path class="st0" d="M1536.4,208.1c1.7,0,3.4-0.9,4.3-2.4c1.4-2.4,0.6-5.4-1.7-6.9c-8.5-5.1-17.5-9.9-26.8-14.4
		c-2.5-1.2-5.5-0.2-6.7,2.3c-1.2,2.5-0.2,5.5,2.3,6.7c9,4.3,17.7,9,26,14C1534.7,207.9,1535.5,208.1,1536.4,208.1z"/>
	<path class="st0" d="M1122.8,90.9l-7.4,64.6l9.9,1.1l3.2-27.6c2-0.4,3.7-2.1,3.9-4.3c0.3-2.2-1-4.2-2.8-5.1l3.2-27.6L1122.8,90.9z"
		/>
</g>
<g id="Pitroad">
	<path class="st1" d="M697,735.2c-9.7,2.3-19.2,2.8-25.5,2.8c-1.3,0-2.6,0-3.6-0.1c-1.4-0.1-2.5,1-2.6,2.4c0,1.4,1,2.5,2.4,2.6
		c1.1,0,2.4,0.1,3.8,0.1c6.6,0,16.5-0.5,26.7-2.9c1.3-0.3,2.2-1.7,1.9-3C699.7,735.7,698.4,734.9,697,735.2z"/>
	<path class="st1" d="M638.1,735.7l-29.9-2.3c-1.4-0.1-2.6,0.9-2.7,2.3c-0.1,1.4,0.9,2.6,2.3,2.7l29.9,2.3c0.1,0,0.1,0,0.2,0
		c1.3,0,2.4-1,2.5-2.3C640.5,737,639.4,735.8,638.1,735.7z"/>
	<path class="st1" d="M755.3,720.7c-11.3,1-21.4,2.6-30,4.7c-1.3,0.3-2.2,1.7-1.8,3c0.3,1.1,1.3,1.9,2.4,1.9c0.2,0,0.4,0,0.6-0.1
		c8.3-2.1,18.1-3.6,29.2-4.6c1.4-0.1,2.4-1.3,2.3-2.7C757.9,721.6,756.6,720.6,755.3,720.7z"/>
	<path class="st1" d="M875.5,720.4l-30-0.2c0,0,0,0,0,0c-1.4,0-2.5,1.1-2.5,2.5c0,1.4,1.1,2.5,2.5,2.5l30,0.2c0,0,0,0,0,0
		c1.4,0,2.5-1.1,2.5-2.5C878,721.5,876.9,720.4,875.5,720.4z"/>
	<path class="st1" d="M815.5,720.1l-30-0.2c0,0,0,0,0,0c-1.4,0-2.5,1.1-2.5,2.5c0,1.4,1.1,2.5,2.5,2.5l30,0.2c0,0,0,0,0,0
		c1.4,0,2.5-1.1,2.5-2.5C818,721.2,816.9,720.1,815.5,720.1z"/>
	<path class="st1" d="M400,712c-9.3-2.6-18.9-5.6-28.4-9c-1.3-0.5-2.7,0.2-3.2,1.5c-0.5,1.3,0.2,2.7,1.5,3.2
		c9.6,3.4,19.3,6.5,28.8,9.1c0.2,0.1,0.4,0.1,0.7,0.1c1.1,0,2.1-0.7,2.4-1.8C402.1,713.8,401.3,712.4,400,712z"/>
	<path class="st1" d="M578.2,731l-29.9-2.3c-1.4-0.1-2.6,0.9-2.7,2.3c-0.1,1.4,0.9,2.6,2.3,2.7l29.9,2.3c0.1,0,0.1,0,0.2,0
		c1.3,0,2.4-1,2.5-2.3C580.7,732.3,579.6,731.1,578.2,731z"/>
	<path class="st1" d="M343.8,692.1c-9.1-3.9-18.2-8.2-27-12.7c-1.2-0.6-2.7-0.1-3.4,1.1s-0.1,2.7,1.1,3.4c9,4.6,18.1,8.9,27.3,12.8
		c0.3,0.1,0.7,0.2,1,0.2c1,0,1.9-0.6,2.3-1.5C345.7,694.1,345.1,692.6,343.8,692.1z"/>
	<path class="st1" d="M518.4,726.3l-29.9-2.3c-1.4-0.1-2.6,0.9-2.7,2.3c-0.1,1.4,0.9,2.6,2.3,2.7l29.9,2.3c0.1,0,0.1,0,0.2,0
		c1.3,0,2.4-1,2.5-2.3C520.8,727.6,519.8,726.4,518.4,726.3z"/>
	<path class="st1" d="M458.6,721.6l-23-1.8c-0.3,0-2.7-0.3-6.6-1.1c-1.4-0.2-2.7,0.7-2.9,2c-0.2,1.4,0.7,2.7,2,2.9
		c3.4,0.6,6.2,1,7.1,1.1l0,0l23,1.8c0.1,0,0.1,0,0.2,0c1.3,0,2.4-1,2.5-2.3C461,723,460,721.8,458.6,721.6z"/>
	<path class="st1" d="M1175.5,722l-30-0.2c0,0,0,0,0,0c-1.4,0-2.5,1.1-2.5,2.5c0,1.4,1.1,2.5,2.5,2.5l30,0.2c0,0,0,0,0,0
		c1.4,0,2.5-1.1,2.5-2.5C1178,723.1,1176.8,722,1175.5,722z"/>
	<path class="st1" d="M1355.3,721.9c-9.5,0.5-19.1,0.9-28.6,0.9l-1.2,0c0,0,0,0,0,0c-1.4,0-2.5,1.1-2.5,2.5c0,1.4,1.1,2.5,2.5,2.5
		l1.3,0c9.6-0.1,19.3-0.4,28.9-0.9c1.4-0.1,2.4-1.3,2.4-2.6C1357.8,722.9,1356.7,721.8,1355.3,721.9z"/>
	<path class="st1" d="M935.5,720.7l-30-0.2c0,0,0,0,0,0c-1.4,0-2.5,1.1-2.5,2.5c0,1.4,1.1,2.5,2.5,2.5l30,0.2c0,0,0,0,0,0
		c1.4,0,2.5-1.1,2.5-2.5C938,721.9,936.9,720.7,935.5,720.7z"/>
	<path class="st1" d="M1235.5,722.3l-30-0.2c0,0,0,0,0,0c-1.4,0-2.5,1.1-2.5,2.5c0,1.4,1.1,2.5,2.5,2.5l30,0.2c0,0,0,0,0,0
		c1.4,0,2.5-1.1,2.5-2.5C1238,723.5,1236.8,722.3,1235.5,722.3z"/>
	<path class="st1" d="M1414.7,715.5c-9.8,1.6-19.8,2.9-29.6,3.9c-1.4,0.1-2.4,1.4-2.2,2.8c0.1,1.3,1.2,2.2,2.5,2.2
		c0.1,0,0.2,0,0.3,0c9.9-1.1,20-2.4,29.9-4c1.4-0.2,2.3-1.5,2.1-2.9C1417.3,716.2,1416,715.3,1414.7,715.5z"/>
	<path class="st1" d="M1295.5,722.7l-30-0.2c0,0,0,0,0,0c-1.4,0-2.5,1.1-2.5,2.5c0,1.4,1.1,2.5,2.5,2.5l30,0.2c0,0,0,0,0,0
		c1.4,0,2.5-1.1,2.5-2.5C1298,723.8,1296.8,722.7,1295.5,722.7z"/>
	<path class="st1" d="M995.5,721l-30-0.2c0,0,0,0,0,0c-1.4,0-2.5,1.1-2.5,2.5c0,1.4,1.1,2.5,2.5,2.5l30,0.2c0,0,0,0,0,0
		c1.4,0,2.5-1.1,2.5-2.5C998,722.2,996.8,721.1,995.5,721z"/>
	<path class="st1" d="M1055.5,721.4l-30-0.2c0,0,0,0,0,0c-1.4,0-2.5,1.1-2.5,2.5c0,1.4,1.1,2.5,2.5,2.5l30,0.2c0,0,0,0,0,0
		c1.4,0,2.5-1.1,2.5-2.5C1058,722.5,1056.8,721.4,1055.5,721.4z"/>
	<path class="st1" d="M1115.5,721.7l-30-0.2c0,0,0,0,0,0c-1.4,0-2.5,1.1-2.5,2.5c0,1.4,1.1,2.5,2.5,2.5l30,0.2c0,0,0,0,0,0
		c1.4,0,2.5-1.1,2.5-2.5C1118,722.8,1116.8,721.7,1115.5,721.7z"/>
	<polygon class="st1" points="1460,708.7 1413.2,699.8 1424.7,716.3 1420.9,736 	"/>
</g>
</svg>
