<?xml version="1.0" encoding="utf-8"?>
<!-- Generator: Adobe Illustrator 24.0.1, SVG Export Plug-In . SVG Version: 6.00 Build 0)  -->
<svg version="1.1" id="International_-_Pit_Road" xmlns="http://www.w3.org/2000/svg" xmlns:xlink="http://www.w3.org/1999/xlink"
	 x="0px" y="0px" viewBox="0 0 1920 1080" style="enable-background:new 0 0 1920 1080;" xml:space="preserve">
<style type="text/css">
	.st0{fill:#D82520;}
</style>
<title>pitroad</title>
<g id="Pitroad">
	<path class="st0" d="M775.2,835.5c-10.5-0.1-20.5-0.1-30-0.2c0,0,0,0,0,0c-1.4,0-2.5,1.1-2.5,2.5c0,1.4,1.1,2.5,2.5,2.5
		c9.5,0.1,19.5,0.1,30,0.2c0,0,0,0,0,0c1.4,0,2.5-1.1,2.5-2.5C777.7,836.7,776.6,835.6,775.2,835.5z"/>
	<path class="st0" d="M835.2,835.8c-10.3,0-20.3-0.1-30-0.1c0,0,0,0,0,0c-1.4,0-2.5,1.1-2.5,2.5c0,1.4,1.1,2.5,2.5,2.5
		c9.7,0,19.7,0.1,30,0.1c0,0,0,0,0,0c1.4,0,2.5-1.1,2.5-2.5C837.7,837,836.6,835.9,835.2,835.8z"/>
	<path class="st0" d="M895.3,836.1c-10.2,0-20.2-0.1-30-0.1c-1.4,0-2.5,1.1-2.5,2.5c0,1.4,1.1,2.5,2.5,2.5c9.8,0,19.8,0.1,30,0.1
		c0,0,0,0,0,0c1.4,0,2.5-1.1,2.5-2.5C897.7,837.2,896.6,836.1,895.3,836.1z"/>
	<path class="st0" d="M955.3,836.2c-10.2,0-20.2,0-30-0.1c0,0,0,0,0,0c-1.4,0-2.5,1.1-2.5,2.5c0,1.4,1.1,2.5,2.5,2.5
		c9.8,0,19.9,0,30,0.1c0,0,0,0,0,0c1.4,0,2.5-1.1,2.5-2.5C957.8,837.4,956.7,836.2,955.3,836.2z"/>
	<path class="st0" d="M594.8,836.6c-10.6,1.4-20.6,3.3-29.8,5.9c-1.3,0.4-2.1,1.7-1.7,3.1c0.3,1.1,1.3,1.8,2.4,1.8
		c0.2,0,0.4,0,0.7-0.1c8.9-2.5,18.7-4.4,29.1-5.7c1.4-0.2,2.3-1.4,2.2-2.8C597.4,837.4,596.1,836.4,594.8,836.6z"/>
	<path class="st0" d="M536.6,853.6c-9.9,5.3-18,11.8-24.1,19.2c-0.9,1.1-0.7,2.6,0.3,3.5c0.5,0.4,1,0.6,1.6,0.6
		c0.7,0,1.4-0.3,1.9-0.9c5.7-6.9,13.3-12.9,22.6-17.9c1.2-0.7,1.7-2.2,1-3.4C539.3,853.4,537.8,852.9,536.6,853.6z"/>
	<path class="st0" d="M655.1,834.7c-14.2-0.1-21.9-0.2-22-0.2c0,0,0,0,0,0c-0.1,0-3-0.1-8.1-0.1c-1.4,0-2.5,1.2-2.5,2.5
		c0,1.4,1.1,2.5,2.5,2.5c0,0,0,0,0,0c4.9-0.1,7.8,0.1,7.9,0.1c0,0,7.7,0.1,22.1,0.2c0,0,0,0,0,0c1.4,0,2.5-1.1,2.5-2.5
		C657.6,835.8,656.5,834.7,655.1,834.7z"/>
	<path class="st0" d="M715.2,835.2c-11-0.1-21-0.2-30-0.2c0,0,0,0,0,0c-1.4,0-2.5,1.1-2.5,2.5c0,1.4,1.1,2.5,2.5,2.5
		c9,0.1,19,0.1,30,0.2c0,0,0,0,0,0c1.4,0,2.5-1.1,2.5-2.5C717.7,836.3,716.6,835.2,715.2,835.2z"/>
	<path class="st0" d="M1075.3,836.3C1075.3,836.3,1075.3,836.3,1075.3,836.3c-10.1,0-20.1,0-30,0c-1.4,0-2.5,1.1-2.5,2.5
		s1.1,2.5,2.5,2.5c9.9,0,19.9,0,30,0c1.4,0,2.5-1.1,2.5-2.5C1077.8,837.4,1076.7,836.3,1075.3,836.3z"/>
	<path class="st0" d="M1015.3,836.3c-10.1,0-20.1,0-30,0c0,0,0,0,0,0c-1.4,0-2.5,1.1-2.5,2.5c0,1.4,1.1,2.5,2.5,2.5
		c9.9,0,19.9,0,30,0c0,0,0,0,0,0c1.4,0,2.5-1.1,2.5-2.5C1017.8,837.4,1016.7,836.3,1015.3,836.3z"/>
	<path class="st0" d="M1398,755.9c-1.3-0.3-2.7,0.5-3,1.9c-2.2,9.8-5.6,19-10.3,27.3c-0.7,1.2-0.2,2.7,1,3.4
		c0.4,0.2,0.8,0.3,1.2,0.3c0.9,0,1.7-0.5,2.2-1.3c4.9-8.8,8.5-18.4,10.8-28.7C1400.2,757.5,1399.4,756.2,1398,755.9z"/>
	<path class="st0" d="M1314.6,832.7c-9.1,1.7-19,2.7-29.4,2.9c-1.4,0-2.5,1.2-2.5,2.5c0,1.4,1.1,2.5,2.5,2.5c0,0,0,0,0,0
		c10.7-0.2,20.8-1.1,30.2-3c1.4-0.3,2.2-1.6,2-2.9C1317.3,833.4,1316,832.5,1314.6,832.7z"/>
	<path class="st0" d="M1401.7,719.3c-1-6.8-2.3-13.8-3.9-20.9c-0.3-1.3-1.6-2.2-3-1.9c-1.3,0.3-2.2,1.6-1.9,3
		c1.6,7,2.9,13.9,3.9,20.5c0.4,2.8,0.7,5.7,0.8,8.6c0.1,1.3,1.2,2.4,2.5,2.4c0,0,0.1,0,0.1,0c1.4-0.1,2.4-1.2,2.4-2.6
		C1402.4,725.3,1402.1,722.2,1401.7,719.3z"/>
	<path class="st0" d="M1366.8,807.9c-7,6.4-15.2,11.8-24.3,16c-1.3,0.6-1.8,2.1-1.2,3.3c0.4,0.9,1.3,1.5,2.3,1.5
		c0.4,0,0.7-0.1,1-0.2c9.6-4.4,18.2-10.1,25.6-16.9c1-0.9,1.1-2.5,0.2-3.5C1369.4,807.1,1367.8,807,1366.8,807.9z"/>
	<path class="st0" d="M1135.3,836.2C1135.3,836.2,1135.3,836.2,1135.3,836.2c-10.1,0-20.1,0-30,0.1c-1.4,0-2.5,1.1-2.5,2.5
		c0,1.4,1.1,2.5,2.5,2.5c0,0,0,0,0,0c9.9,0,19.9,0,30-0.1c1.4,0,2.5-1.1,2.5-2.5S1136.7,836.2,1135.3,836.2z"/>
	<path class="st0" d="M1255.3,835.8C1255.3,835.8,1255.3,835.8,1255.3,835.8c-10,0.1-20,0.1-30,0.1c-1.4,0-2.5,1.1-2.5,2.5
		c0,1.4,1.1,2.5,2.5,2.5c0,0,0,0,0,0c10,0,20-0.1,30-0.1c1.4,0,2.5-1.1,2.5-2.5C1257.8,836.9,1256.7,835.8,1255.3,835.8z"/>
	<path class="st0" d="M1195.3,836C1195.3,836,1195.3,836,1195.3,836c-10.1,0-20.1,0.1-30,0.1c-1.4,0-2.5,1.1-2.5,2.5
		c0,1.4,1.1,2.5,2.5,2.5c0,0,0,0,0,0c10,0,20-0.1,30-0.1c1.4,0,2.5-1.1,2.5-2.5C1197.8,837.2,1196.7,836,1195.3,836z"/>
	<path class="st0" d="M1378,652c2.5,6.2,4.8,12.5,6.9,18.8c0.3,1,1.3,1.7,2.4,1.7c0.3,0,0.5,0,0.8-0.1c1.3-0.4,2-1.8,1.6-3.2
		c-2.2-6.5-4.6-13-7.1-19.5l17.5-0.7l-35.5-31.8l2,47.6L1378,652z"/>
</g>
</svg>
