<?xml version="1.0" encoding="utf-8"?>
<!-- Generator: Adobe Illustrator 24.0.1, SVG Export Plug-In . SVG Version: 6.00 Build 0)  -->
<svg version="1.1" id="Club_-_Pit_Road" xmlns="http://www.w3.org/2000/svg" xmlns:xlink="http://www.w3.org/1999/xlink" x="0px"
	 y="0px" viewBox="0 0 1920 1080" style="enable-background:new 0 0 1920 1080;" xml:space="preserve">
<style type="text/css">
	.st0{fill:#D82520;}
</style>
<title>pitroad</title>
<g id="Pitroad">
	<path class="st0" d="M876.1,223.6C876.1,223.6,876.1,223.6,876.1,223.6c-7.8,0-14.9,0.1-21.2,0.2c-2.9,0-6,0.1-9,0.5
		c-1.4,0.2-2.4,1.4-2.2,2.8c0.1,1.3,1.2,2.2,2.5,2.2c0.1,0,0.2,0,0.3,0c2.8-0.3,5.8-0.4,8.6-0.4c6.3-0.1,13.4-0.2,21.1-0.2
		c1.4,0,2.5-1.1,2.5-2.5C878.6,224.7,877.5,223.6,876.1,223.6z"/>
	<path class="st0" d="M996.2,224.6l-30-0.3c0,0,0,0,0,0c-1.4,0-2.5,1.1-2.5,2.5c0,1.4,1.1,2.5,2.5,2.5l30,0.3c0,0,0,0,0,0
		c1.4,0,2.5-1.1,2.5-2.5C998.7,225.7,997.5,224.6,996.2,224.6z"/>
	<path class="st0" d="M817.4,236.3c-5.6,3.7-12.2,8.5-20.2,14.8c-1.1,0.9-1.3,2.4-0.4,3.5c0.5,0.6,1.2,1,2,1c0.5,0,1.1-0.2,1.5-0.5
		c7.9-6.2,14.4-10.9,19.9-14.5c1.2-0.8,1.5-2.3,0.7-3.5C820.1,235.8,818.6,235.5,817.4,236.3z"/>
	<path class="st0" d="M936.1,223.9c-11.3-0.1-21.2-0.2-30-0.2c0,0,0,0,0,0c-1.4,0-2.5,1.1-2.5,2.5c0,1.4,1.1,2.5,2.5,2.5
		c8.8,0,18.7,0.1,30,0.2c0,0,0,0,0,0c1.4,0,2.5-1.1,2.5-2.5C938.6,225,937.5,223.9,936.1,223.9z"/>
	<path class="st0" d="M1160.8,194.4c-1.2-0.6-2.7-0.2-3.4,1.1c-3.2,6.2-6.1,12.6-8.6,19.1c-1,2.6-2.5,4.5-4.8,5.9
		c-1.2,0.7-1.5,2.3-0.8,3.4c0.5,0.8,1.3,1.2,2.1,1.2c0.5,0,0.9-0.1,1.3-0.4c3.2-2,5.4-4.7,6.8-8.4c2.4-6.3,5.2-12.6,8.3-18.5
		C1162.5,196.6,1162.1,195,1160.8,194.4z"/>
	<path class="st0" d="M1116.2,224.7C1116.1,224.7,1116.1,224.7,1116.2,224.7c-8.9,0.2-18.7,0.3-30,0.4c-1.4,0-2.5,1.1-2.5,2.5
		c0,1.4,1.1,2.5,2.5,2.5c0,0,0,0,0,0c11.4-0.1,21.2-0.2,30-0.4c1.4,0,2.5-1.2,2.4-2.6C1118.6,225.8,1117.5,224.7,1116.2,224.7z"/>
	<path class="st0" d="M1056.2,225.1c-9,0-18.9-0.1-30-0.2c0,0,0,0,0,0c-1.4,0-2.5,1.1-2.5,2.5c0,1.4,1.1,2.5,2.5,2.5
		c11.2,0.1,21,0.2,30,0.2c0,0,0,0,0,0c1.4,0,2.5-1.1,2.5-2.5C1058.7,226.2,1057.5,225.1,1056.2,225.1z"/>
	<path class="st0" d="M1174.3,143.4l15.3,9c-5.6,5.5-10.9,11.3-15.7,17.5c-0.8,1.1-0.7,2.7,0.4,3.5c0.5,0.4,1,0.5,1.5,0.5
		c0.7,0,1.5-0.3,2-1c4.5-5.7,9.3-11.2,14.5-16.3l4,16.5l24.2-41L1174.3,143.4z"/>
</g>
</svg>
